  0
SECTION
  2
HEADER
  9
$ACADVER
  1
AC1024
  9
$ACADMAINTVER
 70
     6
  9
$DWGCODEPAGE
  3
ANSI_932
  9
$INSBASE
 10
0.0
 20
0.0
 30
0.0
  9
$EXTMIN
 10
1.000000000000000E+20
 20
1.000000000000000E+20
 30
1.000000000000000E+20
  9
$EXTMAX
 10
-1.000000000000000E+20
 20
-1.000000000000000E+20
 30
-1.000000000000000E+20
  9
$LIMMIN
 10
0.0
 20
0.0
  9
$LIMMAX
 10
12.0
 20
9.0
  9
$ORTHOMODE
 70
     0
  9
$REGENMODE
 70
     1
  9
$FILLMODE
 70
     1
  9
$QTEXTMODE
 70
     0
  9
$MIRRTEXT
 70
     1
  9
$LTSCALE
 40
1.0
  9
$ATTMODE
 70
     1
  9
$TEXTSIZE
 40
0.2
  9
$TRACEWID
 40
0.05
  9
$TEXTSTYLE
  7
Standard
  9
$CLAYER
  8
0
  9
$CELTYPE
  6
ByLayer
  9
$CECOLOR
 62
   256
  9
$CELTSCALE
 40
1.0
  9
$DISPSILH
 70
     0
  9
$DIMSCALE
 40
1.0
  9
$DIMASZ
 40
0.18
  9
$DIMEXO
 40
0.0625
  9
$DIMDLI
 40
0.38
  9
$DIMRND
 40
0.0
  9
$DIMDLE
 40
0.0
  9
$DIMEXE
 40
0.18
  9
$DIMTP
 40
0.0
  9
$DIMTM
 40
0.0
  9
$DIMTXT
 40
0.18
  9
$DIMCEN
 40
0.09
  9
$DIMTSZ
 40
0.0
  9
$DIMTOL
 70
     0
  9
$DIMLIM
 70
     0
  9
$DIMTIH
 70
     1
  9
$DIMTOH
 70
     1
  9
$DIMSE1
 70
     0
  9
$DIMSE2
 70
     0
  9
$DIMTAD
 70
     0
  9
$DIMZIN
 70
     0
  9
$DIMBLK
  1

  9
$DIMASO
 70
     1
  9
$DIMSHO
 70
     1
  9
$DIMPOST
  1

  9
$DIMAPOST
  1

  9
$DIMALT
 70
     0
  9
$DIMALTD
 70
     2
  9
$DIMALTF
 40
25.4
  9
$DIMLFAC
 40
1.0
  9
$DIMTOFL
 70
     0
  9
$DIMTVP
 40
0.0
  9
$DIMTIX
 70
     0
  9
$DIMSOXD
 70
     0
  9
$DIMSAH
 70
     0
  9
$DIMBLK1
  1

  9
$DIMBLK2
  1

  9
$DIMSTYLE
  2
Standard
  9
$DIMCLRD
 70
     0
  9
$DIMCLRE
 70
     0
  9
$DIMCLRT
 70
     0
  9
$DIMTFAC
 40
1.0
  9
$DIMGAP
 40
0.09
  9
$DIMJUST
 70
     0
  9
$DIMSD1
 70
     0
  9
$DIMSD2
 70
     0
  9
$DIMTOLJ
 70
     1
  9
$DIMTZIN
 70
     0
  9
$DIMALTZ
 70
     0
  9
$DIMALTTZ
 70
     0
  9
$DIMUPT
 70
     0
  9
$DIMDEC
 70
     4
  9
$DIMTDEC
 70
     4
  9
$DIMALTU
 70
     2
  9
$DIMALTTD
 70
     2
  9
$DIMTXSTY
  7
Standard
  9
$DIMAUNIT
 70
     0
  9
$DIMADEC
 70
     0
  9
$DIMALTRND
 40
0.0
  9
$DIMAZIN
 70
     0
  9
$DIMDSEP
 70
    46
  9
$DIMATFIT
 70
     3
  9
$DIMFRAC
 70
     0
  9
$DIMLDRBLK
  1

  9
$DIMLUNIT
 70
     2
  9
$DIMLWD
 70
    -2
  9
$DIMLWE
 70
    -2
  9
$DIMTMOVE
 70
     0
  9
$DIMFXL
 40
1.0
  9
$DIMFXLON
 70
     0
  9
$DIMJOGANG
 40
0.7853981633974483
  9
$DIMTFILL
 70
     0
  9
$DIMTFILLCLR
 70
     0
  9
$DIMARCSYM
 70
     0
  9
$DIMLTYPE
  6

  9
$DIMLTEX1
  6

  9
$DIMLTEX2
  6

  9
$DIMTXTDIRECTION
 70
     0
  9
$LUNITS
 70
     2
  9
$LUPREC
 70
     4
  9
$SKETCHINC
 40
0.1
  9
$FILLETRAD
 40
0.5
  9
$AUNITS
 70
     0
  9
$AUPREC
 70
     0
  9
$MENU
  1
.
  9
$ELEVATION
 40
0.0
  9
$PELEVATION
 40
0.0
  9
$THICKNESS
 40
0.0
  9
$LIMCHECK
 70
     0
  9
$CHAMFERA
 40
0.5
  9
$CHAMFERB
 40
0.5
  9
$CHAMFERC
 40
1.0
  9
$CHAMFERD
 40
0.0
  9
$SKPOLY
 70
     0
  9
$TDCREATE
 40
2458553.070104248
  9
$TDUCREATE
 40
2458552.695104248
  9
$TDUPDATE
 40
2458553.070104248
  9
$TDUUPDATE
 40
2458552.695104248
  9
$TDINDWG
 40
0.0000000116
  9
$TDUSRTIMER
 40
0.0000000116
  9
$USRTIMER
 70
     1
  9
$ANGBASE
 50
0.0
  9
$ANGDIR
 70
     0
  9
$PDMODE
 70
     0
  9
$PDSIZE
 40
0.0
  9
$PLINEWID
 40
0.0
  9
$SPLFRAME
 70
     0
  9
$SPLINETYPE
 70
     6
  9
$SPLINESEGS
 70
     8
  9
$HANDSEED
  5
CD
  9
$SURFTAB1
 70
     6
  9
$SURFTAB2
 70
     6
  9
$SURFTYPE
 70
     6
  9
$SURFU
 70
     6
  9
$SURFV
 70
     6
  9
$UCSBASE
  2

  9
$UCSNAME
  2

  9
$UCSORG
 10
0.0
 20
0.0
 30
0.0
  9
$UCSXDIR
 10
1.0
 20
0.0
 30
0.0
  9
$UCSYDIR
 10
0.0
 20
1.0
 30
0.0
  9
$UCSORTHOREF
  2

  9
$UCSORTHOVIEW
 70
     0
  9
$UCSORGTOP
 10
0.0
 20
0.0
 30
0.0
  9
$UCSORGBOTTOM
 10
0.0
 20
0.0
 30
0.0
  9
$UCSORGLEFT
 10
0.0
 20
0.0
 30
0.0
  9
$UCSORGRIGHT
 10
0.0
 20
0.0
 30
0.0
  9
$UCSORGFRONT
 10
0.0
 20
0.0
 30
0.0
  9
$UCSORGBACK
 10
0.0
 20
0.0
 30
0.0
  9
$PUCSBASE
  2

  9
$PUCSNAME
  2

  9
$PUCSORG
 10
0.0
 20
0.0
 30
0.0
  9
$PUCSXDIR
 10
1.0
 20
0.0
 30
0.0
  9
$PUCSYDIR
 10
0.0
 20
1.0
 30
0.0
  9
$PUCSORTHOREF
  2

  9
$PUCSORTHOVIEW
 70
     0
  9
$PUCSORGTOP
 10
0.0
 20
0.0
 30
0.0
  9
$PUCSORGBOTTOM
 10
0.0
 20
0.0
 30
0.0
  9
$PUCSORGLEFT
 10
0.0
 20
0.0
 30
0.0
  9
$PUCSORGRIGHT
 10
0.0
 20
0.0
 30
0.0
  9
$PUCSORGFRONT
 10
0.0
 20
0.0
 30
0.0
  9
$PUCSORGBACK
 10
0.0
 20
0.0
 30
0.0
  9
$USERI1
 70
     0
  9
$USERI2
 70
     0
  9
$USERI3
 70
     0
  9
$USERI4
 70
     0
  9
$USERI5
 70
     0
  9
$USERR1
 40
0.0
  9
$USERR2
 40
0.0
  9
$USERR3
 40
0.0
  9
$USERR4
 40
0.0
  9
$USERR5
 40
0.0
  9
$WORLDVIEW
 70
     1
  9
$SHADEDGE
 70
     3
  9
$SHADEDIF
 70
    70
  9
$TILEMODE
 70
     1
  9
$MAXACTVP
 70
    64
  9
$PINSBASE
 10
0.0
 20
0.0
 30
0.0
  9
$PLIMCHECK
 70
     0
  9
$PEXTMIN
 10
1.000000000000000E+20
 20
1.000000000000000E+20
 30
1.000000000000000E+20
  9
$PEXTMAX
 10
-1.000000000000000E+20
 20
-1.000000000000000E+20
 30
-1.000000000000000E+20
  9
$PLIMMIN
 10
0.0
 20
0.0
  9
$PLIMMAX
 10
12.0
 20
9.0
  9
$UNITMODE
 70
     0
  9
$VISRETAIN
 70
     1
  9
$PLINEGEN
 70
     0
  9
$PSLTSCALE
 70
     1
  9
$TREEDEPTH
 70
  3020
  9
$CMLSTYLE
  2
Standard
  9
$CMLJUST
 70
     0
  9
$CMLSCALE
 40
1.0
  9
$PROXYGRAPHICS
 70
     1
  9
$MEASUREMENT
 70
     0
  9
$CELWEIGHT
370
    -1
  9
$ENDCAPS
280
     0
  9
$JOINSTYLE
280
     0
  9
$LWDISPLAY
290
     1
  9
$INSUNITS
 70
     1
  9
$HYPERLINKBASE
  1

  9
$STYLESHEET
  1

  9
$XEDIT
290
     1
  9
$CEPSNTYPE
380
     0
  9
$PSTYLEMODE
290
     1
  9
$FINGERPRINTGUID
  2
{EFDECBB7-D214-435F-9767-B7AB9CB805C8}
  9
$VERSIONGUID
  2
{FAEB1C32-E019-11D5-929B-00C0DF256EC4}
  9
$EXTNAMES
290
     1
  9
$PSVPSCALE
 40
0.0
  9
$OLESTARTUP
290
     0
  9
$SORTENTS
280
   127
  9
$INDEXCTL
280
     0
  9
$HIDETEXT
280
     1
  9
$XCLIPFRAME
280
     2
  9
$HALOGAP
280
     0
  9
$OBSCOLOR
 70
   257
  9
$OBSLTYPE
280
     0
  9
$INTERSECTIONDISPLAY
280
     0
  9
$INTERSECTIONCOLOR
 70
   257
  9
$DIMASSOC
280
     2
  9
$PROJECTNAME
  1

  9
$CAMERADISPLAY
290
     0
  9
$LENSLENGTH
 40
50.0
  9
$CAMERAHEIGHT
 40
0.0
  9
$STEPSPERSEC
 40
2.0
  9
$STEPSIZE
 40
6.0
  9
$3DDWFPREC
 40
2.0
  9
$PSOLWIDTH
 40
0.25
  9
$PSOLHEIGHT
 40
4.0
  9
$LOFTANG1
 40
1.570796326794897
  9
$LOFTANG2
 40
1.570796326794897
  9
$LOFTMAG1
 40
0.0
  9
$LOFTMAG2
 40
0.0
  9
$LOFTPARAM
 70
     7
  9
$LOFTNORMALS
280
     1
  9
$LATITUDE
 40
37.795
  9
$LONGITUDE
 40
-122.394
  9
$NORTHDIRECTION
 40
0.0
  9
$TIMEZONE
 70
 -8000
  9
$LIGHTGLYPHDISPLAY
280
     1
  9
$TILEMODELIGHTSYNCH
280
     1
  9
$CMATERIAL
347
3C
  9
$SOLIDHIST
280
     1
  9
$SHOWHIST
280
     1
  9
$DWFFRAME
280
     2
  9
$DGNFRAME
280
     2
  9
$REALWORLDSCALE
290
     1
  9
$INTERFERECOLOR
 62
   256
  9
$CSHADOW
280
     0
  9
$SHADOWPLANELOCATION
 40
0.0
  0
ENDSEC
  0
SECTION
  2
CLASSES
  0
CLASS
  1
ACDBDICTIONARYWDFLT
  2
AcDbDictionaryWithDefault
  3
ObjectDBX Classes
 90
        0
 91
        4
280
     0
281
     0
  0
CLASS
  1
VISUALSTYLE
  2
AcDbVisualStyle
  3
ObjectDBX Classes
 90
     4095
 91
        4
280
     0
281
     0
  0
CLASS
  1
MATERIAL
  2
AcDbMaterial
  3
ObjectDBX Classes
 90
     1153
 91
        4
280
     0
281
     0
  0
CLASS
  1
SUN
  2
AcDbSun
  3
SCENEOE
 90
     1024
 91
        4
280
     0
281
     0
  0
ENDSEC
  0
SECTION
  2
TABLES
  0
TABLE
  2
VPORT
  5
8
330
0
100
AcDbSymbolTable
 70
     1
  0
VPORT
  5
29
330
8
100
AcDbSymbolTableRecord
100
AcDbViewportTableRecord
  2
*Active
 70
     0
 10
0.0
 20
0.0
 11
1.0
 21
1.0
 12
0.0
 22
0.0
 13
0.0
 23
0.0
 14
0.5
 24
0.5
 15
0.5
 25
0.5
 16
0.0
 26
0.0
 36
1.0
 17
239.9999999399998
 27
-209.9999999474999
 37
0.0
 40
419.9999998949992
 41
1.142857142857143
 42
50.0
 43
0.0
 44
0.0
 50
0.0
 51
0.0
 71
     0
 72
   100
 73
     1
 74
     3
 75
     0
 76
     0
 77
     0
 78
     0
281
     0
 65
     1
110
0.0
120
0.0
130
0.0
111
1.0
121
0.0
131
0.0
112
0.0
122
1.0
132
0.0
 79
     0
146
0.0
 60
     3
 61
     5
292
     1
282
     1
141
0.0
142
0.0
 63
   250
361
3F
  0
ENDTAB
  0
TABLE
  2
LTYPE
  5
5
330
0
100
AcDbSymbolTable
 70
     1
  0
LTYPE
  5
14
330
5
100
AcDbSymbolTableRecord
100
AcDbLinetypeTableRecord
  2
ByBlock
 70
     0
  3

 72
    65
 73
     0
 40
0.0
  0
LTYPE
  5
15
330
5
100
AcDbSymbolTableRecord
100
AcDbLinetypeTableRecord
  2
ByLayer
 70
     0
  3

 72
    65
 73
     0
 40
0.0
  0
LTYPE
  5
16
330
5
100
AcDbSymbolTableRecord
100
AcDbLinetypeTableRecord
  2
Continuous
 70
     0
  3
Solid line
 72
    65
 73
     0
 40
0.0
  0
ENDTAB
  0
TABLE
  2
LAYER
  5
2
330
0
100
AcDbSymbolTable
 70
     2
  0
LAYER
  5
10
330
2
100
AcDbSymbolTableRecord
100
AcDbLayerTableRecord
  2
0
 70
     0
 62
     7
  6
Continuous
370
    -3
390
F
347
3E
  0
LAYER
  5
40
330
2
100
AcDbSymbolTableRecord
100
AcDbLayerTableRecord
  2
OneCircle
 70
     0
 62
     7
  6
Continuous
370
    -3
390
F
347
3E
  0
ENDTAB
  0
TABLE
  2
STYLE
  5
3
330
0
100
AcDbSymbolTable
 70
     1
  0
STYLE
  5
11
330
3
100
AcDbSymbolTableRecord
100
AcDbTextStyleTableRecord
  2
Standard
 70
     0
 40
0.0
 41
1.0
 50
0.0
 71
     0
 42
0.2
  3
txt
  4

  0
ENDTAB
  0
TABLE
  2
VIEW
  5
6
330
0
100
AcDbSymbolTable
 70
     0
  0
ENDTAB
  0
TABLE
  2
UCS
  5
7
330
0
100
AcDbSymbolTable
 70
     0
  0
ENDTAB
  0
TABLE
  2
APPID
  5
9
330
0
100
AcDbSymbolTable
 70
     1
  0
APPID
  5
12
330
9
100
AcDbSymbolTableRecord
100
AcDbRegAppTableRecord
  2
ACAD
 70
     0
  0
ENDTAB
  0
TABLE
  2
DIMSTYLE
  5
A
330
0
100
AcDbSymbolTable
 70
     1
100
AcDbDimStyleTable
  0
DIMSTYLE
105
27
330
A
100
AcDbSymbolTableRecord
100
AcDbDimStyleTableRecord
  2
Standard
 70
     0
178
     0
340
11
  0
ENDTAB
  0
TABLE
  2
BLOCK_RECORD
  5
1
330
0
100
AcDbSymbolTable
 70
    25
  0
BLOCK_RECORD
  5
1F
330
1
100
AcDbSymbolTableRecord
100
AcDbBlockTableRecord
  2
*Model_Space
340
22
 70
     0
280
     1
281
     0
  0
BLOCK_RECORD
  5
1B
330
1
100
AcDbSymbolTableRecord
100
AcDbBlockTableRecord
  2
*Paper_Space
340
1E
 70
     0
280
     1
281
     0
  0
BLOCK_RECORD
  5
23
330
1
100
AcDbSymbolTableRecord
100
AcDbBlockTableRecord
  2
*Paper_Space0
340
26
 70
     0
280
     1
281
     0
  0
BLOCK_RECORD
  5
41
330
1
100
AcDbSymbolTableRecord
100
AcDbBlockTableRecord
  2
block 2
340
0
102
{BLKREFS
331
42
102
}
 70
     0
280
     1
281
     0
  0
BLOCK_RECORD
  5
46
330
1
100
AcDbSymbolTableRecord
100
AcDbBlockTableRecord
  2
block 3
340
0
102
{BLKREFS
331
47
102
}
 70
     0
280
     1
281
     0
  0
BLOCK_RECORD
  5
4B
330
1
100
AcDbSymbolTableRecord
100
AcDbBlockTableRecord
  2
block 4
340
0
102
{BLKREFS
331
4C
102
}
 70
     0
280
     1
281
     0
  0
BLOCK_RECORD
  5
4F
330
1
100
AcDbSymbolTableRecord
100
AcDbBlockTableRecord
  2
block 5
340
0
102
{BLKREFS
331
50
102
}
 70
     0
280
     1
281
     0
  0
BLOCK_RECORD
  5
55
330
1
100
AcDbSymbolTableRecord
100
AcDbBlockTableRecord
  2
block 6
340
0
102
{BLKREFS
331
56
102
}
 70
     0
280
     1
281
     0
  0
BLOCK_RECORD
  5
59
330
1
100
AcDbSymbolTableRecord
100
AcDbBlockTableRecord
  2
block 7
340
0
102
{BLKREFS
331
5A
102
}
 70
     0
280
     1
281
     0
  0
BLOCK_RECORD
  5
5F
330
1
100
AcDbSymbolTableRecord
100
AcDbBlockTableRecord
  2
block 8
340
0
102
{BLKREFS
331
60
102
}
 70
     0
280
     1
281
     0
  0
BLOCK_RECORD
  5
64
330
1
100
AcDbSymbolTableRecord
100
AcDbBlockTableRecord
  2
block 9
340
0
102
{BLKREFS
331
65
102
}
 70
     0
280
     1
281
     0
  0
BLOCK_RECORD
  5
69
330
1
100
AcDbSymbolTableRecord
100
AcDbBlockTableRecord
  2
block 10
340
0
102
{BLKREFS
331
6A
102
}
 70
     0
280
     1
281
     0
  0
BLOCK_RECORD
  5
6F
330
1
100
AcDbSymbolTableRecord
100
AcDbBlockTableRecord
  2
block 11
340
0
102
{BLKREFS
331
70
102
}
 70
     0
280
     1
281
     0
  0
BLOCK_RECORD
  5
74
330
1
100
AcDbSymbolTableRecord
100
AcDbBlockTableRecord
  2
block 12
340
0
102
{BLKREFS
331
75
102
}
 70
     0
280
     1
281
     0
  0
BLOCK_RECORD
  5
79
330
1
100
AcDbSymbolTableRecord
100
AcDbBlockTableRecord
  2
block 13
340
0
102
{BLKREFS
331
7A
102
}
 70
     0
280
     1
281
     0
  0
BLOCK_RECORD
  5
7F
330
1
100
AcDbSymbolTableRecord
100
AcDbBlockTableRecord
  2
block 14
340
0
102
{BLKREFS
331
80
102
}
 70
     0
280
     1
281
     0
  0
BLOCK_RECORD
  5
84
330
1
100
AcDbSymbolTableRecord
100
AcDbBlockTableRecord
  2
block 15
340
0
102
{BLKREFS
331
85
102
}
 70
     0
280
     1
281
     0
  0
BLOCK_RECORD
  5
8C
330
1
100
AcDbSymbolTableRecord
100
AcDbBlockTableRecord
  2
block 16
340
0
102
{BLKREFS
331
8D
102
}
 70
     0
280
     1
281
     0
  0
BLOCK_RECORD
  5
93
330
1
100
AcDbSymbolTableRecord
100
AcDbBlockTableRecord
  2
block 17
340
0
102
{BLKREFS
331
94
102
}
 70
     0
280
     1
281
     0
  0
BLOCK_RECORD
  5
99
330
1
100
AcDbSymbolTableRecord
100
AcDbBlockTableRecord
  2
block 18
340
0
102
{BLKREFS
331
9A
102
}
 70
     0
280
     1
281
     0
  0
BLOCK_RECORD
  5
9E
330
1
100
AcDbSymbolTableRecord
100
AcDbBlockTableRecord
  2
block 19
340
0
102
{BLKREFS
331
9F
102
}
 70
     0
280
     1
281
     0
  0
BLOCK_RECORD
  5
A5
330
1
100
AcDbSymbolTableRecord
100
AcDbBlockTableRecord
  2
block 20
340
0
102
{BLKREFS
331
A6
102
}
 70
     0
280
     1
281
     0
  0
BLOCK_RECORD
  5
AC
330
1
100
AcDbSymbolTableRecord
100
AcDbBlockTableRecord
  2
block 21
340
0
102
{BLKREFS
331
AD
102
}
 70
     0
280
     1
281
     0
  0
BLOCK_RECORD
  5
B3
330
1
100
AcDbSymbolTableRecord
100
AcDbBlockTableRecord
  2
block 22
340
0
102
{BLKREFS
331
B4
102
}
 70
     0
280
     1
281
     0
  0
BLOCK_RECORD
  5
B9
330
1
100
AcDbSymbolTableRecord
100
AcDbBlockTableRecord
  2
block 23
340
0
102
{BLKREFS
331
BA
102
}
 70
     0
280
     1
281
     0
  0
BLOCK_RECORD
  5
BE
330
1
100
AcDbSymbolTableRecord
100
AcDbBlockTableRecord
  2
block 24
340
0
102
{BLKREFS
331
BF
102
}
 70
     0
280
     1
281
     0
  0
BLOCK_RECORD
  5
C5
330
1
100
AcDbSymbolTableRecord
100
AcDbBlockTableRecord
  2
block 25
340
0
102
{BLKREFS
331
C6
102
}
 70
     0
280
     1
281
     0
  0
ENDTAB
  0
ENDSEC
  0
SECTION
  2
BLOCKS
  0
BLOCK
  5
20
330
1F
100
AcDbEntity
  8
0
100
AcDbBlockBegin
  2
*Model_Space
 70
     0
 10
0.0
 20
0.0
 30
0.0
  3
*Model_Space
  1

  0
ENDBLK
  5
21
330
1F
100
AcDbEntity
  8
0
100
AcDbBlockEnd
  0
BLOCK
  5
1C
330
1B
100
AcDbEntity
 67
     1
  8
0
100
AcDbBlockBegin
  2
*Paper_Space
 70
     0
 10
0.0
 20
0.0
 30
0.0
  3
*Paper_Space
  1

  0
ENDBLK
  5
1D
330
1B
100
AcDbEntity
 67
     1
  8
0
100
AcDbBlockEnd
  0
BLOCK
  5
24
330
23
100
AcDbEntity
  8
0
100
AcDbBlockBegin
  2
*Paper_Space0
 70
     0
 10
0.0
 20
0.0
 30
0.0
  3
*Paper_Space0
  1

  0
ENDBLK
  5
25
330
23
100
AcDbEntity
  8
0
100
AcDbBlockEnd
  0
BLOCK
  5
43
330
41
100
AcDbEntity
  8
0
100
AcDbBlockBegin
  2
block 2
 70
     0
 10
0.0
 20
0.0
 30
0.0
  3
block 2
  1

  0
SPLINE
  5
45
330
41
100
AcDbEntity
  8
OneCircle
 62
     7
420
 16777215
370
    35
100
AcDbSpline
210
0.0
220
0.0
230
1.0
 70
     8
 71
     3
 72
    17
 73
    13
 74
     0
 42
0.0000000001
 43
0.0000000001
 12
1.0
 22
0.0
 32
0.0
 13
1.0
 23
0.0
 33
0.0
 40
0.0
 40
0.0
 40
0.0
 40
0.0
 40
1.0
 40
1.0
 40
1.0
 40
2.0
 40
2.0
 40
2.0
 40
3.0
 40
3.0
 40
3.0
 40
4.0
 40
4.0
 40
4.0
 40
4.0
 10
186.3045085923915
 20
-21.85555065019347
 30
0.0
 10
186.3045085923915
 20
-21.85555065019347
 30
0.0
 10
215.24934452953
 20
-21.85555065019347
 30
0.0
 10
215.24934452953
 20
-21.85555065019347
 30
0.0
 10
208.3210137028269
 20
-9.9470815512917
 30
0.0
 10
195.430111233871
 20
-1.935652126521939
 30
0.0
 10
180.6600900578382
 20
-1.935652126521939
 30
0.0
 10
165.8901033326042
 20
-1.935652126521939
 30
0.0
 10
153.0994411668532
 20
-9.947078974264294
 30
0.0
 10
146.171110340154
 20
-21.85554807316607
 30
0.0
 10
146.171110340154
 20
-21.85554807316607
 30
0.0
 10
175.0156715232881
 20
-21.85555065019347
 30
0.0
 10
175.0156715232881
 20
-21.85555065019347
 30
0.0
  0
ENDBLK
  5
44
330
41
100
AcDbEntity
  8
0
100
AcDbBlockEnd
  0
BLOCK
  5
48
330
46
100
AcDbEntity
  8
0
100
AcDbBlockBegin
  2
block 3
 70
     0
 10
0.0
 20
0.0
 30
0.0
  3
block 3
  1

  0
SPLINE
  5
4A
330
46
100
AcDbEntity
  8
OneCircle
 62
     7
420
 16777215
370
    35
100
AcDbSpline
210
0.0
220
0.0
230
1.0
 70
     8
 71
     3
 72
    17
 73
    13
 74
     0
 42
0.0000000001
 43
0.0000000001
 12
1.0
 22
0.0
 32
0.0
 13
1.0
 23
0.0
 33
0.0
 40
0.0
 40
0.0
 40
0.0
 40
0.0
 40
1.0
 40
1.0
 40
1.0
 40
2.0
 40
2.0
 40
2.0
 40
3.0
 40
3.0
 40
3.0
 40
4.0
 40
4.0
 40
4.0
 40
4.0
 10
117.006550625927
 20
-21.85555065019347
 30
0.0
 10
117.006550625927
 20
-21.85555065019347
 30
0.0
 10
145.9513865630656
 20
-21.85555065019347
 30
0.0
 10
145.9513865630656
 20
-21.85555065019347
 30
0.0
 10
139.0230557363666
 20
-9.9470815512917
 30
0.0
 10
126.1321532674097
 20
-1.935652126521939
 30
0.0
 10
111.3621320913769
 20
-1.935652126521939
 30
0.0
 10
96.59214536614355
 20
-1.935652126521939
 30
0.0
 10
83.67575984630221
 20
-9.947530895633893
 30
0.0
 10
76.74742901960327
 20
-21.85599999453598
 30
0.0
 10
76.74742901960327
 20
-21.85599999453598
 30
0.0
 10
105.7177135568268
 20
-21.85555065019347
 30
0.0
 10
105.7177135568268
 20
-21.85555065019347
 30
0.0
  0
ENDBLK
  5
49
330
46
100
AcDbEntity
  8
0
100
AcDbBlockEnd
  0
BLOCK
  5
4D
330
4B
100
AcDbEntity
  8
0
100
AcDbBlockBegin
  2
block 4
 70
     0
 10
0.0
 20
0.0
 30
0.0
  3
block 4
  1

  0
INSERT
  5
50
330
4B
100
AcDbEntity
  8
OneCircle
100
AcDbBlockReference
  2
block 5
 10
0.0
 20
0.0
 30
0.0
  0
INSERT
  5
56
330
4B
100
AcDbEntity
  8
OneCircle
100
AcDbBlockReference
  2
block 6
 10
0.0
 20
0.0
 30
0.0
  0
ENDBLK
  5
4E
330
4B
100
AcDbEntity
  8
0
100
AcDbBlockEnd
  0
BLOCK
  5
51
330
4F
100
AcDbEntity
  8
0
100
AcDbBlockBegin
  2
block 5
 70
     0
 10
0.0
 20
0.0
 30
0.0
  3
block 5
  1

  0
SPLINE
  5
53
330
4F
100
AcDbEntity
  8
OneCircle
 62
     7
420
 16777215
370
    35
100
AcDbSpline
210
0.0
220
0.0
230
1.0
 70
     8
 71
     3
 72
    17
 73
    13
 74
     0
 42
0.0000000001
 43
0.0000000001
 12
1.0
 22
0.0
 32
0.0
 13
1.0
 23
0.0
 33
0.0
 40
0.0
 40
0.0
 40
0.0
 40
0.0
 40
1.0
 40
1.0
 40
1.0
 40
2.0
 40
2.0
 40
2.0
 40
3.0
 40
3.0
 40
3.0
 40
4.0
 40
4.0
 40
4.0
 40
4.0
 10
56.26118665275721
 20
-57.44320070836785
 30
0.0
 10
56.26118665275721
 20
-57.44320070836785
 30
0.0
 10
42.12827808848142
 20
-81.89363339234532
 30
0.0
 10
42.12827808848142
 20
-81.89363339234532
 30
0.0
 10
38.71007003795654
 20
-76.0008246134452
 30
0.0
 10
36.76372379846316
 20
-69.15471460242397
 30
0.0
 10
36.76372379846316
 20
-61.85190361538123
 30
0.0
 10
36.76372379846316
 20
-39.76064027606153
 30
0.0
 10
54.66981330180495
 20
-21.85210445419694
 30
0.0
 10
76.7611110919199
 20
-21.85210445419694
 30
0.0
 10
76.7611110919199
 20
-21.85210445419694
 30
0.0
 10
61.90560518731054
 20
-47.66678806605611
 30
0.0
 10
61.90560518731054
 20
-47.66678806605611
 30
0.0
  0
SPLINE
  5
54
330
4F
100
AcDbEntity
  8
OneCircle
 62
     7
420
 16777215
370
    35
100
AcDbSpline
210
0.0
220
0.0
230
1.0
 70
     8
 71
     3
 72
    17
 73
    13
 74
     0
 42
0.0000000001
 43
0.0000000001
 12
1.0
 22
0.0
 32
0.0
 13
1.0
 23
0.0
 33
0.0
 40
0.0
 40
0.0
 40
0.0
 40
0.0
 40
1.0
 40
1.0
 40
1.0
 40
2.0
 40
2.0
 40
2.0
 40
3.0
 40
3.0
 40
3.0
 40
4.0
 40
4.0
 40
4.0
 40
4.0
 10
27.25419249942807
 20
-107.6825125724858
 30
0.0
 10
27.25419249942807
 20
-107.6825125724858
 30
0.0
 10
42.12127010114102
 20
-81.90782877701257
 30
0.0
 10
42.12127010114102
 20
-81.90782877701257
 30
0.0
 10
20.02997231102607
 20
-81.90782877701257
 30
0.0
 10
2.112311110584218
 20
-99.77636478249086
 30
0.0
 10
2.112311110584218
 20
-121.8676281218102
 30
0.0
 10
2.112311110584218
 20
-129.1704391088536
 30
0.0
 10
4.104820868877493
 20
-136.0547443943726
 30
0.0
 10
7.523028919403014
 20
-141.9475531732731
 30
0.0
 10
7.523028919403014
 20
-141.9475531732731
 30
0.0
 10
21.60977396487795
 20
-117.4589252147972
 30
0.0
 10
21.60977396487795
 20
-117.4589252147972
 30
0.0
  0
ENDBLK
  5
52
330
4F
100
AcDbEntity
  8
0
100
AcDbBlockEnd
  0
BLOCK
  5
57
330
55
100
AcDbEntity
  8
0
100
AcDbBlockBegin
  2
block 6
 70
     0
 10
0.0
 20
0.0
 30
0.0
  3
block 6
  1

  0
INSERT
  5
5A
330
55
100
AcDbEntity
  8
OneCircle
100
AcDbBlockReference
  2
block 7
 10
0.0
 20
0.0
 30
0.0
  0
ENDBLK
  5
58
330
55
100
AcDbEntity
  8
0
100
AcDbBlockEnd
  0
BLOCK
  5
5B
330
59
100
AcDbEntity
  8
0
100
AcDbBlockBegin
  2
block 7
 70
     0
 10
0.0
 20
0.0
 30
0.0
  3
block 7
  1

  0
SPLINE
  5
5D
330
59
100
AcDbEntity
  8
OneCircle
 62
     7
420
 16777215
370
    35
100
AcDbSpline
210
0.0
220
0.0
230
1.0
 70
     8
 71
     3
 72
    17
 73
    13
 74
     0
 42
0.0000000001
 43
0.0000000001
 12
1.0
 22
0.0
 32
0.0
 13
1.0
 23
0.0
 33
0.0
 40
0.0
 40
0.0
 40
0.0
 40
0.0
 40
1.0
 40
1.0
 40
1.0
 40
2.0
 40
2.0
 40
2.0
 40
3.0
 40
3.0
 40
3.0
 40
4.0
 40
4.0
 40
4.0
 40
4.0
 10
56.26118665275721
 20
-226.3564568891022
 30
0.0
 10
56.26118665275721
 20
-226.3564568891022
 30
0.0
 10
42.12827808848142
 20
-201.9060242051244
 30
0.0
 10
42.12827808848142
 20
-201.9060242051244
 30
0.0
 10
38.71007003795654
 20
-207.7988329840248
 30
0.0
 10
36.76372379846316
 20
-214.6449429950461
 30
0.0
 10
36.76372379846316
 20
-221.9477539820888
 30
0.0
 10
36.76372379846316
 20
-244.0390173214091
 30
0.0
 10
54.66981330180495
 20
-261.9475531432731
 30
0.0
 10
76.7611110919199
 20
-261.9475531432731
 30
0.0
 10
76.7611110919199
 20
-261.9475531432731
 30
0.0
 10
61.90560518731054
 20
-236.1328695314139
 30
0.0
 10
61.90560518731054
 20
-236.1328695314139
 30
0.0
  0
SPLINE
  5
5E
330
59
100
AcDbEntity
  8
OneCircle
 62
     7
420
 16777215
370
    35
100
AcDbSpline
210
0.0
220
0.0
230
1.0
 70
     8
 71
     3
 72
    17
 73
    13
 74
     0
 42
0.0000000001
 43
0.0000000001
 12
1.0
 22
0.0
 32
0.0
 13
1.0
 23
0.0
 33
0.0
 40
0.0
 40
0.0
 40
0.0
 40
0.0
 40
1.0
 40
1.0
 40
1.0
 40
2.0
 40
2.0
 40
2.0
 40
3.0
 40
3.0
 40
3.0
 40
4.0
 40
4.0
 40
4.0
 40
4.0
 10
27.25419249942807
 20
-176.1171450249852
 30
0.0
 10
27.25419249942807
 20
-176.1171450249852
 30
0.0
 10
42.12127010114102
 20
-201.8918288204574
 30
0.0
 10
42.12127010114102
 20
-201.8918288204574
 30
0.0
 10
20.02997231102607
 20
-201.8918288204574
 30
0.0
 10
2.112311110584218
 20
-184.0232928149788
 30
0.0
 10
2.112311110584218
 20
-161.9320294756598
 30
0.0
 10
2.112311110584218
 20
-154.6292184886164
 30
0.0
 10
4.104820868877493
 20
-147.744913203097
 30
0.0
 10
7.523028919403014
 20
-141.8521044241969
 30
0.0
 10
7.523028919403014
 20
-141.8521044241969
 30
0.0
 10
21.60977396487795
 20
-166.3407323826729
 30
0.0
 10
21.60977396487795
 20
-166.3407323826729
 30
0.0
  0
ENDBLK
  5
5C
330
59
100
AcDbEntity
  8
0
100
AcDbBlockEnd
  0
BLOCK
  5
61
330
5F
100
AcDbEntity
  8
0
100
AcDbBlockBegin
  2
block 8
 70
     0
 10
0.0
 20
0.0
 30
0.0
  3
block 8
  1

  0
SPLINE
  5
63
330
5F
100
AcDbEntity
  8
OneCircle
 62
     7
420
 16777215
370
    35
100
AcDbSpline
210
0.0
220
0.0
230
1.0
 70
    27
 71
     3
 72
    11
 73
     7
 74
     0
 42
0.0000000001
 43
0.0000000001
 12
1.0
 22
0.0
 32
0.0
 13
1.0
 23
0.0
 33
0.0
 40
0.0
 40
0.0
 40
0.0
 40
0.0
 40
1.0
 40
1.0
 40
1.0
 40
2.0
 40
2.0
 40
2.0
 40
2.0
 10
225.2541724582603
 20
-49.06287215232415
 30
0.0
 10
225.2541724582603
 20
-49.06287215232415
 30
0.0
 10
230.8985909928104
 20
-58.83928479463557
 30
0.0
 10
230.8985909928104
 20
-58.83928479463557
 30
0.0
 10
230.8985909928104
 20
-58.83928479463557
 30
0.0
 10
225.2541724582603
 20
-49.06287215232415
 30
0.0
 10
225.2541724582603
 20
-49.06287215232415
 30
0.0
  0
INSERT
  5
65
330
5F
100
AcDbEntity
  8
OneCircle
100
AcDbBlockReference
  2
block 9
 10
0.0
 20
0.0
 30
0.0
  0
INSERT
  5
6A
330
5F
100
AcDbEntity
  8
OneCircle
100
AcDbBlockReference
  2
block 10
 10
0.0
 20
0.0
 30
0.0
  0
INSERT
  5
70
330
5F
100
AcDbEntity
  8
OneCircle
100
AcDbBlockReference
  2
block 11
 10
0.0
 20
0.0
 30
0.0
  0
ENDBLK
  5
62
330
5F
100
AcDbEntity
  8
0
100
AcDbBlockEnd
  0
BLOCK
  5
66
330
64
100
AcDbEntity
  8
0
100
AcDbBlockBegin
  2
block 9
 70
     0
 10
0.0
 20
0.0
 30
0.0
  3
block 9
  1

  0
SPLINE
  5
68
330
64
100
AcDbEntity
  8
OneCircle
 62
     7
420
 16777215
370
    35
100
AcDbSpline
210
0.0
220
0.0
230
1.0
 70
     8
 71
     3
 72
    20
 73
    16
 74
     0
 42
0.0000000001
 43
0.0000000001
 12
1.0
 22
0.0
 32
0.0
 13
1.0
 23
0.0
 33
0.0
 40
0.0
 40
0.0
 40
0.0
 40
0.0
 40
1.0
 40
1.0
 40
1.0
 40
2.0
 40
2.0
 40
2.0
 40
3.0
 40
3.0
 40
3.0
 40
4.0
 40
4.0
 40
4.0
 40
5.0
 40
5.0
 40
5.0
 40
5.0
 10
235.153574444862
 20
-56.38266738214941
 30
0.0
 10
235.153574444862
 20
-56.38266738214941
 30
0.0
 10
249.8920275115407
 20
-81.91143628405254
 30
0.0
 10
249.8920275115407
 20
-81.91143628405254
 30
0.0
 10
253.3102355620694
 20
-76.01862750515242
 30
0.0
 10
255.2633657600495
 20
-69.15471460242397
 30
0.0
 10
255.2633657600495
 20
-61.85190361538123
 30
0.0
 10
255.2633657600495
 20
-39.76064027606153
 30
0.0
 10
237.3548081012645
 20
-21.85211706807111
 30
0.0
 10
215.2635447619458
 20
-21.85211706807111
 30
0.0
 10
215.2635447619458
 20
-21.85211706807111
 30
0.0
 10
215.2635447619458
 20
-21.85210445419694
 30
0.0
 10
215.2635447619458
 20
-21.85210445419694
 30
0.0
 10
215.2635447619458
 20
-21.85210445419694
 30
0.0
 10
229.5091559103119
 20
-46.60625473983767
 30
0.0
 10
229.5091559103119
 20
-46.60625473983767
 30
0.0
  0
ENDBLK
  5
67
330
64
100
AcDbEntity
  8
0
100
AcDbBlockEnd
  0
BLOCK
  5
6B
330
69
100
AcDbEntity
  8
0
100
AcDbBlockBegin
  2
block 10
 70
     0
 10
0.0
 20
0.0
 30
0.0
  3
block 10
  1

  0
SPLINE
  5
6D
330
69
100
AcDbEntity
  8
OneCircle
 62
     7
420
 16777215
370
    35
100
AcDbSpline
210
0.0
220
0.0
230
1.0
 70
     8
 71
     3
 72
    17
 73
    13
 74
     0
 42
0.0000000001
 43
0.0000000001
 12
1.0
 22
0.0
 32
0.0
 13
1.0
 23
0.0
 33
0.0
 40
0.0
 40
0.0
 40
0.0
 40
0.0
 40
1.0
 40
1.0
 40
1.0
 40
2.0
 40
2.0
 40
2.0
 40
3.0
 40
3.0
 40
3.0
 40
4.0
 40
4.0
 40
4.0
 40
4.0
 10
264.1557011888932
 20
-106.621979246267
 30
0.0
 10
264.1557011888932
 20
-106.621979246267
 30
0.0
 10
249.8920275115407
 20
-81.91143628405254
 30
0.0
 10
249.8920275115407
 20
-81.91143628405254
 30
0.0
 10
271.9832908508633
 20
-81.91143628405254
 30
0.0
 10
289.9099110386341
 20
-99.77636478249055
 30
0.0
 10
289.9099110386341
 20
-121.8676281218099
 30
0.0
 10
289.9099110386341
 20
-129.1704391088533
 30
0.0
 10
287.9432873078912
 20
-136.0099557816094
 30
0.0
 10
284.5250792573664
 20
-141.9027645605099
 30
0.0
 10
284.5250792573664
 20
-141.9027645605099
 30
0.0
 10
269.8001197234433
 20
-116.3983918885787
 30
0.0
 10
269.8001197234433
 20
-116.3983918885787
 30
0.0
  0
SPLINE
  5
6E
330
69
100
AcDbEntity
  8
OneCircle
 62
     7
420
 16777215
370
    35
100
AcDbSpline
210
0.0
220
0.0
230
1.0
 70
    27
 71
     3
 72
    11
 73
     7
 74
     0
 42
0.0000000001
 43
0.0000000001
 12
1.0
 22
0.0
 32
0.0
 13
1.0
 23
0.0
 33
0.0
 40
0.0
 40
0.0
 40
0.0
 40
0.0
 40
1.0
 40
1.0
 40
1.0
 40
2.0
 40
2.0
 40
2.0
 40
2.0
 10
259.9007177368416
 20
-109.0785966587535
 30
0.0
 10
259.9007177368416
 20
-109.0785966587535
 30
0.0
 10
265.5451362713918
 20
-118.8550093010652
 30
0.0
 10
265.5451362713918
 20
-118.8550093010652
 30
0.0
 10
265.5451362713918
 20
-118.8550093010652
 30
0.0
 10
259.9007177368416
 20
-109.0785966587535
 30
0.0
 10
259.9007177368416
 20
-109.0785966587535
 30
0.0
  0
ENDBLK
  5
6C
330
69
100
AcDbEntity
  8
0
100
AcDbBlockEnd
  0
BLOCK
  5
71
330
6F
100
AcDbEntity
  8
0
100
AcDbBlockBegin
  2
block 11
 70
     0
 10
0.0
 20
0.0
 30
0.0
  3
block 11
  1

  0
SPLINE
  5
73
330
6F
100
AcDbEntity
  8
OneCircle
 62
     7
420
 16777215
370
    35
100
AcDbSpline
210
0.0
220
0.0
230
1.0
 70
    27
 71
     3
 72
    11
 73
     7
 74
     0
 42
0.0000000001
 43
0.0000000001
 12
1.0
 22
0.0
 32
0.0
 13
1.0
 23
0.0
 33
0.0
 40
0.0
 40
0.0
 40
0.0
 40
0.0
 40
1.0
 40
1.0
 40
1.0
 40
2.0
 40
2.0
 40
2.0
 40
2.0
 10
225.2541724582603
 20
-234.7367854451459
 30
0.0
 10
225.2541724582603
 20
-234.7367854451459
 30
0.0
 10
230.8985909928104
 20
-224.9603728028345
 30
0.0
 10
230.8985909928104
 20
-224.9603728028345
 30
0.0
 10
230.8985909928104
 20
-224.9603728028345
 30
0.0
 10
225.2541724582603
 20
-234.7367854451459
 30
0.0
 10
225.2541724582603
 20
-234.7367854451459
 30
0.0
  0
INSERT
  5
75
330
6F
100
AcDbEntity
  8
OneCircle
100
AcDbBlockReference
  2
block 12
 10
0.0
 20
0.0
 30
0.0
  0
INSERT
  5
7A
330
6F
100
AcDbEntity
  8
OneCircle
100
AcDbBlockReference
  2
block 13
 10
0.0
 20
0.0
 30
0.0
  0
ENDBLK
  5
72
330
6F
100
AcDbEntity
  8
0
100
AcDbBlockEnd
  0
BLOCK
  5
76
330
74
100
AcDbEntity
  8
0
100
AcDbBlockBegin
  2
block 12
 70
     0
 10
0.0
 20
0.0
 30
0.0
  3
block 12
  1

  0
SPLINE
  5
78
330
74
100
AcDbEntity
  8
OneCircle
 62
     7
420
 16777215
370
    35
100
AcDbSpline
210
0.0
220
0.0
230
1.0
 70
     8
 71
     3
 72
    20
 73
    16
 74
     0
 42
0.0000000001
 43
0.0000000001
 12
1.0
 22
0.0
 32
0.0
 13
1.0
 23
0.0
 33
0.0
 40
0.0
 40
0.0
 40
0.0
 40
0.0
 40
1.0
 40
1.0
 40
1.0
 40
2.0
 40
2.0
 40
2.0
 40
3.0
 40
3.0
 40
3.0
 40
4.0
 40
4.0
 40
4.0
 40
5.0
 40
5.0
 40
5.0
 40
5.0
 10
235.153574444862
 20
-227.4169902153206
 30
0.0
 10
235.153574444862
 20
-227.4169902153206
 30
0.0
 10
249.8920275115407
 20
-201.8882213134181
 30
0.0
 10
249.8920275115407
 20
-201.8882213134181
 30
0.0
 10
253.3102355620694
 20
-207.7810300923176
 30
0.0
 10
255.2633657600495
 20
-214.6449429950461
 30
0.0
 10
255.2633657600495
 20
-221.9477539820888
 30
0.0
 10
255.2633657600495
 20
-244.0390173214091
 30
0.0
 10
237.3548081012645
 20
-261.9475405293989
 30
0.0
 10
215.2635447619458
 20
-261.9475405293989
 30
0.0
 10
215.2635447619458
 20
-261.9475405293989
 30
0.0
 10
215.2635447619458
 20
-261.9475531432731
 30
0.0
 10
215.2635447619458
 20
-261.9475531432731
 30
0.0
 10
215.2635447619458
 20
-261.9475531432731
 30
0.0
 10
229.5091559103119
 20
-237.1934028576323
 30
0.0
 10
229.5091559103119
 20
-237.1934028576323
 30
0.0
  0
ENDBLK
  5
77
330
74
100
AcDbEntity
  8
0
100
AcDbBlockEnd
  0
BLOCK
  5
7B
330
79
100
AcDbEntity
  8
0
100
AcDbBlockBegin
  2
block 13
 70
     0
 10
0.0
 20
0.0
 30
0.0
  3
block 13
  1

  0
SPLINE
  5
7D
330
79
100
AcDbEntity
  8
OneCircle
 62
     7
420
 16777215
370
    35
100
AcDbSpline
210
0.0
220
0.0
230
1.0
 70
     8
 71
     3
 72
    17
 73
    13
 74
     0
 42
0.0000000001
 43
0.0000000001
 12
1.0
 22
0.0
 32
0.0
 13
1.0
 23
0.0
 33
0.0
 40
0.0
 40
0.0
 40
0.0
 40
0.0
 40
1.0
 40
1.0
 40
1.0
 40
2.0
 40
2.0
 40
2.0
 40
3.0
 40
3.0
 40
3.0
 40
4.0
 40
4.0
 40
4.0
 40
4.0
 10
264.1557011888932
 20
-177.1776783512027
 30
0.0
 10
264.1557011888932
 20
-177.1776783512027
 30
0.0
 10
249.8920275115407
 20
-201.8882213134181
 30
0.0
 10
249.8920275115407
 20
-201.8882213134181
 30
0.0
 10
271.9832908508633
 20
-201.8882213134181
 30
0.0
 10
289.9099110386341
 20
-184.0232928149788
 30
0.0
 10
289.9099110386341
 20
-161.9320294756598
 30
0.0
 10
289.9099110386341
 20
-154.6292184886164
 30
0.0
 10
287.9432873078912
 20
-147.7897018158596
 30
0.0
 10
284.5250792573664
 20
-141.8968930369595
 30
0.0
 10
284.5250792573664
 20
-141.8968930369595
 30
0.0
 10
269.8001197234433
 20
-167.4012657088913
 30
0.0
 10
269.8001197234433
 20
-167.4012657088913
 30
0.0
  0
SPLINE
  5
7E
330
79
100
AcDbEntity
  8
OneCircle
 62
     7
420
 16777215
370
    35
100
AcDbSpline
210
0.0
220
0.0
230
1.0
 70
    27
 71
     3
 72
    11
 73
     7
 74
     0
 42
0.0000000001
 43
0.0000000001
 12
1.0
 22
0.0
 32
0.0
 13
1.0
 23
0.0
 33
0.0
 40
0.0
 40
0.0
 40
0.0
 40
0.0
 40
1.0
 40
1.0
 40
1.0
 40
2.0
 40
2.0
 40
2.0
 40
2.0
 10
259.9007177368416
 20
-174.7210609387159
 30
0.0
 10
259.9007177368416
 20
-174.7210609387159
 30
0.0
 10
265.5451362713918
 20
-164.9446482964048
 30
0.0
 10
265.5451362713918
 20
-164.9446482964048
 30
0.0
 10
265.5451362713918
 20
-164.9446482964048
 30
0.0
 10
259.9007177368416
 20
-174.7210609387159
 30
0.0
 10
259.9007177368416
 20
-174.7210609387159
 30
0.0
  0
ENDBLK
  5
7C
330
79
100
AcDbEntity
  8
0
100
AcDbBlockEnd
  0
BLOCK
  5
81
330
7F
100
AcDbEntity
  8
0
100
AcDbBlockBegin
  2
block 14
 70
     0
 10
0.0
 20
0.0
 30
0.0
  3
block 14
  1

  0
SPLINE
  5
83
330
7F
100
AcDbEntity
  8
OneCircle
 62
     7
420
 16777215
370
    35
100
AcDbSpline
210
0.0
220
0.0
230
1.0
 70
    27
 71
     3
 72
    11
 73
     7
 74
     0
 42
0.0000000001
 43
0.0000000001
 12
1.0
 22
0.0
 32
0.0
 13
1.0
 23
0.0
 33
0.0
 40
0.0
 40
0.0
 40
0.0
 40
0.0
 40
1.0
 40
1.0
 40
1.0
 40
2.0
 40
2.0
 40
2.0
 40
2.0
 10
117.7946976787543
 20
-257.345770649567
 30
0.0
 10
117.7946976787543
 20
-257.345770649567
 30
0.0
 10
106.5058667053617
 20
-257.3457620637438
 30
0.0
 10
106.5058667053617
 20
-257.3457620637438
 30
0.0
 10
106.5058667053617
 20
-257.3457620637438
 30
0.0
 10
117.7946976787543
 20
-257.345770649567
 30
0.0
 10
117.7946976787543
 20
-257.345770649567
 30
0.0
  0
INSERT
  5
85
330
7F
100
AcDbEntity
  8
OneCircle
100
AcDbBlockReference
  2
block 15
 10
0.0
 20
0.0
 30
0.0
  0
ENDBLK
  5
82
330
7F
100
AcDbEntity
  8
0
100
AcDbBlockEnd
  0
BLOCK
  5
86
330
84
100
AcDbEntity
  8
0
100
AcDbBlockBegin
  2
block 15
 70
     0
 10
0.0
 20
0.0
 30
0.0
  3
block 15
  1

  0
SPLINE
  5
88
330
84
100
AcDbEntity
  8
OneCircle
 62
     7
420
 16777215
370
    35
100
AcDbSpline
210
0.0
220
0.0
230
1.0
 70
    27
 71
     3
 72
    11
 73
     7
 74
     0
 42
0.0000000001
 43
0.0000000001
 12
1.0
 22
0.0
 32
0.0
 13
1.0
 23
0.0
 33
0.0
 40
0.0
 40
0.0
 40
0.0
 40
0.0
 40
1.0
 40
1.0
 40
1.0
 40
2.0
 40
2.0
 40
2.0
 40
2.0
 10
187.0955460712728
 20
-257.3469431635309
 30
0.0
 10
187.0955460712728
 20
-257.3469431635309
 30
0.0
 10
175.8067150978771
 20
-257.3469345777072
 30
0.0
 10
175.8067150978771
 20
-257.3469345777072
 30
0.0
 10
175.8067150978771
 20
-257.3469345777072
 30
0.0
 10
187.0955460712728
 20
-257.3469431635309
 30
0.0
 10
187.0955460712728
 20
-257.3469431635309
 30
0.0
  0
SPLINE
  5
89
330
84
100
AcDbEntity
  8
OneCircle
 62
     7
420
 16777215
370
    35
100
AcDbSpline
210
0.0
220
0.0
230
1.0
 70
     8
 71
     3
 72
    17
 73
    13
 74
     0
 42
0.0000000001
 43
0.0000000001
 12
1.0
 22
0.0
 32
0.0
 13
1.0
 23
0.0
 33
0.0
 40
0.0
 40
0.0
 40
0.0
 40
0.0
 40
1.0
 40
1.0
 40
1.0
 40
2.0
 40
2.0
 40
2.0
 40
3.0
 40
3.0
 40
3.0
 40
4.0
 40
4.0
 40
4.0
 40
4.0
 10
117.7946984695059
 20
-261.9067854440045
 30
0.0
 10
117.7946984695059
 20
-261.9067854440045
 30
0.0
 10
146.0358485830967
 20
-261.921039622766
 30
0.0
 10
146.0358485830967
 20
-261.921039622766
 30
0.0
 10
142.6416278552583
 20
-267.8276974960543
 30
0.0
 10
137.6858934955847
 20
-272.9363355653768
 30
0.0
 10
131.3614720230063
 20
-276.5877382204773
 30
0.0
 10
112.2298718121479
 20
-287.6333613038107
 30
0.0
 10
87.76758303510663
 20
-281.080489843651
 30
0.0
 10
76.72194272638689
 20
-261.9488597975207
 30
0.0
 10
76.72194272638689
 20
-261.9488597975207
 30
0.0
 10
106.5058674961127
 20
-261.9067768581814
 30
0.0
 10
106.5058674961127
 20
-261.9067768581814
 30
0.0
  0
SPLINE
  5
8A
330
84
100
AcDbEntity
  8
OneCircle
 62
     7
420
 16777215
370
    35
100
AcDbSpline
210
0.0
220
0.0
230
1.0
 70
     8
 71
     3
 72
    17
 73
    13
 74
     0
 42
0.0000000001
 43
0.0000000001
 12
1.0
 22
0.0
 32
0.0
 13
1.0
 23
0.0
 33
0.0
 40
0.0
 40
0.0
 40
0.0
 40
0.0
 40
1.0
 40
1.0
 40
1.0
 40
2.0
 40
2.0
 40
2.0
 40
3.0
 40
3.0
 40
3.0
 40
4.0
 40
4.0
 40
4.0
 40
4.0
 10
175.8067158886281
 20
-261.9079493721457
 30
0.0
 10
175.8067158886281
 20
-261.9079493721457
 30
0.0
 10
146.0516461409655
 20
-261.9200110325895
 30
0.0
 10
146.0516461409655
 20
-261.9200110325895
 30
0.0
 10
157.0972864496855
 20
-281.0516410787201
 30
0.0
 10
181.5307202046633
 20
-287.6345338177747
 30
0.0
 10
200.662320415521
 20
-276.5889107344418
 30
0.0
 10
206.9867418881001
 20
-272.9375080793408
 30
0.0
 10
211.9524725929082
 20
-267.7697935972483
 30
0.0
 10
215.3466933207459
 20
-261.8631357239587
 30
0.0
 10
215.3466933207459
 20
-261.8631357239587
 30
0.0
 10
187.0955468620213
 20
-261.9079579579682
 30
0.0
 10
187.0955468620213
 20
-261.9079579579682
 30
0.0
  0
ENDBLK
  5
87
330
84
100
AcDbEntity
  8
0
100
AcDbBlockEnd
  0
BLOCK
  5
8E
330
8C
100
AcDbEntity
  8
0
100
AcDbBlockBegin
  2
block 16
 70
     0
 10
0.0
 20
0.0
 30
0.0
  3
block 16
  1

  0
SPLINE
  5
90
330
8C
100
AcDbEntity
  8
OneCircle
 62
     7
420
 16777215
370
    35
100
AcDbSpline
210
0.0
220
0.0
230
1.0
 70
     8
 71
     3
 72
    20
 73
    16
 74
     0
 42
0.0000000001
 43
0.0000000001
 12
1.0
 22
0.0
 32
0.0
 13
1.0
 23
0.0
 33
0.0
 40
0.0
 40
0.0
 40
0.0
 40
0.0
 40
1.0
 40
1.0
 40
1.0
 40
2.0
 40
2.0
 40
2.0
 40
3.0
 40
3.0
 40
3.0
 40
4.0
 40
4.0
 40
4.0
 40
5.0
 40
5.0
 40
5.0
 40
5.0
 10
432.0638024605275
 20
-142.2665148807621
 30
0.0
 10
432.0638024605275
 20
-142.2665148807621
 30
0.0
 10
402.5860135307951
 20
-142.2660051980406
 30
0.0
 10
402.5860135307951
 20
-142.2660051980406
 30
0.0
 10
405.9802316077055
 20
-148.1726645946672
 30
0.0
 10
410.9479894518424
 20
-153.2960814143823
 30
0.0
 10
417.272409285655
 20
-156.947486907904
 30
0.0
 10
436.404004539199
 20
-167.993118577564
 30
0.0
 10
460.8675194109745
 20
-161.4381143039109
 30
0.0
 10
471.9131510806358
 20
-142.3065190503679
 30
0.0
 10
471.9131510806358
 20
-142.3065190503679
 30
0.0
 10
471.9131620045692
 20
-142.306525357305
 30
0.0
 10
471.9131620045692
 20
-142.306525357305
 30
0.0
 10
471.9131620045692
 20
-142.306525357305
 30
0.0
 10
443.3526334339239
 20
-142.2665113614047
 30
0.0
 10
443.3526334339239
 20
-142.2665113614047
 30
0.0
  0
SPLINE
  5
91
330
8C
100
AcDbEntity
  8
OneCircle
 62
     7
420
 16777215
370
    35
100
AcDbSpline
210
0.0
220
0.0
230
1.0
 70
     8
 71
     3
 72
    17
 73
    13
 74
     0
 42
0.0000000001
 43
0.0000000001
 12
1.0
 22
0.0
 32
0.0
 13
1.0
 23
0.0
 33
0.0
 40
0.0
 40
0.0
 40
0.0
 40
0.0
 40
1.0
 40
1.0
 40
1.0
 40
2.0
 40
2.0
 40
2.0
 40
3.0
 40
3.0
 40
3.0
 40
4.0
 40
4.0
 40
4.0
 40
4.0
 10
451.3415475718279
 20
-106.7554142401928
 30
0.0
 10
451.3415475718279
 20
-106.7554142401928
 30
0.0
 10
437.2333060161203
 20
-82.29074005217802
 30
0.0
 10
437.2333060161203
 20
-82.29074005217802
 30
0.0
 10
444.0457321435522
 20
-82.27688943445281
 30
0.0
 10
450.9478104499462
 20
-84.01435915200186
 30
0.0
 10
457.2722302837626
 20
-87.66576464552355
 30
0.0
 10
476.4038255373059
 20
-98.71139631518292
 30
0.0
 10
482.9600277519519
 20
-123.172792618447
 30
0.0
 10
471.9143788568925
 20
-142.3044177072549
 30
0.0
 10
471.9143788568925
 20
-142.3044177072549
 30
0.0
 10
456.9859600106703
 20
-116.5318304018619
 30
0.0
 10
456.9859600106703
 20
-116.5318304018619
 30
0.0
  0
SPLINE
  5
92
330
8C
100
AcDbEntity
  8
OneCircle
 62
     7
420
 16777215
370
    35
100
AcDbSpline
210
0.0
220
0.0
230
1.0
 70
     8
 71
     3
 72
    17
 73
    13
 74
     0
 42
0.0000000001
 43
0.0000000001
 12
1.0
 22
0.0
 32
0.0
 13
1.0
 23
0.0
 33
0.0
 40
0.0
 40
0.0
 40
0.0
 40
0.0
 40
1.0
 40
1.0
 40
1.0
 40
2.0
 40
2.0
 40
2.0
 40
3.0
 40
3.0
 40
3.0
 40
4.0
 40
4.0
 40
4.0
 40
4.0
 10
422.3365243055157
 20
-56.51496448392413
 30
0.0
 10
422.3365243055157
 20
-56.51496448392413
 30
0.0
 10
437.2245164460501
 20
-82.27757326477753
 30
0.0
 10
437.2245164460501
 20
-82.27757326477753
 30
0.0
 10
448.2701653411095
 20
-63.14594817596995
 30
0.0
 10
441.7543898321481
 20
-38.69453039724551
 30
0.0
 10
422.622794578608
 20
-27.64889872758582
 30
0.0
 10
416.2983747447916
 20
-23.99749323406413
 30
0.0
 10
409.3401366009779
 20
-22.280904659275
 30
0.0
 10
402.5277104735421
 20
-22.29475527700021
 30
0.0
 10
402.5277104735421
 20
-22.29475527700021
 30
0.0
 10
416.6921118666694
 20
-46.73854832225604
 30
0.0
 10
416.6921118666694
 20
-46.73854832225604
 30
0.0
  0
ENDBLK
  5
8F
330
8C
100
AcDbEntity
  8
0
100
AcDbBlockEnd
  0
BLOCK
  5
95
330
93
100
AcDbEntity
  8
0
100
AcDbBlockBegin
  2
block 17
 70
     0
 10
0.0
 20
0.0
 30
0.0
  3
block 17
  1

  0
SPLINE
  5
97
330
93
100
AcDbEntity
  8
OneCircle
 62
     7
420
 16777215
370
    35
100
AcDbSpline
210
0.0
220
0.0
230
1.0
 70
     8
 71
     3
 72
    17
 73
    13
 74
     0
 42
0.0000000001
 43
0.0000000001
 12
1.0
 22
0.0
 32
0.0
 13
1.0
 23
0.0
 33
0.0
 40
0.0
 40
0.0
 40
0.0
 40
0.0
 40
1.0
 40
1.0
 40
1.0
 40
2.0
 40
2.0
 40
2.0
 40
3.0
 40
3.0
 40
3.0
 40
4.0
 40
4.0
 40
4.0
 40
4.0
 10
374.0542187455374
 20
-142.2634374728095
 30
0.0
 10
374.0542187455374
 20
-142.2634374728095
 30
0.0
 10
402.5860135307951
 20
-142.2660051980406
 30
0.0
 10
402.5860135307951
 20
-142.2660051980406
 30
0.0
 10
391.5403818611377
 20
-161.3976004515833
 30
0.0
 10
367.1055898508118
 20
-167.9900446889698
 30
0.0
 10
347.9739945972685
 20
-156.9444130193104
 30
0.0
 10
341.6495747634521
 20
-153.2930075257884
 30
0.0
 10
336.7096914406096
 20
-148.170103078901
 30
0.0
 10
333.3154733637012
 20
-142.2634436822754
 30
0.0
 10
333.3154733637012
 20
-142.2634436822754
 30
0.0
 10
362.7653877721411
 20
-142.2634409921658
 30
0.0
 10
362.7653877721411
 20
-142.2634409921658
 30
0.0
  0
SPLINE
  5
98
330
93
100
AcDbEntity
  8
OneCircle
 62
     7
420
 16777215
370
    35
100
AcDbSpline
210
0.0
220
0.0
230
1.0
 70
    27
 71
     3
 72
    11
 73
     7
 74
     0
 42
0.0000000001
 43
0.0000000001
 12
1.0
 22
0.0
 32
0.0
 13
1.0
 23
0.0
 33
0.0
 40
0.0
 40
0.0
 40
0.0
 40
0.0
 40
1.0
 40
1.0
 40
1.0
 40
2.0
 40
2.0
 40
2.0
 40
2.0
 10
374.0542173849686
 20
-137.3502050044083
 30
0.0
 10
374.0542173849686
 20
-137.3502050044083
 30
0.0
 10
362.7653864115723
 20
-137.3502085237659
 30
0.0
 10
362.7653864115723
 20
-137.3502085237659
 30
0.0
 10
362.7653864115723
 20
-137.3502085237659
 30
0.0
 10
374.0542173849686
 20
-137.3502050044083
 30
0.0
 10
374.0542173849686
 20
-137.3502050044083
 30
0.0
  0
ENDBLK
  5
96
330
93
100
AcDbEntity
  8
0
100
AcDbBlockEnd
  0
BLOCK
  5
9B
330
99
100
AcDbEntity
  8
0
100
AcDbBlockBegin
  2
block 18
 70
     0
 10
0.0
 20
0.0
 30
0.0
  3
block 18
  1

  0
SPLINE
  5
9D
330
99
100
AcDbEntity
  8
OneCircle
 62
     7
420
 16777215
370
    35
100
AcDbSpline
210
0.0
220
0.0
230
1.0
 70
    27
 71
     3
 72
    11
 73
     7
 74
     0
 42
0.0000000001
 43
0.0000000001
 12
1.0
 22
0.0
 32
0.0
 13
1.0
 23
0.0
 33
0.0
 40
0.0
 40
0.0
 40
0.0
 40
0.0
 40
1.0
 40
1.0
 40
1.0
 40
2.0
 40
2.0
 40
2.0
 40
2.0
 10
282.554306341704
 20
-44.51632224659262
 30
0.0
 10
282.554306341704
 20
-44.51632224659262
 30
0.0
 10
288.1987187805496
 20
-54.29273840826166
 30
0.0
 10
288.1987187805496
 20
-54.29273840826166
 30
0.0
 10
288.1987187805496
 20
-54.29273840826166
 30
0.0
 10
282.554306341704
 20
-44.51632224659262
 30
0.0
 10
282.554306341704
 20
-44.51632224659262
 30
0.0
  0
INSERT
  5
9F
330
99
100
AcDbEntity
  8
OneCircle
100
AcDbBlockReference
  2
block 19
 10
0.0
 20
0.0
 30
0.0
  0
INSERT
  5
A6
330
99
100
AcDbEntity
  8
OneCircle
100
AcDbBlockReference
  2
block 20
 10
0.0
 20
0.0
 30
0.0
  0
ENDBLK
  5
9C
330
99
100
AcDbEntity
  8
0
100
AcDbBlockEnd
  0
BLOCK
  5
A0
330
9E
100
AcDbEntity
  8
0
100
AcDbBlockBegin
  2
block 19
 70
     0
 10
0.0
 20
0.0
 30
0.0
  3
block 19
  1

  0
SPLINE
  5
A2
330
9E
100
AcDbEntity
  8
OneCircle
 62
     7
420
 16777215
370
    35
100
AcDbSpline
210
0.0
220
0.0
230
1.0
 70
     8
 71
     3
 72
    20
 73
    16
 74
     0
 42
0.0000000001
 43
0.0000000001
 12
1.0
 22
0.0
 32
0.0
 13
1.0
 23
0.0
 33
0.0
 40
0.0
 40
0.0
 40
0.0
 40
0.0
 40
1.0
 40
1.0
 40
1.0
 40
2.0
 40
2.0
 40
2.0
 40
3.0
 40
3.0
 40
3.0
 40
4.0
 40
4.0
 40
4.0
 40
5.0
 40
5.0
 40
5.0
 40
5.0
 10
283.9437339679324
 20
-56.74935346417644
 30
0.0
 10
283.9437339679324
 20
-56.74935346417644
 30
0.0
 10
298.6830698309817
 20
-82.27761268335777
 30
0.0
 10
298.6830698309817
 20
-82.27761268335777
 30
0.0
 10
291.870643703547
 20
-82.29146330108459
 30
0.0
 10
284.9497556614294
 20
-80.55096721807129
 30
0.0
 10
278.6253358276143
 20
-76.89956172454993
 30
0.0
 10
259.4937405740716
 20
-65.85393005489024
 30
0.0
 10
252.9387833610824
 20
-41.39040257324669
 30
0.0
 10
263.9844150307424
 20
-22.25880731970398
 30
0.0
 10
263.9844150307424
 20
-22.25880731970398
 30
0.0
 10
263.9844041068071
 20
-22.2588010127669
 30
0.0
 10
263.9844041068071
 20
-22.2588010127669
 30
0.0
 10
263.9844041068071
 20
-22.2588010127669
 30
0.0
 10
278.2993215290869
 20
-46.97293730250707
 30
0.0
 10
278.2993215290869
 20
-46.97293730250707
 30
0.0
  0
SPLINE
  5
A3
330
9E
100
AcDbEntity
  8
OneCircle
 62
     7
420
 16777215
370
    35
100
AcDbSpline
210
0.0
220
0.0
230
1.0
 70
     8
 71
     3
 72
    17
 73
    13
 74
     0
 42
0.0000000001
 43
0.0000000001
 12
1.0
 22
0.0
 32
0.0
 13
1.0
 23
0.0
 33
0.0
 40
0.0
 40
0.0
 40
0.0
 40
0.0
 40
1.0
 40
1.0
 40
1.0
 40
2.0
 40
2.0
 40
2.0
 40
3.0
 40
3.0
 40
3.0
 40
4.0
 40
4.0
 40
4.0
 40
4.0
 10
305.0583766833616
 20
-22.29878614982564
 30
0.0
 10
305.0583766833616
 20
-22.29878614982564
 30
0.0
 10
333.2995268033457
 20
-22.28454464578833
 30
0.0
 10
333.2995268033457
 20
-22.28454464578833
 30
0.0
 10
329.9053087264367
 20
-16.37788524916268
 30
0.0
 10
324.9495766595358
 20
-11.26924495569081
 30
0.0
 10
318.6251568257206
 20
-7.617839462169442
 30
0.0
 10
299.4935615721779
 20
3.427792207490565
 30
0.0
 10
275.0312698541891
 20
-3.125068273908628
 30
0.0
 10
263.985620959131
 20
-22.25669336271653
 30
0.0
 10
263.985620959131
 20
-22.25669336271653
 30
0.0
 10
293.7695457099646
 20
-22.29878966918295
 30
0.0
 10
293.7695457099646
 20
-22.29878966918295
 30
0.0
  0
SPLINE
  5
A4
330
9E
100
AcDbEntity
  8
OneCircle
 62
     7
420
 16777215
370
    35
100
AcDbSpline
210
0.0
220
0.0
230
1.0
 70
     8
 71
     3
 72
    17
 73
    13
 74
     0
 42
0.0000000001
 43
0.0000000001
 12
1.0
 22
0.0
 32
0.0
 13
1.0
 23
0.0
 33
0.0
 40
0.0
 40
0.0
 40
0.0
 40
0.0
 40
1.0
 40
1.0
 40
1.0
 40
2.0
 40
2.0
 40
2.0
 40
3.0
 40
3.0
 40
3.0
 40
4.0
 40
4.0
 40
4.0
 40
4.0
 10
363.070394103003
 20
-22.29764825767456
 30
0.0
 10
363.070394103003
 20
-22.29764825767456
 30
0.0
 10
333.3153243607543
 20
-22.28557324305508
 30
0.0
 10
333.3153243607543
 20
-22.28557324305508
 30
0.0
 10
344.3609732558124
 20
-3.153948154247501
 30
0.0
 10
368.7944099652144
 20
3.42893361899864
 30
0.0
 10
387.9260052187583
 20
-7.616698050661046
 30
0.0
 10
394.2504250525748
 20
-11.26810354418274
 30
0.0
 10
399.2161534380945
 20
-16.43582025491264
 30
0.0
 10
402.6103715150016
 20
-22.34247965153829
 30
0.0
 10
402.6103715150016
 20
-22.34247965153829
 30
0.0
 10
374.3592250763993
 20
-22.29764473831853
 30
0.0
 10
374.3592250763993
 20
-22.29764473831853
 30
0.0
  0
ENDBLK
  5
A1
330
9E
100
AcDbEntity
  8
0
100
AcDbBlockEnd
  0
BLOCK
  5
A7
330
A5
100
AcDbEntity
  8
0
100
AcDbBlockBegin
  2
block 20
 70
     0
 10
0.0
 20
0.0
 30
0.0
  3
block 20
  1

  0
SPLINE
  5
A9
330
A5
100
AcDbEntity
  8
OneCircle
 62
     7
420
 16777215
370
    35
100
AcDbSpline
210
0.0
220
0.0
230
1.0
 70
     8
 71
     3
 72
    17
 73
    13
 74
     0
 42
0.0000000001
 43
0.0000000001
 12
1.0
 22
0.0
 32
0.0
 13
1.0
 23
0.0
 33
0.0
 40
0.0
 40
0.0
 40
0.0
 40
0.0
 40
1.0
 40
1.0
 40
1.0
 40
2.0
 40
2.0
 40
2.0
 40
3.0
 40
3.0
 40
3.0
 40
4.0
 40
4.0
 40
4.0
 40
4.0
 10
312.951190938892
 20
-106.9855879203418
 30
0.0
 10
312.951190938892
 20
-106.9855879203418
 30
0.0
 10
298.6830698309817
 20
-82.27761268335777
 30
0.0
 10
298.6830698309817
 20
-82.27761268335777
 30
0.0
 10
287.6374381613216
 20
-101.4092079369011
 30
0.0
 10
294.1456099838767
 20
-125.8665806727259
 30
0.0
 10
313.2772052374188
 20
-136.9122123423856
 30
0.0
 10
319.6016250712346
 20
-140.5636178359073
 30
0.0
 10
326.5081321248205
 20
-142.2802300617765
 30
0.0
 10
333.3205582522544
 20
-142.2663794440506
 30
0.0
 10
333.3205582522544
 20
-142.2663794440506
 30
0.0
 10
318.5956033777376
 20
-116.7620040820096
 30
0.0
 10
318.5956033777376
 20
-116.7620040820096
 30
0.0
  0
SPLINE
  5
AA
330
A5
100
AcDbEntity
  8
OneCircle
 62
     7
420
 16777215
370
    35
100
AcDbSpline
210
0.0
220
0.0
230
1.0
 70
    27
 71
     3
 72
    11
 73
     7
 74
     0
 42
0.0000000001
 43
0.0000000001
 12
1.0
 22
0.0
 32
0.0
 13
1.0
 23
0.0
 33
0.0
 40
0.0
 40
0.0
 40
0.0
 40
0.0
 40
1.0
 40
1.0
 40
1.0
 40
2.0
 40
2.0
 40
2.0
 40
2.0
 10
317.2061757515098
 20
-104.528972864427
 30
0.0
 10
317.2061757515098
 20
-104.528972864427
 30
0.0
 10
322.8505881903548
 20
-114.3053890260961
 30
0.0
 10
322.8505881903548
 20
-114.3053890260961
 30
0.0
 10
322.8505881903548
 20
-114.3053890260961
 30
0.0
 10
317.2061757515098
 20
-104.528972864427
 30
0.0
 10
317.2061757515098
 20
-104.528972864427
 30
0.0
  0
ENDBLK
  5
A8
330
A5
100
AcDbEntity
  8
0
100
AcDbBlockEnd
  0
BLOCK
  5
AE
330
AC
100
AcDbEntity
  8
0
100
AcDbBlockBegin
  2
block 21
 70
     0
 10
0.0
 20
0.0
 30
0.0
  3
block 21
  1

  0
SPLINE
  5
B0
330
AC
100
AcDbEntity
  8
OneCircle
 62
     7
420
 16777215
370
    35
100
AcDbSpline
210
0.0
220
0.0
230
1.0
 70
     8
 71
     3
 72
    20
 73
    16
 74
     0
 42
0.0000000001
 43
0.0000000001
 12
1.0
 22
0.0
 32
0.0
 13
1.0
 23
0.0
 33
0.0
 40
0.0
 40
0.0
 40
0.0
 40
0.0
 40
1.0
 40
1.0
 40
1.0
 40
2.0
 40
2.0
 40
2.0
 40
3.0
 40
3.0
 40
3.0
 40
4.0
 40
4.0
 40
4.0
 40
5.0
 40
5.0
 40
5.0
 40
5.0
 10
260.3080857329185
 20
-268.6818493548262
 30
0.0
 10
260.3080857329185
 20
-268.6818493548262
 30
0.0
 10
275.0474163681278
 20
-243.1535871172299
 30
0.0
 10
275.0474163681278
 20
-243.1535871172299
 30
0.0
 10
268.2349902378562
 20
-243.1397378945953
 30
0.0
 10
261.314102552169
 20
-244.8802353949122
 30
0.0
 10
254.9896834661123
 20
-248.5316421835889
 30
0.0
 10
235.8580904745645
 20
-259.5772777711385
 30
0.0
 10
229.303138271373
 20
-284.0408065951472
 30
0.0
 10
240.3487738589239
 20
-303.172399586695
 30
0.0
 10
240.3487738589239
 20
-303.172399586695
 30
0.0
 10
240.3487629349898
 20
-303.172405893634
 30
0.0
 10
240.3487629349898
 20
-303.172405893634
 30
0.0
 10
240.3487629349898
 20
-303.172405893634
 30
0.0
 10
254.6636752961501
 20
-278.4582666723934
 30
0.0
 10
254.6636752961501
 20
-278.4582666723934
 30
0.0
  0
SPLINE
  5
B1
330
AC
100
AcDbEntity
  8
OneCircle
 62
     7
420
 16777215
370
    35
100
AcDbSpline
210
0.0
220
0.0
230
1.0
 70
     8
 71
     3
 72
    17
 73
    13
 74
     0
 42
0.0000000001
 43
0.0000000001
 12
1.0
 22
0.0
 32
0.0
 13
1.0
 23
0.0
 33
0.0
 40
0.0
 40
0.0
 40
0.0
 40
0.0
 40
1.0
 40
1.0
 40
1.0
 40
2.0
 40
2.0
 40
2.0
 40
3.0
 40
3.0
 40
3.0
 40
4.0
 40
4.0
 40
4.0
 40
4.0
 10
281.4227355033544
 20
-303.1324123451849
 30
0.0
 10
281.4227355033544
 20
-303.1324123451849
 30
0.0
 10
309.6638856262543
 20
-303.1466480658194
 30
0.0
 10
309.6638856262543
 20
-303.1466480658194
 30
0.0
 10
306.2696687589493
 20
-309.0533081575341
 30
0.0
 10
301.3139377382283
 20
-314.1619494658729
 30
0.0
 10
294.9895186521716
 20
-317.8133562545489
 30
0.0
 10
275.8579256606244
 20
-328.8589918420992
 30
0.0
 10
251.3956326006992
 20
-322.3061363702439
 30
0.0
 10
240.349979787745
 20
-303.1745135434357
 30
0.0
 10
240.349979787745
 20
-303.1745135434357
 30
0.0
 10
270.1339045299574
 20
-303.132411137626
 30
0.0
 10
270.1339045299574
 20
-303.132411137626
 30
0.0
  0
SPLINE
  5
B2
330
AC
100
AcDbEntity
  8
OneCircle
 62
     7
420
 16777215
370
    35
100
AcDbSpline
210
0.0
220
0.0
230
1.0
 70
     8
 71
     3
 72
    17
 73
    13
 74
     0
 42
0.0000000001
 43
0.0000000001
 12
1.0
 22
0.0
 32
0.0
 13
1.0
 23
0.0
 33
0.0
 40
0.0
 40
0.0
 40
0.0
 40
0.0
 40
1.0
 40
1.0
 40
1.0
 40
2.0
 40
2.0
 40
2.0
 40
3.0
 40
3.0
 40
3.0
 40
4.0
 40
4.0
 40
4.0
 40
4.0
 10
339.4347529232261
 20
-303.1335383572639
 30
0.0
 10
339.4347529232261
 20
-303.1335383572639
 30
0.0
 10
309.6796831834532
 20
-303.1456194653172
 30
0.0
 10
309.6796831834532
 20
-303.1456194653172
 30
0.0
 10
320.7253359964073
 20
-322.2772422921254
 30
0.0
 10
345.1587740538931
 20
-328.8601190617365
 30
0.0
 10
364.2903670454409
 20
-317.8144834741868
 30
0.0
 10
370.6147861314957
 20
-314.1630766855102
 30
0.0
 10
375.5805134587389
 20
-308.9953589578663
 30
0.0
 10
378.9747303260446
 20
-303.0886988661516
 30
0.0
 10
378.9747303260446
 20
-303.0886988661516
 30
0.0
 10
350.7235838966231
 20
-303.1335395648215
 30
0.0
 10
350.7235838966231
 20
-303.1335395648215
 30
0.0
  0
ENDBLK
  5
AF
330
AC
100
AcDbEntity
  8
0
100
AcDbBlockEnd
  0
BLOCK
  5
B5
330
B3
100
AcDbEntity
  8
0
100
AcDbBlockBegin
  2
block 22
 70
     0
 10
0.0
 20
0.0
 30
0.0
  3
block 22
  1

  0
SPLINE
  5
B7
330
B3
100
AcDbEntity
  8
OneCircle
 62
     7
420
 16777215
370
    35
100
AcDbSpline
210
0.0
220
0.0
230
1.0
 70
     8
 71
     3
 72
    17
 73
    13
 74
     0
 42
0.0000000001
 43
0.0000000001
 12
1.0
 22
0.0
 32
0.0
 13
1.0
 23
0.0
 33
0.0
 40
0.0
 40
0.0
 40
0.0
 40
0.0
 40
1.0
 40
1.0
 40
1.0
 40
2.0
 40
2.0
 40
2.0
 40
3.0
 40
3.0
 40
3.0
 40
4.0
 40
4.0
 40
4.0
 40
4.0
 10
289.3155324161802
 20
-218.4456089583293
 30
0.0
 10
289.3155324161802
 20
-218.4456089583293
 30
0.0
 10
275.0474163681278
 20
-243.1535871172299
 30
0.0
 10
275.0474163681278
 20
-243.1535871172299
 30
0.0
 10
264.0017807805775
 20
-224.0219941256821
 30
0.0
 10
270.5099475945946
 20
-199.5646200570734
 30
0.0
 10
289.6415405861411
 20
-188.5189844695237
 30
0.0
 10
295.9659596721991
 20
-184.8675776808464
 30
0.0
 10
302.8724663742462
 20
-183.150964040619
 30
0.0
 10
309.6848925045164
 20
-183.1648132632523
 30
0.0
 10
309.6848925045164
 20
-183.1648132632523
 30
0.0
 10
294.9599428529492
 20
-208.6691916407632
 30
0.0
 10
294.9599428529492
 20
-208.6691916407632
 30
0.0
  0
SPLINE
  5
B8
330
B3
100
AcDbEntity
  8
OneCircle
 62
     7
420
 16777215
370
    35
100
AcDbSpline
210
0.0
220
0.0
230
1.0
 70
    27
 71
     3
 72
    11
 73
     7
 74
     0
 42
0.0000000001
 43
0.0000000001
 12
1.0
 22
0.0
 32
0.0
 13
1.0
 23
0.0
 33
0.0
 40
0.0
 40
0.0
 40
0.0
 40
0.0
 40
1.0
 40
1.0
 40
1.0
 40
2.0
 40
2.0
 40
2.0
 40
2.0
 10
293.5705177318792
 20
-220.9022231428809
 30
0.0
 10
293.5705177318792
 20
-220.9022231428809
 30
0.0
 10
299.2149281686475
 20
-211.1258058253136
 30
0.0
 10
299.2149281686475
 20
-211.1258058253136
 30
0.0
 10
299.2149281686475
 20
-211.1258058253136
 30
0.0
 10
293.5705177318792
 20
-220.9022231428809
 30
0.0
 10
293.5705177318792
 20
-220.9022231428809
 30
0.0
  0
ENDBLK
  5
B6
330
B3
100
AcDbEntity
  8
0
100
AcDbBlockEnd
  0
BLOCK
  5
BB
330
B9
100
AcDbEntity
  8
0
100
AcDbBlockBegin
  2
block 23
 70
     0
 10
0.0
 20
0.0
 30
0.0
  3
block 23
  1

  0
SPLINE
  5
BD
330
B9
100
AcDbEntity
  8
OneCircle
 62
     7
420
 16777215
370
    35
100
AcDbSpline
210
0.0
220
0.0
230
1.0
 70
    27
 71
     3
 72
    11
 73
     7
 74
     0
 42
0.0000000001
 43
0.0000000001
 12
1.0
 22
0.0
 32
0.0
 13
1.0
 23
0.0
 33
0.0
 40
0.0
 40
0.0
 40
0.0
 40
0.0
 40
1.0
 40
1.0
 40
1.0
 40
2.0
 40
2.0
 40
2.0
 40
2.0
 10
419.7169673317512
 20
-188.0778912812283
 30
0.0
 10
419.7169673317512
 20
-188.0778912812283
 30
0.0
 10
408.4281363583548
 20
-188.0778900736694
 30
0.0
 10
408.4281363583548
 20
-188.0778900736694
 30
0.0
 10
408.4281363583548
 20
-188.0778900736694
 30
0.0
 10
419.7169673317512
 20
-188.0778912812283
 30
0.0
 10
419.7169673317512
 20
-188.0778912812283
 30
0.0
  0
INSERT
  5
BF
330
B9
100
AcDbEntity
  8
OneCircle
100
AcDbBlockReference
  2
block 24
 10
0.0
 20
0.0
 30
0.0
  0
INSERT
  5
C6
330
B9
100
AcDbEntity
  8
OneCircle
100
AcDbBlockReference
  2
block 25
 10
0.0
 20
0.0
 30
0.0
  0
ENDBLK
  5
BC
330
B9
100
AcDbEntity
  8
0
100
AcDbBlockEnd
  0
BLOCK
  5
C0
330
BE
100
AcDbEntity
  8
0
100
AcDbBlockBegin
  2
block 24
 70
     0
 10
0.0
 20
0.0
 30
0.0
  3
block 24
  1

  0
SPLINE
  5
C2
330
BE
100
AcDbEntity
  8
OneCircle
 62
     7
420
 16777215
370
    35
100
AcDbSpline
210
0.0
220
0.0
230
1.0
 70
     8
 71
     3
 72
    20
 73
    16
 74
     0
 42
0.0000000001
 43
0.0000000001
 12
1.0
 22
0.0
 32
0.0
 13
1.0
 23
0.0
 33
0.0
 40
0.0
 40
0.0
 40
0.0
 40
0.0
 40
1.0
 40
1.0
 40
1.0
 40
2.0
 40
2.0
 40
2.0
 40
3.0
 40
3.0
 40
3.0
 40
4.0
 40
4.0
 40
4.0
 40
5.0
 40
5.0
 40
5.0
 40
5.0
 10
408.4281367127588
 20
-183.1646576052684
 30
0.0
 10
408.4281367127588
 20
-183.1646576052684
 30
0.0
 10
378.9503477831361
 20
-183.1651733246395
 30
0.0
 10
378.9503477831361
 20
-183.1651733246395
 30
0.0
 10
382.344564650438
 20
-177.2585132329232
 30
0.0
 10
387.3123214453674
 20
-172.1350953958789
 30
0.0
 10
393.6367405314261
 20
-168.4836886072026
 30
0.0
 10
412.7683335229726
 20
-157.4380530196526
 30
0.0
 10
437.2318497371242
 20
-163.9930522835107
 30
0.0
 10
448.2774853246757
 20
-183.1246452750582
 30
0.0
 10
448.2774853246757
 20
-183.1246452750582
 30
0.0
 10
448.2774962486085
 20
-183.1246389681189
 30
0.0
 10
448.2774962486085
 20
-183.1246389681189
 30
0.0
 10
448.2774962486085
 20
-183.1246389681189
 30
0.0
 10
419.716967686159
 20
-183.164658812827
 30
0.0
 10
419.716967686159
 20
-183.164658812827
 30
0.0
  0
SPLINE
  5
C3
330
BE
100
AcDbEntity
  8
OneCircle
 62
     7
420
 16777215
370
    35
100
AcDbSpline
210
0.0
220
0.0
230
1.0
 70
     8
 71
     3
 72
    17
 73
    13
 74
     0
 42
0.0000000001
 43
0.0000000001
 12
1.0
 22
0.0
 32
0.0
 13
1.0
 23
0.0
 33
0.0
 40
0.0
 40
0.0
 40
0.0
 40
0.0
 40
1.0
 40
1.0
 40
1.0
 40
2.0
 40
2.0
 40
2.0
 40
3.0
 40
3.0
 40
3.0
 40
4.0
 40
4.0
 40
4.0
 40
4.0
 10
427.7058890962483
 20
-218.675754298017
 30
0.0
 10
427.7058890962483
 20
-218.675754298017
 30
0.0
 10
413.5976525505744
 20
-243.1404313752072
 30
0.0
 10
413.5976525505744
 20
-243.1404313752072
 30
0.0
 10
420.4100786808427
 20
-243.1542805978402
 30
0.0
 10
427.3121566314286
 20
-241.4168094668393
 30
0.0
 10
433.6365757174828
 20
-237.765402678163
 30
0.0
 10
452.7681687090332
 20
-226.719767090613
 30
0.0
 10
459.3243659143192
 20
-202.2583694447291
 30
0.0
 10
448.2787131013624
 20
-183.1267466179202
 30
0.0
 10
448.2787131013624
 20
-183.1267466179202
 30
0.0
 10
433.3502995330172
 20
-208.8993369804497
 30
0.0
 10
433.3502995330172
 20
-208.8993369804497
 30
0.0
  0
SPLINE
  5
C4
330
BE
100
AcDbEntity
  8
OneCircle
 62
     7
420
 16777215
370
    35
100
AcDbSpline
210
0.0
220
0.0
230
1.0
 70
     8
 71
     3
 72
    17
 73
    13
 74
     0
 42
0.0000000001
 43
0.0000000001
 12
1.0
 22
0.0
 32
0.0
 13
1.0
 23
0.0
 33
0.0
 40
0.0
 40
0.0
 40
0.0
 40
0.0
 40
1.0
 40
1.0
 40
1.0
 40
2.0
 40
2.0
 40
2.0
 40
3.0
 40
3.0
 40
3.0
 40
4.0
 40
4.0
 40
4.0
 40
4.0
 10
398.7008761184989
 20
-268.9162099941186
 30
0.0
 10
398.7008761184989
 20
-268.9162099941186
 30
0.0
 10
413.5888629832032
 20
-243.1535981644074
 30
0.0
 10
413.5888629832032
 20
-243.1535981644074
 30
0.0
 10
424.6345157961561
 20
-262.2852209912162
 30
0.0
 10
418.1187452945117
 20
-286.7366401042826
 30
0.0
 10
398.9871523029651
 20
-297.7822756918325
 30
0.0
 10
392.6627332169103
 20
-301.4336824805089
 30
0.0
 10
385.704495424629
 20
-303.1502724802504
 30
0.0
 10
378.8920692943575
 20
-303.1364232576168
 30
0.0
 10
378.8920692943575
 20
-303.1364232576168
 30
0.0
 10
393.0564656817299
 20
-278.6926273116849
 30
0.0
 10
393.0564656817299
 20
-278.6926273116849
 30
0.0
  0
ENDBLK
  5
C1
330
BE
100
AcDbEntity
  8
0
100
AcDbBlockEnd
  0
BLOCK
  5
C7
330
C5
100
AcDbEntity
  8
0
100
AcDbBlockBegin
  2
block 25
 70
     0
 10
0.0
 20
0.0
 30
0.0
  3
block 25
  1

  0
SPLINE
  5
C9
330
C5
100
AcDbEntity
  8
OneCircle
 62
     7
420
 16777215
370
    35
100
AcDbSpline
210
0.0
220
0.0
230
1.0
 70
     8
 71
     3
 72
    17
 73
    13
 74
     0
 42
0.0000000001
 43
0.0000000001
 12
1.0
 22
0.0
 32
0.0
 13
1.0
 23
0.0
 33
0.0
 40
0.0
 40
0.0
 40
0.0
 40
0.0
 40
1.0
 40
1.0
 40
1.0
 40
2.0
 40
2.0
 40
2.0
 40
3.0
 40
3.0
 40
3.0
 40
4.0
 40
4.0
 40
4.0
 40
4.0
 10
350.4185529984007
 20
-183.1677468927942
 30
0.0
 10
350.4185529984007
 20
-183.1677468927942
 30
0.0
 10
378.9503477831361
 20
-183.1651733246395
 30
0.0
 10
378.9503477831361
 20
-183.1651733246395
 30
0.0
 10
367.9047121955846
 20
-164.0335803330924
 30
0.0
 10
343.469918835215
 20
-157.4411410996188
 30
0.0
 10
324.3383258436685
 20
-168.4867766871688
 30
0.0
 10
318.0139067576105
 20
-172.1381834758454
 30
0.0
 10
313.0740244838696
 20
-177.2610889343537
 30
0.0
 10
309.6798076165646
 20
-183.1677490260687
 30
0.0
 10
309.6798076165646
 20
-183.1677490260687
 30
0.0
 10
339.1297220250044
 20
-183.1677456852362
 30
0.0
 10
339.1297220250044
 20
-183.1677456852362
 30
0.0
  0
SPLINE
  5
CA
330
C5
100
AcDbEntity
  8
OneCircle
 62
     7
420
 16777215
370
    35
100
AcDbSpline
210
0.0
220
0.0
230
1.0
 70
    27
 71
     3
 72
    11
 73
     7
 74
     0
 42
0.0000000001
 43
0.0000000001
 12
1.0
 22
0.0
 32
0.0
 13
1.0
 23
0.0
 33
0.0
 40
0.0
 40
0.0
 40
0.0
 40
0.0
 40
1.0
 40
1.0
 40
1.0
 40
2.0
 40
2.0
 40
2.0
 40
2.0
 10
350.4185526439961
 20
-188.0809793611957
 30
0.0
 10
350.4185526439961
 20
-188.0809793611957
 30
0.0
 10
339.1297216705991
 20
-188.0809781536369
 30
0.0
 10
339.1297216705991
 20
-188.0809781536369
 30
0.0
 10
339.1297216705991
 20
-188.0809781536369
 30
0.0
 10
350.4185526439961
 20
-188.0809793611957
 30
0.0
 10
350.4185526439961
 20
-188.0809793611957
 30
0.0
  0
ENDBLK
  5
C8
330
C5
100
AcDbEntity
  8
0
100
AcDbBlockEnd
  0
ENDSEC
  0
SECTION
  2
ENTITIES
  0
INSERT
  5
42
330
1F
100
AcDbEntity
  8
OneCircle
100
AcDbBlockReference
  2
block 2
 10
0.0
 20
0.0
 30
0.0
  0
INSERT
  5
47
330
1F
100
AcDbEntity
  8
OneCircle
100
AcDbBlockReference
  2
block 3
 10
0.0
 20
0.0
 30
0.0
  0
INSERT
  5
4C
330
1F
100
AcDbEntity
  8
OneCircle
100
AcDbBlockReference
  2
block 4
 10
0.0
 20
0.0
 30
0.0
  0
INSERT
  5
60
330
1F
100
AcDbEntity
  8
OneCircle
100
AcDbBlockReference
  2
block 8
 10
0.0
 20
0.0
 30
0.0
  0
INSERT
  5
80
330
1F
100
AcDbEntity
  8
OneCircle
100
AcDbBlockReference
  2
block 14
 10
0.0
 20
0.0
 30
0.0
  0
SPLINE
  5
8B
330
1F
100
AcDbEntity
  8
OneCircle
 62
     7
420
 16777215
370
    35
100
AcDbSpline
210
0.0
220
0.0
230
1.0
 70
    27
 71
     3
 72
    11
 73
     7
 74
     0
 42
0.0000000001
 43
0.0000000001
 12
1.0
 22
0.0
 32
0.0
 13
1.0
 23
0.0
 33
0.0
 40
0.0
 40
0.0
 40
0.0
 40
0.0
 40
1.0
 40
1.0
 40
1.0
 40
2.0
 40
2.0
 40
2.0
 40
2.0
 10
443.3526320733552
 20
-137.3532788930035
 30
0.0
 10
443.3526320733552
 20
-137.3532788930035
 30
0.0
 10
432.0638010999588
 20
-137.3532824123608
 30
0.0
 10
432.0638010999588
 20
-137.3532824123608
 30
0.0
 10
432.0638010999588
 20
-137.3532824123608
 30
0.0
 10
443.3526320733552
 20
-137.3532788930035
 30
0.0
 10
443.3526320733552
 20
-137.3532788930035
 30
0.0
  0
INSERT
  5
8D
330
1F
100
AcDbEntity
  8
OneCircle
100
AcDbBlockReference
  2
block 16
 10
0.0
 20
0.0
 30
0.0
  0
INSERT
  5
94
330
1F
100
AcDbEntity
  8
OneCircle
100
AcDbBlockReference
  2
block 17
 10
0.0
 20
0.0
 30
0.0
  0
INSERT
  5
9A
330
1F
100
AcDbEntity
  8
OneCircle
100
AcDbBlockReference
  2
block 18
 10
0.0
 20
0.0
 30
0.0
  0
SPLINE
  5
AB
330
1F
100
AcDbEntity
  8
OneCircle
 62
     7
420
 16777215
370
    35
100
AcDbSpline
210
0.0
220
0.0
230
1.0
 70
    27
 71
     3
 72
    11
 73
     7
 74
     0
 42
0.0000000001
 43
0.0000000001
 12
1.0
 22
0.0
 32
0.0
 13
1.0
 23
0.0
 33
0.0
 40
0.0
 40
0.0
 40
0.0
 40
0.0
 40
1.0
 40
1.0
 40
1.0
 40
2.0
 40
2.0
 40
2.0
 40
2.0
 10
258.9186606118485
 20
-280.9148808569458
 30
0.0
 10
258.9186606118485
 20
-280.9148808569458
 30
0.0
 10
264.5630710486168
 20
-271.1384635393781
 30
0.0
 10
264.5630710486168
 20
-271.1384635393781
 30
0.0
 10
264.5630710486168
 20
-271.1384635393781
 30
0.0
 10
258.9186606118485
 20
-280.9148808569458
 30
0.0
 10
258.9186606118485
 20
-280.9148808569458
 30
0.0
  0
INSERT
  5
AD
330
1F
100
AcDbEntity
  8
OneCircle
100
AcDbBlockReference
  2
block 21
 10
0.0
 20
0.0
 30
0.0
  0
INSERT
  5
B4
330
1F
100
AcDbEntity
  8
OneCircle
100
AcDbBlockReference
  2
block 22
 10
0.0
 20
0.0
 30
0.0
  0
INSERT
  5
BA
330
1F
100
AcDbEntity
  8
OneCircle
100
AcDbBlockReference
  2
block 23
 10
0.0
 20
0.0
 30
0.0
  0
ENDSEC
  0
SECTION
  2
OBJECTS
  0
DICTIONARY
  5
C
330
0
100
AcDbDictionary
281
     1
  3
ACAD_GROUP
350
D
  3
ACAD_LAYOUT
350
1A
  3
ACAD_MATERIAL
350
3B
  3
ACAD_MLEADERSTYLE
350
CC
  3
ACAD_MLINESTYLE
350
17
  3
ACAD_PLOTSETTINGS
350
19
  3
ACAD_PLOTSTYLENAME
350
E
  3
ACAD_TABLESTYLE
350
CB
  3
ACAD_VISUALSTYLE
350
2A
  0
SUN
  5
3F
330
29
100
AcDbSun
 90
        1
290
     0
 63
     7
421
 16777215
 40
1.0
291
     1
 91
  2455826
 92
 54000000
292
     0
 70
     2
 71
   256
280
     1
  0
DICTIONARY
  5
D
102
{ACAD_REACTORS
330
C
102
}
330
C
100
AcDbDictionary
281
     1
  0
DICTIONARY
  5
1A
102
{ACAD_REACTORS
330
C
102
}
330
C
100
AcDbDictionary
281
     1
  3
Layout1
350
1E
  3
Layout2
350
26
  3
Model
350
22
  0
DICTIONARY
  5
3B
102
{ACAD_REACTORS
330
C
102
}
330
C
100
AcDbDictionary
281
     1
  3
ByBlock
350
3D
  3
ByLayer
350
3C
  3
Global
350
3E
  0
DICTIONARY
  5
CC
102
{ACAD_REACTORS
330
C
102
}
330
C
100
AcDbDictionary
281
     1
  0
DICTIONARY
  5
17
102
{ACAD_REACTORS
330
C
102
}
330
C
100
AcDbDictionary
281
     1
  3
Standard
350
18
  0
DICTIONARY
  5
19
102
{ACAD_REACTORS
330
C
102
}
330
C
100
AcDbDictionary
281
     1
  0
ACDBDICTIONARYWDFLT
  5
E
102
{ACAD_REACTORS
330
C
102
}
330
C
100
AcDbDictionary
281
     1
  3
Normal
350
F
100
AcDbDictionaryWithDefault
340
F
  0
DICTIONARY
  5
CB
102
{ACAD_REACTORS
330
C
102
}
330
C
100
AcDbDictionary
281
     1
  0
DICTIONARY
  5
2A
102
{ACAD_REACTORS
330
C
102
}
330
C
100
AcDbDictionary
281
     1
  3
2dWireframe
350
2F
  3
3D Hidden
350
31
  3
3dWireframe
350
30
  3
Basic
350
32
  3
Brighten
350
36
  3
ColorChange
350
3A
  3
Conceptual
350
34
  3
Dim
350
35
  3
Facepattern
350
39
  3
Flat
350
2B
  3
FlatWithEdges
350
2C
  3
Gouraud
350
2D
  3
GouraudWithEdges
350
2E
  3
Linepattern
350
38
  3
Realistic
350
33
  3
Thicken
350
37
  0
LAYOUT
  5
1E
102
{ACAD_REACTORS
330
1A
102
}
330
1A
100
AcDbPlotSettings
  1

  2
none_device
  4

  6

 40
0.0
 41
0.0
 42
0.0
 43
0.0
 44
0.0
 45
0.0
 46
0.0
 47
0.0
 48
0.0
 49
0.0
140
0.0
141
0.0
142
1.0
143
1.0
 70
   688
 72
     0
 73
     0
 74
     5
  7

 75
    16
 76
     0
 77
     2
 78
   300
147
1.0
148
0.0
149
0.0
100
AcDbLayout
  1
Layout1
 70
     1
 71
     1
 10
0.0
 20
0.0
 11
12.0
 21
9.0
 12
0.0
 22
0.0
 32
0.0
 14
1.000000000000000E+20
 24
1.000000000000000E+20
 34
1.000000000000000E+20
 15
-1.000000000000000E+20
 25
-1.000000000000000E+20
 35
-1.000000000000000E+20
146
0.0
 13
0.0
 23
0.0
 33
0.0
 16
1.0
 26
0.0
 36
0.0
 17
0.0
 27
1.0
 37
0.0
 76
     0
330
1B
  0
LAYOUT
  5
26
102
{ACAD_REACTORS
330
1A
102
}
330
1A
100
AcDbPlotSettings
  1

  2
none_device
  4

  6

 40
0.0
 41
0.0
 42
0.0
 43
0.0
 44
0.0
 45
0.0
 46
0.0
 47
0.0
 48
0.0
 49
0.0
140
0.0
141
0.0
142
1.0
143
1.0
 70
   688
 72
     0
 73
     0
 74
     5
  7

 75
    16
 76
     0
 77
     2
 78
   300
147
1.0
148
0.0
149
0.0
100
AcDbLayout
  1
Layout2
 70
     1
 71
     2
 10
0.0
 20
0.0
 11
0.0
 21
0.0
 12
0.0
 22
0.0
 32
0.0
 14
0.0
 24
0.0
 34
0.0
 15
0.0
 25
0.0
 35
0.0
146
0.0
 13
0.0
 23
0.0
 33
0.0
 16
1.0
 26
0.0
 36
0.0
 17
0.0
 27
1.0
 37
0.0
 76
     0
330
23
  0
LAYOUT
  5
22
102
{ACAD_REACTORS
330
1A
102
}
330
1A
100
AcDbPlotSettings
  1

  2
none_device
  4

  6

 40
0.0
 41
0.0
 42
0.0
 43
0.0
 44
0.0
 45
0.0
 46
0.0
 47
0.0
 48
0.0
 49
0.0
140
0.0
141
0.0
142
1.0
143
1.0
 70
  1712
 72
     0
 73
     0
 74
     0
  7

 75
     0
 76
     0
 77
     2
 78
   300
147
1.0
148
0.0
149
0.0
100
AcDbLayout
  1
Model
 70
     1
 71
     0
 10
0.0
 20
0.0
 11
12.0
 21
9.0
 12
0.0
 22
0.0
 32
0.0
 14
1.000000000000000E+20
 24
1.000000000000000E+20
 34
1.000000000000000E+20
 15
-1.000000000000000E+20
 25
-1.000000000000000E+20
 35
-1.000000000000000E+20
146
0.0
 13
0.0
 23
0.0
 33
0.0
 16
1.0
 26
0.0
 36
0.0
 17
0.0
 27
1.0
 37
0.0
 76
     0
330
1F
331
29
  0
MATERIAL
  5
3D
102
{ACAD_REACTORS
330
3B
102
}
330
3B
100
AcDbMaterial
  1
ByBlock
 72
     1
 94
      127
  0
MATERIAL
  5
3C
102
{ACAD_REACTORS
330
3B
102
}
330
3B
100
AcDbMaterial
  1
ByLayer
 72
     1
 94
      127
  0
MATERIAL
  5
3E
102
{ACAD_REACTORS
330
3B
102
}
330
3B
100
AcDbMaterial
  1
Global
 72
     1
 94
      127
  0
MLINESTYLE
  5
18
102
{ACAD_REACTORS
330
17
102
}
330
17
100
AcDbMlineStyle
  2
Standard
 70
     0
  3

 62
   256
 51
90.0
 52
90.0
 71
     2
 49
0.5
 62
   256
  6
BYLAYER
 49
-0.5
 62
   256
  6
BYLAYER
  0
ACDBPLACEHOLDER
  5
F
102
{ACAD_REACTORS
330
E
102
}
330
E
  0
VISUALSTYLE
  5
2F
102
{ACAD_REACTORS
330
2A
102
}
330
2A
100
AcDbVisualStyle
  2
2dWireframe
 70
     4
177
     2
291
     0
 71
     0
176
     1
 72
     2
176
     1
 73
     0
176
     1
 90
        0
176
     1
 40
-0.6
176
     1
 41
-30.0
176
     1
 62
     5
 63
     7
421
 16777215
176
     1
 74
     1
176
     1
 91
        4
176
     1
 64
     7
176
     1
 65
   257
176
     1
 75
     1
176
     1
175
     1
176
     1
 42
1.0
176
     1
 92
        0
176
     1
 66
   257
176
     1
 43
1.0
176
     1
 76
     1
176
     1
 77
     6
176
     1
 78
     2
176
     1
 67
     7
176
     1
 79
     5
176
     1
170
     0
176
     1
171
     0
176
     1
290
     0
176
     1
 93
        1
176
     1
 44
0.0
176
     1
173
     0
176
     1
  0
VISUALSTYLE
  5
31
102
{ACAD_REACTORS
330
2A
102
}
330
2A
100
AcDbVisualStyle
  2
3D Hidden
 70
     6
177
     2
291
     0
 71
     1
176
     1
 72
     2
176
     1
 73
     2
176
     1
 90
        0
176
     1
 40
-0.6
176
     1
 41
-30.0
176
     1
 62
     5
 63
     7
421
 16777215
176
     1
 74
     2
176
     1
 91
        2
176
     1
 64
     7
176
     1
 65
   257
176
     1
 75
     2
176
     1
175
     1
176
     1
 42
40.0
176
     1
 92
        0
176
     1
 66
   257
176
     1
 43
1.0
176
     1
 76
     1
176
     1
 77
     6
176
     1
 78
     2
176
     1
 67
     7
176
     1
 79
     3
176
     1
170
     0
176
     1
171
     0
176
     1
290
     0
176
     1
 93
        1
176
     1
 44
0.0
176
     1
173
     0
176
     1
  0
VISUALSTYLE
  5
30
102
{ACAD_REACTORS
330
2A
102
}
330
2A
100
AcDbVisualStyle
  2
3dWireframe
 70
     5
177
     2
291
     0
 71
     0
176
     1
 72
     2
176
     1
 73
     0
176
     1
 90
        0
176
     1
 40
-0.6
176
     1
 41
-30.0
176
     1
 62
     5
 63
     7
421
 16777215
176
     1
 74
     1
176
     1
 91
        4
176
     1
 64
     7
176
     1
 65
   257
176
     1
 75
     1
176
     1
175
     1
176
     1
 42
1.0
176
     1
 92
        0
176
     1
 66
   257
176
     1
 43
1.0
176
     1
 76
     1
176
     1
 77
     6
176
     1
 78
     2
176
     1
 67
     7
176
     1
 79
     5
176
     1
170
     0
176
     1
171
     0
176
     1
290
     0
176
     1
 93
        1
176
     1
 44
0.0
176
     1
173
     0
176
     1
  0
VISUALSTYLE
  5
32
102
{ACAD_REACTORS
330
2A
102
}
330
2A
100
AcDbVisualStyle
  2
Basic
 70
     7
177
     2
291
     1
 71
     1
176
     1
 72
     0
176
     1
 73
     1
176
     1
 90
        0
176
     1
 40
-0.6
176
     1
 41
-30.0
176
     1
 62
     5
 63
     7
421
 16777215
176
     1
 74
     0
176
     1
 91
        4
176
     1
 64
     7
176
     1
 65
   257
176
     1
 75
     1
176
     1
175
     1
176
     1
 42
1.0
176
     1
 92
        8
176
     1
 66
     7
176
     1
 43
1.0
176
     1
 76
     1
176
     1
 77
     6
176
     1
 78
     2
176
     1
 67
     7
176
     1
 79
     5
176
     1
170
     0
176
     1
171
     0
176
     1
290
     0
176
     1
 93
        1
176
     1
 44
0.0
176
     1
173
     0
176
     1
  0
VISUALSTYLE
  5
36
102
{ACAD_REACTORS
330
2A
102
}
330
2A
100
AcDbVisualStyle
  2
Brighten
 70
    12
177
     2
291
     1
 71
     2
176
     1
 72
     2
176
     1
 73
     0
176
     1
 90
        0
176
     1
 40
-0.6
176
     1
 41
-30.0
176
     1
 62
     5
 63
     7
421
 16777215
176
     1
 74
     1
176
     1
 91
        4
176
     1
 64
     7
176
     1
 65
   257
176
     1
 75
     1
176
     1
175
     1
176
     1
 42
1.0
176
     1
 92
        8
176
     1
 66
     7
176
     1
 43
1.0
176
     1
 76
     1
176
     1
 77
     6
176
     1
 78
     2
176
     1
 67
     7
176
     1
 79
     5
176
     1
170
     0
176
     1
171
     0
176
     1
290
     0
176
     1
 93
        1
176
     1
 44
50.0
176
     1
173
     0
176
     1
  0
VISUALSTYLE
  5
3A
102
{ACAD_REACTORS
330
2A
102
}
330
2A
100
AcDbVisualStyle
  2
ColorChange
 70
    16
177
     2
291
     1
 71
     2
176
     1
 72
     2
176
     1
 73
     3
176
     1
 90
        0
176
     1
 40
-0.6
176
     1
 41
-30.0
176
     1
 62
     5
 63
     8
421
  8421504
176
     1
 74
     1
176
     1
 91
        4
176
     1
 64
     7
176
     1
 65
   257
176
     1
 75
     1
176
     1
175
     1
176
     1
 42
1.0
176
     1
 92
        8
176
     1
 66
     8
424
  8421504
176
     1
 43
1.0
176
     1
 76
     1
176
     1
 77
     6
176
     1
 78
     2
176
     1
 67
     7
176
     1
 79
     5
176
     1
170
     0
176
     1
171
     0
176
     1
290
     0
176
     1
 93
        1
176
     1
 44
0.0
176
     1
173
     0
176
     1
  0
VISUALSTYLE
  5
34
102
{ACAD_REACTORS
330
2A
102
}
330
2A
100
AcDbVisualStyle
  2
Conceptual
 70
     9
177
     2
291
     0
 71
     3
176
     1
 72
     2
176
     1
 73
     0
176
     1
 90
        0
176
     1
 40
-0.6
176
     1
 41
-30.0
176
     1
 62
     5
 63
     7
421
 16777215
176
     1
 74
     2
176
     1
 91
        2
176
     1
 64
     7
176
     1
 65
   257
176
     1
 75
     1
176
     1
175
     1
176
     1
 42
40.0
176
     1
 92
        8
176
     1
 66
     7
176
     1
 43
1.0
176
     1
 76
     1
176
     1
 77
     6
176
     1
 78
     2
176
     1
 67
     7
176
     1
 79
     3
176
     1
170
     0
176
     1
171
     0
176
     1
290
     0
176
     1
 93
        1
176
     1
 44
0.0
176
     1
173
     0
176
     1
  0
VISUALSTYLE
  5
35
102
{ACAD_REACTORS
330
2A
102
}
330
2A
100
AcDbVisualStyle
  2
Dim
 70
    11
177
     2
291
     1
 71
     2
176
     1
 72
     2
176
     1
 73
     0
176
     1
 90
        0
176
     1
 40
-0.6
176
     1
 41
-30.0
176
     1
 62
     5
 63
     7
421
 16777215
176
     1
 74
     1
176
     1
 91
        4
176
     1
 64
     7
176
     1
 65
   257
176
     1
 75
     1
176
     1
175
     1
176
     1
 42
1.0
176
     1
 92
        8
176
     1
 66
     7
176
     1
 43
1.0
176
     1
 76
     1
176
     1
 77
     6
176
     1
 78
     2
176
     1
 67
     7
176
     1
 79
     5
176
     1
170
     0
176
     1
171
     0
176
     1
290
     0
176
     1
 93
        1
176
     1
 44
-50.0
176
     1
173
     0
176
     1
  0
VISUALSTYLE
  5
39
102
{ACAD_REACTORS
330
2A
102
}
330
2A
100
AcDbVisualStyle
  2
Facepattern
 70
    15
177
     2
291
     1
 71
     2
176
     1
 72
     2
176
     1
 73
     0
176
     1
 90
        0
176
     1
 40
-0.6
176
     1
 41
-30.0
176
     1
 62
     5
 63
     7
421
 16777215
176
     1
 74
     1
176
     1
 91
        4
176
     1
 64
     7
176
     1
 65
   257
176
     1
 75
     1
176
     1
175
     1
176
     1
 42
1.0
176
     1
 92
        8
176
     1
 66
     7
176
     1
 43
1.0
176
     1
 76
     1
176
     1
 77
     6
176
     1
 78
     2
176
     1
 67
     7
176
     1
 79
     5
176
     1
170
     0
176
     1
171
     0
176
     1
290
     0
176
     1
 93
        1
176
     1
 44
0.0
176
     1
173
     0
176
     1
  0
VISUALSTYLE
  5
2B
102
{ACAD_REACTORS
330
2A
102
}
330
2A
100
AcDbVisualStyle
  2
Flat
 70
     0
177
     2
291
     1
 71
     2
176
     1
 72
     1
176
     1
 73
     1
176
     1
 90
        2
176
     1
 40
-0.6
176
     1
 41
30.0
176
     1
 62
     5
 63
     7
421
 16777215
176
     1
 74
     0
176
     1
 91
        4
176
     1
 64
     7
176
     1
 65
   257
176
     1
 75
     1
176
     1
175
     1
176
     1
 42
1.0
176
     1
 92
        8
176
     1
 66
     7
176
     1
 43
1.0
176
     1
 76
     1
176
     1
 77
     6
176
     1
 78
     2
176
     1
 67
     7
176
     1
 79
     5
176
     1
170
     0
176
     1
171
     0
176
     1
290
     0
176
     1
 93
       13
176
     1
 44
0.0
176
     1
173
     0
176
     1
  0
VISUALSTYLE
  5
2C
102
{ACAD_REACTORS
330
2A
102
}
330
2A
100
AcDbVisualStyle
  2
FlatWithEdges
 70
     1
177
     2
291
     1
 71
     2
176
     1
 72
     1
176
     1
 73
     1
176
     1
 90
        2
176
     1
 40
-0.6
176
     1
 41
30.0
176
     1
 62
     5
 63
     7
421
 16777215
176
     1
 74
     1
176
     1
 91
        4
176
     1
 64
     7
176
     1
 65
   257
176
     1
 75
     1
176
     1
175
     1
176
     1
 42
1.0
176
     1
 92
        0
176
     1
 66
   257
176
     1
 43
1.0
176
     1
 76
     1
176
     1
 77
     6
176
     1
 78
     2
176
     1
 67
     7
176
     1
 79
     5
176
     1
170
     0
176
     1
171
     0
176
     1
290
     0
176
     1
 93
       13
176
     1
 44
0.0
176
     1
173
     0
176
     1
  0
VISUALSTYLE
  5
2D
102
{ACAD_REACTORS
330
2A
102
}
330
2A
100
AcDbVisualStyle
  2
Gouraud
 70
     2
177
     2
291
     1
 71
     2
176
     1
 72
     2
176
     1
 73
     1
176
     1
 90
        2
176
     1
 40
-0.6
176
     1
 41
30.0
176
     1
 62
     5
 63
     7
421
 16777215
176
     1
 74
     0
176
     1
 91
        4
176
     1
 64
     7
176
     1
 65
   257
176
     1
 75
     1
176
     1
175
     1
176
     1
 42
1.0
176
     1
 92
        0
176
     1
 66
     7
176
     1
 43
1.0
176
     1
 76
     1
176
     1
 77
     6
176
     1
 78
     2
176
     1
 67
     7
176
     1
 79
     5
176
     1
170
     0
176
     1
171
     0
176
     1
290
     0
176
     1
 93
       13
176
     1
 44
0.0
176
     1
173
     0
176
     1
  0
VISUALSTYLE
  5
2E
102
{ACAD_REACTORS
330
2A
102
}
330
2A
100
AcDbVisualStyle
  2
GouraudWithEdges
 70
     3
177
     2
291
     1
 71
     2
176
     1
 72
     2
176
     1
 73
     1
176
     1
 90
        2
176
     1
 40
-0.6
176
     1
 41
30.0
176
     1
 62
     5
 63
     7
421
 16777215
176
     1
 74
     1
176
     1
 91
        4
176
     1
 64
     7
176
     1
 65
   257
176
     1
 75
     1
176
     1
175
     1
176
     1
 42
1.0
176
     1
 92
        0
176
     1
 66
   257
176
     1
 43
1.0
176
     1
 76
     1
176
     1
 77
     6
176
     1
 78
     2
176
     1
 67
     7
176
     1
 79
     5
176
     1
170
     0
176
     1
171
     0
176
     1
290
     0
176
     1
 93
       13
176
     1
 44
0.0
176
     1
173
     0
176
     1
  0
VISUALSTYLE
  5
38
102
{ACAD_REACTORS
330
2A
102
}
330
2A
100
AcDbVisualStyle
  2
Linepattern
 70
    14
177
     2
291
     1
 71
     2
176
     1
 72
     2
176
     1
 73
     0
176
     1
 90
        0
176
     1
 40
-0.6
176
     1
 41
-30.0
176
     1
 62
     5
 63
     7
421
 16777215
176
     1
 74
     1
176
     1
 91
        4
176
     1
 64
     7
176
     1
 65
   257
176
     1
 75
     7
176
     1
175
     7
176
     1
 42
1.0
176
     1
 92
        8
176
     1
 66
     7
176
     1
 43
1.0
176
     1
 76
     1
176
     1
 77
     6
176
     1
 78
     2
176
     1
 67
     7
176
     1
 79
     5
176
     1
170
     0
176
     1
171
     0
176
     1
290
     0
176
     1
 93
        1
176
     1
 44
0.0
176
     1
173
     0
176
     1
  0
VISUALSTYLE
  5
33
102
{ACAD_REACTORS
330
2A
102
}
330
2A
100
AcDbVisualStyle
  2
Realistic
 70
     8
177
     2
291
     0
 71
     2
176
     1
 72
     2
176
     1
 73
     0
176
     1
 90
        0
176
     1
 40
-0.6
176
     1
 41
-30.0
176
     1
 62
     5
 63
     7
421
 16777215
176
     1
 74
     1
176
     1
 91
        0
176
     1
 64
     7
176
     1
 65
   257
176
     1
 75
     1
176
     1
175
     1
176
     1
 42
1.0
176
     1
 92
        8
176
     1
 66
     8
424
  7895160
176
     1
 43
1.0
176
     1
 76
     1
176
     1
 77
     6
176
     1
 78
     2
176
     1
 67
     7
176
     1
 79
     5
176
     1
170
     0
176
     1
171
     0
176
     1
290
     0
176
     1
 93
       13
176
     1
 44
0.0
176
     1
173
     0
176
     1
  0
VISUALSTYLE
  5
37
102
{ACAD_REACTORS
330
2A
102
}
330
2A
100
AcDbVisualStyle
  2
Thicken
 70
    13
177
     2
291
     1
 71
     2
176
     1
 72
     2
176
     1
 73
     0
176
     1
 90
        0
176
     1
 40
-0.6
176
     1
 41
-30.0
176
     1
 62
     5
 63
     7
421
 16777215
176
     1
 74
     1
176
     1
 91
        4
176
     1
 64
     7
176
     1
 65
   257
176
     1
 75
     1
176
     1
175
     1
176
     1
 42
1.0
176
     1
 92
       12
176
     1
 66
     7
176
     1
 43
1.0
176
     1
 76
     1
176
     1
 77
     6
176
     1
 78
     2
176
     1
 67
     7
176
     1
 79
     5
176
     1
170
     0
176
     1
171
     0
176
     1
290
     0
176
     1
 93
        1
176
     1
 44
0.0
176
     1
173
     0
176
     1
  0
ENDSEC
  0
EOF
