  0
SECTION
  2
HEADER
  9
$ACADVER
  1
AC1024
  9
$ACADMAINTVER
 70
     6
  9
$DWGCODEPAGE
  3
ANSI_932
  9
$INSBASE
 10
0.0
 20
0.0
 30
0.0
  9
$EXTMIN
 10
1.000000000000000E+20
 20
1.000000000000000E+20
 30
1.000000000000000E+20
  9
$EXTMAX
 10
-1.000000000000000E+20
 20
-1.000000000000000E+20
 30
-1.000000000000000E+20
  9
$LIMMIN
 10
0.0
 20
0.0
  9
$LIMMAX
 10
12.0
 20
9.0
  9
$ORTHOMODE
 70
     0
  9
$REGENMODE
 70
     1
  9
$FILLMODE
 70
     1
  9
$QTEXTMODE
 70
     0
  9
$MIRRTEXT
 70
     1
  9
$LTSCALE
 40
1.0
  9
$ATTMODE
 70
     1
  9
$TEXTSIZE
 40
0.2
  9
$TRACEWID
 40
0.05
  9
$TEXTSTYLE
  7
Standard
  9
$CLAYER
  8
0
  9
$CELTYPE
  6
ByLayer
  9
$CECOLOR
 62
   256
  9
$CELTSCALE
 40
1.0
  9
$DISPSILH
 70
     0
  9
$DIMSCALE
 40
1.0
  9
$DIMASZ
 40
0.18
  9
$DIMEXO
 40
0.0625
  9
$DIMDLI
 40
0.38
  9
$DIMRND
 40
0.0
  9
$DIMDLE
 40
0.0
  9
$DIMEXE
 40
0.18
  9
$DIMTP
 40
0.0
  9
$DIMTM
 40
0.0
  9
$DIMTXT
 40
0.18
  9
$DIMCEN
 40
0.09
  9
$DIMTSZ
 40
0.0
  9
$DIMTOL
 70
     0
  9
$DIMLIM
 70
     0
  9
$DIMTIH
 70
     1
  9
$DIMTOH
 70
     1
  9
$DIMSE1
 70
     0
  9
$DIMSE2
 70
     0
  9
$DIMTAD
 70
     0
  9
$DIMZIN
 70
     0
  9
$DIMBLK
  1

  9
$DIMASO
 70
     1
  9
$DIMSHO
 70
     1
  9
$DIMPOST
  1

  9
$DIMAPOST
  1

  9
$DIMALT
 70
     0
  9
$DIMALTD
 70
     2
  9
$DIMALTF
 40
25.4
  9
$DIMLFAC
 40
1.0
  9
$DIMTOFL
 70
     0
  9
$DIMTVP
 40
0.0
  9
$DIMTIX
 70
     0
  9
$DIMSOXD
 70
     0
  9
$DIMSAH
 70
     0
  9
$DIMBLK1
  1

  9
$DIMBLK2
  1

  9
$DIMSTYLE
  2
Standard
  9
$DIMCLRD
 70
     0
  9
$DIMCLRE
 70
     0
  9
$DIMCLRT
 70
     0
  9
$DIMTFAC
 40
1.0
  9
$DIMGAP
 40
0.09
  9
$DIMJUST
 70
     0
  9
$DIMSD1
 70
     0
  9
$DIMSD2
 70
     0
  9
$DIMTOLJ
 70
     1
  9
$DIMTZIN
 70
     0
  9
$DIMALTZ
 70
     0
  9
$DIMALTTZ
 70
     0
  9
$DIMUPT
 70
     0
  9
$DIMDEC
 70
     4
  9
$DIMTDEC
 70
     4
  9
$DIMALTU
 70
     2
  9
$DIMALTTD
 70
     2
  9
$DIMTXSTY
  7
Standard
  9
$DIMAUNIT
 70
     0
  9
$DIMADEC
 70
     0
  9
$DIMALTRND
 40
0.0
  9
$DIMAZIN
 70
     0
  9
$DIMDSEP
 70
    46
  9
$DIMATFIT
 70
     3
  9
$DIMFRAC
 70
     0
  9
$DIMLDRBLK
  1

  9
$DIMLUNIT
 70
     2
  9
$DIMLWD
 70
    -2
  9
$DIMLWE
 70
    -2
  9
$DIMTMOVE
 70
     0
  9
$DIMFXL
 40
1.0
  9
$DIMFXLON
 70
     0
  9
$DIMJOGANG
 40
0.7853981633974483
  9
$DIMTFILL
 70
     0
  9
$DIMTFILLCLR
 70
     0
  9
$DIMARCSYM
 70
     0
  9
$DIMLTYPE
  6

  9
$DIMLTEX1
  6

  9
$DIMLTEX2
  6

  9
$DIMTXTDIRECTION
 70
     0
  9
$LUNITS
 70
     2
  9
$LUPREC
 70
     4
  9
$SKETCHINC
 40
0.1
  9
$FILLETRAD
 40
0.5
  9
$AUNITS
 70
     0
  9
$AUPREC
 70
     0
  9
$MENU
  1
.
  9
$ELEVATION
 40
0.0
  9
$PELEVATION
 40
0.0
  9
$THICKNESS
 40
0.0
  9
$LIMCHECK
 70
     0
  9
$CHAMFERA
 40
0.5
  9
$CHAMFERB
 40
0.5
  9
$CHAMFERC
 40
1.0
  9
$CHAMFERD
 40
0.0
  9
$SKPOLY
 70
     0
  9
$TDCREATE
 40
2458553.070386991
  9
$TDUCREATE
 40
2458552.695386991
  9
$TDUPDATE
 40
2458553.070387176
  9
$TDUUPDATE
 40
2458552.695387176
  9
$TDINDWG
 40
0.0000000116
  9
$TDUSRTIMER
 40
0.0000000116
  9
$USRTIMER
 70
     1
  9
$ANGBASE
 50
0.0
  9
$ANGDIR
 70
     0
  9
$PDMODE
 70
     0
  9
$PDSIZE
 40
0.0
  9
$PLINEWID
 40
0.0
  9
$SPLFRAME
 70
     0
  9
$SPLINETYPE
 70
     6
  9
$SPLINESEGS
 70
     8
  9
$HANDSEED
  5
DF
  9
$SURFTAB1
 70
     6
  9
$SURFTAB2
 70
     6
  9
$SURFTYPE
 70
     6
  9
$SURFU
 70
     6
  9
$SURFV
 70
     6
  9
$UCSBASE
  2

  9
$UCSNAME
  2

  9
$UCSORG
 10
0.0
 20
0.0
 30
0.0
  9
$UCSXDIR
 10
1.0
 20
0.0
 30
0.0
  9
$UCSYDIR
 10
0.0
 20
1.0
 30
0.0
  9
$UCSORTHOREF
  2

  9
$UCSORTHOVIEW
 70
     0
  9
$UCSORGTOP
 10
0.0
 20
0.0
 30
0.0
  9
$UCSORGBOTTOM
 10
0.0
 20
0.0
 30
0.0
  9
$UCSORGLEFT
 10
0.0
 20
0.0
 30
0.0
  9
$UCSORGRIGHT
 10
0.0
 20
0.0
 30
0.0
  9
$UCSORGFRONT
 10
0.0
 20
0.0
 30
0.0
  9
$UCSORGBACK
 10
0.0
 20
0.0
 30
0.0
  9
$PUCSBASE
  2

  9
$PUCSNAME
  2

  9
$PUCSORG
 10
0.0
 20
0.0
 30
0.0
  9
$PUCSXDIR
 10
1.0
 20
0.0
 30
0.0
  9
$PUCSYDIR
 10
0.0
 20
1.0
 30
0.0
  9
$PUCSORTHOREF
  2

  9
$PUCSORTHOVIEW
 70
     0
  9
$PUCSORGTOP
 10
0.0
 20
0.0
 30
0.0
  9
$PUCSORGBOTTOM
 10
0.0
 20
0.0
 30
0.0
  9
$PUCSORGLEFT
 10
0.0
 20
0.0
 30
0.0
  9
$PUCSORGRIGHT
 10
0.0
 20
0.0
 30
0.0
  9
$PUCSORGFRONT
 10
0.0
 20
0.0
 30
0.0
  9
$PUCSORGBACK
 10
0.0
 20
0.0
 30
0.0
  9
$USERI1
 70
     0
  9
$USERI2
 70
     0
  9
$USERI3
 70
     0
  9
$USERI4
 70
     0
  9
$USERI5
 70
     0
  9
$USERR1
 40
0.0
  9
$USERR2
 40
0.0
  9
$USERR3
 40
0.0
  9
$USERR4
 40
0.0
  9
$USERR5
 40
0.0
  9
$WORLDVIEW
 70
     1
  9
$SHADEDGE
 70
     3
  9
$SHADEDIF
 70
    70
  9
$TILEMODE
 70
     1
  9
$MAXACTVP
 70
    64
  9
$PINSBASE
 10
0.0
 20
0.0
 30
0.0
  9
$PLIMCHECK
 70
     0
  9
$PEXTMIN
 10
1.000000000000000E+20
 20
1.000000000000000E+20
 30
1.000000000000000E+20
  9
$PEXTMAX
 10
-1.000000000000000E+20
 20
-1.000000000000000E+20
 30
-1.000000000000000E+20
  9
$PLIMMIN
 10
0.0
 20
0.0
  9
$PLIMMAX
 10
12.0
 20
9.0
  9
$UNITMODE
 70
     0
  9
$VISRETAIN
 70
     1
  9
$PLINEGEN
 70
     0
  9
$PSLTSCALE
 70
     1
  9
$TREEDEPTH
 70
  3020
  9
$CMLSTYLE
  2
Standard
  9
$CMLJUST
 70
     0
  9
$CMLSCALE
 40
1.0
  9
$PROXYGRAPHICS
 70
     1
  9
$MEASUREMENT
 70
     0
  9
$CELWEIGHT
370
    -1
  9
$ENDCAPS
280
     0
  9
$JOINSTYLE
280
     0
  9
$LWDISPLAY
290
     1
  9
$INSUNITS
 70
     1
  9
$HYPERLINKBASE
  1

  9
$STYLESHEET
  1

  9
$XEDIT
290
     1
  9
$CEPSNTYPE
380
     0
  9
$PSTYLEMODE
290
     1
  9
$FINGERPRINTGUID
  2
{9F04B882-6BC6-4A75-B397-0E7A49B450E6}
  9
$VERSIONGUID
  2
{FAEB1C32-E019-11D5-929B-00C0DF256EC4}
  9
$EXTNAMES
290
     1
  9
$PSVPSCALE
 40
0.0
  9
$OLESTARTUP
290
     0
  9
$SORTENTS
280
   127
  9
$INDEXCTL
280
     0
  9
$HIDETEXT
280
     1
  9
$XCLIPFRAME
280
     2
  9
$HALOGAP
280
     0
  9
$OBSCOLOR
 70
   257
  9
$OBSLTYPE
280
     0
  9
$INTERSECTIONDISPLAY
280
     0
  9
$INTERSECTIONCOLOR
 70
   257
  9
$DIMASSOC
280
     2
  9
$PROJECTNAME
  1

  9
$CAMERADISPLAY
290
     0
  9
$LENSLENGTH
 40
50.0
  9
$CAMERAHEIGHT
 40
0.0
  9
$STEPSPERSEC
 40
2.0
  9
$STEPSIZE
 40
6.0
  9
$3DDWFPREC
 40
2.0
  9
$PSOLWIDTH
 40
0.25
  9
$PSOLHEIGHT
 40
4.0
  9
$LOFTANG1
 40
1.570796326794897
  9
$LOFTANG2
 40
1.570796326794897
  9
$LOFTMAG1
 40
0.0
  9
$LOFTMAG2
 40
0.0
  9
$LOFTPARAM
 70
     7
  9
$LOFTNORMALS
280
     1
  9
$LATITUDE
 40
37.795
  9
$LONGITUDE
 40
-122.394
  9
$NORTHDIRECTION
 40
0.0
  9
$TIMEZONE
 70
 -8000
  9
$LIGHTGLYPHDISPLAY
280
     1
  9
$TILEMODELIGHTSYNCH
280
     1
  9
$CMATERIAL
347
3C
  9
$SOLIDHIST
280
     1
  9
$SHOWHIST
280
     1
  9
$DWFFRAME
280
     2
  9
$DGNFRAME
280
     2
  9
$REALWORLDSCALE
290
     1
  9
$INTERFERECOLOR
 62
   256
  9
$CSHADOW
280
     0
  9
$SHADOWPLANELOCATION
 40
0.0
  0
ENDSEC
  0
SECTION
  2
CLASSES
  0
CLASS
  1
ACDBDICTIONARYWDFLT
  2
AcDbDictionaryWithDefault
  3
ObjectDBX Classes
 90
        0
 91
        4
280
     0
281
     0
  0
CLASS
  1
VISUALSTYLE
  2
AcDbVisualStyle
  3
ObjectDBX Classes
 90
     4095
 91
        4
280
     0
281
     0
  0
CLASS
  1
MATERIAL
  2
AcDbMaterial
  3
ObjectDBX Classes
 90
     1153
 91
        4
280
     0
281
     0
  0
CLASS
  1
SUN
  2
AcDbSun
  3
SCENEOE
 90
     1024
 91
        4
280
     0
281
     0
  0
ENDSEC
  0
SECTION
  2
TABLES
  0
TABLE
  2
VPORT
  5
8
330
0
100
AcDbSymbolTable
 70
     1
  0
VPORT
  5
29
330
8
100
AcDbSymbolTableRecord
100
AcDbViewportTableRecord
  2
*Active
 70
     0
 10
0.0
 20
0.0
 11
1.0
 21
1.0
 12
0.0
 22
0.0
 13
0.0
 23
0.0
 14
0.5
 24
0.5
 15
0.5
 25
0.5
 16
0.0
 26
0.0
 36
1.0
 17
239.9999999399998
 27
-209.9999999474999
 37
0.0
 40
419.9999998949992
 41
1.142857142857143
 42
50.0
 43
0.0
 44
0.0
 50
0.0
 51
0.0
 71
     0
 72
   100
 73
     1
 74
     3
 75
     0
 76
     0
 77
     0
 78
     0
281
     0
 65
     1
110
0.0
120
0.0
130
0.0
111
1.0
121
0.0
131
0.0
112
0.0
122
1.0
132
0.0
 79
     0
146
0.0
 60
     3
 61
     5
292
     1
282
     1
141
0.0
142
0.0
 63
   250
361
3F
  0
ENDTAB
  0
TABLE
  2
LTYPE
  5
5
330
0
100
AcDbSymbolTable
 70
     1
  0
LTYPE
  5
14
330
5
100
AcDbSymbolTableRecord
100
AcDbLinetypeTableRecord
  2
ByBlock
 70
     0
  3

 72
    65
 73
     0
 40
0.0
  0
LTYPE
  5
15
330
5
100
AcDbSymbolTableRecord
100
AcDbLinetypeTableRecord
  2
ByLayer
 70
     0
  3

 72
    65
 73
     0
 40
0.0
  0
LTYPE
  5
16
330
5
100
AcDbSymbolTableRecord
100
AcDbLinetypeTableRecord
  2
Continuous
 70
     0
  3
Solid line
 72
    65
 73
     0
 40
0.0
  0
ENDTAB
  0
TABLE
  2
LAYER
  5
2
330
0
100
AcDbSymbolTable
 70
     2
  0
LAYER
  5
10
330
2
100
AcDbSymbolTableRecord
100
AcDbLayerTableRecord
  2
0
 70
     0
 62
     7
  6
Continuous
370
    -3
390
F
347
3E
  0
LAYER
  5
40
330
2
100
AcDbSymbolTableRecord
100
AcDbLayerTableRecord
  2
OneCircle
 70
     0
 62
     7
  6
Continuous
370
    -3
390
F
347
3E
  0
ENDTAB
  0
TABLE
  2
STYLE
  5
3
330
0
100
AcDbSymbolTable
 70
     1
  0
STYLE
  5
11
330
3
100
AcDbSymbolTableRecord
100
AcDbTextStyleTableRecord
  2
Standard
 70
     0
 40
0.0
 41
1.0
 50
0.0
 71
     0
 42
0.2
  3
txt
  4

  0
ENDTAB
  0
TABLE
  2
VIEW
  5
6
330
0
100
AcDbSymbolTable
 70
     0
  0
ENDTAB
  0
TABLE
  2
UCS
  5
7
330
0
100
AcDbSymbolTable
 70
     0
  0
ENDTAB
  0
TABLE
  2
APPID
  5
9
330
0
100
AcDbSymbolTable
 70
     1
  0
APPID
  5
12
330
9
100
AcDbSymbolTableRecord
100
AcDbRegAppTableRecord
  2
ACAD
 70
     0
  0
ENDTAB
  0
TABLE
  2
DIMSTYLE
  5
A
330
0
100
AcDbSymbolTable
 70
     1
100
AcDbDimStyleTable
  0
DIMSTYLE
105
27
330
A
100
AcDbSymbolTableRecord
100
AcDbDimStyleTableRecord
  2
Standard
 70
     0
178
     0
340
11
  0
ENDTAB
  0
TABLE
  2
BLOCK_RECORD
  5
1
330
0
100
AcDbSymbolTable
 70
    20
  0
BLOCK_RECORD
  5
1F
330
1
100
AcDbSymbolTableRecord
100
AcDbBlockTableRecord
  2
*Model_Space
340
22
 70
     0
280
     1
281
     0
  0
BLOCK_RECORD
  5
1B
330
1
100
AcDbSymbolTableRecord
100
AcDbBlockTableRecord
  2
*Paper_Space
340
1E
 70
     0
280
     1
281
     0
  0
BLOCK_RECORD
  5
23
330
1
100
AcDbSymbolTableRecord
100
AcDbBlockTableRecord
  2
*Paper_Space0
340
26
 70
     0
280
     1
281
     0
  0
BLOCK_RECORD
  5
43
330
1
100
AcDbSymbolTableRecord
100
AcDbBlockTableRecord
  2
block 2
340
0
102
{BLKREFS
331
44
102
}
 70
     0
280
     1
281
     0
  0
BLOCK_RECORD
  5
4C
330
1
100
AcDbSymbolTableRecord
100
AcDbBlockTableRecord
  2
block 3
340
0
102
{BLKREFS
331
4D
102
}
 70
     0
280
     1
281
     0
  0
BLOCK_RECORD
  5
55
330
1
100
AcDbSymbolTableRecord
100
AcDbBlockTableRecord
  2
block 4
340
0
102
{BLKREFS
331
56
102
}
 70
     0
280
     1
281
     0
  0
BLOCK_RECORD
  5
5E
330
1
100
AcDbSymbolTableRecord
100
AcDbBlockTableRecord
  2
block 5
340
0
102
{BLKREFS
331
5F
102
}
 70
     0
280
     1
281
     0
  0
BLOCK_RECORD
  5
66
330
1
100
AcDbSymbolTableRecord
100
AcDbBlockTableRecord
  2
block 6
340
0
102
{BLKREFS
331
67
102
}
 70
     0
280
     1
281
     0
  0
BLOCK_RECORD
  5
6D
330
1
100
AcDbSymbolTableRecord
100
AcDbBlockTableRecord
  2
block 7
340
0
102
{BLKREFS
331
6E
102
}
 70
     0
280
     1
281
     0
  0
BLOCK_RECORD
  5
73
330
1
100
AcDbSymbolTableRecord
100
AcDbBlockTableRecord
  2
block 8
340
0
102
{BLKREFS
331
74
102
}
 70
     0
280
     1
281
     0
  0
BLOCK_RECORD
  5
78
330
1
100
AcDbSymbolTableRecord
100
AcDbBlockTableRecord
  2
block 9
340
0
102
{BLKREFS
331
79
102
}
 70
     0
280
     1
281
     0
  0
BLOCK_RECORD
  5
7F
330
1
100
AcDbSymbolTableRecord
100
AcDbBlockTableRecord
  2
block 10
340
0
102
{BLKREFS
331
80
102
}
 70
     0
280
     1
281
     0
  0
BLOCK_RECORD
  5
86
330
1
100
AcDbSymbolTableRecord
100
AcDbBlockTableRecord
  2
block 11
340
0
102
{BLKREFS
331
87
102
}
 70
     0
280
     1
281
     0
  0
BLOCK_RECORD
  5
8D
330
1
100
AcDbSymbolTableRecord
100
AcDbBlockTableRecord
  2
block 12
340
0
102
{BLKREFS
331
8E
102
}
 70
     0
280
     1
281
     0
  0
BLOCK_RECORD
  5
93
330
1
100
AcDbSymbolTableRecord
100
AcDbBlockTableRecord
  2
block 13
340
0
102
{BLKREFS
331
94
102
}
 70
     0
280
     1
281
     0
  0
BLOCK_RECORD
  5
98
330
1
100
AcDbSymbolTableRecord
100
AcDbBlockTableRecord
  2
block 14
340
0
102
{BLKREFS
331
99
102
}
 70
     0
280
     1
281
     0
  0
BLOCK_RECORD
  5
9F
330
1
100
AcDbSymbolTableRecord
100
AcDbBlockTableRecord
  2
block 15
340
0
102
{BLKREFS
331
A0
102
}
 70
     0
280
     1
281
     0
  0
BLOCK_RECORD
  5
A6
330
1
100
AcDbSymbolTableRecord
100
AcDbBlockTableRecord
  2
block 16
340
0
102
{BLKREFS
331
A7
102
}
 70
     0
280
     1
281
     0
  0
BLOCK_RECORD
  5
AD
330
1
100
AcDbSymbolTableRecord
100
AcDbBlockTableRecord
  2
block 17
340
0
102
{BLKREFS
331
AE
102
}
 70
     0
280
     1
281
     0
  0
BLOCK_RECORD
  5
B3
330
1
100
AcDbSymbolTableRecord
100
AcDbBlockTableRecord
  2
block 18
340
0
102
{BLKREFS
331
B4
102
}
 70
     0
280
     1
281
     0
  0
BLOCK_RECORD
  5
B8
330
1
100
AcDbSymbolTableRecord
100
AcDbBlockTableRecord
  2
block 19
340
0
102
{BLKREFS
331
B9
102
}
 70
     0
280
     1
281
     0
  0
BLOCK_RECORD
  5
BF
330
1
100
AcDbSymbolTableRecord
100
AcDbBlockTableRecord
  2
block 20
340
0
102
{BLKREFS
331
C0
102
}
 70
     0
280
     1
281
     0
  0
ENDTAB
  0
ENDSEC
  0
SECTION
  2
BLOCKS
  0
BLOCK
  5
20
330
1F
100
AcDbEntity
  8
0
100
AcDbBlockBegin
  2
*Model_Space
 70
     0
 10
0.0
 20
0.0
 30
0.0
  3
*Model_Space
  1

  0
ENDBLK
  5
21
330
1F
100
AcDbEntity
  8
0
100
AcDbBlockEnd
  0
BLOCK
  5
1C
330
1B
100
AcDbEntity
 67
     1
  8
0
100
AcDbBlockBegin
  2
*Paper_Space
 70
     0
 10
0.0
 20
0.0
 30
0.0
  3
*Paper_Space
  1

  0
ENDBLK
  5
1D
330
1B
100
AcDbEntity
 67
     1
  8
0
100
AcDbBlockEnd
  0
BLOCK
  5
24
330
23
100
AcDbEntity
  8
0
100
AcDbBlockBegin
  2
*Paper_Space0
 70
     0
 10
0.0
 20
0.0
 30
0.0
  3
*Paper_Space0
  1

  0
ENDBLK
  5
25
330
23
100
AcDbEntity
  8
0
100
AcDbBlockEnd
  0
BLOCK
  5
45
330
43
100
AcDbEntity
  8
0
100
AcDbBlockBegin
  2
block 2
 70
     0
 10
0.0
 20
0.0
 30
0.0
  3
block 2
  1

  0
SPLINE
  5
47
330
43
100
AcDbEntity
  8
OneCircle
 62
     7
420
 16777215
370
    35
100
AcDbSpline
210
0.0
220
0.0
230
1.0
 70
     8
 71
     3
 72
    17
 73
    13
 74
     0
 42
0.0000000001
 43
0.0000000001
 12
1.0
 22
0.0
 32
0.0
 13
1.0
 23
0.0
 33
0.0
 40
0.0
 40
0.0
 40
0.0
 40
0.0
 40
1.0
 40
1.0
 40
1.0
 40
2.0
 40
2.0
 40
2.0
 40
3.0
 40
3.0
 40
3.0
 40
4.0
 40
4.0
 40
4.0
 40
4.0
 10
327.2656196682616
 20
-21.60944839510929
 30
0.0
 10
327.2656196682616
 20
-21.60944839510929
 30
0.0
 10
356.2104556053982
 20
-21.60944839510929
 30
0.0
 10
356.2104556053982
 20
-21.60944839510929
 30
0.0
 10
349.282124778699
 20
-9.700979296207201
 30
0.0
 10
336.3912223097417
 20
-1.68954987143776
 30
0.0
 10
321.6212011337102
 20
-1.68954987143776
 30
0.0
 10
306.8512144084749
 20
-1.68954987143776
 30
0.0
 10
294.0605522427252
 20
-9.700976719180115
 30
0.0
 10
287.1322214160253
 20
-21.60944581808189
 30
0.0
 10
287.1322214160253
 20
-21.60944581808189
 30
0.0
 10
315.9767825991588
 20
-21.60944839510929
 30
0.0
 10
315.9767825991588
 20
-21.60944839510929
 30
0.0
  0
SPLINE
  5
48
330
43
100
AcDbEntity
  8
OneCircle
 62
     7
420
 16777215
370
    35
100
AcDbSpline
210
0.0
220
0.0
230
1.0
 70
    27
 71
     3
 72
    11
 73
     7
 74
     0
 42
0.0000000001
 43
0.0000000001
 12
1.0
 22
0.0
 32
0.0
 13
1.0
 23
0.0
 33
0.0
 40
0.0
 40
0.0
 40
0.0
 40
0.0
 40
1.0
 40
1.0
 40
1.0
 40
2.0
 40
2.0
 40
2.0
 40
2.0
 10
338.1736031796276
 20
-43.81756883690213
 30
0.0
 10
338.1736031796276
 20
-43.81756883690213
 30
0.0
 10
332.5291846450762
 20
-53.59398147921387
 30
0.0
 10
332.5291846450762
 20
-53.59398147921387
 30
0.0
 10
332.5291846450762
 20
-53.59398147921387
 30
0.0
 10
338.1736031796276
 20
-43.81756883690213
 30
0.0
 10
338.1736031796276
 20
-43.81756883690213
 30
0.0
  0
SPLINE
  5
49
330
43
100
AcDbEntity
  8
OneCircle
 62
     7
420
 16777215
370
    35
100
AcDbSpline
210
0.0
220
0.0
230
1.0
 70
     8
 71
     3
 72
    20
 73
    16
 74
     0
 42
0.0000000001
 43
0.0000000001
 12
1.0
 22
0.0
 32
0.0
 13
1.0
 23
0.0
 33
0.0
 40
0.0
 40
0.0
 40
0.0
 40
0.0
 40
1.0
 40
1.0
 40
1.0
 40
2.0
 40
2.0
 40
2.0
 40
3.0
 40
3.0
 40
3.0
 40
4.0
 40
4.0
 40
4.0
 40
5.0
 40
5.0
 40
5.0
 40
5.0
 10
267.079758762914
 20
-107.1743316092056
 30
0.0
 10
267.079758762914
 20
-107.1743316092056
 30
0.0
 10
252.3413056962327
 20
-81.64556270730276
 30
0.0
 10
252.3413056962327
 20
-81.64556270730276
 30
0.0
 10
248.9230976457059
 20
-87.53837148620286
 30
0.0
 10
246.9699674477239
 20
-94.40228438893102
 30
0.0
 10
246.9699674477239
 20
-101.7050953759738
 30
0.0
 10
246.9699674477239
 20
-123.7963587152938
 30
0.0
 10
264.8785251065109
 20
-141.7048819232839
 30
0.0
 10
286.9697884458309
 20
-141.7048819232839
 30
0.0
 10
286.9697884458309
 20
-141.7048819232839
 30
0.0
 10
286.9697884458309
 20
-141.7048945371581
 30
0.0
 10
286.9697884458309
 20
-141.7048945371581
 30
0.0
 10
286.9697884458309
 20
-141.7048945371581
 30
0.0
 10
272.7241772974648
 20
-116.9507442515173
 30
0.0
 10
272.7241772974648
 20
-116.9507442515173
 30
0.0
  0
SPLINE
  5
4A
330
43
100
AcDbEntity
  8
OneCircle
 62
     7
420
 16777215
370
    35
100
AcDbSpline
210
0.0
220
0.0
230
1.0
 70
     8
 71
     3
 72
    17
 73
    13
 74
     0
 42
0.0000000001
 43
0.0000000001
 12
1.0
 22
0.0
 32
0.0
 13
1.0
 23
0.0
 33
0.0
 40
0.0
 40
0.0
 40
0.0
 40
0.0
 40
1.0
 40
1.0
 40
1.0
 40
2.0
 40
2.0
 40
2.0
 40
3.0
 40
3.0
 40
3.0
 40
4.0
 40
4.0
 40
4.0
 40
4.0
 10
307.4721465896416
 20
-106.1137982829871
 30
0.0
 10
307.4721465896416
 20
-106.1137982829871
 30
0.0
 10
321.605055153918
 20
-81.66336559900967
 30
0.0
 10
321.605055153918
 20
-81.66336559900967
 30
0.0
 10
325.0232632044442
 20
-87.55617437790977
 30
0.0
 10
326.9696094439373
 20
-94.40228438893102
 30
0.0
 10
326.9696094439373
 20
-101.7050953759738
 30
0.0
 10
326.9696094439373
 20
-123.7963587152938
 30
0.0
 10
309.0635199405951
 20
-141.7048945371581
 30
0.0
 10
286.9722221504789
 20
-141.7048945371581
 30
0.0
 10
286.9722221504789
 20
-141.7048945371581
 30
0.0
 10
301.8277280550909
 20
-115.8902109252989
 30
0.0
 10
301.8277280550909
 20
-115.8902109252989
 30
0.0
  0
SPLINE
  5
4B
330
43
100
AcDbEntity
  8
OneCircle
 62
     7
420
 16777215
370
    35
100
AcDbSpline
210
0.0
220
0.0
230
1.0
 70
     8
 71
     3
 72
    17
 73
    13
 74
     0
 42
0.0000000001
 43
0.0000000001
 12
1.0
 22
0.0
 32
0.0
 13
1.0
 23
0.0
 33
0.0
 40
0.0
 40
0.0
 40
0.0
 40
0.0
 40
1.0
 40
1.0
 40
1.0
 40
2.0
 40
2.0
 40
2.0
 40
3.0
 40
3.0
 40
3.0
 40
4.0
 40
4.0
 40
4.0
 40
4.0
 10
336.4791407429707
 20
-55.87448641886922
 30
0.0
 10
336.4791407429707
 20
-55.87448641886922
 30
0.0
 10
321.6120631412597
 20
-81.64917021434242
 30
0.0
 10
321.6120631412597
 20
-81.64917021434242
 30
0.0
 10
343.7033609313759
 20
-81.64917021434242
 30
0.0
 10
361.6210221318171
 20
-63.78063420886411
 30
0.0
 10
361.6210221318171
 20
-41.68937086954475
 30
0.0
 10
361.6210221318171
 20
-34.38655988250105
 30
0.0
 10
359.6285123735239
 20
-27.50225459698232
 30
0.0
 10
356.2103043229984
 20
-21.60944581808189
 30
0.0
 10
356.2103043229984
 20
-21.60944581808189
 30
0.0
 10
342.1235592775215
 20
-46.0980737765578
 30
0.0
 10
342.1235592775215
 20
-46.0980737765578
 30
0.0
  0
ENDBLK
  5
46
330
43
100
AcDbEntity
  8
0
100
AcDbBlockEnd
  0
BLOCK
  5
4E
330
4C
100
AcDbEntity
  8
0
100
AcDbBlockBegin
  2
block 3
 70
     0
 10
0.0
 20
0.0
 30
0.0
  3
block 3
  1

  0
SPLINE
  5
50
330
4C
100
AcDbEntity
  8
OneCircle
 62
     7
420
 16777215
370
    35
100
AcDbSpline
210
0.0
220
0.0
230
1.0
 70
     8
 71
     3
 72
    17
 73
    13
 74
     0
 42
0.0000000001
 43
0.0000000001
 12
1.0
 22
0.0
 32
0.0
 13
1.0
 23
0.0
 33
0.0
 40
0.0
 40
0.0
 40
0.0
 40
0.0
 40
1.0
 40
1.0
 40
1.0
 40
2.0
 40
2.0
 40
2.0
 40
3.0
 40
3.0
 40
3.0
 40
4.0
 40
4.0
 40
4.0
 40
4.0
 10
257.967661701799
 20
-21.60944839510929
 30
0.0
 10
257.967661701799
 20
-21.60944839510929
 30
0.0
 10
286.9124976389363
 20
-21.60944839510929
 30
0.0
 10
286.9124976389363
 20
-21.60944839510929
 30
0.0
 10
279.984166812237
 20
-9.700979296207201
 30
0.0
 10
267.0932643432791
 20
-1.68954987143776
 30
0.0
 10
252.3232431672476
 20
-1.68954987143776
 30
0.0
 10
237.5532564420136
 20
-1.68954987143776
 30
0.0
 10
224.636870922172
 20
-9.74577651353271
 30
0.0
 10
217.7085400954721
 20
-21.6542456124348
 30
0.0
 10
217.7085400954721
 20
-21.6542456124348
 30
0.0
 10
246.6788246326962
 20
-21.60944839510929
 30
0.0
 10
246.6788246326962
 20
-21.60944839510929
 30
0.0
  0
SPLINE
  5
51
330
4C
100
AcDbEntity
  8
OneCircle
 62
     7
420
 16777215
370
    35
100
AcDbSpline
210
0.0
220
0.0
230
1.0
 70
     8
 71
     3
 72
    17
 73
    13
 74
     0
 42
0.0000000001
 43
0.0000000001
 12
1.0
 22
0.0
 32
0.0
 13
1.0
 23
0.0
 33
0.0
 40
0.0
 40
0.0
 40
0.0
 40
0.0
 40
1.0
 40
1.0
 40
1.0
 40
2.0
 40
2.0
 40
2.0
 40
3.0
 40
3.0
 40
3.0
 40
4.0
 40
4.0
 40
4.0
 40
4.0
 10
238.0776320188828
 20
-56.93501974508734
 30
0.0
 10
238.0776320188828
 20
-56.93501974508734
 30
0.0
 10
252.3413056962327
 20
-81.64556270730276
 30
0.0
 10
252.3413056962327
 20
-81.64556270730276
 30
0.0
 10
230.2500423569134
 20
-81.64556270730276
 30
0.0
 10
212.3234221691413
 20
-63.78063420886411
 30
0.0
 10
212.3234221691413
 20
-41.68937086954475
 30
0.0
 10
212.3234221691413
 20
-34.38655988250105
 30
0.0
 10
214.2900458998841
 20
-27.5470432097452
 30
0.0
 10
217.7082539504096
 20
-21.65423443084476
 30
0.0
 10
217.7082539504096
 20
-21.65423443084476
 30
0.0
 10
232.4332134843327
 20
-47.15860710277624
 30
0.0
 10
232.4332134843327
 20
-47.15860710277624
 30
0.0
  0
SPLINE
  5
52
330
4C
100
AcDbEntity
  8
OneCircle
 62
     7
420
 16777215
370
    35
100
AcDbSpline
210
0.0
220
0.0
230
1.0
 70
    27
 71
     3
 72
    11
 73
     7
 74
     0
 42
0.0000000001
 43
0.0000000001
 12
1.0
 22
0.0
 32
0.0
 13
1.0
 23
0.0
 33
0.0
 40
0.0
 40
0.0
 40
0.0
 40
0.0
 40
1.0
 40
1.0
 40
1.0
 40
2.0
 40
2.0
 40
2.0
 40
2.0
 10
242.3326154709331
 20
-54.47840233260118
 30
0.0
 10
242.3326154709331
 20
-54.47840233260118
 30
0.0
 10
236.6881969363823
 20
-44.70198969029008
 30
0.0
 10
236.6881969363823
 20
-44.70198969029008
 30
0.0
 10
236.6881969363823
 20
-44.70198969029008
 30
0.0
 10
242.3326154709331
 20
-54.47840233260118
 30
0.0
 10
242.3326154709331
 20
-54.47840233260118
 30
0.0
  0
ENDBLK
  5
4F
330
4C
100
AcDbEntity
  8
0
100
AcDbBlockEnd
  0
BLOCK
  5
57
330
55
100
AcDbEntity
  8
0
100
AcDbBlockBegin
  2
block 4
 70
     0
 10
0.0
 20
0.0
 30
0.0
  3
block 4
  1

  0
SPLINE
  5
59
330
55
100
AcDbEntity
  8
OneCircle
 62
     7
420
 16777215
370
    35
100
AcDbSpline
210
0.0
220
0.0
230
1.0
 70
     8
 71
     3
 72
    17
 73
    13
 74
     0
 42
0.0000000001
 43
0.0000000001
 12
1.0
 22
0.0
 32
0.0
 13
1.0
 23
0.0
 33
0.0
 40
0.0
 40
0.0
 40
0.0
 40
0.0
 40
1.0
 40
1.0
 40
1.0
 40
2.0
 40
2.0
 40
2.0
 40
3.0
 40
3.0
 40
3.0
 40
4.0
 40
4.0
 40
4.0
 40
4.0
 10
129.5566024397555
 20
-129.8988849003469
 30
0.0
 10
129.5566024397555
 20
-129.8988849003469
 30
0.0
 10
100.6117665026179
 20
-129.8988849003469
 30
0.0
 10
100.6117665026179
 20
-129.8988849003469
 30
0.0
 10
107.5400973293178
 20
-141.807353999249
 30
0.0
 10
120.4309997982751
 20
-149.8187834240184
 30
0.0
 10
135.2010209743066
 20
-149.8187834240184
 30
0.0
 10
149.9710076995419
 20
-149.8187834240184
 30
0.0
 10
162.7616698652915
 20
-141.8073565762761
 30
0.0
 10
169.6900006919914
 20
-129.8988874773743
 30
0.0
 10
169.6900006919914
 20
-129.8988874773743
 30
0.0
 10
140.845439508858
 20
-129.8988849003469
 30
0.0
 10
140.845439508858
 20
-129.8988849003469
 30
0.0
  0
SPLINE
  5
5A
330
55
100
AcDbEntity
  8
OneCircle
 62
     7
420
 16777215
370
    35
100
AcDbSpline
210
0.0
220
0.0
230
1.0
 70
    27
 71
     3
 72
    11
 73
     7
 74
     0
 42
0.0000000001
 43
0.0000000001
 12
1.0
 22
0.0
 32
0.0
 13
1.0
 23
0.0
 33
0.0
 40
0.0
 40
0.0
 40
0.0
 40
0.0
 40
1.0
 40
1.0
 40
1.0
 40
2.0
 40
2.0
 40
2.0
 40
2.0
 10
118.6486189283892
 20
-107.6907644585538
 30
0.0
 10
118.6486189283892
 20
-107.6907644585538
 30
0.0
 10
124.2930374629406
 20
-97.91435181624236
 30
0.0
 10
124.2930374629406
 20
-97.91435181624236
 30
0.0
 10
124.2930374629406
 20
-97.91435181624236
 30
0.0
 10
118.6486189283892
 20
-107.6907644585538
 30
0.0
 10
118.6486189283892
 20
-107.6907644585538
 30
0.0
  0
SPLINE
  5
5B
330
55
100
AcDbEntity
  8
OneCircle
 62
     7
420
 16777215
370
    35
100
AcDbSpline
210
0.0
220
0.0
230
1.0
 70
     8
 71
     3
 72
    20
 73
    16
 74
     0
 42
0.0000000001
 43
0.0000000001
 12
1.0
 22
0.0
 32
0.0
 13
1.0
 23
0.0
 33
0.0
 40
0.0
 40
0.0
 40
0.0
 40
0.0
 40
1.0
 40
1.0
 40
1.0
 40
2.0
 40
2.0
 40
2.0
 40
3.0
 40
3.0
 40
3.0
 40
4.0
 40
4.0
 40
4.0
 40
5.0
 40
5.0
 40
5.0
 40
5.0
 10
189.7424633451027
 20
-44.33400168625064
 30
0.0
 10
189.7424633451027
 20
-44.33400168625064
 30
0.0
 10
204.4809164117841
 20
-69.86277058815347
 30
0.0
 10
204.4809164117841
 20
-69.86277058815347
 30
0.0
 10
207.8991244623109
 20
-63.96996180925367
 30
0.0
 10
209.8522546602929
 20
-57.1060489065252
 30
0.0
 10
209.8522546602929
 20
-49.80323791948246
 30
0.0
 10
209.8522546602929
 20
-27.71197458016245
 30
0.0
 10
191.9436970015059
 20
-9.803451372172345
 30
0.0
 10
169.8524336621859
 20
-9.803451372172345
 30
0.0
 10
169.8524336621859
 20
-9.803451372172345
 30
0.0
 10
169.8524336621859
 20
-9.803438758298178
 30
0.0
 10
169.8524336621859
 20
-9.803438758298178
 30
0.0
 10
169.8524336621859
 20
-9.803438758298178
 30
0.0
 10
184.098044810552
 20
-34.5575890439389
 30
0.0
 10
184.098044810552
 20
-34.5575890439389
 30
0.0
  0
SPLINE
  5
5C
330
55
100
AcDbEntity
  8
OneCircle
 62
     7
420
 16777215
370
    35
100
AcDbSpline
210
0.0
220
0.0
230
1.0
 70
     8
 71
     3
 72
    17
 73
    13
 74
     0
 42
0.0000000001
 43
0.0000000001
 12
1.0
 22
0.0
 32
0.0
 13
1.0
 23
0.0
 33
0.0
 40
0.0
 40
0.0
 40
0.0
 40
0.0
 40
1.0
 40
1.0
 40
1.0
 40
2.0
 40
2.0
 40
2.0
 40
3.0
 40
3.0
 40
3.0
 40
4.0
 40
4.0
 40
4.0
 40
4.0
 10
149.3500755183752
 20
-45.39453501246908
 30
0.0
 10
149.3500755183752
 20
-45.39453501246908
 30
0.0
 10
135.2171669540987
 20
-69.84496769644656
 30
0.0
 10
135.2171669540987
 20
-69.84496769644656
 30
0.0
 10
131.7989589035726
 20
-63.95215891754644
 30
0.0
 10
129.8526126640795
 20
-57.1060489065252
 30
0.0
 10
129.8526126640795
 20
-49.80323791948246
 30
0.0
 10
129.8526126640795
 20
-27.71197458016245
 30
0.0
 10
147.7587021674216
 20
-9.803438758298178
 30
0.0
 10
169.8499999575379
 20
-9.803438758298178
 30
0.0
 10
169.8499999575379
 20
-9.803438758298178
 30
0.0
 10
154.9944940529259
 20
-35.61812237015734
 30
0.0
 10
154.9944940529259
 20
-35.61812237015734
 30
0.0
  0
SPLINE
  5
5D
330
55
100
AcDbEntity
  8
OneCircle
 62
     7
420
 16777215
370
    35
100
AcDbSpline
210
0.0
220
0.0
230
1.0
 70
     8
 71
     3
 72
    17
 73
    13
 74
     0
 42
0.0000000001
 43
0.0000000001
 12
1.0
 22
0.0
 32
0.0
 13
1.0
 23
0.0
 33
0.0
 40
0.0
 40
0.0
 40
0.0
 40
0.0
 40
1.0
 40
1.0
 40
1.0
 40
2.0
 40
2.0
 40
2.0
 40
3.0
 40
3.0
 40
3.0
 40
4.0
 40
4.0
 40
4.0
 40
4.0
 10
120.343081365046
 20
-95.633846876587
 30
0.0
 10
120.343081365046
 20
-95.633846876587
 30
0.0
 10
135.2101589667571
 20
-69.8591630811138
 30
0.0
 10
135.2101589667571
 20
-69.8591630811138
 30
0.0
 10
113.1188611766408
 20
-69.8591630811138
 30
0.0
 10
95.20119997619962
 20
-87.7276990865921
 30
0.0
 10
95.20119997619962
 20
-109.8189624259115
 30
0.0
 10
95.20119997619962
 20
-117.1217734129555
 30
0.0
 10
97.19370973449224
 20
-124.0060786984739
 30
0.0
 10
100.6119177850184
 20
-129.8988874773743
 30
0.0
 10
100.6119177850184
 20
-129.8988874773743
 30
0.0
 10
114.6986628304953
 20
-105.4102595188984
 30
0.0
 10
114.6986628304953
 20
-105.4102595188984
 30
0.0
  0
ENDBLK
  5
58
330
55
100
AcDbEntity
  8
0
100
AcDbBlockEnd
  0
BLOCK
  5
60
330
5E
100
AcDbEntity
  8
0
100
AcDbBlockBegin
  2
block 5
 70
     0
 10
0.0
 20
0.0
 30
0.0
  3
block 5
  1

  0
SPLINE
  5
62
330
5E
100
AcDbEntity
  8
OneCircle
 62
     7
420
 16777215
370
    35
100
AcDbSpline
210
0.0
220
0.0
230
1.0
 70
     8
 71
     3
 72
    17
 73
    13
 74
     0
 42
0.0000000001
 43
0.0000000001
 12
1.0
 22
0.0
 32
0.0
 13
1.0
 23
0.0
 33
0.0
 40
0.0
 40
0.0
 40
0.0
 40
0.0
 40
1.0
 40
1.0
 40
1.0
 40
2.0
 40
2.0
 40
2.0
 40
3.0
 40
3.0
 40
3.0
 40
4.0
 40
4.0
 40
4.0
 40
4.0
 10
198.8545604062177
 20
-129.8988849003469
 30
0.0
 10
198.8545604062177
 20
-129.8988849003469
 30
0.0
 10
169.9097244690805
 20
-129.8988849003469
 30
0.0
 10
169.9097244690805
 20
-129.8988849003469
 30
0.0
 10
176.8380552957797
 20
-141.807353999249
 30
0.0
 10
189.7289577647376
 20
-149.8187834240184
 30
0.0
 10
204.4989789407691
 20
-149.8187834240184
 30
0.0
 10
219.2689656660035
 20
-149.8187834240184
 30
0.0
 10
232.1853511858448
 20
-141.7625567819235
 30
0.0
 10
239.1136820125447
 20
-129.8540876830214
 30
0.0
 10
239.1136820125447
 20
-129.8540876830214
 30
0.0
 10
210.1433974753205
 20
-129.8988849003469
 30
0.0
 10
210.1433974753205
 20
-129.8988849003469
 30
0.0
  0
SPLINE
  5
63
330
5E
100
AcDbEntity
  8
OneCircle
 62
     7
420
 16777215
370
    35
100
AcDbSpline
210
0.0
220
0.0
230
1.0
 70
     8
 71
     3
 72
    17
 73
    13
 74
     0
 42
0.0000000001
 43
0.0000000001
 12
1.0
 22
0.0
 32
0.0
 13
1.0
 23
0.0
 33
0.0
 40
0.0
 40
0.0
 40
0.0
 40
0.0
 40
1.0
 40
1.0
 40
1.0
 40
2.0
 40
2.0
 40
2.0
 40
3.0
 40
3.0
 40
3.0
 40
4.0
 40
4.0
 40
4.0
 40
4.0
 10
218.744590089134
 20
-94.57331355036888
 30
0.0
 10
218.744590089134
 20
-94.57331355036888
 30
0.0
 10
204.4809164117841
 20
-69.86277058815347
 30
0.0
 10
204.4809164117841
 20
-69.86277058815347
 30
0.0
 10
226.5721797511034
 20
-69.86277058815347
 30
0.0
 10
244.4987999388755
 20
-87.7276990865921
 30
0.0
 10
244.4987999388755
 20
-109.8189624259115
 30
0.0
 10
244.4987999388755
 20
-117.1217734129555
 30
0.0
 10
242.5321762081327
 20
-123.961290085711
 30
0.0
 10
239.1139681576071
 20
-129.8540988646114
 30
0.0
 10
239.1139681576071
 20
-129.8540988646114
 30
0.0
 10
224.3890086236841
 20
-104.34972619268
 30
0.0
 10
224.3890086236841
 20
-104.34972619268
 30
0.0
  0
SPLINE
  5
64
330
5E
100
AcDbEntity
  8
OneCircle
 62
     7
420
 16777215
370
    35
100
AcDbSpline
210
0.0
220
0.0
230
1.0
 70
    27
 71
     3
 72
    11
 73
     7
 74
     0
 42
0.0000000001
 43
0.0000000001
 12
1.0
 22
0.0
 32
0.0
 13
1.0
 23
0.0
 33
0.0
 40
0.0
 40
0.0
 40
0.0
 40
0.0
 40
1.0
 40
1.0
 40
1.0
 40
2.0
 40
2.0
 40
2.0
 40
2.0
 10
214.489606637084
 20
-97.02993096285503
 30
0.0
 10
214.489606637084
 20
-97.02993096285503
 30
0.0
 10
220.1340251716344
 20
-106.8063436051665
 30
0.0
 10
220.1340251716344
 20
-106.8063436051665
 30
0.0
 10
220.1340251716344
 20
-106.8063436051665
 30
0.0
 10
214.489606637084
 20
-97.02993096285503
 30
0.0
 10
214.489606637084
 20
-97.02993096285503
 30
0.0
  0
ENDBLK
  5
61
330
5E
100
AcDbEntity
  8
0
100
AcDbBlockEnd
  0
BLOCK
  5
68
330
66
100
AcDbEntity
  8
0
100
AcDbBlockBegin
  2
block 6
 70
     0
 10
0.0
 20
0.0
 30
0.0
  3
block 6
  1

  0
SPLINE
  5
6A
330
66
100
AcDbEntity
  8
OneCircle
 62
     7
420
 16777215
370
    35
100
AcDbSpline
210
0.0
220
0.0
230
1.0
 70
     8
 71
     3
 72
    20
 73
    16
 74
     0
 42
0.0000000001
 43
0.0000000001
 12
1.0
 22
0.0
 32
0.0
 13
1.0
 23
0.0
 33
0.0
 40
0.0
 40
0.0
 40
0.0
 40
0.0
 40
1.0
 40
1.0
 40
1.0
 40
2.0
 40
2.0
 40
2.0
 40
3.0
 40
3.0
 40
3.0
 40
4.0
 40
4.0
 40
4.0
 40
5.0
 40
5.0
 40
5.0
 40
5.0
 10
55.34374236855376
 20
-364.6340072166306
 30
0.0
 10
55.34374236855376
 20
-364.6340072166306
 30
0.0
 10
70.08306988909737
 20
-339.1057431807093
 30
0.0
 10
70.08306988909737
 20
-339.1057431807093
 30
0.0
 10
63.2706437571369
 20
-339.0918947892486
 30
0.0
 10
56.3497562838046
 20
-340.8323931339725
 30
0.0
 10
50.02533764325065
 20
-344.483800694282
 30
0.0
 10
30.8937459993645
 20
-355.5294386160478
 30
0.0
 10
24.33879678093211
 20
-379.9929682398188
 30
0.0
 10
35.38443470269923
 20
-399.1245598837017
 30
0.0
 10
35.38443470269923
 20
-399.1245598837017
 30
0.0
 10
35.38442377876547
 20
-399.1245661906452
 30
0.0
 10
35.38442377876547
 20
-399.1245661906452
 30
0.0
 10
35.38442377876547
 20
-399.1245661906452
 30
0.0
 10
49.69933312459099
 20
-374.4104252228641
 30
0.0
 10
49.69933312459099
 20
-374.4104252228641
 30
0.0
  0
SPLINE
  5
6B
330
66
100
AcDbEntity
  8
OneCircle
 62
     7
420
 16777215
370
    35
100
AcDbSpline
210
0.0
220
0.0
230
1.0
 70
     8
 71
     3
 72
    17
 73
    13
 74
     0
 42
0.0000000001
 43
0.0000000001
 12
1.0
 22
0.0
 32
0.0
 13
1.0
 23
0.0
 33
0.0
 40
0.0
 40
0.0
 40
0.0
 40
0.0
 40
1.0
 40
1.0
 40
1.0
 40
2.0
 40
2.0
 40
2.0
 40
3.0
 40
3.0
 40
3.0
 40
4.0
 40
4.0
 40
4.0
 40
4.0
 10
76.45839634225088
 20
-399.0845676308211
 30
0.0
 10
76.45839634225088
 20
-399.0845676308211
 30
0.0
 10
104.6995464668879
 20
-399.0987999057924
 30
0.0
 10
104.6995464668879
 20
-399.0987999057924
 30
0.0
 10
101.3053303202449
 20
-405.0054604116327
 30
0.0
 10
96.34959992282222
 20
-410.1141023246124
 30
0.0
 10
90.02518128226826
 20
-413.7655098849199
 30
0.0
 10
70.89358963838212
 20
-424.811147806689
 30
0.0
 10
46.43129577895319
 20
-418.2582953194427
 30
0.0
 10
35.38564063177866
 20
-399.1266738402967
 30
0.0
 10
35.38564063177866
 20
-399.1266738402967
 30
0.0
 10
65.16956536885323
 20
-399.0845678005954
 30
0.0
 10
65.16956536885323
 20
-399.0845678005954
 30
0.0
  0
SPLINE
  5
6C
330
66
100
AcDbEntity
  8
OneCircle
 62
     7
420
 16777215
370
    35
100
AcDbSpline
210
0.0
220
0.0
230
1.0
 70
     8
 71
     3
 72
    17
 73
    13
 74
     0
 42
0.0000000001
 43
0.0000000001
 12
1.0
 22
0.0
 32
0.0
 13
1.0
 23
0.0
 33
0.0
 40
0.0
 40
0.0
 40
0.0
 40
0.0
 40
1.0
 40
1.0
 40
1.0
 40
2.0
 40
2.0
 40
2.0
 40
3.0
 40
3.0
 40
3.0
 40
4.0
 40
4.0
 40
4.0
 40
4.0
 10
134.4704137622593
 20
-399.0856865649386
 30
0.0
 10
134.4704137622593
 20
-399.0856865649386
 30
0.0
 10
104.7153440239606
 20
-399.0977713033638
 30
0.0
 10
104.7153440239606
 20
-399.0977713033638
 30
0.0
 10
115.7609991711352
 20
-418.2293927825097
 30
0.0
 10
140.1944380317875
 20
-424.8122665710347
 30
0.0
 10
159.326029675673
 20
-413.7666286492663
 30
0.0
 10
165.6504483162276
 20
-410.1152210889555
 30
0.0
 10
170.6161750129642
 20
-404.9475027554535
 30
0.0
 10
174.0103911596073
 20
-399.0408422496138
 30
0.0
 10
174.0103911596073
 20
-399.0408422496138
 30
0.0
 10
145.7592447356563
 20
-399.0856863951643
 30
0.0
 10
145.7592447356563
 20
-399.0856863951643
 30
0.0
  0
ENDBLK
  5
69
330
66
100
AcDbEntity
  8
0
100
AcDbBlockEnd
  0
BLOCK
  5
6F
330
6D
100
AcDbEntity
  8
0
100
AcDbBlockBegin
  2
block 7
 70
     0
 10
0.0
 20
0.0
 30
0.0
  3
block 7
  1

  0
SPLINE
  5
71
330
6D
100
AcDbEntity
  8
OneCircle
 62
     7
420
 16777215
370
    35
100
AcDbSpline
210
0.0
220
0.0
230
1.0
 70
     8
 71
     3
 72
    17
 73
    13
 74
     0
 42
0.0000000001
 43
0.0000000001
 12
1.0
 22
0.0
 32
0.0
 13
1.0
 23
0.0
 33
0.0
 40
0.0
 40
0.0
 40
0.0
 40
0.0
 40
1.0
 40
1.0
 40
1.0
 40
2.0
 40
2.0
 40
2.0
 40
3.0
 40
3.0
 40
3.0
 40
4.0
 40
4.0
 40
4.0
 40
4.0
 10
84.35118292256647
 20
-314.3977632809771
 30
0.0
 10
84.35118292256647
 20
-314.3977632809771
 30
0.0
 10
70.08306988909737
 20
-339.1057431807093
 30
0.0
 10
70.08306988909737
 20
-339.1057431807093
 30
0.0
 10
59.03743196733026
 20
-319.9741515368232
 30
0.0
 10
65.54559579733966
 20
-295.5167766741623
 30
0.0
 10
84.6771874412242
 20
-284.4711387523958
 30
0.0
 10
91.00160608177976
 20
-280.819731192086
 30
0.0
 10
97.90811257438529
 20
-279.1031167092057
 30
0.0
 10
104.7205387063457
 20
-279.1169651006649
 30
0.0
 10
104.7205387063457
 20
-279.1169651006649
 30
0.0
 10
89.99559216652924
 20
-304.6213452747448
 30
0.0
 10
89.99559216652924
 20
-304.6213452747448
 30
0.0
  0
SPLINE
  5
72
330
6D
100
AcDbEntity
  8
OneCircle
 62
     7
420
 16777215
370
    35
100
AcDbSpline
210
0.0
220
0.0
230
1.0
 70
    27
 71
     3
 72
    11
 73
     7
 74
     0
 42
0.0000000001
 43
0.0000000001
 12
1.0
 22
0.0
 32
0.0
 13
1.0
 23
0.0
 33
0.0
 40
0.0
 40
0.0
 40
0.0
 40
0.0
 40
1.0
 40
1.0
 40
1.0
 40
2.0
 40
2.0
 40
2.0
 40
2.0
 10
88.60616853799343
 20
-316.8543769463845
 30
0.0
 10
88.60616853799343
 20
-316.8543769463845
 30
0.0
 10
94.25057778195492
 20
-307.077958940151
 30
0.0
 10
94.25057778195492
 20
-307.077958940151
 30
0.0
 10
94.25057778195492
 20
-307.077958940151
 30
0.0
 10
88.60616853799343
 20
-316.8543769463845
 30
0.0
 10
88.60616853799343
 20
-316.8543769463845
 30
0.0
  0
ENDBLK
  5
70
330
6D
100
AcDbEntity
  8
0
100
AcDbBlockEnd
  0
BLOCK
  5
75
330
73
100
AcDbEntity
  8
0
100
AcDbBlockBegin
  2
block 8
 70
     0
 10
0.0
 20
0.0
 30
0.0
  3
block 8
  1

  0
SPLINE
  5
77
330
73
100
AcDbEntity
  8
OneCircle
 62
     7
420
 16777215
370
    35
100
AcDbSpline
210
0.0
220
0.0
230
1.0
 70
    27
 71
     3
 72
    11
 73
     7
 74
     0
 42
0.0000000001
 43
0.0000000001
 12
1.0
 22
0.0
 32
0.0
 13
1.0
 23
0.0
 33
0.0
 40
0.0
 40
0.0
 40
0.0
 40
0.0
 40
1.0
 40
1.0
 40
1.0
 40
2.0
 40
2.0
 40
2.0
 40
2.0
 10
214.7526141330179
 20
-284.0300296937919
 30
0.0
 10
214.7526141330179
 20
-284.0300296937919
 30
0.0
 10
203.4637831596203
 20
-284.0300298635672
 30
0.0
 10
203.4637831596203
 20
-284.0300298635672
 30
0.0
 10
203.4637831596203
 20
-284.0300298635672
 30
0.0
 10
214.7526141330179
 20
-284.0300296937919
 30
0.0
 10
214.7526141330179
 20
-284.0300296937919
 30
0.0
  0
INSERT
  5
79
330
73
100
AcDbEntity
  8
OneCircle
100
AcDbBlockReference
  2
block 9
 10
0.0
 20
0.0
 30
0.0
  0
INSERT
  5
80
330
73
100
AcDbEntity
  8
OneCircle
100
AcDbBlockReference
  2
block 10
 10
0.0
 20
0.0
 30
0.0
  0
ENDBLK
  5
76
330
73
100
AcDbEntity
  8
0
100
AcDbBlockEnd
  0
BLOCK
  5
7A
330
78
100
AcDbEntity
  8
0
100
AcDbBlockBegin
  2
block 9
 70
     0
 10
0.0
 20
0.0
 30
0.0
  3
block 9
  1

  0
SPLINE
  5
7C
330
78
100
AcDbEntity
  8
OneCircle
 62
     7
420
 16777215
370
    35
100
AcDbSpline
210
0.0
220
0.0
230
1.0
 70
     8
 71
     3
 72
    20
 73
    16
 74
     0
 42
0.0000000001
 43
0.0000000001
 12
1.0
 22
0.0
 32
0.0
 13
1.0
 23
0.0
 33
0.0
 40
0.0
 40
0.0
 40
0.0
 40
0.0
 40
1.0
 40
1.0
 40
1.0
 40
2.0
 40
2.0
 40
2.0
 40
3.0
 40
3.0
 40
3.0
 40
4.0
 40
4.0
 40
4.0
 40
5.0
 40
5.0
 40
5.0
 40
5.0
 10
203.4637829145682
 20
-279.1167973951656
 30
0.0
 10
203.4637829145682
 20
-279.1167973951656
 30
0.0
 10
173.9859939850065
 20
-279.1173167110782
 30
0.0
 10
173.9859939850065
 20
-279.1173167110782
 30
0.0
 10
177.3802101316476
 20
-273.2106562052385
 30
0.0
 10
182.3479663014769
 20
-268.0872377620857
 30
0.0
 10
188.6723849420309
 20
-264.4358302017763
 30
0.0
 10
207.803976585917
 20
-253.3901922800092
 30
0.0
 10
232.2674935998334
 20
-259.94518855911
 30
0.0
 10
243.3131315216006
 20
-279.0767802029958
 30
0.0
 10
243.3131315216006
 20
-279.0767802029958
 30
0.0
 10
243.313142445534
 20
-279.0767738960552
 30
0.0
 10
243.313142445534
 20
-279.0767738960552
 30
0.0
 10
243.313142445534
 20
-279.0767738960552
 30
0.0
 10
214.7526138879659
 20
-279.1167972253907
 30
0.0
 10
214.7526138879659
 20
-279.1167972253907
 30
0.0
  0
SPLINE
  5
7D
330
78
100
AcDbEntity
  8
OneCircle
 62
     7
420
 16777215
370
    35
100
AcDbSpline
210
0.0
220
0.0
230
1.0
 70
     8
 71
     3
 72
    17
 73
    13
 74
     0
 42
0.0000000001
 43
0.0000000001
 12
1.0
 22
0.0
 32
0.0
 13
1.0
 23
0.0
 33
0.0
 40
0.0
 40
0.0
 40
0.0
 40
0.0
 40
1.0
 40
1.0
 40
1.0
 40
2.0
 40
2.0
 40
2.0
 40
3.0
 40
3.0
 40
3.0
 40
4.0
 40
4.0
 40
4.0
 40
4.0
 10
222.7415396307127
 20
-314.6278917358641
 30
0.0
 10
222.7415396307127
 20
-314.6278917358641
 30
0.0
 10
208.6333060699369
 20
-339.0925705343794
 30
0.0
 10
208.6333060699369
 20
-339.0925705343794
 30
0.0
 10
215.4457322018971
 20
-339.1064189258382
 30
0.0
 10
222.3478099404939
 20
-337.3689469527251
 30
0.0
 10
228.6722285810485
 20
-333.7175393924156
 30
0.0
 10
247.803820224934
 20
-322.6719014706491
 30
0.0
 10
254.360014445722
 20
-298.210503024853
 30
0.0
 10
243.3143592985465
 20
-279.078881545708
 30
0.0
 10
243.3143592985465
 20
-279.078881545708
 30
0.0
 10
228.3859488746755
 20
-304.8514737296302
 30
0.0
 10
228.3859488746755
 20
-304.8514737296302
 30
0.0
  0
SPLINE
  5
7E
330
78
100
AcDbEntity
  8
OneCircle
 62
     7
420
 16777215
370
    35
100
AcDbSpline
210
0.0
220
0.0
230
1.0
 70
     8
 71
     3
 72
    17
 73
    13
 74
     0
 42
0.0000000001
 43
0.0000000001
 12
1.0
 22
0.0
 32
0.0
 13
1.0
 23
0.0
 33
0.0
 40
0.0
 40
0.0
 40
0.0
 40
0.0
 40
1.0
 40
1.0
 40
1.0
 40
2.0
 40
2.0
 40
2.0
 40
3.0
 40
3.0
 40
3.0
 40
4.0
 40
4.0
 40
4.0
 40
4.0
 10
193.7365327827267
 20
-364.8683509708221
 30
0.0
 10
193.7365327827267
 20
-364.8683509708221
 30
0.0
 10
208.6245165041719
 20
-339.1057373246518
 30
0.0
 10
208.6245165041719
 20
-339.1057373246518
 30
0.0
 10
219.6701716513464
 20
-358.237358803797
 30
0.0
 10
213.1544041329852
 20
-382.6887787118418
 30
0.0
 10
194.0228124890997
 20
-393.7344166336103
 30
0.0
 10
187.6983938485451
 20
-397.3858241939178
 30
0.0
 10
180.7401562657041
 20
-399.1024150426253
 30
0.0
 10
173.9277301337443
 20
-399.0885666511645
 30
0.0
 10
173.9277301337443
 20
-399.0885666511645
 30
0.0
 10
188.0921235387639
 20
-374.644768977055
 30
0.0
 10
188.0921235387639
 20
-374.644768977055
 30
0.0
  0
ENDBLK
  5
7B
330
78
100
AcDbEntity
  8
0
100
AcDbBlockEnd
  0
BLOCK
  5
81
330
7F
100
AcDbEntity
  8
0
100
AcDbBlockBegin
  2
block 10
 70
     0
 10
0.0
 20
0.0
 30
0.0
  3
block 10
  1

  0
SPLINE
  5
83
330
7F
100
AcDbEntity
  8
OneCircle
 62
     7
420
 16777215
370
    35
100
AcDbSpline
210
0.0
220
0.0
230
1.0
 70
     8
 71
     3
 72
    17
 73
    13
 74
     0
 42
0.0000000001
 43
0.0000000001
 12
1.0
 22
0.0
 32
0.0
 13
1.0
 23
0.0
 33
0.0
 40
0.0
 40
0.0
 40
0.0
 40
0.0
 40
1.0
 40
1.0
 40
1.0
 40
2.0
 40
2.0
 40
2.0
 40
3.0
 40
3.0
 40
3.0
 40
4.0
 40
4.0
 40
4.0
 40
4.0
 10
145.4541992005869
 20
-279.1198937603542
 30
0.0
 10
145.4541992005869
 20
-279.1198937603542
 30
0.0
 10
173.9859939850065
 20
-279.1173167110782
 30
0.0
 10
173.9859939850065
 20
-279.1173167110782
 30
0.0
 10
162.9403560632394
 20
-259.985725067192
 30
0.0
 10
138.5055618985367
 20
-253.3932888149714
 30
0.0
 10
119.3739702546512
 20
-264.4389267367382
 30
0.0
 10
113.0495516140966
 20
-268.0903342970483
 30
0.0
 10
108.1096699653937
 20
-273.2132403582637
 30
0.0
 10
104.7154538187513
 20
-279.1199008641021
 30
0.0
 10
104.7154538187513
 20
-279.1199008641021
 30
0.0
 10
134.1653682271905
 20
-279.1198939301301
 30
0.0
 10
134.1653682271905
 20
-279.1198939301301
 30
0.0
  0
SPLINE
  5
84
330
7F
100
AcDbEntity
  8
OneCircle
 62
     7
420
 16777215
370
    35
100
AcDbSpline
210
0.0
220
0.0
230
1.0
 70
    27
 71
     3
 72
    11
 73
     7
 74
     0
 42
0.0000000001
 43
0.0000000001
 12
1.0
 22
0.0
 32
0.0
 13
1.0
 23
0.0
 33
0.0
 40
0.0
 40
0.0
 40
0.0
 40
0.0
 40
1.0
 40
1.0
 40
1.0
 40
2.0
 40
2.0
 40
2.0
 40
2.0
 10
145.4541994456389
 20
-284.0331262287554
 30
0.0
 10
145.4541994456389
 20
-284.0331262287554
 30
0.0
 10
134.1653684722419
 20
-284.03312639853
 30
0.0
 10
134.1653684722419
 20
-284.03312639853
 30
0.0
 10
134.1653684722419
 20
-284.03312639853
 30
0.0
 10
145.4541994456389
 20
-284.0331262287554
 30
0.0
 10
145.4541994456389
 20
-284.0331262287554
 30
0.0
  0
ENDBLK
  5
82
330
7F
100
AcDbEntity
  8
0
100
AcDbBlockEnd
  0
BLOCK
  5
88
330
86
100
AcDbEntity
  8
0
100
AcDbBlockBegin
  2
block 11
 70
     0
 10
0.0
 20
0.0
 30
0.0
  3
block 11
  1

  0
SPLINE
  5
8A
330
86
100
AcDbEntity
  8
OneCircle
 62
     7
420
 16777215
370
    35
100
AcDbSpline
210
0.0
220
0.0
230
1.0
 70
     8
 71
     3
 72
    20
 73
    16
 74
     0
 42
0.0000000001
 43
0.0000000001
 12
1.0
 22
0.0
 32
0.0
 13
1.0
 23
0.0
 33
0.0
 40
0.0
 40
0.0
 40
0.0
 40
0.0
 40
1.0
 40
1.0
 40
1.0
 40
2.0
 40
2.0
 40
2.0
 40
3.0
 40
3.0
 40
3.0
 40
4.0
 40
4.0
 40
4.0
 40
5.0
 40
5.0
 40
5.0
 40
5.0
 10
423.8257966199142
 20
-43.68283855111454
 30
0.0
 10
423.8257966199142
 20
-43.68283855111454
 30
0.0
 10
438.5642496865967
 20
-69.21160745301768
 30
0.0
 10
438.5642496865967
 20
-69.21160745301768
 30
0.0
 10
441.9824577371216
 20
-63.31879867411757
 30
0.0
 10
443.9355879351049
 20
-56.4548857713891
 30
0.0
 10
443.9355879351049
 20
-49.15207478434636
 30
0.0
 10
443.9355879351049
 20
-27.06081144502667
 30
0.0
 10
426.0270302763167
 20
-9.152288237036242
 30
0.0
 10
403.9357669369979
 20
-9.152288237036242
 30
0.0
 10
403.9357669369979
 20
-9.152288237036242
 30
0.0
 10
403.9357669369979
 20
-9.152275623162074
 30
0.0
 10
403.9357669369979
 20
-9.152275623162074
 30
0.0
 10
403.9357669369979
 20
-9.152275623162074
 30
0.0
 10
418.181378085364
 20
-33.9064259088028
 30
0.0
 10
418.181378085364
 20
-33.9064259088028
 30
0.0
  0
SPLINE
  5
8B
330
86
100
AcDbEntity
  8
OneCircle
 62
     7
420
 16777215
370
    35
100
AcDbSpline
210
0.0
220
0.0
230
1.0
 70
     8
 71
     3
 72
    17
 73
    13
 74
     0
 42
0.0000000001
 43
0.0000000001
 12
1.0
 22
0.0
 32
0.0
 13
1.0
 23
0.0
 33
0.0
 40
0.0
 40
0.0
 40
0.0
 40
0.0
 40
1.0
 40
1.0
 40
1.0
 40
2.0
 40
2.0
 40
2.0
 40
3.0
 40
3.0
 40
3.0
 40
4.0
 40
4.0
 40
4.0
 40
4.0
 10
383.4334087931879
 20
-44.74337187733298
 30
0.0
 10
383.4334087931879
 20
-44.74337187733298
 30
0.0
 10
369.3005002289121
 20
-69.19380456131046
 30
0.0
 10
369.3005002289121
 20
-69.19380456131046
 30
0.0
 10
365.8822921783834
 20
-63.30099578241034
 30
0.0
 10
363.9359459388903
 20
-56.4548857713891
 30
0.0
 10
363.9359459388903
 20
-49.15207478434636
 30
0.0
 10
363.9359459388903
 20
-27.06081144502667
 30
0.0
 10
381.8420354422324
 20
-9.152275623162074
 30
0.0
 10
403.9333332323506
 20
-9.152275623162074
 30
0.0
 10
403.9333332323506
 20
-9.152275623162074
 30
0.0
 10
389.077827327738
 20
-34.96695923502124
 30
0.0
 10
389.077827327738
 20
-34.96695923502124
 30
0.0
  0
SPLINE
  5
8C
330
86
100
AcDbEntity
  8
OneCircle
 62
     7
420
 16777215
370
    35
100
AcDbSpline
210
0.0
220
0.0
230
1.0
 70
     8
 71
     3
 72
    17
 73
    13
 74
     0
 42
0.0000000001
 43
0.0000000001
 12
1.0
 22
0.0
 32
0.0
 13
1.0
 23
0.0
 33
0.0
 40
0.0
 40
0.0
 40
0.0
 40
0.0
 40
1.0
 40
1.0
 40
1.0
 40
2.0
 40
2.0
 40
2.0
 40
3.0
 40
3.0
 40
3.0
 40
4.0
 40
4.0
 40
4.0
 40
4.0
 10
354.4264146398588
 20
-94.9826837414509
 30
0.0
 10
354.4264146398588
 20
-94.9826837414509
 30
0.0
 10
369.2934922415685
 20
-69.2079999459777
 30
0.0
 10
369.2934922415685
 20
-69.2079999459777
 30
0.0
 10
347.2021944514535
 20
-69.2079999459777
 30
0.0
 10
329.2845332510117
 20
-87.076535951456
 30
0.0
 10
329.2845332510117
 20
-109.1677992907751
 30
0.0
 10
329.2845332510117
 20
-116.4706102778187
 30
0.0
 10
331.277043009305
 20
-123.3549155633378
 30
0.0
 10
334.6952510598305
 20
-129.2477243422382
 30
0.0
 10
334.6952510598305
 20
-129.2477243422382
 30
0.0
 10
348.781996105308
 20
-104.7590963837626
 30
0.0
 10
348.781996105308
 20
-104.7590963837626
 30
0.0
  0
ENDBLK
  5
89
330
86
100
AcDbEntity
  8
0
100
AcDbBlockEnd
  0
BLOCK
  5
8F
330
8D
100
AcDbEntity
  8
0
100
AcDbBlockBegin
  2
block 12
 70
     0
 10
0.0
 20
0.0
 30
0.0
  3
block 12
  1

  0
SPLINE
  5
91
330
8D
100
AcDbEntity
  8
OneCircle
 62
     7
420
 16777215
370
    35
100
AcDbSpline
210
0.0
220
0.0
230
1.0
 70
     8
 71
     3
 72
    17
 73
    13
 74
     0
 42
0.0000000001
 43
0.0000000001
 12
1.0
 22
0.0
 32
0.0
 13
1.0
 23
0.0
 33
0.0
 40
0.0
 40
0.0
 40
0.0
 40
0.0
 40
1.0
 40
1.0
 40
1.0
 40
2.0
 40
2.0
 40
2.0
 40
3.0
 40
3.0
 40
3.0
 40
4.0
 40
4.0
 40
4.0
 40
4.0
 10
452.8279233639454
 20
-93.92215041523245
 30
0.0
 10
452.8279233639454
 20
-93.92215041523245
 30
0.0
 10
438.5642496865967
 20
-69.21160745301768
 30
0.0
 10
438.5642496865967
 20
-69.21160745301768
 30
0.0
 10
460.6555130259155
 20
-69.21160745301768
 30
0.0
 10
478.5821332136869
 20
-87.076535951456
 30
0.0
 10
478.5821332136869
 20
-109.1677992907751
 30
0.0
 10
478.5821332136869
 20
-116.4706102778187
 30
0.0
 10
476.6155094829434
 20
-123.3101269505752
 30
0.0
 10
473.1973014324186
 20
-129.2029357294753
 30
0.0
 10
473.1973014324186
 20
-129.2029357294753
 30
0.0
 10
458.4723418984955
 20
-103.6985630575439
 30
0.0
 10
458.4723418984955
 20
-103.6985630575439
 30
0.0
  0
SPLINE
  5
92
330
8D
100
AcDbEntity
  8
OneCircle
 62
     7
420
 16777215
370
    35
100
AcDbSpline
210
0.0
220
0.0
230
1.0
 70
    27
 71
     3
 72
    11
 73
     7
 74
     0
 42
0.0000000001
 43
0.0000000001
 12
1.0
 22
0.0
 32
0.0
 13
1.0
 23
0.0
 33
0.0
 40
0.0
 40
0.0
 40
0.0
 40
0.0
 40
1.0
 40
1.0
 40
1.0
 40
2.0
 40
2.0
 40
2.0
 40
2.0
 10
448.572939911897
 20
-96.37876782771893
 30
0.0
 10
448.572939911897
 20
-96.37876782771893
 30
0.0
 10
454.2173584464471
 20
-106.1551804700304
 30
0.0
 10
454.2173584464471
 20
-106.1551804700304
 30
0.0
 10
454.2173584464471
 20
-106.1551804700304
 30
0.0
 10
448.572939911897
 20
-96.37876782771893
 30
0.0
 10
448.572939911897
 20
-96.37876782771893
 30
0.0
  0
ENDBLK
  5
90
330
8D
100
AcDbEntity
  8
0
100
AcDbBlockEnd
  0
BLOCK
  5
95
330
93
100
AcDbEntity
  8
0
100
AcDbBlockBegin
  2
block 13
 70
     0
 10
0.0
 20
0.0
 30
0.0
  3
block 13
  1

  0
SPLINE
  5
97
330
93
100
AcDbEntity
  8
OneCircle
 62
     7
420
 16777215
370
    35
100
AcDbSpline
210
0.0
220
0.0
230
1.0
 70
    27
 71
     3
 72
    11
 73
     7
 74
     0
 42
0.0000000001
 43
0.0000000001
 12
1.0
 22
0.0
 32
0.0
 13
1.0
 23
0.0
 33
0.0
 40
0.0
 40
0.0
 40
0.0
 40
0.0
 40
1.0
 40
1.0
 40
1.0
 40
2.0
 40
2.0
 40
2.0
 40
2.0
 10
413.9263946333124
 20
-222.036956614111
 30
0.0
 10
413.9263946333124
 20
-222.036956614111
 30
0.0
 10
419.5708131678658
 20
-212.2605439717993
 30
0.0
 10
419.5708131678658
 20
-212.2605439717993
 30
0.0
 10
419.5708131678658
 20
-212.2605439717993
 30
0.0
 10
413.9263946333124
 20
-222.036956614111
 30
0.0
 10
413.9263946333124
 20
-222.036956614111
 30
0.0
  0
INSERT
  5
99
330
93
100
AcDbEntity
  8
OneCircle
100
AcDbBlockReference
  2
block 14
 10
0.0
 20
0.0
 30
0.0
  0
INSERT
  5
A0
330
93
100
AcDbEntity
  8
OneCircle
100
AcDbBlockReference
  2
block 15
 10
0.0
 20
0.0
 30
0.0
  0
ENDBLK
  5
96
330
93
100
AcDbEntity
  8
0
100
AcDbBlockEnd
  0
BLOCK
  5
9A
330
98
100
AcDbEntity
  8
0
100
AcDbBlockBegin
  2
block 14
 70
     0
 10
0.0
 20
0.0
 30
0.0
  3
block 14
  1

  0
SPLINE
  5
9C
330
98
100
AcDbEntity
  8
OneCircle
 62
     7
420
 16777215
370
    35
100
AcDbSpline
210
0.0
220
0.0
230
1.0
 70
     8
 71
     3
 72
    20
 73
    16
 74
     0
 42
0.0000000001
 43
0.0000000001
 12
1.0
 22
0.0
 32
0.0
 13
1.0
 23
0.0
 33
0.0
 40
0.0
 40
0.0
 40
0.0
 40
0.0
 40
1.0
 40
1.0
 40
1.0
 40
2.0
 40
2.0
 40
2.0
 40
3.0
 40
3.0
 40
3.0
 40
4.0
 40
4.0
 40
4.0
 40
5.0
 40
5.0
 40
5.0
 40
5.0
 10
423.8257966199142
 20
-214.7171613842858
 30
0.0
 10
423.8257966199142
 20
-214.7171613842858
 30
0.0
 10
438.5642496865967
 20
-189.1883924823829
 30
0.0
 10
438.5642496865967
 20
-189.1883924823829
 30
0.0
 10
441.9824577371216
 20
-195.0812012612827
 30
0.0
 10
443.9355879351049
 20
-201.9451141640112
 30
0.0
 10
443.9355879351049
 20
-209.2479251510539
 30
0.0
 10
443.9355879351049
 20
-231.3391884903739
 30
0.0
 10
426.0270302763167
 20
-249.247711698364
 30
0.0
 10
403.9357669369979
 20
-249.247711698364
 30
0.0
 10
403.9357669369979
 20
-249.247711698364
 30
0.0
 10
403.9357669369979
 20
-249.2477243122382
 30
0.0
 10
403.9357669369979
 20
-249.2477243122382
 30
0.0
 10
403.9357669369979
 20
-249.2477243122382
 30
0.0
 10
418.181378085364
 20
-224.4935740265975
 30
0.0
 10
418.181378085364
 20
-224.4935740265975
 30
0.0
  0
SPLINE
  5
9D
330
98
100
AcDbEntity
  8
OneCircle
 62
     7
420
 16777215
370
    35
100
AcDbSpline
210
0.0
220
0.0
230
1.0
 70
     8
 71
     3
 72
    17
 73
    13
 74
     0
 42
0.0000000001
 43
0.0000000001
 12
1.0
 22
0.0
 32
0.0
 13
1.0
 23
0.0
 33
0.0
 40
0.0
 40
0.0
 40
0.0
 40
0.0
 40
1.0
 40
1.0
 40
1.0
 40
2.0
 40
2.0
 40
2.0
 40
3.0
 40
3.0
 40
3.0
 40
4.0
 40
4.0
 40
4.0
 40
4.0
 10
383.4334087931879
 20
-213.6566280580673
 30
0.0
 10
383.4334087931879
 20
-213.6566280580673
 30
0.0
 10
369.3005002289121
 20
-189.2061953740895
 30
0.0
 10
369.3005002289121
 20
-189.2061953740895
 30
0.0
 10
365.8822921783834
 20
-195.0990041529899
 30
0.0
 10
363.9359459388903
 20
-201.9451141640112
 30
0.0
 10
363.9359459388903
 20
-209.2479251510539
 30
0.0
 10
363.9359459388903
 20
-231.3391884903739
 30
0.0
 10
381.8420354422324
 20
-249.2477243122382
 30
0.0
 10
403.9333332323506
 20
-249.2477243122382
 30
0.0
 10
403.9333332323506
 20
-249.2477243122382
 30
0.0
 10
389.077827327738
 20
-223.4330407003791
 30
0.0
 10
389.077827327738
 20
-223.4330407003791
 30
0.0
  0
SPLINE
  5
9E
330
98
100
AcDbEntity
  8
OneCircle
 62
     7
420
 16777215
370
    35
100
AcDbSpline
210
0.0
220
0.0
230
1.0
 70
     8
 71
     3
 72
    17
 73
    13
 74
     0
 42
0.0000000001
 43
0.0000000001
 12
1.0
 22
0.0
 32
0.0
 13
1.0
 23
0.0
 33
0.0
 40
0.0
 40
0.0
 40
0.0
 40
0.0
 40
1.0
 40
1.0
 40
1.0
 40
2.0
 40
2.0
 40
2.0
 40
3.0
 40
3.0
 40
3.0
 40
4.0
 40
4.0
 40
4.0
 40
4.0
 10
354.4264146398588
 20
-163.4173161939497
 30
0.0
 10
354.4264146398588
 20
-163.4173161939497
 30
0.0
 10
369.2934922415685
 20
-189.1919999894226
 30
0.0
 10
369.2934922415685
 20
-189.1919999894226
 30
0.0
 10
347.2021944514535
 20
-189.1919999894226
 30
0.0
 10
329.2845332510117
 20
-171.323463983944
 30
0.0
 10
329.2845332510117
 20
-149.2322006446246
 30
0.0
 10
329.2845332510117
 20
-141.9293896575812
 30
0.0
 10
331.277043009305
 20
-135.0450843720622
 30
0.0
 10
334.6952510598305
 20
-129.1522755931624
 30
0.0
 10
334.6952510598305
 20
-129.1522755931624
 30
0.0
 10
348.781996105308
 20
-153.640903551638
 30
0.0
 10
348.781996105308
 20
-153.640903551638
 30
0.0
  0
ENDBLK
  5
9B
330
98
100
AcDbEntity
  8
0
100
AcDbBlockEnd
  0
BLOCK
  5
A1
330
9F
100
AcDbEntity
  8
0
100
AcDbBlockBegin
  2
block 15
 70
     0
 10
0.0
 20
0.0
 30
0.0
  3
block 15
  1

  0
SPLINE
  5
A3
330
9F
100
AcDbEntity
  8
OneCircle
 62
     7
420
 16777215
370
    35
100
AcDbSpline
210
0.0
220
0.0
230
1.0
 70
     8
 71
     3
 72
    17
 73
    13
 74
     0
 42
0.0000000001
 43
0.0000000001
 12
1.0
 22
0.0
 32
0.0
 13
1.0
 23
0.0
 33
0.0
 40
0.0
 40
0.0
 40
0.0
 40
0.0
 40
1.0
 40
1.0
 40
1.0
 40
2.0
 40
2.0
 40
2.0
 40
3.0
 40
3.0
 40
3.0
 40
4.0
 40
4.0
 40
4.0
 40
4.0
 10
452.8279233639454
 20
-164.4778495201675
 30
0.0
 10
452.8279233639454
 20
-164.4778495201675
 30
0.0
 10
438.5642496865967
 20
-189.1883924823829
 30
0.0
 10
438.5642496865967
 20
-189.1883924823829
 30
0.0
 10
460.6555130259155
 20
-189.1883924823829
 30
0.0
 10
478.5821332136869
 20
-171.323463983944
 30
0.0
 10
478.5821332136869
 20
-149.2322006446246
 30
0.0
 10
478.5821332136869
 20
-141.9293896575812
 30
0.0
 10
476.6155094829434
 20
-135.0898729848251
 30
0.0
 10
473.1973014324186
 20
-129.1970642059249
 30
0.0
 10
473.1973014324186
 20
-129.1970642059249
 30
0.0
 10
458.4723418984955
 20
-154.7014368778564
 30
0.0
 10
458.4723418984955
 20
-154.7014368778564
 30
0.0
  0
SPLINE
  5
A4
330
9F
100
AcDbEntity
  8
OneCircle
 62
     7
420
 16777215
370
    35
100
AcDbSpline
210
0.0
220
0.0
230
1.0
 70
    27
 71
     3
 72
    11
 73
     7
 74
     0
 42
0.0000000001
 43
0.0000000001
 12
1.0
 22
0.0
 32
0.0
 13
1.0
 23
0.0
 33
0.0
 40
0.0
 40
0.0
 40
0.0
 40
0.0
 40
1.0
 40
1.0
 40
1.0
 40
2.0
 40
2.0
 40
2.0
 40
2.0
 10
448.572939911897
 20
-162.021232107681
 30
0.0
 10
448.572939911897
 20
-162.021232107681
 30
0.0
 10
454.2173584464471
 20
-152.2448194653699
 30
0.0
 10
454.2173584464471
 20
-152.2448194653699
 30
0.0
 10
454.2173584464471
 20
-152.2448194653699
 30
0.0
 10
448.572939911897
 20
-162.021232107681
 30
0.0
 10
448.572939911897
 20
-162.021232107681
 30
0.0
  0
ENDBLK
  5
A2
330
9F
100
AcDbEntity
  8
0
100
AcDbBlockEnd
  0
BLOCK
  5
A8
330
A6
100
AcDbEntity
  8
0
100
AcDbBlockBegin
  2
block 16
 70
     0
 10
0.0
 20
0.0
 30
0.0
  3
block 16
  1

  0
SPLINE
  5
AA
330
A6
100
AcDbEntity
  8
OneCircle
 62
     7
420
 16777215
370
    35
100
AcDbSpline
210
0.0
220
0.0
230
1.0
 70
     8
 71
     3
 72
    20
 73
    16
 74
     0
 42
0.0000000001
 43
0.0000000001
 12
1.0
 22
0.0
 32
0.0
 13
1.0
 23
0.0
 33
0.0
 40
0.0
 40
0.0
 40
0.0
 40
0.0
 40
1.0
 40
1.0
 40
1.0
 40
2.0
 40
2.0
 40
2.0
 40
3.0
 40
3.0
 40
3.0
 40
4.0
 40
4.0
 40
4.0
 40
5.0
 40
5.0
 40
5.0
 40
5.0
 10
239.8465201002055
 20
-363.2228961058722
 30
0.0
 10
239.8465201002055
 20
-363.2228961058722
 30
0.0
 10
254.5858476207495
 20
-337.694632069951
 30
0.0
 10
254.5858476207495
 20
-337.694632069951
 30
0.0
 10
247.773421488789
 20
-337.6807836784902
 30
0.0
 10
240.8525340154567
 20
-339.4212820232141
 30
0.0
 10
234.5281153749027
 20
-343.0726895835236
 30
0.0
 10
215.3965237310166
 20
-354.1183275052894
 30
0.0
 10
208.8415745125842
 20
-378.5818571290604
 30
0.0
 10
219.8872124343513
 20
-397.7134487729434
 30
0.0
 10
219.8872124343513
 20
-397.7134487729434
 30
0.0
 10
219.8872015104182
 20
-397.7134550798868
 30
0.0
 10
219.8872015104182
 20
-397.7134550798868
 30
0.0
 10
219.8872015104182
 20
-397.7134550798868
 30
0.0
 10
234.2021108562428
 20
-372.9993141121058
 30
0.0
 10
234.2021108562428
 20
-372.9993141121058
 30
0.0
  0
SPLINE
  5
AB
330
A6
100
AcDbEntity
  8
OneCircle
 62
     7
420
 16777215
370
    35
100
AcDbSpline
210
0.0
220
0.0
230
1.0
 70
     8
 71
     3
 72
    17
 73
    13
 74
     0
 42
0.0000000001
 43
0.0000000001
 12
1.0
 22
0.0
 32
0.0
 13
1.0
 23
0.0
 33
0.0
 40
0.0
 40
0.0
 40
0.0
 40
0.0
 40
1.0
 40
1.0
 40
1.0
 40
2.0
 40
2.0
 40
2.0
 40
3.0
 40
3.0
 40
3.0
 40
4.0
 40
4.0
 40
4.0
 40
4.0
 10
260.961174073903
 20
-397.6734565200628
 30
0.0
 10
260.961174073903
 20
-397.6734565200628
 30
0.0
 10
289.20232419854
 20
-397.687688795034
 30
0.0
 10
289.20232419854
 20
-397.687688795034
 30
0.0
 10
285.808108051897
 20
-403.5943493008743
 30
0.0
 10
280.8523776544743
 20
-408.702991213854
 30
0.0
 10
274.5279590139203
 20
-412.3543987741616
 30
0.0
 10
255.3963673700342
 20
-423.4000366959307
 30
0.0
 10
230.9340735106053
 20
-416.8471842086843
 30
0.0
 10
219.8884183634304
 20
-397.7155627295384
 30
0.0
 10
219.8884183634304
 20
-397.7155627295384
 30
0.0
 10
249.6723431005053
 20
-397.6734566898371
 30
0.0
 10
249.6723431005053
 20
-397.6734566898371
 30
0.0
  0
SPLINE
  5
AC
330
A6
100
AcDbEntity
  8
OneCircle
 62
     7
420
 16777215
370
    35
100
AcDbSpline
210
0.0
220
0.0
230
1.0
 70
     8
 71
     3
 72
    17
 73
    13
 74
     0
 42
0.0000000001
 43
0.0000000001
 12
1.0
 22
0.0
 32
0.0
 13
1.0
 23
0.0
 33
0.0
 40
0.0
 40
0.0
 40
0.0
 40
0.0
 40
1.0
 40
1.0
 40
1.0
 40
2.0
 40
2.0
 40
2.0
 40
3.0
 40
3.0
 40
3.0
 40
4.0
 40
4.0
 40
4.0
 40
4.0
 10
318.9731914939114
 20
-397.6745754541802
 30
0.0
 10
318.9731914939114
 20
-397.6745754541802
 30
0.0
 10
289.2181217556124
 20
-397.6866601926055
 30
0.0
 10
289.2181217556124
 20
-397.6866601926055
 30
0.0
 10
300.2637769027872
 20
-416.8182816717514
 30
0.0
 10
324.6972157634396
 20
-423.4011554602764
 30
0.0
 10
343.8288074073251
 20
-412.355517538508
 30
0.0
 10
350.1532260478797
 20
-408.7041099781972
 30
0.0
 10
355.1189527446157
 20
-403.5363916446951
 30
0.0
 10
358.5131688912606
 20
-397.6297311388554
 30
0.0
 10
358.5131688912606
 20
-397.6297311388554
 30
0.0
 10
330.2620224673084
 20
-397.6745752844059
 30
0.0
 10
330.2620224673084
 20
-397.6745752844059
 30
0.0
  0
ENDBLK
  5
A9
330
A6
100
AcDbEntity
  8
0
100
AcDbBlockEnd
  0
BLOCK
  5
AF
330
AD
100
AcDbEntity
  8
0
100
AcDbBlockBegin
  2
block 17
 70
     0
 10
0.0
 20
0.0
 30
0.0
  3
block 17
  1

  0
SPLINE
  5
B1
330
AD
100
AcDbEntity
  8
OneCircle
 62
     7
420
 16777215
370
    35
100
AcDbSpline
210
0.0
220
0.0
230
1.0
 70
     8
 71
     3
 72
    17
 73
    13
 74
     0
 42
0.0000000001
 43
0.0000000001
 12
1.0
 22
0.0
 32
0.0
 13
1.0
 23
0.0
 33
0.0
 40
0.0
 40
0.0
 40
0.0
 40
0.0
 40
1.0
 40
1.0
 40
1.0
 40
2.0
 40
2.0
 40
2.0
 40
3.0
 40
3.0
 40
3.0
 40
4.0
 40
4.0
 40
4.0
 40
4.0
 10
268.8539606542186
 20
-312.9866521702187
 30
0.0
 10
268.8539606542186
 20
-312.9866521702187
 30
0.0
 10
254.5858476207495
 20
-337.694632069951
 30
0.0
 10
254.5858476207495
 20
-337.694632069951
 30
0.0
 10
243.5402096989824
 20
-318.5630404260648
 30
0.0
 10
250.0483735289918
 20
-294.1056655634039
 30
0.0
 10
269.1799651728766
 20
-283.0600276416375
 30
0.0
 10
275.5043838134318
 20
-279.4086200813277
 30
0.0
 10
282.4108903060374
 20
-277.6920055984474
 30
0.0
 10
289.2233164379978
 20
-277.7058539899066
 30
0.0
 10
289.2233164379978
 20
-277.7058539899066
 30
0.0
 10
274.4983698981814
 20
-303.2102341639865
 30
0.0
 10
274.4983698981814
 20
-303.2102341639865
 30
0.0
  0
SPLINE
  5
B2
330
AD
100
AcDbEntity
  8
OneCircle
 62
     7
420
 16777215
370
    35
100
AcDbSpline
210
0.0
220
0.0
230
1.0
 70
    27
 71
     3
 72
    11
 73
     7
 74
     0
 42
0.0000000001
 43
0.0000000001
 12
1.0
 22
0.0
 32
0.0
 13
1.0
 23
0.0
 33
0.0
 40
0.0
 40
0.0
 40
0.0
 40
0.0
 40
1.0
 40
1.0
 40
1.0
 40
2.0
 40
2.0
 40
2.0
 40
2.0
 10
273.1089462696455
 20
-315.4432658356262
 30
0.0
 10
273.1089462696455
 20
-315.4432658356262
 30
0.0
 10
278.753355513607
 20
-305.6668478293927
 30
0.0
 10
278.753355513607
 20
-305.6668478293927
 30
0.0
 10
278.753355513607
 20
-305.6668478293927
 30
0.0
 10
273.1089462696455
 20
-315.4432658356262
 30
0.0
 10
273.1089462696455
 20
-315.4432658356262
 30
0.0
  0
ENDBLK
  5
B0
330
AD
100
AcDbEntity
  8
0
100
AcDbBlockEnd
  0
BLOCK
  5
B5
330
B3
100
AcDbEntity
  8
0
100
AcDbBlockBegin
  2
block 18
 70
     0
 10
0.0
 20
0.0
 30
0.0
  3
block 18
  1

  0
SPLINE
  5
B7
330
B3
100
AcDbEntity
  8
OneCircle
 62
     7
420
 16777215
370
    35
100
AcDbSpline
210
0.0
220
0.0
230
1.0
 70
    27
 71
     3
 72
    11
 73
     7
 74
     0
 42
0.0000000001
 43
0.0000000001
 12
1.0
 22
0.0
 32
0.0
 13
1.0
 23
0.0
 33
0.0
 40
0.0
 40
0.0
 40
0.0
 40
0.0
 40
1.0
 40
1.0
 40
1.0
 40
2.0
 40
2.0
 40
2.0
 40
2.0
 10
399.25539186467
 20
-282.6189185830336
 30
0.0
 10
399.25539186467
 20
-282.6189185830336
 30
0.0
 10
387.9665608912737
 20
-282.6189187528088
 30
0.0
 10
387.9665608912737
 20
-282.6189187528088
 30
0.0
 10
387.9665608912737
 20
-282.6189187528088
 30
0.0
 10
399.25539186467
 20
-282.6189185830336
 30
0.0
 10
399.25539186467
 20
-282.6189185830336
 30
0.0
  0
INSERT
  5
B9
330
B3
100
AcDbEntity
  8
OneCircle
100
AcDbBlockReference
  2
block 19
 10
0.0
 20
0.0
 30
0.0
  0
INSERT
  5
C0
330
B3
100
AcDbEntity
  8
OneCircle
100
AcDbBlockReference
  2
block 20
 10
0.0
 20
0.0
 30
0.0
  0
ENDBLK
  5
B6
330
B3
100
AcDbEntity
  8
0
100
AcDbBlockEnd
  0
BLOCK
  5
BA
330
B8
100
AcDbEntity
  8
0
100
AcDbBlockBegin
  2
block 19
 70
     0
 10
0.0
 20
0.0
 30
0.0
  3
block 19
  1

  0
SPLINE
  5
BC
330
B8
100
AcDbEntity
  8
OneCircle
 62
     7
420
 16777215
370
    35
100
AcDbSpline
210
0.0
220
0.0
230
1.0
 70
     8
 71
     3
 72
    20
 73
    16
 74
     0
 42
0.0000000001
 43
0.0000000001
 12
1.0
 22
0.0
 32
0.0
 13
1.0
 23
0.0
 33
0.0
 40
0.0
 40
0.0
 40
0.0
 40
0.0
 40
1.0
 40
1.0
 40
1.0
 40
2.0
 40
2.0
 40
2.0
 40
3.0
 40
3.0
 40
3.0
 40
4.0
 40
4.0
 40
4.0
 40
5.0
 40
5.0
 40
5.0
 40
5.0
 10
387.9665606462203
 20
-277.7056862844072
 30
0.0
 10
387.9665606462203
 20
-277.7056862844072
 30
0.0
 10
358.4887717166567
 20
-277.7062056003199
 30
0.0
 10
358.4887717166567
 20
-277.7062056003199
 30
0.0
 10
361.8829878633017
 20
-271.7995450944802
 30
0.0
 10
366.8507440331296
 20
-266.6761266513274
 30
0.0
 10
373.1751626736823
 20
-263.024719091018
 30
0.0
 10
392.3067543175691
 20
-251.9790811692508
 30
0.0
 10
416.7702713314855
 20
-258.5340774483516
 30
0.0
 10
427.8159092532539
 20
-277.6656690922375
 30
0.0
 10
427.8159092532539
 20
-277.6656690922375
 30
0.0
 10
427.8159201771874
 20
-277.6656627852969
 30
0.0
 10
427.8159201771874
 20
-277.6656627852969
 30
0.0
 10
427.8159201771874
 20
-277.6656627852969
 30
0.0
 10
399.2553916196167
 20
-277.7056861146323
 30
0.0
 10
399.2553916196167
 20
-277.7056861146323
 30
0.0
  0
SPLINE
  5
BD
330
B8
100
AcDbEntity
  8
OneCircle
 62
     7
420
 16777215
370
    35
100
AcDbSpline
210
0.0
220
0.0
230
1.0
 70
     8
 71
     3
 72
    17
 73
    13
 74
     0
 42
0.0000000001
 43
0.0000000001
 12
1.0
 22
0.0
 32
0.0
 13
1.0
 23
0.0
 33
0.0
 40
0.0
 40
0.0
 40
0.0
 40
0.0
 40
1.0
 40
1.0
 40
1.0
 40
2.0
 40
2.0
 40
2.0
 40
3.0
 40
3.0
 40
3.0
 40
4.0
 40
4.0
 40
4.0
 40
4.0
 10
407.2443173623635
 20
-313.2167806251058
 30
0.0
 10
407.2443173623635
 20
-313.2167806251058
 30
0.0
 10
393.1360838015887
 20
-337.681459423621
 30
0.0
 10
393.1360838015887
 20
-337.681459423621
 30
0.0
 10
399.9485099335504
 20
-337.6953078150799
 30
0.0
 10
406.8505876721447
 20
-335.9578358419667
 30
0.0
 10
413.1750063127006
 20
-332.3064282816572
 30
0.0
 10
432.3065979565867
 20
-321.2607903598908
 30
0.0
 10
438.8627921773728
 20
-296.7993919140947
 30
0.0
 10
427.8171370301986
 20
-277.6677704349497
 30
0.0
 10
427.8171370301986
 20
-277.6677704349497
 30
0.0
 10
412.8887266063276
 20
-303.4403626188719
 30
0.0
 10
412.8887266063276
 20
-303.4403626188719
 30
0.0
  0
SPLINE
  5
BE
330
B8
100
AcDbEntity
  8
OneCircle
 62
     7
420
 16777215
370
    35
100
AcDbSpline
210
0.0
220
0.0
230
1.0
 70
     8
 71
     3
 72
    17
 73
    13
 74
     0
 42
0.0000000001
 43
0.0000000001
 12
1.0
 22
0.0
 32
0.0
 13
1.0
 23
0.0
 33
0.0
 40
0.0
 40
0.0
 40
0.0
 40
0.0
 40
1.0
 40
1.0
 40
1.0
 40
2.0
 40
2.0
 40
2.0
 40
3.0
 40
3.0
 40
3.0
 40
4.0
 40
4.0
 40
4.0
 40
4.0
 10
378.2393105143788
 20
-363.4572398600637
 30
0.0
 10
378.2393105143788
 20
-363.4572398600637
 30
0.0
 10
393.1272942358224
 20
-337.6946262138935
 30
0.0
 10
393.1272942358224
 20
-337.6946262138935
 30
0.0
 10
404.1729493829998
 20
-356.8262476930387
 30
0.0
 10
397.6571818646386
 20
-381.2776676010835
 30
0.0
 10
378.5255902207524
 20
-392.323305522852
 30
0.0
 10
372.2011715801959
 20
-395.9747130831595
 30
0.0
 10
365.2429339973555
 20
-397.6913039318669
 30
0.0
 10
358.4305078653977
 20
-397.6774555404062
 30
0.0
 10
358.4305078653977
 20
-397.6774555404062
 30
0.0
 10
372.5949012704153
 20
-373.2336578662967
 30
0.0
 10
372.5949012704153
 20
-373.2336578662967
 30
0.0
  0
ENDBLK
  5
BB
330
B8
100
AcDbEntity
  8
0
100
AcDbBlockEnd
  0
BLOCK
  5
C1
330
BF
100
AcDbEntity
  8
0
100
AcDbBlockBegin
  2
block 20
 70
     0
 10
0.0
 20
0.0
 30
0.0
  3
block 20
  1

  0
SPLINE
  5
C3
330
BF
100
AcDbEntity
  8
OneCircle
 62
     7
420
 16777215
370
    35
100
AcDbSpline
210
0.0
220
0.0
230
1.0
 70
     8
 71
     3
 72
    17
 73
    13
 74
     0
 42
0.0000000001
 43
0.0000000001
 12
1.0
 22
0.0
 32
0.0
 13
1.0
 23
0.0
 33
0.0
 40
0.0
 40
0.0
 40
0.0
 40
0.0
 40
1.0
 40
1.0
 40
1.0
 40
2.0
 40
2.0
 40
2.0
 40
3.0
 40
3.0
 40
3.0
 40
4.0
 40
4.0
 40
4.0
 40
4.0
 10
329.9569769322389
 20
-277.7087826495958
 30
0.0
 10
329.9569769322389
 20
-277.7087826495958
 30
0.0
 10
358.4887717166567
 20
-277.7062056003199
 30
0.0
 10
358.4887717166567
 20
-277.7062056003199
 30
0.0
 10
347.4431337948915
 20
-258.5746139564337
 30
0.0
 10
323.0083396301888
 20
-251.9821777042131
 30
0.0
 10
303.8767479863033
 20
-263.0278156259799
 30
0.0
 10
297.5523293457487
 20
-266.67922318629
 30
0.0
 10
292.6124476970458
 20
-271.8021292475054
 30
0.0
 10
289.2182315504034
 20
-277.7087897533438
 30
0.0
 10
289.2182315504034
 20
-277.7087897533438
 30
0.0
 10
318.6681459588426
 20
-277.7087828193718
 30
0.0
 10
318.6681459588426
 20
-277.7087828193718
 30
0.0
  0
SPLINE
  5
C4
330
BF
100
AcDbEntity
  8
OneCircle
 62
     7
420
 16777215
370
    35
100
AcDbSpline
210
0.0
220
0.0
230
1.0
 70
    27
 71
     3
 72
    11
 73
     7
 74
     0
 42
0.0000000001
 43
0.0000000001
 12
1.0
 22
0.0
 32
0.0
 13
1.0
 23
0.0
 33
0.0
 40
0.0
 40
0.0
 40
0.0
 40
0.0
 40
1.0
 40
1.0
 40
1.0
 40
2.0
 40
2.0
 40
2.0
 40
2.0
 10
329.956977177291
 20
-282.6220151179971
 30
0.0
 10
329.956977177291
 20
-282.6220151179971
 30
0.0
 10
318.668146203894
 20
-282.6220152877717
 30
0.0
 10
318.668146203894
 20
-282.6220152877717
 30
0.0
 10
318.668146203894
 20
-282.6220152877717
 30
0.0
 10
329.956977177291
 20
-282.6220151179971
 30
0.0
 10
329.956977177291
 20
-282.6220151179971
 30
0.0
  0
ENDBLK
  5
C2
330
BF
100
AcDbEntity
  8
0
100
AcDbBlockEnd
  0
ENDSEC
  0
SECTION
  2
ENTITIES
  0
SPLINE
  5
41
330
1F
100
AcDbEntity
  8
OneCircle
 62
     7
420
 16777215
370
    35
100
AcDbSpline
210
0.0
220
0.0
230
1.0
 70
    27
 71
     3
 72
    11
 73
     7
 74
     0
 42
0.0000000001
 43
0.0000000001
 12
1.0
 22
0.0
 32
0.0
 13
1.0
 23
0.0
 33
0.0
 40
0.0
 40
0.0
 40
0.0
 40
0.0
 40
1.0
 40
1.0
 40
1.0
 40
2.0
 40
2.0
 40
2.0
 40
2.0
 10
303.5221904917483
 20
-103.8332933433318
 30
0.0
 10
303.5221904917483
 20
-103.8332933433318
 30
0.0
 10
297.877771957197
 20
-113.6097059856438
 30
0.0
 10
297.877771957197
 20
-113.6097059856438
 30
0.0
 10
297.877771957197
 20
-113.6097059856438
 30
0.0
 10
303.5221904917483
 20
-103.8332933433318
 30
0.0
 10
303.5221904917483
 20
-103.8332933433318
 30
0.0
  0
SPLINE
  5
42
330
1F
100
AcDbEntity
  8
OneCircle
 62
     7
420
 16777215
370
    35
100
AcDbSpline
210
0.0
220
0.0
230
1.0
 70
    27
 71
     3
 72
    11
 73
     7
 74
     0
 42
0.0000000001
 43
0.0000000001
 12
1.0
 22
0.0
 32
0.0
 13
1.0
 23
0.0
 33
0.0
 40
0.0
 40
0.0
 40
0.0
 40
0.0
 40
1.0
 40
1.0
 40
1.0
 40
2.0
 40
2.0
 40
2.0
 40
2.0
 10
276.9791607495158
 20
-114.4941268390312
 30
0.0
 10
276.9791607495158
 20
-114.4941268390312
 30
0.0
 10
271.3347422149643
 20
-104.7177141967188
 30
0.0
 10
271.3347422149643
 20
-104.7177141967188
 30
0.0
 10
271.3347422149643
 20
-104.7177141967188
 30
0.0
 10
276.9791607495158
 20
-114.4941268390312
 30
0.0
 10
276.9791607495158
 20
-114.4941268390312
 30
0.0
  0
INSERT
  5
44
330
1F
100
AcDbEntity
  8
OneCircle
100
AcDbBlockReference
  2
block 2
 10
0.0
 20
0.0
 30
0.0
  0
INSERT
  5
4D
330
1F
100
AcDbEntity
  8
OneCircle
100
AcDbBlockReference
  2
block 3
 10
0.0
 20
0.0
 30
0.0
  0
SPLINE
  5
53
330
1F
100
AcDbEntity
  8
OneCircle
 62
     7
420
 16777215
370
    35
100
AcDbSpline
210
0.0
220
0.0
230
1.0
 70
    27
 71
     3
 72
    11
 73
     7
 74
     0
 42
0.0000000001
 43
0.0000000001
 12
1.0
 22
0.0
 32
0.0
 13
1.0
 23
0.0
 33
0.0
 40
0.0
 40
0.0
 40
0.0
 40
0.0
 40
1.0
 40
1.0
 40
1.0
 40
2.0
 40
2.0
 40
2.0
 40
2.0
 10
153.3000316162684
 20
-47.67503995212444
 30
0.0
 10
153.3000316162684
 20
-47.67503995212444
 30
0.0
 10
158.9444501508198
 20
-37.8986273098127
 30
0.0
 10
158.9444501508198
 20
-37.8986273098127
 30
0.0
 10
158.9444501508198
 20
-37.8986273098127
 30
0.0
 10
153.3000316162684
 20
-47.67503995212444
 30
0.0
 10
153.3000316162684
 20
-47.67503995212444
 30
0.0
  0
SPLINE
  5
54
330
1F
100
AcDbEntity
  8
OneCircle
 62
     7
420
 16777215
370
    35
100
AcDbSpline
210
0.0
220
0.0
230
1.0
 70
    27
 71
     3
 72
    11
 73
     7
 74
     0
 42
0.0000000001
 43
0.0000000001
 12
1.0
 22
0.0
 32
0.0
 13
1.0
 23
0.0
 33
0.0
 40
0.0
 40
0.0
 40
0.0
 40
0.0
 40
1.0
 40
1.0
 40
1.0
 40
2.0
 40
2.0
 40
2.0
 40
2.0
 10
179.843061358501
 20
-37.01420645642538
 30
0.0
 10
179.843061358501
 20
-37.01420645642538
 30
0.0
 10
185.4874798930524
 20
-46.79061909873744
 30
0.0
 10
185.4874798930524
 20
-46.79061909873744
 30
0.0
 10
185.4874798930524
 20
-46.79061909873744
 30
0.0
 10
179.843061358501
 20
-37.01420645642538
 30
0.0
 10
179.843061358501
 20
-37.01420645642538
 30
0.0
  0
INSERT
  5
56
330
1F
100
AcDbEntity
  8
OneCircle
100
AcDbBlockReference
  2
block 4
 10
0.0
 20
0.0
 30
0.0
  0
INSERT
  5
5F
330
1F
100
AcDbEntity
  8
OneCircle
100
AcDbBlockReference
  2
block 5
 10
0.0
 20
0.0
 30
0.0
  0
SPLINE
  5
65
330
1F
100
AcDbEntity
  8
OneCircle
 62
     7
420
 16777215
370
    35
100
AcDbSpline
210
0.0
220
0.0
230
1.0
 70
    27
 71
     3
 72
    11
 73
     7
 74
     0
 42
0.0000000001
 43
0.0000000001
 12
1.0
 22
0.0
 32
0.0
 13
1.0
 23
0.0
 33
0.0
 40
0.0
 40
0.0
 40
0.0
 40
0.0
 40
1.0
 40
1.0
 40
1.0
 40
2.0
 40
2.0
 40
2.0
 40
2.0
 10
53.95431874001763
 20
-376.8670388882717
 30
0.0
 10
53.95431874001763
 20
-376.8670388882717
 30
0.0
 10
59.59872798397976
 20
-367.0906208820381
 30
0.0
 10
59.59872798397976
 20
-367.0906208820381
 30
0.0
 10
59.59872798397976
 20
-367.0906208820381
 30
0.0
 10
53.95431874001763
 20
-376.8670388882717
 30
0.0
 10
53.95431874001763
 20
-376.8670388882717
 30
0.0
  0
INSERT
  5
67
330
1F
100
AcDbEntity
  8
OneCircle
100
AcDbBlockReference
  2
block 6
 10
0.0
 20
0.0
 30
0.0
  0
INSERT
  5
6E
330
1F
100
AcDbEntity
  8
OneCircle
100
AcDbBlockReference
  2
block 7
 10
0.0
 20
0.0
 30
0.0
  0
INSERT
  5
74
330
1F
100
AcDbEntity
  8
OneCircle
100
AcDbBlockReference
  2
block 8
 10
0.0
 20
0.0
 30
0.0
  0
SPLINE
  5
85
330
1F
100
AcDbEntity
  8
OneCircle
 62
     7
420
 16777215
370
    35
100
AcDbSpline
210
0.0
220
0.0
230
1.0
 70
    27
 71
     3
 72
    11
 73
     7
 74
     0
 42
0.0000000001
 43
0.0000000001
 12
1.0
 22
0.0
 32
0.0
 13
1.0
 23
0.0
 33
0.0
 40
0.0
 40
0.0
 40
0.0
 40
0.0
 40
1.0
 40
1.0
 40
1.0
 40
2.0
 40
2.0
 40
2.0
 40
2.0
 10
413.9263946333124
 20
-36.36304332128928
 30
0.0
 10
413.9263946333124
 20
-36.36304332128928
 30
0.0
 10
419.5708131678658
 20
-46.13945596360102
 30
0.0
 10
419.5708131678658
 20
-46.13945596360102
 30
0.0
 10
419.5708131678658
 20
-46.13945596360102
 30
0.0
 10
413.9263946333124
 20
-36.36304332128928
 30
0.0
 10
413.9263946333124
 20
-36.36304332128928
 30
0.0
  0
INSERT
  5
87
330
1F
100
AcDbEntity
  8
OneCircle
100
AcDbBlockReference
  2
block 11
 10
0.0
 20
0.0
 30
0.0
  0
INSERT
  5
8E
330
1F
100
AcDbEntity
  8
OneCircle
100
AcDbBlockReference
  2
block 12
 10
0.0
 20
0.0
 30
0.0
  0
INSERT
  5
94
330
1F
100
AcDbEntity
  8
OneCircle
100
AcDbBlockReference
  2
block 13
 10
0.0
 20
0.0
 30
0.0
  0
SPLINE
  5
A5
330
1F
100
AcDbEntity
  8
OneCircle
 62
     7
420
 16777215
370
    35
100
AcDbSpline
210
0.0
220
0.0
230
1.0
 70
    27
 71
     3
 72
    11
 73
     7
 74
     0
 42
0.0000000001
 43
0.0000000001
 12
1.0
 22
0.0
 32
0.0
 13
1.0
 23
0.0
 33
0.0
 40
0.0
 40
0.0
 40
0.0
 40
0.0
 40
1.0
 40
1.0
 40
1.0
 40
2.0
 40
2.0
 40
2.0
 40
2.0
 10
238.4570964716697
 20
-375.4559277775134
 30
0.0
 10
238.4570964716697
 20
-375.4559277775134
 30
0.0
 10
244.1015057156318
 20
-365.6795097712798
 30
0.0
 10
244.1015057156318
 20
-365.6795097712798
 30
0.0
 10
244.1015057156318
 20
-365.6795097712798
 30
0.0
 10
238.4570964716697
 20
-375.4559277775134
 30
0.0
 10
238.4570964716697
 20
-375.4559277775134
 30
0.0
  0
INSERT
  5
A7
330
1F
100
AcDbEntity
  8
OneCircle
100
AcDbBlockReference
  2
block 16
 10
0.0
 20
0.0
 30
0.0
  0
INSERT
  5
AE
330
1F
100
AcDbEntity
  8
OneCircle
100
AcDbBlockReference
  2
block 17
 10
0.0
 20
0.0
 30
0.0
  0
INSERT
  5
B4
330
1F
100
AcDbEntity
  8
OneCircle
100
AcDbBlockReference
  2
block 18
 10
0.0
 20
0.0
 30
0.0
  0
SPLINE
  5
C5
330
1F
100
AcDbEntity
  8
OneCircle
 62
     7
420
 16777215
370
    35
100
AcDbSpline
210
0.0
220
0.0
230
1.0
 70
    27
 71
     3
 72
    11
 73
     7
 74
     0
 42
0.0000000001
 43
0.0000000001
 12
1.0
 22
0.0
 32
0.0
 13
1.0
 23
0.0
 33
0.0
 40
0.0
 40
0.0
 40
0.0
 40
0.0
 40
1.0
 40
1.0
 40
1.0
 40
2.0
 40
2.0
 40
2.0
 40
2.0
 10
422.2086344770068
 20
-374.8431606870464
 30
0.0
 10
422.2086344770068
 20
-374.8431606870464
 30
0.0
 10
427.8530803746345
 20
-365.0667006505262
 30
0.0
 10
427.8530803746345
 20
-365.0667006505262
 30
0.0
 10
427.8530803746345
 20
-365.0667006505262
 30
0.0
 10
422.2086344770068
 20
-374.8431606870464
 30
0.0
 10
422.2086344770068
 20
-374.8431606870464
 30
0.0
  0
SPLINE
  5
C6
330
1F
100
AcDbEntity
  8
OneCircle
 62
     7
420
 16777215
370
    35
100
AcDbSpline
210
0.0
220
0.0
230
1.0
 70
     8
 71
     3
 72
    59
 73
    55
 74
     0
 42
0.0000000001
 43
0.0000000001
 12
1.0
 22
0.0
 32
0.0
 13
1.0
 23
0.0
 33
0.0
 40
0.0
 40
0.0
 40
0.0
 40
0.0
 40
1.0
 40
1.0
 40
1.0
 40
2.0
 40
2.0
 40
2.0
 40
3.0
 40
3.0
 40
3.0
 40
4.0
 40
4.0
 40
4.0
 40
5.0
 40
5.0
 40
5.0
 40
6.0
 40
6.0
 40
6.0
 40
7.0
 40
7.0
 40
7.0
 40
8.0
 40
8.0
 40
8.0
 40
9.0
 40
9.0
 40
9.0
 40
10.0
 40
10.0
 40
10.0
 40
11.0
 40
11.0
 40
11.0
 40
12.0
 40
12.0
 40
12.0
 40
13.0
 40
13.0
 40
13.0
 40
14.0
 40
14.0
 40
14.0
 40
15.0
 40
15.0
 40
15.0
 40
16.0
 40
16.0
 40
16.0
 40
17.0
 40
17.0
 40
17.0
 40
18.0
 40
18.0
 40
18.0
 40
18.0
 10
423.9031051280987
 20
-362.7861846554102
 30
0.0
 10
423.9031051280987
 20
-362.7861846554102
 30
0.0
 10
438.7611075427601
 20
-336.9713839012156
 30
0.0
 10
438.7611075427601
 20
-336.9713839012156
 30
0.0
 10
416.6697026581917
 20
-336.9713839012156
 30
0.0
 10
398.761101856145
 20
-354.8799985379022
 30
0.0
 10
398.761101856145
 20
-376.9713689715088
 30
0.0
 10
398.761101856145
 20
-384.2742153612024
 30
0.0
 10
400.7277351207074
 20
-391.1137651906493
 30
0.0
 10
404.1459597420621
 20
-397.0066025367749
 30
0.0
 10
404.1459597420621
 20
-397.0066025367749
 30
0.0
 10
418.2586592304671
 20
-372.5626446919343
 30
0.0
 10
418.2586592304671
 20
-372.5626446919343
 30
0.0
 10
418.2586592304671
 20
-372.5626446919343
 30
0.0
 10
404.1459597420621
 20
-397.0066025367749
 30
0.0
 10
404.1459597420621
 20
-397.0066025367749
 30
0.0
 10
404.1546069339591
 20
-397.0214853531096
 30
0.0
 10
404.1630129691097
 20
-397.0365059732952
 30
0.0
 10
404.1716946119686
 20
-397.0513887896261
 30
0.0
 10
404.1716946119686
 20
-397.0513887896261
 30
0.0
 10
433.116670868222
 20
-397.0513887896261
 30
0.0
 10
433.116670868222
 20
-397.0513887896261
 30
0.0
 10
433.116670868222
 20
-397.0513887896261
 30
0.0
 10
404.1716946119686
 20
-397.0513887896261
 30
0.0
 10
404.1716946119686
 20
-397.0513887896261
 30
0.0
 10
411.1000590259136
 20
-408.9599156185433
 30
0.0
 10
423.9910239875378
 20
-416.9713838812135
 30
0.0
 10
438.7611167658529
 20
-416.9713838812135
 30
0.0
 10
453.531175093203
 20
-416.9713838812135
 30
0.0
 10
466.4221745057929
 20
-408.9599156185433
 30
0.0
 10
473.350538919734
 20
-397.0513887896261
 30
0.0
 10
473.350538919734
 20
-397.0513887896261
 30
0.0
 10
444.4055626634813
 20
-397.0513887896261
 30
0.0
 10
444.4055626634813
 20
-397.0513887896261
 30
0.0
 10
444.4055626634813
 20
-397.0513887896261
 30
0.0
 10
473.350538919734
 20
-397.0513887896261
 30
0.0
 10
473.350538919734
 20
-397.0513887896261
 30
0.0
 10
473.3592205625968
 20
-397.0365059732952
 30
0.0
 10
473.3676265977467
 20
-397.0214853531096
 30
0.0
 10
473.3762737896405
 20
-397.0066025367749
 30
0.0
 10
473.3762737896405
 20
-397.0066025367749
 30
0.0
 10
458.6512428718895
 20
-371.5021062244476
 30
0.0
 10
458.6512428718895
 20
-371.5021062244476
 30
0.0
 10
458.6512428718895
 20
-371.5021062244476
 30
0.0
 10
473.3762737896405
 20
-397.0066025367749
 30
0.0
 10
473.3762737896405
 20
-397.0066025367749
 30
0.0
 10
476.7944984109952
 20
-391.1137651906493
 30
0.0
 10
478.7611316755614
 20
-384.2742153612024
 30
0.0
 10
478.7611316755614
 20
-376.9713689715088
 30
0.0
 10
478.7611316755614
 20
-354.8799985379022
 30
0.0
 10
460.8524779763641
 20
-336.9713839012156
 30
0.0
 10
438.7611075427601
 20
-336.9713839012156
 30
0.0
 10
438.7611075427601
 20
-336.9713839012156
 30
0.0
 10
453.0067969742579
 20
-361.7256461879273
 30
0.0
 10
453.0067969742579
 20
-361.7256461879273
 30
0.0
  0
SPLINE
  5
C7
330
1F
100
AcDbEntity
  8
OneCircle
 62
     7
420
 16777215
370
    35
100
AcDbSpline
210
0.0
220
0.0
230
1.0
 70
    27
 71
     3
 72
    11
 73
     7
 74
     0
 42
0.0000000001
 43
0.0000000001
 12
1.0
 22
0.0
 32
0.0
 13
1.0
 23
0.0
 33
0.0
 40
0.0
 40
0.0
 40
0.0
 40
0.0
 40
1.0
 40
1.0
 40
1.0
 40
2.0
 40
2.0
 40
2.0
 40
2.0
 10
448.7517928948491
 20
-364.1822755096338
 30
0.0
 10
448.7517928948491
 20
-364.1822755096338
 30
0.0
 10
454.39623879248
 20
-373.958735546154
 30
0.0
 10
454.39623879248
 20
-373.958735546154
 30
0.0
 10
454.39623879248
 20
-373.958735546154
 30
0.0
 10
448.7517928948491
 20
-364.1822755096338
 30
0.0
 10
448.7517928948491
 20
-364.1822755096338
 30
0.0
  0
SPLINE
  5
C8
330
1F
100
AcDbEntity
  8
OneCircle
 62
     7
420
 16777215
370
    35
100
AcDbSpline
210
0.0
220
0.0
230
1.0
 70
    27
 71
     3
 72
    11
 73
     7
 74
     0
 42
0.0000000001
 43
0.0000000001
 12
1.0
 22
0.0
 32
0.0
 13
1.0
 23
0.0
 33
0.0
 40
0.0
 40
0.0
 40
0.0
 40
0.0
 40
1.0
 40
1.0
 40
1.0
 40
2.0
 40
2.0
 40
2.0
 40
2.0
 10
301.2058567294791
 20
-212.5653829498387
 30
0.0
 10
301.2058567294791
 20
-212.5653829498387
 30
0.0
 10
306.8503026271088
 20
-202.7889229133178
 30
0.0
 10
306.8503026271088
 20
-202.7889229133178
 30
0.0
 10
306.8503026271088
 20
-202.7889229133178
 30
0.0
 10
301.2058567294791
 20
-212.5653829498387
 30
0.0
 10
301.2058567294791
 20
-212.5653829498387
 30
0.0
  0
SPLINE
  5
C9
330
1F
100
AcDbEntity
  8
OneCircle
 62
     7
420
 16777215
370
    35
100
AcDbSpline
210
0.0
220
0.0
230
1.0
 70
     8
 71
     3
 72
    59
 73
    55
 74
     0
 42
0.0000000001
 43
0.0000000001
 12
1.0
 22
0.0
 32
0.0
 13
1.0
 23
0.0
 33
0.0
 40
0.0
 40
0.0
 40
0.0
 40
0.0
 40
1.0
 40
1.0
 40
1.0
 40
2.0
 40
2.0
 40
2.0
 40
3.0
 40
3.0
 40
3.0
 40
4.0
 40
4.0
 40
4.0
 40
5.0
 40
5.0
 40
5.0
 40
6.0
 40
6.0
 40
6.0
 40
7.0
 40
7.0
 40
7.0
 40
8.0
 40
8.0
 40
8.0
 40
9.0
 40
9.0
 40
9.0
 40
10.0
 40
10.0
 40
10.0
 40
11.0
 40
11.0
 40
11.0
 40
12.0
 40
12.0
 40
12.0
 40
13.0
 40
13.0
 40
13.0
 40
14.0
 40
14.0
 40
14.0
 40
15.0
 40
15.0
 40
15.0
 40
16.0
 40
16.0
 40
16.0
 40
17.0
 40
17.0
 40
17.0
 40
18.0
 40
18.0
 40
18.0
 40
18.0
 10
302.9003273805716
 20
-200.5084069182041
 30
0.0
 10
302.9003273805716
 20
-200.5084069182041
 30
0.0
 10
317.7583297952324
 20
-174.6936061640072
 30
0.0
 10
317.7583297952324
 20
-174.6936061640072
 30
0.0
 10
295.6669249106627
 20
-174.6936061640072
 30
0.0
 10
277.758324108616
 20
-192.6022208006932
 30
0.0
 10
277.758324108616
 20
-214.6935912342991
 30
0.0
 10
277.758324108616
 20
-221.9964376239947
 30
0.0
 10
279.7249573731809
 20
-228.8359874534403
 30
0.0
 10
283.1431819945356
 20
-234.7288247995679
 30
0.0
 10
283.1431819945356
 20
-234.7288247995679
 30
0.0
 10
297.2558814829413
 20
-210.284866954725
 30
0.0
 10
297.2558814829413
 20
-210.284866954725
 30
0.0
 10
297.2558814829413
 20
-210.284866954725
 30
0.0
 10
283.1431819945356
 20
-234.7288247995679
 30
0.0
 10
283.1431819945356
 20
-234.7288247995679
 30
0.0
 10
283.1518291864321
 20
-234.7437076158993
 30
0.0
 10
283.160235221582
 20
-234.7587282360863
 30
0.0
 10
283.1689168644427
 20
-234.7736110524177
 30
0.0
 10
283.1689168644427
 20
-234.7736110524177
 30
0.0
 10
312.1138931206962
 20
-234.7736110524177
 30
0.0
 10
312.1138931206962
 20
-234.7736110524177
 30
0.0
 10
312.1138931206962
 20
-234.7736110524177
 30
0.0
 10
283.1689168644427
 20
-234.7736110524177
 30
0.0
 10
283.1689168644427
 20
-234.7736110524177
 30
0.0
 10
290.0972812783859
 20
-246.6821378813362
 30
0.0
 10
302.988246240012
 20
-254.693606144007
 30
0.0
 10
317.7583390183258
 20
-254.693606144007
 30
0.0
 10
332.5283973456753
 20
-254.693606144007
 30
0.0
 10
345.4193967582645
 20
-246.6821378813362
 30
0.0
 10
352.3477611722076
 20
-234.7736110524177
 30
0.0
 10
352.3477611722076
 20
-234.7736110524177
 30
0.0
 10
323.4027849159555
 20
-234.7736110524177
 30
0.0
 10
323.4027849159555
 20
-234.7736110524177
 30
0.0
 10
323.4027849159555
 20
-234.7736110524177
 30
0.0
 10
352.3477611722076
 20
-234.7736110524177
 30
0.0
 10
352.3477611722076
 20
-234.7736110524177
 30
0.0
 10
352.3564428150684
 20
-234.7587282360863
 30
0.0
 10
352.3648488502183
 20
-234.7437076158993
 30
0.0
 10
352.3734960421148
 20
-234.7288247995679
 30
0.0
 10
352.3734960421148
 20
-234.7288247995679
 30
0.0
 10
337.6484651243611
 20
-209.2243284872399
 30
0.0
 10
337.6484651243611
 20
-209.2243284872399
 30
0.0
 10
337.6484651243611
 20
-209.2243284872399
 30
0.0
 10
352.3734960421148
 20
-234.7288247995679
 30
0.0
 10
352.3734960421148
 20
-234.7288247995679
 30
0.0
 10
355.7917206634681
 20
-228.8359874534403
 30
0.0
 10
357.7583539280344
 20
-221.9964376239947
 30
0.0
 10
357.7583539280344
 20
-214.6935912342991
 30
0.0
 10
357.7583539280344
 20
-192.6022208006932
 30
0.0
 10
339.8497002288377
 20
-174.6936061640072
 30
0.0
 10
317.7583297952324
 20
-174.6936061640072
 30
0.0
 10
317.7583297952324
 20
-174.6936061640072
 30
0.0
 10
332.0040192267308
 20
-199.4478684507196
 30
0.0
 10
332.0040192267308
 20
-199.4478684507196
 30
0.0
  0
SPLINE
  5
CA
330
1F
100
AcDbEntity
  8
OneCircle
 62
     7
420
 16777215
370
    35
100
AcDbSpline
210
0.0
220
0.0
230
1.0
 70
    27
 71
     3
 72
    11
 73
     7
 74
     0
 42
0.0000000001
 43
0.0000000001
 12
1.0
 22
0.0
 32
0.0
 13
1.0
 23
0.0
 33
0.0
 40
0.0
 40
0.0
 40
0.0
 40
0.0
 40
1.0
 40
1.0
 40
1.0
 40
2.0
 40
2.0
 40
2.0
 40
2.0
 10
327.7490151473226
 20
-201.9044977724248
 30
0.0
 10
327.7490151473226
 20
-201.9044977724248
 30
0.0
 10
333.3934610449517
 20
-211.6809578089457
 30
0.0
 10
333.3934610449517
 20
-211.6809578089457
 30
0.0
 10
333.3934610449517
 20
-211.6809578089457
 30
0.0
 10
327.7490151473226
 20
-201.9044977724248
 30
0.0
 10
327.7490151473226
 20
-201.9044977724248
 30
0.0
  0
SPLINE
  5
CB
330
1F
100
AcDbEntity
  8
OneCircle
 62
     7
420
 16777215
370
    35
100
AcDbSpline
210
0.0
220
0.0
230
1.0
 70
    27
 71
     3
 72
    11
 73
     7
 74
     0
 42
0.0000000001
 43
0.0000000001
 12
1.0
 22
0.0
 32
0.0
 13
1.0
 23
0.0
 33
0.0
 40
0.0
 40
0.0
 40
0.0
 40
0.0
 40
1.0
 40
1.0
 40
1.0
 40
2.0
 40
2.0
 40
2.0
 40
2.0
 10
224.6530789708395
 20
-181.1681607354658
 30
0.0
 10
224.6530789708395
 20
-181.1681607354658
 30
0.0
 10
230.2975248684692
 20
-171.3917006989449
 30
0.0
 10
230.2975248684692
 20
-171.3917006989449
 30
0.0
 10
230.2975248684692
 20
-171.3917006989449
 30
0.0
 10
224.6530789708395
 20
-181.1681607354658
 30
0.0
 10
224.6530789708395
 20
-181.1681607354658
 30
0.0
  0
SPLINE
  5
CC
330
1F
100
AcDbEntity
  8
OneCircle
 62
     7
420
 16777215
370
    35
100
AcDbSpline
210
0.0
220
0.0
230
1.0
 70
     8
 71
     3
 72
    59
 73
    55
 74
     0
 42
0.0000000001
 43
0.0000000001
 12
1.0
 22
0.0
 32
0.0
 13
1.0
 23
0.0
 33
0.0
 40
0.0
 40
0.0
 40
0.0
 40
0.0
 40
1.0
 40
1.0
 40
1.0
 40
2.0
 40
2.0
 40
2.0
 40
3.0
 40
3.0
 40
3.0
 40
4.0
 40
4.0
 40
4.0
 40
5.0
 40
5.0
 40
5.0
 40
6.0
 40
6.0
 40
6.0
 40
7.0
 40
7.0
 40
7.0
 40
8.0
 40
8.0
 40
8.0
 40
9.0
 40
9.0
 40
9.0
 40
10.0
 40
10.0
 40
10.0
 40
11.0
 40
11.0
 40
11.0
 40
12.0
 40
12.0
 40
12.0
 40
13.0
 40
13.0
 40
13.0
 40
14.0
 40
14.0
 40
14.0
 40
15.0
 40
15.0
 40
15.0
 40
16.0
 40
16.0
 40
16.0
 40
17.0
 40
17.0
 40
17.0
 40
18.0
 40
18.0
 40
18.0
 40
18.0
 10
226.347549621932
 20
-169.1111847038309
 30
0.0
 10
226.347549621932
 20
-169.1111847038309
 30
0.0
 10
241.2055520365928
 20
-143.2963839496343
 30
0.0
 10
241.2055520365928
 20
-143.2963839496343
 30
0.0
 10
219.1141471520232
 20
-143.2963839496343
 30
0.0
 10
201.2055463499764
 20
-161.2049985863203
 30
0.0
 10
201.2055463499764
 20
-183.2963690199262
 30
0.0
 10
201.2055463499764
 20
-190.5992154096217
 30
0.0
 10
203.1721796145413
 20
-197.4387652390674
 30
0.0
 10
206.590404235896
 20
-203.331602585195
 30
0.0
 10
206.590404235896
 20
-203.331602585195
 30
0.0
 10
220.7031037243017
 20
-178.8876447403518
 30
0.0
 10
220.7031037243017
 20
-178.8876447403518
 30
0.0
 10
220.7031037243017
 20
-178.8876447403518
 30
0.0
 10
206.590404235896
 20
-203.331602585195
 30
0.0
 10
206.590404235896
 20
-203.331602585195
 30
0.0
 10
206.5990514277925
 20
-203.3464854015264
 30
0.0
 10
206.6074574629424
 20
-203.3615060217134
 30
0.0
 10
206.6161391058032
 20
-203.3763888380448
 30
0.0
 10
206.6161391058032
 20
-203.3763888380448
 30
0.0
 10
235.5611153620566
 20
-203.3763888380448
 30
0.0
 10
235.5611153620566
 20
-203.3763888380448
 30
0.0
 10
235.5611153620566
 20
-203.3763888380448
 30
0.0
 10
206.6161391058032
 20
-203.3763888380448
 30
0.0
 10
206.6161391058032
 20
-203.3763888380448
 30
0.0
 10
213.5445035197463
 20
-215.2849156669633
 30
0.0
 10
226.4354684813724
 20
-223.2963839296341
 30
0.0
 10
241.2055612596862
 20
-223.2963839296341
 30
0.0
 10
255.9756195870357
 20
-223.2963839296341
 30
0.0
 10
268.8666189996249
 20
-215.2849156669633
 30
0.0
 10
275.794983413568
 20
-203.3763888380448
 30
0.0
 10
275.794983413568
 20
-203.3763888380448
 30
0.0
 10
246.8500071573159
 20
-203.3763888380448
 30
0.0
 10
246.8500071573159
 20
-203.3763888380448
 30
0.0
 10
246.8500071573159
 20
-203.3763888380448
 30
0.0
 10
275.794983413568
 20
-203.3763888380448
 30
0.0
 10
275.794983413568
 20
-203.3763888380448
 30
0.0
 10
275.8036650564288
 20
-203.3615060217134
 30
0.0
 10
275.8120710915787
 20
-203.3464854015264
 30
0.0
 10
275.8207182834752
 20
-203.331602585195
 30
0.0
 10
275.8207182834752
 20
-203.331602585195
 30
0.0
 10
261.0956873657215
 20
-177.827106272867
 30
0.0
 10
261.0956873657215
 20
-177.827106272867
 30
0.0
 10
261.0956873657215
 20
-177.827106272867
 30
0.0
 10
275.8207182834752
 20
-203.331602585195
 30
0.0
 10
275.8207182834752
 20
-203.331602585195
 30
0.0
 10
279.2389429048299
 20
-197.4387652390674
 30
0.0
 10
281.2055761693948
 20
-190.5992154096217
 30
0.0
 10
281.2055761693948
 20
-183.2963690199262
 30
0.0
 10
281.2055761693948
 20
-161.2049985863203
 30
0.0
 10
263.2969224701981
 20
-143.2963839496343
 30
0.0
 10
241.2055520365928
 20
-143.2963839496343
 30
0.0
 10
241.2055520365928
 20
-143.2963839496343
 30
0.0
 10
255.4512414680912
 20
-168.0506462363467
 30
0.0
 10
255.4512414680912
 20
-168.0506462363467
 30
0.0
  0
SPLINE
  5
CD
330
1F
100
AcDbEntity
  8
OneCircle
 62
     7
420
 16777215
370
    35
100
AcDbSpline
210
0.0
220
0.0
230
1.0
 70
    27
 71
     3
 72
    11
 73
     7
 74
     0
 42
0.0000000001
 43
0.0000000001
 12
1.0
 22
0.0
 32
0.0
 13
1.0
 23
0.0
 33
0.0
 40
0.0
 40
0.0
 40
0.0
 40
0.0
 40
1.0
 40
1.0
 40
1.0
 40
2.0
 40
2.0
 40
2.0
 40
2.0
 10
251.196237388683
 20
-170.5072755580522
 30
0.0
 10
251.196237388683
 20
-170.5072755580522
 30
0.0
 10
256.8406832863121
 20
-180.2837355945731
 30
0.0
 10
256.8406832863121
 20
-180.2837355945731
 30
0.0
 10
256.8406832863121
 20
-180.2837355945731
 30
0.0
 10
251.196237388683
 20
-170.5072755580522
 30
0.0
 10
251.196237388683
 20
-170.5072755580522
 30
0.0
  0
SPLINE
  5
CE
330
1F
100
AcDbEntity
  8
OneCircle
 62
     7
420
 16777215
370
    35
100
AcDbSpline
210
0.0
220
0.0
230
1.0
 70
    27
 71
     3
 72
    11
 73
     7
 74
     0
 42
0.0000000001
 43
0.0000000001
 12
1.0
 22
0.0
 32
0.0
 13
1.0
 23
0.0
 33
0.0
 40
0.0
 40
0.0
 40
0.0
 40
0.0
 40
1.0
 40
1.0
 40
1.0
 40
2.0
 40
2.0
 40
2.0
 40
2.0
 10
151.9808567667853
 20
-219.97371628132
 30
0.0
 10
151.9808567667853
 20
-219.97371628132
 30
0.0
 10
157.625302664415
 20
-210.1972562447991
 30
0.0
 10
157.625302664415
 20
-210.1972562447991
 30
0.0
 10
157.625302664415
 20
-210.1972562447991
 30
0.0
 10
151.9808567667853
 20
-219.97371628132
 30
0.0
 10
151.9808567667853
 20
-219.97371628132
 30
0.0
  0
SPLINE
  5
CF
330
1F
100
AcDbEntity
  8
OneCircle
 62
     7
420
 16777215
370
    35
100
AcDbSpline
210
0.0
220
0.0
230
1.0
 70
     8
 71
     3
 72
    59
 73
    55
 74
     0
 42
0.0000000001
 43
0.0000000001
 12
1.0
 22
0.0
 32
0.0
 13
1.0
 23
0.0
 33
0.0
 40
0.0
 40
0.0
 40
0.0
 40
0.0
 40
1.0
 40
1.0
 40
1.0
 40
2.0
 40
2.0
 40
2.0
 40
3.0
 40
3.0
 40
3.0
 40
4.0
 40
4.0
 40
4.0
 40
5.0
 40
5.0
 40
5.0
 40
6.0
 40
6.0
 40
6.0
 40
7.0
 40
7.0
 40
7.0
 40
8.0
 40
8.0
 40
8.0
 40
9.0
 40
9.0
 40
9.0
 40
10.0
 40
10.0
 40
10.0
 40
11.0
 40
11.0
 40
11.0
 40
12.0
 40
12.0
 40
12.0
 40
13.0
 40
13.0
 40
13.0
 40
14.0
 40
14.0
 40
14.0
 40
15.0
 40
15.0
 40
15.0
 40
16.0
 40
16.0
 40
16.0
 40
17.0
 40
17.0
 40
17.0
 40
18.0
 40
18.0
 40
18.0
 40
18.0
 10
153.6753274178778
 20
-207.9167402496854
 30
0.0
 10
153.6753274178778
 20
-207.9167402496854
 30
0.0
 10
168.5333298325386
 20
-182.1019394954885
 30
0.0
 10
168.5333298325386
 20
-182.1019394954885
 30
0.0
 10
146.441924947969
 20
-182.1019394954885
 30
0.0
 10
128.5333241459223
 20
-200.0105541321744
 30
0.0
 10
128.5333241459223
 20
-222.1019245657804
 30
0.0
 10
128.5333241459223
 20
-229.4047709554759
 30
0.0
 10
130.4999574104872
 20
-236.2443207849215
 30
0.0
 10
133.9181820318418
 20
-242.1371581310491
 30
0.0
 10
133.9181820318418
 20
-242.1371581310491
 30
0.0
 10
148.0308815202475
 20
-217.6932002862063
 30
0.0
 10
148.0308815202475
 20
-217.6932002862063
 30
0.0
 10
148.0308815202475
 20
-217.6932002862063
 30
0.0
 10
133.9181820318418
 20
-242.1371581310491
 30
0.0
 10
133.9181820318418
 20
-242.1371581310491
 30
0.0
 10
133.9268292237383
 20
-242.1520409473806
 30
0.0
 10
133.9352352588882
 20
-242.1670615675675
 30
0.0
 10
133.943916901749
 20
-242.181944383899
 30
0.0
 10
133.943916901749
 20
-242.181944383899
 30
0.0
 10
162.8888931580024
 20
-242.181944383899
 30
0.0
 10
162.8888931580024
 20
-242.181944383899
 30
0.0
 10
162.8888931580024
 20
-242.181944383899
 30
0.0
 10
133.943916901749
 20
-242.181944383899
 30
0.0
 10
133.943916901749
 20
-242.181944383899
 30
0.0
 10
140.8722813156921
 20
-254.0904712128175
 30
0.0
 10
153.7632462773182
 20
-262.1019394754883
 30
0.0
 10
168.5333390556321
 20
-262.1019394754883
 30
0.0
 10
183.3033973829816
 20
-262.1019394754883
 30
0.0
 10
196.1943967955707
 20
-254.0904712128175
 30
0.0
 10
203.1227612095139
 20
-242.181944383899
 30
0.0
 10
203.1227612095139
 20
-242.181944383899
 30
0.0
 10
174.1777849532621
 20
-242.181944383899
 30
0.0
 10
174.1777849532621
 20
-242.181944383899
 30
0.0
 10
174.1777849532621
 20
-242.181944383899
 30
0.0
 10
203.1227612095139
 20
-242.181944383899
 30
0.0
 10
203.1227612095139
 20
-242.181944383899
 30
0.0
 10
203.1314428523747
 20
-242.1670615675675
 30
0.0
 10
203.1398488875246
 20
-242.1520409473806
 30
0.0
 10
203.148496079421
 20
-242.1371581310491
 30
0.0
 10
203.148496079421
 20
-242.1371581310491
 30
0.0
 10
188.4234651616673
 20
-216.6326618187211
 30
0.0
 10
188.4234651616673
 20
-216.6326618187211
 30
0.0
 10
188.4234651616673
 20
-216.6326618187211
 30
0.0
 10
203.148496079421
 20
-242.1371581310491
 30
0.0
 10
203.148496079421
 20
-242.1371581310491
 30
0.0
 10
206.5667207007757
 20
-236.2443207849215
 30
0.0
 10
208.5333539653406
 20
-229.4047709554759
 30
0.0
 10
208.5333539653406
 20
-222.1019245657804
 30
0.0
 10
208.5333539653406
 20
-200.0105541321744
 30
0.0
 10
190.6247002661439
 20
-182.1019394954885
 30
0.0
 10
168.5333298325386
 20
-182.1019394954885
 30
0.0
 10
168.5333298325386
 20
-182.1019394954885
 30
0.0
 10
182.779019264037
 20
-206.8562017822009
 30
0.0
 10
182.779019264037
 20
-206.8562017822009
 30
0.0
  0
SPLINE
  5
D0
330
1F
100
AcDbEntity
  8
OneCircle
 62
     7
420
 16777215
370
    35
100
AcDbSpline
210
0.0
220
0.0
230
1.0
 70
    27
 71
     3
 72
    11
 73
     7
 74
     0
 42
0.0000000001
 43
0.0000000001
 12
1.0
 22
0.0
 32
0.0
 13
1.0
 23
0.0
 33
0.0
 40
0.0
 40
0.0
 40
0.0
 40
0.0
 40
1.0
 40
1.0
 40
1.0
 40
2.0
 40
2.0
 40
2.0
 40
2.0
 10
178.5240151846289
 20
-209.312831103906
 30
0.0
 10
178.5240151846289
 20
-209.312831103906
 30
0.0
 10
184.1684610822579
 20
-219.0892911404269
 30
0.0
 10
184.1684610822579
 20
-219.0892911404269
 30
0.0
 10
184.1684610822579
 20
-219.0892911404269
 30
0.0
 10
178.5240151846289
 20
-209.312831103906
 30
0.0
 10
178.5240151846289
 20
-209.312831103906
 30
0.0
  0
SPLINE
  5
D1
330
1F
100
AcDbEntity
  8
OneCircle
 62
     7
420
 16777215
370
    35
100
AcDbSpline
210
0.0
220
0.0
230
1.0
 70
    27
 71
     3
 72
    11
 73
     7
 74
     0
 42
0.0000000001
 43
0.0000000001
 12
1.0
 22
0.0
 32
0.0
 13
1.0
 23
0.0
 33
0.0
 40
0.0
 40
0.0
 40
0.0
 40
0.0
 40
1.0
 40
1.0
 40
1.0
 40
2.0
 40
2.0
 40
2.0
 40
2.0
 10
24.98085679853533
 20
-263.3653829371387
 30
0.0
 10
24.98085679853533
 20
-263.3653829371387
 30
0.0
 10
30.62530269616499
 20
-253.5889229006178
 30
0.0
 10
30.62530269616499
 20
-253.5889229006178
 30
0.0
 10
30.62530269616499
 20
-253.5889229006178
 30
0.0
 10
24.98085679853533
 20
-263.3653829371387
 30
0.0
 10
24.98085679853533
 20
-263.3653829371387
 30
0.0
  0
SPLINE
  5
D2
330
1F
100
AcDbEntity
  8
OneCircle
 62
     7
420
 16777215
370
    35
100
AcDbSpline
210
0.0
220
0.0
230
1.0
 70
     8
 71
     3
 72
    59
 73
    55
 74
     0
 42
0.0000000001
 43
0.0000000001
 12
1.0
 22
0.0
 32
0.0
 13
1.0
 23
0.0
 33
0.0
 40
0.0
 40
0.0
 40
0.0
 40
0.0
 40
1.0
 40
1.0
 40
1.0
 40
2.0
 40
2.0
 40
2.0
 40
3.0
 40
3.0
 40
3.0
 40
4.0
 40
4.0
 40
4.0
 40
5.0
 40
5.0
 40
5.0
 40
6.0
 40
6.0
 40
6.0
 40
7.0
 40
7.0
 40
7.0
 40
8.0
 40
8.0
 40
8.0
 40
9.0
 40
9.0
 40
9.0
 40
10.0
 40
10.0
 40
10.0
 40
11.0
 40
11.0
 40
11.0
 40
12.0
 40
12.0
 40
12.0
 40
13.0
 40
13.0
 40
13.0
 40
14.0
 40
14.0
 40
14.0
 40
15.0
 40
15.0
 40
15.0
 40
16.0
 40
16.0
 40
16.0
 40
17.0
 40
17.0
 40
17.0
 40
18.0
 40
18.0
 40
18.0
 40
18.0
 10
26.67532744962781
 20
-251.3084069055041
 30
0.0
 10
26.67532744962781
 20
-251.3084069055041
 30
0.0
 10
41.53332986428862
 20
-225.4936061513073
 30
0.0
 10
41.53332986428862
 20
-225.4936061513073
 30
0.0
 10
19.44192497971896
 20
-225.4936061513073
 30
0.0
 10
1.53332417767224
 20
-243.4022207879932
 30
0.0
 10
1.53332417767224
 20
-265.4935912215991
 30
0.0
 10
1.53332417767224
 20
-272.7964376112947
 30
0.0
 10
3.49995744223716
 20
-279.6359874407403
 30
0.0
 10
6.918182063591839
 20
-285.5288247868679
 30
0.0
 10
6.918182063591839
 20
-285.5288247868679
 30
0.0
 10
21.03088155199751
 20
-261.084866942025
 30
0.0
 10
21.03088155199751
 20
-261.084866942025
 30
0.0
 10
21.03088155199751
 20
-261.084866942025
 30
0.0
 10
6.918182063591839
 20
-285.5288247868679
 30
0.0
 10
6.918182063591839
 20
-285.5288247868679
 30
0.0
 10
6.926829255488308
 20
-285.5437076031993
 30
0.0
 10
6.935235290638181
 20
-285.5587282233863
 30
0.0
 10
6.943916933499
 20
-285.5736110397177
 30
0.0
 10
6.943916933499
 20
-285.5736110397177
 30
0.0
 10
35.88889318975241
 20
-285.5736110397177
 30
0.0
 10
35.88889318975241
 20
-285.5736110397177
 30
0.0
 10
35.88889318975241
 20
-285.5736110397177
 30
0.0
 10
6.943916933499
 20
-285.5736110397177
 30
0.0
 10
6.943916933499
 20
-285.5736110397177
 30
0.0
 10
13.87228134744212
 20
-297.4821378686362
 30
0.0
 10
26.76324630906824
 20
-305.493606131307
 30
0.0
 10
41.53333908738207
 20
-305.493606131307
 30
0.0
 10
56.30339741473154
 20
-305.493606131307
 30
0.0
 10
69.19439682732073
 20
-297.4821378686362
 30
0.0
 10
76.12276124126385
 20
-285.5736110397177
 30
0.0
 10
76.12276124126385
 20
-285.5736110397177
 30
0.0
 10
47.1777849850114
 20
-285.5736110397177
 30
0.0
 10
47.1777849850114
 20
-285.5736110397177
 30
0.0
 10
47.1777849850114
 20
-285.5736110397177
 30
0.0
 10
76.12276124126385
 20
-285.5736110397177
 30
0.0
 10
76.12276124126385
 20
-285.5736110397177
 30
0.0
 10
76.13144288412467
 20
-285.5587282233863
 30
0.0
 10
76.13984891927454
 20
-285.5437076031993
 30
0.0
 10
76.14849611117101
 20
-285.5288247868679
 30
0.0
 10
76.14849611117101
 20
-285.5288247868679
 30
0.0
 10
61.42346519341734
 20
-260.0243284745399
 30
0.0
 10
61.42346519341734
 20
-260.0243284745399
 30
0.0
 10
61.42346519341734
 20
-260.0243284745399
 30
0.0
 10
76.14849611117101
 20
-285.5288247868679
 30
0.0
 10
76.14849611117101
 20
-285.5288247868679
 30
0.0
 10
79.56672073252568
 20
-279.6359874407403
 30
0.0
 10
81.53335399709061
 20
-272.7964376112947
 30
0.0
 10
81.53335399709061
 20
-265.4935912215991
 30
0.0
 10
81.53335399709061
 20
-243.4022207879932
 30
0.0
 10
63.62470029789392
 20
-225.4936061513073
 30
0.0
 10
41.53332986428862
 20
-225.4936061513073
 30
0.0
 10
41.53332986428862
 20
-225.4936061513073
 30
0.0
 10
55.77901929578704
 20
-250.2478684380196
 30
0.0
 10
55.77901929578704
 20
-250.2478684380196
 30
0.0
  0
SPLINE
  5
D3
330
1F
100
AcDbEntity
  8
OneCircle
 62
     7
420
 16777215
370
    35
100
AcDbSpline
210
0.0
220
0.0
230
1.0
 70
    27
 71
     3
 72
    11
 73
     7
 74
     0
 42
0.0000000001
 43
0.0000000001
 12
1.0
 22
0.0
 32
0.0
 13
1.0
 23
0.0
 33
0.0
 40
0.0
 40
0.0
 40
0.0
 40
0.0
 40
1.0
 40
1.0
 40
1.0
 40
2.0
 40
2.0
 40
2.0
 40
2.0
 10
51.52401521637886
 20
-252.7044977597248
 30
0.0
 10
51.52401521637886
 20
-252.7044977597248
 30
0.0
 10
57.16846111400788
 20
-262.4809577962457
 30
0.0
 10
57.16846111400788
 20
-262.4809577962457
 30
0.0
 10
57.16846111400788
 20
-262.4809577962457
 30
0.0
 10
51.52401521637886
 20
-252.7044977597248
 30
0.0
 10
51.52401521637886
 20
-252.7044977597248
 30
0.0
  0
SPLINE
  5
D4
330
1F
100
AcDbEntity
  8
OneCircle
 62
     7
420
 16777215
370
    35
100
AcDbSpline
210
0.0
220
0.0
230
1.0
 70
    27
 71
     3
 72
    11
 73
     7
 74
     0
 42
0.0000000001
 43
0.0000000001
 12
1.0
 22
0.0
 32
0.0
 13
1.0
 23
0.0
 33
0.0
 40
0.0
 40
0.0
 40
0.0
 40
0.0
 40
1.0
 40
1.0
 40
1.0
 40
2.0
 40
2.0
 40
2.0
 40
2.0
 10
72.95863456431867
 20
-195.6320496207387
 30
0.0
 10
72.95863456431867
 20
-195.6320496207387
 30
0.0
 10
78.60308046194832
 20
-185.8555895842178
 30
0.0
 10
78.60308046194832
 20
-185.8555895842178
 30
0.0
 10
78.60308046194832
 20
-185.8555895842178
 30
0.0
 10
72.95863456431867
 20
-195.6320496207387
 30
0.0
 10
72.95863456431867
 20
-195.6320496207387
 30
0.0
  0
SPLINE
  5
D5
330
1F
100
AcDbEntity
  8
OneCircle
 62
     7
420
 16777215
370
    35
100
AcDbSpline
210
0.0
220
0.0
230
1.0
 70
     8
 71
     3
 72
    59
 73
    55
 74
     0
 42
0.0000000001
 43
0.0000000001
 12
1.0
 22
0.0
 32
0.0
 13
1.0
 23
0.0
 33
0.0
 40
0.0
 40
0.0
 40
0.0
 40
0.0
 40
1.0
 40
1.0
 40
1.0
 40
2.0
 40
2.0
 40
2.0
 40
3.0
 40
3.0
 40
3.0
 40
4.0
 40
4.0
 40
4.0
 40
5.0
 40
5.0
 40
5.0
 40
6.0
 40
6.0
 40
6.0
 40
7.0
 40
7.0
 40
7.0
 40
8.0
 40
8.0
 40
8.0
 40
9.0
 40
9.0
 40
9.0
 40
10.0
 40
10.0
 40
10.0
 40
11.0
 40
11.0
 40
11.0
 40
12.0
 40
12.0
 40
12.0
 40
13.0
 40
13.0
 40
13.0
 40
14.0
 40
14.0
 40
14.0
 40
15.0
 40
15.0
 40
15.0
 40
16.0
 40
16.0
 40
16.0
 40
17.0
 40
17.0
 40
17.0
 40
18.0
 40
18.0
 40
18.0
 40
18.0
 10
74.65310521541114
 20
-183.5750735891038
 30
0.0
 10
74.65310521541114
 20
-183.5750735891038
 30
0.0
 10
89.51110763007195
 20
-157.7602728349073
 30
0.0
 10
89.51110763007195
 20
-157.7602728349073
 30
0.0
 10
67.41970274550229
 20
-157.7602728349073
 30
0.0
 10
49.51110194345558
 20
-175.6688874715932
 30
0.0
 10
49.51110194345558
 20
-197.7602579051991
 30
0.0
 10
49.51110194345558
 20
-205.0631042948947
 30
0.0
 10
51.4777352080205
 20
-211.9026541243403
 30
0.0
 10
54.89595982937517
 20
-217.7954914704679
 30
0.0
 10
54.89595982937517
 20
-217.7954914704679
 30
0.0
 10
69.00865931778084
 20
-193.3515336256247
 30
0.0
 10
69.00865931778084
 20
-193.3515336256247
 30
0.0
 10
69.00865931778084
 20
-193.3515336256247
 30
0.0
 10
54.89595982937517
 20
-217.7954914704679
 30
0.0
 10
54.89595982937517
 20
-217.7954914704679
 30
0.0
 10
54.90460702127164
 20
-217.8103742867993
 30
0.0
 10
54.91301305642152
 20
-217.8253949069862
 30
0.0
 10
54.92169469928233
 20
-217.8402777233177
 30
0.0
 10
54.92169469928233
 20
-217.8402777233177
 30
0.0
 10
83.86667095553574
 20
-217.8402777233177
 30
0.0
 10
83.86667095553574
 20
-217.8402777233177
 30
0.0
 10
83.86667095553574
 20
-217.8402777233177
 30
0.0
 10
54.92169469928233
 20
-217.8402777233177
 30
0.0
 10
54.92169469928233
 20
-217.8402777233177
 30
0.0
 10
61.85005911322545
 20
-229.7488045522363
 30
0.0
 10
74.74102407485158
 20
-237.760272814907
 30
0.0
 10
89.5111168531654
 20
-237.760272814907
 30
0.0
 10
104.2811751805149
 20
-237.760272814907
 30
0.0
 10
117.1721745931041
 20
-229.7488045522363
 30
0.0
 10
124.1005390070472
 20
-217.8402777233177
 30
0.0
 10
124.1005390070472
 20
-217.8402777233177
 30
0.0
 10
95.15556275079538
 20
-217.8402777233177
 30
0.0
 10
95.15556275079538
 20
-217.8402777233177
 30
0.0
 10
95.15556275079538
 20
-217.8402777233177
 30
0.0
 10
124.1005390070472
 20
-217.8402777233177
 30
0.0
 10
124.1005390070472
 20
-217.8402777233177
 30
0.0
 10
124.109220649908
 20
-217.8253949069862
 30
0.0
 10
124.1176266850579
 20
-217.8103742867993
 30
0.0
 10
124.1262738769543
 20
-217.7954914704679
 30
0.0
 10
124.1262738769543
 20
-217.7954914704679
 30
0.0
 10
109.4012429592007
 20
-192.2909951581399
 30
0.0
 10
109.4012429592007
 20
-192.2909951581399
 30
0.0
 10
109.4012429592007
 20
-192.2909951581399
 30
0.0
 10
124.1262738769543
 20
-217.7954914704679
 30
0.0
 10
124.1262738769543
 20
-217.7954914704679
 30
0.0
 10
127.544498498309
 20
-211.9026541243403
 30
0.0
 10
129.5111317628739
 20
-205.0631042948947
 30
0.0
 10
129.5111317628739
 20
-197.7602579051991
 30
0.0
 10
129.5111317628739
 20
-175.6688874715932
 30
0.0
 10
111.6024780636773
 20
-157.7602728349073
 30
0.0
 10
89.51110763007195
 20
-157.7602728349073
 30
0.0
 10
89.51110763007195
 20
-157.7602728349073
 30
0.0
 10
103.7567970615704
 20
-182.5145351216196
 30
0.0
 10
103.7567970615704
 20
-182.5145351216196
 30
0.0
  0
SPLINE
  5
D6
330
1F
100
AcDbEntity
  8
OneCircle
 62
     7
420
 16777215
370
    35
100
AcDbSpline
210
0.0
220
0.0
230
1.0
 70
    27
 71
     3
 72
    11
 73
     7
 74
     0
 42
0.0000000001
 43
0.0000000001
 12
1.0
 22
0.0
 32
0.0
 13
1.0
 23
0.0
 33
0.0
 40
0.0
 40
0.0
 40
0.0
 40
0.0
 40
1.0
 40
1.0
 40
1.0
 40
2.0
 40
2.0
 40
2.0
 40
2.0
 10
99.5017929821622
 20
-184.9711644433248
 30
0.0
 10
99.5017929821622
 20
-184.9711644433248
 30
0.0
 10
105.1462388797912
 20
-194.7476244798457
 30
0.0
 10
105.1462388797912
 20
-194.7476244798457
 30
0.0
 10
105.1462388797912
 20
-194.7476244798457
 30
0.0
 10
99.5017929821622
 20
-184.9711644433248
 30
0.0
 10
99.5017929821622
 20
-184.9711644433248
 30
0.0
  0
SPLINE
  5
D7
330
1F
100
AcDbEntity
  8
OneCircle
 62
     7
420
 16777215
370
    35
100
AcDbSpline
210
0.0
220
0.0
230
1.0
 70
    27
 71
     3
 72
    11
 73
     7
 74
     0
 42
0.0000000001
 43
0.0000000001
 12
1.0
 22
0.0
 32
0.0
 13
1.0
 23
0.0
 33
0.0
 40
0.0
 40
0.0
 40
0.0
 40
0.0
 40
1.0
 40
1.0
 40
1.0
 40
2.0
 40
2.0
 40
2.0
 40
2.0
 10
25.6864123539145
 20
-127.5459385266491
 30
0.0
 10
25.6864123539145
 20
-127.5459385266491
 30
0.0
 10
31.33085825154415
 20
-117.7694784901282
 30
0.0
 10
31.33085825154415
 20
-117.7694784901282
 30
0.0
 10
31.33085825154415
 20
-117.7694784901282
 30
0.0
 10
25.6864123539145
 20
-127.5459385266491
 30
0.0
 10
25.6864123539145
 20
-127.5459385266491
 30
0.0
  0
SPLINE
  5
D8
330
1F
100
AcDbEntity
  8
OneCircle
 62
     7
420
 16777215
370
    35
100
AcDbSpline
210
0.0
220
0.0
230
1.0
 70
     8
 71
     3
 72
    59
 73
    55
 74
     0
 42
0.0000000001
 43
0.0000000001
 12
1.0
 22
0.0
 32
0.0
 13
1.0
 23
0.0
 33
0.0
 40
0.0
 40
0.0
 40
0.0
 40
0.0
 40
1.0
 40
1.0
 40
1.0
 40
2.0
 40
2.0
 40
2.0
 40
3.0
 40
3.0
 40
3.0
 40
4.0
 40
4.0
 40
4.0
 40
5.0
 40
5.0
 40
5.0
 40
6.0
 40
6.0
 40
6.0
 40
7.0
 40
7.0
 40
7.0
 40
8.0
 40
8.0
 40
8.0
 40
9.0
 40
9.0
 40
9.0
 40
10.0
 40
10.0
 40
10.0
 40
11.0
 40
11.0
 40
11.0
 40
12.0
 40
12.0
 40
12.0
 40
13.0
 40
13.0
 40
13.0
 40
14.0
 40
14.0
 40
14.0
 40
15.0
 40
15.0
 40
15.0
 40
16.0
 40
16.0
 40
16.0
 40
17.0
 40
17.0
 40
17.0
 40
18.0
 40
18.0
 40
18.0
 40
18.0
 10
27.38088300500698
 20
-115.4889624950142
 30
0.0
 10
27.38088300500698
 20
-115.4889624950142
 30
0.0
 10
42.23888541966778
 20
-89.67416174081765
 30
0.0
 10
42.23888541966778
 20
-89.67416174081765
 30
0.0
 10
20.14748053509813
 20
-89.67416174081765
 30
0.0
 10
2.238879733051407
 20
-107.5827763775036
 30
0.0
 10
2.238879733051407
 20
-129.6741468111096
 30
0.0
 10
2.238879733051407
 20
-136.9769932008051
 30
0.0
 10
4.205512997616327
 20
-143.8165430302507
 30
0.0
 10
7.623737618971005
 20
-149.7093803763783
 30
0.0
 10
7.623737618971005
 20
-149.7093803763783
 30
0.0
 10
21.73643710737668
 20
-125.2654225315351
 30
0.0
 10
21.73643710737668
 20
-125.2654225315351
 30
0.0
 10
21.73643710737668
 20
-125.2654225315351
 30
0.0
 10
7.623737618971005
 20
-149.7093803763783
 30
0.0
 10
7.623737618971005
 20
-149.7093803763783
 30
0.0
 10
7.632384810867475
 20
-149.7242631927097
 30
0.0
 10
7.640790846017347
 20
-149.7392838128967
 30
0.0
 10
7.649472488878167
 20
-149.7541666292281
 30
0.0
 10
7.649472488878167
 20
-149.7541666292281
 30
0.0
 10
36.59444874513157
 20
-149.7541666292281
 30
0.0
 10
36.59444874513157
 20
-149.7541666292281
 30
0.0
 10
36.59444874513157
 20
-149.7541666292281
 30
0.0
 10
7.649472488878167
 20
-149.7541666292281
 30
0.0
 10
7.649472488878167
 20
-149.7541666292281
 30
0.0
 10
14.57783690282128
 20
-161.6626934581467
 30
0.0
 10
27.4688018644474
 20
-169.6741617208174
 30
0.0
 10
42.23889464276123
 20
-169.6741617208174
 30
0.0
 10
57.00895297011071
 20
-169.6741617208174
 30
0.0
 10
69.8999523826999
 20
-161.6626934581467
 30
0.0
 10
76.82831679664301
 20
-149.7541666292281
 30
0.0
 10
76.82831679664301
 20
-149.7541666292281
 30
0.0
 10
47.88334054039057
 20
-149.7541666292281
 30
0.0
 10
47.88334054039057
 20
-149.7541666292281
 30
0.0
 10
47.88334054039057
 20
-149.7541666292281
 30
0.0
 10
76.82831679664301
 20
-149.7541666292281
 30
0.0
 10
76.82831679664301
 20
-149.7541666292281
 30
0.0
 10
76.83699843950383
 20
-149.7392838128967
 30
0.0
 10
76.8454044746537
 20
-149.7242631927097
 30
0.0
 10
76.85405166655018
 20
-149.7093803763783
 30
0.0
 10
76.85405166655018
 20
-149.7093803763783
 30
0.0
 10
62.1290207487965
 20
-124.2048840640503
 30
0.0
 10
62.1290207487965
 20
-124.2048840640503
 30
0.0
 10
62.1290207487965
 20
-124.2048840640503
 30
0.0
 10
76.85405166655018
 20
-149.7093803763783
 30
0.0
 10
76.85405166655018
 20
-149.7093803763783
 30
0.0
 10
80.27227628790486
 20
-143.8165430302507
 30
0.0
 10
82.23890955246978
 20
-136.9769932008051
 30
0.0
 10
82.23890955246978
 20
-129.6741468111096
 30
0.0
 10
82.23890955246978
 20
-107.5827763775036
 30
0.0
 10
64.33025585327309
 20
-89.67416174081765
 30
0.0
 10
42.23888541966778
 20
-89.67416174081765
 30
0.0
 10
42.23888541966778
 20
-89.67416174081765
 30
0.0
 10
56.4845748511662
 20
-114.42842402753
 30
0.0
 10
56.4845748511662
 20
-114.42842402753
 30
0.0
  0
SPLINE
  5
D9
330
1F
100
AcDbEntity
  8
OneCircle
 62
     7
420
 16777215
370
    35
100
AcDbSpline
210
0.0
220
0.0
230
1.0
 70
    27
 71
     3
 72
    11
 73
     7
 74
     0
 42
0.0000000001
 43
0.0000000001
 12
1.0
 22
0.0
 32
0.0
 13
1.0
 23
0.0
 33
0.0
 40
0.0
 40
0.0
 40
0.0
 40
0.0
 40
1.0
 40
1.0
 40
1.0
 40
2.0
 40
2.0
 40
2.0
 40
2.0
 10
52.22957077175803
 20
-116.8850533492355
 30
0.0
 10
52.22957077175803
 20
-116.8850533492355
 30
0.0
 10
57.87401666938704
 20
-126.6615133857564
 30
0.0
 10
57.87401666938704
 20
-126.6615133857564
 30
0.0
 10
57.87401666938704
 20
-126.6615133857564
 30
0.0
 10
52.22957077175803
 20
-116.8850533492355
 30
0.0
 10
52.22957077175803
 20
-116.8850533492355
 30
0.0
  0
SPLINE
  5
DA
330
1F
100
AcDbEntity
  8
OneCircle
 62
     7
420
 16777215
370
    35
100
AcDbSpline
210
0.0
220
0.0
230
1.0
 70
    27
 71
     3
 72
    11
 73
     7
 74
     0
 42
0.0000000001
 43
0.0000000001
 12
1.0
 22
0.0
 32
0.0
 13
1.0
 23
0.0
 33
0.0
 40
0.0
 40
0.0
 40
0.0
 40
0.0
 40
1.0
 40
1.0
 40
1.0
 40
2.0
 40
2.0
 40
2.0
 40
2.0
 10
57.78919012366659
 20
-50.99316076800953
 30
0.0
 10
57.78919012366659
 20
-50.99316076800953
 30
0.0
 10
63.43363602129624
 20
-41.21670073148863
 30
0.0
 10
63.43363602129624
 20
-41.21670073148863
 30
0.0
 10
63.43363602129624
 20
-41.21670073148863
 30
0.0
 10
57.78919012366659
 20
-50.99316076800953
 30
0.0
 10
57.78919012366659
 20
-50.99316076800953
 30
0.0
  0
SPLINE
  5
DB
330
1F
100
AcDbEntity
  8
OneCircle
 62
     7
420
 16777215
370
    35
100
AcDbSpline
210
0.0
220
0.0
230
1.0
 70
     8
 71
     3
 72
    59
 73
    55
 74
     0
 42
0.0000000001
 43
0.0000000001
 12
1.0
 22
0.0
 32
0.0
 13
1.0
 23
0.0
 33
0.0
 40
0.0
 40
0.0
 40
0.0
 40
0.0
 40
1.0
 40
1.0
 40
1.0
 40
2.0
 40
2.0
 40
2.0
 40
3.0
 40
3.0
 40
3.0
 40
4.0
 40
4.0
 40
4.0
 40
5.0
 40
5.0
 40
5.0
 40
6.0
 40
6.0
 40
6.0
 40
7.0
 40
7.0
 40
7.0
 40
8.0
 40
8.0
 40
8.0
 40
9.0
 40
9.0
 40
9.0
 40
10.0
 40
10.0
 40
10.0
 40
11.0
 40
11.0
 40
11.0
 40
12.0
 40
12.0
 40
12.0
 40
13.0
 40
13.0
 40
13.0
 40
14.0
 40
14.0
 40
14.0
 40
15.0
 40
15.0
 40
15.0
 40
16.0
 40
16.0
 40
16.0
 40
17.0
 40
17.0
 40
17.0
 40
18.0
 40
18.0
 40
18.0
 40
18.0
 10
59.48366077475906
 20
-38.93618473637463
 30
0.0
 10
59.48366077475906
 20
-38.93618473637463
 30
0.0
 10
74.34166318941986
 20
-13.12138398217807
 30
0.0
 10
74.34166318941986
 20
-13.12138398217807
 30
0.0
 10
52.25025830485021
 20
-13.12138398217807
 30
0.0
 10
34.34165750280349
 20
-31.02999861886401
 30
0.0
 10
34.34165750280349
 20
-53.12136905246995
 30
0.0
 10
34.34165750280349
 20
-60.4242154421658
 30
0.0
 10
36.30829076736841
 20
-67.26376527161112
 30
0.0
 10
39.72651538872309
 20
-73.1566026177387
 30
0.0
 10
39.72651538872309
 20
-73.1566026177387
 30
0.0
 10
53.83921487712876
 20
-48.71264477289554
 30
0.0
 10
53.83921487712876
 20
-48.71264477289554
 30
0.0
 10
53.83921487712876
 20
-48.71264477289554
 30
0.0
 10
39.72651538872309
 20
-73.1566026177387
 30
0.0
 10
39.72651538872309
 20
-73.1566026177387
 30
0.0
 10
39.73516258061956
 20
-73.17148543407015
 30
0.0
 10
39.74356861576943
 20
-73.18650605425708
 30
0.0
 10
39.75225025863025
 20
-73.20138887058854
 30
0.0
 10
39.75225025863025
 20
-73.20138887058854
 30
0.0
 10
68.69722651488365
 20
-73.20138887058854
 30
0.0
 10
68.69722651488365
 20
-73.20138887058854
 30
0.0
 10
68.69722651488365
 20
-73.20138887058854
 30
0.0
 10
39.75225025863025
 20
-73.20138887058854
 30
0.0
 10
39.75225025863025
 20
-73.20138887058854
 30
0.0
 10
46.68061467257337
 20
-85.10991569950708
 30
0.0
 10
59.57157963419949
 20
-93.12138396217786
 30
0.0
 10
74.34167241251332
 20
-93.12138396217786
 30
0.0
 10
89.1117307398628
 20
-93.12138396217786
 30
0.0
 10
102.002730152452
 20
-85.10991569950708
 30
0.0
 10
108.9310945663951
 20
-73.20138887058854
 30
0.0
 10
108.9310945663951
 20
-73.20138887058854
 30
0.0
 10
79.9861183101433
 20
-73.20138887058854
 30
0.0
 10
79.9861183101433
 20
-73.20138887058854
 30
0.0
 10
79.9861183101433
 20
-73.20138887058854
 30
0.0
 10
108.9310945663951
 20
-73.20138887058854
 30
0.0
 10
108.9310945663951
 20
-73.20138887058854
 30
0.0
 10
108.9397762092559
 20
-73.18650605425708
 30
0.0
 10
108.9481822444058
 20
-73.17148543407015
 30
0.0
 10
108.9568294363023
 20
-73.1566026177387
 30
0.0
 10
108.9568294363023
 20
-73.1566026177387
 30
0.0
 10
94.23179851854859
 20
-47.6521063054107
 30
0.0
 10
94.23179851854859
 20
-47.6521063054107
 30
0.0
 10
94.23179851854859
 20
-47.6521063054107
 30
0.0
 10
108.9568294363023
 20
-73.1566026177387
 30
0.0
 10
108.9568294363023
 20
-73.1566026177387
 30
0.0
 10
112.3750540576569
 20
-67.26376527161112
 30
0.0
 10
114.3416873222219
 20
-60.4242154421658
 30
0.0
 10
114.3416873222219
 20
-53.12136905246995
 30
0.0
 10
114.3416873222219
 20
-31.02999861886401
 30
0.0
 10
96.43303362302517
 20
-13.12138398217807
 30
0.0
 10
74.34166318941986
 20
-13.12138398217807
 30
0.0
 10
74.34166318941986
 20
-13.12138398217807
 30
0.0
 10
88.58735262091828
 20
-37.87564626889044
 30
0.0
 10
88.58735262091828
 20
-37.87564626889044
 30
0.0
  0
SPLINE
  5
DC
330
1F
100
AcDbEntity
  8
OneCircle
 62
     7
420
 16777215
370
    35
100
AcDbSpline
210
0.0
220
0.0
230
1.0
 70
    27
 71
     3
 72
    11
 73
     7
 74
     0
 42
0.0000000001
 43
0.0000000001
 12
1.0
 22
0.0
 32
0.0
 13
1.0
 23
0.0
 33
0.0
 40
0.0
 40
0.0
 40
0.0
 40
0.0
 40
1.0
 40
1.0
 40
1.0
 40
2.0
 40
2.0
 40
2.0
 40
2.0
 10
84.33234854151011
 20
-40.33227559059592
 30
0.0
 10
84.33234854151011
 20
-40.33227559059592
 30
0.0
 10
89.97679443913913
 20
-50.10873562711682
 30
0.0
 10
89.97679443913913
 20
-50.10873562711682
 30
0.0
 10
89.97679443913913
 20
-50.10873562711682
 30
0.0
 10
84.33234854151011
 20
-40.33227559059592
 30
0.0
 10
84.33234854151011
 20
-40.33227559059592
 30
0.0
  0
ENDSEC
  0
SECTION
  2
OBJECTS
  0
DICTIONARY
  5
C
330
0
100
AcDbDictionary
281
     1
  3
ACAD_GROUP
350
D
  3
ACAD_LAYOUT
350
1A
  3
ACAD_MATERIAL
350
3B
  3
ACAD_MLEADERSTYLE
350
DE
  3
ACAD_MLINESTYLE
350
17
  3
ACAD_PLOTSETTINGS
350
19
  3
ACAD_PLOTSTYLENAME
350
E
  3
ACAD_TABLESTYLE
350
DD
  3
ACAD_VISUALSTYLE
350
2A
  0
SUN
  5
3F
330
29
100
AcDbSun
 90
        1
290
     0
 63
     7
421
 16777215
 40
1.0
291
     1
 91
  2455826
 92
 54000000
292
     0
 70
     2
 71
   256
280
     1
  0
DICTIONARY
  5
D
102
{ACAD_REACTORS
330
C
102
}
330
C
100
AcDbDictionary
281
     1
  0
DICTIONARY
  5
1A
102
{ACAD_REACTORS
330
C
102
}
330
C
100
AcDbDictionary
281
     1
  3
Layout1
350
1E
  3
Layout2
350
26
  3
Model
350
22
  0
DICTIONARY
  5
3B
102
{ACAD_REACTORS
330
C
102
}
330
C
100
AcDbDictionary
281
     1
  3
ByBlock
350
3D
  3
ByLayer
350
3C
  3
Global
350
3E
  0
DICTIONARY
  5
DE
102
{ACAD_REACTORS
330
C
102
}
330
C
100
AcDbDictionary
281
     1
  0
DICTIONARY
  5
17
102
{ACAD_REACTORS
330
C
102
}
330
C
100
AcDbDictionary
281
     1
  3
Standard
350
18
  0
DICTIONARY
  5
19
102
{ACAD_REACTORS
330
C
102
}
330
C
100
AcDbDictionary
281
     1
  0
ACDBDICTIONARYWDFLT
  5
E
102
{ACAD_REACTORS
330
C
102
}
330
C
100
AcDbDictionary
281
     1
  3
Normal
350
F
100
AcDbDictionaryWithDefault
340
F
  0
DICTIONARY
  5
DD
102
{ACAD_REACTORS
330
C
102
}
330
C
100
AcDbDictionary
281
     1
  0
DICTIONARY
  5
2A
102
{ACAD_REACTORS
330
C
102
}
330
C
100
AcDbDictionary
281
     1
  3
2dWireframe
350
2F
  3
3D Hidden
350
31
  3
3dWireframe
350
30
  3
Basic
350
32
  3
Brighten
350
36
  3
ColorChange
350
3A
  3
Conceptual
350
34
  3
Dim
350
35
  3
Facepattern
350
39
  3
Flat
350
2B
  3
FlatWithEdges
350
2C
  3
Gouraud
350
2D
  3
GouraudWithEdges
350
2E
  3
Linepattern
350
38
  3
Realistic
350
33
  3
Thicken
350
37
  0
LAYOUT
  5
1E
102
{ACAD_REACTORS
330
1A
102
}
330
1A
100
AcDbPlotSettings
  1

  2
none_device
  4

  6

 40
0.0
 41
0.0
 42
0.0
 43
0.0
 44
0.0
 45
0.0
 46
0.0
 47
0.0
 48
0.0
 49
0.0
140
0.0
141
0.0
142
1.0
143
1.0
 70
   688
 72
     0
 73
     0
 74
     5
  7

 75
    16
 76
     0
 77
     2
 78
   300
147
1.0
148
0.0
149
0.0
100
AcDbLayout
  1
Layout1
 70
     1
 71
     1
 10
0.0
 20
0.0
 11
12.0
 21
9.0
 12
0.0
 22
0.0
 32
0.0
 14
1.000000000000000E+20
 24
1.000000000000000E+20
 34
1.000000000000000E+20
 15
-1.000000000000000E+20
 25
-1.000000000000000E+20
 35
-1.000000000000000E+20
146
0.0
 13
0.0
 23
0.0
 33
0.0
 16
1.0
 26
0.0
 36
0.0
 17
0.0
 27
1.0
 37
0.0
 76
     0
330
1B
  0
LAYOUT
  5
26
102
{ACAD_REACTORS
330
1A
102
}
330
1A
100
AcDbPlotSettings
  1

  2
none_device
  4

  6

 40
0.0
 41
0.0
 42
0.0
 43
0.0
 44
0.0
 45
0.0
 46
0.0
 47
0.0
 48
0.0
 49
0.0
140
0.0
141
0.0
142
1.0
143
1.0
 70
   688
 72
     0
 73
     0
 74
     5
  7

 75
    16
 76
     0
 77
     2
 78
   300
147
1.0
148
0.0
149
0.0
100
AcDbLayout
  1
Layout2
 70
     1
 71
     2
 10
0.0
 20
0.0
 11
0.0
 21
0.0
 12
0.0
 22
0.0
 32
0.0
 14
0.0
 24
0.0
 34
0.0
 15
0.0
 25
0.0
 35
0.0
146
0.0
 13
0.0
 23
0.0
 33
0.0
 16
1.0
 26
0.0
 36
0.0
 17
0.0
 27
1.0
 37
0.0
 76
     0
330
23
  0
LAYOUT
  5
22
102
{ACAD_REACTORS
330
1A
102
}
330
1A
100
AcDbPlotSettings
  1

  2
none_device
  4

  6

 40
0.0
 41
0.0
 42
0.0
 43
0.0
 44
0.0
 45
0.0
 46
0.0
 47
0.0
 48
0.0
 49
0.0
140
0.0
141
0.0
142
1.0
143
1.0
 70
  1712
 72
     0
 73
     0
 74
     0
  7

 75
     0
 76
     0
 77
     2
 78
   300
147
1.0
148
0.0
149
0.0
100
AcDbLayout
  1
Model
 70
     1
 71
     0
 10
0.0
 20
0.0
 11
12.0
 21
9.0
 12
0.0
 22
0.0
 32
0.0
 14
1.000000000000000E+20
 24
1.000000000000000E+20
 34
1.000000000000000E+20
 15
-1.000000000000000E+20
 25
-1.000000000000000E+20
 35
-1.000000000000000E+20
146
0.0
 13
0.0
 23
0.0
 33
0.0
 16
1.0
 26
0.0
 36
0.0
 17
0.0
 27
1.0
 37
0.0
 76
     0
330
1F
331
29
  0
MATERIAL
  5
3D
102
{ACAD_REACTORS
330
3B
102
}
330
3B
100
AcDbMaterial
  1
ByBlock
 72
     1
 94
      127
  0
MATERIAL
  5
3C
102
{ACAD_REACTORS
330
3B
102
}
330
3B
100
AcDbMaterial
  1
ByLayer
 72
     1
 94
      127
  0
MATERIAL
  5
3E
102
{ACAD_REACTORS
330
3B
102
}
330
3B
100
AcDbMaterial
  1
Global
 72
     1
 94
      127
  0
MLINESTYLE
  5
18
102
{ACAD_REACTORS
330
17
102
}
330
17
100
AcDbMlineStyle
  2
Standard
 70
     0
  3

 62
   256
 51
90.0
 52
90.0
 71
     2
 49
0.5
 62
   256
  6
BYLAYER
 49
-0.5
 62
   256
  6
BYLAYER
  0
ACDBPLACEHOLDER
  5
F
102
{ACAD_REACTORS
330
E
102
}
330
E
  0
VISUALSTYLE
  5
2F
102
{ACAD_REACTORS
330
2A
102
}
330
2A
100
AcDbVisualStyle
  2
2dWireframe
 70
     4
177
     2
291
     0
 71
     0
176
     1
 72
     2
176
     1
 73
     0
176
     1
 90
        0
176
     1
 40
-0.6
176
     1
 41
-30.0
176
     1
 62
     5
 63
     7
421
 16777215
176
     1
 74
     1
176
     1
 91
        4
176
     1
 64
     7
176
     1
 65
   257
176
     1
 75
     1
176
     1
175
     1
176
     1
 42
1.0
176
     1
 92
        0
176
     1
 66
   257
176
     1
 43
1.0
176
     1
 76
     1
176
     1
 77
     6
176
     1
 78
     2
176
     1
 67
     7
176
     1
 79
     5
176
     1
170
     0
176
     1
171
     0
176
     1
290
     0
176
     1
 93
        1
176
     1
 44
0.0
176
     1
173
     0
176
     1
  0
VISUALSTYLE
  5
31
102
{ACAD_REACTORS
330
2A
102
}
330
2A
100
AcDbVisualStyle
  2
3D Hidden
 70
     6
177
     2
291
     0
 71
     1
176
     1
 72
     2
176
     1
 73
     2
176
     1
 90
        0
176
     1
 40
-0.6
176
     1
 41
-30.0
176
     1
 62
     5
 63
     7
421
 16777215
176
     1
 74
     2
176
     1
 91
        2
176
     1
 64
     7
176
     1
 65
   257
176
     1
 75
     2
176
     1
175
     1
176
     1
 42
40.0
176
     1
 92
        0
176
     1
 66
   257
176
     1
 43
1.0
176
     1
 76
     1
176
     1
 77
     6
176
     1
 78
     2
176
     1
 67
     7
176
     1
 79
     3
176
     1
170
     0
176
     1
171
     0
176
     1
290
     0
176
     1
 93
        1
176
     1
 44
0.0
176
     1
173
     0
176
     1
  0
VISUALSTYLE
  5
30
102
{ACAD_REACTORS
330
2A
102
}
330
2A
100
AcDbVisualStyle
  2
3dWireframe
 70
     5
177
     2
291
     0
 71
     0
176
     1
 72
     2
176
     1
 73
     0
176
     1
 90
        0
176
     1
 40
-0.6
176
     1
 41
-30.0
176
     1
 62
     5
 63
     7
421
 16777215
176
     1
 74
     1
176
     1
 91
        4
176
     1
 64
     7
176
     1
 65
   257
176
     1
 75
     1
176
     1
175
     1
176
     1
 42
1.0
176
     1
 92
        0
176
     1
 66
   257
176
     1
 43
1.0
176
     1
 76
     1
176
     1
 77
     6
176
     1
 78
     2
176
     1
 67
     7
176
     1
 79
     5
176
     1
170
     0
176
     1
171
     0
176
     1
290
     0
176
     1
 93
        1
176
     1
 44
0.0
176
     1
173
     0
176
     1
  0
VISUALSTYLE
  5
32
102
{ACAD_REACTORS
330
2A
102
}
330
2A
100
AcDbVisualStyle
  2
Basic
 70
     7
177
     2
291
     1
 71
     1
176
     1
 72
     0
176
     1
 73
     1
176
     1
 90
        0
176
     1
 40
-0.6
176
     1
 41
-30.0
176
     1
 62
     5
 63
     7
421
 16777215
176
     1
 74
     0
176
     1
 91
        4
176
     1
 64
     7
176
     1
 65
   257
176
     1
 75
     1
176
     1
175
     1
176
     1
 42
1.0
176
     1
 92
        8
176
     1
 66
     7
176
     1
 43
1.0
176
     1
 76
     1
176
     1
 77
     6
176
     1
 78
     2
176
     1
 67
     7
176
     1
 79
     5
176
     1
170
     0
176
     1
171
     0
176
     1
290
     0
176
     1
 93
        1
176
     1
 44
0.0
176
     1
173
     0
176
     1
  0
VISUALSTYLE
  5
36
102
{ACAD_REACTORS
330
2A
102
}
330
2A
100
AcDbVisualStyle
  2
Brighten
 70
    12
177
     2
291
     1
 71
     2
176
     1
 72
     2
176
     1
 73
     0
176
     1
 90
        0
176
     1
 40
-0.6
176
     1
 41
-30.0
176
     1
 62
     5
 63
     7
421
 16777215
176
     1
 74
     1
176
     1
 91
        4
176
     1
 64
     7
176
     1
 65
   257
176
     1
 75
     1
176
     1
175
     1
176
     1
 42
1.0
176
     1
 92
        8
176
     1
 66
     7
176
     1
 43
1.0
176
     1
 76
     1
176
     1
 77
     6
176
     1
 78
     2
176
     1
 67
     7
176
     1
 79
     5
176
     1
170
     0
176
     1
171
     0
176
     1
290
     0
176
     1
 93
        1
176
     1
 44
50.0
176
     1
173
     0
176
     1
  0
VISUALSTYLE
  5
3A
102
{ACAD_REACTORS
330
2A
102
}
330
2A
100
AcDbVisualStyle
  2
ColorChange
 70
    16
177
     2
291
     1
 71
     2
176
     1
 72
     2
176
     1
 73
     3
176
     1
 90
        0
176
     1
 40
-0.6
176
     1
 41
-30.0
176
     1
 62
     5
 63
     8
421
  8421504
176
     1
 74
     1
176
     1
 91
        4
176
     1
 64
     7
176
     1
 65
   257
176
     1
 75
     1
176
     1
175
     1
176
     1
 42
1.0
176
     1
 92
        8
176
     1
 66
     8
424
  8421504
176
     1
 43
1.0
176
     1
 76
     1
176
     1
 77
     6
176
     1
 78
     2
176
     1
 67
     7
176
     1
 79
     5
176
     1
170
     0
176
     1
171
     0
176
     1
290
     0
176
     1
 93
        1
176
     1
 44
0.0
176
     1
173
     0
176
     1
  0
VISUALSTYLE
  5
34
102
{ACAD_REACTORS
330
2A
102
}
330
2A
100
AcDbVisualStyle
  2
Conceptual
 70
     9
177
     2
291
     0
 71
     3
176
     1
 72
     2
176
     1
 73
     0
176
     1
 90
        0
176
     1
 40
-0.6
176
     1
 41
-30.0
176
     1
 62
     5
 63
     7
421
 16777215
176
     1
 74
     2
176
     1
 91
        2
176
     1
 64
     7
176
     1
 65
   257
176
     1
 75
     1
176
     1
175
     1
176
     1
 42
40.0
176
     1
 92
        8
176
     1
 66
     7
176
     1
 43
1.0
176
     1
 76
     1
176
     1
 77
     6
176
     1
 78
     2
176
     1
 67
     7
176
     1
 79
     3
176
     1
170
     0
176
     1
171
     0
176
     1
290
     0
176
     1
 93
        1
176
     1
 44
0.0
176
     1
173
     0
176
     1
  0
VISUALSTYLE
  5
35
102
{ACAD_REACTORS
330
2A
102
}
330
2A
100
AcDbVisualStyle
  2
Dim
 70
    11
177
     2
291
     1
 71
     2
176
     1
 72
     2
176
     1
 73
     0
176
     1
 90
        0
176
     1
 40
-0.6
176
     1
 41
-30.0
176
     1
 62
     5
 63
     7
421
 16777215
176
     1
 74
     1
176
     1
 91
        4
176
     1
 64
     7
176
     1
 65
   257
176
     1
 75
     1
176
     1
175
     1
176
     1
 42
1.0
176
     1
 92
        8
176
     1
 66
     7
176
     1
 43
1.0
176
     1
 76
     1
176
     1
 77
     6
176
     1
 78
     2
176
     1
 67
     7
176
     1
 79
     5
176
     1
170
     0
176
     1
171
     0
176
     1
290
     0
176
     1
 93
        1
176
     1
 44
-50.0
176
     1
173
     0
176
     1
  0
VISUALSTYLE
  5
39
102
{ACAD_REACTORS
330
2A
102
}
330
2A
100
AcDbVisualStyle
  2
Facepattern
 70
    15
177
     2
291
     1
 71
     2
176
     1
 72
     2
176
     1
 73
     0
176
     1
 90
        0
176
     1
 40
-0.6
176
     1
 41
-30.0
176
     1
 62
     5
 63
     7
421
 16777215
176
     1
 74
     1
176
     1
 91
        4
176
     1
 64
     7
176
     1
 65
   257
176
     1
 75
     1
176
     1
175
     1
176
     1
 42
1.0
176
     1
 92
        8
176
     1
 66
     7
176
     1
 43
1.0
176
     1
 76
     1
176
     1
 77
     6
176
     1
 78
     2
176
     1
 67
     7
176
     1
 79
     5
176
     1
170
     0
176
     1
171
     0
176
     1
290
     0
176
     1
 93
        1
176
     1
 44
0.0
176
     1
173
     0
176
     1
  0
VISUALSTYLE
  5
2B
102
{ACAD_REACTORS
330
2A
102
}
330
2A
100
AcDbVisualStyle
  2
Flat
 70
     0
177
     2
291
     1
 71
     2
176
     1
 72
     1
176
     1
 73
     1
176
     1
 90
        2
176
     1
 40
-0.6
176
     1
 41
30.0
176
     1
 62
     5
 63
     7
421
 16777215
176
     1
 74
     0
176
     1
 91
        4
176
     1
 64
     7
176
     1
 65
   257
176
     1
 75
     1
176
     1
175
     1
176
     1
 42
1.0
176
     1
 92
        8
176
     1
 66
     7
176
     1
 43
1.0
176
     1
 76
     1
176
     1
 77
     6
176
     1
 78
     2
176
     1
 67
     7
176
     1
 79
     5
176
     1
170
     0
176
     1
171
     0
176
     1
290
     0
176
     1
 93
       13
176
     1
 44
0.0
176
     1
173
     0
176
     1
  0
VISUALSTYLE
  5
2C
102
{ACAD_REACTORS
330
2A
102
}
330
2A
100
AcDbVisualStyle
  2
FlatWithEdges
 70
     1
177
     2
291
     1
 71
     2
176
     1
 72
     1
176
     1
 73
     1
176
     1
 90
        2
176
     1
 40
-0.6
176
     1
 41
30.0
176
     1
 62
     5
 63
     7
421
 16777215
176
     1
 74
     1
176
     1
 91
        4
176
     1
 64
     7
176
     1
 65
   257
176
     1
 75
     1
176
     1
175
     1
176
     1
 42
1.0
176
     1
 92
        0
176
     1
 66
   257
176
     1
 43
1.0
176
     1
 76
     1
176
     1
 77
     6
176
     1
 78
     2
176
     1
 67
     7
176
     1
 79
     5
176
     1
170
     0
176
     1
171
     0
176
     1
290
     0
176
     1
 93
       13
176
     1
 44
0.0
176
     1
173
     0
176
     1
  0
VISUALSTYLE
  5
2D
102
{ACAD_REACTORS
330
2A
102
}
330
2A
100
AcDbVisualStyle
  2
Gouraud
 70
     2
177
     2
291
     1
 71
     2
176
     1
 72
     2
176
     1
 73
     1
176
     1
 90
        2
176
     1
 40
-0.6
176
     1
 41
30.0
176
     1
 62
     5
 63
     7
421
 16777215
176
     1
 74
     0
176
     1
 91
        4
176
     1
 64
     7
176
     1
 65
   257
176
     1
 75
     1
176
     1
175
     1
176
     1
 42
1.0
176
     1
 92
        0
176
     1
 66
     7
176
     1
 43
1.0
176
     1
 76
     1
176
     1
 77
     6
176
     1
 78
     2
176
     1
 67
     7
176
     1
 79
     5
176
     1
170
     0
176
     1
171
     0
176
     1
290
     0
176
     1
 93
       13
176
     1
 44
0.0
176
     1
173
     0
176
     1
  0
VISUALSTYLE
  5
2E
102
{ACAD_REACTORS
330
2A
102
}
330
2A
100
AcDbVisualStyle
  2
GouraudWithEdges
 70
     3
177
     2
291
     1
 71
     2
176
     1
 72
     2
176
     1
 73
     1
176
     1
 90
        2
176
     1
 40
-0.6
176
     1
 41
30.0
176
     1
 62
     5
 63
     7
421
 16777215
176
     1
 74
     1
176
     1
 91
        4
176
     1
 64
     7
176
     1
 65
   257
176
     1
 75
     1
176
     1
175
     1
176
     1
 42
1.0
176
     1
 92
        0
176
     1
 66
   257
176
     1
 43
1.0
176
     1
 76
     1
176
     1
 77
     6
176
     1
 78
     2
176
     1
 67
     7
176
     1
 79
     5
176
     1
170
     0
176
     1
171
     0
176
     1
290
     0
176
     1
 93
       13
176
     1
 44
0.0
176
     1
173
     0
176
     1
  0
VISUALSTYLE
  5
38
102
{ACAD_REACTORS
330
2A
102
}
330
2A
100
AcDbVisualStyle
  2
Linepattern
 70
    14
177
     2
291
     1
 71
     2
176
     1
 72
     2
176
     1
 73
     0
176
     1
 90
        0
176
     1
 40
-0.6
176
     1
 41
-30.0
176
     1
 62
     5
 63
     7
421
 16777215
176
     1
 74
     1
176
     1
 91
        4
176
     1
 64
     7
176
     1
 65
   257
176
     1
 75
     7
176
     1
175
     7
176
     1
 42
1.0
176
     1
 92
        8
176
     1
 66
     7
176
     1
 43
1.0
176
     1
 76
     1
176
     1
 77
     6
176
     1
 78
     2
176
     1
 67
     7
176
     1
 79
     5
176
     1
170
     0
176
     1
171
     0
176
     1
290
     0
176
     1
 93
        1
176
     1
 44
0.0
176
     1
173
     0
176
     1
  0
VISUALSTYLE
  5
33
102
{ACAD_REACTORS
330
2A
102
}
330
2A
100
AcDbVisualStyle
  2
Realistic
 70
     8
177
     2
291
     0
 71
     2
176
     1
 72
     2
176
     1
 73
     0
176
     1
 90
        0
176
     1
 40
-0.6
176
     1
 41
-30.0
176
     1
 62
     5
 63
     7
421
 16777215
176
     1
 74
     1
176
     1
 91
        0
176
     1
 64
     7
176
     1
 65
   257
176
     1
 75
     1
176
     1
175
     1
176
     1
 42
1.0
176
     1
 92
        8
176
     1
 66
     8
424
  7895160
176
     1
 43
1.0
176
     1
 76
     1
176
     1
 77
     6
176
     1
 78
     2
176
     1
 67
     7
176
     1
 79
     5
176
     1
170
     0
176
     1
171
     0
176
     1
290
     0
176
     1
 93
       13
176
     1
 44
0.0
176
     1
173
     0
176
     1
  0
VISUALSTYLE
  5
37
102
{ACAD_REACTORS
330
2A
102
}
330
2A
100
AcDbVisualStyle
  2
Thicken
 70
    13
177
     2
291
     1
 71
     2
176
     1
 72
     2
176
     1
 73
     0
176
     1
 90
        0
176
     1
 40
-0.6
176
     1
 41
-30.0
176
     1
 62
     5
 63
     7
421
 16777215
176
     1
 74
     1
176
     1
 91
        4
176
     1
 64
     7
176
     1
 65
   257
176
     1
 75
     1
176
     1
175
     1
176
     1
 42
1.0
176
     1
 92
       12
176
     1
 66
     7
176
     1
 43
1.0
176
     1
 76
     1
176
     1
 77
     6
176
     1
 78
     2
176
     1
 67
     7
176
     1
 79
     5
176
     1
170
     0
176
     1
171
     0
176
     1
290
     0
176
     1
 93
        1
176
     1
 44
0.0
176
     1
173
     0
176
     1
  0
ENDSEC
  0
EOF
