  0
SECTION
  2
HEADER
  9
$ACADVER
  1
AC1024
  9
$ACADMAINTVER
 70
     6
  9
$DWGCODEPAGE
  3
ANSI_932
  9
$INSBASE
 10
0.0
 20
0.0
 30
0.0
  9
$EXTMIN
 10
1.000000000000000E+20
 20
1.000000000000000E+20
 30
1.000000000000000E+20
  9
$EXTMAX
 10
-1.000000000000000E+20
 20
-1.000000000000000E+20
 30
-1.000000000000000E+20
  9
$LIMMIN
 10
0.0
 20
0.0
  9
$LIMMAX
 10
12.0
 20
9.0
  9
$ORTHOMODE
 70
     0
  9
$REGENMODE
 70
     1
  9
$FILLMODE
 70
     1
  9
$QTEXTMODE
 70
     0
  9
$MIRRTEXT
 70
     1
  9
$LTSCALE
 40
1.0
  9
$ATTMODE
 70
     1
  9
$TEXTSIZE
 40
0.2
  9
$TRACEWID
 40
0.05
  9
$TEXTSTYLE
  7
Standard
  9
$CLAYER
  8
0
  9
$CELTYPE
  6
ByLayer
  9
$CECOLOR
 62
   256
  9
$CELTSCALE
 40
1.0
  9
$DISPSILH
 70
     0
  9
$DIMSCALE
 40
1.0
  9
$DIMASZ
 40
0.18
  9
$DIMEXO
 40
0.0625
  9
$DIMDLI
 40
0.38
  9
$DIMRND
 40
0.0
  9
$DIMDLE
 40
0.0
  9
$DIMEXE
 40
0.18
  9
$DIMTP
 40
0.0
  9
$DIMTM
 40
0.0
  9
$DIMTXT
 40
0.18
  9
$DIMCEN
 40
0.09
  9
$DIMTSZ
 40
0.0
  9
$DIMTOL
 70
     0
  9
$DIMLIM
 70
     0
  9
$DIMTIH
 70
     1
  9
$DIMTOH
 70
     1
  9
$DIMSE1
 70
     0
  9
$DIMSE2
 70
     0
  9
$DIMTAD
 70
     0
  9
$DIMZIN
 70
     0
  9
$DIMBLK
  1

  9
$DIMASO
 70
     1
  9
$DIMSHO
 70
     1
  9
$DIMPOST
  1

  9
$DIMAPOST
  1

  9
$DIMALT
 70
     0
  9
$DIMALTD
 70
     2
  9
$DIMALTF
 40
25.4
  9
$DIMLFAC
 40
1.0
  9
$DIMTOFL
 70
     0
  9
$DIMTVP
 40
0.0
  9
$DIMTIX
 70
     0
  9
$DIMSOXD
 70
     0
  9
$DIMSAH
 70
     0
  9
$DIMBLK1
  1

  9
$DIMBLK2
  1

  9
$DIMSTYLE
  2
Standard
  9
$DIMCLRD
 70
     0
  9
$DIMCLRE
 70
     0
  9
$DIMCLRT
 70
     0
  9
$DIMTFAC
 40
1.0
  9
$DIMGAP
 40
0.09
  9
$DIMJUST
 70
     0
  9
$DIMSD1
 70
     0
  9
$DIMSD2
 70
     0
  9
$DIMTOLJ
 70
     1
  9
$DIMTZIN
 70
     0
  9
$DIMALTZ
 70
     0
  9
$DIMALTTZ
 70
     0
  9
$DIMUPT
 70
     0
  9
$DIMDEC
 70
     4
  9
$DIMTDEC
 70
     4
  9
$DIMALTU
 70
     2
  9
$DIMALTTD
 70
     2
  9
$DIMTXSTY
  7
Standard
  9
$DIMAUNIT
 70
     0
  9
$DIMADEC
 70
     0
  9
$DIMALTRND
 40
0.0
  9
$DIMAZIN
 70
     0
  9
$DIMDSEP
 70
    46
  9
$DIMATFIT
 70
     3
  9
$DIMFRAC
 70
     0
  9
$DIMLDRBLK
  1

  9
$DIMLUNIT
 70
     2
  9
$DIMLWD
 70
    -2
  9
$DIMLWE
 70
    -2
  9
$DIMTMOVE
 70
     0
  9
$DIMFXL
 40
1.0
  9
$DIMFXLON
 70
     0
  9
$DIMJOGANG
 40
0.7853981633974483
  9
$DIMTFILL
 70
     0
  9
$DIMTFILLCLR
 70
     0
  9
$DIMARCSYM
 70
     0
  9
$DIMLTYPE
  6

  9
$DIMLTEX1
  6

  9
$DIMLTEX2
  6

  9
$DIMTXTDIRECTION
 70
     0
  9
$LUNITS
 70
     2
  9
$LUPREC
 70
     4
  9
$SKETCHINC
 40
0.1
  9
$FILLETRAD
 40
0.5
  9
$AUNITS
 70
     0
  9
$AUPREC
 70
     0
  9
$MENU
  1
.
  9
$ELEVATION
 40
0.0
  9
$PELEVATION
 40
0.0
  9
$THICKNESS
 40
0.0
  9
$LIMCHECK
 70
     0
  9
$CHAMFERA
 40
0.5
  9
$CHAMFERB
 40
0.5
  9
$CHAMFERC
 40
1.0
  9
$CHAMFERD
 40
0.0
  9
$SKPOLY
 70
     0
  9
$TDCREATE
 40
2458553.069817546
  9
$TDUCREATE
 40
2458552.694817546
  9
$TDUPDATE
 40
2458553.069817546
  9
$TDUUPDATE
 40
2458552.694817546
  9
$TDINDWG
 40
0.0000000116
  9
$TDUSRTIMER
 40
0.0000000116
  9
$USRTIMER
 70
     1
  9
$ANGBASE
 50
0.0
  9
$ANGDIR
 70
     0
  9
$PDMODE
 70
     0
  9
$PDSIZE
 40
0.0
  9
$PLINEWID
 40
0.0
  9
$SPLFRAME
 70
     0
  9
$SPLINETYPE
 70
     6
  9
$SPLINESEGS
 70
     8
  9
$HANDSEED
  5
A6
  9
$SURFTAB1
 70
     6
  9
$SURFTAB2
 70
     6
  9
$SURFTYPE
 70
     6
  9
$SURFU
 70
     6
  9
$SURFV
 70
     6
  9
$UCSBASE
  2

  9
$UCSNAME
  2

  9
$UCSORG
 10
0.0
 20
0.0
 30
0.0
  9
$UCSXDIR
 10
1.0
 20
0.0
 30
0.0
  9
$UCSYDIR
 10
0.0
 20
1.0
 30
0.0
  9
$UCSORTHOREF
  2

  9
$UCSORTHOVIEW
 70
     0
  9
$UCSORGTOP
 10
0.0
 20
0.0
 30
0.0
  9
$UCSORGBOTTOM
 10
0.0
 20
0.0
 30
0.0
  9
$UCSORGLEFT
 10
0.0
 20
0.0
 30
0.0
  9
$UCSORGRIGHT
 10
0.0
 20
0.0
 30
0.0
  9
$UCSORGFRONT
 10
0.0
 20
0.0
 30
0.0
  9
$UCSORGBACK
 10
0.0
 20
0.0
 30
0.0
  9
$PUCSBASE
  2

  9
$PUCSNAME
  2

  9
$PUCSORG
 10
0.0
 20
0.0
 30
0.0
  9
$PUCSXDIR
 10
1.0
 20
0.0
 30
0.0
  9
$PUCSYDIR
 10
0.0
 20
1.0
 30
0.0
  9
$PUCSORTHOREF
  2

  9
$PUCSORTHOVIEW
 70
     0
  9
$PUCSORGTOP
 10
0.0
 20
0.0
 30
0.0
  9
$PUCSORGBOTTOM
 10
0.0
 20
0.0
 30
0.0
  9
$PUCSORGLEFT
 10
0.0
 20
0.0
 30
0.0
  9
$PUCSORGRIGHT
 10
0.0
 20
0.0
 30
0.0
  9
$PUCSORGFRONT
 10
0.0
 20
0.0
 30
0.0
  9
$PUCSORGBACK
 10
0.0
 20
0.0
 30
0.0
  9
$USERI1
 70
     0
  9
$USERI2
 70
     0
  9
$USERI3
 70
     0
  9
$USERI4
 70
     0
  9
$USERI5
 70
     0
  9
$USERR1
 40
0.0
  9
$USERR2
 40
0.0
  9
$USERR3
 40
0.0
  9
$USERR4
 40
0.0
  9
$USERR5
 40
0.0
  9
$WORLDVIEW
 70
     1
  9
$SHADEDGE
 70
     3
  9
$SHADEDIF
 70
    70
  9
$TILEMODE
 70
     1
  9
$MAXACTVP
 70
    64
  9
$PINSBASE
 10
0.0
 20
0.0
 30
0.0
  9
$PLIMCHECK
 70
     0
  9
$PEXTMIN
 10
1.000000000000000E+20
 20
1.000000000000000E+20
 30
1.000000000000000E+20
  9
$PEXTMAX
 10
-1.000000000000000E+20
 20
-1.000000000000000E+20
 30
-1.000000000000000E+20
  9
$PLIMMIN
 10
0.0
 20
0.0
  9
$PLIMMAX
 10
12.0
 20
9.0
  9
$UNITMODE
 70
     0
  9
$VISRETAIN
 70
     1
  9
$PLINEGEN
 70
     0
  9
$PSLTSCALE
 70
     1
  9
$TREEDEPTH
 70
  3020
  9
$CMLSTYLE
  2
Standard
  9
$CMLJUST
 70
     0
  9
$CMLSCALE
 40
1.0
  9
$PROXYGRAPHICS
 70
     1
  9
$MEASUREMENT
 70
     0
  9
$CELWEIGHT
370
    -1
  9
$ENDCAPS
280
     0
  9
$JOINSTYLE
280
     0
  9
$LWDISPLAY
290
     1
  9
$INSUNITS
 70
     1
  9
$HYPERLINKBASE
  1

  9
$STYLESHEET
  1

  9
$XEDIT
290
     1
  9
$CEPSNTYPE
380
     0
  9
$PSTYLEMODE
290
     1
  9
$FINGERPRINTGUID
  2
{92DE2A4B-7447-455D-ABC0-A267A3E4F75D}
  9
$VERSIONGUID
  2
{FAEB1C32-E019-11D5-929B-00C0DF256EC4}
  9
$EXTNAMES
290
     1
  9
$PSVPSCALE
 40
0.0
  9
$OLESTARTUP
290
     0
  9
$SORTENTS
280
   127
  9
$INDEXCTL
280
     0
  9
$HIDETEXT
280
     1
  9
$XCLIPFRAME
280
     2
  9
$HALOGAP
280
     0
  9
$OBSCOLOR
 70
   257
  9
$OBSLTYPE
280
     0
  9
$INTERSECTIONDISPLAY
280
     0
  9
$INTERSECTIONCOLOR
 70
   257
  9
$DIMASSOC
280
     2
  9
$PROJECTNAME
  1

  9
$CAMERADISPLAY
290
     0
  9
$LENSLENGTH
 40
50.0
  9
$CAMERAHEIGHT
 40
0.0
  9
$STEPSPERSEC
 40
2.0
  9
$STEPSIZE
 40
6.0
  9
$3DDWFPREC
 40
2.0
  9
$PSOLWIDTH
 40
0.25
  9
$PSOLHEIGHT
 40
4.0
  9
$LOFTANG1
 40
1.570796326794897
  9
$LOFTANG2
 40
1.570796326794897
  9
$LOFTMAG1
 40
0.0
  9
$LOFTMAG2
 40
0.0
  9
$LOFTPARAM
 70
     7
  9
$LOFTNORMALS
280
     1
  9
$LATITUDE
 40
37.795
  9
$LONGITUDE
 40
-122.394
  9
$NORTHDIRECTION
 40
0.0
  9
$TIMEZONE
 70
 -8000
  9
$LIGHTGLYPHDISPLAY
280
     1
  9
$TILEMODELIGHTSYNCH
280
     1
  9
$CMATERIAL
347
3C
  9
$SOLIDHIST
280
     1
  9
$SHOWHIST
280
     1
  9
$DWFFRAME
280
     2
  9
$DGNFRAME
280
     2
  9
$REALWORLDSCALE
290
     1
  9
$INTERFERECOLOR
 62
   256
  9
$CSHADOW
280
     0
  9
$SHADOWPLANELOCATION
 40
0.0
  0
ENDSEC
  0
SECTION
  2
CLASSES
  0
CLASS
  1
ACDBDICTIONARYWDFLT
  2
AcDbDictionaryWithDefault
  3
ObjectDBX Classes
 90
        0
 91
        4
280
     0
281
     0
  0
CLASS
  1
VISUALSTYLE
  2
AcDbVisualStyle
  3
ObjectDBX Classes
 90
     4095
 91
        4
280
     0
281
     0
  0
CLASS
  1
MATERIAL
  2
AcDbMaterial
  3
ObjectDBX Classes
 90
     1153
 91
        4
280
     0
281
     0
  0
CLASS
  1
SUN
  2
AcDbSun
  3
SCENEOE
 90
     1024
 91
        4
280
     0
281
     0
  0
ENDSEC
  0
SECTION
  2
TABLES
  0
TABLE
  2
VPORT
  5
8
330
0
100
AcDbSymbolTable
 70
     1
  0
VPORT
  5
29
330
8
100
AcDbSymbolTableRecord
100
AcDbViewportTableRecord
  2
*Active
 70
     0
 10
0.0
 20
0.0
 11
1.0
 21
1.0
 12
0.0
 22
0.0
 13
0.0
 23
0.0
 14
0.5
 24
0.5
 15
0.5
 25
0.5
 16
0.0
 26
0.0
 36
1.0
 17
239.9999999399998
 27
-209.9999999474999
 37
0.0
 40
419.9999998949992
 41
1.142857142857143
 42
50.0
 43
0.0
 44
0.0
 50
0.0
 51
0.0
 71
     0
 72
   100
 73
     1
 74
     3
 75
     0
 76
     0
 77
     0
 78
     0
281
     0
 65
     1
110
0.0
120
0.0
130
0.0
111
1.0
121
0.0
131
0.0
112
0.0
122
1.0
132
0.0
 79
     0
146
0.0
 60
     3
 61
     5
292
     1
282
     1
141
0.0
142
0.0
 63
   250
361
3F
  0
ENDTAB
  0
TABLE
  2
LTYPE
  5
5
330
0
100
AcDbSymbolTable
 70
     1
  0
LTYPE
  5
14
330
5
100
AcDbSymbolTableRecord
100
AcDbLinetypeTableRecord
  2
ByBlock
 70
     0
  3

 72
    65
 73
     0
 40
0.0
  0
LTYPE
  5
15
330
5
100
AcDbSymbolTableRecord
100
AcDbLinetypeTableRecord
  2
ByLayer
 70
     0
  3

 72
    65
 73
     0
 40
0.0
  0
LTYPE
  5
16
330
5
100
AcDbSymbolTableRecord
100
AcDbLinetypeTableRecord
  2
Continuous
 70
     0
  3
Solid line
 72
    65
 73
     0
 40
0.0
  0
ENDTAB
  0
TABLE
  2
LAYER
  5
2
330
0
100
AcDbSymbolTable
 70
     2
  0
LAYER
  5
10
330
2
100
AcDbSymbolTableRecord
100
AcDbLayerTableRecord
  2
0
 70
     0
 62
     7
  6
Continuous
370
    -3
390
F
347
3E
  0
LAYER
  5
40
330
2
100
AcDbSymbolTableRecord
100
AcDbLayerTableRecord
  2
OneCircle
 70
     0
 62
     7
  6
Continuous
370
    -3
390
F
347
3E
  0
ENDTAB
  0
TABLE
  2
STYLE
  5
3
330
0
100
AcDbSymbolTable
 70
     1
  0
STYLE
  5
11
330
3
100
AcDbSymbolTableRecord
100
AcDbTextStyleTableRecord
  2
Standard
 70
     0
 40
0.0
 41
1.0
 50
0.0
 71
     0
 42
0.2
  3
txt
  4

  0
ENDTAB
  0
TABLE
  2
VIEW
  5
6
330
0
100
AcDbSymbolTable
 70
     0
  0
ENDTAB
  0
TABLE
  2
UCS
  5
7
330
0
100
AcDbSymbolTable
 70
     0
  0
ENDTAB
  0
TABLE
  2
APPID
  5
9
330
0
100
AcDbSymbolTable
 70
     1
  0
APPID
  5
12
330
9
100
AcDbSymbolTableRecord
100
AcDbRegAppTableRecord
  2
ACAD
 70
     0
  0
ENDTAB
  0
TABLE
  2
DIMSTYLE
  5
A
330
0
100
AcDbSymbolTable
 70
     1
100
AcDbDimStyleTable
  0
DIMSTYLE
105
27
330
A
100
AcDbSymbolTableRecord
100
AcDbDimStyleTableRecord
  2
Standard
 70
     0
178
     0
340
11
  0
ENDTAB
  0
TABLE
  2
BLOCK_RECORD
  5
1
330
0
100
AcDbSymbolTable
 70
     7
  0
BLOCK_RECORD
  5
1F
330
1
100
AcDbSymbolTableRecord
100
AcDbBlockTableRecord
  2
*Model_Space
340
22
 70
     0
280
     1
281
     0
  0
BLOCK_RECORD
  5
1B
330
1
100
AcDbSymbolTableRecord
100
AcDbBlockTableRecord
  2
*Paper_Space
340
1E
 70
     0
280
     1
281
     0
  0
BLOCK_RECORD
  5
23
330
1
100
AcDbSymbolTableRecord
100
AcDbBlockTableRecord
  2
*Paper_Space0
340
26
 70
     0
280
     1
281
     0
  0
BLOCK_RECORD
  5
43
330
1
100
AcDbSymbolTableRecord
100
AcDbBlockTableRecord
  2
block 2
340
0
102
{BLKREFS
331
44
102
}
 70
     0
280
     1
281
     0
  0
BLOCK_RECORD
  5
4C
330
1
100
AcDbSymbolTableRecord
100
AcDbBlockTableRecord
  2
block 3
340
0
102
{BLKREFS
331
4D
102
}
 70
     0
280
     1
281
     0
  0
BLOCK_RECORD
  5
55
330
1
100
AcDbSymbolTableRecord
100
AcDbBlockTableRecord
  2
block 4
340
0
102
{BLKREFS
331
56
102
}
 70
     0
280
     1
281
     0
  0
BLOCK_RECORD
  5
5E
330
1
100
AcDbSymbolTableRecord
100
AcDbBlockTableRecord
  2
block 5
340
0
102
{BLKREFS
331
5F
102
}
 70
     0
280
     1
281
     0
  0
BLOCK_RECORD
  5
67
330
1
100
AcDbSymbolTableRecord
100
AcDbBlockTableRecord
  2
block 6
340
0
102
{BLKREFS
331
68
102
}
 70
     0
280
     1
281
     0
  0
BLOCK_RECORD
  5
70
330
1
100
AcDbSymbolTableRecord
100
AcDbBlockTableRecord
  2
block 7
340
0
102
{BLKREFS
331
71
102
}
 70
     0
280
     1
281
     0
  0
ENDTAB
  0
ENDSEC
  0
SECTION
  2
BLOCKS
  0
BLOCK
  5
20
330
1F
100
AcDbEntity
  8
0
100
AcDbBlockBegin
  2
*Model_Space
 70
     0
 10
0.0
 20
0.0
 30
0.0
  3
*Model_Space
  1

  0
ENDBLK
  5
21
330
1F
100
AcDbEntity
  8
0
100
AcDbBlockEnd
  0
BLOCK
  5
1C
330
1B
100
AcDbEntity
 67
     1
  8
0
100
AcDbBlockBegin
  2
*Paper_Space
 70
     0
 10
0.0
 20
0.0
 30
0.0
  3
*Paper_Space
  1

  0
ENDBLK
  5
1D
330
1B
100
AcDbEntity
 67
     1
  8
0
100
AcDbBlockEnd
  0
BLOCK
  5
24
330
23
100
AcDbEntity
  8
0
100
AcDbBlockBegin
  2
*Paper_Space0
 70
     0
 10
0.0
 20
0.0
 30
0.0
  3
*Paper_Space0
  1

  0
ENDBLK
  5
25
330
23
100
AcDbEntity
  8
0
100
AcDbBlockEnd
  0
BLOCK
  5
45
330
43
100
AcDbEntity
  8
0
100
AcDbBlockBegin
  2
block 2
 70
     0
 10
0.0
 20
0.0
 30
0.0
  3
block 2
  1

  0
SPLINE
  5
47
330
43
100
AcDbEntity
  8
OneCircle
 62
     7
420
 16777215
370
    35
100
AcDbSpline
210
0.0
220
0.0
230
1.0
 70
     8
 71
     3
 72
    17
 73
    13
 74
     0
 42
0.0000000001
 43
0.0000000001
 12
1.0
 22
0.0
 32
0.0
 13
1.0
 23
0.0
 33
0.0
 40
0.0
 40
0.0
 40
0.0
 40
0.0
 40
1.0
 40
1.0
 40
1.0
 40
2.0
 40
2.0
 40
2.0
 40
3.0
 40
3.0
 40
3.0
 40
4.0
 40
4.0
 40
4.0
 40
4.0
 10
116.6572863875803
 20
-21.5761150617843
 30
0.0
 10
116.6572863875803
 20
-21.5761150617843
 30
0.0
 10
145.6021223247179
 20
-21.5761150617843
 30
0.0
 10
145.6021223247179
 20
-21.5761150617843
 30
0.0
 10
138.6737914980177
 20
-9.667645962882208
 30
0.0
 10
125.7828890290611
 20
-1.656216538112768
 30
0.0
 10
111.0128678530289
 20
-1.656216538112768
 30
0.0
 10
96.24288112779395
 20
-1.656216538112768
 30
0.0
 10
83.45221896204431
 20
-9.667643385855122
 30
0.0
 10
76.52388813534441
 20
-21.57611248475689
 30
0.0
 10
76.52388813534441
 20
-21.57611248475689
 30
0.0
 10
105.3684493184778
 20
-21.5761150617843
 30
0.0
 10
105.3684493184778
 20
-21.5761150617843
 30
0.0
  0
SPLINE
  5
48
330
43
100
AcDbEntity
  8
OneCircle
 62
     7
420
 16777215
370
    35
100
AcDbSpline
210
0.0
220
0.0
230
1.0
 70
    27
 71
     3
 72
    11
 73
     7
 74
     0
 42
0.0000000001
 43
0.0000000001
 12
1.0
 22
0.0
 32
0.0
 13
1.0
 23
0.0
 33
0.0
 40
0.0
 40
0.0
 40
0.0
 40
0.0
 40
1.0
 40
1.0
 40
1.0
 40
2.0
 40
2.0
 40
2.0
 40
2.0
 10
127.5652698989464
 20
-43.78423550357746
 30
0.0
 10
127.5652698989464
 20
-43.78423550357746
 30
0.0
 10
121.9208513643953
 20
-53.56064814588888
 30
0.0
 10
121.9208513643953
 20
-53.56064814588888
 30
0.0
 10
121.9208513643953
 20
-53.56064814588888
 30
0.0
 10
127.5652698989464
 20
-43.78423550357746
 30
0.0
 10
127.5652698989464
 20
-43.78423550357746
 30
0.0
  0
SPLINE
  5
49
330
43
100
AcDbEntity
  8
OneCircle
 62
     7
420
 16777215
370
    35
100
AcDbSpline
210
0.0
220
0.0
230
1.0
 70
     8
 71
     3
 72
    20
 73
    16
 74
     0
 42
0.0000000001
 43
0.0000000001
 12
1.0
 22
0.0
 32
0.0
 13
1.0
 23
0.0
 33
0.0
 40
0.0
 40
0.0
 40
0.0
 40
0.0
 40
1.0
 40
1.0
 40
1.0
 40
2.0
 40
2.0
 40
2.0
 40
3.0
 40
3.0
 40
3.0
 40
4.0
 40
4.0
 40
4.0
 40
5.0
 40
5.0
 40
5.0
 40
5.0
 10
56.47142548223277
 20
-107.1409982758806
 30
0.0
 10
56.47142548223277
 20
-107.1409982758806
 30
0.0
 10
41.73297241555147
 20
-81.61222937397777
 30
0.0
 10
41.73297241555147
 20
-81.61222937397777
 30
0.0
 10
38.31476436502498
 20
-87.50503815287756
 30
0.0
 10
36.36163416704235
 20
-94.36895105560602
 30
0.0
 10
36.36163416704235
 20
-101.6717620426488
 30
0.0
 10
36.36163416704235
 20
-123.7630253819688
 30
0.0
 10
54.27019182582963
 20
-141.6715485899589
 30
0.0
 10
76.36145516514932
 20
-141.6715485899589
 30
0.0
 10
76.36145516514932
 20
-141.6715485899589
 30
0.0
 10
76.36145516514932
 20
-141.6715612038331
 30
0.0
 10
76.36145516514932
 20
-141.6715612038331
 30
0.0
 10
76.36145516514932
 20
-141.6715612038331
 30
0.0
 10
62.11584401678385
 20
-116.9174109181923
 30
0.0
 10
62.11584401678385
 20
-116.9174109181923
 30
0.0
  0
SPLINE
  5
4A
330
43
100
AcDbEntity
  8
OneCircle
 62
     7
420
 16777215
370
    35
100
AcDbSpline
210
0.0
220
0.0
230
1.0
 70
     8
 71
     3
 72
    17
 73
    13
 74
     0
 42
0.0000000001
 43
0.0000000001
 12
1.0
 22
0.0
 32
0.0
 13
1.0
 23
0.0
 33
0.0
 40
0.0
 40
0.0
 40
0.0
 40
0.0
 40
1.0
 40
1.0
 40
1.0
 40
2.0
 40
2.0
 40
2.0
 40
3.0
 40
3.0
 40
3.0
 40
4.0
 40
4.0
 40
4.0
 40
4.0
 10
96.86381330896066
 20
-106.0804649496621
 30
0.0
 10
96.86381330896066
 20
-106.0804649496621
 30
0.0
 10
110.9967218732368
 20
-81.63003226568468
 30
0.0
 10
110.9967218732368
 20
-81.63003226568468
 30
0.0
 10
114.4149299237629
 20
-87.5228410445851
 30
0.0
 10
116.361276163256
 20
-94.36895105560602
 30
0.0
 10
116.361276163256
 20
-101.6717620426488
 30
0.0
 10
116.361276163256
 20
-123.7630253819688
 30
0.0
 10
98.45518665991356
 20
-141.6715612038331
 30
0.0
 10
76.36388886979796
 20
-141.6715612038331
 30
0.0
 10
76.36388886979796
 20
-141.6715612038331
 30
0.0
 10
91.21939477440958
 20
-115.8568775919739
 30
0.0
 10
91.21939477440958
 20
-115.8568775919739
 30
0.0
  0
SPLINE
  5
4B
330
43
100
AcDbEntity
  8
OneCircle
 62
     7
420
 16777215
370
    35
100
AcDbSpline
210
0.0
220
0.0
230
1.0
 70
     8
 71
     3
 72
    17
 73
    13
 74
     0
 42
0.0000000001
 43
0.0000000001
 12
1.0
 22
0.0
 32
0.0
 13
1.0
 23
0.0
 33
0.0
 40
0.0
 40
0.0
 40
0.0
 40
0.0
 40
1.0
 40
1.0
 40
1.0
 40
2.0
 40
2.0
 40
2.0
 40
3.0
 40
3.0
 40
3.0
 40
4.0
 40
4.0
 40
4.0
 40
4.0
 10
125.8708074622892
 20
-55.84115308554423
 30
0.0
 10
125.8708074622892
 20
-55.84115308554423
 30
0.0
 10
111.0037298605784
 20
-81.61583688101743
 30
0.0
 10
111.0037298605784
 20
-81.61583688101743
 30
0.0
 10
133.0950276506947
 20
-81.61583688101743
 30
0.0
 10
151.0126888511359
 20
-63.74730087553912
 30
0.0
 10
151.0126888511359
 20
-41.65603753621975
 30
0.0
 10
151.0126888511359
 20
-34.35322654917605
 30
0.0
 10
149.0201790928433
 20
-27.46892126365733
 30
0.0
 10
145.6019710423171
 20
-21.57611248475689
 30
0.0
 10
145.6019710423171
 20
-21.57611248475689
 30
0.0
 10
131.5152259968403
 20
-46.06474044323281
 30
0.0
 10
131.5152259968403
 20
-46.06474044323281
 30
0.0
  0
ENDBLK
  5
46
330
43
100
AcDbEntity
  8
0
100
AcDbBlockEnd
  0
BLOCK
  5
4E
330
4C
100
AcDbEntity
  8
0
100
AcDbBlockBegin
  2
block 3
 70
     0
 10
0.0
 20
0.0
 30
0.0
  3
block 3
  1

  0
SPLINE
  5
50
330
4C
100
AcDbEntity
  8
OneCircle
 62
     7
420
 16777215
370
    35
100
AcDbSpline
210
0.0
220
0.0
230
1.0
 70
     8
 71
     3
 72
    17
 73
    13
 74
     0
 42
0.0000000001
 43
0.0000000001
 12
1.0
 22
0.0
 32
0.0
 13
1.0
 23
0.0
 33
0.0
 40
0.0
 40
0.0
 40
0.0
 40
0.0
 40
1.0
 40
1.0
 40
1.0
 40
2.0
 40
2.0
 40
2.0
 40
3.0
 40
3.0
 40
3.0
 40
4.0
 40
4.0
 40
4.0
 40
4.0
 10
47.35932842111777
 20
-21.5761150617843
 30
0.0
 10
47.35932842111777
 20
-21.5761150617843
 30
0.0
 10
76.30416435825536
 20
-21.5761150617843
 30
0.0
 10
76.30416435825536
 20
-21.5761150617843
 30
0.0
 10
69.37583353155578
 20
-9.667645962882208
 30
0.0
 10
56.48493106259788
 20
-1.656216538112768
 30
0.0
 10
41.71490988656637
 20
-1.656216538112768
 30
0.0
 10
26.94492316133205
 20
-1.656216538112768
 30
0.0
 10
14.0285376414907
 20
-9.712443180207718
 30
0.0
 10
7.100206814790802
 20
-21.62091227910981
 30
0.0
 10
7.100206814790802
 20
-21.62091227910981
 30
0.0
 10
36.07049135201528
 20
-21.5761150617843
 30
0.0
 10
36.07049135201528
 20
-21.5761150617843
 30
0.0
  0
SPLINE
  5
51
330
4C
100
AcDbEntity
  8
OneCircle
 62
     7
420
 16777215
370
    35
100
AcDbSpline
210
0.0
220
0.0
230
1.0
 70
     8
 71
     3
 72
    17
 73
    13
 74
     0
 42
0.0000000001
 43
0.0000000001
 12
1.0
 22
0.0
 32
0.0
 13
1.0
 23
0.0
 33
0.0
 40
0.0
 40
0.0
 40
0.0
 40
0.0
 40
1.0
 40
1.0
 40
1.0
 40
2.0
 40
2.0
 40
2.0
 40
3.0
 40
3.0
 40
3.0
 40
4.0
 40
4.0
 40
4.0
 40
4.0
 10
27.46929873820153
 20
-56.90168641176235
 30
0.0
 10
27.46929873820153
 20
-56.90168641176235
 30
0.0
 10
41.73297241555147
 20
-81.61222937397777
 30
0.0
 10
41.73297241555147
 20
-81.61222937397777
 30
0.0
 10
19.6417090762321
 20
-81.61222937397777
 30
0.0
 10
1.715088888460028
 20
-63.74730087553912
 30
0.0
 10
1.715088888460028
 20
-41.65603753621975
 30
0.0
 10
1.715088888460028
 20
-34.35322654917605
 30
0.0
 10
3.681712619202857
 20
-27.5137098764202
 30
0.0
 10
7.099920669728378
 20
-21.62090109751977
 30
0.0
 10
7.099920669728378
 20
-21.62090109751977
 30
0.0
 10
21.82488020365109
 20
-47.12527376945125
 30
0.0
 10
21.82488020365109
 20
-47.12527376945125
 30
0.0
  0
SPLINE
  5
52
330
4C
100
AcDbEntity
  8
OneCircle
 62
     7
420
 16777215
370
    35
100
AcDbSpline
210
0.0
220
0.0
230
1.0
 70
    27
 71
     3
 72
    11
 73
     7
 74
     0
 42
0.0000000001
 43
0.0000000001
 12
1.0
 22
0.0
 32
0.0
 13
1.0
 23
0.0
 33
0.0
 40
0.0
 40
0.0
 40
0.0
 40
0.0
 40
1.0
 40
1.0
 40
1.0
 40
2.0
 40
2.0
 40
2.0
 40
2.0
 10
31.72428219025184
 20
-54.44506899927587
 30
0.0
 10
31.72428219025184
 20
-54.44506899927587
 30
0.0
 10
26.07986365570108
 20
-44.66865635696477
 30
0.0
 10
26.07986365570108
 20
-44.66865635696477
 30
0.0
 10
26.07986365570108
 20
-44.66865635696477
 30
0.0
 10
31.72428219025184
 20
-54.44506899927587
 30
0.0
 10
31.72428219025184
 20
-54.44506899927587
 30
0.0
  0
ENDBLK
  5
4F
330
4C
100
AcDbEntity
  8
0
100
AcDbBlockEnd
  0
BLOCK
  5
57
330
55
100
AcDbEntity
  8
0
100
AcDbBlockBegin
  2
block 4
 70
     0
 10
0.0
 20
0.0
 30
0.0
  3
block 4
  1

  0
SPLINE
  5
59
330
55
100
AcDbEntity
  8
OneCircle
 62
     7
420
 16777215
370
    35
100
AcDbSpline
210
0.0
220
0.0
230
1.0
 70
     8
 71
     3
 72
    17
 73
    13
 74
     0
 42
0.0000000001
 43
0.0000000001
 12
1.0
 22
0.0
 32
0.0
 13
1.0
 23
0.0
 33
0.0
 40
0.0
 40
0.0
 40
0.0
 40
0.0
 40
1.0
 40
1.0
 40
1.0
 40
2.0
 40
2.0
 40
2.0
 40
3.0
 40
3.0
 40
3.0
 40
4.0
 40
4.0
 40
4.0
 40
4.0
 10
155.4871510329411
 20
-129.6349760520968
 30
0.0
 10
155.4871510329411
 20
-129.6349760520968
 30
0.0
 10
126.5423150958041
 20
-129.6349660253103
 30
0.0
 10
126.5423150958041
 20
-129.6349660253103
 30
0.0
 10
133.4706417972891
 20
-141.5434375242563
 30
0.0
 10
146.3615414910046
 20
-149.5548714145658
 30
0.0
 10
161.1315626670354
 20
-149.5548765310517
 30
0.0
 10
175.9015493922694
 20
-149.554881647526
 30
0.0
 10
188.6922143332583
 20
-141.5434592305997
 30
0.0
 10
195.6205492851731
 20
-129.6349925317431
 30
0.0
 10
195.6205492851731
 20
-129.6349925317431
 30
0.0
 10
166.7759881020423
 20
-129.6349799626653
 30
0.0
 10
166.7759881020423
 20
-129.6349799626653
 30
0.0
  0
SPLINE
  5
5A
330
55
100
AcDbEntity
  8
OneCircle
 62
     7
420
 16777215
370
    35
100
AcDbSpline
210
0.0
220
0.0
230
1.0
 70
    27
 71
     3
 72
    11
 73
     7
 74
     0
 42
0.0000000001
 43
0.0000000001
 12
1.0
 22
0.0
 32
0.0
 13
1.0
 23
0.0
 33
0.0
 40
0.0
 40
0.0
 40
0.0
 40
0.0
 40
1.0
 40
1.0
 40
1.0
 40
2.0
 40
2.0
 40
2.0
 40
2.0
 10
144.5791752146947
 20
-107.4268518316682
 30
0.0
 10
144.5791752146947
 20
-107.4268518316682
 30
0.0
 10
150.2235971358949
 20
-97.65044114464168
 30
0.0
 10
150.2235971358949
 20
-97.65044114464168
 30
0.0
 10
150.2235971358949
 20
-97.65044114464168
 30
0.0
 10
144.5791752146947
 20
-107.4268518316682
 30
0.0
 10
144.5791752146947
 20
-107.4268518316682
 30
0.0
  0
SPLINE
  5
5B
330
55
100
AcDbEntity
  8
OneCircle
 62
     7
420
 16777215
370
    35
100
AcDbSpline
210
0.0
220
0.0
230
1.0
 70
     8
 71
     3
 72
    20
 73
    16
 74
     0
 42
0.0000000001
 43
0.0000000001
 12
1.0
 22
0.0
 32
0.0
 13
1.0
 23
0.0
 33
0.0
 40
0.0
 40
0.0
 40
0.0
 40
0.0
 40
1.0
 40
1.0
 40
1.0
 40
2.0
 40
2.0
 40
2.0
 40
3.0
 40
3.0
 40
3.0
 40
4.0
 40
4.0
 40
4.0
 40
5.0
 40
5.0
 40
5.0
 40
5.0
 10
215.6730415788328
 20
-44.07011368700226
 30
0.0
 10
215.6730415788328
 20
-44.07011368700226
 30
0.0
 10
230.411485802087
 20
-69.59888769445418
 30
0.0
 10
230.411485802087
 20
-69.59888769445418
 30
0.0
 10
233.8296958939432
 20
-63.70608009965692
 30
0.0
 10
235.782828469655
 20
-56.84216787351313
 30
0.0
 10
235.7828309994232
 20
-49.53935688647071
 30
0.0
 10
235.7828386520622
 20
-27.44809354715198
 30
0.0
 10
217.8742871969713
 20
-9.539564135455883
 30
0.0
 10
195.7830238576532
 20
-9.539556482816877
 30
0.0
 10
195.7830238576532
 20
-9.539556482816877
 30
0.0
 10
195.7830238576577
 20
-9.53954386894271
 30
0.0
 10
195.7830238576577
 20
-9.53954386894271
 30
0.0
 10
195.7830238576577
 20
-9.53954386894271
 30
0.0
 10
210.0286264309315
 20
-34.29369908940691
 30
0.0
 10
210.0286264309315
 20
-34.29369908940691
 30
0.0
  0
SPLINE
  5
5C
330
55
100
AcDbEntity
  8
OneCircle
 62
     7
420
 16777215
370
    35
100
AcDbSpline
210
0.0
220
0.0
230
1.0
 70
     8
 71
     3
 72
    17
 73
    13
 74
     0
 42
0.0000000001
 43
0.0000000001
 12
1.0
 22
0.0
 32
0.0
 13
1.0
 23
0.0
 33
0.0
 40
0.0
 40
0.0
 40
0.0
 40
0.0
 40
1.0
 40
1.0
 40
1.0
 40
2.0
 40
2.0
 40
2.0
 40
3.0
 40
3.0
 40
3.0
 40
4.0
 40
4.0
 40
4.0
 40
4.0
 10
175.2806533847281
 20
-45.13063302088523
 30
0.0
 10
175.2806533847281
 20
-45.13063302088523
 30
0.0
 10
161.1477363505736
 20
-69.58106080907763
 30
0.0
 10
161.1477363505736
 20
-69.58106080907763
 30
0.0
 10
157.7295303413768
 20
-63.68825084607563
 30
0.0
 10
155.7831864734461
 20
-56.84214016082056
 30
0.0
 10
155.7831890032143
 20
-49.53932917377814
 30
0.0
 10
155.7831966558533
 20
-27.44806583445941
 30
0.0
 10
173.6892923628947
 20
-9.539536215448319
 30
0.0
 10
195.780590153009
 20
-9.539543868099518
 30
0.0
 10
195.780590153009
 20
-9.539543868099518
 30
0.0
 10
180.9250753059276
 20
-35.35422233385837
 30
0.0
 10
180.9250753059276
 20
-35.35422233385837
 30
0.0
  0
SPLINE
  5
5D
330
55
100
AcDbEntity
  8
OneCircle
 62
     7
420
 16777215
370
    35
100
AcDbSpline
210
0.0
220
0.0
230
1.0
 70
     8
 71
     3
 72
    17
 73
    13
 74
     0
 42
0.0000000001
 43
0.0000000001
 12
1.0
 22
0.0
 32
0.0
 13
1.0
 23
0.0
 33
0.0
 40
0.0
 40
0.0
 40
0.0
 40
0.0
 40
1.0
 40
1.0
 40
1.0
 40
2.0
 40
2.0
 40
2.0
 40
3.0
 40
3.0
 40
3.0
 40
4.0
 40
4.0
 40
4.0
 40
4.0
 10
146.2736418279916
 20
-95.36993483668151
 30
0.0
 10
146.2736418279916
 20
-95.36993483668151
 30
0.0
 10
161.1407283583146
 20
-69.595256191317
 30
0.0
 10
161.1407283583146
 20
-69.595256191317
 30
0.0
 10
139.0494305681996
 20
-69.59524853866613
 30
0.0
 10
121.131763177916
 20
-87.46377833728255
 30
0.0
 10
121.131755525277
 20
-109.5550416766006
 30
0.0
 10
121.1317529955091
 20
-116.8578526636437
 30
0.0
 10
123.1242603690078
 20
-123.7421586393874
 30
0.0
 10
126.542466378204
 20
-129.63496860239
 30
0.0
 10
126.542466378204
 20
-129.63496860239
 30
0.0
 10
140.6292199067913
 20
-105.146345523708
 30
0.0
 10
140.6292199067913
 20
-105.146345523708
 30
0.0
  0
ENDBLK
  5
58
330
55
100
AcDbEntity
  8
0
100
AcDbBlockEnd
  0
BLOCK
  5
60
330
5E
100
AcDbEntity
  8
0
100
AcDbBlockBegin
  2
block 5
 70
     0
 10
0.0
 20
0.0
 30
0.0
  3
block 5
  1

  0
SPLINE
  5
62
330
5E
100
AcDbEntity
  8
OneCircle
 62
     7
420
 16777215
370
    35
100
AcDbSpline
210
0.0
220
0.0
230
1.0
 70
     8
 71
     3
 72
    17
 73
    13
 74
     0
 42
0.0000000001
 43
0.0000000001
 12
1.0
 22
0.0
 32
0.0
 13
1.0
 23
0.0
 33
0.0
 40
0.0
 40
0.0
 40
0.0
 40
0.0
 40
1.0
 40
1.0
 40
1.0
 40
2.0
 40
2.0
 40
2.0
 40
3.0
 40
3.0
 40
3.0
 40
4.0
 40
4.0
 40
4.0
 40
4.0
 10
224.7851089993988
 20
-129.6350000576167
 30
0.0
 10
224.7851089993988
 20
-129.6350000576167
 30
0.0
 10
195.8402730622628
 20
-129.6349900308302
 30
0.0
 10
195.8402730622628
 20
-129.6349900308302
 30
0.0
 10
202.7685997637465
 20
-141.5434615297766
 30
0.0
 10
215.6594994574626
 20
-149.5548954200853
 30
0.0
 10
230.4295206334935
 20
-149.5549005365712
 30
0.0
 10
245.1995073587268
 20
-149.5549056530456
 30
0.0
 10
258.1158956693266
 20
-141.4986834853188
 30
0.0
 10
265.0442306212414
 20
-129.5902167864622
 30
0.0
 10
265.0442306212414
 20
-129.5902167864622
 30
0.0
 10
236.073946068501
 20
-129.6350039681852
 30
0.0
 10
236.073946068501
 20
-129.6350039681852
 30
0.0
  0
SPLINE
  5
63
330
5E
100
AcDbEntity
  8
OneCircle
 62
     7
420
 16777215
370
    35
100
AcDbSpline
210
0.0
220
0.0
230
1.0
 70
     8
 71
     3
 72
    17
 73
    13
 74
     0
 42
0.0000000001
 43
0.0000000001
 12
1.0
 22
0.0
 32
0.0
 13
1.0
 23
0.0
 33
0.0
 40
0.0
 40
0.0
 40
0.0
 40
0.0
 40
1.0
 40
1.0
 40
1.0
 40
2.0
 40
2.0
 40
2.0
 40
3.0
 40
3.0
 40
3.0
 40
4.0
 40
4.0
 40
4.0
 40
4.0
 10
244.6751509194522
 20
-94.30943559775027
 30
0.0
 10
244.6751509194522
 20
-94.30943559775027
 30
0.0
 10
230.411485802087
 20
-69.59888769445418
 30
0.0
 10
230.411485802087
 20
-69.59888769445418
 30
0.0
 10
252.5027491414051
 20
-69.59889534709318
 30
0.0
 10
270.4293631405829
 20
-87.46383005549502
 30
0.0
 10
270.4293554879439
 20
-109.5550933948131
 30
0.0
 10
270.4293529581757
 20
-116.8579043818568
 30
0.0
 10
268.4627268581542
 20
-123.6974203733532
 30
0.0
 10
265.0445167663
 20
-129.5902279681511
 30
0.0
 10
265.0445167663
 20
-129.5902279681511
 30
0.0
 10
250.3195660673529
 20
-104.085850195345
 30
0.0
 10
250.3195660673529
 20
-104.085850195345
 30
0.0
  0
SPLINE
  5
64
330
5E
100
AcDbEntity
  8
OneCircle
 62
     7
420
 16777215
370
    35
100
AcDbSpline
210
0.0
220
0.0
230
1.0
 70
    27
 71
     3
 72
    11
 73
     7
 74
     0
 42
0.0000000001
 43
0.0000000001
 12
1.0
 22
0.0
 32
0.0
 13
1.0
 23
0.0
 33
0.0
 40
0.0
 40
0.0
 40
0.0
 40
0.0
 40
1.0
 40
1.0
 40
1.0
 40
2.0
 40
2.0
 40
2.0
 40
2.0
 10
240.420166616405
 20
-96.76605153626657
 30
0.0
 10
240.420166616405
 20
-96.76605153626657
 30
0.0
 10
246.0645817643063
 20
-106.5424661338616
 30
0.0
 10
246.0645817643063
 20
-106.5424661338616
 30
0.0
 10
246.0645817643063
 20
-106.5424661338616
 30
0.0
 10
240.420166616405
 20
-96.76605153626657
 30
0.0
 10
240.420166616405
 20
-96.76605153626657
 30
0.0
  0
ENDBLK
  5
61
330
5E
100
AcDbEntity
  8
0
100
AcDbBlockEnd
  0
BLOCK
  5
69
330
67
100
AcDbEntity
  8
0
100
AcDbBlockBegin
  2
block 6
 70
     0
 10
0.0
 20
0.0
 30
0.0
  3
block 6
  1

  0
SPLINE
  5
6B
330
67
100
AcDbEntity
  8
OneCircle
 62
     7
420
 16777215
370
    35
100
AcDbSpline
210
0.0
220
0.0
230
1.0
 70
     8
 71
     3
 72
    17
 73
    13
 74
     0
 42
0.0000000001
 43
0.0000000001
 12
1.0
 22
0.0
 32
0.0
 13
1.0
 23
0.0
 33
0.0
 40
0.0
 40
0.0
 40
0.0
 40
0.0
 40
1.0
 40
1.0
 40
1.0
 40
2.0
 40
2.0
 40
2.0
 40
3.0
 40
3.0
 40
3.0
 40
4.0
 40
4.0
 40
4.0
 40
4.0
 10
356.0739529943931
 20
-21.57611506178462
 30
0.0
 10
356.0739529943931
 20
-21.57611506178462
 30
0.0
 10
385.0187889315317
 20
-21.57611506178462
 30
0.0
 10
385.0187889315317
 20
-21.57611506178462
 30
0.0
 10
378.0904581048292
 20
-9.66764596288253
 30
0.0
 10
365.1995556358726
 20
-1.656216538113089
 30
0.0
 10
350.4295344598417
 20
-1.656216538113089
 30
0.0
 10
335.6595477346064
 20
-1.656216538113089
 30
0.0
 10
322.8688855688568
 20
-9.667643385855122
 30
0.0
 10
315.9405547421568
 20
-21.57611248475721
 30
0.0
 10
315.9405547421568
 20
-21.57611248475721
 30
0.0
 10
344.7851159252903
 20
-21.57611506178462
 30
0.0
 10
344.7851159252903
 20
-21.57611506178462
 30
0.0
  0
SPLINE
  5
6C
330
67
100
AcDbEntity
  8
OneCircle
 62
     7
420
 16777215
370
    35
100
AcDbSpline
210
0.0
220
0.0
230
1.0
 70
    27
 71
     3
 72
    11
 73
     7
 74
     0
 42
0.0000000001
 43
0.0000000001
 12
1.0
 22
0.0
 32
0.0
 13
1.0
 23
0.0
 33
0.0
 40
0.0
 40
0.0
 40
0.0
 40
0.0
 40
1.0
 40
1.0
 40
1.0
 40
2.0
 40
2.0
 40
2.0
 40
2.0
 10
366.981936505761
 20
-43.78423550357746
 30
0.0
 10
366.981936505761
 20
-43.78423550357746
 30
0.0
 10
361.3375179712071
 20
-53.5606481458892
 30
0.0
 10
361.3375179712071
 20
-53.5606481458892
 30
0.0
 10
361.3375179712071
 20
-53.5606481458892
 30
0.0
 10
366.981936505761
 20
-43.78423550357746
 30
0.0
 10
366.981936505761
 20
-43.78423550357746
 30
0.0
  0
SPLINE
  5
6D
330
67
100
AcDbEntity
  8
OneCircle
 62
     7
420
 16777215
370
    35
100
AcDbSpline
210
0.0
220
0.0
230
1.0
 70
     8
 71
     3
 72
    20
 73
    16
 74
     0
 42
0.0000000001
 43
0.0000000001
 12
1.0
 22
0.0
 32
0.0
 13
1.0
 23
0.0
 33
0.0
 40
0.0
 40
0.0
 40
0.0
 40
0.0
 40
1.0
 40
1.0
 40
1.0
 40
2.0
 40
2.0
 40
2.0
 40
3.0
 40
3.0
 40
3.0
 40
4.0
 40
4.0
 40
4.0
 40
5.0
 40
5.0
 40
5.0
 40
5.0
 10
295.8880920890455
 20
-107.1409982758806
 30
0.0
 10
295.8880920890455
 20
-107.1409982758806
 30
0.0
 10
281.1496390223642
 20
-81.61222937397777
 30
0.0
 10
281.1496390223642
 20
-81.61222937397777
 30
0.0
 10
277.7314309718374
 20
-87.50503815287756
 30
0.0
 10
275.7783007738548
 20
-94.36895105560602
 30
0.0
 10
275.7783007738548
 20
-101.6717620426488
 30
0.0
 10
275.7783007738548
 20
-123.7630253819688
 30
0.0
 10
293.6868584326424
 20
-141.6715485899589
 30
0.0
 10
315.7781217719618
 20
-141.6715485899589
 30
0.0
 10
315.7781217719618
 20
-141.6715485899589
 30
0.0
 10
315.7781217719618
 20
-141.6715612038331
 30
0.0
 10
315.7781217719618
 20
-141.6715612038331
 30
0.0
 10
315.7781217719618
 20
-141.6715612038331
 30
0.0
 10
301.5325106235963
 20
-116.9174109181923
 30
0.0
 10
301.5325106235963
 20
-116.9174109181923
 30
0.0
  0
SPLINE
  5
6E
330
67
100
AcDbEntity
  8
OneCircle
 62
     7
420
 16777215
370
    35
100
AcDbSpline
210
0.0
220
0.0
230
1.0
 70
     8
 71
     3
 72
    17
 73
    13
 74
     0
 42
0.0000000001
 43
0.0000000001
 12
1.0
 22
0.0
 32
0.0
 13
1.0
 23
0.0
 33
0.0
 40
0.0
 40
0.0
 40
0.0
 40
0.0
 40
1.0
 40
1.0
 40
1.0
 40
2.0
 40
2.0
 40
2.0
 40
3.0
 40
3.0
 40
3.0
 40
4.0
 40
4.0
 40
4.0
 40
4.0
 10
336.2804799157731
 20
-106.0804649496621
 30
0.0
 10
336.2804799157731
 20
-106.0804649496621
 30
0.0
 10
350.4133884800495
 20
-81.63003226568499
 30
0.0
 10
350.4133884800495
 20
-81.63003226568499
 30
0.0
 10
353.8315965305744
 20
-87.5228410445851
 30
0.0
 10
355.7779427700675
 20
-94.36895105560602
 30
0.0
 10
355.7779427700675
 20
-101.6717620426488
 30
0.0
 10
355.7779427700675
 20
-123.7630253819688
 30
0.0
 10
337.8718532667254
 20
-141.6715612038331
 30
0.0
 10
315.7805554766104
 20
-141.6715612038331
 30
0.0
 10
315.7805554766104
 20
-141.6715612038331
 30
0.0
 10
330.6360613812217
 20
-115.8568775919739
 30
0.0
 10
330.6360613812217
 20
-115.8568775919739
 30
0.0
  0
SPLINE
  5
6F
330
67
100
AcDbEntity
  8
OneCircle
 62
     7
420
 16777215
370
    35
100
AcDbSpline
210
0.0
220
0.0
230
1.0
 70
     8
 71
     3
 72
    17
 73
    13
 74
     0
 42
0.0000000001
 43
0.0000000001
 12
1.0
 22
0.0
 32
0.0
 13
1.0
 23
0.0
 33
0.0
 40
0.0
 40
0.0
 40
0.0
 40
0.0
 40
1.0
 40
1.0
 40
1.0
 40
2.0
 40
2.0
 40
2.0
 40
3.0
 40
3.0
 40
3.0
 40
4.0
 40
4.0
 40
4.0
 40
4.0
 10
365.2874740690997
 20
-55.84115308554455
 30
0.0
 10
365.2874740690997
 20
-55.84115308554455
 30
0.0
 10
350.4203964673906
 20
-81.61583688101743
 30
0.0
 10
350.4203964673906
 20
-81.61583688101743
 30
0.0
 10
372.5116942575081
 20
-81.61583688101743
 30
0.0
 10
390.4293554579506
 20
-63.74730087553944
 30
0.0
 10
390.4293554579506
 20
-41.65603753622008
 30
0.0
 10
390.4293554579506
 20
-34.35322654917605
 30
0.0
 10
388.4368456996567
 20
-27.46892126365765
 30
0.0
 10
385.0186376491318
 20
-21.57611248475721
 30
0.0
 10
385.0186376491318
 20
-21.57611248475721
 30
0.0
 10
370.931892603653
 20
-46.06474044323281
 30
0.0
 10
370.931892603653
 20
-46.06474044323281
 30
0.0
  0
ENDBLK
  5
6A
330
67
100
AcDbEntity
  8
0
100
AcDbBlockEnd
  0
BLOCK
  5
72
330
70
100
AcDbEntity
  8
0
100
AcDbBlockBegin
  2
block 7
 70
     0
 10
0.0
 20
0.0
 30
0.0
  3
block 7
  1

  0
SPLINE
  5
74
330
70
100
AcDbEntity
  8
OneCircle
 62
     7
420
 16777215
370
    35
100
AcDbSpline
210
0.0
220
0.0
230
1.0
 70
     8
 71
     3
 72
    17
 73
    13
 74
     0
 42
0.0000000001
 43
0.0000000001
 12
1.0
 22
0.0
 32
0.0
 13
1.0
 23
0.0
 33
0.0
 40
0.0
 40
0.0
 40
0.0
 40
0.0
 40
1.0
 40
1.0
 40
1.0
 40
2.0
 40
2.0
 40
2.0
 40
3.0
 40
3.0
 40
3.0
 40
4.0
 40
4.0
 40
4.0
 40
4.0
 10
286.7759950279305
 20
-21.57611506178462
 30
0.0
 10
286.7759950279305
 20
-21.57611506178462
 30
0.0
 10
315.7208309650678
 20
-21.57611506178462
 30
0.0
 10
315.7208309650678
 20
-21.57611506178462
 30
0.0
 10
308.7925001383686
 20
-9.66764596288253
 30
0.0
 10
295.9015976694106
 20
-1.656216538113089
 30
0.0
 10
281.1315764933792
 20
-1.656216538113089
 30
0.0
 10
266.3615897681445
 20
-1.656216538113089
 30
0.0
 10
253.4452042483035
 20
-9.712443180207718
 30
0.0
 10
246.5168734216036
 20
-21.62091227910981
 30
0.0
 10
246.5168734216036
 20
-21.62091227910981
 30
0.0
 10
275.4871579588278
 20
-21.57611506178462
 30
0.0
 10
275.4871579588278
 20
-21.57611506178462
 30
0.0
  0
SPLINE
  5
75
330
70
100
AcDbEntity
  8
OneCircle
 62
     7
420
 16777215
370
    35
100
AcDbSpline
210
0.0
220
0.0
230
1.0
 70
     8
 71
     3
 72
    17
 73
    13
 74
     0
 42
0.0000000001
 43
0.0000000001
 12
1.0
 22
0.0
 32
0.0
 13
1.0
 23
0.0
 33
0.0
 40
0.0
 40
0.0
 40
0.0
 40
0.0
 40
1.0
 40
1.0
 40
1.0
 40
2.0
 40
2.0
 40
2.0
 40
3.0
 40
3.0
 40
3.0
 40
4.0
 40
4.0
 40
4.0
 40
4.0
 10
266.8859653450143
 20
-56.90168641176235
 30
0.0
 10
266.8859653450143
 20
-56.90168641176235
 30
0.0
 10
281.1496390223642
 20
-81.61222937397777
 30
0.0
 10
281.1496390223642
 20
-81.61222937397777
 30
0.0
 10
259.0583756830449
 20
-81.61222937397777
 30
0.0
 10
241.1317554952728
 20
-63.74730087553944
 30
0.0
 10
241.1317554952728
 20
-41.65603753622008
 30
0.0
 10
241.1317554952728
 20
-34.35322654917605
 30
0.0
 10
243.0983792260156
 20
-27.51370987642053
 30
0.0
 10
246.5165872765411
 20
-21.62090109752009
 30
0.0
 10
246.5165872765411
 20
-21.62090109752009
 30
0.0
 10
261.2415468104635
 20
-47.12527376945125
 30
0.0
 10
261.2415468104635
 20
-47.12527376945125
 30
0.0
  0
SPLINE
  5
76
330
70
100
AcDbEntity
  8
OneCircle
 62
     7
420
 16777215
370
    35
100
AcDbSpline
210
0.0
220
0.0
230
1.0
 70
    27
 71
     3
 72
    11
 73
     7
 74
     0
 42
0.0000000001
 43
0.0000000001
 12
1.0
 22
0.0
 32
0.0
 13
1.0
 23
0.0
 33
0.0
 40
0.0
 40
0.0
 40
0.0
 40
0.0
 40
1.0
 40
1.0
 40
1.0
 40
2.0
 40
2.0
 40
2.0
 40
2.0
 10
271.1409487970646
 20
-54.44506899927651
 30
0.0
 10
271.1409487970646
 20
-54.44506899927651
 30
0.0
 10
265.4965302625138
 20
-44.66865635696477
 30
0.0
 10
265.4965302625138
 20
-44.66865635696477
 30
0.0
 10
265.4965302625138
 20
-44.66865635696477
 30
0.0
 10
271.1409487970646
 20
-54.44506899927651
 30
0.0
 10
271.1409487970646
 20
-54.44506899927651
 30
0.0
  0
ENDBLK
  5
73
330
70
100
AcDbEntity
  8
0
100
AcDbBlockEnd
  0
ENDSEC
  0
SECTION
  2
ENTITIES
  0
SPLINE
  5
41
330
1F
100
AcDbEntity
  8
OneCircle
 62
     7
420
 16777215
370
    35
100
AcDbSpline
210
0.0
220
0.0
230
1.0
 70
    27
 71
     3
 72
    11
 73
     7
 74
     0
 42
0.0000000001
 43
0.0000000001
 12
1.0
 22
0.0
 32
0.0
 13
1.0
 23
0.0
 33
0.0
 40
0.0
 40
0.0
 40
0.0
 40
0.0
 40
1.0
 40
1.0
 40
1.0
 40
2.0
 40
2.0
 40
2.0
 40
2.0
 10
92.91385721106677
 20
-103.7999600100068
 30
0.0
 10
92.91385721106677
 20
-103.7999600100068
 30
0.0
 10
87.26943867651568
 20
-113.5763726523185
 30
0.0
 10
87.26943867651568
 20
-113.5763726523185
 30
0.0
 10
87.26943867651568
 20
-113.5763726523185
 30
0.0
 10
92.91385721106677
 20
-103.7999600100068
 30
0.0
 10
92.91385721106677
 20
-103.7999600100068
 30
0.0
  0
SPLINE
  5
42
330
1F
100
AcDbEntity
  8
OneCircle
 62
     7
420
 16777215
370
    35
100
AcDbSpline
210
0.0
220
0.0
230
1.0
 70
    27
 71
     3
 72
    11
 73
     7
 74
     0
 42
0.0000000001
 43
0.0000000001
 12
1.0
 22
0.0
 32
0.0
 13
1.0
 23
0.0
 33
0.0
 40
0.0
 40
0.0
 40
0.0
 40
0.0
 40
1.0
 40
1.0
 40
1.0
 40
2.0
 40
2.0
 40
2.0
 40
2.0
 10
66.37082746883448
 20
-114.4607935057058
 30
0.0
 10
66.37082746883448
 20
-114.4607935057058
 30
0.0
 10
60.72640893428307
 20
-104.6843808633938
 30
0.0
 10
60.72640893428307
 20
-104.6843808633938
 30
0.0
 10
60.72640893428307
 20
-104.6843808633938
 30
0.0
 10
66.37082746883448
 20
-114.4607935057058
 30
0.0
 10
66.37082746883448
 20
-114.4607935057058
 30
0.0
  0
INSERT
  5
44
330
1F
100
AcDbEntity
  8
OneCircle
100
AcDbBlockReference
  2
block 2
 10
0.0
 20
0.0
 30
0.0
  0
INSERT
  5
4D
330
1F
100
AcDbEntity
  8
OneCircle
100
AcDbBlockReference
  2
block 3
 10
0.0
 20
0.0
 30
0.0
  0
SPLINE
  5
53
330
1F
100
AcDbEntity
  8
OneCircle
 62
     7
420
 16777215
370
    35
100
AcDbSpline
210
0.0
220
0.0
230
1.0
 70
    27
 71
     3
 72
    11
 73
     7
 74
     0
 42
0.0000000001
 43
0.0000000001
 12
1.0
 22
0.0
 32
0.0
 13
1.0
 23
0.0
 33
0.0
 40
0.0
 40
0.0
 40
0.0
 40
0.0
 40
1.0
 40
1.0
 40
1.0
 40
2.0
 40
2.0
 40
2.0
 40
2.0
 10
179.230608692632
 20
-47.41113932884539
 30
0.0
 10
179.230608692632
 20
-47.41113932884539
 30
0.0
 10
184.8750306138316
 20
-37.63472864181853
 30
0.0
 10
184.8750306138316
 20
-37.63472864181853
 30
0.0
 10
184.8750306138316
 20
-37.63472864181853
 30
0.0
 10
179.230608692632
 20
-47.41113932884539
 30
0.0
 10
179.230608692632
 20
-47.41113932884539
 30
0.0
  0
SPLINE
  5
54
330
1F
100
AcDbEntity
  8
OneCircle
 62
     7
420
 16777215
370
    35
100
AcDbSpline
210
0.0
220
0.0
230
1.0
 70
    27
 71
     3
 72
    11
 73
     7
 74
     0
 42
0.0000000001
 43
0.0000000001
 12
1.0
 22
0.0
 32
0.0
 13
1.0
 23
0.0
 33
0.0
 40
0.0
 40
0.0
 40
0.0
 40
0.0
 40
1.0
 40
1.0
 40
1.0
 40
2.0
 40
2.0
 40
2.0
 40
2.0
 10
205.7736421278837
 20
-36.75031502792353
 30
0.0
 10
205.7736421278837
 20
-36.75031502792353
 30
0.0
 10
211.4180572757856
 20
-46.5267296255192
 30
0.0
 10
211.4180572757856
 20
-46.5267296255192
 30
0.0
 10
211.4180572757856
 20
-46.5267296255192
 30
0.0
 10
205.7736421278837
 20
-36.75031502792353
 30
0.0
 10
205.7736421278837
 20
-36.75031502792353
 30
0.0
  0
INSERT
  5
56
330
1F
100
AcDbEntity
  8
OneCircle
100
AcDbBlockReference
  2
block 4
 10
0.0
 20
0.0
 30
0.0
  0
INSERT
  5
5F
330
1F
100
AcDbEntity
  8
OneCircle
100
AcDbBlockReference
  2
block 5
 10
0.0
 20
0.0
 30
0.0
  0
SPLINE
  5
65
330
1F
100
AcDbEntity
  8
OneCircle
 62
     7
420
 16777215
370
    35
100
AcDbSpline
210
0.0
220
0.0
230
1.0
 70
    27
 71
     3
 72
    11
 73
     7
 74
     0
 42
0.0000000001
 43
0.0000000001
 12
1.0
 22
0.0
 32
0.0
 13
1.0
 23
0.0
 33
0.0
 40
0.0
 40
0.0
 40
0.0
 40
0.0
 40
1.0
 40
1.0
 40
1.0
 40
2.0
 40
2.0
 40
2.0
 40
2.0
 10
332.3305238178786
 20
-103.7999600100068
 30
0.0
 10
332.3305238178786
 20
-103.7999600100068
 30
0.0
 10
326.6861052833285
 20
-113.5763726523185
 30
0.0
 10
326.6861052833285
 20
-113.5763726523185
 30
0.0
 10
326.6861052833285
 20
-113.5763726523185
 30
0.0
 10
332.3305238178786
 20
-103.7999600100068
 30
0.0
 10
332.3305238178786
 20
-103.7999600100068
 30
0.0
  0
SPLINE
  5
66
330
1F
100
AcDbEntity
  8
OneCircle
 62
     7
420
 16777215
370
    35
100
AcDbSpline
210
0.0
220
0.0
230
1.0
 70
    27
 71
     3
 72
    11
 73
     7
 74
     0
 42
0.0000000001
 43
0.0000000001
 12
1.0
 22
0.0
 32
0.0
 13
1.0
 23
0.0
 33
0.0
 40
0.0
 40
0.0
 40
0.0
 40
0.0
 40
1.0
 40
1.0
 40
1.0
 40
2.0
 40
2.0
 40
2.0
 40
2.0
 10
305.7874940756473
 20
-114.4607935057058
 30
0.0
 10
305.7874940756473
 20
-114.4607935057058
 30
0.0
 10
300.1430755410959
 20
-104.6843808633941
 30
0.0
 10
300.1430755410959
 20
-104.6843808633941
 30
0.0
 10
300.1430755410959
 20
-104.6843808633941
 30
0.0
 10
305.7874940756473
 20
-114.4607935057058
 30
0.0
 10
305.7874940756473
 20
-114.4607935057058
 30
0.0
  0
INSERT
  5
68
330
1F
100
AcDbEntity
  8
OneCircle
100
AcDbBlockReference
  2
block 6
 10
0.0
 20
0.0
 30
0.0
  0
INSERT
  5
71
330
1F
100
AcDbEntity
  8
OneCircle
100
AcDbBlockReference
  2
block 7
 10
0.0
 20
0.0
 30
0.0
  0
SPLINE
  5
77
330
1F
100
AcDbEntity
  8
OneCircle
 62
     7
420
 16777215
370
    35
100
AcDbSpline
210
0.0
220
0.0
230
1.0
 70
    27
 71
     3
 72
    11
 73
     7
 74
     0
 42
0.0000000001
 43
0.0000000001
 12
1.0
 22
0.0
 32
0.0
 13
1.0
 23
0.0
 33
0.0
 40
0.0
 40
0.0
 40
0.0
 40
0.0
 40
1.0
 40
1.0
 40
1.0
 40
2.0
 40
2.0
 40
2.0
 40
2.0
 10
33.44752346308501
 20
-189.9876051777067
 30
0.0
 10
33.44752346308501
 20
-189.9876051777067
 30
0.0
 10
39.09196936071499
 20
-180.2111451411864
 30
0.0
 10
39.09196936071499
 20
-180.2111451411864
 30
0.0
 10
39.09196936071499
 20
-180.2111451411864
 30
0.0
 10
33.44752346308501
 20
-189.9876051777067
 30
0.0
 10
33.44752346308501
 20
-189.9876051777067
 30
0.0
  0
SPLINE
  5
78
330
1F
100
AcDbEntity
  8
OneCircle
 62
     7
420
 16777215
370
    35
100
AcDbSpline
210
0.0
220
0.0
230
1.0
 70
     8
 71
     3
 72
    59
 73
    55
 74
     0
 42
0.0000000001
 43
0.0000000001
 12
1.0
 22
0.0
 32
0.0
 13
1.0
 23
0.0
 33
0.0
 40
0.0
 40
0.0
 40
0.0
 40
0.0
 40
1.0
 40
1.0
 40
1.0
 40
2.0
 40
2.0
 40
2.0
 40
3.0
 40
3.0
 40
3.0
 40
4.0
 40
4.0
 40
4.0
 40
5.0
 40
5.0
 40
5.0
 40
6.0
 40
6.0
 40
6.0
 40
7.0
 40
7.0
 40
7.0
 40
8.0
 40
8.0
 40
8.0
 40
9.0
 40
9.0
 40
9.0
 40
10.0
 40
10.0
 40
10.0
 40
11.0
 40
11.0
 40
11.0
 40
12.0
 40
12.0
 40
12.0
 40
13.0
 40
13.0
 40
13.0
 40
14.0
 40
14.0
 40
14.0
 40
15.0
 40
15.0
 40
15.0
 40
16.0
 40
16.0
 40
16.0
 40
17.0
 40
17.0
 40
17.0
 40
18.0
 40
18.0
 40
18.0
 40
18.0
 10
35.14199411417749
 20
-177.9306291460724
 30
0.0
 10
35.14199411417749
 20
-177.9306291460724
 30
0.0
 10
49.99999652883893
 20
-152.1158283918752
 30
0.0
 10
49.99999652883893
 20
-152.1158283918752
 30
0.0
 10
27.90859164426896
 20
-152.1158283918752
 30
0.0
 10
9.99999084222256
 20
-170.0244430285614
 30
0.0
 10
9.99999084222256
 20
-192.1158134621671
 30
0.0
 10
9.99999084222256
 20
-199.4186598518613
 30
0.0
 10
11.96662410678684
 20
-206.258209681307
 30
0.0
 10
15.38484872814184
 20
-212.1510470274345
 30
0.0
 10
15.38484872814184
 20
-212.1510470274345
 30
0.0
 10
29.49754821654783
 20
-187.7070891825927
 30
0.0
 10
29.49754821654783
 20
-187.7070891825927
 30
0.0
 10
29.49754821654783
 20
-187.7070891825927
 30
0.0
 10
15.38484872814184
 20
-212.1510470274345
 30
0.0
 10
15.38484872814184
 20
-212.1510470274345
 30
0.0
 10
15.39349592003831
 20
-212.1659298437666
 30
0.0
 10
15.4019019551885
 20
-212.1809504639539
 30
0.0
 10
15.41058359804868
 20
-212.1958332802844
 30
0.0
 10
15.41058359804868
 20
-212.1958332802844
 30
0.0
 10
44.35555985430241
 20
-212.1958332802844
 30
0.0
 10
44.35555985430241
 20
-212.1958332802844
 30
0.0
 10
44.35555985430241
 20
-212.1958332802844
 30
0.0
 10
15.41058359804868
 20
-212.1958332802844
 30
0.0
 10
15.41058359804868
 20
-212.1958332802844
 30
0.0
 10
22.33894801199212
 20
-224.1043601092042
 30
0.0
 10
35.22991297361824
 20
-232.115828371875
 30
0.0
 10
50.00000575193206
 20
-232.115828371875
 30
0.0
 10
64.77006407928154
 20
-232.115828371875
 30
0.0
 10
77.66106349187073
 20
-224.1043601092042
 30
0.0
 10
84.58942790581418
 20
-212.1958332802844
 30
0.0
 10
84.58942790581418
 20
-212.1958332802844
 30
0.0
 10
55.6444516495614
 20
-212.1958332802844
 30
0.0
 10
55.6444516495614
 20
-212.1958332802844
 30
0.0
 10
55.6444516495614
 20
-212.1958332802844
 30
0.0
 10
84.58942790581418
 20
-212.1958332802844
 30
0.0
 10
84.58942790581418
 20
-212.1958332802844
 30
0.0
 10
84.59810954867434
 20
-212.1809504639539
 30
0.0
 10
84.60651558382455
 20
-212.1659298437666
 30
0.0
 10
84.615162775721
 20
-212.1510470274345
 30
0.0
 10
84.615162775721
 20
-212.1510470274345
 30
0.0
 10
69.89013185796702
 20
-186.6465507151078
 30
0.0
 10
69.89013185796702
 20
-186.6465507151078
 30
0.0
 10
69.89013185796702
 20
-186.6465507151078
 30
0.0
 10
84.615162775721
 20
-212.1510470274345
 30
0.0
 10
84.615162775721
 20
-212.1510470274345
 30
0.0
 10
88.03338739707601
 20
-206.258209681307
 30
0.0
 10
90.00002066164029
 20
-199.4186598518613
 30
0.0
 10
90.00002066164029
 20
-192.1158134621671
 30
0.0
 10
90.00002066164029
 20
-170.0244430285614
 30
0.0
 10
72.09136696244391
 20
-152.1158283918752
 30
0.0
 10
49.99999652883862
 20
-152.1158283918752
 30
0.0
 10
49.99999652883862
 20
-152.1158283918752
 30
0.0
 10
64.24568596033735
 20
-176.8700906785876
 30
0.0
 10
64.24568596033735
 20
-176.8700906785876
 30
0.0
  0
SPLINE
  5
79
330
1F
100
AcDbEntity
  8
OneCircle
 62
     7
420
 16777215
370
    35
100
AcDbSpline
210
0.0
220
0.0
230
1.0
 70
    27
 71
     3
 72
    11
 73
     7
 74
     0
 42
0.0000000001
 43
0.0000000001
 12
1.0
 22
0.0
 32
0.0
 13
1.0
 23
0.0
 33
0.0
 40
0.0
 40
0.0
 40
0.0
 40
0.0
 40
1.0
 40
1.0
 40
1.0
 40
2.0
 40
2.0
 40
2.0
 40
2.0
 10
59.99068188092886
 20
-179.3267200002934
 30
0.0
 10
59.99068188092886
 20
-179.3267200002934
 30
0.0
 10
65.6351277785582
 20
-189.1031800368136
 30
0.0
 10
65.6351277785582
 20
-189.1031800368136
 30
0.0
 10
65.6351277785582
 20
-189.1031800368136
 30
0.0
 10
59.99068188092886
 20
-179.3267200002934
 30
0.0
 10
59.99068188092886
 20
-179.3267200002934
 30
0.0
  0
SPLINE
  5
7A
330
1F
100
AcDbEntity
  8
OneCircle
 62
     7
420
 16777215
370
    35
100
AcDbSpline
210
0.0
220
0.0
230
1.0
 70
    27
 71
     3
 72
    11
 73
     7
 74
     0
 42
0.0000000001
 43
0.0000000001
 12
1.0
 22
0.0
 32
0.0
 13
1.0
 23
0.0
 33
0.0
 40
0.0
 40
0.0
 40
0.0
 40
0.0
 40
1.0
 40
1.0
 40
1.0
 40
2.0
 40
2.0
 40
2.0
 40
2.0
 10
116.2086287890746
 20
-189.9876051777067
 30
0.0
 10
116.2086287890746
 20
-189.9876051777067
 30
0.0
 10
121.8530746867045
 20
-180.2111451411864
 30
0.0
 10
121.8530746867045
 20
-180.2111451411864
 30
0.0
 10
121.8530746867045
 20
-180.2111451411864
 30
0.0
 10
116.2086287890746
 20
-189.9876051777067
 30
0.0
 10
116.2086287890746
 20
-189.9876051777067
 30
0.0
  0
SPLINE
  5
7B
330
1F
100
AcDbEntity
  8
OneCircle
 62
     7
420
 16777215
370
    35
100
AcDbSpline
210
0.0
220
0.0
230
1.0
 70
     8
 71
     3
 72
    59
 73
    55
 74
     0
 42
0.0000000001
 43
0.0000000001
 12
1.0
 22
0.0
 32
0.0
 13
1.0
 23
0.0
 33
0.0
 40
0.0
 40
0.0
 40
0.0
 40
0.0
 40
1.0
 40
1.0
 40
1.0
 40
2.0
 40
2.0
 40
2.0
 40
3.0
 40
3.0
 40
3.0
 40
4.0
 40
4.0
 40
4.0
 40
5.0
 40
5.0
 40
5.0
 40
6.0
 40
6.0
 40
6.0
 40
7.0
 40
7.0
 40
7.0
 40
8.0
 40
8.0
 40
8.0
 40
9.0
 40
9.0
 40
9.0
 40
10.0
 40
10.0
 40
10.0
 40
11.0
 40
11.0
 40
11.0
 40
12.0
 40
12.0
 40
12.0
 40
13.0
 40
13.0
 40
13.0
 40
14.0
 40
14.0
 40
14.0
 40
15.0
 40
15.0
 40
15.0
 40
16.0
 40
16.0
 40
16.0
 40
17.0
 40
17.0
 40
17.0
 40
18.0
 40
18.0
 40
18.0
 40
18.0
 10
117.903099440167
 20
-177.9306291460724
 30
0.0
 10
117.903099440167
 20
-177.9306291460724
 30
0.0
 10
132.7611018548285
 20
-152.1158283918752
 30
0.0
 10
132.7611018548285
 20
-152.1158283918752
 30
0.0
 10
110.6696969702585
 20
-152.1158283918752
 30
0.0
 10
92.7610961682121
 20
-170.0244430285614
 30
0.0
 10
92.7610961682121
 20
-192.1158134621671
 30
0.0
 10
92.7610961682121
 20
-199.4186598518613
 30
0.0
 10
94.72772943277639
 20
-206.258209681307
 30
0.0
 10
98.14595405413107
 20
-212.1510470274345
 30
0.0
 10
98.14595405413107
 20
-212.1510470274345
 30
0.0
 10
112.2586535425374
 20
-187.7070891825927
 30
0.0
 10
112.2586535425374
 20
-187.7070891825927
 30
0.0
 10
112.2586535425374
 20
-187.7070891825927
 30
0.0
 10
98.14595405413107
 20
-212.1510470274345
 30
0.0
 10
98.14595405413107
 20
-212.1510470274345
 30
0.0
 10
98.15460124602754
 20
-212.1659298437666
 30
0.0
 10
98.16300728117805
 20
-212.1809504639539
 30
0.0
 10
98.17168892403822
 20
-212.1958332802844
 30
0.0
 10
98.17168892403822
 20
-212.1958332802844
 30
0.0
 10
127.116665180292
 20
-212.1958332802844
 30
0.0
 10
127.116665180292
 20
-212.1958332802844
 30
0.0
 10
127.116665180292
 20
-212.1958332802844
 30
0.0
 10
98.17168892403822
 20
-212.1958332802844
 30
0.0
 10
98.17168892403822
 20
-212.1958332802844
 30
0.0
 10
105.1000533379817
 20
-224.1043601092042
 30
0.0
 10
117.9910182996078
 20
-232.115828371875
 30
0.0
 10
132.7611110779219
 20
-232.115828371875
 30
0.0
 10
147.5311694052711
 20
-232.115828371875
 30
0.0
 10
160.4221688178603
 20
-224.1043601092042
 30
0.0
 10
167.350533231804
 20
-212.1958332802844
 30
0.0
 10
167.350533231804
 20
-212.1958332802844
 30
0.0
 10
138.405556975551
 20
-212.1958332802844
 30
0.0
 10
138.405556975551
 20
-212.1958332802844
 30
0.0
 10
138.405556975551
 20
-212.1958332802844
 30
0.0
 10
167.350533231804
 20
-212.1958332802844
 30
0.0
 10
167.350533231804
 20
-212.1958332802844
 30
0.0
 10
167.3592148746639
 20
-212.1809504639539
 30
0.0
 10
167.3676209098141
 20
-212.1659298437666
 30
0.0
 10
167.3762681017106
 20
-212.1510470274345
 30
0.0
 10
167.3762681017106
 20
-212.1510470274345
 30
0.0
 10
152.6512371839566
 20
-186.6465507151078
 30
0.0
 10
152.6512371839566
 20
-186.6465507151078
 30
0.0
 10
152.6512371839566
 20
-186.6465507151078
 30
0.0
 10
167.3762681017106
 20
-212.1510470274345
 30
0.0
 10
167.3762681017106
 20
-212.1510470274345
 30
0.0
 10
170.7944927230656
 20
-206.258209681307
 30
0.0
 10
172.7611259876298
 20
-199.4186598518613
 30
0.0
 10
172.7611259876298
 20
-192.1158134621671
 30
0.0
 10
172.7611259876298
 20
-170.0244430285614
 30
0.0
 10
154.8524722884335
 20
-152.1158283918752
 30
0.0
 10
132.7611018548282
 20
-152.1158283918752
 30
0.0
 10
132.7611018548282
 20
-152.1158283918752
 30
0.0
 10
147.0067912863269
 20
-176.8700906785876
 30
0.0
 10
147.0067912863269
 20
-176.8700906785876
 30
0.0
  0
SPLINE
  5
7C
330
1F
100
AcDbEntity
  8
OneCircle
 62
     7
420
 16777215
370
    35
100
AcDbSpline
210
0.0
220
0.0
230
1.0
 70
    27
 71
     3
 72
    11
 73
     7
 74
     0
 42
0.0000000001
 43
0.0000000001
 12
1.0
 22
0.0
 32
0.0
 13
1.0
 23
0.0
 33
0.0
 40
0.0
 40
0.0
 40
0.0
 40
0.0
 40
1.0
 40
1.0
 40
1.0
 40
2.0
 40
2.0
 40
2.0
 40
2.0
 10
142.7517872069184
 20
-179.3267200002934
 30
0.0
 10
142.7517872069184
 20
-179.3267200002934
 30
0.0
 10
148.3962331045477
 20
-189.1031800368136
 30
0.0
 10
148.3962331045477
 20
-189.1031800368136
 30
0.0
 10
148.3962331045477
 20
-189.1031800368136
 30
0.0
 10
142.7517872069184
 20
-179.3267200002934
 30
0.0
 10
142.7517872069184
 20
-179.3267200002934
 30
0.0
  0
SPLINE
  5
7D
330
1F
100
AcDbEntity
  8
OneCircle
 62
     7
420
 16777215
370
    35
100
AcDbSpline
210
0.0
220
0.0
230
1.0
 70
    27
 71
     3
 72
    11
 73
     7
 74
     0
 42
0.0000000001
 43
0.0000000001
 12
1.0
 22
0.0
 32
0.0
 13
1.0
 23
0.0
 33
0.0
 40
0.0
 40
0.0
 40
0.0
 40
0.0
 40
1.0
 40
1.0
 40
1.0
 40
2.0
 40
2.0
 40
2.0
 40
2.0
 10
199.1225205394503
 20
-189.9876051777054
 30
0.0
 10
199.1225205394503
 20
-189.9876051777054
 30
0.0
 10
204.7669664370806
 20
-180.2111451411851
 30
0.0
 10
204.7669664370806
 20
-180.2111451411851
 30
0.0
 10
204.7669664370806
 20
-180.2111451411851
 30
0.0
 10
199.1225205394503
 20
-189.9876051777054
 30
0.0
 10
199.1225205394503
 20
-189.9876051777054
 30
0.0
  0
SPLINE
  5
7E
330
1F
100
AcDbEntity
  8
OneCircle
 62
     7
420
 16777215
370
    35
100
AcDbSpline
210
0.0
220
0.0
230
1.0
 70
     8
 71
     3
 72
    59
 73
    55
 74
     0
 42
0.0000000001
 43
0.0000000001
 12
1.0
 22
0.0
 32
0.0
 13
1.0
 23
0.0
 33
0.0
 40
0.0
 40
0.0
 40
0.0
 40
0.0
 40
1.0
 40
1.0
 40
1.0
 40
2.0
 40
2.0
 40
2.0
 40
3.0
 40
3.0
 40
3.0
 40
4.0
 40
4.0
 40
4.0
 40
5.0
 40
5.0
 40
5.0
 40
6.0
 40
6.0
 40
6.0
 40
7.0
 40
7.0
 40
7.0
 40
8.0
 40
8.0
 40
8.0
 40
9.0
 40
9.0
 40
9.0
 40
10.0
 40
10.0
 40
10.0
 40
11.0
 40
11.0
 40
11.0
 40
12.0
 40
12.0
 40
12.0
 40
13.0
 40
13.0
 40
13.0
 40
14.0
 40
14.0
 40
14.0
 40
15.0
 40
15.0
 40
15.0
 40
16.0
 40
16.0
 40
16.0
 40
17.0
 40
17.0
 40
17.0
 40
18.0
 40
18.0
 40
18.0
 40
18.0
 10
200.8169911905428
 20
-177.9306291460711
 30
0.0
 10
200.8169911905428
 20
-177.9306291460711
 30
0.0
 10
215.6749936052042
 20
-152.1158283918752
 30
0.0
 10
215.6749936052042
 20
-152.1158283918752
 30
0.0
 10
193.5835887206345
 20
-152.1158283918752
 30
0.0
 10
175.6749879185878
 20
-170.0244430285614
 30
0.0
 10
175.6749879185878
 20
-192.1158134621658
 30
0.0
 10
175.6749879185878
 20
-199.4186598518613
 30
0.0
 10
177.6416211831521
 20
-206.258209681307
 30
0.0
 10
181.0598458045074
 20
-212.1510470274345
 30
0.0
 10
181.0598458045074
 20
-212.1510470274345
 30
0.0
 10
195.1725452929131
 20
-187.7070891825914
 30
0.0
 10
195.1725452929131
 20
-187.7070891825914
 30
0.0
 10
195.1725452929131
 20
-187.7070891825914
 30
0.0
 10
181.0598458045074
 20
-212.1510470274345
 30
0.0
 10
181.0598458045074
 20
-212.1510470274345
 30
0.0
 10
181.0684929964039
 20
-212.1659298437666
 30
0.0
 10
181.0768990315538
 20
-212.1809504639539
 30
0.0
 10
181.0855806744139
 20
-212.1958332802844
 30
0.0
 10
181.0855806744139
 20
-212.1958332802844
 30
0.0
 10
210.030556930668
 20
-212.1958332802844
 30
0.0
 10
210.030556930668
 20
-212.1958332802844
 30
0.0
 10
210.030556930668
 20
-212.1958332802844
 30
0.0
 10
181.0855806744139
 20
-212.1958332802844
 30
0.0
 10
181.0855806744139
 20
-212.1958332802844
 30
0.0
 10
188.0139450883577
 20
-224.1043601092042
 30
0.0
 10
200.9049100499838
 20
-232.115828371875
 30
0.0
 10
215.6750028282977
 20
-232.115828371875
 30
0.0
 10
230.4450611556471
 20
-232.115828371875
 30
0.0
 10
243.3360605682363
 20
-224.1043601092042
 30
0.0
 10
250.2644249821794
 20
-212.1958332802844
 30
0.0
 10
250.2644249821794
 20
-212.1958332802844
 30
0.0
 10
221.3194487259267
 20
-212.1958332802844
 30
0.0
 10
221.3194487259267
 20
-212.1958332802844
 30
0.0
 10
221.3194487259267
 20
-212.1958332802844
 30
0.0
 10
250.2644249821794
 20
-212.1958332802844
 30
0.0
 10
250.2644249821794
 20
-212.1958332802844
 30
0.0
 10
250.2731066250396
 20
-212.1809504639539
 30
0.0
 10
250.2815126601901
 20
-212.1659298437666
 30
0.0
 10
250.2901598520866
 20
-212.1510470274345
 30
0.0
 10
250.2901598520866
 20
-212.1510470274345
 30
0.0
 10
235.5651289343323
 20
-186.6465507151065
 30
0.0
 10
235.5651289343323
 20
-186.6465507151065
 30
0.0
 10
235.5651289343323
 20
-186.6465507151065
 30
0.0
 10
250.2901598520866
 20
-212.1510470274345
 30
0.0
 10
250.2901598520866
 20
-212.1510470274345
 30
0.0
 10
253.7083844734413
 20
-206.258209681307
 30
0.0
 10
255.6750177380056
 20
-199.4186598518613
 30
0.0
 10
255.6750177380056
 20
-192.1158134621658
 30
0.0
 10
255.6750177380056
 20
-170.0244430285614
 30
0.0
 10
237.7663640388095
 20
-152.1158283918752
 30
0.0
 10
215.6749936052042
 20
-152.1158283918752
 30
0.0
 10
215.6749936052042
 20
-152.1158283918752
 30
0.0
 10
229.9206830367026
 20
-176.8700906785863
 30
0.0
 10
229.9206830367026
 20
-176.8700906785863
 30
0.0
  0
SPLINE
  5
7F
330
1F
100
AcDbEntity
  8
OneCircle
 62
     7
420
 16777215
370
    35
100
AcDbSpline
210
0.0
220
0.0
230
1.0
 70
    27
 71
     3
 72
    11
 73
     7
 74
     0
 42
0.0000000001
 43
0.0000000001
 12
1.0
 22
0.0
 32
0.0
 13
1.0
 23
0.0
 33
0.0
 40
0.0
 40
0.0
 40
0.0
 40
0.0
 40
1.0
 40
1.0
 40
1.0
 40
2.0
 40
2.0
 40
2.0
 40
2.0
 10
225.6656789572944
 20
-179.3267200002921
 30
0.0
 10
225.6656789572944
 20
-179.3267200002921
 30
0.0
 10
231.3101248549235
 20
-189.1031800368123
 30
0.0
 10
231.3101248549235
 20
-189.1031800368123
 30
0.0
 10
231.3101248549235
 20
-189.1031800368123
 30
0.0
 10
225.6656789572944
 20
-179.3267200002921
 30
0.0
 10
225.6656789572944
 20
-179.3267200002921
 30
0.0
  0
SPLINE
  5
80
330
1F
100
AcDbEntity
  8
OneCircle
 62
     7
420
 16777215
370
    35
100
AcDbSpline
210
0.0
220
0.0
230
1.0
 70
    27
 71
     3
 72
    11
 73
     7
 74
     0
 42
0.0000000001
 43
0.0000000001
 12
1.0
 22
0.0
 32
0.0
 13
1.0
 23
0.0
 33
0.0
 40
0.0
 40
0.0
 40
0.0
 40
0.0
 40
1.0
 40
1.0
 40
1.0
 40
2.0
 40
2.0
 40
2.0
 40
2.0
 10
281.8836258654401
 20
-189.9876051777054
 30
0.0
 10
281.8836258654401
 20
-189.9876051777054
 30
0.0
 10
287.5280717630698
 20
-180.2111451411851
 30
0.0
 10
287.5280717630698
 20
-180.2111451411851
 30
0.0
 10
287.5280717630698
 20
-180.2111451411851
 30
0.0
 10
281.8836258654401
 20
-189.9876051777054
 30
0.0
 10
281.8836258654401
 20
-189.9876051777054
 30
0.0
  0
SPLINE
  5
81
330
1F
100
AcDbEntity
  8
OneCircle
 62
     7
420
 16777215
370
    35
100
AcDbSpline
210
0.0
220
0.0
230
1.0
 70
     8
 71
     3
 72
    59
 73
    55
 74
     0
 42
0.0000000001
 43
0.0000000001
 12
1.0
 22
0.0
 32
0.0
 13
1.0
 23
0.0
 33
0.0
 40
0.0
 40
0.0
 40
0.0
 40
0.0
 40
1.0
 40
1.0
 40
1.0
 40
2.0
 40
2.0
 40
2.0
 40
3.0
 40
3.0
 40
3.0
 40
4.0
 40
4.0
 40
4.0
 40
5.0
 40
5.0
 40
5.0
 40
6.0
 40
6.0
 40
6.0
 40
7.0
 40
7.0
 40
7.0
 40
8.0
 40
8.0
 40
8.0
 40
9.0
 40
9.0
 40
9.0
 40
10.0
 40
10.0
 40
10.0
 40
11.0
 40
11.0
 40
11.0
 40
12.0
 40
12.0
 40
12.0
 40
13.0
 40
13.0
 40
13.0
 40
14.0
 40
14.0
 40
14.0
 40
15.0
 40
15.0
 40
15.0
 40
16.0
 40
16.0
 40
16.0
 40
17.0
 40
17.0
 40
17.0
 40
18.0
 40
18.0
 40
18.0
 40
18.0
 10
283.5780965165326
 20
-177.9306291460711
 30
0.0
 10
283.5780965165326
 20
-177.9306291460711
 30
0.0
 10
298.4360989311941
 20
-152.1158283918752
 30
0.0
 10
298.4360989311941
 20
-152.1158283918752
 30
0.0
 10
276.3446940466238
 20
-152.1158283918752
 30
0.0
 10
258.4360932445777
 20
-170.0244430285614
 30
0.0
 10
258.4360932445777
 20
-192.1158134621658
 30
0.0
 10
258.4360932445777
 20
-199.4186598518613
 30
0.0
 10
260.402726509142
 20
-206.258209681307
 30
0.0
 10
263.8209511304967
 20
-212.1510470274345
 30
0.0
 10
263.8209511304967
 20
-212.1510470274345
 30
0.0
 10
277.933650618903
 20
-187.7070891825914
 30
0.0
 10
277.933650618903
 20
-187.7070891825914
 30
0.0
 10
277.933650618903
 20
-187.7070891825914
 30
0.0
 10
263.8209511304967
 20
-212.1510470274345
 30
0.0
 10
263.8209511304967
 20
-212.1510470274345
 30
0.0
 10
263.8295983223931
 20
-212.1659298437666
 30
0.0
 10
263.8380043575436
 20
-212.1809504639539
 30
0.0
 10
263.8466860004038
 20
-212.1958332802844
 30
0.0
 10
263.8466860004038
 20
-212.1958332802844
 30
0.0
 10
292.7916622566578
 20
-212.1958332802844
 30
0.0
 10
292.7916622566578
 20
-212.1958332802844
 30
0.0
 10
292.7916622566578
 20
-212.1958332802844
 30
0.0
 10
263.8466860004038
 20
-212.1958332802844
 30
0.0
 10
263.8466860004038
 20
-212.1958332802844
 30
0.0
 10
270.7750504143469
 20
-224.1043601092042
 30
0.0
 10
283.6660153759737
 20
-232.115828371875
 30
0.0
 10
298.4361081542869
 20
-232.115828371875
 30
0.0
 10
313.206166481637
 20
-232.115828371875
 30
0.0
 10
326.0971658942256
 20
-224.1043601092042
 30
0.0
 10
333.0255303081693
 20
-212.1958332802844
 30
0.0
 10
333.0255303081693
 20
-212.1958332802844
 30
0.0
 10
304.0805540519165
 20
-212.1958332802844
 30
0.0
 10
304.0805540519165
 20
-212.1958332802844
 30
0.0
 10
304.0805540519165
 20
-212.1958332802844
 30
0.0
 10
333.0255303081693
 20
-212.1958332802844
 30
0.0
 10
333.0255303081693
 20
-212.1958332802844
 30
0.0
 10
333.0342119510295
 20
-212.1809504639539
 30
0.0
 10
333.04261798618
 20
-212.1659298437666
 30
0.0
 10
333.0512651780764
 20
-212.1510470274345
 30
0.0
 10
333.0512651780764
 20
-212.1510470274345
 30
0.0
 10
318.3262342603222
 20
-186.6465507151065
 30
0.0
 10
318.3262342603222
 20
-186.6465507151065
 30
0.0
 10
318.3262342603222
 20
-186.6465507151065
 30
0.0
 10
333.0512651780764
 20
-212.1510470274345
 30
0.0
 10
333.0512651780764
 20
-212.1510470274345
 30
0.0
 10
336.4694897994311
 20
-206.258209681307
 30
0.0
 10
338.4361230639954
 20
-199.4186598518613
 30
0.0
 10
338.4361230639954
 20
-192.1158134621658
 30
0.0
 10
338.4361230639954
 20
-170.0244430285614
 30
0.0
 10
320.5274693647987
 20
-152.1158283918752
 30
0.0
 10
298.4360989311941
 20
-152.1158283918752
 30
0.0
 10
298.4360989311941
 20
-152.1158283918752
 30
0.0
 10
312.6817883626925
 20
-176.8700906785863
 30
0.0
 10
312.6817883626925
 20
-176.8700906785863
 30
0.0
  0
SPLINE
  5
82
330
1F
100
AcDbEntity
  8
OneCircle
 62
     7
420
 16777215
370
    35
100
AcDbSpline
210
0.0
220
0.0
230
1.0
 70
    27
 71
     3
 72
    11
 73
     7
 74
     0
 42
0.0000000001
 43
0.0000000001
 12
1.0
 22
0.0
 32
0.0
 13
1.0
 23
0.0
 33
0.0
 40
0.0
 40
0.0
 40
0.0
 40
0.0
 40
1.0
 40
1.0
 40
1.0
 40
2.0
 40
2.0
 40
2.0
 40
2.0
 10
308.4267842832843
 20
-179.3267200002921
 30
0.0
 10
308.4267842832843
 20
-179.3267200002921
 30
0.0
 10
314.0712301809133
 20
-189.1031800368123
 30
0.0
 10
314.0712301809133
 20
-189.1031800368123
 30
0.0
 10
314.0712301809133
 20
-189.1031800368123
 30
0.0
 10
308.4267842832843
 20
-179.3267200002921
 30
0.0
 10
308.4267842832843
 20
-179.3267200002921
 30
0.0
  0
SPLINE
  5
83
330
1F
100
AcDbEntity
  8
OneCircle
 62
     7
420
 16777215
370
    35
100
AcDbSpline
210
0.0
220
0.0
230
1.0
 70
    27
 71
     3
 72
    11
 73
     7
 74
     0
 42
0.0000000001
 43
0.0000000001
 12
1.0
 22
0.0
 32
0.0
 13
1.0
 23
0.0
 33
0.0
 40
0.0
 40
0.0
 40
0.0
 40
0.0
 40
1.0
 40
1.0
 40
1.0
 40
2.0
 40
2.0
 40
2.0
 40
2.0
 10
364.8280760535798
 20
-189.9876051777054
 30
0.0
 10
364.8280760535798
 20
-189.9876051777054
 30
0.0
 10
370.4725219512108
 20
-180.2111451411851
 30
0.0
 10
370.4725219512108
 20
-180.2111451411851
 30
0.0
 10
370.4725219512108
 20
-180.2111451411851
 30
0.0
 10
364.8280760535798
 20
-189.9876051777054
 30
0.0
 10
364.8280760535798
 20
-189.9876051777054
 30
0.0
  0
SPLINE
  5
84
330
1F
100
AcDbEntity
  8
OneCircle
 62
     7
420
 16777215
370
    35
100
AcDbSpline
210
0.0
220
0.0
230
1.0
 70
     8
 71
     3
 72
    59
 73
    55
 74
     0
 42
0.0000000001
 43
0.0000000001
 12
1.0
 22
0.0
 32
0.0
 13
1.0
 23
0.0
 33
0.0
 40
0.0
 40
0.0
 40
0.0
 40
0.0
 40
1.0
 40
1.0
 40
1.0
 40
2.0
 40
2.0
 40
2.0
 40
3.0
 40
3.0
 40
3.0
 40
4.0
 40
4.0
 40
4.0
 40
5.0
 40
5.0
 40
5.0
 40
6.0
 40
6.0
 40
6.0
 40
7.0
 40
7.0
 40
7.0
 40
8.0
 40
8.0
 40
8.0
 40
9.0
 40
9.0
 40
9.0
 40
10.0
 40
10.0
 40
10.0
 40
11.0
 40
11.0
 40
11.0
 40
12.0
 40
12.0
 40
12.0
 40
13.0
 40
13.0
 40
13.0
 40
14.0
 40
14.0
 40
14.0
 40
15.0
 40
15.0
 40
15.0
 40
16.0
 40
16.0
 40
16.0
 40
17.0
 40
17.0
 40
17.0
 40
18.0
 40
18.0
 40
18.0
 40
18.0
 10
366.5225467046716
 20
-177.9306291460711
 30
0.0
 10
366.5225467046716
 20
-177.9306291460711
 30
0.0
 10
381.3805491193331
 20
-152.1158283918752
 30
0.0
 10
381.3805491193331
 20
-152.1158283918752
 30
0.0
 10
359.2891442347641
 20
-152.1158283918752
 30
0.0
 10
341.3805434327173
 20
-170.0244430285614
 30
0.0
 10
341.3805434327173
 20
-192.1158134621658
 30
0.0
 10
341.3805434327173
 20
-199.4186598518613
 30
0.0
 10
343.347176697281
 20
-206.258209681307
 30
0.0
 10
346.7654013186369
 20
-212.1510470274345
 30
0.0
 10
346.7654013186369
 20
-212.1510470274345
 30
0.0
 10
360.8781008070439
 20
-187.7070891825914
 30
0.0
 10
360.8781008070439
 20
-187.7070891825914
 30
0.0
 10
360.8781008070439
 20
-187.7070891825914
 30
0.0
 10
346.7654013186369
 20
-212.1510470274345
 30
0.0
 10
346.7654013186369
 20
-212.1510470274345
 30
0.0
 10
346.7740485105334
 20
-212.1659298437666
 30
0.0
 10
346.7824545456833
 20
-212.1809504639539
 30
0.0
 10
346.7911361885428
 20
-212.1958332802844
 30
0.0
 10
346.7911361885428
 20
-212.1958332802844
 30
0.0
 10
375.7361124447982
 20
-212.1958332802844
 30
0.0
 10
375.7361124447982
 20
-212.1958332802844
 30
0.0
 10
375.7361124447982
 20
-212.1958332802844
 30
0.0
 10
346.7911361885428
 20
-212.1958332802844
 30
0.0
 10
346.7911361885428
 20
-212.1958332802844
 30
0.0
 10
353.7195006024866
 20
-224.1043601092042
 30
0.0
 10
366.610465564114
 20
-232.115828371875
 30
0.0
 10
381.3805583424259
 20
-232.115828371875
 30
0.0
 10
396.150616669776
 20
-232.115828371875
 30
0.0
 10
409.0416160823659
 20
-224.1043601092042
 30
0.0
 10
415.9699804963103
 20
-212.1958332802844
 30
0.0
 10
415.9699804963103
 20
-212.1958332802844
 30
0.0
 10
387.0250042400575
 20
-212.1958332802844
 30
0.0
 10
387.0250042400575
 20
-212.1958332802844
 30
0.0
 10
387.0250042400575
 20
-212.1958332802844
 30
0.0
 10
415.9699804963103
 20
-212.1958332802844
 30
0.0
 10
415.9699804963103
 20
-212.1958332802844
 30
0.0
 10
415.9786621391698
 20
-212.1809504639539
 30
0.0
 10
415.9870681743196
 20
-212.1659298437666
 30
0.0
 10
415.9957153662174
 20
-212.1510470274345
 30
0.0
 10
415.9957153662174
 20
-212.1510470274345
 30
0.0
 10
401.2706844484624
 20
-186.6465507151065
 30
0.0
 10
401.2706844484624
 20
-186.6465507151065
 30
0.0
 10
401.2706844484624
 20
-186.6465507151065
 30
0.0
 10
415.9957153662174
 20
-212.1510470274345
 30
0.0
 10
415.9957153662174
 20
-212.1510470274345
 30
0.0
 10
419.4139399875721
 20
-206.258209681307
 30
0.0
 10
421.3805732521344
 20
-199.4186598518613
 30
0.0
 10
421.3805732521344
 20
-192.1158134621658
 30
0.0
 10
421.3805732521344
 20
-170.0244430285614
 30
0.0
 10
403.4719195529403
 20
-152.1158283918752
 30
0.0
 10
381.3805491193331
 20
-152.1158283918752
 30
0.0
 10
381.3805491193331
 20
-152.1158283918752
 30
0.0
 10
395.6262385508309
 20
-176.8700906785863
 30
0.0
 10
395.6262385508309
 20
-176.8700906785863
 30
0.0
  0
SPLINE
  5
85
330
1F
100
AcDbEntity
  8
OneCircle
 62
     7
420
 16777215
370
    35
100
AcDbSpline
210
0.0
220
0.0
230
1.0
 70
    27
 71
     3
 72
    11
 73
     7
 74
     0
 42
0.0000000001
 43
0.0000000001
 12
1.0
 22
0.0
 32
0.0
 13
1.0
 23
0.0
 33
0.0
 40
0.0
 40
0.0
 40
0.0
 40
0.0
 40
1.0
 40
1.0
 40
1.0
 40
2.0
 40
2.0
 40
2.0
 40
2.0
 10
391.3712344714252
 20
-179.3267200002921
 30
0.0
 10
391.3712344714252
 20
-179.3267200002921
 30
0.0
 10
397.015680369053
 20
-189.1031800368123
 30
0.0
 10
397.015680369053
 20
-189.1031800368123
 30
0.0
 10
397.015680369053
 20
-189.1031800368123
 30
0.0
 10
391.3712344714252
 20
-179.3267200002921
 30
0.0
 10
391.3712344714252
 20
-179.3267200002921
 30
0.0
  0
SPLINE
  5
86
330
1F
100
AcDbEntity
  8
OneCircle
 62
     7
420
 16777215
370
    35
100
AcDbSpline
210
0.0
220
0.0
230
1.0
 70
    27
 71
     3
 72
    11
 73
     7
 74
     0
 42
0.0000000001
 43
0.0000000001
 12
1.0
 22
0.0
 32
0.0
 13
1.0
 23
0.0
 33
0.0
 40
0.0
 40
0.0
 40
0.0
 40
0.0
 40
1.0
 40
1.0
 40
1.0
 40
2.0
 40
2.0
 40
2.0
 40
2.0
 10
74.01696789738709
 20
-263.0126051594504
 30
0.0
 10
74.01696789738709
 20
-263.0126051594504
 30
0.0
 10
79.66141379501707
 20
-253.2361451229301
 30
0.0
 10
79.66141379501707
 20
-253.2361451229301
 30
0.0
 10
79.66141379501707
 20
-253.2361451229301
 30
0.0
 10
74.01696789738709
 20
-263.0126051594504
 30
0.0
 10
74.01696789738709
 20
-263.0126051594504
 30
0.0
  0
SPLINE
  5
87
330
1F
100
AcDbEntity
  8
OneCircle
 62
     7
420
 16777215
370
    35
100
AcDbSpline
210
0.0
220
0.0
230
1.0
 70
     8
 71
     3
 72
    59
 73
    55
 74
     0
 42
0.0000000001
 43
0.0000000001
 12
1.0
 22
0.0
 32
0.0
 13
1.0
 23
0.0
 33
0.0
 40
0.0
 40
0.0
 40
0.0
 40
0.0
 40
1.0
 40
1.0
 40
1.0
 40
2.0
 40
2.0
 40
2.0
 40
3.0
 40
3.0
 40
3.0
 40
4.0
 40
4.0
 40
4.0
 40
5.0
 40
5.0
 40
5.0
 40
6.0
 40
6.0
 40
6.0
 40
7.0
 40
7.0
 40
7.0
 40
8.0
 40
8.0
 40
8.0
 40
9.0
 40
9.0
 40
9.0
 40
10.0
 40
10.0
 40
10.0
 40
11.0
 40
11.0
 40
11.0
 40
12.0
 40
12.0
 40
12.0
 40
13.0
 40
13.0
 40
13.0
 40
14.0
 40
14.0
 40
14.0
 40
15.0
 40
15.0
 40
15.0
 40
16.0
 40
16.0
 40
16.0
 40
17.0
 40
17.0
 40
17.0
 40
18.0
 40
18.0
 40
18.0
 40
18.0
 10
75.71143854847958
 20
-250.9556291278162
 30
0.0
 10
75.71143854847958
 20
-250.9556291278162
 30
0.0
 10
90.56944096314102
 20
-225.1408283736189
 30
0.0
 10
90.56944096314102
 20
-225.1408283736189
 30
0.0
 10
68.47803607857105
 20
-225.1408283736189
 30
0.0
 10
50.56943527652464
 20
-243.0494430103052
 30
0.0
 10
50.56943527652464
 20
-265.1408134439108
 30
0.0
 10
50.56943527652464
 20
-272.4436598336051
 30
0.0
 10
52.53606854108892
 20
-279.2832096630507
 30
0.0
 10
55.95429316244392
 20
-285.1760470091783
 30
0.0
 10
55.95429316244392
 20
-285.1760470091783
 30
0.0
 10
70.06699265085024
 20
-260.7320891643364
 30
0.0
 10
70.06699265085024
 20
-260.7320891643364
 30
0.0
 10
70.06699265085024
 20
-260.7320891643364
 30
0.0
 10
55.95429316244392
 20
-285.1760470091783
 30
0.0
 10
55.95429316244392
 20
-285.1760470091783
 30
0.0
 10
55.9629403543404
 20
-285.1909298255104
 30
0.0
 10
55.97134638949058
 20
-285.2059504456976
 30
0.0
 10
55.98002803235077
 20
-285.2208332620281
 30
0.0
 10
55.98002803235077
 20
-285.2208332620281
 30
0.0
 10
84.9250042886045
 20
-285.2208332620281
 30
0.0
 10
84.9250042886045
 20
-285.2208332620281
 30
0.0
 10
84.9250042886045
 20
-285.2208332620281
 30
0.0
 10
55.98002803235077
 20
-285.2208332620281
 30
0.0
 10
55.98002803235077
 20
-285.2208332620281
 30
0.0
 10
62.9083924462942
 20
-297.129360090948
 30
0.0
 10
75.79935740792033
 20
-305.1408283536187
 30
0.0
 10
90.56945018623415
 20
-305.1408283536187
 30
0.0
 10
105.3395085135836
 20
-305.1408283536187
 30
0.0
 10
118.2305079261728
 20
-297.129360090948
 30
0.0
 10
125.1588723401163
 20
-285.2208332620281
 30
0.0
 10
125.1588723401163
 20
-285.2208332620281
 30
0.0
 10
96.21389608386349
 20
-285.2208332620281
 30
0.0
 10
96.21389608386349
 20
-285.2208332620281
 30
0.0
 10
96.21389608386349
 20
-285.2208332620281
 30
0.0
 10
125.1588723401163
 20
-285.2208332620281
 30
0.0
 10
125.1588723401163
 20
-285.2208332620281
 30
0.0
 10
125.1675539829764
 20
-285.2059504456976
 30
0.0
 10
125.1759600181266
 20
-285.1909298255104
 30
0.0
 10
125.1846072100231
 20
-285.1760470091783
 30
0.0
 10
125.1846072100231
 20
-285.1760470091783
 30
0.0
 10
110.4595762922691
 20
-259.6715506968516
 30
0.0
 10
110.4595762922691
 20
-259.6715506968516
 30
0.0
 10
110.4595762922691
 20
-259.6715506968516
 30
0.0
 10
125.1846072100231
 20
-285.1760470091783
 30
0.0
 10
125.1846072100231
 20
-285.1760470091783
 30
0.0
 10
128.6028318313781
 20
-279.2832096630507
 30
0.0
 10
130.5694650959424
 20
-272.4436598336051
 30
0.0
 10
130.5694650959424
 20
-265.1408134439108
 30
0.0
 10
130.5694650959424
 20
-243.0494430103052
 30
0.0
 10
112.660811396746
 20
-225.1408283736189
 30
0.0
 10
90.5694409631407
 20
-225.1408283736189
 30
0.0
 10
90.5694409631407
 20
-225.1408283736189
 30
0.0
 10
104.8151303946394
 20
-249.8950906603313
 30
0.0
 10
104.8151303946394
 20
-249.8950906603313
 30
0.0
  0
SPLINE
  5
88
330
1F
100
AcDbEntity
  8
OneCircle
 62
     7
420
 16777215
370
    35
100
AcDbSpline
210
0.0
220
0.0
230
1.0
 70
    27
 71
     3
 72
    11
 73
     7
 74
     0
 42
0.0000000001
 43
0.0000000001
 12
1.0
 22
0.0
 32
0.0
 13
1.0
 23
0.0
 33
0.0
 40
0.0
 40
0.0
 40
0.0
 40
0.0
 40
1.0
 40
1.0
 40
1.0
 40
2.0
 40
2.0
 40
2.0
 40
2.0
 10
100.5601263152309
 20
-252.3517199820371
 30
0.0
 10
100.5601263152309
 20
-252.3517199820371
 30
0.0
 10
106.2045722128603
 20
-262.1281800185574
 30
0.0
 10
106.2045722128603
 20
-262.1281800185574
 30
0.0
 10
106.2045722128603
 20
-262.1281800185574
 30
0.0
 10
100.5601263152309
 20
-252.3517199820371
 30
0.0
 10
100.5601263152309
 20
-252.3517199820371
 30
0.0
  0
SPLINE
  5
89
330
1F
100
AcDbEntity
  8
OneCircle
 62
     7
420
 16777215
370
    35
100
AcDbSpline
210
0.0
220
0.0
230
1.0
 70
    27
 71
     3
 72
    11
 73
     7
 74
     0
 42
0.0000000001
 43
0.0000000001
 12
1.0
 22
0.0
 32
0.0
 13
1.0
 23
0.0
 33
0.0
 40
0.0
 40
0.0
 40
0.0
 40
0.0
 40
1.0
 40
1.0
 40
1.0
 40
2.0
 40
2.0
 40
2.0
 40
2.0
 10
156.7780732233767
 20
-263.0126051594504
 30
0.0
 10
156.7780732233767
 20
-263.0126051594504
 30
0.0
 10
162.4225191210066
 20
-253.2361451229301
 30
0.0
 10
162.4225191210066
 20
-253.2361451229301
 30
0.0
 10
162.4225191210066
 20
-253.2361451229301
 30
0.0
 10
156.7780732233767
 20
-263.0126051594504
 30
0.0
 10
156.7780732233767
 20
-263.0126051594504
 30
0.0
  0
SPLINE
  5
8A
330
1F
100
AcDbEntity
  8
OneCircle
 62
     7
420
 16777215
370
    35
100
AcDbSpline
210
0.0
220
0.0
230
1.0
 70
     8
 71
     3
 72
    59
 73
    55
 74
     0
 42
0.0000000001
 43
0.0000000001
 12
1.0
 22
0.0
 32
0.0
 13
1.0
 23
0.0
 33
0.0
 40
0.0
 40
0.0
 40
0.0
 40
0.0
 40
1.0
 40
1.0
 40
1.0
 40
2.0
 40
2.0
 40
2.0
 40
3.0
 40
3.0
 40
3.0
 40
4.0
 40
4.0
 40
4.0
 40
5.0
 40
5.0
 40
5.0
 40
6.0
 40
6.0
 40
6.0
 40
7.0
 40
7.0
 40
7.0
 40
8.0
 40
8.0
 40
8.0
 40
9.0
 40
9.0
 40
9.0
 40
10.0
 40
10.0
 40
10.0
 40
11.0
 40
11.0
 40
11.0
 40
12.0
 40
12.0
 40
12.0
 40
13.0
 40
13.0
 40
13.0
 40
14.0
 40
14.0
 40
14.0
 40
15.0
 40
15.0
 40
15.0
 40
16.0
 40
16.0
 40
16.0
 40
17.0
 40
17.0
 40
17.0
 40
18.0
 40
18.0
 40
18.0
 40
18.0
 10
158.4725438744691
 20
-250.9556291278162
 30
0.0
 10
158.4725438744691
 20
-250.9556291278162
 30
0.0
 10
173.3305462891306
 20
-225.1408283736189
 30
0.0
 10
173.3305462891306
 20
-225.1408283736189
 30
0.0
 10
151.2391414045606
 20
-225.1408283736189
 30
0.0
 10
133.3305406025142
 20
-243.0494430103052
 30
0.0
 10
133.3305406025142
 20
-265.1408134439108
 30
0.0
 10
133.3305406025142
 20
-272.4436598336051
 30
0.0
 10
135.2971738670785
 20
-279.2832096630507
 30
0.0
 10
138.7153984884338
 20
-285.1760470091783
 30
0.0
 10
138.7153984884338
 20
-285.1760470091783
 30
0.0
 10
152.8280979768395
 20
-260.7320891643364
 30
0.0
 10
152.8280979768395
 20
-260.7320891643364
 30
0.0
 10
152.8280979768395
 20
-260.7320891643364
 30
0.0
 10
138.7153984884338
 20
-285.1760470091783
 30
0.0
 10
138.7153984884338
 20
-285.1760470091783
 30
0.0
 10
138.7240456803296
 20
-285.1909298255104
 30
0.0
 10
138.7324517154801
 20
-285.2059504456976
 30
0.0
 10
138.7411333583403
 20
-285.2208332620281
 30
0.0
 10
138.7411333583403
 20
-285.2208332620281
 30
0.0
 10
167.686109614594
 20
-285.2208332620281
 30
0.0
 10
167.686109614594
 20
-285.2208332620281
 30
0.0
 10
167.686109614594
 20
-285.2208332620281
 30
0.0
 10
138.7411333583403
 20
-285.2208332620281
 30
0.0
 10
138.7411333583403
 20
-285.2208332620281
 30
0.0
 10
145.6694977722838
 20
-297.129360090948
 30
0.0
 10
158.5604627339099
 20
-305.1408283536187
 30
0.0
 10
173.330555512224
 20
-305.1408283536187
 30
0.0
 10
188.1006138395732
 20
-305.1408283536187
 30
0.0
 10
200.9916132521624
 20
-297.129360090948
 30
0.0
 10
207.9199776661058
 20
-285.2208332620281
 30
0.0
 10
207.9199776661058
 20
-285.2208332620281
 30
0.0
 10
178.975001409853
 20
-285.2208332620281
 30
0.0
 10
178.975001409853
 20
-285.2208332620281
 30
0.0
 10
178.975001409853
 20
-285.2208332620281
 30
0.0
 10
207.9199776661058
 20
-285.2208332620281
 30
0.0
 10
207.9199776661058
 20
-285.2208332620281
 30
0.0
 10
207.928659308966
 20
-285.2059504456976
 30
0.0
 10
207.9370653441162
 20
-285.1909298255104
 30
0.0
 10
207.9457125360126
 20
-285.1760470091783
 30
0.0
 10
207.9457125360126
 20
-285.1760470091783
 30
0.0
 10
193.2206816182587
 20
-259.6715506968516
 30
0.0
 10
193.2206816182587
 20
-259.6715506968516
 30
0.0
 10
193.2206816182587
 20
-259.6715506968516
 30
0.0
 10
207.9457125360126
 20
-285.1760470091783
 30
0.0
 10
207.9457125360126
 20
-285.1760470091783
 30
0.0
 10
211.3639371573676
 20
-279.2832096630507
 30
0.0
 10
213.3305704219319
 20
-272.4436598336051
 30
0.0
 10
213.3305704219319
 20
-265.1408134439108
 30
0.0
 10
213.3305704219319
 20
-243.0494430103052
 30
0.0
 10
195.4219167227355
 20
-225.1408283736189
 30
0.0
 10
173.3305462891302
 20
-225.1408283736189
 30
0.0
 10
173.3305462891302
 20
-225.1408283736189
 30
0.0
 10
187.576235720629
 20
-249.8950906603313
 30
0.0
 10
187.576235720629
 20
-249.8950906603313
 30
0.0
  0
SPLINE
  5
8B
330
1F
100
AcDbEntity
  8
OneCircle
 62
     7
420
 16777215
370
    35
100
AcDbSpline
210
0.0
220
0.0
230
1.0
 70
    27
 71
     3
 72
    11
 73
     7
 74
     0
 42
0.0000000001
 43
0.0000000001
 12
1.0
 22
0.0
 32
0.0
 13
1.0
 23
0.0
 33
0.0
 40
0.0
 40
0.0
 40
0.0
 40
0.0
 40
1.0
 40
1.0
 40
1.0
 40
2.0
 40
2.0
 40
2.0
 40
2.0
 10
183.3212316412205
 20
-252.3517199820371
 30
0.0
 10
183.3212316412205
 20
-252.3517199820371
 30
0.0
 10
188.9656775388498
 20
-262.1281800185574
 30
0.0
 10
188.9656775388498
 20
-262.1281800185574
 30
0.0
 10
188.9656775388498
 20
-262.1281800185574
 30
0.0
 10
183.3212316412205
 20
-252.3517199820371
 30
0.0
 10
183.3212316412205
 20
-252.3517199820371
 30
0.0
  0
SPLINE
  5
8C
330
1F
100
AcDbEntity
  8
OneCircle
 62
     7
420
 16777215
370
    35
100
AcDbSpline
210
0.0
220
0.0
230
1.0
 70
    27
 71
     3
 72
    11
 73
     7
 74
     0
 42
0.0000000001
 43
0.0000000001
 12
1.0
 22
0.0
 32
0.0
 13
1.0
 23
0.0
 33
0.0
 40
0.0
 40
0.0
 40
0.0
 40
0.0
 40
1.0
 40
1.0
 40
1.0
 40
2.0
 40
2.0
 40
2.0
 40
2.0
 10
239.6919649737524
 20
-263.0126051594491
 30
0.0
 10
239.6919649737524
 20
-263.0126051594491
 30
0.0
 10
245.3364108713827
 20
-253.2361451229289
 30
0.0
 10
245.3364108713827
 20
-253.2361451229289
 30
0.0
 10
245.3364108713827
 20
-253.2361451229289
 30
0.0
 10
239.6919649737524
 20
-263.0126051594491
 30
0.0
 10
239.6919649737524
 20
-263.0126051594491
 30
0.0
  0
SPLINE
  5
8D
330
1F
100
AcDbEntity
  8
OneCircle
 62
     7
420
 16777215
370
    35
100
AcDbSpline
210
0.0
220
0.0
230
1.0
 70
     8
 71
     3
 72
    59
 73
    55
 74
     0
 42
0.0000000001
 43
0.0000000001
 12
1.0
 22
0.0
 32
0.0
 13
1.0
 23
0.0
 33
0.0
 40
0.0
 40
0.0
 40
0.0
 40
0.0
 40
1.0
 40
1.0
 40
1.0
 40
2.0
 40
2.0
 40
2.0
 40
3.0
 40
3.0
 40
3.0
 40
4.0
 40
4.0
 40
4.0
 40
5.0
 40
5.0
 40
5.0
 40
6.0
 40
6.0
 40
6.0
 40
7.0
 40
7.0
 40
7.0
 40
8.0
 40
8.0
 40
8.0
 40
9.0
 40
9.0
 40
9.0
 40
10.0
 40
10.0
 40
10.0
 40
11.0
 40
11.0
 40
11.0
 40
12.0
 40
12.0
 40
12.0
 40
13.0
 40
13.0
 40
13.0
 40
14.0
 40
14.0
 40
14.0
 40
15.0
 40
15.0
 40
15.0
 40
16.0
 40
16.0
 40
16.0
 40
17.0
 40
17.0
 40
17.0
 40
18.0
 40
18.0
 40
18.0
 40
18.0
 10
241.3864356248448
 20
-250.9556291278149
 30
0.0
 10
241.3864356248448
 20
-250.9556291278149
 30
0.0
 10
256.2444380395063
 20
-225.1408283736189
 30
0.0
 10
256.2444380395063
 20
-225.1408283736189
 30
0.0
 10
234.1530331549366
 20
-225.1408283736189
 30
0.0
 10
216.2444323528899
 20
-243.0494430103052
 30
0.0
 10
216.2444323528899
 20
-265.1408134439096
 30
0.0
 10
216.2444323528899
 20
-272.4436598336051
 30
0.0
 10
218.2110656174542
 20
-279.2832096630507
 30
0.0
 10
221.6292902388095
 20
-285.1760470091783
 30
0.0
 10
221.6292902388095
 20
-285.1760470091783
 30
0.0
 10
235.7419897272152
 20
-260.7320891643354
 30
0.0
 10
235.7419897272152
 20
-260.7320891643354
 30
0.0
 10
235.7419897272152
 20
-260.7320891643354
 30
0.0
 10
221.6292902388095
 20
-285.1760470091783
 30
0.0
 10
221.6292902388095
 20
-285.1760470091783
 30
0.0
 10
221.637937430706
 20
-285.1909298255104
 30
0.0
 10
221.6463434658559
 20
-285.2059504456976
 30
0.0
 10
221.655025108716
 20
-285.2208332620281
 30
0.0
 10
221.655025108716
 20
-285.2208332620281
 30
0.0
 10
250.6000013649701
 20
-285.2208332620281
 30
0.0
 10
250.6000013649701
 20
-285.2208332620281
 30
0.0
 10
250.6000013649701
 20
-285.2208332620281
 30
0.0
 10
221.655025108716
 20
-285.2208332620281
 30
0.0
 10
221.655025108716
 20
-285.2208332620281
 30
0.0
 10
228.5833895226598
 20
-297.129360090948
 30
0.0
 10
241.4743544842859
 20
-305.1408283536187
 30
0.0
 10
256.2444472625997
 20
-305.1408283536187
 30
0.0
 10
271.0145055899492
 20
-305.1408283536187
 30
0.0
 10
283.9055050025384
 20
-297.129360090948
 30
0.0
 10
290.8338694164815
 20
-285.2208332620281
 30
0.0
 10
290.8338694164815
 20
-285.2208332620281
 30
0.0
 10
261.8888931602287
 20
-285.2208332620281
 30
0.0
 10
261.8888931602287
 20
-285.2208332620281
 30
0.0
 10
261.8888931602287
 20
-285.2208332620281
 30
0.0
 10
290.8338694164815
 20
-285.2208332620281
 30
0.0
 10
290.8338694164815
 20
-285.2208332620281
 30
0.0
 10
290.8425510593417
 20
-285.2059504456976
 30
0.0
 10
290.8509570944922
 20
-285.1909298255104
 30
0.0
 10
290.8596042863887
 20
-285.1760470091783
 30
0.0
 10
290.8596042863887
 20
-285.1760470091783
 30
0.0
 10
276.1345733686344
 20
-259.6715506968503
 30
0.0
 10
276.1345733686344
 20
-259.6715506968503
 30
0.0
 10
276.1345733686344
 20
-259.6715506968503
 30
0.0
 10
290.8596042863887
 20
-285.1760470091783
 30
0.0
 10
290.8596042863887
 20
-285.1760470091783
 30
0.0
 10
294.2778289077434
 20
-279.2832096630507
 30
0.0
 10
296.2444621723076
 20
-272.4436598336051
 30
0.0
 10
296.2444621723076
 20
-265.1408134439096
 30
0.0
 10
296.2444621723076
 20
-243.0494430103052
 30
0.0
 10
278.3358084731116
 20
-225.1408283736189
 30
0.0
 10
256.2444380395063
 20
-225.1408283736189
 30
0.0
 10
256.2444380395063
 20
-225.1408283736189
 30
0.0
 10
270.4901274710047
 20
-249.89509066033
 30
0.0
 10
270.4901274710047
 20
-249.89509066033
 30
0.0
  0
SPLINE
  5
8E
330
1F
100
AcDbEntity
  8
OneCircle
 62
     7
420
 16777215
370
    35
100
AcDbSpline
210
0.0
220
0.0
230
1.0
 70
    27
 71
     3
 72
    11
 73
     7
 74
     0
 42
0.0000000001
 43
0.0000000001
 12
1.0
 22
0.0
 32
0.0
 13
1.0
 23
0.0
 33
0.0
 40
0.0
 40
0.0
 40
0.0
 40
0.0
 40
1.0
 40
1.0
 40
1.0
 40
2.0
 40
2.0
 40
2.0
 40
2.0
 10
266.2351233915965
 20
-252.3517199820358
 30
0.0
 10
266.2351233915965
 20
-252.3517199820358
 30
0.0
 10
271.8795692892256
 20
-262.1281800185561
 30
0.0
 10
271.8795692892256
 20
-262.1281800185561
 30
0.0
 10
271.8795692892256
 20
-262.1281800185561
 30
0.0
 10
266.2351233915965
 20
-252.3517199820358
 30
0.0
 10
266.2351233915965
 20
-252.3517199820358
 30
0.0
  0
SPLINE
  5
8F
330
1F
100
AcDbEntity
  8
OneCircle
 62
     7
420
 16777215
370
    35
100
AcDbSpline
210
0.0
220
0.0
230
1.0
 70
    27
 71
     3
 72
    11
 73
     7
 74
     0
 42
0.0000000001
 43
0.0000000001
 12
1.0
 22
0.0
 32
0.0
 13
1.0
 23
0.0
 33
0.0
 40
0.0
 40
0.0
 40
0.0
 40
0.0
 40
1.0
 40
1.0
 40
1.0
 40
2.0
 40
2.0
 40
2.0
 40
2.0
 10
322.4530702997423
 20
-263.0126051594491
 30
0.0
 10
322.4530702997423
 20
-263.0126051594491
 30
0.0
 10
328.0975161973719
 20
-253.2361451229289
 30
0.0
 10
328.0975161973719
 20
-253.2361451229289
 30
0.0
 10
328.0975161973719
 20
-253.2361451229289
 30
0.0
 10
322.4530702997423
 20
-263.0126051594491
 30
0.0
 10
322.4530702997423
 20
-263.0126051594491
 30
0.0
  0
SPLINE
  5
90
330
1F
100
AcDbEntity
  8
OneCircle
 62
     7
420
 16777215
370
    35
100
AcDbSpline
210
0.0
220
0.0
230
1.0
 70
     8
 71
     3
 72
    59
 73
    55
 74
     0
 42
0.0000000001
 43
0.0000000001
 12
1.0
 22
0.0
 32
0.0
 13
1.0
 23
0.0
 33
0.0
 40
0.0
 40
0.0
 40
0.0
 40
0.0
 40
1.0
 40
1.0
 40
1.0
 40
2.0
 40
2.0
 40
2.0
 40
3.0
 40
3.0
 40
3.0
 40
4.0
 40
4.0
 40
4.0
 40
5.0
 40
5.0
 40
5.0
 40
6.0
 40
6.0
 40
6.0
 40
7.0
 40
7.0
 40
7.0
 40
8.0
 40
8.0
 40
8.0
 40
9.0
 40
9.0
 40
9.0
 40
10.0
 40
10.0
 40
10.0
 40
11.0
 40
11.0
 40
11.0
 40
12.0
 40
12.0
 40
12.0
 40
13.0
 40
13.0
 40
13.0
 40
14.0
 40
14.0
 40
14.0
 40
15.0
 40
15.0
 40
15.0
 40
16.0
 40
16.0
 40
16.0
 40
17.0
 40
17.0
 40
17.0
 40
18.0
 40
18.0
 40
18.0
 40
18.0
 10
324.1475409508347
 20
-250.9556291278149
 30
0.0
 10
324.1475409508347
 20
-250.9556291278149
 30
0.0
 10
339.0055433654962
 20
-225.1408283736189
 30
0.0
 10
339.0055433654962
 20
-225.1408283736189
 30
0.0
 10
316.9141384809259
 20
-225.1408283736189
 30
0.0
 10
299.0055376788798
 20
-243.0494430103052
 30
0.0
 10
299.0055376788798
 20
-265.1408134439096
 30
0.0
 10
299.0055376788798
 20
-272.4436598336051
 30
0.0
 10
300.972170943444
 20
-279.2832096630507
 30
0.0
 10
304.3903955647987
 20
-285.1760470091783
 30
0.0
 10
304.3903955647987
 20
-285.1760470091783
 30
0.0
 10
318.5030950532051
 20
-260.7320891643354
 30
0.0
 10
318.5030950532051
 20
-260.7320891643354
 30
0.0
 10
318.5030950532051
 20
-260.7320891643354
 30
0.0
 10
304.3903955647987
 20
-285.1760470091783
 30
0.0
 10
304.3903955647987
 20
-285.1760470091783
 30
0.0
 10
304.3990427566952
 20
-285.1909298255104
 30
0.0
 10
304.4074487918457
 20
-285.2059504456976
 30
0.0
 10
304.4161304347059
 20
-285.2208332620281
 30
0.0
 10
304.4161304347059
 20
-285.2208332620281
 30
0.0
 10
333.36110669096
 20
-285.2208332620281
 30
0.0
 10
333.36110669096
 20
-285.2208332620281
 30
0.0
 10
333.36110669096
 20
-285.2208332620281
 30
0.0
 10
304.4161304347059
 20
-285.2208332620281
 30
0.0
 10
304.4161304347059
 20
-285.2208332620281
 30
0.0
 10
311.344494848649
 20
-297.129360090948
 30
0.0
 10
324.2354598102758
 20
-305.1408283536187
 30
0.0
 10
339.005552588589
 20
-305.1408283536187
 30
0.0
 10
353.7756109159384
 20
-305.1408283536187
 30
0.0
 10
366.6666103285283
 20
-297.129360090948
 30
0.0
 10
373.5949747424727
 20
-285.2208332620281
 30
0.0
 10
373.5949747424727
 20
-285.2208332620281
 30
0.0
 10
344.6499984862186
 20
-285.2208332620281
 30
0.0
 10
344.6499984862186
 20
-285.2208332620281
 30
0.0
 10
344.6499984862186
 20
-285.2208332620281
 30
0.0
 10
373.5949747424727
 20
-285.2208332620281
 30
0.0
 10
373.5949747424727
 20
-285.2208332620281
 30
0.0
 10
373.6036563853322
 20
-285.2059504456976
 30
0.0
 10
373.6120624204821
 20
-285.1909298255104
 30
0.0
 10
373.6207096123798
 20
-285.1760470091783
 30
0.0
 10
373.6207096123798
 20
-285.1760470091783
 30
0.0
 10
358.8956786946248
 20
-259.6715506968503
 30
0.0
 10
358.8956786946248
 20
-259.6715506968503
 30
0.0
 10
358.8956786946248
 20
-259.6715506968503
 30
0.0
 10
373.6207096123798
 20
-285.1760470091783
 30
0.0
 10
373.6207096123798
 20
-285.1760470091783
 30
0.0
 10
377.0389342337345
 20
-279.2832096630507
 30
0.0
 10
379.0055674982968
 20
-272.4436598336051
 30
0.0
 10
379.0055674982968
 20
-265.1408134439096
 30
0.0
 10
379.0055674982968
 20
-243.0494430103052
 30
0.0
 10
361.0969137990995
 20
-225.1408283736189
 30
0.0
 10
339.0055433654962
 20
-225.1408283736189
 30
0.0
 10
339.0055433654962
 20
-225.1408283736189
 30
0.0
 10
353.2512327969939
 20
-249.89509066033
 30
0.0
 10
353.2512327969939
 20
-249.89509066033
 30
0.0
  0
SPLINE
  5
91
330
1F
100
AcDbEntity
  8
OneCircle
 62
     7
420
 16777215
370
    35
100
AcDbSpline
210
0.0
220
0.0
230
1.0
 70
    27
 71
     3
 72
    11
 73
     7
 74
     0
 42
0.0000000001
 43
0.0000000001
 12
1.0
 22
0.0
 32
0.0
 13
1.0
 23
0.0
 33
0.0
 40
0.0
 40
0.0
 40
0.0
 40
0.0
 40
1.0
 40
1.0
 40
1.0
 40
2.0
 40
2.0
 40
2.0
 40
2.0
 10
348.9962287175864
 20
-252.3517199820358
 30
0.0
 10
348.9962287175864
 20
-252.3517199820358
 30
0.0
 10
354.6406746152154
 20
-262.1281800185561
 30
0.0
 10
354.6406746152154
 20
-262.1281800185561
 30
0.0
 10
354.6406746152154
 20
-262.1281800185561
 30
0.0
 10
348.9962287175864
 20
-252.3517199820358
 30
0.0
 10
348.9962287175864
 20
-252.3517199820358
 30
0.0
  0
SPLINE
  5
92
330
1F
100
AcDbEntity
  8
OneCircle
 62
     7
420
 16777215
370
    35
100
AcDbSpline
210
0.0
220
0.0
230
1.0
 70
    27
 71
     3
 72
    11
 73
     7
 74
     0
 42
0.0000000001
 43
0.0000000001
 12
1.0
 22
0.0
 32
0.0
 13
1.0
 23
0.0
 33
0.0
 40
0.0
 40
0.0
 40
0.0
 40
0.0
 40
1.0
 40
1.0
 40
1.0
 40
2.0
 40
2.0
 40
2.0
 40
2.0
 10
405.3975204878819
 20
-263.0126051594491
 30
0.0
 10
405.3975204878819
 20
-263.0126051594491
 30
0.0
 10
411.0419663855128
 20
-253.2361451229289
 30
0.0
 10
411.0419663855128
 20
-253.2361451229289
 30
0.0
 10
411.0419663855128
 20
-253.2361451229289
 30
0.0
 10
405.3975204878819
 20
-263.0126051594491
 30
0.0
 10
405.3975204878819
 20
-263.0126051594491
 30
0.0
  0
SPLINE
  5
93
330
1F
100
AcDbEntity
  8
OneCircle
 62
     7
420
 16777215
370
    35
100
AcDbSpline
210
0.0
220
0.0
230
1.0
 70
     8
 71
     3
 72
    59
 73
    55
 74
     0
 42
0.0000000001
 43
0.0000000001
 12
1.0
 22
0.0
 32
0.0
 13
1.0
 23
0.0
 33
0.0
 40
0.0
 40
0.0
 40
0.0
 40
0.0
 40
1.0
 40
1.0
 40
1.0
 40
2.0
 40
2.0
 40
2.0
 40
3.0
 40
3.0
 40
3.0
 40
4.0
 40
4.0
 40
4.0
 40
5.0
 40
5.0
 40
5.0
 40
6.0
 40
6.0
 40
6.0
 40
7.0
 40
7.0
 40
7.0
 40
8.0
 40
8.0
 40
8.0
 40
9.0
 40
9.0
 40
9.0
 40
10.0
 40
10.0
 40
10.0
 40
11.0
 40
11.0
 40
11.0
 40
12.0
 40
12.0
 40
12.0
 40
13.0
 40
13.0
 40
13.0
 40
14.0
 40
14.0
 40
14.0
 40
15.0
 40
15.0
 40
15.0
 40
16.0
 40
16.0
 40
16.0
 40
17.0
 40
17.0
 40
17.0
 40
18.0
 40
18.0
 40
18.0
 40
18.0
 10
407.0919911389737
 20
-250.9556291278149
 30
0.0
 10
407.0919911389737
 20
-250.9556291278149
 30
0.0
 10
421.9499935536352
 20
-225.1408283736189
 30
0.0
 10
421.9499935536352
 20
-225.1408283736189
 30
0.0
 10
399.8585886690661
 20
-225.1408283736189
 30
0.0
 10
381.9499878670194
 20
-243.0494430103052
 30
0.0
 10
381.9499878670194
 20
-265.1408134439096
 30
0.0
 10
381.9499878670194
 20
-272.4436598336051
 30
0.0
 10
383.9166211315824
 20
-279.2832096630507
 30
0.0
 10
387.3348457529403
 20
-285.1760470091783
 30
0.0
 10
387.3348457529403
 20
-285.1760470091783
 30
0.0
 10
401.447545241346
 20
-260.7320891643354
 30
0.0
 10
401.447545241346
 20
-260.7320891643354
 30
0.0
 10
401.447545241346
 20
-260.7320891643354
 30
0.0
 10
387.3348457529403
 20
-285.1760470091783
 30
0.0
 10
387.3348457529403
 20
-285.1760470091783
 30
0.0
 10
387.3434929448342
 20
-285.1909298255104
 30
0.0
 10
387.3518989799841
 20
-285.2059504456976
 30
0.0
 10
387.3605806228436
 20
-285.2208332620281
 30
0.0
 10
387.3605806228436
 20
-285.2208332620281
 30
0.0
 10
416.3055568791003
 20
-285.2208332620281
 30
0.0
 10
416.3055568791003
 20
-285.2208332620281
 30
0.0
 10
416.3055568791003
 20
-285.2208332620281
 30
0.0
 10
387.3605806228436
 20
-285.2208332620281
 30
0.0
 10
387.3605806228436
 20
-285.2208332620281
 30
0.0
 10
394.2889450367887
 20
-297.129360090948
 30
0.0
 10
407.1799099984161
 20
-305.1408283536187
 30
0.0
 10
421.950002776728
 20
-305.1408283536187
 30
0.0
 10
436.7200611040781
 20
-305.1408283536187
 30
0.0
 10
449.6110605166679
 20
-297.129360090948
 30
0.0
 10
456.5394249306123
 20
-285.2208332620281
 30
0.0
 10
456.5394249306123
 20
-285.2208332620281
 30
0.0
 10
427.5944486743596
 20
-285.2208332620281
 30
0.0
 10
427.5944486743596
 20
-285.2208332620281
 30
0.0
 10
427.5944486743596
 20
-285.2208332620281
 30
0.0
 10
456.5394249306123
 20
-285.2208332620281
 30
0.0
 10
456.5394249306123
 20
-285.2208332620281
 30
0.0
 10
456.5481065734718
 20
-285.2059504456976
 30
0.0
 10
456.5565126086217
 20
-285.1909298255104
 30
0.0
 10
456.5651598005195
 20
-285.1760470091783
 30
0.0
 10
456.5651598005195
 20
-285.1760470091783
 30
0.0
 10
441.8401288827645
 20
-259.6715506968503
 30
0.0
 10
441.8401288827645
 20
-259.6715506968503
 30
0.0
 10
441.8401288827645
 20
-259.6715506968503
 30
0.0
 10
456.5651598005195
 20
-285.1760470091783
 30
0.0
 10
456.5651598005195
 20
-285.1760470091783
 30
0.0
 10
459.9833844218742
 20
-279.2832096630507
 30
0.0
 10
461.9500176864365
 20
-272.4436598336051
 30
0.0
 10
461.9500176864365
 20
-265.1408134439096
 30
0.0
 10
461.9500176864365
 20
-243.0494430103052
 30
0.0
 10
444.0413639872424
 20
-225.1408283736189
 30
0.0
 10
421.9499935536352
 20
-225.1408283736189
 30
0.0
 10
421.9499935536352
 20
-225.1408283736189
 30
0.0
 10
436.1956829851329
 20
-249.89509066033
 30
0.0
 10
436.1956829851329
 20
-249.89509066033
 30
0.0
  0
SPLINE
  5
94
330
1F
100
AcDbEntity
  8
OneCircle
 62
     7
420
 16777215
370
    35
100
AcDbSpline
210
0.0
220
0.0
230
1.0
 70
    27
 71
     3
 72
    11
 73
     7
 74
     0
 42
0.0000000001
 43
0.0000000001
 12
1.0
 22
0.0
 32
0.0
 13
1.0
 23
0.0
 33
0.0
 40
0.0
 40
0.0
 40
0.0
 40
0.0
 40
1.0
 40
1.0
 40
1.0
 40
2.0
 40
2.0
 40
2.0
 40
2.0
 10
431.9406789057273
 20
-252.3517199820358
 30
0.0
 10
431.9406789057273
 20
-252.3517199820358
 30
0.0
 10
437.5851248033551
 20
-262.1281800185561
 30
0.0
 10
437.5851248033551
 20
-262.1281800185561
 30
0.0
 10
437.5851248033551
 20
-262.1281800185561
 30
0.0
 10
431.9406789057273
 20
-252.3517199820358
 30
0.0
 10
431.9406789057273
 20
-252.3517199820358
 30
0.0
  0
SPLINE
  5
95
330
1F
100
AcDbEntity
  8
OneCircle
 62
     7
420
 16777215
370
    35
100
AcDbSpline
210
0.0
220
0.0
230
1.0
 70
    27
 71
     3
 72
    11
 73
     7
 74
     0
 42
0.0000000001
 43
0.0000000001
 12
1.0
 22
0.0
 32
0.0
 13
1.0
 23
0.0
 33
0.0
 40
0.0
 40
0.0
 40
0.0
 40
0.0
 40
1.0
 40
1.0
 40
1.0
 40
2.0
 40
2.0
 40
2.0
 40
2.0
 10
33.44752346308501
 20
-335.332049585815
 30
0.0
 10
33.44752346308501
 20
-335.332049585815
 30
0.0
 10
39.09196936071499
 20
-325.5555895492947
 30
0.0
 10
39.09196936071499
 20
-325.5555895492947
 30
0.0
 10
39.09196936071499
 20
-325.5555895492947
 30
0.0
 10
33.44752346308501
 20
-335.332049585815
 30
0.0
 10
33.44752346308501
 20
-335.332049585815
 30
0.0
  0
SPLINE
  5
96
330
1F
100
AcDbEntity
  8
OneCircle
 62
     7
420
 16777215
370
    35
100
AcDbSpline
210
0.0
220
0.0
230
1.0
 70
     8
 71
     3
 72
    59
 73
    55
 74
     0
 42
0.0000000001
 43
0.0000000001
 12
1.0
 22
0.0
 32
0.0
 13
1.0
 23
0.0
 33
0.0
 40
0.0
 40
0.0
 40
0.0
 40
0.0
 40
1.0
 40
1.0
 40
1.0
 40
2.0
 40
2.0
 40
2.0
 40
3.0
 40
3.0
 40
3.0
 40
4.0
 40
4.0
 40
4.0
 40
5.0
 40
5.0
 40
5.0
 40
6.0
 40
6.0
 40
6.0
 40
7.0
 40
7.0
 40
7.0
 40
8.0
 40
8.0
 40
8.0
 40
9.0
 40
9.0
 40
9.0
 40
10.0
 40
10.0
 40
10.0
 40
11.0
 40
11.0
 40
11.0
 40
12.0
 40
12.0
 40
12.0
 40
13.0
 40
13.0
 40
13.0
 40
14.0
 40
14.0
 40
14.0
 40
15.0
 40
15.0
 40
15.0
 40
16.0
 40
16.0
 40
16.0
 40
17.0
 40
17.0
 40
17.0
 40
18.0
 40
18.0
 40
18.0
 40
18.0
 10
35.14199411417749
 20
-323.2750735541807
 30
0.0
 10
35.14199411417749
 20
-323.2750735541807
 30
0.0
 10
49.99999652883893
 20
-297.4602727999836
 30
0.0
 10
49.99999652883893
 20
-297.4602727999836
 30
0.0
 10
27.90859164426896
 20
-297.4602727999836
 30
0.0
 10
9.99999084222256
 20
-315.3688874366695
 30
0.0
 10
9.99999084222256
 20
-337.4602578702754
 30
0.0
 10
9.99999084222256
 20
-344.7631042599697
 30
0.0
 10
11.96662410678684
 20
-351.6026540894153
 30
0.0
 10
15.38484872814184
 20
-357.4954914355416
 30
0.0
 10
15.38484872814184
 20
-357.4954914355416
 30
0.0
 10
29.49754821654783
 20
-333.051533590701
 30
0.0
 10
29.49754821654783
 20
-333.051533590701
 30
0.0
 10
29.49754821654783
 20
-333.051533590701
 30
0.0
 10
15.38484872814184
 20
-357.4954914355416
 30
0.0
 10
15.38484872814184
 20
-357.4954914355416
 30
0.0
 10
15.39349592003831
 20
-357.5103742518763
 30
0.0
 10
15.4019019551885
 20
-357.5253948720619
 30
0.0
 10
15.41058359804868
 20
-357.5402776883927
 30
0.0
 10
15.41058359804868
 20
-357.5402776883927
 30
0.0
 10
44.35555985430241
 20
-357.5402776883927
 30
0.0
 10
44.35555985430241
 20
-357.5402776883927
 30
0.0
 10
44.35555985430241
 20
-357.5402776883927
 30
0.0
 10
15.41058359804868
 20
-357.5402776883927
 30
0.0
 10
15.41058359804868
 20
-357.5402776883927
 30
0.0
 10
22.33894801199212
 20
-369.4488045173138
 30
0.0
 10
35.22991297361824
 20
-377.4602727799839
 30
0.0
 10
50.00000575193206
 20
-377.4602727799839
 30
0.0
 10
64.77006407928154
 20
-377.4602727799839
 30
0.0
 10
77.66106349187073
 20
-369.4488045173138
 30
0.0
 10
84.58942790581418
 20
-357.5402776883927
 30
0.0
 10
84.58942790581418
 20
-357.5402776883927
 30
0.0
 10
55.6444516495614
 20
-357.5402776883927
 30
0.0
 10
55.6444516495614
 20
-357.5402776883927
 30
0.0
 10
55.6444516495614
 20
-357.5402776883927
 30
0.0
 10
84.58942790581418
 20
-357.5402776883927
 30
0.0
 10
84.58942790581418
 20
-357.5402776883927
 30
0.0
 10
84.59810954867434
 20
-357.5253948720619
 30
0.0
 10
84.60651558382455
 20
-357.5103742518763
 30
0.0
 10
84.615162775721
 20
-357.4954914355416
 30
0.0
 10
84.615162775721
 20
-357.4954914355416
 30
0.0
 10
69.89013185796702
 20
-331.9909951232162
 30
0.0
 10
69.89013185796702
 20
-331.9909951232162
 30
0.0
 10
69.89013185796702
 20
-331.9909951232162
 30
0.0
 10
84.615162775721
 20
-357.4954914355416
 30
0.0
 10
84.615162775721
 20
-357.4954914355416
 30
0.0
 10
88.03338739707601
 20
-351.6026540894153
 30
0.0
 10
90.00002066164029
 20
-344.7631042599697
 30
0.0
 10
90.00002066164029
 20
-337.4602578702754
 30
0.0
 10
90.00002066164029
 20
-315.3688874366695
 30
0.0
 10
72.09136696244391
 20
-297.4602727999836
 30
0.0
 10
49.99999652883862
 20
-297.4602727999836
 30
0.0
 10
49.99999652883862
 20
-297.4602727999836
 30
0.0
 10
64.24568596033735
 20
-322.2145350866959
 30
0.0
 10
64.24568596033735
 20
-322.2145350866959
 30
0.0
  0
SPLINE
  5
97
330
1F
100
AcDbEntity
  8
OneCircle
 62
     7
420
 16777215
370
    35
100
AcDbSpline
210
0.0
220
0.0
230
1.0
 70
    27
 71
     3
 72
    11
 73
     7
 74
     0
 42
0.0000000001
 43
0.0000000001
 12
1.0
 22
0.0
 32
0.0
 13
1.0
 23
0.0
 33
0.0
 40
0.0
 40
0.0
 40
0.0
 40
0.0
 40
1.0
 40
1.0
 40
1.0
 40
2.0
 40
2.0
 40
2.0
 40
2.0
 10
59.99068188092886
 20
-324.6711644084017
 30
0.0
 10
59.99068188092886
 20
-324.6711644084017
 30
0.0
 10
65.6351277785582
 20
-334.447624444922
 30
0.0
 10
65.6351277785582
 20
-334.447624444922
 30
0.0
 10
65.6351277785582
 20
-334.447624444922
 30
0.0
 10
59.99068188092886
 20
-324.6711644084017
 30
0.0
 10
59.99068188092886
 20
-324.6711644084017
 30
0.0
  0
SPLINE
  5
98
330
1F
100
AcDbEntity
  8
OneCircle
 62
     7
420
 16777215
370
    35
100
AcDbSpline
210
0.0
220
0.0
230
1.0
 70
    27
 71
     3
 72
    11
 73
     7
 74
     0
 42
0.0000000001
 43
0.0000000001
 12
1.0
 22
0.0
 32
0.0
 13
1.0
 23
0.0
 33
0.0
 40
0.0
 40
0.0
 40
0.0
 40
0.0
 40
1.0
 40
1.0
 40
1.0
 40
2.0
 40
2.0
 40
2.0
 40
2.0
 10
116.2086287890746
 20
-335.332049585815
 30
0.0
 10
116.2086287890746
 20
-335.332049585815
 30
0.0
 10
121.8530746867045
 20
-325.5555895492947
 30
0.0
 10
121.8530746867045
 20
-325.5555895492947
 30
0.0
 10
121.8530746867045
 20
-325.5555895492947
 30
0.0
 10
116.2086287890746
 20
-335.332049585815
 30
0.0
 10
116.2086287890746
 20
-335.332049585815
 30
0.0
  0
SPLINE
  5
99
330
1F
100
AcDbEntity
  8
OneCircle
 62
     7
420
 16777215
370
    35
100
AcDbSpline
210
0.0
220
0.0
230
1.0
 70
     8
 71
     3
 72
    59
 73
    55
 74
     0
 42
0.0000000001
 43
0.0000000001
 12
1.0
 22
0.0
 32
0.0
 13
1.0
 23
0.0
 33
0.0
 40
0.0
 40
0.0
 40
0.0
 40
0.0
 40
1.0
 40
1.0
 40
1.0
 40
2.0
 40
2.0
 40
2.0
 40
3.0
 40
3.0
 40
3.0
 40
4.0
 40
4.0
 40
4.0
 40
5.0
 40
5.0
 40
5.0
 40
6.0
 40
6.0
 40
6.0
 40
7.0
 40
7.0
 40
7.0
 40
8.0
 40
8.0
 40
8.0
 40
9.0
 40
9.0
 40
9.0
 40
10.0
 40
10.0
 40
10.0
 40
11.0
 40
11.0
 40
11.0
 40
12.0
 40
12.0
 40
12.0
 40
13.0
 40
13.0
 40
13.0
 40
14.0
 40
14.0
 40
14.0
 40
15.0
 40
15.0
 40
15.0
 40
16.0
 40
16.0
 40
16.0
 40
17.0
 40
17.0
 40
17.0
 40
18.0
 40
18.0
 40
18.0
 40
18.0
 10
117.903099440167
 20
-323.2750735541807
 30
0.0
 10
117.903099440167
 20
-323.2750735541807
 30
0.0
 10
132.7611018548285
 20
-297.4602727999836
 30
0.0
 10
132.7611018548285
 20
-297.4602727999836
 30
0.0
 10
110.6696969702585
 20
-297.4602727999836
 30
0.0
 10
92.7610961682121
 20
-315.3688874366695
 30
0.0
 10
92.7610961682121
 20
-337.4602578702754
 30
0.0
 10
92.7610961682121
 20
-344.7631042599697
 30
0.0
 10
94.72772943277639
 20
-351.6026540894153
 30
0.0
 10
98.14595405413107
 20
-357.4954914355416
 30
0.0
 10
98.14595405413107
 20
-357.4954914355416
 30
0.0
 10
112.2586535425374
 20
-333.051533590701
 30
0.0
 10
112.2586535425374
 20
-333.051533590701
 30
0.0
 10
112.2586535425374
 20
-333.051533590701
 30
0.0
 10
98.14595405413107
 20
-357.4954914355416
 30
0.0
 10
98.14595405413107
 20
-357.4954914355416
 30
0.0
 10
98.15460124602754
 20
-357.5103742518763
 30
0.0
 10
98.16300728117805
 20
-357.5253948720619
 30
0.0
 10
98.17168892403822
 20
-357.5402776883927
 30
0.0
 10
98.17168892403822
 20
-357.5402776883927
 30
0.0
 10
127.116665180292
 20
-357.5402776883927
 30
0.0
 10
127.116665180292
 20
-357.5402776883927
 30
0.0
 10
127.116665180292
 20
-357.5402776883927
 30
0.0
 10
98.17168892403822
 20
-357.5402776883927
 30
0.0
 10
98.17168892403822
 20
-357.5402776883927
 30
0.0
 10
105.1000533379817
 20
-369.4488045173138
 30
0.0
 10
117.9910182996078
 20
-377.4602727799839
 30
0.0
 10
132.7611110779219
 20
-377.4602727799839
 30
0.0
 10
147.5311694052711
 20
-377.4602727799839
 30
0.0
 10
160.4221688178603
 20
-369.4488045173138
 30
0.0
 10
167.350533231804
 20
-357.5402776883927
 30
0.0
 10
167.350533231804
 20
-357.5402776883927
 30
0.0
 10
138.405556975551
 20
-357.5402776883927
 30
0.0
 10
138.405556975551
 20
-357.5402776883927
 30
0.0
 10
138.405556975551
 20
-357.5402776883927
 30
0.0
 10
167.350533231804
 20
-357.5402776883927
 30
0.0
 10
167.350533231804
 20
-357.5402776883927
 30
0.0
 10
167.3592148746639
 20
-357.5253948720619
 30
0.0
 10
167.3676209098141
 20
-357.5103742518763
 30
0.0
 10
167.3762681017106
 20
-357.4954914355416
 30
0.0
 10
167.3762681017106
 20
-357.4954914355416
 30
0.0
 10
152.6512371839566
 20
-331.9909951232162
 30
0.0
 10
152.6512371839566
 20
-331.9909951232162
 30
0.0
 10
152.6512371839566
 20
-331.9909951232162
 30
0.0
 10
167.3762681017106
 20
-357.4954914355416
 30
0.0
 10
167.3762681017106
 20
-357.4954914355416
 30
0.0
 10
170.7944927230656
 20
-351.6026540894153
 30
0.0
 10
172.7611259876298
 20
-344.7631042599697
 30
0.0
 10
172.7611259876298
 20
-337.4602578702754
 30
0.0
 10
172.7611259876298
 20
-315.3688874366695
 30
0.0
 10
154.8524722884335
 20
-297.4602727999836
 30
0.0
 10
132.7611018548282
 20
-297.4602727999836
 30
0.0
 10
132.7611018548282
 20
-297.4602727999836
 30
0.0
 10
147.0067912863269
 20
-322.2145350866959
 30
0.0
 10
147.0067912863269
 20
-322.2145350866959
 30
0.0
  0
SPLINE
  5
9A
330
1F
100
AcDbEntity
  8
OneCircle
 62
     7
420
 16777215
370
    35
100
AcDbSpline
210
0.0
220
0.0
230
1.0
 70
    27
 71
     3
 72
    11
 73
     7
 74
     0
 42
0.0000000001
 43
0.0000000001
 12
1.0
 22
0.0
 32
0.0
 13
1.0
 23
0.0
 33
0.0
 40
0.0
 40
0.0
 40
0.0
 40
0.0
 40
1.0
 40
1.0
 40
1.0
 40
2.0
 40
2.0
 40
2.0
 40
2.0
 10
142.7517872069184
 20
-324.6711644084017
 30
0.0
 10
142.7517872069184
 20
-324.6711644084017
 30
0.0
 10
148.3962331045477
 20
-334.447624444922
 30
0.0
 10
148.3962331045477
 20
-334.447624444922
 30
0.0
 10
148.3962331045477
 20
-334.447624444922
 30
0.0
 10
142.7517872069184
 20
-324.6711644084017
 30
0.0
 10
142.7517872069184
 20
-324.6711644084017
 30
0.0
  0
SPLINE
  5
9B
330
1F
100
AcDbEntity
  8
OneCircle
 62
     7
420
 16777215
370
    35
100
AcDbSpline
210
0.0
220
0.0
230
1.0
 70
    27
 71
     3
 72
    11
 73
     7
 74
     0
 42
0.0000000001
 43
0.0000000001
 12
1.0
 22
0.0
 32
0.0
 13
1.0
 23
0.0
 33
0.0
 40
0.0
 40
0.0
 40
0.0
 40
0.0
 40
1.0
 40
1.0
 40
1.0
 40
2.0
 40
2.0
 40
2.0
 40
2.0
 10
199.1225205394503
 20
-335.3320495858137
 30
0.0
 10
199.1225205394503
 20
-335.3320495858137
 30
0.0
 10
204.7669664370806
 20
-325.5555895492935
 30
0.0
 10
204.7669664370806
 20
-325.5555895492935
 30
0.0
 10
204.7669664370806
 20
-325.5555895492935
 30
0.0
 10
199.1225205394503
 20
-335.3320495858137
 30
0.0
 10
199.1225205394503
 20
-335.3320495858137
 30
0.0
  0
SPLINE
  5
9C
330
1F
100
AcDbEntity
  8
OneCircle
 62
     7
420
 16777215
370
    35
100
AcDbSpline
210
0.0
220
0.0
230
1.0
 70
     8
 71
     3
 72
    59
 73
    55
 74
     0
 42
0.0000000001
 43
0.0000000001
 12
1.0
 22
0.0
 32
0.0
 13
1.0
 23
0.0
 33
0.0
 40
0.0
 40
0.0
 40
0.0
 40
0.0
 40
1.0
 40
1.0
 40
1.0
 40
2.0
 40
2.0
 40
2.0
 40
3.0
 40
3.0
 40
3.0
 40
4.0
 40
4.0
 40
4.0
 40
5.0
 40
5.0
 40
5.0
 40
6.0
 40
6.0
 40
6.0
 40
7.0
 40
7.0
 40
7.0
 40
8.0
 40
8.0
 40
8.0
 40
9.0
 40
9.0
 40
9.0
 40
10.0
 40
10.0
 40
10.0
 40
11.0
 40
11.0
 40
11.0
 40
12.0
 40
12.0
 40
12.0
 40
13.0
 40
13.0
 40
13.0
 40
14.0
 40
14.0
 40
14.0
 40
15.0
 40
15.0
 40
15.0
 40
16.0
 40
16.0
 40
16.0
 40
17.0
 40
17.0
 40
17.0
 40
18.0
 40
18.0
 40
18.0
 40
18.0
 10
200.8169911905428
 20
-323.2750735541795
 30
0.0
 10
200.8169911905428
 20
-323.2750735541795
 30
0.0
 10
215.6749936052042
 20
-297.4602727999836
 30
0.0
 10
215.6749936052042
 20
-297.4602727999836
 30
0.0
 10
193.5835887206345
 20
-297.4602727999836
 30
0.0
 10
175.6749879185878
 20
-315.3688874366695
 30
0.0
 10
175.6749879185878
 20
-337.4602578702741
 30
0.0
 10
175.6749879185878
 20
-344.7631042599697
 30
0.0
 10
177.6416211831521
 20
-351.6026540894153
 30
0.0
 10
181.0598458045074
 20
-357.4954914355416
 30
0.0
 10
181.0598458045074
 20
-357.4954914355416
 30
0.0
 10
195.1725452929131
 20
-333.0515335906997
 30
0.0
 10
195.1725452929131
 20
-333.0515335906997
 30
0.0
 10
195.1725452929131
 20
-333.0515335906997
 30
0.0
 10
181.0598458045074
 20
-357.4954914355416
 30
0.0
 10
181.0598458045074
 20
-357.4954914355416
 30
0.0
 10
181.0684929964039
 20
-357.5103742518763
 30
0.0
 10
181.0768990315538
 20
-357.5253948720619
 30
0.0
 10
181.0855806744139
 20
-357.5402776883927
 30
0.0
 10
181.0855806744139
 20
-357.5402776883927
 30
0.0
 10
210.030556930668
 20
-357.5402776883927
 30
0.0
 10
210.030556930668
 20
-357.5402776883927
 30
0.0
 10
210.030556930668
 20
-357.5402776883927
 30
0.0
 10
181.0855806744139
 20
-357.5402776883927
 30
0.0
 10
181.0855806744139
 20
-357.5402776883927
 30
0.0
 10
188.0139450883577
 20
-369.4488045173138
 30
0.0
 10
200.9049100499838
 20
-377.4602727799839
 30
0.0
 10
215.6750028282977
 20
-377.4602727799839
 30
0.0
 10
230.4450611556471
 20
-377.4602727799839
 30
0.0
 10
243.3360605682363
 20
-369.4488045173138
 30
0.0
 10
250.2644249821794
 20
-357.5402776883927
 30
0.0
 10
250.2644249821794
 20
-357.5402776883927
 30
0.0
 10
221.3194487259267
 20
-357.5402776883927
 30
0.0
 10
221.3194487259267
 20
-357.5402776883927
 30
0.0
 10
221.3194487259267
 20
-357.5402776883927
 30
0.0
 10
250.2644249821794
 20
-357.5402776883927
 30
0.0
 10
250.2644249821794
 20
-357.5402776883927
 30
0.0
 10
250.2731066250396
 20
-357.5253948720619
 30
0.0
 10
250.2815126601901
 20
-357.5103742518763
 30
0.0
 10
250.2901598520866
 20
-357.4954914355416
 30
0.0
 10
250.2901598520866
 20
-357.4954914355416
 30
0.0
 10
235.5651289343323
 20
-331.9909951232149
 30
0.0
 10
235.5651289343323
 20
-331.9909951232149
 30
0.0
 10
235.5651289343323
 20
-331.9909951232149
 30
0.0
 10
250.2901598520866
 20
-357.4954914355416
 30
0.0
 10
250.2901598520866
 20
-357.4954914355416
 30
0.0
 10
253.7083844734413
 20
-351.6026540894153
 30
0.0
 10
255.6750177380056
 20
-344.7631042599697
 30
0.0
 10
255.6750177380056
 20
-337.4602578702741
 30
0.0
 10
255.6750177380056
 20
-315.3688874366695
 30
0.0
 10
237.7663640388095
 20
-297.4602727999836
 30
0.0
 10
215.6749936052042
 20
-297.4602727999836
 30
0.0
 10
215.6749936052042
 20
-297.4602727999836
 30
0.0
 10
229.9206830367026
 20
-322.2145350866946
 30
0.0
 10
229.9206830367026
 20
-322.2145350866946
 30
0.0
  0
SPLINE
  5
9D
330
1F
100
AcDbEntity
  8
OneCircle
 62
     7
420
 16777215
370
    35
100
AcDbSpline
210
0.0
220
0.0
230
1.0
 70
    27
 71
     3
 72
    11
 73
     7
 74
     0
 42
0.0000000001
 43
0.0000000001
 12
1.0
 22
0.0
 32
0.0
 13
1.0
 23
0.0
 33
0.0
 40
0.0
 40
0.0
 40
0.0
 40
0.0
 40
1.0
 40
1.0
 40
1.0
 40
2.0
 40
2.0
 40
2.0
 40
2.0
 10
225.6656789572944
 20
-324.6711644084004
 30
0.0
 10
225.6656789572944
 20
-324.6711644084004
 30
0.0
 10
231.3101248549235
 20
-334.4476244449207
 30
0.0
 10
231.3101248549235
 20
-334.4476244449207
 30
0.0
 10
231.3101248549235
 20
-334.4476244449207
 30
0.0
 10
225.6656789572944
 20
-324.6711644084004
 30
0.0
 10
225.6656789572944
 20
-324.6711644084004
 30
0.0
  0
SPLINE
  5
9E
330
1F
100
AcDbEntity
  8
OneCircle
 62
     7
420
 16777215
370
    35
100
AcDbSpline
210
0.0
220
0.0
230
1.0
 70
    27
 71
     3
 72
    11
 73
     7
 74
     0
 42
0.0000000001
 43
0.0000000001
 12
1.0
 22
0.0
 32
0.0
 13
1.0
 23
0.0
 33
0.0
 40
0.0
 40
0.0
 40
0.0
 40
0.0
 40
1.0
 40
1.0
 40
1.0
 40
2.0
 40
2.0
 40
2.0
 40
2.0
 10
281.8836258654401
 20
-335.3320495858137
 30
0.0
 10
281.8836258654401
 20
-335.3320495858137
 30
0.0
 10
287.5280717630698
 20
-325.5555895492935
 30
0.0
 10
287.5280717630698
 20
-325.5555895492935
 30
0.0
 10
287.5280717630698
 20
-325.5555895492935
 30
0.0
 10
281.8836258654401
 20
-335.3320495858137
 30
0.0
 10
281.8836258654401
 20
-335.3320495858137
 30
0.0
  0
SPLINE
  5
9F
330
1F
100
AcDbEntity
  8
OneCircle
 62
     7
420
 16777215
370
    35
100
AcDbSpline
210
0.0
220
0.0
230
1.0
 70
     8
 71
     3
 72
    59
 73
    55
 74
     0
 42
0.0000000001
 43
0.0000000001
 12
1.0
 22
0.0
 32
0.0
 13
1.0
 23
0.0
 33
0.0
 40
0.0
 40
0.0
 40
0.0
 40
0.0
 40
1.0
 40
1.0
 40
1.0
 40
2.0
 40
2.0
 40
2.0
 40
3.0
 40
3.0
 40
3.0
 40
4.0
 40
4.0
 40
4.0
 40
5.0
 40
5.0
 40
5.0
 40
6.0
 40
6.0
 40
6.0
 40
7.0
 40
7.0
 40
7.0
 40
8.0
 40
8.0
 40
8.0
 40
9.0
 40
9.0
 40
9.0
 40
10.0
 40
10.0
 40
10.0
 40
11.0
 40
11.0
 40
11.0
 40
12.0
 40
12.0
 40
12.0
 40
13.0
 40
13.0
 40
13.0
 40
14.0
 40
14.0
 40
14.0
 40
15.0
 40
15.0
 40
15.0
 40
16.0
 40
16.0
 40
16.0
 40
17.0
 40
17.0
 40
17.0
 40
18.0
 40
18.0
 40
18.0
 40
18.0
 10
283.5780965165326
 20
-323.2750735541795
 30
0.0
 10
283.5780965165326
 20
-323.2750735541795
 30
0.0
 10
298.4360989311941
 20
-297.4602727999836
 30
0.0
 10
298.4360989311941
 20
-297.4602727999836
 30
0.0
 10
276.3446940466238
 20
-297.4602727999836
 30
0.0
 10
258.4360932445777
 20
-315.3688874366695
 30
0.0
 10
258.4360932445777
 20
-337.4602578702741
 30
0.0
 10
258.4360932445777
 20
-344.7631042599697
 30
0.0
 10
260.402726509142
 20
-351.6026540894153
 30
0.0
 10
263.8209511304967
 20
-357.4954914355416
 30
0.0
 10
263.8209511304967
 20
-357.4954914355416
 30
0.0
 10
277.933650618903
 20
-333.0515335906997
 30
0.0
 10
277.933650618903
 20
-333.0515335906997
 30
0.0
 10
277.933650618903
 20
-333.0515335906997
 30
0.0
 10
263.8209511304967
 20
-357.4954914355416
 30
0.0
 10
263.8209511304967
 20
-357.4954914355416
 30
0.0
 10
263.8295983223931
 20
-357.5103742518763
 30
0.0
 10
263.8380043575436
 20
-357.5253948720619
 30
0.0
 10
263.8466860004038
 20
-357.5402776883927
 30
0.0
 10
263.8466860004038
 20
-357.5402776883927
 30
0.0
 10
292.7916622566578
 20
-357.5402776883927
 30
0.0
 10
292.7916622566578
 20
-357.5402776883927
 30
0.0
 10
292.7916622566578
 20
-357.5402776883927
 30
0.0
 10
263.8466860004038
 20
-357.5402776883927
 30
0.0
 10
263.8466860004038
 20
-357.5402776883927
 30
0.0
 10
270.7750504143469
 20
-369.4488045173138
 30
0.0
 10
283.6660153759737
 20
-377.4602727799839
 30
0.0
 10
298.4361081542869
 20
-377.4602727799839
 30
0.0
 10
313.206166481637
 20
-377.4602727799839
 30
0.0
 10
326.0971658942256
 20
-369.4488045173138
 30
0.0
 10
333.0255303081693
 20
-357.5402776883927
 30
0.0
 10
333.0255303081693
 20
-357.5402776883927
 30
0.0
 10
304.0805540519165
 20
-357.5402776883927
 30
0.0
 10
304.0805540519165
 20
-357.5402776883927
 30
0.0
 10
304.0805540519165
 20
-357.5402776883927
 30
0.0
 10
333.0255303081693
 20
-357.5402776883927
 30
0.0
 10
333.0255303081693
 20
-357.5402776883927
 30
0.0
 10
333.0342119510295
 20
-357.5253948720619
 30
0.0
 10
333.04261798618
 20
-357.5103742518763
 30
0.0
 10
333.0512651780764
 20
-357.4954914355416
 30
0.0
 10
333.0512651780764
 20
-357.4954914355416
 30
0.0
 10
318.3262342603222
 20
-331.9909951232149
 30
0.0
 10
318.3262342603222
 20
-331.9909951232149
 30
0.0
 10
318.3262342603222
 20
-331.9909951232149
 30
0.0
 10
333.0512651780764
 20
-357.4954914355416
 30
0.0
 10
333.0512651780764
 20
-357.4954914355416
 30
0.0
 10
336.4694897994311
 20
-351.6026540894153
 30
0.0
 10
338.4361230639954
 20
-344.7631042599697
 30
0.0
 10
338.4361230639954
 20
-337.4602578702741
 30
0.0
 10
338.4361230639954
 20
-315.3688874366695
 30
0.0
 10
320.5274693647987
 20
-297.4602727999836
 30
0.0
 10
298.4360989311941
 20
-297.4602727999836
 30
0.0
 10
298.4360989311941
 20
-297.4602727999836
 30
0.0
 10
312.6817883626925
 20
-322.2145350866946
 30
0.0
 10
312.6817883626925
 20
-322.2145350866946
 30
0.0
  0
SPLINE
  5
A0
330
1F
100
AcDbEntity
  8
OneCircle
 62
     7
420
 16777215
370
    35
100
AcDbSpline
210
0.0
220
0.0
230
1.0
 70
    27
 71
     3
 72
    11
 73
     7
 74
     0
 42
0.0000000001
 43
0.0000000001
 12
1.0
 22
0.0
 32
0.0
 13
1.0
 23
0.0
 33
0.0
 40
0.0
 40
0.0
 40
0.0
 40
0.0
 40
1.0
 40
1.0
 40
1.0
 40
2.0
 40
2.0
 40
2.0
 40
2.0
 10
308.4267842832843
 20
-324.6711644084004
 30
0.0
 10
308.4267842832843
 20
-324.6711644084004
 30
0.0
 10
314.0712301809133
 20
-334.4476244449207
 30
0.0
 10
314.0712301809133
 20
-334.4476244449207
 30
0.0
 10
314.0712301809133
 20
-334.4476244449207
 30
0.0
 10
308.4267842832843
 20
-324.6711644084004
 30
0.0
 10
308.4267842832843
 20
-324.6711644084004
 30
0.0
  0
SPLINE
  5
A1
330
1F
100
AcDbEntity
  8
OneCircle
 62
     7
420
 16777215
370
    35
100
AcDbSpline
210
0.0
220
0.0
230
1.0
 70
    27
 71
     3
 72
    11
 73
     7
 74
     0
 42
0.0000000001
 43
0.0000000001
 12
1.0
 22
0.0
 32
0.0
 13
1.0
 23
0.0
 33
0.0
 40
0.0
 40
0.0
 40
0.0
 40
0.0
 40
1.0
 40
1.0
 40
1.0
 40
2.0
 40
2.0
 40
2.0
 40
2.0
 10
364.8280760535798
 20
-335.3320495858137
 30
0.0
 10
364.8280760535798
 20
-335.3320495858137
 30
0.0
 10
370.4725219512108
 20
-325.5555895492935
 30
0.0
 10
370.4725219512108
 20
-325.5555895492935
 30
0.0
 10
370.4725219512108
 20
-325.5555895492935
 30
0.0
 10
364.8280760535798
 20
-335.3320495858137
 30
0.0
 10
364.8280760535798
 20
-335.3320495858137
 30
0.0
  0
SPLINE
  5
A2
330
1F
100
AcDbEntity
  8
OneCircle
 62
     7
420
 16777215
370
    35
100
AcDbSpline
210
0.0
220
0.0
230
1.0
 70
     8
 71
     3
 72
    59
 73
    55
 74
     0
 42
0.0000000001
 43
0.0000000001
 12
1.0
 22
0.0
 32
0.0
 13
1.0
 23
0.0
 33
0.0
 40
0.0
 40
0.0
 40
0.0
 40
0.0
 40
1.0
 40
1.0
 40
1.0
 40
2.0
 40
2.0
 40
2.0
 40
3.0
 40
3.0
 40
3.0
 40
4.0
 40
4.0
 40
4.0
 40
5.0
 40
5.0
 40
5.0
 40
6.0
 40
6.0
 40
6.0
 40
7.0
 40
7.0
 40
7.0
 40
8.0
 40
8.0
 40
8.0
 40
9.0
 40
9.0
 40
9.0
 40
10.0
 40
10.0
 40
10.0
 40
11.0
 40
11.0
 40
11.0
 40
12.0
 40
12.0
 40
12.0
 40
13.0
 40
13.0
 40
13.0
 40
14.0
 40
14.0
 40
14.0
 40
15.0
 40
15.0
 40
15.0
 40
16.0
 40
16.0
 40
16.0
 40
17.0
 40
17.0
 40
17.0
 40
18.0
 40
18.0
 40
18.0
 40
18.0
 10
366.5225467046716
 20
-323.2750735541795
 30
0.0
 10
366.5225467046716
 20
-323.2750735541795
 30
0.0
 10
381.3805491193331
 20
-297.4602727999836
 30
0.0
 10
381.3805491193331
 20
-297.4602727999836
 30
0.0
 10
359.2891442347641
 20
-297.4602727999836
 30
0.0
 10
341.3805434327173
 20
-315.3688874366695
 30
0.0
 10
341.3805434327173
 20
-337.4602578702741
 30
0.0
 10
341.3805434327173
 20
-344.7631042599697
 30
0.0
 10
343.347176697281
 20
-351.6026540894153
 30
0.0
 10
346.7654013186369
 20
-357.4954914355416
 30
0.0
 10
346.7654013186369
 20
-357.4954914355416
 30
0.0
 10
360.8781008070439
 20
-333.0515335906997
 30
0.0
 10
360.8781008070439
 20
-333.0515335906997
 30
0.0
 10
360.8781008070439
 20
-333.0515335906997
 30
0.0
 10
346.7654013186369
 20
-357.4954914355416
 30
0.0
 10
346.7654013186369
 20
-357.4954914355416
 30
0.0
 10
346.7740485105334
 20
-357.5103742518763
 30
0.0
 10
346.7824545456833
 20
-357.5253948720619
 30
0.0
 10
346.7911361885428
 20
-357.5402776883927
 30
0.0
 10
346.7911361885428
 20
-357.5402776883927
 30
0.0
 10
375.7361124447982
 20
-357.5402776883927
 30
0.0
 10
375.7361124447982
 20
-357.5402776883927
 30
0.0
 10
375.7361124447982
 20
-357.5402776883927
 30
0.0
 10
346.7911361885428
 20
-357.5402776883927
 30
0.0
 10
346.7911361885428
 20
-357.5402776883927
 30
0.0
 10
353.7195006024866
 20
-369.4488045173138
 30
0.0
 10
366.610465564114
 20
-377.4602727799839
 30
0.0
 10
381.3805583424259
 20
-377.4602727799839
 30
0.0
 10
396.150616669776
 20
-377.4602727799839
 30
0.0
 10
409.0416160823659
 20
-369.4488045173138
 30
0.0
 10
415.9699804963103
 20
-357.5402776883927
 30
0.0
 10
415.9699804963103
 20
-357.5402776883927
 30
0.0
 10
387.0250042400575
 20
-357.5402776883927
 30
0.0
 10
387.0250042400575
 20
-357.5402776883927
 30
0.0
 10
387.0250042400575
 20
-357.5402776883927
 30
0.0
 10
415.9699804963103
 20
-357.5402776883927
 30
0.0
 10
415.9699804963103
 20
-357.5402776883927
 30
0.0
 10
415.9786621391698
 20
-357.5253948720619
 30
0.0
 10
415.9870681743196
 20
-357.5103742518763
 30
0.0
 10
415.9957153662174
 20
-357.4954914355416
 30
0.0
 10
415.9957153662174
 20
-357.4954914355416
 30
0.0
 10
401.2706844484624
 20
-331.9909951232149
 30
0.0
 10
401.2706844484624
 20
-331.9909951232149
 30
0.0
 10
401.2706844484624
 20
-331.9909951232149
 30
0.0
 10
415.9957153662174
 20
-357.4954914355416
 30
0.0
 10
415.9957153662174
 20
-357.4954914355416
 30
0.0
 10
419.4139399875721
 20
-351.6026540894153
 30
0.0
 10
421.3805732521344
 20
-344.7631042599697
 30
0.0
 10
421.3805732521344
 20
-337.4602578702741
 30
0.0
 10
421.3805732521344
 20
-315.3688874366695
 30
0.0
 10
403.4719195529403
 20
-297.4602727999836
 30
0.0
 10
381.3805491193331
 20
-297.4602727999836
 30
0.0
 10
381.3805491193331
 20
-297.4602727999836
 30
0.0
 10
395.6262385508309
 20
-322.2145350866946
 30
0.0
 10
395.6262385508309
 20
-322.2145350866946
 30
0.0
  0
SPLINE
  5
A3
330
1F
100
AcDbEntity
  8
OneCircle
 62
     7
420
 16777215
370
    35
100
AcDbSpline
210
0.0
220
0.0
230
1.0
 70
    27
 71
     3
 72
    11
 73
     7
 74
     0
 42
0.0000000001
 43
0.0000000001
 12
1.0
 22
0.0
 32
0.0
 13
1.0
 23
0.0
 33
0.0
 40
0.0
 40
0.0
 40
0.0
 40
0.0
 40
1.0
 40
1.0
 40
1.0
 40
2.0
 40
2.0
 40
2.0
 40
2.0
 10
391.3712344714252
 20
-324.6711644084004
 30
0.0
 10
391.3712344714252
 20
-324.6711644084004
 30
0.0
 10
397.015680369053
 20
-334.4476244449207
 30
0.0
 10
397.015680369053
 20
-334.4476244449207
 30
0.0
 10
397.015680369053
 20
-334.4476244449207
 30
0.0
 10
391.3712344714252
 20
-324.6711644084004
 30
0.0
 10
391.3712344714252
 20
-324.6711644084004
 30
0.0
  0
ENDSEC
  0
SECTION
  2
OBJECTS
  0
DICTIONARY
  5
C
330
0
100
AcDbDictionary
281
     1
  3
ACAD_GROUP
350
D
  3
ACAD_LAYOUT
350
1A
  3
ACAD_MATERIAL
350
3B
  3
ACAD_MLEADERSTYLE
350
A5
  3
ACAD_MLINESTYLE
350
17
  3
ACAD_PLOTSETTINGS
350
19
  3
ACAD_PLOTSTYLENAME
350
E
  3
ACAD_TABLESTYLE
350
A4
  3
ACAD_VISUALSTYLE
350
2A
  0
SUN
  5
3F
330
29
100
AcDbSun
 90
        1
290
     0
 63
     7
421
 16777215
 40
1.0
291
     1
 91
  2455826
 92
 54000000
292
     0
 70
     2
 71
   256
280
     1
  0
DICTIONARY
  5
D
102
{ACAD_REACTORS
330
C
102
}
330
C
100
AcDbDictionary
281
     1
  0
DICTIONARY
  5
1A
102
{ACAD_REACTORS
330
C
102
}
330
C
100
AcDbDictionary
281
     1
  3
Layout1
350
1E
  3
Layout2
350
26
  3
Model
350
22
  0
DICTIONARY
  5
3B
102
{ACAD_REACTORS
330
C
102
}
330
C
100
AcDbDictionary
281
     1
  3
ByBlock
350
3D
  3
ByLayer
350
3C
  3
Global
350
3E
  0
DICTIONARY
  5
A5
102
{ACAD_REACTORS
330
C
102
}
330
C
100
AcDbDictionary
281
     1
  0
DICTIONARY
  5
17
102
{ACAD_REACTORS
330
C
102
}
330
C
100
AcDbDictionary
281
     1
  3
Standard
350
18
  0
DICTIONARY
  5
19
102
{ACAD_REACTORS
330
C
102
}
330
C
100
AcDbDictionary
281
     1
  0
ACDBDICTIONARYWDFLT
  5
E
102
{ACAD_REACTORS
330
C
102
}
330
C
100
AcDbDictionary
281
     1
  3
Normal
350
F
100
AcDbDictionaryWithDefault
340
F
  0
DICTIONARY
  5
A4
102
{ACAD_REACTORS
330
C
102
}
330
C
100
AcDbDictionary
281
     1
  0
DICTIONARY
  5
2A
102
{ACAD_REACTORS
330
C
102
}
330
C
100
AcDbDictionary
281
     1
  3
2dWireframe
350
2F
  3
3D Hidden
350
31
  3
3dWireframe
350
30
  3
Basic
350
32
  3
Brighten
350
36
  3
ColorChange
350
3A
  3
Conceptual
350
34
  3
Dim
350
35
  3
Facepattern
350
39
  3
Flat
350
2B
  3
FlatWithEdges
350
2C
  3
Gouraud
350
2D
  3
GouraudWithEdges
350
2E
  3
Linepattern
350
38
  3
Realistic
350
33
  3
Thicken
350
37
  0
LAYOUT
  5
1E
102
{ACAD_REACTORS
330
1A
102
}
330
1A
100
AcDbPlotSettings
  1

  2
none_device
  4

  6

 40
0.0
 41
0.0
 42
0.0
 43
0.0
 44
0.0
 45
0.0
 46
0.0
 47
0.0
 48
0.0
 49
0.0
140
0.0
141
0.0
142
1.0
143
1.0
 70
   688
 72
     0
 73
     0
 74
     5
  7

 75
    16
 76
     0
 77
     2
 78
   300
147
1.0
148
0.0
149
0.0
100
AcDbLayout
  1
Layout1
 70
     1
 71
     1
 10
0.0
 20
0.0
 11
12.0
 21
9.0
 12
0.0
 22
0.0
 32
0.0
 14
1.000000000000000E+20
 24
1.000000000000000E+20
 34
1.000000000000000E+20
 15
-1.000000000000000E+20
 25
-1.000000000000000E+20
 35
-1.000000000000000E+20
146
0.0
 13
0.0
 23
0.0
 33
0.0
 16
1.0
 26
0.0
 36
0.0
 17
0.0
 27
1.0
 37
0.0
 76
     0
330
1B
  0
LAYOUT
  5
26
102
{ACAD_REACTORS
330
1A
102
}
330
1A
100
AcDbPlotSettings
  1

  2
none_device
  4

  6

 40
0.0
 41
0.0
 42
0.0
 43
0.0
 44
0.0
 45
0.0
 46
0.0
 47
0.0
 48
0.0
 49
0.0
140
0.0
141
0.0
142
1.0
143
1.0
 70
   688
 72
     0
 73
     0
 74
     5
  7

 75
    16
 76
     0
 77
     2
 78
   300
147
1.0
148
0.0
149
0.0
100
AcDbLayout
  1
Layout2
 70
     1
 71
     2
 10
0.0
 20
0.0
 11
0.0
 21
0.0
 12
0.0
 22
0.0
 32
0.0
 14
0.0
 24
0.0
 34
0.0
 15
0.0
 25
0.0
 35
0.0
146
0.0
 13
0.0
 23
0.0
 33
0.0
 16
1.0
 26
0.0
 36
0.0
 17
0.0
 27
1.0
 37
0.0
 76
     0
330
23
  0
LAYOUT
  5
22
102
{ACAD_REACTORS
330
1A
102
}
330
1A
100
AcDbPlotSettings
  1

  2
none_device
  4

  6

 40
0.0
 41
0.0
 42
0.0
 43
0.0
 44
0.0
 45
0.0
 46
0.0
 47
0.0
 48
0.0
 49
0.0
140
0.0
141
0.0
142
1.0
143
1.0
 70
  1712
 72
     0
 73
     0
 74
     0
  7

 75
     0
 76
     0
 77
     2
 78
   300
147
1.0
148
0.0
149
0.0
100
AcDbLayout
  1
Model
 70
     1
 71
     0
 10
0.0
 20
0.0
 11
12.0
 21
9.0
 12
0.0
 22
0.0
 32
0.0
 14
1.000000000000000E+20
 24
1.000000000000000E+20
 34
1.000000000000000E+20
 15
-1.000000000000000E+20
 25
-1.000000000000000E+20
 35
-1.000000000000000E+20
146
0.0
 13
0.0
 23
0.0
 33
0.0
 16
1.0
 26
0.0
 36
0.0
 17
0.0
 27
1.0
 37
0.0
 76
     0
330
1F
331
29
  0
MATERIAL
  5
3D
102
{ACAD_REACTORS
330
3B
102
}
330
3B
100
AcDbMaterial
  1
ByBlock
 72
     1
 94
      127
  0
MATERIAL
  5
3C
102
{ACAD_REACTORS
330
3B
102
}
330
3B
100
AcDbMaterial
  1
ByLayer
 72
     1
 94
      127
  0
MATERIAL
  5
3E
102
{ACAD_REACTORS
330
3B
102
}
330
3B
100
AcDbMaterial
  1
Global
 72
     1
 94
      127
  0
MLINESTYLE
  5
18
102
{ACAD_REACTORS
330
17
102
}
330
17
100
AcDbMlineStyle
  2
Standard
 70
     0
  3

 62
   256
 51
90.0
 52
90.0
 71
     2
 49
0.5
 62
   256
  6
BYLAYER
 49
-0.5
 62
   256
  6
BYLAYER
  0
ACDBPLACEHOLDER
  5
F
102
{ACAD_REACTORS
330
E
102
}
330
E
  0
VISUALSTYLE
  5
2F
102
{ACAD_REACTORS
330
2A
102
}
330
2A
100
AcDbVisualStyle
  2
2dWireframe
 70
     4
177
     2
291
     0
 71
     0
176
     1
 72
     2
176
     1
 73
     0
176
     1
 90
        0
176
     1
 40
-0.6
176
     1
 41
-30.0
176
     1
 62
     5
 63
     7
421
 16777215
176
     1
 74
     1
176
     1
 91
        4
176
     1
 64
     7
176
     1
 65
   257
176
     1
 75
     1
176
     1
175
     1
176
     1
 42
1.0
176
     1
 92
        0
176
     1
 66
   257
176
     1
 43
1.0
176
     1
 76
     1
176
     1
 77
     6
176
     1
 78
     2
176
     1
 67
     7
176
     1
 79
     5
176
     1
170
     0
176
     1
171
     0
176
     1
290
     0
176
     1
 93
        1
176
     1
 44
0.0
176
     1
173
     0
176
     1
  0
VISUALSTYLE
  5
31
102
{ACAD_REACTORS
330
2A
102
}
330
2A
100
AcDbVisualStyle
  2
3D Hidden
 70
     6
177
     2
291
     0
 71
     1
176
     1
 72
     2
176
     1
 73
     2
176
     1
 90
        0
176
     1
 40
-0.6
176
     1
 41
-30.0
176
     1
 62
     5
 63
     7
421
 16777215
176
     1
 74
     2
176
     1
 91
        2
176
     1
 64
     7
176
     1
 65
   257
176
     1
 75
     2
176
     1
175
     1
176
     1
 42
40.0
176
     1
 92
        0
176
     1
 66
   257
176
     1
 43
1.0
176
     1
 76
     1
176
     1
 77
     6
176
     1
 78
     2
176
     1
 67
     7
176
     1
 79
     3
176
     1
170
     0
176
     1
171
     0
176
     1
290
     0
176
     1
 93
        1
176
     1
 44
0.0
176
     1
173
     0
176
     1
  0
VISUALSTYLE
  5
30
102
{ACAD_REACTORS
330
2A
102
}
330
2A
100
AcDbVisualStyle
  2
3dWireframe
 70
     5
177
     2
291
     0
 71
     0
176
     1
 72
     2
176
     1
 73
     0
176
     1
 90
        0
176
     1
 40
-0.6
176
     1
 41
-30.0
176
     1
 62
     5
 63
     7
421
 16777215
176
     1
 74
     1
176
     1
 91
        4
176
     1
 64
     7
176
     1
 65
   257
176
     1
 75
     1
176
     1
175
     1
176
     1
 42
1.0
176
     1
 92
        0
176
     1
 66
   257
176
     1
 43
1.0
176
     1
 76
     1
176
     1
 77
     6
176
     1
 78
     2
176
     1
 67
     7
176
     1
 79
     5
176
     1
170
     0
176
     1
171
     0
176
     1
290
     0
176
     1
 93
        1
176
     1
 44
0.0
176
     1
173
     0
176
     1
  0
VISUALSTYLE
  5
32
102
{ACAD_REACTORS
330
2A
102
}
330
2A
100
AcDbVisualStyle
  2
Basic
 70
     7
177
     2
291
     1
 71
     1
176
     1
 72
     0
176
     1
 73
     1
176
     1
 90
        0
176
     1
 40
-0.6
176
     1
 41
-30.0
176
     1
 62
     5
 63
     7
421
 16777215
176
     1
 74
     0
176
     1
 91
        4
176
     1
 64
     7
176
     1
 65
   257
176
     1
 75
     1
176
     1
175
     1
176
     1
 42
1.0
176
     1
 92
        8
176
     1
 66
     7
176
     1
 43
1.0
176
     1
 76
     1
176
     1
 77
     6
176
     1
 78
     2
176
     1
 67
     7
176
     1
 79
     5
176
     1
170
     0
176
     1
171
     0
176
     1
290
     0
176
     1
 93
        1
176
     1
 44
0.0
176
     1
173
     0
176
     1
  0
VISUALSTYLE
  5
36
102
{ACAD_REACTORS
330
2A
102
}
330
2A
100
AcDbVisualStyle
  2
Brighten
 70
    12
177
     2
291
     1
 71
     2
176
     1
 72
     2
176
     1
 73
     0
176
     1
 90
        0
176
     1
 40
-0.6
176
     1
 41
-30.0
176
     1
 62
     5
 63
     7
421
 16777215
176
     1
 74
     1
176
     1
 91
        4
176
     1
 64
     7
176
     1
 65
   257
176
     1
 75
     1
176
     1
175
     1
176
     1
 42
1.0
176
     1
 92
        8
176
     1
 66
     7
176
     1
 43
1.0
176
     1
 76
     1
176
     1
 77
     6
176
     1
 78
     2
176
     1
 67
     7
176
     1
 79
     5
176
     1
170
     0
176
     1
171
     0
176
     1
290
     0
176
     1
 93
        1
176
     1
 44
50.0
176
     1
173
     0
176
     1
  0
VISUALSTYLE
  5
3A
102
{ACAD_REACTORS
330
2A
102
}
330
2A
100
AcDbVisualStyle
  2
ColorChange
 70
    16
177
     2
291
     1
 71
     2
176
     1
 72
     2
176
     1
 73
     3
176
     1
 90
        0
176
     1
 40
-0.6
176
     1
 41
-30.0
176
     1
 62
     5
 63
     8
421
  8421504
176
     1
 74
     1
176
     1
 91
        4
176
     1
 64
     7
176
     1
 65
   257
176
     1
 75
     1
176
     1
175
     1
176
     1
 42
1.0
176
     1
 92
        8
176
     1
 66
     8
424
  8421504
176
     1
 43
1.0
176
     1
 76
     1
176
     1
 77
     6
176
     1
 78
     2
176
     1
 67
     7
176
     1
 79
     5
176
     1
170
     0
176
     1
171
     0
176
     1
290
     0
176
     1
 93
        1
176
     1
 44
0.0
176
     1
173
     0
176
     1
  0
VISUALSTYLE
  5
34
102
{ACAD_REACTORS
330
2A
102
}
330
2A
100
AcDbVisualStyle
  2
Conceptual
 70
     9
177
     2
291
     0
 71
     3
176
     1
 72
     2
176
     1
 73
     0
176
     1
 90
        0
176
     1
 40
-0.6
176
     1
 41
-30.0
176
     1
 62
     5
 63
     7
421
 16777215
176
     1
 74
     2
176
     1
 91
        2
176
     1
 64
     7
176
     1
 65
   257
176
     1
 75
     1
176
     1
175
     1
176
     1
 42
40.0
176
     1
 92
        8
176
     1
 66
     7
176
     1
 43
1.0
176
     1
 76
     1
176
     1
 77
     6
176
     1
 78
     2
176
     1
 67
     7
176
     1
 79
     3
176
     1
170
     0
176
     1
171
     0
176
     1
290
     0
176
     1
 93
        1
176
     1
 44
0.0
176
     1
173
     0
176
     1
  0
VISUALSTYLE
  5
35
102
{ACAD_REACTORS
330
2A
102
}
330
2A
100
AcDbVisualStyle
  2
Dim
 70
    11
177
     2
291
     1
 71
     2
176
     1
 72
     2
176
     1
 73
     0
176
     1
 90
        0
176
     1
 40
-0.6
176
     1
 41
-30.0
176
     1
 62
     5
 63
     7
421
 16777215
176
     1
 74
     1
176
     1
 91
        4
176
     1
 64
     7
176
     1
 65
   257
176
     1
 75
     1
176
     1
175
     1
176
     1
 42
1.0
176
     1
 92
        8
176
     1
 66
     7
176
     1
 43
1.0
176
     1
 76
     1
176
     1
 77
     6
176
     1
 78
     2
176
     1
 67
     7
176
     1
 79
     5
176
     1
170
     0
176
     1
171
     0
176
     1
290
     0
176
     1
 93
        1
176
     1
 44
-50.0
176
     1
173
     0
176
     1
  0
VISUALSTYLE
  5
39
102
{ACAD_REACTORS
330
2A
102
}
330
2A
100
AcDbVisualStyle
  2
Facepattern
 70
    15
177
     2
291
     1
 71
     2
176
     1
 72
     2
176
     1
 73
     0
176
     1
 90
        0
176
     1
 40
-0.6
176
     1
 41
-30.0
176
     1
 62
     5
 63
     7
421
 16777215
176
     1
 74
     1
176
     1
 91
        4
176
     1
 64
     7
176
     1
 65
   257
176
     1
 75
     1
176
     1
175
     1
176
     1
 42
1.0
176
     1
 92
        8
176
     1
 66
     7
176
     1
 43
1.0
176
     1
 76
     1
176
     1
 77
     6
176
     1
 78
     2
176
     1
 67
     7
176
     1
 79
     5
176
     1
170
     0
176
     1
171
     0
176
     1
290
     0
176
     1
 93
        1
176
     1
 44
0.0
176
     1
173
     0
176
     1
  0
VISUALSTYLE
  5
2B
102
{ACAD_REACTORS
330
2A
102
}
330
2A
100
AcDbVisualStyle
  2
Flat
 70
     0
177
     2
291
     1
 71
     2
176
     1
 72
     1
176
     1
 73
     1
176
     1
 90
        2
176
     1
 40
-0.6
176
     1
 41
30.0
176
     1
 62
     5
 63
     7
421
 16777215
176
     1
 74
     0
176
     1
 91
        4
176
     1
 64
     7
176
     1
 65
   257
176
     1
 75
     1
176
     1
175
     1
176
     1
 42
1.0
176
     1
 92
        8
176
     1
 66
     7
176
     1
 43
1.0
176
     1
 76
     1
176
     1
 77
     6
176
     1
 78
     2
176
     1
 67
     7
176
     1
 79
     5
176
     1
170
     0
176
     1
171
     0
176
     1
290
     0
176
     1
 93
       13
176
     1
 44
0.0
176
     1
173
     0
176
     1
  0
VISUALSTYLE
  5
2C
102
{ACAD_REACTORS
330
2A
102
}
330
2A
100
AcDbVisualStyle
  2
FlatWithEdges
 70
     1
177
     2
291
     1
 71
     2
176
     1
 72
     1
176
     1
 73
     1
176
     1
 90
        2
176
     1
 40
-0.6
176
     1
 41
30.0
176
     1
 62
     5
 63
     7
421
 16777215
176
     1
 74
     1
176
     1
 91
        4
176
     1
 64
     7
176
     1
 65
   257
176
     1
 75
     1
176
     1
175
     1
176
     1
 42
1.0
176
     1
 92
        0
176
     1
 66
   257
176
     1
 43
1.0
176
     1
 76
     1
176
     1
 77
     6
176
     1
 78
     2
176
     1
 67
     7
176
     1
 79
     5
176
     1
170
     0
176
     1
171
     0
176
     1
290
     0
176
     1
 93
       13
176
     1
 44
0.0
176
     1
173
     0
176
     1
  0
VISUALSTYLE
  5
2D
102
{ACAD_REACTORS
330
2A
102
}
330
2A
100
AcDbVisualStyle
  2
Gouraud
 70
     2
177
     2
291
     1
 71
     2
176
     1
 72
     2
176
     1
 73
     1
176
     1
 90
        2
176
     1
 40
-0.6
176
     1
 41
30.0
176
     1
 62
     5
 63
     7
421
 16777215
176
     1
 74
     0
176
     1
 91
        4
176
     1
 64
     7
176
     1
 65
   257
176
     1
 75
     1
176
     1
175
     1
176
     1
 42
1.0
176
     1
 92
        0
176
     1
 66
     7
176
     1
 43
1.0
176
     1
 76
     1
176
     1
 77
     6
176
     1
 78
     2
176
     1
 67
     7
176
     1
 79
     5
176
     1
170
     0
176
     1
171
     0
176
     1
290
     0
176
     1
 93
       13
176
     1
 44
0.0
176
     1
173
     0
176
     1
  0
VISUALSTYLE
  5
2E
102
{ACAD_REACTORS
330
2A
102
}
330
2A
100
AcDbVisualStyle
  2
GouraudWithEdges
 70
     3
177
     2
291
     1
 71
     2
176
     1
 72
     2
176
     1
 73
     1
176
     1
 90
        2
176
     1
 40
-0.6
176
     1
 41
30.0
176
     1
 62
     5
 63
     7
421
 16777215
176
     1
 74
     1
176
     1
 91
        4
176
     1
 64
     7
176
     1
 65
   257
176
     1
 75
     1
176
     1
175
     1
176
     1
 42
1.0
176
     1
 92
        0
176
     1
 66
   257
176
     1
 43
1.0
176
     1
 76
     1
176
     1
 77
     6
176
     1
 78
     2
176
     1
 67
     7
176
     1
 79
     5
176
     1
170
     0
176
     1
171
     0
176
     1
290
     0
176
     1
 93
       13
176
     1
 44
0.0
176
     1
173
     0
176
     1
  0
VISUALSTYLE
  5
38
102
{ACAD_REACTORS
330
2A
102
}
330
2A
100
AcDbVisualStyle
  2
Linepattern
 70
    14
177
     2
291
     1
 71
     2
176
     1
 72
     2
176
     1
 73
     0
176
     1
 90
        0
176
     1
 40
-0.6
176
     1
 41
-30.0
176
     1
 62
     5
 63
     7
421
 16777215
176
     1
 74
     1
176
     1
 91
        4
176
     1
 64
     7
176
     1
 65
   257
176
     1
 75
     7
176
     1
175
     7
176
     1
 42
1.0
176
     1
 92
        8
176
     1
 66
     7
176
     1
 43
1.0
176
     1
 76
     1
176
     1
 77
     6
176
     1
 78
     2
176
     1
 67
     7
176
     1
 79
     5
176
     1
170
     0
176
     1
171
     0
176
     1
290
     0
176
     1
 93
        1
176
     1
 44
0.0
176
     1
173
     0
176
     1
  0
VISUALSTYLE
  5
33
102
{ACAD_REACTORS
330
2A
102
}
330
2A
100
AcDbVisualStyle
  2
Realistic
 70
     8
177
     2
291
     0
 71
     2
176
     1
 72
     2
176
     1
 73
     0
176
     1
 90
        0
176
     1
 40
-0.6
176
     1
 41
-30.0
176
     1
 62
     5
 63
     7
421
 16777215
176
     1
 74
     1
176
     1
 91
        0
176
     1
 64
     7
176
     1
 65
   257
176
     1
 75
     1
176
     1
175
     1
176
     1
 42
1.0
176
     1
 92
        8
176
     1
 66
     8
424
  7895160
176
     1
 43
1.0
176
     1
 76
     1
176
     1
 77
     6
176
     1
 78
     2
176
     1
 67
     7
176
     1
 79
     5
176
     1
170
     0
176
     1
171
     0
176
     1
290
     0
176
     1
 93
       13
176
     1
 44
0.0
176
     1
173
     0
176
     1
  0
VISUALSTYLE
  5
37
102
{ACAD_REACTORS
330
2A
102
}
330
2A
100
AcDbVisualStyle
  2
Thicken
 70
    13
177
     2
291
     1
 71
     2
176
     1
 72
     2
176
     1
 73
     0
176
     1
 90
        0
176
     1
 40
-0.6
176
     1
 41
-30.0
176
     1
 62
     5
 63
     7
421
 16777215
176
     1
 74
     1
176
     1
 91
        4
176
     1
 64
     7
176
     1
 65
   257
176
     1
 75
     1
176
     1
175
     1
176
     1
 42
1.0
176
     1
 92
       12
176
     1
 66
     7
176
     1
 43
1.0
176
     1
 76
     1
176
     1
 77
     6
176
     1
 78
     2
176
     1
 67
     7
176
     1
 79
     5
176
     1
170
     0
176
     1
171
     0
176
     1
290
     0
176
     1
 93
        1
176
     1
 44
0.0
176
     1
173
     0
176
     1
  0
ENDSEC
  0
EOF
