  0
SECTION
  2
HEADER
  9
$ACADVER
  1
AC1024
  9
$ACADMAINTVER
 70
     6
  9
$DWGCODEPAGE
  3
ANSI_932
  9
$INSBASE
 10
0.0
 20
0.0
 30
0.0
  9
$EXTMIN
 10
1.000000000000000E+20
 20
1.000000000000000E+20
 30
1.000000000000000E+20
  9
$EXTMAX
 10
-1.000000000000000E+20
 20
-1.000000000000000E+20
 30
-1.000000000000000E+20
  9
$LIMMIN
 10
0.0
 20
0.0
  9
$LIMMAX
 10
12.0
 20
9.0
  9
$ORTHOMODE
 70
     0
  9
$REGENMODE
 70
     1
  9
$FILLMODE
 70
     1
  9
$QTEXTMODE
 70
     0
  9
$MIRRTEXT
 70
     1
  9
$LTSCALE
 40
1.0
  9
$ATTMODE
 70
     1
  9
$TEXTSIZE
 40
0.2
  9
$TRACEWID
 40
0.05
  9
$TEXTSTYLE
  7
Standard
  9
$CLAYER
  8
0
  9
$CELTYPE
  6
ByLayer
  9
$CECOLOR
 62
   256
  9
$CELTSCALE
 40
1.0
  9
$DISPSILH
 70
     0
  9
$DIMSCALE
 40
1.0
  9
$DIMASZ
 40
0.18
  9
$DIMEXO
 40
0.0625
  9
$DIMDLI
 40
0.38
  9
$DIMRND
 40
0.0
  9
$DIMDLE
 40
0.0
  9
$DIMEXE
 40
0.18
  9
$DIMTP
 40
0.0
  9
$DIMTM
 40
0.0
  9
$DIMTXT
 40
0.18
  9
$DIMCEN
 40
0.09
  9
$DIMTSZ
 40
0.0
  9
$DIMTOL
 70
     0
  9
$DIMLIM
 70
     0
  9
$DIMTIH
 70
     1
  9
$DIMTOH
 70
     1
  9
$DIMSE1
 70
     0
  9
$DIMSE2
 70
     0
  9
$DIMTAD
 70
     0
  9
$DIMZIN
 70
     0
  9
$DIMBLK
  1

  9
$DIMASO
 70
     1
  9
$DIMSHO
 70
     1
  9
$DIMPOST
  1

  9
$DIMAPOST
  1

  9
$DIMALT
 70
     0
  9
$DIMALTD
 70
     2
  9
$DIMALTF
 40
25.4
  9
$DIMLFAC
 40
1.0
  9
$DIMTOFL
 70
     0
  9
$DIMTVP
 40
0.0
  9
$DIMTIX
 70
     0
  9
$DIMSOXD
 70
     0
  9
$DIMSAH
 70
     0
  9
$DIMBLK1
  1

  9
$DIMBLK2
  1

  9
$DIMSTYLE
  2
Standard
  9
$DIMCLRD
 70
     0
  9
$DIMCLRE
 70
     0
  9
$DIMCLRT
 70
     0
  9
$DIMTFAC
 40
1.0
  9
$DIMGAP
 40
0.09
  9
$DIMJUST
 70
     0
  9
$DIMSD1
 70
     0
  9
$DIMSD2
 70
     0
  9
$DIMTOLJ
 70
     1
  9
$DIMTZIN
 70
     0
  9
$DIMALTZ
 70
     0
  9
$DIMALTTZ
 70
     0
  9
$DIMUPT
 70
     0
  9
$DIMDEC
 70
     4
  9
$DIMTDEC
 70
     4
  9
$DIMALTU
 70
     2
  9
$DIMALTTD
 70
     2
  9
$DIMTXSTY
  7
Standard
  9
$DIMAUNIT
 70
     0
  9
$DIMADEC
 70
     0
  9
$DIMALTRND
 40
0.0
  9
$DIMAZIN
 70
     0
  9
$DIMDSEP
 70
    46
  9
$DIMATFIT
 70
     3
  9
$DIMFRAC
 70
     0
  9
$DIMLDRBLK
  1

  9
$DIMLUNIT
 70
     2
  9
$DIMLWD
 70
    -2
  9
$DIMLWE
 70
    -2
  9
$DIMTMOVE
 70
     0
  9
$DIMFXL
 40
1.0
  9
$DIMFXLON
 70
     0
  9
$DIMJOGANG
 40
0.7853981633974483
  9
$DIMTFILL
 70
     0
  9
$DIMTFILLCLR
 70
     0
  9
$DIMARCSYM
 70
     0
  9
$DIMLTYPE
  6

  9
$DIMLTEX1
  6

  9
$DIMLTEX2
  6

  9
$DIMTXTDIRECTION
 70
     0
  9
$LUNITS
 70
     2
  9
$LUPREC
 70
     4
  9
$SKETCHINC
 40
0.1
  9
$FILLETRAD
 40
0.5
  9
$AUNITS
 70
     0
  9
$AUPREC
 70
     0
  9
$MENU
  1
.
  9
$ELEVATION
 40
0.0
  9
$PELEVATION
 40
0.0
  9
$THICKNESS
 40
0.0
  9
$LIMCHECK
 70
     0
  9
$CHAMFERA
 40
0.5
  9
$CHAMFERB
 40
0.5
  9
$CHAMFERC
 40
1.0
  9
$CHAMFERD
 40
0.0
  9
$SKPOLY
 70
     0
  9
$TDCREATE
 40
2458553.069707384
  9
$TDUCREATE
 40
2458552.694707384
  9
$TDUPDATE
 40
2458553.069707384
  9
$TDUUPDATE
 40
2458552.694707384
  9
$TDINDWG
 40
0.0000000116
  9
$TDUSRTIMER
 40
0.0000000116
  9
$USRTIMER
 70
     1
  9
$ANGBASE
 50
0.0
  9
$ANGDIR
 70
     0
  9
$PDMODE
 70
     0
  9
$PDSIZE
 40
0.0
  9
$PLINEWID
 40
0.0
  9
$SPLFRAME
 70
     0
  9
$SPLINETYPE
 70
     6
  9
$SPLINESEGS
 70
     8
  9
$HANDSEED
  5
8E
  9
$SURFTAB1
 70
     6
  9
$SURFTAB2
 70
     6
  9
$SURFTYPE
 70
     6
  9
$SURFU
 70
     6
  9
$SURFV
 70
     6
  9
$UCSBASE
  2

  9
$UCSNAME
  2

  9
$UCSORG
 10
0.0
 20
0.0
 30
0.0
  9
$UCSXDIR
 10
1.0
 20
0.0
 30
0.0
  9
$UCSYDIR
 10
0.0
 20
1.0
 30
0.0
  9
$UCSORTHOREF
  2

  9
$UCSORTHOVIEW
 70
     0
  9
$UCSORGTOP
 10
0.0
 20
0.0
 30
0.0
  9
$UCSORGBOTTOM
 10
0.0
 20
0.0
 30
0.0
  9
$UCSORGLEFT
 10
0.0
 20
0.0
 30
0.0
  9
$UCSORGRIGHT
 10
0.0
 20
0.0
 30
0.0
  9
$UCSORGFRONT
 10
0.0
 20
0.0
 30
0.0
  9
$UCSORGBACK
 10
0.0
 20
0.0
 30
0.0
  9
$PUCSBASE
  2

  9
$PUCSNAME
  2

  9
$PUCSORG
 10
0.0
 20
0.0
 30
0.0
  9
$PUCSXDIR
 10
1.0
 20
0.0
 30
0.0
  9
$PUCSYDIR
 10
0.0
 20
1.0
 30
0.0
  9
$PUCSORTHOREF
  2

  9
$PUCSORTHOVIEW
 70
     0
  9
$PUCSORGTOP
 10
0.0
 20
0.0
 30
0.0
  9
$PUCSORGBOTTOM
 10
0.0
 20
0.0
 30
0.0
  9
$PUCSORGLEFT
 10
0.0
 20
0.0
 30
0.0
  9
$PUCSORGRIGHT
 10
0.0
 20
0.0
 30
0.0
  9
$PUCSORGFRONT
 10
0.0
 20
0.0
 30
0.0
  9
$PUCSORGBACK
 10
0.0
 20
0.0
 30
0.0
  9
$USERI1
 70
     0
  9
$USERI2
 70
     0
  9
$USERI3
 70
     0
  9
$USERI4
 70
     0
  9
$USERI5
 70
     0
  9
$USERR1
 40
0.0
  9
$USERR2
 40
0.0
  9
$USERR3
 40
0.0
  9
$USERR4
 40
0.0
  9
$USERR5
 40
0.0
  9
$WORLDVIEW
 70
     1
  9
$SHADEDGE
 70
     3
  9
$SHADEDIF
 70
    70
  9
$TILEMODE
 70
     1
  9
$MAXACTVP
 70
    64
  9
$PINSBASE
 10
0.0
 20
0.0
 30
0.0
  9
$PLIMCHECK
 70
     0
  9
$PEXTMIN
 10
1.000000000000000E+20
 20
1.000000000000000E+20
 30
1.000000000000000E+20
  9
$PEXTMAX
 10
-1.000000000000000E+20
 20
-1.000000000000000E+20
 30
-1.000000000000000E+20
  9
$PLIMMIN
 10
0.0
 20
0.0
  9
$PLIMMAX
 10
12.0
 20
9.0
  9
$UNITMODE
 70
     0
  9
$VISRETAIN
 70
     1
  9
$PLINEGEN
 70
     0
  9
$PSLTSCALE
 70
     1
  9
$TREEDEPTH
 70
  3020
  9
$CMLSTYLE
  2
Standard
  9
$CMLJUST
 70
     0
  9
$CMLSCALE
 40
1.0
  9
$PROXYGRAPHICS
 70
     1
  9
$MEASUREMENT
 70
     0
  9
$CELWEIGHT
370
    -1
  9
$ENDCAPS
280
     0
  9
$JOINSTYLE
280
     0
  9
$LWDISPLAY
290
     1
  9
$INSUNITS
 70
     1
  9
$HYPERLINKBASE
  1

  9
$STYLESHEET
  1

  9
$XEDIT
290
     1
  9
$CEPSNTYPE
380
     0
  9
$PSTYLEMODE
290
     1
  9
$FINGERPRINTGUID
  2
{CA05B611-542D-4B7B-8C33-AC172266E1A9}
  9
$VERSIONGUID
  2
{FAEB1C32-E019-11D5-929B-00C0DF256EC4}
  9
$EXTNAMES
290
     1
  9
$PSVPSCALE
 40
0.0
  9
$OLESTARTUP
290
     0
  9
$SORTENTS
280
   127
  9
$INDEXCTL
280
     0
  9
$HIDETEXT
280
     1
  9
$XCLIPFRAME
280
     2
  9
$HALOGAP
280
     0
  9
$OBSCOLOR
 70
   257
  9
$OBSLTYPE
280
     0
  9
$INTERSECTIONDISPLAY
280
     0
  9
$INTERSECTIONCOLOR
 70
   257
  9
$DIMASSOC
280
     2
  9
$PROJECTNAME
  1

  9
$CAMERADISPLAY
290
     0
  9
$LENSLENGTH
 40
50.0
  9
$CAMERAHEIGHT
 40
0.0
  9
$STEPSPERSEC
 40
2.0
  9
$STEPSIZE
 40
6.0
  9
$3DDWFPREC
 40
2.0
  9
$PSOLWIDTH
 40
0.25
  9
$PSOLHEIGHT
 40
4.0
  9
$LOFTANG1
 40
1.570796326794897
  9
$LOFTANG2
 40
1.570796326794897
  9
$LOFTMAG1
 40
0.0
  9
$LOFTMAG2
 40
0.0
  9
$LOFTPARAM
 70
     7
  9
$LOFTNORMALS
280
     1
  9
$LATITUDE
 40
37.795
  9
$LONGITUDE
 40
-122.394
  9
$NORTHDIRECTION
 40
0.0
  9
$TIMEZONE
 70
 -8000
  9
$LIGHTGLYPHDISPLAY
280
     1
  9
$TILEMODELIGHTSYNCH
280
     1
  9
$CMATERIAL
347
3C
  9
$SOLIDHIST
280
     1
  9
$SHOWHIST
280
     1
  9
$DWFFRAME
280
     2
  9
$DGNFRAME
280
     2
  9
$REALWORLDSCALE
290
     1
  9
$INTERFERECOLOR
 62
   256
  9
$CSHADOW
280
     0
  9
$SHADOWPLANELOCATION
 40
0.0
  0
ENDSEC
  0
SECTION
  2
CLASSES
  0
CLASS
  1
ACDBDICTIONARYWDFLT
  2
AcDbDictionaryWithDefault
  3
ObjectDBX Classes
 90
        0
 91
        4
280
     0
281
     0
  0
CLASS
  1
VISUALSTYLE
  2
AcDbVisualStyle
  3
ObjectDBX Classes
 90
     4095
 91
        4
280
     0
281
     0
  0
CLASS
  1
MATERIAL
  2
AcDbMaterial
  3
ObjectDBX Classes
 90
     1153
 91
        4
280
     0
281
     0
  0
CLASS
  1
SUN
  2
AcDbSun
  3
SCENEOE
 90
     1024
 91
        4
280
     0
281
     0
  0
ENDSEC
  0
SECTION
  2
TABLES
  0
TABLE
  2
VPORT
  5
8
330
0
100
AcDbSymbolTable
 70
     1
  0
VPORT
  5
29
330
8
100
AcDbSymbolTableRecord
100
AcDbViewportTableRecord
  2
*Active
 70
     0
 10
0.0
 20
0.0
 11
1.0
 21
1.0
 12
0.0
 22
0.0
 13
0.0
 23
0.0
 14
0.5
 24
0.5
 15
0.5
 25
0.5
 16
0.0
 26
0.0
 36
1.0
 17
239.9999999399998
 27
-209.9999999474999
 37
0.0
 40
419.9999998949992
 41
1.142857142857143
 42
50.0
 43
0.0
 44
0.0
 50
0.0
 51
0.0
 71
     0
 72
   100
 73
     1
 74
     3
 75
     0
 76
     0
 77
     0
 78
     0
281
     0
 65
     1
110
0.0
120
0.0
130
0.0
111
1.0
121
0.0
131
0.0
112
0.0
122
1.0
132
0.0
 79
     0
146
0.0
 60
     3
 61
     5
292
     1
282
     1
141
0.0
142
0.0
 63
   250
361
3F
  0
ENDTAB
  0
TABLE
  2
LTYPE
  5
5
330
0
100
AcDbSymbolTable
 70
     1
  0
LTYPE
  5
14
330
5
100
AcDbSymbolTableRecord
100
AcDbLinetypeTableRecord
  2
ByBlock
 70
     0
  3

 72
    65
 73
     0
 40
0.0
  0
LTYPE
  5
15
330
5
100
AcDbSymbolTableRecord
100
AcDbLinetypeTableRecord
  2
ByLayer
 70
     0
  3

 72
    65
 73
     0
 40
0.0
  0
LTYPE
  5
16
330
5
100
AcDbSymbolTableRecord
100
AcDbLinetypeTableRecord
  2
Continuous
 70
     0
  3
Solid line
 72
    65
 73
     0
 40
0.0
  0
ENDTAB
  0
TABLE
  2
LAYER
  5
2
330
0
100
AcDbSymbolTable
 70
     2
  0
LAYER
  5
10
330
2
100
AcDbSymbolTableRecord
100
AcDbLayerTableRecord
  2
0
 70
     0
 62
     7
  6
Continuous
370
    -3
390
F
347
3E
  0
LAYER
  5
40
330
2
100
AcDbSymbolTableRecord
100
AcDbLayerTableRecord
  2
OneCircle
 70
     0
 62
     7
  6
Continuous
370
    -3
390
F
347
3E
  0
ENDTAB
  0
TABLE
  2
STYLE
  5
3
330
0
100
AcDbSymbolTable
 70
     1
  0
STYLE
  5
11
330
3
100
AcDbSymbolTableRecord
100
AcDbTextStyleTableRecord
  2
Standard
 70
     0
 40
0.0
 41
1.0
 50
0.0
 71
     0
 42
0.2
  3
txt
  4

  0
ENDTAB
  0
TABLE
  2
VIEW
  5
6
330
0
100
AcDbSymbolTable
 70
     0
  0
ENDTAB
  0
TABLE
  2
UCS
  5
7
330
0
100
AcDbSymbolTable
 70
     0
  0
ENDTAB
  0
TABLE
  2
APPID
  5
9
330
0
100
AcDbSymbolTable
 70
     1
  0
APPID
  5
12
330
9
100
AcDbSymbolTableRecord
100
AcDbRegAppTableRecord
  2
ACAD
 70
     0
  0
ENDTAB
  0
TABLE
  2
DIMSTYLE
  5
A
330
0
100
AcDbSymbolTable
 70
     1
100
AcDbDimStyleTable
  0
DIMSTYLE
105
27
330
A
100
AcDbSymbolTableRecord
100
AcDbDimStyleTableRecord
  2
Standard
 70
     0
178
     0
340
11
  0
ENDTAB
  0
TABLE
  2
BLOCK_RECORD
  5
1
330
0
100
AcDbSymbolTable
 70
     1
  0
BLOCK_RECORD
  5
1F
330
1
100
AcDbSymbolTableRecord
100
AcDbBlockTableRecord
  2
*Model_Space
340
22
 70
     0
280
     1
281
     0
  0
BLOCK_RECORD
  5
1B
330
1
100
AcDbSymbolTableRecord
100
AcDbBlockTableRecord
  2
*Paper_Space
340
1E
 70
     0
280
     1
281
     0
  0
BLOCK_RECORD
  5
23
330
1
100
AcDbSymbolTableRecord
100
AcDbBlockTableRecord
  2
*Paper_Space0
340
26
 70
     0
280
     1
281
     0
  0
ENDTAB
  0
ENDSEC
  0
SECTION
  2
BLOCKS
  0
BLOCK
  5
20
330
1F
100
AcDbEntity
  8
0
100
AcDbBlockBegin
  2
*Model_Space
 70
     0
 10
0.0
 20
0.0
 30
0.0
  3
*Model_Space
  1

  0
ENDBLK
  5
21
330
1F
100
AcDbEntity
  8
0
100
AcDbBlockEnd
  0
BLOCK
  5
1C
330
1B
100
AcDbEntity
 67
     1
  8
0
100
AcDbBlockBegin
  2
*Paper_Space
 70
     0
 10
0.0
 20
0.0
 30
0.0
  3
*Paper_Space
  1

  0
ENDBLK
  5
1D
330
1B
100
AcDbEntity
 67
     1
  8
0
100
AcDbBlockEnd
  0
BLOCK
  5
24
330
23
100
AcDbEntity
  8
0
100
AcDbBlockBegin
  2
*Paper_Space0
 70
     0
 10
0.0
 20
0.0
 30
0.0
  3
*Paper_Space0
  1

  0
ENDBLK
  5
25
330
23
100
AcDbEntity
  8
0
100
AcDbBlockEnd
  0
ENDSEC
  0
SECTION
  2
ENTITIES
  0
SPLINE
  5
41
330
1F
100
AcDbEntity
  8
OneCircle
 62
     7
420
 16777215
370
    35
100
AcDbSpline
210
0.0
220
0.0
230
1.0
 70
    27
 71
     3
 72
    11
 73
     7
 74
     0
 42
0.0000000001
 43
0.0000000001
 12
1.0
 22
0.0
 32
0.0
 13
1.0
 23
0.0
 33
0.0
 40
0.0
 40
0.0
 40
0.0
 40
0.0
 40
1.0
 40
1.0
 40
1.0
 40
2.0
 40
2.0
 40
2.0
 40
2.0
 10
24.44751770090357
 20
-38.87177678558123
 30
0.0
 10
24.44751770090357
 20
-38.87177678558123
 30
0.0
 10
30.09196359853355
 20
-29.09531674906065
 30
0.0
 10
30.09196359853355
 20
-29.09531674906065
 30
0.0
 10
30.09196359853355
 20
-29.09531674906065
 30
0.0
 10
24.44751770090357
 20
-38.87177678558123
 30
0.0
 10
24.44751770090357
 20
-38.87177678558123
 30
0.0
  0
SPLINE
  5
42
330
1F
100
AcDbEntity
  8
OneCircle
 62
     7
420
 16777215
370
    35
100
AcDbSpline
210
0.0
220
0.0
230
1.0
 70
     8
 71
     3
 72
    59
 73
    55
 74
     0
 42
0.0000000001
 43
0.0000000001
 12
1.0
 22
0.0
 32
0.0
 13
1.0
 23
0.0
 33
0.0
 40
0.0
 40
0.0
 40
0.0
 40
0.0
 40
1.0
 40
1.0
 40
1.0
 40
2.0
 40
2.0
 40
2.0
 40
3.0
 40
3.0
 40
3.0
 40
4.0
 40
4.0
 40
4.0
 40
5.0
 40
5.0
 40
5.0
 40
6.0
 40
6.0
 40
6.0
 40
7.0
 40
7.0
 40
7.0
 40
8.0
 40
8.0
 40
8.0
 40
9.0
 40
9.0
 40
9.0
 40
10.0
 40
10.0
 40
10.0
 40
11.0
 40
11.0
 40
11.0
 40
12.0
 40
12.0
 40
12.0
 40
13.0
 40
13.0
 40
13.0
 40
14.0
 40
14.0
 40
14.0
 40
15.0
 40
15.0
 40
15.0
 40
16.0
 40
16.0
 40
16.0
 40
17.0
 40
17.0
 40
17.0
 40
18.0
 40
18.0
 40
18.0
 40
18.0
 10
26.14198835199605
 20
-26.81480075394666
 30
0.0
 10
26.14198835199605
 20
-26.81480075394666
 30
0.0
 10
40.9999907666575
 20
-0.9999999997504144
 30
0.0
 10
40.9999907666575
 20
-0.9999999997504144
 30
0.0
 10
18.90858588208752
 20
-0.9999999997504144
 30
0.0
 10
0.9999850800411206
 20
-18.90861463643635
 30
0.0
 10
0.9999850800411206
 20
-40.99998507004165
 30
0.0
 10
0.9999850800411206
 20
-48.30283145973718
 30
0.0
 10
2.9666183446054
 20
-55.14238128918282
 30
0.0
 10
6.384842965960399
 20
-61.0352186353104
 30
0.0
 10
6.384842965960399
 20
-61.0352186353104
 30
0.0
 10
20.49754245436639
 20
-36.59126079046724
 30
0.0
 10
20.49754245436639
 20
-36.59126079046724
 30
0.0
 10
20.49754245436639
 20
-36.59126079046724
 30
0.0
 10
6.384842965960399
 20
-61.0352186353104
 30
0.0
 10
6.384842965960399
 20
-61.0352186353104
 30
0.0
 10
6.393490157856869
 20
-61.05010145164218
 30
0.0
 10
6.401896193007062
 20
-61.06512207182911
 30
0.0
 10
6.410577835867239
 20
-61.08000488816025
 30
0.0
 10
6.410577835867239
 20
-61.08000488816025
 30
0.0
 10
35.35555409212065
 20
-61.08000488816025
 30
0.0
 10
35.35555409212065
 20
-61.08000488816025
 30
0.0
 10
35.35555409212065
 20
-61.08000488816025
 30
0.0
 10
6.410577835867239
 20
-61.08000488816025
 30
0.0
 10
6.410577835867239
 20
-61.08000488816025
 30
0.0
 10
13.33894224981067
 20
-72.98853171707943
 30
0.0
 10
26.2299072114368
 20
-80.9999999797502
 30
0.0
 10
40.99999998975063
 20
-80.9999999797502
 30
0.0
 10
55.7700583171001
 20
-80.9999999797502
 30
0.0
 10
68.66105772968929
 20
-72.98853171707943
 30
0.0
 10
75.58942214363273
 20
-61.08000488816025
 30
0.0
 10
75.58942214363273
 20
-61.08000488816025
 30
0.0
 10
46.64444588737996
 20
-61.08000488816025
 30
0.0
 10
46.64444588737996
 20
-61.08000488816025
 30
0.0
 10
46.64444588737996
 20
-61.08000488816025
 30
0.0
 10
75.58942214363273
 20
-61.08000488816025
 30
0.0
 10
75.58942214363273
 20
-61.08000488816025
 30
0.0
 10
75.59810378649291
 20
-61.06512207182911
 30
0.0
 10
75.6065098216431
 20
-61.05010145164218
 30
0.0
 10
75.61515701353957
 20
-61.0352186353104
 30
0.0
 10
75.61515701353957
 20
-61.0352186353104
 30
0.0
 10
60.89012609578558
 20
-35.53072232298273
 30
0.0
 10
60.89012609578558
 20
-35.53072232298273
 30
0.0
 10
60.89012609578558
 20
-35.53072232298273
 30
0.0
 10
75.61515701353957
 20
-61.0352186353104
 30
0.0
 10
75.61515701353957
 20
-61.0352186353104
 30
0.0
 10
79.03338163489457
 20
-55.14238128918282
 30
0.0
 10
81.00001489945917
 20
-48.30283145973718
 30
0.0
 10
81.00001489945917
 20
-40.99998507004165
 30
0.0
 10
81.00001489945917
 20
-18.90861463643635
 30
0.0
 10
63.09136120026248
 20
-0.9999999997504144
 30
0.0
 10
40.99999076665718
 20
-0.9999999997504144
 30
0.0
 10
40.99999076665718
 20
-0.9999999997504144
 30
0.0
 10
55.24568019815592
 20
-25.75426228646247
 30
0.0
 10
55.24568019815592
 20
-25.75426228646247
 30
0.0
  0
SPLINE
  5
43
330
1F
100
AcDbEntity
  8
OneCircle
 62
     7
420
 16777215
370
    35
100
AcDbSpline
210
0.0
220
0.0
230
1.0
 70
    27
 71
     3
 72
    11
 73
     7
 74
     0
 42
0.0000000001
 43
0.0000000001
 12
1.0
 22
0.0
 32
0.0
 13
1.0
 23
0.0
 33
0.0
 40
0.0
 40
0.0
 40
0.0
 40
0.0
 40
1.0
 40
1.0
 40
1.0
 40
2.0
 40
2.0
 40
2.0
 40
2.0
 10
50.99067611874742
 20
-28.21089160816762
 30
0.0
 10
50.99067611874742
 20
-28.21089160816762
 30
0.0
 10
56.63512201637676
 20
-37.9873516446882
 30
0.0
 10
56.63512201637676
 20
-37.9873516446882
 30
0.0
 10
56.63512201637676
 20
-37.9873516446882
 30
0.0
 10
50.99067611874742
 20
-28.21089160816762
 30
0.0
 10
50.99067611874742
 20
-28.21089160816762
 30
0.0
  0
SPLINE
  5
44
330
1F
100
AcDbEntity
  8
OneCircle
 62
     7
420
 16777215
370
    35
100
AcDbSpline
210
0.0
220
0.0
230
1.0
 70
    27
 71
     3
 72
    11
 73
     7
 74
     0
 42
0.0000000001
 43
0.0000000001
 12
1.0
 22
0.0
 32
0.0
 13
1.0
 23
0.0
 33
0.0
 40
0.0
 40
0.0
 40
0.0
 40
0.0
 40
1.0
 40
1.0
 40
1.0
 40
2.0
 40
2.0
 40
2.0
 40
2.0
 10
107.4475176801536
 20
-38.87177678558091
 30
0.0
 10
107.4475176801536
 20
-38.87177678558091
 30
0.0
 10
113.0919635777836
 20
-29.09531674906033
 30
0.0
 10
113.0919635777836
 20
-29.09531674906033
 30
0.0
 10
113.0919635777836
 20
-29.09531674906033
 30
0.0
 10
107.4475176801536
 20
-38.87177678558091
 30
0.0
 10
107.4475176801536
 20
-38.87177678558091
 30
0.0
  0
SPLINE
  5
45
330
1F
100
AcDbEntity
  8
OneCircle
 62
     7
420
 16777215
370
    35
100
AcDbSpline
210
0.0
220
0.0
230
1.0
 70
     8
 71
     3
 72
    59
 73
    55
 74
     0
 42
0.0000000001
 43
0.0000000001
 12
1.0
 22
0.0
 32
0.0
 13
1.0
 23
0.0
 33
0.0
 40
0.0
 40
0.0
 40
0.0
 40
0.0
 40
1.0
 40
1.0
 40
1.0
 40
2.0
 40
2.0
 40
2.0
 40
3.0
 40
3.0
 40
3.0
 40
4.0
 40
4.0
 40
4.0
 40
5.0
 40
5.0
 40
5.0
 40
6.0
 40
6.0
 40
6.0
 40
7.0
 40
7.0
 40
7.0
 40
8.0
 40
8.0
 40
8.0
 40
9.0
 40
9.0
 40
9.0
 40
10.0
 40
10.0
 40
10.0
 40
11.0
 40
11.0
 40
11.0
 40
12.0
 40
12.0
 40
12.0
 40
13.0
 40
13.0
 40
13.0
 40
14.0
 40
14.0
 40
14.0
 40
15.0
 40
15.0
 40
15.0
 40
16.0
 40
16.0
 40
16.0
 40
17.0
 40
17.0
 40
17.0
 40
18.0
 40
18.0
 40
18.0
 40
18.0
 10
109.1419883312461
 20
-26.81480075394634
 30
0.0
 10
109.1419883312461
 20
-26.81480075394634
 30
0.0
 10
123.9999907459076
 20
-0.9999999997500936
 30
0.0
 10
123.9999907459076
 20
-0.9999999997500936
 30
0.0
 10
101.9085858613376
 20
-0.9999999997500936
 30
0.0
 10
83.99998505929118
 20
-18.90861463643603
 30
0.0
 10
83.99998505929118
 20
-40.99998507004133
 30
0.0
 10
83.99998505929118
 20
-48.30283145973686
 30
0.0
 10
85.96661832385578
 20
-55.1423812891825
 30
0.0
 10
89.38484294521047
 20
-61.03521863531008
 30
0.0
 10
89.38484294521047
 20
-61.03521863531008
 30
0.0
 10
103.4975424336165
 20
-36.59126079046692
 30
0.0
 10
103.4975424336165
 20
-36.59126079046692
 30
0.0
 10
103.4975424336165
 20
-36.59126079046692
 30
0.0
 10
89.38484294521047
 20
-61.03521863531008
 30
0.0
 10
89.38484294521047
 20
-61.03521863531008
 30
0.0
 10
89.39349013710694
 20
-61.05010145164186
 30
0.0
 10
89.40189617225712
 20
-61.06512207182879
 30
0.0
 10
89.4105778151173
 20
-61.08000488815993
 30
0.0
 10
89.4105778151173
 20
-61.08000488815993
 30
0.0
 10
118.355554071371
 20
-61.08000488815993
 30
0.0
 10
118.355554071371
 20
-61.08000488815993
 30
0.0
 10
118.355554071371
 20
-61.08000488815993
 30
0.0
 10
89.4105778151173
 20
-61.08000488815993
 30
0.0
 10
89.4105778151173
 20
-61.08000488815993
 30
0.0
 10
96.33894222906073
 20
-72.9885317170791
 30
0.0
 10
109.2299071906869
 20
-80.99999997974987
 30
0.0
 10
123.9999999690007
 20
-80.99999997974987
 30
0.0
 10
138.7700582963502
 20
-80.99999997974987
 30
0.0
 10
151.6610577089394
 20
-72.9885317170791
 30
0.0
 10
158.5894221228828
 20
-61.08000488815993
 30
0.0
 10
158.5894221228828
 20
-61.08000488815993
 30
0.0
 10
129.64444586663
 20
-61.08000488815993
 30
0.0
 10
129.64444586663
 20
-61.08000488815993
 30
0.0
 10
129.64444586663
 20
-61.08000488815993
 30
0.0
 10
158.5894221228828
 20
-61.08000488815993
 30
0.0
 10
158.5894221228828
 20
-61.08000488815993
 30
0.0
 10
158.598103765743
 20
-61.06512207182879
 30
0.0
 10
158.6065098008931
 20
-61.05010145164186
 30
0.0
 10
158.6151569927896
 20
-61.03521863531008
 30
0.0
 10
158.6151569927896
 20
-61.03521863531008
 30
0.0
 10
143.8901260750356
 20
-35.5307223229824
 30
0.0
 10
143.8901260750356
 20
-35.5307223229824
 30
0.0
 10
143.8901260750356
 20
-35.5307223229824
 30
0.0
 10
158.6151569927896
 20
-61.03521863531008
 30
0.0
 10
158.6151569927896
 20
-61.03521863531008
 30
0.0
 10
162.0333816141446
 20
-55.1423812891825
 30
0.0
 10
164.0000148787089
 20
-48.30283145973686
 30
0.0
 10
164.0000148787089
 20
-40.99998507004133
 30
0.0
 10
164.0000148787089
 20
-18.90861463643603
 30
0.0
 10
146.0913611795125
 20
-0.9999999997500936
 30
0.0
 10
123.9999907459072
 20
-0.9999999997500936
 30
0.0
 10
123.9999907459072
 20
-0.9999999997500936
 30
0.0
 10
138.245680177406
 20
-25.75426228646214
 30
0.0
 10
138.245680177406
 20
-25.75426228646214
 30
0.0
  0
SPLINE
  5
46
330
1F
100
AcDbEntity
  8
OneCircle
 62
     7
420
 16777215
370
    35
100
AcDbSpline
210
0.0
220
0.0
230
1.0
 70
    27
 71
     3
 72
    11
 73
     7
 74
     0
 42
0.0000000001
 43
0.0000000001
 12
1.0
 22
0.0
 32
0.0
 13
1.0
 23
0.0
 33
0.0
 40
0.0
 40
0.0
 40
0.0
 40
0.0
 40
1.0
 40
1.0
 40
1.0
 40
2.0
 40
2.0
 40
2.0
 40
2.0
 10
133.9906760979975
 20
-28.2108916081673
 30
0.0
 10
133.9906760979975
 20
-28.2108916081673
 30
0.0
 10
139.6351219956268
 20
-37.98735164468788
 30
0.0
 10
139.6351219956268
 20
-37.98735164468788
 30
0.0
 10
139.6351219956268
 20
-37.98735164468788
 30
0.0
 10
133.9906760979975
 20
-28.2108916081673
 30
0.0
 10
133.9906760979975
 20
-28.2108916081673
 30
0.0
  0
SPLINE
  5
47
330
1F
100
AcDbEntity
  8
OneCircle
 62
     7
420
 16777215
370
    35
100
AcDbSpline
210
0.0
220
0.0
230
1.0
 70
    27
 71
     3
 72
    11
 73
     7
 74
     0
 42
0.0000000001
 43
0.0000000001
 12
1.0
 22
0.0
 32
0.0
 13
1.0
 23
0.0
 33
0.0
 40
0.0
 40
0.0
 40
0.0
 40
0.0
 40
1.0
 40
1.0
 40
1.0
 40
2.0
 40
2.0
 40
2.0
 40
2.0
 10
190.2530732150074
 20
-38.87177678558123
 30
0.0
 10
190.2530732150074
 20
-38.87177678558123
 30
0.0
 10
195.8975191126374
 20
-29.09531674906065
 30
0.0
 10
195.8975191126374
 20
-29.09531674906065
 30
0.0
 10
195.8975191126374
 20
-29.09531674906065
 30
0.0
 10
190.2530732150074
 20
-38.87177678558123
 30
0.0
 10
190.2530732150074
 20
-38.87177678558123
 30
0.0
  0
SPLINE
  5
48
330
1F
100
AcDbEntity
  8
OneCircle
 62
     7
420
 16777215
370
    35
100
AcDbSpline
210
0.0
220
0.0
230
1.0
 70
     8
 71
     3
 72
    59
 73
    55
 74
     0
 42
0.0000000001
 43
0.0000000001
 12
1.0
 22
0.0
 32
0.0
 13
1.0
 23
0.0
 33
0.0
 40
0.0
 40
0.0
 40
0.0
 40
0.0
 40
1.0
 40
1.0
 40
1.0
 40
2.0
 40
2.0
 40
2.0
 40
3.0
 40
3.0
 40
3.0
 40
4.0
 40
4.0
 40
4.0
 40
5.0
 40
5.0
 40
5.0
 40
6.0
 40
6.0
 40
6.0
 40
7.0
 40
7.0
 40
7.0
 40
8.0
 40
8.0
 40
8.0
 40
9.0
 40
9.0
 40
9.0
 40
10.0
 40
10.0
 40
10.0
 40
11.0
 40
11.0
 40
11.0
 40
12.0
 40
12.0
 40
12.0
 40
13.0
 40
13.0
 40
13.0
 40
14.0
 40
14.0
 40
14.0
 40
15.0
 40
15.0
 40
15.0
 40
16.0
 40
16.0
 40
16.0
 40
17.0
 40
17.0
 40
17.0
 40
18.0
 40
18.0
 40
18.0
 40
18.0
 10
191.9475438660999
 20
-26.81480075394666
 30
0.0
 10
191.9475438660999
 20
-26.81480075394666
 30
0.0
 10
206.8055462807613
 20
-0.9999999997504144
 30
0.0
 10
206.8055462807613
 20
-0.9999999997504144
 30
0.0
 10
184.7141413961914
 20
-0.9999999997504144
 30
0.0
 10
166.805540594145
 20
-18.90861463643635
 30
0.0
 10
166.805540594145
 20
-40.99998507004165
 30
0.0
 10
166.805540594145
 20
-48.30283145973718
 30
0.0
 10
168.7721738587093
 20
-55.14238128918282
 30
0.0
 10
172.1903984800643
 20
-61.0352186353104
 30
0.0
 10
172.1903984800643
 20
-61.0352186353104
 30
0.0
 10
186.3030979684702
 20
-36.59126079046724
 30
0.0
 10
186.3030979684702
 20
-36.59126079046724
 30
0.0
 10
186.3030979684702
 20
-36.59126079046724
 30
0.0
 10
172.1903984800643
 20
-61.0352186353104
 30
0.0
 10
172.1903984800643
 20
-61.0352186353104
 30
0.0
 10
172.1990456719607
 20
-61.05010145164218
 30
0.0
 10
172.2074517071109
 20
-61.06512207182911
 30
0.0
 10
172.2161333499711
 20
-61.08000488816025
 30
0.0
 10
172.2161333499711
 20
-61.08000488816025
 30
0.0
 10
201.1611096062248
 20
-61.08000488816025
 30
0.0
 10
201.1611096062248
 20
-61.08000488816025
 30
0.0
 10
201.1611096062248
 20
-61.08000488816025
 30
0.0
 10
172.2161333499711
 20
-61.08000488816025
 30
0.0
 10
172.2161333499711
 20
-61.08000488816025
 30
0.0
 10
179.1444977639145
 20
-72.98853171707943
 30
0.0
 10
192.0354627255406
 20
-80.9999999797502
 30
0.0
 10
206.8055555038545
 20
-80.9999999797502
 30
0.0
 10
221.575613831204
 20
-80.9999999797502
 30
0.0
 10
234.4666132437931
 20
-72.98853171707943
 30
0.0
 10
241.3949776577369
 20
-61.08000488816025
 30
0.0
 10
241.3949776577369
 20
-61.08000488816025
 30
0.0
 10
212.4500014014838
 20
-61.08000488816025
 30
0.0
 10
212.4500014014838
 20
-61.08000488816025
 30
0.0
 10
212.4500014014838
 20
-61.08000488816025
 30
0.0
 10
241.3949776577369
 20
-61.08000488816025
 30
0.0
 10
241.3949776577369
 20
-61.08000488816025
 30
0.0
 10
241.4036593005964
 20
-61.06512207182911
 30
0.0
 10
241.4120653357469
 20
-61.05010145164218
 30
0.0
 10
241.4207125276434
 20
-61.0352186353104
 30
0.0
 10
241.4207125276434
 20
-61.0352186353104
 30
0.0
 10
226.6956816098894
 20
-35.53072232298273
 30
0.0
 10
226.6956816098894
 20
-35.53072232298273
 30
0.0
 10
226.6956816098894
 20
-35.53072232298273
 30
0.0
 10
241.4207125276434
 20
-61.0352186353104
 30
0.0
 10
241.4207125276434
 20
-61.0352186353104
 30
0.0
 10
244.8389371489988
 20
-55.14238128918282
 30
0.0
 10
246.8055704135624
 20
-48.30283145973718
 30
0.0
 10
246.8055704135624
 20
-40.99998507004165
 30
0.0
 10
246.8055704135624
 20
-18.90861463643635
 30
0.0
 10
228.8969167143663
 20
-0.9999999997504144
 30
0.0
 10
206.805546280761
 20
-0.9999999997504144
 30
0.0
 10
206.805546280761
 20
-0.9999999997504144
 30
0.0
 10
221.0512357122601
 20
-25.75426228646247
 30
0.0
 10
221.0512357122601
 20
-25.75426228646247
 30
0.0
  0
SPLINE
  5
49
330
1F
100
AcDbEntity
  8
OneCircle
 62
     7
420
 16777215
370
    35
100
AcDbSpline
210
0.0
220
0.0
230
1.0
 70
    27
 71
     3
 72
    11
 73
     7
 74
     0
 42
0.0000000001
 43
0.0000000001
 12
1.0
 22
0.0
 32
0.0
 13
1.0
 23
0.0
 33
0.0
 40
0.0
 40
0.0
 40
0.0
 40
0.0
 40
1.0
 40
1.0
 40
1.0
 40
2.0
 40
2.0
 40
2.0
 40
2.0
 10
216.7962316328513
 20
-28.21089160816762
 30
0.0
 10
216.7962316328513
 20
-28.21089160816762
 30
0.0
 10
222.4406775304806
 20
-37.9873516446882
 30
0.0
 10
222.4406775304806
 20
-37.9873516446882
 30
0.0
 10
222.4406775304806
 20
-37.9873516446882
 30
0.0
 10
216.7962316328513
 20
-28.21089160816762
 30
0.0
 10
216.7962316328513
 20
-28.21089160816762
 30
0.0
  0
SPLINE
  5
4A
330
1F
100
AcDbEntity
  8
OneCircle
 62
     7
420
 16777215
370
    35
100
AcDbSpline
210
0.0
220
0.0
230
1.0
 70
    27
 71
     3
 72
    11
 73
     7
 74
     0
 42
0.0000000001
 43
0.0000000001
 12
1.0
 22
0.0
 32
0.0
 13
1.0
 23
0.0
 33
0.0
 40
0.0
 40
0.0
 40
0.0
 40
0.0
 40
1.0
 40
1.0
 40
1.0
 40
2.0
 40
2.0
 40
2.0
 40
2.0
 10
273.2530731942575
 20
-38.87177678558091
 30
0.0
 10
273.2530731942575
 20
-38.87177678558091
 30
0.0
 10
278.8975190918871
 20
-29.09531674906033
 30
0.0
 10
278.8975190918871
 20
-29.09531674906033
 30
0.0
 10
278.8975190918871
 20
-29.09531674906033
 30
0.0
 10
273.2530731942575
 20
-38.87177678558091
 30
0.0
 10
273.2530731942575
 20
-38.87177678558091
 30
0.0
  0
SPLINE
  5
4B
330
1F
100
AcDbEntity
  8
OneCircle
 62
     7
420
 16777215
370
    35
100
AcDbSpline
210
0.0
220
0.0
230
1.0
 70
     8
 71
     3
 72
    59
 73
    55
 74
     0
 42
0.0000000001
 43
0.0000000001
 12
1.0
 22
0.0
 32
0.0
 13
1.0
 23
0.0
 33
0.0
 40
0.0
 40
0.0
 40
0.0
 40
0.0
 40
1.0
 40
1.0
 40
1.0
 40
2.0
 40
2.0
 40
2.0
 40
3.0
 40
3.0
 40
3.0
 40
4.0
 40
4.0
 40
4.0
 40
5.0
 40
5.0
 40
5.0
 40
6.0
 40
6.0
 40
6.0
 40
7.0
 40
7.0
 40
7.0
 40
8.0
 40
8.0
 40
8.0
 40
9.0
 40
9.0
 40
9.0
 40
10.0
 40
10.0
 40
10.0
 40
11.0
 40
11.0
 40
11.0
 40
12.0
 40
12.0
 40
12.0
 40
13.0
 40
13.0
 40
13.0
 40
14.0
 40
14.0
 40
14.0
 40
15.0
 40
15.0
 40
15.0
 40
16.0
 40
16.0
 40
16.0
 40
17.0
 40
17.0
 40
17.0
 40
18.0
 40
18.0
 40
18.0
 40
18.0
 10
274.94754384535
 20
-26.81480075394634
 30
0.0
 10
274.94754384535
 20
-26.81480075394634
 30
0.0
 10
289.8055462600114
 20
-0.9999999997500936
 30
0.0
 10
289.8055462600114
 20
-0.9999999997500936
 30
0.0
 10
267.7141413754411
 20
-0.9999999997500936
 30
0.0
 10
249.805540573395
 20
-18.90861463643603
 30
0.0
 10
249.805540573395
 20
-40.99998507004133
 30
0.0
 10
249.805540573395
 20
-48.30283145973686
 30
0.0
 10
251.7721738379593
 20
-55.1423812891825
 30
0.0
 10
255.1903984593146
 20
-61.03521863531008
 30
0.0
 10
255.1903984593146
 20
-61.03521863531008
 30
0.0
 10
269.3030979477203
 20
-36.59126079046692
 30
0.0
 10
269.3030979477203
 20
-36.59126079046692
 30
0.0
 10
269.3030979477203
 20
-36.59126079046692
 30
0.0
 10
255.1903984593146
 20
-61.03521863531008
 30
0.0
 10
255.1903984593146
 20
-61.03521863531008
 30
0.0
 10
255.1990456512111
 20
-61.05010145164186
 30
0.0
 10
255.207451686361
 20
-61.06512207182879
 30
0.0
 10
255.2161333292212
 20
-61.08000488815993
 30
0.0
 10
255.2161333292212
 20
-61.08000488815993
 30
0.0
 10
284.1611095854752
 20
-61.08000488815993
 30
0.0
 10
284.1611095854752
 20
-61.08000488815993
 30
0.0
 10
284.1611095854752
 20
-61.08000488815993
 30
0.0
 10
255.2161333292212
 20
-61.08000488815993
 30
0.0
 10
255.2161333292212
 20
-61.08000488815993
 30
0.0
 10
262.1444977431643
 20
-72.9885317170791
 30
0.0
 10
275.035462704791
 20
-80.99999997974987
 30
0.0
 10
289.8055554831042
 20
-80.99999997974987
 30
0.0
 10
304.5756138104543
 20
-80.99999997974987
 30
0.0
 10
317.4666132230429
 20
-72.9885317170791
 30
0.0
 10
324.3949776369867
 20
-61.08000488815993
 30
0.0
 10
324.3949776369867
 20
-61.08000488815993
 30
0.0
 10
295.4500013807339
 20
-61.08000488815993
 30
0.0
 10
295.4500013807339
 20
-61.08000488815993
 30
0.0
 10
295.4500013807339
 20
-61.08000488815993
 30
0.0
 10
324.3949776369867
 20
-61.08000488815993
 30
0.0
 10
324.3949776369867
 20
-61.08000488815993
 30
0.0
 10
324.4036592798468
 20
-61.06512207182879
 30
0.0
 10
324.4120653149973
 20
-61.05010145164186
 30
0.0
 10
324.4207125068938
 20
-61.03521863531008
 30
0.0
 10
324.4207125068938
 20
-61.03521863531008
 30
0.0
 10
309.6956815891395
 20
-35.5307223229824
 30
0.0
 10
309.6956815891395
 20
-35.5307223229824
 30
0.0
 10
309.6956815891395
 20
-35.5307223229824
 30
0.0
 10
324.4207125068938
 20
-61.03521863531008
 30
0.0
 10
324.4207125068938
 20
-61.03521863531008
 30
0.0
 10
327.8389371282485
 20
-55.1423812891825
 30
0.0
 10
329.8055703928134
 20
-48.30283145973686
 30
0.0
 10
329.8055703928134
 20
-40.99998507004133
 30
0.0
 10
329.8055703928134
 20
-18.90861463643603
 30
0.0
 10
311.896916693616
 20
-0.9999999997500936
 30
0.0
 10
289.8055462600114
 20
-0.9999999997500936
 30
0.0
 10
289.8055462600114
 20
-0.9999999997500936
 30
0.0
 10
304.0512356915098
 20
-25.75426228646214
 30
0.0
 10
304.0512356915098
 20
-25.75426228646214
 30
0.0
  0
SPLINE
  5
4C
330
1F
100
AcDbEntity
  8
OneCircle
 62
     7
420
 16777215
370
    35
100
AcDbSpline
210
0.0
220
0.0
230
1.0
 70
    27
 71
     3
 72
    11
 73
     7
 74
     0
 42
0.0000000001
 43
0.0000000001
 12
1.0
 22
0.0
 32
0.0
 13
1.0
 23
0.0
 33
0.0
 40
0.0
 40
0.0
 40
0.0
 40
0.0
 40
1.0
 40
1.0
 40
1.0
 40
2.0
 40
2.0
 40
2.0
 40
2.0
 10
299.7962316121017
 20
-28.2108916081673
 30
0.0
 10
299.7962316121017
 20
-28.2108916081673
 30
0.0
 10
305.4406775097307
 20
-37.98735164468788
 30
0.0
 10
305.4406775097307
 20
-37.98735164468788
 30
0.0
 10
305.4406775097307
 20
-37.98735164468788
 30
0.0
 10
299.7962316121017
 20
-28.2108916081673
 30
0.0
 10
299.7962316121017
 20
-28.2108916081673
 30
0.0
  0
SPLINE
  5
4D
330
1F
100
AcDbEntity
  8
OneCircle
 62
     7
420
 16777215
370
    35
100
AcDbSpline
210
0.0
220
0.0
230
1.0
 70
    27
 71
     3
 72
    11
 73
     7
 74
     0
 42
0.0000000001
 43
0.0000000001
 12
1.0
 22
0.0
 32
0.0
 13
1.0
 23
0.0
 33
0.0
 40
0.0
 40
0.0
 40
0.0
 40
0.0
 40
1.0
 40
1.0
 40
1.0
 40
2.0
 40
2.0
 40
2.0
 40
2.0
 10
356.4475176179038
 20
-38.87177678558091
 30
0.0
 10
356.4475176179038
 20
-38.87177678558091
 30
0.0
 10
362.0919635155316
 20
-29.09531674906033
 30
0.0
 10
362.0919635155316
 20
-29.09531674906033
 30
0.0
 10
362.0919635155316
 20
-29.09531674906033
 30
0.0
 10
356.4475176179038
 20
-38.87177678558091
 30
0.0
 10
356.4475176179038
 20
-38.87177678558091
 30
0.0
  0
SPLINE
  5
4E
330
1F
100
AcDbEntity
  8
OneCircle
 62
     7
420
 16777215
370
    35
100
AcDbSpline
210
0.0
220
0.0
230
1.0
 70
     8
 71
     3
 72
    59
 73
    55
 74
     0
 42
0.0000000001
 43
0.0000000001
 12
1.0
 22
0.0
 32
0.0
 13
1.0
 23
0.0
 33
0.0
 40
0.0
 40
0.0
 40
0.0
 40
0.0
 40
1.0
 40
1.0
 40
1.0
 40
2.0
 40
2.0
 40
2.0
 40
3.0
 40
3.0
 40
3.0
 40
4.0
 40
4.0
 40
4.0
 40
5.0
 40
5.0
 40
5.0
 40
6.0
 40
6.0
 40
6.0
 40
7.0
 40
7.0
 40
7.0
 40
8.0
 40
8.0
 40
8.0
 40
9.0
 40
9.0
 40
9.0
 40
10.0
 40
10.0
 40
10.0
 40
11.0
 40
11.0
 40
11.0
 40
12.0
 40
12.0
 40
12.0
 40
13.0
 40
13.0
 40
13.0
 40
14.0
 40
14.0
 40
14.0
 40
15.0
 40
15.0
 40
15.0
 40
16.0
 40
16.0
 40
16.0
 40
17.0
 40
17.0
 40
17.0
 40
18.0
 40
18.0
 40
18.0
 40
18.0
 10
358.1419882689956
 20
-26.81480075394634
 30
0.0
 10
358.1419882689956
 20
-26.81480075394634
 30
0.0
 10
372.9999906836578
 20
-0.9999999997500936
 30
0.0
 10
372.9999906836578
 20
-0.9999999997500936
 30
0.0
 10
350.9085857990868
 20
-0.9999999997500936
 30
0.0
 10
332.9999849970407
 20
-18.90861463643603
 30
0.0
 10
332.9999849970407
 20
-40.99998507004133
 30
0.0
 10
332.9999849970407
 20
-48.30283145973686
 30
0.0
 10
334.966618261605
 20
-55.1423812891825
 30
0.0
 10
338.3848428829603
 20
-61.03521863531008
 30
0.0
 10
338.3848428829603
 20
-61.03521863531008
 30
0.0
 10
352.497542371366
 20
-36.59126079046692
 30
0.0
 10
352.497542371366
 20
-36.59126079046692
 30
0.0
 10
352.497542371366
 20
-36.59126079046692
 30
0.0
 10
338.3848428829603
 20
-61.03521863531008
 30
0.0
 10
338.3848428829603
 20
-61.03521863531008
 30
0.0
 10
338.3934900748568
 20
-61.05010145164186
 30
0.0
 10
338.4018961100066
 20
-61.06512207182879
 30
0.0
 10
338.4105777528669
 20
-61.08000488815993
 30
0.0
 10
338.4105777528669
 20
-61.08000488815993
 30
0.0
 10
367.3555540091222
 20
-61.08000488815993
 30
0.0
 10
367.3555540091222
 20
-61.08000488815993
 30
0.0
 10
367.3555540091222
 20
-61.08000488815993
 30
0.0
 10
338.4105777528669
 20
-61.08000488815993
 30
0.0
 10
338.4105777528669
 20
-61.08000488815993
 30
0.0
 10
345.3389421668099
 20
-72.9885317170791
 30
0.0
 10
358.2299071284386
 20
-80.99999997974987
 30
0.0
 10
372.9999999067505
 20
-80.99999997974987
 30
0.0
 10
387.7700582341
 20
-80.99999997974987
 30
0.0
 10
400.6610576466899
 20
-72.9885317170791
 30
0.0
 10
407.5894220606311
 20
-61.08000488815993
 30
0.0
 10
407.5894220606311
 20
-61.08000488815993
 30
0.0
 10
378.6444458043783
 20
-61.08000488815993
 30
0.0
 10
378.6444458043783
 20
-61.08000488815993
 30
0.0
 10
378.6444458043783
 20
-61.08000488815993
 30
0.0
 10
407.5894220606311
 20
-61.08000488815993
 30
0.0
 10
407.5894220606311
 20
-61.08000488815993
 30
0.0
 10
407.5981037034938
 20
-61.06512207182879
 30
0.0
 10
407.6065097386437
 20
-61.05010145164186
 30
0.0
 10
407.6151569305382
 20
-61.03521863531008
 30
0.0
 10
407.6151569305382
 20
-61.03521863531008
 30
0.0
 10
392.8901260127865
 20
-35.5307223229824
 30
0.0
 10
392.8901260127865
 20
-35.5307223229824
 30
0.0
 10
392.8901260127865
 20
-35.5307223229824
 30
0.0
 10
407.6151569305382
 20
-61.03521863531008
 30
0.0
 10
407.6151569305382
 20
-61.03521863531008
 30
0.0
 10
411.0333815518923
 20
-55.1423812891825
 30
0.0
 10
413.0000148164585
 20
-48.30283145973686
 30
0.0
 10
413.0000148164585
 20
-40.99998507004133
 30
0.0
 10
413.0000148164585
 20
-18.90861463643603
 30
0.0
 10
395.0913611172611
 20
-0.9999999997500936
 30
0.0
 10
372.9999906836578
 20
-0.9999999997500936
 30
0.0
 10
372.9999906836578
 20
-0.9999999997500936
 30
0.0
 10
387.2456801151555
 20
-25.75426228646214
 30
0.0
 10
387.2456801151555
 20
-25.75426228646214
 30
0.0
  0
SPLINE
  5
4F
330
1F
100
AcDbEntity
  8
OneCircle
 62
     7
420
 16777215
370
    35
100
AcDbSpline
210
0.0
220
0.0
230
1.0
 70
    27
 71
     3
 72
    11
 73
     7
 74
     0
 42
0.0000000001
 43
0.0000000001
 12
1.0
 22
0.0
 32
0.0
 13
1.0
 23
0.0
 33
0.0
 40
0.0
 40
0.0
 40
0.0
 40
0.0
 40
1.0
 40
1.0
 40
1.0
 40
2.0
 40
2.0
 40
2.0
 40
2.0
 10
382.990676035746
 20
-28.2108916081673
 30
0.0
 10
382.990676035746
 20
-28.2108916081673
 30
0.0
 10
388.635121933377
 20
-37.98735164468788
 30
0.0
 10
388.635121933377
 20
-37.98735164468788
 30
0.0
 10
388.635121933377
 20
-37.98735164468788
 30
0.0
 10
382.990676035746
 20
-28.2108916081673
 30
0.0
 10
382.990676035746
 20
-28.2108916081673
 30
0.0
  0
SPLINE
  5
50
330
1F
100
AcDbEntity
  8
OneCircle
 62
     7
420
 16777215
370
    35
100
AcDbSpline
210
0.0
220
0.0
230
1.0
 70
    27
 71
     3
 72
    11
 73
     7
 74
     0
 42
0.0000000001
 43
0.0000000001
 12
1.0
 22
0.0
 32
0.0
 13
1.0
 23
0.0
 33
0.0
 40
0.0
 40
0.0
 40
0.0
 40
0.0
 40
1.0
 40
1.0
 40
1.0
 40
2.0
 40
2.0
 40
2.0
 40
2.0
 10
65.72251769058482
 20
-110.965382975239
 30
0.0
 10
65.72251769058482
 20
-110.965382975239
 30
0.0
 10
71.3669635882148
 20
-101.1889229387184
 30
0.0
 10
71.3669635882148
 20
-101.1889229387184
 30
0.0
 10
71.3669635882148
 20
-101.1889229387184
 30
0.0
 10
65.72251769058482
 20
-110.965382975239
 30
0.0
 10
65.72251769058482
 20
-110.965382975239
 30
0.0
  0
SPLINE
  5
51
330
1F
100
AcDbEntity
  8
OneCircle
 62
     7
420
 16777215
370
    35
100
AcDbSpline
210
0.0
220
0.0
230
1.0
 70
     8
 71
     3
 72
    59
 73
    55
 74
     0
 42
0.0000000001
 43
0.0000000001
 12
1.0
 22
0.0
 32
0.0
 13
1.0
 23
0.0
 33
0.0
 40
0.0
 40
0.0
 40
0.0
 40
0.0
 40
1.0
 40
1.0
 40
1.0
 40
2.0
 40
2.0
 40
2.0
 40
3.0
 40
3.0
 40
3.0
 40
4.0
 40
4.0
 40
4.0
 40
5.0
 40
5.0
 40
5.0
 40
6.0
 40
6.0
 40
6.0
 40
7.0
 40
7.0
 40
7.0
 40
8.0
 40
8.0
 40
8.0
 40
9.0
 40
9.0
 40
9.0
 40
10.0
 40
10.0
 40
10.0
 40
11.0
 40
11.0
 40
11.0
 40
12.0
 40
12.0
 40
12.0
 40
13.0
 40
13.0
 40
13.0
 40
14.0
 40
14.0
 40
14.0
 40
15.0
 40
15.0
 40
15.0
 40
16.0
 40
16.0
 40
16.0
 40
17.0
 40
17.0
 40
17.0
 40
18.0
 40
18.0
 40
18.0
 40
18.0
 10
67.4169883416773
 20
-98.90840694360445
 30
0.0
 10
67.4169883416773
 20
-98.90840694360445
 30
0.0
 10
82.27499075633875
 20
-73.0936061894082
 30
0.0
 10
82.27499075633875
 20
-73.0936061894082
 30
0.0
 10
60.1835858717691
 20
-73.0936061894082
 30
0.0
 10
42.27498506972237
 20
-91.00222082609446
 30
0.0
 10
42.27498506972237
 20
-113.0935912596994
 30
0.0
 10
42.27498506972237
 20
-120.3964376493947
 30
0.0
 10
44.24161833428665
 20
-127.2359874788406
 30
0.0
 10
47.65984295564165
 20
-133.1288248249685
 30
0.0
 10
47.65984295564165
 20
-133.1288248249685
 30
0.0
 10
61.77254244404764
 20
-108.684866980125
 30
0.0
 10
61.77254244404764
 20
-108.684866980125
 30
0.0
 10
61.77254244404764
 20
-108.684866980125
 30
0.0
 10
47.65984295564165
 20
-133.1288248249685
 30
0.0
 10
47.65984295564165
 20
-133.1288248249685
 30
0.0
 10
47.66849014753812
 20
-133.1437076413
 30
0.0
 10
47.67689618268831
 20
-133.1587282614869
 30
0.0
 10
47.68557782554849
 20
-133.173611077818
 30
0.0
 10
47.68557782554849
 20
-133.173611077818
 30
0.0
 10
76.6305540818019
 20
-133.173611077818
 30
0.0
 10
76.6305540818019
 20
-133.173611077818
 30
0.0
 10
76.6305540818019
 20
-133.173611077818
 30
0.0
 10
47.68557782554849
 20
-133.173611077818
 30
0.0
 10
47.68557782554849
 20
-133.173611077818
 30
0.0
 10
54.61394223949193
 20
-145.0821379067375
 30
0.0
 10
67.50490720111804
 20
-153.093606169408
 30
0.0
 10
82.27499997943188
 20
-153.093606169408
 30
0.0
 10
97.04505830678136
 20
-153.093606169408
 30
0.0
 10
109.9360577193705
 20
-145.0821379067375
 30
0.0
 10
116.864422133314
 20
-133.173611077818
 30
0.0
 10
116.864422133314
 20
-133.173611077818
 30
0.0
 10
87.91944587706122
 20
-133.173611077818
 30
0.0
 10
87.91944587706122
 20
-133.173611077818
 30
0.0
 10
87.91944587706122
 20
-133.173611077818
 30
0.0
 10
116.864422133314
 20
-133.173611077818
 30
0.0
 10
116.864422133314
 20
-133.173611077818
 30
0.0
 10
116.8731037761742
 20
-133.1587282614869
 30
0.0
 10
116.8815098113243
 20
-133.1437076413
 30
0.0
 10
116.8901570032208
 20
-133.1288248249685
 30
0.0
 10
116.8901570032208
 20
-133.1288248249685
 30
0.0
 10
102.1651260854668
 20
-107.6243285126405
 30
0.0
 10
102.1651260854668
 20
-107.6243285126405
 30
0.0
 10
102.1651260854668
 20
-107.6243285126405
 30
0.0
 10
116.8901570032208
 20
-133.1288248249685
 30
0.0
 10
116.8901570032208
 20
-133.1288248249685
 30
0.0
 10
120.3083816245758
 20
-127.2359874788406
 30
0.0
 10
122.2750148891404
 20
-120.3964376493947
 30
0.0
 10
122.2750148891404
 20
-113.0935912596994
 30
0.0
 10
122.2750148891404
 20
-91.00222082609446
 30
0.0
 10
104.3663611899437
 20
-73.0936061894082
 30
0.0
 10
82.27499075633843
 20
-73.0936061894082
 30
0.0
 10
82.27499075633843
 20
-73.0936061894082
 30
0.0
 10
96.52068018783717
 20
-97.84786847612025
 30
0.0
 10
96.52068018783717
 20
-97.84786847612025
 30
0.0
  0
SPLINE
  5
52
330
1F
100
AcDbEntity
  8
OneCircle
 62
     7
420
 16777215
370
    35
100
AcDbSpline
210
0.0
220
0.0
230
1.0
 70
    27
 71
     3
 72
    11
 73
     7
 74
     0
 42
0.0000000001
 43
0.0000000001
 12
1.0
 22
0.0
 32
0.0
 13
1.0
 23
0.0
 33
0.0
 40
0.0
 40
0.0
 40
0.0
 40
0.0
 40
1.0
 40
1.0
 40
1.0
 40
2.0
 40
2.0
 40
2.0
 40
2.0
 10
92.26567610842866
 20
-100.3044977978254
 30
0.0
 10
92.26567610842866
 20
-100.3044977978254
 30
0.0
 10
97.910122006058
 20
-110.080957834346
 30
0.0
 10
97.910122006058
 20
-110.080957834346
 30
0.0
 10
97.910122006058
 20
-110.080957834346
 30
0.0
 10
92.26567610842866
 20
-100.3044977978254
 30
0.0
 10
92.26567610842866
 20
-100.3044977978254
 30
0.0
  0
SPLINE
  5
53
330
1F
100
AcDbEntity
  8
OneCircle
 62
     7
420
 16777215
370
    35
100
AcDbSpline
210
0.0
220
0.0
230
1.0
 70
    27
 71
     3
 72
    11
 73
     7
 74
     0
 42
0.0000000001
 43
0.0000000001
 12
1.0
 22
0.0
 32
0.0
 13
1.0
 23
0.0
 33
0.0
 40
0.0
 40
0.0
 40
0.0
 40
0.0
 40
1.0
 40
1.0
 40
1.0
 40
2.0
 40
2.0
 40
2.0
 40
2.0
 10
148.7225176698349
 20
-110.9653829752387
 30
0.0
 10
148.7225176698349
 20
-110.9653829752387
 30
0.0
 10
154.3669635674649
 20
-101.1889229387181
 30
0.0
 10
154.3669635674649
 20
-101.1889229387181
 30
0.0
 10
154.3669635674649
 20
-101.1889229387181
 30
0.0
 10
148.7225176698349
 20
-110.9653829752387
 30
0.0
 10
148.7225176698349
 20
-110.9653829752387
 30
0.0
  0
SPLINE
  5
54
330
1F
100
AcDbEntity
  8
OneCircle
 62
     7
420
 16777215
370
    35
100
AcDbSpline
210
0.0
220
0.0
230
1.0
 70
     8
 71
     3
 72
    59
 73
    55
 74
     0
 42
0.0000000001
 43
0.0000000001
 12
1.0
 22
0.0
 32
0.0
 13
1.0
 23
0.0
 33
0.0
 40
0.0
 40
0.0
 40
0.0
 40
0.0
 40
1.0
 40
1.0
 40
1.0
 40
2.0
 40
2.0
 40
2.0
 40
3.0
 40
3.0
 40
3.0
 40
4.0
 40
4.0
 40
4.0
 40
5.0
 40
5.0
 40
5.0
 40
6.0
 40
6.0
 40
6.0
 40
7.0
 40
7.0
 40
7.0
 40
8.0
 40
8.0
 40
8.0
 40
9.0
 40
9.0
 40
9.0
 40
10.0
 40
10.0
 40
10.0
 40
11.0
 40
11.0
 40
11.0
 40
12.0
 40
12.0
 40
12.0
 40
13.0
 40
13.0
 40
13.0
 40
14.0
 40
14.0
 40
14.0
 40
15.0
 40
15.0
 40
15.0
 40
16.0
 40
16.0
 40
16.0
 40
17.0
 40
17.0
 40
17.0
 40
18.0
 40
18.0
 40
18.0
 40
18.0
 10
150.4169883209274
 20
-98.90840694360412
 30
0.0
 10
150.4169883209274
 20
-98.90840694360412
 30
0.0
 10
165.2749907355888
 20
-73.09360618940788
 30
0.0
 10
165.2749907355888
 20
-73.09360618940788
 30
0.0
 10
143.1835858510188
 20
-73.09360618940788
 30
0.0
 10
125.2749850489721
 20
-91.00222082609382
 30
0.0
 10
125.2749850489721
 20
-113.0935912596991
 30
0.0
 10
125.2749850489721
 20
-120.3964376493947
 30
0.0
 10
127.241618313537
 20
-127.2359874788403
 30
0.0
 10
130.6598429348917
 20
-133.1288248249679
 30
0.0
 10
130.6598429348917
 20
-133.1288248249679
 30
0.0
 10
144.7725424232977
 20
-108.6848669801247
 30
0.0
 10
144.7725424232977
 20
-108.6848669801247
 30
0.0
 10
144.7725424232977
 20
-108.6848669801247
 30
0.0
 10
130.6598429348917
 20
-133.1288248249679
 30
0.0
 10
130.6598429348917
 20
-133.1288248249679
 30
0.0
 10
130.6684901267882
 20
-133.1437076412996
 30
0.0
 10
130.6768961619384
 20
-133.1587282614869
 30
0.0
 10
130.6855778047986
 20
-133.1736110778177
 30
0.0
 10
130.6855778047986
 20
-133.1736110778177
 30
0.0
 10
159.6305540610523
 20
-133.1736110778177
 30
0.0
 10
159.6305540610523
 20
-133.1736110778177
 30
0.0
 10
159.6305540610523
 20
-133.1736110778177
 30
0.0
 10
130.6855778047986
 20
-133.1736110778177
 30
0.0
 10
130.6855778047986
 20
-133.1736110778177
 30
0.0
 10
137.613942218742
 20
-145.0821379067369
 30
0.0
 10
150.5049071803681
 20
-153.0936061694076
 30
0.0
 10
165.2749999586819
 20
-153.0936061694076
 30
0.0
 10
180.0450582860314
 20
-153.0936061694076
 30
0.0
 10
192.9360576986206
 20
-145.0821379067369
 30
0.0
 10
199.8644221125641
 20
-133.1736110778177
 30
0.0
 10
199.8644221125641
 20
-133.1736110778177
 30
0.0
 10
170.9194458563113
 20
-133.1736110778177
 30
0.0
 10
170.9194458563113
 20
-133.1736110778177
 30
0.0
 10
170.9194458563113
 20
-133.1736110778177
 30
0.0
 10
199.8644221125641
 20
-133.1736110778177
 30
0.0
 10
199.8644221125641
 20
-133.1736110778177
 30
0.0
 10
199.8731037554242
 20
-133.1587282614869
 30
0.0
 10
199.8815097905744
 20
-133.1437076412996
 30
0.0
 10
199.8901569824709
 20
-133.1288248249679
 30
0.0
 10
199.8901569824709
 20
-133.1288248249679
 30
0.0
 10
185.1651260647169
 20
-107.6243285126402
 30
0.0
 10
185.1651260647169
 20
-107.6243285126402
 30
0.0
 10
185.1651260647169
 20
-107.6243285126402
 30
0.0
 10
199.8901569824709
 20
-133.1288248249679
 30
0.0
 10
199.8901569824709
 20
-133.1288248249679
 30
0.0
 10
203.3083816038259
 20
-127.2359874788403
 30
0.0
 10
205.2750148683902
 20
-120.3964376493947
 30
0.0
 10
205.2750148683902
 20
-113.0935912596991
 30
0.0
 10
205.2750148683902
 20
-91.00222082609382
 30
0.0
 10
187.3663611691938
 20
-73.09360618940788
 30
0.0
 10
165.2749907355885
 20
-73.09360618940788
 30
0.0
 10
165.2749907355885
 20
-73.09360618940788
 30
0.0
 10
179.5206801670872
 20
-97.84786847611993
 30
0.0
 10
179.5206801670872
 20
-97.84786847611993
 30
0.0
  0
SPLINE
  5
55
330
1F
100
AcDbEntity
  8
OneCircle
 62
     7
420
 16777215
370
    35
100
AcDbSpline
210
0.0
220
0.0
230
1.0
 70
    27
 71
     3
 72
    11
 73
     7
 74
     0
 42
0.0000000001
 43
0.0000000001
 12
1.0
 22
0.0
 32
0.0
 13
1.0
 23
0.0
 33
0.0
 40
0.0
 40
0.0
 40
0.0
 40
0.0
 40
1.0
 40
1.0
 40
1.0
 40
2.0
 40
2.0
 40
2.0
 40
2.0
 10
175.2656760876787
 20
-100.3044977978251
 30
0.0
 10
175.2656760876787
 20
-100.3044977978251
 30
0.0
 10
180.9101219853081
 20
-110.080957834346
 30
0.0
 10
180.9101219853081
 20
-110.080957834346
 30
0.0
 10
180.9101219853081
 20
-110.080957834346
 30
0.0
 10
175.2656760876787
 20
-100.3044977978251
 30
0.0
 10
175.2656760876787
 20
-100.3044977978251
 30
0.0
  0
SPLINE
  5
56
330
1F
100
AcDbEntity
  8
OneCircle
 62
     7
420
 16777215
370
    35
100
AcDbSpline
210
0.0
220
0.0
230
1.0
 70
    27
 71
     3
 72
    11
 73
     7
 74
     0
 42
0.0000000001
 43
0.0000000001
 12
1.0
 22
0.0
 32
0.0
 13
1.0
 23
0.0
 33
0.0
 40
0.0
 40
0.0
 40
0.0
 40
0.0
 40
1.0
 40
1.0
 40
1.0
 40
2.0
 40
2.0
 40
2.0
 40
2.0
 10
231.5280732046884
 20
-110.965382975239
 30
0.0
 10
231.5280732046884
 20
-110.965382975239
 30
0.0
 10
237.1725191023187
 20
-101.1889229387184
 30
0.0
 10
237.1725191023187
 20
-101.1889229387184
 30
0.0
 10
237.1725191023187
 20
-101.1889229387184
 30
0.0
 10
231.5280732046884
 20
-110.965382975239
 30
0.0
 10
231.5280732046884
 20
-110.965382975239
 30
0.0
  0
SPLINE
  5
57
330
1F
100
AcDbEntity
  8
OneCircle
 62
     7
420
 16777215
370
    35
100
AcDbSpline
210
0.0
220
0.0
230
1.0
 70
     8
 71
     3
 72
    59
 73
    55
 74
     0
 42
0.0000000001
 43
0.0000000001
 12
1.0
 22
0.0
 32
0.0
 13
1.0
 23
0.0
 33
0.0
 40
0.0
 40
0.0
 40
0.0
 40
0.0
 40
1.0
 40
1.0
 40
1.0
 40
2.0
 40
2.0
 40
2.0
 40
3.0
 40
3.0
 40
3.0
 40
4.0
 40
4.0
 40
4.0
 40
5.0
 40
5.0
 40
5.0
 40
6.0
 40
6.0
 40
6.0
 40
7.0
 40
7.0
 40
7.0
 40
8.0
 40
8.0
 40
8.0
 40
9.0
 40
9.0
 40
9.0
 40
10.0
 40
10.0
 40
10.0
 40
11.0
 40
11.0
 40
11.0
 40
12.0
 40
12.0
 40
12.0
 40
13.0
 40
13.0
 40
13.0
 40
14.0
 40
14.0
 40
14.0
 40
15.0
 40
15.0
 40
15.0
 40
16.0
 40
16.0
 40
16.0
 40
17.0
 40
17.0
 40
17.0
 40
18.0
 40
18.0
 40
18.0
 40
18.0
 10
233.2225438557808
 20
-98.90840694360445
 30
0.0
 10
233.2225438557808
 20
-98.90840694360445
 30
0.0
 10
248.0805462704429
 20
-73.0936061894082
 30
0.0
 10
248.0805462704429
 20
-73.0936061894082
 30
0.0
 10
225.9891413858726
 20
-73.0936061894082
 30
0.0
 10
208.0805405838262
 20
-91.00222082609446
 30
0.0
 10
208.0805405838262
 20
-113.0935912596994
 30
0.0
 10
208.0805405838262
 20
-120.3964376493947
 30
0.0
 10
210.0471738483905
 20
-127.2359874788406
 30
0.0
 10
213.4653984697455
 20
-133.1288248249685
 30
0.0
 10
213.4653984697455
 20
-133.1288248249685
 30
0.0
 10
227.5780979581515
 20
-108.684866980125
 30
0.0
 10
227.5780979581515
 20
-108.684866980125
 30
0.0
 10
227.5780979581515
 20
-108.684866980125
 30
0.0
 10
213.4653984697455
 20
-133.1288248249685
 30
0.0
 10
213.4653984697455
 20
-133.1288248249685
 30
0.0
 10
213.474045661642
 20
-133.1437076413
 30
0.0
 10
213.4824516967922
 20
-133.1587282614869
 30
0.0
 10
213.4911333396524
 20
-133.173611077818
 30
0.0
 10
213.4911333396524
 20
-133.173611077818
 30
0.0
 10
242.4361095959061
 20
-133.173611077818
 30
0.0
 10
242.4361095959061
 20
-133.173611077818
 30
0.0
 10
242.4361095959061
 20
-133.173611077818
 30
0.0
 10
213.4911333396524
 20
-133.173611077818
 30
0.0
 10
213.4911333396524
 20
-133.173611077818
 30
0.0
 10
220.4194977535958
 20
-145.0821379067375
 30
0.0
 10
233.3104627152219
 20
-153.093606169408
 30
0.0
 10
248.0805554935357
 20
-153.093606169408
 30
0.0
 10
262.8506138208852
 20
-153.093606169408
 30
0.0
 10
275.7416132334744
 20
-145.0821379067375
 30
0.0
 10
282.6699776474181
 20
-133.173611077818
 30
0.0
 10
282.6699776474181
 20
-133.173611077818
 30
0.0
 10
253.7250013911647
 20
-133.173611077818
 30
0.0
 10
253.7250013911647
 20
-133.173611077818
 30
0.0
 10
253.7250013911647
 20
-133.173611077818
 30
0.0
 10
282.6699776474181
 20
-133.173611077818
 30
0.0
 10
282.6699776474181
 20
-133.173611077818
 30
0.0
 10
282.6786592902777
 20
-133.1587282614869
 30
0.0
 10
282.6870653254282
 20
-133.1437076413
 30
0.0
 10
282.6957125173247
 20
-133.1288248249685
 30
0.0
 10
282.6957125173247
 20
-133.1288248249685
 30
0.0
 10
267.9706815995704
 20
-107.6243285126405
 30
0.0
 10
267.9706815995704
 20
-107.6243285126405
 30
0.0
 10
267.9706815995704
 20
-107.6243285126405
 30
0.0
 10
282.6957125173247
 20
-133.1288248249685
 30
0.0
 10
282.6957125173247
 20
-133.1288248249685
 30
0.0
 10
286.11393713868
 20
-127.2359874788406
 30
0.0
 10
288.0805704032437
 20
-120.3964376493947
 30
0.0
 10
288.0805704032437
 20
-113.0935912596994
 30
0.0
 10
288.0805704032437
 20
-91.00222082609446
 30
0.0
 10
270.1719167040476
 20
-73.0936061894082
 30
0.0
 10
248.0805462704423
 20
-73.0936061894082
 30
0.0
 10
248.0805462704423
 20
-73.0936061894082
 30
0.0
 10
262.3262357019414
 20
-97.84786847612025
 30
0.0
 10
262.3262357019414
 20
-97.84786847612025
 30
0.0
  0
SPLINE
  5
58
330
1F
100
AcDbEntity
  8
OneCircle
 62
     7
420
 16777215
370
    35
100
AcDbSpline
210
0.0
220
0.0
230
1.0
 70
    27
 71
     3
 72
    11
 73
     7
 74
     0
 42
0.0000000001
 43
0.0000000001
 12
1.0
 22
0.0
 32
0.0
 13
1.0
 23
0.0
 33
0.0
 40
0.0
 40
0.0
 40
0.0
 40
0.0
 40
1.0
 40
1.0
 40
1.0
 40
2.0
 40
2.0
 40
2.0
 40
2.0
 10
258.0712316225325
 20
-100.3044977978254
 30
0.0
 10
258.0712316225325
 20
-100.3044977978254
 30
0.0
 10
263.7156775201622
 20
-110.080957834346
 30
0.0
 10
263.7156775201622
 20
-110.080957834346
 30
0.0
 10
263.7156775201622
 20
-110.080957834346
 30
0.0
 10
258.0712316225325
 20
-100.3044977978254
 30
0.0
 10
258.0712316225325
 20
-100.3044977978254
 30
0.0
  0
SPLINE
  5
59
330
1F
100
AcDbEntity
  8
OneCircle
 62
     7
420
 16777215
370
    35
100
AcDbSpline
210
0.0
220
0.0
230
1.0
 70
    27
 71
     3
 72
    11
 73
     7
 74
     0
 42
0.0000000001
 43
0.0000000001
 12
1.0
 22
0.0
 32
0.0
 13
1.0
 23
0.0
 33
0.0
 40
0.0
 40
0.0
 40
0.0
 40
0.0
 40
1.0
 40
1.0
 40
1.0
 40
2.0
 40
2.0
 40
2.0
 40
2.0
 10
314.5280731839387
 20
-110.9653829752387
 30
0.0
 10
314.5280731839387
 20
-110.9653829752387
 30
0.0
 10
320.1725190815684
 20
-101.1889229387181
 30
0.0
 10
320.1725190815684
 20
-101.1889229387181
 30
0.0
 10
320.1725190815684
 20
-101.1889229387181
 30
0.0
 10
314.5280731839387
 20
-110.9653829752387
 30
0.0
 10
314.5280731839387
 20
-110.9653829752387
 30
0.0
  0
SPLINE
  5
5A
330
1F
100
AcDbEntity
  8
OneCircle
 62
     7
420
 16777215
370
    35
100
AcDbSpline
210
0.0
220
0.0
230
1.0
 70
     8
 71
     3
 72
    59
 73
    55
 74
     0
 42
0.0000000001
 43
0.0000000001
 12
1.0
 22
0.0
 32
0.0
 13
1.0
 23
0.0
 33
0.0
 40
0.0
 40
0.0
 40
0.0
 40
0.0
 40
1.0
 40
1.0
 40
1.0
 40
2.0
 40
2.0
 40
2.0
 40
3.0
 40
3.0
 40
3.0
 40
4.0
 40
4.0
 40
4.0
 40
5.0
 40
5.0
 40
5.0
 40
6.0
 40
6.0
 40
6.0
 40
7.0
 40
7.0
 40
7.0
 40
8.0
 40
8.0
 40
8.0
 40
9.0
 40
9.0
 40
9.0
 40
10.0
 40
10.0
 40
10.0
 40
11.0
 40
11.0
 40
11.0
 40
12.0
 40
12.0
 40
12.0
 40
13.0
 40
13.0
 40
13.0
 40
14.0
 40
14.0
 40
14.0
 40
15.0
 40
15.0
 40
15.0
 40
16.0
 40
16.0
 40
16.0
 40
17.0
 40
17.0
 40
17.0
 40
18.0
 40
18.0
 40
18.0
 40
18.0
 10
316.2225438350312
 20
-98.90840694360412
 30
0.0
 10
316.2225438350312
 20
-98.90840694360412
 30
0.0
 10
331.0805462496926
 20
-73.09360618940788
 30
0.0
 10
331.0805462496926
 20
-73.09360618940788
 30
0.0
 10
308.9891413651224
 20
-73.09360618940788
 30
0.0
 10
291.0805405630763
 20
-91.00222082609382
 30
0.0
 10
291.0805405630763
 20
-113.0935912596991
 30
0.0
 10
291.0805405630763
 20
-120.3964376493947
 30
0.0
 10
293.0471738276406
 20
-127.2359874788403
 30
0.0
 10
296.4653984489959
 20
-133.1288248249679
 30
0.0
 10
296.4653984489959
 20
-133.1288248249679
 30
0.0
 10
310.5780979374015
 20
-108.6848669801247
 30
0.0
 10
310.5780979374015
 20
-108.6848669801247
 30
0.0
 10
310.5780979374015
 20
-108.6848669801247
 30
0.0
 10
296.4653984489959
 20
-133.1288248249679
 30
0.0
 10
296.4653984489959
 20
-133.1288248249679
 30
0.0
 10
296.4740456408924
 20
-133.1437076412996
 30
0.0
 10
296.4824516760422
 20
-133.1587282614869
 30
0.0
 10
296.4911333189024
 20
-133.1736110778177
 30
0.0
 10
296.4911333189024
 20
-133.1736110778177
 30
0.0
 10
325.4361095751565
 20
-133.1736110778177
 30
0.0
 10
325.4361095751565
 20
-133.1736110778177
 30
0.0
 10
325.4361095751565
 20
-133.1736110778177
 30
0.0
 10
296.4911333189024
 20
-133.1736110778177
 30
0.0
 10
296.4911333189024
 20
-133.1736110778177
 30
0.0
 10
303.4194977328455
 20
-145.0821379067369
 30
0.0
 10
316.3104626944723
 20
-153.0936061694076
 30
0.0
 10
331.0805554727855
 20
-153.0936061694076
 30
0.0
 10
345.8506138001356
 20
-153.0936061694076
 30
0.0
 10
358.7416132127229
 20
-145.0821379067369
 30
0.0
 10
365.6699776266679
 20
-133.1736110778177
 30
0.0
 10
365.6699776266679
 20
-133.1736110778177
 30
0.0
 10
336.7250013704152
 20
-133.1736110778177
 30
0.0
 10
336.7250013704152
 20
-133.1736110778177
 30
0.0
 10
336.7250013704152
 20
-133.1736110778177
 30
0.0
 10
365.6699776266679
 20
-133.1736110778177
 30
0.0
 10
365.6699776266679
 20
-133.1736110778177
 30
0.0
 10
365.6786592695268
 20
-133.1587282614869
 30
0.0
 10
365.6870653046773
 20
-133.1437076412996
 30
0.0
 10
365.6957124965744
 20
-133.1288248249679
 30
0.0
 10
365.6957124965744
 20
-133.1288248249679
 30
0.0
 10
350.9706815788207
 20
-107.6243285126402
 30
0.0
 10
350.9706815788207
 20
-107.6243285126402
 30
0.0
 10
350.9706815788207
 20
-107.6243285126402
 30
0.0
 10
365.6957124965744
 20
-133.1288248249679
 30
0.0
 10
365.6957124965744
 20
-133.1288248249679
 30
0.0
 10
369.1139371179291
 20
-127.2359874788403
 30
0.0
 10
371.0805703824953
 20
-120.3964376493947
 30
0.0
 10
371.0805703824953
 20
-113.0935912596991
 30
0.0
 10
371.0805703824953
 20
-91.00222082609382
 30
0.0
 10
353.1719166832974
 20
-73.09360618940788
 30
0.0
 10
331.0805462496926
 20
-73.09360618940788
 30
0.0
 10
331.0805462496926
 20
-73.09360618940788
 30
0.0
 10
345.3262356811911
 20
-97.84786847611993
 30
0.0
 10
345.3262356811911
 20
-97.84786847611993
 30
0.0
  0
SPLINE
  5
5B
330
1F
100
AcDbEntity
  8
OneCircle
 62
     7
420
 16777215
370
    35
100
AcDbSpline
210
0.0
220
0.0
230
1.0
 70
    27
 71
     3
 72
    11
 73
     7
 74
     0
 42
0.0000000001
 43
0.0000000001
 12
1.0
 22
0.0
 32
0.0
 13
1.0
 23
0.0
 33
0.0
 40
0.0
 40
0.0
 40
0.0
 40
0.0
 40
1.0
 40
1.0
 40
1.0
 40
2.0
 40
2.0
 40
2.0
 40
2.0
 10
341.0712316017829
 20
-100.3044977978251
 30
0.0
 10
341.0712316017829
 20
-100.3044977978251
 30
0.0
 10
346.7156774994119
 20
-110.080957834346
 30
0.0
 10
346.7156774994119
 20
-110.080957834346
 30
0.0
 10
346.7156774994119
 20
-110.080957834346
 30
0.0
 10
341.0712316017829
 20
-100.3044977978251
 30
0.0
 10
341.0712316017829
 20
-100.3044977978251
 30
0.0
  0
SPLINE
  5
5C
330
1F
100
AcDbEntity
  8
OneCircle
 62
     7
420
 16777215
370
    35
100
AcDbSpline
210
0.0
220
0.0
230
1.0
 70
    27
 71
     3
 72
    11
 73
     7
 74
     0
 42
0.0000000001
 43
0.0000000001
 12
1.0
 22
0.0
 32
0.0
 13
1.0
 23
0.0
 33
0.0
 40
0.0
 40
0.0
 40
0.0
 40
0.0
 40
1.0
 40
1.0
 40
1.0
 40
2.0
 40
2.0
 40
2.0
 40
2.0
 10
397.7225176075851
 20
-110.9653829752387
 30
0.0
 10
397.7225176075851
 20
-110.9653829752387
 30
0.0
 10
403.3669635052128
 20
-101.1889229387181
 30
0.0
 10
403.3669635052128
 20
-101.1889229387181
 30
0.0
 10
403.3669635052128
 20
-101.1889229387181
 30
0.0
 10
397.7225176075851
 20
-110.9653829752387
 30
0.0
 10
397.7225176075851
 20
-110.9653829752387
 30
0.0
  0
SPLINE
  5
5D
330
1F
100
AcDbEntity
  8
OneCircle
 62
     7
420
 16777215
370
    35
100
AcDbSpline
210
0.0
220
0.0
230
1.0
 70
     8
 71
     3
 72
    59
 73
    55
 74
     0
 42
0.0000000001
 43
0.0000000001
 12
1.0
 22
0.0
 32
0.0
 13
1.0
 23
0.0
 33
0.0
 40
0.0
 40
0.0
 40
0.0
 40
0.0
 40
1.0
 40
1.0
 40
1.0
 40
2.0
 40
2.0
 40
2.0
 40
3.0
 40
3.0
 40
3.0
 40
4.0
 40
4.0
 40
4.0
 40
5.0
 40
5.0
 40
5.0
 40
6.0
 40
6.0
 40
6.0
 40
7.0
 40
7.0
 40
7.0
 40
8.0
 40
8.0
 40
8.0
 40
9.0
 40
9.0
 40
9.0
 40
10.0
 40
10.0
 40
10.0
 40
11.0
 40
11.0
 40
11.0
 40
12.0
 40
12.0
 40
12.0
 40
13.0
 40
13.0
 40
13.0
 40
14.0
 40
14.0
 40
14.0
 40
15.0
 40
15.0
 40
15.0
 40
16.0
 40
16.0
 40
16.0
 40
17.0
 40
17.0
 40
17.0
 40
18.0
 40
18.0
 40
18.0
 40
18.0
 10
399.4169882586769
 20
-98.90840694360412
 30
0.0
 10
399.4169882586769
 20
-98.90840694360412
 30
0.0
 10
414.274990673339
 20
-73.09360618940788
 30
0.0
 10
414.274990673339
 20
-73.09360618940788
 30
0.0
 10
392.1835857887662
 20
-73.09360618940788
 30
0.0
 10
374.2749849867233
 20
-91.00222082609382
 30
0.0
 10
374.2749849867233
 20
-113.0935912596991
 30
0.0
 10
374.2749849867233
 20
-120.3964376493947
 30
0.0
 10
376.2416182512856
 20
-127.2359874788403
 30
0.0
 10
379.6598428726403
 20
-133.1288248249679
 30
0.0
 10
379.6598428726403
 20
-133.1288248249679
 30
0.0
 10
393.772542361046
 20
-108.6848669801247
 30
0.0
 10
393.772542361046
 20
-108.6848669801247
 30
0.0
 10
393.772542361046
 20
-108.6848669801247
 30
0.0
 10
379.6598428726403
 20
-133.1288248249679
 30
0.0
 10
379.6598428726403
 20
-133.1288248249679
 30
0.0
 10
379.668490064538
 20
-133.1437076412996
 30
0.0
 10
379.6768960996879
 20
-133.1587282614869
 30
0.0
 10
379.6855777425475
 20
-133.1736110778177
 30
0.0
 10
379.6855777425475
 20
-133.1736110778177
 30
0.0
 10
408.6305539988034
 20
-133.1736110778177
 30
0.0
 10
408.6305539988034
 20
-133.1736110778177
 30
0.0
 10
408.6305539988034
 20
-133.1736110778177
 30
0.0
 10
379.6855777425475
 20
-133.1736110778177
 30
0.0
 10
379.6855777425475
 20
-133.1736110778177
 30
0.0
 10
386.6139421564919
 20
-145.0821379067369
 30
0.0
 10
399.5049071181199
 20
-153.0936061694076
 30
0.0
 10
414.2749998964318
 20
-153.0936061694076
 30
0.0
 10
429.0450582237813
 20
-153.0936061694076
 30
0.0
 10
441.9360576363711
 20
-145.0821379067369
 30
0.0
 10
448.8644220503123
 20
-133.1736110778177
 30
0.0
 10
448.8644220503123
 20
-133.1736110778177
 30
0.0
 10
419.9194457940595
 20
-133.1736110778177
 30
0.0
 10
419.9194457940595
 20
-133.1736110778177
 30
0.0
 10
419.9194457940595
 20
-133.1736110778177
 30
0.0
 10
448.8644220503123
 20
-133.1736110778177
 30
0.0
 10
448.8644220503123
 20
-133.1736110778177
 30
0.0
 10
448.873103693175
 20
-133.1587282614869
 30
0.0
 10
448.8815097283249
 20
-133.1437076412996
 30
0.0
 10
448.8901569202195
 20
-133.1288248249679
 30
0.0
 10
448.8901569202195
 20
-133.1288248249679
 30
0.0
 10
434.1651260024677
 20
-107.6243285126402
 30
0.0
 10
434.1651260024677
 20
-107.6243285126402
 30
0.0
 10
434.1651260024677
 20
-107.6243285126402
 30
0.0
 10
448.8901569202195
 20
-133.1288248249679
 30
0.0
 10
448.8901569202195
 20
-133.1288248249679
 30
0.0
 10
452.3083815415735
 20
-127.2359874788403
 30
0.0
 10
454.2750148061397
 20
-120.3964376493947
 30
0.0
 10
454.2750148061397
 20
-113.0935912596991
 30
0.0
 10
454.2750148061397
 20
-91.00222082609382
 30
0.0
 10
436.3663611069423
 20
-73.09360618940788
 30
0.0
 10
414.274990673339
 20
-73.09360618940788
 30
0.0
 10
414.274990673339
 20
-73.09360618940788
 30
0.0
 10
428.5206801048368
 20
-97.84786847611993
 30
0.0
 10
428.5206801048368
 20
-97.84786847611993
 30
0.0
  0
SPLINE
  5
5E
330
1F
100
AcDbEntity
  8
OneCircle
 62
     7
420
 16777215
370
    35
100
AcDbSpline
210
0.0
220
0.0
230
1.0
 70
    27
 71
     3
 72
    11
 73
     7
 74
     0
 42
0.0000000001
 43
0.0000000001
 12
1.0
 22
0.0
 32
0.0
 13
1.0
 23
0.0
 33
0.0
 40
0.0
 40
0.0
 40
0.0
 40
0.0
 40
1.0
 40
1.0
 40
1.0
 40
2.0
 40
2.0
 40
2.0
 40
2.0
 10
424.2656760254273
 20
-100.3044977978251
 30
0.0
 10
424.2656760254273
 20
-100.3044977978251
 30
0.0
 10
429.9101219230582
 20
-110.080957834346
 30
0.0
 10
429.9101219230582
 20
-110.080957834346
 30
0.0
 10
429.9101219230582
 20
-110.080957834346
 30
0.0
 10
424.2656760254273
 20
-100.3044977978251
 30
0.0
 10
424.2656760254273
 20
-100.3044977978251
 30
0.0
  0
SPLINE
  5
5F
330
1F
100
AcDbEntity
  8
OneCircle
 62
     7
420
 16777215
370
    35
100
AcDbSpline
210
0.0
220
0.0
230
1.0
 70
    27
 71
     3
 72
    11
 73
     7
 74
     0
 42
0.0000000001
 43
0.0000000001
 12
1.0
 22
0.0
 32
0.0
 13
1.0
 23
0.0
 33
0.0
 40
0.0
 40
0.0
 40
0.0
 40
0.0
 40
1.0
 40
1.0
 40
1.0
 40
2.0
 40
2.0
 40
2.0
 40
2.0
 10
24.44751770090357
 20
-183.1578878606208
 30
0.0
 10
24.44751770090357
 20
-183.1578878606208
 30
0.0
 10
30.09196359853355
 20
-173.3814278241002
 30
0.0
 10
30.09196359853355
 20
-173.3814278241002
 30
0.0
 10
30.09196359853355
 20
-173.3814278241002
 30
0.0
 10
24.44751770090357
 20
-183.1578878606208
 30
0.0
 10
24.44751770090357
 20
-183.1578878606208
 30
0.0
  0
SPLINE
  5
60
330
1F
100
AcDbEntity
  8
OneCircle
 62
     7
420
 16777215
370
    35
100
AcDbSpline
210
0.0
220
0.0
230
1.0
 70
     8
 71
     3
 72
    59
 73
    55
 74
     0
 42
0.0000000001
 43
0.0000000001
 12
1.0
 22
0.0
 32
0.0
 13
1.0
 23
0.0
 33
0.0
 40
0.0
 40
0.0
 40
0.0
 40
0.0
 40
1.0
 40
1.0
 40
1.0
 40
2.0
 40
2.0
 40
2.0
 40
3.0
 40
3.0
 40
3.0
 40
4.0
 40
4.0
 40
4.0
 40
5.0
 40
5.0
 40
5.0
 40
6.0
 40
6.0
 40
6.0
 40
7.0
 40
7.0
 40
7.0
 40
8.0
 40
8.0
 40
8.0
 40
9.0
 40
9.0
 40
9.0
 40
10.0
 40
10.0
 40
10.0
 40
11.0
 40
11.0
 40
11.0
 40
12.0
 40
12.0
 40
12.0
 40
13.0
 40
13.0
 40
13.0
 40
14.0
 40
14.0
 40
14.0
 40
15.0
 40
15.0
 40
15.0
 40
16.0
 40
16.0
 40
16.0
 40
17.0
 40
17.0
 40
17.0
 40
18.0
 40
18.0
 40
18.0
 40
18.0
 10
26.14198835199605
 20
-171.1009118289863
 30
0.0
 10
26.14198835199605
 20
-171.1009118289863
 30
0.0
 10
40.9999907666575
 20
-145.2861110747903
 30
0.0
 10
40.9999907666575
 20
-145.2861110747903
 30
0.0
 10
18.90858588208752
 20
-145.2861110747903
 30
0.0
 10
0.9999850800411206
 20
-163.1947257114759
 30
0.0
 10
0.9999850800411206
 20
-185.2860961450812
 30
0.0
 10
0.9999850800411206
 20
-192.5889425347768
 30
0.0
 10
2.9666183446054
 20
-199.4284923642224
 30
0.0
 10
6.384842965960399
 20
-205.32132971035
 30
0.0
 10
6.384842965960399
 20
-205.32132971035
 30
0.0
 10
20.49754245436639
 20
-180.8773718655068
 30
0.0
 10
20.49754245436639
 20
-180.8773718655068
 30
0.0
 10
20.49754245436639
 20
-180.8773718655068
 30
0.0
 10
6.384842965960399
 20
-205.32132971035
 30
0.0
 10
6.384842965960399
 20
-205.32132971035
 30
0.0
 10
6.393490157856869
 20
-205.3362125266818
 30
0.0
 10
6.401896193007062
 20
-205.3512331468687
 30
0.0
 10
6.410577835867239
 20
-205.3661159631998
 30
0.0
 10
6.410577835867239
 20
-205.3661159631998
 30
0.0
 10
35.35555409212065
 20
-205.3661159631998
 30
0.0
 10
35.35555409212065
 20
-205.3661159631998
 30
0.0
 10
35.35555409212065
 20
-205.3661159631998
 30
0.0
 10
6.410577835867239
 20
-205.3661159631998
 30
0.0
 10
6.410577835867239
 20
-205.3661159631998
 30
0.0
 10
13.33894224981067
 20
-217.274642792119
 30
0.0
 10
26.2299072114368
 20
-225.2861110547898
 30
0.0
 10
40.99999998975063
 20
-225.2861110547898
 30
0.0
 10
55.7700583171001
 20
-225.2861110547898
 30
0.0
 10
68.66105772968929
 20
-217.274642792119
 30
0.0
 10
75.58942214363273
 20
-205.3661159631998
 30
0.0
 10
75.58942214363273
 20
-205.3661159631998
 30
0.0
 10
46.64444588737996
 20
-205.3661159631998
 30
0.0
 10
46.64444588737996
 20
-205.3661159631998
 30
0.0
 10
46.64444588737996
 20
-205.3661159631998
 30
0.0
 10
75.58942214363273
 20
-205.3661159631998
 30
0.0
 10
75.58942214363273
 20
-205.3661159631998
 30
0.0
 10
75.59810378649291
 20
-205.3512331468687
 30
0.0
 10
75.6065098216431
 20
-205.3362125266818
 30
0.0
 10
75.61515701353957
 20
-205.32132971035
 30
0.0
 10
75.61515701353957
 20
-205.32132971035
 30
0.0
 10
60.89012609578558
 20
-179.8168333980223
 30
0.0
 10
60.89012609578558
 20
-179.8168333980223
 30
0.0
 10
60.89012609578558
 20
-179.8168333980223
 30
0.0
 10
75.61515701353957
 20
-205.32132971035
 30
0.0
 10
75.61515701353957
 20
-205.32132971035
 30
0.0
 10
79.03338163489457
 20
-199.4284923642224
 30
0.0
 10
81.00001489945917
 20
-192.5889425347768
 30
0.0
 10
81.00001489945917
 20
-185.2860961450812
 30
0.0
 10
81.00001489945917
 20
-163.1947257114759
 30
0.0
 10
63.09136120026248
 20
-145.2861110747903
 30
0.0
 10
40.99999076665718
 20
-145.2861110747903
 30
0.0
 10
40.99999076665718
 20
-145.2861110747903
 30
0.0
 10
55.24568019815592
 20
-170.040373361502
 30
0.0
 10
55.24568019815592
 20
-170.040373361502
 30
0.0
  0
SPLINE
  5
61
330
1F
100
AcDbEntity
  8
OneCircle
 62
     7
420
 16777215
370
    35
100
AcDbSpline
210
0.0
220
0.0
230
1.0
 70
    27
 71
     3
 72
    11
 73
     7
 74
     0
 42
0.0000000001
 43
0.0000000001
 12
1.0
 22
0.0
 32
0.0
 13
1.0
 23
0.0
 33
0.0
 40
0.0
 40
0.0
 40
0.0
 40
0.0
 40
1.0
 40
1.0
 40
1.0
 40
2.0
 40
2.0
 40
2.0
 40
2.0
 10
50.99067611874742
 20
-172.4970026832072
 30
0.0
 10
50.99067611874742
 20
-172.4970026832072
 30
0.0
 10
56.63512201637676
 20
-182.2734627197278
 30
0.0
 10
56.63512201637676
 20
-182.2734627197278
 30
0.0
 10
56.63512201637676
 20
-182.2734627197278
 30
0.0
 10
50.99067611874742
 20
-172.4970026832072
 30
0.0
 10
50.99067611874742
 20
-172.4970026832072
 30
0.0
  0
SPLINE
  5
62
330
1F
100
AcDbEntity
  8
OneCircle
 62
     7
420
 16777215
370
    35
100
AcDbSpline
210
0.0
220
0.0
230
1.0
 70
    27
 71
     3
 72
    11
 73
     7
 74
     0
 42
0.0000000001
 43
0.0000000001
 12
1.0
 22
0.0
 32
0.0
 13
1.0
 23
0.0
 33
0.0
 40
0.0
 40
0.0
 40
0.0
 40
0.0
 40
1.0
 40
1.0
 40
1.0
 40
2.0
 40
2.0
 40
2.0
 40
2.0
 10
107.4475176801536
 20
-183.1578878606202
 30
0.0
 10
107.4475176801536
 20
-183.1578878606202
 30
0.0
 10
113.0919635777836
 20
-173.3814278240999
 30
0.0
 10
113.0919635777836
 20
-173.3814278240999
 30
0.0
 10
113.0919635777836
 20
-173.3814278240999
 30
0.0
 10
107.4475176801536
 20
-183.1578878606202
 30
0.0
 10
107.4475176801536
 20
-183.1578878606202
 30
0.0
  0
SPLINE
  5
63
330
1F
100
AcDbEntity
  8
OneCircle
 62
     7
420
 16777215
370
    35
100
AcDbSpline
210
0.0
220
0.0
230
1.0
 70
     8
 71
     3
 72
    59
 73
    55
 74
     0
 42
0.0000000001
 43
0.0000000001
 12
1.0
 22
0.0
 32
0.0
 13
1.0
 23
0.0
 33
0.0
 40
0.0
 40
0.0
 40
0.0
 40
0.0
 40
1.0
 40
1.0
 40
1.0
 40
2.0
 40
2.0
 40
2.0
 40
3.0
 40
3.0
 40
3.0
 40
4.0
 40
4.0
 40
4.0
 40
5.0
 40
5.0
 40
5.0
 40
6.0
 40
6.0
 40
6.0
 40
7.0
 40
7.0
 40
7.0
 40
8.0
 40
8.0
 40
8.0
 40
9.0
 40
9.0
 40
9.0
 40
10.0
 40
10.0
 40
10.0
 40
11.0
 40
11.0
 40
11.0
 40
12.0
 40
12.0
 40
12.0
 40
13.0
 40
13.0
 40
13.0
 40
14.0
 40
14.0
 40
14.0
 40
15.0
 40
15.0
 40
15.0
 40
16.0
 40
16.0
 40
16.0
 40
17.0
 40
17.0
 40
17.0
 40
18.0
 40
18.0
 40
18.0
 40
18.0
 10
109.1419883312461
 20
-171.1009118289859
 30
0.0
 10
109.1419883312461
 20
-171.1009118289859
 30
0.0
 10
123.9999907459076
 20
-145.2861110747897
 30
0.0
 10
123.9999907459076
 20
-145.2861110747897
 30
0.0
 10
101.9085858613376
 20
-145.2861110747897
 30
0.0
 10
83.99998505929118
 20
-163.1947257114756
 30
0.0
 10
83.99998505929118
 20
-185.2860961450809
 30
0.0
 10
83.99998505929118
 20
-192.5889425347765
 30
0.0
 10
85.96661832385578
 20
-199.4284923642221
 30
0.0
 10
89.38484294521047
 20
-205.3213297103497
 30
0.0
 10
89.38484294521047
 20
-205.3213297103497
 30
0.0
 10
103.4975424336165
 20
-180.8773718655065
 30
0.0
 10
103.4975424336165
 20
-180.8773718655065
 30
0.0
 10
103.4975424336165
 20
-180.8773718655065
 30
0.0
 10
89.38484294521047
 20
-205.3213297103497
 30
0.0
 10
89.38484294521047
 20
-205.3213297103497
 30
0.0
 10
89.39349013710694
 20
-205.3362125266814
 30
0.0
 10
89.40189617225712
 20
-205.3512331468684
 30
0.0
 10
89.4105778151173
 20
-205.3661159631995
 30
0.0
 10
89.4105778151173
 20
-205.3661159631995
 30
0.0
 10
118.355554071371
 20
-205.3661159631995
 30
0.0
 10
118.355554071371
 20
-205.3661159631995
 30
0.0
 10
118.355554071371
 20
-205.3661159631995
 30
0.0
 10
89.4105778151173
 20
-205.3661159631995
 30
0.0
 10
89.4105778151173
 20
-205.3661159631995
 30
0.0
 10
96.33894222906073
 20
-217.2746427921187
 30
0.0
 10
109.2299071906869
 20
-225.2861110547895
 30
0.0
 10
123.9999999690007
 20
-225.2861110547895
 30
0.0
 10
138.7700582963502
 20
-225.2861110547895
 30
0.0
 10
151.6610577089394
 20
-217.2746427921187
 30
0.0
 10
158.5894221228828
 20
-205.3661159631995
 30
0.0
 10
158.5894221228828
 20
-205.3661159631995
 30
0.0
 10
129.64444586663
 20
-205.3661159631995
 30
0.0
 10
129.64444586663
 20
-205.3661159631995
 30
0.0
 10
129.64444586663
 20
-205.3661159631995
 30
0.0
 10
158.5894221228828
 20
-205.3661159631995
 30
0.0
 10
158.5894221228828
 20
-205.3661159631995
 30
0.0
 10
158.598103765743
 20
-205.3512331468684
 30
0.0
 10
158.6065098008931
 20
-205.3362125266814
 30
0.0
 10
158.6151569927896
 20
-205.3213297103497
 30
0.0
 10
158.6151569927896
 20
-205.3213297103497
 30
0.0
 10
143.8901260750356
 20
-179.816833398022
 30
0.0
 10
143.8901260750356
 20
-179.816833398022
 30
0.0
 10
143.8901260750356
 20
-179.816833398022
 30
0.0
 10
158.6151569927896
 20
-205.3213297103497
 30
0.0
 10
158.6151569927896
 20
-205.3213297103497
 30
0.0
 10
162.0333816141446
 20
-199.4284923642221
 30
0.0
 10
164.0000148787089
 20
-192.5889425347765
 30
0.0
 10
164.0000148787089
 20
-185.2860961450809
 30
0.0
 10
164.0000148787089
 20
-163.1947257114756
 30
0.0
 10
146.0913611795125
 20
-145.2861110747897
 30
0.0
 10
123.9999907459072
 20
-145.2861110747897
 30
0.0
 10
123.9999907459072
 20
-145.2861110747897
 30
0.0
 10
138.245680177406
 20
-170.0403733615017
 30
0.0
 10
138.245680177406
 20
-170.0403733615017
 30
0.0
  0
SPLINE
  5
64
330
1F
100
AcDbEntity
  8
OneCircle
 62
     7
420
 16777215
370
    35
100
AcDbSpline
210
0.0
220
0.0
230
1.0
 70
    27
 71
     3
 72
    11
 73
     7
 74
     0
 42
0.0000000001
 43
0.0000000001
 12
1.0
 22
0.0
 32
0.0
 13
1.0
 23
0.0
 33
0.0
 40
0.0
 40
0.0
 40
0.0
 40
0.0
 40
1.0
 40
1.0
 40
1.0
 40
2.0
 40
2.0
 40
2.0
 40
2.0
 10
133.9906760979975
 20
-172.4970026832069
 30
0.0
 10
133.9906760979975
 20
-172.4970026832069
 30
0.0
 10
139.6351219956268
 20
-182.2734627197275
 30
0.0
 10
139.6351219956268
 20
-182.2734627197275
 30
0.0
 10
139.6351219956268
 20
-182.2734627197275
 30
0.0
 10
133.9906760979975
 20
-172.4970026832069
 30
0.0
 10
133.9906760979975
 20
-172.4970026832069
 30
0.0
  0
SPLINE
  5
65
330
1F
100
AcDbEntity
  8
OneCircle
 62
     7
420
 16777215
370
    35
100
AcDbSpline
210
0.0
220
0.0
230
1.0
 70
    27
 71
     3
 72
    11
 73
     7
 74
     0
 42
0.0000000001
 43
0.0000000001
 12
1.0
 22
0.0
 32
0.0
 13
1.0
 23
0.0
 33
0.0
 40
0.0
 40
0.0
 40
0.0
 40
0.0
 40
1.0
 40
1.0
 40
1.0
 40
2.0
 40
2.0
 40
2.0
 40
2.0
 10
190.2530732150074
 20
-183.1578878606208
 30
0.0
 10
190.2530732150074
 20
-183.1578878606208
 30
0.0
 10
195.8975191126374
 20
-173.3814278241002
 30
0.0
 10
195.8975191126374
 20
-173.3814278241002
 30
0.0
 10
195.8975191126374
 20
-173.3814278241002
 30
0.0
 10
190.2530732150074
 20
-183.1578878606208
 30
0.0
 10
190.2530732150074
 20
-183.1578878606208
 30
0.0
  0
SPLINE
  5
66
330
1F
100
AcDbEntity
  8
OneCircle
 62
     7
420
 16777215
370
    35
100
AcDbSpline
210
0.0
220
0.0
230
1.0
 70
     8
 71
     3
 72
    59
 73
    55
 74
     0
 42
0.0000000001
 43
0.0000000001
 12
1.0
 22
0.0
 32
0.0
 13
1.0
 23
0.0
 33
0.0
 40
0.0
 40
0.0
 40
0.0
 40
0.0
 40
1.0
 40
1.0
 40
1.0
 40
2.0
 40
2.0
 40
2.0
 40
3.0
 40
3.0
 40
3.0
 40
4.0
 40
4.0
 40
4.0
 40
5.0
 40
5.0
 40
5.0
 40
6.0
 40
6.0
 40
6.0
 40
7.0
 40
7.0
 40
7.0
 40
8.0
 40
8.0
 40
8.0
 40
9.0
 40
9.0
 40
9.0
 40
10.0
 40
10.0
 40
10.0
 40
11.0
 40
11.0
 40
11.0
 40
12.0
 40
12.0
 40
12.0
 40
13.0
 40
13.0
 40
13.0
 40
14.0
 40
14.0
 40
14.0
 40
15.0
 40
15.0
 40
15.0
 40
16.0
 40
16.0
 40
16.0
 40
17.0
 40
17.0
 40
17.0
 40
18.0
 40
18.0
 40
18.0
 40
18.0
 10
191.9475438660999
 20
-171.1009118289863
 30
0.0
 10
191.9475438660999
 20
-171.1009118289863
 30
0.0
 10
206.8055462807613
 20
-145.2861110747903
 30
0.0
 10
206.8055462807613
 20
-145.2861110747903
 30
0.0
 10
184.7141413961914
 20
-145.2861110747903
 30
0.0
 10
166.805540594145
 20
-163.1947257114759
 30
0.0
 10
166.805540594145
 20
-185.2860961450812
 30
0.0
 10
166.805540594145
 20
-192.5889425347768
 30
0.0
 10
168.7721738587093
 20
-199.4284923642224
 30
0.0
 10
172.1903984800643
 20
-205.32132971035
 30
0.0
 10
172.1903984800643
 20
-205.32132971035
 30
0.0
 10
186.3030979684702
 20
-180.8773718655068
 30
0.0
 10
186.3030979684702
 20
-180.8773718655068
 30
0.0
 10
186.3030979684702
 20
-180.8773718655068
 30
0.0
 10
172.1903984800643
 20
-205.32132971035
 30
0.0
 10
172.1903984800643
 20
-205.32132971035
 30
0.0
 10
172.1990456719607
 20
-205.3362125266818
 30
0.0
 10
172.2074517071109
 20
-205.3512331468687
 30
0.0
 10
172.2161333499711
 20
-205.3661159631998
 30
0.0
 10
172.2161333499711
 20
-205.3661159631998
 30
0.0
 10
201.1611096062248
 20
-205.3661159631998
 30
0.0
 10
201.1611096062248
 20
-205.3661159631998
 30
0.0
 10
201.1611096062248
 20
-205.3661159631998
 30
0.0
 10
172.2161333499711
 20
-205.3661159631998
 30
0.0
 10
172.2161333499711
 20
-205.3661159631998
 30
0.0
 10
179.1444977639145
 20
-217.274642792119
 30
0.0
 10
192.0354627255406
 20
-225.2861110547898
 30
0.0
 10
206.8055555038545
 20
-225.2861110547898
 30
0.0
 10
221.575613831204
 20
-225.2861110547898
 30
0.0
 10
234.4666132437931
 20
-217.274642792119
 30
0.0
 10
241.3949776577369
 20
-205.3661159631998
 30
0.0
 10
241.3949776577369
 20
-205.3661159631998
 30
0.0
 10
212.4500014014838
 20
-205.3661159631998
 30
0.0
 10
212.4500014014838
 20
-205.3661159631998
 30
0.0
 10
212.4500014014838
 20
-205.3661159631998
 30
0.0
 10
241.3949776577369
 20
-205.3661159631998
 30
0.0
 10
241.3949776577369
 20
-205.3661159631998
 30
0.0
 10
241.4036593005964
 20
-205.3512331468687
 30
0.0
 10
241.4120653357469
 20
-205.3362125266818
 30
0.0
 10
241.4207125276434
 20
-205.32132971035
 30
0.0
 10
241.4207125276434
 20
-205.32132971035
 30
0.0
 10
226.6956816098891
 20
-179.8168333980223
 30
0.0
 10
226.6956816098891
 20
-179.8168333980223
 30
0.0
 10
226.6956816098891
 20
-179.8168333980223
 30
0.0
 10
241.4207125276434
 20
-205.32132971035
 30
0.0
 10
241.4207125276434
 20
-205.32132971035
 30
0.0
 10
244.8389371489988
 20
-199.4284923642224
 30
0.0
 10
246.8055704135624
 20
-192.5889425347768
 30
0.0
 10
246.8055704135624
 20
-185.2860961450812
 30
0.0
 10
246.8055704135624
 20
-163.1947257114759
 30
0.0
 10
228.8969167143663
 20
-145.2861110747903
 30
0.0
 10
206.805546280761
 20
-145.2861110747903
 30
0.0
 10
206.805546280761
 20
-145.2861110747903
 30
0.0
 10
221.0512357122601
 20
-170.040373361502
 30
0.0
 10
221.0512357122601
 20
-170.040373361502
 30
0.0
  0
SPLINE
  5
67
330
1F
100
AcDbEntity
  8
OneCircle
 62
     7
420
 16777215
370
    35
100
AcDbSpline
210
0.0
220
0.0
230
1.0
 70
    27
 71
     3
 72
    11
 73
     7
 74
     0
 42
0.0000000001
 43
0.0000000001
 12
1.0
 22
0.0
 32
0.0
 13
1.0
 23
0.0
 33
0.0
 40
0.0
 40
0.0
 40
0.0
 40
0.0
 40
1.0
 40
1.0
 40
1.0
 40
2.0
 40
2.0
 40
2.0
 40
2.0
 10
216.7962316328513
 20
-172.4970026832072
 30
0.0
 10
216.7962316328513
 20
-172.4970026832072
 30
0.0
 10
222.4406775304809
 20
-182.2734627197278
 30
0.0
 10
222.4406775304809
 20
-182.2734627197278
 30
0.0
 10
222.4406775304809
 20
-182.2734627197278
 30
0.0
 10
216.7962316328513
 20
-172.4970026832072
 30
0.0
 10
216.7962316328513
 20
-172.4970026832072
 30
0.0
  0
SPLINE
  5
68
330
1F
100
AcDbEntity
  8
OneCircle
 62
     7
420
 16777215
370
    35
100
AcDbSpline
210
0.0
220
0.0
230
1.0
 70
    27
 71
     3
 72
    11
 73
     7
 74
     0
 42
0.0000000001
 43
0.0000000001
 12
1.0
 22
0.0
 32
0.0
 13
1.0
 23
0.0
 33
0.0
 40
0.0
 40
0.0
 40
0.0
 40
0.0
 40
1.0
 40
1.0
 40
1.0
 40
2.0
 40
2.0
 40
2.0
 40
2.0
 10
273.2530731942575
 20
-183.1578878606202
 30
0.0
 10
273.2530731942575
 20
-183.1578878606202
 30
0.0
 10
278.8975190918871
 20
-173.3814278240999
 30
0.0
 10
278.8975190918871
 20
-173.3814278240999
 30
0.0
 10
278.8975190918871
 20
-173.3814278240999
 30
0.0
 10
273.2530731942575
 20
-183.1578878606202
 30
0.0
 10
273.2530731942575
 20
-183.1578878606202
 30
0.0
  0
SPLINE
  5
69
330
1F
100
AcDbEntity
  8
OneCircle
 62
     7
420
 16777215
370
    35
100
AcDbSpline
210
0.0
220
0.0
230
1.0
 70
     8
 71
     3
 72
    59
 73
    55
 74
     0
 42
0.0000000001
 43
0.0000000001
 12
1.0
 22
0.0
 32
0.0
 13
1.0
 23
0.0
 33
0.0
 40
0.0
 40
0.0
 40
0.0
 40
0.0
 40
1.0
 40
1.0
 40
1.0
 40
2.0
 40
2.0
 40
2.0
 40
3.0
 40
3.0
 40
3.0
 40
4.0
 40
4.0
 40
4.0
 40
5.0
 40
5.0
 40
5.0
 40
6.0
 40
6.0
 40
6.0
 40
7.0
 40
7.0
 40
7.0
 40
8.0
 40
8.0
 40
8.0
 40
9.0
 40
9.0
 40
9.0
 40
10.0
 40
10.0
 40
10.0
 40
11.0
 40
11.0
 40
11.0
 40
12.0
 40
12.0
 40
12.0
 40
13.0
 40
13.0
 40
13.0
 40
14.0
 40
14.0
 40
14.0
 40
15.0
 40
15.0
 40
15.0
 40
16.0
 40
16.0
 40
16.0
 40
17.0
 40
17.0
 40
17.0
 40
18.0
 40
18.0
 40
18.0
 40
18.0
 10
274.94754384535
 20
-171.1009118289859
 30
0.0
 10
274.94754384535
 20
-171.1009118289859
 30
0.0
 10
289.8055462600114
 20
-145.2861110747897
 30
0.0
 10
289.8055462600114
 20
-145.2861110747897
 30
0.0
 10
267.7141413754411
 20
-145.2861110747897
 30
0.0
 10
249.805540573395
 20
-163.1947257114756
 30
0.0
 10
249.805540573395
 20
-185.2860961450809
 30
0.0
 10
249.805540573395
 20
-192.5889425347765
 30
0.0
 10
251.7721738379593
 20
-199.4284923642221
 30
0.0
 10
255.1903984593146
 20
-205.3213297103497
 30
0.0
 10
255.1903984593146
 20
-205.3213297103497
 30
0.0
 10
269.3030979477203
 20
-180.8773718655065
 30
0.0
 10
269.3030979477203
 20
-180.8773718655065
 30
0.0
 10
269.3030979477203
 20
-180.8773718655065
 30
0.0
 10
255.1903984593146
 20
-205.3213297103497
 30
0.0
 10
255.1903984593146
 20
-205.3213297103497
 30
0.0
 10
255.1990456512111
 20
-205.3362125266814
 30
0.0
 10
255.207451686361
 20
-205.3512331468684
 30
0.0
 10
255.2161333292212
 20
-205.3661159631995
 30
0.0
 10
255.2161333292212
 20
-205.3661159631995
 30
0.0
 10
284.1611095854752
 20
-205.3661159631995
 30
0.0
 10
284.1611095854752
 20
-205.3661159631995
 30
0.0
 10
284.1611095854752
 20
-205.3661159631995
 30
0.0
 10
255.2161333292212
 20
-205.3661159631995
 30
0.0
 10
255.2161333292212
 20
-205.3661159631995
 30
0.0
 10
262.1444977431643
 20
-217.2746427921187
 30
0.0
 10
275.035462704791
 20
-225.2861110547895
 30
0.0
 10
289.8055554831042
 20
-225.2861110547895
 30
0.0
 10
304.5756138104543
 20
-225.2861110547895
 30
0.0
 10
317.4666132230429
 20
-217.2746427921187
 30
0.0
 10
324.3949776369867
 20
-205.3661159631995
 30
0.0
 10
324.3949776369867
 20
-205.3661159631995
 30
0.0
 10
295.4500013807339
 20
-205.3661159631995
 30
0.0
 10
295.4500013807339
 20
-205.3661159631995
 30
0.0
 10
295.4500013807339
 20
-205.3661159631995
 30
0.0
 10
324.3949776369867
 20
-205.3661159631995
 30
0.0
 10
324.3949776369867
 20
-205.3661159631995
 30
0.0
 10
324.4036592798468
 20
-205.3512331468684
 30
0.0
 10
324.4120653149973
 20
-205.3362125266814
 30
0.0
 10
324.4207125068938
 20
-205.3213297103497
 30
0.0
 10
324.4207125068938
 20
-205.3213297103497
 30
0.0
 10
309.6956815891395
 20
-179.816833398022
 30
0.0
 10
309.6956815891395
 20
-179.816833398022
 30
0.0
 10
309.6956815891395
 20
-179.816833398022
 30
0.0
 10
324.4207125068938
 20
-205.3213297103497
 30
0.0
 10
324.4207125068938
 20
-205.3213297103497
 30
0.0
 10
327.8389371282485
 20
-199.4284923642221
 30
0.0
 10
329.8055703928134
 20
-192.5889425347765
 30
0.0
 10
329.8055703928134
 20
-185.2860961450809
 30
0.0
 10
329.8055703928134
 20
-163.1947257114756
 30
0.0
 10
311.896916693616
 20
-145.2861110747897
 30
0.0
 10
289.8055462600114
 20
-145.2861110747897
 30
0.0
 10
289.8055462600114
 20
-145.2861110747897
 30
0.0
 10
304.0512356915098
 20
-170.0403733615017
 30
0.0
 10
304.0512356915098
 20
-170.0403733615017
 30
0.0
  0
SPLINE
  5
6A
330
1F
100
AcDbEntity
  8
OneCircle
 62
     7
420
 16777215
370
    35
100
AcDbSpline
210
0.0
220
0.0
230
1.0
 70
    27
 71
     3
 72
    11
 73
     7
 74
     0
 42
0.0000000001
 43
0.0000000001
 12
1.0
 22
0.0
 32
0.0
 13
1.0
 23
0.0
 33
0.0
 40
0.0
 40
0.0
 40
0.0
 40
0.0
 40
1.0
 40
1.0
 40
1.0
 40
2.0
 40
2.0
 40
2.0
 40
2.0
 10
299.7962316121017
 20
-172.4970026832069
 30
0.0
 10
299.7962316121017
 20
-172.4970026832069
 30
0.0
 10
305.4406775097307
 20
-182.2734627197275
 30
0.0
 10
305.4406775097307
 20
-182.2734627197275
 30
0.0
 10
305.4406775097307
 20
-182.2734627197275
 30
0.0
 10
299.7962316121017
 20
-172.4970026832069
 30
0.0
 10
299.7962316121017
 20
-172.4970026832069
 30
0.0
  0
SPLINE
  5
6B
330
1F
100
AcDbEntity
  8
OneCircle
 62
     7
420
 16777215
370
    35
100
AcDbSpline
210
0.0
220
0.0
230
1.0
 70
    27
 71
     3
 72
    11
 73
     7
 74
     0
 42
0.0000000001
 43
0.0000000001
 12
1.0
 22
0.0
 32
0.0
 13
1.0
 23
0.0
 33
0.0
 40
0.0
 40
0.0
 40
0.0
 40
0.0
 40
1.0
 40
1.0
 40
1.0
 40
2.0
 40
2.0
 40
2.0
 40
2.0
 10
356.4475176179038
 20
-183.1578878606202
 30
0.0
 10
356.4475176179038
 20
-183.1578878606202
 30
0.0
 10
362.0919635155316
 20
-173.3814278240999
 30
0.0
 10
362.0919635155316
 20
-173.3814278240999
 30
0.0
 10
362.0919635155316
 20
-173.3814278240999
 30
0.0
 10
356.4475176179038
 20
-183.1578878606202
 30
0.0
 10
356.4475176179038
 20
-183.1578878606202
 30
0.0
  0
SPLINE
  5
6C
330
1F
100
AcDbEntity
  8
OneCircle
 62
     7
420
 16777215
370
    35
100
AcDbSpline
210
0.0
220
0.0
230
1.0
 70
     8
 71
     3
 72
    59
 73
    55
 74
     0
 42
0.0000000001
 43
0.0000000001
 12
1.0
 22
0.0
 32
0.0
 13
1.0
 23
0.0
 33
0.0
 40
0.0
 40
0.0
 40
0.0
 40
0.0
 40
1.0
 40
1.0
 40
1.0
 40
2.0
 40
2.0
 40
2.0
 40
3.0
 40
3.0
 40
3.0
 40
4.0
 40
4.0
 40
4.0
 40
5.0
 40
5.0
 40
5.0
 40
6.0
 40
6.0
 40
6.0
 40
7.0
 40
7.0
 40
7.0
 40
8.0
 40
8.0
 40
8.0
 40
9.0
 40
9.0
 40
9.0
 40
10.0
 40
10.0
 40
10.0
 40
11.0
 40
11.0
 40
11.0
 40
12.0
 40
12.0
 40
12.0
 40
13.0
 40
13.0
 40
13.0
 40
14.0
 40
14.0
 40
14.0
 40
15.0
 40
15.0
 40
15.0
 40
16.0
 40
16.0
 40
16.0
 40
17.0
 40
17.0
 40
17.0
 40
18.0
 40
18.0
 40
18.0
 40
18.0
 10
358.1419882689956
 20
-171.1009118289859
 30
0.0
 10
358.1419882689956
 20
-171.1009118289859
 30
0.0
 10
372.9999906836578
 20
-145.2861110747897
 30
0.0
 10
372.9999906836578
 20
-145.2861110747897
 30
0.0
 10
350.9085857990868
 20
-145.2861110747897
 30
0.0
 10
332.9999849970407
 20
-163.1947257114756
 30
0.0
 10
332.9999849970407
 20
-185.2860961450809
 30
0.0
 10
332.9999849970407
 20
-192.5889425347765
 30
0.0
 10
334.966618261605
 20
-199.4284923642221
 30
0.0
 10
338.3848428829603
 20
-205.3213297103497
 30
0.0
 10
338.3848428829603
 20
-205.3213297103497
 30
0.0
 10
352.497542371366
 20
-180.8773718655065
 30
0.0
 10
352.497542371366
 20
-180.8773718655065
 30
0.0
 10
352.497542371366
 20
-180.8773718655065
 30
0.0
 10
338.3848428829603
 20
-205.3213297103497
 30
0.0
 10
338.3848428829603
 20
-205.3213297103497
 30
0.0
 10
338.3934900748568
 20
-205.3362125266814
 30
0.0
 10
338.4018961100066
 20
-205.3512331468684
 30
0.0
 10
338.4105777528669
 20
-205.3661159631995
 30
0.0
 10
338.4105777528669
 20
-205.3661159631995
 30
0.0
 10
367.3555540091222
 20
-205.3661159631995
 30
0.0
 10
367.3555540091222
 20
-205.3661159631995
 30
0.0
 10
367.3555540091222
 20
-205.3661159631995
 30
0.0
 10
338.4105777528669
 20
-205.3661159631995
 30
0.0
 10
338.4105777528669
 20
-205.3661159631995
 30
0.0
 10
345.3389421668099
 20
-217.2746427921187
 30
0.0
 10
358.2299071284386
 20
-225.2861110547895
 30
0.0
 10
372.9999999067505
 20
-225.2861110547895
 30
0.0
 10
387.7700582341
 20
-225.2861110547895
 30
0.0
 10
400.6610576466899
 20
-217.2746427921187
 30
0.0
 10
407.5894220606311
 20
-205.3661159631995
 30
0.0
 10
407.5894220606311
 20
-205.3661159631995
 30
0.0
 10
378.6444458043783
 20
-205.3661159631995
 30
0.0
 10
378.6444458043783
 20
-205.3661159631995
 30
0.0
 10
378.6444458043783
 20
-205.3661159631995
 30
0.0
 10
407.5894220606311
 20
-205.3661159631995
 30
0.0
 10
407.5894220606311
 20
-205.3661159631995
 30
0.0
 10
407.5981037034938
 20
-205.3512331468684
 30
0.0
 10
407.6065097386437
 20
-205.3362125266814
 30
0.0
 10
407.6151569305382
 20
-205.3213297103497
 30
0.0
 10
407.6151569305382
 20
-205.3213297103497
 30
0.0
 10
392.8901260127865
 20
-179.816833398022
 30
0.0
 10
392.8901260127865
 20
-179.816833398022
 30
0.0
 10
392.8901260127865
 20
-179.816833398022
 30
0.0
 10
407.6151569305382
 20
-205.3213297103497
 30
0.0
 10
407.6151569305382
 20
-205.3213297103497
 30
0.0
 10
411.0333815518923
 20
-199.4284923642221
 30
0.0
 10
413.0000148164585
 20
-192.5889425347765
 30
0.0
 10
413.0000148164585
 20
-185.2860961450809
 30
0.0
 10
413.0000148164585
 20
-163.1947257114756
 30
0.0
 10
395.0913611172611
 20
-145.2861110747897
 30
0.0
 10
372.9999906836578
 20
-145.2861110747897
 30
0.0
 10
372.9999906836578
 20
-145.2861110747897
 30
0.0
 10
387.2456801151555
 20
-170.0403733615017
 30
0.0
 10
387.2456801151555
 20
-170.0403733615017
 30
0.0
  0
SPLINE
  5
6D
330
1F
100
AcDbEntity
  8
OneCircle
 62
     7
420
 16777215
370
    35
100
AcDbSpline
210
0.0
220
0.0
230
1.0
 70
    27
 71
     3
 72
    11
 73
     7
 74
     0
 42
0.0000000001
 43
0.0000000001
 12
1.0
 22
0.0
 32
0.0
 13
1.0
 23
0.0
 33
0.0
 40
0.0
 40
0.0
 40
0.0
 40
0.0
 40
1.0
 40
1.0
 40
1.0
 40
2.0
 40
2.0
 40
2.0
 40
2.0
 10
382.990676035746
 20
-172.4970026832069
 30
0.0
 10
382.990676035746
 20
-172.4970026832069
 30
0.0
 10
388.635121933377
 20
-182.2734627197275
 30
0.0
 10
388.635121933377
 20
-182.2734627197275
 30
0.0
 10
388.635121933377
 20
-182.2734627197275
 30
0.0
 10
382.990676035746
 20
-172.4970026832069
 30
0.0
 10
382.990676035746
 20
-172.4970026832069
 30
0.0
  0
SPLINE
  5
6E
330
1F
100
AcDbEntity
  8
OneCircle
 62
     7
420
 16777215
370
    35
100
AcDbSpline
210
0.0
220
0.0
230
1.0
 70
    27
 71
     3
 72
    11
 73
     7
 74
     0
 42
0.0000000001
 43
0.0000000001
 12
1.0
 22
0.0
 32
0.0
 13
1.0
 23
0.0
 33
0.0
 40
0.0
 40
0.0
 40
0.0
 40
0.0
 40
1.0
 40
1.0
 40
1.0
 40
2.0
 40
2.0
 40
2.0
 40
2.0
 10
65.72251769058482
 20
-255.2514940502786
 30
0.0
 10
65.72251769058482
 20
-255.2514940502786
 30
0.0
 10
71.3669635882148
 20
-245.475034013758
 30
0.0
 10
71.3669635882148
 20
-245.475034013758
 30
0.0
 10
71.3669635882148
 20
-245.475034013758
 30
0.0
 10
65.72251769058482
 20
-255.2514940502786
 30
0.0
 10
65.72251769058482
 20
-255.2514940502786
 30
0.0
  0
SPLINE
  5
6F
330
1F
100
AcDbEntity
  8
OneCircle
 62
     7
420
 16777215
370
    35
100
AcDbSpline
210
0.0
220
0.0
230
1.0
 70
     8
 71
     3
 72
    59
 73
    55
 74
     0
 42
0.0000000001
 43
0.0000000001
 12
1.0
 22
0.0
 32
0.0
 13
1.0
 23
0.0
 33
0.0
 40
0.0
 40
0.0
 40
0.0
 40
0.0
 40
1.0
 40
1.0
 40
1.0
 40
2.0
 40
2.0
 40
2.0
 40
3.0
 40
3.0
 40
3.0
 40
4.0
 40
4.0
 40
4.0
 40
5.0
 40
5.0
 40
5.0
 40
6.0
 40
6.0
 40
6.0
 40
7.0
 40
7.0
 40
7.0
 40
8.0
 40
8.0
 40
8.0
 40
9.0
 40
9.0
 40
9.0
 40
10.0
 40
10.0
 40
10.0
 40
11.0
 40
11.0
 40
11.0
 40
12.0
 40
12.0
 40
12.0
 40
13.0
 40
13.0
 40
13.0
 40
14.0
 40
14.0
 40
14.0
 40
15.0
 40
15.0
 40
15.0
 40
16.0
 40
16.0
 40
16.0
 40
17.0
 40
17.0
 40
17.0
 40
18.0
 40
18.0
 40
18.0
 40
18.0
 10
67.4169883416773
 20
-243.194518018644
 30
0.0
 10
67.4169883416773
 20
-243.194518018644
 30
0.0
 10
82.27499075633875
 20
-217.3797172644478
 30
0.0
 10
82.27499075633875
 20
-217.3797172644478
 30
0.0
 10
60.1835858717691
 20
-217.3797172644478
 30
0.0
 10
42.27498506972237
 20
-235.2883319011341
 30
0.0
 10
42.27498506972237
 20
-257.379702334739
 30
0.0
 10
42.27498506972237
 20
-264.6825487244342
 30
0.0
 10
44.24161833428665
 20
-271.5220985538802
 30
0.0
 10
47.65984295564165
 20
-277.4149359000081
 30
0.0
 10
47.65984295564165
 20
-277.4149359000081
 30
0.0
 10
61.77254244404764
 20
-252.9709780551646
 30
0.0
 10
61.77254244404764
 20
-252.9709780551646
 30
0.0
 10
61.77254244404764
 20
-252.9709780551646
 30
0.0
 10
47.65984295564165
 20
-277.4149359000081
 30
0.0
 10
47.65984295564165
 20
-277.4149359000081
 30
0.0
 10
47.66849014753812
 20
-277.4298187163396
 30
0.0
 10
47.67689618268831
 20
-277.4448393365268
 30
0.0
 10
47.68557782554849
 20
-277.4597221528576
 30
0.0
 10
47.68557782554849
 20
-277.4597221528576
 30
0.0
 10
76.6305540818019
 20
-277.4597221528576
 30
0.0
 10
76.6305540818019
 20
-277.4597221528576
 30
0.0
 10
76.6305540818019
 20
-277.4597221528576
 30
0.0
 10
47.68557782554849
 20
-277.4597221528576
 30
0.0
 10
47.68557782554849
 20
-277.4597221528576
 30
0.0
 10
54.61394223949193
 20
-289.3682489817771
 30
0.0
 10
67.50490720111804
 20
-297.3797172444479
 30
0.0
 10
82.27499997943188
 20
-297.3797172444479
 30
0.0
 10
97.04505830678136
 20
-297.3797172444479
 30
0.0
 10
109.9360577193705
 20
-289.3682489817771
 30
0.0
 10
116.864422133314
 20
-277.4597221528576
 30
0.0
 10
116.864422133314
 20
-277.4597221528576
 30
0.0
 10
87.91944587706122
 20
-277.4597221528576
 30
0.0
 10
87.91944587706122
 20
-277.4597221528576
 30
0.0
 10
87.91944587706122
 20
-277.4597221528576
 30
0.0
 10
116.864422133314
 20
-277.4597221528576
 30
0.0
 10
116.864422133314
 20
-277.4597221528576
 30
0.0
 10
116.8731037761742
 20
-277.4448393365268
 30
0.0
 10
116.8815098113243
 20
-277.4298187163396
 30
0.0
 10
116.8901570032208
 20
-277.4149359000081
 30
0.0
 10
116.8901570032208
 20
-277.4149359000081
 30
0.0
 10
102.1651260854668
 20
-251.9104395876801
 30
0.0
 10
102.1651260854668
 20
-251.9104395876801
 30
0.0
 10
102.1651260854668
 20
-251.9104395876801
 30
0.0
 10
116.8901570032208
 20
-277.4149359000081
 30
0.0
 10
116.8901570032208
 20
-277.4149359000081
 30
0.0
 10
120.3083816245758
 20
-271.5220985538802
 30
0.0
 10
122.2750148891404
 20
-264.6825487244342
 30
0.0
 10
122.2750148891404
 20
-257.379702334739
 30
0.0
 10
122.2750148891404
 20
-235.2883319011341
 30
0.0
 10
104.3663611899437
 20
-217.3797172644478
 30
0.0
 10
82.27499075633843
 20
-217.3797172644478
 30
0.0
 10
82.27499075633843
 20
-217.3797172644478
 30
0.0
 10
96.52068018783717
 20
-242.1339795511599
 30
0.0
 10
96.52068018783717
 20
-242.1339795511599
 30
0.0
  0
SPLINE
  5
70
330
1F
100
AcDbEntity
  8
OneCircle
 62
     7
420
 16777215
370
    35
100
AcDbSpline
210
0.0
220
0.0
230
1.0
 70
    27
 71
     3
 72
    11
 73
     7
 74
     0
 42
0.0000000001
 43
0.0000000001
 12
1.0
 22
0.0
 32
0.0
 13
1.0
 23
0.0
 33
0.0
 40
0.0
 40
0.0
 40
0.0
 40
0.0
 40
1.0
 40
1.0
 40
1.0
 40
2.0
 40
2.0
 40
2.0
 40
2.0
 10
92.26567610842866
 20
-244.590608872865
 30
0.0
 10
92.26567610842866
 20
-244.590608872865
 30
0.0
 10
97.910122006058
 20
-254.3670689093853
 30
0.0
 10
97.910122006058
 20
-254.3670689093853
 30
0.0
 10
97.910122006058
 20
-254.3670689093853
 30
0.0
 10
92.26567610842866
 20
-244.590608872865
 30
0.0
 10
92.26567610842866
 20
-244.590608872865
 30
0.0
  0
SPLINE
  5
71
330
1F
100
AcDbEntity
  8
OneCircle
 62
     7
420
 16777215
370
    35
100
AcDbSpline
210
0.0
220
0.0
230
1.0
 70
    27
 71
     3
 72
    11
 73
     7
 74
     0
 42
0.0000000001
 43
0.0000000001
 12
1.0
 22
0.0
 32
0.0
 13
1.0
 23
0.0
 33
0.0
 40
0.0
 40
0.0
 40
0.0
 40
0.0
 40
1.0
 40
1.0
 40
1.0
 40
2.0
 40
2.0
 40
2.0
 40
2.0
 10
148.7225176698349
 20
-255.2514940502783
 30
0.0
 10
148.7225176698349
 20
-255.2514940502783
 30
0.0
 10
154.3669635674649
 20
-245.4750340137577
 30
0.0
 10
154.3669635674649
 20
-245.4750340137577
 30
0.0
 10
154.3669635674649
 20
-245.4750340137577
 30
0.0
 10
148.7225176698349
 20
-255.2514940502783
 30
0.0
 10
148.7225176698349
 20
-255.2514940502783
 30
0.0
  0
SPLINE
  5
72
330
1F
100
AcDbEntity
  8
OneCircle
 62
     7
420
 16777215
370
    35
100
AcDbSpline
210
0.0
220
0.0
230
1.0
 70
     8
 71
     3
 72
    59
 73
    55
 74
     0
 42
0.0000000001
 43
0.0000000001
 12
1.0
 22
0.0
 32
0.0
 13
1.0
 23
0.0
 33
0.0
 40
0.0
 40
0.0
 40
0.0
 40
0.0
 40
1.0
 40
1.0
 40
1.0
 40
2.0
 40
2.0
 40
2.0
 40
3.0
 40
3.0
 40
3.0
 40
4.0
 40
4.0
 40
4.0
 40
5.0
 40
5.0
 40
5.0
 40
6.0
 40
6.0
 40
6.0
 40
7.0
 40
7.0
 40
7.0
 40
8.0
 40
8.0
 40
8.0
 40
9.0
 40
9.0
 40
9.0
 40
10.0
 40
10.0
 40
10.0
 40
11.0
 40
11.0
 40
11.0
 40
12.0
 40
12.0
 40
12.0
 40
13.0
 40
13.0
 40
13.0
 40
14.0
 40
14.0
 40
14.0
 40
15.0
 40
15.0
 40
15.0
 40
16.0
 40
16.0
 40
16.0
 40
17.0
 40
17.0
 40
17.0
 40
18.0
 40
18.0
 40
18.0
 40
18.0
 10
150.4169883209274
 20
-243.1945180186437
 30
0.0
 10
150.4169883209274
 20
-243.1945180186437
 30
0.0
 10
165.2749907355888
 20
-217.3797172644475
 30
0.0
 10
165.2749907355888
 20
-217.3797172644475
 30
0.0
 10
143.1835858510188
 20
-217.3797172644475
 30
0.0
 10
125.2749850489721
 20
-235.2883319011334
 30
0.0
 10
125.2749850489721
 20
-257.3797023347387
 30
0.0
 10
125.2749850489721
 20
-264.6825487244342
 30
0.0
 10
127.241618313537
 20
-271.5220985538799
 30
0.0
 10
130.6598429348917
 20
-277.4149359000074
 30
0.0
 10
130.6598429348917
 20
-277.4149359000074
 30
0.0
 10
144.7725424232977
 20
-252.9709780551646
 30
0.0
 10
144.7725424232977
 20
-252.9709780551646
 30
0.0
 10
144.7725424232977
 20
-252.9709780551646
 30
0.0
 10
130.6598429348917
 20
-277.4149359000074
 30
0.0
 10
130.6598429348917
 20
-277.4149359000074
 30
0.0
 10
130.6684901267882
 20
-277.4298187163392
 30
0.0
 10
130.6768961619384
 20
-277.4448393365265
 30
0.0
 10
130.6855778047986
 20
-277.4597221528573
 30
0.0
 10
130.6855778047986
 20
-277.4597221528573
 30
0.0
 10
159.6305540610523
 20
-277.4597221528573
 30
0.0
 10
159.6305540610523
 20
-277.4597221528573
 30
0.0
 10
159.6305540610523
 20
-277.4597221528573
 30
0.0
 10
130.6855778047986
 20
-277.4597221528573
 30
0.0
 10
130.6855778047986
 20
-277.4597221528573
 30
0.0
 10
137.613942218742
 20
-289.3682489817765
 30
0.0
 10
150.5049071803681
 20
-297.3797172444472
 30
0.0
 10
165.2749999586819
 20
-297.3797172444472
 30
0.0
 10
180.0450582860314
 20
-297.3797172444472
 30
0.0
 10
192.9360576986206
 20
-289.3682489817765
 30
0.0
 10
199.8644221125641
 20
-277.4597221528573
 30
0.0
 10
199.8644221125641
 20
-277.4597221528573
 30
0.0
 10
170.9194458563113
 20
-277.4597221528573
 30
0.0
 10
170.9194458563113
 20
-277.4597221528573
 30
0.0
 10
170.9194458563113
 20
-277.4597221528573
 30
0.0
 10
199.8644221125641
 20
-277.4597221528573
 30
0.0
 10
199.8644221125641
 20
-277.4597221528573
 30
0.0
 10
199.8731037554242
 20
-277.4448393365265
 30
0.0
 10
199.8815097905744
 20
-277.4298187163392
 30
0.0
 10
199.8901569824709
 20
-277.4149359000074
 30
0.0
 10
199.8901569824709
 20
-277.4149359000074
 30
0.0
 10
185.1651260647169
 20
-251.9104395876798
 30
0.0
 10
185.1651260647169
 20
-251.9104395876798
 30
0.0
 10
185.1651260647169
 20
-251.9104395876798
 30
0.0
 10
199.8901569824709
 20
-277.4149359000074
 30
0.0
 10
199.8901569824709
 20
-277.4149359000074
 30
0.0
 10
203.3083816038259
 20
-271.5220985538799
 30
0.0
 10
205.2750148683902
 20
-264.6825487244342
 30
0.0
 10
205.2750148683902
 20
-257.3797023347387
 30
0.0
 10
205.2750148683902
 20
-235.2883319011334
 30
0.0
 10
187.3663611691938
 20
-217.3797172644475
 30
0.0
 10
165.2749907355885
 20
-217.3797172644475
 30
0.0
 10
165.2749907355885
 20
-217.3797172644475
 30
0.0
 10
179.5206801670872
 20
-242.1339795511595
 30
0.0
 10
179.5206801670872
 20
-242.1339795511595
 30
0.0
  0
SPLINE
  5
73
330
1F
100
AcDbEntity
  8
OneCircle
 62
     7
420
 16777215
370
    35
100
AcDbSpline
210
0.0
220
0.0
230
1.0
 70
    27
 71
     3
 72
    11
 73
     7
 74
     0
 42
0.0000000001
 43
0.0000000001
 12
1.0
 22
0.0
 32
0.0
 13
1.0
 23
0.0
 33
0.0
 40
0.0
 40
0.0
 40
0.0
 40
0.0
 40
1.0
 40
1.0
 40
1.0
 40
2.0
 40
2.0
 40
2.0
 40
2.0
 10
175.2656760876787
 20
-244.5906088728644
 30
0.0
 10
175.2656760876787
 20
-244.5906088728644
 30
0.0
 10
180.9101219853081
 20
-254.3670689093853
 30
0.0
 10
180.9101219853081
 20
-254.3670689093853
 30
0.0
 10
180.9101219853081
 20
-254.3670689093853
 30
0.0
 10
175.2656760876787
 20
-244.5906088728644
 30
0.0
 10
175.2656760876787
 20
-244.5906088728644
 30
0.0
  0
SPLINE
  5
74
330
1F
100
AcDbEntity
  8
OneCircle
 62
     7
420
 16777215
370
    35
100
AcDbSpline
210
0.0
220
0.0
230
1.0
 70
    27
 71
     3
 72
    11
 73
     7
 74
     0
 42
0.0000000001
 43
0.0000000001
 12
1.0
 22
0.0
 32
0.0
 13
1.0
 23
0.0
 33
0.0
 40
0.0
 40
0.0
 40
0.0
 40
0.0
 40
1.0
 40
1.0
 40
1.0
 40
2.0
 40
2.0
 40
2.0
 40
2.0
 10
231.5280732046884
 20
-255.2514940502786
 30
0.0
 10
231.5280732046884
 20
-255.2514940502786
 30
0.0
 10
237.1725191023187
 20
-245.475034013758
 30
0.0
 10
237.1725191023187
 20
-245.475034013758
 30
0.0
 10
237.1725191023187
 20
-245.475034013758
 30
0.0
 10
231.5280732046884
 20
-255.2514940502786
 30
0.0
 10
231.5280732046884
 20
-255.2514940502786
 30
0.0
  0
SPLINE
  5
75
330
1F
100
AcDbEntity
  8
OneCircle
 62
     7
420
 16777215
370
    35
100
AcDbSpline
210
0.0
220
0.0
230
1.0
 70
     8
 71
     3
 72
    59
 73
    55
 74
     0
 42
0.0000000001
 43
0.0000000001
 12
1.0
 22
0.0
 32
0.0
 13
1.0
 23
0.0
 33
0.0
 40
0.0
 40
0.0
 40
0.0
 40
0.0
 40
1.0
 40
1.0
 40
1.0
 40
2.0
 40
2.0
 40
2.0
 40
3.0
 40
3.0
 40
3.0
 40
4.0
 40
4.0
 40
4.0
 40
5.0
 40
5.0
 40
5.0
 40
6.0
 40
6.0
 40
6.0
 40
7.0
 40
7.0
 40
7.0
 40
8.0
 40
8.0
 40
8.0
 40
9.0
 40
9.0
 40
9.0
 40
10.0
 40
10.0
 40
10.0
 40
11.0
 40
11.0
 40
11.0
 40
12.0
 40
12.0
 40
12.0
 40
13.0
 40
13.0
 40
13.0
 40
14.0
 40
14.0
 40
14.0
 40
15.0
 40
15.0
 40
15.0
 40
16.0
 40
16.0
 40
16.0
 40
17.0
 40
17.0
 40
17.0
 40
18.0
 40
18.0
 40
18.0
 40
18.0
 10
233.2225438557808
 20
-243.194518018644
 30
0.0
 10
233.2225438557808
 20
-243.194518018644
 30
0.0
 10
248.0805462704429
 20
-217.3797172644478
 30
0.0
 10
248.0805462704429
 20
-217.3797172644478
 30
0.0
 10
225.9891413858726
 20
-217.3797172644478
 30
0.0
 10
208.0805405838262
 20
-235.2883319011341
 30
0.0
 10
208.0805405838262
 20
-257.379702334739
 30
0.0
 10
208.0805405838262
 20
-264.6825487244342
 30
0.0
 10
210.0471738483905
 20
-271.5220985538802
 30
0.0
 10
213.4653984697455
 20
-277.4149359000081
 30
0.0
 10
213.4653984697455
 20
-277.4149359000081
 30
0.0
 10
227.5780979581518
 20
-252.9709780551646
 30
0.0
 10
227.5780979581518
 20
-252.9709780551646
 30
0.0
 10
227.5780979581518
 20
-252.9709780551646
 30
0.0
 10
213.4653984697455
 20
-277.4149359000081
 30
0.0
 10
213.4653984697455
 20
-277.4149359000081
 30
0.0
 10
213.474045661642
 20
-277.4298187163396
 30
0.0
 10
213.4824516967922
 20
-277.4448393365268
 30
0.0
 10
213.4911333396524
 20
-277.4597221528576
 30
0.0
 10
213.4911333396524
 20
-277.4597221528576
 30
0.0
 10
242.4361095959061
 20
-277.4597221528576
 30
0.0
 10
242.4361095959061
 20
-277.4597221528576
 30
0.0
 10
242.4361095959061
 20
-277.4597221528576
 30
0.0
 10
213.4911333396524
 20
-277.4597221528576
 30
0.0
 10
213.4911333396524
 20
-277.4597221528576
 30
0.0
 10
220.4194977535958
 20
-289.3682489817771
 30
0.0
 10
233.3104627152219
 20
-297.3797172444479
 30
0.0
 10
248.0805554935357
 20
-297.3797172444479
 30
0.0
 10
262.8506138208852
 20
-297.3797172444479
 30
0.0
 10
275.7416132334744
 20
-289.3682489817771
 30
0.0
 10
282.6699776474181
 20
-277.4597221528576
 30
0.0
 10
282.6699776474181
 20
-277.4597221528576
 30
0.0
 10
253.7250013911647
 20
-277.4597221528576
 30
0.0
 10
253.7250013911647
 20
-277.4597221528576
 30
0.0
 10
253.7250013911647
 20
-277.4597221528576
 30
0.0
 10
282.6699776474181
 20
-277.4597221528576
 30
0.0
 10
282.6699776474181
 20
-277.4597221528576
 30
0.0
 10
282.6786592902777
 20
-277.4448393365268
 30
0.0
 10
282.6870653254282
 20
-277.4298187163396
 30
0.0
 10
282.6957125173247
 20
-277.4149359000081
 30
0.0
 10
282.6957125173247
 20
-277.4149359000081
 30
0.0
 10
267.9706815995704
 20
-251.9104395876801
 30
0.0
 10
267.9706815995704
 20
-251.9104395876801
 30
0.0
 10
267.9706815995704
 20
-251.9104395876801
 30
0.0
 10
282.6957125173247
 20
-277.4149359000081
 30
0.0
 10
282.6957125173247
 20
-277.4149359000081
 30
0.0
 10
286.11393713868
 20
-271.5220985538802
 30
0.0
 10
288.0805704032437
 20
-264.6825487244342
 30
0.0
 10
288.0805704032437
 20
-257.379702334739
 30
0.0
 10
288.0805704032437
 20
-235.2883319011341
 30
0.0
 10
270.1719167040476
 20
-217.3797172644478
 30
0.0
 10
248.0805462704423
 20
-217.3797172644478
 30
0.0
 10
248.0805462704423
 20
-217.3797172644478
 30
0.0
 10
262.3262357019414
 20
-242.1339795511599
 30
0.0
 10
262.3262357019414
 20
-242.1339795511599
 30
0.0
  0
SPLINE
  5
76
330
1F
100
AcDbEntity
  8
OneCircle
 62
     7
420
 16777215
370
    35
100
AcDbSpline
210
0.0
220
0.0
230
1.0
 70
    27
 71
     3
 72
    11
 73
     7
 74
     0
 42
0.0000000001
 43
0.0000000001
 12
1.0
 22
0.0
 32
0.0
 13
1.0
 23
0.0
 33
0.0
 40
0.0
 40
0.0
 40
0.0
 40
0.0
 40
1.0
 40
1.0
 40
1.0
 40
2.0
 40
2.0
 40
2.0
 40
2.0
 10
258.0712316225325
 20
-244.590608872865
 30
0.0
 10
258.0712316225325
 20
-244.590608872865
 30
0.0
 10
263.7156775201622
 20
-254.3670689093853
 30
0.0
 10
263.7156775201622
 20
-254.3670689093853
 30
0.0
 10
263.7156775201622
 20
-254.3670689093853
 30
0.0
 10
258.0712316225325
 20
-244.590608872865
 30
0.0
 10
258.0712316225325
 20
-244.590608872865
 30
0.0
  0
SPLINE
  5
77
330
1F
100
AcDbEntity
  8
OneCircle
 62
     7
420
 16777215
370
    35
100
AcDbSpline
210
0.0
220
0.0
230
1.0
 70
    27
 71
     3
 72
    11
 73
     7
 74
     0
 42
0.0000000001
 43
0.0000000001
 12
1.0
 22
0.0
 32
0.0
 13
1.0
 23
0.0
 33
0.0
 40
0.0
 40
0.0
 40
0.0
 40
0.0
 40
1.0
 40
1.0
 40
1.0
 40
2.0
 40
2.0
 40
2.0
 40
2.0
 10
314.5280731839387
 20
-255.2514940502783
 30
0.0
 10
314.5280731839387
 20
-255.2514940502783
 30
0.0
 10
320.1725190815684
 20
-245.4750340137577
 30
0.0
 10
320.1725190815684
 20
-245.4750340137577
 30
0.0
 10
320.1725190815684
 20
-245.4750340137577
 30
0.0
 10
314.5280731839387
 20
-255.2514940502783
 30
0.0
 10
314.5280731839387
 20
-255.2514940502783
 30
0.0
  0
SPLINE
  5
78
330
1F
100
AcDbEntity
  8
OneCircle
 62
     7
420
 16777215
370
    35
100
AcDbSpline
210
0.0
220
0.0
230
1.0
 70
     8
 71
     3
 72
    59
 73
    55
 74
     0
 42
0.0000000001
 43
0.0000000001
 12
1.0
 22
0.0
 32
0.0
 13
1.0
 23
0.0
 33
0.0
 40
0.0
 40
0.0
 40
0.0
 40
0.0
 40
1.0
 40
1.0
 40
1.0
 40
2.0
 40
2.0
 40
2.0
 40
3.0
 40
3.0
 40
3.0
 40
4.0
 40
4.0
 40
4.0
 40
5.0
 40
5.0
 40
5.0
 40
6.0
 40
6.0
 40
6.0
 40
7.0
 40
7.0
 40
7.0
 40
8.0
 40
8.0
 40
8.0
 40
9.0
 40
9.0
 40
9.0
 40
10.0
 40
10.0
 40
10.0
 40
11.0
 40
11.0
 40
11.0
 40
12.0
 40
12.0
 40
12.0
 40
13.0
 40
13.0
 40
13.0
 40
14.0
 40
14.0
 40
14.0
 40
15.0
 40
15.0
 40
15.0
 40
16.0
 40
16.0
 40
16.0
 40
17.0
 40
17.0
 40
17.0
 40
18.0
 40
18.0
 40
18.0
 40
18.0
 10
316.2225438350312
 20
-243.1945180186437
 30
0.0
 10
316.2225438350312
 20
-243.1945180186437
 30
0.0
 10
331.0805462496926
 20
-217.3797172644475
 30
0.0
 10
331.0805462496926
 20
-217.3797172644475
 30
0.0
 10
308.9891413651224
 20
-217.3797172644475
 30
0.0
 10
291.0805405630763
 20
-235.2883319011334
 30
0.0
 10
291.0805405630763
 20
-257.3797023347387
 30
0.0
 10
291.0805405630763
 20
-264.6825487244342
 30
0.0
 10
293.0471738276406
 20
-271.5220985538799
 30
0.0
 10
296.4653984489959
 20
-277.4149359000074
 30
0.0
 10
296.4653984489959
 20
-277.4149359000074
 30
0.0
 10
310.5780979374015
 20
-252.9709780551646
 30
0.0
 10
310.5780979374015
 20
-252.9709780551646
 30
0.0
 10
310.5780979374015
 20
-252.9709780551646
 30
0.0
 10
296.4653984489959
 20
-277.4149359000074
 30
0.0
 10
296.4653984489959
 20
-277.4149359000074
 30
0.0
 10
296.4740456408924
 20
-277.4298187163392
 30
0.0
 10
296.4824516760422
 20
-277.4448393365265
 30
0.0
 10
296.4911333189024
 20
-277.4597221528573
 30
0.0
 10
296.4911333189024
 20
-277.4597221528573
 30
0.0
 10
325.4361095751565
 20
-277.4597221528573
 30
0.0
 10
325.4361095751565
 20
-277.4597221528573
 30
0.0
 10
325.4361095751565
 20
-277.4597221528573
 30
0.0
 10
296.4911333189024
 20
-277.4597221528573
 30
0.0
 10
296.4911333189024
 20
-277.4597221528573
 30
0.0
 10
303.4194977328455
 20
-289.3682489817765
 30
0.0
 10
316.3104626944723
 20
-297.3797172444472
 30
0.0
 10
331.0805554727855
 20
-297.3797172444472
 30
0.0
 10
345.8506138001356
 20
-297.3797172444472
 30
0.0
 10
358.7416132127229
 20
-289.3682489817765
 30
0.0
 10
365.6699776266679
 20
-277.4597221528573
 30
0.0
 10
365.6699776266679
 20
-277.4597221528573
 30
0.0
 10
336.7250013704152
 20
-277.4597221528573
 30
0.0
 10
336.7250013704152
 20
-277.4597221528573
 30
0.0
 10
336.7250013704152
 20
-277.4597221528573
 30
0.0
 10
365.6699776266679
 20
-277.4597221528573
 30
0.0
 10
365.6699776266679
 20
-277.4597221528573
 30
0.0
 10
365.6786592695268
 20
-277.4448393365265
 30
0.0
 10
365.6870653046773
 20
-277.4298187163392
 30
0.0
 10
365.6957124965744
 20
-277.4149359000074
 30
0.0
 10
365.6957124965744
 20
-277.4149359000074
 30
0.0
 10
350.9706815788207
 20
-251.9104395876798
 30
0.0
 10
350.9706815788207
 20
-251.9104395876798
 30
0.0
 10
350.9706815788207
 20
-251.9104395876798
 30
0.0
 10
365.6957124965744
 20
-277.4149359000074
 30
0.0
 10
365.6957124965744
 20
-277.4149359000074
 30
0.0
 10
369.1139371179291
 20
-271.5220985538799
 30
0.0
 10
371.0805703824953
 20
-264.6825487244342
 30
0.0
 10
371.0805703824953
 20
-257.3797023347387
 30
0.0
 10
371.0805703824953
 20
-235.2883319011334
 30
0.0
 10
353.1719166832974
 20
-217.3797172644475
 30
0.0
 10
331.0805462496926
 20
-217.3797172644475
 30
0.0
 10
331.0805462496926
 20
-217.3797172644475
 30
0.0
 10
345.3262356811911
 20
-242.1339795511595
 30
0.0
 10
345.3262356811911
 20
-242.1339795511595
 30
0.0
  0
SPLINE
  5
79
330
1F
100
AcDbEntity
  8
OneCircle
 62
     7
420
 16777215
370
    35
100
AcDbSpline
210
0.0
220
0.0
230
1.0
 70
    27
 71
     3
 72
    11
 73
     7
 74
     0
 42
0.0000000001
 43
0.0000000001
 12
1.0
 22
0.0
 32
0.0
 13
1.0
 23
0.0
 33
0.0
 40
0.0
 40
0.0
 40
0.0
 40
0.0
 40
1.0
 40
1.0
 40
1.0
 40
2.0
 40
2.0
 40
2.0
 40
2.0
 10
341.0712316017829
 20
-244.5906088728644
 30
0.0
 10
341.0712316017829
 20
-244.5906088728644
 30
0.0
 10
346.7156774994119
 20
-254.3670689093853
 30
0.0
 10
346.7156774994119
 20
-254.3670689093853
 30
0.0
 10
346.7156774994119
 20
-254.3670689093853
 30
0.0
 10
341.0712316017829
 20
-244.5906088728644
 30
0.0
 10
341.0712316017829
 20
-244.5906088728644
 30
0.0
  0
SPLINE
  5
7A
330
1F
100
AcDbEntity
  8
OneCircle
 62
     7
420
 16777215
370
    35
100
AcDbSpline
210
0.0
220
0.0
230
1.0
 70
    27
 71
     3
 72
    11
 73
     7
 74
     0
 42
0.0000000001
 43
0.0000000001
 12
1.0
 22
0.0
 32
0.0
 13
1.0
 23
0.0
 33
0.0
 40
0.0
 40
0.0
 40
0.0
 40
0.0
 40
1.0
 40
1.0
 40
1.0
 40
2.0
 40
2.0
 40
2.0
 40
2.0
 10
397.7225176075851
 20
-255.2514940502783
 30
0.0
 10
397.7225176075851
 20
-255.2514940502783
 30
0.0
 10
403.3669635052128
 20
-245.4750340137577
 30
0.0
 10
403.3669635052128
 20
-245.4750340137577
 30
0.0
 10
403.3669635052128
 20
-245.4750340137577
 30
0.0
 10
397.7225176075851
 20
-255.2514940502783
 30
0.0
 10
397.7225176075851
 20
-255.2514940502783
 30
0.0
  0
SPLINE
  5
7B
330
1F
100
AcDbEntity
  8
OneCircle
 62
     7
420
 16777215
370
    35
100
AcDbSpline
210
0.0
220
0.0
230
1.0
 70
     8
 71
     3
 72
    59
 73
    55
 74
     0
 42
0.0000000001
 43
0.0000000001
 12
1.0
 22
0.0
 32
0.0
 13
1.0
 23
0.0
 33
0.0
 40
0.0
 40
0.0
 40
0.0
 40
0.0
 40
1.0
 40
1.0
 40
1.0
 40
2.0
 40
2.0
 40
2.0
 40
3.0
 40
3.0
 40
3.0
 40
4.0
 40
4.0
 40
4.0
 40
5.0
 40
5.0
 40
5.0
 40
6.0
 40
6.0
 40
6.0
 40
7.0
 40
7.0
 40
7.0
 40
8.0
 40
8.0
 40
8.0
 40
9.0
 40
9.0
 40
9.0
 40
10.0
 40
10.0
 40
10.0
 40
11.0
 40
11.0
 40
11.0
 40
12.0
 40
12.0
 40
12.0
 40
13.0
 40
13.0
 40
13.0
 40
14.0
 40
14.0
 40
14.0
 40
15.0
 40
15.0
 40
15.0
 40
16.0
 40
16.0
 40
16.0
 40
17.0
 40
17.0
 40
17.0
 40
18.0
 40
18.0
 40
18.0
 40
18.0
 10
399.4169882586769
 20
-243.1945180186437
 30
0.0
 10
399.4169882586769
 20
-243.1945180186437
 30
0.0
 10
414.274990673339
 20
-217.3797172644475
 30
0.0
 10
414.274990673339
 20
-217.3797172644475
 30
0.0
 10
392.1835857887662
 20
-217.3797172644475
 30
0.0
 10
374.2749849867233
 20
-235.2883319011334
 30
0.0
 10
374.2749849867233
 20
-257.3797023347387
 30
0.0
 10
374.2749849867233
 20
-264.6825487244342
 30
0.0
 10
376.2416182512856
 20
-271.5220985538799
 30
0.0
 10
379.6598428726403
 20
-277.4149359000074
 30
0.0
 10
379.6598428726403
 20
-277.4149359000074
 30
0.0
 10
393.772542361046
 20
-252.9709780551646
 30
0.0
 10
393.772542361046
 20
-252.9709780551646
 30
0.0
 10
393.772542361046
 20
-252.9709780551646
 30
0.0
 10
379.6598428726403
 20
-277.4149359000074
 30
0.0
 10
379.6598428726403
 20
-277.4149359000074
 30
0.0
 10
379.668490064538
 20
-277.4298187163392
 30
0.0
 10
379.6768960996879
 20
-277.4448393365265
 30
0.0
 10
379.6855777425475
 20
-277.4597221528573
 30
0.0
 10
379.6855777425475
 20
-277.4597221528573
 30
0.0
 10
408.6305539988034
 20
-277.4597221528573
 30
0.0
 10
408.6305539988034
 20
-277.4597221528573
 30
0.0
 10
408.6305539988034
 20
-277.4597221528573
 30
0.0
 10
379.6855777425475
 20
-277.4597221528573
 30
0.0
 10
379.6855777425475
 20
-277.4597221528573
 30
0.0
 10
386.6139421564919
 20
-289.3682489817765
 30
0.0
 10
399.5049071181199
 20
-297.3797172444472
 30
0.0
 10
414.2749998964318
 20
-297.3797172444472
 30
0.0
 10
429.0450582237813
 20
-297.3797172444472
 30
0.0
 10
441.9360576363711
 20
-289.3682489817765
 30
0.0
 10
448.8644220503123
 20
-277.4597221528573
 30
0.0
 10
448.8644220503123
 20
-277.4597221528573
 30
0.0
 10
419.9194457940595
 20
-277.4597221528573
 30
0.0
 10
419.9194457940595
 20
-277.4597221528573
 30
0.0
 10
419.9194457940595
 20
-277.4597221528573
 30
0.0
 10
448.8644220503123
 20
-277.4597221528573
 30
0.0
 10
448.8644220503123
 20
-277.4597221528573
 30
0.0
 10
448.873103693175
 20
-277.4448393365265
 30
0.0
 10
448.8815097283249
 20
-277.4298187163392
 30
0.0
 10
448.8901569202195
 20
-277.4149359000074
 30
0.0
 10
448.8901569202195
 20
-277.4149359000074
 30
0.0
 10
434.1651260024677
 20
-251.9104395876798
 30
0.0
 10
434.1651260024677
 20
-251.9104395876798
 30
0.0
 10
434.1651260024677
 20
-251.9104395876798
 30
0.0
 10
448.8901569202195
 20
-277.4149359000074
 30
0.0
 10
448.8901569202195
 20
-277.4149359000074
 30
0.0
 10
452.3083815415735
 20
-271.5220985538799
 30
0.0
 10
454.2750148061397
 20
-264.6825487244342
 30
0.0
 10
454.2750148061397
 20
-257.3797023347387
 30
0.0
 10
454.2750148061397
 20
-235.2883319011334
 30
0.0
 10
436.3663611069423
 20
-217.3797172644475
 30
0.0
 10
414.274990673339
 20
-217.3797172644475
 30
0.0
 10
414.274990673339
 20
-217.3797172644475
 30
0.0
 10
428.5206801048368
 20
-242.1339795511595
 30
0.0
 10
428.5206801048368
 20
-242.1339795511595
 30
0.0
  0
SPLINE
  5
7C
330
1F
100
AcDbEntity
  8
OneCircle
 62
     7
420
 16777215
370
    35
100
AcDbSpline
210
0.0
220
0.0
230
1.0
 70
    27
 71
     3
 72
    11
 73
     7
 74
     0
 42
0.0000000001
 43
0.0000000001
 12
1.0
 22
0.0
 32
0.0
 13
1.0
 23
0.0
 33
0.0
 40
0.0
 40
0.0
 40
0.0
 40
0.0
 40
1.0
 40
1.0
 40
1.0
 40
2.0
 40
2.0
 40
2.0
 40
2.0
 10
424.2656760254273
 20
-244.5906088728644
 30
0.0
 10
424.2656760254273
 20
-244.5906088728644
 30
0.0
 10
429.9101219230582
 20
-254.3670689093853
 30
0.0
 10
429.9101219230582
 20
-254.3670689093853
 30
0.0
 10
429.9101219230582
 20
-254.3670689093853
 30
0.0
 10
424.2656760254273
 20
-244.5906088728644
 30
0.0
 10
424.2656760254273
 20
-244.5906088728644
 30
0.0
  0
SPLINE
  5
7D
330
1F
100
AcDbEntity
  8
OneCircle
 62
     7
420
 16777215
370
    35
100
AcDbSpline
210
0.0
220
0.0
230
1.0
 70
    27
 71
     3
 72
    11
 73
     7
 74
     0
 42
0.0000000001
 43
0.0000000001
 12
1.0
 22
0.0
 32
0.0
 13
1.0
 23
0.0
 33
0.0
 40
0.0
 40
0.0
 40
0.0
 40
0.0
 40
1.0
 40
1.0
 40
1.0
 40
2.0
 40
2.0
 40
2.0
 40
2.0
 10
24.09473992321399
 20
-327.9237162543325
 30
0.0
 10
24.09473992321399
 20
-327.9237162543325
 30
0.0
 10
29.73918582084396
 20
-318.1472562178122
 30
0.0
 10
29.73918582084396
 20
-318.1472562178122
 30
0.0
 10
29.73918582084396
 20
-318.1472562178122
 30
0.0
 10
24.09473992321399
 20
-327.9237162543325
 30
0.0
 10
24.09473992321399
 20
-327.9237162543325
 30
0.0
  0
SPLINE
  5
7E
330
1F
100
AcDbEntity
  8
OneCircle
 62
     7
420
 16777215
370
    35
100
AcDbSpline
210
0.0
220
0.0
230
1.0
 70
     8
 71
     3
 72
    59
 73
    55
 74
     0
 42
0.0000000001
 43
0.0000000001
 12
1.0
 22
0.0
 32
0.0
 13
1.0
 23
0.0
 33
0.0
 40
0.0
 40
0.0
 40
0.0
 40
0.0
 40
1.0
 40
1.0
 40
1.0
 40
2.0
 40
2.0
 40
2.0
 40
3.0
 40
3.0
 40
3.0
 40
4.0
 40
4.0
 40
4.0
 40
5.0
 40
5.0
 40
5.0
 40
6.0
 40
6.0
 40
6.0
 40
7.0
 40
7.0
 40
7.0
 40
8.0
 40
8.0
 40
8.0
 40
9.0
 40
9.0
 40
9.0
 40
10.0
 40
10.0
 40
10.0
 40
11.0
 40
11.0
 40
11.0
 40
12.0
 40
12.0
 40
12.0
 40
13.0
 40
13.0
 40
13.0
 40
14.0
 40
14.0
 40
14.0
 40
15.0
 40
15.0
 40
15.0
 40
16.0
 40
16.0
 40
16.0
 40
17.0
 40
17.0
 40
17.0
 40
18.0
 40
18.0
 40
18.0
 40
18.0
 10
25.78921057430647
 20
-315.8667402226982
 30
0.0
 10
25.78921057430647
 20
-315.8667402226982
 30
0.0
 10
40.64721298896792
 20
-290.051939468502
 30
0.0
 10
40.64721298896792
 20
-290.051939468502
 30
0.0
 10
18.55580810439794
 20
-290.051939468502
 30
0.0
 10
0.6472073023515373
 20
-307.9605541051882
 30
0.0
 10
0.6472073023515373
 20
-330.0519245387929
 30
0.0
 10
0.6472073023515373
 20
-337.3547709284884
 30
0.0
 10
2.613840566915816
 20
-344.1943207579341
 30
0.0
 10
6.032065188270815
 20
-350.0871581040616
 30
0.0
 10
6.032065188270815
 20
-350.0871581040616
 30
0.0
 10
20.14476467667681
 20
-325.6432002592185
 30
0.0
 10
20.14476467667681
 20
-325.6432002592185
 30
0.0
 10
20.14476467667681
 20
-325.6432002592185
 30
0.0
 10
6.032065188270815
 20
-350.0871581040616
 30
0.0
 10
6.032065188270815
 20
-350.0871581040616
 30
0.0
 10
6.040712380167285
 20
-350.1020409203937
 30
0.0
 10
6.049118415317478
 20
-350.1170615405807
 30
0.0
 10
6.057800058177656
 20
-350.1319443569114
 30
0.0
 10
6.057800058177656
 20
-350.1319443569114
 30
0.0
 10
35.00277631443139
 20
-350.1319443569114
 30
0.0
 10
35.00277631443139
 20
-350.1319443569114
 30
0.0
 10
35.00277631443139
 20
-350.1319443569114
 30
0.0
 10
6.057800058177656
 20
-350.1319443569114
 30
0.0
 10
6.057800058177656
 20
-350.1319443569114
 30
0.0
 10
12.98616447212109
 20
-362.0404711858326
 30
0.0
 10
25.87712943374721
 20
-370.0519394485027
 30
0.0
 10
40.64722221206105
 20
-370.0519394485027
 30
0.0
 10
55.41728053941052
 20
-370.0519394485027
 30
0.0
 10
68.30827995199971
 20
-362.0404711858326
 30
0.0
 10
75.23664436594315
 20
-350.1319443569114
 30
0.0
 10
75.23664436594315
 20
-350.1319443569114
 30
0.0
 10
46.29166810969038
 20
-350.1319443569114
 30
0.0
 10
46.29166810969038
 20
-350.1319443569114
 30
0.0
 10
46.29166810969038
 20
-350.1319443569114
 30
0.0
 10
75.23664436594315
 20
-350.1319443569114
 30
0.0
 10
75.23664436594315
 20
-350.1319443569114
 30
0.0
 10
75.24532600880332
 20
-350.1170615405807
 30
0.0
 10
75.25373204395352
 20
-350.1020409203937
 30
0.0
 10
75.26237923584999
 20
-350.0871581040616
 30
0.0
 10
75.26237923584999
 20
-350.0871581040616
 30
0.0
 10
60.53734831809599
 20
-324.5826617917343
 30
0.0
 10
60.53734831809599
 20
-324.5826617917343
 30
0.0
 10
60.53734831809599
 20
-324.5826617917343
 30
0.0
 10
75.26237923584999
 20
-350.0871581040616
 30
0.0
 10
75.26237923584999
 20
-350.0871581040616
 30
0.0
 10
78.68060385720499
 20
-344.1943207579341
 30
0.0
 10
80.64723712176959
 20
-337.3547709284884
 30
0.0
 10
80.64723712176959
 20
-330.0519245387929
 30
0.0
 10
80.64723712176959
 20
-307.9605541051882
 30
0.0
 10
62.73858342257289
 20
-290.051939468502
 30
0.0
 10
40.6472129889676
 20
-290.051939468502
 30
0.0
 10
40.6472129889676
 20
-290.051939468502
 30
0.0
 10
54.89290242046633
 20
-314.806201755214
 30
0.0
 10
54.89290242046633
 20
-314.806201755214
 30
0.0
  0
SPLINE
  5
7F
330
1F
100
AcDbEntity
  8
OneCircle
 62
     7
420
 16777215
370
    35
100
AcDbSpline
210
0.0
220
0.0
230
1.0
 70
    27
 71
     3
 72
    11
 73
     7
 74
     0
 42
0.0000000001
 43
0.0000000001
 12
1.0
 22
0.0
 32
0.0
 13
1.0
 23
0.0
 33
0.0
 40
0.0
 40
0.0
 40
0.0
 40
0.0
 40
1.0
 40
1.0
 40
1.0
 40
2.0
 40
2.0
 40
2.0
 40
2.0
 10
50.63789834105783
 20
-317.2628310769192
 30
0.0
 10
50.63789834105783
 20
-317.2628310769192
 30
0.0
 10
56.28234423868717
 20
-327.0392911134394
 30
0.0
 10
56.28234423868717
 20
-327.0392911134394
 30
0.0
 10
56.28234423868717
 20
-327.0392911134394
 30
0.0
 10
50.63789834105783
 20
-317.2628310769192
 30
0.0
 10
50.63789834105783
 20
-317.2628310769192
 30
0.0
  0
SPLINE
  5
80
330
1F
100
AcDbEntity
  8
OneCircle
 62
     7
420
 16777215
370
    35
100
AcDbSpline
210
0.0
220
0.0
230
1.0
 70
    27
 71
     3
 72
    11
 73
     7
 74
     0
 42
0.0000000001
 43
0.0000000001
 12
1.0
 22
0.0
 32
0.0
 13
1.0
 23
0.0
 33
0.0
 40
0.0
 40
0.0
 40
0.0
 40
0.0
 40
1.0
 40
1.0
 40
1.0
 40
2.0
 40
2.0
 40
2.0
 40
2.0
 10
107.094739902464
 20
-327.9237162543325
 30
0.0
 10
107.094739902464
 20
-327.9237162543325
 30
0.0
 10
112.739185800094
 20
-318.1472562178122
 30
0.0
 10
112.739185800094
 20
-318.1472562178122
 30
0.0
 10
112.739185800094
 20
-318.1472562178122
 30
0.0
 10
107.094739902464
 20
-327.9237162543325
 30
0.0
 10
107.094739902464
 20
-327.9237162543325
 30
0.0
  0
SPLINE
  5
81
330
1F
100
AcDbEntity
  8
OneCircle
 62
     7
420
 16777215
370
    35
100
AcDbSpline
210
0.0
220
0.0
230
1.0
 70
     8
 71
     3
 72
    59
 73
    55
 74
     0
 42
0.0000000001
 43
0.0000000001
 12
1.0
 22
0.0
 32
0.0
 13
1.0
 23
0.0
 33
0.0
 40
0.0
 40
0.0
 40
0.0
 40
0.0
 40
1.0
 40
1.0
 40
1.0
 40
2.0
 40
2.0
 40
2.0
 40
3.0
 40
3.0
 40
3.0
 40
4.0
 40
4.0
 40
4.0
 40
5.0
 40
5.0
 40
5.0
 40
6.0
 40
6.0
 40
6.0
 40
7.0
 40
7.0
 40
7.0
 40
8.0
 40
8.0
 40
8.0
 40
9.0
 40
9.0
 40
9.0
 40
10.0
 40
10.0
 40
10.0
 40
11.0
 40
11.0
 40
11.0
 40
12.0
 40
12.0
 40
12.0
 40
13.0
 40
13.0
 40
13.0
 40
14.0
 40
14.0
 40
14.0
 40
15.0
 40
15.0
 40
15.0
 40
16.0
 40
16.0
 40
16.0
 40
17.0
 40
17.0
 40
17.0
 40
18.0
 40
18.0
 40
18.0
 40
18.0
 10
108.7892105535565
 20
-315.8667402226982
 30
0.0
 10
108.7892105535565
 20
-315.8667402226982
 30
0.0
 10
123.647212968218
 20
-290.0519394685016
 30
0.0
 10
123.647212968218
 20
-290.0519394685016
 30
0.0
 10
101.555808083648
 20
-290.0519394685016
 30
0.0
 10
83.6472072816016
 20
-307.9605541051876
 30
0.0
 10
83.6472072816016
 20
-330.0519245387929
 30
0.0
 10
83.6472072816016
 20
-337.3547709284884
 30
0.0
 10
85.6138405461662
 20
-344.1943207579341
 30
0.0
 10
89.03206516752088
 20
-350.0871581040616
 30
0.0
 10
89.03206516752088
 20
-350.0871581040616
 30
0.0
 10
103.1447646559269
 20
-325.6432002592185
 30
0.0
 10
103.1447646559269
 20
-325.6432002592185
 30
0.0
 10
103.1447646559269
 20
-325.6432002592185
 30
0.0
 10
89.03206516752088
 20
-350.0871581040616
 30
0.0
 10
89.03206516752088
 20
-350.0871581040616
 30
0.0
 10
89.04071235941734
 20
-350.1020409203937
 30
0.0
 10
89.04911839456754
 20
-350.1170615405807
 30
0.0
 10
89.05780003742771
 20
-350.1319443569114
 30
0.0
 10
89.05780003742771
 20
-350.1319443569114
 30
0.0
 10
118.0027762936814
 20
-350.1319443569114
 30
0.0
 10
118.0027762936814
 20
-350.1319443569114
 30
0.0
 10
118.0027762936814
 20
-350.1319443569114
 30
0.0
 10
89.05780003742771
 20
-350.1319443569114
 30
0.0
 10
89.05780003742771
 20
-350.1319443569114
 30
0.0
 10
95.98616445137115
 20
-362.0404711858287
 30
0.0
 10
108.8771294129973
 20
-370.0519394485027
 30
0.0
 10
123.6472221913111
 20
-370.0519394485027
 30
0.0
 10
138.4172805186606
 20
-370.0519394485027
 30
0.0
 10
151.3082799312498
 20
-362.0404711858287
 30
0.0
 10
158.2366443451932
 20
-350.1319443569114
 30
0.0
 10
158.2366443451932
 20
-350.1319443569114
 30
0.0
 10
129.2916680889404
 20
-350.1319443569114
 30
0.0
 10
129.2916680889404
 20
-350.1319443569114
 30
0.0
 10
129.2916680889404
 20
-350.1319443569114
 30
0.0
 10
158.2366443451932
 20
-350.1319443569114
 30
0.0
 10
158.2366443451932
 20
-350.1319443569114
 30
0.0
 10
158.2453259880534
 20
-350.1170615405807
 30
0.0
 10
158.2537320232036
 20
-350.1020409203937
 30
0.0
 10
158.2623792151001
 20
-350.0871581040616
 30
0.0
 10
158.2623792151001
 20
-350.0871581040616
 30
0.0
 10
143.5373482973461
 20
-324.5826617917336
 30
0.0
 10
143.5373482973461
 20
-324.5826617917336
 30
0.0
 10
143.5373482973461
 20
-324.5826617917336
 30
0.0
 10
158.2623792151001
 20
-350.0871581040616
 30
0.0
 10
158.2623792151001
 20
-350.0871581040616
 30
0.0
 10
161.680603836455
 20
-344.1943207579341
 30
0.0
 10
163.6472371010193
 20
-337.3547709284884
 30
0.0
 10
163.6472371010193
 20
-330.0519245387929
 30
0.0
 10
163.6472371010193
 20
-307.9605541051876
 30
0.0
 10
145.738583401823
 20
-290.0519394685016
 30
0.0
 10
123.6472129682177
 20
-290.0519394685016
 30
0.0
 10
123.6472129682177
 20
-290.0519394685016
 30
0.0
 10
137.8929023997164
 20
-314.8062017552134
 30
0.0
 10
137.8929023997164
 20
-314.8062017552134
 30
0.0
  0
SPLINE
  5
82
330
1F
100
AcDbEntity
  8
OneCircle
 62
     7
420
 16777215
370
    35
100
AcDbSpline
210
0.0
220
0.0
230
1.0
 70
    27
 71
     3
 72
    11
 73
     7
 74
     0
 42
0.0000000001
 43
0.0000000001
 12
1.0
 22
0.0
 32
0.0
 13
1.0
 23
0.0
 33
0.0
 40
0.0
 40
0.0
 40
0.0
 40
0.0
 40
1.0
 40
1.0
 40
1.0
 40
2.0
 40
2.0
 40
2.0
 40
2.0
 10
133.6378983203079
 20
-317.2628310769192
 30
0.0
 10
133.6378983203079
 20
-317.2628310769192
 30
0.0
 10
139.2823442179372
 20
-327.0392911134394
 30
0.0
 10
139.2823442179372
 20
-327.0392911134394
 30
0.0
 10
139.2823442179372
 20
-327.0392911134394
 30
0.0
 10
133.6378983203079
 20
-317.2628310769192
 30
0.0
 10
133.6378983203079
 20
-317.2628310769192
 30
0.0
  0
SPLINE
  5
83
330
1F
100
AcDbEntity
  8
OneCircle
 62
     7
420
 16777215
370
    35
100
AcDbSpline
210
0.0
220
0.0
230
1.0
 70
    27
 71
     3
 72
    11
 73
     7
 74
     0
 42
0.0000000001
 43
0.0000000001
 12
1.0
 22
0.0
 32
0.0
 13
1.0
 23
0.0
 33
0.0
 40
0.0
 40
0.0
 40
0.0
 40
0.0
 40
1.0
 40
1.0
 40
1.0
 40
2.0
 40
2.0
 40
2.0
 40
2.0
 10
189.9002954373179
 20
-327.9237162543325
 30
0.0
 10
189.9002954373179
 20
-327.9237162543325
 30
0.0
 10
195.5447413349478
 20
-318.1472562178122
 30
0.0
 10
195.5447413349478
 20
-318.1472562178122
 30
0.0
 10
195.5447413349478
 20
-318.1472562178122
 30
0.0
 10
189.9002954373179
 20
-327.9237162543325
 30
0.0
 10
189.9002954373179
 20
-327.9237162543325
 30
0.0
  0
SPLINE
  5
84
330
1F
100
AcDbEntity
  8
OneCircle
 62
     7
420
 16777215
370
    35
100
AcDbSpline
210
0.0
220
0.0
230
1.0
 70
     8
 71
     3
 72
    59
 73
    55
 74
     0
 42
0.0000000001
 43
0.0000000001
 12
1.0
 22
0.0
 32
0.0
 13
1.0
 23
0.0
 33
0.0
 40
0.0
 40
0.0
 40
0.0
 40
0.0
 40
1.0
 40
1.0
 40
1.0
 40
2.0
 40
2.0
 40
2.0
 40
3.0
 40
3.0
 40
3.0
 40
4.0
 40
4.0
 40
4.0
 40
5.0
 40
5.0
 40
5.0
 40
6.0
 40
6.0
 40
6.0
 40
7.0
 40
7.0
 40
7.0
 40
8.0
 40
8.0
 40
8.0
 40
9.0
 40
9.0
 40
9.0
 40
10.0
 40
10.0
 40
10.0
 40
11.0
 40
11.0
 40
11.0
 40
12.0
 40
12.0
 40
12.0
 40
13.0
 40
13.0
 40
13.0
 40
14.0
 40
14.0
 40
14.0
 40
15.0
 40
15.0
 40
15.0
 40
16.0
 40
16.0
 40
16.0
 40
17.0
 40
17.0
 40
17.0
 40
18.0
 40
18.0
 40
18.0
 40
18.0
 10
191.5947660884103
 20
-315.8667402226982
 30
0.0
 10
191.5947660884103
 20
-315.8667402226982
 30
0.0
 10
206.4527685030718
 20
-290.051939468502
 30
0.0
 10
206.4527685030718
 20
-290.051939468502
 30
0.0
 10
184.3613636185018
 20
-290.051939468502
 30
0.0
 10
166.4527628164554
 20
-307.9605541051882
 30
0.0
 10
166.4527628164554
 20
-330.0519245387929
 30
0.0
 10
166.4527628164554
 20
-337.3547709284884
 30
0.0
 10
168.4193960810197
 20
-344.1943207579341
 30
0.0
 10
171.8376207023747
 20
-350.0871581040616
 30
0.0
 10
171.8376207023747
 20
-350.0871581040616
 30
0.0
 10
185.9503201907807
 20
-325.6432002592185
 30
0.0
 10
185.9503201907807
 20
-325.6432002592185
 30
0.0
 10
185.9503201907807
 20
-325.6432002592185
 30
0.0
 10
171.8376207023747
 20
-350.0871581040616
 30
0.0
 10
171.8376207023747
 20
-350.0871581040616
 30
0.0
 10
171.8462678942711
 20
-350.1020409203937
 30
0.0
 10
171.8546739294213
 20
-350.1170615405807
 30
0.0
 10
171.8633555722815
 20
-350.1319443569114
 30
0.0
 10
171.8633555722815
 20
-350.1319443569114
 30
0.0
 10
200.8083318285352
 20
-350.1319443569114
 30
0.0
 10
200.8083318285352
 20
-350.1319443569114
 30
0.0
 10
200.8083318285352
 20
-350.1319443569114
 30
0.0
 10
171.8633555722815
 20
-350.1319443569114
 30
0.0
 10
171.8633555722815
 20
-350.1319443569114
 30
0.0
 10
178.7917199862249
 20
-362.0404711858326
 30
0.0
 10
191.6826849478511
 20
-370.0519394485027
 30
0.0
 10
206.4527777261649
 20
-370.0519394485027
 30
0.0
 10
221.2228360535144
 20
-370.0519394485027
 30
0.0
 10
234.1138354661036
 20
-362.0404711858326
 30
0.0
 10
241.0421998800473
 20
-350.1319443569114
 30
0.0
 10
241.0421998800473
 20
-350.1319443569114
 30
0.0
 10
212.0972236237942
 20
-350.1319443569114
 30
0.0
 10
212.0972236237942
 20
-350.1319443569114
 30
0.0
 10
212.0972236237942
 20
-350.1319443569114
 30
0.0
 10
241.0421998800473
 20
-350.1319443569114
 30
0.0
 10
241.0421998800473
 20
-350.1319443569114
 30
0.0
 10
241.0508815229068
 20
-350.1170615405807
 30
0.0
 10
241.0592875580574
 20
-350.1020409203937
 30
0.0
 10
241.0679347499538
 20
-350.0871581040616
 30
0.0
 10
241.0679347499538
 20
-350.0871581040616
 30
0.0
 10
226.3429038321995
 20
-324.5826617917343
 30
0.0
 10
226.3429038321995
 20
-324.5826617917343
 30
0.0
 10
226.3429038321995
 20
-324.5826617917343
 30
0.0
 10
241.0679347499538
 20
-350.0871581040616
 30
0.0
 10
241.0679347499538
 20
-350.0871581040616
 30
0.0
 10
244.4861593713092
 20
-344.1943207579341
 30
0.0
 10
246.4527926358728
 20
-337.3547709284884
 30
0.0
 10
246.4527926358728
 20
-330.0519245387929
 30
0.0
 10
246.4527926358728
 20
-307.9605541051882
 30
0.0
 10
228.5441389366767
 20
-290.051939468502
 30
0.0
 10
206.4527685030714
 20
-290.051939468502
 30
0.0
 10
206.4527685030714
 20
-290.051939468502
 30
0.0
 10
220.6984579345705
 20
-314.806201755214
 30
0.0
 10
220.6984579345705
 20
-314.806201755214
 30
0.0
  0
SPLINE
  5
85
330
1F
100
AcDbEntity
  8
OneCircle
 62
     7
420
 16777215
370
    35
100
AcDbSpline
210
0.0
220
0.0
230
1.0
 70
    27
 71
     3
 72
    11
 73
     7
 74
     0
 42
0.0000000001
 43
0.0000000001
 12
1.0
 22
0.0
 32
0.0
 13
1.0
 23
0.0
 33
0.0
 40
0.0
 40
0.0
 40
0.0
 40
0.0
 40
1.0
 40
1.0
 40
1.0
 40
2.0
 40
2.0
 40
2.0
 40
2.0
 10
216.4434538551617
 20
-317.2628310769192
 30
0.0
 10
216.4434538551617
 20
-317.2628310769192
 30
0.0
 10
222.0878997527913
 20
-327.0392911134394
 30
0.0
 10
222.0878997527913
 20
-327.0392911134394
 30
0.0
 10
222.0878997527913
 20
-327.0392911134394
 30
0.0
 10
216.4434538551617
 20
-317.2628310769192
 30
0.0
 10
216.4434538551617
 20
-317.2628310769192
 30
0.0
  0
SPLINE
  5
86
330
1F
100
AcDbEntity
  8
OneCircle
 62
     7
420
 16777215
370
    35
100
AcDbSpline
210
0.0
220
0.0
230
1.0
 70
    27
 71
     3
 72
    11
 73
     7
 74
     0
 42
0.0000000001
 43
0.0000000001
 12
1.0
 22
0.0
 32
0.0
 13
1.0
 23
0.0
 33
0.0
 40
0.0
 40
0.0
 40
0.0
 40
0.0
 40
1.0
 40
1.0
 40
1.0
 40
2.0
 40
2.0
 40
2.0
 40
2.0
 10
272.9002954165679
 20
-327.9237162543325
 30
0.0
 10
272.9002954165679
 20
-327.9237162543325
 30
0.0
 10
278.5447413141976
 20
-318.1472562178122
 30
0.0
 10
278.5447413141976
 20
-318.1472562178122
 30
0.0
 10
278.5447413141976
 20
-318.1472562178122
 30
0.0
 10
272.9002954165679
 20
-327.9237162543325
 30
0.0
 10
272.9002954165679
 20
-327.9237162543325
 30
0.0
  0
SPLINE
  5
87
330
1F
100
AcDbEntity
  8
OneCircle
 62
     7
420
 16777215
370
    35
100
AcDbSpline
210
0.0
220
0.0
230
1.0
 70
     8
 71
     3
 72
    59
 73
    55
 74
     0
 42
0.0000000001
 43
0.0000000001
 12
1.0
 22
0.0
 32
0.0
 13
1.0
 23
0.0
 33
0.0
 40
0.0
 40
0.0
 40
0.0
 40
0.0
 40
1.0
 40
1.0
 40
1.0
 40
2.0
 40
2.0
 40
2.0
 40
3.0
 40
3.0
 40
3.0
 40
4.0
 40
4.0
 40
4.0
 40
5.0
 40
5.0
 40
5.0
 40
6.0
 40
6.0
 40
6.0
 40
7.0
 40
7.0
 40
7.0
 40
8.0
 40
8.0
 40
8.0
 40
9.0
 40
9.0
 40
9.0
 40
10.0
 40
10.0
 40
10.0
 40
11.0
 40
11.0
 40
11.0
 40
12.0
 40
12.0
 40
12.0
 40
13.0
 40
13.0
 40
13.0
 40
14.0
 40
14.0
 40
14.0
 40
15.0
 40
15.0
 40
15.0
 40
16.0
 40
16.0
 40
16.0
 40
17.0
 40
17.0
 40
17.0
 40
18.0
 40
18.0
 40
18.0
 40
18.0
 10
274.5947660676604
 20
-315.8667402226982
 30
0.0
 10
274.5947660676604
 20
-315.8667402226982
 30
0.0
 10
289.4527684823218
 20
-290.0519394685016
 30
0.0
 10
289.4527684823218
 20
-290.0519394685016
 30
0.0
 10
267.3613635977516
 20
-290.0519394685016
 30
0.0
 10
249.4527627957054
 20
-307.9605541051876
 30
0.0
 10
249.4527627957054
 20
-330.0519245387929
 30
0.0
 10
249.4527627957054
 20
-337.3547709284884
 30
0.0
 10
251.4193960602697
 20
-344.1943207579341
 30
0.0
 10
254.8376206816251
 20
-350.0871581040616
 30
0.0
 10
254.8376206816251
 20
-350.0871581040616
 30
0.0
 10
268.9503201700307
 20
-325.6432002592185
 30
0.0
 10
268.9503201700307
 20
-325.6432002592185
 30
0.0
 10
268.9503201700307
 20
-325.6432002592185
 30
0.0
 10
254.8376206816251
 20
-350.0871581040616
 30
0.0
 10
254.8376206816251
 20
-350.0871581040616
 30
0.0
 10
254.8462678735215
 20
-350.1020409203937
 30
0.0
 10
254.8546739086714
 20
-350.1170615405807
 30
0.0
 10
254.8633555515316
 20
-350.1319443569114
 30
0.0
 10
254.8633555515316
 20
-350.1319443569114
 30
0.0
 10
283.8083318077856
 20
-350.1319443569114
 30
0.0
 10
283.8083318077856
 20
-350.1319443569114
 30
0.0
 10
283.8083318077856
 20
-350.1319443569114
 30
0.0
 10
254.8633555515316
 20
-350.1319443569114
 30
0.0
 10
254.8633555515316
 20
-350.1319443569114
 30
0.0
 10
261.7917199654747
 20
-362.0404711858287
 30
0.0
 10
274.6826849271014
 20
-370.0519394485027
 30
0.0
 10
289.4527777054146
 20
-370.0519394485027
 30
0.0
 10
304.2228360327647
 20
-370.0519394485027
 30
0.0
 10
317.1138354453533
 20
-362.0404711858287
 30
0.0
 10
324.0421998592971
 20
-350.1319443569114
 30
0.0
 10
324.0421998592971
 20
-350.1319443569114
 30
0.0
 10
295.0972236030443
 20
-350.1319443569114
 30
0.0
 10
295.0972236030443
 20
-350.1319443569114
 30
0.0
 10
295.0972236030443
 20
-350.1319443569114
 30
0.0
 10
324.0421998592971
 20
-350.1319443569114
 30
0.0
 10
324.0421998592971
 20
-350.1319443569114
 30
0.0
 10
324.0508815021573
 20
-350.1170615405807
 30
0.0
 10
324.0592875373077
 20
-350.1020409203937
 30
0.0
 10
324.0679347292042
 20
-350.0871581040616
 30
0.0
 10
324.0679347292042
 20
-350.0871581040616
 30
0.0
 10
309.3429038114499
 20
-324.5826617917336
 30
0.0
 10
309.3429038114499
 20
-324.5826617917336
 30
0.0
 10
309.3429038114499
 20
-324.5826617917336
 30
0.0
 10
324.0679347292042
 20
-350.0871581040616
 30
0.0
 10
324.0679347292042
 20
-350.0871581040616
 30
0.0
 10
327.4861593505589
 20
-344.1943207579341
 30
0.0
 10
329.4527926151238
 20
-337.3547709284884
 30
0.0
 10
329.4527926151238
 20
-330.0519245387929
 30
0.0
 10
329.4527926151238
 20
-307.9605541051876
 30
0.0
 10
311.5441389159265
 20
-290.0519394685016
 30
0.0
 10
289.4527684823218
 20
-290.0519394685016
 30
0.0
 10
289.4527684823218
 20
-290.0519394685016
 30
0.0
 10
303.6984579138202
 20
-314.8062017552134
 30
0.0
 10
303.6984579138202
 20
-314.8062017552134
 30
0.0
  0
SPLINE
  5
88
330
1F
100
AcDbEntity
  8
OneCircle
 62
     7
420
 16777215
370
    35
100
AcDbSpline
210
0.0
220
0.0
230
1.0
 70
    27
 71
     3
 72
    11
 73
     7
 74
     0
 42
0.0000000001
 43
0.0000000001
 12
1.0
 22
0.0
 32
0.0
 13
1.0
 23
0.0
 33
0.0
 40
0.0
 40
0.0
 40
0.0
 40
0.0
 40
1.0
 40
1.0
 40
1.0
 40
2.0
 40
2.0
 40
2.0
 40
2.0
 10
299.4434538344121
 20
-317.2628310769192
 30
0.0
 10
299.4434538344121
 20
-317.2628310769192
 30
0.0
 10
305.0878997320411
 20
-327.0392911134394
 30
0.0
 10
305.0878997320411
 20
-327.0392911134394
 30
0.0
 10
305.0878997320411
 20
-327.0392911134394
 30
0.0
 10
299.4434538344121
 20
-317.2628310769192
 30
0.0
 10
299.4434538344121
 20
-317.2628310769192
 30
0.0
  0
SPLINE
  5
89
330
1F
100
AcDbEntity
  8
OneCircle
 62
     7
420
 16777215
370
    35
100
AcDbSpline
210
0.0
220
0.0
230
1.0
 70
    27
 71
     3
 72
    11
 73
     7
 74
     0
 42
0.0000000001
 43
0.0000000001
 12
1.0
 22
0.0
 32
0.0
 13
1.0
 23
0.0
 33
0.0
 40
0.0
 40
0.0
 40
0.0
 40
0.0
 40
1.0
 40
1.0
 40
1.0
 40
2.0
 40
2.0
 40
2.0
 40
2.0
 10
356.0947398402142
 20
-327.9237162543325
 30
0.0
 10
356.0947398402142
 20
-327.9237162543325
 30
0.0
 10
361.739185737842
 20
-318.1472562178122
 30
0.0
 10
361.739185737842
 20
-318.1472562178122
 30
0.0
 10
361.739185737842
 20
-318.1472562178122
 30
0.0
 10
356.0947398402142
 20
-327.9237162543325
 30
0.0
 10
356.0947398402142
 20
-327.9237162543325
 30
0.0
  0
SPLINE
  5
8A
330
1F
100
AcDbEntity
  8
OneCircle
 62
     7
420
 16777215
370
    35
100
AcDbSpline
210
0.0
220
0.0
230
1.0
 70
     8
 71
     3
 72
    59
 73
    55
 74
     0
 42
0.0000000001
 43
0.0000000001
 12
1.0
 22
0.0
 32
0.0
 13
1.0
 23
0.0
 33
0.0
 40
0.0
 40
0.0
 40
0.0
 40
0.0
 40
1.0
 40
1.0
 40
1.0
 40
2.0
 40
2.0
 40
2.0
 40
3.0
 40
3.0
 40
3.0
 40
4.0
 40
4.0
 40
4.0
 40
5.0
 40
5.0
 40
5.0
 40
6.0
 40
6.0
 40
6.0
 40
7.0
 40
7.0
 40
7.0
 40
8.0
 40
8.0
 40
8.0
 40
9.0
 40
9.0
 40
9.0
 40
10.0
 40
10.0
 40
10.0
 40
11.0
 40
11.0
 40
11.0
 40
12.0
 40
12.0
 40
12.0
 40
13.0
 40
13.0
 40
13.0
 40
14.0
 40
14.0
 40
14.0
 40
15.0
 40
15.0
 40
15.0
 40
16.0
 40
16.0
 40
16.0
 40
17.0
 40
17.0
 40
17.0
 40
18.0
 40
18.0
 40
18.0
 40
18.0
 10
357.7892104913061
 20
-315.8667402226982
 30
0.0
 10
357.7892104913061
 20
-315.8667402226982
 30
0.0
 10
372.6472129059682
 20
-290.0519394685016
 30
0.0
 10
372.6472129059682
 20
-290.0519394685016
 30
0.0
 10
350.5558080213972
 20
-290.0519394685016
 30
0.0
 10
332.6472072193511
 20
-307.9605541051876
 30
0.0
 10
332.6472072193511
 20
-330.0519245387929
 30
0.0
 10
332.6472072193511
 20
-337.3547709284884
 30
0.0
 10
334.6138404839154
 20
-344.1943207579341
 30
0.0
 10
338.0320651052708
 20
-350.0871581040616
 30
0.0
 10
338.0320651052708
 20
-350.0871581040616
 30
0.0
 10
352.1447645936764
 20
-325.6432002592185
 30
0.0
 10
352.1447645936764
 20
-325.6432002592185
 30
0.0
 10
352.1447645936764
 20
-325.6432002592185
 30
0.0
 10
338.0320651052708
 20
-350.0871581040616
 30
0.0
 10
338.0320651052708
 20
-350.0871581040616
 30
0.0
 10
338.0407122971672
 20
-350.1020409203937
 30
0.0
 10
338.0491183323171
 20
-350.1170615405807
 30
0.0
 10
338.0577999751773
 20
-350.1319443569114
 30
0.0
 10
338.0577999751773
 20
-350.1319443569114
 30
0.0
 10
367.0027762314326
 20
-350.1319443569114
 30
0.0
 10
367.0027762314326
 20
-350.1319443569114
 30
0.0
 10
367.0027762314326
 20
-350.1319443569114
 30
0.0
 10
338.0577999751773
 20
-350.1319443569114
 30
0.0
 10
338.0577999751773
 20
-350.1319443569114
 30
0.0
 10
344.9861643891204
 20
-362.0404711858287
 30
0.0
 10
357.877129350749
 20
-370.0519394485027
 30
0.0
 10
372.647222129061
 20
-370.0519394485027
 30
0.0
 10
387.4172804564104
 20
-370.0519394485027
 30
0.0
 10
400.3082798690003
 20
-362.0404711858287
 30
0.0
 10
407.2366442829415
 20
-350.1319443569114
 30
0.0
 10
407.2366442829415
 20
-350.1319443569114
 30
0.0
 10
378.2916680266887
 20
-350.1319443569114
 30
0.0
 10
378.2916680266887
 20
-350.1319443569114
 30
0.0
 10
378.2916680266887
 20
-350.1319443569114
 30
0.0
 10
407.2366442829415
 20
-350.1319443569114
 30
0.0
 10
407.2366442829415
 20
-350.1319443569114
 30
0.0
 10
407.2453259258042
 20
-350.1170615405807
 30
0.0
 10
407.2537319609541
 20
-350.1020409203937
 30
0.0
 10
407.2623791528486
 20
-350.0871581040616
 30
0.0
 10
407.2623791528486
 20
-350.0871581040616
 30
0.0
 10
392.5373482350969
 20
-324.5826617917336
 30
0.0
 10
392.5373482350969
 20
-324.5826617917336
 30
0.0
 10
392.5373482350969
 20
-324.5826617917336
 30
0.0
 10
407.2623791528486
 20
-350.0871581040616
 30
0.0
 10
407.2623791528486
 20
-350.0871581040616
 30
0.0
 10
410.6806037742027
 20
-344.1943207579341
 30
0.0
 10
412.6472370387689
 20
-337.3547709284884
 30
0.0
 10
412.6472370387689
 20
-330.0519245387929
 30
0.0
 10
412.6472370387689
 20
-307.9605541051876
 30
0.0
 10
394.7385833395716
 20
-290.0519394685016
 30
0.0
 10
372.6472129059682
 20
-290.0519394685016
 30
0.0
 10
372.6472129059682
 20
-290.0519394685016
 30
0.0
 10
386.892902337466
 20
-314.8062017552134
 30
0.0
 10
386.892902337466
 20
-314.8062017552134
 30
0.0
  0
SPLINE
  5
8B
330
1F
100
AcDbEntity
  8
OneCircle
 62
     7
420
 16777215
370
    35
100
AcDbSpline
210
0.0
220
0.0
230
1.0
 70
    27
 71
     3
 72
    11
 73
     7
 74
     0
 42
0.0000000001
 43
0.0000000001
 12
1.0
 22
0.0
 32
0.0
 13
1.0
 23
0.0
 33
0.0
 40
0.0
 40
0.0
 40
0.0
 40
0.0
 40
1.0
 40
1.0
 40
1.0
 40
2.0
 40
2.0
 40
2.0
 40
2.0
 10
382.6378982580565
 20
-317.2628310769192
 30
0.0
 10
382.6378982580565
 20
-317.2628310769192
 30
0.0
 10
388.2823441556874
 20
-327.0392911134394
 30
0.0
 10
388.2823441556874
 20
-327.0392911134394
 30
0.0
 10
388.2823441556874
 20
-327.0392911134394
 30
0.0
 10
382.6378982580565
 20
-317.2628310769192
 30
0.0
 10
382.6378982580565
 20
-317.2628310769192
 30
0.0
  0
ENDSEC
  0
SECTION
  2
OBJECTS
  0
DICTIONARY
  5
C
330
0
100
AcDbDictionary
281
     1
  3
ACAD_GROUP
350
D
  3
ACAD_LAYOUT
350
1A
  3
ACAD_MATERIAL
350
3B
  3
ACAD_MLEADERSTYLE
350
8D
  3
ACAD_MLINESTYLE
350
17
  3
ACAD_PLOTSETTINGS
350
19
  3
ACAD_PLOTSTYLENAME
350
E
  3
ACAD_TABLESTYLE
350
8C
  3
ACAD_VISUALSTYLE
350
2A
  0
SUN
  5
3F
330
29
100
AcDbSun
 90
        1
290
     0
 63
     7
421
 16777215
 40
1.0
291
     1
 91
  2455826
 92
 54000000
292
     0
 70
     2
 71
   256
280
     1
  0
DICTIONARY
  5
D
102
{ACAD_REACTORS
330
C
102
}
330
C
100
AcDbDictionary
281
     1
  0
DICTIONARY
  5
1A
102
{ACAD_REACTORS
330
C
102
}
330
C
100
AcDbDictionary
281
     1
  3
Layout1
350
1E
  3
Layout2
350
26
  3
Model
350
22
  0
DICTIONARY
  5
3B
102
{ACAD_REACTORS
330
C
102
}
330
C
100
AcDbDictionary
281
     1
  3
ByBlock
350
3D
  3
ByLayer
350
3C
  3
Global
350
3E
  0
DICTIONARY
  5
8D
102
{ACAD_REACTORS
330
C
102
}
330
C
100
AcDbDictionary
281
     1
  0
DICTIONARY
  5
17
102
{ACAD_REACTORS
330
C
102
}
330
C
100
AcDbDictionary
281
     1
  3
Standard
350
18
  0
DICTIONARY
  5
19
102
{ACAD_REACTORS
330
C
102
}
330
C
100
AcDbDictionary
281
     1
  0
ACDBDICTIONARYWDFLT
  5
E
102
{ACAD_REACTORS
330
C
102
}
330
C
100
AcDbDictionary
281
     1
  3
Normal
350
F
100
AcDbDictionaryWithDefault
340
F
  0
DICTIONARY
  5
8C
102
{ACAD_REACTORS
330
C
102
}
330
C
100
AcDbDictionary
281
     1
  0
DICTIONARY
  5
2A
102
{ACAD_REACTORS
330
C
102
}
330
C
100
AcDbDictionary
281
     1
  3
2dWireframe
350
2F
  3
3D Hidden
350
31
  3
3dWireframe
350
30
  3
Basic
350
32
  3
Brighten
350
36
  3
ColorChange
350
3A
  3
Conceptual
350
34
  3
Dim
350
35
  3
Facepattern
350
39
  3
Flat
350
2B
  3
FlatWithEdges
350
2C
  3
Gouraud
350
2D
  3
GouraudWithEdges
350
2E
  3
Linepattern
350
38
  3
Realistic
350
33
  3
Thicken
350
37
  0
LAYOUT
  5
1E
102
{ACAD_REACTORS
330
1A
102
}
330
1A
100
AcDbPlotSettings
  1

  2
none_device
  4

  6

 40
0.0
 41
0.0
 42
0.0
 43
0.0
 44
0.0
 45
0.0
 46
0.0
 47
0.0
 48
0.0
 49
0.0
140
0.0
141
0.0
142
1.0
143
1.0
 70
   688
 72
     0
 73
     0
 74
     5
  7

 75
    16
 76
     0
 77
     2
 78
   300
147
1.0
148
0.0
149
0.0
100
AcDbLayout
  1
Layout1
 70
     1
 71
     1
 10
0.0
 20
0.0
 11
12.0
 21
9.0
 12
0.0
 22
0.0
 32
0.0
 14
1.000000000000000E+20
 24
1.000000000000000E+20
 34
1.000000000000000E+20
 15
-1.000000000000000E+20
 25
-1.000000000000000E+20
 35
-1.000000000000000E+20
146
0.0
 13
0.0
 23
0.0
 33
0.0
 16
1.0
 26
0.0
 36
0.0
 17
0.0
 27
1.0
 37
0.0
 76
     0
330
1B
  0
LAYOUT
  5
26
102
{ACAD_REACTORS
330
1A
102
}
330
1A
100
AcDbPlotSettings
  1

  2
none_device
  4

  6

 40
0.0
 41
0.0
 42
0.0
 43
0.0
 44
0.0
 45
0.0
 46
0.0
 47
0.0
 48
0.0
 49
0.0
140
0.0
141
0.0
142
1.0
143
1.0
 70
   688
 72
     0
 73
     0
 74
     5
  7

 75
    16
 76
     0
 77
     2
 78
   300
147
1.0
148
0.0
149
0.0
100
AcDbLayout
  1
Layout2
 70
     1
 71
     2
 10
0.0
 20
0.0
 11
0.0
 21
0.0
 12
0.0
 22
0.0
 32
0.0
 14
0.0
 24
0.0
 34
0.0
 15
0.0
 25
0.0
 35
0.0
146
0.0
 13
0.0
 23
0.0
 33
0.0
 16
1.0
 26
0.0
 36
0.0
 17
0.0
 27
1.0
 37
0.0
 76
     0
330
23
  0
LAYOUT
  5
22
102
{ACAD_REACTORS
330
1A
102
}
330
1A
100
AcDbPlotSettings
  1

  2
none_device
  4

  6

 40
0.0
 41
0.0
 42
0.0
 43
0.0
 44
0.0
 45
0.0
 46
0.0
 47
0.0
 48
0.0
 49
0.0
140
0.0
141
0.0
142
1.0
143
1.0
 70
  1712
 72
     0
 73
     0
 74
     0
  7

 75
     0
 76
     0
 77
     2
 78
   300
147
1.0
148
0.0
149
0.0
100
AcDbLayout
  1
Model
 70
     1
 71
     0
 10
0.0
 20
0.0
 11
12.0
 21
9.0
 12
0.0
 22
0.0
 32
0.0
 14
1.000000000000000E+20
 24
1.000000000000000E+20
 34
1.000000000000000E+20
 15
-1.000000000000000E+20
 25
-1.000000000000000E+20
 35
-1.000000000000000E+20
146
0.0
 13
0.0
 23
0.0
 33
0.0
 16
1.0
 26
0.0
 36
0.0
 17
0.0
 27
1.0
 37
0.0
 76
     0
330
1F
331
29
  0
MATERIAL
  5
3D
102
{ACAD_REACTORS
330
3B
102
}
330
3B
100
AcDbMaterial
  1
ByBlock
 72
     1
 94
      127
  0
MATERIAL
  5
3C
102
{ACAD_REACTORS
330
3B
102
}
330
3B
100
AcDbMaterial
  1
ByLayer
 72
     1
 94
      127
  0
MATERIAL
  5
3E
102
{ACAD_REACTORS
330
3B
102
}
330
3B
100
AcDbMaterial
  1
Global
 72
     1
 94
      127
  0
MLINESTYLE
  5
18
102
{ACAD_REACTORS
330
17
102
}
330
17
100
AcDbMlineStyle
  2
Standard
 70
     0
  3

 62
   256
 51
90.0
 52
90.0
 71
     2
 49
0.5
 62
   256
  6
BYLAYER
 49
-0.5
 62
   256
  6
BYLAYER
  0
ACDBPLACEHOLDER
  5
F
102
{ACAD_REACTORS
330
E
102
}
330
E
  0
VISUALSTYLE
  5
2F
102
{ACAD_REACTORS
330
2A
102
}
330
2A
100
AcDbVisualStyle
  2
2dWireframe
 70
     4
177
     2
291
     0
 71
     0
176
     1
 72
     2
176
     1
 73
     0
176
     1
 90
        0
176
     1
 40
-0.6
176
     1
 41
-30.0
176
     1
 62
     5
 63
     7
421
 16777215
176
     1
 74
     1
176
     1
 91
        4
176
     1
 64
     7
176
     1
 65
   257
176
     1
 75
     1
176
     1
175
     1
176
     1
 42
1.0
176
     1
 92
        0
176
     1
 66
   257
176
     1
 43
1.0
176
     1
 76
     1
176
     1
 77
     6
176
     1
 78
     2
176
     1
 67
     7
176
     1
 79
     5
176
     1
170
     0
176
     1
171
     0
176
     1
290
     0
176
     1
 93
        1
176
     1
 44
0.0
176
     1
173
     0
176
     1
  0
VISUALSTYLE
  5
31
102
{ACAD_REACTORS
330
2A
102
}
330
2A
100
AcDbVisualStyle
  2
3D Hidden
 70
     6
177
     2
291
     0
 71
     1
176
     1
 72
     2
176
     1
 73
     2
176
     1
 90
        0
176
     1
 40
-0.6
176
     1
 41
-30.0
176
     1
 62
     5
 63
     7
421
 16777215
176
     1
 74
     2
176
     1
 91
        2
176
     1
 64
     7
176
     1
 65
   257
176
     1
 75
     2
176
     1
175
     1
176
     1
 42
40.0
176
     1
 92
        0
176
     1
 66
   257
176
     1
 43
1.0
176
     1
 76
     1
176
     1
 77
     6
176
     1
 78
     2
176
     1
 67
     7
176
     1
 79
     3
176
     1
170
     0
176
     1
171
     0
176
     1
290
     0
176
     1
 93
        1
176
     1
 44
0.0
176
     1
173
     0
176
     1
  0
VISUALSTYLE
  5
30
102
{ACAD_REACTORS
330
2A
102
}
330
2A
100
AcDbVisualStyle
  2
3dWireframe
 70
     5
177
     2
291
     0
 71
     0
176
     1
 72
     2
176
     1
 73
     0
176
     1
 90
        0
176
     1
 40
-0.6
176
     1
 41
-30.0
176
     1
 62
     5
 63
     7
421
 16777215
176
     1
 74
     1
176
     1
 91
        4
176
     1
 64
     7
176
     1
 65
   257
176
     1
 75
     1
176
     1
175
     1
176
     1
 42
1.0
176
     1
 92
        0
176
     1
 66
   257
176
     1
 43
1.0
176
     1
 76
     1
176
     1
 77
     6
176
     1
 78
     2
176
     1
 67
     7
176
     1
 79
     5
176
     1
170
     0
176
     1
171
     0
176
     1
290
     0
176
     1
 93
        1
176
     1
 44
0.0
176
     1
173
     0
176
     1
  0
VISUALSTYLE
  5
32
102
{ACAD_REACTORS
330
2A
102
}
330
2A
100
AcDbVisualStyle
  2
Basic
 70
     7
177
     2
291
     1
 71
     1
176
     1
 72
     0
176
     1
 73
     1
176
     1
 90
        0
176
     1
 40
-0.6
176
     1
 41
-30.0
176
     1
 62
     5
 63
     7
421
 16777215
176
     1
 74
     0
176
     1
 91
        4
176
     1
 64
     7
176
     1
 65
   257
176
     1
 75
     1
176
     1
175
     1
176
     1
 42
1.0
176
     1
 92
        8
176
     1
 66
     7
176
     1
 43
1.0
176
     1
 76
     1
176
     1
 77
     6
176
     1
 78
     2
176
     1
 67
     7
176
     1
 79
     5
176
     1
170
     0
176
     1
171
     0
176
     1
290
     0
176
     1
 93
        1
176
     1
 44
0.0
176
     1
173
     0
176
     1
  0
VISUALSTYLE
  5
36
102
{ACAD_REACTORS
330
2A
102
}
330
2A
100
AcDbVisualStyle
  2
Brighten
 70
    12
177
     2
291
     1
 71
     2
176
     1
 72
     2
176
     1
 73
     0
176
     1
 90
        0
176
     1
 40
-0.6
176
     1
 41
-30.0
176
     1
 62
     5
 63
     7
421
 16777215
176
     1
 74
     1
176
     1
 91
        4
176
     1
 64
     7
176
     1
 65
   257
176
     1
 75
     1
176
     1
175
     1
176
     1
 42
1.0
176
     1
 92
        8
176
     1
 66
     7
176
     1
 43
1.0
176
     1
 76
     1
176
     1
 77
     6
176
     1
 78
     2
176
     1
 67
     7
176
     1
 79
     5
176
     1
170
     0
176
     1
171
     0
176
     1
290
     0
176
     1
 93
        1
176
     1
 44
50.0
176
     1
173
     0
176
     1
  0
VISUALSTYLE
  5
3A
102
{ACAD_REACTORS
330
2A
102
}
330
2A
100
AcDbVisualStyle
  2
ColorChange
 70
    16
177
     2
291
     1
 71
     2
176
     1
 72
     2
176
     1
 73
     3
176
     1
 90
        0
176
     1
 40
-0.6
176
     1
 41
-30.0
176
     1
 62
     5
 63
     8
421
  8421504
176
     1
 74
     1
176
     1
 91
        4
176
     1
 64
     7
176
     1
 65
   257
176
     1
 75
     1
176
     1
175
     1
176
     1
 42
1.0
176
     1
 92
        8
176
     1
 66
     8
424
  8421504
176
     1
 43
1.0
176
     1
 76
     1
176
     1
 77
     6
176
     1
 78
     2
176
     1
 67
     7
176
     1
 79
     5
176
     1
170
     0
176
     1
171
     0
176
     1
290
     0
176
     1
 93
        1
176
     1
 44
0.0
176
     1
173
     0
176
     1
  0
VISUALSTYLE
  5
34
102
{ACAD_REACTORS
330
2A
102
}
330
2A
100
AcDbVisualStyle
  2
Conceptual
 70
     9
177
     2
291
     0
 71
     3
176
     1
 72
     2
176
     1
 73
     0
176
     1
 90
        0
176
     1
 40
-0.6
176
     1
 41
-30.0
176
     1
 62
     5
 63
     7
421
 16777215
176
     1
 74
     2
176
     1
 91
        2
176
     1
 64
     7
176
     1
 65
   257
176
     1
 75
     1
176
     1
175
     1
176
     1
 42
40.0
176
     1
 92
        8
176
     1
 66
     7
176
     1
 43
1.0
176
     1
 76
     1
176
     1
 77
     6
176
     1
 78
     2
176
     1
 67
     7
176
     1
 79
     3
176
     1
170
     0
176
     1
171
     0
176
     1
290
     0
176
     1
 93
        1
176
     1
 44
0.0
176
     1
173
     0
176
     1
  0
VISUALSTYLE
  5
35
102
{ACAD_REACTORS
330
2A
102
}
330
2A
100
AcDbVisualStyle
  2
Dim
 70
    11
177
     2
291
     1
 71
     2
176
     1
 72
     2
176
     1
 73
     0
176
     1
 90
        0
176
     1
 40
-0.6
176
     1
 41
-30.0
176
     1
 62
     5
 63
     7
421
 16777215
176
     1
 74
     1
176
     1
 91
        4
176
     1
 64
     7
176
     1
 65
   257
176
     1
 75
     1
176
     1
175
     1
176
     1
 42
1.0
176
     1
 92
        8
176
     1
 66
     7
176
     1
 43
1.0
176
     1
 76
     1
176
     1
 77
     6
176
     1
 78
     2
176
     1
 67
     7
176
     1
 79
     5
176
     1
170
     0
176
     1
171
     0
176
     1
290
     0
176
     1
 93
        1
176
     1
 44
-50.0
176
     1
173
     0
176
     1
  0
VISUALSTYLE
  5
39
102
{ACAD_REACTORS
330
2A
102
}
330
2A
100
AcDbVisualStyle
  2
Facepattern
 70
    15
177
     2
291
     1
 71
     2
176
     1
 72
     2
176
     1
 73
     0
176
     1
 90
        0
176
     1
 40
-0.6
176
     1
 41
-30.0
176
     1
 62
     5
 63
     7
421
 16777215
176
     1
 74
     1
176
     1
 91
        4
176
     1
 64
     7
176
     1
 65
   257
176
     1
 75
     1
176
     1
175
     1
176
     1
 42
1.0
176
     1
 92
        8
176
     1
 66
     7
176
     1
 43
1.0
176
     1
 76
     1
176
     1
 77
     6
176
     1
 78
     2
176
     1
 67
     7
176
     1
 79
     5
176
     1
170
     0
176
     1
171
     0
176
     1
290
     0
176
     1
 93
        1
176
     1
 44
0.0
176
     1
173
     0
176
     1
  0
VISUALSTYLE
  5
2B
102
{ACAD_REACTORS
330
2A
102
}
330
2A
100
AcDbVisualStyle
  2
Flat
 70
     0
177
     2
291
     1
 71
     2
176
     1
 72
     1
176
     1
 73
     1
176
     1
 90
        2
176
     1
 40
-0.6
176
     1
 41
30.0
176
     1
 62
     5
 63
     7
421
 16777215
176
     1
 74
     0
176
     1
 91
        4
176
     1
 64
     7
176
     1
 65
   257
176
     1
 75
     1
176
     1
175
     1
176
     1
 42
1.0
176
     1
 92
        8
176
     1
 66
     7
176
     1
 43
1.0
176
     1
 76
     1
176
     1
 77
     6
176
     1
 78
     2
176
     1
 67
     7
176
     1
 79
     5
176
     1
170
     0
176
     1
171
     0
176
     1
290
     0
176
     1
 93
       13
176
     1
 44
0.0
176
     1
173
     0
176
     1
  0
VISUALSTYLE
  5
2C
102
{ACAD_REACTORS
330
2A
102
}
330
2A
100
AcDbVisualStyle
  2
FlatWithEdges
 70
     1
177
     2
291
     1
 71
     2
176
     1
 72
     1
176
     1
 73
     1
176
     1
 90
        2
176
     1
 40
-0.6
176
     1
 41
30.0
176
     1
 62
     5
 63
     7
421
 16777215
176
     1
 74
     1
176
     1
 91
        4
176
     1
 64
     7
176
     1
 65
   257
176
     1
 75
     1
176
     1
175
     1
176
     1
 42
1.0
176
     1
 92
        0
176
     1
 66
   257
176
     1
 43
1.0
176
     1
 76
     1
176
     1
 77
     6
176
     1
 78
     2
176
     1
 67
     7
176
     1
 79
     5
176
     1
170
     0
176
     1
171
     0
176
     1
290
     0
176
     1
 93
       13
176
     1
 44
0.0
176
     1
173
     0
176
     1
  0
VISUALSTYLE
  5
2D
102
{ACAD_REACTORS
330
2A
102
}
330
2A
100
AcDbVisualStyle
  2
Gouraud
 70
     2
177
     2
291
     1
 71
     2
176
     1
 72
     2
176
     1
 73
     1
176
     1
 90
        2
176
     1
 40
-0.6
176
     1
 41
30.0
176
     1
 62
     5
 63
     7
421
 16777215
176
     1
 74
     0
176
     1
 91
        4
176
     1
 64
     7
176
     1
 65
   257
176
     1
 75
     1
176
     1
175
     1
176
     1
 42
1.0
176
     1
 92
        0
176
     1
 66
     7
176
     1
 43
1.0
176
     1
 76
     1
176
     1
 77
     6
176
     1
 78
     2
176
     1
 67
     7
176
     1
 79
     5
176
     1
170
     0
176
     1
171
     0
176
     1
290
     0
176
     1
 93
       13
176
     1
 44
0.0
176
     1
173
     0
176
     1
  0
VISUALSTYLE
  5
2E
102
{ACAD_REACTORS
330
2A
102
}
330
2A
100
AcDbVisualStyle
  2
GouraudWithEdges
 70
     3
177
     2
291
     1
 71
     2
176
     1
 72
     2
176
     1
 73
     1
176
     1
 90
        2
176
     1
 40
-0.6
176
     1
 41
30.0
176
     1
 62
     5
 63
     7
421
 16777215
176
     1
 74
     1
176
     1
 91
        4
176
     1
 64
     7
176
     1
 65
   257
176
     1
 75
     1
176
     1
175
     1
176
     1
 42
1.0
176
     1
 92
        0
176
     1
 66
   257
176
     1
 43
1.0
176
     1
 76
     1
176
     1
 77
     6
176
     1
 78
     2
176
     1
 67
     7
176
     1
 79
     5
176
     1
170
     0
176
     1
171
     0
176
     1
290
     0
176
     1
 93
       13
176
     1
 44
0.0
176
     1
173
     0
176
     1
  0
VISUALSTYLE
  5
38
102
{ACAD_REACTORS
330
2A
102
}
330
2A
100
AcDbVisualStyle
  2
Linepattern
 70
    14
177
     2
291
     1
 71
     2
176
     1
 72
     2
176
     1
 73
     0
176
     1
 90
        0
176
     1
 40
-0.6
176
     1
 41
-30.0
176
     1
 62
     5
 63
     7
421
 16777215
176
     1
 74
     1
176
     1
 91
        4
176
     1
 64
     7
176
     1
 65
   257
176
     1
 75
     7
176
     1
175
     7
176
     1
 42
1.0
176
     1
 92
        8
176
     1
 66
     7
176
     1
 43
1.0
176
     1
 76
     1
176
     1
 77
     6
176
     1
 78
     2
176
     1
 67
     7
176
     1
 79
     5
176
     1
170
     0
176
     1
171
     0
176
     1
290
     0
176
     1
 93
        1
176
     1
 44
0.0
176
     1
173
     0
176
     1
  0
VISUALSTYLE
  5
33
102
{ACAD_REACTORS
330
2A
102
}
330
2A
100
AcDbVisualStyle
  2
Realistic
 70
     8
177
     2
291
     0
 71
     2
176
     1
 72
     2
176
     1
 73
     0
176
     1
 90
        0
176
     1
 40
-0.6
176
     1
 41
-30.0
176
     1
 62
     5
 63
     7
421
 16777215
176
     1
 74
     1
176
     1
 91
        0
176
     1
 64
     7
176
     1
 65
   257
176
     1
 75
     1
176
     1
175
     1
176
     1
 42
1.0
176
     1
 92
        8
176
     1
 66
     8
424
  7895160
176
     1
 43
1.0
176
     1
 76
     1
176
     1
 77
     6
176
     1
 78
     2
176
     1
 67
     7
176
     1
 79
     5
176
     1
170
     0
176
     1
171
     0
176
     1
290
     0
176
     1
 93
       13
176
     1
 44
0.0
176
     1
173
     0
176
     1
  0
VISUALSTYLE
  5
37
102
{ACAD_REACTORS
330
2A
102
}
330
2A
100
AcDbVisualStyle
  2
Thicken
 70
    13
177
     2
291
     1
 71
     2
176
     1
 72
     2
176
     1
 73
     0
176
     1
 90
        0
176
     1
 40
-0.6
176
     1
 41
-30.0
176
     1
 62
     5
 63
     7
421
 16777215
176
     1
 74
     1
176
     1
 91
        4
176
     1
 64
     7
176
     1
 65
   257
176
     1
 75
     1
176
     1
175
     1
176
     1
 42
1.0
176
     1
 92
       12
176
     1
 66
     7
176
     1
 43
1.0
176
     1
 76
     1
176
     1
 77
     6
176
     1
 78
     2
176
     1
 67
     7
176
     1
 79
     5
176
     1
170
     0
176
     1
171
     0
176
     1
290
     0
176
     1
 93
        1
176
     1
 44
0.0
176
     1
173
     0
176
     1
  0
ENDSEC
  0
EOF
