<svg xmlns="http://www.w3.org/2000/svg" viewBox="0 0 689.5 316.5"><defs><style>.cls-1,.cls-6{fill:#fff;}.cls-2,.cls-5{fill:none;}.cls-2,.cls-4{stroke:#b3b3b3;stroke-width:0.567px;}.cls-2,.cls-4,.cls-5,.cls-6{stroke-miterlimit:10;}.cls-3{font-size:12.472px;font-family:ArialMT, Arial;}.cls-5,.cls-6{stroke:#231815;}</style></defs><title>Book_RectDescription</title><g id="back"><rect class="cls-1" width="689.5" height="316.5"/></g><g id="HexagonDescription"><polyline class="cls-2" points="259.449 68.5 259.449 35.5 486.449 35.5 486.449 68.5"/><text class="cls-3" transform="translate(355.708 32.754) scale(0.908 1)">80 mm</text><line class="cls-4" x1="257.181" y1="37.579" x2="261.433" y2="33.327"/><line class="cls-4" x1="483.78" y1="37.635" x2="488.031" y2="33.383"/><polyline class="cls-2" points="260.949 294.791 198.449 294.791 198.449 68.02 260.949 68.02"/><text class="cls-3" transform="translate(195.379 199.381) rotate(-90) scale(0.908 1)">80 mm</text><polyline class="cls-2" points="260.449 181.5 241.449 181.5 241.449 68.235 260.449 68.235"/><text class="cls-3" transform="translate(238.379 144.381) rotate(-90) scale(0.908 1)">40 mm</text><line class="cls-4" x1="196.477" y1="70.259" x2="200.729" y2="66.007"/><line class="cls-4" x1="239.477" y1="70.259" x2="243.729" y2="66.007"/><line class="cls-4" x1="196.477" y1="296.917" x2="200.729" y2="292.665"/><line class="cls-4" x1="239.477" y1="183.555" x2="243.729" y2="179.303"/></g><g id="HexagonAndCircle"><rect class="cls-5" x="259.859" y="68.501" width="226.719" height="226.772"/><line class="cls-6" x1="401.507" y1="97.007" x2="458.148" y2="153.521"/><line class="cls-6" x1="259.806" y1="181.887" x2="288.2" y2="153.486"/><line class="cls-6" x1="344.824" y1="96.902" x2="373.218" y2="68.501"/><line class="cls-6" x1="373.121" y1="295.202" x2="401.516" y2="266.801"/><line class="cls-6" x1="458.139" y1="210.217" x2="486.534" y2="181.816"/><line class="cls-6" x1="288.399" y1="210.423" x2="345.04" y2="266.937"/></g></svg>