  0
SECTION
  2
HEADER
  9
$ACADVER
  1
AC1024
  9
$ACADMAINTVER
 70
     6
  9
$DWGCODEPAGE
  3
ANSI_932
  9
$INSBASE
 10
0.0
 20
0.0
 30
0.0
  9
$EXTMIN
 10
1.000000000000000E+20
 20
1.000000000000000E+20
 30
1.000000000000000E+20
  9
$EXTMAX
 10
-1.000000000000000E+20
 20
-1.000000000000000E+20
 30
-1.000000000000000E+20
  9
$LIMMIN
 10
0.0
 20
0.0
  9
$LIMMAX
 10
12.0
 20
9.0
  9
$ORTHOMODE
 70
     0
  9
$REGENMODE
 70
     1
  9
$FILLMODE
 70
     1
  9
$QTEXTMODE
 70
     0
  9
$MIRRTEXT
 70
     1
  9
$LTSCALE
 40
1.0
  9
$ATTMODE
 70
     1
  9
$TEXTSIZE
 40
0.2
  9
$TRACEWID
 40
0.05
  9
$TEXTSTYLE
  7
Standard
  9
$CLAYER
  8
0
  9
$CELTYPE
  6
ByLayer
  9
$CECOLOR
 62
   256
  9
$CELTSCALE
 40
1.0
  9
$DISPSILH
 70
     0
  9
$DIMSCALE
 40
1.0
  9
$DIMASZ
 40
0.18
  9
$DIMEXO
 40
0.0625
  9
$DIMDLI
 40
0.38
  9
$DIMRND
 40
0.0
  9
$DIMDLE
 40
0.0
  9
$DIMEXE
 40
0.18
  9
$DIMTP
 40
0.0
  9
$DIMTM
 40
0.0
  9
$DIMTXT
 40
0.18
  9
$DIMCEN
 40
0.09
  9
$DIMTSZ
 40
0.0
  9
$DIMTOL
 70
     0
  9
$DIMLIM
 70
     0
  9
$DIMTIH
 70
     1
  9
$DIMTOH
 70
     1
  9
$DIMSE1
 70
     0
  9
$DIMSE2
 70
     0
  9
$DIMTAD
 70
     0
  9
$DIMZIN
 70
     0
  9
$DIMBLK
  1

  9
$DIMASO
 70
     1
  9
$DIMSHO
 70
     1
  9
$DIMPOST
  1

  9
$DIMAPOST
  1

  9
$DIMALT
 70
     0
  9
$DIMALTD
 70
     2
  9
$DIMALTF
 40
25.4
  9
$DIMLFAC
 40
1.0
  9
$DIMTOFL
 70
     0
  9
$DIMTVP
 40
0.0
  9
$DIMTIX
 70
     0
  9
$DIMSOXD
 70
     0
  9
$DIMSAH
 70
     0
  9
$DIMBLK1
  1

  9
$DIMBLK2
  1

  9
$DIMSTYLE
  2
Standard
  9
$DIMCLRD
 70
     0
  9
$DIMCLRE
 70
     0
  9
$DIMCLRT
 70
     0
  9
$DIMTFAC
 40
1.0
  9
$DIMGAP
 40
0.09
  9
$DIMJUST
 70
     0
  9
$DIMSD1
 70
     0
  9
$DIMSD2
 70
     0
  9
$DIMTOLJ
 70
     1
  9
$DIMTZIN
 70
     0
  9
$DIMALTZ
 70
     0
  9
$DIMALTTZ
 70
     0
  9
$DIMUPT
 70
     0
  9
$DIMDEC
 70
     4
  9
$DIMTDEC
 70
     4
  9
$DIMALTU
 70
     2
  9
$DIMALTTD
 70
     2
  9
$DIMTXSTY
  7
Standard
  9
$DIMAUNIT
 70
     0
  9
$DIMADEC
 70
     0
  9
$DIMALTRND
 40
0.0
  9
$DIMAZIN
 70
     0
  9
$DIMDSEP
 70
    46
  9
$DIMATFIT
 70
     3
  9
$DIMFRAC
 70
     0
  9
$DIMLDRBLK
  1

  9
$DIMLUNIT
 70
     2
  9
$DIMLWD
 70
    -2
  9
$DIMLWE
 70
    -2
  9
$DIMTMOVE
 70
     0
  9
$DIMFXL
 40
1.0
  9
$DIMFXLON
 70
     0
  9
$DIMJOGANG
 40
0.7853981633974483
  9
$DIMTFILL
 70
     0
  9
$DIMTFILLCLR
 70
     0
  9
$DIMARCSYM
 70
     0
  9
$DIMLTYPE
  6

  9
$DIMLTEX1
  6

  9
$DIMLTEX2
  6

  9
$DIMTXTDIRECTION
 70
     0
  9
$LUNITS
 70
     2
  9
$LUPREC
 70
     4
  9
$SKETCHINC
 40
0.1
  9
$FILLETRAD
 40
0.5
  9
$AUNITS
 70
     0
  9
$AUPREC
 70
     0
  9
$MENU
  1
.
  9
$ELEVATION
 40
0.0
  9
$PELEVATION
 40
0.0
  9
$THICKNESS
 40
0.0
  9
$LIMCHECK
 70
     0
  9
$CHAMFERA
 40
0.5
  9
$CHAMFERB
 40
0.5
  9
$CHAMFERC
 40
1.0
  9
$CHAMFERD
 40
0.0
  9
$SKPOLY
 70
     0
  9
$TDCREATE
 40
2458553.184603044
  9
$TDUCREATE
 40
2458552.809603044
  9
$TDUPDATE
 40
2458553.184603125
  9
$TDUUPDATE
 40
2458552.809603125
  9
$TDINDWG
 40
0.0000000116
  9
$TDUSRTIMER
 40
0.0000000116
  9
$USRTIMER
 70
     1
  9
$ANGBASE
 50
0.0
  9
$ANGDIR
 70
     0
  9
$PDMODE
 70
     0
  9
$PDSIZE
 40
0.0
  9
$PLINEWID
 40
0.0
  9
$SPLFRAME
 70
     0
  9
$SPLINETYPE
 70
     6
  9
$SPLINESEGS
 70
     8
  9
$HANDSEED
  5
317
  9
$SURFTAB1
 70
     6
  9
$SURFTAB2
 70
     6
  9
$SURFTYPE
 70
     6
  9
$SURFU
 70
     6
  9
$SURFV
 70
     6
  9
$UCSBASE
  2

  9
$UCSNAME
  2

  9
$UCSORG
 10
0.0
 20
0.0
 30
0.0
  9
$UCSXDIR
 10
1.0
 20
0.0
 30
0.0
  9
$UCSYDIR
 10
0.0
 20
1.0
 30
0.0
  9
$UCSORTHOREF
  2

  9
$UCSORTHOVIEW
 70
     0
  9
$UCSORGTOP
 10
0.0
 20
0.0
 30
0.0
  9
$UCSORGBOTTOM
 10
0.0
 20
0.0
 30
0.0
  9
$UCSORGLEFT
 10
0.0
 20
0.0
 30
0.0
  9
$UCSORGRIGHT
 10
0.0
 20
0.0
 30
0.0
  9
$UCSORGFRONT
 10
0.0
 20
0.0
 30
0.0
  9
$UCSORGBACK
 10
0.0
 20
0.0
 30
0.0
  9
$PUCSBASE
  2

  9
$PUCSNAME
  2

  9
$PUCSORG
 10
0.0
 20
0.0
 30
0.0
  9
$PUCSXDIR
 10
1.0
 20
0.0
 30
0.0
  9
$PUCSYDIR
 10
0.0
 20
1.0
 30
0.0
  9
$PUCSORTHOREF
  2

  9
$PUCSORTHOVIEW
 70
     0
  9
$PUCSORGTOP
 10
0.0
 20
0.0
 30
0.0
  9
$PUCSORGBOTTOM
 10
0.0
 20
0.0
 30
0.0
  9
$PUCSORGLEFT
 10
0.0
 20
0.0
 30
0.0
  9
$PUCSORGRIGHT
 10
0.0
 20
0.0
 30
0.0
  9
$PUCSORGFRONT
 10
0.0
 20
0.0
 30
0.0
  9
$PUCSORGBACK
 10
0.0
 20
0.0
 30
0.0
  9
$USERI1
 70
     0
  9
$USERI2
 70
     0
  9
$USERI3
 70
     0
  9
$USERI4
 70
     0
  9
$USERI5
 70
     0
  9
$USERR1
 40
0.0
  9
$USERR2
 40
0.0
  9
$USERR3
 40
0.0
  9
$USERR4
 40
0.0
  9
$USERR5
 40
0.0
  9
$WORLDVIEW
 70
     1
  9
$SHADEDGE
 70
     3
  9
$SHADEDIF
 70
    70
  9
$TILEMODE
 70
     1
  9
$MAXACTVP
 70
    64
  9
$PINSBASE
 10
0.0
 20
0.0
 30
0.0
  9
$PLIMCHECK
 70
     0
  9
$PEXTMIN
 10
1.000000000000000E+20
 20
1.000000000000000E+20
 30
1.000000000000000E+20
  9
$PEXTMAX
 10
-1.000000000000000E+20
 20
-1.000000000000000E+20
 30
-1.000000000000000E+20
  9
$PLIMMIN
 10
0.0
 20
0.0
  9
$PLIMMAX
 10
12.0
 20
9.0
  9
$UNITMODE
 70
     0
  9
$VISRETAIN
 70
     1
  9
$PLINEGEN
 70
     0
  9
$PSLTSCALE
 70
     1
  9
$TREEDEPTH
 70
  3020
  9
$CMLSTYLE
  2
Standard
  9
$CMLJUST
 70
     0
  9
$CMLSCALE
 40
1.0
  9
$PROXYGRAPHICS
 70
     1
  9
$MEASUREMENT
 70
     0
  9
$CELWEIGHT
370
    -1
  9
$ENDCAPS
280
     0
  9
$JOINSTYLE
280
     0
  9
$LWDISPLAY
290
     1
  9
$INSUNITS
 70
     1
  9
$HYPERLINKBASE
  1

  9
$STYLESHEET
  1

  9
$XEDIT
290
     1
  9
$CEPSNTYPE
380
     0
  9
$PSTYLEMODE
290
     1
  9
$FINGERPRINTGUID
  2
{AB5BEA17-CE80-41AB-9CE5-08B581EAA578}
  9
$VERSIONGUID
  2
{FAEB1C32-E019-11D5-929B-00C0DF256EC4}
  9
$EXTNAMES
290
     1
  9
$PSVPSCALE
 40
0.0
  9
$OLESTARTUP
290
     0
  9
$SORTENTS
280
   127
  9
$INDEXCTL
280
     0
  9
$HIDETEXT
280
     1
  9
$XCLIPFRAME
280
     2
  9
$HALOGAP
280
     0
  9
$OBSCOLOR
 70
   257
  9
$OBSLTYPE
280
     0
  9
$INTERSECTIONDISPLAY
280
     0
  9
$INTERSECTIONCOLOR
 70
   257
  9
$DIMASSOC
280
     2
  9
$PROJECTNAME
  1

  9
$CAMERADISPLAY
290
     0
  9
$LENSLENGTH
 40
50.0
  9
$CAMERAHEIGHT
 40
0.0
  9
$STEPSPERSEC
 40
2.0
  9
$STEPSIZE
 40
6.0
  9
$3DDWFPREC
 40
2.0
  9
$PSOLWIDTH
 40
0.25
  9
$PSOLHEIGHT
 40
4.0
  9
$LOFTANG1
 40
1.570796326794897
  9
$LOFTANG2
 40
1.570796326794897
  9
$LOFTMAG1
 40
0.0
  9
$LOFTMAG2
 40
0.0
  9
$LOFTPARAM
 70
     7
  9
$LOFTNORMALS
280
     1
  9
$LATITUDE
 40
37.795
  9
$LONGITUDE
 40
-122.394
  9
$NORTHDIRECTION
 40
0.0
  9
$TIMEZONE
 70
 -8000
  9
$LIGHTGLYPHDISPLAY
280
     1
  9
$TILEMODELIGHTSYNCH
280
     1
  9
$CMATERIAL
347
3C
  9
$SOLIDHIST
280
     1
  9
$SHOWHIST
280
     1
  9
$DWFFRAME
280
     2
  9
$DGNFRAME
280
     2
  9
$REALWORLDSCALE
290
     1
  9
$INTERFERECOLOR
 62
   256
  9
$CSHADOW
280
     0
  9
$SHADOWPLANELOCATION
 40
0.0
  0
ENDSEC
  0
SECTION
  2
CLASSES
  0
CLASS
  1
ACDBDICTIONARYWDFLT
  2
AcDbDictionaryWithDefault
  3
ObjectDBX Classes
 90
        0
 91
        4
280
     0
281
     0
  0
CLASS
  1
VISUALSTYLE
  2
AcDbVisualStyle
  3
ObjectDBX Classes
 90
     4095
 91
        4
280
     0
281
     0
  0
CLASS
  1
MATERIAL
  2
AcDbMaterial
  3
ObjectDBX Classes
 90
     1153
 91
        4
280
     0
281
     0
  0
CLASS
  1
SUN
  2
AcDbSun
  3
SCENEOE
 90
     1024
 91
        4
280
     0
281
     0
  0
ENDSEC
  0
SECTION
  2
TABLES
  0
TABLE
  2
VPORT
  5
8
330
0
100
AcDbSymbolTable
 70
     1
  0
VPORT
  5
29
330
8
100
AcDbSymbolTableRecord
100
AcDbViewportTableRecord
  2
*Active
 70
     0
 10
0.0
 20
0.0
 11
1.0
 21
1.0
 12
0.0
 22
0.0
 13
0.0
 23
0.0
 14
0.5
 24
0.5
 15
0.5
 25
0.5
 16
0.0
 26
0.0
 36
1.0
 17
240.529166606534
 27
-210.7055555028788
 37
0.0
 40
419.9999998949998
 41
1.142857142857142
 42
50.0
 43
0.0
 44
0.0
 50
0.0
 51
0.0
 71
     0
 72
   100
 73
     1
 74
     3
 75
     0
 76
     0
 77
     0
 78
     0
281
     0
 65
     1
110
0.0
120
0.0
130
0.0
111
1.0
121
0.0
131
0.0
112
0.0
122
1.0
132
0.0
 79
     0
146
0.0
 60
     3
 61
     5
292
     1
282
     1
141
0.0
142
0.0
 63
   250
361
3F
  0
ENDTAB
  0
TABLE
  2
LTYPE
  5
5
330
0
100
AcDbSymbolTable
 70
     1
  0
LTYPE
  5
14
330
5
100
AcDbSymbolTableRecord
100
AcDbLinetypeTableRecord
  2
ByBlock
 70
     0
  3

 72
    65
 73
     0
 40
0.0
  0
LTYPE
  5
15
330
5
100
AcDbSymbolTableRecord
100
AcDbLinetypeTableRecord
  2
ByLayer
 70
     0
  3

 72
    65
 73
     0
 40
0.0
  0
LTYPE
  5
16
330
5
100
AcDbSymbolTableRecord
100
AcDbLinetypeTableRecord
  2
Continuous
 70
     0
  3
Solid line
 72
    65
 73
     0
 40
0.0
  0
ENDTAB
  0
TABLE
  2
LAYER
  5
2
330
0
100
AcDbSymbolTable
 70
     3
  0
LAYER
  5
10
330
2
100
AcDbSymbolTableRecord
100
AcDbLayerTableRecord
  2
0
 70
     0
 62
     7
  6
Continuous
370
    -3
390
F
347
3E
  0
LAYER
  5
40
330
2
100
AcDbSymbolTableRecord
100
AcDbLayerTableRecord
  2
OneHexagon
 70
     0
 62
     7
  6
Continuous
370
    -3
390
F
347
3E
  0
LAYER
  5
1D6
330
2
100
AcDbSymbolTableRecord
100
AcDbLayerTableRecord
  2
TwoHexagon
 70
     0
 62
     7
  6
Continuous
370
    -3
390
F
347
3E
  0
ENDTAB
  0
TABLE
  2
STYLE
  5
3
330
0
100
AcDbSymbolTable
 70
     1
  0
STYLE
  5
11
330
3
100
AcDbSymbolTableRecord
100
AcDbTextStyleTableRecord
  2
Standard
 70
     0
 40
0.0
 41
1.0
 50
0.0
 71
     0
 42
0.2
  3
txt
  4

  0
ENDTAB
  0
TABLE
  2
VIEW
  5
6
330
0
100
AcDbSymbolTable
 70
     0
  0
ENDTAB
  0
TABLE
  2
UCS
  5
7
330
0
100
AcDbSymbolTable
 70
     0
  0
ENDTAB
  0
TABLE
  2
APPID
  5
9
330
0
100
AcDbSymbolTable
 70
     1
  0
APPID
  5
12
330
9
100
AcDbSymbolTableRecord
100
AcDbRegAppTableRecord
  2
ACAD
 70
     0
  0
ENDTAB
  0
TABLE
  2
DIMSTYLE
  5
A
330
0
100
AcDbSymbolTable
 70
     1
100
AcDbDimStyleTable
  0
DIMSTYLE
105
27
330
A
100
AcDbSymbolTableRecord
100
AcDbDimStyleTableRecord
  2
Standard
 70
     0
178
     0
340
11
  0
ENDTAB
  0
TABLE
  2
BLOCK_RECORD
  5
1
330
0
100
AcDbSymbolTable
 70
    18
  0
BLOCK_RECORD
  5
1F
330
1
100
AcDbSymbolTableRecord
100
AcDbBlockTableRecord
  2
*Model_Space
340
22
 70
     0
280
     1
281
     0
  0
BLOCK_RECORD
  5
1B
330
1
100
AcDbSymbolTableRecord
100
AcDbBlockTableRecord
  2
*Paper_Space
340
1E
 70
     0
280
     1
281
     0
  0
BLOCK_RECORD
  5
23
330
1
100
AcDbSymbolTableRecord
100
AcDbBlockTableRecord
  2
*Paper_Space0
340
26
 70
     0
280
     1
281
     0
  0
BLOCK_RECORD
  5
5A
330
1
100
AcDbSymbolTableRecord
100
AcDbBlockTableRecord
  2
block 2
340
0
102
{BLKREFS
331
5B
102
}
 70
     0
280
     1
281
     0
  0
BLOCK_RECORD
  5
76
330
1
100
AcDbSymbolTableRecord
100
AcDbBlockTableRecord
  2
block 3
340
0
102
{BLKREFS
331
77
102
}
 70
     0
280
     1
281
     0
  0
BLOCK_RECORD
  5
AB
330
1
100
AcDbSymbolTableRecord
100
AcDbBlockTableRecord
  2
block 4
340
0
102
{BLKREFS
331
AC
102
}
 70
     0
280
     1
281
     0
  0
BLOCK_RECORD
  5
C7
330
1
100
AcDbSymbolTableRecord
100
AcDbBlockTableRecord
  2
block 5
340
0
102
{BLKREFS
331
C8
102
}
 70
     0
280
     1
281
     0
  0
BLOCK_RECORD
  5
FC
330
1
100
AcDbSymbolTableRecord
100
AcDbBlockTableRecord
  2
block 6
340
0
102
{BLKREFS
331
FD
102
}
 70
     0
280
     1
281
     0
  0
BLOCK_RECORD
  5
118
330
1
100
AcDbSymbolTableRecord
100
AcDbBlockTableRecord
  2
block 7
340
0
102
{BLKREFS
331
119
102
}
 70
     0
280
     1
281
     0
  0
BLOCK_RECORD
  5
14D
330
1
100
AcDbSymbolTableRecord
100
AcDbBlockTableRecord
  2
block 8
340
0
102
{BLKREFS
331
14E
102
}
 70
     0
280
     1
281
     0
  0
BLOCK_RECORD
  5
169
330
1
100
AcDbSymbolTableRecord
100
AcDbBlockTableRecord
  2
block 9
340
0
102
{BLKREFS
331
16A
102
}
 70
     0
280
     1
281
     0
  0
BLOCK_RECORD
  5
19E
330
1
100
AcDbSymbolTableRecord
100
AcDbBlockTableRecord
  2
block 10
340
0
102
{BLKREFS
331
19F
102
}
 70
     0
280
     1
281
     0
  0
BLOCK_RECORD
  5
1BA
330
1
100
AcDbSymbolTableRecord
100
AcDbBlockTableRecord
  2
block 11
340
0
102
{BLKREFS
331
1BB
102
}
 70
     0
280
     1
281
     0
  0
BLOCK_RECORD
  5
1EB
330
1
100
AcDbSymbolTableRecord
100
AcDbBlockTableRecord
  2
block 12
340
0
102
{BLKREFS
331
1EC
102
}
 70
     0
280
     1
281
     0
  0
BLOCK_RECORD
  5
217
330
1
100
AcDbSymbolTableRecord
100
AcDbBlockTableRecord
  2
block 13
340
0
102
{BLKREFS
331
218
102
}
 70
     0
280
     1
281
     0
  0
BLOCK_RECORD
  5
243
330
1
100
AcDbSymbolTableRecord
100
AcDbBlockTableRecord
  2
block 14
340
0
102
{BLKREFS
331
244
102
}
 70
     0
280
     1
281
     0
  0
BLOCK_RECORD
  5
26F
330
1
100
AcDbSymbolTableRecord
100
AcDbBlockTableRecord
  2
block 15
340
0
102
{BLKREFS
331
270
102
}
 70
     0
280
     1
281
     0
  0
BLOCK_RECORD
  5
29B
330
1
100
AcDbSymbolTableRecord
100
AcDbBlockTableRecord
  2
block 16
340
0
102
{BLKREFS
331
29C
102
}
 70
     0
280
     1
281
     0
  0
BLOCK_RECORD
  5
2C7
330
1
100
AcDbSymbolTableRecord
100
AcDbBlockTableRecord
  2
block 17
340
0
102
{BLKREFS
331
2C8
102
}
 70
     0
280
     1
281
     0
  0
BLOCK_RECORD
  5
2F3
330
1
100
AcDbSymbolTableRecord
100
AcDbBlockTableRecord
  2
block 18
340
0
102
{BLKREFS
331
2F4
102
}
 70
     0
280
     1
281
     0
  0
ENDTAB
  0
ENDSEC
  0
SECTION
  2
BLOCKS
  0
BLOCK
  5
20
330
1F
100
AcDbEntity
  8
0
100
AcDbBlockBegin
  2
*Model_Space
 70
     0
 10
0.0
 20
0.0
 30
0.0
  3
*Model_Space
  1

  0
ENDBLK
  5
21
330
1F
100
AcDbEntity
  8
0
100
AcDbBlockEnd
  0
BLOCK
  5
1C
330
1B
100
AcDbEntity
 67
     1
  8
0
100
AcDbBlockBegin
  2
*Paper_Space
 70
     0
 10
0.0
 20
0.0
 30
0.0
  3
*Paper_Space
  1

  0
ENDBLK
  5
1D
330
1B
100
AcDbEntity
 67
     1
  8
0
100
AcDbBlockEnd
  0
BLOCK
  5
24
330
23
100
AcDbEntity
  8
0
100
AcDbBlockBegin
  2
*Paper_Space0
 70
     0
 10
0.0
 20
0.0
 30
0.0
  3
*Paper_Space0
  1

  0
ENDBLK
  5
25
330
23
100
AcDbEntity
  8
0
100
AcDbBlockEnd
  0
BLOCK
  5
5C
330
5A
100
AcDbEntity
  8
0
100
AcDbBlockBegin
  2
block 2
 70
     0
 10
0.0
 20
0.0
 30
0.0
  3
block 2
  1

  0
POLYLINE
  5
5E
330
5A
100
AcDbEntity
  8
OneHexagon
 62
     7
420
 16777215
370
    35
100
AcDb2dPolyline
 66
     1
 10
0.0
 20
0.0
 30
0.0
  0
VERTEX
  5
5F
330
5E
100
AcDbEntity
  8
OneHexagon
 62
     7
420
 16777215
370
    35
100
AcDbVertex
100
AcDb2dVertex
 10
36.94721990721528
 20
-82.2388920896289
 30
0.0
  0
VERTEX
  5
60
330
5E
100
AcDbEntity
  8
OneHexagon
 62
     7
420
 16777215
370
    35
100
AcDbVertex
100
AcDb2dVertex
 10
22.70153047571687
 20
-57.48462980291717
 30
0.0
  0
SEQEND
  5
61
330
5E
100
AcDbEntity
  8
OneHexagon
 62
     7
420
 16777215
370
    35
  0
POLYLINE
  5
62
330
5A
100
AcDbEntity
  8
OneHexagon
 62
     7
420
 16777215
370
    35
100
AcDb2dPolyline
 66
     1
 10
0.0
 20
0.0
 30
0.0
  0
VERTEX
  5
63
330
62
100
AcDbEntity
  8
OneHexagon
 62
     7
420
 16777215
370
    35
100
AcDbVertex
100
AcDb2dVertex
 10
31.30276478649346
 20
-22.17888566204431
 30
0.0
  0
VERTEX
  5
64
330
62
100
AcDbEntity
  8
OneHexagon
 62
     7
420
 16777215
370
    35
100
AcDbVertex
100
AcDb2dVertex
 10
2.347216457203884
 20
-22.17888566204431
 30
0.0
  0
VERTEX
  5
65
330
62
100
AcDbEntity
  8
OneHexagon
 62
     7
420
 16777215
370
    35
100
AcDbVertex
100
AcDb2dVertex
 10
17.05708457808657
 20
-47.70816976639659
 30
0.0
  0
SEQEND
  5
66
330
62
100
AcDbEntity
  8
OneHexagon
 62
     7
420
 16777215
370
    35
  0
POLYLINE
  5
67
330
5A
100
AcDbEntity
  8
OneHexagon
 62
     7
420
 16777215
370
    35
100
AcDb2dPolyline
 66
     1
 10
0.0
 20
0.0
 30
0.0
  0
VERTEX
  5
68
330
67
100
AcDbEntity
  8
OneHexagon
 62
     7
420
 16777215
370
    35
100
AcDbVertex
100
AcDb2dVertex
 10
71.54721643990483
 20
-22.17888566204431
 30
0.0
  0
VERTEX
  5
69
330
67
100
AcDbEntity
  8
OneHexagon
 62
     7
420
 16777215
370
    35
100
AcDbVertex
100
AcDb2dVertex
 10
42.59165658175149
 20
-22.17888566204431
 30
0.0
  0
SEQEND
  5
6A
330
67
100
AcDbEntity
  8
OneHexagon
 62
     7
420
 16777215
370
    35
  0
POLYLINE
  5
6B
330
5A
100
AcDbEntity
  8
OneHexagon
 62
     7
420
 16777215
370
    35
100
AcDb2dPolyline
 66
     1
 10
0.0
 20
0.0
 30
0.0
  0
VERTEX
  5
6C
330
6B
100
AcDbEntity
  8
OneHexagon
 62
     7
420
 16777215
370
    35
100
AcDbVertex
100
AcDb2dVertex
 10
36.94721990721528
 20
-82.2388920896289
 30
0.0
  0
VERTEX
  5
30B
330
6B
100
AcDbEntity
  8
0
100
AcDbVertex
100
AcDb2dVertex
 10
36.94721990721528
 20
-82.2388920896289
 30
0.0
  0
SEQEND
  5
6D
330
6B
100
AcDbEntity
  8
OneHexagon
 62
     7
420
 16777215
370
    35
  0
SPLINE
  5
6E
330
5A
100
AcDbEntity
  8
OneHexagon
 62
     7
420
 16777215
370
    35
100
AcDbSpline
210
0.0
220
0.0
230
1.0
 70
    27
 71
     3
 72
    11
 73
     7
 74
     0
 42
0.0000000001
 43
0.0000000001
 12
1.0
 22
0.0
 32
0.0
 13
1.0
 23
0.0
 33
0.0
 40
0.0
 40
0.0
 40
0.0
 40
0.0
 40
1.0
 40
1.0
 40
1.0
 40
2.0
 40
2.0
 40
2.0
 40
2.0
 10
26.95653455512504
 20
-55.02800048121169
 30
0.0
 10
26.95653455512504
 20
-55.02800048121169
 30
0.0
 10
21.31208865749603
 20
-45.25154044469112
 30
0.0
 10
21.31208865749603
 20
-45.25154044469112
 30
0.0
 10
21.31208865749603
 20
-45.25154044469112
 30
0.0
 10
26.95653455512504
 20
-55.02800048121169
 30
0.0
 10
26.95653455512504
 20
-55.02800048121169
 30
0.0
  0
POLYLINE
  5
6F
330
5A
100
AcDbEntity
  8
OneHexagon
 62
     7
420
 16777215
370
    35
100
AcDb2dPolyline
 66
     1
 10
0.0
 20
0.0
 30
0.0
  0
VERTEX
  5
70
330
6F
100
AcDbEntity
  8
OneHexagon
 62
     7
420
 16777215
370
    35
100
AcDbVertex
100
AcDb2dVertex
 10
71.54721643990483
 20
-22.17888566204431
 30
0.0
  0
VERTEX
  5
71
330
6F
100
AcDbEntity
  8
OneHexagon
 62
     7
420
 16777215
370
    35
100
AcDbVertex
100
AcDb2dVertex
 10
36.947216448555
 20
-2.238885667029158
 30
0.0
  0
VERTEX
  5
72
330
6F
100
AcDbEntity
  8
OneHexagon
 62
     7
420
 16777215
370
    35
100
AcDbVertex
100
AcDb2dVertex
 10
2.347216457203884
 20
-22.17888566204431
 30
0.0
  0
VERTEX
  5
73
330
6F
100
AcDbEntity
  8
OneHexagon
 62
     7
420
 16777215
370
    35
100
AcDbVertex
100
AcDb2dVertex
 10
2.45693867939869
 20
-62.42916342975944
 30
0.0
  0
VERTEX
  5
74
330
6F
100
AcDbEntity
  8
OneHexagon
 62
     7
420
 16777215
370
    35
100
AcDbVertex
100
AcDb2dVertex
 10
36.947216448555
 20
-82.23888564702926
 30
0.0
  0
SEQEND
  5
75
330
6F
100
AcDbEntity
  8
OneHexagon
 62
     7
420
 16777215
370
    35
  0
ENDBLK
  5
5D
330
5A
100
AcDbEntity
  8
0
100
AcDbBlockEnd
  0
BLOCK
  5
78
330
76
100
AcDbEntity
  8
0
100
AcDbBlockBegin
  2
block 3
 70
     0
 10
0.0
 20
0.0
 30
0.0
  3
block 3
  1

  0
SPLINE
  5
7A
330
76
100
AcDbEntity
  8
OneHexagon
 62
     7
420
 16777215
370
    35
100
AcDbSpline
210
0.0
220
0.0
230
1.0
 70
    27
 71
     3
 72
    11
 73
     7
 74
     0
 42
0.0000000001
 43
0.0000000001
 12
1.0
 22
0.0
 32
0.0
 13
1.0
 23
0.0
 33
0.0
 40
0.0
 40
0.0
 40
0.0
 40
0.0
 40
1.0
 40
1.0
 40
1.0
 40
2.0
 40
2.0
 40
2.0
 40
2.0
 10
122.6996929556692
 20
-44.36711530379809
 30
0.0
 10
122.6996929556692
 20
-44.36711530379809
 30
0.0
 10
117.0552470580392
 20
-54.14357534031898
 30
0.0
 10
117.0552470580392
 20
-54.14357534031898
 30
0.0
 10
117.0552470580392
 20
-54.14357534031898
 30
0.0
 10
122.6996929556692
 20
-44.36711530379809
 30
0.0
 10
122.6996929556692
 20
-44.36711530379809
 30
0.0
  0
POLYLINE
  5
7B
330
76
100
AcDbEntity
  8
OneHexagon
 62
     7
420
 16777215
370
    35
100
AcDb2dPolyline
 66
     1
 10
0.0
 20
0.0
 30
0.0
  0
VERTEX
  5
7C
330
7B
100
AcDbEntity
  8
OneHexagon
 62
     7
420
 16777215
370
    35
100
AcDbVertex
100
AcDb2dVertex
 10
106.1472198899156
 20
-82.2388920896289
 30
0.0
  0
VERTEX
  5
30C
330
7B
100
AcDbEntity
  8
0
100
AcDbVertex
100
AcDb2dVertex
 10
106.1472198899156
 20
-82.2388920896289
 30
0.0
  0
SEQEND
  5
7D
330
7B
100
AcDbEntity
  8
OneHexagon
 62
     7
420
 16777215
370
    35
  0
POLYLINE
  5
7E
330
76
100
AcDbEntity
  8
OneHexagon
 62
     7
420
 16777215
370
    35
100
AcDb2dPolyline
 66
     1
 10
0.0
 20
0.0
 30
0.0
  0
VERTEX
  5
7F
330
7E
100
AcDbEntity
  8
OneHexagon
 62
     7
420
 16777215
370
    35
100
AcDbVertex
100
AcDb2dVertex
 10
100.5027647691928
 20
-22.17888566204431
 30
0.0
  0
VERTEX
  5
80
330
7E
100
AcDbEntity
  8
OneHexagon
 62
     7
420
 16777215
370
    35
100
AcDbVertex
100
AcDb2dVertex
 10
71.54721643990419
 20
-22.17888566204431
 30
0.0
  0
SEQEND
  5
81
330
7E
100
AcDbEntity
  8
OneHexagon
 62
     7
420
 16777215
370
    35
  0
POLYLINE
  5
82
330
76
100
AcDbEntity
  8
OneHexagon
 62
     7
420
 16777215
370
    35
100
AcDb2dPolyline
 66
     1
 10
0.0
 20
0.0
 30
0.0
  0
VERTEX
  5
83
330
82
100
AcDbEntity
  8
OneHexagon
 62
     7
420
 16777215
370
    35
100
AcDbVertex
100
AcDb2dVertex
 10
126.6496682022064
 20
-46.64763129891208
 30
0.0
  0
VERTEX
  5
84
330
82
100
AcDbEntity
  8
OneHexagon
 62
     7
420
 16777215
370
    35
100
AcDbVertex
100
AcDb2dVertex
 10
140.7472164226042
 20
-22.17888566204431
 30
0.0
  0
VERTEX
  5
85
330
82
100
AcDbEntity
  8
OneHexagon
 62
     7
420
 16777215
370
    35
100
AcDbVertex
100
AcDb2dVertex
 10
111.7916565644518
 20
-22.17888566204431
 30
0.0
  0
SEQEND
  5
86
330
82
100
AcDbEntity
  8
OneHexagon
 62
     7
420
 16777215
370
    35
  0
POLYLINE
  5
87
330
76
100
AcDbEntity
  8
OneHexagon
 62
     7
420
 16777215
370
    35
100
AcDb2dPolyline
 66
     1
 10
0.0
 20
0.0
 30
0.0
  0
VERTEX
  5
88
330
87
100
AcDbEntity
  8
OneHexagon
 62
     7
420
 16777215
370
    35
100
AcDbVertex
100
AcDb2dVertex
 10
121.0052223045767
 20
-56.42409133543298
 30
0.0
  0
VERTEX
  5
89
330
87
100
AcDbEntity
  8
OneHexagon
 62
     7
420
 16777215
370
    35
100
AcDbVertex
100
AcDb2dVertex
 10
106.1472198899153
 20
-82.2388920896289
 30
0.0
  0
SEQEND
  5
8A
330
87
100
AcDbEntity
  8
OneHexagon
 62
     7
420
 16777215
370
    35
  0
POLYLINE
  5
8B
330
76
100
AcDbEntity
  8
OneHexagon
 62
     7
420
 16777215
370
    35
100
AcDb2dPolyline
 66
     1
 10
0.0
 20
0.0
 30
0.0
  0
VERTEX
  5
8C
330
8B
100
AcDbEntity
  8
OneHexagon
 62
     7
420
 16777215
370
    35
100
AcDbVertex
100
AcDb2dVertex
 10
106.1472164312543
 20
-82.23888564702958
 30
0.0
  0
VERTEX
  5
8D
330
8B
100
AcDbEntity
  8
OneHexagon
 62
     7
420
 16777215
370
    35
100
AcDbVertex
100
AcDb2dVertex
 10
140.7472164226042
 20
-62.42916342975944
 30
0.0
  0
VERTEX
  5
8E
330
8B
100
AcDbEntity
  8
OneHexagon
 62
     7
420
 16777215
370
    35
100
AcDbVertex
100
AcDb2dVertex
 10
140.7472164226042
 20
-22.17888566204431
 30
0.0
  0
VERTEX
  5
8F
330
8B
100
AcDbEntity
  8
OneHexagon
 62
     7
420
 16777215
370
    35
100
AcDbVertex
100
AcDb2dVertex
 10
106.1472164312543
 20
-2.238885667029158
 30
0.0
  0
VERTEX
  5
90
330
8B
100
AcDbEntity
  8
OneHexagon
 62
     7
420
 16777215
370
    35
100
AcDbVertex
100
AcDb2dVertex
 10
71.54721643990419
 20
-22.17888566204431
 30
0.0
  0
SEQEND
  5
91
330
8B
100
AcDbEntity
  8
OneHexagon
 62
     7
420
 16777215
370
    35
  0
ENDBLK
  5
79
330
76
100
AcDbEntity
  8
0
100
AcDbBlockEnd
  0
BLOCK
  5
AD
330
AB
100
AcDbEntity
  8
0
100
AcDbBlockBegin
  2
block 4
 70
     0
 10
0.0
 20
0.0
 30
0.0
  3
block 4
  1

  0
POLYLINE
  5
AF
330
AB
100
AcDbEntity
  8
OneHexagon
 62
     7
420
 16777215
370
    35
100
AcDb2dPolyline
 66
     1
 10
0.0
 20
0.0
 30
0.0
  0
VERTEX
  5
B0
330
AF
100
AcDbEntity
  8
OneHexagon
 62
     7
420
 16777215
370
    35
100
AcDbVertex
100
AcDb2dVertex
 10
185.673611641138
 20
-82.2388920896289
 30
0.0
  0
VERTEX
  5
B1
330
AF
100
AcDbEntity
  8
OneHexagon
 62
     7
420
 16777215
370
    35
100
AcDbVertex
100
AcDb2dVertex
 10
171.4279222096395
 20
-57.48462980291717
 30
0.0
  0
SEQEND
  5
B2
330
AF
100
AcDbEntity
  8
OneHexagon
 62
     7
420
 16777215
370
    35
  0
POLYLINE
  5
B3
330
AB
100
AcDbEntity
  8
OneHexagon
 62
     7
420
 16777215
370
    35
100
AcDb2dPolyline
 66
     1
 10
0.0
 20
0.0
 30
0.0
  0
VERTEX
  5
B4
330
B3
100
AcDbEntity
  8
OneHexagon
 62
     7
420
 16777215
370
    35
100
AcDbVertex
100
AcDb2dVertex
 10
180.0291565204161
 20
-22.17888566204431
 30
0.0
  0
VERTEX
  5
B5
330
B3
100
AcDbEntity
  8
OneHexagon
 62
     7
420
 16777215
370
    35
100
AcDbVertex
100
AcDb2dVertex
 10
151.0736081911266
 20
-22.17888566204431
 30
0.0
  0
VERTEX
  5
B6
330
B3
100
AcDbEntity
  8
OneHexagon
 62
     7
420
 16777215
370
    35
100
AcDbVertex
100
AcDb2dVertex
 10
165.7834763120092
 20
-47.70816976639659
 30
0.0
  0
SEQEND
  5
B7
330
B3
100
AcDbEntity
  8
OneHexagon
 62
     7
420
 16777215
370
    35
  0
POLYLINE
  5
B8
330
AB
100
AcDbEntity
  8
OneHexagon
 62
     7
420
 16777215
370
    35
100
AcDb2dPolyline
 66
     1
 10
0.0
 20
0.0
 30
0.0
  0
VERTEX
  5
B9
330
B8
100
AcDbEntity
  8
OneHexagon
 62
     7
420
 16777215
370
    35
100
AcDbVertex
100
AcDb2dVertex
 10
220.2736081738275
 20
-22.17888566204431
 30
0.0
  0
VERTEX
  5
BA
330
B8
100
AcDbEntity
  8
OneHexagon
 62
     7
420
 16777215
370
    35
100
AcDbVertex
100
AcDb2dVertex
 10
191.3180483156742
 20
-22.17888566204431
 30
0.0
  0
SEQEND
  5
BB
330
B8
100
AcDbEntity
  8
OneHexagon
 62
     7
420
 16777215
370
    35
  0
POLYLINE
  5
BC
330
AB
100
AcDbEntity
  8
OneHexagon
 62
     7
420
 16777215
370
    35
100
AcDb2dPolyline
 66
     1
 10
0.0
 20
0.0
 30
0.0
  0
VERTEX
  5
BD
330
BC
100
AcDbEntity
  8
OneHexagon
 62
     7
420
 16777215
370
    35
100
AcDbVertex
100
AcDb2dVertex
 10
185.673611641138
 20
-82.2388920896289
 30
0.0
  0
VERTEX
  5
30D
330
BC
100
AcDbEntity
  8
0
100
AcDbVertex
100
AcDb2dVertex
 10
185.673611641138
 20
-82.2388920896289
 30
0.0
  0
SEQEND
  5
BE
330
BC
100
AcDbEntity
  8
OneHexagon
 62
     7
420
 16777215
370
    35
  0
SPLINE
  5
BF
330
AB
100
AcDbEntity
  8
OneHexagon
 62
     7
420
 16777215
370
    35
100
AcDbSpline
210
0.0
220
0.0
230
1.0
 70
    27
 71
     3
 72
    11
 73
     7
 74
     0
 42
0.0000000001
 43
0.0000000001
 12
1.0
 22
0.0
 32
0.0
 13
1.0
 23
0.0
 33
0.0
 40
0.0
 40
0.0
 40
0.0
 40
0.0
 40
1.0
 40
1.0
 40
1.0
 40
2.0
 40
2.0
 40
2.0
 40
2.0
 10
175.6829262890477
 20
-55.02800048121169
 30
0.0
 10
175.6829262890477
 20
-55.02800048121169
 30
0.0
 10
170.0384803914187
 20
-45.25154044469112
 30
0.0
 10
170.0384803914187
 20
-45.25154044469112
 30
0.0
 10
170.0384803914187
 20
-45.25154044469112
 30
0.0
 10
175.6829262890477
 20
-55.02800048121169
 30
0.0
 10
175.6829262890477
 20
-55.02800048121169
 30
0.0
  0
POLYLINE
  5
C0
330
AB
100
AcDbEntity
  8
OneHexagon
 62
     7
420
 16777215
370
    35
100
AcDb2dPolyline
 66
     1
 10
0.0
 20
0.0
 30
0.0
  0
VERTEX
  5
C1
330
C0
100
AcDbEntity
  8
OneHexagon
 62
     7
420
 16777215
370
    35
100
AcDbVertex
100
AcDb2dVertex
 10
220.2736081738275
 20
-22.17888566204431
 30
0.0
  0
VERTEX
  5
C2
330
C0
100
AcDbEntity
  8
OneHexagon
 62
     7
420
 16777215
370
    35
100
AcDbVertex
100
AcDb2dVertex
 10
185.6736081824777
 20
-2.238885667029158
 30
0.0
  0
VERTEX
  5
C3
330
C0
100
AcDbEntity
  8
OneHexagon
 62
     7
420
 16777215
370
    35
100
AcDbVertex
100
AcDb2dVertex
 10
151.0736081911266
 20
-22.17888566204431
 30
0.0
  0
VERTEX
  5
C4
330
C0
100
AcDbEntity
  8
OneHexagon
 62
     7
420
 16777215
370
    35
100
AcDbVertex
100
AcDb2dVertex
 10
151.1833304133214
 20
-62.42916342975944
 30
0.0
  0
VERTEX
  5
C5
330
C0
100
AcDbEntity
  8
OneHexagon
 62
     7
420
 16777215
370
    35
100
AcDbVertex
100
AcDb2dVertex
 10
185.6736081824777
 20
-82.23888564702926
 30
0.0
  0
SEQEND
  5
C6
330
C0
100
AcDbEntity
  8
OneHexagon
 62
     7
420
 16777215
370
    35
  0
ENDBLK
  5
AE
330
AB
100
AcDbEntity
  8
0
100
AcDbBlockEnd
  0
BLOCK
  5
C9
330
C7
100
AcDbEntity
  8
0
100
AcDbBlockBegin
  2
block 5
 70
     0
 10
0.0
 20
0.0
 30
0.0
  3
block 5
  1

  0
SPLINE
  5
CB
330
C7
100
AcDbEntity
  8
OneHexagon
 62
     7
420
 16777215
370
    35
100
AcDbSpline
210
0.0
220
0.0
230
1.0
 70
    27
 71
     3
 72
    11
 73
     7
 74
     0
 42
0.0000000001
 43
0.0000000001
 12
1.0
 22
0.0
 32
0.0
 13
1.0
 23
0.0
 33
0.0
 40
0.0
 40
0.0
 40
0.0
 40
0.0
 40
1.0
 40
1.0
 40
1.0
 40
2.0
 40
2.0
 40
2.0
 40
2.0
 10
271.4260846895916
 20
-44.36711530379809
 30
0.0
 10
271.4260846895916
 20
-44.36711530379809
 30
0.0
 10
265.7816387919619
 20
-54.14357534031898
 30
0.0
 10
265.7816387919619
 20
-54.14357534031898
 30
0.0
 10
265.7816387919619
 20
-54.14357534031898
 30
0.0
 10
271.4260846895916
 20
-44.36711530379809
 30
0.0
 10
271.4260846895916
 20
-44.36711530379809
 30
0.0
  0
POLYLINE
  5
CC
330
C7
100
AcDbEntity
  8
OneHexagon
 62
     7
420
 16777215
370
    35
100
AcDb2dPolyline
 66
     1
 10
0.0
 20
0.0
 30
0.0
  0
VERTEX
  5
CD
330
CC
100
AcDbEntity
  8
OneHexagon
 62
     7
420
 16777215
370
    35
100
AcDbVertex
100
AcDb2dVertex
 10
254.8736116238383
 20
-82.2388920896289
 30
0.0
  0
VERTEX
  5
30E
330
CC
100
AcDbEntity
  8
0
100
AcDbVertex
100
AcDb2dVertex
 10
254.8736116238383
 20
-82.2388920896289
 30
0.0
  0
SEQEND
  5
CE
330
CC
100
AcDbEntity
  8
OneHexagon
 62
     7
420
 16777215
370
    35
  0
POLYLINE
  5
CF
330
C7
100
AcDbEntity
  8
OneHexagon
 62
     7
420
 16777215
370
    35
100
AcDb2dPolyline
 66
     1
 10
0.0
 20
0.0
 30
0.0
  0
VERTEX
  5
D0
330
CF
100
AcDbEntity
  8
OneHexagon
 62
     7
420
 16777215
370
    35
100
AcDbVertex
100
AcDb2dVertex
 10
249.2291565031151
 20
-22.17888566204431
 30
0.0
  0
VERTEX
  5
D1
330
CF
100
AcDbEntity
  8
OneHexagon
 62
     7
420
 16777215
370
    35
100
AcDbVertex
100
AcDb2dVertex
 10
220.2736081738269
 20
-22.17888566204431
 30
0.0
  0
SEQEND
  5
D2
330
CF
100
AcDbEntity
  8
OneHexagon
 62
     7
420
 16777215
370
    35
  0
POLYLINE
  5
D3
330
C7
100
AcDbEntity
  8
OneHexagon
 62
     7
420
 16777215
370
    35
100
AcDb2dPolyline
 66
     1
 10
0.0
 20
0.0
 30
0.0
  0
VERTEX
  5
D4
330
D3
100
AcDbEntity
  8
OneHexagon
 62
     7
420
 16777215
370
    35
100
AcDbVertex
100
AcDb2dVertex
 10
275.3760599361294
 20
-46.64763129891208
 30
0.0
  0
VERTEX
  5
D5
330
D3
100
AcDbEntity
  8
OneHexagon
 62
     7
420
 16777215
370
    35
100
AcDbVertex
100
AcDb2dVertex
 10
289.4736081565272
 20
-22.17888566204431
 30
0.0
  0
VERTEX
  5
D6
330
D3
100
AcDbEntity
  8
OneHexagon
 62
     7
420
 16777215
370
    35
100
AcDbVertex
100
AcDb2dVertex
 10
260.5180482983745
 20
-22.17888566204431
 30
0.0
  0
SEQEND
  5
D7
330
D3
100
AcDbEntity
  8
OneHexagon
 62
     7
420
 16777215
370
    35
  0
POLYLINE
  5
D8
330
C7
100
AcDbEntity
  8
OneHexagon
 62
     7
420
 16777215
370
    35
100
AcDb2dPolyline
 66
     1
 10
0.0
 20
0.0
 30
0.0
  0
VERTEX
  5
D9
330
D8
100
AcDbEntity
  8
OneHexagon
 62
     7
420
 16777215
370
    35
100
AcDbVertex
100
AcDb2dVertex
 10
269.7316140384991
 20
-56.42409133543298
 30
0.0
  0
VERTEX
  5
DA
330
D8
100
AcDbEntity
  8
OneHexagon
 62
     7
420
 16777215
370
    35
100
AcDbVertex
100
AcDb2dVertex
 10
254.8736116238383
 20
-82.2388920896289
 30
0.0
  0
SEQEND
  5
DB
330
D8
100
AcDbEntity
  8
OneHexagon
 62
     7
420
 16777215
370
    35
  0
POLYLINE
  5
DC
330
C7
100
AcDbEntity
  8
OneHexagon
 62
     7
420
 16777215
370
    35
100
AcDb2dPolyline
 66
     1
 10
0.0
 20
0.0
 30
0.0
  0
VERTEX
  5
DD
330
DC
100
AcDbEntity
  8
OneHexagon
 62
     7
420
 16777215
370
    35
100
AcDbVertex
100
AcDb2dVertex
 10
254.8736081651767
 20
-82.23888564702958
 30
0.0
  0
VERTEX
  5
DE
330
DC
100
AcDbEntity
  8
OneHexagon
 62
     7
420
 16777215
370
    35
100
AcDbVertex
100
AcDb2dVertex
 10
289.4736081565272
 20
-62.42916342975944
 30
0.0
  0
VERTEX
  5
DF
330
DC
100
AcDbEntity
  8
OneHexagon
 62
     7
420
 16777215
370
    35
100
AcDbVertex
100
AcDb2dVertex
 10
289.4736081565272
 20
-22.17888566204431
 30
0.0
  0
VERTEX
  5
E0
330
DC
100
AcDbEntity
  8
OneHexagon
 62
     7
420
 16777215
370
    35
100
AcDbVertex
100
AcDb2dVertex
 10
254.8736081651767
 20
-2.238885667029158
 30
0.0
  0
VERTEX
  5
E1
330
DC
100
AcDbEntity
  8
OneHexagon
 62
     7
420
 16777215
370
    35
100
AcDbVertex
100
AcDb2dVertex
 10
220.2736081738269
 20
-22.17888566204431
 30
0.0
  0
SEQEND
  5
E2
330
DC
100
AcDbEntity
  8
OneHexagon
 62
     7
420
 16777215
370
    35
  0
ENDBLK
  5
CA
330
C7
100
AcDbEntity
  8
0
100
AcDbBlockEnd
  0
BLOCK
  5
FE
330
FC
100
AcDbEntity
  8
0
100
AcDbBlockBegin
  2
block 6
 70
     0
 10
0.0
 20
0.0
 30
0.0
  3
block 6
  1

  0
POLYLINE
  5
100
330
FC
100
AcDbEntity
  8
OneHexagon
 62
     7
420
 16777215
370
    35
100
AcDb2dPolyline
 66
     1
 10
0.0
 20
0.0
 30
0.0
  0
VERTEX
  5
101
330
100
100
AcDbEntity
  8
OneHexagon
 62
     7
420
 16777215
370
    35
100
AcDbVertex
100
AcDb2dVertex
 10
180.600017301586
 20
-126.0300027400893
 30
0.0
  0
VERTEX
  5
102
330
100
100
AcDbEntity
  8
OneHexagon
 62
     7
420
 16777215
370
    35
100
AcDbVertex
100
AcDb2dVertex
 10
194.8456981579543
 20
-150.7842699616517
 30
0.0
  0
SEQEND
  5
103
330
100
100
AcDbEntity
  8
OneHexagon
 62
     7
420
 16777215
370
    35
  0
POLYLINE
  5
104
330
FC
100
AcDbEntity
  8
OneHexagon
 62
     7
420
 16777215
370
    35
100
AcDb2dPolyline
 66
     1
 10
0.0
 20
0.0
 30
0.0
  0
VERTEX
  5
105
330
104
100
AcDbEntity
  8
OneHexagon
 62
     7
420
 16777215
370
    35
100
AcDbVertex
100
AcDb2dVertex
 10
186.244451616908
 20
-186.0900111229671
 30
0.0
  0
VERTEX
  5
106
330
104
100
AcDbEntity
  8
OneHexagon
 62
     7
420
 16777215
370
    35
100
AcDbVertex
100
AcDb2dVertex
 10
215.1999999461966
 20
-186.0900211534649
 30
0.0
  0
VERTEX
  5
107
330
104
100
AcDbEntity
  8
OneHexagon
 62
     7
420
 16777215
370
    35
100
AcDbVertex
100
AcDb2dVertex
 10
200.4901406689188
 20
-160.5607319534653
 30
0.0
  0
SEQEND
  5
108
330
104
100
AcDbEntity
  8
OneHexagon
 62
     7
420
 16777215
370
    35
  0
POLYLINE
  5
109
330
FC
100
AcDbEntity
  8
OneHexagon
 62
     7
420
 16777215
370
    35
100
AcDb2dPolyline
 66
     1
 10
0.0
 20
0.0
 30
0.0
  0
VERTEX
  5
10A
330
109
100
AcDbEntity
  8
OneHexagon
 62
     7
420
 16777215
370
    35
100
AcDbVertex
100
AcDb2dVertex
 10
145.9999999634992
 20
-186.0899971818784
 30
0.0
  0
VERTEX
  5
10B
330
109
100
AcDbEntity
  8
OneHexagon
 62
     7
420
 16777215
370
    35
100
AcDbVertex
100
AcDb2dVertex
 10
174.9555598216506
 20
-186.09000721238
 30
0.0
  0
SEQEND
  5
10C
330
109
100
AcDbEntity
  8
OneHexagon
 62
     7
420
 16777215
370
    35
  0
POLYLINE
  5
10D
330
FC
100
AcDbEntity
  8
OneHexagon
 62
     7
420
 16777215
370
    35
100
AcDb2dPolyline
 66
     1
 10
0.0
 20
0.0
 30
0.0
  0
VERTEX
  5
10E
330
10D
100
AcDbEntity
  8
OneHexagon
 62
     7
420
 16777215
370
    35
100
AcDbVertex
100
AcDb2dVertex
 10
180.600017301586
 20
-126.0300027400893
 30
0.0
  0
VERTEX
  5
30F
330
10D
100
AcDbEntity
  8
0
100
AcDbVertex
100
AcDb2dVertex
 10
180.600017301586
 20
-126.0300027400893
 30
0.0
  0
SEQEND
  5
10F
330
10D
100
AcDbEntity
  8
OneHexagon
 62
     7
420
 16777215
370
    35
  0
SPLINE
  5
110
330
FC
100
AcDbEntity
  8
OneHexagon
 62
     7
420
 16777215
370
    35
100
AcDbSpline
210
0.0
220
0.0
230
1.0
 70
    27
 71
     3
 72
    11
 73
     7
 74
     0
 42
0.0000000001
 43
0.0000000001
 12
1.0
 22
0.0
 32
0.0
 13
1.0
 23
0.0
 33
0.0
 40
0.0
 40
0.0
 40
0.0
 40
0.0
 40
1.0
 40
1.0
 40
1.0
 40
2.0
 40
2.0
 40
2.0
 40
2.0
 10
190.5906932275448
 20
-153.2408978093803
 30
0.0
 10
190.5906932275448
 20
-153.2408978093803
 30
0.0
 10
196.2351357385083
 20
-163.0173598011938
 30
0.0
 10
196.2351357385083
 20
-163.0173598011938
 30
0.0
 10
196.2351357385083
 20
-163.0173598011938
 30
0.0
 10
190.5906932275448
 20
-153.2408978093803
 30
0.0
 10
190.5906932275448
 20
-153.2408978093803
 30
0.0
  0
POLYLINE
  5
111
330
FC
100
AcDbEntity
  8
OneHexagon
 62
     7
420
 16777215
370
    35
100
AcDb2dPolyline
 66
     1
 10
0.0
 20
0.0
 30
0.0
  0
VERTEX
  5
112
330
111
100
AcDbEntity
  8
OneHexagon
 62
     7
420
 16777215
370
    35
100
AcDbVertex
100
AcDb2dVertex
 10
145.9999999634992
 20
-186.0899971818784
 30
0.0
  0
VERTEX
  5
113
330
111
100
AcDbEntity
  8
OneHexagon
 62
     7
420
 16777215
370
    35
100
AcDbVertex
100
AcDb2dVertex
 10
180.5999930474273
 20
-206.0300091626861
 30
0.0
  0
VERTEX
  5
114
330
111
100
AcDbEntity
  8
OneHexagon
 62
     7
420
 16777215
370
    35
100
AcDbVertex
100
AcDb2dVertex
 10
215.1999999461966
 20
-186.0900211534649
 30
0.0
  0
VERTEX
  5
115
330
111
100
AcDbEntity
  8
OneHexagon
 62
     7
420
 16777215
370
    35
100
AcDbVertex
100
AcDb2dVertex
 10
215.0902916671084
 20
-145.8397433477429
 30
0.0
  0
VERTEX
  5
116
330
111
100
AcDbEntity
  8
OneHexagon
 62
     7
420
 16777215
370
    35
100
AcDbVertex
100
AcDb2dVertex
 10
180.6000207602438
 20
-126.0300091826902
 30
0.0
  0
SEQEND
  5
117
330
111
100
AcDbEntity
  8
OneHexagon
 62
     7
420
 16777215
370
    35
  0
ENDBLK
  5
FF
330
FC
100
AcDbEntity
  8
0
100
AcDbBlockEnd
  0
BLOCK
  5
11A
330
118
100
AcDbEntity
  8
0
100
AcDbBlockBegin
  2
block 7
 70
     0
 10
0.0
 20
0.0
 30
0.0
  3
block 7
  1

  0
SPLINE
  5
11C
330
118
100
AcDbEntity
  8
OneHexagon
 62
     7
420
 16777215
370
    35
100
AcDbSpline
210
0.0
220
0.0
230
1.0
 70
    27
 71
     3
 72
    11
 73
     7
 74
     0
 42
0.0000000001
 43
0.0000000001
 12
1.0
 22
0.0
 32
0.0
 13
1.0
 23
0.0
 33
0.0
 40
0.0
 40
0.0
 40
0.0
 40
0.0
 40
1.0
 40
1.0
 40
1.0
 40
2.0
 40
2.0
 40
2.0
 40
2.0
 10
94.84753113396744
 20
-163.9017498203859
 30
0.0
 10
94.84753113396744
 20
-163.9017498203859
 30
0.0
 10
100.4919804182623
 20
-154.1252917391592
 30
0.0
 10
100.4919804182623
 20
-154.1252917391592
 30
0.0
 10
100.4919804182623
 20
-154.1252917391592
 30
0.0
 10
94.84753113396744
 20
-163.9017498203859
 30
0.0
 10
94.84753113396744
 20
-163.9017498203859
 30
0.0
  0
POLYLINE
  5
11D
330
118
100
AcDbEntity
  8
OneHexagon
 62
     7
420
 16777215
370
    35
100
AcDb2dPolyline
 66
     1
 10
0.0
 20
0.0
 30
0.0
  0
VERTEX
  5
11E
330
11D
100
AcDbEntity
  8
OneHexagon
 62
     7
420
 16777215
370
    35
100
AcDbVertex
100
AcDb2dVertex
 10
111.4000173188896
 20
-126.0299787685031
 30
0.0
  0
VERTEX
  5
310
330
11D
100
AcDbEntity
  8
0
100
AcDbVertex
100
AcDb2dVertex
 10
111.4000173188896
 20
-126.0299787685031
 30
0.0
  0
SEQEND
  5
11F
330
11D
100
AcDbEntity
  8
OneHexagon
 62
     7
420
 16777215
370
    35
  0
POLYLINE
  5
120
330
118
100
AcDbEntity
  8
OneHexagon
 62
     7
420
 16777215
370
    35
100
AcDb2dPolyline
 66
     1
 10
0.0
 20
0.0
 30
0.0
  0
VERTEX
  5
121
330
120
100
AcDbEntity
  8
OneHexagon
 62
     7
420
 16777215
370
    35
100
AcDbVertex
100
AcDb2dVertex
 10
117.0444516342132
 20
-186.0899871513812
 30
0.0
  0
VERTEX
  5
122
330
120
100
AcDbEntity
  8
OneHexagon
 62
     7
420
 16777215
370
    35
100
AcDbVertex
100
AcDb2dVertex
 10
145.9999999634998
 20
-186.0899971818784
 30
0.0
  0
SEQEND
  5
123
330
120
100
AcDbEntity
  8
OneHexagon
 62
     7
420
 16777215
370
    35
  0
POLYLINE
  5
124
330
118
100
AcDbEntity
  8
OneHexagon
 62
     7
420
 16777215
370
    35
100
AcDb2dPolyline
 66
     1
 10
0.0
 20
0.0
 30
0.0
  0
VERTEX
  5
125
330
124
100
AcDbEntity
  8
OneHexagon
 62
     7
420
 16777215
370
    35
100
AcDbVertex
100
AcDb2dVertex
 10
90.89755667742371
 20
-161.6212324569604
 30
0.0
  0
VERTEX
  5
126
330
124
100
AcDbEntity
  8
OneHexagon
 62
     7
420
 16777215
370
    35
100
AcDbVertex
100
AcDb2dVertex
 10
76.79999998080372
 20
-186.0899732102925
 30
0.0
  0
VERTEX
  5
127
330
124
100
AcDbEntity
  8
OneHexagon
 62
     7
420
 16777215
370
    35
100
AcDbVertex
100
AcDb2dVertex
 10
105.7555598389545
 20
-186.0899832407941
 30
0.0
  0
SEQEND
  5
128
330
124
100
AcDbEntity
  8
OneHexagon
 62
     7
420
 16777215
370
    35
  0
POLYLINE
  5
129
330
118
100
AcDbEntity
  8
OneHexagon
 62
     7
420
 16777215
370
    35
100
AcDb2dPolyline
 66
     1
 10
0.0
 20
0.0
 30
0.0
  0
VERTEX
  5
12A
330
129
100
AcDbEntity
  8
OneHexagon
 62
     7
420
 16777215
370
    35
100
AcDbVertex
100
AcDb2dVertex
 10
96.54200596171951
 20
-151.8447743757337
 30
0.0
  0
VERTEX
  5
12B
330
129
100
AcDbEntity
  8
OneHexagon
 62
     7
420
 16777215
370
    35
100
AcDbVertex
100
AcDb2dVertex
 10
111.4000173188896
 20
-126.0299787685031
 30
0.0
  0
SEQEND
  5
12C
330
129
100
AcDbEntity
  8
OneHexagon
 62
     7
420
 16777215
370
    35
  0
POLYLINE
  5
12D
330
118
100
AcDbEntity
  8
OneHexagon
 62
     7
420
 16777215
370
    35
100
AcDb2dPolyline
 66
     1
 10
0.0
 20
0.0
 30
0.0
  0
VERTEX
  5
12E
330
12D
100
AcDbEntity
  8
OneHexagon
 62
     7
420
 16777215
370
    35
100
AcDbVertex
100
AcDb2dVertex
 10
111.4000207775492
 20
-126.0299852111034
 30
0.0
  0
VERTEX
  5
12F
330
12D
100
AcDbEntity
  8
OneHexagon
 62
     7
420
 16777215
370
    35
100
AcDbVertex
100
AcDb2dVertex
 10
76.8000139239106
 20
-145.8396954425793
 30
0.0
  0
VERTEX
  5
130
330
12D
100
AcDbEntity
  8
OneHexagon
 62
     7
420
 16777215
370
    35
100
AcDbVertex
100
AcDb2dVertex
 10
76.79999998080372
 20
-186.0899732102925
 30
0.0
  0
VERTEX
  5
131
330
12D
100
AcDbEntity
  8
OneHexagon
 62
     7
420
 16777215
370
    35
100
AcDbVertex
100
AcDb2dVertex
 10
111.3999930647325
 20
-206.0299851910996
 30
0.0
  0
VERTEX
  5
132
330
12D
100
AcDbEntity
  8
OneHexagon
 62
     7
420
 16777215
370
    35
100
AcDbVertex
100
AcDb2dVertex
 10
145.9999999634998
 20
-186.0899971818784
 30
0.0
  0
SEQEND
  5
133
330
12D
100
AcDbEntity
  8
OneHexagon
 62
     7
420
 16777215
370
    35
  0
ENDBLK
  5
11B
330
118
100
AcDbEntity
  8
0
100
AcDbBlockEnd
  0
BLOCK
  5
14F
330
14D
100
AcDbEntity
  8
0
100
AcDbBlockBegin
  2
block 8
 70
     0
 10
0.0
 20
0.0
 30
0.0
  3
block 8
  1

  0
POLYLINE
  5
151
330
14D
100
AcDbEntity
  8
OneHexagon
 62
     7
420
 16777215
370
    35
100
AcDb2dPolyline
 66
     1
 10
0.0
 20
0.0
 30
0.0
  0
VERTEX
  5
152
330
151
100
AcDbEntity
  8
OneHexagon
 62
     7
420
 16777215
370
    35
100
AcDbVertex
100
AcDb2dVertex
 10
334.4000033750606
 20
-81.97000320080723
 30
0.0
  0
VERTEX
  5
153
330
151
100
AcDbEntity
  8
OneHexagon
 62
     7
420
 16777215
370
    35
100
AcDbVertex
100
AcDb2dVertex
 10
320.1543139435622
 20
-57.2157409140955
 30
0.0
  0
SEQEND
  5
154
330
151
100
AcDbEntity
  8
OneHexagon
 62
     7
420
 16777215
370
    35
  0
POLYLINE
  5
155
330
14D
100
AcDbEntity
  8
OneHexagon
 62
     7
420
 16777215
370
    35
100
AcDb2dPolyline
 66
     1
 10
0.0
 20
0.0
 30
0.0
  0
VERTEX
  5
156
330
155
100
AcDbEntity
  8
OneHexagon
 62
     7
420
 16777215
370
    35
100
AcDbVertex
100
AcDb2dVertex
 10
328.7555482543388
 20
-21.90999677322264
 30
0.0
  0
VERTEX
  5
157
330
155
100
AcDbEntity
  8
OneHexagon
 62
     7
420
 16777215
370
    35
100
AcDbVertex
100
AcDb2dVertex
 10
299.7999999250492
 20
-21.90999677322264
 30
0.0
  0
VERTEX
  5
158
330
155
100
AcDbEntity
  8
OneHexagon
 62
     7
420
 16777215
370
    35
100
AcDbVertex
100
AcDb2dVertex
 10
314.5098680459319
 20
-47.43928087757524
 30
0.0
  0
SEQEND
  5
159
330
155
100
AcDbEntity
  8
OneHexagon
 62
     7
420
 16777215
370
    35
  0
POLYLINE
  5
15A
330
14D
100
AcDbEntity
  8
OneHexagon
 62
     7
420
 16777215
370
    35
100
AcDb2dPolyline
 66
     1
 10
0.0
 20
0.0
 30
0.0
  0
VERTEX
  5
15B
330
15A
100
AcDbEntity
  8
OneHexagon
 62
     7
420
 16777215
370
    35
100
AcDbVertex
100
AcDb2dVertex
 10
368.9999999077489
 20
-21.90999677322264
 30
0.0
  0
VERTEX
  5
15C
330
15A
100
AcDbEntity
  8
OneHexagon
 62
     7
420
 16777215
370
    35
100
AcDbVertex
100
AcDb2dVertex
 10
340.0444400495969
 20
-21.90999677322264
 30
0.0
  0
SEQEND
  5
15D
330
15A
100
AcDbEntity
  8
OneHexagon
 62
     7
420
 16777215
370
    35
  0
POLYLINE
  5
15E
330
14D
100
AcDbEntity
  8
OneHexagon
 62
     7
420
 16777215
370
    35
100
AcDb2dPolyline
 66
     1
 10
0.0
 20
0.0
 30
0.0
  0
VERTEX
  5
15F
330
15E
100
AcDbEntity
  8
OneHexagon
 62
     7
420
 16777215
370
    35
100
AcDbVertex
100
AcDb2dVertex
 10
334.4000033750606
 20
-81.97000320080723
 30
0.0
  0
VERTEX
  5
311
330
15E
100
AcDbEntity
  8
0
100
AcDbVertex
100
AcDb2dVertex
 10
334.4000033750606
 20
-81.97000320080723
 30
0.0
  0
SEQEND
  5
160
330
15E
100
AcDbEntity
  8
OneHexagon
 62
     7
420
 16777215
370
    35
  0
SPLINE
  5
161
330
14D
100
AcDbEntity
  8
OneHexagon
 62
     7
420
 16777215
370
    35
100
AcDbSpline
210
0.0
220
0.0
230
1.0
 70
    27
 71
     3
 72
    11
 73
     7
 74
     0
 42
0.0000000001
 43
0.0000000001
 12
1.0
 22
0.0
 32
0.0
 13
1.0
 23
0.0
 33
0.0
 40
0.0
 40
0.0
 40
0.0
 40
0.0
 40
1.0
 40
1.0
 40
1.0
 40
2.0
 40
2.0
 40
2.0
 40
2.0
 10
324.4093180229704
 20
-54.75911159239002
 30
0.0
 10
324.4093180229704
 20
-54.75911159239002
 30
0.0
 10
318.7648721253414
 20
-44.98265155586945
 30
0.0
 10
318.7648721253414
 20
-44.98265155586945
 30
0.0
 10
318.7648721253414
 20
-44.98265155586945
 30
0.0
 10
324.4093180229704
 20
-54.75911159239002
 30
0.0
 10
324.4093180229704
 20
-54.75911159239002
 30
0.0
  0
POLYLINE
  5
162
330
14D
100
AcDbEntity
  8
OneHexagon
 62
     7
420
 16777215
370
    35
100
AcDb2dPolyline
 66
     1
 10
0.0
 20
0.0
 30
0.0
  0
VERTEX
  5
163
330
162
100
AcDbEntity
  8
OneHexagon
 62
     7
420
 16777215
370
    35
100
AcDbVertex
100
AcDb2dVertex
 10
368.9999999077489
 20
-21.90999677322264
 30
0.0
  0
VERTEX
  5
164
330
162
100
AcDbEntity
  8
OneHexagon
 62
     7
420
 16777215
370
    35
100
AcDbVertex
100
AcDb2dVertex
 10
334.3999999164004
 20
-1.969996778207489
 30
0.0
  0
VERTEX
  5
165
330
162
100
AcDbEntity
  8
OneHexagon
 62
     7
420
 16777215
370
    35
100
AcDbVertex
100
AcDb2dVertex
 10
299.7999999250492
 20
-21.90999677322264
 30
0.0
  0
VERTEX
  5
166
330
162
100
AcDbEntity
  8
OneHexagon
 62
     7
420
 16777215
370
    35
100
AcDbVertex
100
AcDb2dVertex
 10
299.9097221472441
 20
-62.16027454093745
 30
0.0
  0
VERTEX
  5
167
330
162
100
AcDbEntity
  8
OneHexagon
 62
     7
420
 16777215
370
    35
100
AcDbVertex
100
AcDb2dVertex
 10
334.3999999164004
 20
-81.96999675820759
 30
0.0
  0
SEQEND
  5
168
330
162
100
AcDbEntity
  8
OneHexagon
 62
     7
420
 16777215
370
    35
  0
ENDBLK
  5
150
330
14D
100
AcDbEntity
  8
0
100
AcDbBlockEnd
  0
BLOCK
  5
16B
330
169
100
AcDbEntity
  8
0
100
AcDbBlockBegin
  2
block 9
 70
     0
 10
0.0
 20
0.0
 30
0.0
  3
block 9
  1

  0
SPLINE
  5
16D
330
169
100
AcDbEntity
  8
OneHexagon
 62
     7
420
 16777215
370
    35
100
AcDbSpline
210
0.0
220
0.0
230
1.0
 70
    27
 71
     3
 72
    11
 73
     7
 74
     0
 42
0.0000000001
 43
0.0000000001
 12
1.0
 22
0.0
 32
0.0
 13
1.0
 23
0.0
 33
0.0
 40
0.0
 40
0.0
 40
0.0
 40
0.0
 40
1.0
 40
1.0
 40
1.0
 40
2.0
 40
2.0
 40
2.0
 40
2.0
 10
420.1524764235174
 20
-44.09822641497674
 30
0.0
 10
420.1524764235174
 20
-44.09822641497674
 30
0.0
 10
414.5080305258826
 20
-53.87468645149764
 30
0.0
 10
414.5080305258826
 20
-53.87468645149764
 30
0.0
 10
414.5080305258826
 20
-53.87468645149764
 30
0.0
 10
420.1524764235174
 20
-44.09822641497674
 30
0.0
 10
420.1524764235174
 20
-44.09822641497674
 30
0.0
  0
POLYLINE
  5
16E
330
169
100
AcDbEntity
  8
OneHexagon
 62
     7
420
 16777215
370
    35
100
AcDb2dPolyline
 66
     1
 10
0.0
 20
0.0
 30
0.0
  0
VERTEX
  5
16F
330
16E
100
AcDbEntity
  8
OneHexagon
 62
     7
420
 16777215
370
    35
100
AcDbVertex
100
AcDb2dVertex
 10
403.6000033577635
 20
-81.97000320080723
 30
0.0
  0
VERTEX
  5
312
330
16E
100
AcDbEntity
  8
0
100
AcDbVertex
100
AcDb2dVertex
 10
403.6000033577635
 20
-81.97000320080723
 30
0.0
  0
SEQEND
  5
170
330
16E
100
AcDbEntity
  8
OneHexagon
 62
     7
420
 16777215
370
    35
  0
POLYLINE
  5
171
330
169
100
AcDbEntity
  8
OneHexagon
 62
     7
420
 16777215
370
    35
100
AcDb2dPolyline
 66
     1
 10
0.0
 20
0.0
 30
0.0
  0
VERTEX
  5
172
330
171
100
AcDbEntity
  8
OneHexagon
 62
     7
420
 16777215
370
    35
100
AcDbVertex
100
AcDb2dVertex
 10
397.9555482370391
 20
-21.90999677322264
 30
0.0
  0
VERTEX
  5
173
330
171
100
AcDbEntity
  8
OneHexagon
 62
     7
420
 16777215
370
    35
100
AcDbVertex
100
AcDb2dVertex
 10
368.9999999077489
 20
-21.90999677322264
 30
0.0
  0
SEQEND
  5
174
330
171
100
AcDbEntity
  8
OneHexagon
 62
     7
420
 16777215
370
    35
  0
POLYLINE
  5
175
330
169
100
AcDbEntity
  8
OneHexagon
 62
     7
420
 16777215
370
    35
100
AcDb2dPolyline
 66
     1
 10
0.0
 20
0.0
 30
0.0
  0
VERTEX
  5
176
330
175
100
AcDbEntity
  8
OneHexagon
 62
     7
420
 16777215
370
    35
100
AcDbVertex
100
AcDb2dVertex
 10
424.1024516700533
 20
-46.37874241009041
 30
0.0
  0
VERTEX
  5
177
330
175
100
AcDbEntity
  8
OneHexagon
 62
     7
420
 16777215
370
    35
100
AcDbVertex
100
AcDb2dVertex
 10
438.1999998904517
 20
-21.90999677322264
 30
0.0
  0
VERTEX
  5
178
330
175
100
AcDbEntity
  8
OneHexagon
 62
     7
420
 16777215
370
    35
100
AcDbVertex
100
AcDb2dVertex
 10
409.2444400322984
 20
-21.90999677322264
 30
0.0
  0
SEQEND
  5
179
330
175
100
AcDbEntity
  8
OneHexagon
 62
     7
420
 16777215
370
    35
  0
POLYLINE
  5
17A
330
169
100
AcDbEntity
  8
OneHexagon
 62
     7
420
 16777215
370
    35
100
AcDb2dPolyline
 66
     1
 10
0.0
 20
0.0
 30
0.0
  0
VERTEX
  5
17B
330
17A
100
AcDbEntity
  8
OneHexagon
 62
     7
420
 16777215
370
    35
100
AcDbVertex
100
AcDb2dVertex
 10
418.4580057724179
 20
-56.15520244661131
 30
0.0
  0
VERTEX
  5
17C
330
17A
100
AcDbEntity
  8
OneHexagon
 62
     7
420
 16777215
370
    35
100
AcDbVertex
100
AcDb2dVertex
 10
403.6000033577635
 20
-81.97000320080723
 30
0.0
  0
SEQEND
  5
17D
330
17A
100
AcDbEntity
  8
OneHexagon
 62
     7
420
 16777215
370
    35
  0
POLYLINE
  5
17E
330
169
100
AcDbEntity
  8
OneHexagon
 62
     7
420
 16777215
370
    35
100
AcDb2dPolyline
 66
     1
 10
0.0
 20
0.0
 30
0.0
  0
VERTEX
  5
17F
330
17E
100
AcDbEntity
  8
OneHexagon
 62
     7
420
 16777215
370
    35
100
AcDbVertex
100
AcDb2dVertex
 10
403.5999998991019
 20
-81.96999675820791
 30
0.0
  0
VERTEX
  5
180
330
17E
100
AcDbEntity
  8
OneHexagon
 62
     7
420
 16777215
370
    35
100
AcDbVertex
100
AcDb2dVertex
 10
438.1999998904517
 20
-62.16027454093745
 30
0.0
  0
VERTEX
  5
181
330
17E
100
AcDbEntity
  8
OneHexagon
 62
     7
420
 16777215
370
    35
100
AcDbVertex
100
AcDb2dVertex
 10
438.1999998904517
 20
-21.90999677322264
 30
0.0
  0
VERTEX
  5
182
330
17E
100
AcDbEntity
  8
OneHexagon
 62
     7
420
 16777215
370
    35
100
AcDbVertex
100
AcDb2dVertex
 10
403.5999998991019
 20
-1.969996778207489
 30
0.0
  0
VERTEX
  5
183
330
17E
100
AcDbEntity
  8
OneHexagon
 62
     7
420
 16777215
370
    35
100
AcDbVertex
100
AcDb2dVertex
 10
368.9999999077489
 20
-21.90999677322264
 30
0.0
  0
SEQEND
  5
184
330
17E
100
AcDbEntity
  8
OneHexagon
 62
     7
420
 16777215
370
    35
  0
ENDBLK
  5
16C
330
169
100
AcDbEntity
  8
0
100
AcDbBlockEnd
  0
BLOCK
  5
1A0
330
19E
100
AcDbEntity
  8
0
100
AcDbBlockBegin
  2
block 10
 70
     0
 10
0.0
 20
0.0
 30
0.0
  3
block 10
  1

  0
POLYLINE
  5
1A2
330
19E
100
AcDbEntity
  8
OneHexagon
 62
     7
420
 16777215
370
    35
100
AcDb2dPolyline
 66
     1
 10
0.0
 20
0.0
 30
0.0
  0
VERTEX
  5
1A3
330
1A2
100
AcDbEntity
  8
OneHexagon
 62
     7
420
 16777215
370
    35
100
AcDbVertex
100
AcDb2dVertex
 10
329.1027719261187
 20
-126.0300027400893
 30
0.0
  0
VERTEX
  5
1A4
330
1A2
100
AcDbEntity
  8
OneHexagon
 62
     7
420
 16777215
370
    35
100
AcDbVertex
100
AcDb2dVertex
 10
343.348452782487
 20
-150.7842699616517
 30
0.0
  0
SEQEND
  5
1A5
330
1A2
100
AcDbEntity
  8
OneHexagon
 62
     7
420
 16777215
370
    35
  0
POLYLINE
  5
1A6
330
19E
100
AcDbEntity
  8
OneHexagon
 62
     7
420
 16777215
370
    35
100
AcDb2dPolyline
 66
     1
 10
0.0
 20
0.0
 30
0.0
  0
VERTEX
  5
1A7
330
1A6
100
AcDbEntity
  8
OneHexagon
 62
     7
420
 16777215
370
    35
100
AcDbVertex
100
AcDb2dVertex
 10
334.7472062414407
 20
-186.0900111229671
 30
0.0
  0
VERTEX
  5
1A8
330
1A6
100
AcDbEntity
  8
OneHexagon
 62
     7
420
 16777215
370
    35
100
AcDbVertex
100
AcDb2dVertex
 10
363.702754570729
 20
-186.0900211534646
 30
0.0
  0
VERTEX
  5
1A9
330
1A6
100
AcDbEntity
  8
OneHexagon
 62
     7
420
 16777215
370
    35
100
AcDbVertex
100
AcDb2dVertex
 10
348.9928952934518
 20
-160.5607319534653
 30
0.0
  0
SEQEND
  5
1AA
330
1A6
100
AcDbEntity
  8
OneHexagon
 62
     7
420
 16777215
370
    35
  0
POLYLINE
  5
1AB
330
19E
100
AcDbEntity
  8
OneHexagon
 62
     7
420
 16777215
370
    35
100
AcDb2dPolyline
 66
     1
 10
0.0
 20
0.0
 30
0.0
  0
VERTEX
  5
1AC
330
1AB
100
AcDbEntity
  8
OneHexagon
 62
     7
420
 16777215
370
    35
100
AcDbVertex
100
AcDb2dVertex
 10
294.5027545880319
 20
-186.089997181878
 30
0.0
  0
VERTEX
  5
1AD
330
1AB
100
AcDbEntity
  8
OneHexagon
 62
     7
420
 16777215
370
    35
100
AcDbVertex
100
AcDb2dVertex
 10
323.4583144461833
 20
-186.0900072123797
 30
0.0
  0
SEQEND
  5
1AE
330
1AB
100
AcDbEntity
  8
OneHexagon
 62
     7
420
 16777215
370
    35
  0
POLYLINE
  5
1AF
330
19E
100
AcDbEntity
  8
OneHexagon
 62
     7
420
 16777215
370
    35
100
AcDb2dPolyline
 66
     1
 10
0.0
 20
0.0
 30
0.0
  0
VERTEX
  5
1B0
330
1AF
100
AcDbEntity
  8
OneHexagon
 62
     7
420
 16777215
370
    35
100
AcDbVertex
100
AcDb2dVertex
 10
329.1027719261187
 20
-126.0300027400893
 30
0.0
  0
VERTEX
  5
313
330
1AF
100
AcDbEntity
  8
0
100
AcDbVertex
100
AcDb2dVertex
 10
329.1027719261187
 20
-126.0300027400893
 30
0.0
  0
SEQEND
  5
1B1
330
1AF
100
AcDbEntity
  8
OneHexagon
 62
     7
420
 16777215
370
    35
  0
SPLINE
  5
1B2
330
19E
100
AcDbEntity
  8
OneHexagon
 62
     7
420
 16777215
370
    35
100
AcDbSpline
210
0.0
220
0.0
230
1.0
 70
    27
 71
     3
 72
    11
 73
     7
 74
     0
 42
0.0000000001
 43
0.0000000001
 12
1.0
 22
0.0
 32
0.0
 13
1.0
 23
0.0
 33
0.0
 40
0.0
 40
0.0
 40
0.0
 40
0.0
 40
1.0
 40
1.0
 40
1.0
 40
2.0
 40
2.0
 40
2.0
 40
2.0
 10
339.0934478520774
 20
-153.2408978093803
 30
0.0
 10
339.0934478520774
 20
-153.2408978093803
 30
0.0
 10
344.7378903630409
 20
-163.0173598011938
 30
0.0
 10
344.7378903630409
 20
-163.0173598011938
 30
0.0
 10
344.7378903630409
 20
-163.0173598011938
 30
0.0
 10
339.0934478520774
 20
-153.2408978093803
 30
0.0
 10
339.0934478520774
 20
-153.2408978093803
 30
0.0
  0
POLYLINE
  5
1B3
330
19E
100
AcDbEntity
  8
OneHexagon
 62
     7
420
 16777215
370
    35
100
AcDb2dPolyline
 66
     1
 10
0.0
 20
0.0
 30
0.0
  0
VERTEX
  5
1B4
330
1B3
100
AcDbEntity
  8
OneHexagon
 62
     7
420
 16777215
370
    35
100
AcDbVertex
100
AcDb2dVertex
 10
294.5027545880319
 20
-186.089997181878
 30
0.0
  0
VERTEX
  5
1B5
330
1B3
100
AcDbEntity
  8
OneHexagon
 62
     7
420
 16777215
370
    35
100
AcDbVertex
100
AcDb2dVertex
 10
329.10274767196
 20
-206.0300091626858
 30
0.0
  0
VERTEX
  5
1B6
330
1B3
100
AcDbEntity
  8
OneHexagon
 62
     7
420
 16777215
370
    35
100
AcDbVertex
100
AcDb2dVertex
 10
363.702754570729
 20
-186.0900211534646
 30
0.0
  0
VERTEX
  5
1B7
330
1B3
100
AcDbEntity
  8
OneHexagon
 62
     7
420
 16777215
370
    35
100
AcDbVertex
100
AcDb2dVertex
 10
363.5930462916411
 20
-145.8397433477429
 30
0.0
  0
VERTEX
  5
1B8
330
1B3
100
AcDbEntity
  8
OneHexagon
 62
     7
420
 16777215
370
    35
100
AcDbVertex
100
AcDb2dVertex
 10
329.1027753847764
 20
-126.0300091826902
 30
0.0
  0
SEQEND
  5
1B9
330
1B3
100
AcDbEntity
  8
OneHexagon
 62
     7
420
 16777215
370
    35
  0
ENDBLK
  5
1A1
330
19E
100
AcDbEntity
  8
0
100
AcDbBlockEnd
  0
BLOCK
  5
1BC
330
1BA
100
AcDbEntity
  8
0
100
AcDbBlockBegin
  2
block 11
 70
     0
 10
0.0
 20
0.0
 30
0.0
  3
block 11
  1

  0
SPLINE
  5
1BE
330
1BA
100
AcDbEntity
  8
OneHexagon
 62
     7
420
 16777215
370
    35
100
AcDbSpline
210
0.0
220
0.0
230
1.0
 70
    27
 71
     3
 72
    11
 73
     7
 74
     0
 42
0.0000000001
 43
0.0000000001
 12
1.0
 22
0.0
 32
0.0
 13
1.0
 23
0.0
 33
0.0
 40
0.0
 40
0.0
 40
0.0
 40
0.0
 40
1.0
 40
1.0
 40
1.0
 40
2.0
 40
2.0
 40
2.0
 40
2.0
 10
243.3502857585004
 20
-163.9017498203859
 30
0.0
 10
243.3502857585004
 20
-163.9017498203859
 30
0.0
 10
248.994735042795
 20
-154.1252917391592
 30
0.0
 10
248.994735042795
 20
-154.1252917391592
 30
0.0
 10
248.994735042795
 20
-154.1252917391592
 30
0.0
 10
243.3502857585004
 20
-163.9017498203859
 30
0.0
 10
243.3502857585004
 20
-163.9017498203859
 30
0.0
  0
POLYLINE
  5
1BF
330
1BA
100
AcDbEntity
  8
OneHexagon
 62
     7
420
 16777215
370
    35
100
AcDb2dPolyline
 66
     1
 10
0.0
 20
0.0
 30
0.0
  0
VERTEX
  5
1C0
330
1BF
100
AcDbEntity
  8
OneHexagon
 62
     7
420
 16777215
370
    35
100
AcDbVertex
100
AcDb2dVertex
 10
259.9027719434222
 20
-126.0299787685031
 30
0.0
  0
VERTEX
  5
314
330
1BF
100
AcDbEntity
  8
0
100
AcDbVertex
100
AcDb2dVertex
 10
259.9027719434222
 20
-126.0299787685031
 30
0.0
  0
SEQEND
  5
1C1
330
1BF
100
AcDbEntity
  8
OneHexagon
 62
     7
420
 16777215
370
    35
  0
POLYLINE
  5
1C2
330
1BA
100
AcDbEntity
  8
OneHexagon
 62
     7
420
 16777215
370
    35
100
AcDb2dPolyline
 66
     1
 10
0.0
 20
0.0
 30
0.0
  0
VERTEX
  5
1C3
330
1C2
100
AcDbEntity
  8
OneHexagon
 62
     7
420
 16777215
370
    35
100
AcDbVertex
100
AcDb2dVertex
 10
265.5472062587455
 20
-186.0899871513806
 30
0.0
  0
VERTEX
  5
1C4
330
1C2
100
AcDbEntity
  8
OneHexagon
 62
     7
420
 16777215
370
    35
100
AcDbVertex
100
AcDb2dVertex
 10
294.5027545880325
 20
-186.089997181878
 30
0.0
  0
SEQEND
  5
1C5
330
1C2
100
AcDbEntity
  8
OneHexagon
 62
     7
420
 16777215
370
    35
  0
POLYLINE
  5
1C6
330
1BA
100
AcDbEntity
  8
OneHexagon
 62
     7
420
 16777215
370
    35
100
AcDb2dPolyline
 66
     1
 10
0.0
 20
0.0
 30
0.0
  0
VERTEX
  5
1C7
330
1C6
100
AcDbEntity
  8
OneHexagon
 62
     7
420
 16777215
370
    35
100
AcDbVertex
100
AcDb2dVertex
 10
239.4003113019564
 20
-161.6212324569604
 30
0.0
  0
VERTEX
  5
1C8
330
1C6
100
AcDbEntity
  8
OneHexagon
 62
     7
420
 16777215
370
    35
100
AcDbVertex
100
AcDb2dVertex
 10
225.3027546053364
 20
-186.0899732102922
 30
0.0
  0
VERTEX
  5
1C9
330
1C6
100
AcDbEntity
  8
OneHexagon
 62
     7
420
 16777215
370
    35
100
AcDbVertex
100
AcDb2dVertex
 10
254.2583144634875
 20
-186.0899832407938
 30
0.0
  0
SEQEND
  5
1CA
330
1C6
100
AcDbEntity
  8
OneHexagon
 62
     7
420
 16777215
370
    35
  0
POLYLINE
  5
1CB
330
1BA
100
AcDbEntity
  8
OneHexagon
 62
     7
420
 16777215
370
    35
100
AcDb2dPolyline
 66
     1
 10
0.0
 20
0.0
 30
0.0
  0
VERTEX
  5
1CC
330
1CB
100
AcDbEntity
  8
OneHexagon
 62
     7
420
 16777215
370
    35
100
AcDbVertex
100
AcDb2dVertex
 10
245.0447605862522
 20
-151.8447743757337
 30
0.0
  0
VERTEX
  5
1CD
330
1CB
100
AcDbEntity
  8
OneHexagon
 62
     7
420
 16777215
370
    35
100
AcDbVertex
100
AcDb2dVertex
 10
259.9027719434222
 20
-126.0299787685031
 30
0.0
  0
SEQEND
  5
1CE
330
1CB
100
AcDbEntity
  8
OneHexagon
 62
     7
420
 16777215
370
    35
  0
POLYLINE
  5
1CF
330
1BA
100
AcDbEntity
  8
OneHexagon
 62
     7
420
 16777215
370
    35
100
AcDb2dPolyline
 66
     1
 10
0.0
 20
0.0
 30
0.0
  0
VERTEX
  5
1D0
330
1CF
100
AcDbEntity
  8
OneHexagon
 62
     7
420
 16777215
370
    35
100
AcDbVertex
100
AcDb2dVertex
 10
259.9027754020819
 20
-126.0299852111034
 30
0.0
  0
VERTEX
  5
1D1
330
1CF
100
AcDbEntity
  8
OneHexagon
 62
     7
420
 16777215
370
    35
100
AcDbVertex
100
AcDb2dVertex
 10
225.3027685484436
 20
-145.8396954425793
 30
0.0
  0
VERTEX
  5
1D2
330
1CF
100
AcDbEntity
  8
OneHexagon
 62
     7
420
 16777215
370
    35
100
AcDbVertex
100
AcDb2dVertex
 10
225.3027546053364
 20
-186.0899732102922
 30
0.0
  0
VERTEX
  5
1D3
330
1CF
100
AcDbEntity
  8
OneHexagon
 62
     7
420
 16777215
370
    35
100
AcDbVertex
100
AcDb2dVertex
 10
259.9027476892649
 20
-206.0299851910993
 30
0.0
  0
VERTEX
  5
1D4
330
1CF
100
AcDbEntity
  8
OneHexagon
 62
     7
420
 16777215
370
    35
100
AcDbVertex
100
AcDb2dVertex
 10
294.5027545880325
 20
-186.089997181878
 30
0.0
  0
SEQEND
  5
1D5
330
1CF
100
AcDbEntity
  8
OneHexagon
 62
     7
420
 16777215
370
    35
  0
ENDBLK
  5
1BD
330
1BA
100
AcDbEntity
  8
0
100
AcDbBlockEnd
  0
BLOCK
  5
1ED
330
1EB
100
AcDbEntity
  8
0
100
AcDbBlockBegin
  2
block 12
 70
     0
 10
0.0
 20
0.0
 30
0.0
  3
block 12
  1

  0
POLYLINE
  5
1EF
330
1EB
100
AcDbEntity
  8
TwoHexagon
 62
     7
420
 16777215
370
    35
100
AcDb2dPolyline
 66
     1
 10
0.0
 20
0.0
 30
0.0
  0
VERTEX
  5
1F0
330
1EF
100
AcDbEntity
  8
TwoHexagon
 62
     7
420
 16777215
370
    35
100
AcDbVertex
100
AcDb2dVertex
 10
444.0000076709835
 20
-186.0600031747855
 30
0.0
  0
VERTEX
  5
1F1
330
1EF
100
AcDbEntity
  8
TwoHexagon
 62
     7
420
 16777215
370
    35
100
AcDbVertex
100
AcDb2dVertex
 10
429.7543182394858
 20
-161.3057408880718
 30
0.0
  0
SEQEND
  5
1F2
330
1EF
100
AcDbEntity
  8
TwoHexagon
 62
     7
420
 16777215
370
    35
  0
POLYLINE
  5
1F3
330
1EB
100
AcDbEntity
  8
TwoHexagon
 62
     7
420
 16777215
370
    35
100
AcDb2dPolyline
 66
     1
 10
0.0
 20
0.0
 30
0.0
  0
VERTEX
  5
1F4
330
1F3
100
AcDbEntity
  8
TwoHexagon
 62
     7
420
 16777215
370
    35
100
AcDbVertex
100
AcDb2dVertex
 10
458.8580100856488
 20
-160.2452024205876
 30
0.0
  0
VERTEX
  5
1F5
330
1F3
100
AcDbEntity
  8
TwoHexagon
 62
     7
420
 16777215
370
    35
100
AcDbVertex
100
AcDb2dVertex
 10
444.0000076709835
 20
-186.0600031747855
 30
0.0
  0
SEQEND
  5
1F6
330
1F3
100
AcDbEntity
  8
TwoHexagon
 62
     7
420
 16777215
370
    35
  0
SPLINE
  5
1F7
330
1EB
100
AcDbEntity
  8
TwoHexagon
 62
     7
420
 16777215
370
    35
100
AcDbSpline
210
0.0
220
0.0
230
1.0
 70
    27
 71
     3
 72
    11
 73
     7
 74
     0
 42
0.0000000001
 43
0.0000000001
 12
1.0
 22
0.0
 32
0.0
 13
1.0
 23
0.0
 33
0.0
 40
0.0
 40
0.0
 40
0.0
 40
0.0
 40
1.0
 40
1.0
 40
1.0
 40
2.0
 40
2.0
 40
2.0
 40
2.0
 10
434.0093223188952
 20
-158.8491115663667
 30
0.0
 10
434.0093223188952
 20
-158.8491115663667
 30
0.0
 10
428.3648764212636
 20
-149.0726515298464
 30
0.0
 10
428.3648764212636
 20
-149.0726515298464
 30
0.0
 10
428.3648764212636
 20
-149.0726515298464
 30
0.0
 10
434.0093223188952
 20
-158.8491115663667
 30
0.0
 10
434.0093223188952
 20
-158.8491115663667
 30
0.0
  0
POLYLINE
  5
1F8
330
1EB
100
AcDbEntity
  8
TwoHexagon
 62
     7
420
 16777215
370
    35
100
AcDb2dPolyline
 66
     1
 10
0.0
 20
0.0
 30
0.0
  0
VERTEX
  5
1F9
330
1F8
100
AcDbEntity
  8
TwoHexagon
 62
     7
420
 16777215
370
    35
100
AcDbVertex
100
AcDb2dVertex
 10
464.8552337609661
 20
-150.1159646063778
 30
0.0
  0
VERTEX
  5
1FA
330
1F8
100
AcDbEntity
  8
TwoHexagon
 62
     7
420
 16777215
370
    35
100
AcDbVertex
100
AcDb2dVertex
 10
478.5999984392406
 20
-125.9999999684993
 30
0.0
  0
VERTEX
  5
1FB
330
1F8
100
AcDbEntity
  8
TwoHexagon
 62
     7
420
 16777215
370
    35
100
AcDbVertex
100
AcDb2dVertex
 10
478.6000042036718
 20
-125.9999967471993
 30
0.0
  0
VERTEX
  5
1FC
330
1F8
100
AcDbEntity
  8
TwoHexagon
 62
     7
420
 16777215
370
    35
100
AcDbVertex
100
AcDb2dVertex
 10
478.6000042036718
 20
-166.2502745149135
 30
0.0
  0
VERTEX
  5
1FD
330
1F8
100
AcDbEntity
  8
TwoHexagon
 62
     7
420
 16777215
370
    35
100
AcDbVertex
100
AcDb2dVertex
 10
443.9999984478907
 20
-186.0599967321849
 30
0.0
  0
VERTEX
  5
1FE
330
1F8
100
AcDbEntity
  8
TwoHexagon
 62
     7
420
 16777215
370
    35
100
AcDbVertex
100
AcDb2dVertex
 10
409.5097264431644
 20
-166.2502745149135
 30
0.0
  0
VERTEX
  5
1FF
330
1F8
100
AcDbEntity
  8
TwoHexagon
 62
     7
420
 16777215
370
    35
100
AcDbVertex
100
AcDb2dVertex
 10
409.4000042209721
 20
-125.9999967471993
 30
0.0
  0
VERTEX
  5
200
330
1F8
100
AcDbEntity
  8
TwoHexagon
 62
     7
420
 16777215
370
    35
100
AcDbVertex
100
AcDb2dVertex
 10
409.3999984565409
 20
-125.9999999684993
 30
0.0
  0
VERTEX
  5
201
330
1F8
100
AcDbEntity
  8
TwoHexagon
 62
     7
420
 16777215
370
    35
100
AcDbVertex
100
AcDb2dVertex
 10
424.109872341858
 20
-151.5292808515522
 30
0.0
  0
SEQEND
  5
202
330
1F8
100
AcDbEntity
  8
TwoHexagon
 62
     7
420
 16777215
370
    35
  0
ENDBLK
  5
1EE
330
1EB
100
AcDbEntity
  8
0
100
AcDbBlockEnd
  0
BLOCK
  5
219
330
217
100
AcDbEntity
  8
0
100
AcDbBlockBegin
  2
block 13
 70
     0
 10
0.0
 20
0.0
 30
0.0
  3
block 13
  1

  0
POLYLINE
  5
21B
330
217
100
AcDbEntity
  8
TwoHexagon
 62
     7
420
 16777215
370
    35
100
AcDb2dPolyline
 66
     1
 10
0.0
 20
0.0
 30
0.0
  0
VERTEX
  5
21C
330
21B
100
AcDbEntity
  8
TwoHexagon
 62
     7
420
 16777215
370
    35
100
AcDbVertex
100
AcDb2dVertex
 10
71.5470077640982
 20
-313.0600031430358
 30
0.0
  0
VERTEX
  5
21D
330
21B
100
AcDbEntity
  8
TwoHexagon
 62
     7
420
 16777215
370
    35
100
AcDbVertex
100
AcDb2dVertex
 10
57.30131833259946
 20
-288.3057408563209
 30
0.0
  0
SEQEND
  5
21E
330
21B
100
AcDbEntity
  8
TwoHexagon
 62
     7
420
 16777215
370
    35
  0
POLYLINE
  5
21F
330
217
100
AcDbEntity
  8
TwoHexagon
 62
     7
420
 16777215
370
    35
100
AcDb2dPolyline
 66
     1
 10
0.0
 20
0.0
 30
0.0
  0
VERTEX
  5
220
330
21F
100
AcDbEntity
  8
TwoHexagon
 62
     7
420
 16777215
370
    35
100
AcDbVertex
100
AcDb2dVertex
 10
86.40501017875933
 20
-287.245202388838
 30
0.0
  0
VERTEX
  5
221
330
21F
100
AcDbEntity
  8
TwoHexagon
 62
     7
420
 16777215
370
    35
100
AcDbVertex
100
AcDb2dVertex
 10
71.54700776409787
 20
-313.0600031430358
 30
0.0
  0
SEQEND
  5
222
330
21F
100
AcDbEntity
  8
TwoHexagon
 62
     7
420
 16777215
370
    35
  0
SPLINE
  5
223
330
217
100
AcDbEntity
  8
TwoHexagon
 62
     7
420
 16777215
370
    35
100
AcDbSpline
210
0.0
220
0.0
230
1.0
 70
    27
 71
     3
 72
    11
 73
     7
 74
     0
 42
0.0000000001
 43
0.0000000001
 12
1.0
 22
0.0
 32
0.0
 13
1.0
 23
0.0
 33
0.0
 40
0.0
 40
0.0
 40
0.0
 40
0.0
 40
1.0
 40
1.0
 40
1.0
 40
2.0
 40
2.0
 40
2.0
 40
2.0
 10
61.55632241200828
 20
-285.8491115346151
 30
0.0
 10
61.55632241200828
 20
-285.8491115346151
 30
0.0
 10
55.91187651437862
 20
-276.0726514980951
 30
0.0
 10
55.91187651437862
 20
-276.0726514980951
 30
0.0
 10
55.91187651437862
 20
-276.0726514980951
 30
0.0
 10
61.55632241200828
 20
-285.8491115346151
 30
0.0
 10
61.55632241200828
 20
-285.8491115346151
 30
0.0
  0
POLYLINE
  5
224
330
217
100
AcDbEntity
  8
TwoHexagon
 62
     7
420
 16777215
370
    35
100
AcDb2dPolyline
 66
     1
 10
0.0
 20
0.0
 30
0.0
  0
VERTEX
  5
225
330
224
100
AcDbEntity
  8
TwoHexagon
 62
     7
420
 16777215
370
    35
100
AcDbVertex
100
AcDb2dVertex
 10
92.40223385407889
 20
-277.1159645746281
 30
0.0
  0
VERTEX
  5
226
330
224
100
AcDbEntity
  8
TwoHexagon
 62
     7
420
 16777215
370
    35
100
AcDbVertex
100
AcDb2dVertex
 10
106.1469985323549
 20
-252.9999999367483
 30
0.0
  0
VERTEX
  5
227
330
224
100
AcDbEntity
  8
TwoHexagon
 62
     7
420
 16777215
370
    35
100
AcDbVertex
100
AcDb2dVertex
 10
106.1470042967868
 20
-252.9999967154486
 30
0.0
  0
VERTEX
  5
228
330
224
100
AcDbEntity
  8
TwoHexagon
 62
     7
420
 16777215
370
    35
100
AcDbVertex
100
AcDb2dVertex
 10
106.1470042967868
 20
-293.2502744831644
 30
0.0
  0
VERTEX
  5
229
330
224
100
AcDbEntity
  8
TwoHexagon
 62
     7
420
 16777215
370
    35
100
AcDbVertex
100
AcDb2dVertex
 10
71.5469985410057
 20
-313.0599967004352
 30
0.0
  0
VERTEX
  5
22A
330
224
100
AcDbEntity
  8
TwoHexagon
 62
     7
420
 16777215
370
    35
100
AcDbVertex
100
AcDb2dVertex
 10
37.0567265362816
 20
-293.2502744831644
 30
0.0
  0
VERTEX
  5
22B
330
224
100
AcDbEntity
  8
TwoHexagon
 62
     7
420
 16777215
370
    35
100
AcDbVertex
100
AcDb2dVertex
 10
36.94700431408679
 20
-252.9999967154486
 30
0.0
  0
VERTEX
  5
22C
330
224
100
AcDbEntity
  8
TwoHexagon
 62
     7
420
 16777215
370
    35
100
AcDbVertex
100
AcDb2dVertex
 10
36.94699854965491
 20
-252.9999999367483
 30
0.0
  0
VERTEX
  5
22D
330
224
100
AcDbEntity
  8
TwoHexagon
 62
     7
420
 16777215
370
    35
100
AcDbVertex
100
AcDb2dVertex
 10
51.65687243497012
 20
-278.5292808198006
 30
0.0
  0
SEQEND
  5
22E
330
224
100
AcDbEntity
  8
TwoHexagon
 62
     7
420
 16777215
370
    35
  0
ENDBLK
  5
21A
330
217
100
AcDbEntity
  8
0
100
AcDbBlockEnd
  0
BLOCK
  5
245
330
243
100
AcDbEntity
  8
0
100
AcDbBlockBegin
  2
block 14
 70
     0
 10
0.0
 20
0.0
 30
0.0
  3
block 14
  1

  0
POLYLINE
  5
247
330
243
100
AcDbEntity
  8
TwoHexagon
 62
     7
420
 16777215
370
    35
100
AcDb2dPolyline
 66
     1
 10
0.0
 20
0.0
 30
0.0
  0
VERTEX
  5
248
330
247
100
AcDbEntity
  8
TwoHexagon
 62
     7
420
 16777215
370
    35
100
AcDbVertex
100
AcDb2dVertex
 10
146.0000077454849
 20
-313.0600031430358
 30
0.0
  0
VERTEX
  5
249
330
247
100
AcDbEntity
  8
TwoHexagon
 62
     7
420
 16777215
370
    35
100
AcDbVertex
100
AcDb2dVertex
 10
131.7543183139861
 20
-288.3057408563209
 30
0.0
  0
SEQEND
  5
24A
330
247
100
AcDbEntity
  8
TwoHexagon
 62
     7
420
 16777215
370
    35
  0
POLYLINE
  5
24B
330
243
100
AcDbEntity
  8
TwoHexagon
 62
     7
420
 16777215
370
    35
100
AcDb2dPolyline
 66
     1
 10
0.0
 20
0.0
 30
0.0
  0
VERTEX
  5
24C
330
24B
100
AcDbEntity
  8
TwoHexagon
 62
     7
420
 16777215
370
    35
100
AcDbVertex
100
AcDb2dVertex
 10
160.858010160146
 20
-287.245202388838
 30
0.0
  0
VERTEX
  5
24D
330
24B
100
AcDbEntity
  8
TwoHexagon
 62
     7
420
 16777215
370
    35
100
AcDbVertex
100
AcDb2dVertex
 10
146.0000077454845
 20
-313.0600031430358
 30
0.0
  0
SEQEND
  5
24E
330
24B
100
AcDbEntity
  8
TwoHexagon
 62
     7
420
 16777215
370
    35
  0
SPLINE
  5
24F
330
243
100
AcDbEntity
  8
TwoHexagon
 62
     7
420
 16777215
370
    35
100
AcDbSpline
210
0.0
220
0.0
230
1.0
 70
    27
 71
     3
 72
    11
 73
     7
 74
     0
 42
0.0000000001
 43
0.0000000001
 12
1.0
 22
0.0
 32
0.0
 13
1.0
 23
0.0
 33
0.0
 40
0.0
 40
0.0
 40
0.0
 40
0.0
 40
1.0
 40
1.0
 40
1.0
 40
2.0
 40
2.0
 40
2.0
 40
2.0
 10
136.0093223933949
 20
-285.8491115346151
 30
0.0
 10
136.0093223933949
 20
-285.8491115346151
 30
0.0
 10
130.3648764957653
 20
-276.0726514980951
 30
0.0
 10
130.3648764957653
 20
-276.0726514980951
 30
0.0
 10
130.3648764957653
 20
-276.0726514980951
 30
0.0
 10
136.0093223933949
 20
-285.8491115346151
 30
0.0
 10
136.0093223933949
 20
-285.8491115346151
 30
0.0
  0
POLYLINE
  5
250
330
243
100
AcDbEntity
  8
TwoHexagon
 62
     7
420
 16777215
370
    35
100
AcDb2dPolyline
 66
     1
 10
0.0
 20
0.0
 30
0.0
  0
VERTEX
  5
251
330
250
100
AcDbEntity
  8
TwoHexagon
 62
     7
420
 16777215
370
    35
100
AcDbVertex
100
AcDb2dVertex
 10
166.8552338354656
 20
-277.1159645746281
 30
0.0
  0
VERTEX
  5
252
330
250
100
AcDbEntity
  8
TwoHexagon
 62
     7
420
 16777215
370
    35
100
AcDbVertex
100
AcDb2dVertex
 10
180.5999985137416
 20
-252.9999999367483
 30
0.0
  0
VERTEX
  5
253
330
250
100
AcDbEntity
  8
TwoHexagon
 62
     7
420
 16777215
370
    35
100
AcDbVertex
100
AcDb2dVertex
 10
180.6000042781734
 20
-252.9999967154486
 30
0.0
  0
VERTEX
  5
254
330
250
100
AcDbEntity
  8
TwoHexagon
 62
     7
420
 16777215
370
    35
100
AcDbVertex
100
AcDb2dVertex
 10
180.6000042781734
 20
-293.2502744831644
 30
0.0
  0
VERTEX
  5
255
330
250
100
AcDbEntity
  8
TwoHexagon
 62
     7
420
 16777215
370
    35
100
AcDbVertex
100
AcDb2dVertex
 10
145.9999985223924
 20
-313.0599967004352
 30
0.0
  0
VERTEX
  5
256
330
250
100
AcDbEntity
  8
TwoHexagon
 62
     7
420
 16777215
370
    35
100
AcDbVertex
100
AcDb2dVertex
 10
111.5097265176686
 20
-293.2502744831644
 30
0.0
  0
VERTEX
  5
257
330
250
100
AcDbEntity
  8
TwoHexagon
 62
     7
420
 16777215
370
    35
100
AcDbVertex
100
AcDb2dVertex
 10
111.4000042954735
 20
-252.9999967154486
 30
0.0
  0
VERTEX
  5
258
330
250
100
AcDbEntity
  8
TwoHexagon
 62
     7
420
 16777215
370
    35
100
AcDbVertex
100
AcDb2dVertex
 10
111.3999985310419
 20
-252.9999999367483
 30
0.0
  0
VERTEX
  5
259
330
250
100
AcDbEntity
  8
TwoHexagon
 62
     7
420
 16777215
370
    35
100
AcDbVertex
100
AcDb2dVertex
 10
126.1098724163565
 20
-278.5292808198006
 30
0.0
  0
SEQEND
  5
25A
330
250
100
AcDbEntity
  8
TwoHexagon
 62
     7
420
 16777215
370
    35
  0
ENDBLK
  5
246
330
243
100
AcDbEntity
  8
0
100
AcDbBlockEnd
  0
BLOCK
  5
271
330
26F
100
AcDbEntity
  8
0
100
AcDbBlockBegin
  2
block 15
 70
     0
 10
0.0
 20
0.0
 30
0.0
  3
block 15
  1

  0
POLYLINE
  5
273
330
26F
100
AcDbEntity
  8
TwoHexagon
 62
     7
420
 16777215
370
    35
100
AcDb2dPolyline
 66
     1
 10
0.0
 20
0.0
 30
0.0
  0
VERTEX
  5
274
330
273
100
AcDbEntity
  8
TwoHexagon
 62
     7
420
 16777215
370
    35
100
AcDbVertex
100
AcDb2dVertex
 10
220.2740077269169
 20
-313.0600031430358
 30
0.0
  0
VERTEX
  5
275
330
273
100
AcDbEntity
  8
TwoHexagon
 62
     7
420
 16777215
370
    35
100
AcDbVertex
100
AcDb2dVertex
 10
206.0283182954178
 20
-288.3057408563209
 30
0.0
  0
SEQEND
  5
276
330
273
100
AcDbEntity
  8
TwoHexagon
 62
     7
420
 16777215
370
    35
  0
POLYLINE
  5
277
330
26F
100
AcDbEntity
  8
TwoHexagon
 62
     7
420
 16777215
370
    35
100
AcDb2dPolyline
 66
     1
 10
0.0
 20
0.0
 30
0.0
  0
VERTEX
  5
278
330
277
100
AcDbEntity
  8
TwoHexagon
 62
     7
420
 16777215
370
    35
100
AcDbVertex
100
AcDb2dVertex
 10
235.1320101415777
 20
-287.245202388838
 30
0.0
  0
VERTEX
  5
279
330
277
100
AcDbEntity
  8
TwoHexagon
 62
     7
420
 16777215
370
    35
100
AcDbVertex
100
AcDb2dVertex
 10
220.2740077269162
 20
-313.0600031430358
 30
0.0
  0
SEQEND
  5
27A
330
277
100
AcDbEntity
  8
TwoHexagon
 62
     7
420
 16777215
370
    35
  0
SPLINE
  5
27B
330
26F
100
AcDbEntity
  8
TwoHexagon
 62
     7
420
 16777215
370
    35
100
AcDbSpline
210
0.0
220
0.0
230
1.0
 70
    27
 71
     3
 72
    11
 73
     7
 74
     0
 42
0.0000000001
 43
0.0000000001
 12
1.0
 22
0.0
 32
0.0
 13
1.0
 23
0.0
 33
0.0
 40
0.0
 40
0.0
 40
0.0
 40
0.0
 40
1.0
 40
1.0
 40
1.0
 40
2.0
 40
2.0
 40
2.0
 40
2.0
 10
210.2833223748266
 20
-285.8491115346151
 30
0.0
 10
210.2833223748266
 20
-285.8491115346151
 30
0.0
 10
204.638876477197
 20
-276.0726514980951
 30
0.0
 10
204.638876477197
 20
-276.0726514980951
 30
0.0
 10
204.638876477197
 20
-276.0726514980951
 30
0.0
 10
210.2833223748266
 20
-285.8491115346151
 30
0.0
 10
210.2833223748266
 20
-285.8491115346151
 30
0.0
  0
POLYLINE
  5
27C
330
26F
100
AcDbEntity
  8
TwoHexagon
 62
     7
420
 16777215
370
    35
100
AcDb2dPolyline
 66
     1
 10
0.0
 20
0.0
 30
0.0
  0
VERTEX
  5
27D
330
27C
100
AcDbEntity
  8
TwoHexagon
 62
     7
420
 16777215
370
    35
100
AcDbVertex
100
AcDb2dVertex
 10
241.1292338168969
 20
-277.1159645746281
 30
0.0
  0
VERTEX
  5
27E
330
27C
100
AcDbEntity
  8
TwoHexagon
 62
     7
420
 16777215
370
    35
100
AcDbVertex
100
AcDb2dVertex
 10
254.8739984951733
 20
-252.9999999367483
 30
0.0
  0
VERTEX
  5
27F
330
27C
100
AcDbEntity
  8
TwoHexagon
 62
     7
420
 16777215
370
    35
100
AcDbVertex
100
AcDb2dVertex
 10
254.8740042596052
 20
-252.9999967154486
 30
0.0
  0
VERTEX
  5
280
330
27C
100
AcDbEntity
  8
TwoHexagon
 62
     7
420
 16777215
370
    35
100
AcDbVertex
100
AcDb2dVertex
 10
254.8740042596052
 20
-293.2502744831644
 30
0.0
  0
VERTEX
  5
281
330
27C
100
AcDbEntity
  8
TwoHexagon
 62
     7
420
 16777215
370
    35
100
AcDbVertex
100
AcDb2dVertex
 10
220.2739985038241
 20
-313.0599967004352
 30
0.0
  0
VERTEX
  5
282
330
27C
100
AcDbEntity
  8
TwoHexagon
 62
     7
420
 16777215
370
    35
100
AcDbVertex
100
AcDb2dVertex
 10
185.7837264991
 20
-293.2502744831644
 30
0.0
  0
VERTEX
  5
283
330
27C
100
AcDbEntity
  8
TwoHexagon
 62
     7
420
 16777215
370
    35
100
AcDbVertex
100
AcDb2dVertex
 10
185.6740042769052
 20
-252.9999967154486
 30
0.0
  0
VERTEX
  5
284
330
27C
100
AcDbEntity
  8
TwoHexagon
 62
     7
420
 16777215
370
    35
100
AcDbVertex
100
AcDb2dVertex
 10
185.6739985124736
 20
-252.9999999367483
 30
0.0
  0
VERTEX
  5
285
330
27C
100
AcDbEntity
  8
TwoHexagon
 62
     7
420
 16777215
370
    35
100
AcDbVertex
100
AcDb2dVertex
 10
200.3838723977882
 20
-278.5292808198006
 30
0.0
  0
SEQEND
  5
286
330
27C
100
AcDbEntity
  8
TwoHexagon
 62
     7
420
 16777215
370
    35
  0
ENDBLK
  5
272
330
26F
100
AcDbEntity
  8
0
100
AcDbBlockEnd
  0
BLOCK
  5
29D
330
29B
100
AcDbEntity
  8
0
100
AcDbBlockBegin
  2
block 16
 70
     0
 10
0.0
 20
0.0
 30
0.0
  3
block 16
  1

  0
POLYLINE
  5
29F
330
29B
100
AcDbEntity
  8
TwoHexagon
 62
     7
420
 16777215
370
    35
100
AcDb2dPolyline
 66
     1
 10
0.0
 20
0.0
 30
0.0
  0
VERTEX
  5
2A0
330
29F
100
AcDbEntity
  8
TwoHexagon
 62
     7
420
 16777215
370
    35
100
AcDbVertex
100
AcDb2dVertex
 10
294.3573410417287
 20
-313.0600031430358
 30
0.0
  0
VERTEX
  5
2A1
330
29F
100
AcDbEntity
  8
TwoHexagon
 62
     7
420
 16777215
370
    35
100
AcDbVertex
100
AcDb2dVertex
 10
280.1116516102303
 20
-288.3057408563209
 30
0.0
  0
SEQEND
  5
2A2
330
29F
100
AcDbEntity
  8
TwoHexagon
 62
     7
420
 16777215
370
    35
  0
POLYLINE
  5
2A3
330
29B
100
AcDbEntity
  8
TwoHexagon
 62
     7
420
 16777215
370
    35
100
AcDb2dPolyline
 66
     1
 10
0.0
 20
0.0
 30
0.0
  0
VERTEX
  5
2A4
330
2A3
100
AcDbEntity
  8
TwoHexagon
 62
     7
420
 16777215
370
    35
100
AcDbVertex
100
AcDb2dVertex
 10
309.2153434563896
 20
-287.245202388838
 30
0.0
  0
VERTEX
  5
2A5
330
2A3
100
AcDbEntity
  8
TwoHexagon
 62
     7
420
 16777215
370
    35
100
AcDbVertex
100
AcDb2dVertex
 10
294.3573410417287
 20
-313.0600031430358
 30
0.0
  0
SEQEND
  5
2A6
330
2A3
100
AcDbEntity
  8
TwoHexagon
 62
     7
420
 16777215
370
    35
  0
SPLINE
  5
2A7
330
29B
100
AcDbEntity
  8
TwoHexagon
 62
     7
420
 16777215
370
    35
100
AcDbSpline
210
0.0
220
0.0
230
1.0
 70
    27
 71
     3
 72
    11
 73
     7
 74
     0
 42
0.0000000001
 43
0.0000000001
 12
1.0
 22
0.0
 32
0.0
 13
1.0
 23
0.0
 33
0.0
 40
0.0
 40
0.0
 40
0.0
 40
0.0
 40
1.0
 40
1.0
 40
1.0
 40
2.0
 40
2.0
 40
2.0
 40
2.0
 10
284.3666556896385
 20
-285.8491115346151
 30
0.0
 10
284.3666556896385
 20
-285.8491115346151
 30
0.0
 10
278.7222097920095
 20
-276.0726514980951
 30
0.0
 10
278.7222097920095
 20
-276.0726514980951
 30
0.0
 10
278.7222097920095
 20
-276.0726514980951
 30
0.0
 10
284.3666556896385
 20
-285.8491115346151
 30
0.0
 10
284.3666556896385
 20
-285.8491115346151
 30
0.0
  0
POLYLINE
  5
2A8
330
29B
100
AcDbEntity
  8
TwoHexagon
 62
     7
420
 16777215
370
    35
100
AcDb2dPolyline
 66
     1
 10
0.0
 20
0.0
 30
0.0
  0
VERTEX
  5
2A9
330
2A8
100
AcDbEntity
  8
TwoHexagon
 62
     7
420
 16777215
370
    35
100
AcDbVertex
100
AcDb2dVertex
 10
315.2125671317094
 20
-277.1159645746281
 30
0.0
  0
VERTEX
  5
2AA
330
2A8
100
AcDbEntity
  8
TwoHexagon
 62
     7
420
 16777215
370
    35
100
AcDbVertex
100
AcDb2dVertex
 10
328.9573318099851
 20
-252.9999999367483
 30
0.0
  0
VERTEX
  5
2AB
330
2A8
100
AcDbEntity
  8
TwoHexagon
 62
     7
420
 16777215
370
    35
100
AcDbVertex
100
AcDb2dVertex
 10
328.9573375744176
 20
-252.9999967154486
 30
0.0
  0
VERTEX
  5
2AC
330
2A8
100
AcDbEntity
  8
TwoHexagon
 62
     7
420
 16777215
370
    35
100
AcDbVertex
100
AcDb2dVertex
 10
328.9573375744176
 20
-293.2502744831644
 30
0.0
  0
VERTEX
  5
2AD
330
2A8
100
AcDbEntity
  8
TwoHexagon
 62
     7
420
 16777215
370
    35
100
AcDbVertex
100
AcDb2dVertex
 10
294.3573318186359
 20
-313.0599967004352
 30
0.0
  0
VERTEX
  5
2AE
330
2A8
100
AcDbEntity
  8
TwoHexagon
 62
     7
420
 16777215
370
    35
100
AcDbVertex
100
AcDb2dVertex
 10
259.8670598139121
 20
-293.2502744831644
 30
0.0
  0
VERTEX
  5
2AF
330
2A8
100
AcDbEntity
  8
TwoHexagon
 62
     7
420
 16777215
370
    35
100
AcDbVertex
100
AcDb2dVertex
 10
259.7573375917173
 20
-252.9999967154486
 30
0.0
  0
VERTEX
  5
2B0
330
2A8
100
AcDbEntity
  8
TwoHexagon
 62
     7
420
 16777215
370
    35
100
AcDbVertex
100
AcDb2dVertex
 10
259.7573318272854
 20
-252.9999999367483
 30
0.0
  0
VERTEX
  5
2B1
330
2A8
100
AcDbEntity
  8
TwoHexagon
 62
     7
420
 16777215
370
    35
100
AcDbVertex
100
AcDb2dVertex
 10
274.4672057126
 20
-278.5292808198006
 30
0.0
  0
SEQEND
  5
2B2
330
2A8
100
AcDbEntity
  8
TwoHexagon
 62
     7
420
 16777215
370
    35
  0
ENDBLK
  5
29E
330
29B
100
AcDbEntity
  8
0
100
AcDbBlockEnd
  0
BLOCK
  5
2C9
330
2C7
100
AcDbEntity
  8
0
100
AcDbBlockBegin
  2
block 17
 70
     0
 10
0.0
 20
0.0
 30
0.0
  3
block 17
  1

  0
POLYLINE
  5
2CB
330
2C7
100
AcDbEntity
  8
TwoHexagon
 62
     7
420
 16777215
370
    35
100
AcDb2dPolyline
 66
     1
 10
0.0
 20
0.0
 30
0.0
  0
VERTEX
  5
2CC
330
2CB
100
AcDbEntity
  8
TwoHexagon
 62
     7
420
 16777215
370
    35
100
AcDbVertex
100
AcDb2dVertex
 10
369.0000076897333
 20
-313.0600031430358
 30
0.0
  0
VERTEX
  5
2CD
330
2CB
100
AcDbEntity
  8
TwoHexagon
 62
     7
420
 16777215
370
    35
100
AcDbVertex
100
AcDb2dVertex
 10
354.7543182582361
 20
-288.3057408563209
 30
0.0
  0
SEQEND
  5
2CE
330
2CB
100
AcDbEntity
  8
TwoHexagon
 62
     7
420
 16777215
370
    35
  0
POLYLINE
  5
2CF
330
2C7
100
AcDbEntity
  8
TwoHexagon
 62
     7
420
 16777215
370
    35
100
AcDb2dPolyline
 66
     1
 10
0.0
 20
0.0
 30
0.0
  0
VERTEX
  5
2D0
330
2CF
100
AcDbEntity
  8
TwoHexagon
 62
     7
420
 16777215
370
    35
100
AcDbVertex
100
AcDb2dVertex
 10
383.8580101043954
 20
-287.245202388838
 30
0.0
  0
VERTEX
  5
2D1
330
2CF
100
AcDbEntity
  8
TwoHexagon
 62
     7
420
 16777215
370
    35
100
AcDbVertex
100
AcDb2dVertex
 10
369.0000076897333
 20
-313.0600031430358
 30
0.0
  0
SEQEND
  5
2D2
330
2CF
100
AcDbEntity
  8
TwoHexagon
 62
     7
420
 16777215
370
    35
  0
SPLINE
  5
2D3
330
2C7
100
AcDbEntity
  8
TwoHexagon
 62
     7
420
 16777215
370
    35
100
AcDbSpline
210
0.0
220
0.0
230
1.0
 70
    27
 71
     3
 72
    11
 73
     7
 74
     0
 42
0.0000000001
 43
0.0000000001
 12
1.0
 22
0.0
 32
0.0
 13
1.0
 23
0.0
 33
0.0
 40
0.0
 40
0.0
 40
0.0
 40
0.0
 40
1.0
 40
1.0
 40
1.0
 40
2.0
 40
2.0
 40
2.0
 40
2.0
 10
359.009322337645
 20
-285.8491115346151
 30
0.0
 10
359.009322337645
 20
-285.8491115346151
 30
0.0
 10
353.3648764400172
 20
-276.0726514980951
 30
0.0
 10
353.3648764400172
 20
-276.0726514980951
 30
0.0
 10
353.3648764400172
 20
-276.0726514980951
 30
0.0
 10
359.009322337645
 20
-285.8491115346151
 30
0.0
 10
359.009322337645
 20
-285.8491115346151
 30
0.0
  0
POLYLINE
  5
2D4
330
2C7
100
AcDbEntity
  8
TwoHexagon
 62
     7
420
 16777215
370
    35
100
AcDb2dPolyline
 66
     1
 10
0.0
 20
0.0
 30
0.0
  0
VERTEX
  5
2D5
330
2D4
100
AcDbEntity
  8
TwoHexagon
 62
     7
420
 16777215
370
    35
100
AcDbVertex
100
AcDb2dVertex
 10
389.8552337797159
 20
-277.1159645746281
 30
0.0
  0
VERTEX
  5
2D6
330
2D4
100
AcDbEntity
  8
TwoHexagon
 62
     7
420
 16777215
370
    35
100
AcDbVertex
100
AcDb2dVertex
 10
403.5999984579909
 20
-252.9999999367483
 30
0.0
  0
VERTEX
  5
2D7
330
2D4
100
AcDbEntity
  8
TwoHexagon
 62
     7
420
 16777215
370
    35
100
AcDbVertex
100
AcDb2dVertex
 10
403.6000042224254
 20
-252.9999967154486
 30
0.0
  0
VERTEX
  5
2D8
330
2D4
100
AcDbEntity
  8
TwoHexagon
 62
     7
420
 16777215
370
    35
100
AcDbVertex
100
AcDb2dVertex
 10
403.6000042224254
 20
-293.2502744831644
 30
0.0
  0
VERTEX
  5
2D9
330
2D4
100
AcDbEntity
  8
TwoHexagon
 62
     7
420
 16777215
370
    35
100
AcDbVertex
100
AcDb2dVertex
 10
368.9999984666411
 20
-313.0599967004352
 30
0.0
  0
VERTEX
  5
2DA
330
2D4
100
AcDbEntity
  8
TwoHexagon
 62
     7
420
 16777215
370
    35
100
AcDbVertex
100
AcDb2dVertex
 10
334.5097264619186
 20
-293.2502744831644
 30
0.0
  0
VERTEX
  5
2DB
330
2D4
100
AcDbEntity
  8
TwoHexagon
 62
     7
420
 16777215
370
    35
100
AcDbVertex
100
AcDb2dVertex
 10
334.4000042397238
 20
-252.9999967154486
 30
0.0
  0
VERTEX
  5
2DC
330
2D4
100
AcDbEntity
  8
TwoHexagon
 62
     7
420
 16777215
370
    35
100
AcDbVertex
100
AcDb2dVertex
 10
334.3999984752919
 20
-252.9999999367483
 30
0.0
  0
VERTEX
  5
2DD
330
2D4
100
AcDbEntity
  8
TwoHexagon
 62
     7
420
 16777215
370
    35
100
AcDbVertex
100
AcDb2dVertex
 10
349.1098723606065
 20
-278.5292808198006
 30
0.0
  0
SEQEND
  5
2DE
330
2D4
100
AcDbEntity
  8
TwoHexagon
 62
     7
420
 16777215
370
    35
  0
ENDBLK
  5
2CA
330
2C7
100
AcDbEntity
  8
0
100
AcDbBlockEnd
  0
BLOCK
  5
2F5
330
2F3
100
AcDbEntity
  8
0
100
AcDbBlockBegin
  2
block 18
 70
     0
 10
0.0
 20
0.0
 30
0.0
  3
block 18
  1

  0
POLYLINE
  5
2F7
330
2F3
100
AcDbEntity
  8
TwoHexagon
 62
     7
420
 16777215
370
    35
100
AcDb2dPolyline
 66
     1
 10
0.0
 20
0.0
 30
0.0
  0
VERTEX
  5
2F8
330
2F7
100
AcDbEntity
  8
TwoHexagon
 62
     7
420
 16777215
370
    35
100
AcDbVertex
100
AcDb2dVertex
 10
444.0000076709835
 20
-313.0600031430358
 30
0.0
  0
VERTEX
  5
2F9
330
2F7
100
AcDbEntity
  8
TwoHexagon
 62
     7
420
 16777215
370
    35
100
AcDbVertex
100
AcDb2dVertex
 10
429.7543182394858
 20
-288.3057408563218
 30
0.0
  0
SEQEND
  5
2FA
330
2F7
100
AcDbEntity
  8
TwoHexagon
 62
     7
420
 16777215
370
    35
  0
POLYLINE
  5
2FB
330
2F3
100
AcDbEntity
  8
TwoHexagon
 62
     7
420
 16777215
370
    35
100
AcDb2dPolyline
 66
     1
 10
0.0
 20
0.0
 30
0.0
  0
VERTEX
  5
2FC
330
2FB
100
AcDbEntity
  8
TwoHexagon
 62
     7
420
 16777215
370
    35
100
AcDbVertex
100
AcDb2dVertex
 10
458.8580100856488
 20
-287.2452023888376
 30
0.0
  0
VERTEX
  5
2FD
330
2FB
100
AcDbEntity
  8
TwoHexagon
 62
     7
420
 16777215
370
    35
100
AcDbVertex
100
AcDb2dVertex
 10
444.0000076709835
 20
-313.0600031430358
 30
0.0
  0
SEQEND
  5
2FE
330
2FB
100
AcDbEntity
  8
TwoHexagon
 62
     7
420
 16777215
370
    35
  0
SPLINE
  5
2FF
330
2F3
100
AcDbEntity
  8
TwoHexagon
 62
     7
420
 16777215
370
    35
100
AcDbSpline
210
0.0
220
0.0
230
1.0
 70
    27
 71
     3
 72
    11
 73
     7
 74
     0
 42
0.0000000001
 43
0.0000000001
 12
1.0
 22
0.0
 32
0.0
 13
1.0
 23
0.0
 33
0.0
 40
0.0
 40
0.0
 40
0.0
 40
0.0
 40
1.0
 40
1.0
 40
1.0
 40
2.0
 40
2.0
 40
2.0
 40
2.0
 10
434.0093223188952
 20
-285.8491115346167
 30
0.0
 10
434.0093223188952
 20
-285.8491115346167
 30
0.0
 10
428.3648764212636
 20
-276.0726514980964
 30
0.0
 10
428.3648764212636
 20
-276.0726514980964
 30
0.0
 10
428.3648764212636
 20
-276.0726514980964
 30
0.0
 10
434.0093223188952
 20
-285.8491115346167
 30
0.0
 10
434.0093223188952
 20
-285.8491115346167
 30
0.0
  0
POLYLINE
  5
300
330
2F3
100
AcDbEntity
  8
TwoHexagon
 62
     7
420
 16777215
370
    35
100
AcDb2dPolyline
 66
     1
 10
0.0
 20
0.0
 30
0.0
  0
VERTEX
  5
301
330
300
100
AcDbEntity
  8
TwoHexagon
 62
     7
420
 16777215
370
    35
100
AcDbVertex
100
AcDb2dVertex
 10
464.8552337609661
 20
-277.1159645746278
 30
0.0
  0
VERTEX
  5
302
330
300
100
AcDbEntity
  8
TwoHexagon
 62
     7
420
 16777215
370
    35
100
AcDbVertex
100
AcDb2dVertex
 10
478.5999984392406
 20
-252.9999999367496
 30
0.0
  0
VERTEX
  5
303
330
300
100
AcDbEntity
  8
TwoHexagon
 62
     7
420
 16777215
370
    35
100
AcDbVertex
100
AcDb2dVertex
 10
478.6000042036718
 20
-252.9999967154499
 30
0.0
  0
VERTEX
  5
304
330
300
100
AcDbEntity
  8
TwoHexagon
 62
     7
420
 16777215
370
    35
100
AcDbVertex
100
AcDb2dVertex
 10
478.6000042036718
 20
-293.2502744831635
 30
0.0
  0
VERTEX
  5
305
330
300
100
AcDbEntity
  8
TwoHexagon
 62
     7
420
 16777215
370
    35
100
AcDbVertex
100
AcDb2dVertex
 10
443.9999984478907
 20
-313.0599967004352
 30
0.0
  0
VERTEX
  5
306
330
300
100
AcDbEntity
  8
TwoHexagon
 62
     7
420
 16777215
370
    35
100
AcDbVertex
100
AcDb2dVertex
 10
409.5097264431644
 20
-293.2502744831635
 30
0.0
  0
VERTEX
  5
307
330
300
100
AcDbEntity
  8
TwoHexagon
 62
     7
420
 16777215
370
    35
100
AcDbVertex
100
AcDb2dVertex
 10
409.4000042209721
 20
-252.9999967154499
 30
0.0
  0
VERTEX
  5
308
330
300
100
AcDbEntity
  8
TwoHexagon
 62
     7
420
 16777215
370
    35
100
AcDbVertex
100
AcDb2dVertex
 10
409.3999984565409
 20
-252.9999999367496
 30
0.0
  0
VERTEX
  5
309
330
300
100
AcDbEntity
  8
TwoHexagon
 62
     7
420
 16777215
370
    35
100
AcDbVertex
100
AcDb2dVertex
 10
424.109872341858
 20
-278.5292808198022
 30
0.0
  0
SEQEND
  5
30A
330
300
100
AcDbEntity
  8
TwoHexagon
 62
     7
420
 16777215
370
    35
  0
ENDBLK
  5
2F6
330
2F3
100
AcDbEntity
  8
0
100
AcDbBlockEnd
  0
ENDSEC
  0
SECTION
  2
ENTITIES
  0
SPLINE
  5
41
330
1F
100
AcDbEntity
  8
OneHexagon
 62
     7
420
 16777215
370
    35
100
AcDbSpline
210
0.0
220
0.0
230
1.0
 70
    27
 71
     3
 72
    11
 73
     7
 74
     0
 42
0.0000000001
 43
0.0000000001
 12
1.0
 22
0.0
 32
0.0
 13
1.0
 23
0.0
 33
0.0
 40
0.0
 40
0.0
 40
0.0
 40
0.0
 40
1.0
 40
1.0
 40
1.0
 40
2.0
 40
2.0
 40
2.0
 40
2.0
 10
88.09969296431937
 20
-104.4271152887834
 30
0.0
 10
88.09969296431937
 20
-104.4271152887834
 30
0.0
 10
82.4552470666894
 20
-114.2035753253039
 30
0.0
 10
82.4552470666894
 20
-114.2035753253039
 30
0.0
 10
82.4552470666894
 20
-114.2035753253039
 30
0.0
 10
88.09969296431937
 20
-104.4271152887834
 30
0.0
 10
88.09969296431937
 20
-104.4271152887834
 30
0.0
  0
POLYLINE
  5
42
330
1F
100
AcDbEntity
  8
OneHexagon
 62
     7
420
 16777215
370
    35
100
AcDb2dPolyline
 66
     1
 10
0.0
 20
0.0
 30
0.0
  0
VERTEX
  5
43
330
42
100
AcDbEntity
  8
OneHexagon
 62
     7
420
 16777215
370
    35
100
AcDbVertex
100
AcDb2dVertex
 10
71.54721989856576
 20
-142.2988920746142
 30
0.0
  0
VERTEX
  5
44
330
42
100
AcDbEntity
  8
OneHexagon
 62
     7
420
 16777215
370
    35
100
AcDbVertex
100
AcDb2dVertex
 10
57.30153046706702
 20
-117.5446297879021
 30
0.0
  0
SEQEND
  5
45
330
42
100
AcDbEntity
  8
OneHexagon
 62
     7
420
 16777215
370
    35
  0
POLYLINE
  5
46
330
1F
100
AcDbEntity
  8
OneHexagon
 62
     7
420
 16777215
370
    35
100
AcDb2dPolyline
 66
     1
 10
0.0
 20
0.0
 30
0.0
  0
VERTEX
  5
47
330
46
100
AcDbEntity
  8
OneHexagon
 62
     7
420
 16777215
370
    35
100
AcDbVertex
100
AcDb2dVertex
 10
36.94721644855436
 20
-82.23888564702958
 30
0.0
  0
VERTEX
  5
48
330
46
100
AcDbEntity
  8
OneHexagon
 62
     7
420
 16777215
370
    35
100
AcDbVertex
100
AcDb2dVertex
 10
51.65708456943737
 20
-107.7681697513825
 30
0.0
  0
SEQEND
  5
49
330
46
100
AcDbEntity
  8
OneHexagon
 62
     7
420
 16777215
370
    35
  0
POLYLINE
  5
4A
330
1F
100
AcDbEntity
  8
OneHexagon
 62
     7
420
 16777215
370
    35
100
AcDb2dPolyline
 66
     1
 10
0.0
 20
0.0
 30
0.0
  0
VERTEX
  5
4B
330
4A
100
AcDbEntity
  8
OneHexagon
 62
     7
420
 16777215
370
    35
100
AcDbVertex
100
AcDb2dVertex
 10
92.04966821085686
 20
-106.7076312838977
 30
0.0
  0
VERTEX
  5
4C
330
4A
100
AcDbEntity
  8
OneHexagon
 62
     7
420
 16777215
370
    35
100
AcDbVertex
100
AcDb2dVertex
 10
106.1472164312543
 20
-82.23888564702958
 30
0.0
  0
SEQEND
  5
4D
330
4A
100
AcDbEntity
  8
OneHexagon
 62
     7
420
 16777215
370
    35
  0
POLYLINE
  5
4E
330
1F
100
AcDbEntity
  8
OneHexagon
 62
     7
420
 16777215
370
    35
100
AcDb2dPolyline
 66
     1
 10
0.0
 20
0.0
 30
0.0
  0
VERTEX
  5
4F
330
4E
100
AcDbEntity
  8
OneHexagon
 62
     7
420
 16777215
370
    35
100
AcDbVertex
100
AcDb2dVertex
 10
86.40522231322689
 20
-116.4840913204179
 30
0.0
  0
VERTEX
  5
50
330
4E
100
AcDbEntity
  8
OneHexagon
 62
     7
420
 16777215
370
    35
100
AcDbVertex
100
AcDb2dVertex
 10
71.54721989856544
 20
-142.2988920746142
 30
0.0
  0
SEQEND
  5
51
330
4E
100
AcDbEntity
  8
OneHexagon
 62
     7
420
 16777215
370
    35
  0
SPLINE
  5
52
330
1F
100
AcDbEntity
  8
OneHexagon
 62
     7
420
 16777215
370
    35
100
AcDbSpline
210
0.0
220
0.0
230
1.0
 70
    27
 71
     3
 72
    11
 73
     7
 74
     0
 42
0.0000000001
 43
0.0000000001
 12
1.0
 22
0.0
 32
0.0
 13
1.0
 23
0.0
 33
0.0
 40
0.0
 40
0.0
 40
0.0
 40
0.0
 40
1.0
 40
1.0
 40
1.0
 40
2.0
 40
2.0
 40
2.0
 40
2.0
 10
61.55653454647552
 20
-115.088000466197
 30
0.0
 10
61.55653454647552
 20
-115.088000466197
 30
0.0
 10
55.91208864884586
 20
-105.3115404296764
 30
0.0
 10
55.91208864884586
 20
-105.3115404296764
 30
0.0
 10
55.91208864884586
 20
-105.3115404296764
 30
0.0
 10
61.55653454647552
 20
-115.088000466197
 30
0.0
 10
61.55653454647552
 20
-115.088000466197
 30
0.0
  0
POLYLINE
  5
53
330
1F
100
AcDbEntity
  8
OneHexagon
 62
     7
420
 16777215
370
    35
100
AcDb2dPolyline
 66
     1
 10
0.0
 20
0.0
 30
0.0
  0
VERTEX
  5
54
330
53
100
AcDbEntity
  8
OneHexagon
 62
     7
420
 16777215
370
    35
100
AcDbVertex
100
AcDb2dVertex
 10
36.94721644855436
 20
-82.23888564702958
 30
0.0
  0
VERTEX
  5
55
330
53
100
AcDbEntity
  8
OneHexagon
 62
     7
420
 16777215
370
    35
100
AcDbVertex
100
AcDb2dVertex
 10
37.05693867074917
 20
-122.489163414745
 30
0.0
  0
VERTEX
  5
56
330
53
100
AcDbEntity
  8
OneHexagon
 62
     7
420
 16777215
370
    35
100
AcDbVertex
100
AcDb2dVertex
 10
71.54721643990483
 20
-142.2988856320145
 30
0.0
  0
VERTEX
  5
57
330
53
100
AcDbEntity
  8
OneHexagon
 62
     7
420
 16777215
370
    35
100
AcDbVertex
100
AcDb2dVertex
 10
106.1472164312543
 20
-122.489163414745
 30
0.0
  0
VERTEX
  5
58
330
53
100
AcDbEntity
  8
OneHexagon
 62
     7
420
 16777215
370
    35
100
AcDbVertex
100
AcDb2dVertex
 10
106.1472164312543
 20
-82.23888564702958
 30
0.0
  0
SEQEND
  5
59
330
53
100
AcDbEntity
  8
OneHexagon
 62
     7
420
 16777215
370
    35
  0
INSERT
  5
5B
330
1F
100
AcDbEntity
  8
OneHexagon
100
AcDbBlockReference
  2
block 2
 10
0.0
 20
0.0
 30
0.0
  0
INSERT
  5
77
330
1F
100
AcDbEntity
  8
OneHexagon
100
AcDbBlockReference
  2
block 3
 10
0.0
 20
0.0
 30
0.0
  0
SPLINE
  5
92
330
1F
100
AcDbEntity
  8
OneHexagon
 62
     7
420
 16777215
370
    35
100
AcDbSpline
210
0.0
220
0.0
230
1.0
 70
    27
 71
     3
 72
    11
 73
     7
 74
     0
 42
0.0000000001
 43
0.0000000001
 12
1.0
 22
0.0
 32
0.0
 13
1.0
 23
0.0
 33
0.0
 40
0.0
 40
0.0
 40
0.0
 40
0.0
 40
1.0
 40
1.0
 40
1.0
 40
2.0
 40
2.0
 40
2.0
 40
2.0
 10
236.8260846982424
 20
-104.4271152887834
 30
0.0
 10
236.8260846982424
 20
-104.4271152887834
 30
0.0
 10
231.1816388006121
 20
-114.2035753253039
 30
0.0
 10
231.1816388006121
 20
-114.2035753253039
 30
0.0
 10
231.1816388006121
 20
-114.2035753253039
 30
0.0
 10
236.8260846982424
 20
-104.4271152887834
 30
0.0
 10
236.8260846982424
 20
-104.4271152887834
 30
0.0
  0
POLYLINE
  5
93
330
1F
100
AcDbEntity
  8
OneHexagon
 62
     7
420
 16777215
370
    35
100
AcDb2dPolyline
 66
     1
 10
0.0
 20
0.0
 30
0.0
  0
VERTEX
  5
94
330
93
100
AcDbEntity
  8
OneHexagon
 62
     7
420
 16777215
370
    35
100
AcDbVertex
100
AcDb2dVertex
 10
220.2736116324884
 20
-142.2988920746142
 30
0.0
  0
VERTEX
  5
95
330
93
100
AcDbEntity
  8
OneHexagon
 62
     7
420
 16777215
370
    35
100
AcDbVertex
100
AcDb2dVertex
 10
206.0279222009894
 20
-117.5446297879021
 30
0.0
  0
SEQEND
  5
96
330
93
100
AcDbEntity
  8
OneHexagon
 62
     7
420
 16777215
370
    35
  0
POLYLINE
  5
97
330
1F
100
AcDbEntity
  8
OneHexagon
 62
     7
420
 16777215
370
    35
100
AcDb2dPolyline
 66
     1
 10
0.0
 20
0.0
 30
0.0
  0
VERTEX
  5
98
330
97
100
AcDbEntity
  8
OneHexagon
 62
     7
420
 16777215
370
    35
100
AcDbVertex
100
AcDb2dVertex
 10
185.673608182477
 20
-82.23888564702958
 30
0.0
  0
VERTEX
  5
99
330
97
100
AcDbEntity
  8
OneHexagon
 62
     7
420
 16777215
370
    35
100
AcDbVertex
100
AcDb2dVertex
 10
200.3834763033597
 20
-107.7681697513825
 30
0.0
  0
SEQEND
  5
9A
330
97
100
AcDbEntity
  8
OneHexagon
 62
     7
420
 16777215
370
    35
  0
POLYLINE
  5
9B
330
1F
100
AcDbEntity
  8
OneHexagon
 62
     7
420
 16777215
370
    35
100
AcDb2dPolyline
 66
     1
 10
0.0
 20
0.0
 30
0.0
  0
VERTEX
  5
9C
330
9B
100
AcDbEntity
  8
OneHexagon
 62
     7
420
 16777215
370
    35
100
AcDbVertex
100
AcDb2dVertex
 10
240.7760599447795
 20
-106.7076312838977
 30
0.0
  0
VERTEX
  5
9D
330
9B
100
AcDbEntity
  8
OneHexagon
 62
     7
420
 16777215
370
    35
100
AcDbVertex
100
AcDb2dVertex
 10
254.8736081651767
 20
-82.23888564702958
 30
0.0
  0
SEQEND
  5
9E
330
9B
100
AcDbEntity
  8
OneHexagon
 62
     7
420
 16777215
370
    35
  0
POLYLINE
  5
9F
330
1F
100
AcDbEntity
  8
OneHexagon
 62
     7
420
 16777215
370
    35
100
AcDb2dPolyline
 66
     1
 10
0.0
 20
0.0
 30
0.0
  0
VERTEX
  5
A0
330
9F
100
AcDbEntity
  8
OneHexagon
 62
     7
420
 16777215
370
    35
100
AcDbVertex
100
AcDb2dVertex
 10
235.1316140471499
 20
-116.4840913204179
 30
0.0
  0
VERTEX
  5
A1
330
9F
100
AcDbEntity
  8
OneHexagon
 62
     7
420
 16777215
370
    35
100
AcDbVertex
100
AcDb2dVertex
 10
220.2736116324878
 20
-142.2988920746142
 30
0.0
  0
SEQEND
  5
A2
330
9F
100
AcDbEntity
  8
OneHexagon
 62
     7
420
 16777215
370
    35
  0
SPLINE
  5
A3
330
1F
100
AcDbEntity
  8
OneHexagon
 62
     7
420
 16777215
370
    35
100
AcDbSpline
210
0.0
220
0.0
230
1.0
 70
    27
 71
     3
 72
    11
 73
     7
 74
     0
 42
0.0000000001
 43
0.0000000001
 12
1.0
 22
0.0
 32
0.0
 13
1.0
 23
0.0
 33
0.0
 40
0.0
 40
0.0
 40
0.0
 40
0.0
 40
1.0
 40
1.0
 40
1.0
 40
2.0
 40
2.0
 40
2.0
 40
2.0
 10
210.2829262803982
 20
-115.088000466197
 30
0.0
 10
210.2829262803982
 20
-115.088000466197
 30
0.0
 10
204.6384803827685
 20
-105.3115404296764
 30
0.0
 10
204.6384803827685
 20
-105.3115404296764
 30
0.0
 10
204.6384803827685
 20
-105.3115404296764
 30
0.0
 10
210.2829262803982
 20
-115.088000466197
 30
0.0
 10
210.2829262803982
 20
-115.088000466197
 30
0.0
  0
POLYLINE
  5
A4
330
1F
100
AcDbEntity
  8
OneHexagon
 62
     7
420
 16777215
370
    35
100
AcDb2dPolyline
 66
     1
 10
0.0
 20
0.0
 30
0.0
  0
VERTEX
  5
A5
330
A4
100
AcDbEntity
  8
OneHexagon
 62
     7
420
 16777215
370
    35
100
AcDbVertex
100
AcDb2dVertex
 10
185.673608182477
 20
-82.23888564702958
 30
0.0
  0
VERTEX
  5
A6
330
A4
100
AcDbEntity
  8
OneHexagon
 62
     7
420
 16777215
370
    35
100
AcDbVertex
100
AcDb2dVertex
 10
185.7833304046718
 20
-122.489163414745
 30
0.0
  0
VERTEX
  5
A7
330
A4
100
AcDbEntity
  8
OneHexagon
 62
     7
420
 16777215
370
    35
100
AcDbVertex
100
AcDb2dVertex
 10
220.2736081738275
 20
-142.2988856320145
 30
0.0
  0
VERTEX
  5
A8
330
A4
100
AcDbEntity
  8
OneHexagon
 62
     7
420
 16777215
370
    35
100
AcDbVertex
100
AcDb2dVertex
 10
254.8736081651767
 20
-122.489163414745
 30
0.0
  0
VERTEX
  5
A9
330
A4
100
AcDbEntity
  8
OneHexagon
 62
     7
420
 16777215
370
    35
100
AcDbVertex
100
AcDb2dVertex
 10
254.8736081651767
 20
-82.23888564702958
 30
0.0
  0
SEQEND
  5
AA
330
A4
100
AcDbEntity
  8
OneHexagon
 62
     7
420
 16777215
370
    35
  0
INSERT
  5
AC
330
1F
100
AcDbEntity
  8
OneHexagon
100
AcDbBlockReference
  2
block 4
 10
0.0
 20
0.0
 30
0.0
  0
INSERT
  5
C8
330
1F
100
AcDbEntity
  8
OneHexagon
100
AcDbBlockReference
  2
block 5
 10
0.0
 20
0.0
 30
0.0
  0
SPLINE
  5
E3
330
1F
100
AcDbEntity
  8
OneHexagon
 62
     7
420
 16777215
370
    35
100
AcDbSpline
210
0.0
220
0.0
230
1.0
 70
    27
 71
     3
 72
    11
 73
     7
 74
     0
 42
0.0000000001
 43
0.0000000001
 12
1.0
 22
0.0
 32
0.0
 13
1.0
 23
0.0
 33
0.0
 40
0.0
 40
0.0
 40
0.0
 40
0.0
 40
1.0
 40
1.0
 40
1.0
 40
2.0
 40
2.0
 40
2.0
 40
2.0
 10
129.447551930712
 20
-103.8417618211974
 30
0.0
 10
129.447551930712
 20
-103.8417618211974
 30
0.0
 10
135.0920012150071
 20
-94.06530373997138
 30
0.0
 10
135.0920012150071
 20
-94.06530373997138
 30
0.0
 10
135.0920012150071
 20
-94.06530373997138
 30
0.0
 10
129.447551930712
 20
-103.8417618211974
 30
0.0
 10
129.447551930712
 20
-103.8417618211974
 30
0.0
  0
POLYLINE
  5
E4
330
1F
100
AcDbEntity
  8
OneHexagon
 62
     7
420
 16777215
370
    35
100
AcDb2dPolyline
 66
     1
 10
0.0
 20
0.0
 30
0.0
  0
VERTEX
  5
E5
330
E4
100
AcDbEntity
  8
OneHexagon
 62
     7
420
 16777215
370
    35
100
AcDbVertex
100
AcDb2dVertex
 10
146.0000381156344
 20
-65.96999076931395
 30
0.0
  0
VERTEX
  5
E6
330
E4
100
AcDbEntity
  8
OneHexagon
 62
     7
420
 16777215
370
    35
100
AcDbVertex
100
AcDb2dVertex
 10
160.2457189720033
 20
-90.72425799087706
 30
0.0
  0
SEQEND
  5
E7
330
E4
100
AcDbEntity
  8
OneHexagon
 62
     7
420
 16777215
370
    35
  0
POLYLINE
  5
E8
330
1F
100
AcDbEntity
  8
OneHexagon
 62
     7
420
 16777215
370
    35
100
AcDb2dPolyline
 66
     1
 10
0.0
 20
0.0
 30
0.0
  0
VERTEX
  5
E9
330
E8
100
AcDbEntity
  8
OneHexagon
 62
     7
420
 16777215
370
    35
100
AcDbVertex
100
AcDb2dVertex
 10
180.6000207602444
 20
-126.0300091826899
 30
0.0
  0
VERTEX
  5
EA
330
E8
100
AcDbEntity
  8
OneHexagon
 62
     7
420
 16777215
370
    35
100
AcDbVertex
100
AcDb2dVertex
 10
165.8901614829672
 20
-100.5007199826906
 30
0.0
  0
SEQEND
  5
EB
330
E8
100
AcDbEntity
  8
OneHexagon
 62
     7
420
 16777215
370
    35
  0
POLYLINE
  5
EC
330
1F
100
AcDbEntity
  8
OneHexagon
 62
     7
420
 16777215
370
    35
100
AcDb2dPolyline
 66
     1
 10
0.0
 20
0.0
 30
0.0
  0
VERTEX
  5
ED
330
EC
100
AcDbEntity
  8
OneHexagon
 62
     7
420
 16777215
370
    35
100
AcDbVertex
100
AcDb2dVertex
 10
125.4975774741686
 20
-101.5612444577713
 30
0.0
  0
VERTEX
  5
EE
330
EC
100
AcDbEntity
  8
OneHexagon
 62
     7
420
 16777215
370
    35
100
AcDbVertex
100
AcDb2dVertex
 10
111.4000207775492
 20
-126.0299852111034
 30
0.0
  0
SEQEND
  5
EF
330
EC
100
AcDbEntity
  8
OneHexagon
 62
     7
420
 16777215
370
    35
  0
POLYLINE
  5
F0
330
1F
100
AcDbEntity
  8
OneHexagon
 62
     7
420
 16777215
370
    35
100
AcDb2dPolyline
 66
     1
 10
0.0
 20
0.0
 30
0.0
  0
VERTEX
  5
F1
330
F0
100
AcDbEntity
  8
OneHexagon
 62
     7
420
 16777215
370
    35
100
AcDbVertex
100
AcDb2dVertex
 10
131.1420267584637
 20
-91.78478637654584
 30
0.0
  0
VERTEX
  5
F2
330
F0
100
AcDbEntity
  8
OneHexagon
 62
     7
420
 16777215
370
    35
100
AcDbVertex
100
AcDb2dVertex
 10
146.0000381156347
 20
-65.96999076931395
 30
0.0
  0
SEQEND
  5
F3
330
F0
100
AcDbEntity
  8
OneHexagon
 62
     7
420
 16777215
370
    35
  0
SPLINE
  5
F4
330
1F
100
AcDbEntity
  8
OneHexagon
 62
     7
420
 16777215
370
    35
100
AcDbSpline
210
0.0
220
0.0
230
1.0
 70
    27
 71
     3
 72
    11
 73
     7
 74
     0
 42
0.0000000001
 43
0.0000000001
 12
1.0
 22
0.0
 32
0.0
 13
1.0
 23
0.0
 33
0.0
 40
0.0
 40
0.0
 40
0.0
 40
0.0
 40
1.0
 40
1.0
 40
1.0
 40
2.0
 40
2.0
 40
2.0
 40
2.0
 10
155.9907140415935
 20
-93.1808858386053
 30
0.0
 10
155.9907140415935
 20
-93.1808858386053
 30
0.0
 10
161.6351565525573
 20
-102.9573478304191
 30
0.0
 10
161.6351565525573
 20
-102.9573478304191
 30
0.0
 10
161.6351565525573
 20
-102.9573478304191
 30
0.0
 10
155.9907140415935
 20
-93.1808858386053
 30
0.0
 10
155.9907140415935
 20
-93.1808858386053
 30
0.0
  0
POLYLINE
  5
F5
330
1F
100
AcDbEntity
  8
OneHexagon
 62
     7
420
 16777215
370
    35
100
AcDb2dPolyline
 66
     1
 10
0.0
 20
0.0
 30
0.0
  0
VERTEX
  5
F6
330
F5
100
AcDbEntity
  8
OneHexagon
 62
     7
420
 16777215
370
    35
100
AcDbVertex
100
AcDb2dVertex
 10
180.6000207602444
 20
-126.0300091826899
 30
0.0
  0
VERTEX
  5
F7
330
F5
100
AcDbEntity
  8
OneHexagon
 62
     7
420
 16777215
370
    35
100
AcDbVertex
100
AcDb2dVertex
 10
180.4903124811565
 20
-85.7797313769682
 30
0.0
  0
VERTEX
  5
F8
330
F5
100
AcDbEntity
  8
OneHexagon
 62
     7
420
 16777215
370
    35
100
AcDbVertex
100
AcDb2dVertex
 10
146.0000415742931
 20
-65.96999721191487
 30
0.0
  0
VERTEX
  5
F9
330
F5
100
AcDbEntity
  8
OneHexagon
 62
     7
420
 16777215
370
    35
100
AcDbVertex
100
AcDb2dVertex
 10
111.4000347206564
 20
-85.77970744339046
 30
0.0
  0
VERTEX
  5
FA
330
F5
100
AcDbEntity
  8
OneHexagon
 62
     7
420
 16777215
370
    35
100
AcDbVertex
100
AcDb2dVertex
 10
111.4000207775492
 20
-126.0299852111034
 30
0.0
  0
SEQEND
  5
FB
330
F5
100
AcDbEntity
  8
OneHexagon
 62
     7
420
 16777215
370
    35
  0
INSERT
  5
FD
330
1F
100
AcDbEntity
  8
OneHexagon
100
AcDbBlockReference
  2
block 6
 10
0.0
 20
0.0
 30
0.0
  0
INSERT
  5
119
330
1F
100
AcDbEntity
  8
OneHexagon
100
AcDbBlockReference
  2
block 7
 10
0.0
 20
0.0
 30
0.0
  0
SPLINE
  5
134
330
1F
100
AcDbEntity
  8
OneHexagon
 62
     7
420
 16777215
370
    35
100
AcDbSpline
210
0.0
220
0.0
230
1.0
 70
    27
 71
     3
 72
    11
 73
     7
 74
     0
 42
0.0000000001
 43
0.0000000001
 12
1.0
 22
0.0
 32
0.0
 13
1.0
 23
0.0
 33
0.0
 40
0.0
 40
0.0
 40
0.0
 40
0.0
 40
1.0
 40
1.0
 40
1.0
 40
2.0
 40
2.0
 40
2.0
 40
2.0
 10
385.5524764321676
 20
-104.1582263999617
 30
0.0
 10
385.5524764321676
 20
-104.1582263999617
 30
0.0
 10
379.9080305345321
 20
-113.9346864364823
 30
0.0
 10
379.9080305345321
 20
-113.9346864364823
 30
0.0
 10
379.9080305345321
 20
-113.9346864364823
 30
0.0
 10
385.5524764321676
 20
-104.1582263999617
 30
0.0
 10
385.5524764321676
 20
-104.1582263999617
 30
0.0
  0
POLYLINE
  5
135
330
1F
100
AcDbEntity
  8
OneHexagon
 62
     7
420
 16777215
370
    35
100
AcDb2dPolyline
 66
     1
 10
0.0
 20
0.0
 30
0.0
  0
VERTEX
  5
136
330
135
100
AcDbEntity
  8
OneHexagon
 62
     7
420
 16777215
370
    35
100
AcDbVertex
100
AcDb2dVertex
 10
369.0000033664105
 20
-142.0300031857925
 30
0.0
  0
VERTEX
  5
137
330
135
100
AcDbEntity
  8
OneHexagon
 62
     7
420
 16777215
370
    35
100
AcDbVertex
100
AcDb2dVertex
 10
354.754313934912
 20
-117.2757408990804
 30
0.0
  0
SEQEND
  5
138
330
135
100
AcDbEntity
  8
OneHexagon
 62
     7
420
 16777215
370
    35
  0
POLYLINE
  5
139
330
1F
100
AcDbEntity
  8
OneHexagon
 62
     7
420
 16777215
370
    35
100
AcDb2dPolyline
 66
     1
 10
0.0
 20
0.0
 30
0.0
  0
VERTEX
  5
13A
330
139
100
AcDbEntity
  8
OneHexagon
 62
     7
420
 16777215
370
    35
100
AcDbVertex
100
AcDb2dVertex
 10
334.3999999163997
 20
-81.96999675820791
 30
0.0
  0
VERTEX
  5
13B
330
139
100
AcDbEntity
  8
OneHexagon
 62
     7
420
 16777215
370
    35
100
AcDbVertex
100
AcDb2dVertex
 10
349.109868037283
 20
-107.4992808625605
 30
0.0
  0
SEQEND
  5
13C
330
139
100
AcDbEntity
  8
OneHexagon
 62
     7
420
 16777215
370
    35
  0
POLYLINE
  5
13D
330
1F
100
AcDbEntity
  8
OneHexagon
 62
     7
420
 16777215
370
    35
100
AcDb2dPolyline
 66
     1
 10
0.0
 20
0.0
 30
0.0
  0
VERTEX
  5
13E
330
13D
100
AcDbEntity
  8
OneHexagon
 62
     7
420
 16777215
370
    35
100
AcDbVertex
100
AcDb2dVertex
 10
389.5024516787029
 20
-106.438742395076
 30
0.0
  0
VERTEX
  5
13F
330
13D
100
AcDbEntity
  8
OneHexagon
 62
     7
420
 16777215
370
    35
100
AcDbVertex
100
AcDb2dVertex
 10
403.5999998991019
 20
-81.96999675820791
 30
0.0
  0
SEQEND
  5
140
330
13D
100
AcDbEntity
  8
OneHexagon
 62
     7
420
 16777215
370
    35
  0
POLYLINE
  5
141
330
1F
100
AcDbEntity
  8
OneHexagon
 62
     7
420
 16777215
370
    35
100
AcDb2dPolyline
 66
     1
 10
0.0
 20
0.0
 30
0.0
  0
VERTEX
  5
142
330
141
100
AcDbEntity
  8
OneHexagon
 62
     7
420
 16777215
370
    35
100
AcDbVertex
100
AcDb2dVertex
 10
383.8580057810751
 20
-116.2152024315963
 30
0.0
  0
VERTEX
  5
143
330
141
100
AcDbEntity
  8
OneHexagon
 62
     7
420
 16777215
370
    35
100
AcDbVertex
100
AcDb2dVertex
 10
369.0000033664105
 20
-142.0300031857925
 30
0.0
  0
SEQEND
  5
144
330
141
100
AcDbEntity
  8
OneHexagon
 62
     7
420
 16777215
370
    35
  0
SPLINE
  5
145
330
1F
100
AcDbEntity
  8
OneHexagon
 62
     7
420
 16777215
370
    35
100
AcDbSpline
210
0.0
220
0.0
230
1.0
 70
    27
 71
     3
 72
    11
 73
     7
 74
     0
 42
0.0000000001
 43
0.0000000001
 12
1.0
 22
0.0
 32
0.0
 13
1.0
 23
0.0
 33
0.0
 40
0.0
 40
0.0
 40
0.0
 40
0.0
 40
1.0
 40
1.0
 40
1.0
 40
2.0
 40
2.0
 40
2.0
 40
2.0
 10
359.0093180143215
 20
-114.8191115773753
 30
0.0
 10
359.0093180143215
 20
-114.8191115773753
 30
0.0
 10
353.3648721166905
 20
-105.0426515408547
 30
0.0
 10
353.3648721166905
 20
-105.0426515408547
 30
0.0
 10
353.3648721166905
 20
-105.0426515408547
 30
0.0
 10
359.0093180143215
 20
-114.8191115773753
 30
0.0
 10
359.0093180143215
 20
-114.8191115773753
 30
0.0
  0
POLYLINE
  5
146
330
1F
100
AcDbEntity
  8
OneHexagon
 62
     7
420
 16777215
370
    35
100
AcDb2dPolyline
 66
     1
 10
0.0
 20
0.0
 30
0.0
  0
VERTEX
  5
147
330
146
100
AcDbEntity
  8
OneHexagon
 62
     7
420
 16777215
370
    35
100
AcDbVertex
100
AcDb2dVertex
 10
334.3999999163997
 20
-81.96999675820791
 30
0.0
  0
VERTEX
  5
148
330
146
100
AcDbEntity
  8
OneHexagon
 62
     7
420
 16777215
370
    35
100
AcDbVertex
100
AcDb2dVertex
 10
334.5097221385945
 20
-122.2202745259234
 30
0.0
  0
VERTEX
  5
149
330
146
100
AcDbEntity
  8
OneHexagon
 62
     7
420
 16777215
370
    35
100
AcDbVertex
100
AcDb2dVertex
 10
368.9999999077489
 20
-142.0299967431929
 30
0.0
  0
VERTEX
  5
14A
330
146
100
AcDbEntity
  8
OneHexagon
 62
     7
420
 16777215
370
    35
100
AcDbVertex
100
AcDb2dVertex
 10
403.5999998991019
 20
-122.2202745259234
 30
0.0
  0
VERTEX
  5
14B
330
146
100
AcDbEntity
  8
OneHexagon
 62
     7
420
 16777215
370
    35
100
AcDbVertex
100
AcDb2dVertex
 10
403.5999998991019
 20
-81.96999675820791
 30
0.0
  0
SEQEND
  5
14C
330
146
100
AcDbEntity
  8
OneHexagon
 62
     7
420
 16777215
370
    35
  0
INSERT
  5
14E
330
1F
100
AcDbEntity
  8
OneHexagon
100
AcDbBlockReference
  2
block 8
 10
0.0
 20
0.0
 30
0.0
  0
INSERT
  5
16A
330
1F
100
AcDbEntity
  8
OneHexagon
100
AcDbBlockReference
  2
block 9
 10
0.0
 20
0.0
 30
0.0
  0
SPLINE
  5
185
330
1F
100
AcDbEntity
  8
OneHexagon
 62
     7
420
 16777215
370
    35
100
AcDbSpline
210
0.0
220
0.0
230
1.0
 70
    27
 71
     3
 72
    11
 73
     7
 74
     0
 42
0.0000000001
 43
0.0000000001
 12
1.0
 22
0.0
 32
0.0
 13
1.0
 23
0.0
 33
0.0
 40
0.0
 40
0.0
 40
0.0
 40
0.0
 40
1.0
 40
1.0
 40
1.0
 40
2.0
 40
2.0
 40
2.0
 40
2.0
 10
277.9503065552443
 20
-103.8417618211974
 30
0.0
 10
277.9503065552443
 20
-103.8417618211974
 30
0.0
 10
283.5947558395401
 20
-94.06530373997138
 30
0.0
 10
283.5947558395401
 20
-94.06530373997138
 30
0.0
 10
283.5947558395401
 20
-94.06530373997138
 30
0.0
 10
277.9503065552443
 20
-103.8417618211974
 30
0.0
 10
277.9503065552443
 20
-103.8417618211974
 30
0.0
  0
POLYLINE
  5
186
330
1F
100
AcDbEntity
  8
OneHexagon
 62
     7
420
 16777215
370
    35
100
AcDb2dPolyline
 66
     1
 10
0.0
 20
0.0
 30
0.0
  0
VERTEX
  5
187
330
186
100
AcDbEntity
  8
OneHexagon
 62
     7
420
 16777215
370
    35
100
AcDbVertex
100
AcDb2dVertex
 10
294.5027927401674
 20
-65.96999076931395
 30
0.0
  0
VERTEX
  5
188
330
186
100
AcDbEntity
  8
OneHexagon
 62
     7
420
 16777215
370
    35
100
AcDbVertex
100
AcDb2dVertex
 10
308.7484735965364
 20
-90.72425799087706
 30
0.0
  0
SEQEND
  5
189
330
186
100
AcDbEntity
  8
OneHexagon
 62
     7
420
 16777215
370
    35
  0
POLYLINE
  5
18A
330
1F
100
AcDbEntity
  8
OneHexagon
 62
     7
420
 16777215
370
    35
100
AcDb2dPolyline
 66
     1
 10
0.0
 20
0.0
 30
0.0
  0
VERTEX
  5
18B
330
18A
100
AcDbEntity
  8
OneHexagon
 62
     7
420
 16777215
370
    35
100
AcDbVertex
100
AcDb2dVertex
 10
329.1027753847771
 20
-126.0300091826899
 30
0.0
  0
VERTEX
  5
18C
330
18A
100
AcDbEntity
  8
OneHexagon
 62
     7
420
 16777215
370
    35
100
AcDbVertex
100
AcDb2dVertex
 10
314.3929161074998
 20
-100.5007199826906
 30
0.0
  0
SEQEND
  5
18D
330
18A
100
AcDbEntity
  8
OneHexagon
 62
     7
420
 16777215
370
    35
  0
POLYLINE
  5
18E
330
1F
100
AcDbEntity
  8
OneHexagon
 62
     7
420
 16777215
370
    35
100
AcDb2dPolyline
 66
     1
 10
0.0
 20
0.0
 30
0.0
  0
VERTEX
  5
18F
330
18E
100
AcDbEntity
  8
OneHexagon
 62
     7
420
 16777215
370
    35
100
AcDbVertex
100
AcDb2dVertex
 10
274.0003320987009
 20
-101.5612444577713
 30
0.0
  0
VERTEX
  5
190
330
18E
100
AcDbEntity
  8
OneHexagon
 62
     7
420
 16777215
370
    35
100
AcDbVertex
100
AcDb2dVertex
 10
259.9027754020819
 20
-126.0299852111034
 30
0.0
  0
SEQEND
  5
191
330
18E
100
AcDbEntity
  8
OneHexagon
 62
     7
420
 16777215
370
    35
  0
POLYLINE
  5
192
330
1F
100
AcDbEntity
  8
OneHexagon
 62
     7
420
 16777215
370
    35
100
AcDb2dPolyline
 66
     1
 10
0.0
 20
0.0
 30
0.0
  0
VERTEX
  5
193
330
192
100
AcDbEntity
  8
OneHexagon
 62
     7
420
 16777215
370
    35
100
AcDbVertex
100
AcDb2dVertex
 10
279.6447813829967
 20
-91.78478637654584
 30
0.0
  0
VERTEX
  5
194
330
192
100
AcDbEntity
  8
OneHexagon
 62
     7
420
 16777215
370
    35
100
AcDbVertex
100
AcDb2dVertex
 10
294.5027927401674
 20
-65.96999076931395
 30
0.0
  0
SEQEND
  5
195
330
192
100
AcDbEntity
  8
OneHexagon
 62
     7
420
 16777215
370
    35
  0
SPLINE
  5
196
330
1F
100
AcDbEntity
  8
OneHexagon
 62
     7
420
 16777215
370
    35
100
AcDbSpline
210
0.0
220
0.0
230
1.0
 70
    27
 71
     3
 72
    11
 73
     7
 74
     0
 42
0.0000000001
 43
0.0000000001
 12
1.0
 22
0.0
 32
0.0
 13
1.0
 23
0.0
 33
0.0
 40
0.0
 40
0.0
 40
0.0
 40
0.0
 40
1.0
 40
1.0
 40
1.0
 40
2.0
 40
2.0
 40
2.0
 40
2.0
 10
304.4934686661261
 20
-93.1808858386053
 30
0.0
 10
304.4934686661261
 20
-93.1808858386053
 30
0.0
 10
310.1379111770897
 20
-102.9573478304191
 30
0.0
 10
310.1379111770897
 20
-102.9573478304191
 30
0.0
 10
310.1379111770897
 20
-102.9573478304191
 30
0.0
 10
304.4934686661261
 20
-93.1808858386053
 30
0.0
 10
304.4934686661261
 20
-93.1808858386053
 30
0.0
  0
POLYLINE
  5
197
330
1F
100
AcDbEntity
  8
OneHexagon
 62
     7
420
 16777215
370
    35
100
AcDb2dPolyline
 66
     1
 10
0.0
 20
0.0
 30
0.0
  0
VERTEX
  5
198
330
197
100
AcDbEntity
  8
OneHexagon
 62
     7
420
 16777215
370
    35
100
AcDbVertex
100
AcDb2dVertex
 10
329.1027753847771
 20
-126.0300091826899
 30
0.0
  0
VERTEX
  5
199
330
197
100
AcDbEntity
  8
OneHexagon
 62
     7
420
 16777215
370
    35
100
AcDbVertex
100
AcDb2dVertex
 10
328.9930671056891
 20
-85.7797313769682
 30
0.0
  0
VERTEX
  5
19A
330
197
100
AcDbEntity
  8
OneHexagon
 62
     7
420
 16777215
370
    35
100
AcDbVertex
100
AcDb2dVertex
 10
294.5027961988258
 20
-65.96999721191487
 30
0.0
  0
VERTEX
  5
19B
330
197
100
AcDbEntity
  8
OneHexagon
 62
     7
420
 16777215
370
    35
100
AcDbVertex
100
AcDb2dVertex
 10
259.9027893451888
 20
-85.77970744339046
 30
0.0
  0
VERTEX
  5
19C
330
197
100
AcDbEntity
  8
OneHexagon
 62
     7
420
 16777215
370
    35
100
AcDbVertex
100
AcDb2dVertex
 10
259.9027754020819
 20
-126.0299852111034
 30
0.0
  0
SEQEND
  5
19D
330
197
100
AcDbEntity
  8
OneHexagon
 62
     7
420
 16777215
370
    35
  0
INSERT
  5
19F
330
1F
100
AcDbEntity
  8
OneHexagon
100
AcDbBlockReference
  2
block 10
 10
0.0
 20
0.0
 30
0.0
  0
INSERT
  5
1BB
330
1F
100
AcDbEntity
  8
OneHexagon
100
AcDbBlockReference
  2
block 11
 10
0.0
 20
0.0
 30
0.0
  0
POLYLINE
  5
1D7
330
1F
100
AcDbEntity
  8
TwoHexagon
 62
     7
420
 16777215
370
    35
100
AcDb2dPolyline
 66
     1
 10
0.0
 20
0.0
 30
0.0
  0
VERTEX
  5
1D8
330
1D7
100
AcDbEntity
  8
TwoHexagon
 62
     7
420
 16777215
370
    35
100
AcDbVertex
100
AcDb2dVertex
 10
443.9999921070174
 20
-65.93999676221466
 30
0.0
  0
VERTEX
  5
1D9
330
1D7
100
AcDbEntity
  8
TwoHexagon
 62
     7
420
 16777215
370
    35
100
AcDbVertex
100
AcDb2dVertex
 10
458.2456815385113
 20
-90.69425904892671
 30
0.0
  0
SEQEND
  5
1DA
330
1D7
100
AcDbEntity
  8
TwoHexagon
 62
     7
420
 16777215
370
    35
  0
POLYLINE
  5
1DB
330
1F
100
AcDbEntity
  8
TwoHexagon
 62
     7
420
 16777215
370
    35
100
AcDb2dPolyline
 66
     1
 10
0.0
 20
0.0
 30
0.0
  0
VERTEX
  5
1DC
330
1DB
100
AcDbEntity
  8
TwoHexagon
 62
     7
420
 16777215
370
    35
100
AcDbVertex
100
AcDb2dVertex
 10
429.1419896923521
 20
-91.7547975164109
 30
0.0
  0
VERTEX
  5
1DD
330
1DB
100
AcDbEntity
  8
TwoHexagon
 62
     7
420
 16777215
370
    35
100
AcDbVertex
100
AcDb2dVertex
 10
443.9999921070174
 20
-65.93999676221466
 30
0.0
  0
SEQEND
  5
1DE
330
1DB
100
AcDbEntity
  8
TwoHexagon
 62
     7
420
 16777215
370
    35
  0
SPLINE
  5
1DF
330
1F
100
AcDbEntity
  8
TwoHexagon
 62
     7
420
 16777215
370
    35
100
AcDbSpline
210
0.0
220
0.0
230
1.0
 70
    27
 71
     3
 72
    11
 73
     7
 74
     0
 42
0.0000000001
 43
0.0000000001
 12
1.0
 22
0.0
 32
0.0
 13
1.0
 23
0.0
 33
0.0
 40
0.0
 40
0.0
 40
0.0
 40
0.0
 40
1.0
 40
1.0
 40
1.0
 40
2.0
 40
2.0
 40
2.0
 40
2.0
 10
453.9906774591057
 20
-93.15088837063186
 30
0.0
 10
453.9906774591057
 20
-93.15088837063186
 30
0.0
 10
459.6351233567335
 20
-102.9273484071525
 30
0.0
 10
459.6351233567335
 20
-102.9273484071525
 30
0.0
 10
459.6351233567335
 20
-102.9273484071525
 30
0.0
 10
453.9906774591057
 20
-93.15088837063186
 30
0.0
 10
453.9906774591057
 20
-93.15088837063186
 30
0.0
  0
POLYLINE
  5
1E0
330
1F
100
AcDbEntity
  8
TwoHexagon
 62
     7
420
 16777215
370
    35
100
AcDb2dPolyline
 66
     1
 10
0.0
 20
0.0
 30
0.0
  0
VERTEX
  5
1E1
330
1E0
100
AcDbEntity
  8
TwoHexagon
 62
     7
420
 16777215
370
    35
100
AcDbVertex
100
AcDb2dVertex
 10
423.1447660170348
 20
-101.8840353306211
 30
0.0
  0
VERTEX
  5
1E2
330
1E0
100
AcDbEntity
  8
TwoHexagon
 62
     7
420
 16777215
370
    35
100
AcDbVertex
100
AcDb2dVertex
 10
409.4000013387565
 20
-125.9999999684999
 30
0.0
  0
VERTEX
  5
1E3
330
1E0
100
AcDbEntity
  8
TwoHexagon
 62
     7
420
 16777215
370
    35
100
AcDbVertex
100
AcDb2dVertex
 10
409.3999955743253
 20
-126.0000031897989
 30
0.0
  0
VERTEX
  5
1E4
330
1E0
100
AcDbEntity
  8
TwoHexagon
 62
     7
420
 16777215
370
    35
100
AcDbVertex
100
AcDb2dVertex
 10
409.3999955743253
 20
-85.74972542208413
 30
0.0
  0
VERTEX
  5
1E5
330
1E0
100
AcDbEntity
  8
TwoHexagon
 62
     7
420
 16777215
370
    35
100
AcDbVertex
100
AcDb2dVertex
 10
444.0000013301063
 20
-65.9400032048143
 30
0.0
  0
VERTEX
  5
1E6
330
1E0
100
AcDbEntity
  8
TwoHexagon
 62
     7
420
 16777215
370
    35
100
AcDbVertex
100
AcDb2dVertex
 10
478.4902733348288
 20
-85.74972542208413
 30
0.0
  0
VERTEX
  5
1E7
330
1E0
100
AcDbEntity
  8
TwoHexagon
 62
     7
420
 16777215
370
    35
100
AcDbVertex
100
AcDb2dVertex
 10
478.599995557025
 20
-126.0000031897989
 30
0.0
  0
VERTEX
  5
1E8
330
1E0
100
AcDbEntity
  8
TwoHexagon
 62
     7
420
 16777215
370
    35
100
AcDbVertex
100
AcDb2dVertex
 10
478.6000013214561
 20
-125.9999999684999
 30
0.0
  0
VERTEX
  5
1E9
330
1E0
100
AcDbEntity
  8
TwoHexagon
 62
     7
420
 16777215
370
    35
100
AcDbVertex
100
AcDb2dVertex
 10
463.8901274361429
 20
-100.470719085447
 30
0.0
  0
SEQEND
  5
1EA
330
1E0
100
AcDbEntity
  8
TwoHexagon
 62
     7
420
 16777215
370
    35
  0
INSERT
  5
1EC
330
1F
100
AcDbEntity
  8
TwoHexagon
100
AcDbBlockReference
  2
block 12
 10
0.0
 20
0.0
 30
0.0
  0
POLYLINE
  5
203
330
1F
100
AcDbEntity
  8
TwoHexagon
 62
     7
420
 16777215
370
    35
100
AcDb2dPolyline
 66
     1
 10
0.0
 20
0.0
 30
0.0
  0
VERTEX
  5
204
330
203
100
AcDbEntity
  8
TwoHexagon
 62
     7
420
 16777215
370
    35
100
AcDbVertex
100
AcDb2dVertex
 10
71.54699220012787
 20
-192.939996730464
 30
0.0
  0
VERTEX
  5
205
330
203
100
AcDbEntity
  8
TwoHexagon
 62
     7
420
 16777215
370
    35
100
AcDbVertex
100
AcDb2dVertex
 10
85.79268163162693
 20
-217.6942590171758
 30
0.0
  0
SEQEND
  5
206
330
203
100
AcDbEntity
  8
TwoHexagon
 62
     7
420
 16777215
370
    35
  0
POLYLINE
  5
207
330
1F
100
AcDbEntity
  8
TwoHexagon
 62
     7
420
 16777215
370
    35
100
AcDb2dPolyline
 66
     1
 10
0.0
 20
0.0
 30
0.0
  0
VERTEX
  5
208
330
207
100
AcDbEntity
  8
TwoHexagon
 62
     7
420
 16777215
370
    35
100
AcDbVertex
100
AcDb2dVertex
 10
56.68898978546675
 20
-218.7547974846606
 30
0.0
  0
VERTEX
  5
209
330
207
100
AcDbEntity
  8
TwoHexagon
 62
     7
420
 16777215
370
    35
100
AcDbVertex
100
AcDb2dVertex
 10
71.54699220012851
 20
-192.939996730464
 30
0.0
  0
SEQEND
  5
20A
330
207
100
AcDbEntity
  8
TwoHexagon
 62
     7
420
 16777215
370
    35
  0
SPLINE
  5
20B
330
1F
100
AcDbEntity
  8
TwoHexagon
 62
     7
420
 16777215
370
    35
100
AcDbSpline
210
0.0
220
0.0
230
1.0
 70
    27
 71
     3
 72
    11
 73
     7
 74
     0
 42
0.0000000001
 43
0.0000000001
 12
1.0
 22
0.0
 32
0.0
 13
1.0
 23
0.0
 33
0.0
 40
0.0
 40
0.0
 40
0.0
 40
0.0
 40
1.0
 40
1.0
 40
1.0
 40
2.0
 40
2.0
 40
2.0
 40
2.0
 10
81.53767755221813
 20
-220.1508883388815
 30
0.0
 10
81.53767755221813
 20
-220.1508883388815
 30
0.0
 10
87.18212344984745
 20
-229.9273483754018
 30
0.0
 10
87.18212344984745
 20
-229.9273483754018
 30
0.0
 10
87.18212344984745
 20
-229.9273483754018
 30
0.0
 10
81.53767755221813
 20
-220.1508883388815
 30
0.0
 10
81.53767755221813
 20
-220.1508883388815
 30
0.0
  0
POLYLINE
  5
20C
330
1F
100
AcDbEntity
  8
TwoHexagon
 62
     7
420
 16777215
370
    35
100
AcDb2dPolyline
 66
     1
 10
0.0
 20
0.0
 30
0.0
  0
VERTEX
  5
20D
330
20C
100
AcDbEntity
  8
TwoHexagon
 62
     7
420
 16777215
370
    35
100
AcDbVertex
100
AcDb2dVertex
 10
50.69176611014783
 20
-228.8840352988704
 30
0.0
  0
VERTEX
  5
20E
330
20C
100
AcDbEntity
  8
TwoHexagon
 62
     7
420
 16777215
370
    35
100
AcDbVertex
100
AcDb2dVertex
 10
36.94700143187117
 20
-252.9999999367499
 30
0.0
  0
VERTEX
  5
20F
330
20C
100
AcDbEntity
  8
TwoHexagon
 62
     7
420
 16777215
370
    35
100
AcDbVertex
100
AcDb2dVertex
 10
36.94699566743929
 20
-253.000003158048
 30
0.0
  0
VERTEX
  5
210
330
20C
100
AcDbEntity
  8
TwoHexagon
 62
     7
420
 16777215
370
    35
100
AcDbVertex
100
AcDb2dVertex
 10
36.94699566743929
 20
-212.7497253903335
 30
0.0
  0
VERTEX
  5
211
330
20C
100
AcDbEntity
  8
TwoHexagon
 62
     7
420
 16777215
370
    35
100
AcDbVertex
100
AcDb2dVertex
 10
71.54700142322133
 20
-192.9400031730637
 30
0.0
  0
VERTEX
  5
212
330
20C
100
AcDbEntity
  8
TwoHexagon
 62
     7
420
 16777215
370
    35
100
AcDbVertex
100
AcDb2dVertex
 10
106.0372734279451
 20
-212.7497253903335
 30
0.0
  0
VERTEX
  5
213
330
20C
100
AcDbEntity
  8
TwoHexagon
 62
     7
420
 16777215
370
    35
100
AcDbVertex
100
AcDb2dVertex
 10
106.1469956501393
 20
-253.000003158048
 30
0.0
  0
VERTEX
  5
214
330
20C
100
AcDbEntity
  8
TwoHexagon
 62
     7
420
 16777215
370
    35
100
AcDbVertex
100
AcDb2dVertex
 10
106.1470014145712
 20
-252.9999999367499
 30
0.0
  0
VERTEX
  5
215
330
20C
100
AcDbEntity
  8
TwoHexagon
 62
     7
420
 16777215
370
    35
100
AcDbVertex
100
AcDb2dVertex
 10
91.4371275292566
 20
-227.470719053696
 30
0.0
  0
SEQEND
  5
216
330
20C
100
AcDbEntity
  8
TwoHexagon
 62
     7
420
 16777215
370
    35
  0
INSERT
  5
218
330
1F
100
AcDbEntity
  8
TwoHexagon
100
AcDbBlockReference
  2
block 13
 10
0.0
 20
0.0
 30
0.0
  0
POLYLINE
  5
22F
330
1F
100
AcDbEntity
  8
TwoHexagon
 62
     7
420
 16777215
370
    35
100
AcDb2dPolyline
 66
     1
 10
0.0
 20
0.0
 30
0.0
  0
VERTEX
  5
230
330
22F
100
AcDbEntity
  8
TwoHexagon
 62
     7
420
 16777215
370
    35
100
AcDbVertex
100
AcDb2dVertex
 10
145.9999921815145
 20
-192.939996730464
 30
0.0
  0
VERTEX
  5
231
330
22F
100
AcDbEntity
  8
TwoHexagon
 62
     7
420
 16777215
370
    35
100
AcDbVertex
100
AcDb2dVertex
 10
160.2456816130136
 20
-217.6942590171758
 30
0.0
  0
SEQEND
  5
232
330
22F
100
AcDbEntity
  8
TwoHexagon
 62
     7
420
 16777215
370
    35
  0
POLYLINE
  5
233
330
1F
100
AcDbEntity
  8
TwoHexagon
 62
     7
420
 16777215
370
    35
100
AcDb2dPolyline
 66
     1
 10
0.0
 20
0.0
 30
0.0
  0
VERTEX
  5
234
330
233
100
AcDbEntity
  8
TwoHexagon
 62
     7
420
 16777215
370
    35
100
AcDbVertex
100
AcDb2dVertex
 10
131.1419897668537
 20
-218.7547974846606
 30
0.0
  0
VERTEX
  5
235
330
233
100
AcDbEntity
  8
TwoHexagon
 62
     7
420
 16777215
370
    35
100
AcDbVertex
100
AcDb2dVertex
 10
145.9999921815152
 20
-192.939996730464
 30
0.0
  0
SEQEND
  5
236
330
233
100
AcDbEntity
  8
TwoHexagon
 62
     7
420
 16777215
370
    35
  0
SPLINE
  5
237
330
1F
100
AcDbEntity
  8
TwoHexagon
 62
     7
420
 16777215
370
    35
100
AcDbSpline
210
0.0
220
0.0
230
1.0
 70
    27
 71
     3
 72
    11
 73
     7
 74
     0
 42
0.0000000001
 43
0.0000000001
 12
1.0
 22
0.0
 32
0.0
 13
1.0
 23
0.0
 33
0.0
 40
0.0
 40
0.0
 40
0.0
 40
0.0
 40
1.0
 40
1.0
 40
1.0
 40
2.0
 40
2.0
 40
2.0
 40
2.0
 10
155.9906775336048
 20
-220.1508883388815
 30
0.0
 10
155.9906775336048
 20
-220.1508883388815
 30
0.0
 10
161.6351234312344
 20
-229.9273483754018
 30
0.0
 10
161.6351234312344
 20
-229.9273483754018
 30
0.0
 10
161.6351234312344
 20
-229.9273483754018
 30
0.0
 10
155.9906775336048
 20
-220.1508883388815
 30
0.0
 10
155.9906775336048
 20
-220.1508883388815
 30
0.0
  0
POLYLINE
  5
238
330
1F
100
AcDbEntity
  8
TwoHexagon
 62
     7
420
 16777215
370
    35
100
AcDb2dPolyline
 66
     1
 10
0.0
 20
0.0
 30
0.0
  0
VERTEX
  5
239
330
238
100
AcDbEntity
  8
TwoHexagon
 62
     7
420
 16777215
370
    35
100
AcDbVertex
100
AcDb2dVertex
 10
125.1447660915345
 20
-228.8840352988704
 30
0.0
  0
VERTEX
  5
23A
330
238
100
AcDbEntity
  8
TwoHexagon
 62
     7
420
 16777215
370
    35
100
AcDbVertex
100
AcDb2dVertex
 10
111.4000014132578
 20
-252.9999999367499
 30
0.0
  0
VERTEX
  5
23B
330
238
100
AcDbEntity
  8
TwoHexagon
 62
     7
420
 16777215
370
    35
100
AcDbVertex
100
AcDb2dVertex
 10
111.3999956488263
 20
-253.000003158048
 30
0.0
  0
VERTEX
  5
23C
330
238
100
AcDbEntity
  8
TwoHexagon
 62
     7
420
 16777215
370
    35
100
AcDbVertex
100
AcDb2dVertex
 10
111.3999956488263
 20
-212.7497253903335
 30
0.0
  0
VERTEX
  5
23D
330
238
100
AcDbEntity
  8
TwoHexagon
 62
     7
420
 16777215
370
    35
100
AcDbVertex
100
AcDb2dVertex
 10
146.000001404608
 20
-192.9400031730637
 30
0.0
  0
VERTEX
  5
23E
330
238
100
AcDbEntity
  8
TwoHexagon
 62
     7
420
 16777215
370
    35
100
AcDbVertex
100
AcDb2dVertex
 10
180.4902734093318
 20
-212.7497253903335
 30
0.0
  0
VERTEX
  5
23F
330
238
100
AcDbEntity
  8
TwoHexagon
 62
     7
420
 16777215
370
    35
100
AcDbVertex
100
AcDb2dVertex
 10
180.5999956315259
 20
-253.000003158048
 30
0.0
  0
VERTEX
  5
240
330
238
100
AcDbEntity
  8
TwoHexagon
 62
     7
420
 16777215
370
    35
100
AcDbVertex
100
AcDb2dVertex
 10
180.6000013959578
 20
-252.9999999367499
 30
0.0
  0
VERTEX
  5
241
330
238
100
AcDbEntity
  8
TwoHexagon
 62
     7
420
 16777215
370
    35
100
AcDbVertex
100
AcDb2dVertex
 10
165.8901275106433
 20
-227.470719053696
 30
0.0
  0
SEQEND
  5
242
330
238
100
AcDbEntity
  8
TwoHexagon
 62
     7
420
 16777215
370
    35
  0
INSERT
  5
244
330
1F
100
AcDbEntity
  8
TwoHexagon
100
AcDbBlockReference
  2
block 14
 10
0.0
 20
0.0
 30
0.0
  0
POLYLINE
  5
25B
330
1F
100
AcDbEntity
  8
TwoHexagon
 62
     7
420
 16777215
370
    35
100
AcDb2dPolyline
 66
     1
 10
0.0
 20
0.0
 30
0.0
  0
VERTEX
  5
25C
330
25B
100
AcDbEntity
  8
TwoHexagon
 62
     7
420
 16777215
370
    35
100
AcDbVertex
100
AcDb2dVertex
 10
220.2739921629466
 20
-192.939996730464
 30
0.0
  0
VERTEX
  5
25D
330
25B
100
AcDbEntity
  8
TwoHexagon
 62
     7
420
 16777215
370
    35
100
AcDbVertex
100
AcDb2dVertex
 10
234.5196815944453
 20
-217.6942590171758
 30
0.0
  0
SEQEND
  5
25E
330
25B
100
AcDbEntity
  8
TwoHexagon
 62
     7
420
 16777215
370
    35
  0
POLYLINE
  5
25F
330
1F
100
AcDbEntity
  8
TwoHexagon
 62
     7
420
 16777215
370
    35
100
AcDb2dPolyline
 66
     1
 10
0.0
 20
0.0
 30
0.0
  0
VERTEX
  5
260
330
25F
100
AcDbEntity
  8
TwoHexagon
 62
     7
420
 16777215
370
    35
100
AcDbVertex
100
AcDb2dVertex
 10
205.4159897482854
 20
-218.7547974846606
 30
0.0
  0
VERTEX
  5
261
330
25F
100
AcDbEntity
  8
TwoHexagon
 62
     7
420
 16777215
370
    35
100
AcDbVertex
100
AcDb2dVertex
 10
220.2739921629469
 20
-192.939996730464
 30
0.0
  0
SEQEND
  5
262
330
25F
100
AcDbEntity
  8
TwoHexagon
 62
     7
420
 16777215
370
    35
  0
SPLINE
  5
263
330
1F
100
AcDbEntity
  8
TwoHexagon
 62
     7
420
 16777215
370
    35
100
AcDbSpline
210
0.0
220
0.0
230
1.0
 70
    27
 71
     3
 72
    11
 73
     7
 74
     0
 42
0.0000000001
 43
0.0000000001
 12
1.0
 22
0.0
 32
0.0
 13
1.0
 23
0.0
 33
0.0
 40
0.0
 40
0.0
 40
0.0
 40
0.0
 40
1.0
 40
1.0
 40
1.0
 40
2.0
 40
2.0
 40
2.0
 40
2.0
 10
230.2646775150365
 20
-220.1508883388815
 30
0.0
 10
230.2646775150365
 20
-220.1508883388815
 30
0.0
 10
235.9091234126661
 20
-229.9273483754018
 30
0.0
 10
235.9091234126661
 20
-229.9273483754018
 30
0.0
 10
235.9091234126661
 20
-229.9273483754018
 30
0.0
 10
230.2646775150365
 20
-220.1508883388815
 30
0.0
 10
230.2646775150365
 20
-220.1508883388815
 30
0.0
  0
POLYLINE
  5
264
330
1F
100
AcDbEntity
  8
TwoHexagon
 62
     7
420
 16777215
370
    35
100
AcDb2dPolyline
 66
     1
 10
0.0
 20
0.0
 30
0.0
  0
VERTEX
  5
265
330
264
100
AcDbEntity
  8
TwoHexagon
 62
     7
420
 16777215
370
    35
100
AcDbVertex
100
AcDb2dVertex
 10
199.4187660729662
 20
-228.8840352988704
 30
0.0
  0
VERTEX
  5
266
330
264
100
AcDbEntity
  8
TwoHexagon
 62
     7
420
 16777215
370
    35
100
AcDbVertex
100
AcDb2dVertex
 10
185.6740013946895
 20
-252.9999999367499
 30
0.0
  0
VERTEX
  5
267
330
264
100
AcDbEntity
  8
TwoHexagon
 62
     7
420
 16777215
370
    35
100
AcDbVertex
100
AcDb2dVertex
 10
185.673995630258
 20
-253.000003158048
 30
0.0
  0
VERTEX
  5
268
330
264
100
AcDbEntity
  8
TwoHexagon
 62
     7
420
 16777215
370
    35
100
AcDbVertex
100
AcDb2dVertex
 10
185.673995630258
 20
-212.7497253903335
 30
0.0
  0
VERTEX
  5
269
330
264
100
AcDbEntity
  8
TwoHexagon
 62
     7
420
 16777215
370
    35
100
AcDbVertex
100
AcDb2dVertex
 10
220.2740013860397
 20
-192.9400031730637
 30
0.0
  0
VERTEX
  5
26A
330
264
100
AcDbEntity
  8
TwoHexagon
 62
     7
420
 16777215
370
    35
100
AcDbVertex
100
AcDb2dVertex
 10
254.7642733907635
 20
-212.7497253903335
 30
0.0
  0
VERTEX
  5
26B
330
264
100
AcDbEntity
  8
TwoHexagon
 62
     7
420
 16777215
370
    35
100
AcDbVertex
100
AcDb2dVertex
 10
254.8739956129577
 20
-253.000003158048
 30
0.0
  0
VERTEX
  5
26C
330
264
100
AcDbEntity
  8
TwoHexagon
 62
     7
420
 16777215
370
    35
100
AcDbVertex
100
AcDb2dVertex
 10
254.8740013773895
 20
-252.9999999367499
 30
0.0
  0
VERTEX
  5
26D
330
264
100
AcDbEntity
  8
TwoHexagon
 62
     7
420
 16777215
370
    35
100
AcDbVertex
100
AcDb2dVertex
 10
240.164127492075
 20
-227.470719053696
 30
0.0
  0
SEQEND
  5
26E
330
264
100
AcDbEntity
  8
TwoHexagon
 62
     7
420
 16777215
370
    35
  0
INSERT
  5
270
330
1F
100
AcDbEntity
  8
TwoHexagon
100
AcDbBlockReference
  2
block 15
 10
0.0
 20
0.0
 30
0.0
  0
POLYLINE
  5
287
330
1F
100
AcDbEntity
  8
TwoHexagon
 62
     7
420
 16777215
370
    35
100
AcDb2dPolyline
 66
     1
 10
0.0
 20
0.0
 30
0.0
  0
VERTEX
  5
288
330
287
100
AcDbEntity
  8
TwoHexagon
 62
     7
420
 16777215
370
    35
100
AcDbVertex
100
AcDb2dVertex
 10
294.3573254777588
 20
-192.939996730464
 30
0.0
  0
VERTEX
  5
289
330
287
100
AcDbEntity
  8
TwoHexagon
 62
     7
420
 16777215
370
    35
100
AcDbVertex
100
AcDb2dVertex
 10
308.6030149092572
 20
-217.6942590171758
 30
0.0
  0
SEQEND
  5
28A
330
287
100
AcDbEntity
  8
TwoHexagon
 62
     7
420
 16777215
370
    35
  0
POLYLINE
  5
28B
330
1F
100
AcDbEntity
  8
TwoHexagon
 62
     7
420
 16777215
370
    35
100
AcDb2dPolyline
 66
     1
 10
0.0
 20
0.0
 30
0.0
  0
VERTEX
  5
28C
330
28B
100
AcDbEntity
  8
TwoHexagon
 62
     7
420
 16777215
370
    35
100
AcDbVertex
100
AcDb2dVertex
 10
279.499323063098
 20
-218.7547974846606
 30
0.0
  0
VERTEX
  5
28D
330
28B
100
AcDbEntity
  8
TwoHexagon
 62
     7
420
 16777215
370
    35
100
AcDbVertex
100
AcDb2dVertex
 10
294.3573254777588
 20
-192.939996730464
 30
0.0
  0
SEQEND
  5
28E
330
28B
100
AcDbEntity
  8
TwoHexagon
 62
     7
420
 16777215
370
    35
  0
SPLINE
  5
28F
330
1F
100
AcDbEntity
  8
TwoHexagon
 62
     7
420
 16777215
370
    35
100
AcDbSpline
210
0.0
220
0.0
230
1.0
 70
    27
 71
     3
 72
    11
 73
     7
 74
     0
 42
0.0000000001
 43
0.0000000001
 12
1.0
 22
0.0
 32
0.0
 13
1.0
 23
0.0
 33
0.0
 40
0.0
 40
0.0
 40
0.0
 40
0.0
 40
1.0
 40
1.0
 40
1.0
 40
2.0
 40
2.0
 40
2.0
 40
2.0
 10
304.348010829849
 20
-220.1508883388815
 30
0.0
 10
304.348010829849
 20
-220.1508883388815
 30
0.0
 10
309.992456727478
 20
-229.9273483754018
 30
0.0
 10
309.992456727478
 20
-229.9273483754018
 30
0.0
 10
309.992456727478
 20
-229.9273483754018
 30
0.0
 10
304.348010829849
 20
-220.1508883388815
 30
0.0
 10
304.348010829849
 20
-220.1508883388815
 30
0.0
  0
POLYLINE
  5
290
330
1F
100
AcDbEntity
  8
TwoHexagon
 62
     7
420
 16777215
370
    35
100
AcDb2dPolyline
 66
     1
 10
0.0
 20
0.0
 30
0.0
  0
VERTEX
  5
291
330
290
100
AcDbEntity
  8
TwoHexagon
 62
     7
420
 16777215
370
    35
100
AcDbVertex
100
AcDb2dVertex
 10
273.5020993877781
 20
-228.8840352988704
 30
0.0
  0
VERTEX
  5
292
330
290
100
AcDbEntity
  8
TwoHexagon
 62
     7
420
 16777215
370
    35
100
AcDbVertex
100
AcDb2dVertex
 10
259.7573347095017
 20
-252.9999999367499
 30
0.0
  0
VERTEX
  5
293
330
290
100
AcDbEntity
  8
TwoHexagon
 62
     7
420
 16777215
370
    35
100
AcDbVertex
100
AcDb2dVertex
 10
259.7573289450698
 20
-253.000003158048
 30
0.0
  0
VERTEX
  5
294
330
290
100
AcDbEntity
  8
TwoHexagon
 62
     7
420
 16777215
370
    35
100
AcDbVertex
100
AcDb2dVertex
 10
259.7573289450698
 20
-212.7497253903335
 30
0.0
  0
VERTEX
  5
295
330
290
100
AcDbEntity
  8
TwoHexagon
 62
     7
420
 16777215
370
    35
100
AcDbVertex
100
AcDb2dVertex
 10
294.3573347008515
 20
-192.9400031730637
 30
0.0
  0
VERTEX
  5
296
330
290
100
AcDbEntity
  8
TwoHexagon
 62
     7
420
 16777215
370
    35
100
AcDbVertex
100
AcDb2dVertex
 10
328.8476067055753
 20
-212.7497253903335
 30
0.0
  0
VERTEX
  5
297
330
290
100
AcDbEntity
  8
TwoHexagon
 62
     7
420
 16777215
370
    35
100
AcDbVertex
100
AcDb2dVertex
 10
328.9573289277695
 20
-253.000003158048
 30
0.0
  0
VERTEX
  5
298
330
290
100
AcDbEntity
  8
TwoHexagon
 62
     7
420
 16777215
370
    35
100
AcDbVertex
100
AcDb2dVertex
 10
328.957334692202
 20
-252.9999999367499
 30
0.0
  0
VERTEX
  5
299
330
290
100
AcDbEntity
  8
TwoHexagon
 62
     7
420
 16777215
370
    35
100
AcDbVertex
100
AcDb2dVertex
 10
314.2474608068875
 20
-227.470719053696
 30
0.0
  0
SEQEND
  5
29A
330
290
100
AcDbEntity
  8
TwoHexagon
 62
     7
420
 16777215
370
    35
  0
INSERT
  5
29C
330
1F
100
AcDbEntity
  8
TwoHexagon
100
AcDbBlockReference
  2
block 16
 10
0.0
 20
0.0
 30
0.0
  0
POLYLINE
  5
2B3
330
1F
100
AcDbEntity
  8
TwoHexagon
 62
     7
420
 16777215
370
    35
100
AcDb2dPolyline
 66
     1
 10
0.0
 20
0.0
 30
0.0
  0
VERTEX
  5
2B4
330
2B3
100
AcDbEntity
  8
TwoHexagon
 62
     7
420
 16777215
370
    35
100
AcDbVertex
100
AcDb2dVertex
 10
368.9999921257639
 20
-192.939996730464
 30
0.0
  0
VERTEX
  5
2B5
330
2B3
100
AcDbEntity
  8
TwoHexagon
 62
     7
420
 16777215
370
    35
100
AcDbVertex
100
AcDb2dVertex
 10
383.2456815572649
 20
-217.6942590171758
 30
0.0
  0
SEQEND
  5
2B6
330
2B3
100
AcDbEntity
  8
TwoHexagon
 62
     7
420
 16777215
370
    35
  0
POLYLINE
  5
2B7
330
1F
100
AcDbEntity
  8
TwoHexagon
 62
     7
420
 16777215
370
    35
100
AcDb2dPolyline
 66
     1
 10
0.0
 20
0.0
 30
0.0
  0
VERTEX
  5
2B8
330
2B7
100
AcDbEntity
  8
TwoHexagon
 62
     7
420
 16777215
370
    35
100
AcDbVertex
100
AcDb2dVertex
 10
354.1419897111057
 20
-218.7547974846606
 30
0.0
  0
VERTEX
  5
2B9
330
2B7
100
AcDbEntity
  8
TwoHexagon
 62
     7
420
 16777215
370
    35
100
AcDbVertex
100
AcDb2dVertex
 10
368.9999921257639
 20
-192.939996730464
 30
0.0
  0
SEQEND
  5
2BA
330
2B7
100
AcDbEntity
  8
TwoHexagon
 62
     7
420
 16777215
370
    35
  0
SPLINE
  5
2BB
330
1F
100
AcDbEntity
  8
TwoHexagon
 62
     7
420
 16777215
370
    35
100
AcDbSpline
210
0.0
220
0.0
230
1.0
 70
    27
 71
     3
 72
    11
 73
     7
 74
     0
 42
0.0000000001
 43
0.0000000001
 12
1.0
 22
0.0
 32
0.0
 13
1.0
 23
0.0
 33
0.0
 40
0.0
 40
0.0
 40
0.0
 40
0.0
 40
1.0
 40
1.0
 40
1.0
 40
2.0
 40
2.0
 40
2.0
 40
2.0
 10
378.9906774778554
 20
-220.1508883388815
 30
0.0
 10
378.9906774778554
 20
-220.1508883388815
 30
0.0
 10
384.6351233754838
 20
-229.9273483754018
 30
0.0
 10
384.6351233754838
 20
-229.9273483754018
 30
0.0
 10
384.6351233754838
 20
-229.9273483754018
 30
0.0
 10
378.9906774778554
 20
-220.1508883388815
 30
0.0
 10
378.9906774778554
 20
-220.1508883388815
 30
0.0
  0
POLYLINE
  5
2BC
330
1F
100
AcDbEntity
  8
TwoHexagon
 62
     7
420
 16777215
370
    35
100
AcDb2dPolyline
 66
     1
 10
0.0
 20
0.0
 30
0.0
  0
VERTEX
  5
2BD
330
2BC
100
AcDbEntity
  8
TwoHexagon
 62
     7
420
 16777215
370
    35
100
AcDbVertex
100
AcDb2dVertex
 10
348.1447660357845
 20
-228.8840352988704
 30
0.0
  0
VERTEX
  5
2BE
330
2BC
100
AcDbEntity
  8
TwoHexagon
 62
     7
420
 16777215
370
    35
100
AcDbVertex
100
AcDb2dVertex
 10
334.4000013575081
 20
-252.9999999367499
 30
0.0
  0
VERTEX
  5
2BF
330
2BC
100
AcDbEntity
  8
TwoHexagon
 62
     7
420
 16777215
370
    35
100
AcDbVertex
100
AcDb2dVertex
 10
334.3999955930763
 20
-253.000003158048
 30
0.0
  0
VERTEX
  5
2C0
330
2BC
100
AcDbEntity
  8
TwoHexagon
 62
     7
420
 16777215
370
    35
100
AcDbVertex
100
AcDb2dVertex
 10
334.3999955930763
 20
-212.7497253903335
 30
0.0
  0
VERTEX
  5
2C1
330
2BC
100
AcDbEntity
  8
TwoHexagon
 62
     7
420
 16777215
370
    35
100
AcDbVertex
100
AcDb2dVertex
 10
369.0000013488567
 20
-192.9400031730637
 30
0.0
  0
VERTEX
  5
2C2
330
2BC
100
AcDbEntity
  8
TwoHexagon
 62
     7
420
 16777215
370
    35
100
AcDbVertex
100
AcDb2dVertex
 10
403.4902733535831
 20
-212.7497253903335
 30
0.0
  0
VERTEX
  5
2C3
330
2BC
100
AcDbEntity
  8
TwoHexagon
 62
     7
420
 16777215
370
    35
100
AcDbVertex
100
AcDb2dVertex
 10
403.5999955757753
 20
-253.000003158048
 30
0.0
  0
VERTEX
  5
2C4
330
2BC
100
AcDbEntity
  8
TwoHexagon
 62
     7
420
 16777215
370
    35
100
AcDbVertex
100
AcDb2dVertex
 10
403.6000013402098
 20
-252.9999999367499
 30
0.0
  0
VERTEX
  5
2C5
330
2BC
100
AcDbEntity
  8
TwoHexagon
 62
     7
420
 16777215
370
    35
100
AcDbVertex
100
AcDb2dVertex
 10
388.8901274548926
 20
-227.470719053696
 30
0.0
  0
SEQEND
  5
2C6
330
2BC
100
AcDbEntity
  8
TwoHexagon
 62
     7
420
 16777215
370
    35
  0
INSERT
  5
2C8
330
1F
100
AcDbEntity
  8
TwoHexagon
100
AcDbBlockReference
  2
block 17
 10
0.0
 20
0.0
 30
0.0
  0
POLYLINE
  5
2DF
330
1F
100
AcDbEntity
  8
TwoHexagon
 62
     7
420
 16777215
370
    35
100
AcDb2dPolyline
 66
     1
 10
0.0
 20
0.0
 30
0.0
  0
VERTEX
  5
2E0
330
2DF
100
AcDbEntity
  8
TwoHexagon
 62
     7
420
 16777215
370
    35
100
AcDbVertex
100
AcDb2dVertex
 10
443.9999921070174
 20
-192.9399967304647
 30
0.0
  0
VERTEX
  5
2E1
330
2DF
100
AcDbEntity
  8
TwoHexagon
 62
     7
420
 16777215
370
    35
100
AcDbVertex
100
AcDb2dVertex
 10
458.2456815385113
 20
-217.6942590171764
 30
0.0
  0
SEQEND
  5
2E2
330
2DF
100
AcDbEntity
  8
TwoHexagon
 62
     7
420
 16777215
370
    35
  0
POLYLINE
  5
2E3
330
1F
100
AcDbEntity
  8
TwoHexagon
 62
     7
420
 16777215
370
    35
100
AcDb2dPolyline
 66
     1
 10
0.0
 20
0.0
 30
0.0
  0
VERTEX
  5
2E4
330
2E3
100
AcDbEntity
  8
TwoHexagon
 62
     7
420
 16777215
370
    35
100
AcDbVertex
100
AcDb2dVertex
 10
429.1419896923521
 20
-218.7547974846609
 30
0.0
  0
VERTEX
  5
2E5
330
2E3
100
AcDbEntity
  8
TwoHexagon
 62
     7
420
 16777215
370
    35
100
AcDbVertex
100
AcDb2dVertex
 10
443.9999921070174
 20
-192.9399967304647
 30
0.0
  0
SEQEND
  5
2E6
330
2E3
100
AcDbEntity
  8
TwoHexagon
 62
     7
420
 16777215
370
    35
  0
SPLINE
  5
2E7
330
1F
100
AcDbEntity
  8
TwoHexagon
 62
     7
420
 16777215
370
    35
100
AcDbSpline
210
0.0
220
0.0
230
1.0
 70
    27
 71
     3
 72
    11
 73
     7
 74
     0
 42
0.0000000001
 43
0.0000000001
 12
1.0
 22
0.0
 32
0.0
 13
1.0
 23
0.0
 33
0.0
 40
0.0
 40
0.0
 40
0.0
 40
0.0
 40
1.0
 40
1.0
 40
1.0
 40
2.0
 40
2.0
 40
2.0
 40
2.0
 10
453.9906774591057
 20
-220.1508883388819
 30
0.0
 10
453.9906774591057
 20
-220.1508883388819
 30
0.0
 10
459.6351233567335
 20
-229.9273483754025
 30
0.0
 10
459.6351233567335
 20
-229.9273483754025
 30
0.0
 10
459.6351233567335
 20
-229.9273483754025
 30
0.0
 10
453.9906774591057
 20
-220.1508883388819
 30
0.0
 10
453.9906774591057
 20
-220.1508883388819
 30
0.0
  0
POLYLINE
  5
2E8
330
1F
100
AcDbEntity
  8
TwoHexagon
 62
     7
420
 16777215
370
    35
100
AcDb2dPolyline
 66
     1
 10
0.0
 20
0.0
 30
0.0
  0
VERTEX
  5
2E9
330
2E8
100
AcDbEntity
  8
TwoHexagon
 62
     7
420
 16777215
370
    35
100
AcDbVertex
100
AcDb2dVertex
 10
423.1447660170348
 20
-228.8840352988711
 30
0.0
  0
VERTEX
  5
2EA
330
2E8
100
AcDbEntity
  8
TwoHexagon
 62
     7
420
 16777215
370
    35
100
AcDbVertex
100
AcDb2dVertex
 10
409.4000013387565
 20
-252.9999999367499
 30
0.0
  0
VERTEX
  5
2EB
330
2E8
100
AcDbEntity
  8
TwoHexagon
 62
     7
420
 16777215
370
    35
100
AcDbVertex
100
AcDb2dVertex
 10
409.3999955743253
 20
-253.0000031580489
 30
0.0
  0
VERTEX
  5
2EC
330
2E8
100
AcDbEntity
  8
TwoHexagon
 62
     7
420
 16777215
370
    35
100
AcDbVertex
100
AcDb2dVertex
 10
409.3999955743253
 20
-212.7497253903341
 30
0.0
  0
VERTEX
  5
2ED
330
2E8
100
AcDbEntity
  8
TwoHexagon
 62
     7
420
 16777215
370
    35
100
AcDbVertex
100
AcDb2dVertex
 10
444.0000013301063
 20
-192.9400031730643
 30
0.0
  0
VERTEX
  5
2EE
330
2E8
100
AcDbEntity
  8
TwoHexagon
 62
     7
420
 16777215
370
    35
100
AcDbVertex
100
AcDb2dVertex
 10
478.4902733348288
 20
-212.7497253903341
 30
0.0
  0
VERTEX
  5
2EF
330
2E8
100
AcDbEntity
  8
TwoHexagon
 62
     7
420
 16777215
370
    35
100
AcDbVertex
100
AcDb2dVertex
 10
478.599995557025
 20
-253.0000031580489
 30
0.0
  0
VERTEX
  5
2F0
330
2E8
100
AcDbEntity
  8
TwoHexagon
 62
     7
420
 16777215
370
    35
100
AcDbVertex
100
AcDb2dVertex
 10
478.6000013214561
 20
-252.9999999367499
 30
0.0
  0
VERTEX
  5
2F1
330
2E8
100
AcDbEntity
  8
TwoHexagon
 62
     7
420
 16777215
370
    35
100
AcDbVertex
100
AcDb2dVertex
 10
463.8901274361429
 20
-227.4707190536973
 30
0.0
  0
SEQEND
  5
2F2
330
2E8
100
AcDbEntity
  8
TwoHexagon
 62
     7
420
 16777215
370
    35
  0
INSERT
  5
2F4
330
1F
100
AcDbEntity
  8
TwoHexagon
100
AcDbBlockReference
  2
block 18
 10
0.0
 20
0.0
 30
0.0
  0
ENDSEC
  0
SECTION
  2
OBJECTS
  0
DICTIONARY
  5
C
330
0
100
AcDbDictionary
281
     1
  3
ACAD_GROUP
350
D
  3
ACAD_LAYOUT
350
1A
  3
ACAD_MATERIAL
350
3B
  3
ACAD_MLEADERSTYLE
350
316
  3
ACAD_MLINESTYLE
350
17
  3
ACAD_PLOTSETTINGS
350
19
  3
ACAD_PLOTSTYLENAME
350
E
  3
ACAD_TABLESTYLE
350
315
  3
ACAD_VISUALSTYLE
350
2A
  0
SUN
  5
3F
330
29
100
AcDbSun
 90
        1
290
     0
 63
     7
421
 16777215
 40
1.0
291
     1
 91
  2455826
 92
 54000000
292
     0
 70
     2
 71
   256
280
     1
  0
DICTIONARY
  5
D
102
{ACAD_REACTORS
330
C
102
}
330
C
100
AcDbDictionary
281
     1
  0
DICTIONARY
  5
1A
102
{ACAD_REACTORS
330
C
102
}
330
C
100
AcDbDictionary
281
     1
  3
Layout1
350
1E
  3
Layout2
350
26
  3
Model
350
22
  0
DICTIONARY
  5
3B
102
{ACAD_REACTORS
330
C
102
}
330
C
100
AcDbDictionary
281
     1
  3
ByBlock
350
3D
  3
ByLayer
350
3C
  3
Global
350
3E
  0
DICTIONARY
  5
316
102
{ACAD_REACTORS
330
C
102
}
330
C
100
AcDbDictionary
281
     1
  0
DICTIONARY
  5
17
102
{ACAD_REACTORS
330
C
102
}
330
C
100
AcDbDictionary
281
     1
  3
Standard
350
18
  0
DICTIONARY
  5
19
102
{ACAD_REACTORS
330
C
102
}
330
C
100
AcDbDictionary
281
     1
  0
ACDBDICTIONARYWDFLT
  5
E
102
{ACAD_REACTORS
330
C
102
}
330
C
100
AcDbDictionary
281
     1
  3
Normal
350
F
100
AcDbDictionaryWithDefault
340
F
  0
DICTIONARY
  5
315
102
{ACAD_REACTORS
330
C
102
}
330
C
100
AcDbDictionary
281
     1
  0
DICTIONARY
  5
2A
102
{ACAD_REACTORS
330
C
102
}
330
C
100
AcDbDictionary
281
     1
  3
2dWireframe
350
2F
  3
3D Hidden
350
31
  3
3dWireframe
350
30
  3
Basic
350
32
  3
Brighten
350
36
  3
ColorChange
350
3A
  3
Conceptual
350
34
  3
Dim
350
35
  3
Facepattern
350
39
  3
Flat
350
2B
  3
FlatWithEdges
350
2C
  3
Gouraud
350
2D
  3
GouraudWithEdges
350
2E
  3
Linepattern
350
38
  3
Realistic
350
33
  3
Thicken
350
37
  0
LAYOUT
  5
1E
102
{ACAD_REACTORS
330
1A
102
}
330
1A
100
AcDbPlotSettings
  1

  2
none_device
  4

  6

 40
0.0
 41
0.0
 42
0.0
 43
0.0
 44
0.0
 45
0.0
 46
0.0
 47
0.0
 48
0.0
 49
0.0
140
0.0
141
0.0
142
1.0
143
1.0
 70
   688
 72
     0
 73
     0
 74
     5
  7

 75
    16
 76
     0
 77
     2
 78
   300
147
1.0
148
0.0
149
0.0
100
AcDbLayout
  1
Layout1
 70
     1
 71
     1
 10
0.0
 20
0.0
 11
12.0
 21
9.0
 12
0.0
 22
0.0
 32
0.0
 14
1.000000000000000E+20
 24
1.000000000000000E+20
 34
1.000000000000000E+20
 15
-1.000000000000000E+20
 25
-1.000000000000000E+20
 35
-1.000000000000000E+20
146
0.0
 13
0.0
 23
0.0
 33
0.0
 16
1.0
 26
0.0
 36
0.0
 17
0.0
 27
1.0
 37
0.0
 76
     0
330
1B
  0
LAYOUT
  5
26
102
{ACAD_REACTORS
330
1A
102
}
330
1A
100
AcDbPlotSettings
  1

  2
none_device
  4

  6

 40
0.0
 41
0.0
 42
0.0
 43
0.0
 44
0.0
 45
0.0
 46
0.0
 47
0.0
 48
0.0
 49
0.0
140
0.0
141
0.0
142
1.0
143
1.0
 70
   688
 72
     0
 73
     0
 74
     5
  7

 75
    16
 76
     0
 77
     2
 78
   300
147
1.0
148
0.0
149
0.0
100
AcDbLayout
  1
Layout2
 70
     1
 71
     2
 10
0.0
 20
0.0
 11
0.0
 21
0.0
 12
0.0
 22
0.0
 32
0.0
 14
0.0
 24
0.0
 34
0.0
 15
0.0
 25
0.0
 35
0.0
146
0.0
 13
0.0
 23
0.0
 33
0.0
 16
1.0
 26
0.0
 36
0.0
 17
0.0
 27
1.0
 37
0.0
 76
     0
330
23
  0
LAYOUT
  5
22
102
{ACAD_REACTORS
330
1A
102
}
330
1A
100
AcDbPlotSettings
  1

  2
none_device
  4

  6

 40
0.0
 41
0.0
 42
0.0
 43
0.0
 44
0.0
 45
0.0
 46
0.0
 47
0.0
 48
0.0
 49
0.0
140
0.0
141
0.0
142
1.0
143
1.0
 70
  1712
 72
     0
 73
     0
 74
     0
  7

 75
     0
 76
     0
 77
     2
 78
   300
147
1.0
148
0.0
149
0.0
100
AcDbLayout
  1
Model
 70
     1
 71
     0
 10
0.0
 20
0.0
 11
12.0
 21
9.0
 12
0.0
 22
0.0
 32
0.0
 14
1.000000000000000E+20
 24
1.000000000000000E+20
 34
1.000000000000000E+20
 15
-1.000000000000000E+20
 25
-1.000000000000000E+20
 35
-1.000000000000000E+20
146
0.0
 13
0.0
 23
0.0
 33
0.0
 16
1.0
 26
0.0
 36
0.0
 17
0.0
 27
1.0
 37
0.0
 76
     0
330
1F
331
29
  0
MATERIAL
  5
3D
102
{ACAD_REACTORS
330
3B
102
}
330
3B
100
AcDbMaterial
  1
ByBlock
 72
     1
 94
      127
  0
MATERIAL
  5
3C
102
{ACAD_REACTORS
330
3B
102
}
330
3B
100
AcDbMaterial
  1
ByLayer
 72
     1
 94
      127
  0
MATERIAL
  5
3E
102
{ACAD_REACTORS
330
3B
102
}
330
3B
100
AcDbMaterial
  1
Global
 72
     1
 94
      127
  0
MLINESTYLE
  5
18
102
{ACAD_REACTORS
330
17
102
}
330
17
100
AcDbMlineStyle
  2
Standard
 70
     0
  3

 62
   256
 51
90.0
 52
90.0
 71
     2
 49
0.5
 62
   256
  6
BYLAYER
 49
-0.5
 62
   256
  6
BYLAYER
  0
ACDBPLACEHOLDER
  5
F
102
{ACAD_REACTORS
330
E
102
}
330
E
  0
VISUALSTYLE
  5
2F
102
{ACAD_REACTORS
330
2A
102
}
330
2A
100
AcDbVisualStyle
  2
2dWireframe
 70
     4
177
     2
291
     0
 71
     0
176
     1
 72
     2
176
     1
 73
     0
176
     1
 90
        0
176
     1
 40
-0.6
176
     1
 41
-30.0
176
     1
 62
     5
 63
     7
421
 16777215
176
     1
 74
     1
176
     1
 91
        4
176
     1
 64
     7
176
     1
 65
   257
176
     1
 75
     1
176
     1
175
     1
176
     1
 42
1.0
176
     1
 92
        0
176
     1
 66
   257
176
     1
 43
1.0
176
     1
 76
     1
176
     1
 77
     6
176
     1
 78
     2
176
     1
 67
     7
176
     1
 79
     5
176
     1
170
     0
176
     1
171
     0
176
     1
290
     0
176
     1
 93
        1
176
     1
 44
0.0
176
     1
173
     0
176
     1
  0
VISUALSTYLE
  5
31
102
{ACAD_REACTORS
330
2A
102
}
330
2A
100
AcDbVisualStyle
  2
3D Hidden
 70
     6
177
     2
291
     0
 71
     1
176
     1
 72
     2
176
     1
 73
     2
176
     1
 90
        0
176
     1
 40
-0.6
176
     1
 41
-30.0
176
     1
 62
     5
 63
     7
421
 16777215
176
     1
 74
     2
176
     1
 91
        2
176
     1
 64
     7
176
     1
 65
   257
176
     1
 75
     2
176
     1
175
     1
176
     1
 42
40.0
176
     1
 92
        0
176
     1
 66
   257
176
     1
 43
1.0
176
     1
 76
     1
176
     1
 77
     6
176
     1
 78
     2
176
     1
 67
     7
176
     1
 79
     3
176
     1
170
     0
176
     1
171
     0
176
     1
290
     0
176
     1
 93
        1
176
     1
 44
0.0
176
     1
173
     0
176
     1
  0
VISUALSTYLE
  5
30
102
{ACAD_REACTORS
330
2A
102
}
330
2A
100
AcDbVisualStyle
  2
3dWireframe
 70
     5
177
     2
291
     0
 71
     0
176
     1
 72
     2
176
     1
 73
     0
176
     1
 90
        0
176
     1
 40
-0.6
176
     1
 41
-30.0
176
     1
 62
     5
 63
     7
421
 16777215
176
     1
 74
     1
176
     1
 91
        4
176
     1
 64
     7
176
     1
 65
   257
176
     1
 75
     1
176
     1
175
     1
176
     1
 42
1.0
176
     1
 92
        0
176
     1
 66
   257
176
     1
 43
1.0
176
     1
 76
     1
176
     1
 77
     6
176
     1
 78
     2
176
     1
 67
     7
176
     1
 79
     5
176
     1
170
     0
176
     1
171
     0
176
     1
290
     0
176
     1
 93
        1
176
     1
 44
0.0
176
     1
173
     0
176
     1
  0
VISUALSTYLE
  5
32
102
{ACAD_REACTORS
330
2A
102
}
330
2A
100
AcDbVisualStyle
  2
Basic
 70
     7
177
     2
291
     1
 71
     1
176
     1
 72
     0
176
     1
 73
     1
176
     1
 90
        0
176
     1
 40
-0.6
176
     1
 41
-30.0
176
     1
 62
     5
 63
     7
421
 16777215
176
     1
 74
     0
176
     1
 91
        4
176
     1
 64
     7
176
     1
 65
   257
176
     1
 75
     1
176
     1
175
     1
176
     1
 42
1.0
176
     1
 92
        8
176
     1
 66
     7
176
     1
 43
1.0
176
     1
 76
     1
176
     1
 77
     6
176
     1
 78
     2
176
     1
 67
     7
176
     1
 79
     5
176
     1
170
     0
176
     1
171
     0
176
     1
290
     0
176
     1
 93
        1
176
     1
 44
0.0
176
     1
173
     0
176
     1
  0
VISUALSTYLE
  5
36
102
{ACAD_REACTORS
330
2A
102
}
330
2A
100
AcDbVisualStyle
  2
Brighten
 70
    12
177
     2
291
     1
 71
     2
176
     1
 72
     2
176
     1
 73
     0
176
     1
 90
        0
176
     1
 40
-0.6
176
     1
 41
-30.0
176
     1
 62
     5
 63
     7
421
 16777215
176
     1
 74
     1
176
     1
 91
        4
176
     1
 64
     7
176
     1
 65
   257
176
     1
 75
     1
176
     1
175
     1
176
     1
 42
1.0
176
     1
 92
        8
176
     1
 66
     7
176
     1
 43
1.0
176
     1
 76
     1
176
     1
 77
     6
176
     1
 78
     2
176
     1
 67
     7
176
     1
 79
     5
176
     1
170
     0
176
     1
171
     0
176
     1
290
     0
176
     1
 93
        1
176
     1
 44
50.0
176
     1
173
     0
176
     1
  0
VISUALSTYLE
  5
3A
102
{ACAD_REACTORS
330
2A
102
}
330
2A
100
AcDbVisualStyle
  2
ColorChange
 70
    16
177
     2
291
     1
 71
     2
176
     1
 72
     2
176
     1
 73
     3
176
     1
 90
        0
176
     1
 40
-0.6
176
     1
 41
-30.0
176
     1
 62
     5
 63
     8
421
  8421504
176
     1
 74
     1
176
     1
 91
        4
176
     1
 64
     7
176
     1
 65
   257
176
     1
 75
     1
176
     1
175
     1
176
     1
 42
1.0
176
     1
 92
        8
176
     1
 66
     8
424
  8421504
176
     1
 43
1.0
176
     1
 76
     1
176
     1
 77
     6
176
     1
 78
     2
176
     1
 67
     7
176
     1
 79
     5
176
     1
170
     0
176
     1
171
     0
176
     1
290
     0
176
     1
 93
        1
176
     1
 44
0.0
176
     1
173
     0
176
     1
  0
VISUALSTYLE
  5
34
102
{ACAD_REACTORS
330
2A
102
}
330
2A
100
AcDbVisualStyle
  2
Conceptual
 70
     9
177
     2
291
     0
 71
     3
176
     1
 72
     2
176
     1
 73
     0
176
     1
 90
        0
176
     1
 40
-0.6
176
     1
 41
-30.0
176
     1
 62
     5
 63
     7
421
 16777215
176
     1
 74
     2
176
     1
 91
        2
176
     1
 64
     7
176
     1
 65
   257
176
     1
 75
     1
176
     1
175
     1
176
     1
 42
40.0
176
     1
 92
        8
176
     1
 66
     7
176
     1
 43
1.0
176
     1
 76
     1
176
     1
 77
     6
176
     1
 78
     2
176
     1
 67
     7
176
     1
 79
     3
176
     1
170
     0
176
     1
171
     0
176
     1
290
     0
176
     1
 93
        1
176
     1
 44
0.0
176
     1
173
     0
176
     1
  0
VISUALSTYLE
  5
35
102
{ACAD_REACTORS
330
2A
102
}
330
2A
100
AcDbVisualStyle
  2
Dim
 70
    11
177
     2
291
     1
 71
     2
176
     1
 72
     2
176
     1
 73
     0
176
     1
 90
        0
176
     1
 40
-0.6
176
     1
 41
-30.0
176
     1
 62
     5
 63
     7
421
 16777215
176
     1
 74
     1
176
     1
 91
        4
176
     1
 64
     7
176
     1
 65
   257
176
     1
 75
     1
176
     1
175
     1
176
     1
 42
1.0
176
     1
 92
        8
176
     1
 66
     7
176
     1
 43
1.0
176
     1
 76
     1
176
     1
 77
     6
176
     1
 78
     2
176
     1
 67
     7
176
     1
 79
     5
176
     1
170
     0
176
     1
171
     0
176
     1
290
     0
176
     1
 93
        1
176
     1
 44
-50.0
176
     1
173
     0
176
     1
  0
VISUALSTYLE
  5
39
102
{ACAD_REACTORS
330
2A
102
}
330
2A
100
AcDbVisualStyle
  2
Facepattern
 70
    15
177
     2
291
     1
 71
     2
176
     1
 72
     2
176
     1
 73
     0
176
     1
 90
        0
176
     1
 40
-0.6
176
     1
 41
-30.0
176
     1
 62
     5
 63
     7
421
 16777215
176
     1
 74
     1
176
     1
 91
        4
176
     1
 64
     7
176
     1
 65
   257
176
     1
 75
     1
176
     1
175
     1
176
     1
 42
1.0
176
     1
 92
        8
176
     1
 66
     7
176
     1
 43
1.0
176
     1
 76
     1
176
     1
 77
     6
176
     1
 78
     2
176
     1
 67
     7
176
     1
 79
     5
176
     1
170
     0
176
     1
171
     0
176
     1
290
     0
176
     1
 93
        1
176
     1
 44
0.0
176
     1
173
     0
176
     1
  0
VISUALSTYLE
  5
2B
102
{ACAD_REACTORS
330
2A
102
}
330
2A
100
AcDbVisualStyle
  2
Flat
 70
     0
177
     2
291
     1
 71
     2
176
     1
 72
     1
176
     1
 73
     1
176
     1
 90
        2
176
     1
 40
-0.6
176
     1
 41
30.0
176
     1
 62
     5
 63
     7
421
 16777215
176
     1
 74
     0
176
     1
 91
        4
176
     1
 64
     7
176
     1
 65
   257
176
     1
 75
     1
176
     1
175
     1
176
     1
 42
1.0
176
     1
 92
        8
176
     1
 66
     7
176
     1
 43
1.0
176
     1
 76
     1
176
     1
 77
     6
176
     1
 78
     2
176
     1
 67
     7
176
     1
 79
     5
176
     1
170
     0
176
     1
171
     0
176
     1
290
     0
176
     1
 93
       13
176
     1
 44
0.0
176
     1
173
     0
176
     1
  0
VISUALSTYLE
  5
2C
102
{ACAD_REACTORS
330
2A
102
}
330
2A
100
AcDbVisualStyle
  2
FlatWithEdges
 70
     1
177
     2
291
     1
 71
     2
176
     1
 72
     1
176
     1
 73
     1
176
     1
 90
        2
176
     1
 40
-0.6
176
     1
 41
30.0
176
     1
 62
     5
 63
     7
421
 16777215
176
     1
 74
     1
176
     1
 91
        4
176
     1
 64
     7
176
     1
 65
   257
176
     1
 75
     1
176
     1
175
     1
176
     1
 42
1.0
176
     1
 92
        0
176
     1
 66
   257
176
     1
 43
1.0
176
     1
 76
     1
176
     1
 77
     6
176
     1
 78
     2
176
     1
 67
     7
176
     1
 79
     5
176
     1
170
     0
176
     1
171
     0
176
     1
290
     0
176
     1
 93
       13
176
     1
 44
0.0
176
     1
173
     0
176
     1
  0
VISUALSTYLE
  5
2D
102
{ACAD_REACTORS
330
2A
102
}
330
2A
100
AcDbVisualStyle
  2
Gouraud
 70
     2
177
     2
291
     1
 71
     2
176
     1
 72
     2
176
     1
 73
     1
176
     1
 90
        2
176
     1
 40
-0.6
176
     1
 41
30.0
176
     1
 62
     5
 63
     7
421
 16777215
176
     1
 74
     0
176
     1
 91
        4
176
     1
 64
     7
176
     1
 65
   257
176
     1
 75
     1
176
     1
175
     1
176
     1
 42
1.0
176
     1
 92
        0
176
     1
 66
     7
176
     1
 43
1.0
176
     1
 76
     1
176
     1
 77
     6
176
     1
 78
     2
176
     1
 67
     7
176
     1
 79
     5
176
     1
170
     0
176
     1
171
     0
176
     1
290
     0
176
     1
 93
       13
176
     1
 44
0.0
176
     1
173
     0
176
     1
  0
VISUALSTYLE
  5
2E
102
{ACAD_REACTORS
330
2A
102
}
330
2A
100
AcDbVisualStyle
  2
GouraudWithEdges
 70
     3
177
     2
291
     1
 71
     2
176
     1
 72
     2
176
     1
 73
     1
176
     1
 90
        2
176
     1
 40
-0.6
176
     1
 41
30.0
176
     1
 62
     5
 63
     7
421
 16777215
176
     1
 74
     1
176
     1
 91
        4
176
     1
 64
     7
176
     1
 65
   257
176
     1
 75
     1
176
     1
175
     1
176
     1
 42
1.0
176
     1
 92
        0
176
     1
 66
   257
176
     1
 43
1.0
176
     1
 76
     1
176
     1
 77
     6
176
     1
 78
     2
176
     1
 67
     7
176
     1
 79
     5
176
     1
170
     0
176
     1
171
     0
176
     1
290
     0
176
     1
 93
       13
176
     1
 44
0.0
176
     1
173
     0
176
     1
  0
VISUALSTYLE
  5
38
102
{ACAD_REACTORS
330
2A
102
}
330
2A
100
AcDbVisualStyle
  2
Linepattern
 70
    14
177
     2
291
     1
 71
     2
176
     1
 72
     2
176
     1
 73
     0
176
     1
 90
        0
176
     1
 40
-0.6
176
     1
 41
-30.0
176
     1
 62
     5
 63
     7
421
 16777215
176
     1
 74
     1
176
     1
 91
        4
176
     1
 64
     7
176
     1
 65
   257
176
     1
 75
     7
176
     1
175
     7
176
     1
 42
1.0
176
     1
 92
        8
176
     1
 66
     7
176
     1
 43
1.0
176
     1
 76
     1
176
     1
 77
     6
176
     1
 78
     2
176
     1
 67
     7
176
     1
 79
     5
176
     1
170
     0
176
     1
171
     0
176
     1
290
     0
176
     1
 93
        1
176
     1
 44
0.0
176
     1
173
     0
176
     1
  0
VISUALSTYLE
  5
33
102
{ACAD_REACTORS
330
2A
102
}
330
2A
100
AcDbVisualStyle
  2
Realistic
 70
     8
177
     2
291
     0
 71
     2
176
     1
 72
     2
176
     1
 73
     0
176
     1
 90
        0
176
     1
 40
-0.6
176
     1
 41
-30.0
176
     1
 62
     5
 63
     7
421
 16777215
176
     1
 74
     1
176
     1
 91
        0
176
     1
 64
     7
176
     1
 65
   257
176
     1
 75
     1
176
     1
175
     1
176
     1
 42
1.0
176
     1
 92
        8
176
     1
 66
     8
424
  7895160
176
     1
 43
1.0
176
     1
 76
     1
176
     1
 77
     6
176
     1
 78
     2
176
     1
 67
     7
176
     1
 79
     5
176
     1
170
     0
176
     1
171
     0
176
     1
290
     0
176
     1
 93
       13
176
     1
 44
0.0
176
     1
173
     0
176
     1
  0
VISUALSTYLE
  5
37
102
{ACAD_REACTORS
330
2A
102
}
330
2A
100
AcDbVisualStyle
  2
Thicken
 70
    13
177
     2
291
     1
 71
     2
176
     1
 72
     2
176
     1
 73
     0
176
     1
 90
        0
176
     1
 40
-0.6
176
     1
 41
-30.0
176
     1
 62
     5
 63
     7
421
 16777215
176
     1
 74
     1
176
     1
 91
        4
176
     1
 64
     7
176
     1
 65
   257
176
     1
 75
     1
176
     1
175
     1
176
     1
 42
1.0
176
     1
 92
       12
176
     1
 66
     7
176
     1
 43
1.0
176
     1
 76
     1
176
     1
 77
     6
176
     1
 78
     2
176
     1
 67
     7
176
     1
 79
     5
176
     1
170
     0
176
     1
171
     0
176
     1
290
     0
176
     1
 93
        1
176
     1
 44
0.0
176
     1
173
     0
176
     1
  0
ENDSEC
  0
EOF
