  0
SECTION
  2
HEADER
  9
$ACADVER
  1
AC1024
  9
$ACADMAINTVER
 70
     6
  9
$DWGCODEPAGE
  3
ANSI_932
  9
$INSBASE
 10
0.0
 20
0.0
 30
0.0
  9
$EXTMIN
 10
1.000000000000000E+20
 20
1.000000000000000E+20
 30
1.000000000000000E+20
  9
$EXTMAX
 10
-1.000000000000000E+20
 20
-1.000000000000000E+20
 30
-1.000000000000000E+20
  9
$LIMMIN
 10
0.0
 20
0.0
  9
$LIMMAX
 10
12.0
 20
9.0
  9
$ORTHOMODE
 70
     0
  9
$REGENMODE
 70
     1
  9
$FILLMODE
 70
     1
  9
$QTEXTMODE
 70
     0
  9
$MIRRTEXT
 70
     1
  9
$LTSCALE
 40
1.0
  9
$ATTMODE
 70
     1
  9
$TEXTSIZE
 40
0.2
  9
$TRACEWID
 40
0.05
  9
$TEXTSTYLE
  7
Standard
  9
$CLAYER
  8
0
  9
$CELTYPE
  6
ByLayer
  9
$CECOLOR
 62
   256
  9
$CELTSCALE
 40
1.0
  9
$DISPSILH
 70
     0
  9
$DIMSCALE
 40
1.0
  9
$DIMASZ
 40
0.18
  9
$DIMEXO
 40
0.0625
  9
$DIMDLI
 40
0.38
  9
$DIMRND
 40
0.0
  9
$DIMDLE
 40
0.0
  9
$DIMEXE
 40
0.18
  9
$DIMTP
 40
0.0
  9
$DIMTM
 40
0.0
  9
$DIMTXT
 40
0.18
  9
$DIMCEN
 40
0.09
  9
$DIMTSZ
 40
0.0
  9
$DIMTOL
 70
     0
  9
$DIMLIM
 70
     0
  9
$DIMTIH
 70
     1
  9
$DIMTOH
 70
     1
  9
$DIMSE1
 70
     0
  9
$DIMSE2
 70
     0
  9
$DIMTAD
 70
     0
  9
$DIMZIN
 70
     0
  9
$DIMBLK
  1

  9
$DIMASO
 70
     1
  9
$DIMSHO
 70
     1
  9
$DIMPOST
  1

  9
$DIMAPOST
  1

  9
$DIMALT
 70
     0
  9
$DIMALTD
 70
     2
  9
$DIMALTF
 40
25.4
  9
$DIMLFAC
 40
1.0
  9
$DIMTOFL
 70
     0
  9
$DIMTVP
 40
0.0
  9
$DIMTIX
 70
     0
  9
$DIMSOXD
 70
     0
  9
$DIMSAH
 70
     0
  9
$DIMBLK1
  1

  9
$DIMBLK2
  1

  9
$DIMSTYLE
  2
Standard
  9
$DIMCLRD
 70
     0
  9
$DIMCLRE
 70
     0
  9
$DIMCLRT
 70
     0
  9
$DIMTFAC
 40
1.0
  9
$DIMGAP
 40
0.09
  9
$DIMJUST
 70
     0
  9
$DIMSD1
 70
     0
  9
$DIMSD2
 70
     0
  9
$DIMTOLJ
 70
     1
  9
$DIMTZIN
 70
     0
  9
$DIMALTZ
 70
     0
  9
$DIMALTTZ
 70
     0
  9
$DIMUPT
 70
     0
  9
$DIMDEC
 70
     4
  9
$DIMTDEC
 70
     4
  9
$DIMALTU
 70
     2
  9
$DIMALTTD
 70
     2
  9
$DIMTXSTY
  7
Standard
  9
$DIMAUNIT
 70
     0
  9
$DIMADEC
 70
     0
  9
$DIMALTRND
 40
0.0
  9
$DIMAZIN
 70
     0
  9
$DIMDSEP
 70
    46
  9
$DIMATFIT
 70
     3
  9
$DIMFRAC
 70
     0
  9
$DIMLDRBLK
  1

  9
$DIMLUNIT
 70
     2
  9
$DIMLWD
 70
    -2
  9
$DIMLWE
 70
    -2
  9
$DIMTMOVE
 70
     0
  9
$DIMFXL
 40
1.0
  9
$DIMFXLON
 70
     0
  9
$DIMJOGANG
 40
0.7853981633974483
  9
$DIMTFILL
 70
     0
  9
$DIMTFILLCLR
 70
     0
  9
$DIMARCSYM
 70
     0
  9
$DIMLTYPE
  6

  9
$DIMLTEX1
  6

  9
$DIMLTEX2
  6

  9
$DIMTXTDIRECTION
 70
     0
  9
$LUNITS
 70
     2
  9
$LUPREC
 70
     4
  9
$SKETCHINC
 40
0.1
  9
$FILLETRAD
 40
0.5
  9
$AUNITS
 70
     0
  9
$AUPREC
 70
     0
  9
$MENU
  1
.
  9
$ELEVATION
 40
0.0
  9
$PELEVATION
 40
0.0
  9
$THICKNESS
 40
0.0
  9
$LIMCHECK
 70
     0
  9
$CHAMFERA
 40
0.5
  9
$CHAMFERB
 40
0.5
  9
$CHAMFERC
 40
1.0
  9
$CHAMFERD
 40
0.0
  9
$SKPOLY
 70
     0
  9
$TDCREATE
 40
2458560.684572292
  9
$TDUCREATE
 40
2458560.309572292
  9
$TDUPDATE
 40
2458560.684572558
  9
$TDUUPDATE
 40
2458560.309572558
  9
$TDINDWG
 40
0.0000000116
  9
$TDUSRTIMER
 40
0.0000000116
  9
$USRTIMER
 70
     1
  9
$ANGBASE
 50
0.0
  9
$ANGDIR
 70
     0
  9
$PDMODE
 70
     0
  9
$PDSIZE
 40
0.0
  9
$PLINEWID
 40
0.0
  9
$SPLFRAME
 70
     0
  9
$SPLINETYPE
 70
     6
  9
$SPLINESEGS
 70
     8
  9
$HANDSEED
  5
2A4
  9
$SURFTAB1
 70
     6
  9
$SURFTAB2
 70
     6
  9
$SURFTYPE
 70
     6
  9
$SURFU
 70
     6
  9
$SURFV
 70
     6
  9
$UCSBASE
  2

  9
$UCSNAME
  2

  9
$UCSORG
 10
0.0
 20
0.0
 30
0.0
  9
$UCSXDIR
 10
1.0
 20
0.0
 30
0.0
  9
$UCSYDIR
 10
0.0
 20
1.0
 30
0.0
  9
$UCSORTHOREF
  2

  9
$UCSORTHOVIEW
 70
     0
  9
$UCSORGTOP
 10
0.0
 20
0.0
 30
0.0
  9
$UCSORGBOTTOM
 10
0.0
 20
0.0
 30
0.0
  9
$UCSORGLEFT
 10
0.0
 20
0.0
 30
0.0
  9
$UCSORGRIGHT
 10
0.0
 20
0.0
 30
0.0
  9
$UCSORGFRONT
 10
0.0
 20
0.0
 30
0.0
  9
$UCSORGBACK
 10
0.0
 20
0.0
 30
0.0
  9
$PUCSBASE
  2

  9
$PUCSNAME
  2

  9
$PUCSORG
 10
0.0
 20
0.0
 30
0.0
  9
$PUCSXDIR
 10
1.0
 20
0.0
 30
0.0
  9
$PUCSYDIR
 10
0.0
 20
1.0
 30
0.0
  9
$PUCSORTHOREF
  2

  9
$PUCSORTHOVIEW
 70
     0
  9
$PUCSORGTOP
 10
0.0
 20
0.0
 30
0.0
  9
$PUCSORGBOTTOM
 10
0.0
 20
0.0
 30
0.0
  9
$PUCSORGLEFT
 10
0.0
 20
0.0
 30
0.0
  9
$PUCSORGRIGHT
 10
0.0
 20
0.0
 30
0.0
  9
$PUCSORGFRONT
 10
0.0
 20
0.0
 30
0.0
  9
$PUCSORGBACK
 10
0.0
 20
0.0
 30
0.0
  9
$USERI1
 70
     0
  9
$USERI2
 70
     0
  9
$USERI3
 70
     0
  9
$USERI4
 70
     0
  9
$USERI5
 70
     0
  9
$USERR1
 40
0.0
  9
$USERR2
 40
0.0
  9
$USERR3
 40
0.0
  9
$USERR4
 40
0.0
  9
$USERR5
 40
0.0
  9
$WORLDVIEW
 70
     1
  9
$SHADEDGE
 70
     3
  9
$SHADEDIF
 70
    70
  9
$TILEMODE
 70
     1
  9
$MAXACTVP
 70
    64
  9
$PINSBASE
 10
0.0
 20
0.0
 30
0.0
  9
$PLIMCHECK
 70
     0
  9
$PEXTMIN
 10
1.000000000000000E+20
 20
1.000000000000000E+20
 30
1.000000000000000E+20
  9
$PEXTMAX
 10
-1.000000000000000E+20
 20
-1.000000000000000E+20
 30
-1.000000000000000E+20
  9
$PLIMMIN
 10
0.0
 20
0.0
  9
$PLIMMAX
 10
12.0
 20
9.0
  9
$UNITMODE
 70
     0
  9
$VISRETAIN
 70
     1
  9
$PLINEGEN
 70
     0
  9
$PSLTSCALE
 70
     1
  9
$TREEDEPTH
 70
  3020
  9
$CMLSTYLE
  2
Standard
  9
$CMLJUST
 70
     0
  9
$CMLSCALE
 40
1.0
  9
$PROXYGRAPHICS
 70
     1
  9
$MEASUREMENT
 70
     0
  9
$CELWEIGHT
370
    -1
  9
$ENDCAPS
280
     0
  9
$JOINSTYLE
280
     0
  9
$LWDISPLAY
290
     1
  9
$INSUNITS
 70
     1
  9
$HYPERLINKBASE
  1

  9
$STYLESHEET
  1

  9
$XEDIT
290
     1
  9
$CEPSNTYPE
380
     0
  9
$PSTYLEMODE
290
     1
  9
$FINGERPRINTGUID
  2
{EDADD622-C19A-4B06-A3F4-2B84BBD4ED0B}
  9
$VERSIONGUID
  2
{FAEB1C32-E019-11D5-929B-00C0DF256EC4}
  9
$EXTNAMES
290
     1
  9
$PSVPSCALE
 40
0.0
  9
$OLESTARTUP
290
     0
  9
$SORTENTS
280
   127
  9
$INDEXCTL
280
     0
  9
$HIDETEXT
280
     1
  9
$XCLIPFRAME
280
     2
  9
$HALOGAP
280
     0
  9
$OBSCOLOR
 70
   257
  9
$OBSLTYPE
280
     0
  9
$INTERSECTIONDISPLAY
280
     0
  9
$INTERSECTIONCOLOR
 70
   257
  9
$DIMASSOC
280
     2
  9
$PROJECTNAME
  1

  9
$CAMERADISPLAY
290
     0
  9
$LENSLENGTH
 40
50.0
  9
$CAMERAHEIGHT
 40
0.0
  9
$STEPSPERSEC
 40
2.0
  9
$STEPSIZE
 40
6.0
  9
$3DDWFPREC
 40
2.0
  9
$PSOLWIDTH
 40
0.25
  9
$PSOLHEIGHT
 40
4.0
  9
$LOFTANG1
 40
1.570796326794897
  9
$LOFTANG2
 40
1.570796326794897
  9
$LOFTMAG1
 40
0.0
  9
$LOFTMAG2
 40
0.0
  9
$LOFTPARAM
 70
     7
  9
$LOFTNORMALS
280
     1
  9
$LATITUDE
 40
37.795
  9
$LONGITUDE
 40
-122.394
  9
$NORTHDIRECTION
 40
0.0
  9
$TIMEZONE
 70
 -8000
  9
$LIGHTGLYPHDISPLAY
280
     1
  9
$TILEMODELIGHTSYNCH
280
     1
  9
$CMATERIAL
347
3C
  9
$SOLIDHIST
280
     1
  9
$SHOWHIST
280
     1
  9
$DWFFRAME
280
     2
  9
$DGNFRAME
280
     2
  9
$REALWORLDSCALE
290
     1
  9
$INTERFERECOLOR
 62
   256
  9
$CSHADOW
280
     0
  9
$SHADOWPLANELOCATION
 40
0.0
  0
ENDSEC
  0
SECTION
  2
CLASSES
  0
CLASS
  1
ACDBDICTIONARYWDFLT
  2
AcDbDictionaryWithDefault
  3
ObjectDBX Classes
 90
        0
 91
        4
280
     0
281
     0
  0
CLASS
  1
VISUALSTYLE
  2
AcDbVisualStyle
  3
ObjectDBX Classes
 90
     4095
 91
        4
280
     0
281
     0
  0
CLASS
  1
MATERIAL
  2
AcDbMaterial
  3
ObjectDBX Classes
 90
     1153
 91
        4
280
     0
281
     0
  0
CLASS
  1
SUN
  2
AcDbSun
  3
SCENEOE
 90
     1024
 91
        4
280
     0
281
     0
  0
ENDSEC
  0
SECTION
  2
TABLES
  0
TABLE
  2
VPORT
  5
8
330
0
100
AcDbSymbolTable
 70
     1
  0
VPORT
  5
29
330
8
100
AcDbSymbolTableRecord
100
AcDbViewportTableRecord
  2
*Active
 70
     0
 10
0.0
 20
0.0
 11
1.0
 21
1.0
 12
0.0
 22
0.0
 13
0.0
 23
0.0
 14
0.5
 24
0.5
 15
0.5
 25
0.5
 16
0.0
 26
0.0
 36
1.0
 17
290.7999999273
 27
-111.2222221944177
 37
0.0
 40
219.999999945
 41
2.636363636363637
 42
50.0
 43
0.0
 44
0.0
 50
0.0
 51
0.0
 71
     0
 72
   100
 73
     1
 74
     3
 75
     0
 76
     0
 77
     0
 78
     0
281
     0
 65
     1
110
0.0
120
0.0
130
0.0
111
1.0
121
0.0
131
0.0
112
0.0
122
1.0
132
0.0
 79
     0
146
0.0
 60
     3
 61
     5
292
     1
282
     1
141
0.0
142
0.0
 63
   250
361
3F
  0
ENDTAB
  0
TABLE
  2
LTYPE
  5
5
330
0
100
AcDbSymbolTable
 70
     1
  0
LTYPE
  5
14
330
5
100
AcDbSymbolTableRecord
100
AcDbLinetypeTableRecord
  2
ByBlock
 70
     0
  3

 72
    65
 73
     0
 40
0.0
  0
LTYPE
  5
15
330
5
100
AcDbSymbolTableRecord
100
AcDbLinetypeTableRecord
  2
ByLayer
 70
     0
  3

 72
    65
 73
     0
 40
0.0
  0
LTYPE
  5
16
330
5
100
AcDbSymbolTableRecord
100
AcDbLinetypeTableRecord
  2
Continuous
 70
     0
  3
Solid line
 72
    65
 73
     0
 40
0.0
  0
ENDTAB
  0
TABLE
  2
LAYER
  5
2
330
0
100
AcDbSymbolTable
 70
     2
  0
LAYER
  5
10
330
2
100
AcDbSymbolTableRecord
100
AcDbLayerTableRecord
  2
0
 70
     0
 62
     7
  6
Continuous
370
    -3
390
F
347
3E
  0
LAYER
  5
40
330
2
100
AcDbSymbolTableRecord
100
AcDbLayerTableRecord
  2
OneHexagon
 70
     0
 62
     7
  6
Continuous
370
    -3
390
F
347
3E
  0
ENDTAB
  0
TABLE
  2
STYLE
  5
3
330
0
100
AcDbSymbolTable
 70
     1
  0
STYLE
  5
11
330
3
100
AcDbSymbolTableRecord
100
AcDbTextStyleTableRecord
  2
Standard
 70
     0
 40
0.0
 41
1.0
 50
0.0
 71
     0
 42
0.2
  3
txt
  4

  0
ENDTAB
  0
TABLE
  2
VIEW
  5
6
330
0
100
AcDbSymbolTable
 70
     0
  0
ENDTAB
  0
TABLE
  2
UCS
  5
7
330
0
100
AcDbSymbolTable
 70
     0
  0
ENDTAB
  0
TABLE
  2
APPID
  5
9
330
0
100
AcDbSymbolTable
 70
     1
  0
APPID
  5
12
330
9
100
AcDbSymbolTableRecord
100
AcDbRegAppTableRecord
  2
ACAD
 70
     0
  0
ENDTAB
  0
TABLE
  2
DIMSTYLE
  5
A
330
0
100
AcDbSymbolTable
 70
     1
100
AcDbDimStyleTable
  0
DIMSTYLE
105
27
330
A
100
AcDbSymbolTableRecord
100
AcDbDimStyleTableRecord
  2
Standard
 70
     0
178
     0
340
11
  0
ENDTAB
  0
TABLE
  2
BLOCK_RECORD
  5
1
330
0
100
AcDbSymbolTable
 70
     1
  0
BLOCK_RECORD
  5
1F
330
1
100
AcDbSymbolTableRecord
100
AcDbBlockTableRecord
  2
*Model_Space
340
22
 70
     0
280
     1
281
     0
  0
BLOCK_RECORD
  5
1B
330
1
100
AcDbSymbolTableRecord
100
AcDbBlockTableRecord
  2
*Paper_Space
340
1E
 70
     0
280
     1
281
     0
  0
BLOCK_RECORD
  5
23
330
1
100
AcDbSymbolTableRecord
100
AcDbBlockTableRecord
  2
*Paper_Space0
340
26
 70
     0
280
     1
281
     0
  0
ENDTAB
  0
ENDSEC
  0
SECTION
  2
BLOCKS
  0
BLOCK
  5
20
330
1F
100
AcDbEntity
  8
0
100
AcDbBlockBegin
  2
*Model_Space
 70
     0
 10
0.0
 20
0.0
 30
0.0
  3
*Model_Space
  1

  0
ENDBLK
  5
21
330
1F
100
AcDbEntity
  8
0
100
AcDbBlockEnd
  0
BLOCK
  5
1C
330
1B
100
AcDbEntity
 67
     1
  8
0
100
AcDbBlockBegin
  2
*Paper_Space
 70
     0
 10
0.0
 20
0.0
 30
0.0
  3
*Paper_Space
  1

  0
ENDBLK
  5
1D
330
1B
100
AcDbEntity
 67
     1
  8
0
100
AcDbBlockEnd
  0
BLOCK
  5
24
330
23
100
AcDbEntity
  8
0
100
AcDbBlockBegin
  2
*Paper_Space0
 70
     0
 10
0.0
 20
0.0
 30
0.0
  3
*Paper_Space0
  1

  0
ENDBLK
  5
25
330
23
100
AcDbEntity
  8
0
100
AcDbBlockEnd
  0
ENDSEC
  0
SECTION
  2
ENTITIES
  0
SPLINE
  5
41
330
1F
100
AcDbEntity
  8
OneHexagon
 62
     7
420
 16777215
370
    35
100
AcDbSpline
210
0.0
220
0.0
230
1.0
 70
    27
 71
     3
 72
    11
 73
     7
 74
     0
 42
0.0000000001
 43
0.0000000001
 12
1.0
 22
0.0
 32
0.0
 13
1.0
 23
0.0
 33
0.0
 40
0.0
 40
0.0
 40
0.0
 40
0.0
 40
1.0
 40
1.0
 40
1.0
 40
2.0
 40
2.0
 40
2.0
 40
2.0
 10
20.15307902196415
 20
-39.87177356403102
 30
0.0
 10
20.15307902196415
 20
-39.87177356403102
 30
0.0
 10
25.79752491959413
 20
-30.09531352751045
 30
0.0
 10
25.79752491959413
 20
-30.09531352751045
 30
0.0
 10
25.79752491959413
 20
-30.09531352751045
 30
0.0
 10
20.15307902196415
 20
-39.87177356403102
 30
0.0
 10
20.15307902196415
 20
-39.87177356403102
 30
0.0
  0
POLYLINE
  5
42
330
1F
100
AcDbEntity
  8
OneHexagon
 62
     7
420
 16777215
370
    35
100
AcDb2dPolyline
 66
     1
 10
0.0
 20
0.0
 30
0.0
  0
VERTEX
  5
43
330
42
100
AcDbEntity
  8
OneHexagon
 62
     7
420
 16777215
370
    35
100
AcDbVertex
100
AcDb2dVertex
 10
36.70555208771776
 20
-1.999996778200206
 30
0.0
  0
VERTEX
  5
44
330
42
100
AcDbEntity
  8
OneHexagon
 62
     7
420
 16777215
370
    35
100
AcDbVertex
100
AcDb2dVertex
 10
50.9512415192165
 20
-26.75425906491226
 30
0.0
  0
SEQEND
  5
45
330
42
100
AcDbEntity
  8
OneHexagon
 62
     7
420
 16777215
370
    35
  0
POLYLINE
  5
46
330
1F
100
AcDbEntity
  8
OneHexagon
 62
     7
420
 16777215
370
    35
100
AcDb2dPolyline
 66
     1
 10
0.0
 20
0.0
 30
0.0
  0
VERTEX
  5
47
330
46
100
AcDbEntity
  8
OneHexagon
 62
     7
420
 16777215
370
    35
100
AcDbVertex
100
AcDb2dVertex
 10
42.35000720844054
 20
-62.0600032057848
 30
0.0
  0
VERTEX
  5
48
330
46
100
AcDbEntity
  8
OneHexagon
 62
     7
420
 16777215
370
    35
100
AcDbVertex
100
AcDb2dVertex
 10
71.30555553772884
 20
-62.0600032057848
 30
0.0
  0
VERTEX
  5
49
330
46
100
AcDbEntity
  8
OneHexagon
 62
     7
420
 16777215
370
    35
100
AcDbVertex
100
AcDb2dVertex
 10
56.59568741684615
 20
-36.53071910143252
 30
0.0
  0
SEQEND
  5
4A
330
46
100
AcDbEntity
  8
OneHexagon
 62
     7
420
 16777215
370
    35
  0
POLYLINE
  5
4B
330
1F
100
AcDbEntity
  8
OneHexagon
 62
     7
420
 16777215
370
    35
100
AcDb2dPolyline
 66
     1
 10
0.0
 20
0.0
 30
0.0
  0
VERTEX
  5
4C
330
4B
100
AcDbEntity
  8
OneHexagon
 62
     7
420
 16777215
370
    35
100
AcDbVertex
100
AcDb2dVertex
 10
16.20310377542697
 20
-37.59125756891703
 30
0.0
  0
VERTEX
  5
4D
330
4B
100
AcDbEntity
  8
OneHexagon
 62
     7
420
 16777215
370
    35
100
AcDbVertex
100
AcDb2dVertex
 10
2.105555555029169
 20
-62.0600032057848
 30
0.0
  0
VERTEX
  5
4E
330
4B
100
AcDbEntity
  8
OneHexagon
 62
     7
420
 16777215
370
    35
100
AcDbVertex
100
AcDb2dVertex
 10
31.06111541318155
 20
-62.0600032057848
 30
0.0
  0
SEQEND
  5
4F
330
4B
100
AcDbEntity
  8
OneHexagon
 62
     7
420
 16777215
370
    35
  0
POLYLINE
  5
50
330
1F
100
AcDbEntity
  8
OneHexagon
 62
     7
420
 16777215
370
    35
100
AcDb2dPolyline
 66
     1
 10
0.0
 20
0.0
 30
0.0
  0
VERTEX
  5
51
330
50
100
AcDbEntity
  8
OneHexagon
 62
     7
420
 16777215
370
    35
100
AcDbVertex
100
AcDb2dVertex
 10
21.84754967305663
 20
-27.81479753239645
 30
0.0
  0
VERTEX
  5
52
330
50
100
AcDbEntity
  8
OneHexagon
 62
     7
420
 16777215
370
    35
100
AcDbVertex
100
AcDb2dVertex
 10
36.7055520877184
 20
-1.999996778200206
 30
0.0
  0
SEQEND
  5
53
330
50
100
AcDbEntity
  8
OneHexagon
 62
     7
420
 16777215
370
    35
  0
SPLINE
  5
54
330
1F
100
AcDbEntity
  8
OneHexagon
 62
     7
420
 16777215
370
    35
100
AcDbSpline
210
0.0
220
0.0
230
1.0
 70
    27
 71
     3
 72
    11
 73
     7
 74
     0
 42
0.0000000001
 43
0.0000000001
 12
1.0
 22
0.0
 32
0.0
 13
1.0
 23
0.0
 33
0.0
 40
0.0
 40
0.0
 40
0.0
 40
0.0
 40
1.0
 40
1.0
 40
1.0
 40
2.0
 40
2.0
 40
2.0
 40
2.0
 10
46.696237439808
 20
-29.21088838661742
 30
0.0
 10
46.696237439808
 20
-29.21088838661742
 30
0.0
 10
52.34068333743733
 20
-38.98734842313799
 30
0.0
 10
52.34068333743733
 20
-38.98734842313799
 30
0.0
 10
52.34068333743733
 20
-38.98734842313799
 30
0.0
 10
46.696237439808
 20
-29.21088838661742
 30
0.0
 10
46.696237439808
 20
-29.21088838661742
 30
0.0
  0
POLYLINE
  5
55
330
1F
100
AcDbEntity
  8
OneHexagon
 62
     7
420
 16777215
370
    35
100
AcDb2dPolyline
 66
     1
 10
0.0
 20
0.0
 30
0.0
  0
VERTEX
  5
56
330
55
100
AcDbEntity
  8
OneHexagon
 62
     7
420
 16777215
370
    35
100
AcDbVertex
100
AcDb2dVertex
 10
2.105555555029169
 20
-62.0600032057848
 30
0.0
  0
VERTEX
  5
57
330
55
100
AcDbEntity
  8
OneHexagon
 62
     7
420
 16777215
370
    35
100
AcDbVertex
100
AcDb2dVertex
 10
36.70555554637932
 20
-82.00000320079995
 30
0.0
  0
VERTEX
  5
58
330
55
100
AcDbEntity
  8
OneHexagon
 62
     7
420
 16777215
370
    35
100
AcDbVertex
100
AcDb2dVertex
 10
71.30555553772884
 20
-62.0600032057848
 30
0.0
  0
VERTEX
  5
59
330
55
100
AcDbEntity
  8
OneHexagon
 62
     7
420
 16777215
370
    35
100
AcDbVertex
100
AcDb2dVertex
 10
71.19583331553436
 20
-21.80972543806967
 30
0.0
  0
VERTEX
  5
5A
330
55
100
AcDbEntity
  8
OneHexagon
 62
     7
420
 16777215
370
    35
100
AcDbVertex
100
AcDb2dVertex
 10
36.70555554637932
 20
-2.000003220799847
 30
0.0
  0
VERTEX
  5
5B
330
55
100
AcDbEntity
  8
OneHexagon
 62
     7
420
 16777215
370
    35
100
AcDbVertex
100
AcDb2dVertex
 10
2.105555555029169
 20
-21.80972543806967
 30
0.0
  0
VERTEX
  5
5C
330
55
100
AcDbEntity
  8
OneHexagon
 62
     7
420
 16777215
370
    35
100
AcDbVertex
100
AcDb2dVertex
 10
2.105555555029169
 20
-62.0600032057848
 30
0.0
  0
SEQEND
  5
5D
330
55
100
AcDbEntity
  8
OneHexagon
 62
     7
420
 16777215
370
    35
  0
SPLINE
  5
5E
330
1F
100
AcDbEntity
  8
OneHexagon
 62
     7
420
 16777215
370
    35
100
AcDbSpline
210
0.0
220
0.0
230
1.0
 70
    27
 71
     3
 72
    11
 73
     7
 74
     0
 42
0.0000000001
 43
0.0000000001
 12
1.0
 22
0.0
 32
0.0
 13
1.0
 23
0.0
 33
0.0
 40
0.0
 40
0.0
 40
0.0
 40
0.0
 40
1.0
 40
1.0
 40
1.0
 40
2.0
 40
2.0
 40
2.0
 40
2.0
 10
94.11363455902878
 20
-39.87177356403102
 30
0.0
 10
94.11363455902878
 20
-39.87177356403102
 30
0.0
 10
99.75808045665876
 20
-30.09531352751045
 30
0.0
 10
99.75808045665876
 20
-30.09531352751045
 30
0.0
 10
99.75808045665876
 20
-30.09531352751045
 30
0.0
 10
94.11363455902878
 20
-39.87177356403102
 30
0.0
 10
94.11363455902878
 20
-39.87177356403102
 30
0.0
  0
POLYLINE
  5
5F
330
1F
100
AcDbEntity
  8
OneHexagon
 62
     7
420
 16777215
370
    35
100
AcDb2dPolyline
 66
     1
 10
0.0
 20
0.0
 30
0.0
  0
VERTEX
  5
60
330
5F
100
AcDbEntity
  8
OneHexagon
 62
     7
420
 16777215
370
    35
100
AcDbVertex
100
AcDb2dVertex
 10
110.6661076247824
 20
-1.999996778200206
 30
0.0
  0
VERTEX
  5
61
330
5F
100
AcDbEntity
  8
OneHexagon
 62
     7
420
 16777215
370
    35
100
AcDbVertex
100
AcDb2dVertex
 10
124.9117970562811
 20
-26.75425906491226
 30
0.0
  0
SEQEND
  5
62
330
5F
100
AcDbEntity
  8
OneHexagon
 62
     7
420
 16777215
370
    35
  0
POLYLINE
  5
63
330
1F
100
AcDbEntity
  8
OneHexagon
 62
     7
420
 16777215
370
    35
100
AcDb2dPolyline
 66
     1
 10
0.0
 20
0.0
 30
0.0
  0
VERTEX
  5
64
330
63
100
AcDbEntity
  8
OneHexagon
 62
     7
420
 16777215
370
    35
100
AcDbVertex
100
AcDb2dVertex
 10
116.3105627455055
 20
-62.0600032057848
 30
0.0
  0
VERTEX
  5
65
330
63
100
AcDbEntity
  8
OneHexagon
 62
     7
420
 16777215
370
    35
100
AcDbVertex
100
AcDb2dVertex
 10
145.2661110747938
 20
-62.0600032057848
 30
0.0
  0
VERTEX
  5
66
330
63
100
AcDbEntity
  8
OneHexagon
 62
     7
420
 16777215
370
    35
100
AcDbVertex
100
AcDb2dVertex
 10
130.5562429539108
 20
-36.53071910143252
 30
0.0
  0
SEQEND
  5
67
330
63
100
AcDbEntity
  8
OneHexagon
 62
     7
420
 16777215
370
    35
  0
POLYLINE
  5
68
330
1F
100
AcDbEntity
  8
OneHexagon
 62
     7
420
 16777215
370
    35
100
AcDb2dPolyline
 66
     1
 10
0.0
 20
0.0
 30
0.0
  0
VERTEX
  5
69
330
68
100
AcDbEntity
  8
OneHexagon
 62
     7
420
 16777215
370
    35
100
AcDbVertex
100
AcDb2dVertex
 10
90.16365931249128
 20
-37.59125756891703
 30
0.0
  0
VERTEX
  5
6A
330
68
100
AcDbEntity
  8
OneHexagon
 62
     7
420
 16777215
370
    35
100
AcDbVertex
100
AcDb2dVertex
 10
76.0661110920938
 20
-62.0600032057848
 30
0.0
  0
VERTEX
  5
6B
330
68
100
AcDbEntity
  8
OneHexagon
 62
     7
420
 16777215
370
    35
100
AcDbVertex
100
AcDb2dVertex
 10
105.0216709502462
 20
-62.0600032057848
 30
0.0
  0
SEQEND
  5
6C
330
68
100
AcDbEntity
  8
OneHexagon
 62
     7
420
 16777215
370
    35
  0
POLYLINE
  5
6D
330
1F
100
AcDbEntity
  8
OneHexagon
 62
     7
420
 16777215
370
    35
100
AcDb2dPolyline
 66
     1
 10
0.0
 20
0.0
 30
0.0
  0
VERTEX
  5
6E
330
6D
100
AcDbEntity
  8
OneHexagon
 62
     7
420
 16777215
370
    35
100
AcDbVertex
100
AcDb2dVertex
 10
95.80810521012125
 20
-27.81479753239645
 30
0.0
  0
VERTEX
  5
6F
330
6D
100
AcDbEntity
  8
OneHexagon
 62
     7
420
 16777215
370
    35
100
AcDbVertex
100
AcDb2dVertex
 10
110.6661076247827
 20
-1.999996778200206
 30
0.0
  0
SEQEND
  5
70
330
6D
100
AcDbEntity
  8
OneHexagon
 62
     7
420
 16777215
370
    35
  0
SPLINE
  5
71
330
1F
100
AcDbEntity
  8
OneHexagon
 62
     7
420
 16777215
370
    35
100
AcDbSpline
210
0.0
220
0.0
230
1.0
 70
    27
 71
     3
 72
    11
 73
     7
 74
     0
 42
0.0000000001
 43
0.0000000001
 12
1.0
 22
0.0
 32
0.0
 13
1.0
 23
0.0
 33
0.0
 40
0.0
 40
0.0
 40
0.0
 40
0.0
 40
1.0
 40
1.0
 40
1.0
 40
2.0
 40
2.0
 40
2.0
 40
2.0
 10
120.6567929768726
 20
-29.21088838661742
 30
0.0
 10
120.6567929768726
 20
-29.21088838661742
 30
0.0
 10
126.301238874502
 20
-38.98734842313799
 30
0.0
 10
126.301238874502
 20
-38.98734842313799
 30
0.0
 10
126.301238874502
 20
-38.98734842313799
 30
0.0
 10
120.6567929768726
 20
-29.21088838661742
 30
0.0
 10
120.6567929768726
 20
-29.21088838661742
 30
0.0
  0
POLYLINE
  5
72
330
1F
100
AcDbEntity
  8
OneHexagon
 62
     7
420
 16777215
370
    35
100
AcDb2dPolyline
 66
     1
 10
0.0
 20
0.0
 30
0.0
  0
VERTEX
  5
73
330
72
100
AcDbEntity
  8
OneHexagon
 62
     7
420
 16777215
370
    35
100
AcDbVertex
100
AcDb2dVertex
 10
76.0661110920938
 20
-62.0600032057848
 30
0.0
  0
VERTEX
  5
74
330
72
100
AcDbEntity
  8
OneHexagon
 62
     7
420
 16777215
370
    35
100
AcDbVertex
100
AcDb2dVertex
 10
110.666111083444
 20
-82.00000320079995
 30
0.0
  0
VERTEX
  5
75
330
72
100
AcDbEntity
  8
OneHexagon
 62
     7
420
 16777215
370
    35
100
AcDbVertex
100
AcDb2dVertex
 10
145.2661110747938
 20
-62.0600032057848
 30
0.0
  0
VERTEX
  5
76
330
72
100
AcDbEntity
  8
OneHexagon
 62
     7
420
 16777215
370
    35
100
AcDbVertex
100
AcDb2dVertex
 10
145.156388852599
 20
-21.80972543806967
 30
0.0
  0
VERTEX
  5
77
330
72
100
AcDbEntity
  8
OneHexagon
 62
     7
420
 16777215
370
    35
100
AcDbVertex
100
AcDb2dVertex
 10
110.666111083444
 20
-2.000003220799847
 30
0.0
  0
VERTEX
  5
78
330
72
100
AcDbEntity
  8
OneHexagon
 62
     7
420
 16777215
370
    35
100
AcDbVertex
100
AcDb2dVertex
 10
76.0661110920938
 20
-21.80972543806967
 30
0.0
  0
VERTEX
  5
79
330
72
100
AcDbEntity
  8
OneHexagon
 62
     7
420
 16777215
370
    35
100
AcDbVertex
100
AcDb2dVertex
 10
76.0661110920938
 20
-62.0600032057848
 30
0.0
  0
SEQEND
  5
7A
330
72
100
AcDbEntity
  8
OneHexagon
 62
     7
420
 16777215
370
    35
  0
SPLINE
  5
7B
330
1F
100
AcDbEntity
  8
OneHexagon
 62
     7
420
 16777215
370
    35
100
AcDbSpline
210
0.0
220
0.0
230
1.0
 70
    27
 71
     3
 72
    11
 73
     7
 74
     0
 42
0.0000000001
 43
0.0000000001
 12
1.0
 22
0.0
 32
0.0
 13
1.0
 23
0.0
 33
0.0
 40
0.0
 40
0.0
 40
0.0
 40
0.0
 40
1.0
 40
1.0
 40
1.0
 40
2.0
 40
2.0
 40
2.0
 40
2.0
 10
168.0741900960937
 20
-39.87177356403102
 30
0.0
 10
168.0741900960937
 20
-39.87177356403102
 30
0.0
 10
173.7186359937237
 20
-30.09531352751045
 30
0.0
 10
173.7186359937237
 20
-30.09531352751045
 30
0.0
 10
173.7186359937237
 20
-30.09531352751045
 30
0.0
 10
168.0741900960937
 20
-39.87177356403102
 30
0.0
 10
168.0741900960937
 20
-39.87177356403102
 30
0.0
  0
POLYLINE
  5
7C
330
1F
100
AcDbEntity
  8
OneHexagon
 62
     7
420
 16777215
370
    35
100
AcDb2dPolyline
 66
     1
 10
0.0
 20
0.0
 30
0.0
  0
VERTEX
  5
7D
330
7C
100
AcDbEntity
  8
OneHexagon
 62
     7
420
 16777215
370
    35
100
AcDbVertex
100
AcDb2dVertex
 10
184.6266631618473
 20
-1.999996778200206
 30
0.0
  0
VERTEX
  5
7E
330
7C
100
AcDbEntity
  8
OneHexagon
 62
     7
420
 16777215
370
    35
100
AcDbVertex
100
AcDb2dVertex
 10
198.8723525933461
 20
-26.75425906491226
 30
0.0
  0
SEQEND
  5
7F
330
7C
100
AcDbEntity
  8
OneHexagon
 62
     7
420
 16777215
370
    35
  0
POLYLINE
  5
80
330
1F
100
AcDbEntity
  8
OneHexagon
 62
     7
420
 16777215
370
    35
100
AcDb2dPolyline
 66
     1
 10
0.0
 20
0.0
 30
0.0
  0
VERTEX
  5
81
330
80
100
AcDbEntity
  8
OneHexagon
 62
     7
420
 16777215
370
    35
100
AcDbVertex
100
AcDb2dVertex
 10
190.2711182825701
 20
-62.0600032057848
 30
0.0
  0
VERTEX
  5
82
330
80
100
AcDbEntity
  8
OneHexagon
 62
     7
420
 16777215
370
    35
100
AcDbVertex
100
AcDb2dVertex
 10
219.2266666118591
 20
-62.0600032057848
 30
0.0
  0
VERTEX
  5
83
330
80
100
AcDbEntity
  8
OneHexagon
 62
     7
420
 16777215
370
    35
100
AcDbVertex
100
AcDb2dVertex
 10
204.5167984909757
 20
-36.53071910143252
 30
0.0
  0
SEQEND
  5
84
330
80
100
AcDbEntity
  8
OneHexagon
 62
     7
420
 16777215
370
    35
  0
POLYLINE
  5
85
330
1F
100
AcDbEntity
  8
OneHexagon
 62
     7
420
 16777215
370
    35
100
AcDb2dPolyline
 66
     1
 10
0.0
 20
0.0
 30
0.0
  0
VERTEX
  5
86
330
85
100
AcDbEntity
  8
OneHexagon
 62
     7
420
 16777215
370
    35
100
AcDbVertex
100
AcDb2dVertex
 10
164.1242148495566
 20
-37.59125756891703
 30
0.0
  0
VERTEX
  5
87
330
85
100
AcDbEntity
  8
OneHexagon
 62
     7
420
 16777215
370
    35
100
AcDbVertex
100
AcDb2dVertex
 10
150.0266666291587
 20
-62.0600032057848
 30
0.0
  0
VERTEX
  5
88
330
85
100
AcDbEntity
  8
OneHexagon
 62
     7
420
 16777215
370
    35
100
AcDbVertex
100
AcDb2dVertex
 10
178.9822264873108
 20
-62.0600032057848
 30
0.0
  0
SEQEND
  5
89
330
85
100
AcDbEntity
  8
OneHexagon
 62
     7
420
 16777215
370
    35
  0
POLYLINE
  5
8A
330
1F
100
AcDbEntity
  8
OneHexagon
 62
     7
420
 16777215
370
    35
100
AcDb2dPolyline
 66
     1
 10
0.0
 20
0.0
 30
0.0
  0
VERTEX
  5
8B
330
8A
100
AcDbEntity
  8
OneHexagon
 62
     7
420
 16777215
370
    35
100
AcDbVertex
100
AcDb2dVertex
 10
169.7686607471862
 20
-27.81479753239645
 30
0.0
  0
VERTEX
  5
8C
330
8A
100
AcDbEntity
  8
OneHexagon
 62
     7
420
 16777215
370
    35
100
AcDbVertex
100
AcDb2dVertex
 10
184.6266631618477
 20
-1.999996778200206
 30
0.0
  0
SEQEND
  5
8D
330
8A
100
AcDbEntity
  8
OneHexagon
 62
     7
420
 16777215
370
    35
  0
SPLINE
  5
8E
330
1F
100
AcDbEntity
  8
OneHexagon
 62
     7
420
 16777215
370
    35
100
AcDbSpline
210
0.0
220
0.0
230
1.0
 70
    27
 71
     3
 72
    11
 73
     7
 74
     0
 42
0.0000000001
 43
0.0000000001
 12
1.0
 22
0.0
 32
0.0
 13
1.0
 23
0.0
 33
0.0
 40
0.0
 40
0.0
 40
0.0
 40
0.0
 40
1.0
 40
1.0
 40
1.0
 40
2.0
 40
2.0
 40
2.0
 40
2.0
 10
194.6173485139376
 20
-29.21088838661742
 30
0.0
 10
194.6173485139376
 20
-29.21088838661742
 30
0.0
 10
200.2617944115669
 20
-38.98734842313799
 30
0.0
 10
200.2617944115669
 20
-38.98734842313799
 30
0.0
 10
200.2617944115669
 20
-38.98734842313799
 30
0.0
 10
194.6173485139376
 20
-29.21088838661742
 30
0.0
 10
194.6173485139376
 20
-29.21088838661742
 30
0.0
  0
POLYLINE
  5
8F
330
1F
100
AcDbEntity
  8
OneHexagon
 62
     7
420
 16777215
370
    35
100
AcDb2dPolyline
 66
     1
 10
0.0
 20
0.0
 30
0.0
  0
VERTEX
  5
90
330
8F
100
AcDbEntity
  8
OneHexagon
 62
     7
420
 16777215
370
    35
100
AcDbVertex
100
AcDb2dVertex
 10
150.0266666291587
 20
-62.0600032057848
 30
0.0
  0
VERTEX
  5
91
330
8F
100
AcDbEntity
  8
OneHexagon
 62
     7
420
 16777215
370
    35
100
AcDbVertex
100
AcDb2dVertex
 10
184.6266666205089
 20
-82.00000320079995
 30
0.0
  0
VERTEX
  5
92
330
8F
100
AcDbEntity
  8
OneHexagon
 62
     7
420
 16777215
370
    35
100
AcDbVertex
100
AcDb2dVertex
 10
219.2266666118591
 20
-62.0600032057848
 30
0.0
  0
VERTEX
  5
93
330
8F
100
AcDbEntity
  8
OneHexagon
 62
     7
420
 16777215
370
    35
100
AcDbVertex
100
AcDb2dVertex
 10
219.1169443896639
 20
-21.80972543806967
 30
0.0
  0
VERTEX
  5
94
330
8F
100
AcDbEntity
  8
OneHexagon
 62
     7
420
 16777215
370
    35
100
AcDbVertex
100
AcDb2dVertex
 10
184.6266666205089
 20
-2.000003220799847
 30
0.0
  0
VERTEX
  5
95
330
8F
100
AcDbEntity
  8
OneHexagon
 62
     7
420
 16777215
370
    35
100
AcDbVertex
100
AcDb2dVertex
 10
150.0266666291587
 20
-21.80972543806967
 30
0.0
  0
VERTEX
  5
96
330
8F
100
AcDbEntity
  8
OneHexagon
 62
     7
420
 16777215
370
    35
100
AcDbVertex
100
AcDb2dVertex
 10
150.0266666291587
 20
-62.0600032057848
 30
0.0
  0
SEQEND
  5
97
330
8F
100
AcDbEntity
  8
OneHexagon
 62
     7
420
 16777215
370
    35
  0
SPLINE
  5
98
330
1F
100
AcDbEntity
  8
OneHexagon
 62
     7
420
 16777215
370
    35
100
AcDbSpline
210
0.0
220
0.0
230
1.0
 70
    27
 71
     3
 72
    11
 73
     7
 74
     0
 42
0.0000000001
 43
0.0000000001
 12
1.0
 22
0.0
 32
0.0
 13
1.0
 23
0.0
 33
0.0
 40
0.0
 40
0.0
 40
0.0
 40
0.0
 40
1.0
 40
1.0
 40
1.0
 40
2.0
 40
2.0
 40
2.0
 40
2.0
 10
242.034745633159
 20
-39.87177356403102
 30
0.0
 10
242.034745633159
 20
-39.87177356403102
 30
0.0
 10
247.6791915307893
 20
-30.09531352751045
 30
0.0
 10
247.6791915307893
 20
-30.09531352751045
 30
0.0
 10
247.6791915307893
 20
-30.09531352751045
 30
0.0
 10
242.034745633159
 20
-39.87177356403102
 30
0.0
 10
242.034745633159
 20
-39.87177356403102
 30
0.0
  0
POLYLINE
  5
99
330
1F
100
AcDbEntity
  8
OneHexagon
 62
     7
420
 16777215
370
    35
100
AcDb2dPolyline
 66
     1
 10
0.0
 20
0.0
 30
0.0
  0
VERTEX
  5
9A
330
99
100
AcDbEntity
  8
OneHexagon
 62
     7
420
 16777215
370
    35
100
AcDbVertex
100
AcDb2dVertex
 10
258.5872186989123
 20
-1.999996778200206
 30
0.0
  0
VERTEX
  5
9B
330
99
100
AcDbEntity
  8
OneHexagon
 62
     7
420
 16777215
370
    35
100
AcDbVertex
100
AcDb2dVertex
 10
272.8329081304113
 20
-26.75425906491226
 30
0.0
  0
SEQEND
  5
9C
330
99
100
AcDbEntity
  8
OneHexagon
 62
     7
420
 16777215
370
    35
  0
POLYLINE
  5
9D
330
1F
100
AcDbEntity
  8
OneHexagon
 62
     7
420
 16777215
370
    35
100
AcDb2dPolyline
 66
     1
 10
0.0
 20
0.0
 30
0.0
  0
VERTEX
  5
9E
330
9D
100
AcDbEntity
  8
OneHexagon
 62
     7
420
 16777215
370
    35
100
AcDbVertex
100
AcDb2dVertex
 10
264.2316738196354
 20
-62.0600032057848
 30
0.0
  0
VERTEX
  5
9F
330
9D
100
AcDbEntity
  8
OneHexagon
 62
     7
420
 16777215
370
    35
100
AcDbVertex
100
AcDb2dVertex
 10
293.1872221489243
 20
-62.0600032057848
 30
0.0
  0
VERTEX
  5
A0
330
9D
100
AcDbEntity
  8
OneHexagon
 62
     7
420
 16777215
370
    35
100
AcDbVertex
100
AcDb2dVertex
 10
278.477354028041
 20
-36.53071910143252
 30
0.0
  0
SEQEND
  5
A1
330
9D
100
AcDbEntity
  8
OneHexagon
 62
     7
420
 16777215
370
    35
  0
POLYLINE
  5
A2
330
1F
100
AcDbEntity
  8
OneHexagon
 62
     7
420
 16777215
370
    35
100
AcDb2dPolyline
 66
     1
 10
0.0
 20
0.0
 30
0.0
  0
VERTEX
  5
A3
330
A2
100
AcDbEntity
  8
OneHexagon
 62
     7
420
 16777215
370
    35
100
AcDbVertex
100
AcDb2dVertex
 10
238.0847703866218
 20
-37.59125756891703
 30
0.0
  0
VERTEX
  5
A4
330
A2
100
AcDbEntity
  8
OneHexagon
 62
     7
420
 16777215
370
    35
100
AcDbVertex
100
AcDb2dVertex
 10
223.987222166224
 20
-62.0600032057848
 30
0.0
  0
VERTEX
  5
A5
330
A2
100
AcDbEntity
  8
OneHexagon
 62
     7
420
 16777215
370
    35
100
AcDbVertex
100
AcDb2dVertex
 10
252.9427820243761
 20
-62.0600032057848
 30
0.0
  0
SEQEND
  5
A6
330
A2
100
AcDbEntity
  8
OneHexagon
 62
     7
420
 16777215
370
    35
  0
POLYLINE
  5
A7
330
1F
100
AcDbEntity
  8
OneHexagon
 62
     7
420
 16777215
370
    35
100
AcDb2dPolyline
 66
     1
 10
0.0
 20
0.0
 30
0.0
  0
VERTEX
  5
A8
330
A7
100
AcDbEntity
  8
OneHexagon
 62
     7
420
 16777215
370
    35
100
AcDbVertex
100
AcDb2dVertex
 10
243.7292162842515
 20
-27.81479753239645
 30
0.0
  0
VERTEX
  5
A9
330
A7
100
AcDbEntity
  8
OneHexagon
 62
     7
420
 16777215
370
    35
100
AcDbVertex
100
AcDb2dVertex
 10
258.5872186989129
 20
-1.999996778200206
 30
0.0
  0
SEQEND
  5
AA
330
A7
100
AcDbEntity
  8
OneHexagon
 62
     7
420
 16777215
370
    35
  0
SPLINE
  5
AB
330
1F
100
AcDbEntity
  8
OneHexagon
 62
     7
420
 16777215
370
    35
100
AcDbSpline
210
0.0
220
0.0
230
1.0
 70
    27
 71
     3
 72
    11
 73
     7
 74
     0
 42
0.0000000001
 43
0.0000000001
 12
1.0
 22
0.0
 32
0.0
 13
1.0
 23
0.0
 33
0.0
 40
0.0
 40
0.0
 40
0.0
 40
0.0
 40
1.0
 40
1.0
 40
1.0
 40
2.0
 40
2.0
 40
2.0
 40
2.0
 10
268.5779040510025
 20
-29.21088838661742
 30
0.0
 10
268.5779040510025
 20
-29.21088838661742
 30
0.0
 10
274.2223499486322
 20
-38.98734842313799
 30
0.0
 10
274.2223499486322
 20
-38.98734842313799
 30
0.0
 10
274.2223499486322
 20
-38.98734842313799
 30
0.0
 10
268.5779040510025
 20
-29.21088838661742
 30
0.0
 10
268.5779040510025
 20
-29.21088838661742
 30
0.0
  0
POLYLINE
  5
AC
330
1F
100
AcDbEntity
  8
OneHexagon
 62
     7
420
 16777215
370
    35
100
AcDb2dPolyline
 66
     1
 10
0.0
 20
0.0
 30
0.0
  0
VERTEX
  5
AD
330
AC
100
AcDbEntity
  8
OneHexagon
 62
     7
420
 16777215
370
    35
100
AcDbVertex
100
AcDb2dVertex
 10
223.987222166224
 20
-62.0600032057848
 30
0.0
  0
VERTEX
  5
AE
330
AC
100
AcDbEntity
  8
OneHexagon
 62
     7
420
 16777215
370
    35
100
AcDbVertex
100
AcDb2dVertex
 10
258.5872221575739
 20
-82.00000320079995
 30
0.0
  0
VERTEX
  5
AF
330
AC
100
AcDbEntity
  8
OneHexagon
 62
     7
420
 16777215
370
    35
100
AcDbVertex
100
AcDb2dVertex
 10
293.1872221489243
 20
-62.0600032057848
 30
0.0
  0
VERTEX
  5
B0
330
AC
100
AcDbEntity
  8
OneHexagon
 62
     7
420
 16777215
370
    35
100
AcDbVertex
100
AcDb2dVertex
 10
293.0774999267289
 20
-21.80972543806967
 30
0.0
  0
VERTEX
  5
B1
330
AC
100
AcDbEntity
  8
OneHexagon
 62
     7
420
 16777215
370
    35
100
AcDbVertex
100
AcDb2dVertex
 10
258.5872221575739
 20
-2.000003220799847
 30
0.0
  0
VERTEX
  5
B2
330
AC
100
AcDbEntity
  8
OneHexagon
 62
     7
420
 16777215
370
    35
100
AcDbVertex
100
AcDb2dVertex
 10
223.987222166224
 20
-21.80972543806967
 30
0.0
  0
VERTEX
  5
B3
330
AC
100
AcDbEntity
  8
OneHexagon
 62
     7
420
 16777215
370
    35
100
AcDbVertex
100
AcDb2dVertex
 10
223.987222166224
 20
-62.0600032057848
 30
0.0
  0
SEQEND
  5
B4
330
AC
100
AcDbEntity
  8
OneHexagon
 62
     7
420
 16777215
370
    35
  0
SPLINE
  5
B5
330
1F
100
AcDbEntity
  8
OneHexagon
 62
     7
420
 16777215
370
    35
100
AcDbSpline
210
0.0
220
0.0
230
1.0
 70
    27
 71
     3
 72
    11
 73
     7
 74
     0
 42
0.0000000001
 43
0.0000000001
 12
1.0
 22
0.0
 32
0.0
 13
1.0
 23
0.0
 33
0.0
 40
0.0
 40
0.0
 40
0.0
 40
0.0
 40
1.0
 40
1.0
 40
1.0
 40
2.0
 40
2.0
 40
2.0
 40
2.0
 10
315.9953011702243
 20
-39.87177356403102
 30
0.0
 10
315.9953011702243
 20
-39.87177356403102
 30
0.0
 10
321.6397470678546
 20
-30.09531352751045
 30
0.0
 10
321.6397470678546
 20
-30.09531352751045
 30
0.0
 10
321.6397470678546
 20
-30.09531352751045
 30
0.0
 10
315.9953011702243
 20
-39.87177356403102
 30
0.0
 10
315.9953011702243
 20
-39.87177356403102
 30
0.0
  0
POLYLINE
  5
B6
330
1F
100
AcDbEntity
  8
OneHexagon
 62
     7
420
 16777215
370
    35
100
AcDb2dPolyline
 66
     1
 10
0.0
 20
0.0
 30
0.0
  0
VERTEX
  5
B7
330
B6
100
AcDbEntity
  8
OneHexagon
 62
     7
420
 16777215
370
    35
100
AcDbVertex
100
AcDb2dVertex
 10
332.5477742359776
 20
-1.999996778200206
 30
0.0
  0
VERTEX
  5
B8
330
B6
100
AcDbEntity
  8
OneHexagon
 62
     7
420
 16777215
370
    35
100
AcDbVertex
100
AcDb2dVertex
 10
346.7934636674766
 20
-26.75425906491226
 30
0.0
  0
SEQEND
  5
B9
330
B6
100
AcDbEntity
  8
OneHexagon
 62
     7
420
 16777215
370
    35
  0
POLYLINE
  5
BA
330
1F
100
AcDbEntity
  8
OneHexagon
 62
     7
420
 16777215
370
    35
100
AcDb2dPolyline
 66
     1
 10
0.0
 20
0.0
 30
0.0
  0
VERTEX
  5
BB
330
BA
100
AcDbEntity
  8
OneHexagon
 62
     7
420
 16777215
370
    35
100
AcDbVertex
100
AcDb2dVertex
 10
338.1922293567007
 20
-62.0600032057848
 30
0.0
  0
VERTEX
  5
BC
330
BA
100
AcDbEntity
  8
OneHexagon
 62
     7
420
 16777215
370
    35
100
AcDbVertex
100
AcDb2dVertex
 10
367.1477776859883
 20
-62.0600032057848
 30
0.0
  0
VERTEX
  5
BD
330
BA
100
AcDbEntity
  8
OneHexagon
 62
     7
420
 16777215
370
    35
100
AcDbVertex
100
AcDb2dVertex
 10
352.4379095651063
 20
-36.53071910143252
 30
0.0
  0
SEQEND
  5
BE
330
BA
100
AcDbEntity
  8
OneHexagon
 62
     7
420
 16777215
370
    35
  0
POLYLINE
  5
BF
330
1F
100
AcDbEntity
  8
OneHexagon
 62
     7
420
 16777215
370
    35
100
AcDb2dPolyline
 66
     1
 10
0.0
 20
0.0
 30
0.0
  0
VERTEX
  5
C0
330
BF
100
AcDbEntity
  8
OneHexagon
 62
     7
420
 16777215
370
    35
100
AcDbVertex
100
AcDb2dVertex
 10
312.0453259236871
 20
-37.59125756891703
 30
0.0
  0
VERTEX
  5
C1
330
BF
100
AcDbEntity
  8
OneHexagon
 62
     7
420
 16777215
370
    35
100
AcDbVertex
100
AcDb2dVertex
 10
297.9477777032893
 20
-62.0600032057848
 30
0.0
  0
VERTEX
  5
C2
330
BF
100
AcDbEntity
  8
OneHexagon
 62
     7
420
 16777215
370
    35
100
AcDbVertex
100
AcDb2dVertex
 10
326.9033375614413
 20
-62.0600032057848
 30
0.0
  0
SEQEND
  5
C3
330
BF
100
AcDbEntity
  8
OneHexagon
 62
     7
420
 16777215
370
    35
  0
POLYLINE
  5
C4
330
1F
100
AcDbEntity
  8
OneHexagon
 62
     7
420
 16777215
370
    35
100
AcDb2dPolyline
 66
     1
 10
0.0
 20
0.0
 30
0.0
  0
VERTEX
  5
C5
330
C4
100
AcDbEntity
  8
OneHexagon
 62
     7
420
 16777215
370
    35
100
AcDbVertex
100
AcDb2dVertex
 10
317.6897718213168
 20
-27.81479753239645
 30
0.0
  0
VERTEX
  5
C6
330
C4
100
AcDbEntity
  8
OneHexagon
 62
     7
420
 16777215
370
    35
100
AcDbVertex
100
AcDb2dVertex
 10
332.5477742359782
 20
-1.999996778200206
 30
0.0
  0
SEQEND
  5
C7
330
C4
100
AcDbEntity
  8
OneHexagon
 62
     7
420
 16777215
370
    35
  0
SPLINE
  5
C8
330
1F
100
AcDbEntity
  8
OneHexagon
 62
     7
420
 16777215
370
    35
100
AcDbSpline
210
0.0
220
0.0
230
1.0
 70
    27
 71
     3
 72
    11
 73
     7
 74
     0
 42
0.0000000001
 43
0.0000000001
 12
1.0
 22
0.0
 32
0.0
 13
1.0
 23
0.0
 33
0.0
 40
0.0
 40
0.0
 40
0.0
 40
0.0
 40
1.0
 40
1.0
 40
1.0
 40
2.0
 40
2.0
 40
2.0
 40
2.0
 10
342.5384595880678
 20
-29.21088838661742
 30
0.0
 10
342.5384595880678
 20
-29.21088838661742
 30
0.0
 10
348.1829054856975
 20
-38.98734842313799
 30
0.0
 10
348.1829054856975
 20
-38.98734842313799
 30
0.0
 10
348.1829054856975
 20
-38.98734842313799
 30
0.0
 10
342.5384595880678
 20
-29.21088838661742
 30
0.0
 10
342.5384595880678
 20
-29.21088838661742
 30
0.0
  0
POLYLINE
  5
C9
330
1F
100
AcDbEntity
  8
OneHexagon
 62
     7
420
 16777215
370
    35
100
AcDb2dPolyline
 66
     1
 10
0.0
 20
0.0
 30
0.0
  0
VERTEX
  5
CA
330
C9
100
AcDbEntity
  8
OneHexagon
 62
     7
420
 16777215
370
    35
100
AcDbVertex
100
AcDb2dVertex
 10
297.9477777032893
 20
-62.0600032057848
 30
0.0
  0
VERTEX
  5
CB
330
C9
100
AcDbEntity
  8
OneHexagon
 62
     7
420
 16777215
370
    35
100
AcDbVertex
100
AcDb2dVertex
 10
332.5477776946391
 20
-82.00000320079995
 30
0.0
  0
VERTEX
  5
CC
330
C9
100
AcDbEntity
  8
OneHexagon
 62
     7
420
 16777215
370
    35
100
AcDbVertex
100
AcDb2dVertex
 10
367.1477776859883
 20
-62.0600032057848
 30
0.0
  0
VERTEX
  5
CD
330
C9
100
AcDbEntity
  8
OneHexagon
 62
     7
420
 16777215
370
    35
100
AcDbVertex
100
AcDb2dVertex
 10
367.0380554637929
 20
-21.80972543806967
 30
0.0
  0
VERTEX
  5
CE
330
C9
100
AcDbEntity
  8
OneHexagon
 62
     7
420
 16777215
370
    35
100
AcDbVertex
100
AcDb2dVertex
 10
332.5477776946391
 20
-2.000003220799847
 30
0.0
  0
VERTEX
  5
CF
330
C9
100
AcDbEntity
  8
OneHexagon
 62
     7
420
 16777215
370
    35
100
AcDbVertex
100
AcDb2dVertex
 10
297.9477777032893
 20
-21.80972543806967
 30
0.0
  0
VERTEX
  5
D0
330
C9
100
AcDbEntity
  8
OneHexagon
 62
     7
420
 16777215
370
    35
100
AcDbVertex
100
AcDb2dVertex
 10
297.9477777032893
 20
-62.0600032057848
 30
0.0
  0
SEQEND
  5
D1
330
C9
100
AcDbEntity
  8
OneHexagon
 62
     7
420
 16777215
370
    35
  0
SPLINE
  5
D2
330
1F
100
AcDbEntity
  8
OneHexagon
 62
     7
420
 16777215
370
    35
100
AcDbSpline
210
0.0
220
0.0
230
1.0
 70
    27
 71
     3
 72
    11
 73
     7
 74
     0
 42
0.0000000001
 43
0.0000000001
 12
1.0
 22
0.0
 32
0.0
 13
1.0
 23
0.0
 33
0.0
 40
0.0
 40
0.0
 40
0.0
 40
0.0
 40
1.0
 40
1.0
 40
1.0
 40
2.0
 40
2.0
 40
2.0
 40
2.0
 10
389.9558567072902
 20
-39.87177356403102
 30
0.0
 10
389.9558567072902
 20
-39.87177356403102
 30
0.0
 10
395.6003026049211
 20
-30.09531352751045
 30
0.0
 10
395.6003026049211
 20
-30.09531352751045
 30
0.0
 10
395.6003026049211
 20
-30.09531352751045
 30
0.0
 10
389.9558567072902
 20
-39.87177356403102
 30
0.0
 10
389.9558567072902
 20
-39.87177356403102
 30
0.0
  0
POLYLINE
  5
D3
330
1F
100
AcDbEntity
  8
OneHexagon
 62
     7
420
 16777215
370
    35
100
AcDb2dPolyline
 66
     1
 10
0.0
 20
0.0
 30
0.0
  0
VERTEX
  5
D4
330
D3
100
AcDbEntity
  8
OneHexagon
 62
     7
420
 16777215
370
    35
100
AcDbVertex
100
AcDb2dVertex
 10
406.5083297730435
 20
-1.999996778200206
 30
0.0
  0
VERTEX
  5
D5
330
D3
100
AcDbEntity
  8
OneHexagon
 62
     7
420
 16777215
370
    35
100
AcDbVertex
100
AcDb2dVertex
 10
420.7540192045451
 20
-26.75425906491226
 30
0.0
  0
SEQEND
  5
D6
330
D3
100
AcDbEntity
  8
OneHexagon
 62
     7
420
 16777215
370
    35
  0
POLYLINE
  5
D7
330
1F
100
AcDbEntity
  8
OneHexagon
 62
     7
420
 16777215
370
    35
100
AcDb2dPolyline
 66
     1
 10
0.0
 20
0.0
 30
0.0
  0
VERTEX
  5
D8
330
D7
100
AcDbEntity
  8
OneHexagon
 62
     7
420
 16777215
370
    35
100
AcDbVertex
100
AcDb2dVertex
 10
412.1527848937679
 20
-62.0600032057848
 30
0.0
  0
VERTEX
  5
D9
330
D7
100
AcDbEntity
  8
OneHexagon
 62
     7
420
 16777215
370
    35
100
AcDbVertex
100
AcDb2dVertex
 10
441.1083332230549
 20
-62.0600032057848
 30
0.0
  0
VERTEX
  5
DA
330
D7
100
AcDbEntity
  8
OneHexagon
 62
     7
420
 16777215
370
    35
100
AcDbVertex
100
AcDb2dVertex
 10
426.3984651021728
 20
-36.53071910143252
 30
0.0
  0
SEQEND
  5
DB
330
D7
100
AcDbEntity
  8
OneHexagon
 62
     7
420
 16777215
370
    35
  0
POLYLINE
  5
DC
330
1F
100
AcDbEntity
  8
OneHexagon
 62
     7
420
 16777215
370
    35
100
AcDb2dPolyline
 66
     1
 10
0.0
 20
0.0
 30
0.0
  0
VERTEX
  5
DD
330
DC
100
AcDbEntity
  8
OneHexagon
 62
     7
420
 16777215
370
    35
100
AcDbVertex
100
AcDb2dVertex
 10
386.0058814607543
 20
-37.59125756891703
 30
0.0
  0
VERTEX
  5
DE
330
DC
100
AcDbEntity
  8
OneHexagon
 62
     7
420
 16777215
370
    35
100
AcDbVertex
100
AcDb2dVertex
 10
371.9083332403552
 20
-62.0600032057848
 30
0.0
  0
VERTEX
  5
DF
330
DC
100
AcDbEntity
  8
OneHexagon
 62
     7
420
 16777215
370
    35
100
AcDbVertex
100
AcDb2dVertex
 10
400.8638930985085
 20
-62.0600032057848
 30
0.0
  0
SEQEND
  5
E0
330
DC
100
AcDbEntity
  8
OneHexagon
 62
     7
420
 16777215
370
    35
  0
POLYLINE
  5
E1
330
1F
100
AcDbEntity
  8
OneHexagon
 62
     7
420
 16777215
370
    35
100
AcDb2dPolyline
 66
     1
 10
0.0
 20
0.0
 30
0.0
  0
VERTEX
  5
E2
330
E1
100
AcDbEntity
  8
OneHexagon
 62
     7
420
 16777215
370
    35
100
AcDbVertex
100
AcDb2dVertex
 10
391.650327358382
 20
-27.81479753239645
 30
0.0
  0
VERTEX
  5
E3
330
E1
100
AcDbEntity
  8
OneHexagon
 62
     7
420
 16777215
370
    35
100
AcDbVertex
100
AcDb2dVertex
 10
406.5083297730435
 20
-1.999996778200206
 30
0.0
  0
SEQEND
  5
E4
330
E1
100
AcDbEntity
  8
OneHexagon
 62
     7
420
 16777215
370
    35
  0
SPLINE
  5
E5
330
1F
100
AcDbEntity
  8
OneHexagon
 62
     7
420
 16777215
370
    35
100
AcDbSpline
210
0.0
220
0.0
230
1.0
 70
    27
 71
     3
 72
    11
 73
     7
 74
     0
 42
0.0000000001
 43
0.0000000001
 12
1.0
 22
0.0
 32
0.0
 13
1.0
 23
0.0
 33
0.0
 40
0.0
 40
0.0
 40
0.0
 40
0.0
 40
1.0
 40
1.0
 40
1.0
 40
2.0
 40
2.0
 40
2.0
 40
2.0
 10
416.4990151251357
 20
-29.21088838661742
 30
0.0
 10
416.4990151251357
 20
-29.21088838661742
 30
0.0
 10
422.1434610227633
 20
-38.98734842313799
 30
0.0
 10
422.1434610227633
 20
-38.98734842313799
 30
0.0
 10
422.1434610227633
 20
-38.98734842313799
 30
0.0
 10
416.4990151251357
 20
-29.21088838661742
 30
0.0
 10
416.4990151251357
 20
-29.21088838661742
 30
0.0
  0
POLYLINE
  5
E6
330
1F
100
AcDbEntity
  8
OneHexagon
 62
     7
420
 16777215
370
    35
100
AcDb2dPolyline
 66
     1
 10
0.0
 20
0.0
 30
0.0
  0
VERTEX
  5
E7
330
E6
100
AcDbEntity
  8
OneHexagon
 62
     7
420
 16777215
370
    35
100
AcDbVertex
100
AcDb2dVertex
 10
371.9083332403552
 20
-62.0600032057848
 30
0.0
  0
VERTEX
  5
E8
330
E6
100
AcDbEntity
  8
OneHexagon
 62
     7
420
 16777215
370
    35
100
AcDbVertex
100
AcDb2dVertex
 10
406.508333231705
 20
-82.00000320079995
 30
0.0
  0
VERTEX
  5
E9
330
E6
100
AcDbEntity
  8
OneHexagon
 62
     7
420
 16777215
370
    35
100
AcDbVertex
100
AcDb2dVertex
 10
441.1083332230549
 20
-62.0600032057848
 30
0.0
  0
VERTEX
  5
EA
330
E6
100
AcDbEntity
  8
OneHexagon
 62
     7
420
 16777215
370
    35
100
AcDbVertex
100
AcDb2dVertex
 10
440.9986110008595
 20
-21.80972543806967
 30
0.0
  0
VERTEX
  5
EB
330
E6
100
AcDbEntity
  8
OneHexagon
 62
     7
420
 16777215
370
    35
100
AcDbVertex
100
AcDb2dVertex
 10
406.508333231705
 20
-2.000003220799847
 30
0.0
  0
VERTEX
  5
EC
330
E6
100
AcDbEntity
  8
OneHexagon
 62
     7
420
 16777215
370
    35
100
AcDbVertex
100
AcDb2dVertex
 10
371.9083332403552
 20
-21.80972543806967
 30
0.0
  0
VERTEX
  5
ED
330
E6
100
AcDbEntity
  8
OneHexagon
 62
     7
420
 16777215
370
    35
100
AcDbVertex
100
AcDb2dVertex
 10
371.9083332403552
 20
-62.0600032057848
 30
0.0
  0
SEQEND
  5
EE
330
E6
100
AcDbEntity
  8
OneHexagon
 62
     7
420
 16777215
370
    35
  0
SPLINE
  5
EF
330
1F
100
AcDbEntity
  8
OneHexagon
 62
     7
420
 16777215
370
    35
100
AcDbSpline
210
0.0
220
0.0
230
1.0
 70
    27
 71
     3
 72
    11
 73
     7
 74
     0
 42
0.0000000001
 43
0.0000000001
 12
1.0
 22
0.0
 32
0.0
 13
1.0
 23
0.0
 33
0.0
 40
0.0
 40
0.0
 40
0.0
 40
0.0
 40
1.0
 40
1.0
 40
1.0
 40
2.0
 40
2.0
 40
2.0
 40
2.0
 10
57.18752345715026
 20
-104.871773547781
 30
0.0
 10
57.18752345715026
 20
-104.871773547781
 30
0.0
 10
62.83196935478056
 20
-95.09531351126043
 30
0.0
 10
62.83196935478056
 20
-95.09531351126043
 30
0.0
 10
62.83196935478056
 20
-95.09531351126043
 30
0.0
 10
57.18752345715026
 20
-104.871773547781
 30
0.0
 10
57.18752345715026
 20
-104.871773547781
 30
0.0
  0
POLYLINE
  5
F0
330
1F
100
AcDbEntity
  8
OneHexagon
 62
     7
420
 16777215
370
    35
100
AcDb2dPolyline
 66
     1
 10
0.0
 20
0.0
 30
0.0
  0
VERTEX
  5
F1
330
F0
100
AcDbEntity
  8
OneHexagon
 62
     7
420
 16777215
370
    35
100
AcDbVertex
100
AcDb2dVertex
 10
73.73999652290419
 20
-66.99999676195019
 30
0.0
  0
VERTEX
  5
F2
330
F0
100
AcDbEntity
  8
OneHexagon
 62
     7
420
 16777215
370
    35
100
AcDbVertex
100
AcDb2dVertex
 10
87.98568595440261
 20
-91.75425904866223
 30
0.0
  0
SEQEND
  5
F3
330
F0
100
AcDbEntity
  8
OneHexagon
 62
     7
420
 16777215
370
    35
  0
POLYLINE
  5
F4
330
1F
100
AcDbEntity
  8
OneHexagon
 62
     7
420
 16777215
370
    35
100
AcDb2dPolyline
 66
     1
 10
0.0
 20
0.0
 30
0.0
  0
VERTEX
  5
F5
330
F4
100
AcDbEntity
  8
OneHexagon
 62
     7
420
 16777215
370
    35
100
AcDbVertex
100
AcDb2dVertex
 10
79.38445164362665
 20
-127.0600031895348
 30
0.0
  0
VERTEX
  5
F6
330
F4
100
AcDbEntity
  8
OneHexagon
 62
     7
420
 16777215
370
    35
100
AcDbVertex
100
AcDb2dVertex
 10
108.339999972915
 20
-127.0600031895348
 30
0.0
  0
VERTEX
  5
F7
330
F4
100
AcDbEntity
  8
OneHexagon
 62
     7
420
 16777215
370
    35
100
AcDbVertex
100
AcDb2dVertex
 10
93.63013185203226
 20
-101.5307190851825
 30
0.0
  0
SEQEND
  5
F8
330
F4
100
AcDbEntity
  8
OneHexagon
 62
     7
420
 16777215
370
    35
  0
POLYLINE
  5
F9
330
1F
100
AcDbEntity
  8
OneHexagon
 62
     7
420
 16777215
370
    35
100
AcDb2dPolyline
 66
     1
 10
0.0
 20
0.0
 30
0.0
  0
VERTEX
  5
FA
330
F9
100
AcDbEntity
  8
OneHexagon
 62
     7
420
 16777215
370
    35
100
AcDbVertex
100
AcDb2dVertex
 10
53.23754821061308
 20
-102.591257552667
 30
0.0
  0
VERTEX
  5
FB
330
F9
100
AcDbEntity
  8
OneHexagon
 62
     7
420
 16777215
370
    35
100
AcDbVertex
100
AcDb2dVertex
 10
39.13999999021528
 20
-127.0600031895348
 30
0.0
  0
VERTEX
  5
FC
330
F9
100
AcDbEntity
  8
OneHexagon
 62
     7
420
 16777215
370
    35
100
AcDbVertex
100
AcDb2dVertex
 10
68.09555984836766
 20
-127.0600031895348
 30
0.0
  0
SEQEND
  5
FD
330
F9
100
AcDbEntity
  8
OneHexagon
 62
     7
420
 16777215
370
    35
  0
POLYLINE
  5
FE
330
1F
100
AcDbEntity
  8
OneHexagon
 62
     7
420
 16777215
370
    35
100
AcDb2dPolyline
 66
     1
 10
0.0
 20
0.0
 30
0.0
  0
VERTEX
  5
FF
330
FE
100
AcDbEntity
  8
OneHexagon
 62
     7
420
 16777215
370
    35
100
AcDbVertex
100
AcDb2dVertex
 10
58.88199410824274
 20
-92.81479751614643
 30
0.0
  0
VERTEX
  5
100
330
FE
100
AcDbEntity
  8
OneHexagon
 62
     7
420
 16777215
370
    35
100
AcDbVertex
100
AcDb2dVertex
 10
73.7399965229045
 20
-66.99999676195019
 30
0.0
  0
SEQEND
  5
101
330
FE
100
AcDbEntity
  8
OneHexagon
 62
     7
420
 16777215
370
    35
  0
SPLINE
  5
102
330
1F
100
AcDbEntity
  8
OneHexagon
 62
     7
420
 16777215
370
    35
100
AcDbSpline
210
0.0
220
0.0
230
1.0
 70
    27
 71
     3
 72
    11
 73
     7
 74
     0
 42
0.0000000001
 43
0.0000000001
 12
1.0
 22
0.0
 32
0.0
 13
1.0
 23
0.0
 33
0.0
 40
0.0
 40
0.0
 40
0.0
 40
0.0
 40
1.0
 40
1.0
 40
1.0
 40
2.0
 40
2.0
 40
2.0
 40
2.0
 10
83.73068187499443
 20
-94.2108883703674
 30
0.0
 10
83.73068187499443
 20
-94.2108883703674
 30
0.0
 10
89.37512777262344
 20
-103.987348406888
 30
0.0
 10
89.37512777262344
 20
-103.987348406888
 30
0.0
 10
89.37512777262344
 20
-103.987348406888
 30
0.0
 10
83.73068187499443
 20
-94.2108883703674
 30
0.0
 10
83.73068187499443
 20
-94.2108883703674
 30
0.0
  0
POLYLINE
  5
103
330
1F
100
AcDbEntity
  8
OneHexagon
 62
     7
420
 16777215
370
    35
100
AcDb2dPolyline
 66
     1
 10
0.0
 20
0.0
 30
0.0
  0
VERTEX
  5
104
330
103
100
AcDbEntity
  8
OneHexagon
 62
     7
420
 16777215
370
    35
100
AcDbVertex
100
AcDb2dVertex
 10
39.13999999021528
 20
-127.0600031895348
 30
0.0
  0
VERTEX
  5
105
330
103
100
AcDbEntity
  8
OneHexagon
 62
     7
420
 16777215
370
    35
100
AcDbVertex
100
AcDb2dVertex
 10
73.73999998156576
 20
-147.0000031845499
 30
0.0
  0
VERTEX
  5
106
330
103
100
AcDbEntity
  8
OneHexagon
 62
     7
420
 16777215
370
    35
100
AcDbVertex
100
AcDb2dVertex
 10
108.339999972915
 20
-127.0600031895348
 30
0.0
  0
VERTEX
  5
107
330
103
100
AcDbEntity
  8
OneHexagon
 62
     7
420
 16777215
370
    35
100
AcDbVertex
100
AcDb2dVertex
 10
108.2302777507205
 20
-86.80972542181965
 30
0.0
  0
VERTEX
  5
108
330
103
100
AcDbEntity
  8
OneHexagon
 62
     7
420
 16777215
370
    35
100
AcDbVertex
100
AcDb2dVertex
 10
73.73999998156576
 20
-67.00000320454983
 30
0.0
  0
VERTEX
  5
109
330
103
100
AcDbEntity
  8
OneHexagon
 62
     7
420
 16777215
370
    35
100
AcDbVertex
100
AcDb2dVertex
 10
39.13999999021528
 20
-86.80972542181965
 30
0.0
  0
VERTEX
  5
10A
330
103
100
AcDbEntity
  8
OneHexagon
 62
     7
420
 16777215
370
    35
100
AcDbVertex
100
AcDb2dVertex
 10
39.13999999021528
 20
-127.0600031895348
 30
0.0
  0
SEQEND
  5
10B
330
103
100
AcDbEntity
  8
OneHexagon
 62
     7
420
 16777215
370
    35
  0
SPLINE
  5
10C
330
1F
100
AcDbEntity
  8
OneHexagon
 62
     7
420
 16777215
370
    35
100
AcDbSpline
210
0.0
220
0.0
230
1.0
 70
    27
 71
     3
 72
    11
 73
     7
 74
     0
 42
0.0000000001
 43
0.0000000001
 12
1.0
 22
0.0
 32
0.0
 13
1.0
 23
0.0
 33
0.0
 40
0.0
 40
0.0
 40
0.0
 40
0.0
 40
1.0
 40
1.0
 40
1.0
 40
2.0
 40
2.0
 40
2.0
 40
2.0
 10
131.155301216435
 20
-104.871773547781
 30
0.0
 10
131.155301216435
 20
-104.871773547781
 30
0.0
 10
136.799747114065
 20
-95.09531351126043
 30
0.0
 10
136.799747114065
 20
-95.09531351126043
 30
0.0
 10
136.799747114065
 20
-95.09531351126043
 30
0.0
 10
131.155301216435
 20
-104.871773547781
 30
0.0
 10
131.155301216435
 20
-104.871773547781
 30
0.0
  0
POLYLINE
  5
10D
330
1F
100
AcDbEntity
  8
OneHexagon
 62
     7
420
 16777215
370
    35
100
AcDb2dPolyline
 66
     1
 10
0.0
 20
0.0
 30
0.0
  0
VERTEX
  5
10E
330
10D
100
AcDbEntity
  8
OneHexagon
 62
     7
420
 16777215
370
    35
100
AcDbVertex
100
AcDb2dVertex
 10
147.7077742821886
 20
-66.99999676195019
 30
0.0
  0
VERTEX
  5
10F
330
10D
100
AcDbEntity
  8
OneHexagon
 62
     7
420
 16777215
370
    35
100
AcDbVertex
100
AcDb2dVertex
 10
161.9534637136874
 20
-91.75425904866223
 30
0.0
  0
SEQEND
  5
110
330
10D
100
AcDbEntity
  8
OneHexagon
 62
     7
420
 16777215
370
    35
  0
POLYLINE
  5
111
330
1F
100
AcDbEntity
  8
OneHexagon
 62
     7
420
 16777215
370
    35
100
AcDb2dPolyline
 66
     1
 10
0.0
 20
0.0
 30
0.0
  0
VERTEX
  5
112
330
111
100
AcDbEntity
  8
OneHexagon
 62
     7
420
 16777215
370
    35
100
AcDbVertex
100
AcDb2dVertex
 10
153.3522294029117
 20
-127.0600031895348
 30
0.0
  0
VERTEX
  5
113
330
111
100
AcDbEntity
  8
OneHexagon
 62
     7
420
 16777215
370
    35
100
AcDbVertex
100
AcDb2dVertex
 10
182.3077777322
 20
-127.0600031895348
 30
0.0
  0
VERTEX
  5
114
330
111
100
AcDbEntity
  8
OneHexagon
 62
     7
420
 16777215
370
    35
100
AcDbVertex
100
AcDb2dVertex
 10
167.597909611317
 20
-101.5307190851825
 30
0.0
  0
SEQEND
  5
115
330
111
100
AcDbEntity
  8
OneHexagon
 62
     7
420
 16777215
370
    35
  0
POLYLINE
  5
116
330
1F
100
AcDbEntity
  8
OneHexagon
 62
     7
420
 16777215
370
    35
100
AcDb2dPolyline
 66
     1
 10
0.0
 20
0.0
 30
0.0
  0
VERTEX
  5
117
330
116
100
AcDbEntity
  8
OneHexagon
 62
     7
420
 16777215
370
    35
100
AcDbVertex
100
AcDb2dVertex
 10
127.2053259698975
 20
-102.591257552667
 30
0.0
  0
VERTEX
  5
118
330
116
100
AcDbEntity
  8
OneHexagon
 62
     7
420
 16777215
370
    35
100
AcDbVertex
100
AcDb2dVertex
 10
113.1077777495
 20
-127.0600031895348
 30
0.0
  0
VERTEX
  5
119
330
116
100
AcDbEntity
  8
OneHexagon
 62
     7
420
 16777215
370
    35
100
AcDbVertex
100
AcDb2dVertex
 10
142.0633376076524
 20
-127.0600031895348
 30
0.0
  0
SEQEND
  5
11A
330
116
100
AcDbEntity
  8
OneHexagon
 62
     7
420
 16777215
370
    35
  0
POLYLINE
  5
11B
330
1F
100
AcDbEntity
  8
OneHexagon
 62
     7
420
 16777215
370
    35
100
AcDb2dPolyline
 66
     1
 10
0.0
 20
0.0
 30
0.0
  0
VERTEX
  5
11C
330
11B
100
AcDbEntity
  8
OneHexagon
 62
     7
420
 16777215
370
    35
100
AcDbVertex
100
AcDb2dVertex
 10
132.8497718675275
 20
-92.81479751614643
 30
0.0
  0
VERTEX
  5
11D
330
11B
100
AcDbEntity
  8
OneHexagon
 62
     7
420
 16777215
370
    35
100
AcDbVertex
100
AcDb2dVertex
 10
147.707774282189
 20
-66.99999676195019
 30
0.0
  0
SEQEND
  5
11E
330
11B
100
AcDbEntity
  8
OneHexagon
 62
     7
420
 16777215
370
    35
  0
SPLINE
  5
11F
330
1F
100
AcDbEntity
  8
OneHexagon
 62
     7
420
 16777215
370
    35
100
AcDbSpline
210
0.0
220
0.0
230
1.0
 70
    27
 71
     3
 72
    11
 73
     7
 74
     0
 42
0.0000000001
 43
0.0000000001
 12
1.0
 22
0.0
 32
0.0
 13
1.0
 23
0.0
 33
0.0
 40
0.0
 40
0.0
 40
0.0
 40
0.0
 40
1.0
 40
1.0
 40
1.0
 40
2.0
 40
2.0
 40
2.0
 40
2.0
 10
157.6984596342789
 20
-94.2108883703674
 30
0.0
 10
157.6984596342789
 20
-94.2108883703674
 30
0.0
 10
163.3429055319082
 20
-103.987348406888
 30
0.0
 10
163.3429055319082
 20
-103.987348406888
 30
0.0
 10
163.3429055319082
 20
-103.987348406888
 30
0.0
 10
157.6984596342789
 20
-94.2108883703674
 30
0.0
 10
157.6984596342789
 20
-94.2108883703674
 30
0.0
  0
POLYLINE
  5
120
330
1F
100
AcDbEntity
  8
OneHexagon
 62
     7
420
 16777215
370
    35
100
AcDb2dPolyline
 66
     1
 10
0.0
 20
0.0
 30
0.0
  0
VERTEX
  5
121
330
120
100
AcDbEntity
  8
OneHexagon
 62
     7
420
 16777215
370
    35
100
AcDbVertex
100
AcDb2dVertex
 10
113.1077777495
 20
-127.0600031895348
 30
0.0
  0
VERTEX
  5
122
330
120
100
AcDbEntity
  8
OneHexagon
 62
     7
420
 16777215
370
    35
100
AcDbVertex
100
AcDb2dVertex
 10
147.7077777408502
 20
-147.0000031845499
 30
0.0
  0
VERTEX
  5
123
330
120
100
AcDbEntity
  8
OneHexagon
 62
     7
420
 16777215
370
    35
100
AcDbVertex
100
AcDb2dVertex
 10
182.3077777322
 20
-127.0600031895348
 30
0.0
  0
VERTEX
  5
124
330
120
100
AcDbEntity
  8
OneHexagon
 62
     7
420
 16777215
370
    35
100
AcDbVertex
100
AcDb2dVertex
 10
182.1980555100052
 20
-86.80972542181965
 30
0.0
  0
VERTEX
  5
125
330
120
100
AcDbEntity
  8
OneHexagon
 62
     7
420
 16777215
370
    35
100
AcDbVertex
100
AcDb2dVertex
 10
147.7077777408502
 20
-67.00000320454983
 30
0.0
  0
VERTEX
  5
126
330
120
100
AcDbEntity
  8
OneHexagon
 62
     7
420
 16777215
370
    35
100
AcDbVertex
100
AcDb2dVertex
 10
113.1077777495
 20
-86.80972542181965
 30
0.0
  0
VERTEX
  5
127
330
120
100
AcDbEntity
  8
OneHexagon
 62
     7
420
 16777215
370
    35
100
AcDbVertex
100
AcDb2dVertex
 10
113.1077777495
 20
-127.0600031895348
 30
0.0
  0
SEQEND
  5
128
330
120
100
AcDbEntity
  8
OneHexagon
 62
     7
420
 16777215
370
    35
  0
SPLINE
  5
129
330
1F
100
AcDbEntity
  8
OneHexagon
 62
     7
420
 16777215
370
    35
100
AcDbSpline
210
0.0
220
0.0
230
1.0
 70
    27
 71
     3
 72
    11
 73
     7
 74
     0
 42
0.0000000001
 43
0.0000000001
 12
1.0
 22
0.0
 32
0.0
 13
1.0
 23
0.0
 33
0.0
 40
0.0
 40
0.0
 40
0.0
 40
0.0
 40
1.0
 40
1.0
 40
1.0
 40
2.0
 40
2.0
 40
2.0
 40
2.0
 10
205.1075234201699
 20
-104.871773547781
 30
0.0
 10
205.1075234201699
 20
-104.871773547781
 30
0.0
 10
210.7519693177999
 20
-95.09531351126043
 30
0.0
 10
210.7519693177999
 20
-95.09531351126043
 30
0.0
 10
210.7519693177999
 20
-95.09531351126043
 30
0.0
 10
205.1075234201699
 20
-104.871773547781
 30
0.0
 10
205.1075234201699
 20
-104.871773547781
 30
0.0
  0
POLYLINE
  5
12A
330
1F
100
AcDbEntity
  8
OneHexagon
 62
     7
420
 16777215
370
    35
100
AcDb2dPolyline
 66
     1
 10
0.0
 20
0.0
 30
0.0
  0
VERTEX
  5
12B
330
12A
100
AcDbEntity
  8
OneHexagon
 62
     7
420
 16777215
370
    35
100
AcDbVertex
100
AcDb2dVertex
 10
221.6599964859236
 20
-66.99999676195019
 30
0.0
  0
VERTEX
  5
12C
330
12A
100
AcDbEntity
  8
OneHexagon
 62
     7
420
 16777215
370
    35
100
AcDbVertex
100
AcDb2dVertex
 10
235.905685917422
 20
-91.75425904866223
 30
0.0
  0
SEQEND
  5
12D
330
12A
100
AcDbEntity
  8
OneHexagon
 62
     7
420
 16777215
370
    35
  0
POLYLINE
  5
12E
330
1F
100
AcDbEntity
  8
OneHexagon
 62
     7
420
 16777215
370
    35
100
AcDb2dPolyline
 66
     1
 10
0.0
 20
0.0
 30
0.0
  0
VERTEX
  5
12F
330
12E
100
AcDbEntity
  8
OneHexagon
 62
     7
420
 16777215
370
    35
100
AcDbVertex
100
AcDb2dVertex
 10
227.304451606647
 20
-127.0600031895348
 30
0.0
  0
VERTEX
  5
130
330
12E
100
AcDbEntity
  8
OneHexagon
 62
     7
420
 16777215
370
    35
100
AcDbVertex
100
AcDb2dVertex
 10
256.259999935935
 20
-127.0600031895348
 30
0.0
  0
VERTEX
  5
131
330
12E
100
AcDbEntity
  8
OneHexagon
 62
     7
420
 16777215
370
    35
100
AcDbVertex
100
AcDb2dVertex
 10
241.5501318150516
 20
-101.5307190851825
 30
0.0
  0
SEQEND
  5
132
330
12E
100
AcDbEntity
  8
OneHexagon
 62
     7
420
 16777215
370
    35
  0
POLYLINE
  5
133
330
1F
100
AcDbEntity
  8
OneHexagon
 62
     7
420
 16777215
370
    35
100
AcDb2dPolyline
 66
     1
 10
0.0
 20
0.0
 30
0.0
  0
VERTEX
  5
134
330
133
100
AcDbEntity
  8
OneHexagon
 62
     7
420
 16777215
370
    35
100
AcDbVertex
100
AcDb2dVertex
 10
201.1575481736331
 20
-102.591257552667
 30
0.0
  0
VERTEX
  5
135
330
133
100
AcDbEntity
  8
OneHexagon
 62
     7
420
 16777215
370
    35
100
AcDbVertex
100
AcDb2dVertex
 10
187.0599999532349
 20
-127.0600031895348
 30
0.0
  0
VERTEX
  5
136
330
133
100
AcDbEntity
  8
OneHexagon
 62
     7
420
 16777215
370
    35
100
AcDbVertex
100
AcDb2dVertex
 10
216.015559811387
 20
-127.0600031895348
 30
0.0
  0
SEQEND
  5
137
330
133
100
AcDbEntity
  8
OneHexagon
 62
     7
420
 16777215
370
    35
  0
POLYLINE
  5
138
330
1F
100
AcDbEntity
  8
OneHexagon
 62
     7
420
 16777215
370
    35
100
AcDb2dPolyline
 66
     1
 10
0.0
 20
0.0
 30
0.0
  0
VERTEX
  5
139
330
138
100
AcDbEntity
  8
OneHexagon
 62
     7
420
 16777215
370
    35
100
AcDbVertex
100
AcDb2dVertex
 10
206.8019940712624
 20
-92.81479751614643
 30
0.0
  0
VERTEX
  5
13A
330
138
100
AcDbEntity
  8
OneHexagon
 62
     7
420
 16777215
370
    35
100
AcDbVertex
100
AcDb2dVertex
 10
221.6599964859239
 20
-66.99999676195019
 30
0.0
  0
SEQEND
  5
13B
330
138
100
AcDbEntity
  8
OneHexagon
 62
     7
420
 16777215
370
    35
  0
SPLINE
  5
13C
330
1F
100
AcDbEntity
  8
OneHexagon
 62
     7
420
 16777215
370
    35
100
AcDbSpline
210
0.0
220
0.0
230
1.0
 70
    27
 71
     3
 72
    11
 73
     7
 74
     0
 42
0.0000000001
 43
0.0000000001
 12
1.0
 22
0.0
 32
0.0
 13
1.0
 23
0.0
 33
0.0
 40
0.0
 40
0.0
 40
0.0
 40
0.0
 40
1.0
 40
1.0
 40
1.0
 40
2.0
 40
2.0
 40
2.0
 40
2.0
 10
231.6506818380138
 20
-94.2108883703674
 30
0.0
 10
231.6506818380138
 20
-94.2108883703674
 30
0.0
 10
237.2951277356428
 20
-103.987348406888
 30
0.0
 10
237.2951277356428
 20
-103.987348406888
 30
0.0
 10
237.2951277356428
 20
-103.987348406888
 30
0.0
 10
231.6506818380138
 20
-94.2108883703674
 30
0.0
 10
231.6506818380138
 20
-94.2108883703674
 30
0.0
  0
POLYLINE
  5
13D
330
1F
100
AcDbEntity
  8
OneHexagon
 62
     7
420
 16777215
370
    35
100
AcDb2dPolyline
 66
     1
 10
0.0
 20
0.0
 30
0.0
  0
VERTEX
  5
13E
330
13D
100
AcDbEntity
  8
OneHexagon
 62
     7
420
 16777215
370
    35
100
AcDbVertex
100
AcDb2dVertex
 10
187.0599999532349
 20
-127.0600031895348
 30
0.0
  0
VERTEX
  5
13F
330
13D
100
AcDbEntity
  8
OneHexagon
 62
     7
420
 16777215
370
    35
100
AcDbVertex
100
AcDb2dVertex
 10
221.6599999445851
 20
-147.0000031845499
 30
0.0
  0
VERTEX
  5
140
330
13D
100
AcDbEntity
  8
OneHexagon
 62
     7
420
 16777215
370
    35
100
AcDbVertex
100
AcDb2dVertex
 10
256.259999935935
 20
-127.0600031895348
 30
0.0
  0
VERTEX
  5
141
330
13D
100
AcDbEntity
  8
OneHexagon
 62
     7
420
 16777215
370
    35
100
AcDbVertex
100
AcDb2dVertex
 10
256.1502777137401
 20
-86.80972542181965
 30
0.0
  0
VERTEX
  5
142
330
13D
100
AcDbEntity
  8
OneHexagon
 62
     7
420
 16777215
370
    35
100
AcDbVertex
100
AcDb2dVertex
 10
221.6599999445851
 20
-67.00000320454983
 30
0.0
  0
VERTEX
  5
143
330
13D
100
AcDbEntity
  8
OneHexagon
 62
     7
420
 16777215
370
    35
100
AcDbVertex
100
AcDb2dVertex
 10
187.0599999532349
 20
-86.80972542181965
 30
0.0
  0
VERTEX
  5
144
330
13D
100
AcDbEntity
  8
OneHexagon
 62
     7
420
 16777215
370
    35
100
AcDbVertex
100
AcDb2dVertex
 10
187.0599999532349
 20
-127.0600031895348
 30
0.0
  0
SEQEND
  5
145
330
13D
100
AcDbEntity
  8
OneHexagon
 62
     7
420
 16777215
370
    35
  0
SPLINE
  5
146
330
1F
100
AcDbEntity
  8
OneHexagon
 62
     7
420
 16777215
370
    35
100
AcDbSpline
210
0.0
220
0.0
230
1.0
 70
    27
 71
     3
 72
    11
 73
     7
 74
     0
 42
0.0000000001
 43
0.0000000001
 12
1.0
 22
0.0
 32
0.0
 13
1.0
 23
0.0
 33
0.0
 40
0.0
 40
0.0
 40
0.0
 40
0.0
 40
1.0
 40
1.0
 40
1.0
 40
2.0
 40
2.0
 40
2.0
 40
2.0
 10
279.0764122905653
 20
-104.871773547781
 30
0.0
 10
279.0764122905653
 20
-104.871773547781
 30
0.0
 10
284.7208581881956
 20
-95.09531351126043
 30
0.0
 10
284.7208581881956
 20
-95.09531351126043
 30
0.0
 10
284.7208581881956
 20
-95.09531351126043
 30
0.0
 10
279.0764122905653
 20
-104.871773547781
 30
0.0
 10
279.0764122905653
 20
-104.871773547781
 30
0.0
  0
POLYLINE
  5
147
330
1F
100
AcDbEntity
  8
OneHexagon
 62
     7
420
 16777215
370
    35
100
AcDb2dPolyline
 66
     1
 10
0.0
 20
0.0
 30
0.0
  0
VERTEX
  5
148
330
147
100
AcDbEntity
  8
OneHexagon
 62
     7
420
 16777215
370
    35
100
AcDbVertex
100
AcDb2dVertex
 10
295.6288853563186
 20
-66.99999676195019
 30
0.0
  0
VERTEX
  5
149
330
147
100
AcDbEntity
  8
OneHexagon
 62
     7
420
 16777215
370
    35
100
AcDbVertex
100
AcDb2dVertex
 10
309.8745747878176
 20
-91.75425904866223
 30
0.0
  0
SEQEND
  5
14A
330
147
100
AcDbEntity
  8
OneHexagon
 62
     7
420
 16777215
370
    35
  0
POLYLINE
  5
14B
330
1F
100
AcDbEntity
  8
OneHexagon
 62
     7
420
 16777215
370
    35
100
AcDb2dPolyline
 66
     1
 10
0.0
 20
0.0
 30
0.0
  0
VERTEX
  5
14C
330
14B
100
AcDbEntity
  8
OneHexagon
 62
     7
420
 16777215
370
    35
100
AcDbVertex
100
AcDb2dVertex
 10
301.2733404770416
 20
-127.0600031895348
 30
0.0
  0
VERTEX
  5
14D
330
14B
100
AcDbEntity
  8
OneHexagon
 62
     7
420
 16777215
370
    35
100
AcDbVertex
100
AcDb2dVertex
 10
330.2288888063306
 20
-127.0600031895348
 30
0.0
  0
VERTEX
  5
14E
330
14B
100
AcDbEntity
  8
OneHexagon
 62
     7
420
 16777215
370
    35
100
AcDbVertex
100
AcDb2dVertex
 10
315.5190206854472
 20
-101.5307190851825
 30
0.0
  0
SEQEND
  5
14F
330
14B
100
AcDbEntity
  8
OneHexagon
 62
     7
420
 16777215
370
    35
  0
POLYLINE
  5
150
330
1F
100
AcDbEntity
  8
OneHexagon
 62
     7
420
 16777215
370
    35
100
AcDb2dPolyline
 66
     1
 10
0.0
 20
0.0
 30
0.0
  0
VERTEX
  5
151
330
150
100
AcDbEntity
  8
OneHexagon
 62
     7
420
 16777215
370
    35
100
AcDbVertex
100
AcDb2dVertex
 10
275.1264370440281
 20
-102.591257552667
 30
0.0
  0
VERTEX
  5
152
330
150
100
AcDbEntity
  8
OneHexagon
 62
     7
420
 16777215
370
    35
100
AcDbVertex
100
AcDb2dVertex
 10
261.0288888236303
 20
-127.0600031895348
 30
0.0
  0
VERTEX
  5
153
330
150
100
AcDbEntity
  8
OneHexagon
 62
     7
420
 16777215
370
    35
100
AcDbVertex
100
AcDb2dVertex
 10
289.9844486817823
 20
-127.0600031895348
 30
0.0
  0
SEQEND
  5
154
330
150
100
AcDbEntity
  8
OneHexagon
 62
     7
420
 16777215
370
    35
  0
POLYLINE
  5
155
330
1F
100
AcDbEntity
  8
OneHexagon
 62
     7
420
 16777215
370
    35
100
AcDb2dPolyline
 66
     1
 10
0.0
 20
0.0
 30
0.0
  0
VERTEX
  5
156
330
155
100
AcDbEntity
  8
OneHexagon
 62
     7
420
 16777215
370
    35
100
AcDbVertex
100
AcDb2dVertex
 10
280.7708829416578
 20
-92.81479751614643
 30
0.0
  0
VERTEX
  5
157
330
155
100
AcDbEntity
  8
OneHexagon
 62
     7
420
 16777215
370
    35
100
AcDbVertex
100
AcDb2dVertex
 10
295.6288853563192
 20
-66.99999676195019
 30
0.0
  0
SEQEND
  5
158
330
155
100
AcDbEntity
  8
OneHexagon
 62
     7
420
 16777215
370
    35
  0
SPLINE
  5
159
330
1F
100
AcDbEntity
  8
OneHexagon
 62
     7
420
 16777215
370
    35
100
AcDbSpline
210
0.0
220
0.0
230
1.0
 70
    27
 71
     3
 72
    11
 73
     7
 74
     0
 42
0.0000000001
 43
0.0000000001
 12
1.0
 22
0.0
 32
0.0
 13
1.0
 23
0.0
 33
0.0
 40
0.0
 40
0.0
 40
0.0
 40
0.0
 40
1.0
 40
1.0
 40
1.0
 40
2.0
 40
2.0
 40
2.0
 40
2.0
 10
305.6195707084088
 20
-94.2108883703674
 30
0.0
 10
305.6195707084088
 20
-94.2108883703674
 30
0.0
 10
311.2640166060385
 20
-103.987348406888
 30
0.0
 10
311.2640166060385
 20
-103.987348406888
 30
0.0
 10
311.2640166060385
 20
-103.987348406888
 30
0.0
 10
305.6195707084088
 20
-94.2108883703674
 30
0.0
 10
305.6195707084088
 20
-94.2108883703674
 30
0.0
  0
POLYLINE
  5
15A
330
1F
100
AcDbEntity
  8
OneHexagon
 62
     7
420
 16777215
370
    35
100
AcDb2dPolyline
 66
     1
 10
0.0
 20
0.0
 30
0.0
  0
VERTEX
  5
15B
330
15A
100
AcDbEntity
  8
OneHexagon
 62
     7
420
 16777215
370
    35
100
AcDbVertex
100
AcDb2dVertex
 10
261.0288888236303
 20
-127.0600031895348
 30
0.0
  0
VERTEX
  5
15C
330
15A
100
AcDbEntity
  8
OneHexagon
 62
     7
420
 16777215
370
    35
100
AcDbVertex
100
AcDb2dVertex
 10
295.6288888149801
 20
-147.0000031845499
 30
0.0
  0
VERTEX
  5
15D
330
15A
100
AcDbEntity
  8
OneHexagon
 62
     7
420
 16777215
370
    35
100
AcDbVertex
100
AcDb2dVertex
 10
330.2288888063306
 20
-127.0600031895348
 30
0.0
  0
VERTEX
  5
15E
330
15A
100
AcDbEntity
  8
OneHexagon
 62
     7
420
 16777215
370
    35
100
AcDbVertex
100
AcDb2dVertex
 10
330.1191665841351
 20
-86.80972542181965
 30
0.0
  0
VERTEX
  5
15F
330
15A
100
AcDbEntity
  8
OneHexagon
 62
     7
420
 16777215
370
    35
100
AcDbVertex
100
AcDb2dVertex
 10
295.6288888149801
 20
-67.00000320454983
 30
0.0
  0
VERTEX
  5
160
330
15A
100
AcDbEntity
  8
OneHexagon
 62
     7
420
 16777215
370
    35
100
AcDbVertex
100
AcDb2dVertex
 10
261.0288888236303
 20
-86.80972542181965
 30
0.0
  0
VERTEX
  5
161
330
15A
100
AcDbEntity
  8
OneHexagon
 62
     7
420
 16777215
370
    35
100
AcDbVertex
100
AcDb2dVertex
 10
261.0288888236303
 20
-127.0600031895348
 30
0.0
  0
SEQEND
  5
162
330
15A
100
AcDbEntity
  8
OneHexagon
 62
     7
420
 16777215
370
    35
  0
SPLINE
  5
163
330
1F
100
AcDbEntity
  8
OneHexagon
 62
     7
420
 16777215
370
    35
100
AcDbSpline
210
0.0
220
0.0
230
1.0
 70
    27
 71
     3
 72
    11
 73
     7
 74
     0
 42
0.0000000001
 43
0.0000000001
 12
1.0
 22
0.0
 32
0.0
 13
1.0
 23
0.0
 33
0.0
 40
0.0
 40
0.0
 40
0.0
 40
0.0
 40
1.0
 40
1.0
 40
1.0
 40
2.0
 40
2.0
 40
2.0
 40
2.0
 10
353.0369678276299
 20
-104.871773547781
 30
0.0
 10
353.0369678276299
 20
-104.871773547781
 30
0.0
 10
358.6814137252615
 20
-95.09531351126043
 30
0.0
 10
358.6814137252615
 20
-95.09531351126043
 30
0.0
 10
358.6814137252615
 20
-95.09531351126043
 30
0.0
 10
353.0369678276299
 20
-104.871773547781
 30
0.0
 10
353.0369678276299
 20
-104.871773547781
 30
0.0
  0
POLYLINE
  5
164
330
1F
100
AcDbEntity
  8
OneHexagon
 62
     7
420
 16777215
370
    35
100
AcDb2dPolyline
 66
     1
 10
0.0
 20
0.0
 30
0.0
  0
VERTEX
  5
165
330
164
100
AcDbEntity
  8
OneHexagon
 62
     7
420
 16777215
370
    35
100
AcDbVertex
100
AcDb2dVertex
 10
369.5894408933832
 20
-66.99999676195019
 30
0.0
  0
VERTEX
  5
166
330
164
100
AcDbEntity
  8
OneHexagon
 62
     7
420
 16777215
370
    35
100
AcDbVertex
100
AcDb2dVertex
 10
383.8351303248809
 20
-91.75425904866223
 30
0.0
  0
SEQEND
  5
167
330
164
100
AcDbEntity
  8
OneHexagon
 62
     7
420
 16777215
370
    35
  0
POLYLINE
  5
168
330
1F
100
AcDbEntity
  8
OneHexagon
 62
     7
420
 16777215
370
    35
100
AcDb2dPolyline
 66
     1
 10
0.0
 20
0.0
 30
0.0
  0
VERTEX
  5
169
330
168
100
AcDbEntity
  8
OneHexagon
 62
     7
420
 16777215
370
    35
100
AcDbVertex
100
AcDb2dVertex
 10
375.2338960141076
 20
-127.0600031895348
 30
0.0
  0
VERTEX
  5
16A
330
168
100
AcDbEntity
  8
OneHexagon
 62
     7
420
 16777215
370
    35
100
AcDbVertex
100
AcDb2dVertex
 10
404.1894443433946
 20
-127.0600031895348
 30
0.0
  0
VERTEX
  5
16B
330
168
100
AcDbEntity
  8
OneHexagon
 62
     7
420
 16777215
370
    35
100
AcDbVertex
100
AcDb2dVertex
 10
389.4795762225125
 20
-101.5307190851825
 30
0.0
  0
SEQEND
  5
16C
330
168
100
AcDbEntity
  8
OneHexagon
 62
     7
420
 16777215
370
    35
  0
POLYLINE
  5
16D
330
1F
100
AcDbEntity
  8
OneHexagon
 62
     7
420
 16777215
370
    35
100
AcDb2dPolyline
 66
     1
 10
0.0
 20
0.0
 30
0.0
  0
VERTEX
  5
16E
330
16D
100
AcDbEntity
  8
OneHexagon
 62
     7
420
 16777215
370
    35
100
AcDbVertex
100
AcDb2dVertex
 10
349.0869925810933
 20
-102.591257552667
 30
0.0
  0
VERTEX
  5
16F
330
16D
100
AcDbEntity
  8
OneHexagon
 62
     7
420
 16777215
370
    35
100
AcDbVertex
100
AcDb2dVertex
 10
334.9894443606955
 20
-127.0600031895348
 30
0.0
  0
VERTEX
  5
170
330
16D
100
AcDbEntity
  8
OneHexagon
 62
     7
420
 16777215
370
    35
100
AcDbVertex
100
AcDb2dVertex
 10
363.9450042188482
 20
-127.0600031895348
 30
0.0
  0
SEQEND
  5
171
330
16D
100
AcDbEntity
  8
OneHexagon
 62
     7
420
 16777215
370
    35
  0
POLYLINE
  5
172
330
1F
100
AcDbEntity
  8
OneHexagon
 62
     7
420
 16777215
370
    35
100
AcDb2dPolyline
 66
     1
 10
0.0
 20
0.0
 30
0.0
  0
VERTEX
  5
173
330
172
100
AcDbEntity
  8
OneHexagon
 62
     7
420
 16777215
370
    35
100
AcDbVertex
100
AcDb2dVertex
 10
354.7314384787217
 20
-92.81479751614643
 30
0.0
  0
VERTEX
  5
174
330
172
100
AcDbEntity
  8
OneHexagon
 62
     7
420
 16777215
370
    35
100
AcDbVertex
100
AcDb2dVertex
 10
369.5894408933832
 20
-66.99999676195019
 30
0.0
  0
SEQEND
  5
175
330
172
100
AcDbEntity
  8
OneHexagon
 62
     7
420
 16777215
370
    35
  0
SPLINE
  5
176
330
1F
100
AcDbEntity
  8
OneHexagon
 62
     7
420
 16777215
370
    35
100
AcDbSpline
210
0.0
220
0.0
230
1.0
 70
    27
 71
     3
 72
    11
 73
     7
 74
     0
 42
0.0000000001
 43
0.0000000001
 12
1.0
 22
0.0
 32
0.0
 13
1.0
 23
0.0
 33
0.0
 40
0.0
 40
0.0
 40
0.0
 40
0.0
 40
1.0
 40
1.0
 40
1.0
 40
2.0
 40
2.0
 40
2.0
 40
2.0
 10
379.5801262454754
 20
-94.2108883703674
 30
0.0
 10
379.5801262454754
 20
-94.2108883703674
 30
0.0
 10
385.224572143103
 20
-103.987348406888
 30
0.0
 10
385.224572143103
 20
-103.987348406888
 30
0.0
 10
385.224572143103
 20
-103.987348406888
 30
0.0
 10
379.5801262454754
 20
-94.2108883703674
 30
0.0
 10
379.5801262454754
 20
-94.2108883703674
 30
0.0
  0
POLYLINE
  5
177
330
1F
100
AcDbEntity
  8
OneHexagon
 62
     7
420
 16777215
370
    35
100
AcDb2dPolyline
 66
     1
 10
0.0
 20
0.0
 30
0.0
  0
VERTEX
  5
178
330
177
100
AcDbEntity
  8
OneHexagon
 62
     7
420
 16777215
370
    35
100
AcDbVertex
100
AcDb2dVertex
 10
334.9894443606955
 20
-127.0600031895348
 30
0.0
  0
VERTEX
  5
179
330
177
100
AcDbEntity
  8
OneHexagon
 62
     7
420
 16777215
370
    35
100
AcDbVertex
100
AcDb2dVertex
 10
369.5894443520447
 20
-147.0000031845499
 30
0.0
  0
VERTEX
  5
17A
330
177
100
AcDbEntity
  8
OneHexagon
 62
     7
420
 16777215
370
    35
100
AcDbVertex
100
AcDb2dVertex
 10
404.1894443433946
 20
-127.0600031895348
 30
0.0
  0
VERTEX
  5
17B
330
177
100
AcDbEntity
  8
OneHexagon
 62
     7
420
 16777215
370
    35
100
AcDbVertex
100
AcDb2dVertex
 10
404.0797221211991
 20
-86.80972542181965
 30
0.0
  0
VERTEX
  5
17C
330
177
100
AcDbEntity
  8
OneHexagon
 62
     7
420
 16777215
370
    35
100
AcDbVertex
100
AcDb2dVertex
 10
369.5894443520447
 20
-67.00000320454983
 30
0.0
  0
VERTEX
  5
17D
330
177
100
AcDbEntity
  8
OneHexagon
 62
     7
420
 16777215
370
    35
100
AcDbVertex
100
AcDb2dVertex
 10
334.9894443606955
 20
-86.80972542181965
 30
0.0
  0
VERTEX
  5
17E
330
177
100
AcDbEntity
  8
OneHexagon
 62
     7
420
 16777215
370
    35
100
AcDbVertex
100
AcDb2dVertex
 10
334.9894443606955
 20
-127.0600031895348
 30
0.0
  0
SEQEND
  5
17F
330
177
100
AcDbEntity
  8
OneHexagon
 62
     7
420
 16777215
370
    35
  0
SPLINE
  5
180
330
1F
100
AcDbEntity
  8
OneHexagon
 62
     7
420
 16777215
370
    35
100
AcDbSpline
210
0.0
220
0.0
230
1.0
 70
    27
 71
     3
 72
    11
 73
     7
 74
     0
 42
0.0000000001
 43
0.0000000001
 12
1.0
 22
0.0
 32
0.0
 13
1.0
 23
0.0
 33
0.0
 40
0.0
 40
0.0
 40
0.0
 40
0.0
 40
1.0
 40
1.0
 40
1.0
 40
2.0
 40
2.0
 40
2.0
 40
2.0
 10
426.9975233646965
 20
-104.871773547781
 30
0.0
 10
426.9975233646965
 20
-104.871773547781
 30
0.0
 10
432.6419692623274
 20
-95.09531351126043
 30
0.0
 10
432.6419692623274
 20
-95.09531351126043
 30
0.0
 10
432.6419692623274
 20
-95.09531351126043
 30
0.0
 10
426.9975233646965
 20
-104.871773547781
 30
0.0
 10
426.9975233646965
 20
-104.871773547781
 30
0.0
  0
POLYLINE
  5
181
330
1F
100
AcDbEntity
  8
OneHexagon
 62
     7
420
 16777215
370
    35
100
AcDb2dPolyline
 66
     1
 10
0.0
 20
0.0
 30
0.0
  0
VERTEX
  5
182
330
181
100
AcDbEntity
  8
OneHexagon
 62
     7
420
 16777215
370
    35
100
AcDbVertex
100
AcDb2dVertex
 10
443.5499964304497
 20
-66.99999676195019
 30
0.0
  0
VERTEX
  5
183
330
181
100
AcDbEntity
  8
OneHexagon
 62
     7
420
 16777215
370
    35
100
AcDbVertex
100
AcDb2dVertex
 10
457.7956858619514
 20
-91.75425904866223
 30
0.0
  0
SEQEND
  5
184
330
181
100
AcDbEntity
  8
OneHexagon
 62
     7
420
 16777215
370
    35
  0
POLYLINE
  5
185
330
1F
100
AcDbEntity
  8
OneHexagon
 62
     7
420
 16777215
370
    35
100
AcDb2dPolyline
 66
     1
 10
0.0
 20
0.0
 30
0.0
  0
VERTEX
  5
186
330
185
100
AcDbEntity
  8
OneHexagon
 62
     7
420
 16777215
370
    35
100
AcDbVertex
100
AcDb2dVertex
 10
449.1944515511741
 20
-127.0600031895348
 30
0.0
  0
VERTEX
  5
187
330
185
100
AcDbEntity
  8
OneHexagon
 62
     7
420
 16777215
370
    35
100
AcDbVertex
100
AcDb2dVertex
 10
478.1499998804611
 20
-127.0600031895348
 30
0.0
  0
VERTEX
  5
188
330
185
100
AcDbEntity
  8
OneHexagon
 62
     7
420
 16777215
370
    35
100
AcDbVertex
100
AcDb2dVertex
 10
463.4401317595791
 20
-101.5307190851825
 30
0.0
  0
SEQEND
  5
189
330
185
100
AcDbEntity
  8
OneHexagon
 62
     7
420
 16777215
370
    35
  0
POLYLINE
  5
18A
330
1F
100
AcDbEntity
  8
OneHexagon
 62
     7
420
 16777215
370
    35
100
AcDb2dPolyline
 66
     1
 10
0.0
 20
0.0
 30
0.0
  0
VERTEX
  5
18B
330
18A
100
AcDbEntity
  8
OneHexagon
 62
     7
420
 16777215
370
    35
100
AcDbVertex
100
AcDb2dVertex
 10
423.0475481181605
 20
-102.591257552667
 30
0.0
  0
VERTEX
  5
18C
330
18A
100
AcDbEntity
  8
OneHexagon
 62
     7
420
 16777215
370
    35
100
AcDbVertex
100
AcDb2dVertex
 10
408.9499998977615
 20
-127.0600031895348
 30
0.0
  0
VERTEX
  5
18D
330
18A
100
AcDbEntity
  8
OneHexagon
 62
     7
420
 16777215
370
    35
100
AcDbVertex
100
AcDb2dVertex
 10
437.9055597559148
 20
-127.0600031895348
 30
0.0
  0
SEQEND
  5
18E
330
18A
100
AcDbEntity
  8
OneHexagon
 62
     7
420
 16777215
370
    35
  0
POLYLINE
  5
18F
330
1F
100
AcDbEntity
  8
OneHexagon
 62
     7
420
 16777215
370
    35
100
AcDb2dPolyline
 66
     1
 10
0.0
 20
0.0
 30
0.0
  0
VERTEX
  5
190
330
18F
100
AcDbEntity
  8
OneHexagon
 62
     7
420
 16777215
370
    35
100
AcDbVertex
100
AcDb2dVertex
 10
428.6919940157883
 20
-92.81479751614643
 30
0.0
  0
VERTEX
  5
191
330
18F
100
AcDbEntity
  8
OneHexagon
 62
     7
420
 16777215
370
    35
100
AcDbVertex
100
AcDb2dVertex
 10
443.5499964304497
 20
-66.99999676195019
 30
0.0
  0
SEQEND
  5
192
330
18F
100
AcDbEntity
  8
OneHexagon
 62
     7
420
 16777215
370
    35
  0
SPLINE
  5
193
330
1F
100
AcDbEntity
  8
OneHexagon
 62
     7
420
 16777215
370
    35
100
AcDbSpline
210
0.0
220
0.0
230
1.0
 70
    27
 71
     3
 72
    11
 73
     7
 74
     0
 42
0.0000000001
 43
0.0000000001
 12
1.0
 22
0.0
 32
0.0
 13
1.0
 23
0.0
 33
0.0
 40
0.0
 40
0.0
 40
0.0
 40
0.0
 40
1.0
 40
1.0
 40
1.0
 40
2.0
 40
2.0
 40
2.0
 40
2.0
 10
453.5406817825419
 20
-94.2108883703674
 30
0.0
 10
453.5406817825419
 20
-94.2108883703674
 30
0.0
 10
459.1851276801696
 20
-103.987348406888
 30
0.0
 10
459.1851276801696
 20
-103.987348406888
 30
0.0
 10
459.1851276801696
 20
-103.987348406888
 30
0.0
 10
453.5406817825419
 20
-94.2108883703674
 30
0.0
 10
453.5406817825419
 20
-94.2108883703674
 30
0.0
  0
POLYLINE
  5
194
330
1F
100
AcDbEntity
  8
OneHexagon
 62
     7
420
 16777215
370
    35
100
AcDb2dPolyline
 66
     1
 10
0.0
 20
0.0
 30
0.0
  0
VERTEX
  5
195
330
194
100
AcDbEntity
  8
OneHexagon
 62
     7
420
 16777215
370
    35
100
AcDbVertex
100
AcDb2dVertex
 10
408.9499998977615
 20
-127.0600031895348
 30
0.0
  0
VERTEX
  5
196
330
194
100
AcDbEntity
  8
OneHexagon
 62
     7
420
 16777215
370
    35
100
AcDbVertex
100
AcDb2dVertex
 10
443.5499998891113
 20
-147.0000031845499
 30
0.0
  0
VERTEX
  5
197
330
194
100
AcDbEntity
  8
OneHexagon
 62
     7
420
 16777215
370
    35
100
AcDbVertex
100
AcDb2dVertex
 10
478.1499998804611
 20
-127.0600031895348
 30
0.0
  0
VERTEX
  5
198
330
194
100
AcDbEntity
  8
OneHexagon
 62
     7
420
 16777215
370
    35
100
AcDbVertex
100
AcDb2dVertex
 10
478.0402776582657
 20
-86.80972542181965
 30
0.0
  0
VERTEX
  5
199
330
194
100
AcDbEntity
  8
OneHexagon
 62
     7
420
 16777215
370
    35
100
AcDbVertex
100
AcDb2dVertex
 10
443.5499998891113
 20
-67.00000320454983
 30
0.0
  0
VERTEX
  5
19A
330
194
100
AcDbEntity
  8
OneHexagon
 62
     7
420
 16777215
370
    35
100
AcDbVertex
100
AcDb2dVertex
 10
408.9499998977615
 20
-86.80972542181965
 30
0.0
  0
VERTEX
  5
19B
330
194
100
AcDbEntity
  8
OneHexagon
 62
     7
420
 16777215
370
    35
100
AcDbVertex
100
AcDb2dVertex
 10
408.9499998977615
 20
-127.0600031895348
 30
0.0
  0
SEQEND
  5
19C
330
194
100
AcDbEntity
  8
OneHexagon
 62
     7
420
 16777215
370
    35
  0
SPLINE
  5
19D
330
1F
100
AcDbEntity
  8
OneHexagon
 62
     7
420
 16777215
370
    35
100
AcDbSpline
210
0.0
220
0.0
230
1.0
 70
    27
 71
     3
 72
    11
 73
     7
 74
     0
 42
0.0000000001
 43
0.0000000001
 12
1.0
 22
0.0
 32
0.0
 13
1.0
 23
0.0
 33
0.0
 40
0.0
 40
0.0
 40
0.0
 40
0.0
 40
1.0
 40
1.0
 40
1.0
 40
2.0
 40
2.0
 40
2.0
 40
2.0
 10
20.15313457752051
 20
-169.871773531531
 30
0.0
 10
20.15313457752051
 20
-169.871773531531
 30
0.0
 10
25.79758047515049
 20
-160.0953134950104
 30
0.0
 10
25.79758047515049
 20
-160.0953134950104
 30
0.0
 10
25.79758047515049
 20
-160.0953134950104
 30
0.0
 10
20.15313457752051
 20
-169.871773531531
 30
0.0
 10
20.15313457752051
 20
-169.871773531531
 30
0.0
  0
POLYLINE
  5
19E
330
1F
100
AcDbEntity
  8
OneHexagon
 62
     7
420
 16777215
370
    35
100
AcDb2dPolyline
 66
     1
 10
0.0
 20
0.0
 30
0.0
  0
VERTEX
  5
19F
330
19E
100
AcDbEntity
  8
OneHexagon
 62
     7
420
 16777215
370
    35
100
AcDbVertex
100
AcDb2dVertex
 10
36.70560764327412
 20
-131.9999967457002
 30
0.0
  0
VERTEX
  5
1A0
330
19E
100
AcDbEntity
  8
OneHexagon
 62
     7
420
 16777215
370
    35
100
AcDbVertex
100
AcDb2dVertex
 10
50.95129707477318
 20
-156.7542590324122
 30
0.0
  0
SEQEND
  5
1A1
330
19E
100
AcDbEntity
  8
OneHexagon
 62
     7
420
 16777215
370
    35
  0
POLYLINE
  5
1A2
330
1F
100
AcDbEntity
  8
OneHexagon
 62
     7
420
 16777215
370
    35
100
AcDb2dPolyline
 66
     1
 10
0.0
 20
0.0
 30
0.0
  0
VERTEX
  5
1A3
330
1A2
100
AcDbEntity
  8
OneHexagon
 62
     7
420
 16777215
370
    35
100
AcDbVertex
100
AcDb2dVertex
 10
42.3500627639969
 20
-192.0600031732848
 30
0.0
  0
VERTEX
  5
1A4
330
1A2
100
AcDbEntity
  8
OneHexagon
 62
     7
420
 16777215
370
    35
100
AcDbVertex
100
AcDb2dVertex
 10
71.3056110932852
 20
-192.0600031732848
 30
0.0
  0
VERTEX
  5
1A5
330
1A2
100
AcDbEntity
  8
OneHexagon
 62
     7
420
 16777215
370
    35
100
AcDbVertex
100
AcDb2dVertex
 10
56.59574297240252
 20
-166.5307190689325
 30
0.0
  0
SEQEND
  5
1A6
330
1A2
100
AcDbEntity
  8
OneHexagon
 62
     7
420
 16777215
370
    35
  0
POLYLINE
  5
1A7
330
1F
100
AcDbEntity
  8
OneHexagon
 62
     7
420
 16777215
370
    35
100
AcDb2dPolyline
 66
     1
 10
0.0
 20
0.0
 30
0.0
  0
VERTEX
  5
1A8
330
1A7
100
AcDbEntity
  8
OneHexagon
 62
     7
420
 16777215
370
    35
100
AcDbVertex
100
AcDb2dVertex
 10
16.20315933098333
 20
-167.591257536417
 30
0.0
  0
VERTEX
  5
1A9
330
1A7
100
AcDbEntity
  8
OneHexagon
 62
     7
420
 16777215
370
    35
100
AcDbVertex
100
AcDb2dVertex
 10
2.105611110585531
 20
-192.0600031732848
 30
0.0
  0
VERTEX
  5
1AA
330
1A7
100
AcDbEntity
  8
OneHexagon
 62
     7
420
 16777215
370
    35
100
AcDbVertex
100
AcDb2dVertex
 10
31.06117096873791
 20
-192.0600031732848
 30
0.0
  0
SEQEND
  5
1AB
330
1A7
100
AcDbEntity
  8
OneHexagon
 62
     7
420
 16777215
370
    35
  0
POLYLINE
  5
1AC
330
1F
100
AcDbEntity
  8
OneHexagon
 62
     7
420
 16777215
370
    35
100
AcDb2dPolyline
 66
     1
 10
0.0
 20
0.0
 30
0.0
  0
VERTEX
  5
1AD
330
1AC
100
AcDbEntity
  8
OneHexagon
 62
     7
420
 16777215
370
    35
100
AcDbVertex
100
AcDb2dVertex
 10
21.84760522861299
 20
-157.8147974998964
 30
0.0
  0
VERTEX
  5
1AE
330
1AC
100
AcDbEntity
  8
OneHexagon
 62
     7
420
 16777215
370
    35
100
AcDbVertex
100
AcDb2dVertex
 10
36.70560764327476
 20
-131.9999967457002
 30
0.0
  0
SEQEND
  5
1AF
330
1AC
100
AcDbEntity
  8
OneHexagon
 62
     7
420
 16777215
370
    35
  0
SPLINE
  5
1B0
330
1F
100
AcDbEntity
  8
OneHexagon
 62
     7
420
 16777215
370
    35
100
AcDbSpline
210
0.0
220
0.0
230
1.0
 70
    27
 71
     3
 72
    11
 73
     7
 74
     0
 42
0.0000000001
 43
0.0000000001
 12
1.0
 22
0.0
 32
0.0
 13
1.0
 23
0.0
 33
0.0
 40
0.0
 40
0.0
 40
0.0
 40
0.0
 40
1.0
 40
1.0
 40
1.0
 40
2.0
 40
2.0
 40
2.0
 40
2.0
 10
46.69629299536436
 20
-159.2108883541174
 30
0.0
 10
46.69629299536436
 20
-159.2108883541174
 30
0.0
 10
52.3407388929937
 20
-168.9873483906379
 30
0.0
 10
52.3407388929937
 20
-168.9873483906379
 30
0.0
 10
52.3407388929937
 20
-168.9873483906379
 30
0.0
 10
46.69629299536436
 20
-159.2108883541174
 30
0.0
 10
46.69629299536436
 20
-159.2108883541174
 30
0.0
  0
POLYLINE
  5
1B1
330
1F
100
AcDbEntity
  8
OneHexagon
 62
     7
420
 16777215
370
    35
100
AcDb2dPolyline
 66
     1
 10
0.0
 20
0.0
 30
0.0
  0
VERTEX
  5
1B2
330
1B1
100
AcDbEntity
  8
OneHexagon
 62
     7
420
 16777215
370
    35
100
AcDbVertex
100
AcDb2dVertex
 10
2.105611110585531
 20
-192.0600031732848
 30
0.0
  0
VERTEX
  5
1B3
330
1B1
100
AcDbEntity
  8
OneHexagon
 62
     7
420
 16777215
370
    35
100
AcDbVertex
100
AcDb2dVertex
 10
36.70561110193569
 20
-212.0000031682999
 30
0.0
  0
VERTEX
  5
1B4
330
1B1
100
AcDbEntity
  8
OneHexagon
 62
     7
420
 16777215
370
    35
100
AcDbVertex
100
AcDb2dVertex
 10
71.3056110932852
 20
-192.0600031732848
 30
0.0
  0
VERTEX
  5
1B5
330
1B1
100
AcDbEntity
  8
OneHexagon
 62
     7
420
 16777215
370
    35
100
AcDbVertex
100
AcDb2dVertex
 10
71.19588887109039
 20
-151.8097254055696
 30
0.0
  0
VERTEX
  5
1B6
330
1B1
100
AcDbEntity
  8
OneHexagon
 62
     7
420
 16777215
370
    35
100
AcDbVertex
100
AcDb2dVertex
 10
36.70561110193569
 20
-132.0000031882998
 30
0.0
  0
VERTEX
  5
1B7
330
1B1
100
AcDbEntity
  8
OneHexagon
 62
     7
420
 16777215
370
    35
100
AcDbVertex
100
AcDb2dVertex
 10
2.105611110585531
 20
-151.8097254055696
 30
0.0
  0
VERTEX
  5
1B8
330
1B1
100
AcDbEntity
  8
OneHexagon
 62
     7
420
 16777215
370
    35
100
AcDbVertex
100
AcDb2dVertex
 10
2.105611110585531
 20
-192.0600031732848
 30
0.0
  0
SEQEND
  5
1B9
330
1B1
100
AcDbEntity
  8
OneHexagon
 62
     7
420
 16777215
370
    35
  0
SPLINE
  5
1BA
330
1F
100
AcDbEntity
  8
OneHexagon
 62
     7
420
 16777215
370
    35
100
AcDbSpline
210
0.0
220
0.0
230
1.0
 70
    27
 71
     3
 72
    11
 73
     7
 74
     0
 42
0.0000000001
 43
0.0000000001
 12
1.0
 22
0.0
 32
0.0
 13
1.0
 23
0.0
 33
0.0
 40
0.0
 40
0.0
 40
0.0
 40
0.0
 40
1.0
 40
1.0
 40
1.0
 40
2.0
 40
2.0
 40
2.0
 40
2.0
 10
94.11369011458547
 20
-169.871773531531
 30
0.0
 10
94.11369011458547
 20
-169.871773531531
 30
0.0
 10
99.75813601221512
 20
-160.0953134950104
 30
0.0
 10
99.75813601221512
 20
-160.0953134950104
 30
0.0
 10
99.75813601221512
 20
-160.0953134950104
 30
0.0
 10
94.11369011458547
 20
-169.871773531531
 30
0.0
 10
94.11369011458547
 20
-169.871773531531
 30
0.0
  0
POLYLINE
  5
1BB
330
1F
100
AcDbEntity
  8
OneHexagon
 62
     7
420
 16777215
370
    35
100
AcDb2dPolyline
 66
     1
 10
0.0
 20
0.0
 30
0.0
  0
VERTEX
  5
1BC
330
1BB
100
AcDbEntity
  8
OneHexagon
 62
     7
420
 16777215
370
    35
100
AcDbVertex
100
AcDb2dVertex
 10
110.6661631803387
 20
-131.9999967457002
 30
0.0
  0
VERTEX
  5
1BD
330
1BB
100
AcDbEntity
  8
OneHexagon
 62
     7
420
 16777215
370
    35
100
AcDbVertex
100
AcDb2dVertex
 10
124.9118526118375
 20
-156.7542590324122
 30
0.0
  0
SEQEND
  5
1BE
330
1BB
100
AcDbEntity
  8
OneHexagon
 62
     7
420
 16777215
370
    35
  0
POLYLINE
  5
1BF
330
1F
100
AcDbEntity
  8
OneHexagon
 62
     7
420
 16777215
370
    35
100
AcDb2dPolyline
 66
     1
 10
0.0
 20
0.0
 30
0.0
  0
VERTEX
  5
1C0
330
1BF
100
AcDbEntity
  8
OneHexagon
 62
     7
420
 16777215
370
    35
100
AcDbVertex
100
AcDb2dVertex
 10
116.3106183010619
 20
-192.0600031732848
 30
0.0
  0
VERTEX
  5
1C1
330
1BF
100
AcDbEntity
  8
OneHexagon
 62
     7
420
 16777215
370
    35
100
AcDbVertex
100
AcDb2dVertex
 10
145.2661666303501
 20
-192.0600031732848
 30
0.0
  0
VERTEX
  5
1C2
330
1BF
100
AcDbEntity
  8
OneHexagon
 62
     7
420
 16777215
370
    35
100
AcDbVertex
100
AcDb2dVertex
 10
130.5562985094675
 20
-166.5307190689325
 30
0.0
  0
SEQEND
  5
1C3
330
1BF
100
AcDbEntity
  8
OneHexagon
 62
     7
420
 16777215
370
    35
  0
POLYLINE
  5
1C4
330
1F
100
AcDbEntity
  8
OneHexagon
 62
     7
420
 16777215
370
    35
100
AcDb2dPolyline
 66
     1
 10
0.0
 20
0.0
 30
0.0
  0
VERTEX
  5
1C5
330
1C4
100
AcDbEntity
  8
OneHexagon
 62
     7
420
 16777215
370
    35
100
AcDbVertex
100
AcDb2dVertex
 10
90.16371486804765
 20
-167.591257536417
 30
0.0
  0
VERTEX
  5
1C6
330
1C4
100
AcDbEntity
  8
OneHexagon
 62
     7
420
 16777215
370
    35
100
AcDbVertex
100
AcDb2dVertex
 10
76.06616664765016
 20
-192.0600031732848
 30
0.0
  0
VERTEX
  5
1C7
330
1C4
100
AcDbEntity
  8
OneHexagon
 62
     7
420
 16777215
370
    35
100
AcDbVertex
100
AcDb2dVertex
 10
105.0217265058025
 20
-192.0600031732848
 30
0.0
  0
SEQEND
  5
1C8
330
1C4
100
AcDbEntity
  8
OneHexagon
 62
     7
420
 16777215
370
    35
  0
POLYLINE
  5
1C9
330
1F
100
AcDbEntity
  8
OneHexagon
 62
     7
420
 16777215
370
    35
100
AcDb2dPolyline
 66
     1
 10
0.0
 20
0.0
 30
0.0
  0
VERTEX
  5
1CA
330
1C9
100
AcDbEntity
  8
OneHexagon
 62
     7
420
 16777215
370
    35
100
AcDbVertex
100
AcDb2dVertex
 10
95.80816076567763
 20
-157.8147974998964
 30
0.0
  0
VERTEX
  5
1CB
330
1C9
100
AcDbEntity
  8
OneHexagon
 62
     7
420
 16777215
370
    35
100
AcDbVertex
100
AcDb2dVertex
 10
110.6661631803394
 20
-131.9999967457002
 30
0.0
  0
SEQEND
  5
1CC
330
1C9
100
AcDbEntity
  8
OneHexagon
 62
     7
420
 16777215
370
    35
  0
SPLINE
  5
1CD
330
1F
100
AcDbEntity
  8
OneHexagon
 62
     7
420
 16777215
370
    35
100
AcDbSpline
210
0.0
220
0.0
230
1.0
 70
    27
 71
     3
 72
    11
 73
     7
 74
     0
 42
0.0000000001
 43
0.0000000001
 12
1.0
 22
0.0
 32
0.0
 13
1.0
 23
0.0
 33
0.0
 40
0.0
 40
0.0
 40
0.0
 40
0.0
 40
1.0
 40
1.0
 40
1.0
 40
2.0
 40
2.0
 40
2.0
 40
2.0
 10
120.656848532429
 20
-159.2108883541174
 30
0.0
 10
120.656848532429
 20
-159.2108883541174
 30
0.0
 10
126.3012944300583
 20
-168.9873483906379
 30
0.0
 10
126.3012944300583
 20
-168.9873483906379
 30
0.0
 10
126.3012944300583
 20
-168.9873483906379
 30
0.0
 10
120.656848532429
 20
-159.2108883541174
 30
0.0
 10
120.656848532429
 20
-159.2108883541174
 30
0.0
  0
POLYLINE
  5
1CE
330
1F
100
AcDbEntity
  8
OneHexagon
 62
     7
420
 16777215
370
    35
100
AcDb2dPolyline
 66
     1
 10
0.0
 20
0.0
 30
0.0
  0
VERTEX
  5
1CF
330
1CE
100
AcDbEntity
  8
OneHexagon
 62
     7
420
 16777215
370
    35
100
AcDbVertex
100
AcDb2dVertex
 10
76.06616664765016
 20
-192.0600031732848
 30
0.0
  0
VERTEX
  5
1D0
330
1CE
100
AcDbEntity
  8
OneHexagon
 62
     7
420
 16777215
370
    35
100
AcDbVertex
100
AcDb2dVertex
 10
110.6661666390003
 20
-212.0000031682999
 30
0.0
  0
VERTEX
  5
1D1
330
1CE
100
AcDbEntity
  8
OneHexagon
 62
     7
420
 16777215
370
    35
100
AcDbVertex
100
AcDb2dVertex
 10
145.2661666303501
 20
-192.0600031732848
 30
0.0
  0
VERTEX
  5
1D2
330
1CE
100
AcDbEntity
  8
OneHexagon
 62
     7
420
 16777215
370
    35
100
AcDbVertex
100
AcDb2dVertex
 10
145.1564444081554
 20
-151.8097254055696
 30
0.0
  0
VERTEX
  5
1D3
330
1CE
100
AcDbEntity
  8
OneHexagon
 62
     7
420
 16777215
370
    35
100
AcDbVertex
100
AcDb2dVertex
 10
110.6661666390003
 20
-132.0000031882998
 30
0.0
  0
VERTEX
  5
1D4
330
1CE
100
AcDbEntity
  8
OneHexagon
 62
     7
420
 16777215
370
    35
100
AcDbVertex
100
AcDb2dVertex
 10
76.06616664765016
 20
-151.8097254055696
 30
0.0
  0
VERTEX
  5
1D5
330
1CE
100
AcDbEntity
  8
OneHexagon
 62
     7
420
 16777215
370
    35
100
AcDbVertex
100
AcDb2dVertex
 10
76.06616664765016
 20
-192.0600031732848
 30
0.0
  0
SEQEND
  5
1D6
330
1CE
100
AcDbEntity
  8
OneHexagon
 62
     7
420
 16777215
370
    35
  0
SPLINE
  5
1D7
330
1F
100
AcDbEntity
  8
OneHexagon
 62
     7
420
 16777215
370
    35
100
AcDbSpline
210
0.0
220
0.0
230
1.0
 70
    27
 71
     3
 72
    11
 73
     7
 74
     0
 42
0.0000000001
 43
0.0000000001
 12
1.0
 22
0.0
 32
0.0
 13
1.0
 23
0.0
 33
0.0
 40
0.0
 40
0.0
 40
0.0
 40
0.0
 40
1.0
 40
1.0
 40
1.0
 40
2.0
 40
2.0
 40
2.0
 40
2.0
 10
168.0742456516501
 20
-169.871773531531
 30
0.0
 10
168.0742456516501
 20
-169.871773531531
 30
0.0
 10
173.7186915492801
 20
-160.0953134950104
 30
0.0
 10
173.7186915492801
 20
-160.0953134950104
 30
0.0
 10
173.7186915492801
 20
-160.0953134950104
 30
0.0
 10
168.0742456516501
 20
-169.871773531531
 30
0.0
 10
168.0742456516501
 20
-169.871773531531
 30
0.0
  0
POLYLINE
  5
1D8
330
1F
100
AcDbEntity
  8
OneHexagon
 62
     7
420
 16777215
370
    35
100
AcDb2dPolyline
 66
     1
 10
0.0
 20
0.0
 30
0.0
  0
VERTEX
  5
1D9
330
1D8
100
AcDbEntity
  8
OneHexagon
 62
     7
420
 16777215
370
    35
100
AcDbVertex
100
AcDb2dVertex
 10
184.626718717404
 20
-131.9999967457002
 30
0.0
  0
VERTEX
  5
1DA
330
1D8
100
AcDbEntity
  8
OneHexagon
 62
     7
420
 16777215
370
    35
100
AcDbVertex
100
AcDb2dVertex
 10
198.8724081489025
 20
-156.7542590324122
 30
0.0
  0
SEQEND
  5
1DB
330
1D8
100
AcDbEntity
  8
OneHexagon
 62
     7
420
 16777215
370
    35
  0
POLYLINE
  5
1DC
330
1F
100
AcDbEntity
  8
OneHexagon
 62
     7
420
 16777215
370
    35
100
AcDb2dPolyline
 66
     1
 10
0.0
 20
0.0
 30
0.0
  0
VERTEX
  5
1DD
330
1DC
100
AcDbEntity
  8
OneHexagon
 62
     7
420
 16777215
370
    35
100
AcDbVertex
100
AcDb2dVertex
 10
190.2711738381265
 20
-192.0600031732848
 30
0.0
  0
VERTEX
  5
1DE
330
1DC
100
AcDbEntity
  8
OneHexagon
 62
     7
420
 16777215
370
    35
100
AcDbVertex
100
AcDb2dVertex
 10
219.2267221674154
 20
-192.0600031732848
 30
0.0
  0
VERTEX
  5
1DF
330
1DC
100
AcDbEntity
  8
OneHexagon
 62
     7
420
 16777215
370
    35
100
AcDbVertex
100
AcDb2dVertex
 10
204.5168540465321
 20
-166.5307190689325
 30
0.0
  0
SEQEND
  5
1E0
330
1DC
100
AcDbEntity
  8
OneHexagon
 62
     7
420
 16777215
370
    35
  0
POLYLINE
  5
1E1
330
1F
100
AcDbEntity
  8
OneHexagon
 62
     7
420
 16777215
370
    35
100
AcDb2dPolyline
 66
     1
 10
0.0
 20
0.0
 30
0.0
  0
VERTEX
  5
1E2
330
1E1
100
AcDbEntity
  8
OneHexagon
 62
     7
420
 16777215
370
    35
100
AcDbVertex
100
AcDb2dVertex
 10
164.1242704051129
 20
-167.591257536417
 30
0.0
  0
VERTEX
  5
1E3
330
1E1
100
AcDbEntity
  8
OneHexagon
 62
     7
420
 16777215
370
    35
100
AcDbVertex
100
AcDb2dVertex
 10
150.0267221847151
 20
-192.0600031732848
 30
0.0
  0
VERTEX
  5
1E4
330
1E1
100
AcDbEntity
  8
OneHexagon
 62
     7
420
 16777215
370
    35
100
AcDbVertex
100
AcDb2dVertex
 10
178.9822820428672
 20
-192.0600031732848
 30
0.0
  0
SEQEND
  5
1E5
330
1E1
100
AcDbEntity
  8
OneHexagon
 62
     7
420
 16777215
370
    35
  0
POLYLINE
  5
1E6
330
1F
100
AcDbEntity
  8
OneHexagon
 62
     7
420
 16777215
370
    35
100
AcDb2dPolyline
 66
     1
 10
0.0
 20
0.0
 30
0.0
  0
VERTEX
  5
1E7
330
1E6
100
AcDbEntity
  8
OneHexagon
 62
     7
420
 16777215
370
    35
100
AcDbVertex
100
AcDb2dVertex
 10
169.7687163027426
 20
-157.8147974998964
 30
0.0
  0
VERTEX
  5
1E8
330
1E6
100
AcDbEntity
  8
OneHexagon
 62
     7
420
 16777215
370
    35
100
AcDbVertex
100
AcDb2dVertex
 10
184.626718717404
 20
-131.9999967457002
 30
0.0
  0
SEQEND
  5
1E9
330
1E6
100
AcDbEntity
  8
OneHexagon
 62
     7
420
 16777215
370
    35
  0
SPLINE
  5
1EA
330
1F
100
AcDbEntity
  8
OneHexagon
 62
     7
420
 16777215
370
    35
100
AcDbSpline
210
0.0
220
0.0
230
1.0
 70
    27
 71
     3
 72
    11
 73
     7
 74
     0
 42
0.0000000001
 43
0.0000000001
 12
1.0
 22
0.0
 32
0.0
 13
1.0
 23
0.0
 33
0.0
 40
0.0
 40
0.0
 40
0.0
 40
0.0
 40
1.0
 40
1.0
 40
1.0
 40
2.0
 40
2.0
 40
2.0
 40
2.0
 10
194.6174040694943
 20
-159.2108883541174
 30
0.0
 10
194.6174040694943
 20
-159.2108883541174
 30
0.0
 10
200.2618499671233
 20
-168.9873483906379
 30
0.0
 10
200.2618499671233
 20
-168.9873483906379
 30
0.0
 10
200.2618499671233
 20
-168.9873483906379
 30
0.0
 10
194.6174040694943
 20
-159.2108883541174
 30
0.0
 10
194.6174040694943
 20
-159.2108883541174
 30
0.0
  0
POLYLINE
  5
1EB
330
1F
100
AcDbEntity
  8
OneHexagon
 62
     7
420
 16777215
370
    35
100
AcDb2dPolyline
 66
     1
 10
0.0
 20
0.0
 30
0.0
  0
VERTEX
  5
1EC
330
1EB
100
AcDbEntity
  8
OneHexagon
 62
     7
420
 16777215
370
    35
100
AcDbVertex
100
AcDb2dVertex
 10
150.0267221847151
 20
-192.0600031732848
 30
0.0
  0
VERTEX
  5
1ED
330
1EB
100
AcDbEntity
  8
OneHexagon
 62
     7
420
 16777215
370
    35
100
AcDbVertex
100
AcDb2dVertex
 10
184.6267221760656
 20
-212.0000031682999
 30
0.0
  0
VERTEX
  5
1EE
330
1EB
100
AcDbEntity
  8
OneHexagon
 62
     7
420
 16777215
370
    35
100
AcDbVertex
100
AcDb2dVertex
 10
219.2267221674154
 20
-192.0600031732848
 30
0.0
  0
VERTEX
  5
1EF
330
1EB
100
AcDbEntity
  8
OneHexagon
 62
     7
420
 16777215
370
    35
100
AcDbVertex
100
AcDb2dVertex
 10
219.1169999452206
 20
-151.8097254055696
 30
0.0
  0
VERTEX
  5
1F0
330
1EB
100
AcDbEntity
  8
OneHexagon
 62
     7
420
 16777215
370
    35
100
AcDbVertex
100
AcDb2dVertex
 10
184.6267221760656
 20
-132.0000031882998
 30
0.0
  0
VERTEX
  5
1F1
330
1EB
100
AcDbEntity
  8
OneHexagon
 62
     7
420
 16777215
370
    35
100
AcDbVertex
100
AcDb2dVertex
 10
150.0267221847151
 20
-151.8097254055696
 30
0.0
  0
VERTEX
  5
1F2
330
1EB
100
AcDbEntity
  8
OneHexagon
 62
     7
420
 16777215
370
    35
100
AcDbVertex
100
AcDb2dVertex
 10
150.0267221847151
 20
-192.0600031732848
 30
0.0
  0
SEQEND
  5
1F3
330
1EB
100
AcDbEntity
  8
OneHexagon
 62
     7
420
 16777215
370
    35
  0
SPLINE
  5
1F4
330
1F
100
AcDbEntity
  8
OneHexagon
 62
     7
420
 16777215
370
    35
100
AcDbSpline
210
0.0
220
0.0
230
1.0
 70
    27
 71
     3
 72
    11
 73
     7
 74
     0
 42
0.0000000001
 43
0.0000000001
 12
1.0
 22
0.0
 32
0.0
 13
1.0
 23
0.0
 33
0.0
 40
0.0
 40
0.0
 40
0.0
 40
0.0
 40
1.0
 40
1.0
 40
1.0
 40
2.0
 40
2.0
 40
2.0
 40
2.0
 10
242.0348011887154
 20
-169.871773531531
 30
0.0
 10
242.0348011887154
 20
-169.871773531531
 30
0.0
 10
247.6792470863457
 20
-160.0953134950104
 30
0.0
 10
247.6792470863457
 20
-160.0953134950104
 30
0.0
 10
247.6792470863457
 20
-160.0953134950104
 30
0.0
 10
242.0348011887154
 20
-169.871773531531
 30
0.0
 10
242.0348011887154
 20
-169.871773531531
 30
0.0
  0
POLYLINE
  5
1F5
330
1F
100
AcDbEntity
  8
OneHexagon
 62
     7
420
 16777215
370
    35
100
AcDb2dPolyline
 66
     1
 10
0.0
 20
0.0
 30
0.0
  0
VERTEX
  5
1F6
330
1F5
100
AcDbEntity
  8
OneHexagon
 62
     7
420
 16777215
370
    35
100
AcDbVertex
100
AcDb2dVertex
 10
258.5872742544686
 20
-131.9999967457002
 30
0.0
  0
VERTEX
  5
1F7
330
1F5
100
AcDbEntity
  8
OneHexagon
 62
     7
420
 16777215
370
    35
100
AcDbVertex
100
AcDb2dVertex
 10
272.8329636859677
 20
-156.7542590324122
 30
0.0
  0
SEQEND
  5
1F8
330
1F5
100
AcDbEntity
  8
OneHexagon
 62
     7
420
 16777215
370
    35
  0
POLYLINE
  5
1F9
330
1F
100
AcDbEntity
  8
OneHexagon
 62
     7
420
 16777215
370
    35
100
AcDb2dPolyline
 66
     1
 10
0.0
 20
0.0
 30
0.0
  0
VERTEX
  5
1FA
330
1F9
100
AcDbEntity
  8
OneHexagon
 62
     7
420
 16777215
370
    35
100
AcDbVertex
100
AcDb2dVertex
 10
264.2317293751918
 20
-192.0600031732848
 30
0.0
  0
VERTEX
  5
1FB
330
1F9
100
AcDbEntity
  8
OneHexagon
 62
     7
420
 16777215
370
    35
100
AcDbVertex
100
AcDb2dVertex
 10
293.1872777044807
 20
-192.0600031732848
 30
0.0
  0
VERTEX
  5
1FC
330
1F9
100
AcDbEntity
  8
OneHexagon
 62
     7
420
 16777215
370
    35
100
AcDbVertex
100
AcDb2dVertex
 10
278.4774095835974
 20
-166.5307190689325
 30
0.0
  0
SEQEND
  5
1FD
330
1F9
100
AcDbEntity
  8
OneHexagon
 62
     7
420
 16777215
370
    35
  0
POLYLINE
  5
1FE
330
1F
100
AcDbEntity
  8
OneHexagon
 62
     7
420
 16777215
370
    35
100
AcDb2dPolyline
 66
     1
 10
0.0
 20
0.0
 30
0.0
  0
VERTEX
  5
1FF
330
1FE
100
AcDbEntity
  8
OneHexagon
 62
     7
420
 16777215
370
    35
100
AcDbVertex
100
AcDb2dVertex
 10
238.0848259421782
 20
-167.591257536417
 30
0.0
  0
VERTEX
  5
200
330
1FE
100
AcDbEntity
  8
OneHexagon
 62
     7
420
 16777215
370
    35
100
AcDbVertex
100
AcDb2dVertex
 10
223.9872777217804
 20
-192.0600031732848
 30
0.0
  0
VERTEX
  5
201
330
1FE
100
AcDbEntity
  8
OneHexagon
 62
     7
420
 16777215
370
    35
100
AcDbVertex
100
AcDb2dVertex
 10
252.9428375799324
 20
-192.0600031732848
 30
0.0
  0
SEQEND
  5
202
330
1FE
100
AcDbEntity
  8
OneHexagon
 62
     7
420
 16777215
370
    35
  0
POLYLINE
  5
203
330
1F
100
AcDbEntity
  8
OneHexagon
 62
     7
420
 16777215
370
    35
100
AcDb2dPolyline
 66
     1
 10
0.0
 20
0.0
 30
0.0
  0
VERTEX
  5
204
330
203
100
AcDbEntity
  8
OneHexagon
 62
     7
420
 16777215
370
    35
100
AcDbVertex
100
AcDb2dVertex
 10
243.7292718398078
 20
-157.8147974998964
 30
0.0
  0
VERTEX
  5
205
330
203
100
AcDbEntity
  8
OneHexagon
 62
     7
420
 16777215
370
    35
100
AcDbVertex
100
AcDb2dVertex
 10
258.5872742544693
 20
-131.9999967457002
 30
0.0
  0
SEQEND
  5
206
330
203
100
AcDbEntity
  8
OneHexagon
 62
     7
420
 16777215
370
    35
  0
SPLINE
  5
207
330
1F
100
AcDbEntity
  8
OneHexagon
 62
     7
420
 16777215
370
    35
100
AcDbSpline
210
0.0
220
0.0
230
1.0
 70
    27
 71
     3
 72
    11
 73
     7
 74
     0
 42
0.0000000001
 43
0.0000000001
 12
1.0
 22
0.0
 32
0.0
 13
1.0
 23
0.0
 33
0.0
 40
0.0
 40
0.0
 40
0.0
 40
0.0
 40
1.0
 40
1.0
 40
1.0
 40
2.0
 40
2.0
 40
2.0
 40
2.0
 10
268.5779596065589
 20
-159.2108883541174
 30
0.0
 10
268.5779596065589
 20
-159.2108883541174
 30
0.0
 10
274.2224055041885
 20
-168.9873483906379
 30
0.0
 10
274.2224055041885
 20
-168.9873483906379
 30
0.0
 10
274.2224055041885
 20
-168.9873483906379
 30
0.0
 10
268.5779596065589
 20
-159.2108883541174
 30
0.0
 10
268.5779596065589
 20
-159.2108883541174
 30
0.0
  0
POLYLINE
  5
208
330
1F
100
AcDbEntity
  8
OneHexagon
 62
     7
420
 16777215
370
    35
100
AcDb2dPolyline
 66
     1
 10
0.0
 20
0.0
 30
0.0
  0
VERTEX
  5
209
330
208
100
AcDbEntity
  8
OneHexagon
 62
     7
420
 16777215
370
    35
100
AcDbVertex
100
AcDb2dVertex
 10
223.9872777217804
 20
-192.0600031732848
 30
0.0
  0
VERTEX
  5
20A
330
208
100
AcDbEntity
  8
OneHexagon
 62
     7
420
 16777215
370
    35
100
AcDbVertex
100
AcDb2dVertex
 10
258.5872777131302
 20
-212.0000031682999
 30
0.0
  0
VERTEX
  5
20B
330
208
100
AcDbEntity
  8
OneHexagon
 62
     7
420
 16777215
370
    35
100
AcDbVertex
100
AcDb2dVertex
 10
293.1872777044807
 20
-192.0600031732848
 30
0.0
  0
VERTEX
  5
20C
330
208
100
AcDbEntity
  8
OneHexagon
 62
     7
420
 16777215
370
    35
100
AcDbVertex
100
AcDb2dVertex
 10
293.0775554822852
 20
-151.8097254055696
 30
0.0
  0
VERTEX
  5
20D
330
208
100
AcDbEntity
  8
OneHexagon
 62
     7
420
 16777215
370
    35
100
AcDbVertex
100
AcDb2dVertex
 10
258.5872777131302
 20
-132.0000031882998
 30
0.0
  0
VERTEX
  5
20E
330
208
100
AcDbEntity
  8
OneHexagon
 62
     7
420
 16777215
370
    35
100
AcDbVertex
100
AcDb2dVertex
 10
223.9872777217804
 20
-151.8097254055696
 30
0.0
  0
VERTEX
  5
20F
330
208
100
AcDbEntity
  8
OneHexagon
 62
     7
420
 16777215
370
    35
100
AcDbVertex
100
AcDb2dVertex
 10
223.9872777217804
 20
-192.0600031732848
 30
0.0
  0
SEQEND
  5
210
330
208
100
AcDbEntity
  8
OneHexagon
 62
     7
420
 16777215
370
    35
  0
SPLINE
  5
211
330
1F
100
AcDbEntity
  8
OneHexagon
 62
     7
420
 16777215
370
    35
100
AcDbSpline
210
0.0
220
0.0
230
1.0
 70
    27
 71
     3
 72
    11
 73
     7
 74
     0
 42
0.0000000001
 43
0.0000000001
 12
1.0
 22
0.0
 32
0.0
 13
1.0
 23
0.0
 33
0.0
 40
0.0
 40
0.0
 40
0.0
 40
0.0
 40
1.0
 40
1.0
 40
1.0
 40
2.0
 40
2.0
 40
2.0
 40
2.0
 10
315.9953567257807
 20
-169.871773531531
 30
0.0
 10
315.9953567257807
 20
-169.871773531531
 30
0.0
 10
321.639802623411
 20
-160.0953134950104
 30
0.0
 10
321.639802623411
 20
-160.0953134950104
 30
0.0
 10
321.639802623411
 20
-160.0953134950104
 30
0.0
 10
315.9953567257807
 20
-169.871773531531
 30
0.0
 10
315.9953567257807
 20
-169.871773531531
 30
0.0
  0
POLYLINE
  5
212
330
1F
100
AcDbEntity
  8
OneHexagon
 62
     7
420
 16777215
370
    35
100
AcDb2dPolyline
 66
     1
 10
0.0
 20
0.0
 30
0.0
  0
VERTEX
  5
213
330
212
100
AcDbEntity
  8
OneHexagon
 62
     7
420
 16777215
370
    35
100
AcDbVertex
100
AcDb2dVertex
 10
332.5478297915339
 20
-131.9999967457002
 30
0.0
  0
VERTEX
  5
214
330
212
100
AcDbEntity
  8
OneHexagon
 62
     7
420
 16777215
370
    35
100
AcDbVertex
100
AcDb2dVertex
 10
346.793519223033
 20
-156.7542590324122
 30
0.0
  0
SEQEND
  5
215
330
212
100
AcDbEntity
  8
OneHexagon
 62
     7
420
 16777215
370
    35
  0
POLYLINE
  5
216
330
1F
100
AcDbEntity
  8
OneHexagon
 62
     7
420
 16777215
370
    35
100
AcDb2dPolyline
 66
     1
 10
0.0
 20
0.0
 30
0.0
  0
VERTEX
  5
217
330
216
100
AcDbEntity
  8
OneHexagon
 62
     7
420
 16777215
370
    35
100
AcDbVertex
100
AcDb2dVertex
 10
338.192284912257
 20
-192.0600031732848
 30
0.0
  0
VERTEX
  5
218
330
216
100
AcDbEntity
  8
OneHexagon
 62
     7
420
 16777215
370
    35
100
AcDbVertex
100
AcDb2dVertex
 10
367.147833241546
 20
-192.0600031732848
 30
0.0
  0
VERTEX
  5
219
330
216
100
AcDbEntity
  8
OneHexagon
 62
     7
420
 16777215
370
    35
100
AcDbVertex
100
AcDb2dVertex
 10
352.4379651206626
 20
-166.5307190689325
 30
0.0
  0
SEQEND
  5
21A
330
216
100
AcDbEntity
  8
OneHexagon
 62
     7
420
 16777215
370
    35
  0
POLYLINE
  5
21B
330
1F
100
AcDbEntity
  8
OneHexagon
 62
     7
420
 16777215
370
    35
100
AcDb2dPolyline
 66
     1
 10
0.0
 20
0.0
 30
0.0
  0
VERTEX
  5
21C
330
21B
100
AcDbEntity
  8
OneHexagon
 62
     7
420
 16777215
370
    35
100
AcDbVertex
100
AcDb2dVertex
 10
312.0453814792435
 20
-167.591257536417
 30
0.0
  0
VERTEX
  5
21D
330
21B
100
AcDbEntity
  8
OneHexagon
 62
     7
420
 16777215
370
    35
100
AcDbVertex
100
AcDb2dVertex
 10
297.9478332588457
 20
-192.0600031732848
 30
0.0
  0
VERTEX
  5
21E
330
21B
100
AcDbEntity
  8
OneHexagon
 62
     7
420
 16777215
370
    35
100
AcDbVertex
100
AcDb2dVertex
 10
326.9033931169977
 20
-192.0600031732848
 30
0.0
  0
SEQEND
  5
21F
330
21B
100
AcDbEntity
  8
OneHexagon
 62
     7
420
 16777215
370
    35
  0
POLYLINE
  5
220
330
1F
100
AcDbEntity
  8
OneHexagon
 62
     7
420
 16777215
370
    35
100
AcDb2dPolyline
 66
     1
 10
0.0
 20
0.0
 30
0.0
  0
VERTEX
  5
221
330
220
100
AcDbEntity
  8
OneHexagon
 62
     7
420
 16777215
370
    35
100
AcDbVertex
100
AcDb2dVertex
 10
317.6898273768731
 20
-157.8147974998964
 30
0.0
  0
VERTEX
  5
222
330
220
100
AcDbEntity
  8
OneHexagon
 62
     7
420
 16777215
370
    35
100
AcDbVertex
100
AcDb2dVertex
 10
332.5478297915346
 20
-131.9999967457002
 30
0.0
  0
SEQEND
  5
223
330
220
100
AcDbEntity
  8
OneHexagon
 62
     7
420
 16777215
370
    35
  0
SPLINE
  5
224
330
1F
100
AcDbEntity
  8
OneHexagon
 62
     7
420
 16777215
370
    35
100
AcDbSpline
210
0.0
220
0.0
230
1.0
 70
    27
 71
     3
 72
    11
 73
     7
 74
     0
 42
0.0000000001
 43
0.0000000001
 12
1.0
 22
0.0
 32
0.0
 13
1.0
 23
0.0
 33
0.0
 40
0.0
 40
0.0
 40
0.0
 40
0.0
 40
1.0
 40
1.0
 40
1.0
 40
2.0
 40
2.0
 40
2.0
 40
2.0
 10
342.5385151436242
 20
-159.2108883541174
 30
0.0
 10
342.5385151436242
 20
-159.2108883541174
 30
0.0
 10
348.1829610412538
 20
-168.9873483906379
 30
0.0
 10
348.1829610412538
 20
-168.9873483906379
 30
0.0
 10
348.1829610412538
 20
-168.9873483906379
 30
0.0
 10
342.5385151436242
 20
-159.2108883541174
 30
0.0
 10
342.5385151436242
 20
-159.2108883541174
 30
0.0
  0
POLYLINE
  5
225
330
1F
100
AcDbEntity
  8
OneHexagon
 62
     7
420
 16777215
370
    35
100
AcDb2dPolyline
 66
     1
 10
0.0
 20
0.0
 30
0.0
  0
VERTEX
  5
226
330
225
100
AcDbEntity
  8
OneHexagon
 62
     7
420
 16777215
370
    35
100
AcDbVertex
100
AcDb2dVertex
 10
297.9478332588457
 20
-192.0600031732848
 30
0.0
  0
VERTEX
  5
227
330
225
100
AcDbEntity
  8
OneHexagon
 62
     7
420
 16777215
370
    35
100
AcDbVertex
100
AcDb2dVertex
 10
332.5478332501955
 20
-212.0000031682999
 30
0.0
  0
VERTEX
  5
228
330
225
100
AcDbEntity
  8
OneHexagon
 62
     7
420
 16777215
370
    35
100
AcDbVertex
100
AcDb2dVertex
 10
367.147833241546
 20
-192.0600031732848
 30
0.0
  0
VERTEX
  5
229
330
225
100
AcDbEntity
  8
OneHexagon
 62
     7
420
 16777215
370
    35
100
AcDbVertex
100
AcDb2dVertex
 10
367.0381110193499
 20
-151.8097254055696
 30
0.0
  0
VERTEX
  5
22A
330
225
100
AcDbEntity
  8
OneHexagon
 62
     7
420
 16777215
370
    35
100
AcDbVertex
100
AcDb2dVertex
 10
332.5478332501955
 20
-132.0000031882998
 30
0.0
  0
VERTEX
  5
22B
330
225
100
AcDbEntity
  8
OneHexagon
 62
     7
420
 16777215
370
    35
100
AcDbVertex
100
AcDb2dVertex
 10
297.9478332588457
 20
-151.8097254055696
 30
0.0
  0
VERTEX
  5
22C
330
225
100
AcDbEntity
  8
OneHexagon
 62
     7
420
 16777215
370
    35
100
AcDbVertex
100
AcDb2dVertex
 10
297.9478332588457
 20
-192.0600031732848
 30
0.0
  0
SEQEND
  5
22D
330
225
100
AcDbEntity
  8
OneHexagon
 62
     7
420
 16777215
370
    35
  0
SPLINE
  5
22E
330
1F
100
AcDbEntity
  8
OneHexagon
 62
     7
420
 16777215
370
    35
100
AcDbSpline
210
0.0
220
0.0
230
1.0
 70
    27
 71
     3
 72
    11
 73
     7
 74
     0
 42
0.0000000001
 43
0.0000000001
 12
1.0
 22
0.0
 32
0.0
 13
1.0
 23
0.0
 33
0.0
 40
0.0
 40
0.0
 40
0.0
 40
0.0
 40
1.0
 40
1.0
 40
1.0
 40
2.0
 40
2.0
 40
2.0
 40
2.0
 10
389.9559122628472
 20
-169.871773531531
 30
0.0
 10
389.9559122628472
 20
-169.871773531531
 30
0.0
 10
395.6003581604788
 20
-160.0953134950104
 30
0.0
 10
395.6003581604788
 20
-160.0953134950104
 30
0.0
 10
395.6003581604788
 20
-160.0953134950104
 30
0.0
 10
389.9559122628472
 20
-169.871773531531
 30
0.0
 10
389.9559122628472
 20
-169.871773531531
 30
0.0
  0
POLYLINE
  5
22F
330
1F
100
AcDbEntity
  8
OneHexagon
 62
     7
420
 16777215
370
    35
100
AcDb2dPolyline
 66
     1
 10
0.0
 20
0.0
 30
0.0
  0
VERTEX
  5
230
330
22F
100
AcDbEntity
  8
OneHexagon
 62
     7
420
 16777215
370
    35
100
AcDbVertex
100
AcDb2dVertex
 10
406.5083853286011
 20
-131.9999967457002
 30
0.0
  0
VERTEX
  5
231
330
22F
100
AcDbEntity
  8
OneHexagon
 62
     7
420
 16777215
370
    35
100
AcDbVertex
100
AcDb2dVertex
 10
420.7540747601021
 20
-156.7542590324122
 30
0.0
  0
SEQEND
  5
232
330
22F
100
AcDbEntity
  8
OneHexagon
 62
     7
420
 16777215
370
    35
  0
POLYLINE
  5
233
330
1F
100
AcDbEntity
  8
OneHexagon
 62
     7
420
 16777215
370
    35
100
AcDb2dPolyline
 66
     1
 10
0.0
 20
0.0
 30
0.0
  0
VERTEX
  5
234
330
233
100
AcDbEntity
  8
OneHexagon
 62
     7
420
 16777215
370
    35
100
AcDbVertex
100
AcDb2dVertex
 10
412.1528404493249
 20
-192.0600031732848
 30
0.0
  0
VERTEX
  5
235
330
233
100
AcDbEntity
  8
OneHexagon
 62
     7
420
 16777215
370
    35
100
AcDbVertex
100
AcDb2dVertex
 10
441.1083887786125
 20
-192.0600031732848
 30
0.0
  0
VERTEX
  5
236
330
233
100
AcDbEntity
  8
OneHexagon
 62
     7
420
 16777215
370
    35
100
AcDbVertex
100
AcDb2dVertex
 10
426.3985206577298
 20
-166.5307190689325
 30
0.0
  0
SEQEND
  5
237
330
233
100
AcDbEntity
  8
OneHexagon
 62
     7
420
 16777215
370
    35
  0
POLYLINE
  5
238
330
1F
100
AcDbEntity
  8
OneHexagon
 62
     7
420
 16777215
370
    35
100
AcDb2dPolyline
 66
     1
 10
0.0
 20
0.0
 30
0.0
  0
VERTEX
  5
239
330
238
100
AcDbEntity
  8
OneHexagon
 62
     7
420
 16777215
370
    35
100
AcDbVertex
100
AcDb2dVertex
 10
386.0059370163113
 20
-167.591257536417
 30
0.0
  0
VERTEX
  5
23A
330
238
100
AcDbEntity
  8
OneHexagon
 62
     7
420
 16777215
370
    35
100
AcDbVertex
100
AcDb2dVertex
 10
371.9083887959129
 20
-192.0600031732848
 30
0.0
  0
VERTEX
  5
23B
330
238
100
AcDbEntity
  8
OneHexagon
 62
     7
420
 16777215
370
    35
100
AcDbVertex
100
AcDb2dVertex
 10
400.8639486540656
 20
-192.0600031732848
 30
0.0
  0
SEQEND
  5
23C
330
238
100
AcDbEntity
  8
OneHexagon
 62
     7
420
 16777215
370
    35
  0
POLYLINE
  5
23D
330
1F
100
AcDbEntity
  8
OneHexagon
 62
     7
420
 16777215
370
    35
100
AcDb2dPolyline
 66
     1
 10
0.0
 20
0.0
 30
0.0
  0
VERTEX
  5
23E
330
23D
100
AcDbEntity
  8
OneHexagon
 62
     7
420
 16777215
370
    35
100
AcDbVertex
100
AcDb2dVertex
 10
391.6503829139397
 20
-157.8147974998964
 30
0.0
  0
VERTEX
  5
23F
330
23D
100
AcDbEntity
  8
OneHexagon
 62
     7
420
 16777215
370
    35
100
AcDbVertex
100
AcDb2dVertex
 10
406.5083853286011
 20
-131.9999967457002
 30
0.0
  0
SEQEND
  5
240
330
23D
100
AcDbEntity
  8
OneHexagon
 62
     7
420
 16777215
370
    35
  0
SPLINE
  5
241
330
1F
100
AcDbEntity
  8
OneHexagon
 62
     7
420
 16777215
370
    35
100
AcDbSpline
210
0.0
220
0.0
230
1.0
 70
    27
 71
     3
 72
    11
 73
     7
 74
     0
 42
0.0000000001
 43
0.0000000001
 12
1.0
 22
0.0
 32
0.0
 13
1.0
 23
0.0
 33
0.0
 40
0.0
 40
0.0
 40
0.0
 40
0.0
 40
1.0
 40
1.0
 40
1.0
 40
2.0
 40
2.0
 40
2.0
 40
2.0
 10
416.4990706806926
 20
-159.2108883541174
 30
0.0
 10
416.4990706806926
 20
-159.2108883541174
 30
0.0
 10
422.143516578321
 20
-168.9873483906379
 30
0.0
 10
422.143516578321
 20
-168.9873483906379
 30
0.0
 10
422.143516578321
 20
-168.9873483906379
 30
0.0
 10
416.4990706806926
 20
-159.2108883541174
 30
0.0
 10
416.4990706806926
 20
-159.2108883541174
 30
0.0
  0
POLYLINE
  5
242
330
1F
100
AcDbEntity
  8
OneHexagon
 62
     7
420
 16777215
370
    35
100
AcDb2dPolyline
 66
     1
 10
0.0
 20
0.0
 30
0.0
  0
VERTEX
  5
243
330
242
100
AcDbEntity
  8
OneHexagon
 62
     7
420
 16777215
370
    35
100
AcDbVertex
100
AcDb2dVertex
 10
371.9083887959129
 20
-192.0600031732848
 30
0.0
  0
VERTEX
  5
244
330
242
100
AcDbEntity
  8
OneHexagon
 62
     7
420
 16777215
370
    35
100
AcDbVertex
100
AcDb2dVertex
 10
406.5083887872627
 20
-212.0000031682999
 30
0.0
  0
VERTEX
  5
245
330
242
100
AcDbEntity
  8
OneHexagon
 62
     7
420
 16777215
370
    35
100
AcDbVertex
100
AcDb2dVertex
 10
441.1083887786125
 20
-192.0600031732848
 30
0.0
  0
VERTEX
  5
246
330
242
100
AcDbEntity
  8
OneHexagon
 62
     7
420
 16777215
370
    35
100
AcDbVertex
100
AcDb2dVertex
 10
440.9986665564164
 20
-151.8097254055696
 30
0.0
  0
VERTEX
  5
247
330
242
100
AcDbEntity
  8
OneHexagon
 62
     7
420
 16777215
370
    35
100
AcDbVertex
100
AcDb2dVertex
 10
406.5083887872627
 20
-132.0000031882998
 30
0.0
  0
VERTEX
  5
248
330
242
100
AcDbEntity
  8
OneHexagon
 62
     7
420
 16777215
370
    35
100
AcDbVertex
100
AcDb2dVertex
 10
371.9083887959129
 20
-151.8097254055696
 30
0.0
  0
VERTEX
  5
249
330
242
100
AcDbEntity
  8
OneHexagon
 62
     7
420
 16777215
370
    35
100
AcDbVertex
100
AcDb2dVertex
 10
371.9083887959129
 20
-192.0600031732848
 30
0.0
  0
SEQEND
  5
24A
330
242
100
AcDbEntity
  8
OneHexagon
 62
     7
420
 16777215
370
    35
  0
SPLINE
  5
24B
330
1F
100
AcDbEntity
  8
OneHexagon
 62
     7
420
 16777215
370
    35
100
AcDbSpline
210
0.0
220
0.0
230
1.0
 70
    27
 71
     3
 72
    11
 73
     7
 74
     0
 42
0.0000000001
 43
0.0000000001
 12
1.0
 22
0.0
 32
0.0
 13
1.0
 23
0.0
 33
0.0
 40
0.0
 40
0.0
 40
0.0
 40
0.0
 40
1.0
 40
1.0
 40
1.0
 40
2.0
 40
2.0
 40
2.0
 40
2.0
 10
464.0391900221027
 20
-39.8717735640307
 30
0.0
 10
464.0391900221027
 20
-39.8717735640307
 30
0.0
 10
469.6836359197337
 20
-30.09531352751013
 30
0.0
 10
469.6836359197337
 20
-30.09531352751013
 30
0.0
 10
469.6836359197337
 20
-30.09531352751013
 30
0.0
 10
464.0391900221027
 20
-39.8717735640307
 30
0.0
 10
464.0391900221027
 20
-39.8717735640307
 30
0.0
  0
POLYLINE
  5
24C
330
1F
100
AcDbEntity
  8
OneHexagon
 62
     7
420
 16777215
370
    35
100
AcDb2dPolyline
 66
     1
 10
0.0
 20
0.0
 30
0.0
  0
VERTEX
  5
24D
330
24C
100
AcDbEntity
  8
OneHexagon
 62
     7
420
 16777215
370
    35
100
AcDbVertex
100
AcDb2dVertex
 10
480.591663087856
 20
-1.999996778199886
 30
0.0
  0
VERTEX
  5
24E
330
24C
100
AcDbEntity
  8
OneHexagon
 62
     7
420
 16777215
370
    35
100
AcDbVertex
100
AcDb2dVertex
 10
494.8373525193576
 20
-26.75425906491194
 30
0.0
  0
SEQEND
  5
24F
330
24C
100
AcDbEntity
  8
OneHexagon
 62
     7
420
 16777215
370
    35
  0
POLYLINE
  5
250
330
1F
100
AcDbEntity
  8
OneHexagon
 62
     7
420
 16777215
370
    35
100
AcDb2dPolyline
 66
     1
 10
0.0
 20
0.0
 30
0.0
  0
VERTEX
  5
251
330
250
100
AcDbEntity
  8
OneHexagon
 62
     7
420
 16777215
370
    35
100
AcDbVertex
100
AcDb2dVertex
 10
486.2361182085804
 20
-62.06000320578448
 30
0.0
  0
VERTEX
  5
252
330
250
100
AcDbEntity
  8
OneHexagon
 62
     7
420
 16777215
370
    35
100
AcDbVertex
100
AcDb2dVertex
 10
515.1916665378674
 20
-62.06000320578448
 30
0.0
  0
VERTEX
  5
253
330
250
100
AcDbEntity
  8
OneHexagon
 62
     7
420
 16777215
370
    35
100
AcDbVertex
100
AcDb2dVertex
 10
500.4817984169853
 20
-36.5307191014322
 30
0.0
  0
SEQEND
  5
254
330
250
100
AcDbEntity
  8
OneHexagon
 62
     7
420
 16777215
370
    35
  0
POLYLINE
  5
255
330
1F
100
AcDbEntity
  8
OneHexagon
 62
     7
420
 16777215
370
    35
100
AcDb2dPolyline
 66
     1
 10
0.0
 20
0.0
 30
0.0
  0
VERTEX
  5
256
330
255
100
AcDbEntity
  8
OneHexagon
 62
     7
420
 16777215
370
    35
100
AcDbVertex
100
AcDb2dVertex
 10
460.0892147755668
 20
-37.59125756891639
 30
0.0
  0
VERTEX
  5
257
330
255
100
AcDbEntity
  8
OneHexagon
 62
     7
420
 16777215
370
    35
100
AcDbVertex
100
AcDb2dVertex
 10
445.9916665551677
 20
-62.06000320578448
 30
0.0
  0
VERTEX
  5
258
330
255
100
AcDbEntity
  8
OneHexagon
 62
     7
420
 16777215
370
    35
100
AcDbVertex
100
AcDb2dVertex
 10
474.9472264133211
 20
-62.06000320578448
 30
0.0
  0
SEQEND
  5
259
330
255
100
AcDbEntity
  8
OneHexagon
 62
     7
420
 16777215
370
    35
  0
POLYLINE
  5
25A
330
1F
100
AcDbEntity
  8
OneHexagon
 62
     7
420
 16777215
370
    35
100
AcDb2dPolyline
 66
     1
 10
0.0
 20
0.0
 30
0.0
  0
VERTEX
  5
25B
330
25A
100
AcDbEntity
  8
OneHexagon
 62
     7
420
 16777215
370
    35
100
AcDbVertex
100
AcDb2dVertex
 10
465.7336606731945
 20
-27.81479753239613
 30
0.0
  0
VERTEX
  5
25C
330
25A
100
AcDbEntity
  8
OneHexagon
 62
     7
420
 16777215
370
    35
100
AcDbVertex
100
AcDb2dVertex
 10
480.591663087856
 20
-1.999996778199886
 30
0.0
  0
SEQEND
  5
25D
330
25A
100
AcDbEntity
  8
OneHexagon
 62
     7
420
 16777215
370
    35
  0
SPLINE
  5
25E
330
1F
100
AcDbEntity
  8
OneHexagon
 62
     7
420
 16777215
370
    35
100
AcDbSpline
210
0.0
220
0.0
230
1.0
 70
    27
 71
     3
 72
    11
 73
     7
 74
     0
 42
0.0000000001
 43
0.0000000001
 12
1.0
 22
0.0
 32
0.0
 13
1.0
 23
0.0
 33
0.0
 40
0.0
 40
0.0
 40
0.0
 40
0.0
 40
1.0
 40
1.0
 40
1.0
 40
2.0
 40
2.0
 40
2.0
 40
2.0
 10
490.5823484399481
 20
-29.21088838661709
 30
0.0
 10
490.5823484399481
 20
-29.21088838661709
 30
0.0
 10
496.2267943375759
 20
-38.98734842313799
 30
0.0
 10
496.2267943375759
 20
-38.98734842313799
 30
0.0
 10
496.2267943375759
 20
-38.98734842313799
 30
0.0
 10
490.5823484399481
 20
-29.21088838661709
 30
0.0
 10
490.5823484399481
 20
-29.21088838661709
 30
0.0
  0
POLYLINE
  5
25F
330
1F
100
AcDbEntity
  8
OneHexagon
 62
     7
420
 16777215
370
    35
100
AcDb2dPolyline
 66
     1
 10
0.0
 20
0.0
 30
0.0
  0
VERTEX
  5
260
330
25F
100
AcDbEntity
  8
OneHexagon
 62
     7
420
 16777215
370
    35
100
AcDbVertex
100
AcDb2dVertex
 10
445.9916665551677
 20
-62.06000320578448
 30
0.0
  0
VERTEX
  5
261
330
25F
100
AcDbEntity
  8
OneHexagon
 62
     7
420
 16777215
370
    35
100
AcDbVertex
100
AcDb2dVertex
 10
480.5916665465176
 20
-82.00000320079963
 30
0.0
  0
VERTEX
  5
262
330
25F
100
AcDbEntity
  8
OneHexagon
 62
     7
420
 16777215
370
    35
100
AcDbVertex
100
AcDb2dVertex
 10
515.1916665378674
 20
-62.06000320578448
 30
0.0
  0
VERTEX
  5
263
330
25F
100
AcDbEntity
  8
OneHexagon
 62
     7
420
 16777215
370
    35
100
AcDbVertex
100
AcDb2dVertex
 10
515.0819443156719
 20
-21.80972543806935
 30
0.0
  0
VERTEX
  5
264
330
25F
100
AcDbEntity
  8
OneHexagon
 62
     7
420
 16777215
370
    35
100
AcDbVertex
100
AcDb2dVertex
 10
480.5916665465176
 20
-2.000003220799526
 30
0.0
  0
VERTEX
  5
265
330
25F
100
AcDbEntity
  8
OneHexagon
 62
     7
420
 16777215
370
    35
100
AcDbVertex
100
AcDb2dVertex
 10
445.9916665551677
 20
-21.80972543806935
 30
0.0
  0
VERTEX
  5
266
330
25F
100
AcDbEntity
  8
OneHexagon
 62
     7
420
 16777215
370
    35
100
AcDbVertex
100
AcDb2dVertex
 10
445.9916665551677
 20
-62.06000320578448
 30
0.0
  0
SEQEND
  5
267
330
25F
100
AcDbEntity
  8
OneHexagon
 62
     7
420
 16777215
370
    35
  0
SPLINE
  5
268
330
1F
100
AcDbEntity
  8
OneHexagon
 62
     7
420
 16777215
370
    35
100
AcDbSpline
210
0.0
220
0.0
230
1.0
 70
    27
 71
     3
 72
    11
 73
     7
 74
     0
 42
0.0000000001
 43
0.0000000001
 12
1.0
 22
0.0
 32
0.0
 13
1.0
 23
0.0
 33
0.0
 40
0.0
 40
0.0
 40
0.0
 40
0.0
 40
1.0
 40
1.0
 40
1.0
 40
2.0
 40
2.0
 40
2.0
 40
2.0
 10
501.0808566795089
 20
-104.8717735477807
 30
0.0
 10
501.0808566795089
 20
-104.8717735477807
 30
0.0
 10
506.7253025771399
 20
-95.0953135112601
 30
0.0
 10
506.7253025771399
 20
-95.0953135112601
 30
0.0
 10
506.7253025771399
 20
-95.0953135112601
 30
0.0
 10
501.0808566795089
 20
-104.8717735477807
 30
0.0
 10
501.0808566795089
 20
-104.8717735477807
 30
0.0
  0
POLYLINE
  5
269
330
1F
100
AcDbEntity
  8
OneHexagon
 62
     7
420
 16777215
370
    35
100
AcDb2dPolyline
 66
     1
 10
0.0
 20
0.0
 30
0.0
  0
VERTEX
  5
26A
330
269
100
AcDbEntity
  8
OneHexagon
 62
     7
420
 16777215
370
    35
100
AcDbVertex
100
AcDb2dVertex
 10
517.6333297452622
 20
-66.99999676194987
 30
0.0
  0
VERTEX
  5
26B
330
269
100
AcDbEntity
  8
OneHexagon
 62
     7
420
 16777215
370
    35
100
AcDbVertex
100
AcDb2dVertex
 10
531.8790191767639
 20
-91.75425904866192
 30
0.0
  0
SEQEND
  5
26C
330
269
100
AcDbEntity
  8
OneHexagon
 62
     7
420
 16777215
370
    35
  0
POLYLINE
  5
26D
330
1F
100
AcDbEntity
  8
OneHexagon
 62
     7
420
 16777215
370
    35
100
AcDb2dPolyline
 66
     1
 10
0.0
 20
0.0
 30
0.0
  0
VERTEX
  5
26E
330
26D
100
AcDbEntity
  8
OneHexagon
 62
     7
420
 16777215
370
    35
100
AcDbVertex
100
AcDb2dVertex
 10
523.2777848659866
 20
-127.0600031895345
 30
0.0
  0
VERTEX
  5
26F
330
26D
100
AcDbEntity
  8
OneHexagon
 62
     7
420
 16777215
370
    35
100
AcDbVertex
100
AcDb2dVertex
 10
552.2333331952736
 20
-127.0600031895345
 30
0.0
  0
VERTEX
  5
270
330
26D
100
AcDbEntity
  8
OneHexagon
 62
     7
420
 16777215
370
    35
100
AcDbVertex
100
AcDb2dVertex
 10
537.5234650743915
 20
-101.5307190851822
 30
0.0
  0
SEQEND
  5
271
330
26D
100
AcDbEntity
  8
OneHexagon
 62
     7
420
 16777215
370
    35
  0
POLYLINE
  5
272
330
1F
100
AcDbEntity
  8
OneHexagon
 62
     7
420
 16777215
370
    35
100
AcDb2dPolyline
 66
     1
 10
0.0
 20
0.0
 30
0.0
  0
VERTEX
  5
273
330
272
100
AcDbEntity
  8
OneHexagon
 62
     7
420
 16777215
370
    35
100
AcDbVertex
100
AcDb2dVertex
 10
497.1308814329731
 20
-102.5912575526667
 30
0.0
  0
VERTEX
  5
274
330
272
100
AcDbEntity
  8
OneHexagon
 62
     7
420
 16777215
370
    35
100
AcDbVertex
100
AcDb2dVertex
 10
483.033333212574
 20
-127.0600031895345
 30
0.0
  0
VERTEX
  5
275
330
272
100
AcDbEntity
  8
OneHexagon
 62
     7
420
 16777215
370
    35
100
AcDbVertex
100
AcDb2dVertex
 10
511.9888930707273
 20
-127.0600031895345
 30
0.0
  0
SEQEND
  5
276
330
272
100
AcDbEntity
  8
OneHexagon
 62
     7
420
 16777215
370
    35
  0
POLYLINE
  5
277
330
1F
100
AcDbEntity
  8
OneHexagon
 62
     7
420
 16777215
370
    35
100
AcDb2dPolyline
 66
     1
 10
0.0
 20
0.0
 30
0.0
  0
VERTEX
  5
278
330
277
100
AcDbEntity
  8
OneHexagon
 62
     7
420
 16777215
370
    35
100
AcDbVertex
100
AcDb2dVertex
 10
502.7753273306008
 20
-92.81479751614611
 30
0.0
  0
VERTEX
  5
279
330
277
100
AcDbEntity
  8
OneHexagon
 62
     7
420
 16777215
370
    35
100
AcDbVertex
100
AcDb2dVertex
 10
517.6333297452622
 20
-66.99999676194987
 30
0.0
  0
SEQEND
  5
27A
330
277
100
AcDbEntity
  8
OneHexagon
 62
     7
420
 16777215
370
    35
  0
SPLINE
  5
27B
330
1F
100
AcDbEntity
  8
OneHexagon
 62
     7
420
 16777215
370
    35
100
AcDbSpline
210
0.0
220
0.0
230
1.0
 70
    27
 71
     3
 72
    11
 73
     7
 74
     0
 42
0.0000000001
 43
0.0000000001
 12
1.0
 22
0.0
 32
0.0
 13
1.0
 23
0.0
 33
0.0
 40
0.0
 40
0.0
 40
0.0
 40
0.0
 40
1.0
 40
1.0
 40
1.0
 40
2.0
 40
2.0
 40
2.0
 40
2.0
 10
527.6240150973543
 20
-94.21088837036707
 30
0.0
 10
527.6240150973543
 20
-94.21088837036707
 30
0.0
 10
533.2684609949821
 20
-103.987348406888
 30
0.0
 10
533.2684609949821
 20
-103.987348406888
 30
0.0
 10
533.2684609949821
 20
-103.987348406888
 30
0.0
 10
527.6240150973543
 20
-94.21088837036707
 30
0.0
 10
527.6240150973543
 20
-94.21088837036707
 30
0.0
  0
POLYLINE
  5
27C
330
1F
100
AcDbEntity
  8
OneHexagon
 62
     7
420
 16777215
370
    35
100
AcDb2dPolyline
 66
     1
 10
0.0
 20
0.0
 30
0.0
  0
VERTEX
  5
27D
330
27C
100
AcDbEntity
  8
OneHexagon
 62
     7
420
 16777215
370
    35
100
AcDbVertex
100
AcDb2dVertex
 10
483.033333212574
 20
-127.0600031895345
 30
0.0
  0
VERTEX
  5
27E
330
27C
100
AcDbEntity
  8
OneHexagon
 62
     7
420
 16777215
370
    35
100
AcDbVertex
100
AcDb2dVertex
 10
517.6333332039238
 20
-147.0000031845496
 30
0.0
  0
VERTEX
  5
27F
330
27C
100
AcDbEntity
  8
OneHexagon
 62
     7
420
 16777215
370
    35
100
AcDbVertex
100
AcDb2dVertex
 10
552.2333331952736
 20
-127.0600031895345
 30
0.0
  0
VERTEX
  5
280
330
27C
100
AcDbEntity
  8
OneHexagon
 62
     7
420
 16777215
370
    35
100
AcDbVertex
100
AcDb2dVertex
 10
552.1236109730781
 20
-86.80972542181932
 30
0.0
  0
VERTEX
  5
281
330
27C
100
AcDbEntity
  8
OneHexagon
 62
     7
420
 16777215
370
    35
100
AcDbVertex
100
AcDb2dVertex
 10
517.6333332039238
 20
-67.00000320454951
 30
0.0
  0
VERTEX
  5
282
330
27C
100
AcDbEntity
  8
OneHexagon
 62
     7
420
 16777215
370
    35
100
AcDbVertex
100
AcDb2dVertex
 10
483.033333212574
 20
-86.80972542181932
 30
0.0
  0
VERTEX
  5
283
330
27C
100
AcDbEntity
  8
OneHexagon
 62
     7
420
 16777215
370
    35
100
AcDbVertex
100
AcDb2dVertex
 10
483.033333212574
 20
-127.0600031895345
 30
0.0
  0
SEQEND
  5
284
330
27C
100
AcDbEntity
  8
OneHexagon
 62
     7
420
 16777215
370
    35
  0
SPLINE
  5
285
330
1F
100
AcDbEntity
  8
OneHexagon
 62
     7
420
 16777215
370
    35
100
AcDbSpline
210
0.0
220
0.0
230
1.0
 70
    27
 71
     3
 72
    11
 73
     7
 74
     0
 42
0.0000000001
 43
0.0000000001
 12
1.0
 22
0.0
 32
0.0
 13
1.0
 23
0.0
 33
0.0
 40
0.0
 40
0.0
 40
0.0
 40
0.0
 40
1.0
 40
1.0
 40
1.0
 40
2.0
 40
2.0
 40
2.0
 40
2.0
 10
464.0392455776597
 20
-169.8717735315307
 30
0.0
 10
464.0392455776597
 20
-169.8717735315307
 30
0.0
 10
469.6836914752913
 20
-160.0953134950101
 30
0.0
 10
469.6836914752913
 20
-160.0953134950101
 30
0.0
 10
469.6836914752913
 20
-160.0953134950101
 30
0.0
 10
464.0392455776597
 20
-169.8717735315307
 30
0.0
 10
464.0392455776597
 20
-169.8717735315307
 30
0.0
  0
POLYLINE
  5
286
330
1F
100
AcDbEntity
  8
OneHexagon
 62
     7
420
 16777215
370
    35
100
AcDb2dPolyline
 66
     1
 10
0.0
 20
0.0
 30
0.0
  0
VERTEX
  5
287
330
286
100
AcDbEntity
  8
OneHexagon
 62
     7
420
 16777215
370
    35
100
AcDbVertex
100
AcDb2dVertex
 10
480.5917186434136
 20
-131.9999967456999
 30
0.0
  0
VERTEX
  5
288
330
286
100
AcDbEntity
  8
OneHexagon
 62
     7
420
 16777215
370
    35
100
AcDbVertex
100
AcDb2dVertex
 10
494.8374080749146
 20
-156.7542590324119
 30
0.0
  0
SEQEND
  5
289
330
286
100
AcDbEntity
  8
OneHexagon
 62
     7
420
 16777215
370
    35
  0
POLYLINE
  5
28A
330
1F
100
AcDbEntity
  8
OneHexagon
 62
     7
420
 16777215
370
    35
100
AcDb2dPolyline
 66
     1
 10
0.0
 20
0.0
 30
0.0
  0
VERTEX
  5
28B
330
28A
100
AcDbEntity
  8
OneHexagon
 62
     7
420
 16777215
370
    35
100
AcDbVertex
100
AcDb2dVertex
 10
486.2361737641374
 20
-192.0600031732841
 30
0.0
  0
VERTEX
  5
28C
330
28A
100
AcDbEntity
  8
OneHexagon
 62
     7
420
 16777215
370
    35
100
AcDbVertex
100
AcDb2dVertex
 10
515.191722093425
 20
-192.0600031732841
 30
0.0
  0
VERTEX
  5
28D
330
28A
100
AcDbEntity
  8
OneHexagon
 62
     7
420
 16777215
370
    35
100
AcDbVertex
100
AcDb2dVertex
 10
500.4818539725424
 20
-166.5307190689322
 30
0.0
  0
SEQEND
  5
28E
330
28A
100
AcDbEntity
  8
OneHexagon
 62
     7
420
 16777215
370
    35
  0
POLYLINE
  5
28F
330
1F
100
AcDbEntity
  8
OneHexagon
 62
     7
420
 16777215
370
    35
100
AcDb2dPolyline
 66
     1
 10
0.0
 20
0.0
 30
0.0
  0
VERTEX
  5
290
330
28F
100
AcDbEntity
  8
OneHexagon
 62
     7
420
 16777215
370
    35
100
AcDbVertex
100
AcDb2dVertex
 10
460.0892703311238
 20
-167.5912575364167
 30
0.0
  0
VERTEX
  5
291
330
28F
100
AcDbEntity
  8
OneHexagon
 62
     7
420
 16777215
370
    35
100
AcDbVertex
100
AcDb2dVertex
 10
445.9917221107253
 20
-192.0600031732841
 30
0.0
  0
VERTEX
  5
292
330
28F
100
AcDbEntity
  8
OneHexagon
 62
     7
420
 16777215
370
    35
100
AcDbVertex
100
AcDb2dVertex
 10
474.947281968878
 20
-192.0600031732841
 30
0.0
  0
SEQEND
  5
293
330
28F
100
AcDbEntity
  8
OneHexagon
 62
     7
420
 16777215
370
    35
  0
POLYLINE
  5
294
330
1F
100
AcDbEntity
  8
OneHexagon
 62
     7
420
 16777215
370
    35
100
AcDb2dPolyline
 66
     1
 10
0.0
 20
0.0
 30
0.0
  0
VERTEX
  5
295
330
294
100
AcDbEntity
  8
OneHexagon
 62
     7
420
 16777215
370
    35
100
AcDbVertex
100
AcDb2dVertex
 10
465.7337162287522
 20
-157.8147974998961
 30
0.0
  0
VERTEX
  5
296
330
294
100
AcDbEntity
  8
OneHexagon
 62
     7
420
 16777215
370
    35
100
AcDbVertex
100
AcDb2dVertex
 10
480.5917186434136
 20
-131.9999967456999
 30
0.0
  0
SEQEND
  5
297
330
294
100
AcDbEntity
  8
OneHexagon
 62
     7
420
 16777215
370
    35
  0
SPLINE
  5
298
330
1F
100
AcDbEntity
  8
OneHexagon
 62
     7
420
 16777215
370
    35
100
AcDbSpline
210
0.0
220
0.0
230
1.0
 70
    27
 71
     3
 72
    11
 73
     7
 74
     0
 42
0.0000000001
 43
0.0000000001
 12
1.0
 22
0.0
 32
0.0
 13
1.0
 23
0.0
 33
0.0
 40
0.0
 40
0.0
 40
0.0
 40
0.0
 40
1.0
 40
1.0
 40
1.0
 40
2.0
 40
2.0
 40
2.0
 40
2.0
 10
490.5824039955052
 20
-159.2108883541171
 30
0.0
 10
490.5824039955052
 20
-159.2108883541171
 30
0.0
 10
496.2268498931335
 20
-168.9873483906376
 30
0.0
 10
496.2268498931335
 20
-168.9873483906376
 30
0.0
 10
496.2268498931335
 20
-168.9873483906376
 30
0.0
 10
490.5824039955052
 20
-159.2108883541171
 30
0.0
 10
490.5824039955052
 20
-159.2108883541171
 30
0.0
  0
POLYLINE
  5
299
330
1F
100
AcDbEntity
  8
OneHexagon
 62
     7
420
 16777215
370
    35
100
AcDb2dPolyline
 66
     1
 10
0.0
 20
0.0
 30
0.0
  0
VERTEX
  5
29A
330
299
100
AcDbEntity
  8
OneHexagon
 62
     7
420
 16777215
370
    35
100
AcDbVertex
100
AcDb2dVertex
 10
445.9917221107253
 20
-192.0600031732841
 30
0.0
  0
VERTEX
  5
29B
330
299
100
AcDbEntity
  8
OneHexagon
 62
     7
420
 16777215
370
    35
100
AcDbVertex
100
AcDb2dVertex
 10
480.5917221020752
 20
-212.0000031682999
 30
0.0
  0
VERTEX
  5
29C
330
299
100
AcDbEntity
  8
OneHexagon
 62
     7
420
 16777215
370
    35
100
AcDbVertex
100
AcDb2dVertex
 10
515.191722093425
 20
-192.0600031732841
 30
0.0
  0
VERTEX
  5
29D
330
299
100
AcDbEntity
  8
OneHexagon
 62
     7
420
 16777215
370
    35
100
AcDbVertex
100
AcDb2dVertex
 10
515.081999871229
 20
-151.8097254055693
 30
0.0
  0
VERTEX
  5
29E
330
299
100
AcDbEntity
  8
OneHexagon
 62
     7
420
 16777215
370
    35
100
AcDbVertex
100
AcDb2dVertex
 10
480.5917221020752
 20
-132.0000031882995
 30
0.0
  0
VERTEX
  5
29F
330
299
100
AcDbEntity
  8
OneHexagon
 62
     7
420
 16777215
370
    35
100
AcDbVertex
100
AcDb2dVertex
 10
445.9917221107253
 20
-151.8097254055693
 30
0.0
  0
VERTEX
  5
2A0
330
299
100
AcDbEntity
  8
OneHexagon
 62
     7
420
 16777215
370
    35
100
AcDbVertex
100
AcDb2dVertex
 10
445.9917221107253
 20
-192.0600031732841
 30
0.0
  0
SEQEND
  5
2A1
330
299
100
AcDbEntity
  8
OneHexagon
 62
     7
420
 16777215
370
    35
  0
ENDSEC
  0
SECTION
  2
OBJECTS
  0
DICTIONARY
  5
C
330
0
100
AcDbDictionary
281
     1
  3
ACAD_GROUP
350
D
  3
ACAD_LAYOUT
350
1A
  3
ACAD_MATERIAL
350
3B
  3
ACAD_MLEADERSTYLE
350
2A3
  3
ACAD_MLINESTYLE
350
17
  3
ACAD_PLOTSETTINGS
350
19
  3
ACAD_PLOTSTYLENAME
350
E
  3
ACAD_TABLESTYLE
350
2A2
  3
ACAD_VISUALSTYLE
350
2A
  0
SUN
  5
3F
330
29
100
AcDbSun
 90
        1
290
     0
 63
     7
421
 16777215
 40
1.0
291
     1
 91
  2455826
 92
 54000000
292
     0
 70
     2
 71
   256
280
     1
  0
DICTIONARY
  5
D
102
{ACAD_REACTORS
330
C
102
}
330
C
100
AcDbDictionary
281
     1
  0
DICTIONARY
  5
1A
102
{ACAD_REACTORS
330
C
102
}
330
C
100
AcDbDictionary
281
     1
  3
Layout1
350
1E
  3
Layout2
350
26
  3
Model
350
22
  0
DICTIONARY
  5
3B
102
{ACAD_REACTORS
330
C
102
}
330
C
100
AcDbDictionary
281
     1
  3
ByBlock
350
3D
  3
ByLayer
350
3C
  3
Global
350
3E
  0
DICTIONARY
  5
2A3
102
{ACAD_REACTORS
330
C
102
}
330
C
100
AcDbDictionary
281
     1
  0
DICTIONARY
  5
17
102
{ACAD_REACTORS
330
C
102
}
330
C
100
AcDbDictionary
281
     1
  3
Standard
350
18
  0
DICTIONARY
  5
19
102
{ACAD_REACTORS
330
C
102
}
330
C
100
AcDbDictionary
281
     1
  0
ACDBDICTIONARYWDFLT
  5
E
102
{ACAD_REACTORS
330
C
102
}
330
C
100
AcDbDictionary
281
     1
  3
Normal
350
F
100
AcDbDictionaryWithDefault
340
F
  0
DICTIONARY
  5
2A2
102
{ACAD_REACTORS
330
C
102
}
330
C
100
AcDbDictionary
281
     1
  0
DICTIONARY
  5
2A
102
{ACAD_REACTORS
330
C
102
}
330
C
100
AcDbDictionary
281
     1
  3
2dWireframe
350
2F
  3
3D Hidden
350
31
  3
3dWireframe
350
30
  3
Basic
350
32
  3
Brighten
350
36
  3
ColorChange
350
3A
  3
Conceptual
350
34
  3
Dim
350
35
  3
Facepattern
350
39
  3
Flat
350
2B
  3
FlatWithEdges
350
2C
  3
Gouraud
350
2D
  3
GouraudWithEdges
350
2E
  3
Linepattern
350
38
  3
Realistic
350
33
  3
Thicken
350
37
  0
LAYOUT
  5
1E
102
{ACAD_REACTORS
330
1A
102
}
330
1A
100
AcDbPlotSettings
  1

  2
none_device
  4

  6

 40
0.0
 41
0.0
 42
0.0
 43
0.0
 44
0.0
 45
0.0
 46
0.0
 47
0.0
 48
0.0
 49
0.0
140
0.0
141
0.0
142
1.0
143
1.0
 70
   688
 72
     0
 73
     0
 74
     5
  7

 75
    16
 76
     0
 77
     2
 78
   300
147
1.0
148
0.0
149
0.0
100
AcDbLayout
  1
Layout1
 70
     1
 71
     1
 10
0.0
 20
0.0
 11
12.0
 21
9.0
 12
0.0
 22
0.0
 32
0.0
 14
1.000000000000000E+20
 24
1.000000000000000E+20
 34
1.000000000000000E+20
 15
-1.000000000000000E+20
 25
-1.000000000000000E+20
 35
-1.000000000000000E+20
146
0.0
 13
0.0
 23
0.0
 33
0.0
 16
1.0
 26
0.0
 36
0.0
 17
0.0
 27
1.0
 37
0.0
 76
     0
330
1B
  0
LAYOUT
  5
26
102
{ACAD_REACTORS
330
1A
102
}
330
1A
100
AcDbPlotSettings
  1

  2
none_device
  4

  6

 40
0.0
 41
0.0
 42
0.0
 43
0.0
 44
0.0
 45
0.0
 46
0.0
 47
0.0
 48
0.0
 49
0.0
140
0.0
141
0.0
142
1.0
143
1.0
 70
   688
 72
     0
 73
     0
 74
     5
  7

 75
    16
 76
     0
 77
     2
 78
   300
147
1.0
148
0.0
149
0.0
100
AcDbLayout
  1
Layout2
 70
     1
 71
     2
 10
0.0
 20
0.0
 11
0.0
 21
0.0
 12
0.0
 22
0.0
 32
0.0
 14
0.0
 24
0.0
 34
0.0
 15
0.0
 25
0.0
 35
0.0
146
0.0
 13
0.0
 23
0.0
 33
0.0
 16
1.0
 26
0.0
 36
0.0
 17
0.0
 27
1.0
 37
0.0
 76
     0
330
23
  0
LAYOUT
  5
22
102
{ACAD_REACTORS
330
1A
102
}
330
1A
100
AcDbPlotSettings
  1

  2
none_device
  4

  6

 40
0.0
 41
0.0
 42
0.0
 43
0.0
 44
0.0
 45
0.0
 46
0.0
 47
0.0
 48
0.0
 49
0.0
140
0.0
141
0.0
142
1.0
143
1.0
 70
  1712
 72
     0
 73
     0
 74
     0
  7

 75
     0
 76
     0
 77
     2
 78
   300
147
1.0
148
0.0
149
0.0
100
AcDbLayout
  1
Model
 70
     1
 71
     0
 10
0.0
 20
0.0
 11
12.0
 21
9.0
 12
0.0
 22
0.0
 32
0.0
 14
1.000000000000000E+20
 24
1.000000000000000E+20
 34
1.000000000000000E+20
 15
-1.000000000000000E+20
 25
-1.000000000000000E+20
 35
-1.000000000000000E+20
146
0.0
 13
0.0
 23
0.0
 33
0.0
 16
1.0
 26
0.0
 36
0.0
 17
0.0
 27
1.0
 37
0.0
 76
     0
330
1F
331
29
  0
MATERIAL
  5
3D
102
{ACAD_REACTORS
330
3B
102
}
330
3B
100
AcDbMaterial
  1
ByBlock
 72
     1
 94
      127
  0
MATERIAL
  5
3C
102
{ACAD_REACTORS
330
3B
102
}
330
3B
100
AcDbMaterial
  1
ByLayer
 72
     1
 94
      127
  0
MATERIAL
  5
3E
102
{ACAD_REACTORS
330
3B
102
}
330
3B
100
AcDbMaterial
  1
Global
 72
     1
 94
      127
  0
MLINESTYLE
  5
18
102
{ACAD_REACTORS
330
17
102
}
330
17
100
AcDbMlineStyle
  2
Standard
 70
     0
  3

 62
   256
 51
90.0
 52
90.0
 71
     2
 49
0.5
 62
   256
  6
BYLAYER
 49
-0.5
 62
   256
  6
BYLAYER
  0
ACDBPLACEHOLDER
  5
F
102
{ACAD_REACTORS
330
E
102
}
330
E
  0
VISUALSTYLE
  5
2F
102
{ACAD_REACTORS
330
2A
102
}
330
2A
100
AcDbVisualStyle
  2
2dWireframe
 70
     4
177
     2
291
     0
 71
     0
176
     1
 72
     2
176
     1
 73
     0
176
     1
 90
        0
176
     1
 40
-0.6
176
     1
 41
-30.0
176
     1
 62
     5
 63
     7
421
 16777215
176
     1
 74
     1
176
     1
 91
        4
176
     1
 64
     7
176
     1
 65
   257
176
     1
 75
     1
176
     1
175
     1
176
     1
 42
1.0
176
     1
 92
        0
176
     1
 66
   257
176
     1
 43
1.0
176
     1
 76
     1
176
     1
 77
     6
176
     1
 78
     2
176
     1
 67
     7
176
     1
 79
     5
176
     1
170
     0
176
     1
171
     0
176
     1
290
     0
176
     1
 93
        1
176
     1
 44
0.0
176
     1
173
     0
176
     1
  0
VISUALSTYLE
  5
31
102
{ACAD_REACTORS
330
2A
102
}
330
2A
100
AcDbVisualStyle
  2
3D Hidden
 70
     6
177
     2
291
     0
 71
     1
176
     1
 72
     2
176
     1
 73
     2
176
     1
 90
        0
176
     1
 40
-0.6
176
     1
 41
-30.0
176
     1
 62
     5
 63
     7
421
 16777215
176
     1
 74
     2
176
     1
 91
        2
176
     1
 64
     7
176
     1
 65
   257
176
     1
 75
     2
176
     1
175
     1
176
     1
 42
40.0
176
     1
 92
        0
176
     1
 66
   257
176
     1
 43
1.0
176
     1
 76
     1
176
     1
 77
     6
176
     1
 78
     2
176
     1
 67
     7
176
     1
 79
     3
176
     1
170
     0
176
     1
171
     0
176
     1
290
     0
176
     1
 93
        1
176
     1
 44
0.0
176
     1
173
     0
176
     1
  0
VISUALSTYLE
  5
30
102
{ACAD_REACTORS
330
2A
102
}
330
2A
100
AcDbVisualStyle
  2
3dWireframe
 70
     5
177
     2
291
     0
 71
     0
176
     1
 72
     2
176
     1
 73
     0
176
     1
 90
        0
176
     1
 40
-0.6
176
     1
 41
-30.0
176
     1
 62
     5
 63
     7
421
 16777215
176
     1
 74
     1
176
     1
 91
        4
176
     1
 64
     7
176
     1
 65
   257
176
     1
 75
     1
176
     1
175
     1
176
     1
 42
1.0
176
     1
 92
        0
176
     1
 66
   257
176
     1
 43
1.0
176
     1
 76
     1
176
     1
 77
     6
176
     1
 78
     2
176
     1
 67
     7
176
     1
 79
     5
176
     1
170
     0
176
     1
171
     0
176
     1
290
     0
176
     1
 93
        1
176
     1
 44
0.0
176
     1
173
     0
176
     1
  0
VISUALSTYLE
  5
32
102
{ACAD_REACTORS
330
2A
102
}
330
2A
100
AcDbVisualStyle
  2
Basic
 70
     7
177
     2
291
     1
 71
     1
176
     1
 72
     0
176
     1
 73
     1
176
     1
 90
        0
176
     1
 40
-0.6
176
     1
 41
-30.0
176
     1
 62
     5
 63
     7
421
 16777215
176
     1
 74
     0
176
     1
 91
        4
176
     1
 64
     7
176
     1
 65
   257
176
     1
 75
     1
176
     1
175
     1
176
     1
 42
1.0
176
     1
 92
        8
176
     1
 66
     7
176
     1
 43
1.0
176
     1
 76
     1
176
     1
 77
     6
176
     1
 78
     2
176
     1
 67
     7
176
     1
 79
     5
176
     1
170
     0
176
     1
171
     0
176
     1
290
     0
176
     1
 93
        1
176
     1
 44
0.0
176
     1
173
     0
176
     1
  0
VISUALSTYLE
  5
36
102
{ACAD_REACTORS
330
2A
102
}
330
2A
100
AcDbVisualStyle
  2
Brighten
 70
    12
177
     2
291
     1
 71
     2
176
     1
 72
     2
176
     1
 73
     0
176
     1
 90
        0
176
     1
 40
-0.6
176
     1
 41
-30.0
176
     1
 62
     5
 63
     7
421
 16777215
176
     1
 74
     1
176
     1
 91
        4
176
     1
 64
     7
176
     1
 65
   257
176
     1
 75
     1
176
     1
175
     1
176
     1
 42
1.0
176
     1
 92
        8
176
     1
 66
     7
176
     1
 43
1.0
176
     1
 76
     1
176
     1
 77
     6
176
     1
 78
     2
176
     1
 67
     7
176
     1
 79
     5
176
     1
170
     0
176
     1
171
     0
176
     1
290
     0
176
     1
 93
        1
176
     1
 44
50.0
176
     1
173
     0
176
     1
  0
VISUALSTYLE
  5
3A
102
{ACAD_REACTORS
330
2A
102
}
330
2A
100
AcDbVisualStyle
  2
ColorChange
 70
    16
177
     2
291
     1
 71
     2
176
     1
 72
     2
176
     1
 73
     3
176
     1
 90
        0
176
     1
 40
-0.6
176
     1
 41
-30.0
176
     1
 62
     5
 63
     8
421
  8421504
176
     1
 74
     1
176
     1
 91
        4
176
     1
 64
     7
176
     1
 65
   257
176
     1
 75
     1
176
     1
175
     1
176
     1
 42
1.0
176
     1
 92
        8
176
     1
 66
     8
424
  8421504
176
     1
 43
1.0
176
     1
 76
     1
176
     1
 77
     6
176
     1
 78
     2
176
     1
 67
     7
176
     1
 79
     5
176
     1
170
     0
176
     1
171
     0
176
     1
290
     0
176
     1
 93
        1
176
     1
 44
0.0
176
     1
173
     0
176
     1
  0
VISUALSTYLE
  5
34
102
{ACAD_REACTORS
330
2A
102
}
330
2A
100
AcDbVisualStyle
  2
Conceptual
 70
     9
177
     2
291
     0
 71
     3
176
     1
 72
     2
176
     1
 73
     0
176
     1
 90
        0
176
     1
 40
-0.6
176
     1
 41
-30.0
176
     1
 62
     5
 63
     7
421
 16777215
176
     1
 74
     2
176
     1
 91
        2
176
     1
 64
     7
176
     1
 65
   257
176
     1
 75
     1
176
     1
175
     1
176
     1
 42
40.0
176
     1
 92
        8
176
     1
 66
     7
176
     1
 43
1.0
176
     1
 76
     1
176
     1
 77
     6
176
     1
 78
     2
176
     1
 67
     7
176
     1
 79
     3
176
     1
170
     0
176
     1
171
     0
176
     1
290
     0
176
     1
 93
        1
176
     1
 44
0.0
176
     1
173
     0
176
     1
  0
VISUALSTYLE
  5
35
102
{ACAD_REACTORS
330
2A
102
}
330
2A
100
AcDbVisualStyle
  2
Dim
 70
    11
177
     2
291
     1
 71
     2
176
     1
 72
     2
176
     1
 73
     0
176
     1
 90
        0
176
     1
 40
-0.6
176
     1
 41
-30.0
176
     1
 62
     5
 63
     7
421
 16777215
176
     1
 74
     1
176
     1
 91
        4
176
     1
 64
     7
176
     1
 65
   257
176
     1
 75
     1
176
     1
175
     1
176
     1
 42
1.0
176
     1
 92
        8
176
     1
 66
     7
176
     1
 43
1.0
176
     1
 76
     1
176
     1
 77
     6
176
     1
 78
     2
176
     1
 67
     7
176
     1
 79
     5
176
     1
170
     0
176
     1
171
     0
176
     1
290
     0
176
     1
 93
        1
176
     1
 44
-50.0
176
     1
173
     0
176
     1
  0
VISUALSTYLE
  5
39
102
{ACAD_REACTORS
330
2A
102
}
330
2A
100
AcDbVisualStyle
  2
Facepattern
 70
    15
177
     2
291
     1
 71
     2
176
     1
 72
     2
176
     1
 73
     0
176
     1
 90
        0
176
     1
 40
-0.6
176
     1
 41
-30.0
176
     1
 62
     5
 63
     7
421
 16777215
176
     1
 74
     1
176
     1
 91
        4
176
     1
 64
     7
176
     1
 65
   257
176
     1
 75
     1
176
     1
175
     1
176
     1
 42
1.0
176
     1
 92
        8
176
     1
 66
     7
176
     1
 43
1.0
176
     1
 76
     1
176
     1
 77
     6
176
     1
 78
     2
176
     1
 67
     7
176
     1
 79
     5
176
     1
170
     0
176
     1
171
     0
176
     1
290
     0
176
     1
 93
        1
176
     1
 44
0.0
176
     1
173
     0
176
     1
  0
VISUALSTYLE
  5
2B
102
{ACAD_REACTORS
330
2A
102
}
330
2A
100
AcDbVisualStyle
  2
Flat
 70
     0
177
     2
291
     1
 71
     2
176
     1
 72
     1
176
     1
 73
     1
176
     1
 90
        2
176
     1
 40
-0.6
176
     1
 41
30.0
176
     1
 62
     5
 63
     7
421
 16777215
176
     1
 74
     0
176
     1
 91
        4
176
     1
 64
     7
176
     1
 65
   257
176
     1
 75
     1
176
     1
175
     1
176
     1
 42
1.0
176
     1
 92
        8
176
     1
 66
     7
176
     1
 43
1.0
176
     1
 76
     1
176
     1
 77
     6
176
     1
 78
     2
176
     1
 67
     7
176
     1
 79
     5
176
     1
170
     0
176
     1
171
     0
176
     1
290
     0
176
     1
 93
       13
176
     1
 44
0.0
176
     1
173
     0
176
     1
  0
VISUALSTYLE
  5
2C
102
{ACAD_REACTORS
330
2A
102
}
330
2A
100
AcDbVisualStyle
  2
FlatWithEdges
 70
     1
177
     2
291
     1
 71
     2
176
     1
 72
     1
176
     1
 73
     1
176
     1
 90
        2
176
     1
 40
-0.6
176
     1
 41
30.0
176
     1
 62
     5
 63
     7
421
 16777215
176
     1
 74
     1
176
     1
 91
        4
176
     1
 64
     7
176
     1
 65
   257
176
     1
 75
     1
176
     1
175
     1
176
     1
 42
1.0
176
     1
 92
        0
176
     1
 66
   257
176
     1
 43
1.0
176
     1
 76
     1
176
     1
 77
     6
176
     1
 78
     2
176
     1
 67
     7
176
     1
 79
     5
176
     1
170
     0
176
     1
171
     0
176
     1
290
     0
176
     1
 93
       13
176
     1
 44
0.0
176
     1
173
     0
176
     1
  0
VISUALSTYLE
  5
2D
102
{ACAD_REACTORS
330
2A
102
}
330
2A
100
AcDbVisualStyle
  2
Gouraud
 70
     2
177
     2
291
     1
 71
     2
176
     1
 72
     2
176
     1
 73
     1
176
     1
 90
        2
176
     1
 40
-0.6
176
     1
 41
30.0
176
     1
 62
     5
 63
     7
421
 16777215
176
     1
 74
     0
176
     1
 91
        4
176
     1
 64
     7
176
     1
 65
   257
176
     1
 75
     1
176
     1
175
     1
176
     1
 42
1.0
176
     1
 92
        0
176
     1
 66
     7
176
     1
 43
1.0
176
     1
 76
     1
176
     1
 77
     6
176
     1
 78
     2
176
     1
 67
     7
176
     1
 79
     5
176
     1
170
     0
176
     1
171
     0
176
     1
290
     0
176
     1
 93
       13
176
     1
 44
0.0
176
     1
173
     0
176
     1
  0
VISUALSTYLE
  5
2E
102
{ACAD_REACTORS
330
2A
102
}
330
2A
100
AcDbVisualStyle
  2
GouraudWithEdges
 70
     3
177
     2
291
     1
 71
     2
176
     1
 72
     2
176
     1
 73
     1
176
     1
 90
        2
176
     1
 40
-0.6
176
     1
 41
30.0
176
     1
 62
     5
 63
     7
421
 16777215
176
     1
 74
     1
176
     1
 91
        4
176
     1
 64
     7
176
     1
 65
   257
176
     1
 75
     1
176
     1
175
     1
176
     1
 42
1.0
176
     1
 92
        0
176
     1
 66
   257
176
     1
 43
1.0
176
     1
 76
     1
176
     1
 77
     6
176
     1
 78
     2
176
     1
 67
     7
176
     1
 79
     5
176
     1
170
     0
176
     1
171
     0
176
     1
290
     0
176
     1
 93
       13
176
     1
 44
0.0
176
     1
173
     0
176
     1
  0
VISUALSTYLE
  5
38
102
{ACAD_REACTORS
330
2A
102
}
330
2A
100
AcDbVisualStyle
  2
Linepattern
 70
    14
177
     2
291
     1
 71
     2
176
     1
 72
     2
176
     1
 73
     0
176
     1
 90
        0
176
     1
 40
-0.6
176
     1
 41
-30.0
176
     1
 62
     5
 63
     7
421
 16777215
176
     1
 74
     1
176
     1
 91
        4
176
     1
 64
     7
176
     1
 65
   257
176
     1
 75
     7
176
     1
175
     7
176
     1
 42
1.0
176
     1
 92
        8
176
     1
 66
     7
176
     1
 43
1.0
176
     1
 76
     1
176
     1
 77
     6
176
     1
 78
     2
176
     1
 67
     7
176
     1
 79
     5
176
     1
170
     0
176
     1
171
     0
176
     1
290
     0
176
     1
 93
        1
176
     1
 44
0.0
176
     1
173
     0
176
     1
  0
VISUALSTYLE
  5
33
102
{ACAD_REACTORS
330
2A
102
}
330
2A
100
AcDbVisualStyle
  2
Realistic
 70
     8
177
     2
291
     0
 71
     2
176
     1
 72
     2
176
     1
 73
     0
176
     1
 90
        0
176
     1
 40
-0.6
176
     1
 41
-30.0
176
     1
 62
     5
 63
     7
421
 16777215
176
     1
 74
     1
176
     1
 91
        0
176
     1
 64
     7
176
     1
 65
   257
176
     1
 75
     1
176
     1
175
     1
176
     1
 42
1.0
176
     1
 92
        8
176
     1
 66
     8
424
  7895160
176
     1
 43
1.0
176
     1
 76
     1
176
     1
 77
     6
176
     1
 78
     2
176
     1
 67
     7
176
     1
 79
     5
176
     1
170
     0
176
     1
171
     0
176
     1
290
     0
176
     1
 93
       13
176
     1
 44
0.0
176
     1
173
     0
176
     1
  0
VISUALSTYLE
  5
37
102
{ACAD_REACTORS
330
2A
102
}
330
2A
100
AcDbVisualStyle
  2
Thicken
 70
    13
177
     2
291
     1
 71
     2
176
     1
 72
     2
176
     1
 73
     0
176
     1
 90
        0
176
     1
 40
-0.6
176
     1
 41
-30.0
176
     1
 62
     5
 63
     7
421
 16777215
176
     1
 74
     1
176
     1
 91
        4
176
     1
 64
     7
176
     1
 65
   257
176
     1
 75
     1
176
     1
175
     1
176
     1
 42
1.0
176
     1
 92
       12
176
     1
 66
     7
176
     1
 43
1.0
176
     1
 76
     1
176
     1
 77
     6
176
     1
 78
     2
176
     1
 67
     7
176
     1
 79
     5
176
     1
170
     0
176
     1
171
     0
176
     1
290
     0
176
     1
 93
        1
176
     1
 44
0.0
176
     1
173
     0
176
     1
  0
ENDSEC
  0
EOF
