  0
SECTION
  2
HEADER
  9
$ACADVER
  1
AC1024
  9
$ACADMAINTVER
 70
     6
  9
$DWGCODEPAGE
  3
ANSI_932
  9
$INSBASE
 10
0.0
 20
0.0
 30
0.0
  9
$EXTMIN
 10
1.000000000000000E+20
 20
1.000000000000000E+20
 30
1.000000000000000E+20
  9
$EXTMAX
 10
-1.000000000000000E+20
 20
-1.000000000000000E+20
 30
-1.000000000000000E+20
  9
$LIMMIN
 10
0.0
 20
0.0
  9
$LIMMAX
 10
12.0
 20
9.0
  9
$ORTHOMODE
 70
     0
  9
$REGENMODE
 70
     1
  9
$FILLMODE
 70
     1
  9
$QTEXTMODE
 70
     0
  9
$MIRRTEXT
 70
     1
  9
$LTSCALE
 40
1.0
  9
$ATTMODE
 70
     1
  9
$TEXTSIZE
 40
0.2
  9
$TRACEWID
 40
0.05
  9
$TEXTSTYLE
  7
Standard
  9
$CLAYER
  8
0
  9
$CELTYPE
  6
ByLayer
  9
$CECOLOR
 62
   256
  9
$CELTSCALE
 40
1.0
  9
$DISPSILH
 70
     0
  9
$DIMSCALE
 40
1.0
  9
$DIMASZ
 40
0.18
  9
$DIMEXO
 40
0.0625
  9
$DIMDLI
 40
0.38
  9
$DIMRND
 40
0.0
  9
$DIMDLE
 40
0.0
  9
$DIMEXE
 40
0.18
  9
$DIMTP
 40
0.0
  9
$DIMTM
 40
0.0
  9
$DIMTXT
 40
0.18
  9
$DIMCEN
 40
0.09
  9
$DIMTSZ
 40
0.0
  9
$DIMTOL
 70
     0
  9
$DIMLIM
 70
     0
  9
$DIMTIH
 70
     1
  9
$DIMTOH
 70
     1
  9
$DIMSE1
 70
     0
  9
$DIMSE2
 70
     0
  9
$DIMTAD
 70
     0
  9
$DIMZIN
 70
     0
  9
$DIMBLK
  1

  9
$DIMASO
 70
     1
  9
$DIMSHO
 70
     1
  9
$DIMPOST
  1

  9
$DIMAPOST
  1

  9
$DIMALT
 70
     0
  9
$DIMALTD
 70
     2
  9
$DIMALTF
 40
25.4
  9
$DIMLFAC
 40
1.0
  9
$DIMTOFL
 70
     0
  9
$DIMTVP
 40
0.0
  9
$DIMTIX
 70
     0
  9
$DIMSOXD
 70
     0
  9
$DIMSAH
 70
     0
  9
$DIMBLK1
  1

  9
$DIMBLK2
  1

  9
$DIMSTYLE
  2
Standard
  9
$DIMCLRD
 70
     0
  9
$DIMCLRE
 70
     0
  9
$DIMCLRT
 70
     0
  9
$DIMTFAC
 40
1.0
  9
$DIMGAP
 40
0.09
  9
$DIMJUST
 70
     0
  9
$DIMSD1
 70
     0
  9
$DIMSD2
 70
     0
  9
$DIMTOLJ
 70
     1
  9
$DIMTZIN
 70
     0
  9
$DIMALTZ
 70
     0
  9
$DIMALTTZ
 70
     0
  9
$DIMUPT
 70
     0
  9
$DIMDEC
 70
     4
  9
$DIMTDEC
 70
     4
  9
$DIMALTU
 70
     2
  9
$DIMALTTD
 70
     2
  9
$DIMTXSTY
  7
Standard
  9
$DIMAUNIT
 70
     0
  9
$DIMADEC
 70
     0
  9
$DIMALTRND
 40
0.0
  9
$DIMAZIN
 70
     0
  9
$DIMDSEP
 70
    46
  9
$DIMATFIT
 70
     3
  9
$DIMFRAC
 70
     0
  9
$DIMLDRBLK
  1

  9
$DIMLUNIT
 70
     2
  9
$DIMLWD
 70
    -2
  9
$DIMLWE
 70
    -2
  9
$DIMTMOVE
 70
     0
  9
$DIMFXL
 40
1.0
  9
$DIMFXLON
 70
     0
  9
$DIMJOGANG
 40
0.7853981633974483
  9
$DIMTFILL
 70
     0
  9
$DIMTFILLCLR
 70
     0
  9
$DIMARCSYM
 70
     0
  9
$DIMLTYPE
  6

  9
$DIMLTEX1
  6

  9
$DIMLTEX2
  6

  9
$DIMTXTDIRECTION
 70
     0
  9
$LUNITS
 70
     2
  9
$LUPREC
 70
     4
  9
$SKETCHINC
 40
0.1
  9
$FILLETRAD
 40
0.5
  9
$AUNITS
 70
     0
  9
$AUPREC
 70
     0
  9
$MENU
  1
.
  9
$ELEVATION
 40
0.0
  9
$PELEVATION
 40
0.0
  9
$THICKNESS
 40
0.0
  9
$LIMCHECK
 70
     0
  9
$CHAMFERA
 40
0.5
  9
$CHAMFERB
 40
0.5
  9
$CHAMFERC
 40
1.0
  9
$CHAMFERD
 40
0.0
  9
$SKPOLY
 70
     0
  9
$TDCREATE
 40
2458546.307549352
  9
$TDUCREATE
 40
2458545.932549352
  9
$TDUPDATE
 40
2458546.307549526
  9
$TDUUPDATE
 40
2458545.932549526
  9
$TDINDWG
 40
0.0000000116
  9
$TDUSRTIMER
 40
0.0000000116
  9
$USRTIMER
 70
     1
  9
$ANGBASE
 50
0.0
  9
$ANGDIR
 70
     0
  9
$PDMODE
 70
     0
  9
$PDSIZE
 40
0.0
  9
$PLINEWID
 40
0.0
  9
$SPLFRAME
 70
     0
  9
$SPLINETYPE
 70
     6
  9
$SPLINESEGS
 70
     8
  9
$HANDSEED
  5
1D7
  9
$SURFTAB1
 70
     6
  9
$SURFTAB2
 70
     6
  9
$SURFTYPE
 70
     6
  9
$SURFU
 70
     6
  9
$SURFV
 70
     6
  9
$UCSBASE
  2

  9
$UCSNAME
  2

  9
$UCSORG
 10
0.0
 20
0.0
 30
0.0
  9
$UCSXDIR
 10
1.0
 20
0.0
 30
0.0
  9
$UCSYDIR
 10
0.0
 20
1.0
 30
0.0
  9
$UCSORTHOREF
  2

  9
$UCSORTHOVIEW
 70
     0
  9
$UCSORGTOP
 10
0.0
 20
0.0
 30
0.0
  9
$UCSORGBOTTOM
 10
0.0
 20
0.0
 30
0.0
  9
$UCSORGLEFT
 10
0.0
 20
0.0
 30
0.0
  9
$UCSORGRIGHT
 10
0.0
 20
0.0
 30
0.0
  9
$UCSORGFRONT
 10
0.0
 20
0.0
 30
0.0
  9
$UCSORGBACK
 10
0.0
 20
0.0
 30
0.0
  9
$PUCSBASE
  2

  9
$PUCSNAME
  2

  9
$PUCSORG
 10
0.0
 20
0.0
 30
0.0
  9
$PUCSXDIR
 10
1.0
 20
0.0
 30
0.0
  9
$PUCSYDIR
 10
0.0
 20
1.0
 30
0.0
  9
$PUCSORTHOREF
  2

  9
$PUCSORTHOVIEW
 70
     0
  9
$PUCSORGTOP
 10
0.0
 20
0.0
 30
0.0
  9
$PUCSORGBOTTOM
 10
0.0
 20
0.0
 30
0.0
  9
$PUCSORGLEFT
 10
0.0
 20
0.0
 30
0.0
  9
$PUCSORGRIGHT
 10
0.0
 20
0.0
 30
0.0
  9
$PUCSORGFRONT
 10
0.0
 20
0.0
 30
0.0
  9
$PUCSORGBACK
 10
0.0
 20
0.0
 30
0.0
  9
$USERI1
 70
     0
  9
$USERI2
 70
     0
  9
$USERI3
 70
     0
  9
$USERI4
 70
     0
  9
$USERI5
 70
     0
  9
$USERR1
 40
0.0
  9
$USERR2
 40
0.0
  9
$USERR3
 40
0.0
  9
$USERR4
 40
0.0
  9
$USERR5
 40
0.0
  9
$WORLDVIEW
 70
     1
  9
$SHADEDGE
 70
     3
  9
$SHADEDIF
 70
    70
  9
$TILEMODE
 70
     1
  9
$MAXACTVP
 70
    64
  9
$PINSBASE
 10
0.0
 20
0.0
 30
0.0
  9
$PLIMCHECK
 70
     0
  9
$PEXTMIN
 10
1.000000000000000E+20
 20
1.000000000000000E+20
 30
1.000000000000000E+20
  9
$PEXTMAX
 10
-1.000000000000000E+20
 20
-1.000000000000000E+20
 30
-1.000000000000000E+20
  9
$PLIMMIN
 10
0.0
 20
0.0
  9
$PLIMMAX
 10
12.0
 20
9.0
  9
$UNITMODE
 70
     0
  9
$VISRETAIN
 70
     1
  9
$PLINEGEN
 70
     0
  9
$PSLTSCALE
 70
     1
  9
$TREEDEPTH
 70
  3020
  9
$CMLSTYLE
  2
Standard
  9
$CMLJUST
 70
     0
  9
$CMLSCALE
 40
1.0
  9
$PROXYGRAPHICS
 70
     1
  9
$MEASUREMENT
 70
     0
  9
$CELWEIGHT
370
    -1
  9
$ENDCAPS
280
     0
  9
$JOINSTYLE
280
     0
  9
$LWDISPLAY
290
     1
  9
$INSUNITS
 70
     1
  9
$HYPERLINKBASE
  1

  9
$STYLESHEET
  1

  9
$XEDIT
290
     1
  9
$CEPSNTYPE
380
     0
  9
$PSTYLEMODE
290
     1
  9
$FINGERPRINTGUID
  2
{D3A399CD-A915-41B2-9069-E4BA4FF505F1}
  9
$VERSIONGUID
  2
{FAEB1C32-E019-11D5-929B-00C0DF256EC4}
  9
$EXTNAMES
290
     1
  9
$PSVPSCALE
 40
0.0
  9
$OLESTARTUP
290
     0
  9
$SORTENTS
280
   127
  9
$INDEXCTL
280
     0
  9
$HIDETEXT
280
     1
  9
$XCLIPFRAME
280
     2
  9
$HALOGAP
280
     0
  9
$OBSCOLOR
 70
   257
  9
$OBSLTYPE
280
     0
  9
$INTERSECTIONDISPLAY
280
     0
  9
$INTERSECTIONCOLOR
 70
   257
  9
$DIMASSOC
280
     2
  9
$PROJECTNAME
  1

  9
$CAMERADISPLAY
290
     0
  9
$LENSLENGTH
 40
50.0
  9
$CAMERAHEIGHT
 40
0.0
  9
$STEPSPERSEC
 40
2.0
  9
$STEPSIZE
 40
6.0
  9
$3DDWFPREC
 40
2.0
  9
$PSOLWIDTH
 40
0.25
  9
$PSOLHEIGHT
 40
4.0
  9
$LOFTANG1
 40
1.570796326794897
  9
$LOFTANG2
 40
1.570796326794897
  9
$LOFTMAG1
 40
0.0
  9
$LOFTMAG2
 40
0.0
  9
$LOFTPARAM
 70
     7
  9
$LOFTNORMALS
280
     1
  9
$LATITUDE
 40
37.795
  9
$LONGITUDE
 40
-122.394
  9
$NORTHDIRECTION
 40
0.0
  9
$TIMEZONE
 70
 -8000
  9
$LIGHTGLYPHDISPLAY
280
     1
  9
$TILEMODELIGHTSYNCH
280
     1
  9
$CMATERIAL
347
3C
  9
$SOLIDHIST
280
     1
  9
$SHOWHIST
280
     1
  9
$DWFFRAME
280
     2
  9
$DGNFRAME
280
     2
  9
$REALWORLDSCALE
290
     1
  9
$INTERFERECOLOR
 62
   256
  9
$CSHADOW
280
     0
  9
$SHADOWPLANELOCATION
 40
0.0
  0
ENDSEC
  0
SECTION
  2
CLASSES
  0
CLASS
  1
ACDBDICTIONARYWDFLT
  2
AcDbDictionaryWithDefault
  3
ObjectDBX Classes
 90
        0
 91
        4
280
     0
281
     0
  0
CLASS
  1
VISUALSTYLE
  2
AcDbVisualStyle
  3
ObjectDBX Classes
 90
     4095
 91
        4
280
     0
281
     0
  0
CLASS
  1
MATERIAL
  2
AcDbMaterial
  3
ObjectDBX Classes
 90
     1153
 91
        4
280
     0
281
     0
  0
CLASS
  1
SUN
  2
AcDbSun
  3
SCENEOE
 90
     1024
 91
        4
280
     0
281
     0
  0
ENDSEC
  0
SECTION
  2
TABLES
  0
TABLE
  2
VPORT
  5
8
330
0
100
AcDbSymbolTable
 70
     1
  0
VPORT
  5
29
330
8
100
AcDbSymbolTableRecord
100
AcDbViewportTableRecord
  2
*Active
 70
     0
 10
0.0
 20
0.0
 11
1.0
 21
1.0
 12
0.0
 22
0.0
 13
0.0
 23
0.0
 14
0.5
 24
0.5
 15
0.5
 25
0.5
 16
0.0
 26
0.0
 36
1.0
 17
239.9999999399994
 27
-109.9999999725
 37
0.0
 40
219.999999945
 41
2.190909090909082
 42
50.0
 43
0.0
 44
0.0
 50
0.0
 51
0.0
 71
     0
 72
   100
 73
     1
 74
     3
 75
     0
 76
     0
 77
     0
 78
     0
281
     0
 65
     1
110
0.0
120
0.0
130
0.0
111
1.0
121
0.0
131
0.0
112
0.0
122
1.0
132
0.0
 79
     0
146
0.0
 60
     3
 61
     5
292
     1
282
     1
141
0.0
142
0.0
 63
   250
361
3F
  0
ENDTAB
  0
TABLE
  2
LTYPE
  5
5
330
0
100
AcDbSymbolTable
 70
     1
  0
LTYPE
  5
14
330
5
100
AcDbSymbolTableRecord
100
AcDbLinetypeTableRecord
  2
ByBlock
 70
     0
  3

 72
    65
 73
     0
 40
0.0
  0
LTYPE
  5
15
330
5
100
AcDbSymbolTableRecord
100
AcDbLinetypeTableRecord
  2
ByLayer
 70
     0
  3

 72
    65
 73
     0
 40
0.0
  0
LTYPE
  5
16
330
5
100
AcDbSymbolTableRecord
100
AcDbLinetypeTableRecord
  2
Continuous
 70
     0
  3
Solid line
 72
    65
 73
     0
 40
0.0
  0
ENDTAB
  0
TABLE
  2
LAYER
  5
2
330
0
100
AcDbSymbolTable
 70
     2
  0
LAYER
  5
10
330
2
100
AcDbSymbolTableRecord
100
AcDbLayerTableRecord
  2
0
 70
     0
 62
     7
  6
Continuous
370
    -3
390
F
347
3E
  0
LAYER
  5
40
330
2
100
AcDbSymbolTableRecord
100
AcDbLayerTableRecord
  2
Rects
 70
     0
 62
     7
  6
Continuous
370
    -3
390
F
347
3E
  0
ENDTAB
  0
TABLE
  2
STYLE
  5
3
330
0
100
AcDbSymbolTable
 70
     1
  0
STYLE
  5
11
330
3
100
AcDbSymbolTableRecord
100
AcDbTextStyleTableRecord
  2
Standard
 70
     0
 40
0.0
 41
1.0
 50
0.0
 71
     0
 42
0.2
  3
txt
  4

  0
ENDTAB
  0
TABLE
  2
VIEW
  5
6
330
0
100
AcDbSymbolTable
 70
     0
  0
ENDTAB
  0
TABLE
  2
UCS
  5
7
330
0
100
AcDbSymbolTable
 70
     0
  0
ENDTAB
  0
TABLE
  2
APPID
  5
9
330
0
100
AcDbSymbolTable
 70
     1
  0
APPID
  5
12
330
9
100
AcDbSymbolTableRecord
100
AcDbRegAppTableRecord
  2
ACAD
 70
     0
  0
ENDTAB
  0
TABLE
  2
DIMSTYLE
  5
A
330
0
100
AcDbSymbolTable
 70
     1
100
AcDbDimStyleTable
  0
DIMSTYLE
105
27
330
A
100
AcDbSymbolTableRecord
100
AcDbDimStyleTableRecord
  2
Standard
 70
     0
178
     0
340
11
  0
ENDTAB
  0
TABLE
  2
BLOCK_RECORD
  5
1
330
0
100
AcDbSymbolTable
 70
    13
  0
BLOCK_RECORD
  5
1F
330
1
100
AcDbSymbolTableRecord
100
AcDbBlockTableRecord
  2
*Model_Space
340
22
 70
     0
280
     1
281
     0
  0
BLOCK_RECORD
  5
1B
330
1
100
AcDbSymbolTableRecord
100
AcDbBlockTableRecord
  2
*Paper_Space
340
1E
 70
     0
280
     1
281
     0
  0
BLOCK_RECORD
  5
23
330
1
100
AcDbSymbolTableRecord
100
AcDbBlockTableRecord
  2
*Paper_Space0
340
26
 70
     0
280
     1
281
     0
  0
BLOCK_RECORD
  5
41
330
1
100
AcDbSymbolTableRecord
100
AcDbBlockTableRecord
  2
block 2
340
0
102
{BLKREFS
331
42
102
}
 70
     0
280
     1
281
     0
  0
BLOCK_RECORD
  5
62
330
1
100
AcDbSymbolTableRecord
100
AcDbBlockTableRecord
  2
block 3
340
0
102
{BLKREFS
331
63
102
}
 70
     0
280
     1
281
     0
  0
BLOCK_RECORD
  5
83
330
1
100
AcDbSymbolTableRecord
100
AcDbBlockTableRecord
  2
block 4
340
0
102
{BLKREFS
331
84
102
}
 70
     0
280
     1
281
     0
  0
BLOCK_RECORD
  5
A4
330
1
100
AcDbSymbolTableRecord
100
AcDbBlockTableRecord
  2
block 5
340
0
102
{BLKREFS
331
A5
102
}
 70
     0
280
     1
281
     0
  0
BLOCK_RECORD
  5
C5
330
1
100
AcDbSymbolTableRecord
100
AcDbBlockTableRecord
  2
block 6
340
0
102
{BLKREFS
331
C6
102
}
 70
     0
280
     1
281
     0
  0
BLOCK_RECORD
  5
E6
330
1
100
AcDbSymbolTableRecord
100
AcDbBlockTableRecord
  2
block 7
340
0
102
{BLKREFS
331
E7
102
}
 70
     0
280
     1
281
     0
  0
BLOCK_RECORD
  5
107
330
1
100
AcDbSymbolTableRecord
100
AcDbBlockTableRecord
  2
block 8
340
0
102
{BLKREFS
331
108
102
}
 70
     0
280
     1
281
     0
  0
BLOCK_RECORD
  5
128
330
1
100
AcDbSymbolTableRecord
100
AcDbBlockTableRecord
  2
block 9
340
0
102
{BLKREFS
331
129
102
}
 70
     0
280
     1
281
     0
  0
BLOCK_RECORD
  5
149
330
1
100
AcDbSymbolTableRecord
100
AcDbBlockTableRecord
  2
block 10
340
0
102
{BLKREFS
331
14A
102
}
 70
     0
280
     1
281
     0
  0
BLOCK_RECORD
  5
16A
330
1
100
AcDbSymbolTableRecord
100
AcDbBlockTableRecord
  2
block 11
340
0
102
{BLKREFS
331
16B
102
}
 70
     0
280
     1
281
     0
  0
BLOCK_RECORD
  5
18B
330
1
100
AcDbSymbolTableRecord
100
AcDbBlockTableRecord
  2
block 12
340
0
102
{BLKREFS
331
18C
102
}
 70
     0
280
     1
281
     0
  0
BLOCK_RECORD
  5
1AC
330
1
100
AcDbSymbolTableRecord
100
AcDbBlockTableRecord
  2
block 13
340
0
102
{BLKREFS
331
1AD
102
}
 70
     0
280
     1
281
     0
  0
ENDTAB
  0
ENDSEC
  0
SECTION
  2
BLOCKS
  0
BLOCK
  5
20
330
1F
100
AcDbEntity
  8
0
100
AcDbBlockBegin
  2
*Model_Space
 70
     0
 10
0.0
 20
0.0
 30
0.0
  3
*Model_Space
  1

  0
ENDBLK
  5
21
330
1F
100
AcDbEntity
  8
0
100
AcDbBlockEnd
  0
BLOCK
  5
1C
330
1B
100
AcDbEntity
 67
     1
  8
0
100
AcDbBlockBegin
  2
*Paper_Space
 70
     0
 10
0.0
 20
0.0
 30
0.0
  3
*Paper_Space
  1

  0
ENDBLK
  5
1D
330
1B
100
AcDbEntity
 67
     1
  8
0
100
AcDbBlockEnd
  0
BLOCK
  5
24
330
23
100
AcDbEntity
  8
0
100
AcDbBlockBegin
  2
*Paper_Space0
 70
     0
 10
0.0
 20
0.0
 30
0.0
  3
*Paper_Space0
  1

  0
ENDBLK
  5
25
330
23
100
AcDbEntity
  8
0
100
AcDbBlockEnd
  0
BLOCK
  5
43
330
41
100
AcDbEntity
  8
0
100
AcDbBlockBegin
  2
block 2
 70
     0
 10
0.0
 20
0.0
 30
0.0
  3
block 2
  1

  0
POLYLINE
  5
45
330
41
100
AcDbEntity
  8
Rects
 62
   250
420
  2299925
370
    35
100
AcDb2dPolyline
 66
     1
 10
0.0
 20
0.0
 30
0.0
  0
VERTEX
  5
46
330
45
100
AcDbEntity
  8
Rects
 62
   250
420
  2299925
370
    35
100
AcDbVertex
100
AcDb2dVertex
 10
-0.4957864341948808
 20
-80.21437921951312
 30
0.0
  0
VERTEX
  5
47
330
45
100
AcDbEntity
  8
Rects
 62
   250
420
  2299925
370
    35
100
AcDbVertex
100
AcDb2dVertex
 10
-0.4957864341948808
 20
-0.2143792431042859
 30
0.0
  0
VERTEX
  5
48
330
45
100
AcDbEntity
  8
Rects
 62
   250
420
  2299925
370
    35
100
AcDbVertex
100
AcDb2dVertex
 10
79.5042135458049
 20
-0.2143792431042859
 30
0.0
  0
SEQEND
  5
49
330
45
100
AcDbEntity
  8
Rects
 62
   250
420
  2299925
370
    35
  0
POLYLINE
  5
4A
330
41
100
AcDbEntity
  8
Rects
 62
   250
420
  2299925
370
    35
100
AcDb2dPolyline
 66
     1
 10
0.0
 20
0.0
 30
0.0
  0
VERTEX
  5
4B
330
4A
100
AcDbEntity
  8
Rects
 62
   250
420
  2299925
370
    35
100
AcDbVertex
100
AcDb2dVertex
 10
49.48613032590892
 20
-10.27071056830976
 30
0.0
  0
VERTEX
  5
4C
330
4A
100
AcDbEntity
  8
Rects
 62
   250
420
  2299925
370
    35
100
AcDbVertex
100
AcDb2dVertex
 10
69.47265542706155
 20
-30.20768925474074
 30
0.0
  0
SEQEND
  5
4D
330
4A
100
AcDbEntity
  8
Rects
 62
   250
420
  2299925
370
    35
  0
POLYLINE
  5
4E
330
41
100
AcDbEntity
  8
Rects
 62
   250
420
  2299925
370
    35
100
AcDb2dPolyline
 66
     1
 10
0.0
 20
0.0
 30
0.0
  0
VERTEX
  5
4F
330
4E
100
AcDbEntity
  8
Rects
 62
   250
420
  2299925
370
    35
100
AcDbVertex
100
AcDb2dVertex
 10
-0.5144246163275703
 20
-40.2143792313087
 30
0.0
  0
VERTEX
  5
50
330
4E
100
AcDbEntity
  8
Rects
 62
   250
420
  2299925
370
    35
100
AcDbVertex
100
AcDb2dVertex
 10
9.504768518041724
 20
-30.19518609693941
 30
0.0
  0
SEQEND
  5
51
330
4E
100
AcDbEntity
  8
Rects
 62
   250
420
  2299925
370
    35
  0
POLYLINE
  5
52
330
41
100
AcDbEntity
  8
Rects
 62
   250
420
  2299925
370
    35
100
AcDb2dPolyline
 66
     1
 10
0.0
 20
0.0
 30
0.0
  0
VERTEX
  5
53
330
52
100
AcDbEntity
  8
Rects
 62
   250
420
  2299925
370
    35
100
AcDbVertex
100
AcDb2dVertex
 10
29.48502042143571
 20
-10.23357237747358
 30
0.0
  0
VERTEX
  5
54
330
52
100
AcDbEntity
  8
Rects
 62
   250
420
  2299925
370
    35
100
AcDbVertex
100
AcDb2dVertex
 10
39.50421355580501
 20
-0.2143792431042859
 30
0.0
  0
SEQEND
  5
55
330
52
100
AcDbEntity
  8
Rects
 62
   250
420
  2299925
370
    35
  0
POLYLINE
  5
56
330
41
100
AcDbEntity
  8
Rects
 62
   250
420
  2299925
370
    35
100
AcDb2dPolyline
 66
     1
 10
0.0
 20
0.0
 30
0.0
  0
VERTEX
  5
57
330
56
100
AcDbEntity
  8
Rects
 62
   250
420
  2299925
370
    35
100
AcDbVertex
100
AcDb2dVertex
 10
39.47007379041927
 20
-80.18955854878178
 30
0.0
  0
VERTEX
  5
58
330
56
100
AcDbEntity
  8
Rects
 62
   250
420
  2299925
370
    35
100
AcDbVertex
100
AcDb2dVertex
 10
49.48926692478889
 20
-70.17036541441249
 30
0.0
  0
SEQEND
  5
59
330
56
100
AcDbEntity
  8
Rects
 62
   250
420
  2299925
370
    35
  0
POLYLINE
  5
5A
330
41
100
AcDbEntity
  8
Rects
 62
   250
420
  2299925
370
    35
100
AcDb2dPolyline
 66
     1
 10
0.0
 20
0.0
 30
0.0
  0
VERTEX
  5
5B
330
5A
100
AcDbEntity
  8
Rects
 62
   250
420
  2299925
370
    35
100
AcDbVertex
100
AcDb2dVertex
 10
69.46951882818223
 20
-50.20875169494666
 30
0.0
  0
VERTEX
  5
5C
330
5A
100
AcDbEntity
  8
Rects
 62
   250
420
  2299925
370
    35
100
AcDbVertex
100
AcDb2dVertex
 10
79.48871196255217
 20
-40.18955856057737
 30
0.0
  0
SEQEND
  5
5D
330
5A
100
AcDbEntity
  8
Rects
 62
   250
420
  2299925
370
    35
  0
POLYLINE
  5
5E
330
41
100
AcDbEntity
  8
Rects
 62
   250
420
  2299925
370
    35
100
AcDb2dPolyline
 66
     1
 10
0.0
 20
0.0
 30
0.0
  0
VERTEX
  5
5F
330
5E
100
AcDbEntity
  8
Rects
 62
   250
420
  2299925
370
    35
100
AcDbVertex
100
AcDb2dVertex
 10
9.574778251758428
 20
-50.28124840160529
 30
0.0
  0
VERTEX
  5
60
330
5E
100
AcDbEntity
  8
Rects
 62
   250
420
  2299925
370
    35
100
AcDbVertex
100
AcDb2dVertex
 10
29.56130335291041
 20
-70.21822708803724
 30
0.0
  0
SEQEND
  5
61
330
5E
100
AcDbEntity
  8
Rects
 62
   250
420
  2299925
370
    35
  0
ENDBLK
  5
44
330
41
100
AcDbEntity
  8
0
100
AcDbBlockEnd
  0
BLOCK
  5
64
330
62
100
AcDbEntity
  8
0
100
AcDbBlockBegin
  2
block 3
 70
     0
 10
0.0
 20
0.0
 30
0.0
  3
block 3
  1

  0
POLYLINE
  5
66
330
62
100
AcDbEntity
  8
Rects
 62
   250
420
  2299925
370
    35
100
AcDb2dPolyline
 66
     1
 10
0.0
 20
0.0
 30
0.0
  0
VERTEX
  5
67
330
66
100
AcDbEntity
  8
Rects
 62
   250
420
  2299925
370
    35
100
AcDbVertex
100
AcDb2dVertex
 10
-0.4957864341948808
 20
-160.1977125346454
 30
0.0
  0
VERTEX
  5
68
330
66
100
AcDbEntity
  8
Rects
 62
   250
420
  2299925
370
    35
100
AcDbVertex
100
AcDb2dVertex
 10
-0.4957864341948808
 20
-80.1977125582372
 30
0.0
  0
VERTEX
  5
69
330
66
100
AcDbEntity
  8
Rects
 62
   250
420
  2299925
370
    35
100
AcDbVertex
100
AcDb2dVertex
 10
79.5042135458049
 20
-80.1977125582372
 30
0.0
  0
SEQEND
  5
6A
330
66
100
AcDbEntity
  8
Rects
 62
   250
420
  2299925
370
    35
  0
POLYLINE
  5
6B
330
62
100
AcDbEntity
  8
Rects
 62
   250
420
  2299925
370
    35
100
AcDb2dPolyline
 66
     1
 10
0.0
 20
0.0
 30
0.0
  0
VERTEX
  5
6C
330
6B
100
AcDbEntity
  8
Rects
 62
   250
420
  2299925
370
    35
100
AcDbVertex
100
AcDb2dVertex
 10
49.48613032590892
 20
-90.25404388344268
 30
0.0
  0
VERTEX
  5
6D
330
6B
100
AcDbEntity
  8
Rects
 62
   250
420
  2299925
370
    35
100
AcDbVertex
100
AcDb2dVertex
 10
69.47265542706155
 20
-110.1910225698737
 30
0.0
  0
SEQEND
  5
6E
330
6B
100
AcDbEntity
  8
Rects
 62
   250
420
  2299925
370
    35
  0
POLYLINE
  5
6F
330
62
100
AcDbEntity
  8
Rects
 62
   250
420
  2299925
370
    35
100
AcDb2dPolyline
 66
     1
 10
0.0
 20
0.0
 30
0.0
  0
VERTEX
  5
70
330
6F
100
AcDbEntity
  8
Rects
 62
   250
420
  2299925
370
    35
100
AcDbVertex
100
AcDb2dVertex
 10
-0.5144246163275703
 20
-120.1977125464423
 30
0.0
  0
VERTEX
  5
71
330
6F
100
AcDbEntity
  8
Rects
 62
   250
420
  2299925
370
    35
100
AcDbVertex
100
AcDb2dVertex
 10
9.504768518041724
 20
-110.1785194120723
 30
0.0
  0
SEQEND
  5
72
330
6F
100
AcDbEntity
  8
Rects
 62
   250
420
  2299925
370
    35
  0
POLYLINE
  5
73
330
62
100
AcDbEntity
  8
Rects
 62
   250
420
  2299925
370
    35
100
AcDb2dPolyline
 66
     1
 10
0.0
 20
0.0
 30
0.0
  0
VERTEX
  5
74
330
73
100
AcDbEntity
  8
Rects
 62
   250
420
  2299925
370
    35
100
AcDbVertex
100
AcDb2dVertex
 10
29.48502042143571
 20
-90.21690569260682
 30
0.0
  0
VERTEX
  5
75
330
73
100
AcDbEntity
  8
Rects
 62
   250
420
  2299925
370
    35
100
AcDbVertex
100
AcDb2dVertex
 10
39.50421355580501
 20
-80.1977125582372
 30
0.0
  0
SEQEND
  5
76
330
73
100
AcDbEntity
  8
Rects
 62
   250
420
  2299925
370
    35
  0
POLYLINE
  5
77
330
62
100
AcDbEntity
  8
Rects
 62
   250
420
  2299925
370
    35
100
AcDb2dPolyline
 66
     1
 10
0.0
 20
0.0
 30
0.0
  0
VERTEX
  5
78
330
77
100
AcDbEntity
  8
Rects
 62
   250
420
  2299925
370
    35
100
AcDbVertex
100
AcDb2dVertex
 10
39.47007379041927
 20
-160.1728918639147
 30
0.0
  0
VERTEX
  5
79
330
77
100
AcDbEntity
  8
Rects
 62
   250
420
  2299925
370
    35
100
AcDbVertex
100
AcDb2dVertex
 10
49.48926692478889
 20
-150.1536987295461
 30
0.0
  0
SEQEND
  5
7A
330
77
100
AcDbEntity
  8
Rects
 62
   250
420
  2299925
370
    35
  0
POLYLINE
  5
7B
330
62
100
AcDbEntity
  8
Rects
 62
   250
420
  2299925
370
    35
100
AcDb2dPolyline
 66
     1
 10
0.0
 20
0.0
 30
0.0
  0
VERTEX
  5
7C
330
7B
100
AcDbEntity
  8
Rects
 62
   250
420
  2299925
370
    35
100
AcDbVertex
100
AcDb2dVertex
 10
69.46951882818223
 20
-130.1920850100796
 30
0.0
  0
VERTEX
  5
7D
330
7B
100
AcDbEntity
  8
Rects
 62
   250
420
  2299925
370
    35
100
AcDbVertex
100
AcDb2dVertex
 10
79.48871196255217
 20
-120.1728918757106
 30
0.0
  0
SEQEND
  5
7E
330
7B
100
AcDbEntity
  8
Rects
 62
   250
420
  2299925
370
    35
  0
POLYLINE
  5
7F
330
62
100
AcDbEntity
  8
Rects
 62
   250
420
  2299925
370
    35
100
AcDb2dPolyline
 66
     1
 10
0.0
 20
0.0
 30
0.0
  0
VERTEX
  5
80
330
7F
100
AcDbEntity
  8
Rects
 62
   250
420
  2299925
370
    35
100
AcDbVertex
100
AcDb2dVertex
 10
9.574778251758428
 20
-130.2645817167382
 30
0.0
  0
VERTEX
  5
81
330
7F
100
AcDbEntity
  8
Rects
 62
   250
420
  2299925
370
    35
100
AcDbVertex
100
AcDb2dVertex
 10
29.56130335291041
 20
-150.2015604031705
 30
0.0
  0
SEQEND
  5
82
330
7F
100
AcDbEntity
  8
Rects
 62
   250
420
  2299925
370
    35
  0
ENDBLK
  5
65
330
62
100
AcDbEntity
  8
0
100
AcDbBlockEnd
  0
BLOCK
  5
85
330
83
100
AcDbEntity
  8
0
100
AcDbBlockBegin
  2
block 4
 70
     0
 10
0.0
 20
0.0
 30
0.0
  3
block 4
  1

  0
POLYLINE
  5
87
330
83
100
AcDbEntity
  8
Rects
 62
   250
420
  2299925
370
    35
100
AcDb2dPolyline
 66
     1
 10
0.0
 20
0.0
 30
0.0
  0
VERTEX
  5
88
330
87
100
AcDbEntity
  8
Rects
 62
   250
420
  2299925
370
    35
100
AcDbVertex
100
AcDb2dVertex
 10
79.47900669001965
 20
-80.21437921951312
 30
0.0
  0
VERTEX
  5
89
330
87
100
AcDbEntity
  8
Rects
 62
   250
420
  2299925
370
    35
100
AcDbVertex
100
AcDb2dVertex
 10
79.47900669001965
 20
-0.2143792431042859
 30
0.0
  0
VERTEX
  5
8A
330
87
100
AcDbEntity
  8
Rects
 62
   250
420
  2299925
370
    35
100
AcDbVertex
100
AcDb2dVertex
 10
159.4790066700194
 20
-0.2143792431042859
 30
0.0
  0
SEQEND
  5
8B
330
87
100
AcDbEntity
  8
Rects
 62
   250
420
  2299925
370
    35
  0
POLYLINE
  5
8C
330
83
100
AcDbEntity
  8
Rects
 62
   250
420
  2299925
370
    35
100
AcDb2dPolyline
 66
     1
 10
0.0
 20
0.0
 30
0.0
  0
VERTEX
  5
8D
330
8C
100
AcDbEntity
  8
Rects
 62
   250
420
  2299925
370
    35
100
AcDbVertex
100
AcDb2dVertex
 10
129.4609234501235
 20
-10.27071056830976
 30
0.0
  0
VERTEX
  5
8E
330
8C
100
AcDbEntity
  8
Rects
 62
   250
420
  2299925
370
    35
100
AcDbVertex
100
AcDb2dVertex
 10
149.4474485512764
 20
-30.20768925474074
 30
0.0
  0
SEQEND
  5
8F
330
8C
100
AcDbEntity
  8
Rects
 62
   250
420
  2299925
370
    35
  0
POLYLINE
  5
90
330
83
100
AcDbEntity
  8
Rects
 62
   250
420
  2299925
370
    35
100
AcDb2dPolyline
 66
     1
 10
0.0
 20
0.0
 30
0.0
  0
VERTEX
  5
91
330
90
100
AcDbEntity
  8
Rects
 62
   250
420
  2299925
370
    35
100
AcDbVertex
100
AcDb2dVertex
 10
79.46036850788695
 20
-40.2143792313087
 30
0.0
  0
VERTEX
  5
92
330
90
100
AcDbEntity
  8
Rects
 62
   250
420
  2299925
370
    35
100
AcDbVertex
100
AcDb2dVertex
 10
89.47956164225626
 20
-30.19518609693941
 30
0.0
  0
SEQEND
  5
93
330
90
100
AcDbEntity
  8
Rects
 62
   250
420
  2299925
370
    35
  0
POLYLINE
  5
94
330
83
100
AcDbEntity
  8
Rects
 62
   250
420
  2299925
370
    35
100
AcDb2dPolyline
 66
     1
 10
0.0
 20
0.0
 30
0.0
  0
VERTEX
  5
95
330
94
100
AcDbEntity
  8
Rects
 62
   250
420
  2299925
370
    35
100
AcDbVertex
100
AcDb2dVertex
 10
109.4598135456502
 20
-10.23357237747358
 30
0.0
  0
VERTEX
  5
96
330
94
100
AcDbEntity
  8
Rects
 62
   250
420
  2299925
370
    35
100
AcDbVertex
100
AcDb2dVertex
 10
119.4790066800192
 20
-0.2143792431042859
 30
0.0
  0
SEQEND
  5
97
330
94
100
AcDbEntity
  8
Rects
 62
   250
420
  2299925
370
    35
  0
POLYLINE
  5
98
330
83
100
AcDbEntity
  8
Rects
 62
   250
420
  2299925
370
    35
100
AcDb2dPolyline
 66
     1
 10
0.0
 20
0.0
 30
0.0
  0
VERTEX
  5
99
330
98
100
AcDbEntity
  8
Rects
 62
   250
420
  2299925
370
    35
100
AcDbVertex
100
AcDb2dVertex
 10
119.4448669146335
 20
-80.18955854878178
 30
0.0
  0
VERTEX
  5
9A
330
98
100
AcDbEntity
  8
Rects
 62
   250
420
  2299925
370
    35
100
AcDbVertex
100
AcDb2dVertex
 10
129.4640600490037
 20
-70.17036541441249
 30
0.0
  0
SEQEND
  5
9B
330
98
100
AcDbEntity
  8
Rects
 62
   250
420
  2299925
370
    35
  0
POLYLINE
  5
9C
330
83
100
AcDbEntity
  8
Rects
 62
   250
420
  2299925
370
    35
100
AcDb2dPolyline
 66
     1
 10
0.0
 20
0.0
 30
0.0
  0
VERTEX
  5
9D
330
9C
100
AcDbEntity
  8
Rects
 62
   250
420
  2299925
370
    35
100
AcDbVertex
100
AcDb2dVertex
 10
149.4443119523968
 20
-50.20875169494666
 30
0.0
  0
VERTEX
  5
9E
330
9C
100
AcDbEntity
  8
Rects
 62
   250
420
  2299925
370
    35
100
AcDbVertex
100
AcDb2dVertex
 10
159.4635050867667
 20
-40.18955856057737
 30
0.0
  0
SEQEND
  5
9F
330
9C
100
AcDbEntity
  8
Rects
 62
   250
420
  2299925
370
    35
  0
POLYLINE
  5
A0
330
83
100
AcDbEntity
  8
Rects
 62
   250
420
  2299925
370
    35
100
AcDb2dPolyline
 66
     1
 10
0.0
 20
0.0
 30
0.0
  0
VERTEX
  5
A1
330
A0
100
AcDbEntity
  8
Rects
 62
   250
420
  2299925
370
    35
100
AcDbVertex
100
AcDb2dVertex
 10
89.54957137597296
 20
-50.28124840160529
 30
0.0
  0
VERTEX
  5
A2
330
A0
100
AcDbEntity
  8
Rects
 62
   250
420
  2299925
370
    35
100
AcDbVertex
100
AcDb2dVertex
 10
109.5360964771246
 20
-70.21822708803724
 30
0.0
  0
SEQEND
  5
A3
330
A0
100
AcDbEntity
  8
Rects
 62
   250
420
  2299925
370
    35
  0
ENDBLK
  5
86
330
83
100
AcDbEntity
  8
0
100
AcDbBlockEnd
  0
BLOCK
  5
A6
330
A4
100
AcDbEntity
  8
0
100
AcDbBlockBegin
  2
block 5
 70
     0
 10
0.0
 20
0.0
 30
0.0
  3
block 5
  1

  0
POLYLINE
  5
A8
330
A4
100
AcDbEntity
  8
Rects
 62
   250
420
  2299925
370
    35
100
AcDb2dPolyline
 66
     1
 10
0.0
 20
0.0
 30
0.0
  0
VERTEX
  5
A9
330
A8
100
AcDbEntity
  8
Rects
 62
   250
420
  2299925
370
    35
100
AcDbVertex
100
AcDb2dVertex
 10
79.47900669001965
 20
-160.1977125346454
 30
0.0
  0
VERTEX
  5
AA
330
A8
100
AcDbEntity
  8
Rects
 62
   250
420
  2299925
370
    35
100
AcDbVertex
100
AcDb2dVertex
 10
79.47900669001965
 20
-80.1977125582372
 30
0.0
  0
VERTEX
  5
AB
330
A8
100
AcDbEntity
  8
Rects
 62
   250
420
  2299925
370
    35
100
AcDbVertex
100
AcDb2dVertex
 10
159.4790066700194
 20
-80.1977125582372
 30
0.0
  0
SEQEND
  5
AC
330
A8
100
AcDbEntity
  8
Rects
 62
   250
420
  2299925
370
    35
  0
POLYLINE
  5
AD
330
A4
100
AcDbEntity
  8
Rects
 62
   250
420
  2299925
370
    35
100
AcDb2dPolyline
 66
     1
 10
0.0
 20
0.0
 30
0.0
  0
VERTEX
  5
AE
330
AD
100
AcDbEntity
  8
Rects
 62
   250
420
  2299925
370
    35
100
AcDbVertex
100
AcDb2dVertex
 10
129.4609234501235
 20
-90.25404388344268
 30
0.0
  0
VERTEX
  5
AF
330
AD
100
AcDbEntity
  8
Rects
 62
   250
420
  2299925
370
    35
100
AcDbVertex
100
AcDb2dVertex
 10
149.4474485512764
 20
-110.1910225698737
 30
0.0
  0
SEQEND
  5
B0
330
AD
100
AcDbEntity
  8
Rects
 62
   250
420
  2299925
370
    35
  0
POLYLINE
  5
B1
330
A4
100
AcDbEntity
  8
Rects
 62
   250
420
  2299925
370
    35
100
AcDb2dPolyline
 66
     1
 10
0.0
 20
0.0
 30
0.0
  0
VERTEX
  5
B2
330
B1
100
AcDbEntity
  8
Rects
 62
   250
420
  2299925
370
    35
100
AcDbVertex
100
AcDb2dVertex
 10
79.46036850788695
 20
-120.1977125464423
 30
0.0
  0
VERTEX
  5
B3
330
B1
100
AcDbEntity
  8
Rects
 62
   250
420
  2299925
370
    35
100
AcDbVertex
100
AcDb2dVertex
 10
89.47956164225626
 20
-110.1785194120723
 30
0.0
  0
SEQEND
  5
B4
330
B1
100
AcDbEntity
  8
Rects
 62
   250
420
  2299925
370
    35
  0
POLYLINE
  5
B5
330
A4
100
AcDbEntity
  8
Rects
 62
   250
420
  2299925
370
    35
100
AcDb2dPolyline
 66
     1
 10
0.0
 20
0.0
 30
0.0
  0
VERTEX
  5
B6
330
B5
100
AcDbEntity
  8
Rects
 62
   250
420
  2299925
370
    35
100
AcDbVertex
100
AcDb2dVertex
 10
109.4598135456502
 20
-90.21690569260682
 30
0.0
  0
VERTEX
  5
B7
330
B5
100
AcDbEntity
  8
Rects
 62
   250
420
  2299925
370
    35
100
AcDbVertex
100
AcDb2dVertex
 10
119.4790066800192
 20
-80.1977125582372
 30
0.0
  0
SEQEND
  5
B8
330
B5
100
AcDbEntity
  8
Rects
 62
   250
420
  2299925
370
    35
  0
POLYLINE
  5
B9
330
A4
100
AcDbEntity
  8
Rects
 62
   250
420
  2299925
370
    35
100
AcDb2dPolyline
 66
     1
 10
0.0
 20
0.0
 30
0.0
  0
VERTEX
  5
BA
330
B9
100
AcDbEntity
  8
Rects
 62
   250
420
  2299925
370
    35
100
AcDbVertex
100
AcDb2dVertex
 10
119.4448669146335
 20
-160.1728918639147
 30
0.0
  0
VERTEX
  5
BB
330
B9
100
AcDbEntity
  8
Rects
 62
   250
420
  2299925
370
    35
100
AcDbVertex
100
AcDb2dVertex
 10
129.4640600490037
 20
-150.1536987295448
 30
0.0
  0
SEQEND
  5
BC
330
B9
100
AcDbEntity
  8
Rects
 62
   250
420
  2299925
370
    35
  0
POLYLINE
  5
BD
330
A4
100
AcDbEntity
  8
Rects
 62
   250
420
  2299925
370
    35
100
AcDb2dPolyline
 66
     1
 10
0.0
 20
0.0
 30
0.0
  0
VERTEX
  5
BE
330
BD
100
AcDbEntity
  8
Rects
 62
   250
420
  2299925
370
    35
100
AcDbVertex
100
AcDb2dVertex
 10
149.4443119523968
 20
-130.1920850100796
 30
0.0
  0
VERTEX
  5
BF
330
BD
100
AcDbEntity
  8
Rects
 62
   250
420
  2299925
370
    35
100
AcDbVertex
100
AcDb2dVertex
 10
159.4635050867667
 20
-120.1728918757106
 30
0.0
  0
SEQEND
  5
C0
330
BD
100
AcDbEntity
  8
Rects
 62
   250
420
  2299925
370
    35
  0
POLYLINE
  5
C1
330
A4
100
AcDbEntity
  8
Rects
 62
   250
420
  2299925
370
    35
100
AcDb2dPolyline
 66
     1
 10
0.0
 20
0.0
 30
0.0
  0
VERTEX
  5
C2
330
C1
100
AcDbEntity
  8
Rects
 62
   250
420
  2299925
370
    35
100
AcDbVertex
100
AcDb2dVertex
 10
89.54957137597296
 20
-130.2645817167382
 30
0.0
  0
VERTEX
  5
C3
330
C1
100
AcDbEntity
  8
Rects
 62
   250
420
  2299925
370
    35
100
AcDbVertex
100
AcDb2dVertex
 10
109.5360964771246
 20
-150.2015604031692
 30
0.0
  0
SEQEND
  5
C4
330
C1
100
AcDbEntity
  8
Rects
 62
   250
420
  2299925
370
    35
  0
ENDBLK
  5
A7
330
A4
100
AcDbEntity
  8
0
100
AcDbBlockEnd
  0
BLOCK
  5
C7
330
C5
100
AcDbEntity
  8
0
100
AcDbBlockBegin
  2
block 6
 70
     0
 10
0.0
 20
0.0
 30
0.0
  3
block 6
  1

  0
POLYLINE
  5
C9
330
C5
100
AcDbEntity
  8
Rects
 62
   250
420
  2299925
370
    35
100
AcDb2dPolyline
 66
     1
 10
0.0
 20
0.0
 30
0.0
  0
VERTEX
  5
CA
330
C9
100
AcDbEntity
  8
Rects
 62
   250
420
  2299925
370
    35
100
AcDbVertex
100
AcDb2dVertex
 10
159.4616100979203
 20
-80.21185676178317
 30
0.0
  0
VERTEX
  5
CB
330
C9
100
AcDbEntity
  8
Rects
 62
   250
420
  2299925
370
    35
100
AcDbVertex
100
AcDb2dVertex
 10
159.4616100979203
 20
-0.2118567853743356
 30
0.0
  0
VERTEX
  5
CC
330
C9
100
AcDbEntity
  8
Rects
 62
   250
420
  2299925
370
    35
100
AcDbVertex
100
AcDb2dVertex
 10
239.4616100779198
 20
-0.2118567853743356
 30
0.0
  0
SEQEND
  5
CD
330
C9
100
AcDbEntity
  8
Rects
 62
   250
420
  2299925
370
    35
  0
POLYLINE
  5
CE
330
C5
100
AcDbEntity
  8
Rects
 62
   250
420
  2299925
370
    35
100
AcDb2dPolyline
 66
     1
 10
0.0
 20
0.0
 30
0.0
  0
VERTEX
  5
CF
330
CE
100
AcDbEntity
  8
Rects
 62
   250
420
  2299925
370
    35
100
AcDbVertex
100
AcDb2dVertex
 10
209.4435268580235
 20
-10.26818811057981
 30
0.0
  0
VERTEX
  5
D0
330
CE
100
AcDbEntity
  8
Rects
 62
   250
420
  2299925
370
    35
100
AcDbVertex
100
AcDb2dVertex
 10
229.4300519591764
 20
-30.20516679701079
 30
0.0
  0
SEQEND
  5
D1
330
CE
100
AcDbEntity
  8
Rects
 62
   250
420
  2299925
370
    35
  0
POLYLINE
  5
D2
330
C5
100
AcDbEntity
  8
Rects
 62
   250
420
  2299925
370
    35
100
AcDb2dPolyline
 66
     1
 10
0.0
 20
0.0
 30
0.0
  0
VERTEX
  5
D3
330
D2
100
AcDbEntity
  8
Rects
 62
   250
420
  2299925
370
    35
100
AcDbVertex
100
AcDb2dVertex
 10
159.442971915787
 20
-40.21185677357875
 30
0.0
  0
VERTEX
  5
D4
330
D2
100
AcDbEntity
  8
Rects
 62
   250
420
  2299925
370
    35
100
AcDbVertex
100
AcDb2dVertex
 10
169.4621650501569
 20
-30.19266363920946
 30
0.0
  0
SEQEND
  5
D5
330
D2
100
AcDbEntity
  8
Rects
 62
   250
420
  2299925
370
    35
  0
POLYLINE
  5
D6
330
C5
100
AcDbEntity
  8
Rects
 62
   250
420
  2299925
370
    35
100
AcDb2dPolyline
 66
     1
 10
0.0
 20
0.0
 30
0.0
  0
VERTEX
  5
D7
330
D6
100
AcDbEntity
  8
Rects
 62
   250
420
  2299925
370
    35
100
AcDbVertex
100
AcDb2dVertex
 10
189.4424169535503
 20
-10.23104991974363
 30
0.0
  0
VERTEX
  5
D8
330
D6
100
AcDbEntity
  8
Rects
 62
   250
420
  2299925
370
    35
100
AcDbVertex
100
AcDb2dVertex
 10
199.4616100879202
 20
-0.2118567853743356
 30
0.0
  0
SEQEND
  5
D9
330
D6
100
AcDbEntity
  8
Rects
 62
   250
420
  2299925
370
    35
  0
POLYLINE
  5
DA
330
C5
100
AcDbEntity
  8
Rects
 62
   250
420
  2299925
370
    35
100
AcDb2dPolyline
 66
     1
 10
0.0
 20
0.0
 30
0.0
  0
VERTEX
  5
DB
330
DA
100
AcDbEntity
  8
Rects
 62
   250
420
  2299925
370
    35
100
AcDbVertex
100
AcDb2dVertex
 10
199.4274703225341
 20
-80.18703609105184
 30
0.0
  0
VERTEX
  5
DC
330
DA
100
AcDbEntity
  8
Rects
 62
   250
420
  2299925
370
    35
100
AcDbVertex
100
AcDb2dVertex
 10
209.4466634569028
 20
-70.16784295668253
 30
0.0
  0
SEQEND
  5
DD
330
DA
100
AcDbEntity
  8
Rects
 62
   250
420
  2299925
370
    35
  0
POLYLINE
  5
DE
330
C5
100
AcDbEntity
  8
Rects
 62
   250
420
  2299925
370
    35
100
AcDb2dPolyline
 66
     1
 10
0.0
 20
0.0
 30
0.0
  0
VERTEX
  5
DF
330
DE
100
AcDbEntity
  8
Rects
 62
   250
420
  2299925
370
    35
100
AcDbVertex
100
AcDb2dVertex
 10
229.4269153602971
 20
-50.20622923721671
 30
0.0
  0
VERTEX
  5
E0
330
DE
100
AcDbEntity
  8
Rects
 62
   250
420
  2299925
370
    35
100
AcDbVertex
100
AcDb2dVertex
 10
239.446108494667
 20
-40.18703610284742
 30
0.0
  0
SEQEND
  5
E1
330
DE
100
AcDbEntity
  8
Rects
 62
   250
420
  2299925
370
    35
  0
POLYLINE
  5
E2
330
C5
100
AcDbEntity
  8
Rects
 62
   250
420
  2299925
370
    35
100
AcDb2dPolyline
 66
     1
 10
0.0
 20
0.0
 30
0.0
  0
VERTEX
  5
E3
330
E2
100
AcDbEntity
  8
Rects
 62
   250
420
  2299925
370
    35
100
AcDbVertex
100
AcDb2dVertex
 10
169.5321747838739
 20
-50.27872594387534
 30
0.0
  0
VERTEX
  5
E4
330
E2
100
AcDbEntity
  8
Rects
 62
   250
420
  2299925
370
    35
100
AcDbVertex
100
AcDb2dVertex
 10
189.5186998850256
 20
-70.21570463030696
 30
0.0
  0
SEQEND
  5
E5
330
E2
100
AcDbEntity
  8
Rects
 62
   250
420
  2299925
370
    35
  0
ENDBLK
  5
C8
330
C5
100
AcDbEntity
  8
0
100
AcDbBlockEnd
  0
BLOCK
  5
E8
330
E6
100
AcDbEntity
  8
0
100
AcDbBlockBegin
  2
block 7
 70
     0
 10
0.0
 20
0.0
 30
0.0
  3
block 7
  1

  0
POLYLINE
  5
EA
330
E6
100
AcDbEntity
  8
Rects
 62
   250
420
  2299925
370
    35
100
AcDb2dPolyline
 66
     1
 10
0.0
 20
0.0
 30
0.0
  0
VERTEX
  5
EB
330
EA
100
AcDbEntity
  8
Rects
 62
   250
420
  2299925
370
    35
100
AcDbVertex
100
AcDb2dVertex
 10
159.4616100979203
 20
-160.1951900769164
 30
0.0
  0
VERTEX
  5
EC
330
EA
100
AcDbEntity
  8
Rects
 62
   250
420
  2299925
370
    35
100
AcDbVertex
100
AcDb2dVertex
 10
159.4616100979203
 20
-80.19519010050726
 30
0.0
  0
VERTEX
  5
ED
330
EA
100
AcDbEntity
  8
Rects
 62
   250
420
  2299925
370
    35
100
AcDbVertex
100
AcDb2dVertex
 10
239.4616100779198
 20
-80.19519010050726
 30
0.0
  0
SEQEND
  5
EE
330
EA
100
AcDbEntity
  8
Rects
 62
   250
420
  2299925
370
    35
  0
POLYLINE
  5
EF
330
E6
100
AcDbEntity
  8
Rects
 62
   250
420
  2299925
370
    35
100
AcDb2dPolyline
 66
     1
 10
0.0
 20
0.0
 30
0.0
  0
VERTEX
  5
F0
330
EF
100
AcDbEntity
  8
Rects
 62
   250
420
  2299925
370
    35
100
AcDbVertex
100
AcDb2dVertex
 10
209.4435268580235
 20
-90.25152142571272
 30
0.0
  0
VERTEX
  5
F1
330
EF
100
AcDbEntity
  8
Rects
 62
   250
420
  2299925
370
    35
100
AcDbVertex
100
AcDb2dVertex
 10
229.4300519591764
 20
-110.1885001121437
 30
0.0
  0
SEQEND
  5
F2
330
EF
100
AcDbEntity
  8
Rects
 62
   250
420
  2299925
370
    35
  0
POLYLINE
  5
F3
330
E6
100
AcDbEntity
  8
Rects
 62
   250
420
  2299925
370
    35
100
AcDb2dPolyline
 66
     1
 10
0.0
 20
0.0
 30
0.0
  0
VERTEX
  5
F4
330
F3
100
AcDbEntity
  8
Rects
 62
   250
420
  2299925
370
    35
100
AcDbVertex
100
AcDb2dVertex
 10
159.442971915787
 20
-120.1951900887114
 30
0.0
  0
VERTEX
  5
F5
330
F3
100
AcDbEntity
  8
Rects
 62
   250
420
  2299925
370
    35
100
AcDbVertex
100
AcDb2dVertex
 10
169.4621650501569
 20
-110.1759969543424
 30
0.0
  0
SEQEND
  5
F6
330
F3
100
AcDbEntity
  8
Rects
 62
   250
420
  2299925
370
    35
  0
POLYLINE
  5
F7
330
E6
100
AcDbEntity
  8
Rects
 62
   250
420
  2299925
370
    35
100
AcDb2dPolyline
 66
     1
 10
0.0
 20
0.0
 30
0.0
  0
VERTEX
  5
F8
330
F7
100
AcDbEntity
  8
Rects
 62
   250
420
  2299925
370
    35
100
AcDbVertex
100
AcDb2dVertex
 10
189.4424169535503
 20
-90.21438323487655
 30
0.0
  0
VERTEX
  5
F9
330
F7
100
AcDbEntity
  8
Rects
 62
   250
420
  2299925
370
    35
100
AcDbVertex
100
AcDb2dVertex
 10
199.4616100879202
 20
-80.19519010050726
 30
0.0
  0
SEQEND
  5
FA
330
F7
100
AcDbEntity
  8
Rects
 62
   250
420
  2299925
370
    35
  0
POLYLINE
  5
FB
330
E6
100
AcDbEntity
  8
Rects
 62
   250
420
  2299925
370
    35
100
AcDb2dPolyline
 66
     1
 10
0.0
 20
0.0
 30
0.0
  0
VERTEX
  5
FC
330
FB
100
AcDbEntity
  8
Rects
 62
   250
420
  2299925
370
    35
100
AcDbVertex
100
AcDb2dVertex
 10
199.4274703225341
 20
-160.1703694061844
 30
0.0
  0
VERTEX
  5
FD
330
FB
100
AcDbEntity
  8
Rects
 62
   250
420
  2299925
370
    35
100
AcDbVertex
100
AcDb2dVertex
 10
209.4466634569028
 20
-150.1511762718158
 30
0.0
  0
SEQEND
  5
FE
330
FB
100
AcDbEntity
  8
Rects
 62
   250
420
  2299925
370
    35
  0
POLYLINE
  5
FF
330
E6
100
AcDbEntity
  8
Rects
 62
   250
420
  2299925
370
    35
100
AcDb2dPolyline
 66
     1
 10
0.0
 20
0.0
 30
0.0
  0
VERTEX
  5
100
330
FF
100
AcDbEntity
  8
Rects
 62
   250
420
  2299925
370
    35
100
AcDbVertex
100
AcDb2dVertex
 10
229.4269153602971
 20
-130.1895625523496
 30
0.0
  0
VERTEX
  5
101
330
FF
100
AcDbEntity
  8
Rects
 62
   250
420
  2299925
370
    35
100
AcDbVertex
100
AcDb2dVertex
 10
239.446108494667
 20
-120.1703694179803
 30
0.0
  0
SEQEND
  5
102
330
FF
100
AcDbEntity
  8
Rects
 62
   250
420
  2299925
370
    35
  0
POLYLINE
  5
103
330
E6
100
AcDbEntity
  8
Rects
 62
   250
420
  2299925
370
    35
100
AcDb2dPolyline
 66
     1
 10
0.0
 20
0.0
 30
0.0
  0
VERTEX
  5
104
330
103
100
AcDbEntity
  8
Rects
 62
   250
420
  2299925
370
    35
100
AcDbVertex
100
AcDb2dVertex
 10
169.5321747838739
 20
-130.2620592590083
 30
0.0
  0
VERTEX
  5
105
330
103
100
AcDbEntity
  8
Rects
 62
   250
420
  2299925
370
    35
100
AcDbVertex
100
AcDb2dVertex
 10
189.5186998850256
 20
-150.1990379454402
 30
0.0
  0
SEQEND
  5
106
330
103
100
AcDbEntity
  8
Rects
 62
   250
420
  2299925
370
    35
  0
ENDBLK
  5
E9
330
E6
100
AcDbEntity
  8
0
100
AcDbBlockEnd
  0
BLOCK
  5
109
330
107
100
AcDbEntity
  8
0
100
AcDbBlockBegin
  2
block 8
 70
     0
 10
0.0
 20
0.0
 30
0.0
  3
block 8
  1

  0
POLYLINE
  5
10B
330
107
100
AcDbEntity
  8
Rects
 62
   250
420
  2299925
370
    35
100
AcDb2dPolyline
 66
     1
 10
0.0
 20
0.0
 30
0.0
  0
VERTEX
  5
10C
330
10B
100
AcDbEntity
  8
Rects
 62
   250
420
  2299925
370
    35
100
AcDbVertex
100
AcDb2dVertex
 10
239.4364032221345
 20
-80.21185676178317
 30
0.0
  0
VERTEX
  5
10D
330
10B
100
AcDbEntity
  8
Rects
 62
   250
420
  2299925
370
    35
100
AcDbVertex
100
AcDb2dVertex
 10
239.4364032221345
 20
-0.2118567853743356
 30
0.0
  0
VERTEX
  5
10E
330
10B
100
AcDbEntity
  8
Rects
 62
   250
420
  2299925
370
    35
100
AcDbVertex
100
AcDb2dVertex
 10
319.4364032021343
 20
-0.2118567853743356
 30
0.0
  0
SEQEND
  5
10F
330
10B
100
AcDbEntity
  8
Rects
 62
   250
420
  2299925
370
    35
  0
POLYLINE
  5
110
330
107
100
AcDbEntity
  8
Rects
 62
   250
420
  2299925
370
    35
100
AcDb2dPolyline
 66
     1
 10
0.0
 20
0.0
 30
0.0
  0
VERTEX
  5
111
330
110
100
AcDbEntity
  8
Rects
 62
   250
420
  2299925
370
    35
100
AcDbVertex
100
AcDb2dVertex
 10
289.4183199822389
 20
-10.26818811057981
 30
0.0
  0
VERTEX
  5
112
330
110
100
AcDbEntity
  8
Rects
 62
   250
420
  2299925
370
    35
100
AcDbVertex
100
AcDb2dVertex
 10
309.4048450833916
 20
-30.20516679701079
 30
0.0
  0
SEQEND
  5
113
330
110
100
AcDbEntity
  8
Rects
 62
   250
420
  2299925
370
    35
  0
POLYLINE
  5
114
330
107
100
AcDbEntity
  8
Rects
 62
   250
420
  2299925
370
    35
100
AcDb2dPolyline
 66
     1
 10
0.0
 20
0.0
 30
0.0
  0
VERTEX
  5
115
330
114
100
AcDbEntity
  8
Rects
 62
   250
420
  2299925
370
    35
100
AcDbVertex
100
AcDb2dVertex
 10
239.4177650400018
 20
-40.21185677357875
 30
0.0
  0
VERTEX
  5
116
330
114
100
AcDbEntity
  8
Rects
 62
   250
420
  2299925
370
    35
100
AcDbVertex
100
AcDb2dVertex
 10
249.4369581743717
 20
-30.19266363920946
 30
0.0
  0
SEQEND
  5
117
330
114
100
AcDbEntity
  8
Rects
 62
   250
420
  2299925
370
    35
  0
POLYLINE
  5
118
330
107
100
AcDbEntity
  8
Rects
 62
   250
420
  2299925
370
    35
100
AcDb2dPolyline
 66
     1
 10
0.0
 20
0.0
 30
0.0
  0
VERTEX
  5
119
330
118
100
AcDbEntity
  8
Rects
 62
   250
420
  2299925
370
    35
100
AcDbVertex
100
AcDb2dVertex
 10
269.4172100777651
 20
-10.23104991974363
 30
0.0
  0
VERTEX
  5
11A
330
118
100
AcDbEntity
  8
Rects
 62
   250
420
  2299925
370
    35
100
AcDbVertex
100
AcDb2dVertex
 10
279.4364032121344
 20
-0.2118567853743356
 30
0.0
  0
SEQEND
  5
11B
330
118
100
AcDbEntity
  8
Rects
 62
   250
420
  2299925
370
    35
  0
POLYLINE
  5
11C
330
107
100
AcDbEntity
  8
Rects
 62
   250
420
  2299925
370
    35
100
AcDb2dPolyline
 66
     1
 10
0.0
 20
0.0
 30
0.0
  0
VERTEX
  5
11D
330
11C
100
AcDbEntity
  8
Rects
 62
   250
420
  2299925
370
    35
100
AcDbVertex
100
AcDb2dVertex
 10
279.402263446749
 20
-80.18703609105184
 30
0.0
  0
VERTEX
  5
11E
330
11C
100
AcDbEntity
  8
Rects
 62
   250
420
  2299925
370
    35
100
AcDbVertex
100
AcDb2dVertex
 10
289.4214565811183
 20
-70.16784295668253
 30
0.0
  0
SEQEND
  5
11F
330
11C
100
AcDbEntity
  8
Rects
 62
   250
420
  2299925
370
    35
  0
POLYLINE
  5
120
330
107
100
AcDbEntity
  8
Rects
 62
   250
420
  2299925
370
    35
100
AcDb2dPolyline
 66
     1
 10
0.0
 20
0.0
 30
0.0
  0
VERTEX
  5
121
330
120
100
AcDbEntity
  8
Rects
 62
   250
420
  2299925
370
    35
100
AcDbVertex
100
AcDb2dVertex
 10
309.4017084845116
 20
-50.20622923721671
 30
0.0
  0
VERTEX
  5
122
330
120
100
AcDbEntity
  8
Rects
 62
   250
420
  2299925
370
    35
100
AcDbVertex
100
AcDb2dVertex
 10
319.4209016188815
 20
-40.18703610284742
 30
0.0
  0
SEQEND
  5
123
330
120
100
AcDbEntity
  8
Rects
 62
   250
420
  2299925
370
    35
  0
POLYLINE
  5
124
330
107
100
AcDbEntity
  8
Rects
 62
   250
420
  2299925
370
    35
100
AcDb2dPolyline
 66
     1
 10
0.0
 20
0.0
 30
0.0
  0
VERTEX
  5
125
330
124
100
AcDbEntity
  8
Rects
 62
   250
420
  2299925
370
    35
100
AcDbVertex
100
AcDb2dVertex
 10
249.5069679080878
 20
-50.27872594387534
 30
0.0
  0
VERTEX
  5
126
330
124
100
AcDbEntity
  8
Rects
 62
   250
420
  2299925
370
    35
100
AcDbVertex
100
AcDb2dVertex
 10
269.4934930092404
 20
-70.21570463030696
 30
0.0
  0
SEQEND
  5
127
330
124
100
AcDbEntity
  8
Rects
 62
   250
420
  2299925
370
    35
  0
ENDBLK
  5
10A
330
107
100
AcDbEntity
  8
0
100
AcDbBlockEnd
  0
BLOCK
  5
12A
330
128
100
AcDbEntity
  8
0
100
AcDbBlockBegin
  2
block 9
 70
     0
 10
0.0
 20
0.0
 30
0.0
  3
block 9
  1

  0
POLYLINE
  5
12C
330
128
100
AcDbEntity
  8
Rects
 62
   250
420
  2299925
370
    35
100
AcDb2dPolyline
 66
     1
 10
0.0
 20
0.0
 30
0.0
  0
VERTEX
  5
12D
330
12C
100
AcDbEntity
  8
Rects
 62
   250
420
  2299925
370
    35
100
AcDbVertex
100
AcDb2dVertex
 10
239.4364032221345
 20
-160.1951900769151
 30
0.0
  0
VERTEX
  5
12E
330
12C
100
AcDbEntity
  8
Rects
 62
   250
420
  2299925
370
    35
100
AcDbVertex
100
AcDb2dVertex
 10
239.4364032221345
 20
-80.19519010050726
 30
0.0
  0
VERTEX
  5
12F
330
12C
100
AcDbEntity
  8
Rects
 62
   250
420
  2299925
370
    35
100
AcDbVertex
100
AcDb2dVertex
 10
319.4364032021343
 20
-80.19519010050726
 30
0.0
  0
SEQEND
  5
130
330
12C
100
AcDbEntity
  8
Rects
 62
   250
420
  2299925
370
    35
  0
POLYLINE
  5
131
330
128
100
AcDbEntity
  8
Rects
 62
   250
420
  2299925
370
    35
100
AcDb2dPolyline
 66
     1
 10
0.0
 20
0.0
 30
0.0
  0
VERTEX
  5
132
330
131
100
AcDbEntity
  8
Rects
 62
   250
420
  2299925
370
    35
100
AcDbVertex
100
AcDb2dVertex
 10
289.4183199822389
 20
-90.25152142571272
 30
0.0
  0
VERTEX
  5
133
330
131
100
AcDbEntity
  8
Rects
 62
   250
420
  2299925
370
    35
100
AcDbVertex
100
AcDb2dVertex
 10
309.4048450833916
 20
-110.1885001121437
 30
0.0
  0
SEQEND
  5
134
330
131
100
AcDbEntity
  8
Rects
 62
   250
420
  2299925
370
    35
  0
POLYLINE
  5
135
330
128
100
AcDbEntity
  8
Rects
 62
   250
420
  2299925
370
    35
100
AcDb2dPolyline
 66
     1
 10
0.0
 20
0.0
 30
0.0
  0
VERTEX
  5
136
330
135
100
AcDbEntity
  8
Rects
 62
   250
420
  2299925
370
    35
100
AcDbVertex
100
AcDb2dVertex
 10
239.4177650400018
 20
-120.1951900887114
 30
0.0
  0
VERTEX
  5
137
330
135
100
AcDbEntity
  8
Rects
 62
   250
420
  2299925
370
    35
100
AcDbVertex
100
AcDb2dVertex
 10
249.4369581743717
 20
-110.1759969543424
 30
0.0
  0
SEQEND
  5
138
330
135
100
AcDbEntity
  8
Rects
 62
   250
420
  2299925
370
    35
  0
POLYLINE
  5
139
330
128
100
AcDbEntity
  8
Rects
 62
   250
420
  2299925
370
    35
100
AcDb2dPolyline
 66
     1
 10
0.0
 20
0.0
 30
0.0
  0
VERTEX
  5
13A
330
139
100
AcDbEntity
  8
Rects
 62
   250
420
  2299925
370
    35
100
AcDbVertex
100
AcDb2dVertex
 10
269.4172100777651
 20
-90.21438323487655
 30
0.0
  0
VERTEX
  5
13B
330
139
100
AcDbEntity
  8
Rects
 62
   250
420
  2299925
370
    35
100
AcDbVertex
100
AcDb2dVertex
 10
279.4364032121344
 20
-80.19519010050726
 30
0.0
  0
SEQEND
  5
13C
330
139
100
AcDbEntity
  8
Rects
 62
   250
420
  2299925
370
    35
  0
POLYLINE
  5
13D
330
128
100
AcDbEntity
  8
Rects
 62
   250
420
  2299925
370
    35
100
AcDb2dPolyline
 66
     1
 10
0.0
 20
0.0
 30
0.0
  0
VERTEX
  5
13E
330
13D
100
AcDbEntity
  8
Rects
 62
   250
420
  2299925
370
    35
100
AcDbVertex
100
AcDb2dVertex
 10
279.402263446749
 20
-160.1703694061844
 30
0.0
  0
VERTEX
  5
13F
330
13D
100
AcDbEntity
  8
Rects
 62
   250
420
  2299925
370
    35
100
AcDbVertex
100
AcDb2dVertex
 10
289.4214565811183
 20
-150.1511762718158
 30
0.0
  0
SEQEND
  5
140
330
13D
100
AcDbEntity
  8
Rects
 62
   250
420
  2299925
370
    35
  0
POLYLINE
  5
141
330
128
100
AcDbEntity
  8
Rects
 62
   250
420
  2299925
370
    35
100
AcDb2dPolyline
 66
     1
 10
0.0
 20
0.0
 30
0.0
  0
VERTEX
  5
142
330
141
100
AcDbEntity
  8
Rects
 62
   250
420
  2299925
370
    35
100
AcDbVertex
100
AcDb2dVertex
 10
309.4017084845116
 20
-130.1895625523496
 30
0.0
  0
VERTEX
  5
143
330
141
100
AcDbEntity
  8
Rects
 62
   250
420
  2299925
370
    35
100
AcDbVertex
100
AcDb2dVertex
 10
319.4209016188815
 20
-120.1703694179803
 30
0.0
  0
SEQEND
  5
144
330
141
100
AcDbEntity
  8
Rects
 62
   250
420
  2299925
370
    35
  0
POLYLINE
  5
145
330
128
100
AcDbEntity
  8
Rects
 62
   250
420
  2299925
370
    35
100
AcDb2dPolyline
 66
     1
 10
0.0
 20
0.0
 30
0.0
  0
VERTEX
  5
146
330
145
100
AcDbEntity
  8
Rects
 62
   250
420
  2299925
370
    35
100
AcDbVertex
100
AcDb2dVertex
 10
249.5069679080878
 20
-130.2620592590083
 30
0.0
  0
VERTEX
  5
147
330
145
100
AcDbEntity
  8
Rects
 62
   250
420
  2299925
370
    35
100
AcDbVertex
100
AcDb2dVertex
 10
269.4934930092404
 20
-150.1990379454402
 30
0.0
  0
SEQEND
  5
148
330
145
100
AcDbEntity
  8
Rects
 62
   250
420
  2299925
370
    35
  0
ENDBLK
  5
12B
330
128
100
AcDbEntity
  8
0
100
AcDbBlockEnd
  0
BLOCK
  5
14B
330
149
100
AcDbEntity
  8
0
100
AcDbBlockBegin
  2
block 10
 70
     0
 10
0.0
 20
0.0
 30
0.0
  3
block 10
  1

  0
POLYLINE
  5
14D
330
149
100
AcDbEntity
  8
Rects
 62
   250
420
  2299925
370
    35
100
AcDb2dPolyline
 66
     1
 10
0.0
 20
0.0
 30
0.0
  0
VERTEX
  5
14E
330
14D
100
AcDbEntity
  8
Rects
 62
   250
420
  2299925
370
    35
100
AcDbVertex
100
AcDb2dVertex
 10
319.411560441475
 20
-80.21404588662992
 30
0.0
  0
VERTEX
  5
14F
330
14D
100
AcDbEntity
  8
Rects
 62
   250
420
  2299925
370
    35
100
AcDbVertex
100
AcDb2dVertex
 10
319.411560441475
 20
-0.214045910221082
 30
0.0
  0
VERTEX
  5
150
330
14D
100
AcDbEntity
  8
Rects
 62
   250
420
  2299925
370
    35
100
AcDbVertex
100
AcDb2dVertex
 10
399.4115604214761
 20
-0.214045910221082
 30
0.0
  0
SEQEND
  5
151
330
14D
100
AcDbEntity
  8
Rects
 62
   250
420
  2299925
370
    35
  0
POLYLINE
  5
152
330
149
100
AcDbEntity
  8
Rects
 62
   250
420
  2299925
370
    35
100
AcDb2dPolyline
 66
     1
 10
0.0
 20
0.0
 30
0.0
  0
VERTEX
  5
153
330
152
100
AcDbEntity
  8
Rects
 62
   250
420
  2299925
370
    35
100
AcDbVertex
100
AcDb2dVertex
 10
369.3934772015795
 20
-10.27037723542655
 30
0.0
  0
VERTEX
  5
154
330
152
100
AcDbEntity
  8
Rects
 62
   250
420
  2299925
370
    35
100
AcDbVertex
100
AcDb2dVertex
 10
389.3800023027321
 20
-30.20735592185754
 30
0.0
  0
SEQEND
  5
155
330
152
100
AcDbEntity
  8
Rects
 62
   250
420
  2299925
370
    35
  0
POLYLINE
  5
156
330
149
100
AcDbEntity
  8
Rects
 62
   250
420
  2299925
370
    35
100
AcDb2dPolyline
 66
     1
 10
0.0
 20
0.0
 30
0.0
  0
VERTEX
  5
157
330
156
100
AcDbEntity
  8
Rects
 62
   250
420
  2299925
370
    35
100
AcDbVertex
100
AcDb2dVertex
 10
319.3929222593423
 20
-40.2140458984255
 30
0.0
  0
VERTEX
  5
158
330
156
100
AcDbEntity
  8
Rects
 62
   250
420
  2299925
370
    35
100
AcDbVertex
100
AcDb2dVertex
 10
329.4121153937135
 20
-30.1948527640562
 30
0.0
  0
SEQEND
  5
159
330
156
100
AcDbEntity
  8
Rects
 62
   250
420
  2299925
370
    35
  0
POLYLINE
  5
15A
330
149
100
AcDbEntity
  8
Rects
 62
   250
420
  2299925
370
    35
100
AcDb2dPolyline
 66
     1
 10
0.0
 20
0.0
 30
0.0
  0
VERTEX
  5
15B
330
15A
100
AcDbEntity
  8
Rects
 62
   250
420
  2299925
370
    35
100
AcDbVertex
100
AcDb2dVertex
 10
349.3923672971063
 20
-10.23323904459038
 30
0.0
  0
VERTEX
  5
15C
330
15A
100
AcDbEntity
  8
Rects
 62
   250
420
  2299925
370
    35
100
AcDbVertex
100
AcDb2dVertex
 10
359.4115604314775
 20
-0.214045910221082
 30
0.0
  0
SEQEND
  5
15D
330
15A
100
AcDbEntity
  8
Rects
 62
   250
420
  2299925
370
    35
  0
POLYLINE
  5
15E
330
149
100
AcDbEntity
  8
Rects
 62
   250
420
  2299925
370
    35
100
AcDb2dPolyline
 66
     1
 10
0.0
 20
0.0
 30
0.0
  0
VERTEX
  5
15F
330
15E
100
AcDbEntity
  8
Rects
 62
   250
420
  2299925
370
    35
100
AcDbVertex
100
AcDb2dVertex
 10
359.3774206660901
 20
-80.18922521589857
 30
0.0
  0
VERTEX
  5
160
330
15E
100
AcDbEntity
  8
Rects
 62
   250
420
  2299925
370
    35
100
AcDbVertex
100
AcDb2dVertex
 10
369.3966138004581
 20
-70.17003208152929
 30
0.0
  0
SEQEND
  5
161
330
15E
100
AcDbEntity
  8
Rects
 62
   250
420
  2299925
370
    35
  0
POLYLINE
  5
162
330
149
100
AcDbEntity
  8
Rects
 62
   250
420
  2299925
370
    35
100
AcDb2dPolyline
 66
     1
 10
0.0
 20
0.0
 30
0.0
  0
VERTEX
  5
163
330
162
100
AcDbEntity
  8
Rects
 62
   250
420
  2299925
370
    35
100
AcDbVertex
100
AcDb2dVertex
 10
389.3768657038534
 20
-50.20841836206345
 30
0.0
  0
VERTEX
  5
164
330
162
100
AcDbEntity
  8
Rects
 62
   250
420
  2299925
370
    35
100
AcDbVertex
100
AcDb2dVertex
 10
399.3960588382253
 20
-40.18922522769416
 30
0.0
  0
SEQEND
  5
165
330
162
100
AcDbEntity
  8
Rects
 62
   250
420
  2299925
370
    35
  0
POLYLINE
  5
166
330
149
100
AcDbEntity
  8
Rects
 62
   250
420
  2299925
370
    35
100
AcDb2dPolyline
 66
     1
 10
0.0
 20
0.0
 30
0.0
  0
VERTEX
  5
167
330
166
100
AcDbEntity
  8
Rects
 62
   250
420
  2299925
370
    35
100
AcDbVertex
100
AcDb2dVertex
 10
329.4821251274296
 20
-50.28091506872209
 30
0.0
  0
VERTEX
  5
168
330
166
100
AcDbEntity
  8
Rects
 62
   250
420
  2299925
370
    35
100
AcDbVertex
100
AcDb2dVertex
 10
349.4686502285822
 20
-70.21789375515404
 30
0.0
  0
SEQEND
  5
169
330
166
100
AcDbEntity
  8
Rects
 62
   250
420
  2299925
370
    35
  0
ENDBLK
  5
14C
330
149
100
AcDbEntity
  8
0
100
AcDbBlockEnd
  0
BLOCK
  5
16C
330
16A
100
AcDbEntity
  8
0
100
AcDbBlockBegin
  2
block 11
 70
     0
 10
0.0
 20
0.0
 30
0.0
  3
block 11
  1

  0
POLYLINE
  5
16E
330
16A
100
AcDbEntity
  8
Rects
 62
   250
420
  2299925
370
    35
100
AcDb2dPolyline
 66
     1
 10
0.0
 20
0.0
 30
0.0
  0
VERTEX
  5
16F
330
16E
100
AcDbEntity
  8
Rects
 62
   250
420
  2299925
370
    35
100
AcDbVertex
100
AcDb2dVertex
 10
319.411560441475
 20
-160.1973792017628
 30
0.0
  0
VERTEX
  5
170
330
16E
100
AcDbEntity
  8
Rects
 62
   250
420
  2299925
370
    35
100
AcDbVertex
100
AcDb2dVertex
 10
319.411560441475
 20
-80.197379225354
 30
0.0
  0
VERTEX
  5
171
330
16E
100
AcDbEntity
  8
Rects
 62
   250
420
  2299925
370
    35
100
AcDbVertex
100
AcDb2dVertex
 10
399.4115604214761
 20
-80.197379225354
 30
0.0
  0
SEQEND
  5
172
330
16E
100
AcDbEntity
  8
Rects
 62
   250
420
  2299925
370
    35
  0
POLYLINE
  5
173
330
16A
100
AcDbEntity
  8
Rects
 62
   250
420
  2299925
370
    35
100
AcDb2dPolyline
 66
     1
 10
0.0
 20
0.0
 30
0.0
  0
VERTEX
  5
174
330
173
100
AcDbEntity
  8
Rects
 62
   250
420
  2299925
370
    35
100
AcDbVertex
100
AcDb2dVertex
 10
369.3934772015795
 20
-90.25371055055948
 30
0.0
  0
VERTEX
  5
175
330
173
100
AcDbEntity
  8
Rects
 62
   250
420
  2299925
370
    35
100
AcDbVertex
100
AcDb2dVertex
 10
389.3800023027321
 20
-110.1906892369905
 30
0.0
  0
SEQEND
  5
176
330
173
100
AcDbEntity
  8
Rects
 62
   250
420
  2299925
370
    35
  0
POLYLINE
  5
177
330
16A
100
AcDbEntity
  8
Rects
 62
   250
420
  2299925
370
    35
100
AcDb2dPolyline
 66
     1
 10
0.0
 20
0.0
 30
0.0
  0
VERTEX
  5
178
330
177
100
AcDbEntity
  8
Rects
 62
   250
420
  2299925
370
    35
100
AcDbVertex
100
AcDb2dVertex
 10
319.3929222593423
 20
-120.1973792135587
 30
0.0
  0
VERTEX
  5
179
330
177
100
AcDbEntity
  8
Rects
 62
   250
420
  2299925
370
    35
100
AcDbVertex
100
AcDb2dVertex
 10
329.4121153937135
 20
-110.1781860791891
 30
0.0
  0
SEQEND
  5
17A
330
177
100
AcDbEntity
  8
Rects
 62
   250
420
  2299925
370
    35
  0
POLYLINE
  5
17B
330
16A
100
AcDbEntity
  8
Rects
 62
   250
420
  2299925
370
    35
100
AcDb2dPolyline
 66
     1
 10
0.0
 20
0.0
 30
0.0
  0
VERTEX
  5
17C
330
17B
100
AcDbEntity
  8
Rects
 62
   250
420
  2299925
370
    35
100
AcDbVertex
100
AcDb2dVertex
 10
349.3923672971063
 20
-90.21657235972297
 30
0.0
  0
VERTEX
  5
17D
330
17B
100
AcDbEntity
  8
Rects
 62
   250
420
  2299925
370
    35
100
AcDbVertex
100
AcDb2dVertex
 10
359.4115604314775
 20
-80.197379225354
 30
0.0
  0
SEQEND
  5
17E
330
17B
100
AcDbEntity
  8
Rects
 62
   250
420
  2299925
370
    35
  0
POLYLINE
  5
17F
330
16A
100
AcDbEntity
  8
Rects
 62
   250
420
  2299925
370
    35
100
AcDb2dPolyline
 66
     1
 10
0.0
 20
0.0
 30
0.0
  0
VERTEX
  5
180
330
17F
100
AcDbEntity
  8
Rects
 62
   250
420
  2299925
370
    35
100
AcDbVertex
100
AcDb2dVertex
 10
359.3774206660901
 20
-160.1725585310321
 30
0.0
  0
VERTEX
  5
181
330
17F
100
AcDbEntity
  8
Rects
 62
   250
420
  2299925
370
    35
100
AcDbVertex
100
AcDb2dVertex
 10
369.3966138004581
 20
-150.1533653966622
 30
0.0
  0
SEQEND
  5
182
330
17F
100
AcDbEntity
  8
Rects
 62
   250
420
  2299925
370
    35
  0
POLYLINE
  5
183
330
16A
100
AcDbEntity
  8
Rects
 62
   250
420
  2299925
370
    35
100
AcDb2dPolyline
 66
     1
 10
0.0
 20
0.0
 30
0.0
  0
VERTEX
  5
184
330
183
100
AcDbEntity
  8
Rects
 62
   250
420
  2299925
370
    35
100
AcDbVertex
100
AcDb2dVertex
 10
389.3768657038534
 20
-130.1917516771964
 30
0.0
  0
VERTEX
  5
185
330
183
100
AcDbEntity
  8
Rects
 62
   250
420
  2299925
370
    35
100
AcDbVertex
100
AcDb2dVertex
 10
399.3960588382253
 20
-120.1725585428268
 30
0.0
  0
SEQEND
  5
186
330
183
100
AcDbEntity
  8
Rects
 62
   250
420
  2299925
370
    35
  0
POLYLINE
  5
187
330
16A
100
AcDbEntity
  8
Rects
 62
   250
420
  2299925
370
    35
100
AcDb2dPolyline
 66
     1
 10
0.0
 20
0.0
 30
0.0
  0
VERTEX
  5
188
330
187
100
AcDbEntity
  8
Rects
 62
   250
420
  2299925
370
    35
100
AcDbVertex
100
AcDb2dVertex
 10
329.4821251274296
 20
-130.264248383855
 30
0.0
  0
VERTEX
  5
189
330
187
100
AcDbEntity
  8
Rects
 62
   250
420
  2299925
370
    35
100
AcDbVertex
100
AcDb2dVertex
 10
349.4686502285822
 20
-150.2012270702866
 30
0.0
  0
SEQEND
  5
18A
330
187
100
AcDbEntity
  8
Rects
 62
   250
420
  2299925
370
    35
  0
ENDBLK
  5
16D
330
16A
100
AcDbEntity
  8
0
100
AcDbBlockEnd
  0
BLOCK
  5
18D
330
18B
100
AcDbEntity
  8
0
100
AcDbBlockBegin
  2
block 12
 70
     0
 10
0.0
 20
0.0
 30
0.0
  3
block 12
  1

  0
POLYLINE
  5
18F
330
18B
100
AcDbEntity
  8
Rects
 62
   250
420
  2299925
370
    35
100
AcDb2dPolyline
 66
     1
 10
0.0
 20
0.0
 30
0.0
  0
VERTEX
  5
190
330
18F
100
AcDbEntity
  8
Rects
 62
   250
420
  2299925
370
    35
100
AcDbVertex
100
AcDb2dVertex
 10
399.3915604214792
 20
-80.21404588662992
 30
0.0
  0
VERTEX
  5
191
330
18F
100
AcDbEntity
  8
Rects
 62
   250
420
  2299925
370
    35
100
AcDbVertex
100
AcDb2dVertex
 10
399.3915604214792
 20
-0.214045910221082
 30
0.0
  0
VERTEX
  5
192
330
18F
100
AcDbEntity
  8
Rects
 62
   250
420
  2299925
370
    35
100
AcDbVertex
100
AcDb2dVertex
 10
479.3915604014803
 20
-0.214045910221082
 30
0.0
  0
SEQEND
  5
193
330
18F
100
AcDbEntity
  8
Rects
 62
   250
420
  2299925
370
    35
  0
POLYLINE
  5
194
330
18B
100
AcDbEntity
  8
Rects
 62
   250
420
  2299925
370
    35
100
AcDb2dPolyline
 66
     1
 10
0.0
 20
0.0
 30
0.0
  0
VERTEX
  5
195
330
194
100
AcDbEntity
  8
Rects
 62
   250
420
  2299925
370
    35
100
AcDbVertex
100
AcDb2dVertex
 10
449.3734771815875
 20
-10.27037723542655
 30
0.0
  0
VERTEX
  5
196
330
194
100
AcDbEntity
  8
Rects
 62
   250
420
  2299925
370
    35
100
AcDbVertex
100
AcDb2dVertex
 10
469.3600022827369
 20
-30.20735592185754
 30
0.0
  0
SEQEND
  5
197
330
194
100
AcDbEntity
  8
Rects
 62
   250
420
  2299925
370
    35
  0
POLYLINE
  5
198
330
18B
100
AcDbEntity
  8
Rects
 62
   250
420
  2299925
370
    35
100
AcDb2dPolyline
 66
     1
 10
0.0
 20
0.0
 30
0.0
  0
VERTEX
  5
199
330
198
100
AcDbEntity
  8
Rects
 62
   250
420
  2299925
370
    35
100
AcDbVertex
100
AcDb2dVertex
 10
399.3729222393465
 20
-40.2140458984255
 30
0.0
  0
VERTEX
  5
19A
330
198
100
AcDbEntity
  8
Rects
 62
   250
420
  2299925
370
    35
100
AcDbVertex
100
AcDb2dVertex
 10
409.3921153737177
 20
-30.1948527640562
 30
0.0
  0
SEQEND
  5
19B
330
198
100
AcDbEntity
  8
Rects
 62
   250
420
  2299925
370
    35
  0
POLYLINE
  5
19C
330
18B
100
AcDbEntity
  8
Rects
 62
   250
420
  2299925
370
    35
100
AcDb2dPolyline
 66
     1
 10
0.0
 20
0.0
 30
0.0
  0
VERTEX
  5
19D
330
19C
100
AcDbEntity
  8
Rects
 62
   250
420
  2299925
370
    35
100
AcDbVertex
100
AcDb2dVertex
 10
429.3723672771105
 20
-10.23323904459038
 30
0.0
  0
VERTEX
  5
19E
330
19C
100
AcDbEntity
  8
Rects
 62
   250
420
  2299925
370
    35
100
AcDbVertex
100
AcDb2dVertex
 10
439.3915604114817
 20
-0.214045910221082
 30
0.0
  0
SEQEND
  5
19F
330
19C
100
AcDbEntity
  8
Rects
 62
   250
420
  2299925
370
    35
  0
POLYLINE
  5
1A0
330
18B
100
AcDbEntity
  8
Rects
 62
   250
420
  2299925
370
    35
100
AcDb2dPolyline
 66
     1
 10
0.0
 20
0.0
 30
0.0
  0
VERTEX
  5
1A1
330
1A0
100
AcDbEntity
  8
Rects
 62
   250
420
  2299925
370
    35
100
AcDbVertex
100
AcDb2dVertex
 10
439.3574206460943
 20
-80.18922521589857
 30
0.0
  0
VERTEX
  5
1A2
330
1A0
100
AcDbEntity
  8
Rects
 62
   250
420
  2299925
370
    35
100
AcDbVertex
100
AcDb2dVertex
 10
449.3766137804662
 20
-70.17003208152929
 30
0.0
  0
SEQEND
  5
1A3
330
1A0
100
AcDbEntity
  8
Rects
 62
   250
420
  2299925
370
    35
  0
POLYLINE
  5
1A4
330
18B
100
AcDbEntity
  8
Rects
 62
   250
420
  2299925
370
    35
100
AcDb2dPolyline
 66
     1
 10
0.0
 20
0.0
 30
0.0
  0
VERTEX
  5
1A5
330
1A4
100
AcDbEntity
  8
Rects
 62
   250
420
  2299925
370
    35
100
AcDbVertex
100
AcDb2dVertex
 10
469.3568656838582
 20
-50.20841836206345
 30
0.0
  0
VERTEX
  5
1A6
330
1A4
100
AcDbEntity
  8
Rects
 62
   250
420
  2299925
370
    35
100
AcDbVertex
100
AcDb2dVertex
 10
479.3760588182295
 20
-40.18922522769416
 30
0.0
  0
SEQEND
  5
1A7
330
1A4
100
AcDbEntity
  8
Rects
 62
   250
420
  2299925
370
    35
  0
POLYLINE
  5
1A8
330
18B
100
AcDbEntity
  8
Rects
 62
   250
420
  2299925
370
    35
100
AcDb2dPolyline
 66
     1
 10
0.0
 20
0.0
 30
0.0
  0
VERTEX
  5
1A9
330
1A8
100
AcDbEntity
  8
Rects
 62
   250
420
  2299925
370
    35
100
AcDbVertex
100
AcDb2dVertex
 10
409.4621251074357
 20
-50.28091506872209
 30
0.0
  0
VERTEX
  5
1AA
330
1A8
100
AcDbEntity
  8
Rects
 62
   250
420
  2299925
370
    35
100
AcDbVertex
100
AcDb2dVertex
 10
429.4486502085883
 20
-70.21789375515404
 30
0.0
  0
SEQEND
  5
1AB
330
1A8
100
AcDbEntity
  8
Rects
 62
   250
420
  2299925
370
    35
  0
ENDBLK
  5
18E
330
18B
100
AcDbEntity
  8
0
100
AcDbBlockEnd
  0
BLOCK
  5
1AE
330
1AC
100
AcDbEntity
  8
0
100
AcDbBlockBegin
  2
block 13
 70
     0
 10
0.0
 20
0.0
 30
0.0
  3
block 13
  1

  0
POLYLINE
  5
1B0
330
1AC
100
AcDbEntity
  8
Rects
 62
   250
420
  2299925
370
    35
100
AcDb2dPolyline
 66
     1
 10
0.0
 20
0.0
 30
0.0
  0
VERTEX
  5
1B1
330
1B0
100
AcDbEntity
  8
Rects
 62
   250
420
  2299925
370
    35
100
AcDbVertex
100
AcDb2dVertex
 10
399.3915604214792
 20
-160.1973792017628
 30
0.0
  0
VERTEX
  5
1B2
330
1B0
100
AcDbEntity
  8
Rects
 62
   250
420
  2299925
370
    35
100
AcDbVertex
100
AcDb2dVertex
 10
399.3915604214792
 20
-80.197379225354
 30
0.0
  0
VERTEX
  5
1B3
330
1B0
100
AcDbEntity
  8
Rects
 62
   250
420
  2299925
370
    35
100
AcDbVertex
100
AcDb2dVertex
 10
479.3915604014803
 20
-80.197379225354
 30
0.0
  0
SEQEND
  5
1B4
330
1B0
100
AcDbEntity
  8
Rects
 62
   250
420
  2299925
370
    35
  0
POLYLINE
  5
1B5
330
1AC
100
AcDbEntity
  8
Rects
 62
   250
420
  2299925
370
    35
100
AcDb2dPolyline
 66
     1
 10
0.0
 20
0.0
 30
0.0
  0
VERTEX
  5
1B6
330
1B5
100
AcDbEntity
  8
Rects
 62
   250
420
  2299925
370
    35
100
AcDbVertex
100
AcDb2dVertex
 10
449.3734771815875
 20
-90.25371055055948
 30
0.0
  0
VERTEX
  5
1B7
330
1B5
100
AcDbEntity
  8
Rects
 62
   250
420
  2299925
370
    35
100
AcDbVertex
100
AcDb2dVertex
 10
469.3600022827369
 20
-110.1906892369905
 30
0.0
  0
SEQEND
  5
1B8
330
1B5
100
AcDbEntity
  8
Rects
 62
   250
420
  2299925
370
    35
  0
POLYLINE
  5
1B9
330
1AC
100
AcDbEntity
  8
Rects
 62
   250
420
  2299925
370
    35
100
AcDb2dPolyline
 66
     1
 10
0.0
 20
0.0
 30
0.0
  0
VERTEX
  5
1BA
330
1B9
100
AcDbEntity
  8
Rects
 62
   250
420
  2299925
370
    35
100
AcDbVertex
100
AcDb2dVertex
 10
399.3729222393465
 20
-120.1973792135587
 30
0.0
  0
VERTEX
  5
1BB
330
1B9
100
AcDbEntity
  8
Rects
 62
   250
420
  2299925
370
    35
100
AcDbVertex
100
AcDb2dVertex
 10
409.3921153737177
 20
-110.1781860791891
 30
0.0
  0
SEQEND
  5
1BC
330
1B9
100
AcDbEntity
  8
Rects
 62
   250
420
  2299925
370
    35
  0
POLYLINE
  5
1BD
330
1AC
100
AcDbEntity
  8
Rects
 62
   250
420
  2299925
370
    35
100
AcDb2dPolyline
 66
     1
 10
0.0
 20
0.0
 30
0.0
  0
VERTEX
  5
1BE
330
1BD
100
AcDbEntity
  8
Rects
 62
   250
420
  2299925
370
    35
100
AcDbVertex
100
AcDb2dVertex
 10
429.3723672771105
 20
-90.21657235972297
 30
0.0
  0
VERTEX
  5
1BF
330
1BD
100
AcDbEntity
  8
Rects
 62
   250
420
  2299925
370
    35
100
AcDbVertex
100
AcDb2dVertex
 10
439.3915604114817
 20
-80.197379225354
 30
0.0
  0
SEQEND
  5
1C0
330
1BD
100
AcDbEntity
  8
Rects
 62
   250
420
  2299925
370
    35
  0
POLYLINE
  5
1C1
330
1AC
100
AcDbEntity
  8
Rects
 62
   250
420
  2299925
370
    35
100
AcDb2dPolyline
 66
     1
 10
0.0
 20
0.0
 30
0.0
  0
VERTEX
  5
1C2
330
1C1
100
AcDbEntity
  8
Rects
 62
   250
420
  2299925
370
    35
100
AcDbVertex
100
AcDb2dVertex
 10
439.3574206460943
 20
-160.1725585310321
 30
0.0
  0
VERTEX
  5
1C3
330
1C1
100
AcDbEntity
  8
Rects
 62
   250
420
  2299925
370
    35
100
AcDbVertex
100
AcDb2dVertex
 10
449.3766137804662
 20
-150.1533653966622
 30
0.0
  0
SEQEND
  5
1C4
330
1C1
100
AcDbEntity
  8
Rects
 62
   250
420
  2299925
370
    35
  0
POLYLINE
  5
1C5
330
1AC
100
AcDbEntity
  8
Rects
 62
   250
420
  2299925
370
    35
100
AcDb2dPolyline
 66
     1
 10
0.0
 20
0.0
 30
0.0
  0
VERTEX
  5
1C6
330
1C5
100
AcDbEntity
  8
Rects
 62
   250
420
  2299925
370
    35
100
AcDbVertex
100
AcDb2dVertex
 10
469.3568656838582
 20
-130.1917516771964
 30
0.0
  0
VERTEX
  5
1C7
330
1C5
100
AcDbEntity
  8
Rects
 62
   250
420
  2299925
370
    35
100
AcDbVertex
100
AcDb2dVertex
 10
479.3760588182295
 20
-120.1725585428268
 30
0.0
  0
SEQEND
  5
1C8
330
1C5
100
AcDbEntity
  8
Rects
 62
   250
420
  2299925
370
    35
  0
POLYLINE
  5
1C9
330
1AC
100
AcDbEntity
  8
Rects
 62
   250
420
  2299925
370
    35
100
AcDb2dPolyline
 66
     1
 10
0.0
 20
0.0
 30
0.0
  0
VERTEX
  5
1CA
330
1C9
100
AcDbEntity
  8
Rects
 62
   250
420
  2299925
370
    35
100
AcDbVertex
100
AcDb2dVertex
 10
409.4621251074357
 20
-130.264248383855
 30
0.0
  0
VERTEX
  5
1CB
330
1C9
100
AcDbEntity
  8
Rects
 62
   250
420
  2299925
370
    35
100
AcDbVertex
100
AcDb2dVertex
 10
429.4486502085883
 20
-150.2012270702866
 30
0.0
  0
SEQEND
  5
1CC
330
1C9
100
AcDbEntity
  8
Rects
 62
   250
420
  2299925
370
    35
  0
ENDBLK
  5
1AF
330
1AC
100
AcDbEntity
  8
0
100
AcDbBlockEnd
  0
ENDSEC
  0
SECTION
  2
ENTITIES
  0
INSERT
  5
42
330
1F
100
AcDbEntity
  8
Rects
100
AcDbBlockReference
  2
block 2
 10
0.0
 20
0.0
 30
0.0
  0
INSERT
  5
63
330
1F
100
AcDbEntity
  8
Rects
100
AcDbBlockReference
  2
block 3
 10
0.0
 20
0.0
 30
0.0
  0
INSERT
  5
84
330
1F
100
AcDbEntity
  8
Rects
100
AcDbBlockReference
  2
block 4
 10
0.0
 20
0.0
 30
0.0
  0
INSERT
  5
A5
330
1F
100
AcDbEntity
  8
Rects
100
AcDbBlockReference
  2
block 5
 10
0.0
 20
0.0
 30
0.0
  0
INSERT
  5
C6
330
1F
100
AcDbEntity
  8
Rects
100
AcDbBlockReference
  2
block 6
 10
0.0
 20
0.0
 30
0.0
  0
INSERT
  5
E7
330
1F
100
AcDbEntity
  8
Rects
100
AcDbBlockReference
  2
block 7
 10
0.0
 20
0.0
 30
0.0
  0
INSERT
  5
108
330
1F
100
AcDbEntity
  8
Rects
100
AcDbBlockReference
  2
block 8
 10
0.0
 20
0.0
 30
0.0
  0
INSERT
  5
129
330
1F
100
AcDbEntity
  8
Rects
100
AcDbBlockReference
  2
block 9
 10
0.0
 20
0.0
 30
0.0
  0
INSERT
  5
14A
330
1F
100
AcDbEntity
  8
Rects
100
AcDbBlockReference
  2
block 10
 10
0.0
 20
0.0
 30
0.0
  0
INSERT
  5
16B
330
1F
100
AcDbEntity
  8
Rects
100
AcDbBlockReference
  2
block 11
 10
0.0
 20
0.0
 30
0.0
  0
INSERT
  5
18C
330
1F
100
AcDbEntity
  8
Rects
100
AcDbBlockReference
  2
block 12
 10
0.0
 20
0.0
 30
0.0
  0
INSERT
  5
1AD
330
1F
100
AcDbEntity
  8
Rects
100
AcDbBlockReference
  2
block 13
 10
0.0
 20
0.0
 30
0.0
  0
POLYLINE
  5
1CD
330
1F
100
AcDbEntity
  8
Rects
 62
   250
420
  2299925
370
    35
100
AcDb2dPolyline
 66
     1
 10
0.0
 20
0.0
 30
0.0
  0
VERTEX
  5
1CE
330
1CD
100
AcDbEntity
  8
Rects
 62
   250
420
  2299925
370
    35
100
AcDbVertex
100
AcDb2dVertex
 10
479.214999880197
 20
-0.3818177768923049
 30
0.0
  0
VERTEX
  5
1CF
330
1CD
100
AcDbEntity
  8
Rects
 62
   250
420
  2299925
370
    35
100
AcDbVertex
100
AcDb2dVertex
 10
479.214999880197
 20
-160.1999999599502
 30
0.0
  0
SEQEND
  5
1D0
330
1CD
100
AcDbEntity
  8
Rects
 62
   250
420
  2299925
370
    35
  0
POLYLINE
  5
1D1
330
1F
100
AcDbEntity
  8
Rects
 62
   250
420
  2299925
370
    35
100
AcDb2dPolyline
 66
     1
 10
0.0
 20
0.0
 30
0.0
  0
VERTEX
  5
1D2
330
1D1
100
AcDbEntity
  8
Rects
 62
   250
420
  2299925
370
    35
100
AcDbVertex
100
AcDb2dVertex
 10
-0.5655041022088021
 20
-160.0239999599941
 30
0.0
  0
VERTEX
  5
1D3
330
1D1
100
AcDbEntity
  8
Rects
 62
   250
420
  2299925
370
    35
100
AcDbVertex
100
AcDb2dVertex
 10
479.2504523023262
 20
-160.0250102098552
 30
0.0
  0
SEQEND
  5
1D4
330
1D1
100
AcDbEntity
  8
Rects
 62
   250
420
  2299925
370
    35
  0
ENDSEC
  0
SECTION
  2
OBJECTS
  0
DICTIONARY
  5
C
330
0
100
AcDbDictionary
281
     1
  3
ACAD_GROUP
350
D
  3
ACAD_LAYOUT
350
1A
  3
ACAD_MATERIAL
350
3B
  3
ACAD_MLEADERSTYLE
350
1D6
  3
ACAD_MLINESTYLE
350
17
  3
ACAD_PLOTSETTINGS
350
19
  3
ACAD_PLOTSTYLENAME
350
E
  3
ACAD_TABLESTYLE
350
1D5
  3
ACAD_VISUALSTYLE
350
2A
  0
SUN
  5
3F
330
29
100
AcDbSun
 90
        1
290
     0
 63
     7
421
 16777215
 40
1.0
291
     1
 91
  2455826
 92
 54000000
292
     0
 70
     2
 71
   256
280
     1
  0
DICTIONARY
  5
D
102
{ACAD_REACTORS
330
C
102
}
330
C
100
AcDbDictionary
281
     1
  0
DICTIONARY
  5
1A
102
{ACAD_REACTORS
330
C
102
}
330
C
100
AcDbDictionary
281
     1
  3
Layout1
350
1E
  3
Layout2
350
26
  3
Model
350
22
  0
DICTIONARY
  5
3B
102
{ACAD_REACTORS
330
C
102
}
330
C
100
AcDbDictionary
281
     1
  3
ByBlock
350
3D
  3
ByLayer
350
3C
  3
Global
350
3E
  0
DICTIONARY
  5
1D6
102
{ACAD_REACTORS
330
C
102
}
330
C
100
AcDbDictionary
281
     1
  0
DICTIONARY
  5
17
102
{ACAD_REACTORS
330
C
102
}
330
C
100
AcDbDictionary
281
     1
  3
Standard
350
18
  0
DICTIONARY
  5
19
102
{ACAD_REACTORS
330
C
102
}
330
C
100
AcDbDictionary
281
     1
  0
ACDBDICTIONARYWDFLT
  5
E
102
{ACAD_REACTORS
330
C
102
}
330
C
100
AcDbDictionary
281
     1
  3
Normal
350
F
100
AcDbDictionaryWithDefault
340
F
  0
DICTIONARY
  5
1D5
102
{ACAD_REACTORS
330
C
102
}
330
C
100
AcDbDictionary
281
     1
  0
DICTIONARY
  5
2A
102
{ACAD_REACTORS
330
C
102
}
330
C
100
AcDbDictionary
281
     1
  3
2dWireframe
350
2F
  3
3D Hidden
350
31
  3
3dWireframe
350
30
  3
Basic
350
32
  3
Brighten
350
36
  3
ColorChange
350
3A
  3
Conceptual
350
34
  3
Dim
350
35
  3
Facepattern
350
39
  3
Flat
350
2B
  3
FlatWithEdges
350
2C
  3
Gouraud
350
2D
  3
GouraudWithEdges
350
2E
  3
Linepattern
350
38
  3
Realistic
350
33
  3
Thicken
350
37
  0
LAYOUT
  5
1E
102
{ACAD_REACTORS
330
1A
102
}
330
1A
100
AcDbPlotSettings
  1

  2
none_device
  4

  6

 40
0.0
 41
0.0
 42
0.0
 43
0.0
 44
0.0
 45
0.0
 46
0.0
 47
0.0
 48
0.0
 49
0.0
140
0.0
141
0.0
142
1.0
143
1.0
 70
   688
 72
     0
 73
     0
 74
     5
  7

 75
    16
 76
     0
 77
     2
 78
   300
147
1.0
148
0.0
149
0.0
100
AcDbLayout
  1
Layout1
 70
     1
 71
     1
 10
0.0
 20
0.0
 11
12.0
 21
9.0
 12
0.0
 22
0.0
 32
0.0
 14
1.000000000000000E+20
 24
1.000000000000000E+20
 34
1.000000000000000E+20
 15
-1.000000000000000E+20
 25
-1.000000000000000E+20
 35
-1.000000000000000E+20
146
0.0
 13
0.0
 23
0.0
 33
0.0
 16
1.0
 26
0.0
 36
0.0
 17
0.0
 27
1.0
 37
0.0
 76
     0
330
1B
  0
LAYOUT
  5
26
102
{ACAD_REACTORS
330
1A
102
}
330
1A
100
AcDbPlotSettings
  1

  2
none_device
  4

  6

 40
0.0
 41
0.0
 42
0.0
 43
0.0
 44
0.0
 45
0.0
 46
0.0
 47
0.0
 48
0.0
 49
0.0
140
0.0
141
0.0
142
1.0
143
1.0
 70
   688
 72
     0
 73
     0
 74
     5
  7

 75
    16
 76
     0
 77
     2
 78
   300
147
1.0
148
0.0
149
0.0
100
AcDbLayout
  1
Layout2
 70
     1
 71
     2
 10
0.0
 20
0.0
 11
0.0
 21
0.0
 12
0.0
 22
0.0
 32
0.0
 14
0.0
 24
0.0
 34
0.0
 15
0.0
 25
0.0
 35
0.0
146
0.0
 13
0.0
 23
0.0
 33
0.0
 16
1.0
 26
0.0
 36
0.0
 17
0.0
 27
1.0
 37
0.0
 76
     0
330
23
  0
LAYOUT
  5
22
102
{ACAD_REACTORS
330
1A
102
}
330
1A
100
AcDbPlotSettings
  1

  2
none_device
  4

  6

 40
0.0
 41
0.0
 42
0.0
 43
0.0
 44
0.0
 45
0.0
 46
0.0
 47
0.0
 48
0.0
 49
0.0
140
0.0
141
0.0
142
1.0
143
1.0
 70
  1712
 72
     0
 73
     0
 74
     0
  7

 75
     0
 76
     0
 77
     2
 78
   300
147
1.0
148
0.0
149
0.0
100
AcDbLayout
  1
Model
 70
     1
 71
     0
 10
0.0
 20
0.0
 11
12.0
 21
9.0
 12
0.0
 22
0.0
 32
0.0
 14
1.000000000000000E+20
 24
1.000000000000000E+20
 34
1.000000000000000E+20
 15
-1.000000000000000E+20
 25
-1.000000000000000E+20
 35
-1.000000000000000E+20
146
0.0
 13
0.0
 23
0.0
 33
0.0
 16
1.0
 26
0.0
 36
0.0
 17
0.0
 27
1.0
 37
0.0
 76
     0
330
1F
331
29
  0
MATERIAL
  5
3D
102
{ACAD_REACTORS
330
3B
102
}
330
3B
100
AcDbMaterial
  1
ByBlock
 72
     1
 94
      127
  0
MATERIAL
  5
3C
102
{ACAD_REACTORS
330
3B
102
}
330
3B
100
AcDbMaterial
  1
ByLayer
 72
     1
 94
      127
  0
MATERIAL
  5
3E
102
{ACAD_REACTORS
330
3B
102
}
330
3B
100
AcDbMaterial
  1
Global
 72
     1
 94
      127
  0
MLINESTYLE
  5
18
102
{ACAD_REACTORS
330
17
102
}
330
17
100
AcDbMlineStyle
  2
Standard
 70
     0
  3

 62
   256
 51
90.0
 52
90.0
 71
     2
 49
0.5
 62
   256
  6
BYLAYER
 49
-0.5
 62
   256
  6
BYLAYER
  0
ACDBPLACEHOLDER
  5
F
102
{ACAD_REACTORS
330
E
102
}
330
E
  0
VISUALSTYLE
  5
2F
102
{ACAD_REACTORS
330
2A
102
}
330
2A
100
AcDbVisualStyle
  2
2dWireframe
 70
     4
177
     2
291
     0
 71
     0
176
     1
 72
     2
176
     1
 73
     0
176
     1
 90
        0
176
     1
 40
-0.6
176
     1
 41
-30.0
176
     1
 62
     5
 63
     7
421
 16777215
176
     1
 74
     1
176
     1
 91
        4
176
     1
 64
     7
176
     1
 65
   257
176
     1
 75
     1
176
     1
175
     1
176
     1
 42
1.0
176
     1
 92
        0
176
     1
 66
   257
176
     1
 43
1.0
176
     1
 76
     1
176
     1
 77
     6
176
     1
 78
     2
176
     1
 67
     7
176
     1
 79
     5
176
     1
170
     0
176
     1
171
     0
176
     1
290
     0
176
     1
 93
        1
176
     1
 44
0.0
176
     1
173
     0
176
     1
  0
VISUALSTYLE
  5
31
102
{ACAD_REACTORS
330
2A
102
}
330
2A
100
AcDbVisualStyle
  2
3D Hidden
 70
     6
177
     2
291
     0
 71
     1
176
     1
 72
     2
176
     1
 73
     2
176
     1
 90
        0
176
     1
 40
-0.6
176
     1
 41
-30.0
176
     1
 62
     5
 63
     7
421
 16777215
176
     1
 74
     2
176
     1
 91
        2
176
     1
 64
     7
176
     1
 65
   257
176
     1
 75
     2
176
     1
175
     1
176
     1
 42
40.0
176
     1
 92
        0
176
     1
 66
   257
176
     1
 43
1.0
176
     1
 76
     1
176
     1
 77
     6
176
     1
 78
     2
176
     1
 67
     7
176
     1
 79
     3
176
     1
170
     0
176
     1
171
     0
176
     1
290
     0
176
     1
 93
        1
176
     1
 44
0.0
176
     1
173
     0
176
     1
  0
VISUALSTYLE
  5
30
102
{ACAD_REACTORS
330
2A
102
}
330
2A
100
AcDbVisualStyle
  2
3dWireframe
 70
     5
177
     2
291
     0
 71
     0
176
     1
 72
     2
176
     1
 73
     0
176
     1
 90
        0
176
     1
 40
-0.6
176
     1
 41
-30.0
176
     1
 62
     5
 63
     7
421
 16777215
176
     1
 74
     1
176
     1
 91
        4
176
     1
 64
     7
176
     1
 65
   257
176
     1
 75
     1
176
     1
175
     1
176
     1
 42
1.0
176
     1
 92
        0
176
     1
 66
   257
176
     1
 43
1.0
176
     1
 76
     1
176
     1
 77
     6
176
     1
 78
     2
176
     1
 67
     7
176
     1
 79
     5
176
     1
170
     0
176
     1
171
     0
176
     1
290
     0
176
     1
 93
        1
176
     1
 44
0.0
176
     1
173
     0
176
     1
  0
VISUALSTYLE
  5
32
102
{ACAD_REACTORS
330
2A
102
}
330
2A
100
AcDbVisualStyle
  2
Basic
 70
     7
177
     2
291
     1
 71
     1
176
     1
 72
     0
176
     1
 73
     1
176
     1
 90
        0
176
     1
 40
-0.6
176
     1
 41
-30.0
176
     1
 62
     5
 63
     7
421
 16777215
176
     1
 74
     0
176
     1
 91
        4
176
     1
 64
     7
176
     1
 65
   257
176
     1
 75
     1
176
     1
175
     1
176
     1
 42
1.0
176
     1
 92
        8
176
     1
 66
     7
176
     1
 43
1.0
176
     1
 76
     1
176
     1
 77
     6
176
     1
 78
     2
176
     1
 67
     7
176
     1
 79
     5
176
     1
170
     0
176
     1
171
     0
176
     1
290
     0
176
     1
 93
        1
176
     1
 44
0.0
176
     1
173
     0
176
     1
  0
VISUALSTYLE
  5
36
102
{ACAD_REACTORS
330
2A
102
}
330
2A
100
AcDbVisualStyle
  2
Brighten
 70
    12
177
     2
291
     1
 71
     2
176
     1
 72
     2
176
     1
 73
     0
176
     1
 90
        0
176
     1
 40
-0.6
176
     1
 41
-30.0
176
     1
 62
     5
 63
     7
421
 16777215
176
     1
 74
     1
176
     1
 91
        4
176
     1
 64
     7
176
     1
 65
   257
176
     1
 75
     1
176
     1
175
     1
176
     1
 42
1.0
176
     1
 92
        8
176
     1
 66
     7
176
     1
 43
1.0
176
     1
 76
     1
176
     1
 77
     6
176
     1
 78
     2
176
     1
 67
     7
176
     1
 79
     5
176
     1
170
     0
176
     1
171
     0
176
     1
290
     0
176
     1
 93
        1
176
     1
 44
50.0
176
     1
173
     0
176
     1
  0
VISUALSTYLE
  5
3A
102
{ACAD_REACTORS
330
2A
102
}
330
2A
100
AcDbVisualStyle
  2
ColorChange
 70
    16
177
     2
291
     1
 71
     2
176
     1
 72
     2
176
     1
 73
     3
176
     1
 90
        0
176
     1
 40
-0.6
176
     1
 41
-30.0
176
     1
 62
     5
 63
     8
421
  8421504
176
     1
 74
     1
176
     1
 91
        4
176
     1
 64
     7
176
     1
 65
   257
176
     1
 75
     1
176
     1
175
     1
176
     1
 42
1.0
176
     1
 92
        8
176
     1
 66
     8
424
  8421504
176
     1
 43
1.0
176
     1
 76
     1
176
     1
 77
     6
176
     1
 78
     2
176
     1
 67
     7
176
     1
 79
     5
176
     1
170
     0
176
     1
171
     0
176
     1
290
     0
176
     1
 93
        1
176
     1
 44
0.0
176
     1
173
     0
176
     1
  0
VISUALSTYLE
  5
34
102
{ACAD_REACTORS
330
2A
102
}
330
2A
100
AcDbVisualStyle
  2
Conceptual
 70
     9
177
     2
291
     0
 71
     3
176
     1
 72
     2
176
     1
 73
     0
176
     1
 90
        0
176
     1
 40
-0.6
176
     1
 41
-30.0
176
     1
 62
     5
 63
     7
421
 16777215
176
     1
 74
     2
176
     1
 91
        2
176
     1
 64
     7
176
     1
 65
   257
176
     1
 75
     1
176
     1
175
     1
176
     1
 42
40.0
176
     1
 92
        8
176
     1
 66
     7
176
     1
 43
1.0
176
     1
 76
     1
176
     1
 77
     6
176
     1
 78
     2
176
     1
 67
     7
176
     1
 79
     3
176
     1
170
     0
176
     1
171
     0
176
     1
290
     0
176
     1
 93
        1
176
     1
 44
0.0
176
     1
173
     0
176
     1
  0
VISUALSTYLE
  5
35
102
{ACAD_REACTORS
330
2A
102
}
330
2A
100
AcDbVisualStyle
  2
Dim
 70
    11
177
     2
291
     1
 71
     2
176
     1
 72
     2
176
     1
 73
     0
176
     1
 90
        0
176
     1
 40
-0.6
176
     1
 41
-30.0
176
     1
 62
     5
 63
     7
421
 16777215
176
     1
 74
     1
176
     1
 91
        4
176
     1
 64
     7
176
     1
 65
   257
176
     1
 75
     1
176
     1
175
     1
176
     1
 42
1.0
176
     1
 92
        8
176
     1
 66
     7
176
     1
 43
1.0
176
     1
 76
     1
176
     1
 77
     6
176
     1
 78
     2
176
     1
 67
     7
176
     1
 79
     5
176
     1
170
     0
176
     1
171
     0
176
     1
290
     0
176
     1
 93
        1
176
     1
 44
-50.0
176
     1
173
     0
176
     1
  0
VISUALSTYLE
  5
39
102
{ACAD_REACTORS
330
2A
102
}
330
2A
100
AcDbVisualStyle
  2
Facepattern
 70
    15
177
     2
291
     1
 71
     2
176
     1
 72
     2
176
     1
 73
     0
176
     1
 90
        0
176
     1
 40
-0.6
176
     1
 41
-30.0
176
     1
 62
     5
 63
     7
421
 16777215
176
     1
 74
     1
176
     1
 91
        4
176
     1
 64
     7
176
     1
 65
   257
176
     1
 75
     1
176
     1
175
     1
176
     1
 42
1.0
176
     1
 92
        8
176
     1
 66
     7
176
     1
 43
1.0
176
     1
 76
     1
176
     1
 77
     6
176
     1
 78
     2
176
     1
 67
     7
176
     1
 79
     5
176
     1
170
     0
176
     1
171
     0
176
     1
290
     0
176
     1
 93
        1
176
     1
 44
0.0
176
     1
173
     0
176
     1
  0
VISUALSTYLE
  5
2B
102
{ACAD_REACTORS
330
2A
102
}
330
2A
100
AcDbVisualStyle
  2
Flat
 70
     0
177
     2
291
     1
 71
     2
176
     1
 72
     1
176
     1
 73
     1
176
     1
 90
        2
176
     1
 40
-0.6
176
     1
 41
30.0
176
     1
 62
     5
 63
     7
421
 16777215
176
     1
 74
     0
176
     1
 91
        4
176
     1
 64
     7
176
     1
 65
   257
176
     1
 75
     1
176
     1
175
     1
176
     1
 42
1.0
176
     1
 92
        8
176
     1
 66
     7
176
     1
 43
1.0
176
     1
 76
     1
176
     1
 77
     6
176
     1
 78
     2
176
     1
 67
     7
176
     1
 79
     5
176
     1
170
     0
176
     1
171
     0
176
     1
290
     0
176
     1
 93
       13
176
     1
 44
0.0
176
     1
173
     0
176
     1
  0
VISUALSTYLE
  5
2C
102
{ACAD_REACTORS
330
2A
102
}
330
2A
100
AcDbVisualStyle
  2
FlatWithEdges
 70
     1
177
     2
291
     1
 71
     2
176
     1
 72
     1
176
     1
 73
     1
176
     1
 90
        2
176
     1
 40
-0.6
176
     1
 41
30.0
176
     1
 62
     5
 63
     7
421
 16777215
176
     1
 74
     1
176
     1
 91
        4
176
     1
 64
     7
176
     1
 65
   257
176
     1
 75
     1
176
     1
175
     1
176
     1
 42
1.0
176
     1
 92
        0
176
     1
 66
   257
176
     1
 43
1.0
176
     1
 76
     1
176
     1
 77
     6
176
     1
 78
     2
176
     1
 67
     7
176
     1
 79
     5
176
     1
170
     0
176
     1
171
     0
176
     1
290
     0
176
     1
 93
       13
176
     1
 44
0.0
176
     1
173
     0
176
     1
  0
VISUALSTYLE
  5
2D
102
{ACAD_REACTORS
330
2A
102
}
330
2A
100
AcDbVisualStyle
  2
Gouraud
 70
     2
177
     2
291
     1
 71
     2
176
     1
 72
     2
176
     1
 73
     1
176
     1
 90
        2
176
     1
 40
-0.6
176
     1
 41
30.0
176
     1
 62
     5
 63
     7
421
 16777215
176
     1
 74
     0
176
     1
 91
        4
176
     1
 64
     7
176
     1
 65
   257
176
     1
 75
     1
176
     1
175
     1
176
     1
 42
1.0
176
     1
 92
        0
176
     1
 66
     7
176
     1
 43
1.0
176
     1
 76
     1
176
     1
 77
     6
176
     1
 78
     2
176
     1
 67
     7
176
     1
 79
     5
176
     1
170
     0
176
     1
171
     0
176
     1
290
     0
176
     1
 93
       13
176
     1
 44
0.0
176
     1
173
     0
176
     1
  0
VISUALSTYLE
  5
2E
102
{ACAD_REACTORS
330
2A
102
}
330
2A
100
AcDbVisualStyle
  2
GouraudWithEdges
 70
     3
177
     2
291
     1
 71
     2
176
     1
 72
     2
176
     1
 73
     1
176
     1
 90
        2
176
     1
 40
-0.6
176
     1
 41
30.0
176
     1
 62
     5
 63
     7
421
 16777215
176
     1
 74
     1
176
     1
 91
        4
176
     1
 64
     7
176
     1
 65
   257
176
     1
 75
     1
176
     1
175
     1
176
     1
 42
1.0
176
     1
 92
        0
176
     1
 66
   257
176
     1
 43
1.0
176
     1
 76
     1
176
     1
 77
     6
176
     1
 78
     2
176
     1
 67
     7
176
     1
 79
     5
176
     1
170
     0
176
     1
171
     0
176
     1
290
     0
176
     1
 93
       13
176
     1
 44
0.0
176
     1
173
     0
176
     1
  0
VISUALSTYLE
  5
38
102
{ACAD_REACTORS
330
2A
102
}
330
2A
100
AcDbVisualStyle
  2
Linepattern
 70
    14
177
     2
291
     1
 71
     2
176
     1
 72
     2
176
     1
 73
     0
176
     1
 90
        0
176
     1
 40
-0.6
176
     1
 41
-30.0
176
     1
 62
     5
 63
     7
421
 16777215
176
     1
 74
     1
176
     1
 91
        4
176
     1
 64
     7
176
     1
 65
   257
176
     1
 75
     7
176
     1
175
     7
176
     1
 42
1.0
176
     1
 92
        8
176
     1
 66
     7
176
     1
 43
1.0
176
     1
 76
     1
176
     1
 77
     6
176
     1
 78
     2
176
     1
 67
     7
176
     1
 79
     5
176
     1
170
     0
176
     1
171
     0
176
     1
290
     0
176
     1
 93
        1
176
     1
 44
0.0
176
     1
173
     0
176
     1
  0
VISUALSTYLE
  5
33
102
{ACAD_REACTORS
330
2A
102
}
330
2A
100
AcDbVisualStyle
  2
Realistic
 70
     8
177
     2
291
     0
 71
     2
176
     1
 72
     2
176
     1
 73
     0
176
     1
 90
        0
176
     1
 40
-0.6
176
     1
 41
-30.0
176
     1
 62
     5
 63
     7
421
 16777215
176
     1
 74
     1
176
     1
 91
        0
176
     1
 64
     7
176
     1
 65
   257
176
     1
 75
     1
176
     1
175
     1
176
     1
 42
1.0
176
     1
 92
        8
176
     1
 66
     8
424
  7895160
176
     1
 43
1.0
176
     1
 76
     1
176
     1
 77
     6
176
     1
 78
     2
176
     1
 67
     7
176
     1
 79
     5
176
     1
170
     0
176
     1
171
     0
176
     1
290
     0
176
     1
 93
       13
176
     1
 44
0.0
176
     1
173
     0
176
     1
  0
VISUALSTYLE
  5
37
102
{ACAD_REACTORS
330
2A
102
}
330
2A
100
AcDbVisualStyle
  2
Thicken
 70
    13
177
     2
291
     1
 71
     2
176
     1
 72
     2
176
     1
 73
     0
176
     1
 90
        0
176
     1
 40
-0.6
176
     1
 41
-30.0
176
     1
 62
     5
 63
     7
421
 16777215
176
     1
 74
     1
176
     1
 91
        4
176
     1
 64
     7
176
     1
 65
   257
176
     1
 75
     1
176
     1
175
     1
176
     1
 42
1.0
176
     1
 92
       12
176
     1
 66
     7
176
     1
 43
1.0
176
     1
 76
     1
176
     1
 77
     6
176
     1
 78
     2
176
     1
 67
     7
176
     1
 79
     5
176
     1
170
     0
176
     1
171
     0
176
     1
290
     0
176
     1
 93
        1
176
     1
 44
0.0
176
     1
173
     0
176
     1
  0
ENDSEC
  0
EOF
