0
SECTION
2
HEADER
9
$ACADVER
1
AC1009
0
ENDSEC
0
SECTION
2
TABLES
0
TABLE
2
VPORT
70
1
0
VPORT
2
ACTIVE
70
0
10
0.0
20
0.0
11
0.0
21
0.0
12
0.0
22
0.0
13
0.0
23
0.0
14
0.0
24
0.0
15
0.0
25
0.0
16
0.0
26
0.0
36
0.0
17
0.0
27
0.0
37
0.0
40
0.0
41
0.0
42
0.0
43
0.0
44
0.0
50
0.0
51
0.0
71
0
72
1000
73
1
74
3
75
0
76
0
77
0
78
0
0
ENDTAB
0
ENDSEC
0
SECTION
2
ENTITIES
0
LINE
8
boundary
62
5
39
2
10
95.761994
20
8.253364
11
102.537488
21
6.687500
0
LINE
8
boundary
62
5
39
2
10
102.537488
20
6.687500
11
119.058996
21
8.710616
0
LINE
8
boundary
62
5
39
2
10
119.058996
20
8.710616
11
120.259225
21
8.843603
0
LINE
8
boundary
62
5
39
2
10
120.259225
20
8.843603
11
122.720160
21
10.844768
0
LINE
8
boundary
62
5
39
2
10
122.720160
20
10.844768
11
126.349843
21
13.687663
0
LINE
8
boundary
62
5
39
2
10
126.349843
20
13.687663
11
126.009600
21
18.151714
0
LINE
8
boundary
62
5
39
2
10
126.009600
20
18.151714
11
107.994356
21
120.321238
0
LINE
8
boundary
62
5
39
2
10
107.994356
20
120.321238
11
111.983812
21
121.024688
0
LINE
8
boundary
62
5
39
2
10
111.983812
20
121.024688
11
129.542427
21
21.444833
0
LINE
8
boundary
62
5
39
2
10
129.542427
20
21.444833
11
130.749498
21
17.133627
0
LINE
8
boundary
62
5
39
2
10
130.749498
20
17.133627
11
136.869667
21
21.927157
0
LINE
8
boundary
62
5
39
2
10
136.869667
20
21.927157
11
140.039128
21
30.865219
0
LINE
8
boundary
62
5
39
2
10
140.039128
20
30.865219
11
143.069706
21
39.214438
0
LINE
8
boundary
62
5
39
2
10
143.069706
20
39.214438
11
145.592556
21
45.586278
0
LINE
8
boundary
62
5
39
2
10
145.592556
20
45.586278
11
145.285276
21
51.658996
0
LINE
8
boundary
62
5
39
2
10
145.285276
20
51.658996
11
144.905560
21
62.900759
0
LINE
8
boundary
62
5
39
2
10
144.905560
20
62.900759
11
145.845580
21
72.407356
0
LINE
8
boundary
62
5
39
2
10
145.845580
20
72.407356
11
146.169110
21
75.333918
0
LINE
8
boundary
62
5
39
2
10
146.169110
20
75.333918
11
147.389398
21
78.264978
0
LINE
8
boundary
62
5
39
2
10
147.389398
20
78.264978
11
148.603245
21
83.825846
0
LINE
8
boundary
62
5
39
2
10
148.603245
20
83.825846
11
149.481995
21
89.542788
0
LINE
8
boundary
62
5
39
2
10
149.481995
20
89.542788
11
149.946493
21
91.351650
0
LINE
8
boundary
62
5
39
2
10
149.946493
20
91.351650
11
149.914919
21
92.854120
0
LINE
8
boundary
62
5
39
2
10
149.914919
20
92.854120
11
147.924888
21
97.854473
0
LINE
8
boundary
62
5
39
2
10
147.924888
20
97.854473
11
147.370628
21
99.329450
0
LINE
8
boundary
62
5
39
2
10
147.370628
20
99.329450
11
147.476184
21
105.992459
0
LINE
8
boundary
62
5
39
2
10
147.476184
20
105.992459
11
147.338423
21
109.785521
0
LINE
8
boundary
62
5
39
2
10
147.338423
20
109.785521
11
150.646351
21
105.269759
0
LINE
8
boundary
62
5
39
2
10
150.646351
20
105.269759
11
152.549517
21
105.570765
0
LINE
8
boundary
62
5
39
2
10
152.549517
20
105.570765
11
156.507555
21
107.816688
0
LINE
8
boundary
62
5
39
2
10
156.507555
20
107.816688
11
161.136923
21
108.801304
0
LINE
8
boundary
62
5
39
2
10
161.136923
20
108.801304
11
163.672059
21
111.465579
0
LINE
8
boundary
62
5
39
2
10
163.672059
20
111.465579
11
169.017853
21
111.566586
0
LINE
8
boundary
62
5
39
2
10
169.017853
20
111.566586
11
172.386197
21
113.885814
0
LINE
8
boundary
62
5
39
2
10
172.386197
20
113.885814
11
175.127504
21
114.939962
0
LINE
8
boundary
62
5
39
2
10
175.127504
20
114.939962
11
176.085188
21
114.793091
0
LINE
8
boundary
62
5
39
2
10
176.085188
20
114.793091
11
178.268545
21
113.490622
0
LINE
8
boundary
62
5
39
2
10
178.268545
20
113.490622
11
176.422025
21
117.569087
0
LINE
8
boundary
62
5
39
2
10
176.422025
20
117.569087
11
144.394380
21
173.042595
0
LINE
8
boundary
62
5
39
2
10
144.394380
20
173.042595
11
147.902650
21
175.068095
0
LINE
8
boundary
62
5
39
2
10
147.902650
20
175.068095
11
186.269499
21
108.614762
0
LINE
8
boundary
62
5
39
2
10
186.269499
20
108.614762
11
188.878293
21
104.976397
0
LINE
8
boundary
62
5
39
2
10
188.878293
20
104.976397
11
191.673940
21
102.339480
0
LINE
8
boundary
62
5
39
2
10
191.673940
20
102.339480
11
192.414636
21
101.505805
0
LINE
8
boundary
62
5
39
2
10
192.414636
20
101.505805
11
199.256485
21
93.573186
0
LINE
8
boundary
62
5
39
2
10
199.256485
20
93.573186
11
200.216905
21
92.158460
0
LINE
8
boundary
62
5
39
2
10
200.216905
20
92.158460
11
203.462868
21
87.428822
0
LINE
8
boundary
62
5
39
2
10
203.462868
20
87.428822
11
208.050492
21
81.984089
0
LINE
8
boundary
62
5
39
2
10
208.050492
20
81.984089
11
208.783435
21
80.995154
0
LINE
8
boundary
62
5
39
2
10
208.783435
20
80.995154
11
211.636631
21
77.223963
0
LINE
8
boundary
62
5
39
2
10
211.636631
20
77.223963
11
215.878792
21
71.729208
0
LINE
8
boundary
62
5
39
2
10
215.878792
20
71.729208
11
216.865155
21
72.396865
0
LINE
8
boundary
62
5
39
2
10
216.865155
20
72.396865
11
220.041636
21
74.546987
0
LINE
8
boundary
62
5
39
2
10
220.041636
20
74.546987
11
242.150246
21
89.512038
0
LINE
8
boundary
62
5
39
2
10
242.150246
20
89.512038
11
281.303699
21
116.014540
0
LINE
8
boundary
62
5
39
2
10
281.303699
20
116.014540
11
278.173621
21
119.215497
0
LINE
8
boundary
62
5
39
2
10
278.173621
20
119.215497
11
200.863942
21
184.086020
0
LINE
8
boundary
62
5
39
2
10
200.863942
20
184.086020
11
203.467874
21
187.189266
0
LINE
8
boundary
62
5
39
2
10
203.467874
20
187.189266
11
281.854064
21
121.415443
0
LINE
8
boundary
62
5
39
2
10
281.854064
20
121.415443
11
285.549924
21
118.888759
0
LINE
8
boundary
62
5
39
2
10
285.549924
20
118.888759
11
294.815146
21
125.160276
0
LINE
8
boundary
62
5
39
2
10
294.815146
20
125.160276
11
315.231888
21
138.980123
0
LINE
8
boundary
62
5
39
2
10
315.231888
20
138.980123
11
322.446479
21
143.863593
0
LINE
8
boundary
62
5
39
2
10
322.446479
20
143.863593
11
323.052070
21
144.273511
0
LINE
8
boundary
62
5
39
2
10
323.052070
20
144.273511
11
319.957146
21
152.666791
0
LINE
8
boundary
62
5
39
2
10
319.957146
20
152.666791
11
318.327790
21
155.329219
0
LINE
8
boundary
62
5
39
2
10
318.327790
20
155.329219
11
311.097699
21
165.731784
0
LINE
8
boundary
62
5
39
2
10
311.097699
20
165.731784
11
305.996947
21
173.888773
0
LINE
8
boundary
62
5
39
2
10
305.996947
20
173.888773
11
298.155711
21
186.346153
0
LINE
8
boundary
62
5
39
2
10
298.155711
20
186.346153
11
295.912016
21
189.466800
0
LINE
8
boundary
62
5
39
2
10
295.912016
20
189.466800
11
291.243370
21
196.208513
0
LINE
8
boundary
62
5
39
2
10
291.243370
20
196.208513
11
284.115300
21
204.363137
0
LINE
8
boundary
62
5
39
2
10
284.115300
20
204.363137
11
280.829572
21
208.502703
0
LINE
8
boundary
62
5
39
2
10
280.829572
20
208.502703
11
276.056149
21
213.908679
0
LINE
8
boundary
62
5
39
2
10
276.056149
20
213.908679
11
272.020046
21
215.846045
0
LINE
8
boundary
62
5
39
2
10
272.020046
20
215.846045
11
204.298335
21
240.494732
0
LINE
8
boundary
62
5
39
2
10
204.298335
20
240.494732
11
205.683858
21
244.301427
0
LINE
8
boundary
62
5
39
2
10
205.683858
20
244.301427
11
264.961180
21
222.726247
0
LINE
8
boundary
62
5
39
2
10
264.961180
20
222.726247
11
269.298329
21
221.615998
0
LINE
8
boundary
62
5
39
2
10
269.298329
20
221.615998
11
256.120762
21
237.529456
0
LINE
8
boundary
62
5
39
2
10
256.120762
20
237.529456
11
253.160565
21
240.985743
0
LINE
8
boundary
62
5
39
2
10
253.160565
20
240.985743
11
248.710309
21
245.010956
0
LINE
8
boundary
62
5
39
2
10
248.710309
20
245.010956
11
226.445522
21
259.072228
0
LINE
8
boundary
62
5
39
2
10
226.445522
20
259.072228
11
206.986870
21
270.005221
0
LINE
8
boundary
62
5
39
2
10
206.986870
20
270.005221
11
196.318237
21
273.127825
0
LINE
8
boundary
62
5
39
2
10
196.318237
20
273.127825
11
177.086183
21
278.064485
0
LINE
8
boundary
62
5
39
2
10
177.086183
20
278.064485
11
162.302503
21
276.468000
0
LINE
8
boundary
62
5
39
2
10
162.302503
20
276.468000
11
158.024781
21
276.171171
0
LINE
8
boundary
62
5
39
2
10
158.024781
20
276.171171
11
143.423358
21
270.835850
0
LINE
8
boundary
62
5
39
2
10
143.423358
20
270.835850
11
142.546157
21
270.539753
0
LINE
8
boundary
62
5
39
2
10
142.546157
20
270.539753
11
131.352010
21
263.806410
0
LINE
8
boundary
62
5
39
2
10
131.352010
20
263.806410
11
121.508517
21
255.892983
0
LINE
8
boundary
62
5
39
2
10
121.508517
20
255.892983
11
121.011362
21
255.421034
0
LINE
8
boundary
62
5
39
2
10
121.011362
20
255.421034
11
112.554828
21
245.051496
0
LINE
8
boundary
62
5
39
2
10
112.554828
20
245.051496
11
111.533152
21
243.155050
0
LINE
8
boundary
62
5
39
2
10
111.533152
20
243.155050
11
107.962028
21
234.240940
0
LINE
8
boundary
62
5
39
2
10
107.962028
20
234.240940
11
107.085490
21
229.397108
0
LINE
8
boundary
62
5
39
2
10
107.085490
20
229.397108
11
106.865390
21
224.031660
0
LINE
8
boundary
62
5
39
2
10
106.865390
20
224.031660
11
107.378749
21
217.315042
0
LINE
8
boundary
62
5
39
2
10
107.378749
20
217.315042
11
101.020534
21
222.235978
0
LINE
8
boundary
62
5
39
2
10
101.020534
20
222.235978
11
100.119325
21
222.759890
0
LINE
8
boundary
62
5
39
2
10
100.119325
20
222.759890
11
88.952828
21
226.202307
0
LINE
8
boundary
62
5
39
2
10
88.952828
20
226.202307
11
86.465428
21
226.409761
0
LINE
8
boundary
62
5
39
2
10
86.465428
20
226.409761
11
75.135101
21
226.719661
0
LINE
8
boundary
62
5
39
2
10
75.135101
20
226.719661
11
71.522633
21
226.119509
0
LINE
8
boundary
62
5
39
2
10
71.522633
20
226.119509
11
61.803437
21
223.368075
0
LINE
8
boundary
62
5
39
2
10
61.803437
20
223.368075
11
59.420105
21
222.444042
0
LINE
8
boundary
62
5
39
2
10
59.420105
20
222.444042
11
44.648592
21
214.825491
0
LINE
8
boundary
62
5
39
2
10
44.648592
20
214.825491
11
31.686964
21
201.107287
0
LINE
8
boundary
62
5
39
2
10
31.686964
20
201.107287
11
23.688349
21
189.092015
0
LINE
8
boundary
62
5
39
2
10
23.688349
20
189.092015
11
25.383769
21
188.113164
0
LINE
8
boundary
62
5
39
2
10
25.383769
20
188.113164
11
15.375255
21
170.777910
0
LINE
8
boundary
62
5
39
2
10
15.375255
20
170.777910
11
13.528736
21
166.699445
0
LINE
8
boundary
62
5
39
2
10
13.528736
20
166.699445
11
7.535725
21
149.695343
0
LINE
8
boundary
62
5
39
2
10
7.535725
20
149.695343
11
6.687500
21
138.040009
0
LINE
8
boundary
62
5
39
2
10
6.687500
20
138.040009
11
6.834314
21
113.005246
0
LINE
8
boundary
62
5
39
2
10
6.834314
20
113.005246
11
11.058083
21
98.262829
0
LINE
8
boundary
62
5
39
2
10
11.058083
20
98.262829
11
15.738391
21
80.640066
0
LINE
8
boundary
62
5
39
2
10
15.738391
20
80.640066
11
23.020428
21
66.763988
0
LINE
8
boundary
62
5
39
2
10
23.020428
20
66.763988
11
28.728139
21
55.553748
0
LINE
8
boundary
62
5
39
2
10
28.728139
20
55.553748
11
35.531160
21
46.644176
0
LINE
8
boundary
62
5
39
2
10
35.531160
20
46.644176
11
36.738231
21
50.955381
0
LINE
8
boundary
62
5
39
2
10
36.738231
20
50.955381
11
51.609940
21
135.297033
0
LINE
8
boundary
62
5
39
2
10
51.609940
20
135.297033
11
55.599396
21
134.593584
0
LINE
8
boundary
62
5
39
2
10
55.599396
20
134.593584
11
39.942594
21
45.799444
0
LINE
8
boundary
62
5
39
2
10
39.942594
20
45.799444
11
39.602350
21
41.335394
0
LINE
8
boundary
62
5
39
2
10
39.602350
20
41.335394
11
44.644393
21
35.318379
0
LINE
8
boundary
62
5
39
2
10
44.644393
20
35.318379
11
59.702092
21
21.891842
0
LINE
8
boundary
62
5
39
2
10
59.702092
20
21.891842
11
62.573336
21
19.423522
0
LINE
8
boundary
62
5
39
2
10
62.573336
20
19.423522
11
64.674500
21
18.600781
0
LINE
8
boundary
62
5
39
2
10
64.674500
20
18.600781
11
84.171344
21
11.171014
0
LINE
8
boundary
62
5
39
2
10
84.171344
20
11.171014
11
95.761994
21
8.253364
0
LINE
8
annotation
62
1
39
211
10
26.025964
20
191.891892
11
27.875978
21
190.823785
0
LINE
8
annotation
62
1
39
211
10
27.875978
20
190.823785
11
27.702034
21
191.472588
0
LINE
8
annotation
62
1
39
211
10
25.625516
20
191.198161
11
25.388330
21
190.787343
0
LINE
8
annotation
62
1
39
211
10
25.388330
20
190.787343
11
25.388330
21
190.787343
0
LINE
8
annotation
62
1
39
211
10
25.388330
20
190.787343
11
25.352299
21
190.709629
0
LINE
8
annotation
62
1
39
211
10
25.352299
20
190.709629
11
25.331262
21
190.629076
0
LINE
8
annotation
62
1
39
211
10
25.331262
20
190.629076
11
25.324712
21
190.547515
0
LINE
8
annotation
62
1
39
211
10
25.324712
20
190.547515
11
25.332146
21
190.466781
0
LINE
8
annotation
62
1
39
211
10
25.332146
20
190.466781
11
25.353057
21
190.388707
0
LINE
8
annotation
62
1
39
211
10
25.353057
20
190.388707
11
25.386941
21
190.315126
0
LINE
8
annotation
62
1
39
211
10
25.386941
20
190.315126
11
25.433293
21
190.247871
0
LINE
8
annotation
62
1
39
211
10
25.433293
20
190.247871
11
25.491608
21
190.188776
0
LINE
8
annotation
62
1
39
211
10
25.491608
20
190.188776
11
25.561382
21
190.139674
0
LINE
8
annotation
62
1
39
211
10
25.561382
20
190.139674
11
25.767081
21
190.020914
0
LINE
8
annotation
62
1
39
211
10
25.767081
20
190.020914
11
25.767081
21
190.020914
0
LINE
8
annotation
62
1
39
211
10
25.767081
20
190.020914
11
25.844460
21
189.985057
0
LINE
8
annotation
62
1
39
211
10
25.844460
20
189.985057
11
25.924779
21
189.964111
0
LINE
8
annotation
62
1
39
211
10
25.924779
20
189.964111
11
26.006195
21
189.957599
0
LINE
8
annotation
62
1
39
211
10
26.006195
20
189.957599
11
26.086864
21
189.965043
0
LINE
8
annotation
62
1
39
211
10
26.086864
20
189.965043
11
26.164944
21
189.985965
0
LINE
8
annotation
62
1
39
211
10
26.164944
20
189.985965
11
26.238590
21
190.019888
0
LINE
8
annotation
62
1
39
211
10
26.238590
20
190.019888
11
26.305962
21
190.066333
0
LINE
8
annotation
62
1
39
211
10
26.305962
20
190.066333
11
26.365214
21
190.124823
0
LINE
8
annotation
62
1
39
211
10
26.365214
20
190.124823
11
26.414504
21
190.194881
0
LINE
8
annotation
62
1
39
211
10
26.414504
20
190.194881
11
26.533265
21
190.400580
0
LINE
8
annotation
62
1
39
211
10
26.533265
20
190.400580
11
26.414504
21
190.194881
0
LINE
8
annotation
62
1
39
211
10
26.414504
20
190.194881
11
26.414504
21
190.194881
0
LINE
8
annotation
62
1
39
211
10
26.414504
20
190.194881
11
26.378479
21
190.117164
0
LINE
8
annotation
62
1
39
211
10
26.378479
20
190.117164
11
26.357462
21
190.036599
0
LINE
8
annotation
62
1
39
211
10
26.357462
20
190.036599
11
26.350956
21
189.955014
0
LINE
8
annotation
62
1
39
211
10
26.350956
20
189.955014
11
26.358460
21
189.874238
0
LINE
8
annotation
62
1
39
211
10
26.358460
20
189.874238
11
26.379478
21
189.796102
0
LINE
8
annotation
62
1
39
211
10
26.379478
20
189.796102
11
26.413511
21
189.722435
0
LINE
8
annotation
62
1
39
211
10
26.413511
20
189.722435
11
26.460060
21
189.655067
0
LINE
8
annotation
62
1
39
211
10
26.460060
20
189.655067
11
26.518628
21
189.595826
0
LINE
8
annotation
62
1
39
211
10
26.518628
20
189.595826
11
26.588716
21
189.546542
0
LINE
8
annotation
62
1
39
211
10
26.588716
20
189.546542
11
26.588716
21
189.546542
0
LINE
8
annotation
62
1
39
211
10
26.588716
20
189.546542
11
26.666096
21
189.510685
0
LINE
8
annotation
62
1
39
211
10
26.666096
20
189.510685
11
26.746415
21
189.489740
0
LINE
8
annotation
62
1
39
211
10
26.746415
20
189.489740
11
26.827831
21
189.483228
0
LINE
8
annotation
62
1
39
211
10
26.827831
20
189.483228
11
26.908500
21
189.490672
0
LINE
8
annotation
62
1
39
211
10
26.908500
20
189.490672
11
26.986579
21
189.511594
0
LINE
8
annotation
62
1
39
211
10
26.986579
20
189.511594
11
27.060226
21
189.545516
0
LINE
8
annotation
62
1
39
211
10
27.060226
20
189.545516
11
27.127597
21
189.591961
0
LINE
8
annotation
62
1
39
211
10
27.127597
20
189.591961
11
27.186849
21
189.650452
0
LINE
8
annotation
62
1
39
211
10
27.186849
20
189.650452
11
27.236140
21
189.720509
0
LINE
8
annotation
62
1
39
211
10
27.236140
20
189.720509
11
27.473326
21
190.131327
0
LINE
8
annotation
62
1
39
211
10
52.530783
20
146.446668
11
58.547486
21
145.385761
0
LINE
8
annotation
62
1
39
211
10
58.547486
20
145.385761
11
57.445372
21
146.959271
0
LINE
8
annotation
62
1
39
211
10
52.881499
20
140.613972
11
53.470566
21
143.954740
0
LINE
8
annotation
62
1
39
211
10
53.470566
20
143.954740
11
57.914425
21
141.795492
0
LINE
8
annotation
62
1
39
211
10
51.720482
20
141.851225
11
54.392644
21
141.380051
0
LINE
8
annotation
62
1
39
211
10
104.750419
20
130.914149
11
111.409127
21
132.088259
0
LINE
8
annotation
62
1
39
211
10
111.409127
20
132.088259
11
109.667373
21
133.307481
0
LINE
8
annotation
62
1
39
211
10
105.190674
20
128.417343
11
105.451399
21
126.938697
0
LINE
8
annotation
62
1
39
211
10
105.451399
20
126.938697
11
105.451399
21
126.938697
0
LINE
8
annotation
62
1
39
211
10
105.451399
20
126.938697
11
105.522055
21
126.677516
0
LINE
8
annotation
62
1
39
211
10
105.522055
20
126.677516
11
105.634919
21
126.439700
0
LINE
8
annotation
62
1
39
211
10
105.634919
20
126.439700
11
105.785058
21
126.228723
0
LINE
8
annotation
62
1
39
211
10
105.785058
20
126.228723
11
105.967539
21
126.048059
0
LINE
8
annotation
62
1
39
211
10
105.967539
20
126.048059
11
106.177429
21
125.901185
0
LINE
8
annotation
62
1
39
211
10
106.177429
20
125.901185
11
106.409797
21
125.791574
0
LINE
8
annotation
62
1
39
211
10
106.409797
20
125.791574
11
106.659710
21
125.722701
0
LINE
8
annotation
62
1
39
211
10
106.659710
20
125.722701
11
106.922235
21
125.698042
0
LINE
8
annotation
62
1
39
211
10
106.922235
20
125.698042
11
107.192440
21
125.721071
0
LINE
8
annotation
62
1
39
211
10
107.192440
20
125.721071
11
107.929048
21
125.850955
0
LINE
8
annotation
62
1
39
211
10
107.929048
20
125.850955
11
107.929048
21
125.850955
0
LINE
8
annotation
62
1
39
211
10
107.929048
20
125.850955
11
108.190708
21
125.921694
0
LINE
8
annotation
62
1
39
211
10
108.190708
20
125.921694
11
108.428627
21
126.034559
0
LINE
8
annotation
62
1
39
211
10
108.428627
20
126.034559
11
108.639420
21
126.184620
0
LINE
8
annotation
62
1
39
211
10
108.639420
20
126.184620
11
108.819700
21
126.366946
0
LINE
8
annotation
62
1
39
211
10
108.819700
20
126.366946
11
108.966081
21
126.576606
0
LINE
8
annotation
62
1
39
211
10
108.966081
20
126.576606
11
109.075176
21
126.808668
0
LINE
8
annotation
62
1
39
211
10
109.075176
20
126.808668
11
109.143599
21
127.058201
0
LINE
8
annotation
62
1
39
211
10
109.143599
20
127.058201
11
109.167963
21
127.320275
0
LINE
8
annotation
62
1
39
211
10
109.167963
20
127.320275
11
109.144881
21
127.589958
0
LINE
8
annotation
62
1
39
211
10
109.144881
20
127.589958
11
108.884156
21
129.068603
0
LINE
8
annotation
62
1
39
211
10
108.884156
20
129.068603
11
111.849381
21
129.591452
0
LINE
8
annotation
62
1
39
211
10
111.849381
20
129.591452
11
112.370831
21
126.634161
0
LINE
8
annotation
62
1
39
211
10
137.723089
20
181.887183
11
143.578658
21
185.267897
0
LINE
8
annotation
62
1
39
211
10
143.578658
20
185.267897
11
141.524946
21
185.817877
0
LINE
8
annotation
62
1
39
211
10
145.974002
20
181.119040
11
145.974002
21
181.119040
0
LINE
8
annotation
62
1
39
211
10
145.974002
20
181.119040
11
145.619271
21
181.410906
0
LINE
8
annotation
62
1
39
211
10
145.619271
20
181.410906
11
145.233737
21
181.644079
0
LINE
8
annotation
62
1
39
211
10
145.233737
20
181.644079
11
144.824142
21
181.817770
0
LINE
8
annotation
62
1
39
211
10
144.824142
20
181.817770
11
144.397225
21
181.931194
0
LINE
8
annotation
62
1
39
211
10
144.397225
20
181.931194
11
143.959727
21
181.983563
0
LINE
8
annotation
62
1
39
211
10
143.959727
20
181.983563
11
143.518389
21
181.974091
0
LINE
8
annotation
62
1
39
211
10
143.518389
20
181.974091
11
143.079953
21
181.901991
0
LINE
8
annotation
62
1
39
211
10
143.079953
20
181.901991
11
142.651157
21
181.766475
0
LINE
8
annotation
62
1
39
211
10
142.651157
20
181.766475
11
142.238744
21
181.566758
0
LINE
8
annotation
62
1
39
211
10
142.238744
20
181.566758
11
140.292519
21
180.443104
0
LINE
8
annotation
62
1
39
211
10
140.292519
20
180.443104
11
140.292519
21
180.443104
0
LINE
8
annotation
62
1
39
211
10
140.292519
20
180.443104
11
140.070727
21
180.287061
0
LINE
8
annotation
62
1
39
211
10
140.070727
20
180.287061
11
139.885472
21
180.099424
0
LINE
8
annotation
62
1
39
211
10
139.885472
20
180.099424
11
139.738298
21
179.886023
0
LINE
8
annotation
62
1
39
211
10
139.738298
20
179.886023
11
139.630750
21
179.652693
0
LINE
8
annotation
62
1
39
211
10
139.630750
20
179.652693
11
139.564374
21
179.405266
0
LINE
8
annotation
62
1
39
211
10
139.564374
20
179.405266
11
139.540714
21
179.149573
0
LINE
8
annotation
62
1
39
211
10
139.540714
20
179.149573
11
139.561314
21
178.891448
0
LINE
8
annotation
62
1
39
211
10
139.561314
20
178.891448
11
139.627721
21
178.636722
0
LINE
8
annotation
62
1
39
211
10
139.627721
20
178.636722
11
139.741479
21
178.391229
0
LINE
8
annotation
62
1
39
211
10
139.741479
20
178.391229
11
139.741479
21
178.391229
0
LINE
8
annotation
62
1
39
211
10
139.741479
20
178.391229
11
139.897482
21
178.169482
0
LINE
8
annotation
62
1
39
211
10
139.897482
20
178.169482
11
140.085026
21
177.984352
0
LINE
8
annotation
62
1
39
211
10
140.085026
20
177.984352
11
140.298312
21
177.837373
0
LINE
8
annotation
62
1
39
211
10
140.298312
20
177.837373
11
140.531544
21
177.730078
0
LINE
8
annotation
62
1
39
211
10
140.531544
20
177.730078
11
140.778924
21
177.663999
0
LINE
8
annotation
62
1
39
211
10
140.778924
20
177.663999
11
141.034654
21
177.640669
0
LINE
8
annotation
62
1
39
211
10
141.034654
20
177.640669
11
141.292937
21
177.661622
0
LINE
8
annotation
62
1
39
211
10
141.292937
20
177.661622
11
141.547977
21
177.728390
0
LINE
8
annotation
62
1
39
211
10
141.547977
20
177.728390
11
141.793975
21
177.842506
0
LINE
8
annotation
62
1
39
211
10
141.793975
20
177.842506
11
142.441737
21
178.216492
0
LINE
8
annotation
62
1
39
211
10
142.441737
20
178.216492
11
142.441737
21
178.216492
0
LINE
8
annotation
62
1
39
211
10
142.441737
20
178.216492
11
142.663450
21
178.372409
0
LINE
8
annotation
62
1
39
211
10
142.663450
20
178.372409
11
142.848489
21
178.559720
0
LINE
8
annotation
62
1
39
211
10
142.848489
20
178.559720
11
142.995337
21
178.772670
0
LINE
8
annotation
62
1
39
211
10
142.995337
20
178.772670
11
143.102476
21
179.005503
0
LINE
8
annotation
62
1
39
211
10
143.102476
20
179.005503
11
143.168391
21
179.252463
0
LINE
8
annotation
62
1
39
211
10
143.168391
20
179.252463
11
143.191565
21
179.507794
0
LINE
8
annotation
62
1
39
211
10
143.191565
20
179.507794
11
143.170481
21
179.765741
0
LINE
8
annotation
62
1
39
211
10
143.170481
20
179.765741
11
143.103622
21
180.020548
0
LINE
8
annotation
62
1
39
211
10
143.103622
20
180.020548
11
142.989472
21
180.266459
0
LINE
8
annotation
62
1
39
211
10
142.989472
20
180.266459
11
142.238744
21
181.566758
0
LINE
8
annotation
62
1
39
211
10
138.164778
20
179.431798
11
139.855135
21
176.504013
0
LINE
8
annotation
62
1
39
211
10
191.570505
20
190.117424
11
195.914313
21
195.294173
0
LINE
8
annotation
62
1
39
211
10
195.914313
20
195.294173
11
193.797499
21
195.108675
0
LINE
8
annotation
62
1
39
211
10
194.662643
20
187.522811
11
200.157309
21
191.733876
0
LINE
8
annotation
62
1
39
211
10
200.157309
20
191.733876
11
197.855269
21
193.665517
0
LINE
8
annotation
62
1
39
211
10
198.222944
20
189.428590
11
197.072087
21
190.394274
0
LINE
8
annotation
62
1
39
211
10
193.502637
20
242.981856
11
195.815182
21
249.335521
0
LINE
8
annotation
62
1
39
211
10
195.815182
20
249.335521
11
193.888427
21
248.436729
0
LINE
8
annotation
62
1
39
211
10
196.397793
20
243.523440
11
196.397793
21
243.523440
0
LINE
8
annotation
62
1
39
211
10
196.397793
20
243.523440
11
196.328238
21
243.261462
0
LINE
8
annotation
62
1
39
211
10
196.328238
20
243.261462
11
196.307055
21
242.998973
0
LINE
8
annotation
62
1
39
211
10
196.307055
20
242.998973
11
196.331658
21
242.741375
0
LINE
8
annotation
62
1
39
211
10
196.331658
20
242.741375
11
196.399459
21
242.494069
0
LINE
8
annotation
62
1
39
211
10
196.399459
20
242.494069
11
196.507872
21
242.262458
0
LINE
8
annotation
62
1
39
211
10
196.507872
20
242.262458
11
196.654309
21
242.051943
0
LINE
8
annotation
62
1
39
211
10
196.654309
20
242.051943
11
196.836184
21
241.867927
0
LINE
8
annotation
62
1
39
211
10
196.836184
20
241.867927
11
197.050909
21
241.715811
0
LINE
8
annotation
62
1
39
211
10
197.050909
20
241.715811
11
197.295897
21
241.600997
0
LINE
8
annotation
62
1
39
211
10
197.295897
20
241.600997
11
197.295897
21
241.600997
0
LINE
8
annotation
62
1
39
211
10
197.295897
20
241.600997
11
197.557369
21
241.531474
0
LINE
8
annotation
62
1
39
211
10
197.557369
20
241.531474
11
197.819636
21
241.509979
0
LINE
8
annotation
62
1
39
211
10
197.819636
20
241.509979
11
198.077244
21
241.534037
0
LINE
8
annotation
62
1
39
211
10
198.077244
20
241.534037
11
198.324737
21
241.601173
0
LINE
8
annotation
62
1
39
211
10
198.324737
20
241.601173
11
198.556663
21
241.708911
0
LINE
8
annotation
62
1
39
211
10
198.556663
20
241.708911
11
198.767567
21
241.854776
0
LINE
8
annotation
62
1
39
211
10
198.767567
20
241.854776
11
198.951995
21
242.036294
0
LINE
8
annotation
62
1
39
211
10
198.951995
20
242.036294
11
199.104493
21
242.250988
0
LINE
8
annotation
62
1
39
211
10
199.104493
20
242.250988
11
199.219607
21
242.496384
0
LINE
8
annotation
62
1
39
211
10
199.219607
20
242.496384
11
199.475428
21
243.199247
0
LINE
8
annotation
62
1
39
211
10
199.475428
20
243.199247
11
199.475428
21
243.199247
0
LINE
8
annotation
62
1
39
211
10
199.475428
20
243.199247
11
199.545041
21
243.461343
0
LINE
8
annotation
62
1
39
211
10
199.545041
20
243.461343
11
199.566377
21
243.724150
0
LINE
8
annotation
62
1
39
211
10
199.566377
20
243.724150
11
199.541990
21
243.982210
0
LINE
8
annotation
62
1
39
211
10
199.541990
20
243.982210
11
199.474437
21
244.230066
0
LINE
8
annotation
62
1
39
211
10
199.474437
20
244.230066
11
199.366274
21
244.462260
0
LINE
8
annotation
62
1
39
211
10
199.366274
20
244.462260
11
199.220056
21
244.673336
0
LINE
8
annotation
62
1
39
211
10
199.220056
20
244.673336
11
199.038338
21
244.857836
0
LINE
8
annotation
62
1
39
211
10
199.038338
20
244.857836
11
198.823678
21
245.010302
0
LINE
8
annotation
62
1
39
211
10
198.823678
20
245.010302
11
198.578630
21
245.125276
0
LINE
8
annotation
62
1
39
211
10
198.578630
20
245.125276
11
198.578630
21
245.125276
0
LINE
8
annotation
62
1
39
211
10
198.578630
20
245.125276
11
198.317002
21
245.194701
0
LINE
8
annotation
62
1
39
211
10
198.317002
20
245.194701
11
198.054548
21
245.215854
0
LINE
8
annotation
62
1
39
211
10
198.054548
20
245.215854
11
197.796735
21
245.191282
0
LINE
8
annotation
62
1
39
211
10
197.796735
20
245.191282
11
197.549033
21
245.123533
0
LINE
8
annotation
62
1
39
211
10
197.549033
20
245.123533
11
197.316911
21
245.015155
0
LINE
8
annotation
62
1
39
211
10
197.316911
20
245.015155
11
197.105839
21
244.868696
0
LINE
8
annotation
62
1
39
211
10
197.105839
20
244.868696
11
196.921286
21
244.686702
0
LINE
8
annotation
62
1
39
211
10
196.921286
20
244.686702
11
196.768721
21
244.471722
0
LINE
8
annotation
62
1
39
211
10
196.768721
20
244.471722
11
196.653614
21
244.226304
0
LINE
8
annotation
62
1
39
211
10
196.653614
20
244.226304
11
196.397793
21
243.523440
0
LINE
8
annotation
62
1
39
211
10
200.503790
20
246.024648
11
200.503790
21
246.024648
0
LINE
8
annotation
62
1
39
211
10
200.503790
20
246.024648
11
200.572976
21
246.285571
0
LINE
8
annotation
62
1
39
211
10
200.572976
20
246.285571
11
200.593989
21
246.547491
0
LINE
8
annotation
62
1
39
211
10
200.593989
20
246.547491
11
200.569369
21
246.804910
0
LINE
8
annotation
62
1
39
211
10
200.569369
20
246.804910
11
200.501658
21
247.052331
0
LINE
8
annotation
62
1
39
211
10
200.501658
20
247.052331
11
200.393397
21
247.284258
0
LINE
8
annotation
62
1
39
211
10
200.393397
20
247.284258
11
200.247128
21
247.495195
0
LINE
8
annotation
62
1
39
211
10
200.247128
20
247.495195
11
200.065392
21
247.679643
0
LINE
8
annotation
62
1
39
211
10
200.065392
20
247.679643
11
199.850731
21
247.832108
0
LINE
8
annotation
62
1
39
211
10
199.850731
20
247.832108
11
199.605686
21
247.947091
0
LINE
8
annotation
62
1
39
211
10
199.605686
20
247.947091
11
199.605686
21
247.947091
0
LINE
8
annotation
62
1
39
211
10
199.605686
20
247.947091
11
199.344061
21
248.016521
0
LINE
8
annotation
62
1
39
211
10
199.344061
20
248.016521
11
199.081619
21
248.037708
0
LINE
8
annotation
62
1
39
211
10
199.081619
20
248.037708
11
198.823840
21
248.013229
0
LINE
8
annotation
62
1
39
211
10
198.823840
20
248.013229
11
198.576204
21
247.945663
0
LINE
8
annotation
62
1
39
211
10
198.576204
20
247.945663
11
198.344191
21
247.837585
0
LINE
8
annotation
62
1
39
211
10
198.344191
20
247.837585
11
198.133282
21
247.691573
0
LINE
8
annotation
62
1
39
211
10
198.133282
20
247.691573
11
197.948957
21
247.510204
0
LINE
8
annotation
62
1
39
211
10
197.948957
20
247.510204
11
197.796694
21
247.296055
0
LINE
8
annotation
62
1
39
211
10
197.796694
20
247.296055
11
197.681976
21
247.051704
0
LINE
8
annotation
62
1
39
211
10
197.681976
20
247.051704
11
197.681976
21
247.051704
0
LINE
8
annotation
62
1
39
211
10
197.681976
20
247.051704
11
197.612371
21
246.789590
0
LINE
8
annotation
62
1
39
211
10
197.612371
20
246.789590
11
197.591055
21
246.526734
0
LINE
8
annotation
62
1
39
211
10
197.591055
20
246.526734
11
197.615465
21
246.268606
0
LINE
8
annotation
62
1
39
211
10
197.615465
20
246.268606
11
197.683038
21
246.020672
0
LINE
8
annotation
62
1
39
211
10
197.683038
20
246.020672
11
197.791210
21
245.788399
0
LINE
8
annotation
62
1
39
211
10
197.791210
20
245.788399
11
197.937418
21
245.577256
0
LINE
8
annotation
62
1
39
211
10
197.937418
20
245.577256
11
198.119100
21
245.392709
0
LINE
8
annotation
62
1
39
211
10
198.119100
20
245.392709
11
198.333691
21
245.240227
0
LINE
8
annotation
62
1
39
211
10
198.333691
20
245.240227
11
198.578630
21
245.125276
0
LINE
8
annotation
62
1
39
211
10
198.578630
20
245.125276
11
198.578630
21
245.125276
0
LINE
8
annotation
62
1
39
211
10
198.578630
20
245.125276
11
198.840152
21
245.055890
0
LINE
8
annotation
62
1
39
211
10
198.840152
20
245.055890
11
199.102552
21
245.034762
0
LINE
8
annotation
62
1
39
211
10
199.102552
20
245.034762
11
199.360353
21
245.059350
0
LINE
8
annotation
62
1
39
211
10
199.360353
20
245.059350
11
199.608075
21
245.127114
0
LINE
8
annotation
62
1
39
211
10
199.608075
20
245.127114
11
199.840242
21
245.235514
0
LINE
8
annotation
62
1
39
211
10
199.840242
20
245.235514
11
200.051374
21
245.382007
0
LINE
8
annotation
62
1
39
211
10
200.051374
20
245.382007
11
200.235995
21
245.564055
0
LINE
8
annotation
62
1
39
211
10
200.235995
20
245.564055
11
200.388627
21
245.779115
0
LINE
8
annotation
62
1
39
211
10
200.388627
20
245.779115
11
200.503790
21
246.024648
0
LINE
8
annotation
62
1
39
211
10
70.536338
20
150.019062
11
51.538157
21
150.019062
0
LINE
8
annotation
62
1
39
211
10
51.538157
20
150.019062
11
70.536338
21
184.234670
0
LINE
8
annotation
62
1
39
211
10
70.536338
20
184.234670
11
51.538157
21
184.234670
0
LINE
8
annotation
62
1
39
211
10
102.078918
20
167.126866
11
83.370409
21
167.126866
0
LINE
8
annotation
62
1
39
211
10
114.906552
20
150.020135
11
122.504537
21
150.020135
0
LINE
8
annotation
62
1
39
211
10
122.504537
20
150.020135
11
122.504537
21
150.020135
0
LINE
8
annotation
62
1
39
211
10
122.504537
20
150.020135
11
123.871053
21
150.142721
0
LINE
8
annotation
62
1
39
211
10
123.871053
20
150.142721
11
125.156897
21
150.496019
0
LINE
8
annotation
62
1
39
211
10
125.156897
20
150.496019
11
126.340682
21
151.058345
0
LINE
8
annotation
62
1
39
211
10
126.340682
20
151.058345
11
127.401023
21
151.808009
0
LINE
8
annotation
62
1
39
211
10
127.401023
20
151.808009
11
128.316532
21
152.723327
0
LINE
8
annotation
62
1
39
211
10
128.316532
20
152.723327
11
129.065823
21
153.782611
0
LINE
8
annotation
62
1
39
211
10
129.065823
20
153.782611
11
129.627509
21
154.964174
0
LINE
8
annotation
62
1
39
211
10
129.627509
20
154.964174
11
129.980204
21
156.246330
0
LINE
8
annotation
62
1
39
211
10
129.980204
20
156.246330
11
130.102522
21
157.607392
0
LINE
8
annotation
62
1
39
211
10
130.102522
20
157.607392
11
130.102522
21
161.411748
0
LINE
8
annotation
62
1
39
211
10
130.102522
20
161.411748
11
130.102522
21
161.411748
0
LINE
8
annotation
62
1
39
211
10
130.102522
20
161.411748
11
129.980204
21
162.772245
0
LINE
8
annotation
62
1
39
211
10
129.980204
20
162.772245
11
129.627509
21
164.054100
0
LINE
8
annotation
62
1
39
211
10
129.627509
20
164.054100
11
129.065823
21
165.235575
0
LINE
8
annotation
62
1
39
211
10
129.065823
20
165.235575
11
128.316532
21
166.294930
0
LINE
8
annotation
62
1
39
211
10
128.316532
20
166.294930
11
127.401023
21
167.210424
0
LINE
8
annotation
62
1
39
211
10
127.401023
20
167.210424
11
126.340682
21
167.960318
0
LINE
8
annotation
62
1
39
211
10
126.340682
20
167.960318
11
125.156897
21
168.522873
0
LINE
8
annotation
62
1
39
211
10
125.156897
20
168.522873
11
123.871053
21
168.876348
0
LINE
8
annotation
62
1
39
211
10
123.871053
20
168.876348
11
122.504537
21
168.999004
0
LINE
8
annotation
62
1
39
211
10
122.504537
20
168.999004
11
118.700180
21
168.999004
0
LINE
8
annotation
62
1
39
211
10
118.700180
20
168.999004
11
122.504537
21
168.999004
0
LINE
8
annotation
62
1
39
211
10
122.504537
20
168.999004
11
122.504537
21
168.999004
0
LINE
8
annotation
62
1
39
211
10
122.504537
20
168.999004
11
123.871053
21
169.121690
0
LINE
8
annotation
62
1
39
211
10
123.871053
20
169.121690
11
125.156897
21
169.475371
0
LINE
8
annotation
62
1
39
211
10
125.156897
20
169.475371
11
126.340682
21
170.038485
0
LINE
8
annotation
62
1
39
211
10
126.340682
20
170.038485
11
127.401023
21
170.789469
0
LINE
8
annotation
62
1
39
211
10
127.401023
20
170.789469
11
128.316532
21
171.706758
0
LINE
8
annotation
62
1
39
211
10
128.316532
20
171.706758
11
129.065823
21
172.768791
0
LINE
8
annotation
62
1
39
211
10
129.065823
20
172.768791
11
129.627509
21
173.954004
0
LINE
8
annotation
62
1
39
211
10
129.627509
20
173.954004
11
129.980204
21
175.240834
0
LINE
8
annotation
62
1
39
211
10
129.980204
20
175.240834
11
130.102522
21
176.607718
0
LINE
8
annotation
62
1
39
211
10
130.102522
20
176.607718
11
130.102522
21
176.607718
0
LINE
8
annotation
62
1
39
211
10
130.102522
20
176.607718
11
129.980204
21
177.968215
0
LINE
8
annotation
62
1
39
211
10
129.980204
20
177.968215
11
129.627509
21
179.250070
0
LINE
8
annotation
62
1
39
211
10
129.627509
20
179.250070
11
129.065823
21
180.431545
0
LINE
8
annotation
62
1
39
211
10
129.065823
20
180.431545
11
128.316532
21
181.490899
0
LINE
8
annotation
62
1
39
211
10
128.316532
20
181.490899
11
127.401023
21
182.406394
0
LINE
8
annotation
62
1
39
211
10
127.401023
20
182.406394
11
126.340682
21
183.156288
0
LINE
8
annotation
62
1
39
211
10
126.340682
20
183.156288
11
125.156897
21
183.718843
0
LINE
8
annotation
62
1
39
211
10
125.156897
20
183.718843
11
123.871053
21
184.072318
0
LINE
8
annotation
62
1
39
211
10
123.871053
20
184.072318
11
122.504537
21
184.194974
0
LINE
8
annotation
62
1
39
211
10
122.504537
20
184.194974
11
114.906552
21
184.194974
0
LINE
8
boundary
62
5
39
2
10
392.877388
20
31.033434
11
401.195961
21
37.784653
0
LINE
8
boundary
62
5
39
2
10
401.195961
20
37.784653
11
406.800025
21
43.005621
0
LINE
8
boundary
62
5
39
2
10
406.800025
20
43.005621
11
409.175397
21
45.790225
0
LINE
8
boundary
62
5
39
2
10
409.175397
20
45.790225
11
411.981043
21
49.475911
0
LINE
8
boundary
62
5
39
2
10
411.981043
20
49.475911
11
417.151705
21
55.352833
0
LINE
8
boundary
62
5
39
2
10
417.151705
20
55.352833
11
421.023719
21
59.964291
0
LINE
8
boundary
62
5
39
2
10
421.023719
20
59.964291
11
424.271328
21
65.576239
0
LINE
8
boundary
62
5
39
2
10
424.271328
20
65.576239
11
427.505135
21
74.702335
0
LINE
8
boundary
62
5
39
2
10
427.505135
20
74.702335
11
428.894021
21
78.255888
0
LINE
8
boundary
62
5
39
2
10
428.894021
20
78.255888
11
429.459717
21
80.219696
0
LINE
8
boundary
62
5
39
2
10
429.459717
20
80.219696
11
430.360124
21
92.691561
0
LINE
8
boundary
62
5
39
2
10
430.360124
20
92.691561
11
431.394331
21
102.461025
0
LINE
8
boundary
62
5
39
2
10
431.394331
20
102.461025
11
431.254409
21
105.892990
0
LINE
8
boundary
62
5
39
2
10
431.254409
20
105.892990
11
431.248419
21
113.180985
0
LINE
8
boundary
62
5
39
2
10
431.248419
20
113.180985
11
430.926436
21
118.374689
0
LINE
8
boundary
62
5
39
2
10
430.926436
20
118.374689
11
431.283886
21
120.175368
0
LINE
8
boundary
62
5
39
2
10
431.283886
20
120.175368
11
431.211453
21
128.017360
0
LINE
8
boundary
62
5
39
2
10
431.211453
20
128.017360
11
431.272029
21
132.311276
0
LINE
8
boundary
62
5
39
2
10
431.272029
20
132.311276
11
430.543256
21
136.202319
0
LINE
8
boundary
62
5
39
2
10
430.543256
20
136.202319
11
432.231861
21
139.664090
0
LINE
8
boundary
62
5
39
2
10
432.231861
20
139.664090
11
433.828727
21
141.978419
0
LINE
8
boundary
62
5
39
2
10
433.828727
20
141.978419
11
437.456407
21
146.302714
0
LINE
8
boundary
62
5
39
2
10
437.456407
20
146.302714
11
439.640979
21
149.321548
0
LINE
8
boundary
62
5
39
2
10
439.640979
20
149.321548
11
443.866914
21
156.598467
0
LINE
8
boundary
62
5
39
2
10
443.866914
20
156.598467
11
444.342110
21
157.657232
0
LINE
8
boundary
62
5
39
2
10
444.342110
20
157.657232
11
446.221866
21
168.354736
0
LINE
8
boundary
62
5
39
2
10
446.221866
20
168.354736
11
446.741320
21
173.648151
0
LINE
8
boundary
62
5
39
2
10
446.741320
20
173.648151
11
446.463713
21
176.256179
0
LINE
8
boundary
62
5
39
2
10
446.463713
20
176.256179
11
445.984559
21
179.806669
0
LINE
8
boundary
62
5
39
2
10
445.984559
20
179.806669
11
445.342648
21
182.951814
0
LINE
8
boundary
62
5
39
2
10
445.342648
20
182.951814
11
444.959138
21
184.504557
0
LINE
8
boundary
62
5
39
2
10
444.959138
20
184.504557
11
443.801865
21
188.796500
0
LINE
8
boundary
62
5
39
2
10
443.801865
20
188.796500
11
442.441012
21
192.296206
0
LINE
8
boundary
62
5
39
2
10
442.441012
20
192.296206
11
442.081031
21
192.999645
0
LINE
8
boundary
62
5
39
2
10
442.081031
20
192.999645
11
440.508355
21
196.645744
0
LINE
8
boundary
62
5
39
2
10
440.508355
20
196.645744
11
439.872654
21
198.040035
0
LINE
8
boundary
62
5
39
2
10
439.872654
20
198.040035
11
438.820605
21
199.360566
0
LINE
8
boundary
62
5
39
2
10
438.820605
20
199.360566
11
437.626147
21
200.601356
0
LINE
8
boundary
62
5
39
2
10
437.626147
20
200.601356
11
435.692616
21
201.717851
0
LINE
8
boundary
62
5
39
2
10
435.692616
20
201.717851
11
434.884432
21
202.193314
0
LINE
8
boundary
62
5
39
2
10
434.884432
20
202.193314
11
432.852694
21
203.110257
0
LINE
8
boundary
62
5
39
2
10
432.852694
20
203.110257
11
431.878978
21
203.415750
0
LINE
8
boundary
62
5
39
2
10
431.878978
20
203.415750
11
429.826104
21
203.923826
0
LINE
8
boundary
62
5
39
2
10
429.826104
20
203.923826
11
426.515950
21
204.817509
0
LINE
8
boundary
62
5
39
2
10
426.515950
20
204.817509
11
425.235085
21
205.201779
0
LINE
8
boundary
62
5
39
2
10
425.235085
20
205.201779
11
423.286366
21
205.596644
0
LINE
8
boundary
62
5
39
2
10
423.286366
20
205.596644
11
413.328919
21
207.251811
0
LINE
8
boundary
62
5
39
2
10
413.328919
20
207.251811
11
412.764457
21
207.350229
0
LINE
8
boundary
62
5
39
2
10
412.764457
20
207.350229
11
404.801571
21
207.397019
0
LINE
8
boundary
62
5
39
2
10
404.801571
20
207.397019
11
404.801571
21
205.946565
0
LINE
8
boundary
62
5
39
2
10
404.801571
20
205.946565
11
395.988368
21
205.946565
0
LINE
8
boundary
62
5
39
2
10
395.988368
20
205.946565
11
391.533056
21
205.506465
0
LINE
8
boundary
62
5
39
2
10
391.533056
20
205.506465
11
386.716410
21
204.660813
0
LINE
8
boundary
62
5
39
2
10
386.716410
20
204.660813
11
375.862387
21
200.966868
0
LINE
8
boundary
62
5
39
2
10
375.862387
20
200.966868
11
372.671982
21
199.130699
0
LINE
8
boundary
62
5
39
2
10
372.671982
20
199.130699
11
370.529161
21
198.431661
0
LINE
8
boundary
62
5
39
2
10
370.529161
20
198.431661
11
358.663311
21
191.728776
0
LINE
8
boundary
62
5
39
2
10
358.663311
20
191.728776
11
353.791244
21
191.097375
0
LINE
8
boundary
62
5
39
2
10
353.791244
20
191.097375
11
343.326613
21
190.819373
0
LINE
8
boundary
62
5
39
2
10
343.326613
20
190.819373
11
340.742272
21
190.671812
0
LINE
8
boundary
62
5
39
2
10
340.742272
20
190.671812
11
339.261417
21
190.479217
0
LINE
8
boundary
62
5
39
2
10
339.261417
20
190.479217
11
330.113544
21
189.042259
0
LINE
8
boundary
62
5
39
2
10
330.113544
20
189.042259
11
326.642003
21
189.224258
0
LINE
8
boundary
62
5
39
2
10
326.642003
20
189.224258
11
326.642003
21
157.064815
0
LINE
8
boundary
62
5
39
2
10
326.642003
20
157.064815
11
331.097317
21
156.624715
0
LINE
8
boundary
62
5
39
2
10
331.097317
20
156.624715
11
385.085349
21
156.624715
0
LINE
8
boundary
62
5
39
2
10
385.085349
20
156.624715
11
385.085349
21
152.573715
0
LINE
8
boundary
62
5
39
2
10
385.085349
20
152.573715
11
331.097317
21
152.573716
0
LINE
8
boundary
62
5
39
2
10
331.097317
20
152.573716
11
326.642003
21
152.133615
0
LINE
8
boundary
62
5
39
2
10
326.642003
20
152.133615
11
326.642003
21
97.095053
0
LINE
8
boundary
62
5
39
2
10
326.642003
20
97.095053
11
331.097317
21
96.654953
0
LINE
8
boundary
62
5
39
2
10
331.097317
20
96.654953
11
378.535848
21
96.654954
0
LINE
8
boundary
62
5
39
2
10
378.535848
20
96.654954
11
378.535848
21
92.603953
0
LINE
8
boundary
62
5
39
2
10
378.535848
20
92.603953
11
331.097317
21
92.603953
0
LINE
8
boundary
62
5
39
2
10
331.097317
20
92.603953
11
326.642003
21
92.163853
0
LINE
8
boundary
62
5
39
2
10
326.642003
20
92.163853
11
326.642003
21
43.506311
0
LINE
8
boundary
62
5
39
2
10
326.642003
20
43.506311
11
331.097317
21
43.066211
0
LINE
8
boundary
62
5
39
2
10
331.097317
20
43.066211
11
365.533303
21
43.066211
0
LINE
8
boundary
62
5
39
2
10
365.533303
20
43.066211
11
365.533303
21
39.015211
0
LINE
8
boundary
62
5
39
2
10
365.533303
20
39.015211
11
331.097317
21
39.015211
0
LINE
8
boundary
62
5
39
2
10
331.097317
20
39.015211
11
326.642003
21
38.575111
0
LINE
8
boundary
62
5
39
2
10
326.642003
20
38.575111
11
326.642003
21
6.884691
0
LINE
8
boundary
62
5
39
2
10
326.642003
20
6.884691
11
328.942043
21
6.687500
0
LINE
8
boundary
62
5
39
2
10
328.942043
20
6.687500
11
330.840232
21
6.777872
0
LINE
8
boundary
62
5
39
2
10
330.840232
20
6.777872
11
336.086026
21
7.640856
0
LINE
8
boundary
62
5
39
2
10
336.086026
20
7.640856
11
339.078512
21
7.824798
0
LINE
8
boundary
62
5
39
2
10
339.078512
20
7.824798
11
343.489705
21
8.867181
0
LINE
8
boundary
62
5
39
2
10
343.489705
20
8.867181
11
347.349857
21
9.825344
0
LINE
8
boundary
62
5
39
2
10
347.349857
20
9.825344
11
351.070294
21
10.866712
0
LINE
8
boundary
62
5
39
2
10
351.070294
20
10.866712
11
356.901319
21
12.541196
0
LINE
8
boundary
62
5
39
2
10
356.901319
20
12.541196
11
359.063006
21
13.313951
0
LINE
8
boundary
62
5
39
2
10
359.063006
20
13.313951
11
366.227123
21
15.957926
0
LINE
8
boundary
62
5
39
2
10
366.227123
20
15.957926
11
366.811194
21
16.147720
0
LINE
8
boundary
62
5
39
2
10
366.811194
20
16.147720
11
375.372493
21
20.241147
0
LINE
8
boundary
62
5
39
2
10
375.372493
20
20.241147
11
379.151916
21
21.969713
0
LINE
8
boundary
62
5
39
2
10
379.151916
20
21.969713
11
384.126907
21
25.233812
0
LINE
8
boundary
62
5
39
2
10
384.126907
20
25.233812
11
392.819383
21
30.978414
0
LINE
8
boundary
62
5
39
2
10
392.819383
20
30.978414
11
392.877388
21
31.033434
0
LINE
8
annotation
62
1
39
211
10
374.509420
20
37.519911
11
376.074858
21
44.561511
0
LINE
8
annotation
62
1
39
211
10
376.074858
20
44.561511
11
372.943541
21
44.561511
0
LINE
8
annotation
62
1
39
211
10
376.074858
20
41.425778
11
374.509420
21
41.425778
0
LINE
8
annotation
62
1
39
211
10
385.948294
20
92.669896
11
385.948294
21
92.669896
0
LINE
8
annotation
62
1
39
211
10
385.948294
20
92.669896
11
385.973539
21
92.388742
0
LINE
8
annotation
62
1
39
211
10
385.973539
20
92.388742
11
386.046306
21
92.124317
0
LINE
8
annotation
62
1
39
211
10
386.046306
20
92.124317
11
386.162138
21
91.880987
0
LINE
8
annotation
62
1
39
211
10
386.162138
20
91.880987
11
386.316579
21
91.663116
0
LINE
8
annotation
62
1
39
211
10
386.316579
20
91.663116
11
386.505173
21
91.475070
0
LINE
8
annotation
62
1
39
211
10
386.505173
20
91.475070
11
386.723465
21
91.321214
0
LINE
8
annotation
62
1
39
211
10
386.723465
20
91.321214
11
386.966998
21
91.205912
0
LINE
8
annotation
62
1
39
211
10
386.966998
20
91.205912
11
387.231317
21
91.133530
0
LINE
8
annotation
62
1
39
211
10
387.231317
20
91.133530
11
387.511965
21
91.108433
0
LINE
8
annotation
62
1
39
211
10
387.511965
20
91.108433
11
387.511965
21
91.108433
0
LINE
8
annotation
62
1
39
211
10
387.511965
20
91.108433
11
387.792614
21
91.133530
0
LINE
8
annotation
62
1
39
211
10
387.792614
20
91.133530
11
388.056932
21
91.205912
0
LINE
8
annotation
62
1
39
211
10
388.056932
20
91.205912
11
388.300466
21
91.321214
0
LINE
8
annotation
62
1
39
211
10
388.300466
20
91.321214
11
388.518757
21
91.475070
0
LINE
8
annotation
62
1
39
211
10
388.518757
20
91.475070
11
388.707351
21
91.663116
0
LINE
8
annotation
62
1
39
211
10
388.707351
20
91.663116
11
388.861792
21
91.880987
0
LINE
8
annotation
62
1
39
211
10
388.861792
20
91.880987
11
388.977624
21
92.124317
0
LINE
8
annotation
62
1
39
211
10
388.977624
20
92.124317
11
389.050391
21
92.388742
0
LINE
8
annotation
62
1
39
211
10
389.050391
20
92.388742
11
389.075637
21
92.669896
0
LINE
8
annotation
62
1
39
211
10
389.075637
20
92.669896
11
389.075637
21
93.448862
0
LINE
8
annotation
62
1
39
211
10
389.075637
20
93.448862
11
389.075637
21
93.448862
0
LINE
8
annotation
62
1
39
211
10
389.075637
20
93.448862
11
389.050405
21
93.730152
0
LINE
8
annotation
62
1
39
211
10
389.050405
20
93.730152
11
388.977675
21
93.994942
0
LINE
8
annotation
62
1
39
211
10
388.977675
20
93.994942
11
388.861891
21
94.238801
0
LINE
8
annotation
62
1
39
211
10
388.861891
20
94.238801
11
388.707497
21
94.457299
0
LINE
8
annotation
62
1
39
211
10
388.707497
20
94.457299
11
388.518939
21
94.646005
0
LINE
8
annotation
62
1
39
211
10
388.518939
20
94.646005
11
388.300662
21
94.800488
0
LINE
8
annotation
62
1
39
211
10
388.300662
20
94.800488
11
388.057111
21
94.916318
0
LINE
8
annotation
62
1
39
211
10
388.057111
20
94.916318
11
387.792730
21
94.989066
0
LINE
8
annotation
62
1
39
211
10
387.792730
20
94.989066
11
387.511965
21
95.014299
0
LINE
8
annotation
62
1
39
211
10
387.511965
20
95.014299
11
387.511965
21
95.014299
0
LINE
8
annotation
62
1
39
211
10
387.511965
20
95.014299
11
387.231200
21
94.989051
0
LINE
8
annotation
62
1
39
211
10
387.231200
20
94.989051
11
386.966820
21
94.916268
0
LINE
8
annotation
62
1
39
211
10
386.966820
20
94.916268
11
386.723268
21
94.800390
0
LINE
8
annotation
62
1
39
211
10
386.723268
20
94.800390
11
386.504991
21
94.645859
0
LINE
8
annotation
62
1
39
211
10
386.504991
20
94.645859
11
386.316433
21
94.457117
0
LINE
8
annotation
62
1
39
211
10
386.316433
20
94.457117
11
386.162040
21
94.238605
0
LINE
8
annotation
62
1
39
211
10
386.162040
20
94.238605
11
386.046255
21
93.994764
0
LINE
8
annotation
62
1
39
211
10
386.046255
20
93.994764
11
385.973525
21
93.730036
0
LINE
8
annotation
62
1
39
211
10
385.973525
20
93.730036
11
385.948294
21
93.448862
0
LINE
8
annotation
62
1
39
211
10
385.948294
20
93.448862
11
385.948294
21
92.669896
0
LINE
8
annotation
62
1
39
211
10
389.075637
20
96.580179
11
389.075637
21
96.580179
0
LINE
8
annotation
62
1
39
211
10
389.075637
20
96.580179
11
389.050405
21
96.860170
0
LINE
8
annotation
62
1
39
211
10
389.050405
20
96.860170
11
388.977675
21
97.123977
0
LINE
8
annotation
62
1
39
211
10
388.977675
20
97.123977
11
388.861891
21
97.367126
0
LINE
8
annotation
62
1
39
211
10
388.861891
20
97.367126
11
388.707497
21
97.585142
0
LINE
8
annotation
62
1
39
211
10
388.707497
20
97.585142
11
388.518939
21
97.773551
0
LINE
8
annotation
62
1
39
211
10
388.518939
20
97.773551
11
388.300662
21
97.927880
0
LINE
8
annotation
62
1
39
211
10
388.300662
20
97.927880
11
388.057111
21
98.043654
0
LINE
8
annotation
62
1
39
211
10
388.057111
20
98.043654
11
387.792730
21
98.116400
0
LINE
8
annotation
62
1
39
211
10
387.792730
20
98.116400
11
387.511965
21
98.141642
0
LINE
8
annotation
62
1
39
211
10
387.511965
20
98.141642
11
387.511965
21
98.141642
0
LINE
8
annotation
62
1
39
211
10
387.511965
20
98.141642
11
387.231200
21
98.116400
0
LINE
8
annotation
62
1
39
211
10
387.231200
20
98.116400
11
386.966820
21
98.043654
0
LINE
8
annotation
62
1
39
211
10
386.966820
20
98.043654
11
386.723268
21
97.927880
0
LINE
8
annotation
62
1
39
211
10
386.723268
20
97.927880
11
386.504991
21
97.773551
0
LINE
8
annotation
62
1
39
211
10
386.504991
20
97.773551
11
386.316433
21
97.585142
0
LINE
8
annotation
62
1
39
211
10
386.316433
20
97.585142
11
386.162040
21
97.367126
0
LINE
8
annotation
62
1
39
211
10
386.162040
20
97.367126
11
386.046255
21
97.123977
0
LINE
8
annotation
62
1
39
211
10
386.046255
20
97.123977
11
385.973525
21
96.860170
0
LINE
8
annotation
62
1
39
211
10
385.973525
20
96.860170
11
385.948294
21
96.580179
0
LINE
8
annotation
62
1
39
211
10
385.948294
20
96.580179
11
385.948294
21
96.580179
0
LINE
8
annotation
62
1
39
211
10
385.948294
20
96.580179
11
385.973539
21
96.298873
0
LINE
8
annotation
62
1
39
211
10
385.973539
20
96.298873
11
386.046306
21
96.034042
0
LINE
8
annotation
62
1
39
211
10
386.046306
20
96.034042
11
386.162138
21
95.790125
0
LINE
8
annotation
62
1
39
211
10
386.162138
20
95.790125
11
386.316579
21
95.571557
0
LINE
8
annotation
62
1
39
211
10
386.316579
20
95.571557
11
386.505173
21
95.382778
0
LINE
8
annotation
62
1
39
211
10
386.505173
20
95.382778
11
386.723465
21
95.228225
0
LINE
8
annotation
62
1
39
211
10
386.723465
20
95.228225
11
386.966998
21
95.112336
0
LINE
8
annotation
62
1
39
211
10
386.966998
20
95.112336
11
387.231317
21
95.039548
0
LINE
8
annotation
62
1
39
211
10
387.231317
20
95.039548
11
387.511965
21
95.014299
0
LINE
8
annotation
62
1
39
211
10
387.511965
20
95.014299
11
387.511965
21
95.014299
0
LINE
8
annotation
62
1
39
211
10
387.511965
20
95.014299
11
387.792614
21
95.039548
0
LINE
8
annotation
62
1
39
211
10
387.792614
20
95.039548
11
388.056932
21
95.112336
0
LINE
8
annotation
62
1
39
211
10
388.056932
20
95.112336
11
388.300466
21
95.228225
0
LINE
8
annotation
62
1
39
211
10
388.300466
20
95.228225
11
388.518757
21
95.382778
0
LINE
8
annotation
62
1
39
211
10
388.518757
20
95.382778
11
388.707351
21
95.571557
0
LINE
8
annotation
62
1
39
211
10
388.707351
20
95.571557
11
388.861792
21
95.790125
0
LINE
8
annotation
62
1
39
211
10
388.861792
20
95.790125
11
388.977624
21
96.034042
0
LINE
8
annotation
62
1
39
211
10
388.977624
20
96.034042
11
389.050391
21
96.298873
0
LINE
8
annotation
62
1
39
211
10
389.050391
20
96.298873
11
389.075637
21
96.580179
0
LINE
8
annotation
62
1
39
211
10
393.278526
20
151.078415
11
393.278526
21
151.078415
0
LINE
8
annotation
62
1
39
211
10
393.278526
20
151.078415
11
393.725690
21
151.245051
0
LINE
8
annotation
62
1
39
211
10
393.725690
20
151.245051
11
394.136131
21
151.470288
0
LINE
8
annotation
62
1
39
211
10
394.136131
20
151.470288
11
394.505607
21
151.748390
0
LINE
8
annotation
62
1
39
211
10
394.505607
20
151.748390
11
394.829878
21
152.073616
0
LINE
8
annotation
62
1
39
211
10
394.829878
20
152.073616
11
395.104702
21
152.440228
0
LINE
8
annotation
62
1
39
211
10
395.104702
20
152.440228
11
395.325837
21
152.842487
0
LINE
8
annotation
62
1
39
211
10
395.325837
20
152.842487
11
395.489042
21
153.274654
0
LINE
8
annotation
62
1
39
211
10
395.489042
20
153.274654
11
395.590075
21
153.730991
0
LINE
8
annotation
62
1
39
211
10
395.590075
20
153.730991
11
395.624695
21
154.205758
0
LINE
8
annotation
62
1
39
211
10
395.624695
20
154.205758
11
395.624695
21
156.554136
0
LINE
8
annotation
62
1
39
211
10
395.624695
20
156.554136
11
395.624695
21
156.554136
0
LINE
8
annotation
62
1
39
211
10
395.624695
20
156.554136
11
395.599522
21
156.835442
0
LINE
8
annotation
62
1
39
211
10
395.599522
20
156.835442
11
395.526937
21
157.100272
0
LINE
8
annotation
62
1
39
211
10
395.526937
20
157.100272
11
395.411342
21
157.344190
0
LINE
8
annotation
62
1
39
211
10
395.411342
20
157.344190
11
395.257137
21
157.562757
0
LINE
8
annotation
62
1
39
211
10
395.257137
20
157.562757
11
395.068725
21
157.751536
0
LINE
8
annotation
62
1
39
211
10
395.068725
20
157.751536
11
394.850506
21
157.906089
0
LINE
8
annotation
62
1
39
211
10
394.850506
20
157.906089
11
394.606882
21
158.021979
0
LINE
8
annotation
62
1
39
211
10
394.606882
20
158.021979
11
394.342254
21
158.094767
0
LINE
8
annotation
62
1
39
211
10
394.342254
20
158.094767
11
394.061024
21
158.120015
0
LINE
8
annotation
62
1
39
211
10
394.061024
20
158.120015
11
394.061024
21
158.120015
0
LINE
8
annotation
62
1
39
211
10
394.061024
20
158.120015
11
393.780375
21
158.094767
0
LINE
8
annotation
62
1
39
211
10
393.780375
20
158.094767
11
393.516057
21
158.021979
0
LINE
8
annotation
62
1
39
211
10
393.516057
20
158.021979
11
393.272523
21
157.906089
0
LINE
8
annotation
62
1
39
211
10
393.272523
20
157.906089
11
393.054232
21
157.751536
0
LINE
8
annotation
62
1
39
211
10
393.054232
20
157.751536
11
392.865638
21
157.562757
0
LINE
8
annotation
62
1
39
211
10
392.865638
20
157.562757
11
392.711197
21
157.344190
0
LINE
8
annotation
62
1
39
211
10
392.711197
20
157.344190
11
392.595365
21
157.100272
0
LINE
8
annotation
62
1
39
211
10
392.595365
20
157.100272
11
392.522598
21
156.835442
0
LINE
8
annotation
62
1
39
211
10
392.522598
20
156.835442
11
392.497352
21
156.554136
0
LINE
8
annotation
62
1
39
211
10
392.497352
20
156.554136
11
392.497352
21
155.771196
0
LINE
8
annotation
62
1
39
211
10
392.497352
20
155.771196
11
392.497352
21
155.771196
0
LINE
8
annotation
62
1
39
211
10
392.497352
20
155.771196
11
392.522598
21
155.489906
0
LINE
8
annotation
62
1
39
211
10
392.522598
20
155.489906
11
392.595365
21
155.225115
0
LINE
8
annotation
62
1
39
211
10
392.595365
20
155.225115
11
392.711197
21
154.981256
0
LINE
8
annotation
62
1
39
211
10
392.711197
20
154.981256
11
392.865638
21
154.762759
0
LINE
8
annotation
62
1
39
211
10
392.865638
20
154.762759
11
393.054232
21
154.574053
0
LINE
8
annotation
62
1
39
211
10
393.054232
20
154.574053
11
393.272523
21
154.419570
0
LINE
8
annotation
62
1
39
211
10
393.272523
20
154.419570
11
393.516057
21
154.303739
0
LINE
8
annotation
62
1
39
211
10
393.516057
20
154.303739
11
393.780375
21
154.230992
0
LINE
8
annotation
62
1
39
211
10
393.780375
20
154.230992
11
394.061024
21
154.205758
0
LINE
8
annotation
62
1
39
211
10
394.061024
20
154.205758
11
395.624695
21
154.205758
0
LINE
8
annotation
62
1
39
211
10
392.301949
20
150.198215
11
395.822749
21
150.198215
0
LINE
8
annotation
62
1
39
211
10
406.769026
20
205.317070
11
406.769026
21
207.106260
0
LINE
8
annotation
62
1
39
211
10
406.769026
20
207.106260
11
406.371266
21
206.708388
0
LINE
8
annotation
62
1
39
211
10
407.727308
20
205.340670
11
407.727308
21
205.340670
0
LINE
8
annotation
62
1
39
211
10
407.727308
20
205.340670
11
407.768891
21
205.325125
0
LINE
8
annotation
62
1
39
211
10
407.768891
20
205.325125
11
407.811538
21
205.317402
0
LINE
8
annotation
62
1
39
211
10
407.811538
20
205.317402
11
407.854284
21
205.317186
0
LINE
8
annotation
62
1
39
211
10
407.854284
20
205.317186
11
407.896167
21
205.324162
0
LINE
8
annotation
62
1
39
211
10
407.896167
20
205.324162
11
407.936220
21
205.338015
0
LINE
8
annotation
62
1
39
211
10
407.936220
20
205.338015
11
407.973481
21
205.358431
0
LINE
8
annotation
62
1
39
211
10
407.973481
20
205.358431
11
408.006986
21
205.385094
0
LINE
8
annotation
62
1
39
211
10
408.006986
20
205.385094
11
408.035769
21
205.417689
0
LINE
8
annotation
62
1
39
211
10
408.035769
20
205.417689
11
408.058868
21
205.455902
0
LINE
8
annotation
62
1
39
211
10
408.058868
20
205.455902
11
408.058868
21
205.455902
0
LINE
8
annotation
62
1
39
211
10
408.058868
20
205.455902
11
408.127786
21
205.617221
0
LINE
8
annotation
62
1
39
211
10
408.127786
20
205.617221
11
408.179474
21
205.783209
0
LINE
8
annotation
62
1
39
211
10
408.179474
20
205.783209
11
408.213933
21
205.952542
0
LINE
8
annotation
62
1
39
211
10
408.213933
20
205.952542
11
408.231162
21
206.123898
0
LINE
8
annotation
62
1
39
211
10
408.231162
20
206.123898
11
408.231162
21
206.295953
0
LINE
8
annotation
62
1
39
211
10
408.231162
20
206.295953
11
408.213933
21
206.467384
0
LINE
8
annotation
62
1
39
211
10
408.213933
20
206.467384
11
408.179474
21
206.636867
0
LINE
8
annotation
62
1
39
211
10
408.179474
20
206.636867
11
408.127786
21
206.803080
0
LINE
8
annotation
62
1
39
211
10
408.127786
20
206.803080
11
408.058868
21
206.964697
0
LINE
8
annotation
62
1
39
211
10
408.058868
20
206.964697
11
408.058868
21
206.964697
0
LINE
8
annotation
62
1
39
211
10
408.058868
20
206.964697
11
408.050104
21
206.981008
0
LINE
8
annotation
62
1
39
211
10
408.050104
20
206.981008
11
408.040168
21
206.996602
0
LINE
8
annotation
62
1
39
211
10
408.040168
20
206.996602
11
408.029134
21
207.011403
0
LINE
8
annotation
62
1
39
211
10
408.029134
20
207.011403
11
408.017079
21
207.025334
0
LINE
8
annotation
62
1
39
211
10
408.017079
20
207.025334
11
408.004076
21
207.038318
0
LINE
8
annotation
62
1
39
211
10
408.004076
20
207.038318
11
407.990200
21
207.050279
0
LINE
8
annotation
62
1
39
211
10
407.990200
20
207.050279
11
407.975526
21
207.061141
0
LINE
8
annotation
62
1
39
211
10
407.975526
20
207.061141
11
407.960129
21
207.070825
0
LINE
8
annotation
62
1
39
211
10
407.960129
20
207.070825
11
407.944084
21
207.079257
0
LINE
8
annotation
62
1
39
211
10
407.944084
20
207.079257
11
407.944084
21
207.079257
0
LINE
8
annotation
62
1
39
211
10
407.944084
20
207.079257
11
407.902171
21
207.095139
0
LINE
8
annotation
62
1
39
211
10
407.902171
20
207.095139
11
407.859274
21
207.103125
0
LINE
8
annotation
62
1
39
211
10
407.859274
20
207.103125
11
407.816347
21
207.103534
0
LINE
8
annotation
62
1
39
211
10
407.816347
20
207.103534
11
407.774343
21
207.096682
0
LINE
8
annotation
62
1
39
211
10
407.774343
20
207.096682
11
407.734214
21
207.082885
0
LINE
8
annotation
62
1
39
211
10
407.734214
20
207.082885
11
407.696913
21
207.062460
0
LINE
8
annotation
62
1
39
211
10
407.696913
20
207.062460
11
407.663395
21
207.035724
0
LINE
8
annotation
62
1
39
211
10
407.663395
20
207.035724
11
407.634611
21
207.002993
0
LINE
8
annotation
62
1
39
211
10
407.634611
20
207.002993
11
407.611514
21
206.964585
0
LINE
8
annotation
62
1
39
211
10
407.611514
20
206.964585
11
407.611514
21
206.964585
0
LINE
8
annotation
62
1
39
211
10
407.611514
20
206.964585
11
407.542929
21
206.803300
0
LINE
8
annotation
62
1
39
211
10
407.542929
20
206.803300
11
407.491490
21
206.637337
0
LINE
8
annotation
62
1
39
211
10
407.491490
20
206.637337
11
407.457198
21
206.468020
0
LINE
8
annotation
62
1
39
211
10
407.457198
20
206.468020
11
407.440051
21
206.296672
0
LINE
8
annotation
62
1
39
211
10
407.440051
20
206.296672
11
407.440051
21
206.124617
0
LINE
8
annotation
62
1
39
211
10
407.440051
20
206.124617
11
407.457198
21
205.953178
0
LINE
8
annotation
62
1
39
211
10
407.457198
20
205.953178
11
407.491490
21
205.783678
0
LINE
8
annotation
62
1
39
211
10
407.491490
20
205.783678
11
407.542929
21
205.617441
0
LINE
8
annotation
62
1
39
211
10
407.542929
20
205.617441
11
407.611514
21
205.455790
0
LINE
8
annotation
62
1
39
211
10
407.611514
20
205.455790
11
407.611514
21
205.455790
0
LINE
8
annotation
62
1
39
211
10
407.611514
20
205.455790
11
407.620247
21
205.439512
0
LINE
8
annotation
62
1
39
211
10
407.620247
20
205.439512
11
407.630109
21
205.423995
0
LINE
8
annotation
62
1
39
211
10
407.630109
20
205.423995
11
407.641061
21
205.409288
0
LINE
8
annotation
62
1
39
211
10
407.641061
20
205.409288
11
407.653060
21
205.395437
0
LINE
8
annotation
62
1
39
211
10
407.653060
20
205.395437
11
407.666064
21
205.382489
0
LINE
8
annotation
62
1
39
211
10
407.666064
20
205.382489
11
407.680033
21
205.370491
0
LINE
8
annotation
62
1
39
211
10
407.680033
20
205.370491
11
407.694924
21
205.359490
0
LINE
8
annotation
62
1
39
211
10
407.694924
20
205.359490
11
407.710696
21
205.349534
0
LINE
8
annotation
62
1
39
211
10
407.710696
20
205.349534
11
407.727308
21
205.340670
0
LINE
8
annotation
62
1
39
211
10
361.567556
20
133.571828
11
354.337239
21
123.113836
0
LINE
8
annotation
62
1
39
211
10
354.337239
20
123.113836
11
347.105562
21
133.571828
0
LINE
8
annotation
62
1
39
211
10
354.337239
20
123.955424
11
354.337239
21
111.890393
0
LINE
8
annotation
62
1
39
211
10
381.554599
20
122.731110
11
369.700304
21
122.731110
0
LINE
8
annotation
62
1
39
211
10
394.503026
20
111.891072
11
394.503026
21
133.571148
0
LINE
8
annotation
62
1
39
211
10
394.503026
20
133.571148
11
389.683267
21
128.750030
0
LINE
8
annotation
62
1
39
211
10
407.452813
20
111.891072
11
407.452813
21
133.571148
0
LINE
8
annotation
62
1
39
211
10
407.452813
20
133.571148
11
402.633054
21
128.750030
0
LINE
8
boundary
62
5
39
2
10
104.962748
20
303.521585
11
119.063082
21
313.065932
0
LINE
8
boundary
62
5
39
2
10
119.063082
20
313.065932
11
115.933004
21
316.266889
0
LINE
8
boundary
62
5
39
2
10
115.933004
20
316.266889
11
70.769330
21
354.163711
0
LINE
8
boundary
62
5
39
2
10
70.769330
20
354.163711
11
73.373263
21
357.266957
0
LINE
8
boundary
62
5
39
2
10
73.373263
20
357.266957
11
119.613448
21
318.466835
0
LINE
8
boundary
62
5
39
2
10
119.613448
20
318.466835
11
123.309307
21
315.940151
0
LINE
8
boundary
62
5
39
2
10
123.309307
20
315.940151
11
133.886187
21
323.099513
0
LINE
8
boundary
62
5
39
2
10
133.886187
20
323.099513
11
146.527184
21
331.656052
0
LINE
8
boundary
62
5
39
2
10
146.527184
20
331.656052
11
154.297132
21
336.915437
0
LINE
8
boundary
62
5
39
2
10
154.297132
20
336.915437
11
156.429796
21
338.359010
0
LINE
8
boundary
62
5
39
2
10
156.429796
20
338.359010
11
152.947056
21
341.076077
0
LINE
8
boundary
62
5
39
2
10
152.947056
20
341.076077
11
149.290160
21
344.116666
0
LINE
8
boundary
62
5
39
2
10
149.290160
20
344.116666
11
146.680892
21
346.560630
0
LINE
8
boundary
62
5
39
2
10
146.680892
20
346.560630
11
139.410636
21
354.907695
0
LINE
8
boundary
62
5
39
2
10
139.410636
20
354.907695
11
127.257832
21
368.225060
0
LINE
8
boundary
62
5
39
2
10
127.257832
20
368.225060
11
124.018883
21
370.444207
0
LINE
8
boundary
62
5
39
2
10
124.018883
20
370.444207
11
122.629942
21
371.954588
0
LINE
8
boundary
62
5
39
2
10
122.629942
20
371.954588
11
104.274327
21
385.560674
0
LINE
8
boundary
62
5
39
2
10
104.274327
20
385.560674
11
81.474635
21
401.384560
0
LINE
8
boundary
62
5
39
2
10
81.474635
20
401.384560
11
77.472964
21
403.815861
0
LINE
8
boundary
62
5
39
2
10
77.472964
20
403.815861
11
75.057610
21
404.742347
0
LINE
8
boundary
62
5
39
2
10
75.057610
20
404.742347
11
72.041127
21
405.051813
0
LINE
8
boundary
62
5
39
2
10
72.041127
20
405.051813
11
47.907415
21
407.285019
0
LINE
8
boundary
62
5
39
2
10
47.907415
20
407.285019
11
36.165998
21
404.048467
0
LINE
8
boundary
62
5
39
2
10
36.165998
20
404.048467
11
28.038636
21
401.271623
0
LINE
8
boundary
62
5
39
2
10
28.038636
20
401.271623
11
19.795373
21
395.113882
0
LINE
8
boundary
62
5
39
2
10
19.795373
20
395.113882
11
14.581287
21
389.408087
0
LINE
8
boundary
62
5
39
2
10
14.581287
20
389.408087
11
11.059359
21
383.857970
0
LINE
8
boundary
62
5
39
2
10
11.059359
20
383.857970
11
7.544834
21
375.066168
0
LINE
8
boundary
62
5
39
2
10
7.544834
20
375.066168
11
7.067898
21
372.380352
0
LINE
8
boundary
62
5
39
2
10
7.067898
20
372.380352
11
6.687500
21
368.812341
0
LINE
8
boundary
62
5
39
2
10
6.687500
20
368.812341
11
9.032475
21
358.085553
0
LINE
8
boundary
62
5
39
2
10
9.032475
20
358.085553
11
9.913000
21
348.385645
0
LINE
8
boundary
62
5
39
2
10
9.913000
20
348.385645
11
12.278554
21
345.586105
0
LINE
8
boundary
62
5
39
2
10
12.278554
20
345.586105
11
15.508308
21
341.595376
0
LINE
8
boundary
62
5
39
2
10
15.508308
20
341.595376
11
13.828132
21
345.306434
0
LINE
8
boundary
62
5
39
2
10
13.828132
20
345.306434
11
17.336401
21
347.331934
0
LINE
8
boundary
62
5
39
2
10
17.336401
20
347.331934
11
24.885162
21
334.257096
0
LINE
8
boundary
62
5
39
2
10
24.885162
20
334.257096
11
27.493957
21
330.618731
0
LINE
8
boundary
62
5
39
2
10
27.493957
20
330.618731
11
31.733180
21
328.239515
0
LINE
8
boundary
62
5
39
2
10
31.733180
20
328.239515
11
40.267385
21
324.413528
0
LINE
8
boundary
62
5
39
2
10
40.267385
20
324.413528
11
48.361353
21
321.544614
0
LINE
8
boundary
62
5
39
2
10
48.361353
20
321.544614
11
58.129690
21
320.309312
0
LINE
8
boundary
62
5
39
2
10
58.129690
20
320.309312
11
61.742206
21
306.030833
0
LINE
8
boundary
62
5
39
2
10
61.742206
20
306.030833
11
65.724270
21
299.223846
0
LINE
8
boundary
62
5
39
2
10
65.724270
20
299.223846
11
67.741094
21
292.675246
0
LINE
8
boundary
62
5
39
2
10
67.741094
20
292.675246
11
69.678841
21
286.438647
0
LINE
8
boundary
62
5
39
2
10
69.678841
20
286.438647
11
72.044303
21
281.239485
0
LINE
8
boundary
62
5
39
2
10
72.044303
20
281.239485
11
74.344748
21
282.796629
0
LINE
8
boundary
62
5
39
2
10
74.344748
20
282.796629
11
75.531310
21
283.599799
0
LINE
8
boundary
62
5
39
2
10
75.531310
20
283.599799
11
104.962748
21
303.521585
0
LINE
8
annotation
62
1
39
211
10
10.933597
20
350.672152
11
14.136820
21
352.521534
0
LINE
8
annotation
62
1
39
211
10
14.136820
20
352.521534
11
13.013360
21
352.822394
0
LINE
8
annotation
62
1
39
211
10
15.447166
20
350.251948
11
15.447166
21
350.251948
0
LINE
8
annotation
62
1
39
211
10
15.447166
20
350.251948
11
15.253115
21
350.411610
0
LINE
8
annotation
62
1
39
211
10
15.253115
20
350.411610
11
15.042213
21
350.539165
0
LINE
8
annotation
62
1
39
211
10
15.042213
20
350.539165
11
14.818148
21
350.634181
0
LINE
8
annotation
62
1
39
211
10
14.818148
20
350.634181
11
14.584608
21
350.696228
0
LINE
8
annotation
62
1
39
211
10
14.584608
20
350.696228
11
14.345280
21
350.724876
0
LINE
8
annotation
62
1
39
211
10
14.345280
20
350.724876
11
14.103851
21
350.719694
0
LINE
8
annotation
62
1
39
211
10
14.103851
20
350.719694
11
13.864009
21
350.680253
0
LINE
8
annotation
62
1
39
211
10
13.864009
20
350.680253
11
13.629441
21
350.606120
0
LINE
8
annotation
62
1
39
211
10
13.629441
20
350.606120
11
13.403835
21
350.496867
0
LINE
8
annotation
62
1
39
211
10
13.403835
20
350.496867
11
12.339174
21
349.882185
0
LINE
8
annotation
62
1
39
211
10
12.339174
20
349.882185
11
12.339174
21
349.882185
0
LINE
8
annotation
62
1
39
211
10
12.339174
20
349.882185
11
12.217846
21
349.796823
0
LINE
8
annotation
62
1
39
211
10
12.217846
20
349.796823
11
12.116504
21
349.694178
0
LINE
8
annotation
62
1
39
211
10
12.116504
20
349.694178
11
12.035994
21
349.577440
0
LINE
8
annotation
62
1
39
211
10
12.035994
20
349.577440
11
11.977161
21
349.449799
0
LINE
8
annotation
62
1
39
211
10
11.977161
20
349.449799
11
11.940851
21
349.314447
0
LINE
8
annotation
62
1
39
211
10
11.940851
20
349.314447
11
11.927908
21
349.174573
0
LINE
8
annotation
62
1
39
211
10
11.927908
20
349.174573
11
11.939177
21
349.033369
0
LINE
8
annotation
62
1
39
211
10
11.939177
20
349.033369
11
11.975504
21
348.894024
0
LINE
8
annotation
62
1
39
211
10
11.975504
20
348.894024
11
12.037734
21
348.759730
0
LINE
8
annotation
62
1
39
211
10
12.037734
20
348.759730
11
12.037734
21
348.759730
0
LINE
8
annotation
62
1
39
211
10
12.037734
20
348.759730
11
12.123074
21
348.638425
0
LINE
8
annotation
62
1
39
211
10
12.123074
20
348.638425
11
12.225668
21
348.537152
0
LINE
8
annotation
62
1
39
211
10
12.225668
20
348.537152
11
12.342344
21
348.456749
0
LINE
8
annotation
62
1
39
211
10
12.342344
20
348.456749
11
12.469931
21
348.398054
0
LINE
8
annotation
62
1
39
211
10
12.469931
20
348.398054
11
12.605257
21
348.361906
0
LINE
8
annotation
62
1
39
211
10
12.605257
20
348.361906
11
12.745151
21
348.349144
0
LINE
8
annotation
62
1
39
211
10
12.745151
20
348.349144
11
12.886442
21
348.360606
0
LINE
8
annotation
62
1
39
211
10
12.886442
20
348.360606
11
13.025959
21
348.397131
0
LINE
8
annotation
62
1
39
211
10
13.025959
20
348.397131
11
13.160529
21
348.459557
0
LINE
8
annotation
62
1
39
211
10
13.160529
20
348.459557
11
13.514881
21
348.664142
0
LINE
8
annotation
62
1
39
211
10
13.514881
20
348.664142
11
13.514881
21
348.664142
0
LINE
8
annotation
62
1
39
211
10
13.514881
20
348.664142
11
13.636166
21
348.749434
0
LINE
8
annotation
62
1
39
211
10
13.636166
20
348.749434
11
13.737390
21
348.851901
0
LINE
8
annotation
62
1
39
211
10
13.737390
20
348.851901
11
13.817721
21
348.968393
0
LINE
8
annotation
62
1
39
211
10
13.817721
20
348.968393
11
13.876330
21
349.095761
0
LINE
8
annotation
62
1
39
211
10
13.876330
20
349.095761
11
13.912389
21
349.230858
0
LINE
8
annotation
62
1
39
211
10
13.912389
20
349.230858
11
13.925066
21
349.370534
0
LINE
8
annotation
62
1
39
211
10
13.925066
20
349.370534
11
13.913532
21
349.511641
0
LINE
8
annotation
62
1
39
211
10
13.913532
20
349.511641
11
13.876957
21
349.651030
0
LINE
8
annotation
62
1
39
211
10
13.876957
20
349.651030
11
13.814513
21
349.785553
0
LINE
8
annotation
62
1
39
211
10
13.814513
20
349.785553
11
13.403835
21
350.496867
0
LINE
8
annotation
62
1
39
211
10
11.175218
20
349.328961
11
12.099909
21
347.727349
0
LINE
8
annotation
62
1
39
211
10
61.475893
20
360.195115
11
65.819701
21
365.371864
0
LINE
8
annotation
62
1
39
211
10
65.819701
20
365.371864
11
63.702887
21
365.186366
0
LINE
8
annotation
62
1
39
211
10
64.568031
20
357.600503
11
70.062697
21
361.811568
0
LINE
8
annotation
62
1
39
211
10
70.062697
20
361.811568
11
67.760657
21
363.743209
0
LINE
8
annotation
62
1
39
211
10
68.128332
20
359.506281
11
66.977475
21
360.471966
0
LINE
8
annotation
62
1
39
211
10
40.038261
20
371.630393
11
34.051276
21
371.630393
0
LINE
8
annotation
62
1
39
211
10
34.051276
20
371.630393
11
40.038261
21
382.412917
0
LINE
8
annotation
62
1
39
211
10
40.038261
20
382.412917
11
34.051276
21
382.412917
0
LINE
8
annotation
62
1
39
211
10
49.978421
20
377.021655
11
44.082721
21
377.021655
0
LINE
8
annotation
62
1
39
211
10
58.810443
20
371.630305
11
54.021667
21
371.630305
0
LINE
8
annotation
62
1
39
211
10
54.021667
20
371.630305
11
58.446653
21
378.753966
0
LINE
8
annotation
62
1
39
211
10
58.446653
20
378.753966
11
58.446653
21
378.753966
0
LINE
8
annotation
62
1
39
211
10
58.446653
20
378.753966
11
58.451943
21
378.760511
0
LINE
8
annotation
62
1
39
211
10
58.451943
20
378.760511
11
58.457016
21
378.767113
0
LINE
8
annotation
62
1
39
211
10
58.457016
20
378.767113
11
58.461905
21
378.773826
0
LINE
8
annotation
62
1
39
211
10
58.461905
20
378.773826
11
58.466644
21
378.780705
0
LINE
8
annotation
62
1
39
211
10
58.466644
20
378.780705
11
58.471266
21
378.787808
0
LINE
8
annotation
62
1
39
211
10
58.471266
20
378.787808
11
58.475804
21
378.795188
0
LINE
8
annotation
62
1
39
211
10
58.475804
20
378.795188
11
58.480293
21
378.802903
0
LINE
8
annotation
62
1
39
211
10
58.480293
20
378.802903
11
58.484765
21
378.811007
0
LINE
8
annotation
62
1
39
211
10
58.484765
20
378.811007
11
58.489253
21
378.819556
0
LINE
8
annotation
62
1
39
211
10
58.489253
20
378.819556
11
58.489253
21
378.819556
0
LINE
8
annotation
62
1
39
211
10
58.489253
20
378.819556
11
58.671960
21
379.211843
0
LINE
8
annotation
62
1
39
211
10
58.671960
20
379.211843
11
58.778694
21
379.618482
0
LINE
8
annotation
62
1
39
211
10
58.778694
20
379.618482
11
58.812071
21
380.030286
0
LINE
8
annotation
62
1
39
211
10
58.812071
20
380.030286
11
58.774707
21
380.438067
0
LINE
8
annotation
62
1
39
211
10
58.774707
20
380.438067
11
58.669218
21
380.832635
0
LINE
8
annotation
62
1
39
211
10
58.669218
20
380.832635
11
58.498219
21
381.204803
0
LINE
8
annotation
62
1
39
211
10
58.498219
20
381.204803
11
58.264326
21
381.545382
0
LINE
8
annotation
62
1
39
211
10
58.264326
20
381.545382
11
57.970154
21
381.845184
0
LINE
8
annotation
62
1
39
211
10
57.970154
20
381.845184
11
57.618320
21
382.095020
0
LINE
8
annotation
62
1
39
211
10
57.618320
20
382.095020
11
57.618320
21
382.095020
0
LINE
8
annotation
62
1
39
211
10
57.618320
20
382.095020
11
57.224943
21
382.275130
0
LINE
8
annotation
62
1
39
211
10
57.224943
20
382.275130
11
56.817680
21
382.380220
0
LINE
8
annotation
62
1
39
211
10
56.817680
20
382.380220
11
56.405637
21
382.412654
0
LINE
8
annotation
62
1
39
211
10
56.405637
20
382.412654
11
55.997917
21
382.374797
0
LINE
8
annotation
62
1
39
211
10
55.997917
20
382.374797
11
55.603627
21
382.269016
0
LINE
8
annotation
62
1
39
211
10
55.603627
20
382.269016
11
55.231871
21
382.097674
0
LINE
8
annotation
62
1
39
211
10
55.231871
20
382.097674
11
54.891754
21
381.863138
0
LINE
8
annotation
62
1
39
211
10
54.891754
20
381.863138
11
54.592381
21
381.567773
0
LINE
8
annotation
62
1
39
211
10
54.592381
20
381.567773
11
54.342857
21
381.213944
0
LINE
8
annotation
62
1
39
211
10
54.342857
20
381.213944
11
54.028429
21
380.610783
0
LINE
8
annotation
62
1
39
211
10
68.751417
20
377.021655
11
62.855718
21
377.021655
0
LINE
8
annotation
62
1
39
211
10
77.583439
20
371.630305
11
72.794663
21
371.630305
0
LINE
8
annotation
62
1
39
211
10
72.794663
20
371.630305
11
77.219649
21
378.753966
0
LINE
8
annotation
62
1
39
211
10
77.219649
20
378.753966
11
77.219649
21
378.753966
0
LINE
8
annotation
62
1
39
211
10
77.219649
20
378.753966
11
77.224939
21
378.760511
0
LINE
8
annotation
62
1
39
211
10
77.224939
20
378.760511
11
77.230012
21
378.767113
0
LINE
8
annotation
62
1
39
211
10
77.230012
20
378.767113
11
77.234901
21
378.773826
0
LINE
8
annotation
62
1
39
211
10
77.234901
20
378.773826
11
77.239640
21
378.780705
0
LINE
8
annotation
62
1
39
211
10
77.239640
20
378.780705
11
77.244262
21
378.787808
0
LINE
8
annotation
62
1
39
211
10
77.244262
20
378.787808
11
77.248801
21
378.795188
0
LINE
8
annotation
62
1
39
211
10
77.248801
20
378.795188
11
77.253289
21
378.802903
0
LINE
8
annotation
62
1
39
211
10
77.253289
20
378.802903
11
77.257761
21
378.811007
0
LINE
8
annotation
62
1
39
211
10
77.257761
20
378.811007
11
77.262249
21
378.819556
0
LINE
8
annotation
62
1
39
211
10
77.262249
20
378.819556
11
77.262249
21
378.819556
0
LINE
8
annotation
62
1
39
211
10
77.262249
20
378.819556
11
77.444956
21
379.211843
0
LINE
8
annotation
62
1
39
211
10
77.444956
20
379.211843
11
77.551690
21
379.618482
0
LINE
8
annotation
62
1
39
211
10
77.551690
20
379.618482
11
77.585067
21
380.030286
0
LINE
8
annotation
62
1
39
211
10
77.585067
20
380.030286
11
77.547703
21
380.438067
0
LINE
8
annotation
62
1
39
211
10
77.547703
20
380.438067
11
77.442214
21
380.832635
0
LINE
8
annotation
62
1
39
211
10
77.442214
20
380.832635
11
77.271215
21
381.204803
0
LINE
8
annotation
62
1
39
211
10
77.271215
20
381.204803
11
77.037322
21
381.545382
0
LINE
8
annotation
62
1
39
211
10
77.037322
20
381.545382
11
76.743151
21
381.845184
0
LINE
8
annotation
62
1
39
211
10
76.743151
20
381.845184
11
76.391317
21
382.095020
0
LINE
8
annotation
62
1
39
211
10
76.391317
20
382.095020
11
76.391317
21
382.095020
0
LINE
8
annotation
62
1
39
211
10
76.391317
20
382.095020
11
75.997939
21
382.275130
0
LINE
8
annotation
62
1
39
211
10
75.997939
20
382.275130
11
75.590676
21
382.380220
0
LINE
8
annotation
62
1
39
211
10
75.590676
20
382.380220
11
75.178633
21
382.412654
0
LINE
8
annotation
62
1
39
211
10
75.178633
20
382.412654
11
74.770914
21
382.374797
0
LINE
8
annotation
62
1
39
211
10
74.770914
20
382.374797
11
74.376623
21
382.269016
0
LINE
8
annotation
62
1
39
211
10
74.376623
20
382.269016
11
74.004867
21
382.097674
0
LINE
8
annotation
62
1
39
211
10
74.004867
20
382.097674
11
73.664750
21
381.863138
0
LINE
8
annotation
62
1
39
211
10
73.664750
20
381.863138
11
73.365377
21
381.567773
0
LINE
8
annotation
62
1
39
211
10
73.365377
20
381.567773
11
73.115853
21
381.213944
0
LINE
8
annotation
62
1
39
211
10
73.115853
20
381.213944
11
72.801425
21
380.610783
0
LINE
8
boundary
62
5
39
2
10
163.951132
20
282.189857
11
166.324290
21
283.796219
0
LINE
8
boundary
62
5
39
2
10
166.324290
20
283.796219
11
200.721513
21
307.079285
0
LINE
8
boundary
62
5
39
2
10
200.721513
20
307.079285
11
227.186931
21
324.993408
0
LINE
8
boundary
62
5
39
2
10
227.186931
20
324.993408
11
226.846687
21
329.457459
0
LINE
8
boundary
62
5
39
2
10
226.846687
20
329.457459
11
225.570845
21
336.693122
0
LINE
8
boundary
62
5
39
2
10
225.570845
20
336.693122
11
229.560301
21
337.396571
0
LINE
8
boundary
62
5
39
2
10
229.560301
20
337.396571
11
230.453219
21
332.332577
0
LINE
8
boundary
62
5
39
2
10
230.453219
20
332.332577
11
231.660290
21
328.021372
0
LINE
8
boundary
62
5
39
2
10
231.660290
20
328.021372
11
243.197681
21
335.830893
0
LINE
8
boundary
62
5
39
2
10
243.197681
20
335.830893
11
249.522023
21
340.111764
0
LINE
8
boundary
62
5
39
2
10
249.522023
20
340.111764
11
251.058237
21
341.151609
0
LINE
8
boundary
62
5
39
2
10
251.058237
20
341.151609
11
249.883509
21
341.985733
0
LINE
8
boundary
62
5
39
2
10
249.883509
20
341.985733
11
248.413815
21
343.051907
0
LINE
8
boundary
62
5
39
2
10
248.413815
20
343.051907
11
245.414499
21
344.225557
0
LINE
8
boundary
62
5
39
2
10
245.414499
20
344.225557
11
236.910878
21
347.045471
0
LINE
8
boundary
62
5
39
2
10
236.910878
20
347.045471
11
230.463455
21
349.023270
0
LINE
8
boundary
62
5
39
2
10
230.463455
20
349.023270
11
219.491062
21
348.147850
0
LINE
8
boundary
62
5
39
2
10
219.491062
20
348.147850
11
211.237867
21
346.622134
0
LINE
8
boundary
62
5
39
2
10
211.237867
20
346.622134
11
193.692696
21
342.987660
0
LINE
8
boundary
62
5
39
2
10
193.692696
20
342.987660
11
192.065179
21
342.762728
0
LINE
8
boundary
62
5
39
2
10
192.065179
20
342.762728
11
189.429247
21
341.060034
0
LINE
8
boundary
62
5
39
2
10
189.429247
20
341.060034
11
175.290050
21
331.694932
0
LINE
8
boundary
62
5
39
2
10
175.290050
20
331.694932
11
169.396549
21
323.364005
0
LINE
8
boundary
62
5
39
2
10
169.396549
20
323.364005
11
163.290451
21
314.993248
0
LINE
8
boundary
62
5
39
2
10
163.290451
20
314.993248
11
161.547661
21
304.911976
0
LINE
8
boundary
62
5
39
2
10
161.547661
20
304.911976
11
162.899702
21
304.673575
0
LINE
8
boundary
62
5
39
2
10
162.899702
20
304.673575
11
160.985293
21
293.816419
0
LINE
8
boundary
62
5
39
2
10
160.985293
20
293.816419
11
160.645050
21
289.352368
0
LINE
8
boundary
62
5
39
2
10
160.645050
20
289.352368
11
161.180783
21
287.208404
0
LINE
8
boundary
62
5
39
2
10
161.180783
20
287.208404
11
162.547101
21
281.239485
0
LINE
8
boundary
62
5
39
2
10
162.547101
20
281.239485
11
163.951132
21
282.189857
0
LINE
8
annotation
62
1
39
211
10
162.363744
20
308.023841
11
164.027053
21
307.730555
0
LINE
8
annotation
62
1
39
211
10
164.027053
20
307.730555
11
163.722375
21
308.165550
0
LINE
8
annotation
62
1
39
211
10
162.460699
20
306.411401
11
162.623545
21
307.334951
0
LINE
8
annotation
62
1
39
211
10
162.623545
20
307.334951
11
163.852044
21
306.738030
0
LINE
8
annotation
62
1
39
211
10
162.139737
20
306.753438
11
162.878453
21
306.623182
0
LINE
8
annotation
62
1
39
211
10
223.310417
20
345.384675
11
228.711722
21
346.337070
0
LINE
8
annotation
62
1
39
211
10
228.711722
20
346.337070
11
227.298874
21
347.326060
0
LINE
8
annotation
62
1
39
211
10
223.667535
20
343.359355
11
223.879026
21
342.159930
0
LINE
8
annotation
62
1
39
211
10
223.879026
20
342.159930
11
223.879026
21
342.159930
0
LINE
8
annotation
62
1
39
211
10
223.879026
20
342.159930
11
223.936340
21
341.948070
0
LINE
8
annotation
62
1
39
211
10
223.936340
20
341.948070
11
224.027892
21
341.755162
0
LINE
8
annotation
62
1
39
211
10
224.027892
20
341.755162
11
224.149679
21
341.584024
0
LINE
8
annotation
62
1
39
211
10
224.149679
20
341.584024
11
224.297701
21
341.437477
0
LINE
8
annotation
62
1
39
211
10
224.297701
20
341.437477
11
224.467956
21
341.318337
0
LINE
8
annotation
62
1
39
211
10
224.467956
20
341.318337
11
224.656445
21
341.229425
0
LINE
8
annotation
62
1
39
211
10
224.656445
20
341.229425
11
224.859165
21
341.173558
0
LINE
8
annotation
62
1
39
211
10
224.859165
20
341.173558
11
225.072116
21
341.153555
0
LINE
8
annotation
62
1
39
211
10
225.072116
20
341.153555
11
225.291296
21
341.172236
0
LINE
8
annotation
62
1
39
211
10
225.291296
20
341.172236
11
225.888807
21
341.277593
0
LINE
8
annotation
62
1
39
211
10
225.888807
20
341.277593
11
225.888807
21
341.277593
0
LINE
8
annotation
62
1
39
211
10
225.888807
20
341.277593
11
226.101056
21
341.334973
0
LINE
8
annotation
62
1
39
211
10
226.101056
20
341.334973
11
226.294047
21
341.426526
0
LINE
8
annotation
62
1
39
211
10
226.294047
20
341.426526
11
226.465035
21
341.548250
0
LINE
8
annotation
62
1
39
211
10
226.465035
20
341.548250
11
226.611272
21
341.696147
0
LINE
8
annotation
62
1
39
211
10
226.611272
20
341.696147
11
226.730011
21
341.866215
0
LINE
8
annotation
62
1
39
211
10
226.730011
20
341.866215
11
226.818505
21
342.054455
0
LINE
8
annotation
62
1
39
211
10
226.818505
20
342.054455
11
226.874007
21
342.256868
0
LINE
8
annotation
62
1
39
211
10
226.874007
20
342.256868
11
226.893770
21
342.469452
0
LINE
8
annotation
62
1
39
211
10
226.893770
20
342.469452
11
226.875047
21
342.688209
0
LINE
8
annotation
62
1
39
211
10
226.875047
20
342.688209
11
226.663556
21
343.887634
0
LINE
8
annotation
62
1
39
211
10
226.663556
20
343.887634
11
229.068840
21
344.311750
0
LINE
8
annotation
62
1
39
211
10
229.068840
20
344.311750
11
229.491822
21
341.912902
0
LINE
8
annotation
62
1
39
211
10
187.707932
20
317.337913
11
182.223205
21
317.337913
0
LINE
8
annotation
62
1
39
211
10
182.223205
20
317.337913
11
187.707932
21
327.215872
0
LINE
8
annotation
62
1
39
211
10
187.707932
20
327.215872
11
182.223205
21
327.215872
0
LINE
8
annotation
62
1
39
211
10
196.814195
20
322.276892
11
191.413096
21
322.276892
0
LINE
8
annotation
62
1
39
211
10
202.713807
20
317.337913
11
202.713807
21
327.215872
0
LINE
8
annotation
62
1
39
211
10
202.713807
20
327.215872
11
200.517810
21
325.019256
0
LINE
8
frame
62
5
39
2
10
0.000000
20
0.000000
11
480.000000
21
0.000000
0
LINE
8
frame
62
5
39
2
10
480.000000
20
0.000000
11
480.000000
21
420.000000
0
LINE
8
frame
62
5
39
2
10
480.000000
20
420.000000
11
0.000000
21
420.000000
0
LINE
8
frame
62
5
39
2
10
0.000000
20
420.000000
11
0.000000
21
0.000000
0
ENDSEC
0
EOF
