0
SECTION
2
HEADER
9
$ACADVER
1
AC1009
0
ENDSEC
0
SECTION
2
TABLES
0
TABLE
2
VPORT
70
1
0
VPORT
2
ACTIVE
70
0
10
0.0
20
0.0
11
0.0
21
0.0
12
0.0
22
0.0
13
0.0
23
0.0
14
0.0
24
0.0
15
0.0
25
0.0
16
0.0
26
0.0
36
0.0
17
0.0
27
0.0
37
0.0
40
0.0
41
0.0
42
0.0
43
0.0
44
0.0
50
0.0
51
0.0
71
0
72
1000
73
1
74
3
75
0
76
0
77
0
78
0
0
ENDTAB
0
ENDSEC
0
SECTION
2
ENTITIES
0
LINE
8
boundary
62
5
39
2
10
162.547656
20
14.090176
11
163.895823
21
13.618079
0
LINE
8
boundary
62
5
39
2
10
163.895823
20
13.618079
11
171.887908
21
10.236082
0
LINE
8
boundary
62
5
39
2
10
171.887908
20
10.236082
11
180.658513
21
7.163515
0
LINE
8
boundary
62
5
39
2
10
180.658513
20
7.163515
11
182.126375
21
7.197939
0
LINE
8
boundary
62
5
39
2
10
182.126375
20
7.197939
11
183.333446
21
11.509145
0
LINE
8
boundary
62
5
39
2
10
183.333446
20
11.509145
11
190.193995
21
50.417248
0
LINE
8
boundary
62
5
39
2
10
190.193995
20
50.417248
11
194.183451
21
49.713799
0
LINE
8
boundary
62
5
39
2
10
194.183451
20
49.713799
11
187.500928
21
11.815331
0
LINE
8
boundary
62
5
39
2
10
187.500928
20
11.815331
11
187.160685
21
7.351280
0
LINE
8
boundary
62
5
39
2
10
187.160685
20
7.351280
11
196.836908
21
7.699987
0
LINE
8
boundary
62
5
39
2
10
196.836908
20
7.699987
11
206.601346
21
6.980314
0
LINE
8
boundary
62
5
39
2
10
206.601346
20
6.980314
11
213.269775
21
6.687500
0
LINE
8
boundary
62
5
39
2
10
213.269775
20
6.687500
11
216.928542
21
7.247273
0
LINE
8
boundary
62
5
39
2
10
216.928542
20
7.247273
11
216.588298
21
11.711324
0
LINE
8
boundary
62
5
39
2
10
216.588298
20
11.711324
11
209.824117
21
50.072899
0
LINE
8
boundary
62
5
39
2
10
209.824117
20
50.072899
11
213.813574
21
50.776347
0
LINE
8
boundary
62
5
39
2
10
213.813574
20
50.776347
11
220.597208
21
12.304443
0
LINE
8
boundary
62
5
39
2
10
220.597208
20
12.304443
11
221.804280
21
7.993237
0
LINE
8
boundary
62
5
39
2
10
221.804280
20
7.993237
11
226.116780
21
8.653029
0
LINE
8
boundary
62
5
39
2
10
226.116780
20
8.653029
11
227.344582
21
8.797946
0
LINE
8
boundary
62
5
39
2
10
227.344582
20
8.797946
11
239.870011
21
14.996289
0
LINE
8
boundary
62
5
39
2
10
239.870011
20
14.996289
11
240.274885
21
15.367469
0
LINE
8
boundary
62
5
39
2
10
240.274885
20
15.367469
11
241.311588
21
16.048922
0
LINE
8
boundary
62
5
39
2
10
241.311588
20
16.048922
11
248.288931
21
20.864462
0
LINE
8
boundary
62
5
39
2
10
248.288931
20
20.864462
11
246.442412
21
24.942927
0
LINE
8
boundary
62
5
39
2
10
246.442412
20
24.942927
11
227.699463
21
57.406667
0
LINE
8
boundary
62
5
39
2
10
227.699463
20
57.406667
11
231.207732
21
59.432168
0
LINE
8
boundary
62
5
39
2
10
231.207732
20
59.432168
11
250.011238
21
26.863541
0
LINE
8
boundary
62
5
39
2
10
250.011238
20
26.863541
11
252.620032
21
23.225176
0
LINE
8
boundary
62
5
39
2
10
252.620032
20
23.225176
11
261.055451
21
26.769427
0
LINE
8
boundary
62
5
39
2
10
261.055451
20
26.769427
11
272.339833
21
33.508224
0
LINE
8
boundary
62
5
39
2
10
272.339833
20
33.508224
11
272.846180
21
33.843140
0
LINE
8
boundary
62
5
39
2
10
272.846180
20
33.843140
11
273.518064
21
34.618502
0
LINE
8
boundary
62
5
39
2
10
273.518064
20
34.618502
11
277.546932
21
39.328779
0
LINE
8
boundary
62
5
39
2
10
277.546932
20
39.328779
11
274.416854
21
42.529736
0
LINE
8
boundary
62
5
39
2
10
274.416854
20
42.529736
11
244.211953
21
67.874657
0
LINE
8
boundary
62
5
39
2
10
244.211953
20
67.874657
11
246.815886
21
70.977903
0
LINE
8
boundary
62
5
39
2
10
246.815886
20
70.977903
11
277.056493
21
45.603020
0
LINE
8
boundary
62
5
39
2
10
277.056493
20
45.603020
11
280.752353
21
43.076336
0
LINE
8
boundary
62
5
39
2
10
280.752353
20
43.076336
11
281.924173
21
44.446348
0
LINE
8
boundary
62
5
39
2
10
281.924173
20
44.446348
11
285.973755
21
51.755917
0
LINE
8
boundary
62
5
39
2
10
285.973755
20
51.755917
11
289.456316
21
58.715145
0
LINE
8
boundary
62
5
39
2
10
289.456316
20
58.715145
11
296.122410
21
69.040361
0
LINE
8
boundary
62
5
39
2
10
296.122410
20
69.040361
11
292.086307
21
70.977727
0
LINE
8
boundary
62
5
39
2
10
292.086307
20
70.977727
11
255.076052
21
84.448358
0
LINE
8
boundary
62
5
39
2
10
255.076052
20
84.448358
11
256.461576
21
88.255053
0
LINE
8
boundary
62
5
39
2
10
256.461576
20
88.255053
11
293.714354
21
74.696150
0
LINE
8
boundary
62
5
39
2
10
293.714354
20
74.696150
11
298.051503
21
73.585902
0
LINE
8
boundary
62
5
39
2
10
298.051503
20
73.585902
11
299.309550
21
81.940020
0
LINE
8
boundary
62
5
39
2
10
299.309550
20
81.940020
11
299.990161
21
90.890586
0
LINE
8
boundary
62
5
39
2
10
299.990161
20
90.890586
11
299.320335
21
94.628468
0
LINE
8
boundary
62
5
39
2
10
299.320335
20
94.628468
11
297.963014
21
103.443453
0
LINE
8
boundary
62
5
39
2
10
297.963014
20
103.443453
11
293.507700
21
103.883553
0
LINE
8
boundary
62
5
39
2
10
293.507700
20
103.883553
11
256.380173
21
103.883553
0
LINE
8
boundary
62
5
39
2
10
256.380173
20
103.883553
11
256.380173
21
107.934553
0
LINE
8
boundary
62
5
39
2
10
256.380173
20
107.934553
11
292.748399
21
107.934553
0
LINE
8
boundary
62
5
39
2
10
292.748399
20
107.934553
11
297.203713
21
108.374653
0
LINE
8
boundary
62
5
39
2
10
297.203713
20
108.374653
11
296.631289
21
112.092203
0
LINE
8
boundary
62
5
39
2
10
296.631289
20
112.092203
11
295.686435
21
115.537982
0
LINE
8
boundary
62
5
39
2
10
295.686435
20
115.537982
11
290.676705
21
132.073125
0
LINE
8
boundary
62
5
39
2
10
290.676705
20
132.073125
11
289.409680
21
135.086838
0
LINE
8
boundary
62
5
39
2
10
289.409680
20
135.086838
11
285.072531
21
133.976589
0
LINE
8
boundary
62
5
39
2
10
285.072531
20
133.976589
11
252.011524
21
121.943367
0
LINE
8
boundary
62
5
39
2
10
252.011524
20
121.943367
11
250.626000
21
125.750061
0
LINE
8
boundary
62
5
39
2
10
250.626000
20
125.750061
11
283.622445
21
137.759785
0
LINE
8
boundary
62
5
39
2
10
283.622445
20
137.759785
11
287.658548
21
139.697151
0
LINE
8
boundary
62
5
39
2
10
287.658548
20
139.697151
11
282.743635
21
153.154791
0
LINE
8
boundary
62
5
39
2
10
282.743635
20
153.154791
11
280.844029
21
156.618978
0
LINE
8
boundary
62
5
39
2
10
280.844029
20
156.618978
11
277.589395
21
166.087734
0
LINE
8
boundary
62
5
39
2
10
277.589395
20
166.087734
11
273.893536
21
163.561049
0
LINE
8
boundary
62
5
39
2
10
273.893536
20
163.561049
11
245.599099
21
139.819198
0
LINE
8
boundary
62
5
39
2
10
245.599099
20
139.819198
11
242.995167
21
142.922444
0
LINE
8
boundary
62
5
39
2
10
242.995167
20
142.922444
11
272.720792
21
167.865205
0
LINE
8
boundary
62
5
39
2
10
272.720792
20
167.865205
11
275.850869
21
171.066162
0
LINE
8
boundary
62
5
39
2
10
275.850869
20
171.066162
11
274.296188
21
175.334624
0
LINE
8
boundary
62
5
39
2
10
274.296188
20
175.334624
11
273.725732
21
177.214309
0
LINE
8
boundary
62
5
39
2
10
273.725732
20
177.214309
11
266.074620
21
195.437124
0
LINE
8
boundary
62
5
39
2
10
266.074620
20
195.437124
11
265.191200
21
197.945512
0
LINE
8
boundary
62
5
39
2
10
265.191200
20
197.945512
11
261.889927
21
204.648859
0
LINE
8
boundary
62
5
39
2
10
261.889927
20
204.648859
11
259.281132
21
201.010493
0
LINE
8
boundary
62
5
39
2
10
259.281132
20
201.010493
11
236.427253
21
161.426414
0
LINE
8
boundary
62
5
39
2
10
236.427253
20
161.426414
11
232.918984
21
163.451913
0
LINE
8
boundary
62
5
39
2
10
232.918984
20
163.451913
11
257.422231
21
205.892782
0
LINE
8
boundary
62
5
39
2
10
257.422231
20
205.892782
11
259.268750
21
209.971247
0
LINE
8
boundary
62
5
39
2
10
259.268750
20
209.971247
11
255.106171
21
218.423504
0
LINE
8
boundary
62
5
39
2
10
255.106171
20
218.423504
11
254.386992
21
220.202875
0
LINE
8
boundary
62
5
39
2
10
254.386992
20
220.202875
11
250.905419
21
226.251007
0
LINE
8
boundary
62
5
39
2
10
250.905419
20
226.251007
11
244.366268
21
237.384943
0
LINE
8
boundary
62
5
39
2
10
244.366268
20
237.384943
11
242.177962
21
239.804157
0
LINE
8
boundary
62
5
39
2
10
242.177962
20
239.804157
11
230.468415
21
250.255125
0
LINE
8
boundary
62
5
39
2
10
230.468415
20
250.255125
11
228.828767
21
246.197148
0
LINE
8
boundary
62
5
39
2
10
228.828767
20
246.197148
11
218.074807
21
185.208413
0
LINE
8
boundary
62
5
39
2
10
218.074807
20
185.208413
11
214.085351
21
185.911862
0
LINE
8
boundary
62
5
39
2
10
214.085351
20
185.911862
11
225.156820
21
248.701281
0
LINE
8
boundary
62
5
39
2
10
225.156820
20
248.701281
11
225.497063
21
253.165332
0
LINE
8
boundary
62
5
39
2
10
225.497063
20
253.165332
11
220.827074
21
255.899122
0
LINE
8
boundary
62
5
39
2
10
220.827074
20
255.899122
11
218.067861
21
257.547242
0
LINE
8
boundary
62
5
39
2
10
218.067861
20
257.547242
11
212.332050
21
259.355531
0
LINE
8
boundary
62
5
39
2
10
212.332050
20
259.355531
11
197.787458
21
263.529109
0
LINE
8
boundary
62
5
39
2
10
197.787458
20
263.529109
11
185.089085
21
264.188799
0
LINE
8
boundary
62
5
39
2
10
185.089085
20
264.188799
11
180.709431
21
264.238651
0
LINE
8
boundary
62
5
39
2
10
180.709431
20
264.238651
11
174.538788
21
262.742303
0
LINE
8
boundary
62
5
39
2
10
174.538788
20
262.742303
11
169.477693
21
261.176437
0
LINE
8
boundary
62
5
39
2
10
169.477693
20
261.176437
11
170.030417
21
256.733689
0
LINE
8
boundary
62
5
39
2
10
170.030417
20
256.733689
11
185.099999
21
190.044784
0
LINE
8
boundary
62
5
39
2
10
185.099999
20
190.044784
11
181.148626
21
189.151898
0
LINE
8
boundary
62
5
39
2
10
181.148626
20
189.151898
11
166.168480
21
255.445008
0
LINE
8
boundary
62
5
39
2
10
166.168480
20
255.445008
11
164.757203
21
259.693750
0
LINE
8
boundary
62
5
39
2
10
164.757203
20
259.693750
11
158.538724
21
257.344645
0
LINE
8
boundary
62
5
39
2
10
158.538724
20
257.344645
11
149.802568
21
253.609187
0
LINE
8
boundary
62
5
39
2
10
149.802568
20
253.609187
11
139.157040
21
248.807351
0
LINE
8
boundary
62
5
39
2
10
139.157040
20
248.807351
11
135.688093
21
247.249961
0
LINE
8
boundary
62
5
39
2
10
135.688093
20
247.249961
11
122.917027
21
243.479935
0
LINE
8
boundary
62
5
39
2
10
122.917027
20
243.479935
11
118.868253
21
242.202514
0
LINE
8
boundary
62
5
39
2
10
118.868253
20
242.202514
11
118.344783
21
242.089500
0
LINE
8
boundary
62
5
39
2
10
118.344783
20
242.089500
11
120.364443
21
238.093941
0
LINE
8
boundary
62
5
39
2
10
120.364443
20
238.093941
11
156.069815
21
181.954672
0
LINE
8
boundary
62
5
39
2
10
156.069815
20
181.954672
11
152.651601
21
179.780640
0
LINE
8
boundary
62
5
39
2
10
152.651601
20
179.780640
11
115.968651
21
237.456947
0
LINE
8
boundary
62
5
39
2
10
115.968651
20
237.456947
11
113.206283
21
240.980133
0
LINE
8
boundary
62
5
39
2
10
113.206283
20
240.980133
11
106.739875
21
239.584079
0
LINE
8
boundary
62
5
39
2
10
106.739875
20
239.584079
11
100.813972
21
238.485864
0
LINE
8
boundary
62
5
39
2
10
100.813972
20
238.485864
11
93.842200
21
237.753626
0
LINE
8
boundary
62
5
39
2
10
93.842200
20
237.753626
11
82.665389
21
237.654135
0
LINE
8
boundary
62
5
39
2
10
82.665389
20
237.654135
11
81.893491
21
237.630819
0
LINE
8
boundary
62
5
39
2
10
81.893491
20
237.630819
11
80.393230
21
237.772840
0
LINE
8
boundary
62
5
39
2
10
80.393230
20
237.772840
11
69.657031
21
238.022693
0
LINE
8
boundary
62
5
39
2
10
69.657031
20
238.022693
11
63.943321
21
238.259059
0
LINE
8
boundary
62
5
39
2
10
63.943321
20
238.259059
11
57.543637
21
238.059074
0
LINE
8
boundary
62
5
39
2
10
57.543637
20
238.059074
11
60.575993
21
234.765394
0
LINE
8
boundary
62
5
39
2
10
60.575993
20
234.765394
11
122.587101
21
179.468728
0
LINE
8
boundary
62
5
39
2
10
122.587101
20
179.468728
11
119.890981
21
176.445230
0
LINE
8
boundary
62
5
39
2
10
119.890981
20
176.445230
11
54.171685
21
235.048568
0
LINE
8
boundary
62
5
39
2
10
54.171685
20
235.048568
11
50.553518
21
237.685304
0
LINE
8
boundary
62
5
39
2
10
50.553518
20
237.685304
11
46.293099
21
237.456964
0
LINE
8
boundary
62
5
39
2
10
46.293099
20
237.456964
11
44.965016
21
237.320328
0
LINE
8
boundary
62
5
39
2
10
44.965016
20
237.320328
11
44.276068
21
237.239102
0
LINE
8
boundary
62
5
39
2
10
44.276068
20
237.239102
11
31.647647
21
230.981820
0
LINE
8
boundary
62
5
39
2
10
31.647647
20
230.981820
11
27.404369
21
228.857636
0
LINE
8
boundary
62
5
39
2
10
27.404369
20
228.857636
11
18.879477
21
218.581982
0
LINE
8
boundary
62
5
39
2
10
18.879477
20
218.581982
11
14.748416
21
213.941967
0
LINE
8
boundary
62
5
39
2
10
14.748416
20
213.941967
11
9.797778
21
200.386731
0
LINE
8
boundary
62
5
39
2
10
9.797778
20
200.386731
11
6.687500
21
196.964708
0
LINE
8
boundary
62
5
39
2
10
6.687500
20
196.964708
11
8.714213
21
182.130011
0
LINE
8
boundary
62
5
39
2
10
8.714213
20
182.130011
11
10.173680
21
178.729546
0
LINE
8
boundary
62
5
39
2
10
10.173680
20
178.729546
11
10.505495
21
178.244090
0
LINE
8
boundary
62
5
39
2
10
10.505495
20
178.244090
11
14.541597
21
176.306725
0
LINE
8
boundary
62
5
39
2
10
14.541597
20
176.306725
11
100.801949
21
144.910524
0
LINE
8
boundary
62
5
39
2
10
100.801949
20
144.910524
11
99.416426
21
141.103829
0
LINE
8
boundary
62
5
39
2
10
99.416426
20
141.103829
11
19.617327
21
170.148325
0
LINE
8
boundary
62
5
39
2
10
19.617327
20
170.148325
11
15.280179
21
171.258574
0
LINE
8
boundary
62
5
39
2
10
15.280179
20
171.258574
11
17.469395
21
168.055680
0
LINE
8
boundary
62
5
39
2
10
17.469395
20
168.055680
11
18.209626
21
168.139502
0
LINE
8
boundary
62
5
39
2
10
18.209626
20
168.139502
11
19.054105
21
166.951650
0
LINE
8
boundary
62
5
39
2
10
19.054105
20
166.951650
11
23.103557
21
156.163152
0
LINE
8
boundary
62
5
39
2
10
23.103557
20
156.163152
11
26.827210
21
146.925806
0
LINE
8
boundary
62
5
39
2
10
26.827210
20
146.925806
11
28.076830
21
142.962947
0
LINE
8
boundary
62
5
39
2
10
28.076830
20
142.962947
11
32.272679
21
134.929726
0
LINE
8
boundary
62
5
39
2
10
32.272679
20
134.929726
11
34.719302
21
130.421998
0
LINE
8
boundary
62
5
39
2
10
34.719302
20
130.421998
11
42.340614
21
117.200425
0
LINE
8
boundary
62
5
39
2
10
42.340614
20
117.200425
11
43.935562
21
114.976901
0
LINE
8
boundary
62
5
39
2
10
43.935562
20
114.976901
11
45.326968
21
113.451625
0
LINE
8
boundary
62
5
39
2
10
45.326968
20
113.451625
11
49.628259
21
108.374653
0
LINE
8
boundary
62
5
39
2
10
49.628259
20
108.374653
11
54.083573
21
107.934553
0
LINE
8
boundary
62
5
39
2
10
54.083573
20
107.934553
11
120.241910
21
107.934553
0
LINE
8
boundary
62
5
39
2
10
120.241910
20
107.934553
11
120.241910
21
103.883553
0
LINE
8
boundary
62
5
39
2
10
120.241910
20
103.883553
11
58.261364
21
103.883553
0
LINE
8
boundary
62
5
39
2
10
58.261364
20
103.883553
11
53.806049
21
103.443453
0
LINE
8
boundary
62
5
39
2
10
53.806049
20
103.443453
11
55.009187
21
102.023345
0
LINE
8
boundary
62
5
39
2
10
55.009187
20
102.023345
11
65.729001
21
91.196773
0
LINE
8
boundary
62
5
39
2
10
65.729001
20
91.196773
11
68.389403
21
88.478989
0
LINE
8
boundary
62
5
39
2
10
68.389403
20
88.478989
11
71.068397
21
85.655189
0
LINE
8
boundary
62
5
39
2
10
71.068397
20
85.655189
11
85.034135
21
72.594500
0
LINE
8
boundary
62
5
39
2
10
85.034135
20
72.594500
11
90.496237
21
67.935938
0
LINE
8
boundary
62
5
39
2
10
90.496237
20
67.935938
11
94.833386
21
69.046187
0
LINE
8
boundary
62
5
39
2
10
94.833386
20
69.046187
11
140.522486
21
85.675659
0
LINE
8
boundary
62
5
39
2
10
140.522486
20
85.675659
11
141.908009
21
81.868965
0
LINE
8
boundary
62
5
39
2
10
141.908009
20
81.868965
11
98.844816
21
66.195244
0
LINE
8
boundary
62
5
39
2
10
98.844816
20
66.195244
11
94.808713
21
64.257878
0
LINE
8
boundary
62
5
39
2
10
94.808713
20
64.257878
11
96.568214
21
62.757221
0
LINE
8
boundary
62
5
39
2
10
96.568214
20
62.757221
11
100.197804
21
59.591336
0
LINE
8
boundary
62
5
39
2
10
100.197804
20
59.591336
11
103.057744
21
57.011588
0
LINE
8
boundary
62
5
39
2
10
103.057744
20
57.011588
11
116.873470
21
46.873186
0
LINE
8
boundary
62
5
39
2
10
116.873470
20
46.873186
11
122.456577
21
42.353067
0
LINE
8
boundary
62
5
39
2
10
122.456577
20
42.353067
11
126.152436
21
44.879752
0
LINE
8
boundary
62
5
39
2
10
126.152436
20
44.879752
11
156.922528
21
70.698925
0
LINE
8
boundary
62
5
39
2
10
156.922528
20
70.698925
11
159.526461
21
67.595679
0
LINE
8
boundary
62
5
39
2
10
159.526461
20
67.595679
11
129.571624
21
42.460586
0
LINE
8
boundary
62
5
39
2
10
129.571624
20
42.460586
11
126.441546
21
39.259629
0
LINE
8
boundary
62
5
39
2
10
126.441546
20
39.259629
11
132.669146
21
34.661032
0
LINE
8
boundary
62
5
39
2
10
132.669146
20
34.661032
11
142.612314
21
26.920582
0
LINE
8
boundary
62
5
39
2
10
142.612314
20
26.920582
11
148.052665
21
23.120589
0
LINE
8
boundary
62
5
39
2
10
148.052665
20
23.120589
11
150.473053
21
21.531572
0
LINE
8
boundary
62
5
39
2
10
150.473053
20
21.531572
11
153.081848
21
25.169937
0
LINE
8
boundary
62
5
39
2
10
153.081848
20
25.169937
11
172.295883
21
58.449623
0
LINE
8
boundary
62
5
39
2
10
172.295883
20
58.449623
11
175.804152
21
56.424124
0
LINE
8
boundary
62
5
39
2
10
175.804152
20
56.424124
11
156.448579
21
22.899287
0
LINE
8
boundary
62
5
39
2
10
156.448579
20
22.899287
11
154.602060
21
18.820822
0
LINE
8
boundary
62
5
39
2
10
154.602060
20
18.820822
11
161.333672
21
14.401428
0
LINE
8
boundary
62
5
39
2
10
161.333672
20
14.401428
11
162.547656
21
14.090176
0
LINE
8
annotation
62
1
39
211
10
248.185230
20
102.388253
11
248.185230
21
109.429853
0
LINE
8
annotation
62
1
39
211
10
248.185230
20
109.429853
11
246.619792
21
107.863974
0
LINE
8
annotation
62
1
39
211
10
245.555886
20
118.002381
11
242.617145
21
116.932766
0
LINE
8
annotation
62
1
39
211
10
242.617145
20
116.932766
11
243.741508
21
122.292720
0
LINE
8
annotation
62
1
39
211
10
243.741508
20
122.292720
11
243.741508
21
122.292720
0
LINE
8
annotation
62
1
39
211
10
243.741508
20
122.292720
11
243.743292
21
122.297919
0
LINE
8
annotation
62
1
39
211
10
243.743292
20
122.297919
11
243.744931
21
122.303103
0
LINE
8
annotation
62
1
39
211
10
243.744931
20
122.303103
11
243.746432
21
122.308314
0
LINE
8
annotation
62
1
39
211
10
243.746432
20
122.308314
11
243.747803
21
122.313595
0
LINE
8
annotation
62
1
39
211
10
243.747803
20
122.313595
11
243.749053
21
122.318986
0
LINE
8
annotation
62
1
39
211
10
243.749053
20
122.318986
11
243.750190
21
122.324529
0
LINE
8
annotation
62
1
39
211
10
243.750190
20
122.324529
11
243.751221
21
122.330265
0
LINE
8
annotation
62
1
39
211
10
243.751221
20
122.330265
11
243.752155
21
122.336237
0
LINE
8
annotation
62
1
39
211
10
243.752155
20
122.336237
11
243.753000
21
122.342486
0
LINE
8
annotation
62
1
39
211
10
243.753000
20
122.342486
11
243.753000
21
122.342486
0
LINE
8
annotation
62
1
39
211
10
243.753000
20
122.342486
11
243.777502
21
122.624031
0
LINE
8
annotation
62
1
39
211
10
243.777502
20
122.624031
11
243.752175
21
122.897415
0
LINE
8
annotation
62
1
39
211
10
243.752175
20
122.897415
11
243.680678
21
123.157583
0
LINE
8
annotation
62
1
39
211
10
243.680678
20
123.157583
11
243.566667
21
123.399481
0
LINE
8
annotation
62
1
39
211
10
243.566667
20
123.399481
11
243.413801
21
123.618055
0
LINE
8
annotation
62
1
39
211
10
243.413801
20
123.618055
11
243.225737
21
123.808250
0
LINE
8
annotation
62
1
39
211
10
243.225737
20
123.808250
11
243.006132
21
123.965012
0
LINE
8
annotation
62
1
39
211
10
243.006132
20
123.965012
11
242.758644
21
124.083286
0
LINE
8
annotation
62
1
39
211
10
242.758644
20
124.083286
11
242.486930
21
124.158019
0
LINE
8
annotation
62
1
39
211
10
242.486930
20
124.158019
11
242.486930
21
124.158019
0
LINE
8
annotation
62
1
39
211
10
242.486930
20
124.158019
11
242.205296
21
124.180683
0
LINE
8
annotation
62
1
39
211
10
242.205296
20
124.180683
11
241.931897
21
124.154208
0
LINE
8
annotation
62
1
39
211
10
241.931897
20
124.154208
11
241.671793
21
124.082079
0
LINE
8
annotation
62
1
39
211
10
241.671793
20
124.082079
11
241.430042
21
123.967779
0
LINE
8
annotation
62
1
39
211
10
241.430042
20
123.967779
11
241.211704
21
123.814796
0
LINE
8
annotation
62
1
39
211
10
241.211704
20
123.814796
11
241.021838
21
123.626614
0
LINE
8
annotation
62
1
39
211
10
241.021838
20
123.626614
11
240.865503
21
123.406718
0
LINE
8
annotation
62
1
39
211
10
240.865503
20
123.406718
11
240.747759
21
123.158593
0
LINE
8
annotation
62
1
39
211
10
240.747759
20
123.158593
11
240.673663
21
122.885724
0
LINE
8
annotation
62
1
39
211
10
240.673663
20
122.885724
11
240.615428
21
122.445350
0
LINE
8
annotation
62
1
39
211
10
238.484818
20
131.897920
11
239.682660
21
132.903029
0
LINE
8
annotation
62
1
39
211
10
239.682660
20
132.903029
11
239.682660
21
132.903029
0
LINE
8
annotation
62
1
39
211
10
239.682660
20
132.903029
11
239.881879
21
133.103126
0
LINE
8
annotation
62
1
39
211
10
239.881879
20
133.103126
11
240.037859
21
133.328924
0
LINE
8
annotation
62
1
39
211
10
240.037859
20
133.328924
11
240.150098
21
133.574174
0
LINE
8
annotation
62
1
39
211
10
240.150098
20
133.574174
11
240.218093
21
133.832629
0
LINE
8
annotation
62
1
39
211
10
240.218093
20
133.832629
11
240.241341
21
134.098041
0
LINE
8
annotation
62
1
39
211
10
240.241341
20
134.098041
11
240.219340
21
134.364160
0
LINE
8
annotation
62
1
39
211
10
240.219340
20
134.364160
11
240.151587
21
134.624740
0
LINE
8
annotation
62
1
39
211
10
240.151587
20
134.624740
11
240.037579
21
134.873532
0
LINE
8
annotation
62
1
39
211
10
240.037579
20
134.873532
11
239.876813
21
135.104288
0
LINE
8
annotation
62
1
39
211
10
239.876813
20
135.104288
11
239.373549
21
135.704054
0
LINE
8
annotation
62
1
39
211
10
239.373549
20
135.704054
11
239.373549
21
135.704054
0
LINE
8
annotation
62
1
39
211
10
239.373549
20
135.704054
11
239.174290
21
135.902359
0
LINE
8
annotation
62
1
39
211
10
239.174290
20
135.902359
11
238.949115
21
136.057790
0
LINE
8
annotation
62
1
39
211
10
238.949115
20
136.057790
11
238.704271
21
136.169750
0
LINE
8
annotation
62
1
39
211
10
238.704271
20
136.169750
11
238.446005
21
136.237639
0
LINE
8
annotation
62
1
39
211
10
238.446005
20
136.237639
11
238.180565
21
136.260859
0
LINE
8
annotation
62
1
39
211
10
238.180565
20
136.260859
11
237.914199
21
136.238814
0
LINE
8
annotation
62
1
39
211
10
237.914199
20
136.238814
11
237.653154
21
136.170904
0
LINE
8
annotation
62
1
39
211
10
237.653154
20
136.170904
11
237.403678
21
136.056530
0
LINE
8
annotation
62
1
39
211
10
237.403678
20
136.056530
11
237.172017
21
135.895096
0
LINE
8
annotation
62
1
39
211
10
237.172017
20
135.895096
11
236.572251
21
135.391832
0
LINE
8
annotation
62
1
39
211
10
236.572251
20
135.391832
11
237.172017
21
135.895096
0
LINE
8
annotation
62
1
39
211
10
237.172017
20
135.895096
11
237.172017
21
135.895096
0
LINE
8
annotation
62
1
39
211
10
237.172017
20
135.895096
11
237.371222
21
136.095209
0
LINE
8
annotation
62
1
39
211
10
237.371222
20
136.095209
11
237.527152
21
136.321067
0
LINE
8
annotation
62
1
39
211
10
237.527152
20
136.321067
11
237.639287
21
136.566442
0
LINE
8
annotation
62
1
39
211
10
237.639287
20
136.566442
11
237.707107
21
136.825105
0
LINE
8
annotation
62
1
39
211
10
237.707107
20
136.825105
11
237.730095
21
137.090827
0
LINE
8
annotation
62
1
39
211
10
237.730095
20
137.090827
11
237.707730
21
137.357380
0
LINE
8
annotation
62
1
39
211
10
237.707730
20
137.357380
11
237.639494
21
137.618536
0
LINE
8
annotation
62
1
39
211
10
237.639494
20
137.618536
11
237.524868
21
137.868064
0
LINE
8
annotation
62
1
39
211
10
237.524868
20
137.868064
11
237.363331
21
138.099738
0
LINE
8
annotation
62
1
39
211
10
237.363331
20
138.099738
11
237.363331
21
138.099738
0
LINE
8
annotation
62
1
39
211
10
237.363331
20
138.099738
11
237.164073
21
138.298043
0
LINE
8
annotation
62
1
39
211
10
237.164073
20
138.298043
11
236.938898
21
138.453474
0
LINE
8
annotation
62
1
39
211
10
236.938898
20
138.453474
11
236.694053
21
138.565433
0
LINE
8
annotation
62
1
39
211
10
236.694053
20
138.565433
11
236.435788
21
138.633322
0
LINE
8
annotation
62
1
39
211
10
236.435788
20
138.633322
11
236.170348
21
138.656543
0
LINE
8
annotation
62
1
39
211
10
236.170348
20
138.656543
11
235.903982
21
138.634498
0
LINE
8
annotation
62
1
39
211
10
235.903982
20
138.634498
11
235.642937
21
138.566587
0
LINE
8
annotation
62
1
39
211
10
235.642937
20
138.566587
11
235.393460
21
138.452214
0
LINE
8
annotation
62
1
39
211
10
235.393460
20
138.452214
11
235.161800
21
138.290780
0
LINE
8
annotation
62
1
39
211
10
235.161800
20
138.290780
11
233.963958
21
137.285671
0
LINE
8
annotation
62
1
39
211
10
232.855030
20
155.379419
11
230.900110
21
151.993397
0
LINE
8
annotation
62
1
39
211
10
230.900110
20
151.993397
11
226.938346
21
156.083745
0
LINE
8
annotation
62
1
39
211
10
233.624749
20
153.581735
11
230.916390
21
155.145406
0
LINE
8
annotation
62
1
39
211
10
217.716868
20
174.567352
11
217.988397
21
176.107268
0
LINE
8
annotation
62
1
39
211
10
217.988397
20
176.107268
11
217.988397
21
176.107268
0
LINE
8
annotation
62
1
39
211
10
217.988397
20
176.107268
11
218.012281
21
176.388034
0
LINE
8
annotation
62
1
39
211
10
218.012281
20
176.388034
11
217.986537
21
176.660970
0
LINE
8
annotation
62
1
39
211
10
217.986537
20
176.660970
11
217.914755
21
176.920917
0
LINE
8
annotation
62
1
39
211
10
217.914755
20
176.920917
11
217.800525
21
177.162718
0
LINE
8
annotation
62
1
39
211
10
217.800525
20
177.162718
11
217.647435
21
177.381216
0
LINE
8
annotation
62
1
39
211
10
217.647435
20
177.381216
11
217.459075
21
177.571252
0
LINE
8
annotation
62
1
39
211
10
217.459075
20
177.571252
11
217.239035
21
177.727670
0
LINE
8
annotation
62
1
39
211
10
217.239035
20
177.727670
11
216.990904
21
177.845311
0
LINE
8
annotation
62
1
39
211
10
216.990904
20
177.845311
11
216.718270
21
177.919019
0
LINE
8
annotation
62
1
39
211
10
216.718270
20
177.919019
11
215.951139
21
178.054285
0
LINE
8
annotation
62
1
39
211
10
215.951139
20
178.054285
11
215.951139
21
178.054285
0
LINE
8
annotation
62
1
39
211
10
215.951139
20
178.054285
11
215.669875
21
178.078259
0
LINE
8
annotation
62
1
39
211
10
215.669875
20
178.078259
11
215.396838
21
178.052550
0
LINE
8
annotation
62
1
39
211
10
215.396838
20
178.052550
11
215.137099
21
177.980779
0
LINE
8
annotation
62
1
39
211
10
215.137099
20
177.980779
11
214.895728
21
177.866564
0
LINE
8
annotation
62
1
39
211
10
214.895728
20
177.866564
11
214.677796
21
177.713524
0
LINE
8
annotation
62
1
39
211
10
214.677796
20
177.713524
11
214.488373
21
177.525280
0
LINE
8
annotation
62
1
39
211
10
214.488373
20
177.525280
11
214.332531
21
177.305451
0
LINE
8
annotation
62
1
39
211
10
214.332531
20
177.305451
11
214.215339
21
177.057656
0
LINE
8
annotation
62
1
39
211
10
214.215339
20
177.057656
11
214.141869
21
176.785514
0
LINE
8
annotation
62
1
39
211
10
214.141869
20
176.785514
11
213.870340
21
175.245599
0
LINE
8
annotation
62
1
39
211
10
213.870340
20
175.245599
11
210.782246
21
175.790113
0
LINE
8
annotation
62
1
39
211
10
210.782246
20
175.790113
11
211.325303
21
178.869945
0
LINE
8
annotation
62
1
39
211
10
181.495869
20
180.831066
11
181.495869
21
180.831066
0
LINE
8
annotation
62
1
39
211
10
181.495869
20
180.831066
11
181.758428
21
180.431149
0
LINE
8
annotation
62
1
39
211
10
181.758428
20
180.431149
11
182.069763
21
180.080082
0
LINE
8
annotation
62
1
39
211
10
182.069763
20
180.080082
11
182.423415
21
179.780730
0
LINE
8
annotation
62
1
39
211
10
182.423415
20
179.780730
11
182.812923
21
179.535961
0
LINE
8
annotation
62
1
39
211
10
182.812923
20
179.535961
11
183.231827
21
179.348640
0
LINE
8
annotation
62
1
39
211
10
183.231827
20
179.348640
11
183.673666
21
179.221633
0
LINE
8
annotation
62
1
39
211
10
183.673666
20
179.221633
11
184.131980
21
179.157807
0
LINE
8
annotation
62
1
39
211
10
184.131980
20
179.157807
11
184.600309
21
179.160028
0
LINE
8
annotation
62
1
39
211
10
184.600309
20
179.160028
11
185.072192
21
179.231161
0
LINE
8
annotation
62
1
39
211
10
185.072192
20
179.231161
11
187.355063
21
179.747018
0
LINE
8
annotation
62
1
39
211
10
187.355063
20
179.747018
11
187.355063
21
179.747018
0
LINE
8
annotation
62
1
39
211
10
187.355063
20
179.747018
11
187.623871
21
179.833643
0
LINE
8
annotation
62
1
39
211
10
187.623871
20
179.833643
11
187.866110
21
179.962982
0
LINE
8
annotation
62
1
39
211
10
187.866110
20
179.962982
11
188.078442
21
180.129715
0
LINE
8
annotation
62
1
39
211
10
188.078442
20
180.129715
11
188.257525
21
180.328517
0
LINE
8
annotation
62
1
39
211
10
188.257525
20
180.328517
11
188.400022
21
180.554066
0
LINE
8
annotation
62
1
39
211
10
188.400022
20
180.554066
11
188.502592
21
180.801039
0
LINE
8
annotation
62
1
39
211
10
188.502592
20
180.801039
11
188.561897
21
181.064113
0
LINE
8
annotation
62
1
39
211
10
188.561897
20
181.064113
11
188.574596
21
181.337966
0
LINE
8
annotation
62
1
39
211
10
188.574596
20
181.337966
11
188.537351
21
181.617274
0
LINE
8
annotation
62
1
39
211
10
188.537351
20
181.617274
11
188.537351
21
181.617274
0
LINE
8
annotation
62
1
39
211
10
188.537351
20
181.617274
11
188.450752
21
181.886026
0
LINE
8
annotation
62
1
39
211
10
188.450752
20
181.886026
11
188.321467
21
182.128112
0
LINE
8
annotation
62
1
39
211
10
188.321467
20
182.128112
11
188.154787
21
182.340214
0
LINE
8
annotation
62
1
39
211
10
188.154787
20
182.340214
11
187.956005
21
182.519016
0
LINE
8
annotation
62
1
39
211
10
187.956005
20
182.519016
11
187.730412
21
182.661202
0
LINE
8
annotation
62
1
39
211
10
187.730412
20
182.661202
11
187.483300
21
182.763455
0
LINE
8
annotation
62
1
39
211
10
187.483300
20
182.763455
11
187.219959
21
182.822459
0
LINE
8
annotation
62
1
39
211
10
187.219959
20
182.822459
11
186.945683
21
182.834896
0
LINE
8
annotation
62
1
39
211
10
186.945683
20
182.834896
11
186.665761
21
182.797451
0
LINE
8
annotation
62
1
39
211
10
186.665761
20
182.797451
11
185.905953
21
182.625758
0
LINE
8
annotation
62
1
39
211
10
185.905953
20
182.625758
11
185.905953
21
182.625758
0
LINE
8
annotation
62
1
39
211
10
185.905953
20
182.625758
11
185.637261
21
182.539234
0
LINE
8
annotation
62
1
39
211
10
185.637261
20
182.539234
11
185.395338
21
182.410152
0
LINE
8
annotation
62
1
39
211
10
185.395338
20
182.410152
11
185.183471
21
182.243767
0
LINE
8
annotation
62
1
39
211
10
185.183471
20
182.243767
11
185.004947
21
182.045333
0
LINE
8
annotation
62
1
39
211
10
185.004947
20
182.045333
11
184.863053
21
181.820107
0
LINE
8
annotation
62
1
39
211
10
184.863053
20
181.820107
11
184.761079
21
181.573343
0
LINE
8
annotation
62
1
39
211
10
184.761079
20
181.573343
11
184.702310
21
181.310297
0
LINE
8
annotation
62
1
39
211
10
184.702310
20
181.310297
11
184.690035
21
181.036223
0
LINE
8
annotation
62
1
39
211
10
184.690035
20
181.036223
11
184.727541
21
180.756378
0
LINE
8
annotation
62
1
39
211
10
184.727541
20
180.756378
11
185.072192
21
179.231161
0
LINE
8
annotation
62
1
39
211
10
189.783721
20
180.095035
11
189.007698
21
183.529248
0
LINE
8
annotation
62
1
39
211
10
162.149663
20
175.181655
11
155.367879
21
172.723580
0
LINE
8
annotation
62
1
39
211
10
155.367879
20
172.723580
11
157.048349
21
170.081390
0
LINE
8
annotation
62
1
39
211
10
158.013795
20
174.406420
11
158.853912
21
173.085511
0
LINE
8
annotation
62
1
39
211
10
130.410991
20
172.403640
11
130.410991
21
172.403640
0
LINE
8
annotation
62
1
39
211
10
130.410991
20
172.403640
11
130.579269
21
172.630284
0
LINE
8
annotation
62
1
39
211
10
130.579269
20
172.630284
11
130.700945
21
172.876070
0
LINE
8
annotation
62
1
39
211
10
130.700945
20
172.876070
11
130.776440
21
173.134772
0
LINE
8
annotation
62
1
39
211
10
130.776440
20
173.134772
11
130.806175
21
173.400169
0
LINE
8
annotation
62
1
39
211
10
130.806175
20
173.400169
11
130.790569
21
173.666037
0
LINE
8
annotation
62
1
39
211
10
130.790569
20
173.666037
11
130.730043
21
173.926151
0
LINE
8
annotation
62
1
39
211
10
130.730043
20
173.926151
11
130.625019
21
174.174290
0
LINE
8
annotation
62
1
39
211
10
130.625019
20
174.174290
11
130.475915
21
174.404229
0
LINE
8
annotation
62
1
39
211
10
130.475915
20
174.404229
11
130.283154
21
174.609744
0
LINE
8
annotation
62
1
39
211
10
130.283154
20
174.609744
11
130.283154
21
174.609744
0
LINE
8
annotation
62
1
39
211
10
130.283154
20
174.609744
11
130.056987
21
174.777797
0
LINE
8
annotation
62
1
39
211
10
130.056987
20
174.777797
11
129.811537
21
174.899690
0
LINE
8
annotation
62
1
39
211
10
129.811537
20
174.899690
11
129.553035
21
174.975715
0
LINE
8
annotation
62
1
39
211
10
129.553035
20
174.975715
11
129.287713
21
175.006166
0
LINE
8
annotation
62
1
39
211
10
129.287713
20
175.006166
11
129.021801
21
174.991334
0
LINE
8
annotation
62
1
39
211
10
129.021801
20
174.991334
11
128.761531
21
174.931512
0
LINE
8
annotation
62
1
39
211
10
128.761531
20
174.931512
11
128.513131
21
174.826991
0
LINE
8
annotation
62
1
39
211
10
128.513131
20
174.826991
11
128.282835
21
174.678065
0
LINE
8
annotation
62
1
39
211
10
128.282835
20
174.678065
11
128.076872
21
174.485025
0
LINE
8
annotation
62
1
39
211
10
128.076872
20
174.485025
11
127.558436
21
173.903638
0
LINE
8
annotation
62
1
39
211
10
127.558436
20
173.903638
11
127.558436
21
173.903638
0
LINE
8
annotation
62
1
39
211
10
127.558436
20
173.903638
11
127.390056
21
173.676902
0
LINE
8
annotation
62
1
39
211
10
127.390056
20
173.676902
11
127.268110
21
173.430868
0
LINE
8
annotation
62
1
39
211
10
127.268110
20
173.430868
11
127.192227
21
173.171802
0
LINE
8
annotation
62
1
39
211
10
127.192227
20
173.171802
11
127.162041
21
172.905969
0
LINE
8
annotation
62
1
39
211
10
127.162041
20
172.905969
11
127.177181
21
172.639633
0
LINE
8
annotation
62
1
39
211
10
127.177181
20
172.639633
11
127.237278
21
172.379060
0
LINE
8
annotation
62
1
39
211
10
127.237278
20
172.379060
11
127.341964
21
172.130515
0
LINE
8
annotation
62
1
39
211
10
127.341964
20
172.130515
11
127.490870
21
171.900262
0
LINE
8
annotation
62
1
39
211
10
127.490870
20
171.900262
11
127.683627
21
171.694568
0
LINE
8
annotation
62
1
39
211
10
127.683627
20
171.694568
11
127.683627
21
171.694568
0
LINE
8
annotation
62
1
39
211
10
127.683627
20
171.694568
11
127.909982
21
171.526550
0
LINE
8
annotation
62
1
39
211
10
127.909982
20
171.526550
11
128.155746
21
171.404916
0
LINE
8
annotation
62
1
39
211
10
128.155746
20
171.404916
11
128.414644
21
171.329308
0
LINE
8
annotation
62
1
39
211
10
128.414644
20
171.329308
11
128.680404
21
171.299371
0
LINE
8
annotation
62
1
39
211
10
128.680404
20
171.299371
11
128.946752
21
171.314746
0
LINE
8
annotation
62
1
39
211
10
128.946752
20
171.314746
11
129.207415
21
171.375079
0
LINE
8
annotation
62
1
39
211
10
129.207415
20
171.375079
11
129.456118
21
171.480012
0
LINE
8
annotation
62
1
39
211
10
129.456118
20
171.480012
11
129.686589
21
171.629189
0
LINE
8
annotation
62
1
39
211
10
129.686589
20
171.629189
11
129.892555
21
171.822253
0
LINE
8
annotation
62
1
39
211
10
129.892555
20
171.822253
11
130.410991
21
172.403640
0
LINE
8
annotation
62
1
39
211
10
125.474406
20
171.566553
11
125.474406
21
171.566553
0
LINE
8
annotation
62
1
39
211
10
125.474406
20
171.566553
11
125.306891
21
171.340786
0
LINE
8
annotation
62
1
39
211
10
125.306891
20
171.340786
11
125.185599
21
171.095487
0
LINE
8
annotation
62
1
39
211
10
125.185599
20
171.095487
11
125.110189
21
170.836951
0
LINE
8
annotation
62
1
39
211
10
125.110189
20
170.836951
11
125.080323
21
170.571477
0
LINE
8
annotation
62
1
39
211
10
125.080323
20
170.571477
11
125.095660
21
170.305362
0
LINE
8
annotation
62
1
39
211
10
125.095660
20
170.305362
11
125.155860
21
170.044905
0
LINE
8
annotation
62
1
39
211
10
125.155860
20
170.044905
11
125.260584
21
169.796402
0
LINE
8
annotation
62
1
39
211
10
125.260584
20
169.796402
11
125.409491
21
169.566150
0
LINE
8
annotation
62
1
39
211
10
125.409491
20
169.566150
11
125.602242
21
169.360449
0
LINE
8
annotation
62
1
39
211
10
125.602242
20
169.360449
11
125.602242
21
169.360449
0
LINE
8
annotation
62
1
39
211
10
125.602242
20
169.360449
11
125.828594
21
169.192428
0
LINE
8
annotation
62
1
39
211
10
125.828594
20
169.192428
11
126.074332
21
169.070765
0
LINE
8
annotation
62
1
39
211
10
126.074332
20
169.070765
11
126.333161
21
168.995080
0
LINE
8
annotation
62
1
39
211
10
126.333161
20
168.995080
11
126.598787
21
168.964991
0
LINE
8
annotation
62
1
39
211
10
126.598787
20
168.964991
11
126.864914
21
168.980119
0
LINE
8
annotation
62
1
39
211
10
126.864914
20
168.980119
11
127.125246
21
169.040081
0
LINE
8
annotation
62
1
39
211
10
127.125246
20
169.040081
11
127.373489
21
169.144497
0
LINE
8
annotation
62
1
39
211
10
127.373489
20
169.144497
11
127.603347
21
169.292986
0
LINE
8
annotation
62
1
39
211
10
127.603347
20
169.292986
11
127.808525
21
169.485168
0
LINE
8
annotation
62
1
39
211
10
127.808525
20
169.485168
11
127.808525
21
169.485168
0
LINE
8
annotation
62
1
39
211
10
127.808525
20
169.485168
11
127.976904
21
169.711925
0
LINE
8
annotation
62
1
39
211
10
127.976904
20
169.711925
11
128.098850
21
169.958013
0
LINE
8
annotation
62
1
39
211
10
128.098850
20
169.958013
11
128.174736
21
170.217154
0
LINE
8
annotation
62
1
39
211
10
128.174736
20
170.217154
11
128.204934
21
170.483071
0
LINE
8
annotation
62
1
39
211
10
128.204934
20
170.483071
11
128.189816
21
170.749486
0
LINE
8
annotation
62
1
39
211
10
128.189816
20
170.749486
11
128.129754
21
171.010120
0
LINE
8
annotation
62
1
39
211
10
128.129754
20
171.010120
11
128.025121
21
171.258697
0
LINE
8
annotation
62
1
39
211
10
128.025121
20
171.258697
11
127.876288
21
171.488939
0
LINE
8
annotation
62
1
39
211
10
127.876288
20
171.488939
11
127.683627
21
171.694568
0
LINE
8
annotation
62
1
39
211
10
127.683627
20
171.694568
11
127.683627
21
171.694568
0
LINE
8
annotation
62
1
39
211
10
127.683627
20
171.694568
11
127.457359
21
171.862507
0
LINE
8
annotation
62
1
39
211
10
127.457359
20
171.862507
11
127.211639
21
171.984097
0
LINE
8
annotation
62
1
39
211
10
127.211639
20
171.984097
11
126.952746
21
172.059684
0
LINE
8
annotation
62
1
39
211
10
126.952746
20
172.059684
11
126.686961
21
172.089615
0
LINE
8
annotation
62
1
39
211
10
126.686961
20
172.089615
11
126.420561
21
172.074236
0
LINE
8
annotation
62
1
39
211
10
126.420561
20
172.074236
11
126.159827
21
172.013894
0
LINE
8
annotation
62
1
39
211
10
126.159827
20
172.013894
11
125.911036
21
171.908935
0
LINE
8
annotation
62
1
39
211
10
125.911036
20
171.908935
11
125.680470
21
171.759706
0
LINE
8
annotation
62
1
39
211
10
125.680470
20
171.759706
11
125.474406
21
171.566553
0
LINE
8
annotation
62
1
39
211
10
110.485545
20
142.977248
11
110.485545
21
142.977248
0
LINE
8
annotation
62
1
39
211
10
110.485545
20
142.977248
11
110.008356
21
142.973601
0
LINE
8
annotation
62
1
39
211
10
110.008356
20
142.973601
11
109.545632
21
142.902326
0
LINE
8
annotation
62
1
39
211
10
109.545632
20
142.902326
11
109.103321
21
142.767365
0
LINE
8
annotation
62
1
39
211
10
109.103321
20
142.767365
11
108.687372
21
142.572659
0
LINE
8
annotation
62
1
39
211
10
108.687372
20
142.572659
11
108.303734
21
142.322152
0
LINE
8
annotation
62
1
39
211
10
108.303734
20
142.322152
11
107.958354
21
142.019785
0
LINE
8
annotation
62
1
39
211
10
107.958354
20
142.019785
11
107.657182
21
141.669499
0
LINE
8
annotation
62
1
39
211
10
107.657182
20
141.669499
11
107.406165
21
141.275239
0
LINE
8
annotation
62
1
39
211
10
107.406165
20
141.275239
11
107.211253
21
140.840944
0
LINE
8
annotation
62
1
39
211
10
107.211253
20
140.840944
11
106.408060
21
138.634191
0
LINE
8
annotation
62
1
39
211
10
106.408060
20
138.634191
11
106.408060
21
138.634191
0
LINE
8
annotation
62
1
39
211
10
106.408060
20
138.634191
11
106.335503
21
138.361241
0
LINE
8
annotation
62
1
39
211
10
106.335503
20
138.361241
11
106.313133
21
138.087556
0
LINE
8
annotation
62
1
39
211
10
106.313133
20
138.087556
11
106.338332
21
137.818812
0
LINE
8
annotation
62
1
39
211
10
106.338332
20
137.818812
11
106.408483
21
137.560685
0
LINE
8
annotation
62
1
39
211
10
106.408483
20
137.560685
11
106.520967
21
137.318850
0
LINE
8
annotation
62
1
39
211
10
106.520967
20
137.318850
11
106.673165
21
137.098982
0
LINE
8
annotation
62
1
39
211
10
106.673165
20
137.098982
11
106.862460
21
136.906757
0
LINE
8
annotation
62
1
39
211
10
106.862460
20
136.906757
11
107.086234
21
136.747851
0
LINE
8
annotation
62
1
39
211
10
107.086234
20
136.747851
11
107.341868
21
136.627939
0
LINE
8
annotation
62
1
39
211
10
107.341868
20
136.627939
11
107.341868
21
136.627939
0
LINE
8
annotation
62
1
39
211
10
107.341868
20
136.627939
11
107.614227
21
136.555677
0
LINE
8
annotation
62
1
39
211
10
107.614227
20
136.555677
11
107.887501
21
136.533673
0
LINE
8
annotation
62
1
39
211
10
107.887501
20
136.533673
11
108.155983
21
136.559280
0
LINE
8
annotation
62
1
39
211
10
108.155983
20
136.559280
11
108.413971
21
136.629853
0
LINE
8
annotation
62
1
39
211
10
108.413971
20
136.629853
11
108.655758
21
136.742744
0
LINE
8
annotation
62
1
39
211
10
108.655758
20
136.742744
11
108.875639
21
136.895308
0
LINE
8
annotation
62
1
39
211
10
108.875639
20
136.895308
11
109.067910
21
137.084899
0
LINE
8
annotation
62
1
39
211
10
109.067910
20
137.084899
11
109.226866
21
137.308871
0
LINE
8
annotation
62
1
39
211
10
109.226866
20
137.308871
11
109.346801
21
137.564577
0
LINE
8
annotation
62
1
39
211
10
109.346801
20
137.564577
11
109.614582
21
138.300300
0
LINE
8
annotation
62
1
39
211
10
109.614582
20
138.300300
11
109.614582
21
138.300300
0
LINE
8
annotation
62
1
39
211
10
109.614582
20
138.300300
11
109.687066
21
138.573261
0
LINE
8
annotation
62
1
39
211
10
109.687066
20
138.573261
11
109.709251
21
138.846970
0
LINE
8
annotation
62
1
39
211
10
109.709251
20
138.846970
11
109.683810
21
139.115739
0
LINE
8
annotation
62
1
39
211
10
109.683810
20
139.115739
11
109.613413
21
139.373882
0
LINE
8
annotation
62
1
39
211
10
109.613413
20
139.373882
11
109.500734
21
139.615710
0
LINE
8
annotation
62
1
39
211
10
109.500734
20
139.615710
11
109.348443
21
139.835537
0
LINE
8
annotation
62
1
39
211
10
109.348443
20
139.835537
11
109.159213
21
140.027675
0
LINE
8
annotation
62
1
39
211
10
109.159213
20
140.027675
11
108.935716
21
140.186438
0
LINE
8
annotation
62
1
39
211
10
108.935716
20
140.186438
11
108.680623
21
140.306137
0
LINE
8
annotation
62
1
39
211
10
108.680623
20
140.306137
11
107.211253
21
140.840944
0
LINE
8
annotation
62
1
39
211
10
111.704274
20
143.470357
11
108.395804
21
144.674541
0
LINE
8
annotation
62
1
39
211
10
131.234357
20
109.296150
11
131.234357
21
102.521956
0
LINE
8
annotation
62
1
39
211
10
131.234357
20
102.521956
11
132.740347
21
104.028371
0
LINE
8
annotation
62
1
39
211
10
127.606130
20
109.206796
11
127.606130
21
109.206796
0
LINE
8
annotation
62
1
39
211
10
127.606130
20
109.206796
11
127.448690
21
109.265652
0
LINE
8
annotation
62
1
39
211
10
127.448690
20
109.265652
11
127.287221
21
109.294892
0
LINE
8
annotation
62
1
39
211
10
127.287221
20
109.294892
11
127.125375
21
109.295710
0
LINE
8
annotation
62
1
39
211
10
127.125375
20
109.295710
11
126.966801
21
109.269297
0
LINE
8
annotation
62
1
39
211
10
126.966801
20
109.269297
11
126.815150
21
109.216846
0
LINE
8
annotation
62
1
39
211
10
126.815150
20
109.216846
11
126.674073
21
109.139549
0
LINE
8
annotation
62
1
39
211
10
126.674073
20
109.139549
11
126.547220
21
109.038598
0
LINE
8
annotation
62
1
39
211
10
126.547220
20
109.038598
11
126.438240
21
108.915186
0
LINE
8
annotation
62
1
39
211
10
126.438240
20
108.915186
11
126.350784
21
108.770505
0
LINE
8
annotation
62
1
39
211
10
126.350784
20
108.770505
11
126.350784
21
108.770505
0
LINE
8
annotation
62
1
39
211
10
126.350784
20
108.770505
11
126.089850
21
108.159724
0
LINE
8
annotation
62
1
39
211
10
126.089850
20
108.159724
11
125.894149
21
107.531265
0
LINE
8
annotation
62
1
39
211
10
125.894149
20
107.531265
11
125.763682
21
106.890138
0
LINE
8
annotation
62
1
39
211
10
125.763682
20
106.890138
11
125.698448
21
106.241353
0
LINE
8
annotation
62
1
39
211
10
125.698448
20
106.241353
11
125.698448
21
105.589922
0
LINE
8
annotation
62
1
39
211
10
125.698448
20
105.589922
11
125.763682
21
104.940855
0
LINE
8
annotation
62
1
39
211
10
125.763682
20
104.940855
11
125.894149
21
104.299161
0
LINE
8
annotation
62
1
39
211
10
125.894149
20
104.299161
11
126.089850
21
103.669852
0
LINE
8
annotation
62
1
39
211
10
126.089850
20
103.669852
11
126.350784
21
103.057938
0
LINE
8
annotation
62
1
39
211
10
126.350784
20
103.057938
11
126.350784
21
103.057938
0
LINE
8
annotation
62
1
39
211
10
126.350784
20
103.057938
11
126.383968
21
102.996183
0
LINE
8
annotation
62
1
39
211
10
126.383968
20
102.996183
11
126.421588
21
102.937141
0
LINE
8
annotation
62
1
39
211
10
126.421588
20
102.937141
11
126.463362
21
102.881102
0
LINE
8
annotation
62
1
39
211
10
126.463362
20
102.881102
11
126.509007
21
102.828358
0
LINE
8
annotation
62
1
39
211
10
126.509007
20
102.828358
11
126.558239
21
102.779197
0
LINE
8
annotation
62
1
39
211
10
126.558239
20
102.779197
11
126.610775
21
102.733910
0
LINE
8
annotation
62
1
39
211
10
126.610775
20
102.733910
11
126.666332
21
102.692787
0
LINE
8
annotation
62
1
39
211
10
126.666332
20
102.692787
11
126.724627
21
102.656119
0
LINE
8
annotation
62
1
39
211
10
126.724627
20
102.656119
11
126.785376
21
102.624196
0
LINE
8
annotation
62
1
39
211
10
126.785376
20
102.624196
11
126.785376
21
102.624196
0
LINE
8
annotation
62
1
39
211
10
126.785376
20
102.624196
11
126.944067
21
102.564065
0
LINE
8
annotation
62
1
39
211
10
126.944067
20
102.564065
11
127.106481
21
102.533825
0
LINE
8
annotation
62
1
39
211
10
127.106481
20
102.533825
11
127.269011
21
102.532277
0
LINE
8
annotation
62
1
39
211
10
127.269011
20
102.532277
11
127.428048
21
102.558222
0
LINE
8
annotation
62
1
39
211
10
127.428048
20
102.558222
11
127.579984
21
102.610461
0
LINE
8
annotation
62
1
39
211
10
127.579984
20
102.610461
11
127.721210
21
102.687793
0
LINE
8
annotation
62
1
39
211
10
127.721210
20
102.687793
11
127.848117
21
102.789021
0
LINE
8
annotation
62
1
39
211
10
127.848117
20
102.789021
11
127.957099
21
102.912944
0
LINE
8
annotation
62
1
39
211
10
127.957099
20
102.912944
11
128.044546
21
103.058363
0
LINE
8
annotation
62
1
39
211
10
128.044546
20
103.058363
11
128.044546
21
103.058363
0
LINE
8
annotation
62
1
39
211
10
128.044546
20
103.058363
11
128.304221
21
103.669018
0
LINE
8
annotation
62
1
39
211
10
128.304221
20
103.669018
11
128.498978
21
104.297383
0
LINE
8
annotation
62
1
39
211
10
128.498978
20
104.297383
11
128.628816
21
104.938447
0
LINE
8
annotation
62
1
39
211
10
128.628816
20
104.938447
11
128.693735
21
105.587200
0
LINE
8
annotation
62
1
39
211
10
128.693735
20
105.587200
11
128.693735
21
106.238631
0
LINE
8
annotation
62
1
39
211
10
128.693735
20
106.238631
11
128.628816
21
106.887730
0
LINE
8
annotation
62
1
39
211
10
128.628816
20
106.887730
11
128.498978
21
107.529487
0
LINE
8
annotation
62
1
39
211
10
128.498978
20
107.529487
11
128.304221
21
108.158890
0
LINE
8
annotation
62
1
39
211
10
128.304221
20
108.158890
11
128.044546
21
108.770930
0
LINE
8
annotation
62
1
39
211
10
128.044546
20
108.770930
11
128.044546
21
108.770930
0
LINE
8
annotation
62
1
39
211
10
128.044546
20
108.770930
11
128.011483
21
108.832562
0
LINE
8
annotation
62
1
39
211
10
128.011483
20
108.832562
11
127.974141
21
108.891310
0
LINE
8
annotation
62
1
39
211
10
127.974141
20
108.891310
11
127.932676
21
108.946995
0
LINE
8
annotation
62
1
39
211
10
127.932676
20
108.946995
11
127.887246
21
108.999438
0
LINE
8
annotation
62
1
39
211
10
127.887246
20
108.999438
11
127.838009
21
109.048462
0
LINE
8
annotation
62
1
39
211
10
127.838009
20
109.048462
11
127.785122
21
109.093888
0
LINE
8
annotation
62
1
39
211
10
127.785122
20
109.093888
11
127.728741
21
109.135538
0
LINE
8
annotation
62
1
39
211
10
127.728741
20
109.135538
11
127.669025
21
109.173234
0
LINE
8
annotation
62
1
39
211
10
127.669025
20
109.173234
11
127.606130
21
109.206796
0
LINE
8
annotation
62
1
39
211
10
149.687982
20
90.602892
11
152.096351
21
83.985953
0
LINE
8
annotation
62
1
39
211
10
152.096351
20
83.985953
11
153.031819
21
85.992809
0
LINE
8
annotation
62
1
39
211
10
145.735599
20
89.164343
11
148.143968
21
82.547403
0
LINE
8
annotation
62
1
39
211
10
148.143968
20
82.547403
11
149.079437
21
84.554260
0
LINE
8
annotation
62
1
39
211
10
164.474771
20
78.804476
11
168.820304
21
73.625672
0
LINE
8
annotation
62
1
39
211
10
168.820304
20
73.625672
11
169.005278
21
75.743379
0
LINE
8
annotation
62
1
39
211
10
160.232425
20
75.244797
11
162.532456
21
77.174752
0
LINE
8
annotation
62
1
39
211
10
162.532456
20
77.174752
11
163.278103
21
71.969944
0
LINE
8
annotation
62
1
39
211
10
163.278103
20
71.969944
11
163.278103
21
71.969944
0
LINE
8
annotation
62
1
39
211
10
163.278103
20
71.969944
11
163.278201
21
71.964668
0
LINE
8
annotation
62
1
39
211
10
163.278201
20
71.964668
11
163.278425
21
71.959453
0
LINE
8
annotation
62
1
39
211
10
163.278425
20
71.959453
11
163.278782
21
71.954258
0
LINE
8
annotation
62
1
39
211
10
163.278782
20
71.954258
11
163.279278
21
71.949044
0
LINE
8
annotation
62
1
39
211
10
163.279278
20
71.949044
11
163.279921
21
71.943770
0
LINE
8
annotation
62
1
39
211
10
163.279921
20
71.943770
11
163.280715
21
71.938396
0
LINE
8
annotation
62
1
39
211
10
163.280715
20
71.938396
11
163.281669
21
71.932882
0
LINE
8
annotation
62
1
39
211
10
163.281669
20
71.932882
11
163.282787
21
71.927188
0
LINE
8
annotation
62
1
39
211
10
163.282787
20
71.927188
11
163.284077
21
71.921273
0
LINE
8
annotation
62
1
39
211
10
163.284077
20
71.921273
11
163.284077
21
71.921273
0
LINE
8
annotation
62
1
39
211
10
163.284077
20
71.921273
11
163.354421
21
71.659225
0
LINE
8
annotation
62
1
39
211
10
163.354421
20
71.659225
11
163.467040
21
71.420902
0
LINE
8
annotation
62
1
39
211
10
163.467040
20
71.420902
11
163.616972
21
71.209662
0
LINE
8
annotation
62
1
39
211
10
163.616972
20
71.209662
11
163.799260
21
71.028865
0
LINE
8
annotation
62
1
39
211
10
163.799260
20
71.028865
11
164.008944
21
70.881870
0
LINE
8
annotation
62
1
39
211
10
164.008944
20
70.881870
11
164.241064
21
70.772034
0
LINE
8
annotation
62
1
39
211
10
164.241064
20
70.772034
11
164.490661
21
70.702718
0
LINE
8
annotation
62
1
39
211
10
164.490661
20
70.702718
11
164.752775
21
70.677281
0
LINE
8
annotation
62
1
39
211
10
164.752775
20
70.677281
11
165.022447
21
70.699080
0
LINE
8
annotation
62
1
39
211
10
165.022447
20
70.699080
11
165.022447
21
70.699080
0
LINE
8
annotation
62
1
39
211
10
165.022447
20
70.699080
11
165.283972
21
70.771111
0
LINE
8
annotation
62
1
39
211
10
165.283972
20
70.771111
11
165.521932
21
70.884771
0
LINE
8
annotation
62
1
39
211
10
165.521932
20
70.884771
11
165.732906
21
71.035253
0
LINE
8
annotation
62
1
39
211
10
165.732906
20
71.035253
11
165.913476
21
71.217753
0
LINE
8
annotation
62
1
39
211
10
165.913476
20
71.217753
11
166.060220
21
71.427465
0
LINE
8
annotation
62
1
39
211
10
166.060220
20
71.427465
11
166.169720
21
71.659583
0
LINE
8
annotation
62
1
39
211
10
166.169720
20
71.659583
11
166.238555
21
71.909302
0
LINE
8
annotation
62
1
39
211
10
166.238555
20
71.909302
11
166.263305
21
72.171817
0
LINE
8
annotation
62
1
39
211
10
166.263305
20
72.171817
11
166.240552
21
72.442322
0
LINE
8
annotation
62
1
39
211
10
166.240552
20
72.442322
11
166.148487
21
72.858738
0
LINE
8
annotation
62
1
39
211
10
176.619875
20
68.649426
11
182.475444
21
65.268711
0
LINE
8
annotation
62
1
39
211
10
182.475444
20
65.268711
11
181.924885
21
67.322267
0
LINE
8
annotation
62
1
39
211
10
175.352397
20
66.453665
11
174.601669
21
65.153366
0
LINE
8
annotation
62
1
39
211
10
174.601669
20
65.153366
11
174.601669
21
65.153366
0
LINE
8
annotation
62
1
39
211
10
174.601669
20
65.153366
11
174.487628
21
64.907392
0
LINE
8
annotation
62
1
39
211
10
174.487628
20
64.907392
11
174.421041
21
64.652428
0
LINE
8
annotation
62
1
39
211
10
174.421041
20
64.652428
11
174.400310
21
64.394277
0
LINE
8
annotation
62
1
39
211
10
174.400310
20
64.394277
11
174.423838
21
64.138741
0
LINE
8
annotation
62
1
39
211
10
174.423838
20
64.138741
11
174.490025
21
63.891624
0
LINE
8
annotation
62
1
39
211
10
174.490025
20
63.891624
11
174.597273
21
63.658729
0
LINE
8
annotation
62
1
39
211
10
174.597273
20
63.658729
11
174.743985
21
63.445857
0
LINE
8
annotation
62
1
39
211
10
174.743985
20
63.445857
11
174.928561
21
63.258813
0
LINE
8
annotation
62
1
39
211
10
174.928561
20
63.258813
11
175.149404
21
63.103399
0
LINE
8
annotation
62
1
39
211
10
175.149404
20
63.103399
11
175.800472
21
62.727505
0
LINE
8
annotation
62
1
39
211
10
175.800472
20
62.727505
11
175.800472
21
62.727505
0
LINE
8
annotation
62
1
39
211
10
175.800472
20
62.727505
11
176.045389
21
62.614012
0
LINE
8
annotation
62
1
39
211
10
176.045389
20
62.614012
11
176.299611
21
62.547716
0
LINE
8
annotation
62
1
39
211
10
176.299611
20
62.547716
11
176.557304
21
62.527105
0
LINE
8
annotation
62
1
39
211
10
176.557304
20
62.527105
11
176.812633
21
62.550666
0
LINE
8
annotation
62
1
39
211
10
176.812633
20
62.550666
11
177.059767
21
62.616887
0
LINE
8
annotation
62
1
39
211
10
177.059767
20
62.616887
11
177.292870
21
62.724257
0
LINE
8
annotation
62
1
39
211
10
177.292870
20
62.724257
11
177.506109
21
62.871263
0
LINE
8
annotation
62
1
39
211
10
177.506109
20
62.871263
11
177.693651
21
63.056393
0
LINE
8
annotation
62
1
39
211
10
177.693651
20
63.056393
11
177.849663
21
63.278136
0
LINE
8
annotation
62
1
39
211
10
177.849663
20
63.278136
11
178.225557
21
63.929203
0
LINE
8
annotation
62
1
39
211
10
178.225557
20
63.929203
11
177.849663
21
63.278136
0
LINE
8
annotation
62
1
39
211
10
177.849663
20
63.278136
11
177.849663
21
63.278136
0
LINE
8
annotation
62
1
39
211
10
177.849663
20
63.278136
11
177.735638
21
63.032152
0
LINE
8
annotation
62
1
39
211
10
177.735638
20
63.032152
11
177.669117
21
62.777150
0
LINE
8
annotation
62
1
39
211
10
177.669117
20
62.777150
11
177.648522
21
62.518921
0
LINE
8
annotation
62
1
39
211
10
177.648522
20
62.518921
11
177.672275
21
62.263255
0
LINE
8
annotation
62
1
39
211
10
177.672275
20
62.263255
11
177.738799
21
62.015943
0
LINE
8
annotation
62
1
39
211
10
177.738799
20
62.015943
11
177.846518
21
61.782776
0
LINE
8
annotation
62
1
39
211
10
177.846518
20
61.782776
11
177.993854
21
61.569544
0
LINE
8
annotation
62
1
39
211
10
177.993854
20
61.569544
11
178.179231
21
61.382038
0
LINE
8
annotation
62
1
39
211
10
178.179231
20
61.382038
11
178.401070
21
61.226049
0
LINE
8
annotation
62
1
39
211
10
178.401070
20
61.226049
11
178.401070
21
61.226049
0
LINE
8
annotation
62
1
39
211
10
178.401070
20
61.226049
11
178.645987
21
61.112556
0
LINE
8
annotation
62
1
39
211
10
178.645987
20
61.112556
11
178.900209
21
61.046260
0
LINE
8
annotation
62
1
39
211
10
178.900209
20
61.046260
11
179.157902
21
61.025649
0
LINE
8
annotation
62
1
39
211
10
179.157902
20
61.025649
11
179.413231
21
61.049210
0
LINE
8
annotation
62
1
39
211
10
179.413231
20
61.049210
11
179.660365
21
61.115431
0
LINE
8
annotation
62
1
39
211
10
179.660365
20
61.115431
11
179.893468
21
61.222801
0
LINE
8
annotation
62
1
39
211
10
179.893468
20
61.222801
11
180.106707
21
61.369807
0
LINE
8
annotation
62
1
39
211
10
180.106707
20
61.369807
11
180.294250
21
61.554937
0
LINE
8
annotation
62
1
39
211
10
180.294250
20
61.554937
11
180.450261
21
61.776680
0
LINE
8
annotation
62
1
39
211
10
180.450261
20
61.776680
11
181.200989
21
63.076979
0
LINE
8
annotation
62
1
39
211
10
191.114838
20
61.566883
11
197.131541
21
60.505976
0
LINE
8
annotation
62
1
39
211
10
197.131541
20
60.505976
11
196.029427
21
62.079486
0
LINE
8
annotation
62
1
39
211
10
191.465554
20
55.734187
11
192.054621
21
59.074955
0
LINE
8
annotation
62
1
39
211
10
192.054621
20
59.074955
11
196.498480
21
56.915707
0
LINE
8
annotation
62
1
39
211
10
190.304537
20
56.971440
11
192.976699
21
56.500266
0
LINE
8
annotation
62
1
39
211
10
206.580181
20
60.665809
11
213.238888
21
61.839919
0
LINE
8
annotation
62
1
39
211
10
213.238888
20
61.839919
11
211.497135
21
63.059141
0
LINE
8
annotation
62
1
39
211
10
207.020435
20
58.169002
11
207.281161
21
56.690357
0
LINE
8
annotation
62
1
39
211
10
207.281161
20
56.690357
11
207.281161
21
56.690357
0
LINE
8
annotation
62
1
39
211
10
207.281161
20
56.690357
11
207.351817
21
56.429176
0
LINE
8
annotation
62
1
39
211
10
207.351817
20
56.429176
11
207.464681
21
56.191360
0
LINE
8
annotation
62
1
39
211
10
207.464681
20
56.191360
11
207.614820
21
55.980382
0
LINE
8
annotation
62
1
39
211
10
207.614820
20
55.980382
11
207.797301
21
55.799719
0
LINE
8
annotation
62
1
39
211
10
207.797301
20
55.799719
11
208.007191
21
55.652844
0
LINE
8
annotation
62
1
39
211
10
208.007191
20
55.652844
11
208.239559
21
55.543233
0
LINE
8
annotation
62
1
39
211
10
208.239559
20
55.543233
11
208.489472
21
55.474361
0
LINE
8
annotation
62
1
39
211
10
208.489472
20
55.474361
11
208.751997
21
55.449702
0
LINE
8
annotation
62
1
39
211
10
208.751997
20
55.449702
11
209.022202
21
55.472731
0
LINE
8
annotation
62
1
39
211
10
209.022202
20
55.472731
11
209.758810
21
55.602615
0
LINE
8
annotation
62
1
39
211
10
209.758810
20
55.602615
11
209.758810
21
55.602615
0
LINE
8
annotation
62
1
39
211
10
209.758810
20
55.602615
11
210.020469
21
55.673354
0
LINE
8
annotation
62
1
39
211
10
210.020469
20
55.673354
11
210.258389
21
55.786219
0
LINE
8
annotation
62
1
39
211
10
210.258389
20
55.786219
11
210.469182
21
55.936280
0
LINE
8
annotation
62
1
39
211
10
210.469182
20
55.936280
11
210.649462
21
56.118606
0
LINE
8
annotation
62
1
39
211
10
210.649462
20
56.118606
11
210.795843
21
56.328266
0
LINE
8
annotation
62
1
39
211
10
210.795843
20
56.328266
11
210.904938
21
56.560328
0
LINE
8
annotation
62
1
39
211
10
210.904938
20
56.560328
11
210.973361
21
56.809861
0
LINE
8
annotation
62
1
39
211
10
210.973361
20
56.809861
11
210.997724
21
57.071935
0
LINE
8
annotation
62
1
39
211
10
210.997724
20
57.071935
11
210.974643
21
57.341617
0
LINE
8
annotation
62
1
39
211
10
210.974643
20
57.341617
11
210.713918
21
58.820263
0
LINE
8
annotation
62
1
39
211
10
210.713918
20
58.820263
11
213.679143
21
59.343112
0
LINE
8
annotation
62
1
39
211
10
213.679143
20
59.343112
11
214.200593
21
56.385821
0
LINE
8
annotation
62
1
39
211
10
221.028171
20
66.251256
11
226.883740
21
69.631970
0
LINE
8
annotation
62
1
39
211
10
226.883740
20
69.631970
11
224.830029
21
70.181950
0
LINE
8
annotation
62
1
39
211
10
229.279084
20
65.483112
11
229.279084
21
65.483112
0
LINE
8
annotation
62
1
39
211
10
229.279084
20
65.483112
11
228.924353
21
65.774979
0
LINE
8
annotation
62
1
39
211
10
228.924353
20
65.774979
11
228.538820
21
66.008152
0
LINE
8
annotation
62
1
39
211
10
228.538820
20
66.008152
11
228.129224
21
66.181843
0
LINE
8
annotation
62
1
39
211
10
228.129224
20
66.181843
11
227.702307
21
66.295267
0
LINE
8
annotation
62
1
39
211
10
227.702307
20
66.295267
11
227.264809
21
66.347636
0
LINE
8
annotation
62
1
39
211
10
227.264809
20
66.347636
11
226.823472
21
66.338164
0
LINE
8
annotation
62
1
39
211
10
226.823472
20
66.338164
11
226.385035
21
66.266064
0
LINE
8
annotation
62
1
39
211
10
226.385035
20
66.266064
11
225.956240
21
66.130548
0
LINE
8
annotation
62
1
39
211
10
225.956240
20
66.130548
11
225.543827
21
65.930831
0
LINE
8
annotation
62
1
39
211
10
225.543827
20
65.930831
11
223.597601
21
64.807177
0
LINE
8
annotation
62
1
39
211
10
223.597601
20
64.807177
11
223.597601
21
64.807177
0
LINE
8
annotation
62
1
39
211
10
223.597601
20
64.807177
11
223.375809
21
64.651134
0
LINE
8
annotation
62
1
39
211
10
223.375809
20
64.651134
11
223.190554
21
64.463496
0
LINE
8
annotation
62
1
39
211
10
223.190554
20
64.463496
11
223.043380
21
64.250096
0
LINE
8
annotation
62
1
39
211
10
223.043380
20
64.250096
11
222.935833
21
64.016766
0
LINE
8
annotation
62
1
39
211
10
222.935833
20
64.016766
11
222.869456
21
63.769338
0
LINE
8
annotation
62
1
39
211
10
222.869456
20
63.769338
11
222.845796
21
63.513646
0
LINE
8
annotation
62
1
39
211
10
222.845796
20
63.513646
11
222.866397
21
63.255520
0
LINE
8
annotation
62
1
39
211
10
222.866397
20
63.255520
11
222.932804
21
63.000795
0
LINE
8
annotation
62
1
39
211
10
222.932804
20
63.000795
11
223.046561
21
62.755302
0
LINE
8
annotation
62
1
39
211
10
223.046561
20
62.755302
11
223.046561
21
62.755302
0
LINE
8
annotation
62
1
39
211
10
223.046561
20
62.755302
11
223.202565
21
62.533555
0
LINE
8
annotation
62
1
39
211
10
223.202565
20
62.533555
11
223.390108
21
62.348425
0
LINE
8
annotation
62
1
39
211
10
223.390108
20
62.348425
11
223.603395
21
62.201446
0
LINE
8
annotation
62
1
39
211
10
223.603395
20
62.201446
11
223.836626
21
62.094151
0
LINE
8
annotation
62
1
39
211
10
223.836626
20
62.094151
11
224.084006
21
62.028072
0
LINE
8
annotation
62
1
39
211
10
224.084006
20
62.028072
11
224.339736
21
62.004742
0
LINE
8
annotation
62
1
39
211
10
224.339736
20
62.004742
11
224.598020
21
62.025695
0
LINE
8
annotation
62
1
39
211
10
224.598020
20
62.025695
11
224.853059
21
62.092462
0
LINE
8
annotation
62
1
39
211
10
224.853059
20
62.092462
11
225.099057
21
62.206579
0
LINE
8
annotation
62
1
39
211
10
225.099057
20
62.206579
11
225.746820
21
62.580565
0
LINE
8
annotation
62
1
39
211
10
225.746820
20
62.580565
11
225.746820
21
62.580565
0
LINE
8
annotation
62
1
39
211
10
225.746820
20
62.580565
11
225.968533
21
62.736482
0
LINE
8
annotation
62
1
39
211
10
225.968533
20
62.736482
11
226.153572
21
62.923793
0
LINE
8
annotation
62
1
39
211
10
226.153572
20
62.923793
11
226.300419
21
63.136743
0
LINE
8
annotation
62
1
39
211
10
226.300419
20
63.136743
11
226.407559
21
63.369575
0
LINE
8
annotation
62
1
39
211
10
226.407559
20
63.369575
11
226.473474
21
63.616535
0
LINE
8
annotation
62
1
39
211
10
226.473474
20
63.616535
11
226.496648
21
63.871866
0
LINE
8
annotation
62
1
39
211
10
226.496648
20
63.871866
11
226.475564
21
64.129813
0
LINE
8
annotation
62
1
39
211
10
226.475564
20
64.129813
11
226.408705
21
64.384620
0
LINE
8
annotation
62
1
39
211
10
226.408705
20
64.384620
11
226.294555
21
64.630532
0
LINE
8
annotation
62
1
39
211
10
226.294555
20
64.630532
11
225.543827
21
65.930831
0
LINE
8
annotation
62
1
39
211
10
221.469860
20
63.795870
11
223.160218
21
60.868086
0
LINE
8
annotation
62
1
39
211
10
234.918516
20
73.906061
11
239.262324
21
79.082810
0
LINE
8
annotation
62
1
39
211
10
239.262324
20
79.082810
11
237.145510
21
78.897312
0
LINE
8
annotation
62
1
39
211
10
238.010654
20
71.311448
11
243.505320
21
75.522513
0
LINE
8
annotation
62
1
39
211
10
243.505320
20
75.522513
11
241.203280
21
77.454154
0
LINE
8
annotation
62
1
39
211
10
241.570955
20
73.217227
11
240.420098
21
74.182911
0
LINE
8
annotation
62
1
39
211
10
244.280355
20
86.935482
11
246.592899
21
93.289146
0
LINE
8
annotation
62
1
39
211
10
246.592899
20
93.289146
11
244.666145
21
92.390355
0
LINE
8
annotation
62
1
39
211
10
247.175510
20
87.477066
11
247.175510
21
87.477066
0
LINE
8
annotation
62
1
39
211
10
247.175510
20
87.477066
11
247.105955
21
87.215088
0
LINE
8
annotation
62
1
39
211
10
247.105955
20
87.215088
11
247.084773
21
86.952599
0
LINE
8
annotation
62
1
39
211
10
247.084773
20
86.952599
11
247.109376
21
86.695001
0
LINE
8
annotation
62
1
39
211
10
247.109376
20
86.695001
11
247.177177
21
86.447695
0
LINE
8
annotation
62
1
39
211
10
247.177177
20
86.447695
11
247.285590
21
86.216084
0
LINE
8
annotation
62
1
39
211
10
247.285590
20
86.216084
11
247.432027
21
86.005569
0
LINE
8
annotation
62
1
39
211
10
247.432027
20
86.005569
11
247.613901
21
85.821552
0
LINE
8
annotation
62
1
39
211
10
247.613901
20
85.821552
11
247.828626
21
85.669436
0
LINE
8
annotation
62
1
39
211
10
247.828626
20
85.669436
11
248.073614
21
85.554623
0
LINE
8
annotation
62
1
39
211
10
248.073614
20
85.554623
11
248.073614
21
85.554623
0
LINE
8
annotation
62
1
39
211
10
248.073614
20
85.554623
11
248.335087
21
85.485100
0
LINE
8
annotation
62
1
39
211
10
248.335087
20
85.485100
11
248.597354
21
85.463605
0
LINE
8
annotation
62
1
39
211
10
248.597354
20
85.463605
11
248.854961
21
85.487663
0
LINE
8
annotation
62
1
39
211
10
248.854961
20
85.487663
11
249.102455
21
85.554799
0
LINE
8
annotation
62
1
39
211
10
249.102455
20
85.554799
11
249.334381
21
85.662537
0
LINE
8
annotation
62
1
39
211
10
249.334381
20
85.662537
11
249.545285
21
85.808402
0
LINE
8
annotation
62
1
39
211
10
249.545285
20
85.808402
11
249.729713
21
85.989920
0
LINE
8
annotation
62
1
39
211
10
249.729713
20
85.989920
11
249.882211
21
86.204614
0
LINE
8
annotation
62
1
39
211
10
249.882211
20
86.204614
11
249.997325
21
86.450009
0
LINE
8
annotation
62
1
39
211
10
249.997325
20
86.450009
11
250.253146
21
87.152873
0
LINE
8
annotation
62
1
39
211
10
250.253146
20
87.152873
11
250.253146
21
87.152873
0
LINE
8
annotation
62
1
39
211
10
250.253146
20
87.152873
11
250.322759
21
87.414969
0
LINE
8
annotation
62
1
39
211
10
250.322759
20
87.414969
11
250.344094
21
87.677776
0
LINE
8
annotation
62
1
39
211
10
250.344094
20
87.677776
11
250.319708
21
87.935836
0
LINE
8
annotation
62
1
39
211
10
250.319708
20
87.935836
11
250.252155
21
88.183692
0
LINE
8
annotation
62
1
39
211
10
250.252155
20
88.183692
11
250.143991
21
88.415886
0
LINE
8
annotation
62
1
39
211
10
250.143991
20
88.415886
11
249.997773
21
88.626962
0
LINE
8
annotation
62
1
39
211
10
249.997773
20
88.626962
11
249.816056
21
88.811461
0
LINE
8
annotation
62
1
39
211
10
249.816056
20
88.811461
11
249.601395
21
88.963927
0
LINE
8
annotation
62
1
39
211
10
249.601395
20
88.963927
11
249.356347
21
89.078902
0
LINE
8
annotation
62
1
39
211
10
249.356347
20
89.078902
11
249.356347
21
89.078902
0
LINE
8
annotation
62
1
39
211
10
249.356347
20
89.078902
11
249.094720
21
89.148327
0
LINE
8
annotation
62
1
39
211
10
249.094720
20
89.148327
11
248.832265
21
89.169480
0
LINE
8
annotation
62
1
39
211
10
248.832265
20
89.169480
11
248.574452
21
89.144908
0
LINE
8
annotation
62
1
39
211
10
248.574452
20
89.144908
11
248.326750
21
89.077159
0
LINE
8
annotation
62
1
39
211
10
248.326750
20
89.077159
11
248.094629
21
88.968781
0
LINE
8
annotation
62
1
39
211
10
248.094629
20
88.968781
11
247.883557
21
88.822322
0
LINE
8
annotation
62
1
39
211
10
247.883557
20
88.822322
11
247.699004
21
88.640328
0
LINE
8
annotation
62
1
39
211
10
247.699004
20
88.640328
11
247.546439
21
88.425348
0
LINE
8
annotation
62
1
39
211
10
247.546439
20
88.425348
11
247.431332
21
88.179930
0
LINE
8
annotation
62
1
39
211
10
247.431332
20
88.179930
11
247.175510
21
87.477066
0
LINE
8
annotation
62
1
39
211
10
251.281508
20
89.978273
11
251.281508
21
89.978273
0
LINE
8
annotation
62
1
39
211
10
251.281508
20
89.978273
11
251.350694
21
90.239197
0
LINE
8
annotation
62
1
39
211
10
251.350694
20
90.239197
11
251.371706
21
90.501117
0
LINE
8
annotation
62
1
39
211
10
251.371706
20
90.501117
11
251.347086
21
90.758536
0
LINE
8
annotation
62
1
39
211
10
251.347086
20
90.758536
11
251.279375
21
91.005957
0
LINE
8
annotation
62
1
39
211
10
251.279375
20
91.005957
11
251.171115
21
91.237884
0
LINE
8
annotation
62
1
39
211
10
251.171115
20
91.237884
11
251.024846
21
91.448821
0
LINE
8
annotation
62
1
39
211
10
251.024846
20
91.448821
11
250.843110
21
91.633269
0
LINE
8
annotation
62
1
39
211
10
250.843110
20
91.633269
11
250.628449
21
91.785734
0
LINE
8
annotation
62
1
39
211
10
250.628449
20
91.785734
11
250.383404
21
91.900717
0
LINE
8
annotation
62
1
39
211
10
250.383404
20
91.900717
11
250.383404
21
91.900717
0
LINE
8
annotation
62
1
39
211
10
250.383404
20
91.900717
11
250.121778
21
91.970147
0
LINE
8
annotation
62
1
39
211
10
250.121778
20
91.970147
11
249.859336
21
91.991334
0
LINE
8
annotation
62
1
39
211
10
249.859336
20
91.991334
11
249.601557
21
91.966855
0
LINE
8
annotation
62
1
39
211
10
249.601557
20
91.966855
11
249.353921
21
91.899288
0
LINE
8
annotation
62
1
39
211
10
249.353921
20
91.899288
11
249.121909
21
91.791210
0
LINE
8
annotation
62
1
39
211
10
249.121909
20
91.791210
11
248.911000
21
91.645198
0
LINE
8
annotation
62
1
39
211
10
248.911000
20
91.645198
11
248.726674
21
91.463830
0
LINE
8
annotation
62
1
39
211
10
248.726674
20
91.463830
11
248.574412
21
91.249681
0
LINE
8
annotation
62
1
39
211
10
248.574412
20
91.249681
11
248.459693
21
91.005330
0
LINE
8
annotation
62
1
39
211
10
248.459693
20
91.005330
11
248.459693
21
91.005330
0
LINE
8
annotation
62
1
39
211
10
248.459693
20
91.005330
11
248.390089
21
90.743216
0
LINE
8
annotation
62
1
39
211
10
248.390089
20
90.743216
11
248.368773
21
90.480360
0
LINE
8
annotation
62
1
39
211
10
248.368773
20
90.480360
11
248.393183
21
90.222232
0
LINE
8
annotation
62
1
39
211
10
248.393183
20
90.222232
11
248.460755
21
89.974297
0
LINE
8
annotation
62
1
39
211
10
248.460755
20
89.974297
11
248.568927
21
89.742025
0
LINE
8
annotation
62
1
39
211
10
248.568927
20
89.742025
11
248.715136
21
89.530881
0
LINE
8
annotation
62
1
39
211
10
248.715136
20
89.530881
11
248.896817
21
89.346335
0
LINE
8
annotation
62
1
39
211
10
248.896817
20
89.346335
11
249.111409
21
89.193853
0
LINE
8
annotation
62
1
39
211
10
249.111409
20
89.193853
11
249.356347
21
89.078902
0
LINE
8
annotation
62
1
39
211
10
249.356347
20
89.078902
11
249.356347
21
89.078902
0
LINE
8
annotation
62
1
39
211
10
249.356347
20
89.078902
11
249.617870
21
89.009516
0
LINE
8
annotation
62
1
39
211
10
249.617870
20
89.009516
11
249.880270
21
88.988387
0
LINE
8
annotation
62
1
39
211
10
249.880270
20
88.988387
11
250.138070
21
89.012976
0
LINE
8
annotation
62
1
39
211
10
250.138070
20
89.012976
11
250.385793
21
89.080740
0
LINE
8
annotation
62
1
39
211
10
250.385793
20
89.080740
11
250.617959
21
89.189139
0
LINE
8
annotation
62
1
39
211
10
250.617959
20
89.189139
11
250.829092
21
89.335633
0
LINE
8
annotation
62
1
39
211
10
250.829092
20
89.335633
11
251.013713
21
89.517681
0
LINE
8
annotation
62
1
39
211
10
251.013713
20
89.517681
11
251.166344
21
89.732741
0
LINE
8
annotation
62
1
39
211
10
251.166344
20
89.732741
11
251.281508
21
89.978273
0
LINE
8
annotation
62
1
39
211
10
147.690676
20
115.736499
11
135.963872
21
115.736499
0
LINE
8
annotation
62
1
39
211
10
135.963872
20
115.736499
11
147.690676
21
136.856402
0
LINE
8
annotation
62
1
39
211
10
147.690676
20
136.856402
11
135.963872
21
136.856402
0
LINE
8
annotation
62
1
39
211
10
167.160629
20
126.296451
11
155.612627
21
126.296451
0
LINE
8
annotation
62
1
39
211
10
175.078606
20
120.419141
11
175.078606
21
120.419141
0
LINE
8
annotation
62
1
39
211
10
175.078606
20
120.419141
11
175.154326
21
119.575874
0
LINE
8
annotation
62
1
39
211
10
175.154326
20
119.575874
11
175.372575
21
118.782783
0
LINE
8
annotation
62
1
39
211
10
175.372575
20
118.782783
11
175.719990
21
118.052962
0
LINE
8
annotation
62
1
39
211
10
175.719990
20
118.052962
11
176.183205
21
117.399502
0
LINE
8
annotation
62
1
39
211
10
176.183205
20
117.399502
11
176.748857
21
116.835494
0
LINE
8
annotation
62
1
39
211
10
176.748857
20
116.835494
11
177.403580
21
116.374032
0
LINE
8
annotation
62
1
39
211
10
177.403580
20
116.374032
11
178.134010
21
116.028207
0
LINE
8
annotation
62
1
39
211
10
178.134010
20
116.028207
11
178.926782
21
115.811111
0
LINE
8
annotation
62
1
39
211
10
178.926782
20
115.811111
11
179.768533
21
115.735837
0
LINE
8
annotation
62
1
39
211
10
179.768533
20
115.735837
11
179.768533
21
115.735837
0
LINE
8
annotation
62
1
39
211
10
179.768533
20
115.735837
11
180.610283
21
115.811111
0
LINE
8
annotation
62
1
39
211
10
180.610283
20
115.811111
11
181.403056
21
116.028207
0
LINE
8
annotation
62
1
39
211
10
181.403056
20
116.028207
11
182.133486
21
116.374032
0
LINE
8
annotation
62
1
39
211
10
182.133486
20
116.374032
11
182.788209
21
116.835494
0
LINE
8
annotation
62
1
39
211
10
182.788209
20
116.835494
11
183.353861
21
117.399502
0
LINE
8
annotation
62
1
39
211
10
183.353861
20
117.399502
11
183.817076
21
118.052962
0
LINE
8
annotation
62
1
39
211
10
183.817076
20
118.052962
11
184.164491
21
118.782783
0
LINE
8
annotation
62
1
39
211
10
184.164491
20
118.782783
11
184.382740
21
119.575874
0
LINE
8
annotation
62
1
39
211
10
184.382740
20
119.575874
11
184.458460
21
120.419141
0
LINE
8
annotation
62
1
39
211
10
184.458460
20
120.419141
11
184.458460
21
122.755496
0
LINE
8
annotation
62
1
39
211
10
184.458460
20
122.755496
11
184.458460
21
122.755496
0
LINE
8
annotation
62
1
39
211
10
184.458460
20
122.755496
11
184.382784
21
123.599172
0
LINE
8
annotation
62
1
39
211
10
184.382784
20
123.599172
11
184.164643
21
124.393358
0
LINE
8
annotation
62
1
39
211
10
184.164643
20
124.393358
11
183.817370
21
125.124766
0
LINE
8
annotation
62
1
39
211
10
183.817370
20
125.124766
11
183.354297
21
125.780107
0
LINE
8
annotation
62
1
39
211
10
183.354297
20
125.780107
11
182.788754
21
126.346093
0
LINE
8
annotation
62
1
39
211
10
182.788754
20
126.346093
11
182.134075
21
126.809435
0
LINE
8
annotation
62
1
39
211
10
182.134075
20
126.809435
11
181.403590
21
127.156846
0
LINE
8
annotation
62
1
39
211
10
181.403590
20
127.156846
11
180.610632
21
127.375038
0
LINE
8
annotation
62
1
39
211
10
180.610632
20
127.375038
11
179.768533
21
127.450721
0
LINE
8
annotation
62
1
39
211
10
179.768533
20
127.450721
11
179.768533
21
127.450721
0
LINE
8
annotation
62
1
39
211
10
179.768533
20
127.450721
11
178.926434
21
127.374994
0
LINE
8
annotation
62
1
39
211
10
178.926434
20
127.374994
11
178.133476
21
127.156694
0
LINE
8
annotation
62
1
39
211
10
178.133476
20
127.156694
11
177.402991
21
126.809141
0
LINE
8
annotation
62
1
39
211
10
177.402991
20
126.809141
11
176.748312
21
126.345657
0
LINE
8
annotation
62
1
39
211
10
176.748312
20
126.345657
11
176.182769
21
125.779562
0
LINE
8
annotation
62
1
39
211
10
176.182769
20
125.779562
11
175.719695
21
125.124177
0
LINE
8
annotation
62
1
39
211
10
175.719695
20
125.124177
11
175.372422
21
124.392824
0
LINE
8
annotation
62
1
39
211
10
175.372422
20
124.392824
11
175.154282
21
123.598823
0
LINE
8
annotation
62
1
39
211
10
175.154282
20
123.598823
11
175.078606
21
122.755496
0
LINE
8
annotation
62
1
39
211
10
175.078606
20
122.755496
11
175.078606
21
120.419141
0
LINE
8
annotation
62
1
39
211
10
184.458460
20
132.147270
11
184.458460
21
132.147270
0
LINE
8
annotation
62
1
39
211
10
184.458460
20
132.147270
11
184.382784
21
132.987050
0
LINE
8
annotation
62
1
39
211
10
184.382784
20
132.987050
11
184.164643
21
133.778287
0
LINE
8
annotation
62
1
39
211
10
184.164643
20
133.778287
11
183.817370
21
134.507563
0
LINE
8
annotation
62
1
39
211
10
183.817370
20
134.507563
11
183.354297
21
135.161460
0
LINE
8
annotation
62
1
39
211
10
183.354297
20
135.161460
11
182.788754
21
135.726557
0
LINE
8
annotation
62
1
39
211
10
182.788754
20
135.726557
11
182.134075
21
136.189437
0
LINE
8
annotation
62
1
39
211
10
182.134075
20
136.189437
11
181.403590
21
136.536679
0
LINE
8
annotation
62
1
39
211
10
181.403590
20
136.536679
11
180.610632
21
136.754865
0
LINE
8
annotation
62
1
39
211
10
180.610632
20
136.754865
11
179.768533
21
136.830575
0
LINE
8
annotation
62
1
39
211
10
179.768533
20
136.830575
11
179.768533
21
136.830575
0
LINE
8
annotation
62
1
39
211
10
179.768533
20
136.830575
11
178.926434
21
136.754865
0
LINE
8
annotation
62
1
39
211
10
178.926434
20
136.754865
11
178.133476
21
136.536679
0
LINE
8
annotation
62
1
39
211
10
178.133476
20
136.536679
11
177.402991
21
136.189437
0
LINE
8
annotation
62
1
39
211
10
177.402991
20
136.189437
11
176.748312
21
135.726557
0
LINE
8
annotation
62
1
39
211
10
176.748312
20
135.726557
11
176.182769
21
135.161460
0
LINE
8
annotation
62
1
39
211
10
176.182769
20
135.161460
11
175.719695
21
134.507563
0
LINE
8
annotation
62
1
39
211
10
175.719695
20
134.507563
11
175.372422
21
133.778287
0
LINE
8
annotation
62
1
39
211
10
175.372422
20
133.778287
11
175.154282
21
132.987050
0
LINE
8
annotation
62
1
39
211
10
175.154282
20
132.987050
11
175.078606
21
132.147270
0
LINE
8
annotation
62
1
39
211
10
175.078606
20
132.147270
11
175.078606
21
132.147270
0
LINE
8
annotation
62
1
39
211
10
175.078606
20
132.147270
11
175.154326
21
131.303549
0
LINE
8
annotation
62
1
39
211
10
175.154326
20
131.303549
11
175.372575
21
130.509241
0
LINE
8
annotation
62
1
39
211
10
175.372575
20
130.509241
11
175.719990
21
129.777657
0
LINE
8
annotation
62
1
39
211
10
175.719990
20
129.777657
11
176.183205
21
129.122107
0
LINE
8
annotation
62
1
39
211
10
176.183205
20
129.122107
11
176.748857
21
128.555902
0
LINE
8
annotation
62
1
39
211
10
176.748857
20
128.555902
11
177.403580
21
128.092350
0
LINE
8
annotation
62
1
39
211
10
177.403580
20
128.092350
11
178.134010
21
127.744763
0
LINE
8
annotation
62
1
39
211
10
178.134010
20
127.744763
11
178.926782
21
127.526450
0
LINE
8
annotation
62
1
39
211
10
178.926782
20
127.526450
11
179.768533
21
127.450721
0
LINE
8
annotation
62
1
39
211
10
179.768533
20
127.450721
11
179.768533
21
127.450721
0
LINE
8
annotation
62
1
39
211
10
179.768533
20
127.450721
11
180.610283
21
127.526450
0
LINE
8
annotation
62
1
39
211
10
180.610283
20
127.526450
11
181.403056
21
127.744763
0
LINE
8
annotation
62
1
39
211
10
181.403056
20
127.744763
11
182.133486
21
128.092350
0
LINE
8
annotation
62
1
39
211
10
182.133486
20
128.092350
11
182.788209
21
128.555902
0
LINE
8
annotation
62
1
39
211
10
182.788209
20
128.555902
11
183.353861
21
129.122107
0
LINE
8
annotation
62
1
39
211
10
183.353861
20
129.122107
11
183.817076
21
129.777657
0
LINE
8
annotation
62
1
39
211
10
183.817076
20
129.777657
11
184.164491
21
130.509241
0
LINE
8
annotation
62
1
39
211
10
184.164491
20
130.509241
11
184.382740
21
131.303549
0
LINE
8
annotation
62
1
39
211
10
184.382740
20
131.303549
11
184.458460
21
132.147270
0
LINE
8
annotation
62
1
39
211
10
203.928412
20
126.296451
11
192.380410
21
126.296451
0
LINE
8
annotation
62
1
39
211
10
216.542277
20
115.736499
11
216.542277
21
136.856402
0
LINE
8
annotation
62
1
39
211
10
216.542277
20
136.856402
11
211.847052
21
132.159853
0
LINE
8
boundary
62
5
39
2
10
303.165161
20
189.240719
11
303.165161
21
153.630578
0
LINE
8
boundary
62
5
39
2
10
303.165161
20
153.630578
11
307.620475
21
153.190478
0
LINE
8
boundary
62
5
39
2
10
307.620475
20
153.190478
11
379.504038
21
153.190478
0
LINE
8
boundary
62
5
39
2
10
379.504038
20
153.190478
11
379.504038
21
149.139478
0
LINE
8
boundary
62
5
39
2
10
379.504038
20
149.139478
11
307.620475
21
149.139478
0
LINE
8
boundary
62
5
39
2
10
307.620475
20
149.139478
11
303.165161
21
148.699378
0
LINE
8
boundary
62
5
39
2
10
303.165161
20
148.699378
11
303.165161
21
93.660816
0
LINE
8
boundary
62
5
39
2
10
303.165161
20
93.660816
11
307.620475
21
93.220716
0
LINE
8
boundary
62
5
39
2
10
307.620475
20
93.220716
11
372.129039
21
93.220716
0
LINE
8
boundary
62
5
39
2
10
372.129039
20
93.220716
11
372.129039
21
89.169716
0
LINE
8
boundary
62
5
39
2
10
372.129039
20
89.169716
11
307.620475
21
89.169716
0
LINE
8
boundary
62
5
39
2
10
307.620475
20
89.169716
11
303.165161
21
88.729616
0
LINE
8
boundary
62
5
39
2
10
303.165161
20
88.729616
11
303.165161
21
40.072074
0
LINE
8
boundary
62
5
39
2
10
303.165161
20
40.072074
11
307.620475
21
39.631974
0
LINE
8
boundary
62
5
39
2
10
307.620475
20
39.631974
11
343.956381
21
39.631974
0
LINE
8
boundary
62
5
39
2
10
343.956381
20
39.631974
11
343.956381
21
35.580974
0
LINE
8
boundary
62
5
39
2
10
343.956381
20
35.580974
11
307.620475
21
35.580974
0
LINE
8
boundary
62
5
39
2
10
307.620475
20
35.580974
11
303.165161
21
35.140874
0
LINE
8
boundary
62
5
39
2
10
303.165161
20
35.140874
11
303.165161
21
6.687500
0
LINE
8
boundary
62
5
39
2
10
303.165161
20
6.687500
11
304.173235
21
6.862555
0
LINE
8
boundary
62
5
39
2
10
304.173235
20
6.862555
11
309.635830
21
8.609320
0
LINE
8
boundary
62
5
39
2
10
309.635830
20
8.609320
11
310.399210
21
8.931962
0
LINE
8
boundary
62
5
39
2
10
310.399210
20
8.931962
11
312.416827
21
9.553503
0
LINE
8
boundary
62
5
39
2
10
312.416827
20
9.553503
11
317.578449
21
11.077038
0
LINE
8
boundary
62
5
39
2
10
317.578449
20
11.077038
11
319.581336
21
11.560528
0
LINE
8
boundary
62
5
39
2
10
319.581336
20
11.560528
11
324.904626
21
13.844885
0
LINE
8
boundary
62
5
39
2
10
324.904626
20
13.844885
11
329.822278
21
15.812617
0
LINE
8
boundary
62
5
39
2
10
329.822278
20
15.812617
11
332.262103
21
16.903519
0
LINE
8
boundary
62
5
39
2
10
332.262103
20
16.903519
11
337.112815
21
18.866556
0
LINE
8
boundary
62
5
39
2
10
337.112815
20
18.866556
11
339.879700
21
19.859655
0
LINE
8
boundary
62
5
39
2
10
339.879700
20
19.859655
11
341.188053
21
20.316881
0
LINE
8
boundary
62
5
39
2
10
341.188053
20
20.316881
11
349.308821
21
23.631443
0
LINE
8
boundary
62
5
39
2
10
349.308821
20
23.631443
11
356.601914
21
25.906682
0
LINE
8
boundary
62
5
39
2
10
356.601914
20
25.906682
11
359.207114
21
27.179257
0
LINE
8
boundary
62
5
39
2
10
359.207114
20
27.179257
11
362.380589
21
28.518946
0
LINE
8
boundary
62
5
39
2
10
362.380589
20
28.518946
11
370.528741
21
31.326369
0
LINE
8
boundary
62
5
39
2
10
370.528741
20
31.326369
11
378.539243
21
34.404548
0
LINE
8
boundary
62
5
39
2
10
378.539243
20
34.404548
11
382.330864
21
36.312391
0
LINE
8
boundary
62
5
39
2
10
382.330864
20
36.312391
11
385.628146
21
38.090815
0
LINE
8
boundary
62
5
39
2
10
385.628146
20
38.090815
11
393.886163
21
42.056679
0
LINE
8
boundary
62
5
39
2
10
393.886163
20
42.056679
11
405.234803
21
48.800263
0
LINE
8
boundary
62
5
39
2
10
405.234803
20
48.800263
11
407.254795
21
50.236858
0
LINE
8
boundary
62
5
39
2
10
407.254795
20
50.236858
11
408.594023
21
51.238866
0
LINE
8
boundary
62
5
39
2
10
408.594023
20
51.238866
11
418.819578
21
58.998742
0
LINE
8
boundary
62
5
39
2
10
418.819578
20
58.998742
11
428.288452
21
68.137144
0
LINE
8
boundary
62
5
39
2
10
428.288452
20
68.137144
11
433.933422
21
76.650539
0
LINE
8
boundary
62
5
39
2
10
433.933422
20
76.650539
11
439.531879
21
84.692844
0
LINE
8
boundary
62
5
39
2
10
439.531879
20
84.692844
11
439.754426
21
85.432366
0
LINE
8
boundary
62
5
39
2
10
439.754426
20
85.432366
11
441.691224
21
94.366061
0
LINE
8
boundary
62
5
39
2
10
441.691224
20
94.366061
11
444.484156
21
101.884992
0
LINE
8
boundary
62
5
39
2
10
444.484156
20
101.884992
11
443.997735
21
110.583576
0
LINE
8
boundary
62
5
39
2
10
443.997735
20
110.583576
11
444.897175
21
116.752439
0
LINE
8
boundary
62
5
39
2
10
444.897175
20
116.752439
11
445.051699
21
117.595200
0
LINE
8
boundary
62
5
39
2
10
445.051699
20
117.595200
11
447.913797
21
131.394332
0
LINE
8
boundary
62
5
39
2
10
447.913797
20
131.394332
11
448.973869
21
136.268584
0
LINE
8
boundary
62
5
39
2
10
448.973869
20
136.268584
11
453.810601
21
147.979813
0
LINE
8
boundary
62
5
39
2
10
453.810601
20
147.979813
11
456.684729
21
154.266188
0
LINE
8
boundary
62
5
39
2
10
456.684729
20
154.266188
11
462.086117
21
162.250859
0
LINE
8
boundary
62
5
39
2
10
462.086117
20
162.250859
11
459.973956
21
168.511519
0
LINE
8
boundary
62
5
39
2
10
459.973956
20
168.511519
11
458.910326
21
177.811316
0
LINE
8
boundary
62
5
39
2
10
458.910326
20
177.811316
11
456.721592
21
179.867994
0
LINE
8
boundary
62
5
39
2
10
456.721592
20
179.867994
11
455.299281
21
181.116444
0
LINE
8
boundary
62
5
39
2
10
455.299281
20
181.116444
11
450.120050
21
185.626421
0
LINE
8
boundary
62
5
39
2
10
450.120050
20
185.626421
11
444.344745
21
192.753023
0
LINE
8
boundary
62
5
39
2
10
444.344745
20
192.753023
11
443.521093
21
193.309074
0
LINE
8
boundary
62
5
39
2
10
443.521093
20
193.309074
11
442.784363
21
193.777025
0
LINE
8
boundary
62
5
39
2
10
442.784363
20
193.777025
11
434.511752
21
198.626383
0
LINE
8
boundary
62
5
39
2
10
434.511752
20
198.626383
11
426.679261
21
202.246753
0
LINE
8
boundary
62
5
39
2
10
426.679261
20
202.246753
11
426.040924
21
202.620463
0
LINE
8
boundary
62
5
39
2
10
426.040924
20
202.620463
11
425.432129
21
203.005239
0
LINE
8
boundary
62
5
39
2
10
425.432129
20
203.005239
11
415.636536
21
205.842800
0
LINE
8
boundary
62
5
39
2
10
415.636536
20
205.842800
11
405.185428
21
208.841507
0
LINE
8
boundary
62
5
39
2
10
405.185428
20
208.841507
11
403.857118
21
209.055889
0
LINE
8
boundary
62
5
39
2
10
403.857118
20
209.055889
11
393.258543
21
210.570885
0
LINE
8
boundary
62
5
39
2
10
393.258543
20
210.570885
11
386.435848
21
211.652046
0
LINE
8
boundary
62
5
39
2
10
386.435848
20
211.652046
11
381.043455
21
211.366715
0
LINE
8
boundary
62
5
39
2
10
381.043455
20
211.366715
11
368.839862
21
211.418235
0
LINE
8
boundary
62
5
39
2
10
368.839862
20
211.418235
11
356.276356
21
207.912617
0
LINE
8
boundary
62
5
39
2
10
356.276356
20
207.912617
11
352.595730
21
207.003427
0
LINE
8
boundary
62
5
39
2
10
352.595730
20
207.003427
11
357.051044
21
206.563327
0
LINE
8
boundary
62
5
39
2
10
357.051044
20
206.563327
11
383.415046
21
206.563327
0
LINE
8
boundary
62
5
39
2
10
383.415046
20
206.563327
11
383.415046
21
202.512328
0
LINE
8
boundary
62
5
39
2
10
383.415046
20
202.512328
11
346.663584
21
202.512327
0
LINE
8
boundary
62
5
39
2
10
346.663584
20
202.512327
11
342.208270
21
202.072228
0
LINE
8
boundary
62
5
39
2
10
342.208270
20
202.072228
11
337.589664
21
199.811614
0
LINE
8
boundary
62
5
39
2
10
337.589664
20
199.811614
11
330.718378
21
197.795037
0
LINE
8
boundary
62
5
39
2
10
330.718378
20
197.795037
11
327.948435
21
196.738641
0
LINE
8
boundary
62
5
39
2
10
327.948435
20
196.738641
11
324.868901
21
195.901607
0
LINE
8
boundary
62
5
39
2
10
324.868901
20
195.901607
11
318.236482
21
193.169199
0
LINE
8
boundary
62
5
39
2
10
318.236482
20
193.169199
11
310.967097
21
190.793879
0
LINE
8
boundary
62
5
39
2
10
310.967097
20
190.793879
11
305.021507
21
189.656689
0
LINE
8
boundary
62
5
39
2
10
305.021507
20
189.656689
11
303.165161
21
189.240719
0
LINE
8
annotation
62
1
39
211
10
352.932497
20
34.085674
11
354.497935
21
41.127274
0
LINE
8
annotation
62
1
39
211
10
354.497935
20
41.127274
11
351.366618
21
41.127274
0
LINE
8
annotation
62
1
39
211
10
354.497935
20
37.991541
11
352.932497
21
37.991541
0
LINE
8
annotation
62
1
39
211
10
379.541484
20
89.235659
11
379.541484
21
89.235659
0
LINE
8
annotation
62
1
39
211
10
379.541484
20
89.235659
11
379.566730
21
88.954504
0
LINE
8
annotation
62
1
39
211
10
379.566730
20
88.954504
11
379.639497
21
88.690080
0
LINE
8
annotation
62
1
39
211
10
379.639497
20
88.690080
11
379.755328
21
88.446749
0
LINE
8
annotation
62
1
39
211
10
379.755328
20
88.446749
11
379.909769
21
88.228879
0
LINE
8
annotation
62
1
39
211
10
379.909769
20
88.228879
11
380.098363
21
88.040833
0
LINE
8
annotation
62
1
39
211
10
380.098363
20
88.040833
11
380.316655
21
87.886976
0
LINE
8
annotation
62
1
39
211
10
380.316655
20
87.886976
11
380.560188
21
87.771675
0
LINE
8
annotation
62
1
39
211
10
380.560188
20
87.771675
11
380.824507
21
87.699292
0
LINE
8
annotation
62
1
39
211
10
380.824507
20
87.699292
11
381.105156
21
87.674195
0
LINE
8
annotation
62
1
39
211
10
381.105156
20
87.674195
11
381.105156
21
87.674195
0
LINE
8
annotation
62
1
39
211
10
381.105156
20
87.674195
11
381.385804
21
87.699292
0
LINE
8
annotation
62
1
39
211
10
381.385804
20
87.699292
11
381.650123
21
87.771675
0
LINE
8
annotation
62
1
39
211
10
381.650123
20
87.771675
11
381.893656
21
87.886976
0
LINE
8
annotation
62
1
39
211
10
381.893656
20
87.886976
11
382.111948
21
88.040833
0
LINE
8
annotation
62
1
39
211
10
382.111948
20
88.040833
11
382.300542
21
88.228879
0
LINE
8
annotation
62
1
39
211
10
382.300542
20
88.228879
11
382.454983
21
88.446749
0
LINE
8
annotation
62
1
39
211
10
382.454983
20
88.446749
11
382.570815
21
88.690080
0
LINE
8
annotation
62
1
39
211
10
382.570815
20
88.690080
11
382.643581
21
88.954504
0
LINE
8
annotation
62
1
39
211
10
382.643581
20
88.954504
11
382.668827
21
89.235659
0
LINE
8
annotation
62
1
39
211
10
382.668827
20
89.235659
11
382.668827
21
90.014624
0
LINE
8
annotation
62
1
39
211
10
382.668827
20
90.014624
11
382.668827
21
90.014624
0
LINE
8
annotation
62
1
39
211
10
382.668827
20
90.014624
11
382.643596
21
90.295915
0
LINE
8
annotation
62
1
39
211
10
382.643596
20
90.295915
11
382.570865
21
90.560705
0
LINE
8
annotation
62
1
39
211
10
382.570865
20
90.560705
11
382.455081
21
90.804564
0
LINE
8
annotation
62
1
39
211
10
382.455081
20
90.804564
11
382.300687
21
91.023061
0
LINE
8
annotation
62
1
39
211
10
382.300687
20
91.023061
11
382.112129
21
91.211767
0
LINE
8
annotation
62
1
39
211
10
382.112129
20
91.211767
11
381.893852
21
91.366250
0
LINE
8
annotation
62
1
39
211
10
381.893852
20
91.366250
11
381.650301
21
91.482081
0
LINE
8
annotation
62
1
39
211
10
381.650301
20
91.482081
11
381.385920
21
91.554828
0
LINE
8
annotation
62
1
39
211
10
381.385920
20
91.554828
11
381.105156
21
91.580062
0
LINE
8
annotation
62
1
39
211
10
381.105156
20
91.580062
11
381.105156
21
91.580062
0
LINE
8
annotation
62
1
39
211
10
381.105156
20
91.580062
11
380.824391
21
91.554814
0
LINE
8
annotation
62
1
39
211
10
380.824391
20
91.554814
11
380.560010
21
91.482030
0
LINE
8
annotation
62
1
39
211
10
380.560010
20
91.482030
11
380.316459
21
91.366152
0
LINE
8
annotation
62
1
39
211
10
380.316459
20
91.366152
11
380.098182
21
91.211622
0
LINE
8
annotation
62
1
39
211
10
380.098182
20
91.211622
11
379.909624
21
91.022880
0
LINE
8
annotation
62
1
39
211
10
379.909624
20
91.022880
11
379.755230
21
90.804368
0
LINE
8
annotation
62
1
39
211
10
379.755230
20
90.804368
11
379.639446
21
90.560527
0
LINE
8
annotation
62
1
39
211
10
379.639446
20
90.560527
11
379.566715
21
90.295798
0
LINE
8
annotation
62
1
39
211
10
379.566715
20
90.295798
11
379.541484
21
90.014624
0
LINE
8
annotation
62
1
39
211
10
379.541484
20
90.014624
11
379.541484
21
89.235659
0
LINE
8
annotation
62
1
39
211
10
382.668827
20
93.145941
11
382.668827
21
93.145941
0
LINE
8
annotation
62
1
39
211
10
382.668827
20
93.145941
11
382.643596
21
93.425933
0
LINE
8
annotation
62
1
39
211
10
382.643596
20
93.425933
11
382.570865
21
93.689740
0
LINE
8
annotation
62
1
39
211
10
382.570865
20
93.689740
11
382.455081
21
93.932888
0
LINE
8
annotation
62
1
39
211
10
382.455081
20
93.932888
11
382.300687
21
94.150904
0
LINE
8
annotation
62
1
39
211
10
382.300687
20
94.150904
11
382.112129
21
94.339314
0
LINE
8
annotation
62
1
39
211
10
382.112129
20
94.339314
11
381.893852
21
94.493642
0
LINE
8
annotation
62
1
39
211
10
381.893852
20
94.493642
11
381.650301
21
94.609417
0
LINE
8
annotation
62
1
39
211
10
381.650301
20
94.609417
11
381.385920
21
94.682162
0
LINE
8
annotation
62
1
39
211
10
381.385920
20
94.682162
11
381.105156
21
94.707405
0
LINE
8
annotation
62
1
39
211
10
381.105156
20
94.707405
11
381.105156
21
94.707405
0
LINE
8
annotation
62
1
39
211
10
381.105156
20
94.707405
11
380.824391
21
94.682162
0
LINE
8
annotation
62
1
39
211
10
380.824391
20
94.682162
11
380.560010
21
94.609417
0
LINE
8
annotation
62
1
39
211
10
380.560010
20
94.609417
11
380.316459
21
94.493642
0
LINE
8
annotation
62
1
39
211
10
380.316459
20
94.493642
11
380.098182
21
94.339314
0
LINE
8
annotation
62
1
39
211
10
380.098182
20
94.339314
11
379.909624
21
94.150904
0
LINE
8
annotation
62
1
39
211
10
379.909624
20
94.150904
11
379.755230
21
93.932888
0
LINE
8
annotation
62
1
39
211
10
379.755230
20
93.932888
11
379.639446
21
93.689740
0
LINE
8
annotation
62
1
39
211
10
379.639446
20
93.689740
11
379.566715
21
93.425933
0
LINE
8
annotation
62
1
39
211
10
379.566715
20
93.425933
11
379.541484
21
93.145941
0
LINE
8
annotation
62
1
39
211
10
379.541484
20
93.145941
11
379.541484
21
93.145941
0
LINE
8
annotation
62
1
39
211
10
379.541484
20
93.145941
11
379.566730
21
92.864636
0
LINE
8
annotation
62
1
39
211
10
379.566730
20
92.864636
11
379.639497
21
92.599805
0
LINE
8
annotation
62
1
39
211
10
379.639497
20
92.599805
11
379.755328
21
92.355887
0
LINE
8
annotation
62
1
39
211
10
379.755328
20
92.355887
11
379.909769
21
92.137320
0
LINE
8
annotation
62
1
39
211
10
379.909769
20
92.137320
11
380.098363
21
91.948541
0
LINE
8
annotation
62
1
39
211
10
380.098363
20
91.948541
11
380.316655
21
91.793988
0
LINE
8
annotation
62
1
39
211
10
380.316655
20
91.793988
11
380.560188
21
91.678099
0
LINE
8
annotation
62
1
39
211
10
380.560188
20
91.678099
11
380.824507
21
91.605311
0
LINE
8
annotation
62
1
39
211
10
380.824507
20
91.605311
11
381.105156
21
91.580062
0
LINE
8
annotation
62
1
39
211
10
381.105156
20
91.580062
11
381.105156
21
91.580062
0
LINE
8
annotation
62
1
39
211
10
381.105156
20
91.580062
11
381.385804
21
91.605311
0
LINE
8
annotation
62
1
39
211
10
381.385804
20
91.605311
11
381.650123
21
91.678099
0
LINE
8
annotation
62
1
39
211
10
381.650123
20
91.678099
11
381.893656
21
91.793988
0
LINE
8
annotation
62
1
39
211
10
381.893656
20
91.793988
11
382.111948
21
91.948541
0
LINE
8
annotation
62
1
39
211
10
382.111948
20
91.948541
11
382.300542
21
92.137320
0
LINE
8
annotation
62
1
39
211
10
382.300542
20
92.137320
11
382.454983
21
92.355887
0
LINE
8
annotation
62
1
39
211
10
382.454983
20
92.355887
11
382.570815
21
92.599805
0
LINE
8
annotation
62
1
39
211
10
382.570815
20
92.599805
11
382.643581
21
92.864636
0
LINE
8
annotation
62
1
39
211
10
382.643581
20
92.864636
11
382.668827
21
93.145941
0
LINE
8
annotation
62
1
39
211
10
387.697215
20
147.644178
11
387.697215
21
147.644178
0
LINE
8
annotation
62
1
39
211
10
387.697215
20
147.644178
11
388.144379
21
147.810813
0
LINE
8
annotation
62
1
39
211
10
388.144379
20
147.810813
11
388.554820
21
148.036051
0
LINE
8
annotation
62
1
39
211
10
388.554820
20
148.036051
11
388.924296
21
148.314152
0
LINE
8
annotation
62
1
39
211
10
388.924296
20
148.314152
11
389.248567
21
148.639378
0
LINE
8
annotation
62
1
39
211
10
389.248567
20
148.639378
11
389.523391
21
149.005990
0
LINE
8
annotation
62
1
39
211
10
389.523391
20
149.005990
11
389.744526
21
149.408250
0
LINE
8
annotation
62
1
39
211
10
389.744526
20
149.408250
11
389.907731
21
149.840417
0
LINE
8
annotation
62
1
39
211
10
389.907731
20
149.840417
11
390.008764
21
150.296754
0
LINE
8
annotation
62
1
39
211
10
390.008764
20
150.296754
11
390.043384
21
150.771521
0
LINE
8
annotation
62
1
39
211
10
390.043384
20
150.771521
11
390.043384
21
153.119898
0
LINE
8
annotation
62
1
39
211
10
390.043384
20
153.119898
11
390.043384
21
153.119898
0
LINE
8
annotation
62
1
39
211
10
390.043384
20
153.119898
11
390.018211
21
153.401204
0
LINE
8
annotation
62
1
39
211
10
390.018211
20
153.401204
11
389.945626
21
153.666035
0
LINE
8
annotation
62
1
39
211
10
389.945626
20
153.666035
11
389.830031
21
153.909953
0
LINE
8
annotation
62
1
39
211
10
389.830031
20
153.909953
11
389.675826
21
154.128520
0
LINE
8
annotation
62
1
39
211
10
389.675826
20
154.128520
11
389.487414
21
154.317299
0
LINE
8
annotation
62
1
39
211
10
389.487414
20
154.317299
11
389.269195
21
154.471852
0
LINE
8
annotation
62
1
39
211
10
389.269195
20
154.471852
11
389.025571
21
154.587741
0
LINE
8
annotation
62
1
39
211
10
389.025571
20
154.587741
11
388.760943
21
154.660529
0
LINE
8
annotation
62
1
39
211
10
388.760943
20
154.660529
11
388.479713
21
154.685778
0
LINE
8
annotation
62
1
39
211
10
388.479713
20
154.685778
11
388.479713
21
154.685778
0
LINE
8
annotation
62
1
39
211
10
388.479713
20
154.685778
11
388.199064
21
154.660529
0
LINE
8
annotation
62
1
39
211
10
388.199064
20
154.660529
11
387.934746
21
154.587741
0
LINE
8
annotation
62
1
39
211
10
387.934746
20
154.587741
11
387.691212
21
154.471852
0
LINE
8
annotation
62
1
39
211
10
387.691212
20
154.471852
11
387.472921
21
154.317299
0
LINE
8
annotation
62
1
39
211
10
387.472921
20
154.317299
11
387.284327
21
154.128520
0
LINE
8
annotation
62
1
39
211
10
387.284327
20
154.128520
11
387.129886
21
153.909953
0
LINE
8
annotation
62
1
39
211
10
387.129886
20
153.909953
11
387.014054
21
153.666035
0
LINE
8
annotation
62
1
39
211
10
387.014054
20
153.666035
11
386.941287
21
153.401204
0
LINE
8
annotation
62
1
39
211
10
386.941287
20
153.401204
11
386.916041
21
153.119898
0
LINE
8
annotation
62
1
39
211
10
386.916041
20
153.119898
11
386.916041
21
152.336959
0
LINE
8
annotation
62
1
39
211
10
386.916041
20
152.336959
11
386.916041
21
152.336959
0
LINE
8
annotation
62
1
39
211
10
386.916041
20
152.336959
11
386.941287
21
152.055668
0
LINE
8
annotation
62
1
39
211
10
386.941287
20
152.055668
11
387.014054
21
151.790878
0
LINE
8
annotation
62
1
39
211
10
387.014054
20
151.790878
11
387.129886
21
151.547019
0
LINE
8
annotation
62
1
39
211
10
387.129886
20
151.547019
11
387.284327
21
151.328521
0
LINE
8
annotation
62
1
39
211
10
387.284327
20
151.328521
11
387.472921
21
151.139816
0
LINE
8
annotation
62
1
39
211
10
387.472921
20
151.139816
11
387.691212
21
150.985332
0
LINE
8
annotation
62
1
39
211
10
387.691212
20
150.985332
11
387.934746
21
150.869502
0
LINE
8
annotation
62
1
39
211
10
387.934746
20
150.869502
11
388.199064
21
150.796754
0
LINE
8
annotation
62
1
39
211
10
388.199064
20
150.796754
11
388.479713
21
150.771521
0
LINE
8
annotation
62
1
39
211
10
388.479713
20
150.771521
11
390.043384
21
150.771521
0
LINE
8
annotation
62
1
39
211
10
386.720638
20
146.763978
11
390.241438
21
146.763978
0
LINE
8
annotation
62
1
39
211
10
390.376599
20
201.150730
11
390.376599
21
207.924925
0
LINE
8
annotation
62
1
39
211
10
390.376599
20
207.924925
11
388.870608
21
206.418510
0
LINE
8
annotation
62
1
39
211
10
394.004825
20
201.240084
11
394.004825
21
201.240084
0
LINE
8
annotation
62
1
39
211
10
394.004825
20
201.240084
11
394.162266
21
201.181229
0
LINE
8
annotation
62
1
39
211
10
394.162266
20
201.181229
11
394.323735
21
201.151988
0
LINE
8
annotation
62
1
39
211
10
394.323735
20
201.151988
11
394.485581
21
201.151171
0
LINE
8
annotation
62
1
39
211
10
394.485581
20
201.151171
11
394.644154
21
201.177583
0
LINE
8
annotation
62
1
39
211
10
394.644154
20
201.177583
11
394.795805
21
201.230035
0
LINE
8
annotation
62
1
39
211
10
394.795805
20
201.230035
11
394.936882
21
201.307332
0
LINE
8
annotation
62
1
39
211
10
394.936882
20
201.307332
11
395.063736
21
201.408282
0
LINE
8
annotation
62
1
39
211
10
395.063736
20
201.408282
11
395.172716
21
201.531694
0
LINE
8
annotation
62
1
39
211
10
395.172716
20
201.531694
11
395.260171
21
201.676375
0
LINE
8
annotation
62
1
39
211
10
395.260171
20
201.676375
11
395.260171
21
201.676375
0
LINE
8
annotation
62
1
39
211
10
395.260171
20
201.676375
11
395.521106
21
202.287156
0
LINE
8
annotation
62
1
39
211
10
395.521106
20
202.287156
11
395.716806
21
202.915616
0
LINE
8
annotation
62
1
39
211
10
395.716806
20
202.915616
11
395.847274
21
203.556743
0
LINE
8
annotation
62
1
39
211
10
395.847274
20
203.556743
11
395.912507
21
204.205527
0
LINE
8
annotation
62
1
39
211
10
395.912507
20
204.205527
11
395.912507
21
204.856958
0
LINE
8
annotation
62
1
39
211
10
395.912507
20
204.856958
11
395.847274
21
205.506026
0
LINE
8
annotation
62
1
39
211
10
395.847274
20
205.506026
11
395.716806
21
206.147719
0
LINE
8
annotation
62
1
39
211
10
395.716806
20
206.147719
11
395.521106
21
206.777028
0
LINE
8
annotation
62
1
39
211
10
395.521106
20
206.777028
11
395.260171
21
207.388942
0
LINE
8
annotation
62
1
39
211
10
395.260171
20
207.388942
11
395.260171
21
207.388942
0
LINE
8
annotation
62
1
39
211
10
395.260171
20
207.388942
11
395.226988
21
207.450698
0
LINE
8
annotation
62
1
39
211
10
395.226988
20
207.450698
11
395.189368
21
207.509740
0
LINE
8
annotation
62
1
39
211
10
395.189368
20
207.509740
11
395.147593
21
207.565778
0
LINE
8
annotation
62
1
39
211
10
395.147593
20
207.565778
11
395.101949
21
207.618523
0
LINE
8
annotation
62
1
39
211
10
395.101949
20
207.618523
11
395.052717
21
207.667684
0
LINE
8
annotation
62
1
39
211
10
395.052717
20
207.667684
11
395.000181
21
207.712971
0
LINE
8
annotation
62
1
39
211
10
395.000181
20
207.712971
11
394.944623
21
207.754093
0
LINE
8
annotation
62
1
39
211
10
394.944623
20
207.754093
11
394.886329
21
207.790761
0
LINE
8
annotation
62
1
39
211
10
394.886329
20
207.790761
11
394.825579
21
207.822685
0
LINE
8
annotation
62
1
39
211
10
394.825579
20
207.822685
11
394.825579
21
207.822685
0
LINE
8
annotation
62
1
39
211
10
394.825579
20
207.822685
11
394.666888
21
207.882816
0
LINE
8
annotation
62
1
39
211
10
394.666888
20
207.882816
11
394.504474
21
207.913056
0
LINE
8
annotation
62
1
39
211
10
394.504474
20
207.913056
11
394.341944
21
207.914603
0
LINE
8
annotation
62
1
39
211
10
394.341944
20
207.914603
11
394.182907
21
207.888658
0
LINE
8
annotation
62
1
39
211
10
394.182907
20
207.888658
11
394.030972
21
207.836420
0
LINE
8
annotation
62
1
39
211
10
394.030972
20
207.836420
11
393.889746
21
207.759087
0
LINE
8
annotation
62
1
39
211
10
393.889746
20
207.759087
11
393.762838
21
207.657860
0
LINE
8
annotation
62
1
39
211
10
393.762838
20
207.657860
11
393.653857
21
207.533937
0
LINE
8
annotation
62
1
39
211
10
393.653857
20
207.533937
11
393.566410
21
207.388518
0
LINE
8
annotation
62
1
39
211
10
393.566410
20
207.388518
11
393.566410
21
207.388518
0
LINE
8
annotation
62
1
39
211
10
393.566410
20
207.388518
11
393.306734
21
206.777862
0
LINE
8
annotation
62
1
39
211
10
393.306734
20
206.777862
11
393.111977
21
206.149497
0
LINE
8
annotation
62
1
39
211
10
393.111977
20
206.149497
11
392.982139
21
205.508433
0
LINE
8
annotation
62
1
39
211
10
392.982139
20
205.508433
11
392.917221
21
204.859680
0
LINE
8
annotation
62
1
39
211
10
392.917221
20
204.859680
11
392.917221
21
204.208249
0
LINE
8
annotation
62
1
39
211
10
392.917221
20
204.208249
11
392.982139
21
203.559150
0
LINE
8
annotation
62
1
39
211
10
392.982139
20
203.559150
11
393.111977
21
202.917394
0
LINE
8
annotation
62
1
39
211
10
393.111977
20
202.917394
11
393.306734
21
202.287990
0
LINE
8
annotation
62
1
39
211
10
393.306734
20
202.287990
11
393.566410
21
201.675950
0
LINE
8
annotation
62
1
39
211
10
393.566410
20
201.675950
11
393.566410
21
201.675950
0
LINE
8
annotation
62
1
39
211
10
393.566410
20
201.675950
11
393.599473
21
201.614318
0
LINE
8
annotation
62
1
39
211
10
393.599473
20
201.614318
11
393.636815
21
201.555570
0
LINE
8
annotation
62
1
39
211
10
393.636815
20
201.555570
11
393.678279
21
201.499886
0
LINE
8
annotation
62
1
39
211
10
393.678279
20
201.499886
11
393.723709
21
201.447442
0
LINE
8
annotation
62
1
39
211
10
393.723709
20
201.447442
11
393.772946
21
201.398418
0
LINE
8
annotation
62
1
39
211
10
393.772946
20
201.398418
11
393.825834
21
201.352992
0
LINE
8
annotation
62
1
39
211
10
393.825834
20
201.352992
11
393.882214
21
201.311342
0
LINE
8
annotation
62
1
39
211
10
393.882214
20
201.311342
11
393.941931
21
201.273647
0
LINE
8
annotation
62
1
39
211
10
393.941931
20
201.273647
11
394.004825
21
201.240084
0
LINE
8
annotation
62
1
39
211
10
352.689688
20
126.158371
11
347.767579
21
119.038991
0
LINE
8
annotation
62
1
39
211
10
347.767579
20
119.038991
11
342.844544
21
126.158371
0
LINE
8
annotation
62
1
39
211
10
347.767579
20
119.611911
11
347.767579
21
111.398523
0
LINE
8
annotation
62
1
39
211
10
366.296062
20
118.778447
11
358.226135
21
118.778447
0
LINE
8
annotation
62
1
39
211
10
375.110830
20
111.398986
11
375.110830
21
126.157909
0
LINE
8
annotation
62
1
39
211
10
375.110830
20
126.157909
11
371.829732
21
122.875886
0
LINE
8
annotation
62
1
39
211
10
383.015639
20
111.593661
11
383.015639
21
111.593661
0
LINE
8
annotation
62
1
39
211
10
383.015639
20
111.593661
11
383.358655
21
111.465433
0
LINE
8
annotation
62
1
39
211
10
383.358655
20
111.465433
11
383.710446
21
111.401727
0
LINE
8
annotation
62
1
39
211
10
383.710446
20
111.401727
11
384.063060
21
111.399945
0
LINE
8
annotation
62
1
39
211
10
384.063060
20
111.399945
11
384.408544
21
111.457491
0
LINE
8
annotation
62
1
39
211
10
384.408544
20
111.457491
11
384.738945
21
111.571766
0
LINE
8
annotation
62
1
39
211
10
384.738945
20
111.571766
11
385.046310
21
111.740173
0
LINE
8
annotation
62
1
39
211
10
385.046310
20
111.740173
11
385.322685
21
111.960114
0
LINE
8
annotation
62
1
39
211
10
385.322685
20
111.960114
11
385.560119
21
112.228991
0
LINE
8
annotation
62
1
39
211
10
385.560119
20
112.228991
11
385.750658
21
112.544207
0
LINE
8
annotation
62
1
39
211
10
385.750658
20
112.544207
11
385.750658
21
112.544207
0
LINE
8
annotation
62
1
39
211
10
385.750658
20
112.544207
11
386.319156
21
113.874915
0
LINE
8
annotation
62
1
39
211
10
386.319156
20
113.874915
11
386.745529
21
115.244138
0
LINE
8
annotation
62
1
39
211
10
386.745529
20
115.244138
11
387.029777
21
116.640960
0
LINE
8
annotation
62
1
39
211
10
387.029777
20
116.640960
11
387.171902
21
118.054465
0
LINE
8
annotation
62
1
39
211
10
387.171902
20
118.054465
11
387.171902
21
119.473737
0
LINE
8
annotation
62
1
39
211
10
387.171902
20
119.473737
11
387.029777
21
120.887859
0
LINE
8
annotation
62
1
39
211
10
387.029777
20
120.887859
11
386.745529
21
122.285915
0
LINE
8
annotation
62
1
39
211
10
386.745529
20
122.285915
11
386.319156
21
123.656989
0
LINE
8
annotation
62
1
39
211
10
386.319156
20
123.656989
11
385.750658
21
124.990165
0
LINE
8
annotation
62
1
39
211
10
385.750658
20
124.990165
11
385.750658
21
124.990165
0
LINE
8
annotation
62
1
39
211
10
385.750658
20
124.990165
11
385.678362
21
125.124711
0
LINE
8
annotation
62
1
39
211
10
385.678362
20
125.124711
11
385.596399
21
125.253345
0
LINE
8
annotation
62
1
39
211
10
385.596399
20
125.253345
11
385.505386
21
125.375436
0
LINE
8
annotation
62
1
39
211
10
385.505386
20
125.375436
11
385.405940
21
125.490351
0
LINE
8
annotation
62
1
39
211
10
385.405940
20
125.490351
11
385.298678
21
125.597458
0
LINE
8
annotation
62
1
39
211
10
385.298678
20
125.597458
11
385.184218
21
125.696125
0
LINE
8
annotation
62
1
39
211
10
385.184218
20
125.696125
11
385.063175
21
125.785718
0
LINE
8
annotation
62
1
39
211
10
385.063175
20
125.785718
11
384.936169
21
125.865607
0
LINE
8
annotation
62
1
39
211
10
384.936169
20
125.865607
11
384.803814
21
125.935158
0
LINE
8
annotation
62
1
39
211
10
384.803814
20
125.935158
11
384.803814
21
125.935158
0
LINE
8
annotation
62
1
39
211
10
384.803814
20
125.935158
11
384.458075
21
126.066166
0
LINE
8
annotation
62
1
39
211
10
384.458075
20
126.066166
11
384.104223
21
126.132049
0
LINE
8
annotation
62
1
39
211
10
384.104223
20
126.132049
11
383.750119
21
126.135421
0
LINE
8
annotation
62
1
39
211
10
383.750119
20
126.135421
11
383.403626
21
126.078895
0
LINE
8
annotation
62
1
39
211
10
383.403626
20
126.078895
11
383.072604
21
125.965083
0
LINE
8
annotation
62
1
39
211
10
383.072604
20
125.965083
11
382.764916
21
125.796599
0
LINE
8
annotation
62
1
39
211
10
382.764916
20
125.796599
11
382.488422
21
125.576055
0
LINE
8
annotation
62
1
39
211
10
382.488422
20
125.576055
11
382.250985
21
125.306064
0
LINE
8
annotation
62
1
39
211
10
382.250985
20
125.306064
11
382.060465
21
124.989239
0
LINE
8
annotation
62
1
39
211
10
382.060465
20
124.989239
11
382.060465
21
124.989239
0
LINE
8
annotation
62
1
39
211
10
382.060465
20
124.989239
11
381.494710
21
123.658806
0
LINE
8
annotation
62
1
39
211
10
381.494710
20
123.658806
11
381.070394
21
122.289789
0
LINE
8
annotation
62
1
39
211
10
381.070394
20
122.289789
11
380.787516
21
120.893104
0
LINE
8
annotation
62
1
39
211
10
380.787516
20
120.893104
11
380.646077
21
119.479667
0
LINE
8
annotation
62
1
39
211
10
380.646077
20
119.479667
11
380.646077
21
118.060396
0
LINE
8
annotation
62
1
39
211
10
380.646077
20
118.060396
11
380.787516
21
116.646205
0
LINE
8
annotation
62
1
39
211
10
380.787516
20
116.646205
11
381.070394
21
115.248012
0
LINE
8
annotation
62
1
39
211
10
381.070394
20
115.248012
11
381.494710
21
113.876732
0
LINE
8
annotation
62
1
39
211
10
381.494710
20
113.876732
11
382.060465
21
112.543282
0
LINE
8
annotation
62
1
39
211
10
382.060465
20
112.543282
11
382.060465
21
112.543282
0
LINE
8
annotation
62
1
39
211
10
382.060465
20
112.543282
11
382.132498
21
112.409004
0
LINE
8
annotation
62
1
39
211
10
382.132498
20
112.409004
11
382.213856
21
112.281010
0
LINE
8
annotation
62
1
39
211
10
382.213856
20
112.281010
11
382.304195
21
112.159690
0
LINE
8
annotation
62
1
39
211
10
382.304195
20
112.159690
11
382.403172
21
112.045432
0
LINE
8
annotation
62
1
39
211
10
382.403172
20
112.045432
11
382.510445
21
111.938623
0
LINE
8
annotation
62
1
39
211
10
382.510445
20
111.938623
11
382.625671
21
111.839653
0
LINE
8
annotation
62
1
39
211
10
382.625671
20
111.839653
11
382.748507
21
111.748911
0
LINE
8
annotation
62
1
39
211
10
382.748507
20
111.748911
11
382.878611
21
111.666784
0
LINE
8
annotation
62
1
39
211
10
382.878611
20
111.666784
11
383.015639
21
111.593661
0
LINE
8
annotation
62
1
39
211
10
400.776699
20
118.778447
11
392.706772
21
118.778447
0
LINE
8
annotation
62
1
39
211
10
409.591467
20
111.398986
11
409.591467
21
126.157909
0
LINE
8
annotation
62
1
39
211
10
409.591467
20
126.157909
11
406.310369
21
122.875886
0
LINE
8
boundary
62
5
39
2
10
381.285509
20
248.768617
11
382.004627
21
250.443841
0
LINE
8
boundary
62
5
39
2
10
382.004627
20
250.443841
11
385.608336
21
257.369760
0
LINE
8
boundary
62
5
39
2
10
385.608336
20
257.369760
11
389.190464
21
264.084106
0
LINE
8
boundary
62
5
39
2
10
389.190464
20
264.084106
11
389.726821
21
266.328952
0
LINE
8
boundary
62
5
39
2
10
389.726821
20
266.328952
11
390.113899
21
268.186874
0
LINE
8
boundary
62
5
39
2
10
390.113899
20
268.186874
11
392.487839
21
277.183894
0
LINE
8
boundary
62
5
39
2
10
392.487839
20
277.183894
11
394.105522
21
285.990121
0
LINE
8
boundary
62
5
39
2
10
394.105522
20
285.990121
11
394.035401
21
289.073186
0
LINE
8
boundary
62
5
39
2
10
394.035401
20
289.073186
11
393.591925
21
292.925633
0
LINE
8
boundary
62
5
39
2
10
393.591925
20
292.925633
11
392.762920
21
303.288984
0
LINE
8
boundary
62
5
39
2
10
392.762920
20
303.288984
11
391.998532
21
310.384688
0
LINE
8
boundary
62
5
39
2
10
391.998532
20
310.384688
11
391.002659
21
316.717335
0
LINE
8
boundary
62
5
39
2
10
391.002659
20
316.717335
11
388.851137
21
328.886969
0
LINE
8
boundary
62
5
39
2
10
388.851137
20
328.886969
11
388.792340
21
329.421952
0
LINE
8
boundary
62
5
39
2
10
388.792340
20
329.421952
11
384.936140
21
344.496942
0
LINE
8
boundary
62
5
39
2
10
384.936140
20
344.496942
11
382.315637
21
349.268454
0
LINE
8
boundary
62
5
39
2
10
382.315637
20
349.268454
11
378.536165
21
357.028246
0
LINE
8
boundary
62
5
39
2
10
378.536165
20
357.028246
11
377.946748
21
358.479198
0
LINE
8
boundary
62
5
39
2
10
377.946748
20
358.479198
11
371.193582
21
366.826743
0
LINE
8
boundary
62
5
39
2
10
371.193582
20
366.826743
11
367.397444
21
372.824384
0
LINE
8
boundary
62
5
39
2
10
367.397444
20
372.824384
11
360.475402
21
379.380278
0
LINE
8
boundary
62
5
39
2
10
360.475402
20
379.380278
11
353.211426
21
387.465644
0
LINE
8
boundary
62
5
39
2
10
353.211426
20
387.465644
11
350.680936
21
389.030990
0
LINE
8
boundary
62
5
39
2
10
350.680936
20
389.030990
11
347.915121
21
389.386545
0
LINE
8
boundary
62
5
39
2
10
347.915121
20
389.386545
11
331.246285
21
396.091851
0
LINE
8
boundary
62
5
39
2
10
331.246285
20
396.091851
11
323.082399
21
397.905693
0
LINE
8
boundary
62
5
39
2
10
323.082399
20
397.905693
11
315.815351
21
399.432184
0
LINE
8
boundary
62
5
39
2
10
315.815351
20
399.432184
11
308.092245
21
400.458492
0
LINE
8
boundary
62
5
39
2
10
308.092245
20
400.458492
11
305.298854
21
400.720851
0
LINE
8
boundary
62
5
39
2
10
305.298854
20
400.720851
11
303.165161
21
401.409199
0
LINE
8
boundary
62
5
39
2
10
303.165161
20
401.409199
11
303.165161
21
372.621543
0
LINE
8
boundary
62
5
39
2
10
303.165161
20
372.621543
11
307.620475
21
372.181443
0
LINE
8
boundary
62
5
39
2
10
307.620475
20
372.181443
11
336.591790
21
372.181443
0
LINE
8
boundary
62
5
39
2
10
336.591790
20
372.181443
11
336.591790
21
368.130443
0
LINE
8
boundary
62
5
39
2
10
336.591790
20
368.130443
11
307.620475
21
368.130443
0
LINE
8
boundary
62
5
39
2
10
307.620475
20
368.130443
11
303.165161
21
367.690343
0
LINE
8
boundary
62
5
39
2
10
303.165161
20
367.690343
11
303.165161
21
312.651781
0
LINE
8
boundary
62
5
39
2
10
303.165161
20
312.651781
11
307.620475
21
312.211681
0
LINE
8
boundary
62
5
39
2
10
307.620475
20
312.211681
11
347.526637
21
312.211681
0
LINE
8
boundary
62
5
39
2
10
347.526637
20
312.211681
11
347.526638
21
308.160681
0
LINE
8
boundary
62
5
39
2
10
347.526638
20
308.160681
11
307.620475
21
308.160681
0
LINE
8
boundary
62
5
39
2
10
307.620475
20
308.160681
11
303.165161
21
307.720581
0
LINE
8
boundary
62
5
39
2
10
303.165161
20
307.720581
11
303.165161
21
259.063039
0
LINE
8
boundary
62
5
39
2
10
303.165161
20
259.063039
11
307.620475
21
258.622939
0
LINE
8
boundary
62
5
39
2
10
307.620475
20
258.622939
11
344.385394
21
258.622939
0
LINE
8
boundary
62
5
39
2
10
344.385394
20
258.622939
11
344.385394
21
254.571939
0
LINE
8
boundary
62
5
39
2
10
344.385394
20
254.571939
11
307.620475
21
254.571939
0
LINE
8
boundary
62
5
39
2
10
307.620475
20
254.571939
11
303.165161
21
254.131839
0
LINE
8
boundary
62
5
39
2
10
303.165161
20
254.131839
11
303.165161
21
219.626687
0
LINE
8
boundary
62
5
39
2
10
303.165161
20
219.626687
11
307.620475
21
219.186586
0
LINE
8
boundary
62
5
39
2
10
307.620475
20
219.186586
11
328.986631
21
219.186587
0
LINE
8
boundary
62
5
39
2
10
328.986631
20
219.186587
11
328.986631
21
215.135586
0
LINE
8
boundary
62
5
39
2
10
328.986631
20
215.135586
11
326.062571
21
214.846745
0
LINE
8
boundary
62
5
39
2
10
326.062571
20
214.846745
11
331.827382
21
214.918685
0
LINE
8
boundary
62
5
39
2
10
331.827382
20
214.918685
11
333.894643
21
214.886752
0
LINE
8
boundary
62
5
39
2
10
333.894643
20
214.886752
11
343.611602
21
215.929288
0
LINE
8
boundary
62
5
39
2
10
343.611602
20
215.929288
11
354.504893
21
218.861696
0
LINE
8
boundary
62
5
39
2
10
354.504893
20
218.861696
11
365.016299
21
224.772037
0
LINE
8
boundary
62
5
39
2
10
365.016299
20
224.772037
11
366.286429
21
226.192257
0
LINE
8
boundary
62
5
39
2
10
366.286429
20
226.192257
11
373.305852
21
234.359874
0
LINE
8
boundary
62
5
39
2
10
373.305852
20
234.359874
11
376.453515
21
240.766683
0
LINE
8
boundary
62
5
39
2
10
376.453515
20
240.766683
11
380.681725
21
247.048132
0
LINE
8
boundary
62
5
39
2
10
380.681725
20
247.048132
11
381.285509
21
248.768617
0
LINE
8
annotation
62
1
39
211
10
333.734082
20
218.840436
11
333.734082
21
218.840436
0
LINE
8
annotation
62
1
39
211
10
333.734082
20
218.840436
11
333.520418
21
218.760325
0
LINE
8
annotation
62
1
39
211
10
333.520418
20
218.760325
11
333.324353
21
218.652384
0
LINE
8
annotation
62
1
39
211
10
333.324353
20
218.652384
11
333.147900
21
218.519319
0
LINE
8
annotation
62
1
39
211
10
333.147900
20
218.519319
11
332.993072
21
218.363834
0
LINE
8
annotation
62
1
39
211
10
332.993072
20
218.363834
11
332.861881
21
218.188633
0
LINE
8
annotation
62
1
39
211
10
332.861881
20
218.188633
11
332.756340
21
217.996420
0
LINE
8
annotation
62
1
39
211
10
332.756340
20
217.996420
11
332.678461
21
217.789900
0
LINE
8
annotation
62
1
39
211
10
332.678461
20
217.789900
11
332.630258
21
217.571777
0
LINE
8
annotation
62
1
39
211
10
332.630258
20
217.571777
11
332.613744
21
217.344755
0
LINE
8
annotation
62
1
39
211
10
332.613744
20
217.344755
11
332.613744
21
216.228419
0
LINE
8
annotation
62
1
39
211
10
332.613744
20
216.228419
11
332.613744
21
216.228419
0
LINE
8
annotation
62
1
39
211
10
332.613744
20
216.228419
11
332.625785
21
216.094249
0
LINE
8
annotation
62
1
39
211
10
332.625785
20
216.094249
11
332.660493
21
215.967950
0
LINE
8
annotation
62
1
39
211
10
332.660493
20
215.967950
11
332.715743
21
215.851634
0
LINE
8
annotation
62
1
39
211
10
332.715743
20
215.851634
11
332.789408
21
215.747415
0
LINE
8
annotation
62
1
39
211
10
332.789408
20
215.747415
11
332.879364
21
215.657406
0
LINE
8
annotation
62
1
39
211
10
332.879364
20
215.657406
11
332.983484
21
215.583721
0
LINE
8
annotation
62
1
39
211
10
332.983484
20
215.583721
11
333.099645
21
215.528472
0
LINE
8
annotation
62
1
39
211
10
333.099645
20
215.528472
11
333.225719
21
215.493773
0
LINE
8
annotation
62
1
39
211
10
333.225719
20
215.493773
11
333.359583
21
215.481737
0
LINE
8
annotation
62
1
39
211
10
333.359583
20
215.481737
11
333.359583
21
215.481737
0
LINE
8
annotation
62
1
39
211
10
333.359583
20
215.481737
11
333.493724
21
215.493773
0
LINE
8
annotation
62
1
39
211
10
333.493724
20
215.493773
11
333.619946
21
215.528472
0
LINE
8
annotation
62
1
39
211
10
333.619946
20
215.528472
11
333.736149
21
215.583721
0
LINE
8
annotation
62
1
39
211
10
333.736149
20
215.583721
11
333.840235
21
215.657406
0
LINE
8
annotation
62
1
39
211
10
333.840235
20
215.657406
11
333.930104
21
215.747415
0
LINE
8
annotation
62
1
39
211
10
333.930104
20
215.747415
11
334.003657
21
215.851634
0
LINE
8
annotation
62
1
39
211
10
334.003657
20
215.851634
11
334.058793
21
215.967950
0
LINE
8
annotation
62
1
39
211
10
334.058793
20
215.967950
11
334.093415
21
216.094249
0
LINE
8
annotation
62
1
39
211
10
334.093415
20
216.094249
11
334.105422
21
216.228419
0
LINE
8
annotation
62
1
39
211
10
334.105422
20
216.228419
11
334.105422
21
216.599969
0
LINE
8
annotation
62
1
39
211
10
334.105422
20
216.599969
11
334.105422
21
216.599969
0
LINE
8
annotation
62
1
39
211
10
334.105422
20
216.599969
11
334.093415
21
216.734074
0
LINE
8
annotation
62
1
39
211
10
334.093415
20
216.734074
11
334.058793
21
216.860199
0
LINE
8
annotation
62
1
39
211
10
334.058793
20
216.860199
11
334.003657
21
216.976263
0
LINE
8
annotation
62
1
39
211
10
334.003657
20
216.976263
11
333.930104
21
217.080183
0
LINE
8
annotation
62
1
39
211
10
333.930104
20
217.080183
11
333.840235
21
217.169877
0
LINE
8
annotation
62
1
39
211
10
333.840235
20
217.169877
11
333.736149
21
217.243263
0
LINE
8
annotation
62
1
39
211
10
333.736149
20
217.243263
11
333.619946
21
217.298260
0
LINE
8
annotation
62
1
39
211
10
333.619946
20
217.298260
11
333.493724
21
217.332784
0
LINE
8
annotation
62
1
39
211
10
333.493724
20
217.332784
11
333.359583
21
217.344755
0
LINE
8
annotation
62
1
39
211
10
333.359583
20
217.344755
11
332.613744
21
217.344755
0
LINE
8
annotation
62
1
39
211
10
332.520329
20
215.061900
11
334.199679
21
215.061900
0
LINE
8
annotation
62
1
39
211
10
353.361511
20
253.076639
11
354.926949
21
260.118239
0
LINE
8
annotation
62
1
39
211
10
354.926949
20
260.118239
11
351.795632
21
260.118239
0
LINE
8
annotation
62
1
39
211
10
354.926949
20
256.982506
11
353.361511
21
256.982506
0
LINE
8
annotation
62
1
39
211
10
354.939083
20
308.226624
11
354.939083
21
308.226624
0
LINE
8
annotation
62
1
39
211
10
354.939083
20
308.226624
11
354.964329
21
307.945470
0
LINE
8
annotation
62
1
39
211
10
354.964329
20
307.945470
11
355.037095
21
307.681045
0
LINE
8
annotation
62
1
39
211
10
355.037095
20
307.681045
11
355.152927
21
307.437715
0
LINE
8
annotation
62
1
39
211
10
355.152927
20
307.437715
11
355.307368
21
307.219844
0
LINE
8
annotation
62
1
39
211
10
355.307368
20
307.219844
11
355.495962
21
307.031798
0
LINE
8
annotation
62
1
39
211
10
355.495962
20
307.031798
11
355.714254
21
306.877942
0
LINE
8
annotation
62
1
39
211
10
355.714254
20
306.877942
11
355.957787
21
306.762640
0
LINE
8
annotation
62
1
39
211
10
355.957787
20
306.762640
11
356.222106
21
306.690258
0
LINE
8
annotation
62
1
39
211
10
356.222106
20
306.690258
11
356.502754
21
306.665160
0
LINE
8
annotation
62
1
39
211
10
356.502754
20
306.665160
11
356.502754
21
306.665160
0
LINE
8
annotation
62
1
39
211
10
356.502754
20
306.665160
11
356.783403
21
306.690258
0
LINE
8
annotation
62
1
39
211
10
356.783403
20
306.690258
11
357.047722
21
306.762640
0
LINE
8
annotation
62
1
39
211
10
357.047722
20
306.762640
11
357.291255
21
306.877942
0
LINE
8
annotation
62
1
39
211
10
357.291255
20
306.877942
11
357.509546
21
307.031798
0
LINE
8
annotation
62
1
39
211
10
357.509546
20
307.031798
11
357.698141
21
307.219844
0
LINE
8
annotation
62
1
39
211
10
357.698141
20
307.219844
11
357.852582
21
307.437715
0
LINE
8
annotation
62
1
39
211
10
357.852582
20
307.437715
11
357.968413
21
307.681045
0
LINE
8
annotation
62
1
39
211
10
357.968413
20
307.681045
11
358.041180
21
307.945470
0
LINE
8
annotation
62
1
39
211
10
358.041180
20
307.945470
11
358.066426
21
308.226624
0
LINE
8
annotation
62
1
39
211
10
358.066426
20
308.226624
11
358.066426
21
309.005589
0
LINE
8
annotation
62
1
39
211
10
358.066426
20
309.005589
11
358.066426
21
309.005589
0
LINE
8
annotation
62
1
39
211
10
358.066426
20
309.005589
11
358.041195
21
309.286880
0
LINE
8
annotation
62
1
39
211
10
358.041195
20
309.286880
11
357.968464
21
309.551670
0
LINE
8
annotation
62
1
39
211
10
357.968464
20
309.551670
11
357.852680
21
309.795529
0
LINE
8
annotation
62
1
39
211
10
357.852680
20
309.795529
11
357.698286
21
310.014027
0
LINE
8
annotation
62
1
39
211
10
357.698286
20
310.014027
11
357.509728
21
310.202732
0
LINE
8
annotation
62
1
39
211
10
357.509728
20
310.202732
11
357.291451
21
310.357216
0
LINE
8
annotation
62
1
39
211
10
357.291451
20
310.357216
11
357.047900
21
310.473046
0
LINE
8
annotation
62
1
39
211
10
357.047900
20
310.473046
11
356.783519
21
310.545794
0
LINE
8
annotation
62
1
39
211
10
356.783519
20
310.545794
11
356.502754
21
310.571027
0
LINE
8
annotation
62
1
39
211
10
356.502754
20
310.571027
11
356.502754
21
310.571027
0
LINE
8
annotation
62
1
39
211
10
356.502754
20
310.571027
11
356.221989
21
310.545779
0
LINE
8
annotation
62
1
39
211
10
356.221989
20
310.545779
11
355.957609
21
310.472995
0
LINE
8
annotation
62
1
39
211
10
355.957609
20
310.472995
11
355.714057
21
310.357118
0
LINE
8
annotation
62
1
39
211
10
355.714057
20
310.357118
11
355.495780
21
310.202587
0
LINE
8
annotation
62
1
39
211
10
355.495780
20
310.202587
11
355.307223
21
310.013845
0
LINE
8
annotation
62
1
39
211
10
355.307223
20
310.013845
11
355.152829
21
309.795333
0
LINE
8
annotation
62
1
39
211
10
355.152829
20
309.795333
11
355.037044
21
309.551492
0
LINE
8
annotation
62
1
39
211
10
355.037044
20
309.551492
11
354.964314
21
309.286764
0
LINE
8
annotation
62
1
39
211
10
354.964314
20
309.286764
11
354.939083
21
309.005589
0
LINE
8
annotation
62
1
39
211
10
354.939083
20
309.005589
11
354.939083
21
308.226624
0
LINE
8
annotation
62
1
39
211
10
358.066426
20
312.136907
11
358.066426
21
312.136907
0
LINE
8
annotation
62
1
39
211
10
358.066426
20
312.136907
11
358.041195
21
312.416898
0
LINE
8
annotation
62
1
39
211
10
358.041195
20
312.416898
11
357.968464
21
312.680705
0
LINE
8
annotation
62
1
39
211
10
357.968464
20
312.680705
11
357.852680
21
312.923853
0
LINE
8
annotation
62
1
39
211
10
357.852680
20
312.923853
11
357.698286
21
313.141869
0
LINE
8
annotation
62
1
39
211
10
357.698286
20
313.141869
11
357.509728
21
313.330279
0
LINE
8
annotation
62
1
39
211
10
357.509728
20
313.330279
11
357.291451
21
313.484608
0
LINE
8
annotation
62
1
39
211
10
357.291451
20
313.484608
11
357.047900
21
313.600382
0
LINE
8
annotation
62
1
39
211
10
357.047900
20
313.600382
11
356.783519
21
313.673127
0
LINE
8
annotation
62
1
39
211
10
356.783519
20
313.673127
11
356.502754
21
313.698370
0
LINE
8
annotation
62
1
39
211
10
356.502754
20
313.698370
11
356.502754
21
313.698370
0
LINE
8
annotation
62
1
39
211
10
356.502754
20
313.698370
11
356.221989
21
313.673127
0
LINE
8
annotation
62
1
39
211
10
356.221989
20
313.673127
11
355.957609
21
313.600382
0
LINE
8
annotation
62
1
39
211
10
355.957609
20
313.600382
11
355.714057
21
313.484608
0
LINE
8
annotation
62
1
39
211
10
355.714057
20
313.484608
11
355.495780
21
313.330279
0
LINE
8
annotation
62
1
39
211
10
355.495780
20
313.330279
11
355.307223
21
313.141869
0
LINE
8
annotation
62
1
39
211
10
355.307223
20
313.141869
11
355.152829
21
312.923853
0
LINE
8
annotation
62
1
39
211
10
355.152829
20
312.923853
11
355.037044
21
312.680705
0
LINE
8
annotation
62
1
39
211
10
355.037044
20
312.680705
11
354.964314
21
312.416898
0
LINE
8
annotation
62
1
39
211
10
354.964314
20
312.416898
11
354.939083
21
312.136907
0
LINE
8
annotation
62
1
39
211
10
354.939083
20
312.136907
11
354.939083
21
312.136907
0
LINE
8
annotation
62
1
39
211
10
354.939083
20
312.136907
11
354.964329
21
311.855601
0
LINE
8
annotation
62
1
39
211
10
354.964329
20
311.855601
11
355.037095
21
311.590770
0
LINE
8
annotation
62
1
39
211
10
355.037095
20
311.590770
11
355.152927
21
311.346852
0
LINE
8
annotation
62
1
39
211
10
355.152927
20
311.346852
11
355.307368
21
311.128285
0
LINE
8
annotation
62
1
39
211
10
355.307368
20
311.128285
11
355.495962
21
310.939506
0
LINE
8
annotation
62
1
39
211
10
355.495962
20
310.939506
11
355.714254
21
310.784953
0
LINE
8
annotation
62
1
39
211
10
355.714254
20
310.784953
11
355.957787
21
310.669064
0
LINE
8
annotation
62
1
39
211
10
355.957787
20
310.669064
11
356.222106
21
310.596276
0
LINE
8
annotation
62
1
39
211
10
356.222106
20
310.596276
11
356.502754
21
310.571027
0
LINE
8
annotation
62
1
39
211
10
356.502754
20
310.571027
11
356.502754
21
310.571027
0
LINE
8
annotation
62
1
39
211
10
356.502754
20
310.571027
11
356.783403
21
310.596276
0
LINE
8
annotation
62
1
39
211
10
356.783403
20
310.596276
11
357.047722
21
310.669064
0
LINE
8
annotation
62
1
39
211
10
357.047722
20
310.669064
11
357.291255
21
310.784953
0
LINE
8
annotation
62
1
39
211
10
357.291255
20
310.784953
11
357.509546
21
310.939506
0
LINE
8
annotation
62
1
39
211
10
357.509546
20
310.939506
11
357.698141
21
311.128285
0
LINE
8
annotation
62
1
39
211
10
357.698141
20
311.128285
11
357.852582
21
311.346852
0
LINE
8
annotation
62
1
39
211
10
357.852582
20
311.346852
11
357.968413
21
311.590770
0
LINE
8
annotation
62
1
39
211
10
357.968413
20
311.590770
11
358.041180
21
311.855601
0
LINE
8
annotation
62
1
39
211
10
358.041180
20
311.855601
11
358.066426
21
312.136907
0
LINE
8
annotation
62
1
39
211
10
344.784967
20
366.635143
11
344.784967
21
366.635143
0
LINE
8
annotation
62
1
39
211
10
344.784967
20
366.635143
11
345.232131
21
366.801778
0
LINE
8
annotation
62
1
39
211
10
345.232131
20
366.801778
11
345.642572
21
367.027016
0
LINE
8
annotation
62
1
39
211
10
345.642572
20
367.027016
11
346.012049
21
367.305117
0
LINE
8
annotation
62
1
39
211
10
346.012049
20
367.305117
11
346.336320
21
367.630344
0
LINE
8
annotation
62
1
39
211
10
346.336320
20
367.630344
11
346.611143
21
367.996956
0
LINE
8
annotation
62
1
39
211
10
346.611143
20
367.996956
11
346.832278
21
368.399215
0
LINE
8
annotation
62
1
39
211
10
346.832278
20
368.399215
11
346.995483
21
368.831382
0
LINE
8
annotation
62
1
39
211
10
346.995483
20
368.831382
11
347.096517
21
369.287719
0
LINE
8
annotation
62
1
39
211
10
347.096517
20
369.287719
11
347.131137
21
369.762486
0
LINE
8
annotation
62
1
39
211
10
347.131137
20
369.762486
11
347.131137
21
372.110864
0
LINE
8
annotation
62
1
39
211
10
347.131137
20
372.110864
11
347.131137
21
372.110864
0
LINE
8
annotation
62
1
39
211
10
347.131137
20
372.110864
11
347.105964
21
372.392169
0
LINE
8
annotation
62
1
39
211
10
347.105964
20
372.392169
11
347.033379
21
372.657000
0
LINE
8
annotation
62
1
39
211
10
347.033379
20
372.657000
11
346.917783
21
372.900918
0
LINE
8
annotation
62
1
39
211
10
346.917783
20
372.900918
11
346.763579
21
373.119485
0
LINE
8
annotation
62
1
39
211
10
346.763579
20
373.119485
11
346.575166
21
373.308264
0
LINE
8
annotation
62
1
39
211
10
346.575166
20
373.308264
11
346.356947
21
373.462817
0
LINE
8
annotation
62
1
39
211
10
346.356947
20
373.462817
11
346.113323
21
373.578706
0
LINE
8
annotation
62
1
39
211
10
346.113323
20
373.578706
11
345.848696
21
373.651494
0
LINE
8
annotation
62
1
39
211
10
345.848696
20
373.651494
11
345.567466
21
373.676743
0
LINE
8
annotation
62
1
39
211
10
345.567466
20
373.676743
11
345.567466
21
373.676743
0
LINE
8
annotation
62
1
39
211
10
345.567466
20
373.676743
11
345.286817
21
373.651494
0
LINE
8
annotation
62
1
39
211
10
345.286817
20
373.651494
11
345.022498
21
373.578706
0
LINE
8
annotation
62
1
39
211
10
345.022498
20
373.578706
11
344.778965
21
373.462817
0
LINE
8
annotation
62
1
39
211
10
344.778965
20
373.462817
11
344.560673
21
373.308264
0
LINE
8
annotation
62
1
39
211
10
344.560673
20
373.308264
11
344.372079
21
373.119485
0
LINE
8
annotation
62
1
39
211
10
344.372079
20
373.119485
11
344.217638
21
372.900918
0
LINE
8
annotation
62
1
39
211
10
344.217638
20
372.900918
11
344.101807
21
372.657000
0
LINE
8
annotation
62
1
39
211
10
344.101807
20
372.657000
11
344.029040
21
372.392169
0
LINE
8
annotation
62
1
39
211
10
344.029040
20
372.392169
11
344.003794
21
372.110864
0
LINE
8
annotation
62
1
39
211
10
344.003794
20
372.110864
11
344.003794
21
371.327924
0
LINE
8
annotation
62
1
39
211
10
344.003794
20
371.327924
11
344.003794
21
371.327924
0
LINE
8
annotation
62
1
39
211
10
344.003794
20
371.327924
11
344.029040
21
371.046633
0
LINE
8
annotation
62
1
39
211
10
344.029040
20
371.046633
11
344.101807
21
370.781843
0
LINE
8
annotation
62
1
39
211
10
344.101807
20
370.781843
11
344.217638
21
370.537984
0
LINE
8
annotation
62
1
39
211
10
344.217638
20
370.537984
11
344.372079
21
370.319487
0
LINE
8
annotation
62
1
39
211
10
344.372079
20
370.319487
11
344.560673
21
370.130781
0
LINE
8
annotation
62
1
39
211
10
344.560673
20
370.130781
11
344.778965
21
369.976298
0
LINE
8
annotation
62
1
39
211
10
344.778965
20
369.976298
11
345.022498
21
369.860467
0
LINE
8
annotation
62
1
39
211
10
345.022498
20
369.860467
11
345.286817
21
369.787720
0
LINE
8
annotation
62
1
39
211
10
345.286817
20
369.787720
11
345.567466
21
369.762486
0
LINE
8
annotation
62
1
39
211
10
345.567466
20
369.762486
11
347.131137
21
369.762486
0
LINE
8
annotation
62
1
39
211
10
343.808390
20
365.754943
11
347.329190
21
365.754943
0
LINE
8
annotation
62
1
39
211
10
328.875716
20
291.954459
11
322.154716
21
282.233149
0
LINE
8
annotation
62
1
39
211
10
322.154716
20
282.233149
11
315.432453
21
291.954459
0
LINE
8
annotation
62
1
39
211
10
322.154716
20
283.015454
11
322.154716
21
271.800308
0
LINE
8
annotation
62
1
39
211
10
347.454830
20
281.877384
11
336.435576
21
281.877384
0
LINE
8
annotation
62
1
39
211
10
359.491144
20
271.800940
11
359.491144
21
291.953827
0
LINE
8
annotation
62
1
39
211
10
359.491144
20
291.953827
11
355.010899
21
287.472319
0
LINE
8
annotation
62
1
39
211
10
375.999746
20
271.800776
11
367.049366
21
271.800776
0
LINE
8
annotation
62
1
39
211
10
367.049366
20
271.800776
11
375.319810
21
285.115129
0
LINE
8
annotation
62
1
39
211
10
375.319810
20
285.115129
11
375.319810
21
285.115129
0
LINE
8
annotation
62
1
39
211
10
375.319810
20
285.115129
11
375.329697
21
285.127363
0
LINE
8
annotation
62
1
39
211
10
375.329697
20
285.127363
11
375.339178
21
285.139701
0
LINE
8
annotation
62
1
39
211
10
375.339178
20
285.139701
11
375.348316
21
285.152248
0
LINE
8
annotation
62
1
39
211
10
375.348316
20
285.152248
11
375.357173
21
285.165106
0
LINE
8
annotation
62
1
39
211
10
375.357173
20
285.165106
11
375.365812
21
285.178381
0
LINE
8
annotation
62
1
39
211
10
375.365812
20
285.178381
11
375.374295
21
285.192175
0
LINE
8
annotation
62
1
39
211
10
375.374295
20
285.192175
11
375.382684
21
285.206594
0
LINE
8
annotation
62
1
39
211
10
375.382684
20
285.206594
11
375.391042
21
285.221741
0
LINE
8
annotation
62
1
39
211
10
375.391042
20
285.221741
11
375.399431
21
285.237720
0
LINE
8
annotation
62
1
39
211
10
375.399431
20
285.237720
11
375.399431
21
285.237720
0
LINE
8
annotation
62
1
39
211
10
375.399431
20
285.237720
11
375.740916
21
285.970916
0
LINE
8
annotation
62
1
39
211
10
375.740916
20
285.970916
11
375.940405
21
286.730939
0
LINE
8
annotation
62
1
39
211
10
375.940405
20
286.730939
11
376.002788
21
287.500614
0
LINE
8
annotation
62
1
39
211
10
376.002788
20
287.500614
11
375.932954
21
288.262769
0
LINE
8
annotation
62
1
39
211
10
375.932954
20
288.262769
11
375.735791
21
289.000230
0
LINE
8
annotation
62
1
39
211
10
375.735791
20
289.000230
11
375.416188
21
289.695824
0
LINE
8
annotation
62
1
39
211
10
375.416188
20
289.695824
11
374.979034
21
290.332377
0
LINE
8
annotation
62
1
39
211
10
374.979034
20
290.332377
11
374.429219
21
290.892716
0
LINE
8
annotation
62
1
39
211
10
374.429219
20
290.892716
11
373.771630
21
291.359668
0
LINE
8
annotation
62
1
39
211
10
373.771630
20
291.359668
11
373.771630
21
291.359668
0
LINE
8
annotation
62
1
39
211
10
373.771630
20
291.359668
11
373.036394
21
291.696300
0
LINE
8
annotation
62
1
39
211
10
373.036394
20
291.696300
11
372.275207
21
291.892716
0
LINE
8
annotation
62
1
39
211
10
372.275207
20
291.892716
11
371.505084
21
291.953336
0
LINE
8
annotation
62
1
39
211
10
371.505084
20
291.953336
11
370.743043
21
291.882581
0
LINE
8
annotation
62
1
39
211
10
370.743043
20
291.882581
11
370.006102
21
291.684872
0
LINE
8
annotation
62
1
39
211
10
370.006102
20
291.684872
11
369.311278
21
291.364629
0
LINE
8
annotation
62
1
39
211
10
369.311278
20
291.364629
11
368.675588
21
290.926274
0
LINE
8
annotation
62
1
39
211
10
368.675588
20
290.926274
11
368.116050
21
290.374227
0
LINE
8
annotation
62
1
39
211
10
368.116050
20
290.374227
11
367.649681
21
289.712909
0
LINE
8
annotation
62
1
39
211
10
367.649681
20
289.712909
11
367.062005
21
288.585581
0
LINE
8
frame
62
5
39
2
10
0.000000
20
0.000000
11
480.000000
21
0.000000
0
LINE
8
frame
62
5
39
2
10
480.000000
20
0.000000
11
480.000000
21
420.000000
0
LINE
8
frame
62
5
39
2
10
480.000000
20
420.000000
11
0.000000
21
420.000000
0
LINE
8
frame
62
5
39
2
10
0.000000
20
420.000000
11
0.000000
21
0.000000
0
ENDSEC
0
EOF
