0
SECTION
2
HEADER
9
$ACADVER
1
AC1009
0
ENDSEC
0
SECTION
2
TABLES
0
TABLE
2
VPORT
70
1
0
VPORT
2
ACTIVE
70
0
10
0.0
20
0.0
11
0.0
21
0.0
12
0.0
22
0.0
13
0.0
23
0.0
14
0.0
24
0.0
15
0.0
25
0.0
16
0.0
26
0.0
36
0.0
17
0.0
27
0.0
37
0.0
40
0.0
41
0.0
42
0.0
43
0.0
44
0.0
50
0.0
51
0.0
71
0
72
1000
73
1
74
3
75
0
76
0
77
0
78
0
0
ENDTAB
0
ENDSEC
0
SECTION
2
ENTITIES
0
LINE
8
boundary
62
5
39
2
10
251.241401
20
79.412498
11
268.322181
21
93.955805
0
LINE
8
boundary
62
5
39
2
10
268.322181
20
93.955805
11
269.427076
21
94.896561
0
LINE
8
boundary
62
5
39
2
10
269.427076
20
94.896561
11
271.776582
21
96.897030
0
LINE
8
boundary
62
5
39
2
10
271.776582
20
96.897030
11
268.704617
21
100.396797
0
LINE
8
boundary
62
5
39
2
10
268.704617
20
100.396797
11
264.651560
21
105.404694
0
LINE
8
boundary
62
5
39
2
10
264.651560
20
105.404694
11
261.680998
21
109.135272
0
LINE
8
boundary
62
5
39
2
10
261.680998
20
109.135272
11
253.878050
21
117.336128
0
LINE
8
boundary
62
5
39
2
10
253.878050
20
117.336128
11
252.815864
21
118.451906
0
LINE
8
boundary
62
5
39
2
10
252.815864
20
118.451906
11
246.664502
21
124.158710
0
LINE
8
boundary
62
5
39
2
10
246.664502
20
124.158710
11
243.561885
21
126.398292
0
LINE
8
boundary
62
5
39
2
10
243.561885
20
126.398292
11
242.855596
21
126.870675
0
LINE
8
boundary
62
5
39
2
10
242.855596
20
126.870675
11
234.048565
21
133.077466
0
LINE
8
boundary
62
5
39
2
10
234.048565
20
133.077466
11
231.380454
21
135.516702
0
LINE
8
boundary
62
5
39
2
10
231.380454
20
135.516702
11
227.586368
21
139.475942
0
LINE
8
boundary
62
5
39
2
10
227.586368
20
139.475942
11
219.115192
21
147.344876
0
LINE
8
boundary
62
5
39
2
10
219.115192
20
147.344876
11
213.088308
21
153.497114
0
LINE
8
boundary
62
5
39
2
10
213.088308
20
153.497114
11
205.596223
21
164.099514
0
LINE
8
boundary
62
5
39
2
10
205.596223
20
164.099514
11
204.015305
21
165.780157
0
LINE
8
boundary
62
5
39
2
10
204.015305
20
165.780157
11
200.228775
21
171.286972
0
LINE
8
boundary
62
5
39
2
10
200.228775
20
171.286972
11
194.653134
21
180.097470
0
LINE
8
boundary
62
5
39
2
10
194.653134
20
180.097470
11
194.333704
21
182.641505
0
LINE
8
boundary
62
5
39
2
10
194.333704
20
182.641505
11
186.421122
21
197.098796
0
LINE
8
boundary
62
5
39
2
10
186.421122
20
197.098796
11
184.723423
21
201.333073
0
LINE
8
boundary
62
5
39
2
10
184.723423
20
201.333073
11
174.418054
21
216.931272
0
LINE
8
boundary
62
5
39
2
10
174.418054
20
216.931272
11
171.134682
21
222.123712
0
LINE
8
boundary
62
5
39
2
10
171.134682
20
222.123712
11
159.720263
21
238.012834
0
LINE
8
boundary
62
5
39
2
10
159.720263
20
238.012834
11
155.571163
21
243.083564
0
LINE
8
boundary
62
5
39
2
10
155.571163
20
243.083564
11
142.245335
21
258.305831
0
LINE
8
boundary
62
5
39
2
10
142.245335
20
258.305831
11
138.745854
21
262.411527
0
LINE
8
boundary
62
5
39
2
10
138.745854
20
262.411527
11
125.275225
21
277.196336
0
LINE
8
boundary
62
5
39
2
10
125.275225
20
277.196336
11
122.471284
21
280.522564
0
LINE
8
boundary
62
5
39
2
10
122.471284
20
280.522564
11
111.180923
21
292.186376
0
LINE
8
boundary
62
5
39
2
10
111.180923
20
292.186376
11
107.956212
21
295.478635
0
LINE
8
boundary
62
5
39
2
10
107.956212
20
295.478635
11
100.046913
21
303.356645
0
LINE
8
boundary
62
5
39
2
10
100.046913
20
303.356645
11
95.383502
21
307.901435
0
LINE
8
boundary
62
5
39
2
10
95.383502
20
307.901435
11
90.119509
21
313.910330
0
LINE
8
boundary
62
5
39
2
10
90.119509
20
313.910330
11
83.945658
21
321.004530
0
LINE
8
boundary
62
5
39
2
10
83.945658
20
321.004530
11
81.188072
21
325.169925
0
LINE
8
boundary
62
5
39
2
10
81.188072
20
325.169925
11
72.425142
21
336.719720
0
LINE
8
boundary
62
5
39
2
10
72.425142
20
336.719720
11
71.860446
21
337.372665
0
LINE
8
boundary
62
5
39
2
10
71.860446
20
337.372665
11
61.997309
21
347.678407
0
LINE
8
boundary
62
5
39
2
10
61.997309
20
347.678407
11
56.555858
21
352.936156
0
LINE
8
boundary
62
5
39
2
10
56.555858
20
352.936156
11
50.803028
21
357.409819
0
LINE
8
boundary
62
5
39
2
10
50.803028
20
357.409819
11
44.315901
21
362.472405
0
LINE
8
boundary
62
5
39
2
10
44.315901
20
362.472405
11
39.920036
21
365.582318
0
LINE
8
boundary
62
5
39
2
10
39.920036
20
365.582318
11
35.715948
21
369.249228
0
LINE
8
boundary
62
5
39
2
10
35.715948
20
369.249228
11
29.593906
21
374.528231
0
LINE
8
boundary
62
5
39
2
10
29.593906
20
374.528231
11
21.792493
21
381.309717
0
LINE
8
boundary
62
5
39
2
10
21.792493
20
381.309717
11
17.347911
21
385.084148
0
LINE
8
boundary
62
5
39
2
10
17.347911
20
385.084148
11
6.687500
21
393.968340
0
LINE
8
boundary
62
5
39
2
10
6.687500
20
393.968340
11
6.687500
21
371.901345
0
LINE
8
boundary
62
5
39
2
10
6.687500
20
371.901345
11
11.142814
21
371.461246
0
LINE
8
boundary
62
5
39
2
10
11.142814
20
371.461246
11
21.228017
21
371.461245
0
LINE
8
boundary
62
5
39
2
10
21.228017
20
371.461245
11
21.228017
21
367.410245
0
LINE
8
boundary
62
5
39
2
10
21.228017
20
367.410245
11
11.142814
21
367.410245
0
LINE
8
boundary
62
5
39
2
10
11.142814
20
367.410245
11
6.687500
21
366.970146
0
LINE
8
boundary
62
5
39
2
10
6.687500
20
366.970146
11
6.687500
21
311.931584
0
LINE
8
boundary
62
5
39
2
10
6.687500
20
311.931584
11
11.142815
21
311.491483
0
LINE
8
boundary
62
5
39
2
10
11.142815
20
311.491483
11
50.198212
21
311.491483
0
LINE
8
boundary
62
5
39
2
10
50.198212
20
311.491483
11
50.198211
21
307.440483
0
LINE
8
boundary
62
5
39
2
10
50.198211
20
307.440483
11
11.142814
21
307.440483
0
LINE
8
boundary
62
5
39
2
10
11.142814
20
307.440483
11
6.687500
21
307.000384
0
LINE
8
boundary
62
5
39
2
10
6.687500
20
307.000384
11
6.687500
21
258.342841
0
LINE
8
boundary
62
5
39
2
10
6.687500
20
258.342841
11
11.142814
21
257.902741
0
LINE
8
boundary
62
5
39
2
10
11.142814
20
257.902741
11
75.404792
21
257.902742
0
LINE
8
boundary
62
5
39
2
10
75.404792
20
257.902742
11
75.404792
21
253.851741
0
LINE
8
boundary
62
5
39
2
10
75.404792
20
253.851741
11
11.142814
21
253.851741
0
LINE
8
boundary
62
5
39
2
10
11.142814
20
253.851741
11
6.687500
21
253.411641
0
LINE
8
boundary
62
5
39
2
10
6.687500
20
253.411641
11
6.687500
21
218.906489
0
LINE
8
boundary
62
5
39
2
10
6.687500
20
218.906489
11
11.142814
21
218.466388
0
LINE
8
boundary
62
5
39
2
10
11.142814
20
218.466388
11
90.612618
21
218.466389
0
LINE
8
boundary
62
5
39
2
10
90.612618
20
218.466389
11
90.612618
21
214.415388
0
LINE
8
boundary
62
5
39
2
10
90.612618
20
214.415388
11
11.142815
21
214.415388
0
LINE
8
boundary
62
5
39
2
10
11.142815
20
214.415388
11
6.687500
21
213.975289
0
LINE
8
boundary
62
5
39
2
10
6.687500
20
213.975289
11
6.687500
21
208.097324
0
LINE
8
boundary
62
5
39
2
10
6.687500
20
208.097324
11
9.227579
21
203.928156
0
LINE
8
boundary
62
5
39
2
10
9.227579
20
203.928156
11
12.345837
21
198.687480
0
LINE
8
boundary
62
5
39
2
10
12.345837
20
198.687480
11
17.309883
21
188.395444
0
LINE
8
boundary
62
5
39
2
10
17.309883
20
188.395444
11
18.763390
21
185.527704
0
LINE
8
boundary
62
5
39
2
10
18.763390
20
185.527704
11
20.443501
21
179.470136
0
LINE
8
boundary
62
5
39
2
10
20.443501
20
179.470136
11
24.898815
21
179.030036
0
LINE
8
boundary
62
5
39
2
10
24.898815
20
179.030036
11
109.020370
21
179.030036
0
LINE
8
boundary
62
5
39
2
10
109.020370
20
179.030036
11
109.020370
21
174.979036
0
LINE
8
boundary
62
5
39
2
10
109.020370
20
174.979036
11
26.266520
21
174.979037
0
LINE
8
boundary
62
5
39
2
10
26.266520
20
174.979037
11
21.811205
21
174.538936
0
LINE
8
boundary
62
5
39
2
10
21.811205
20
174.538936
11
22.572977
21
171.792403
0
LINE
8
boundary
62
5
39
2
10
22.572977
20
171.792403
11
22.942142
21
170.306663
0
LINE
8
boundary
62
5
39
2
10
22.942142
20
170.306663
11
25.147241
21
157.665169
0
LINE
8
boundary
62
5
39
2
10
25.147241
20
157.665169
11
25.838371
21
154.861878
0
LINE
8
boundary
62
5
39
2
10
25.838371
20
154.861878
11
30.027990
21
145.306929
0
LINE
8
boundary
62
5
39
2
10
30.027990
20
145.306929
11
31.826326
21
141.520334
0
LINE
8
boundary
62
5
39
2
10
31.826326
20
141.520334
11
32.624009
21
140.033784
0
LINE
8
boundary
62
5
39
2
10
32.624009
20
140.033784
11
37.079323
21
139.593684
0
LINE
8
boundary
62
5
39
2
10
37.079323
20
139.593684
11
132.288974
21
139.593684
0
LINE
8
boundary
62
5
39
2
10
132.288974
20
139.593684
11
132.288973
21
135.542683
0
LINE
8
boundary
62
5
39
2
10
132.288973
20
135.542683
11
39.725407
21
135.542684
0
LINE
8
boundary
62
5
39
2
10
39.725407
20
135.542684
11
35.270093
21
135.102584
0
LINE
8
boundary
62
5
39
2
10
35.270093
20
135.102584
11
39.866335
21
126.537100
0
LINE
8
boundary
62
5
39
2
10
39.866335
20
126.537100
11
40.337330
21
125.860043
0
LINE
8
boundary
62
5
39
2
10
40.337330
20
125.860043
11
41.013910
21
124.750563
0
LINE
8
boundary
62
5
39
2
10
41.013910
20
124.750563
11
49.318757
21
110.023267
0
LINE
8
boundary
62
5
39
2
10
49.318757
20
110.023267
11
54.183514
21
102.350222
0
LINE
8
boundary
62
5
39
2
10
54.183514
20
102.350222
11
55.542104
21
100.597431
0
LINE
8
boundary
62
5
39
2
10
55.542104
20
100.597431
11
59.997418
21
100.157331
0
LINE
8
boundary
62
5
39
2
10
59.997418
20
100.157331
11
163.456560
21
100.157331
0
LINE
8
boundary
62
5
39
2
10
163.456560
20
100.157331
11
163.456559
21
96.106331
0
LINE
8
boundary
62
5
39
2
10
163.456559
20
96.106331
11
63.823738
21
96.106331
0
LINE
8
boundary
62
5
39
2
10
63.823738
20
96.106331
11
59.368424
21
95.666231
0
LINE
8
boundary
62
5
39
2
10
59.368424
20
95.666231
11
67.899942
21
85.101929
0
LINE
8
boundary
62
5
39
2
10
67.899942
20
85.101929
11
71.475492
21
81.098728
0
LINE
8
boundary
62
5
39
2
10
71.475492
20
81.098728
11
75.762572
21
77.822499
0
LINE
8
boundary
62
5
39
2
10
75.762572
20
77.822499
11
88.489874
21
68.585285
0
LINE
8
boundary
62
5
39
2
10
88.489874
20
68.585285
11
99.271024
21
63.498957
0
LINE
8
boundary
62
5
39
2
10
99.271024
20
63.498957
11
105.035695
21
61.161079
0
LINE
8
boundary
62
5
39
2
10
105.035695
20
61.161079
11
109.491009
21
60.720978
0
LINE
8
boundary
62
5
39
2
10
109.491009
20
60.720978
11
171.775588
21
60.720979
0
LINE
8
boundary
62
5
39
2
10
171.775588
20
60.720979
11
171.775588
21
56.669978
0
LINE
8
boundary
62
5
39
2
10
171.775588
20
56.669978
11
148.771176
21
56.669979
0
LINE
8
boundary
62
5
39
2
10
148.771176
20
56.669979
11
144.315862
21
56.229879
0
LINE
8
boundary
62
5
39
2
10
144.315862
20
56.229879
11
149.813652
21
45.487432
0
LINE
8
boundary
62
5
39
2
10
149.813652
20
45.487432
11
151.551142
21
42.625151
0
LINE
8
boundary
62
5
39
2
10
151.551142
20
42.625151
11
152.474103
21
28.447131
0
LINE
8
boundary
62
5
39
2
10
152.474103
20
28.447131
11
154.889177
21
24.037662
0
LINE
8
boundary
62
5
39
2
10
154.889177
20
24.037662
11
156.457665
21
21.724726
0
LINE
8
boundary
62
5
39
2
10
156.457665
20
21.724726
11
160.912979
21
21.284626
0
LINE
8
boundary
62
5
39
2
10
160.912979
20
21.284626
11
169.542637
21
21.284626
0
LINE
8
boundary
62
5
39
2
10
169.542637
20
21.284626
11
169.542636
21
17.233626
0
LINE
8
boundary
62
5
39
2
10
169.542636
20
17.233626
11
164.257009
21
17.233626
0
LINE
8
boundary
62
5
39
2
10
164.257009
20
17.233626
11
159.801695
21
16.793526
0
LINE
8
boundary
62
5
39
2
10
159.801695
20
16.793526
11
162.917756
21
12.198496
0
LINE
8
boundary
62
5
39
2
10
162.917756
20
12.198496
11
164.630787
21
8.844545
0
LINE
8
boundary
62
5
39
2
10
164.630787
20
8.844545
11
165.827613
21
6.687500
0
LINE
8
boundary
62
5
39
2
10
165.827613
20
6.687500
11
166.221740
21
7.023065
0
LINE
8
boundary
62
5
39
2
10
166.221740
20
7.023065
11
168.003530
21
8.540210
0
LINE
8
boundary
62
5
39
2
10
168.003530
20
8.540210
11
171.874023
21
11.835713
0
LINE
8
boundary
62
5
39
2
10
171.874023
20
11.835713
11
211.329904
21
45.430140
0
LINE
8
boundary
62
5
39
2
10
211.329904
20
45.430140
11
251.241401
21
79.412498
0
LINE
8
annotation
62
1
39
211
10
176.357664
20
16.819845
11
176.357664
21
21.698407
0
LINE
8
annotation
62
1
39
211
10
176.357664
20
21.698407
11
175.273097
21
20.613534
0
LINE
8
annotation
62
1
39
211
10
182.315377
20
55.174621
11
179.188034
21
55.174621
0
LINE
8
annotation
62
1
39
211
10
179.188034
20
55.174621
11
182.077801
21
59.826776
0
LINE
8
annotation
62
1
39
211
10
182.077801
20
59.826776
11
182.077801
21
59.826776
0
LINE
8
annotation
62
1
39
211
10
182.077801
20
59.826776
11
182.081256
21
59.831051
0
LINE
8
annotation
62
1
39
211
10
182.081256
20
59.831051
11
182.084569
21
59.835362
0
LINE
8
annotation
62
1
39
211
10
182.084569
20
59.835362
11
182.087761
21
59.839746
0
LINE
8
annotation
62
1
39
211
10
182.087761
20
59.839746
11
182.090856
21
59.844238
0
LINE
8
annotation
62
1
39
211
10
182.090856
20
59.844238
11
182.093875
21
59.848877
0
LINE
8
annotation
62
1
39
211
10
182.093875
20
59.848877
11
182.096839
21
59.853697
0
LINE
8
annotation
62
1
39
211
10
182.096839
20
59.853697
11
182.099770
21
59.858735
0
LINE
8
annotation
62
1
39
211
10
182.099770
20
59.858735
11
182.102690
21
59.864027
0
LINE
8
annotation
62
1
39
211
10
182.102690
20
59.864027
11
182.105621
21
59.869610
0
LINE
8
annotation
62
1
39
211
10
182.105621
20
59.869610
11
182.105621
21
59.869610
0
LINE
8
annotation
62
1
39
211
10
182.105621
20
59.869610
11
182.224939
21
60.125796
0
LINE
8
annotation
62
1
39
211
10
182.224939
20
60.125796
11
182.294643
21
60.391354
0
LINE
8
annotation
62
1
39
211
10
182.294643
20
60.391354
11
182.316440
21
60.660286
0
LINE
8
annotation
62
1
39
211
10
182.316440
20
60.660286
11
182.292039
21
60.926590
0
LINE
8
annotation
62
1
39
211
10
182.292039
20
60.926590
11
182.223149
21
61.184265
0
LINE
8
annotation
62
1
39
211
10
182.223149
20
61.184265
11
182.111476
21
61.427312
0
LINE
8
annotation
62
1
39
211
10
182.111476
20
61.427312
11
181.958731
21
61.649729
0
LINE
8
annotation
62
1
39
211
10
181.958731
20
61.649729
11
181.766620
21
61.845517
0
LINE
8
annotation
62
1
39
211
10
181.766620
20
61.845517
11
181.536853
21
62.008674
0
LINE
8
annotation
62
1
39
211
10
181.536853
20
62.008674
11
181.536853
21
62.008674
0
LINE
8
annotation
62
1
39
211
10
181.536853
20
62.008674
11
181.279955
21
62.126296
0
LINE
8
annotation
62
1
39
211
10
181.279955
20
62.126296
11
181.013989
21
62.194926
0
LINE
8
annotation
62
1
39
211
10
181.013989
20
62.194926
11
180.744901
21
62.216107
0
LINE
8
annotation
62
1
39
211
10
180.744901
20
62.216107
11
180.478638
21
62.191384
0
LINE
8
annotation
62
1
39
211
10
180.478638
20
62.191384
11
180.221144
21
62.122303
0
LINE
8
annotation
62
1
39
211
10
180.221144
20
62.122303
11
179.978366
21
62.010408
0
LINE
8
annotation
62
1
39
211
10
179.978366
20
62.010408
11
179.756250
21
61.857242
0
LINE
8
annotation
62
1
39
211
10
179.756250
20
61.857242
11
179.560743
21
61.664352
0
LINE
8
annotation
62
1
39
211
10
179.560743
20
61.664352
11
179.397789
21
61.433282
0
LINE
8
annotation
62
1
39
211
10
179.397789
20
61.433282
11
179.192450
21
61.039383
0
LINE
8
annotation
62
1
39
211
10
170.869005
20
94.611252
11
172.432677
21
94.611252
0
LINE
8
annotation
62
1
39
211
10
172.432677
20
94.611252
11
172.432677
21
94.611252
0
LINE
8
annotation
62
1
39
211
10
172.432677
20
94.611252
11
172.713907
21
94.636480
0
LINE
8
annotation
62
1
39
211
10
172.713907
20
94.636480
11
172.978534
21
94.709189
0
LINE
8
annotation
62
1
39
211
10
172.978534
20
94.709189
11
173.222158
21
94.824916
0
LINE
8
annotation
62
1
39
211
10
173.222158
20
94.824916
11
173.440377
21
94.979198
0
LINE
8
annotation
62
1
39
211
10
173.440377
20
94.979198
11
173.628790
21
95.167571
0
LINE
8
annotation
62
1
39
211
10
173.628790
20
95.167571
11
173.782994
21
95.385572
0
LINE
8
annotation
62
1
39
211
10
173.782994
20
95.385572
11
173.898590
21
95.628739
0
LINE
8
annotation
62
1
39
211
10
173.898590
20
95.628739
11
173.971175
21
95.892608
0
LINE
8
annotation
62
1
39
211
10
173.971175
20
95.892608
11
173.996348
21
96.172715
0
LINE
8
annotation
62
1
39
211
10
173.996348
20
96.172715
11
173.996348
21
96.955655
0
LINE
8
annotation
62
1
39
211
10
173.996348
20
96.955655
11
173.996348
21
96.955655
0
LINE
8
annotation
62
1
39
211
10
173.996348
20
96.955655
11
173.971175
21
97.235647
0
LINE
8
annotation
62
1
39
211
10
173.971175
20
97.235647
11
173.898590
21
97.499453
0
LINE
8
annotation
62
1
39
211
10
173.898590
20
97.499453
11
173.782994
21
97.742602
0
LINE
8
annotation
62
1
39
211
10
173.782994
20
97.742602
11
173.628790
21
97.960618
0
LINE
8
annotation
62
1
39
211
10
173.628790
20
97.960618
11
173.440377
21
98.149027
0
LINE
8
annotation
62
1
39
211
10
173.440377
20
98.149027
11
173.222158
21
98.303356
0
LINE
8
annotation
62
1
39
211
10
173.222158
20
98.303356
11
172.978534
21
98.419131
0
LINE
8
annotation
62
1
39
211
10
172.978534
20
98.419131
11
172.713907
21
98.491876
0
LINE
8
annotation
62
1
39
211
10
172.713907
20
98.491876
11
172.432677
21
98.517119
0
LINE
8
annotation
62
1
39
211
10
172.432677
20
98.517119
11
171.649737
21
98.517119
0
LINE
8
annotation
62
1
39
211
10
171.649737
20
98.517119
11
172.432677
21
98.517119
0
LINE
8
annotation
62
1
39
211
10
172.432677
20
98.517119
11
172.432677
21
98.517119
0
LINE
8
annotation
62
1
39
211
10
172.432677
20
98.517119
11
172.713907
21
98.542368
0
LINE
8
annotation
62
1
39
211
10
172.713907
20
98.542368
11
172.978534
21
98.615155
0
LINE
8
annotation
62
1
39
211
10
172.978534
20
98.615155
11
173.222158
21
98.731045
0
LINE
8
annotation
62
1
39
211
10
173.222158
20
98.731045
11
173.440377
21
98.885598
0
LINE
8
annotation
62
1
39
211
10
173.440377
20
98.885598
11
173.628790
21
99.074377
0
LINE
8
annotation
62
1
39
211
10
173.628790
20
99.074377
11
173.782994
21
99.292944
0
LINE
8
annotation
62
1
39
211
10
173.782994
20
99.292944
11
173.898590
21
99.536862
0
LINE
8
annotation
62
1
39
211
10
173.898590
20
99.536862
11
173.971175
21
99.801692
0
LINE
8
annotation
62
1
39
211
10
173.971175
20
99.801692
11
173.996348
21
100.082998
0
LINE
8
annotation
62
1
39
211
10
173.996348
20
100.082998
11
173.996348
21
100.082998
0
LINE
8
annotation
62
1
39
211
10
173.996348
20
100.082998
11
173.971175
21
100.362990
0
LINE
8
annotation
62
1
39
211
10
173.971175
20
100.362990
11
173.898590
21
100.626796
0
LINE
8
annotation
62
1
39
211
10
173.898590
20
100.626796
11
173.782994
21
100.869945
0
LINE
8
annotation
62
1
39
211
10
173.782994
20
100.869945
11
173.628790
21
101.087961
0
LINE
8
annotation
62
1
39
211
10
173.628790
20
101.087961
11
173.440377
21
101.276370
0
LINE
8
annotation
62
1
39
211
10
173.440377
20
101.276370
11
173.222158
21
101.430699
0
LINE
8
annotation
62
1
39
211
10
173.222158
20
101.430699
11
172.978534
21
101.546474
0
LINE
8
annotation
62
1
39
211
10
172.978534
20
101.546474
11
172.713907
21
101.619219
0
LINE
8
annotation
62
1
39
211
10
172.713907
20
101.619219
11
172.432677
21
101.644462
0
LINE
8
annotation
62
1
39
211
10
172.432677
20
101.644462
11
170.869005
21
101.644462
0
LINE
8
annotation
62
1
39
211
10
143.220011
20
135.612822
11
139.310170
21
135.612822
0
LINE
8
annotation
62
1
39
211
10
139.310170
20
135.612822
11
140.871633
21
141.088984
0
LINE
8
annotation
62
1
39
211
10
142.048030
20
134.047384
11
142.048030
21
137.174727
0
LINE
8
annotation
62
1
39
211
10
116.432816
20
173.483736
11
117.996487
21
173.483736
0
LINE
8
annotation
62
1
39
211
10
117.996487
20
173.483736
11
117.996487
21
173.483736
0
LINE
8
annotation
62
1
39
211
10
117.996487
20
173.483736
11
118.277136
21
173.508970
0
LINE
8
annotation
62
1
39
211
10
118.277136
20
173.508970
11
118.541454
21
173.581717
0
LINE
8
annotation
62
1
39
211
10
118.541454
20
173.581717
11
118.784987
21
173.697548
0
LINE
8
annotation
62
1
39
211
10
118.784987
20
173.697548
11
119.003279
21
173.852031
0
LINE
8
annotation
62
1
39
211
10
119.003279
20
173.852031
11
119.191873
21
174.040737
0
LINE
8
annotation
62
1
39
211
10
119.191873
20
174.040737
11
119.346314
21
174.259234
0
LINE
8
annotation
62
1
39
211
10
119.346314
20
174.259234
11
119.462146
21
174.503093
0
LINE
8
annotation
62
1
39
211
10
119.462146
20
174.503093
11
119.534913
21
174.767883
0
LINE
8
annotation
62
1
39
211
10
119.534913
20
174.767883
11
119.560158
21
175.049174
0
LINE
8
annotation
62
1
39
211
10
119.560158
20
175.049174
11
119.560158
21
175.828140
0
LINE
8
annotation
62
1
39
211
10
119.560158
20
175.828140
11
119.560158
21
175.828140
0
LINE
8
annotation
62
1
39
211
10
119.560158
20
175.828140
11
119.534927
21
176.109294
0
LINE
8
annotation
62
1
39
211
10
119.534927
20
176.109294
11
119.462197
21
176.373719
0
LINE
8
annotation
62
1
39
211
10
119.462197
20
176.373719
11
119.346412
21
176.617049
0
LINE
8
annotation
62
1
39
211
10
119.346412
20
176.617049
11
119.192019
21
176.834920
0
LINE
8
annotation
62
1
39
211
10
119.192019
20
176.834920
11
119.003461
21
177.022966
0
LINE
8
annotation
62
1
39
211
10
119.003461
20
177.022966
11
118.785184
21
177.176822
0
LINE
8
annotation
62
1
39
211
10
118.785184
20
177.176822
11
118.541632
21
177.292124
0
LINE
8
annotation
62
1
39
211
10
118.541632
20
177.292124
11
118.277252
21
177.364506
0
LINE
8
annotation
62
1
39
211
10
118.277252
20
177.364506
11
117.996487
21
177.389603
0
LINE
8
annotation
62
1
39
211
10
117.996487
20
177.389603
11
116.432816
21
177.389603
0
LINE
8
annotation
62
1
39
211
10
116.432816
20
177.389603
11
116.432816
21
180.525336
0
LINE
8
annotation
62
1
39
211
10
116.432816
20
180.525336
11
119.560158
21
180.525336
0
LINE
8
annotation
62
1
39
211
10
100.373882
20
219.961689
11
100.373882
21
219.961689
0
LINE
8
annotation
62
1
39
211
10
100.373882
20
219.961689
11
99.925929
21
219.793734
0
LINE
8
annotation
62
1
39
211
10
99.925929
20
219.793734
11
99.514874
21
219.567434
0
LINE
8
annotation
62
1
39
211
10
99.514874
20
219.567434
11
99.144936
21
219.288460
0
LINE
8
annotation
62
1
39
211
10
99.144936
20
219.288460
11
98.820334
21
218.962481
0
LINE
8
annotation
62
1
39
211
10
98.820334
20
218.962481
11
98.545289
21
218.595166
0
LINE
8
annotation
62
1
39
211
10
98.545289
20
218.595166
11
98.324020
21
218.192187
0
LINE
8
annotation
62
1
39
211
10
98.324020
20
218.192187
11
98.160746
21
217.759212
0
LINE
8
annotation
62
1
39
211
10
98.160746
20
217.759212
11
98.059687
21
217.301912
0
LINE
8
annotation
62
1
39
211
10
98.059687
20
217.301912
11
98.025063
21
216.825956
0
LINE
8
annotation
62
1
39
211
10
98.025063
20
216.825956
11
98.025063
21
214.485527
0
LINE
8
annotation
62
1
39
211
10
98.025063
20
214.485527
11
98.025063
21
214.485527
0
LINE
8
annotation
62
1
39
211
10
98.025063
20
214.485527
11
98.050309
21
214.204236
0
LINE
8
annotation
62
1
39
211
10
98.050309
20
214.204236
11
98.123075
21
213.939446
0
LINE
8
annotation
62
1
39
211
10
98.123075
20
213.939446
11
98.238907
21
213.695587
0
LINE
8
annotation
62
1
39
211
10
98.238907
20
213.695587
11
98.393348
21
213.477089
0
LINE
8
annotation
62
1
39
211
10
98.393348
20
213.477089
11
98.581942
21
213.288384
0
LINE
8
annotation
62
1
39
211
10
98.581942
20
213.288384
11
98.800234
21
213.133900
0
LINE
8
annotation
62
1
39
211
10
98.800234
20
213.133900
11
99.043767
21
213.018070
0
LINE
8
annotation
62
1
39
211
10
99.043767
20
213.018070
11
99.308086
21
212.945322
0
LINE
8
annotation
62
1
39
211
10
99.308086
20
212.945322
11
99.588734
21
212.920089
0
LINE
8
annotation
62
1
39
211
10
99.588734
20
212.920089
11
99.588734
21
212.920089
0
LINE
8
annotation
62
1
39
211
10
99.588734
20
212.920089
11
99.869964
21
212.945322
0
LINE
8
annotation
62
1
39
211
10
99.869964
20
212.945322
11
100.134592
21
213.018070
0
LINE
8
annotation
62
1
39
211
10
100.134592
20
213.018070
11
100.378216
21
213.133900
0
LINE
8
annotation
62
1
39
211
10
100.378216
20
213.133900
11
100.596435
21
213.288384
0
LINE
8
annotation
62
1
39
211
10
100.596435
20
213.288384
11
100.784848
21
213.477089
0
LINE
8
annotation
62
1
39
211
10
100.784848
20
213.477089
11
100.939052
21
213.695587
0
LINE
8
annotation
62
1
39
211
10
100.939052
20
213.695587
11
101.054648
21
213.939446
0
LINE
8
annotation
62
1
39
211
10
101.054648
20
213.939446
11
101.127233
21
214.204236
0
LINE
8
annotation
62
1
39
211
10
101.127233
20
214.204236
11
101.152406
21
214.485527
0
LINE
8
annotation
62
1
39
211
10
101.152406
20
214.485527
11
101.152406
21
215.264492
0
LINE
8
annotation
62
1
39
211
10
101.152406
20
215.264492
11
101.152406
21
215.264492
0
LINE
8
annotation
62
1
39
211
10
101.152406
20
215.264492
11
101.127233
21
215.545646
0
LINE
8
annotation
62
1
39
211
10
101.127233
20
215.545646
11
101.054648
21
215.810071
0
LINE
8
annotation
62
1
39
211
10
101.054648
20
215.810071
11
100.939052
21
216.053401
0
LINE
8
annotation
62
1
39
211
10
100.939052
20
216.053401
11
100.784848
21
216.271272
0
LINE
8
annotation
62
1
39
211
10
100.784848
20
216.271272
11
100.596435
21
216.459318
0
LINE
8
annotation
62
1
39
211
10
100.596435
20
216.459318
11
100.378216
21
216.613174
0
LINE
8
annotation
62
1
39
211
10
100.378216
20
216.613174
11
100.134592
21
216.728476
0
LINE
8
annotation
62
1
39
211
10
100.134592
20
216.728476
11
99.869964
21
216.800858
0
LINE
8
annotation
62
1
39
211
10
99.869964
20
216.800858
11
99.588734
21
216.825956
0
LINE
8
annotation
62
1
39
211
10
99.588734
20
216.825956
11
98.025063
21
216.825956
0
LINE
8
annotation
62
1
39
211
10
97.829218
20
212.039889
11
101.350018
21
212.039889
0
LINE
8
annotation
62
1
39
211
10
84.380910
20
252.356441
11
85.946347
21
259.398041
0
LINE
8
annotation
62
1
39
211
10
85.946347
20
259.398041
11
82.815030
21
259.398041
0
LINE
8
annotation
62
1
39
211
10
85.946347
20
256.262308
11
84.380910
21
256.262308
0
LINE
8
annotation
62
1
39
211
10
57.610657
20
307.506426
11
57.610657
21
307.506426
0
LINE
8
annotation
62
1
39
211
10
57.610657
20
307.506426
11
57.635902
21
307.225272
0
LINE
8
annotation
62
1
39
211
10
57.635902
20
307.225272
11
57.708669
21
306.960847
0
LINE
8
annotation
62
1
39
211
10
57.708669
20
306.960847
11
57.824501
21
306.717517
0
LINE
8
annotation
62
1
39
211
10
57.824501
20
306.717517
11
57.978942
21
306.499646
0
LINE
8
annotation
62
1
39
211
10
57.978942
20
306.499646
11
58.167536
21
306.311600
0
LINE
8
annotation
62
1
39
211
10
58.167536
20
306.311600
11
58.385828
21
306.157744
0
LINE
8
annotation
62
1
39
211
10
58.385828
20
306.157744
11
58.629361
21
306.042442
0
LINE
8
annotation
62
1
39
211
10
58.629361
20
306.042442
11
58.893680
21
305.970060
0
LINE
8
annotation
62
1
39
211
10
58.893680
20
305.970060
11
59.174328
21
305.944963
0
LINE
8
annotation
62
1
39
211
10
59.174328
20
305.944963
11
59.174328
21
305.944963
0
LINE
8
annotation
62
1
39
211
10
59.174328
20
305.944963
11
59.454977
21
305.970060
0
LINE
8
annotation
62
1
39
211
10
59.454977
20
305.970060
11
59.719295
21
306.042442
0
LINE
8
annotation
62
1
39
211
10
59.719295
20
306.042442
11
59.962829
21
306.157744
0
LINE
8
annotation
62
1
39
211
10
59.962829
20
306.157744
11
60.181120
21
306.311600
0
LINE
8
annotation
62
1
39
211
10
60.181120
20
306.311600
11
60.369714
21
306.499646
0
LINE
8
annotation
62
1
39
211
10
60.369714
20
306.499646
11
60.524155
21
306.717517
0
LINE
8
annotation
62
1
39
211
10
60.524155
20
306.717517
11
60.639987
21
306.960847
0
LINE
8
annotation
62
1
39
211
10
60.639987
20
306.960847
11
60.712754
21
307.225272
0
LINE
8
annotation
62
1
39
211
10
60.712754
20
307.225272
11
60.738000
21
307.506426
0
LINE
8
annotation
62
1
39
211
10
60.738000
20
307.506426
11
60.738000
21
308.285392
0
LINE
8
annotation
62
1
39
211
10
60.738000
20
308.285392
11
60.738000
21
308.285392
0
LINE
8
annotation
62
1
39
211
10
60.738000
20
308.285392
11
60.712768
21
308.566682
0
LINE
8
annotation
62
1
39
211
10
60.712768
20
308.566682
11
60.640038
21
308.831472
0
LINE
8
annotation
62
1
39
211
10
60.640038
20
308.831472
11
60.524254
21
309.075331
0
LINE
8
annotation
62
1
39
211
10
60.524254
20
309.075331
11
60.369860
21
309.293829
0
LINE
8
annotation
62
1
39
211
10
60.369860
20
309.293829
11
60.181302
21
309.482535
0
LINE
8
annotation
62
1
39
211
10
60.181302
20
309.482535
11
59.963025
21
309.637018
0
LINE
8
annotation
62
1
39
211
10
59.963025
20
309.637018
11
59.719474
21
309.752849
0
LINE
8
annotation
62
1
39
211
10
59.719474
20
309.752849
11
59.455093
21
309.825596
0
LINE
8
annotation
62
1
39
211
10
59.455093
20
309.825596
11
59.174328
21
309.850830
0
LINE
8
annotation
62
1
39
211
10
59.174328
20
309.850830
11
59.174328
21
309.850830
0
LINE
8
annotation
62
1
39
211
10
59.174328
20
309.850830
11
58.893563
21
309.825581
0
LINE
8
annotation
62
1
39
211
10
58.893563
20
309.825581
11
58.629183
21
309.752798
0
LINE
8
annotation
62
1
39
211
10
58.629183
20
309.752798
11
58.385631
21
309.636920
0
LINE
8
annotation
62
1
39
211
10
58.385631
20
309.636920
11
58.167354
21
309.482389
0
LINE
8
annotation
62
1
39
211
10
58.167354
20
309.482389
11
57.978796
21
309.293647
0
LINE
8
annotation
62
1
39
211
10
57.978796
20
309.293647
11
57.824403
21
309.075135
0
LINE
8
annotation
62
1
39
211
10
57.824403
20
309.075135
11
57.708618
21
308.831294
0
LINE
8
annotation
62
1
39
211
10
57.708618
20
308.831294
11
57.635888
21
308.566566
0
LINE
8
annotation
62
1
39
211
10
57.635888
20
308.566566
11
57.610657
21
308.285392
0
LINE
8
annotation
62
1
39
211
10
57.610657
20
308.285392
11
57.610657
21
307.506426
0
LINE
8
annotation
62
1
39
211
10
60.738000
20
311.416709
11
60.738000
21
311.416709
0
LINE
8
annotation
62
1
39
211
10
60.738000
20
311.416709
11
60.712768
21
311.696700
0
LINE
8
annotation
62
1
39
211
10
60.712768
20
311.696700
11
60.640038
21
311.960507
0
LINE
8
annotation
62
1
39
211
10
60.640038
20
311.960507
11
60.524254
21
312.203656
0
LINE
8
annotation
62
1
39
211
10
60.524254
20
312.203656
11
60.369860
21
312.421672
0
LINE
8
annotation
62
1
39
211
10
60.369860
20
312.421672
11
60.181302
21
312.610081
0
LINE
8
annotation
62
1
39
211
10
60.181302
20
312.610081
11
59.963025
21
312.764410
0
LINE
8
annotation
62
1
39
211
10
59.963025
20
312.764410
11
59.719474
21
312.880184
0
LINE
8
annotation
62
1
39
211
10
59.719474
20
312.880184
11
59.455093
21
312.952930
0
LINE
8
annotation
62
1
39
211
10
59.455093
20
312.952930
11
59.174328
21
312.978173
0
LINE
8
annotation
62
1
39
211
10
59.174328
20
312.978173
11
59.174328
21
312.978173
0
LINE
8
annotation
62
1
39
211
10
59.174328
20
312.978173
11
58.893563
21
312.952930
0
LINE
8
annotation
62
1
39
211
10
58.893563
20
312.952930
11
58.629183
21
312.880184
0
LINE
8
annotation
62
1
39
211
10
58.629183
20
312.880184
11
58.385631
21
312.764410
0
LINE
8
annotation
62
1
39
211
10
58.385631
20
312.764410
11
58.167354
21
312.610081
0
LINE
8
annotation
62
1
39
211
10
58.167354
20
312.610081
11
57.978796
21
312.421672
0
LINE
8
annotation
62
1
39
211
10
57.978796
20
312.421672
11
57.824403
21
312.203656
0
LINE
8
annotation
62
1
39
211
10
57.824403
20
312.203656
11
57.708618
21
311.960507
0
LINE
8
annotation
62
1
39
211
10
57.708618
20
311.960507
11
57.635888
21
311.696700
0
LINE
8
annotation
62
1
39
211
10
57.635888
20
311.696700
11
57.610657
21
311.416709
0
LINE
8
annotation
62
1
39
211
10
57.610657
20
311.416709
11
57.610657
21
311.416709
0
LINE
8
annotation
62
1
39
211
10
57.610657
20
311.416709
11
57.635902
21
311.135403
0
LINE
8
annotation
62
1
39
211
10
57.635902
20
311.135403
11
57.708669
21
310.870573
0
LINE
8
annotation
62
1
39
211
10
57.708669
20
310.870573
11
57.824501
21
310.626655
0
LINE
8
annotation
62
1
39
211
10
57.824501
20
310.626655
11
57.978942
21
310.408088
0
LINE
8
annotation
62
1
39
211
10
57.978942
20
310.408088
11
58.167536
21
310.219309
0
LINE
8
annotation
62
1
39
211
10
58.167536
20
310.219309
11
58.385828
21
310.064756
0
LINE
8
annotation
62
1
39
211
10
58.385828
20
310.064756
11
58.629361
21
309.948866
0
LINE
8
annotation
62
1
39
211
10
58.629361
20
309.948866
11
58.893680
21
309.876078
0
LINE
8
annotation
62
1
39
211
10
58.893680
20
309.876078
11
59.174328
21
309.850830
0
LINE
8
annotation
62
1
39
211
10
59.174328
20
309.850830
11
59.174328
21
309.850830
0
LINE
8
annotation
62
1
39
211
10
59.174328
20
309.850830
11
59.454977
21
309.876078
0
LINE
8
annotation
62
1
39
211
10
59.454977
20
309.876078
11
59.719295
21
309.948866
0
LINE
8
annotation
62
1
39
211
10
59.719295
20
309.948866
11
59.962829
21
310.064756
0
LINE
8
annotation
62
1
39
211
10
59.962829
20
310.064756
11
60.181120
21
310.219309
0
LINE
8
annotation
62
1
39
211
10
60.181120
20
310.219309
11
60.369714
21
310.408088
0
LINE
8
annotation
62
1
39
211
10
60.369714
20
310.408088
11
60.524155
21
310.626655
0
LINE
8
annotation
62
1
39
211
10
60.524155
20
310.626655
11
60.639987
21
310.870573
0
LINE
8
annotation
62
1
39
211
10
60.639987
20
310.870573
11
60.712754
21
311.135403
0
LINE
8
annotation
62
1
39
211
10
60.712754
20
311.135403
11
60.738000
21
311.416709
0
LINE
8
annotation
62
1
39
211
10
28.190160
20
366.455495
11
28.190160
21
366.455495
0
LINE
8
annotation
62
1
39
211
10
28.190160
20
366.455495
11
28.568671
21
366.596547
0
LINE
8
annotation
62
1
39
211
10
28.568671
20
366.596547
11
28.916097
21
366.787204
0
LINE
8
annotation
62
1
39
211
10
28.916097
20
366.787204
11
29.228847
21
367.022608
0
LINE
8
annotation
62
1
39
211
10
29.228847
20
367.022608
11
29.503333
21
367.297902
0
LINE
8
annotation
62
1
39
211
10
29.503333
20
367.297902
11
29.735963
21
367.608228
0
LINE
8
annotation
62
1
39
211
10
29.735963
20
367.608228
11
29.923147
21
367.948728
0
LINE
8
annotation
62
1
39
211
10
29.923147
20
367.948728
11
30.061295
21
368.314545
0
LINE
8
annotation
62
1
39
211
10
30.061295
20
368.314545
11
30.146816
21
368.700820
0
LINE
8
annotation
62
1
39
211
10
30.146816
20
368.700820
11
30.176121
21
369.102696
0
LINE
8
annotation
62
1
39
211
10
30.176121
20
369.102696
11
30.176121
21
371.090526
0
LINE
8
annotation
62
1
39
211
10
30.176121
20
371.090526
11
30.176121
21
371.090526
0
LINE
8
annotation
62
1
39
211
10
30.176121
20
371.090526
11
30.154813
21
371.328643
0
LINE
8
annotation
62
1
39
211
10
30.154813
20
371.328643
11
30.093372
21
371.552814
0
LINE
8
annotation
62
1
39
211
10
30.093372
20
371.552814
11
29.995524
21
371.759283
0
LINE
8
annotation
62
1
39
211
10
29.995524
20
371.759283
11
29.864994
21
371.944294
0
LINE
8
annotation
62
1
39
211
10
29.864994
20
371.944294
11
29.705509
21
372.104089
0
LINE
8
annotation
62
1
39
211
10
29.705509
20
372.104089
11
29.520793
21
372.234914
0
LINE
8
annotation
62
1
39
211
10
29.520793
20
372.234914
11
29.314573
21
372.333010
0
LINE
8
annotation
62
1
39
211
10
29.314573
20
372.333010
11
29.090574
21
372.394623
0
LINE
8
annotation
62
1
39
211
10
29.090574
20
372.394623
11
28.852521
21
372.415996
0
LINE
8
annotation
62
1
39
211
10
28.852521
20
372.415996
11
28.852521
21
372.415996
0
LINE
8
annotation
62
1
39
211
10
28.852521
20
372.415996
11
28.614961
21
372.394623
0
LINE
8
annotation
62
1
39
211
10
28.614961
20
372.394623
11
28.391223
21
372.333010
0
LINE
8
annotation
62
1
39
211
10
28.391223
20
372.333010
11
28.185079
21
372.234914
0
LINE
8
annotation
62
1
39
211
10
28.185079
20
372.234914
11
28.000302
21
372.104089
0
LINE
8
annotation
62
1
39
211
10
28.000302
20
372.104089
11
27.840663
21
371.944294
0
LINE
8
annotation
62
1
39
211
10
27.840663
20
371.944294
11
27.709933
21
371.759283
0
LINE
8
annotation
62
1
39
211
10
27.709933
20
371.759283
11
27.611885
21
371.552814
0
LINE
8
annotation
62
1
39
211
10
27.611885
20
371.552814
11
27.550290
21
371.328643
0
LINE
8
annotation
62
1
39
211
10
27.550290
20
371.328643
11
27.528921
21
371.090526
0
LINE
8
annotation
62
1
39
211
10
27.528921
20
371.090526
11
27.528921
21
370.427792
0
LINE
8
annotation
62
1
39
211
10
27.528921
20
370.427792
11
27.528921
21
370.427792
0
LINE
8
annotation
62
1
39
211
10
27.528921
20
370.427792
11
27.550290
21
370.189688
0
LINE
8
annotation
62
1
39
211
10
27.550290
20
370.189688
11
27.611885
21
369.965551
0
LINE
8
annotation
62
1
39
211
10
27.611885
20
369.965551
11
27.709933
21
369.759132
0
LINE
8
annotation
62
1
39
211
10
27.709933
20
369.759132
11
27.840663
21
369.574180
0
LINE
8
annotation
62
1
39
211
10
27.840663
20
369.574180
11
28.000302
21
369.414446
0
LINE
8
annotation
62
1
39
211
10
28.000302
20
369.414446
11
28.185079
21
369.283681
0
LINE
8
annotation
62
1
39
211
10
28.185079
20
369.283681
11
28.391223
21
369.185634
0
LINE
8
annotation
62
1
39
211
10
28.391223
20
369.185634
11
28.614961
21
369.124056
0
LINE
8
annotation
62
1
39
211
10
28.614961
20
369.124056
11
28.852521
21
369.102696
0
LINE
8
annotation
62
1
39
211
10
28.852521
20
369.102696
11
30.176121
21
369.102696
0
LINE
8
annotation
62
1
39
211
10
27.363517
20
365.710433
11
30.343767
21
365.710433
0
LINE
8
annotation
62
1
39
211
10
145.734576
20
152.833295
11
141.084409
21
146.107255
0
LINE
8
annotation
62
1
39
211
10
141.084409
20
146.107255
11
136.433368
21
152.833295
0
LINE
8
annotation
62
1
39
211
10
141.084409
20
146.648521
11
141.084409
21
138.888916
0
LINE
8
annotation
62
1
39
211
10
158.589209
20
145.861106
11
150.965139
21
145.861106
0
LINE
8
annotation
62
1
39
211
10
166.916968
20
138.889354
11
166.916968
21
152.832858
0
LINE
8
annotation
62
1
39
211
10
166.916968
20
152.832858
11
163.817148
21
149.732164
0
LINE
8
annotation
62
1
39
211
10
172.145345
20
138.889354
11
175.241667
21
138.889354
0
LINE
8
annotation
62
1
39
211
10
175.241667
20
138.889354
11
175.241667
21
138.889354
0
LINE
8
annotation
62
1
39
211
10
175.241667
20
138.889354
11
175.797396
21
138.939320
0
LINE
8
annotation
62
1
39
211
10
175.797396
20
138.939320
11
176.320790
21
139.083372
0
LINE
8
annotation
62
1
39
211
10
176.320790
20
139.083372
11
176.803025
21
139.312735
0
LINE
8
annotation
62
1
39
211
10
176.803025
20
139.312735
11
177.235278
21
139.618637
0
LINE
8
annotation
62
1
39
211
10
177.235278
20
139.618637
11
177.608725
21
139.992304
0
LINE
8
annotation
62
1
39
211
10
177.608725
20
139.992304
11
177.914543
21
140.424965
0
LINE
8
annotation
62
1
39
211
10
177.914543
20
140.424965
11
178.143908
21
140.907845
0
LINE
8
annotation
62
1
39
211
10
178.143908
20
140.907845
11
178.287998
21
141.432172
0
LINE
8
annotation
62
1
39
211
10
178.287998
20
141.432172
11
178.337989
21
141.989173
0
LINE
8
annotation
62
1
39
211
10
178.337989
20
141.989173
11
178.337989
21
143.531650
0
LINE
8
annotation
62
1
39
211
10
178.337989
20
143.531650
11
178.337989
21
143.531650
0
LINE
8
annotation
62
1
39
211
10
178.337989
20
143.531650
11
178.288027
21
144.088381
0
LINE
8
annotation
62
1
39
211
10
178.288027
20
144.088381
11
178.144009
21
144.611985
0
LINE
8
annotation
62
1
39
211
10
178.144009
20
144.611985
11
177.914737
21
145.093818
0
LINE
8
annotation
62
1
39
211
10
177.914737
20
145.093818
11
177.609012
21
145.525237
0
LINE
8
annotation
62
1
39
211
10
177.609012
20
145.525237
11
177.235637
21
145.897599
0
LINE
8
annotation
62
1
39
211
10
177.235637
20
145.897599
11
176.803414
21
146.202259
0
LINE
8
annotation
62
1
39
211
10
176.803414
20
146.202259
11
176.321143
21
146.430575
0
LINE
8
annotation
62
1
39
211
10
176.321143
20
146.430575
11
175.797626
21
146.573903
0
LINE
8
annotation
62
1
39
211
10
175.797626
20
146.573903
11
175.241667
21
146.623600
0
LINE
8
annotation
62
1
39
211
10
175.241667
20
146.623600
11
172.145345
21
146.623600
0
LINE
8
annotation
62
1
39
211
10
172.145345
20
146.623600
11
172.145345
21
152.832858
0
LINE
8
annotation
62
1
39
211
10
172.145345
20
152.832858
11
178.337989
21
152.832858
0
LINE
8
boundary
62
5
39
2
10
348.024589
20
9.066373
11
352.817722
21
6.687500
0
LINE
8
boundary
62
5
39
2
10
352.817722
20
6.687500
11
364.720465
21
9.180099
0
LINE
8
boundary
62
5
39
2
10
364.720465
20
9.180099
11
373.360475
21
13.668420
0
LINE
8
boundary
62
5
39
2
10
373.360475
20
13.668420
11
385.979020
21
39.266621
0
LINE
8
boundary
62
5
39
2
10
385.979020
20
39.266621
11
386.682420
21
40.701710
0
LINE
8
boundary
62
5
39
2
10
386.682420
20
40.701710
11
386.915897
21
41.677881
0
LINE
8
boundary
62
5
39
2
10
386.915897
20
41.677881
11
389.321995
21
58.488586
0
LINE
8
boundary
62
5
39
2
10
389.321995
20
58.488586
11
391.616899
21
72.859205
0
LINE
8
boundary
62
5
39
2
10
391.616899
20
72.859205
11
391.465625
21
75.343251
0
LINE
8
boundary
62
5
39
2
10
391.465625
20
75.343251
11
392.022126
21
78.253234
0
LINE
8
boundary
62
5
39
2
10
392.022126
20
78.253234
11
388.985120
21
88.457240
0
LINE
8
boundary
62
5
39
2
10
388.985120
20
88.457240
11
387.317600
21
93.144430
0
LINE
8
boundary
62
5
39
2
10
387.317600
20
93.144430
11
382.251725
21
114.217474
0
LINE
8
boundary
62
5
39
2
10
382.251725
20
114.217474
11
381.545419
21
116.023964
0
LINE
8
boundary
62
5
39
2
10
381.545419
20
116.023964
11
377.884195
21
125.697653
0
LINE
8
boundary
62
5
39
2
10
377.884195
20
125.697653
11
376.648218
21
133.878053
0
LINE
8
boundary
62
5
39
2
10
376.648218
20
133.878053
11
376.248609
21
136.203429
0
LINE
8
boundary
62
5
39
2
10
376.248609
20
136.203429
11
376.115096
21
138.861336
0
LINE
8
boundary
62
5
39
2
10
376.115096
20
138.861336
11
373.896809
21
145.345322
0
LINE
8
boundary
62
5
39
2
10
373.896809
20
145.345322
11
372.847555
21
149.968260
0
LINE
8
boundary
62
5
39
2
10
372.847555
20
149.968260
11
371.801861
21
154.286343
0
LINE
8
boundary
62
5
39
2
10
371.801861
20
154.286343
11
370.792170
21
160.850776
0
LINE
8
boundary
62
5
39
2
10
370.792170
20
160.850776
11
369.789974
21
163.819133
0
LINE
8
boundary
62
5
39
2
10
369.789974
20
163.819133
11
369.047595
21
166.157939
0
LINE
8
boundary
62
5
39
2
10
369.047595
20
166.157939
11
366.286313
21
174.030555
0
LINE
8
boundary
62
5
39
2
10
366.286313
20
174.030555
11
362.697126
21
183.497059
0
LINE
8
boundary
62
5
39
2
10
362.697126
20
183.497059
11
362.301651
21
184.581537
0
LINE
8
boundary
62
5
39
2
10
362.301651
20
184.581537
11
361.759965
21
186.231948
0
LINE
8
boundary
62
5
39
2
10
361.759965
20
186.231948
11
357.128696
21
197.537894
0
LINE
8
boundary
62
5
39
2
10
357.128696
20
197.537894
11
354.058349
21
206.124724
0
LINE
8
boundary
62
5
39
2
10
354.058349
20
206.124724
11
352.312793
21
210.477342
0
LINE
8
boundary
62
5
39
2
10
352.312793
20
210.477342
11
350.502333
21
214.605074
0
LINE
8
boundary
62
5
39
2
10
350.502333
20
214.605074
11
340.220027
21
228.426718
0
LINE
8
boundary
62
5
39
2
10
340.220027
20
228.426718
11
337.334540
21
232.083722
0
LINE
8
boundary
62
5
39
2
10
337.334540
20
232.083722
11
334.937621
21
235.471479
0
LINE
8
boundary
62
5
39
2
10
334.937621
20
235.471479
11
327.854397
21
243.275296
0
LINE
8
boundary
62
5
39
2
10
327.854397
20
243.275296
11
319.910592
21
252.045948
0
LINE
8
boundary
62
5
39
2
10
319.910592
20
252.045948
11
317.746033
21
254.646778
0
LINE
8
boundary
62
5
39
2
10
317.746033
20
254.646778
11
313.900635
21
258.735572
0
LINE
8
boundary
62
5
39
2
10
313.900635
20
258.735572
11
307.668526
21
264.050515
0
LINE
8
boundary
62
5
39
2
10
307.668526
20
264.050515
11
300.842280
21
269.395461
0
LINE
8
boundary
62
5
39
2
10
300.842280
20
269.395461
11
291.478707
21
278.046308
0
LINE
8
boundary
62
5
39
2
10
291.478707
20
278.046308
11
286.493348
21
281.128589
0
LINE
8
boundary
62
5
39
2
10
286.493348
20
281.128589
11
274.951582
21
286.350481
0
LINE
8
boundary
62
5
39
2
10
274.951582
20
286.350481
11
274.951582
21
257.797762
0
LINE
8
boundary
62
5
39
2
10
274.951582
20
257.797762
11
279.406897
21
257.357662
0
LINE
8
boundary
62
5
39
2
10
279.406897
20
257.357662
11
296.217799
21
257.357662
0
LINE
8
boundary
62
5
39
2
10
296.217799
20
257.357662
11
296.217800
21
253.306662
0
LINE
8
boundary
62
5
39
2
10
296.217800
20
253.306662
11
279.406896
21
253.306662
0
LINE
8
boundary
62
5
39
2
10
279.406896
20
253.306662
11
274.951582
21
252.866562
0
LINE
8
boundary
62
5
39
2
10
274.951582
20
252.866562
11
274.951582
21
197.828000
0
LINE
8
boundary
62
5
39
2
10
274.951582
20
197.828000
11
279.406896
21
197.387900
0
LINE
8
boundary
62
5
39
2
10
279.406896
20
197.387900
11
316.466656
21
197.387900
0
LINE
8
boundary
62
5
39
2
10
316.466656
20
197.387900
11
316.466656
21
193.336900
0
LINE
8
boundary
62
5
39
2
10
316.466656
20
193.336900
11
279.406896
21
193.336900
0
LINE
8
boundary
62
5
39
2
10
279.406896
20
193.336900
11
274.951582
21
192.896800
0
LINE
8
boundary
62
5
39
2
10
274.951582
20
192.896800
11
274.951582
21
144.239258
0
LINE
8
boundary
62
5
39
2
10
274.951582
20
144.239258
11
279.406896
21
143.799158
0
LINE
8
boundary
62
5
39
2
10
279.406896
20
143.799158
11
325.206640
21
143.799158
0
LINE
8
boundary
62
5
39
2
10
325.206640
20
143.799158
11
325.206640
21
139.748158
0
LINE
8
boundary
62
5
39
2
10
325.206640
20
139.748158
11
279.406897
21
139.748158
0
LINE
8
boundary
62
5
39
2
10
279.406897
20
139.748158
11
274.951582
21
139.308058
0
LINE
8
boundary
62
5
39
2
10
274.951582
20
139.308058
11
274.951582
21
104.802905
0
LINE
8
boundary
62
5
39
2
10
274.951582
20
104.802905
11
279.406897
21
104.362805
0
LINE
8
boundary
62
5
39
2
10
279.406897
20
104.362805
11
330.098087
21
104.362805
0
LINE
8
boundary
62
5
39
2
10
330.098087
20
104.362805
11
330.098087
21
100.311805
0
LINE
8
boundary
62
5
39
2
10
330.098087
20
100.311805
11
279.784739
21
100.311805
0
LINE
8
boundary
62
5
39
2
10
279.784739
20
100.311805
11
275.329424
21
99.871705
0
LINE
8
boundary
62
5
39
2
10
275.329424
20
99.871705
11
280.018612
21
96.783710
0
LINE
8
boundary
62
5
39
2
10
280.018612
20
96.783710
11
283.691229
21
93.331037
0
LINE
8
boundary
62
5
39
2
10
283.691229
20
93.331037
11
293.053186
21
85.998399
0
LINE
8
boundary
62
5
39
2
10
293.053186
20
85.998399
11
296.579250
21
82.472892
0
LINE
8
boundary
62
5
39
2
10
296.579250
20
82.472892
11
306.081986
21
74.284196
0
LINE
8
boundary
62
5
39
2
10
306.081986
20
74.284196
11
309.143384
21
70.763444
0
LINE
8
boundary
62
5
39
2
10
309.143384
20
70.763444
11
314.303139
21
65.366553
0
LINE
8
boundary
62
5
39
2
10
314.303139
20
65.366553
11
318.758453
21
64.926452
0
LINE
8
boundary
62
5
39
2
10
318.758453
20
64.926452
11
352.361993
21
64.926452
0
LINE
8
boundary
62
5
39
2
10
352.361993
20
64.926452
11
352.361993
21
60.875453
0
LINE
8
boundary
62
5
39
2
10
352.361993
20
60.875453
11
323.472978
21
60.875452
0
LINE
8
boundary
62
5
39
2
10
323.472978
20
60.875452
11
319.017664
21
60.435353
0
LINE
8
boundary
62
5
39
2
10
319.017664
20
60.435353
11
320.184802
21
58.484252
0
LINE
8
boundary
62
5
39
2
10
320.184802
20
58.484252
11
321.432351
21
56.327810
0
LINE
8
boundary
62
5
39
2
10
321.432351
20
56.327810
11
325.643828
21
50.193857
0
LINE
8
boundary
62
5
39
2
10
325.643828
20
50.193857
11
329.389924
21
44.503232
0
LINE
8
boundary
62
5
39
2
10
329.389924
20
44.503232
11
336.141734
21
28.956715
0
LINE
8
boundary
62
5
39
2
10
336.141734
20
28.956715
11
337.398982
21
26.593253
0
LINE
8
boundary
62
5
39
2
10
337.398982
20
26.593253
11
337.829218
21
25.930200
0
LINE
8
boundary
62
5
39
2
10
337.829218
20
25.930200
11
342.284532
21
25.490100
0
LINE
8
boundary
62
5
39
2
10
342.284532
20
25.490100
11
358.476359
21
25.490100
0
LINE
8
boundary
62
5
39
2
10
358.476359
20
25.490100
11
358.476359
21
21.439100
0
LINE
8
boundary
62
5
39
2
10
358.476359
20
21.439100
11
345.372653
21
21.439100
0
LINE
8
boundary
62
5
39
2
10
345.372653
20
21.439100
11
340.917338
21
20.999000
0
LINE
8
boundary
62
5
39
2
10
340.917338
20
20.999000
11
348.024589
21
9.066373
0
LINE
8
annotation
62
1
39
211
10
369.407396
20
21.509238
11
365.497555
21
21.509238
0
LINE
8
annotation
62
1
39
211
10
365.497555
20
21.509238
11
367.059019
21
26.985400
0
LINE
8
annotation
62
1
39
211
10
368.235415
20
19.943800
11
368.235415
21
23.071143
0
LINE
8
annotation
62
1
39
211
10
359.774438
20
59.380153
11
361.338110
21
59.380153
0
LINE
8
annotation
62
1
39
211
10
361.338110
20
59.380153
11
361.338110
21
59.380153
0
LINE
8
annotation
62
1
39
211
10
361.338110
20
59.380153
11
361.618758
21
59.405386
0
LINE
8
annotation
62
1
39
211
10
361.618758
20
59.405386
11
361.883077
21
59.478134
0
LINE
8
annotation
62
1
39
211
10
361.883077
20
59.478134
11
362.126610
21
59.593964
0
LINE
8
annotation
62
1
39
211
10
362.126610
20
59.593964
11
362.344902
21
59.748447
0
LINE
8
annotation
62
1
39
211
10
362.344902
20
59.748447
11
362.533496
21
59.937153
0
LINE
8
annotation
62
1
39
211
10
362.533496
20
59.937153
11
362.687937
21
60.155651
0
LINE
8
annotation
62
1
39
211
10
362.687937
20
60.155651
11
362.803769
21
60.399510
0
LINE
8
annotation
62
1
39
211
10
362.803769
20
60.399510
11
362.876536
21
60.664300
0
LINE
8
annotation
62
1
39
211
10
362.876536
20
60.664300
11
362.901781
21
60.945591
0
LINE
8
annotation
62
1
39
211
10
362.901781
20
60.945591
11
362.901781
21
61.724556
0
LINE
8
annotation
62
1
39
211
10
362.901781
20
61.724556
11
362.901781
21
61.724556
0
LINE
8
annotation
62
1
39
211
10
362.901781
20
61.724556
11
362.876550
21
62.005710
0
LINE
8
annotation
62
1
39
211
10
362.876550
20
62.005710
11
362.803820
21
62.270135
0
LINE
8
annotation
62
1
39
211
10
362.803820
20
62.270135
11
362.688035
21
62.513465
0
LINE
8
annotation
62
1
39
211
10
362.688035
20
62.513465
11
362.533642
21
62.731336
0
LINE
8
annotation
62
1
39
211
10
362.533642
20
62.731336
11
362.345084
21
62.919382
0
LINE
8
annotation
62
1
39
211
10
362.345084
20
62.919382
11
362.126807
21
63.073238
0
LINE
8
annotation
62
1
39
211
10
362.126807
20
63.073238
11
361.883255
21
63.188540
0
LINE
8
annotation
62
1
39
211
10
361.883255
20
63.188540
11
361.618875
21
63.260922
0
LINE
8
annotation
62
1
39
211
10
361.618875
20
63.260922
11
361.338110
21
63.286019
0
LINE
8
annotation
62
1
39
211
10
361.338110
20
63.286019
11
359.774438
21
63.286019
0
LINE
8
annotation
62
1
39
211
10
359.774438
20
63.286019
11
359.774438
21
66.421753
0
LINE
8
annotation
62
1
39
211
10
359.774438
20
66.421753
11
362.901781
21
66.421753
0
LINE
8
annotation
62
1
39
211
10
339.859351
20
105.858105
11
339.859351
21
105.858105
0
LINE
8
annotation
62
1
39
211
10
339.859351
20
105.858105
11
339.411399
21
105.690150
0
LINE
8
annotation
62
1
39
211
10
339.411399
20
105.690150
11
339.000343
21
105.463850
0
LINE
8
annotation
62
1
39
211
10
339.000343
20
105.463850
11
338.630405
21
105.184876
0
LINE
8
annotation
62
1
39
211
10
338.630405
20
105.184876
11
338.305804
21
104.858897
0
LINE
8
annotation
62
1
39
211
10
338.305804
20
104.858897
11
338.030758
21
104.491583
0
LINE
8
annotation
62
1
39
211
10
338.030758
20
104.491583
11
337.809489
21
104.088604
0
LINE
8
annotation
62
1
39
211
10
337.809489
20
104.088604
11
337.646215
21
103.655629
0
LINE
8
annotation
62
1
39
211
10
337.646215
20
103.655629
11
337.545156
21
103.198328
0
LINE
8
annotation
62
1
39
211
10
337.545156
20
103.198328
11
337.510532
21
102.722372
0
LINE
8
annotation
62
1
39
211
10
337.510532
20
102.722372
11
337.510532
21
100.381943
0
LINE
8
annotation
62
1
39
211
10
337.510532
20
100.381943
11
337.510532
21
100.381943
0
LINE
8
annotation
62
1
39
211
10
337.510532
20
100.381943
11
337.535778
21
100.100652
0
LINE
8
annotation
62
1
39
211
10
337.535778
20
100.100652
11
337.608545
21
99.835862
0
LINE
8
annotation
62
1
39
211
10
337.608545
20
99.835862
11
337.724376
21
99.592003
0
LINE
8
annotation
62
1
39
211
10
337.724376
20
99.592003
11
337.878817
21
99.373506
0
LINE
8
annotation
62
1
39
211
10
337.878817
20
99.373506
11
338.067411
21
99.184800
0
LINE
8
annotation
62
1
39
211
10
338.067411
20
99.184800
11
338.285703
21
99.030317
0
LINE
8
annotation
62
1
39
211
10
338.285703
20
99.030317
11
338.529236
21
98.914486
0
LINE
8
annotation
62
1
39
211
10
338.529236
20
98.914486
11
338.793555
21
98.841739
0
LINE
8
annotation
62
1
39
211
10
338.793555
20
98.841739
11
339.074204
21
98.816505
0
LINE
8
annotation
62
1
39
211
10
339.074204
20
98.816505
11
339.074204
21
98.816505
0
LINE
8
annotation
62
1
39
211
10
339.074204
20
98.816505
11
339.355434
21
98.841739
0
LINE
8
annotation
62
1
39
211
10
339.355434
20
98.841739
11
339.620061
21
98.914486
0
LINE
8
annotation
62
1
39
211
10
339.620061
20
98.914486
11
339.863685
21
99.030317
0
LINE
8
annotation
62
1
39
211
10
339.863685
20
99.030317
11
340.081904
21
99.184800
0
LINE
8
annotation
62
1
39
211
10
340.081904
20
99.184800
11
340.270317
21
99.373506
0
LINE
8
annotation
62
1
39
211
10
340.270317
20
99.373506
11
340.424521
21
99.592003
0
LINE
8
annotation
62
1
39
211
10
340.424521
20
99.592003
11
340.540117
21
99.835862
0
LINE
8
annotation
62
1
39
211
10
340.540117
20
99.835862
11
340.612702
21
100.100652
0
LINE
8
annotation
62
1
39
211
10
340.612702
20
100.100652
11
340.637875
21
100.381943
0
LINE
8
annotation
62
1
39
211
10
340.637875
20
100.381943
11
340.637875
21
101.160908
0
LINE
8
annotation
62
1
39
211
10
340.637875
20
101.160908
11
340.637875
21
101.160908
0
LINE
8
annotation
62
1
39
211
10
340.637875
20
101.160908
11
340.612702
21
101.442063
0
LINE
8
annotation
62
1
39
211
10
340.612702
20
101.442063
11
340.540117
21
101.706488
0
LINE
8
annotation
62
1
39
211
10
340.540117
20
101.706488
11
340.424521
21
101.949818
0
LINE
8
annotation
62
1
39
211
10
340.424521
20
101.949818
11
340.270317
21
102.167688
0
LINE
8
annotation
62
1
39
211
10
340.270317
20
102.167688
11
340.081904
21
102.355734
0
LINE
8
annotation
62
1
39
211
10
340.081904
20
102.355734
11
339.863685
21
102.509591
0
LINE
8
annotation
62
1
39
211
10
339.863685
20
102.509591
11
339.620061
21
102.624893
0
LINE
8
annotation
62
1
39
211
10
339.620061
20
102.624893
11
339.355434
21
102.697275
0
LINE
8
annotation
62
1
39
211
10
339.355434
20
102.697275
11
339.074204
21
102.722372
0
LINE
8
annotation
62
1
39
211
10
339.074204
20
102.722372
11
337.510532
21
102.722372
0
LINE
8
annotation
62
1
39
211
10
337.314687
20
97.936305
11
340.835487
21
97.936305
0
LINE
8
annotation
62
1
39
211
10
334.182757
20
138.252858
11
335.748195
21
145.294458
0
LINE
8
annotation
62
1
39
211
10
335.748195
20
145.294458
11
332.616878
21
145.294458
0
LINE
8
annotation
62
1
39
211
10
335.748195
20
142.158725
11
334.182757
21
142.158725
0
LINE
8
annotation
62
1
39
211
10
323.879102
20
193.402843
11
323.879102
21
193.402843
0
LINE
8
annotation
62
1
39
211
10
323.879102
20
193.402843
11
323.904348
21
193.121688
0
LINE
8
annotation
62
1
39
211
10
323.904348
20
193.121688
11
323.977114
21
192.857264
0
LINE
8
annotation
62
1
39
211
10
323.977114
20
192.857264
11
324.092946
21
192.613933
0
LINE
8
annotation
62
1
39
211
10
324.092946
20
192.613933
11
324.247387
21
192.396063
0
LINE
8
annotation
62
1
39
211
10
324.247387
20
192.396063
11
324.435981
21
192.208017
0
LINE
8
annotation
62
1
39
211
10
324.435981
20
192.208017
11
324.654273
21
192.054160
0
LINE
8
annotation
62
1
39
211
10
324.654273
20
192.054160
11
324.897806
21
191.938859
0
LINE
8
annotation
62
1
39
211
10
324.897806
20
191.938859
11
325.162125
21
191.866477
0
LINE
8
annotation
62
1
39
211
10
325.162125
20
191.866477
11
325.442773
21
191.841379
0
LINE
8
annotation
62
1
39
211
10
325.442773
20
191.841379
11
325.442773
21
191.841379
0
LINE
8
annotation
62
1
39
211
10
325.442773
20
191.841379
11
325.723422
21
191.866477
0
LINE
8
annotation
62
1
39
211
10
325.723422
20
191.866477
11
325.987741
21
191.938859
0
LINE
8
annotation
62
1
39
211
10
325.987741
20
191.938859
11
326.231274
21
192.054160
0
LINE
8
annotation
62
1
39
211
10
326.231274
20
192.054160
11
326.449565
21
192.208017
0
LINE
8
annotation
62
1
39
211
10
326.449565
20
192.208017
11
326.638160
21
192.396063
0
LINE
8
annotation
62
1
39
211
10
326.638160
20
192.396063
11
326.792601
21
192.613933
0
LINE
8
annotation
62
1
39
211
10
326.792601
20
192.613933
11
326.908432
21
192.857264
0
LINE
8
annotation
62
1
39
211
10
326.908432
20
192.857264
11
326.981199
21
193.121688
0
LINE
8
annotation
62
1
39
211
10
326.981199
20
193.121688
11
327.006445
21
193.402843
0
LINE
8
annotation
62
1
39
211
10
327.006445
20
193.402843
11
327.006445
21
194.181808
0
LINE
8
annotation
62
1
39
211
10
327.006445
20
194.181808
11
327.006445
21
194.181808
0
LINE
8
annotation
62
1
39
211
10
327.006445
20
194.181808
11
326.981214
21
194.463099
0
LINE
8
annotation
62
1
39
211
10
326.981214
20
194.463099
11
326.908483
21
194.727889
0
LINE
8
annotation
62
1
39
211
10
326.908483
20
194.727889
11
326.792699
21
194.971748
0
LINE
8
annotation
62
1
39
211
10
326.792699
20
194.971748
11
326.638305
21
195.190245
0
LINE
8
annotation
62
1
39
211
10
326.638305
20
195.190245
11
326.449747
21
195.378951
0
LINE
8
annotation
62
1
39
211
10
326.449747
20
195.378951
11
326.231470
21
195.533434
0
LINE
8
annotation
62
1
39
211
10
326.231470
20
195.533434
11
325.987919
21
195.649265
0
LINE
8
annotation
62
1
39
211
10
325.987919
20
195.649265
11
325.723538
21
195.722012
0
LINE
8
annotation
62
1
39
211
10
325.723538
20
195.722012
11
325.442773
21
195.747246
0
LINE
8
annotation
62
1
39
211
10
325.442773
20
195.747246
11
325.442773
21
195.747246
0
LINE
8
annotation
62
1
39
211
10
325.442773
20
195.747246
11
325.162008
21
195.721998
0
LINE
8
annotation
62
1
39
211
10
325.162008
20
195.721998
11
324.897628
21
195.649214
0
LINE
8
annotation
62
1
39
211
10
324.897628
20
195.649214
11
324.654077
21
195.533336
0
LINE
8
annotation
62
1
39
211
10
324.654077
20
195.533336
11
324.435799
21
195.378806
0
LINE
8
annotation
62
1
39
211
10
324.435799
20
195.378806
11
324.247242
21
195.190064
0
LINE
8
annotation
62
1
39
211
10
324.247242
20
195.190064
11
324.092848
21
194.971552
0
LINE
8
annotation
62
1
39
211
10
324.092848
20
194.971552
11
323.977063
21
194.727711
0
LINE
8
annotation
62
1
39
211
10
323.977063
20
194.727711
11
323.904333
21
194.462982
0
LINE
8
annotation
62
1
39
211
10
323.904333
20
194.462982
11
323.879102
21
194.181808
0
LINE
8
annotation
62
1
39
211
10
323.879102
20
194.181808
11
323.879102
21
193.402843
0
LINE
8
annotation
62
1
39
211
10
327.006445
20
197.313125
11
327.006445
21
197.313125
0
LINE
8
annotation
62
1
39
211
10
327.006445
20
197.313125
11
326.981214
21
197.593117
0
LINE
8
annotation
62
1
39
211
10
326.981214
20
197.593117
11
326.908483
21
197.856924
0
LINE
8
annotation
62
1
39
211
10
326.908483
20
197.856924
11
326.792699
21
198.100072
0
LINE
8
annotation
62
1
39
211
10
326.792699
20
198.100072
11
326.638305
21
198.318088
0
LINE
8
annotation
62
1
39
211
10
326.638305
20
198.318088
11
326.449747
21
198.506498
0
LINE
8
annotation
62
1
39
211
10
326.449747
20
198.506498
11
326.231470
21
198.660826
0
LINE
8
annotation
62
1
39
211
10
326.231470
20
198.660826
11
325.987919
21
198.776601
0
LINE
8
annotation
62
1
39
211
10
325.987919
20
198.776601
11
325.723538
21
198.849346
0
LINE
8
annotation
62
1
39
211
10
325.723538
20
198.849346
11
325.442773
21
198.874589
0
LINE
8
annotation
62
1
39
211
10
325.442773
20
198.874589
11
325.442773
21
198.874589
0
LINE
8
annotation
62
1
39
211
10
325.442773
20
198.874589
11
325.162008
21
198.849346
0
LINE
8
annotation
62
1
39
211
10
325.162008
20
198.849346
11
324.897628
21
198.776601
0
LINE
8
annotation
62
1
39
211
10
324.897628
20
198.776601
11
324.654077
21
198.660826
0
LINE
8
annotation
62
1
39
211
10
324.654077
20
198.660826
11
324.435799
21
198.506498
0
LINE
8
annotation
62
1
39
211
10
324.435799
20
198.506498
11
324.247242
21
198.318088
0
LINE
8
annotation
62
1
39
211
10
324.247242
20
198.318088
11
324.092848
21
198.100072
0
LINE
8
annotation
62
1
39
211
10
324.092848
20
198.100072
11
323.977063
21
197.856924
0
LINE
8
annotation
62
1
39
211
10
323.977063
20
197.856924
11
323.904333
21
197.593117
0
LINE
8
annotation
62
1
39
211
10
323.904333
20
197.593117
11
323.879102
21
197.313125
0
LINE
8
annotation
62
1
39
211
10
323.879102
20
197.313125
11
323.879102
21
197.313125
0
LINE
8
annotation
62
1
39
211
10
323.879102
20
197.313125
11
323.904348
21
197.031820
0
LINE
8
annotation
62
1
39
211
10
323.904348
20
197.031820
11
323.977114
21
196.766989
0
LINE
8
annotation
62
1
39
211
10
323.977114
20
196.766989
11
324.092946
21
196.523071
0
LINE
8
annotation
62
1
39
211
10
324.092946
20
196.523071
11
324.247387
21
196.304504
0
LINE
8
annotation
62
1
39
211
10
324.247387
20
196.304504
11
324.435981
21
196.115725
0
LINE
8
annotation
62
1
39
211
10
324.435981
20
196.115725
11
324.654273
21
195.961172
0
LINE
8
annotation
62
1
39
211
10
324.654273
20
195.961172
11
324.897806
21
195.845283
0
LINE
8
annotation
62
1
39
211
10
324.897806
20
195.845283
11
325.162125
21
195.772495
0
LINE
8
annotation
62
1
39
211
10
325.162125
20
195.772495
11
325.442773
21
195.747246
0
LINE
8
annotation
62
1
39
211
10
325.442773
20
195.747246
11
325.442773
21
195.747246
0
LINE
8
annotation
62
1
39
211
10
325.442773
20
195.747246
11
325.723422
21
195.772495
0
LINE
8
annotation
62
1
39
211
10
325.723422
20
195.772495
11
325.987741
21
195.845283
0
LINE
8
annotation
62
1
39
211
10
325.987741
20
195.845283
11
326.231274
21
195.961172
0
LINE
8
annotation
62
1
39
211
10
326.231274
20
195.961172
11
326.449565
21
196.115725
0
LINE
8
annotation
62
1
39
211
10
326.449565
20
196.115725
11
326.638160
21
196.304504
0
LINE
8
annotation
62
1
39
211
10
326.638160
20
196.304504
11
326.792601
21
196.523071
0
LINE
8
annotation
62
1
39
211
10
326.792601
20
196.523071
11
326.908432
21
196.766989
0
LINE
8
annotation
62
1
39
211
10
326.908432
20
196.766989
11
326.981199
21
197.031820
0
LINE
8
annotation
62
1
39
211
10
326.981199
20
197.031820
11
327.006445
21
197.313125
0
LINE
8
annotation
62
1
39
211
10
304.410977
20
251.811362
11
304.410977
21
251.811362
0
LINE
8
annotation
62
1
39
211
10
304.410977
20
251.811362
11
304.858140
21
251.977997
0
LINE
8
annotation
62
1
39
211
10
304.858140
20
251.977997
11
305.268581
21
252.203235
0
LINE
8
annotation
62
1
39
211
10
305.268581
20
252.203235
11
305.638058
21
252.481336
0
LINE
8
annotation
62
1
39
211
10
305.638058
20
252.481336
11
305.962329
21
252.806562
0
LINE
8
annotation
62
1
39
211
10
305.962329
20
252.806562
11
306.237153
21
253.173174
0
LINE
8
annotation
62
1
39
211
10
306.237153
20
253.173174
11
306.458288
21
253.575434
0
LINE
8
annotation
62
1
39
211
10
306.458288
20
253.575434
11
306.621493
21
254.007601
0
LINE
8
annotation
62
1
39
211
10
306.621493
20
254.007601
11
306.722526
21
254.463938
0
LINE
8
annotation
62
1
39
211
10
306.722526
20
254.463938
11
306.757146
21
254.938705
0
LINE
8
annotation
62
1
39
211
10
306.757146
20
254.938705
11
306.757146
21
257.287082
0
LINE
8
annotation
62
1
39
211
10
306.757146
20
257.287082
11
306.757146
21
257.287082
0
LINE
8
annotation
62
1
39
211
10
306.757146
20
257.287082
11
306.731973
21
257.568388
0
LINE
8
annotation
62
1
39
211
10
306.731973
20
257.568388
11
306.659388
21
257.833219
0
LINE
8
annotation
62
1
39
211
10
306.659388
20
257.833219
11
306.543793
21
258.077137
0
LINE
8
annotation
62
1
39
211
10
306.543793
20
258.077137
11
306.389588
21
258.295704
0
LINE
8
annotation
62
1
39
211
10
306.389588
20
258.295704
11
306.201175
21
258.484483
0
LINE
8
annotation
62
1
39
211
10
306.201175
20
258.484483
11
305.982956
21
258.639036
0
LINE
8
annotation
62
1
39
211
10
305.982956
20
258.639036
11
305.739332
21
258.754925
0
LINE
8
annotation
62
1
39
211
10
305.739332
20
258.754925
11
305.474705
21
258.827713
0
LINE
8
annotation
62
1
39
211
10
305.474705
20
258.827713
11
305.193475
21
258.852962
0
LINE
8
annotation
62
1
39
211
10
305.193475
20
258.852962
11
305.193475
21
258.852962
0
LINE
8
annotation
62
1
39
211
10
305.193475
20
258.852962
11
304.912826
21
258.827713
0
LINE
8
annotation
62
1
39
211
10
304.912826
20
258.827713
11
304.648507
21
258.754925
0
LINE
8
annotation
62
1
39
211
10
304.648507
20
258.754925
11
304.404974
21
258.639036
0
LINE
8
annotation
62
1
39
211
10
304.404974
20
258.639036
11
304.186683
21
258.484483
0
LINE
8
annotation
62
1
39
211
10
304.186683
20
258.484483
11
303.998088
21
258.295704
0
LINE
8
annotation
62
1
39
211
10
303.998088
20
258.295704
11
303.843647
21
258.077137
0
LINE
8
annotation
62
1
39
211
10
303.843647
20
258.077137
11
303.727816
21
257.833219
0
LINE
8
annotation
62
1
39
211
10
303.727816
20
257.833219
11
303.655049
21
257.568388
0
LINE
8
annotation
62
1
39
211
10
303.655049
20
257.568388
11
303.629803
21
257.287082
0
LINE
8
annotation
62
1
39
211
10
303.629803
20
257.287082
11
303.629803
21
256.504143
0
LINE
8
annotation
62
1
39
211
10
303.629803
20
256.504143
11
303.629803
21
256.504143
0
LINE
8
annotation
62
1
39
211
10
303.629803
20
256.504143
11
303.655049
21
256.222852
0
LINE
8
annotation
62
1
39
211
10
303.655049
20
256.222852
11
303.727816
21
255.958062
0
LINE
8
annotation
62
1
39
211
10
303.727816
20
255.958062
11
303.843647
21
255.714203
0
LINE
8
annotation
62
1
39
211
10
303.843647
20
255.714203
11
303.998088
21
255.495705
0
LINE
8
annotation
62
1
39
211
10
303.998088
20
255.495705
11
304.186683
21
255.307000
0
LINE
8
annotation
62
1
39
211
10
304.186683
20
255.307000
11
304.404974
21
255.152516
0
LINE
8
annotation
62
1
39
211
10
304.404974
20
255.152516
11
304.648507
21
255.036686
0
LINE
8
annotation
62
1
39
211
10
304.648507
20
255.036686
11
304.912826
21
254.963938
0
LINE
8
annotation
62
1
39
211
10
304.912826
20
254.963938
11
305.193475
21
254.938705
0
LINE
8
annotation
62
1
39
211
10
305.193475
20
254.938705
11
306.757146
21
254.938705
0
LINE
8
annotation
62
1
39
211
10
303.434399
20
250.931162
11
306.955199
21
250.931162
0
LINE
8
annotation
62
1
39
211
10
303.053840
20
178.439352
11
296.337889
21
168.725344
0
LINE
8
annotation
62
1
39
211
10
296.337889
20
168.725344
11
289.620676
21
178.439352
0
LINE
8
annotation
62
1
39
211
10
296.337889
20
169.507062
11
296.337889
21
158.300340
0
LINE
8
annotation
62
1
39
211
10
321.618997
20
168.369846
11
310.608021
21
168.369846
0
LINE
8
annotation
62
1
39
211
10
333.646269
20
158.300972
11
333.646269
21
178.438720
0
LINE
8
annotation
62
1
39
211
10
333.646269
20
178.438720
11
329.169390
21
173.960578
0
LINE
8
boundary
62
5
39
2
10
316.360414
20
291.645935
11
319.070612
21
290.794364
0
LINE
8
boundary
62
5
39
2
10
319.070612
20
290.794364
11
323.553254
21
290.013015
0
LINE
8
boundary
62
5
39
2
10
323.553254
20
290.013015
11
324.763115
21
289.826465
0
LINE
8
boundary
62
5
39
2
10
324.763115
20
289.826465
11
328.236775
21
289.587239
0
LINE
8
boundary
62
5
39
2
10
328.236775
20
289.587239
11
330.360016
21
289.525481
0
LINE
8
boundary
62
5
39
2
10
330.360016
20
289.525481
11
332.808025
21
289.873758
0
LINE
8
boundary
62
5
39
2
10
332.808025
20
289.873758
11
335.633440
21
289.913400
0
LINE
8
boundary
62
5
39
2
10
335.633440
20
289.913400
11
338.646689
21
290.696029
0
LINE
8
boundary
62
5
39
2
10
338.646689
20
290.696029
11
340.471310
21
291.077103
0
LINE
8
boundary
62
5
39
2
10
340.471310
20
291.077103
11
341.889539
21
291.575928
0
LINE
8
boundary
62
5
39
2
10
341.889539
20
291.575928
11
345.305905
21
292.492889
0
LINE
8
boundary
62
5
39
2
10
345.305905
20
292.492889
11
346.262356
21
293.066049
0
LINE
8
boundary
62
5
39
2
10
346.262356
20
293.066049
11
350.273643
21
294.689686
0
LINE
8
boundary
62
5
39
2
10
350.273643
20
294.689686
11
355.168555
21
297.684378
0
LINE
8
boundary
62
5
39
2
10
355.168555
20
297.684378
11
357.040238
21
299.300475
0
LINE
8
boundary
62
5
39
2
10
357.040238
20
299.300475
11
359.851538
21
301.438497
0
LINE
8
boundary
62
5
39
2
10
359.851538
20
301.438497
11
364.126647
21
305.211102
0
LINE
8
boundary
62
5
39
2
10
364.126647
20
305.211102
11
364.904966
21
305.853637
0
LINE
8
boundary
62
5
39
2
10
364.904966
20
305.853637
11
367.107997
21
310.407529
0
LINE
8
boundary
62
5
39
2
10
367.107997
20
310.407529
11
367.435574
21
311.084249
0
LINE
8
boundary
62
5
39
2
10
367.435574
20
311.084249
11
369.698904
21
315.280241
0
LINE
8
boundary
62
5
39
2
10
369.698904
20
315.280241
11
370.036892
21
316.301594
0
LINE
8
boundary
62
5
39
2
10
370.036892
20
316.301594
11
370.895251
21
320.689983
0
LINE
8
boundary
62
5
39
2
10
370.895251
20
320.689983
11
371.094008
21
321.910355
0
LINE
8
boundary
62
5
39
2
10
371.094008
20
321.910355
11
371.850154
21
326.159516
0
LINE
8
boundary
62
5
39
2
10
371.850154
20
326.159516
11
372.288553
21
328.022470
0
LINE
8
boundary
62
5
39
2
10
372.288553
20
328.022470
11
372.157130
21
332.209178
0
LINE
8
boundary
62
5
39
2
10
372.157130
20
332.209178
11
372.110524
21
334.475656
0
LINE
8
boundary
62
5
39
2
10
372.110524
20
334.475656
11
371.681098
21
336.525852
0
LINE
8
boundary
62
5
39
2
10
371.681098
20
336.525852
11
370.730529
21
341.191000
0
LINE
8
boundary
62
5
39
2
10
370.730529
20
341.191000
11
367.786925
21
346.818933
0
LINE
8
boundary
62
5
39
2
10
367.786925
20
346.818933
11
364.397884
21
350.789867
0
LINE
8
boundary
62
5
39
2
10
364.397884
20
350.789867
11
363.687031
21
351.899762
0
LINE
8
boundary
62
5
39
2
10
363.687031
20
351.899762
11
362.063805
21
356.479274
0
LINE
8
boundary
62
5
39
2
10
362.063805
20
356.479274
11
360.584802
21
358.602246
0
LINE
8
boundary
62
5
39
2
10
360.584802
20
358.602246
11
357.988553
21
361.116564
0
LINE
8
boundary
62
5
39
2
10
357.988553
20
361.116564
11
352.890994
21
364.597838
0
LINE
8
boundary
62
5
39
2
10
352.890994
20
364.597838
11
352.244575
21
364.943600
0
LINE
8
boundary
62
5
39
2
10
352.244575
20
364.943600
11
347.629194
21
369.295919
0
LINE
8
boundary
62
5
39
2
10
347.629194
20
369.295919
11
344.234203
21
371.526969
0
LINE
8
boundary
62
5
39
2
10
344.234203
20
371.526969
11
342.364458
21
372.521140
0
LINE
8
boundary
62
5
39
2
10
342.364458
20
372.521140
11
339.085506
21
373.439845
0
LINE
8
boundary
62
5
39
2
10
339.085506
20
373.439845
11
337.309646
21
374.277756
0
LINE
8
boundary
62
5
39
2
10
337.309646
20
374.277756
11
336.139212
21
374.649442
0
LINE
8
boundary
62
5
39
2
10
336.139212
20
374.649442
11
332.709918
21
375.380682
0
LINE
8
boundary
62
5
39
2
10
332.709918
20
375.380682
11
334.729578
21
371.385124
0
LINE
8
boundary
62
5
39
2
10
334.729578
20
371.385124
11
350.899606
21
345.961120
0
LINE
8
boundary
62
5
39
2
10
350.899606
20
345.961120
11
347.481392
21
343.787087
0
LINE
8
boundary
62
5
39
2
10
347.481392
20
343.787087
11
328.977201
21
372.881078
0
LINE
8
boundary
62
5
39
2
10
328.977201
20
372.881078
11
326.214833
21
376.404263
0
LINE
8
boundary
62
5
39
2
10
326.214833
20
376.404263
11
324.838438
21
376.520374
0
LINE
8
boundary
62
5
39
2
10
324.838438
20
376.520374
11
319.143671
21
377.375226
0
LINE
8
boundary
62
5
39
2
10
319.143671
20
377.375226
11
317.346299
21
377.857841
0
LINE
8
boundary
62
5
39
2
10
317.346299
20
377.857841
11
316.818497
21
378.037508
0
LINE
8
boundary
62
5
39
2
10
316.818497
20
378.037508
11
311.288004
21
378.271077
0
LINE
8
boundary
62
5
39
2
10
311.288004
20
378.271077
11
309.188125
21
378.280938
0
LINE
8
boundary
62
5
39
2
10
309.188125
20
378.280938
11
305.267757
21
377.552001
0
LINE
8
boundary
62
5
39
2
10
305.267757
20
377.552001
11
302.510175
21
377.087265
0
LINE
8
boundary
62
5
39
2
10
302.510175
20
377.087265
11
298.794192
21
376.301212
0
LINE
8
boundary
62
5
39
2
10
298.794192
20
376.301212
11
296.071124
21
375.720502
0
LINE
8
boundary
62
5
39
2
10
296.071124
20
375.720502
11
291.245885
21
373.515115
0
LINE
8
boundary
62
5
39
2
10
291.245885
20
373.515115
11
289.594731
21
372.738549
0
LINE
8
boundary
62
5
39
2
10
289.594731
20
372.738549
11
285.653118
21
368.467140
0
LINE
8
boundary
62
5
39
2
10
285.653118
20
368.467140
11
284.005896
21
366.916027
0
LINE
8
boundary
62
5
39
2
10
284.005896
20
366.916027
11
280.755766
21
362.900815
0
LINE
8
boundary
62
5
39
2
10
280.755766
20
362.900815
11
279.359056
21
361.413996
0
LINE
8
boundary
62
5
39
2
10
279.359056
20
361.413996
11
277.384205
21
358.056085
0
LINE
8
boundary
62
5
39
2
10
277.384205
20
358.056085
11
276.390618
21
356.148723
0
LINE
8
boundary
62
5
39
2
10
276.390618
20
356.148723
11
275.537798
21
351.684004
0
LINE
8
boundary
62
5
39
2
10
275.537798
20
351.684004
11
274.951582
21
347.385674
0
LINE
8
boundary
62
5
39
2
10
274.951582
20
347.385674
11
275.229733
21
344.800261
0
LINE
8
boundary
62
5
39
2
10
275.229733
20
344.800261
11
275.850869
21
340.569319
0
LINE
8
boundary
62
5
39
2
10
275.850869
20
340.569319
11
275.928500
21
339.308090
0
LINE
8
boundary
62
5
39
2
10
275.928500
20
339.308090
11
278.960855
21
336.014409
0
LINE
8
boundary
62
5
39
2
10
278.960855
20
336.014409
11
303.810327
21
313.855589
0
LINE
8
boundary
62
5
39
2
10
303.810327
20
313.855589
11
301.114207
21
310.832091
0
LINE
8
boundary
62
5
39
2
10
301.114207
20
310.832091
11
281.407170
21
328.405289
0
LINE
8
boundary
62
5
39
2
10
281.407170
20
328.405289
11
277.789002
21
331.042025
0
LINE
8
boundary
62
5
39
2
10
277.789002
20
331.042025
11
278.730958
21
327.986961
0
LINE
8
boundary
62
5
39
2
10
278.730958
20
327.986961
11
279.430484
21
326.367222
0
LINE
8
boundary
62
5
39
2
10
279.430484
20
326.367222
11
282.006650
21
321.481945
0
LINE
8
boundary
62
5
39
2
10
282.006650
20
321.481945
11
284.988201
21
314.440379
0
LINE
8
boundary
62
5
39
2
10
284.988201
20
314.440379
11
285.931323
21
313.008328
0
LINE
8
boundary
62
5
39
2
10
285.931323
20
313.008328
11
288.758753
21
308.379306
0
LINE
8
boundary
62
5
39
2
10
288.758753
20
308.379306
11
290.468999
21
306.462717
0
LINE
8
boundary
62
5
39
2
10
290.468999
20
306.462717
11
293.023462
21
303.804414
0
LINE
8
boundary
62
5
39
2
10
293.023462
20
303.804414
11
295.386443
21
301.930625
0
LINE
8
boundary
62
5
39
2
10
295.386443
20
301.930625
11
297.568623
21
300.165632
0
LINE
8
boundary
62
5
39
2
10
297.568623
20
300.165632
11
300.630094
21
298.055592
0
LINE
8
boundary
62
5
39
2
10
300.630094
20
298.055592
11
302.328527
21
296.868288
0
LINE
8
boundary
62
5
39
2
10
302.328527
20
296.868288
11
306.420758
21
295.075112
0
LINE
8
boundary
62
5
39
2
10
306.420758
20
295.075112
11
307.680072
21
294.436619
0
LINE
8
boundary
62
5
39
2
10
307.680072
20
294.436619
11
312.836328
21
292.631334
0
LINE
8
boundary
62
5
39
2
10
312.836328
20
292.631334
11
313.365129
21
292.485170
0
LINE
8
boundary
62
5
39
2
10
313.365129
20
292.485170
11
316.360414
21
291.645935
0
LINE
8
annotation
62
1
39
211
10
356.979453
20
339.188103
11
350.197670
21
336.730027
0
LINE
8
annotation
62
1
39
211
10
350.197670
20
336.730027
11
351.878140
21
334.087837
0
LINE
8
annotation
62
1
39
211
10
352.843586
20
338.412867
11
353.683703
21
337.091958
0
LINE
8
annotation
62
1
39
211
10
311.634217
20
306.790502
11
311.634217
21
306.790502
0
LINE
8
annotation
62
1
39
211
10
311.634217
20
306.790502
11
311.802495
21
307.017146
0
LINE
8
annotation
62
1
39
211
10
311.802495
20
307.017146
11
311.924172
21
307.262931
0
LINE
8
annotation
62
1
39
211
10
311.924172
20
307.262931
11
311.999667
21
307.521634
0
LINE
8
annotation
62
1
39
211
10
311.999667
20
307.521634
11
312.029401
21
307.787031
0
LINE
8
annotation
62
1
39
211
10
312.029401
20
307.787031
11
312.013795
21
308.052898
0
LINE
8
annotation
62
1
39
211
10
312.013795
20
308.052898
11
311.953269
21
308.313013
0
LINE
8
annotation
62
1
39
211
10
311.953269
20
308.313013
11
311.848245
21
308.561151
0
LINE
8
annotation
62
1
39
211
10
311.848245
20
308.561151
11
311.699142
21
308.791090
0
LINE
8
annotation
62
1
39
211
10
311.699142
20
308.791090
11
311.506381
21
308.996606
0
LINE
8
annotation
62
1
39
211
10
311.506381
20
308.996606
11
311.506381
21
308.996606
0
LINE
8
annotation
62
1
39
211
10
311.506381
20
308.996606
11
311.280213
21
309.164658
0
LINE
8
annotation
62
1
39
211
10
311.280213
20
309.164658
11
311.034763
21
309.286551
0
LINE
8
annotation
62
1
39
211
10
311.034763
20
309.286551
11
310.776262
21
309.362577
0
LINE
8
annotation
62
1
39
211
10
310.776262
20
309.362577
11
310.510939
21
309.393027
0
LINE
8
annotation
62
1
39
211
10
310.510939
20
309.393027
11
310.245028
21
309.378196
0
LINE
8
annotation
62
1
39
211
10
310.245028
20
309.378196
11
309.984757
21
309.318373
0
LINE
8
annotation
62
1
39
211
10
309.984757
20
309.318373
11
309.736358
21
309.213853
0
LINE
8
annotation
62
1
39
211
10
309.736358
20
309.213853
11
309.506061
21
309.064927
0
LINE
8
annotation
62
1
39
211
10
309.506061
20
309.064927
11
309.300098
21
308.871887
0
LINE
8
annotation
62
1
39
211
10
309.300098
20
308.871887
11
308.781662
21
308.290499
0
LINE
8
annotation
62
1
39
211
10
308.781662
20
308.290499
11
308.781662
21
308.290499
0
LINE
8
annotation
62
1
39
211
10
308.781662
20
308.290499
11
308.613283
21
308.063763
0
LINE
8
annotation
62
1
39
211
10
308.613283
20
308.063763
11
308.491336
21
307.817730
0
LINE
8
annotation
62
1
39
211
10
308.491336
20
307.817730
11
308.415454
21
307.558664
0
LINE
8
annotation
62
1
39
211
10
308.415454
20
307.558664
11
308.385267
21
307.292830
0
LINE
8
annotation
62
1
39
211
10
308.385267
20
307.292830
11
308.400407
21
307.026495
0
LINE
8
annotation
62
1
39
211
10
308.400407
20
307.026495
11
308.460504
21
306.765922
0
LINE
8
annotation
62
1
39
211
10
308.460504
20
306.765922
11
308.565191
21
306.517376
0
LINE
8
annotation
62
1
39
211
10
308.565191
20
306.517376
11
308.714097
21
306.287124
0
LINE
8
annotation
62
1
39
211
10
308.714097
20
306.287124
11
308.906854
21
306.081429
0
LINE
8
annotation
62
1
39
211
10
308.906854
20
306.081429
11
308.906854
21
306.081429
0
LINE
8
annotation
62
1
39
211
10
308.906854
20
306.081429
11
309.133209
21
305.913412
0
LINE
8
annotation
62
1
39
211
10
309.133209
20
305.913412
11
309.378972
21
305.791778
0
LINE
8
annotation
62
1
39
211
10
309.378972
20
305.791778
11
309.637871
21
305.716170
0
LINE
8
annotation
62
1
39
211
10
309.637871
20
305.716170
11
309.903630
21
305.686232
0
LINE
8
annotation
62
1
39
211
10
309.903630
20
305.686232
11
310.169978
21
305.701608
0
LINE
8
annotation
62
1
39
211
10
310.169978
20
305.701608
11
310.430641
21
305.761940
0
LINE
8
annotation
62
1
39
211
10
310.430641
20
305.761940
11
310.679344
21
305.866873
0
LINE
8
annotation
62
1
39
211
10
310.679344
20
305.866873
11
310.909816
21
306.016050
0
LINE
8
annotation
62
1
39
211
10
310.909816
20
306.016050
11
311.115781
21
306.209114
0
LINE
8
annotation
62
1
39
211
10
311.115781
20
306.209114
11
311.634217
21
306.790502
0
LINE
8
annotation
62
1
39
211
10
306.697632
20
305.953414
11
306.697632
21
305.953414
0
LINE
8
annotation
62
1
39
211
10
306.697632
20
305.953414
11
306.530117
21
305.727648
0
LINE
8
annotation
62
1
39
211
10
306.530117
20
305.727648
11
306.408825
21
305.482348
0
LINE
8
annotation
62
1
39
211
10
306.408825
20
305.482348
11
306.333416
21
305.223813
0
LINE
8
annotation
62
1
39
211
10
306.333416
20
305.223813
11
306.303549
21
304.958339
0
LINE
8
annotation
62
1
39
211
10
306.303549
20
304.958339
11
306.318886
21
304.692224
0
LINE
8
annotation
62
1
39
211
10
306.318886
20
304.692224
11
306.379087
21
304.431766
0
LINE
8
annotation
62
1
39
211
10
306.379087
20
304.431766
11
306.483810
21
304.183263
0
LINE
8
annotation
62
1
39
211
10
306.483810
20
304.183263
11
306.632718
21
303.953012
0
LINE
8
annotation
62
1
39
211
10
306.632718
20
303.953012
11
306.825469
21
303.747310
0
LINE
8
annotation
62
1
39
211
10
306.825469
20
303.747310
11
306.825469
21
303.747310
0
LINE
8
annotation
62
1
39
211
10
306.825469
20
303.747310
11
307.051820
21
303.579289
0
LINE
8
annotation
62
1
39
211
10
307.051820
20
303.579289
11
307.297558
21
303.457626
0
LINE
8
annotation
62
1
39
211
10
307.297558
20
303.457626
11
307.556388
21
303.381941
0
LINE
8
annotation
62
1
39
211
10
307.556388
20
303.381941
11
307.822013
21
303.351853
0
LINE
8
annotation
62
1
39
211
10
307.822013
20
303.351853
11
308.088140
21
303.366980
0
LINE
8
annotation
62
1
39
211
10
308.088140
20
303.366980
11
308.348472
21
303.426942
0
LINE
8
annotation
62
1
39
211
10
308.348472
20
303.426942
11
308.596715
21
303.531359
0
LINE
8
annotation
62
1
39
211
10
308.596715
20
303.531359
11
308.826573
21
303.679848
0
LINE
8
annotation
62
1
39
211
10
308.826573
20
303.679848
11
309.031751
21
303.872029
0
LINE
8
annotation
62
1
39
211
10
309.031751
20
303.872029
11
309.031751
21
303.872029
0
LINE
8
annotation
62
1
39
211
10
309.031751
20
303.872029
11
309.200130
21
304.098786
0
LINE
8
annotation
62
1
39
211
10
309.200130
20
304.098786
11
309.322077
21
304.344875
0
LINE
8
annotation
62
1
39
211
10
309.322077
20
304.344875
11
309.397963
21
304.604016
0
LINE
8
annotation
62
1
39
211
10
309.397963
20
304.604016
11
309.428161
21
304.869933
0
LINE
8
annotation
62
1
39
211
10
309.428161
20
304.869933
11
309.413042
21
305.136347
0
LINE
8
annotation
62
1
39
211
10
309.413042
20
305.136347
11
309.352981
21
305.396982
0
LINE
8
annotation
62
1
39
211
10
309.352981
20
305.396982
11
309.248347
21
305.645559
0
LINE
8
annotation
62
1
39
211
10
309.248347
20
305.645559
11
309.099514
21
305.875801
0
LINE
8
annotation
62
1
39
211
10
309.099514
20
305.875801
11
308.906854
21
306.081429
0
LINE
8
annotation
62
1
39
211
10
308.906854
20
306.081429
11
308.906854
21
306.081429
0
LINE
8
annotation
62
1
39
211
10
308.906854
20
306.081429
11
308.680585
21
306.249369
0
LINE
8
annotation
62
1
39
211
10
308.680585
20
306.249369
11
308.434865
21
306.370959
0
LINE
8
annotation
62
1
39
211
10
308.434865
20
306.370959
11
308.175973
21
306.446546
0
LINE
8
annotation
62
1
39
211
10
308.175973
20
306.446546
11
307.910187
21
306.476476
0
LINE
8
annotation
62
1
39
211
10
307.910187
20
306.476476
11
307.643787
21
306.461097
0
LINE
8
annotation
62
1
39
211
10
307.643787
20
306.461097
11
307.383053
21
306.400755
0
LINE
8
annotation
62
1
39
211
10
307.383053
20
306.400755
11
307.134263
21
306.295796
0
LINE
8
annotation
62
1
39
211
10
307.134263
20
306.295796
11
306.903696
21
306.146567
0
LINE
8
annotation
62
1
39
211
10
306.903696
20
306.146567
11
306.697632
21
305.953414
0
LINE
8
annotation
62
1
39
211
10
316.907206
20
321.041276
11
311.069627
21
321.041276
0
LINE
8
annotation
62
1
39
211
10
311.069627
20
321.041276
11
316.907206
21
331.554721
0
LINE
8
annotation
62
1
39
211
10
316.907206
20
331.554721
11
311.069627
21
331.554721
0
LINE
8
annotation
62
1
39
211
10
326.599308
20
326.297998
11
320.850737
21
326.297998
0
LINE
8
annotation
62
1
39
211
10
332.878464
20
321.041276
11
332.878464
21
331.554721
0
LINE
8
annotation
62
1
39
211
10
332.878464
20
331.554721
11
330.541190
21
329.216788
0
LINE
8
annotation
62
1
39
211
10
341.490741
20
321.041191
11
336.821469
21
321.041191
0
LINE
8
annotation
62
1
39
211
10
336.821469
20
321.041191
11
341.136029
21
327.987079
0
LINE
8
annotation
62
1
39
211
10
341.136029
20
327.987079
11
341.136029
21
327.987079
0
LINE
8
annotation
62
1
39
211
10
341.136029
20
327.987079
11
341.141187
21
327.993462
0
LINE
8
annotation
62
1
39
211
10
341.141187
20
327.993462
11
341.146133
21
327.999898
0
LINE
8
annotation
62
1
39
211
10
341.146133
20
327.999898
11
341.150901
21
328.006444
0
LINE
8
annotation
62
1
39
211
10
341.150901
20
328.006444
11
341.155521
21
328.013152
0
LINE
8
annotation
62
1
39
211
10
341.155521
20
328.013152
11
341.160028
21
328.020077
0
LINE
8
annotation
62
1
39
211
10
341.160028
20
328.020077
11
341.164453
21
328.027273
0
LINE
8
annotation
62
1
39
211
10
341.164453
20
328.027273
11
341.168830
21
328.034795
0
LINE
8
annotation
62
1
39
211
10
341.168830
20
328.034795
11
341.173190
21
328.042697
0
LINE
8
annotation
62
1
39
211
10
341.173190
20
328.042697
11
341.177566
21
328.051033
0
LINE
8
annotation
62
1
39
211
10
341.177566
20
328.051033
11
341.177566
21
328.051033
0
LINE
8
annotation
62
1
39
211
10
341.177566
20
328.051033
11
341.355714
21
328.433530
0
LINE
8
annotation
62
1
39
211
10
341.355714
20
328.433530
11
341.459784
21
328.830022
0
LINE
8
annotation
62
1
39
211
10
341.459784
20
328.830022
11
341.492328
21
329.231549
0
LINE
8
annotation
62
1
39
211
10
341.492328
20
329.231549
11
341.455897
21
329.629154
0
LINE
8
annotation
62
1
39
211
10
341.455897
20
329.629154
11
341.353040
21
330.013875
0
LINE
8
annotation
62
1
39
211
10
341.353040
20
330.013875
11
341.186308
21
330.376756
0
LINE
8
annotation
62
1
39
211
10
341.186308
20
330.376756
11
340.958252
21
330.708836
0
LINE
8
annotation
62
1
39
211
10
340.958252
20
330.708836
11
340.671422
21
331.001156
0
LINE
8
annotation
62
1
39
211
10
340.671422
20
331.001156
11
340.328368
21
331.244757
0
LINE
8
annotation
62
1
39
211
10
340.328368
20
331.244757
11
340.328368
21
331.244757
0
LINE
8
annotation
62
1
39
211
10
340.328368
20
331.244757
11
339.944807
21
331.420373
0
LINE
8
annotation
62
1
39
211
10
339.944807
20
331.420373
11
339.547708
21
331.522840
0
LINE
8
annotation
62
1
39
211
10
339.547708
20
331.522840
11
339.145947
21
331.554464
0
LINE
8
annotation
62
1
39
211
10
339.145947
20
331.554464
11
338.748402
21
331.517552
0
LINE
8
annotation
62
1
39
211
10
338.748402
20
331.517552
11
338.363952
21
331.414411
0
LINE
8
annotation
62
1
39
211
10
338.363952
20
331.414411
11
338.001473
21
331.247345
0
LINE
8
annotation
62
1
39
211
10
338.001473
20
331.247345
11
337.669844
21
331.018662
0
LINE
8
annotation
62
1
39
211
10
337.669844
20
331.018662
11
337.377941
21
330.730668
0
LINE
8
annotation
62
1
39
211
10
337.377941
20
330.730668
11
337.134644
21
330.385669
0
LINE
8
annotation
62
1
39
211
10
337.134644
20
330.385669
11
336.828062
21
329.797559
0
LINE
8
annotation
62
1
39
211
10
351.183637
20
326.297998
11
345.435065
21
326.297998
0
LINE
8
annotation
62
1
39
211
10
357.462792
20
321.041276
11
357.462792
21
331.554721
0
LINE
8
annotation
62
1
39
211
10
357.462792
20
331.554721
11
355.125519
21
329.216788
0
LINE
8
boundary
62
5
39
2
10
408.508862
20
25.756492
11
415.230408
21
17.690706
0
LINE
8
boundary
62
5
39
2
10
415.230408
20
17.690706
11
419.736438
21
12.662534
0
LINE
8
boundary
62
5
39
2
10
419.736438
20
12.662534
11
428.151946
21
9.349726
0
LINE
8
boundary
62
5
39
2
10
428.151946
20
9.349726
11
434.312779
21
6.687500
0
LINE
8
boundary
62
5
39
2
10
434.312779
20
6.687500
11
446.809925
21
8.256913
0
LINE
8
boundary
62
5
39
2
10
446.809925
20
8.256913
11
453.858451
21
17.221574
0
LINE
8
boundary
62
5
39
2
10
453.858451
20
17.221574
11
455.847682
21
19.215840
0
LINE
8
boundary
62
5
39
2
10
455.847682
20
19.215840
11
459.045403
21
26.298921
0
LINE
8
boundary
62
5
39
2
10
459.045403
20
26.298921
11
462.937588
21
33.628801
0
LINE
8
boundary
62
5
39
2
10
462.937588
20
33.628801
11
463.541724
21
36.989778
0
LINE
8
boundary
62
5
39
2
10
463.541724
20
36.989778
11
465.958049
21
47.421225
0
LINE
8
boundary
62
5
39
2
10
465.958049
20
47.421225
11
466.544007
21
50.145802
0
LINE
8
boundary
62
5
39
2
10
466.544007
20
50.145802
11
466.307207
21
51.236564
0
LINE
8
boundary
62
5
39
2
10
466.307207
20
51.236564
11
464.421166
21
64.057577
0
LINE
8
boundary
62
5
39
2
10
464.421166
20
64.057577
11
460.879909
21
72.575900
0
LINE
8
boundary
62
5
39
2
10
460.879909
20
72.575900
11
459.552177
21
75.179004
0
LINE
8
boundary
62
5
39
2
10
459.552177
20
75.179004
11
458.236070
21
78.334890
0
LINE
8
boundary
62
5
39
2
10
458.236070
20
78.334890
11
454.803970
21
85.626532
0
LINE
8
boundary
62
5
39
2
10
454.803970
20
85.626532
11
451.108228
21
91.421288
0
LINE
8
boundary
62
5
39
2
10
451.108228
20
91.421288
11
449.410909
21
101.258895
0
LINE
8
boundary
62
5
39
2
10
449.410909
20
101.258895
11
441.667573
21
110.173856
0
LINE
8
boundary
62
5
39
2
10
441.667573
20
110.173856
11
441.315434
21
110.603312
0
LINE
8
boundary
62
5
39
2
10
441.315434
20
110.603312
11
432.799465
21
113.518084
0
LINE
8
boundary
62
5
39
2
10
432.799465
20
113.518084
11
431.278228
21
113.214392
0
LINE
8
boundary
62
5
39
2
10
431.278228
20
113.214392
11
424.382269
21
111.832211
0
LINE
8
boundary
62
5
39
2
10
424.382269
20
111.832211
11
423.602126
21
111.902544
0
LINE
8
boundary
62
5
39
2
10
423.602126
20
111.902544
11
413.321322
21
108.159030
0
LINE
8
boundary
62
5
39
2
10
413.321322
20
108.159030
11
404.470990
21
99.972102
0
LINE
8
boundary
62
5
39
2
10
404.470990
20
99.972102
11
404.126750
21
99.273129
0
LINE
8
boundary
62
5
39
2
10
404.126750
20
99.273129
11
398.274014
21
88.906738
0
LINE
8
boundary
62
5
39
2
10
398.274014
20
88.906738
11
397.923153
21
87.243662
0
LINE
8
boundary
62
5
39
2
10
397.923153
20
87.243662
11
395.197125
21
75.118187
0
LINE
8
boundary
62
5
39
2
10
395.197125
20
75.118187
11
395.682558
21
66.275063
0
LINE
8
boundary
62
5
39
2
10
395.682558
20
66.275063
11
396.075328
21
58.378229
0
LINE
8
boundary
62
5
39
2
10
396.075328
20
58.378229
11
397.629101
21
53.065447
0
LINE
8
boundary
62
5
39
2
10
397.629101
20
53.065447
11
399.862451
21
42.923616
0
LINE
8
boundary
62
5
39
2
10
399.862451
20
42.923616
11
404.317766
21
42.483516
0
LINE
8
boundary
62
5
39
2
10
404.317766
20
42.483516
11
432.563434
21
42.483516
0
LINE
8
boundary
62
5
39
2
10
432.563434
20
42.483516
11
432.563434
21
38.432516
0
LINE
8
boundary
62
5
39
2
10
432.563434
20
38.432516
11
406.745862
21
38.432515
0
LINE
8
boundary
62
5
39
2
10
406.745862
20
38.432515
11
402.290547
21
37.992416
0
LINE
8
boundary
62
5
39
2
10
402.290547
20
37.992416
11
404.344217
21
34.447880
0
LINE
8
boundary
62
5
39
2
10
404.344217
20
34.447880
11
408.508862
21
25.756492
0
LINE
8
annotation
62
1
39
211
10
443.555881
20
43.845113
11
443.555881
21
37.070918
0
LINE
8
annotation
62
1
39
211
10
443.555881
20
37.070918
11
445.061871
21
38.577333
0
LINE
8
annotation
62
1
39
211
10
439.927654
20
43.755759
11
439.927654
21
43.755759
0
LINE
8
annotation
62
1
39
211
10
439.927654
20
43.755759
11
439.770214
21
43.814614
0
LINE
8
annotation
62
1
39
211
10
439.770214
20
43.814614
11
439.608745
21
43.843855
0
LINE
8
annotation
62
1
39
211
10
439.608745
20
43.843855
11
439.446899
21
43.844672
0
LINE
8
annotation
62
1
39
211
10
439.446899
20
43.844672
11
439.288325
21
43.818260
0
LINE
8
annotation
62
1
39
211
10
439.288325
20
43.818260
11
439.136674
21
43.765808
0
LINE
8
annotation
62
1
39
211
10
439.136674
20
43.765808
11
438.995597
21
43.688511
0
LINE
8
annotation
62
1
39
211
10
438.995597
20
43.688511
11
438.868744
21
43.587561
0
LINE
8
annotation
62
1
39
211
10
438.868744
20
43.587561
11
438.759764
21
43.464149
0
LINE
8
annotation
62
1
39
211
10
438.759764
20
43.464149
11
438.672308
21
43.319468
0
LINE
8
annotation
62
1
39
211
10
438.672308
20
43.319468
11
438.672308
21
43.319468
0
LINE
8
annotation
62
1
39
211
10
438.672308
20
43.319468
11
438.411374
21
42.708687
0
LINE
8
annotation
62
1
39
211
10
438.411374
20
42.708687
11
438.215673
21
42.080227
0
LINE
8
annotation
62
1
39
211
10
438.215673
20
42.080227
11
438.085206
21
41.439100
0
LINE
8
annotation
62
1
39
211
10
438.085206
20
41.439100
11
438.019972
21
40.790316
0
LINE
8
annotation
62
1
39
211
10
438.019972
20
40.790316
11
438.019972
21
40.138885
0
LINE
8
annotation
62
1
39
211
10
438.019972
20
40.138885
11
438.085206
21
39.489817
0
LINE
8
annotation
62
1
39
211
10
438.085206
20
39.489817
11
438.215673
21
38.848124
0
LINE
8
annotation
62
1
39
211
10
438.215673
20
38.848124
11
438.411374
21
38.218815
0
LINE
8
annotation
62
1
39
211
10
438.411374
20
38.218815
11
438.672308
21
37.606901
0
LINE
8
annotation
62
1
39
211
10
438.672308
20
37.606901
11
438.672308
21
37.606901
0
LINE
8
annotation
62
1
39
211
10
438.672308
20
37.606901
11
438.705492
21
37.545145
0
LINE
8
annotation
62
1
39
211
10
438.705492
20
37.545145
11
438.743112
21
37.486103
0
LINE
8
annotation
62
1
39
211
10
438.743112
20
37.486103
11
438.784886
21
37.430065
0
LINE
8
annotation
62
1
39
211
10
438.784886
20
37.430065
11
438.830531
21
37.377320
0
LINE
8
annotation
62
1
39
211
10
438.830531
20
37.377320
11
438.879763
21
37.328159
0
LINE
8
annotation
62
1
39
211
10
438.879763
20
37.328159
11
438.932299
21
37.282872
0
LINE
8
annotation
62
1
39
211
10
438.932299
20
37.282872
11
438.987856
21
37.241750
0
LINE
8
annotation
62
1
39
211
10
438.987856
20
37.241750
11
439.046151
21
37.205082
0
LINE
8
annotation
62
1
39
211
10
439.046151
20
37.205082
11
439.106900
21
37.173158
0
LINE
8
annotation
62
1
39
211
10
439.106900
20
37.173158
11
439.106900
21
37.173158
0
LINE
8
annotation
62
1
39
211
10
439.106900
20
37.173158
11
439.265591
21
37.113027
0
LINE
8
annotation
62
1
39
211
10
439.265591
20
37.113027
11
439.428005
21
37.082787
0
LINE
8
annotation
62
1
39
211
10
439.428005
20
37.082787
11
439.590535
21
37.081240
0
LINE
8
annotation
62
1
39
211
10
439.590535
20
37.081240
11
439.749572
21
37.107185
0
LINE
8
annotation
62
1
39
211
10
439.749572
20
37.107185
11
439.901508
21
37.159423
0
LINE
8
annotation
62
1
39
211
10
439.901508
20
37.159423
11
440.042734
21
37.236756
0
LINE
8
annotation
62
1
39
211
10
440.042734
20
37.236756
11
440.169641
21
37.337983
0
LINE
8
annotation
62
1
39
211
10
440.169641
20
37.337983
11
440.278623
21
37.461906
0
LINE
8
annotation
62
1
39
211
10
440.278623
20
37.461906
11
440.366070
21
37.607325
0
LINE
8
annotation
62
1
39
211
10
440.366070
20
37.607325
11
440.366070
21
37.607325
0
LINE
8
annotation
62
1
39
211
10
440.366070
20
37.607325
11
440.625745
21
38.217981
0
LINE
8
annotation
62
1
39
211
10
440.625745
20
38.217981
11
440.820502
21
38.846346
0
LINE
8
annotation
62
1
39
211
10
440.820502
20
38.846346
11
440.950340
21
39.487410
0
LINE
8
annotation
62
1
39
211
10
440.950340
20
39.487410
11
441.015259
21
40.136163
0
LINE
8
annotation
62
1
39
211
10
441.015259
20
40.136163
11
441.015259
21
40.787594
0
LINE
8
annotation
62
1
39
211
10
441.015259
20
40.787594
11
440.950340
21
41.436693
0
LINE
8
annotation
62
1
39
211
10
440.950340
20
41.436693
11
440.820502
21
42.078449
0
LINE
8
annotation
62
1
39
211
10
440.820502
20
42.078449
11
440.625745
21
42.707853
0
LINE
8
annotation
62
1
39
211
10
440.625745
20
42.707853
11
440.366070
21
43.319893
0
LINE
8
annotation
62
1
39
211
10
440.366070
20
43.319893
11
440.366070
21
43.319893
0
LINE
8
annotation
62
1
39
211
10
440.366070
20
43.319893
11
440.333007
21
43.381525
0
LINE
8
annotation
62
1
39
211
10
440.333007
20
43.381525
11
440.295665
21
43.440273
0
LINE
8
annotation
62
1
39
211
10
440.295665
20
43.440273
11
440.254200
21
43.495957
0
LINE
8
annotation
62
1
39
211
10
440.254200
20
43.495957
11
440.208770
21
43.548401
0
LINE
8
annotation
62
1
39
211
10
440.208770
20
43.548401
11
440.159533
21
43.597425
0
LINE
8
annotation
62
1
39
211
10
440.159533
20
43.597425
11
440.106646
21
43.642851
0
LINE
8
annotation
62
1
39
211
10
440.106646
20
43.642851
11
440.050265
21
43.684501
0
LINE
8
annotation
62
1
39
211
10
440.050265
20
43.684501
11
439.990549
21
43.722196
0
LINE
8
annotation
62
1
39
211
10
439.990549
20
43.722196
11
439.927654
21
43.755759
0
LINE
8
annotation
62
1
39
211
10
414.604433
20
67.942270
11
410.333141
21
67.942270
0
LINE
8
annotation
62
1
39
211
10
410.333141
20
67.942270
11
414.604433
21
75.634842
0
LINE
8
annotation
62
1
39
211
10
414.604433
20
75.634842
11
410.333141
21
75.634842
0
LINE
8
annotation
62
1
39
211
10
421.696037
20
71.788556
11
417.489871
21
71.788556
0
LINE
8
annotation
62
1
39
211
10
424.580028
20
69.647844
11
424.580028
21
69.647844
0
LINE
8
annotation
62
1
39
211
10
424.580028
20
69.647844
11
424.607607
21
69.340698
0
LINE
8
annotation
62
1
39
211
10
424.607607
20
69.340698
11
424.687101
21
69.051828
0
LINE
8
annotation
62
1
39
211
10
424.687101
20
69.051828
11
424.813641
21
68.786003
0
LINE
8
annotation
62
1
39
211
10
424.813641
20
68.786003
11
424.982359
21
68.547991
0
LINE
8
annotation
62
1
39
211
10
424.982359
20
68.547991
11
425.188388
21
68.342561
0
LINE
8
annotation
62
1
39
211
10
425.188388
20
68.342561
11
425.426860
21
68.174481
0
LINE
8
annotation
62
1
39
211
10
425.426860
20
68.174481
11
425.692907
21
68.048520
0
LINE
8
annotation
62
1
39
211
10
425.692907
20
68.048520
11
425.981661
21
67.969447
0
LINE
8
annotation
62
1
39
211
10
425.981661
20
67.969447
11
426.288255
21
67.942029
0
LINE
8
annotation
62
1
39
211
10
426.288255
20
67.942029
11
426.288255
21
67.942029
0
LINE
8
annotation
62
1
39
211
10
426.288255
20
67.942029
11
426.594849
21
67.969447
0
LINE
8
annotation
62
1
39
211
10
426.594849
20
67.969447
11
426.883603
21
68.048520
0
LINE
8
annotation
62
1
39
211
10
426.883603
20
68.048520
11
427.149650
21
68.174481
0
LINE
8
annotation
62
1
39
211
10
427.149650
20
68.174481
11
427.388122
21
68.342561
0
LINE
8
annotation
62
1
39
211
10
427.388122
20
68.342561
11
427.594151
21
68.547991
0
LINE
8
annotation
62
1
39
211
10
427.594151
20
68.547991
11
427.762869
21
68.786003
0
LINE
8
annotation
62
1
39
211
10
427.762869
20
68.786003
11
427.889409
21
69.051828
0
LINE
8
annotation
62
1
39
211
10
427.889409
20
69.051828
11
427.968903
21
69.340698
0
LINE
8
annotation
62
1
39
211
10
427.968903
20
69.340698
11
427.996482
21
69.647844
0
LINE
8
annotation
62
1
39
211
10
427.996482
20
69.647844
11
427.996482
21
70.498822
0
LINE
8
annotation
62
1
39
211
10
427.996482
20
70.498822
11
427.996482
21
70.498822
0
LINE
8
annotation
62
1
39
211
10
427.996482
20
70.498822
11
427.968919
21
70.806117
0
LINE
8
annotation
62
1
39
211
10
427.968919
20
70.806117
11
427.889465
21
71.095386
0
LINE
8
annotation
62
1
39
211
10
427.889465
20
71.095386
11
427.762976
21
71.361789
0
LINE
8
annotation
62
1
39
211
10
427.762976
20
71.361789
11
427.594309
21
71.600486
0
LINE
8
annotation
62
1
39
211
10
427.594309
20
71.600486
11
427.388320
21
71.806637
0
LINE
8
annotation
62
1
39
211
10
427.388320
20
71.806637
11
427.149864
21
71.975402
0
LINE
8
annotation
62
1
39
211
10
427.149864
20
71.975402
11
426.883797
21
72.101941
0
LINE
8
annotation
62
1
39
211
10
426.883797
20
72.101941
11
426.594976
21
72.181413
0
LINE
8
annotation
62
1
39
211
10
426.594976
20
72.181413
11
426.288255
21
72.208980
0
LINE
8
annotation
62
1
39
211
10
426.288255
20
72.208980
11
426.288255
21
72.208980
0
LINE
8
annotation
62
1
39
211
10
426.288255
20
72.208980
11
425.981534
21
72.181397
0
LINE
8
annotation
62
1
39
211
10
425.981534
20
72.181397
11
425.692713
21
72.101885
0
LINE
8
annotation
62
1
39
211
10
425.692713
20
72.101885
11
425.426646
21
71.975295
0
LINE
8
annotation
62
1
39
211
10
425.426646
20
71.975295
11
425.188190
21
71.806478
0
LINE
8
annotation
62
1
39
211
10
425.188190
20
71.806478
11
424.982201
21
71.600288
0
LINE
8
annotation
62
1
39
211
10
424.982201
20
71.600288
11
424.813534
21
71.361575
0
LINE
8
annotation
62
1
39
211
10
424.813534
20
71.361575
11
424.687045
21
71.095192
0
LINE
8
annotation
62
1
39
211
10
424.687045
20
71.095192
11
424.607591
21
70.805990
0
LINE
8
annotation
62
1
39
211
10
424.607591
20
70.805990
11
424.580028
21
70.498822
0
LINE
8
annotation
62
1
39
211
10
424.580028
20
70.498822
11
424.580028
21
69.647844
0
LINE
8
annotation
62
1
39
211
10
427.996482
20
73.919619
11
427.996482
21
73.919619
0
LINE
8
annotation
62
1
39
211
10
427.996482
20
73.919619
11
427.968919
21
74.225495
0
LINE
8
annotation
62
1
39
211
10
427.968919
20
74.225495
11
427.889465
21
74.513690
0
LINE
8
annotation
62
1
39
211
10
427.889465
20
74.513690
11
427.762976
21
74.779316
0
LINE
8
annotation
62
1
39
211
10
427.762976
20
74.779316
11
427.594309
21
75.017487
0
LINE
8
annotation
62
1
39
211
10
427.594309
20
75.017487
11
427.388320
21
75.223314
0
LINE
8
annotation
62
1
39
211
10
427.388320
20
75.223314
11
427.149864
21
75.391910
0
LINE
8
annotation
62
1
39
211
10
427.149864
20
75.391910
11
426.883797
21
75.518388
0
LINE
8
annotation
62
1
39
211
10
426.883797
20
75.518388
11
426.594976
21
75.597858
0
LINE
8
annotation
62
1
39
211
10
426.594976
20
75.597858
11
426.288255
21
75.625434
0
LINE
8
annotation
62
1
39
211
10
426.288255
20
75.625434
11
426.288255
21
75.625434
0
LINE
8
annotation
62
1
39
211
10
426.288255
20
75.625434
11
425.981534
21
75.597858
0
LINE
8
annotation
62
1
39
211
10
425.981534
20
75.597858
11
425.692713
21
75.518388
0
LINE
8
annotation
62
1
39
211
10
425.692713
20
75.518388
11
425.426646
21
75.391910
0
LINE
8
annotation
62
1
39
211
10
425.426646
20
75.391910
11
425.188190
21
75.223314
0
LINE
8
annotation
62
1
39
211
10
425.188190
20
75.223314
11
424.982201
21
75.017487
0
LINE
8
annotation
62
1
39
211
10
424.982201
20
75.017487
11
424.813534
21
74.779316
0
LINE
8
annotation
62
1
39
211
10
424.813534
20
74.779316
11
424.687045
21
74.513690
0
LINE
8
annotation
62
1
39
211
10
424.687045
20
74.513690
11
424.607591
21
74.225495
0
LINE
8
annotation
62
1
39
211
10
424.607591
20
74.225495
11
424.580028
21
73.919619
0
LINE
8
annotation
62
1
39
211
10
424.580028
20
73.919619
11
424.580028
21
73.919619
0
LINE
8
annotation
62
1
39
211
10
424.580028
20
73.919619
11
424.607607
21
73.612308
0
LINE
8
annotation
62
1
39
211
10
424.607607
20
73.612308
11
424.687101
21
73.322994
0
LINE
8
annotation
62
1
39
211
10
424.687101
20
73.322994
11
424.813641
21
73.056527
0
LINE
8
annotation
62
1
39
211
10
424.813641
20
73.056527
11
424.982359
21
72.817754
0
LINE
8
annotation
62
1
39
211
10
424.982359
20
72.817754
11
425.188388
21
72.611523
0
LINE
8
annotation
62
1
39
211
10
425.188388
20
72.611523
11
425.426860
21
72.442682
0
LINE
8
annotation
62
1
39
211
10
425.426860
20
72.442682
11
425.692907
21
72.316079
0
LINE
8
annotation
62
1
39
211
10
425.692907
20
72.316079
11
425.981661
21
72.236563
0
LINE
8
annotation
62
1
39
211
10
425.981661
20
72.236563
11
426.288255
21
72.208980
0
LINE
8
annotation
62
1
39
211
10
426.288255
20
72.208980
11
426.288255
21
72.208980
0
LINE
8
annotation
62
1
39
211
10
426.288255
20
72.208980
11
426.594849
21
72.236563
0
LINE
8
annotation
62
1
39
211
10
426.594849
20
72.236563
11
426.883603
21
72.316079
0
LINE
8
annotation
62
1
39
211
10
426.883603
20
72.316079
11
427.149650
21
72.442682
0
LINE
8
annotation
62
1
39
211
10
427.149650
20
72.442682
11
427.388122
21
72.611523
0
LINE
8
annotation
62
1
39
211
10
427.388122
20
72.611523
11
427.594151
21
72.817754
0
LINE
8
annotation
62
1
39
211
10
427.594151
20
72.817754
11
427.762869
21
73.056527
0
LINE
8
annotation
62
1
39
211
10
427.762869
20
73.056527
11
427.889409
21
73.322994
0
LINE
8
annotation
62
1
39
211
10
427.889409
20
73.322994
11
427.968903
21
73.612308
0
LINE
8
annotation
62
1
39
211
10
427.968903
20
73.612308
11
427.996482
21
73.919619
0
LINE
8
annotation
62
1
39
211
10
435.088087
20
71.788556
11
430.881920
21
71.788556
0
LINE
8
annotation
62
1
39
211
10
441.389113
20
67.942208
11
437.972658
21
67.942208
0
LINE
8
annotation
62
1
39
211
10
437.972658
20
67.942208
11
441.129574
21
73.024438
0
LINE
8
annotation
62
1
39
211
10
441.129574
20
73.024438
11
441.129574
21
73.024438
0
LINE
8
annotation
62
1
39
211
10
441.129574
20
73.024438
11
441.133348
21
73.029108
0
LINE
8
annotation
62
1
39
211
10
441.133348
20
73.029108
11
441.136967
21
73.033817
0
LINE
8
annotation
62
1
39
211
10
441.136967
20
73.033817
11
441.140455
21
73.038606
0
LINE
8
annotation
62
1
39
211
10
441.140455
20
73.038606
11
441.143836
21
73.043514
0
LINE
8
annotation
62
1
39
211
10
441.143836
20
73.043514
11
441.147134
21
73.048581
0
LINE
8
annotation
62
1
39
211
10
441.147134
20
73.048581
11
441.150372
21
73.053847
0
LINE
8
annotation
62
1
39
211
10
441.150372
20
73.053847
11
441.153574
21
73.059351
0
LINE
8
annotation
62
1
39
211
10
441.153574
20
73.059351
11
441.156764
21
73.065132
0
LINE
8
annotation
62
1
39
211
10
441.156764
20
73.065132
11
441.159966
21
73.071232
0
LINE
8
annotation
62
1
39
211
10
441.159966
20
73.071232
11
441.159966
21
73.071232
0
LINE
8
annotation
62
1
39
211
10
441.159966
20
73.071232
11
441.290315
21
73.351101
0
LINE
8
annotation
62
1
39
211
10
441.290315
20
73.351101
11
441.366462
21
73.641209
0
LINE
8
annotation
62
1
39
211
10
441.366462
20
73.641209
11
441.390274
21
73.935003
0
LINE
8
annotation
62
1
39
211
10
441.390274
20
73.935003
11
441.363618
21
74.225925
0
LINE
8
annotation
62
1
39
211
10
441.363618
20
74.225925
11
441.288358
21
74.507422
0
LINE
8
annotation
62
1
39
211
10
441.288358
20
74.507422
11
441.166363
21
74.772938
0
LINE
8
annotation
62
1
39
211
10
441.166363
20
74.772938
11
440.999496
21
75.015917
0
LINE
8
annotation
62
1
39
211
10
440.999496
20
75.015917
11
440.789626
21
75.229804
0
LINE
8
annotation
62
1
39
211
10
440.789626
20
75.229804
11
440.538617
21
75.408044
0
LINE
8
annotation
62
1
39
211
10
440.538617
20
75.408044
11
440.538617
21
75.408044
0
LINE
8
annotation
62
1
39
211
10
440.538617
20
75.408044
11
440.257970
21
75.536541
0
LINE
8
annotation
62
1
39
211
10
440.257970
20
75.536541
11
439.967417
21
75.611515
0
LINE
8
annotation
62
1
39
211
10
439.967417
20
75.611515
11
439.673453
21
75.634654
0
LINE
8
annotation
62
1
39
211
10
439.673453
20
75.634654
11
439.382574
21
75.607646
0
LINE
8
annotation
62
1
39
211
10
439.382574
20
75.607646
11
439.101275
21
75.532178
0
LINE
8
annotation
62
1
39
211
10
439.101275
20
75.532178
11
438.836054
21
75.409938
0
LINE
8
annotation
62
1
39
211
10
438.836054
20
75.409938
11
438.593404
21
75.242614
0
LINE
8
annotation
62
1
39
211
10
438.593404
20
75.242614
11
438.379823
21
75.031891
0
LINE
8
annotation
62
1
39
211
10
438.379823
20
75.031891
11
438.201805
21
74.779459
0
LINE
8
annotation
62
1
39
211
10
438.201805
20
74.779459
11
437.977482
21
74.349146
0
LINE
8
boundary
62
5
39
2
10
395.197125
20
138.712792
11
402.779983
21
139.546620
0
LINE
8
boundary
62
5
39
2
10
402.779983
20
139.546620
11
412.920404
21
136.007941
0
LINE
8
boundary
62
5
39
2
10
412.920404
20
136.007941
11
436.033637
21
128.024017
0
LINE
8
boundary
62
5
39
2
10
436.033637
20
128.024017
11
453.379341
21
119.737470
0
LINE
8
boundary
62
5
39
2
10
453.379341
20
119.737470
11
456.638792
21
117.431855
0
LINE
8
boundary
62
5
39
2
10
456.638792
20
117.431855
11
458.011501
21
116.693084
0
LINE
8
boundary
62
5
39
2
10
458.011501
20
116.693084
11
459.456491
21
124.588469
0
LINE
8
boundary
62
5
39
2
10
459.456491
20
124.588469
11
461.130868
21
132.377899
0
LINE
8
boundary
62
5
39
2
10
461.130868
20
132.377899
11
461.277017
21
132.966544
0
LINE
8
boundary
62
5
39
2
10
461.277017
20
132.966544
11
461.493320
21
133.735663
0
LINE
8
boundary
62
5
39
2
10
461.493320
20
133.735663
11
462.253105
21
141.289561
0
LINE
8
boundary
62
5
39
2
10
462.253105
20
141.289561
11
462.855008
21
147.413286
0
LINE
8
boundary
62
5
39
2
10
462.855008
20
147.413286
11
463.147863
21
149.443041
0
LINE
8
boundary
62
5
39
2
10
463.147863
20
149.443041
11
463.469039
21
151.972594
0
LINE
8
boundary
62
5
39
2
10
463.469039
20
151.972594
11
462.219650
21
158.453093
0
LINE
8
boundary
62
5
39
2
10
462.219650
20
158.453093
11
460.439575
21
164.987644
0
LINE
8
boundary
62
5
39
2
10
460.439575
20
164.987644
11
459.996369
21
167.633482
0
LINE
8
boundary
62
5
39
2
10
459.996369
20
167.633482
11
459.546938
21
170.604655
0
LINE
8
boundary
62
5
39
2
10
459.546938
20
170.604655
11
457.314430
21
176.945541
0
LINE
8
boundary
62
5
39
2
10
457.314430
20
176.945541
11
452.965655
21
185.618987
0
LINE
8
boundary
62
5
39
2
10
452.965655
20
185.618987
11
452.497904
21
186.135624
0
LINE
8
boundary
62
5
39
2
10
452.497904
20
186.135624
11
450.706195
21
187.827965
0
LINE
8
boundary
62
5
39
2
10
450.706195
20
187.827965
11
445.321028
21
193.355793
0
LINE
8
boundary
62
5
39
2
10
445.321028
20
193.355793
11
443.788137
21
194.868954
0
LINE
8
boundary
62
5
39
2
10
443.788137
20
194.868954
11
436.176371
21
199.349755
0
LINE
8
boundary
62
5
39
2
10
436.176371
20
199.349755
11
432.647321
21
201.378816
0
LINE
8
boundary
62
5
39
2
10
432.647321
20
201.378816
11
420.675023
21
199.655555
0
LINE
8
boundary
62
5
39
2
10
420.675023
20
199.655555
11
412.613064
21
187.947215
0
LINE
8
boundary
62
5
39
2
10
412.613064
20
187.947215
11
411.977292
21
180.642452
0
LINE
8
boundary
62
5
39
2
10
411.977292
20
180.642452
11
408.869739
21
174.707254
0
LINE
8
boundary
62
5
39
2
10
408.869739
20
174.707254
11
403.625588
21
165.202199
0
LINE
8
boundary
62
5
39
2
10
403.625588
20
165.202199
11
401.673692
21
159.118777
0
LINE
8
boundary
62
5
39
2
10
401.673692
20
159.118777
11
400.491427
21
155.866121
0
LINE
8
boundary
62
5
39
2
10
400.491427
20
155.866121
11
404.946741
21
155.426021
0
LINE
8
boundary
62
5
39
2
10
404.946741
20
155.426021
11
431.142314
21
155.426021
0
LINE
8
boundary
62
5
39
2
10
431.142314
20
155.426021
11
431.142314
21
151.375021
0
LINE
8
boundary
62
5
39
2
10
431.142314
20
151.375021
11
403.398654
21
151.375021
0
LINE
8
boundary
62
5
39
2
10
403.398654
20
151.375021
11
398.943340
21
150.934921
0
LINE
8
boundary
62
5
39
2
10
398.943340
20
150.934921
11
395.223774
21
138.982793
0
LINE
8
boundary
62
5
39
2
10
395.223774
20
138.982793
11
395.197125
21
138.712792
0
LINE
8
annotation
62
1
39
211
10
438.554760
20
151.440964
11
438.554760
21
151.440964
0
LINE
8
annotation
62
1
39
211
10
438.554760
20
151.440964
11
438.580005
21
151.159809
0
LINE
8
annotation
62
1
39
211
10
438.580005
20
151.159809
11
438.652772
21
150.895385
0
LINE
8
annotation
62
1
39
211
10
438.652772
20
150.895385
11
438.768604
21
150.652054
0
LINE
8
annotation
62
1
39
211
10
438.768604
20
150.652054
11
438.923045
21
150.434184
0
LINE
8
annotation
62
1
39
211
10
438.923045
20
150.434184
11
439.111639
21
150.246138
0
LINE
8
annotation
62
1
39
211
10
439.111639
20
150.246138
11
439.329931
21
150.092281
0
LINE
8
annotation
62
1
39
211
10
439.329931
20
150.092281
11
439.573464
21
149.976980
0
LINE
8
annotation
62
1
39
211
10
439.573464
20
149.976980
11
439.837783
21
149.904597
0
LINE
8
annotation
62
1
39
211
10
439.837783
20
149.904597
11
440.118431
21
149.879500
0
LINE
8
annotation
62
1
39
211
10
440.118431
20
149.879500
11
440.118431
21
149.879500
0
LINE
8
annotation
62
1
39
211
10
440.118431
20
149.879500
11
440.399080
21
149.904597
0
LINE
8
annotation
62
1
39
211
10
440.399080
20
149.904597
11
440.663399
21
149.976980
0
LINE
8
annotation
62
1
39
211
10
440.663399
20
149.976980
11
440.906932
21
150.092281
0
LINE
8
annotation
62
1
39
211
10
440.906932
20
150.092281
11
441.125223
21
150.246138
0
LINE
8
annotation
62
1
39
211
10
441.125223
20
150.246138
11
441.313818
21
150.434184
0
LINE
8
annotation
62
1
39
211
10
441.313818
20
150.434184
11
441.468258
21
150.652054
0
LINE
8
annotation
62
1
39
211
10
441.468258
20
150.652054
11
441.584090
21
150.895385
0
LINE
8
annotation
62
1
39
211
10
441.584090
20
150.895385
11
441.656857
21
151.159809
0
LINE
8
annotation
62
1
39
211
10
441.656857
20
151.159809
11
441.682103
21
151.440964
0
LINE
8
annotation
62
1
39
211
10
441.682103
20
151.440964
11
441.682103
21
152.219929
0
LINE
8
annotation
62
1
39
211
10
441.682103
20
152.219929
11
441.682103
21
152.219929
0
LINE
8
annotation
62
1
39
211
10
441.682103
20
152.219929
11
441.656871
21
152.501220
0
LINE
8
annotation
62
1
39
211
10
441.656871
20
152.501220
11
441.584141
21
152.766010
0
LINE
8
annotation
62
1
39
211
10
441.584141
20
152.766010
11
441.468357
21
153.009869
0
LINE
8
annotation
62
1
39
211
10
441.468357
20
153.009869
11
441.313963
21
153.228366
0
LINE
8
annotation
62
1
39
211
10
441.313963
20
153.228366
11
441.125405
21
153.417072
0
LINE
8
annotation
62
1
39
211
10
441.125405
20
153.417072
11
440.907128
21
153.571555
0
LINE
8
annotation
62
1
39
211
10
440.907128
20
153.571555
11
440.663577
21
153.687386
0
LINE
8
annotation
62
1
39
211
10
440.663577
20
153.687386
11
440.399196
21
153.760133
0
LINE
8
annotation
62
1
39
211
10
440.399196
20
153.760133
11
440.118431
21
153.785367
0
LINE
8
annotation
62
1
39
211
10
440.118431
20
153.785367
11
440.118431
21
153.785367
0
LINE
8
annotation
62
1
39
211
10
440.118431
20
153.785367
11
439.837666
21
153.760119
0
LINE
8
annotation
62
1
39
211
10
439.837666
20
153.760119
11
439.573286
21
153.687335
0
LINE
8
annotation
62
1
39
211
10
439.573286
20
153.687335
11
439.329734
21
153.571457
0
LINE
8
annotation
62
1
39
211
10
439.329734
20
153.571457
11
439.111457
21
153.416927
0
LINE
8
annotation
62
1
39
211
10
439.111457
20
153.416927
11
438.922899
21
153.228185
0
LINE
8
annotation
62
1
39
211
10
438.922899
20
153.228185
11
438.768506
21
153.009673
0
LINE
8
annotation
62
1
39
211
10
438.768506
20
153.009673
11
438.652721
21
152.765832
0
LINE
8
annotation
62
1
39
211
10
438.652721
20
152.765832
11
438.579991
21
152.501103
0
LINE
8
annotation
62
1
39
211
10
438.579991
20
152.501103
11
438.554760
21
152.219929
0
LINE
8
annotation
62
1
39
211
10
438.554760
20
152.219929
11
438.554760
21
151.440964
0
LINE
8
annotation
62
1
39
211
10
441.682103
20
155.351246
11
441.682103
21
155.351246
0
LINE
8
annotation
62
1
39
211
10
441.682103
20
155.351246
11
441.656871
21
155.631238
0
LINE
8
annotation
62
1
39
211
10
441.656871
20
155.631238
11
441.584141
21
155.895045
0
LINE
8
annotation
62
1
39
211
10
441.584141
20
155.895045
11
441.468357
21
156.138193
0
LINE
8
annotation
62
1
39
211
10
441.468357
20
156.138193
11
441.313963
21
156.356209
0
LINE
8
annotation
62
1
39
211
10
441.313963
20
156.356209
11
441.125405
21
156.544619
0
LINE
8
annotation
62
1
39
211
10
441.125405
20
156.544619
11
440.907128
21
156.698947
0
LINE
8
annotation
62
1
39
211
10
440.907128
20
156.698947
11
440.663577
21
156.814722
0
LINE
8
annotation
62
1
39
211
10
440.663577
20
156.814722
11
440.399196
21
156.887467
0
LINE
8
annotation
62
1
39
211
10
440.399196
20
156.887467
11
440.118431
21
156.912710
0
LINE
8
annotation
62
1
39
211
10
440.118431
20
156.912710
11
440.118431
21
156.912710
0
LINE
8
annotation
62
1
39
211
10
440.118431
20
156.912710
11
439.837666
21
156.887467
0
LINE
8
annotation
62
1
39
211
10
439.837666
20
156.887467
11
439.573286
21
156.814722
0
LINE
8
annotation
62
1
39
211
10
439.573286
20
156.814722
11
439.329734
21
156.698947
0
LINE
8
annotation
62
1
39
211
10
439.329734
20
156.698947
11
439.111457
21
156.544619
0
LINE
8
annotation
62
1
39
211
10
439.111457
20
156.544619
11
438.922899
21
156.356209
0
LINE
8
annotation
62
1
39
211
10
438.922899
20
156.356209
11
438.768506
21
156.138193
0
LINE
8
annotation
62
1
39
211
10
438.768506
20
156.138193
11
438.652721
21
155.895045
0
LINE
8
annotation
62
1
39
211
10
438.652721
20
155.895045
11
438.579991
21
155.631238
0
LINE
8
annotation
62
1
39
211
10
438.579991
20
155.631238
11
438.554760
21
155.351246
0
LINE
8
annotation
62
1
39
211
10
438.554760
20
155.351246
11
438.554760
21
155.351246
0
LINE
8
annotation
62
1
39
211
10
438.554760
20
155.351246
11
438.580005
21
155.069941
0
LINE
8
annotation
62
1
39
211
10
438.580005
20
155.069941
11
438.652772
21
154.805110
0
LINE
8
annotation
62
1
39
211
10
438.652772
20
154.805110
11
438.768604
21
154.561192
0
LINE
8
annotation
62
1
39
211
10
438.768604
20
154.561192
11
438.923045
21
154.342625
0
LINE
8
annotation
62
1
39
211
10
438.923045
20
154.342625
11
439.111639
21
154.153846
0
LINE
8
annotation
62
1
39
211
10
439.111639
20
154.153846
11
439.329931
21
153.999293
0
LINE
8
annotation
62
1
39
211
10
439.329931
20
153.999293
11
439.573464
21
153.883404
0
LINE
8
annotation
62
1
39
211
10
439.573464
20
153.883404
11
439.837783
21
153.810616
0
LINE
8
annotation
62
1
39
211
10
439.837783
20
153.810616
11
440.118431
21
153.785367
0
LINE
8
annotation
62
1
39
211
10
440.118431
20
153.785367
11
440.118431
21
153.785367
0
LINE
8
annotation
62
1
39
211
10
440.118431
20
153.785367
11
440.399080
21
153.810616
0
LINE
8
annotation
62
1
39
211
10
440.399080
20
153.810616
11
440.663399
21
153.883404
0
LINE
8
annotation
62
1
39
211
10
440.663399
20
153.883404
11
440.906932
21
153.999293
0
LINE
8
annotation
62
1
39
211
10
440.906932
20
153.999293
11
441.125223
21
154.153846
0
LINE
8
annotation
62
1
39
211
10
441.125223
20
154.153846
11
441.313818
21
154.342625
0
LINE
8
annotation
62
1
39
211
10
441.313818
20
154.342625
11
441.468258
21
154.561192
0
LINE
8
annotation
62
1
39
211
10
441.468258
20
154.561192
11
441.584090
21
154.805110
0
LINE
8
annotation
62
1
39
211
10
441.584090
20
154.805110
11
441.656857
21
155.069941
0
LINE
8
annotation
62
1
39
211
10
441.656857
20
155.069941
11
441.682103
21
155.351246
0
LINE
8
annotation
62
1
39
211
10
422.904342
20
173.995255
11
420.870661
21
171.053722
0
LINE
8
annotation
62
1
39
211
10
420.870661
20
171.053722
11
418.836598
21
173.995255
0
LINE
8
annotation
62
1
39
211
10
420.870661
20
171.290437
11
420.870661
21
167.896890
0
LINE
8
annotation
62
1
39
211
10
428.526122
20
170.946072
11
425.191850
21
170.946072
0
LINE
8
annotation
62
1
39
211
10
432.168143
20
167.897081
11
432.168143
21
173.995064
0
LINE
8
annotation
62
1
39
211
10
432.168143
20
173.995064
11
430.812483
21
172.639022
0
LINE
8
annotation
62
1
39
211
10
435.434193
20
167.977516
11
435.434193
21
167.977516
0
LINE
8
annotation
62
1
39
211
10
435.434193
20
167.977516
11
435.575918
21
167.924535
0
LINE
8
annotation
62
1
39
211
10
435.575918
20
167.924535
11
435.721269
21
167.898214
0
LINE
8
annotation
62
1
39
211
10
435.721269
20
167.898214
11
435.866959
21
167.897478
0
LINE
8
annotation
62
1
39
211
10
435.866959
20
167.897478
11
436.009704
21
167.921254
0
LINE
8
annotation
62
1
39
211
10
436.009704
20
167.921254
11
436.146216
21
167.968469
0
LINE
8
annotation
62
1
39
211
10
436.146216
20
167.968469
11
436.273211
21
168.038050
0
LINE
8
annotation
62
1
39
211
10
436.273211
20
168.038050
11
436.387402
21
168.128924
0
LINE
8
annotation
62
1
39
211
10
436.387402
20
168.128924
11
436.485503
21
168.240017
0
LINE
8
annotation
62
1
39
211
10
436.485503
20
168.240017
11
436.564228
21
168.370255
0
LINE
8
annotation
62
1
39
211
10
436.564228
20
168.370255
11
436.564228
21
168.370255
0
LINE
8
annotation
62
1
39
211
10
436.564228
20
168.370255
11
436.799116
21
168.920067
0
LINE
8
annotation
62
1
39
211
10
436.799116
20
168.920067
11
436.975282
21
169.485793
0
LINE
8
annotation
62
1
39
211
10
436.975282
20
169.485793
11
437.092725
21
170.062921
0
LINE
8
annotation
62
1
39
211
10
437.092725
20
170.062921
11
437.151447
21
170.646943
0
LINE
8
annotation
62
1
39
211
10
437.151447
20
170.646943
11
437.151447
21
171.233347
0
LINE
8
annotation
62
1
39
211
10
437.151447
20
171.233347
11
437.092725
21
171.817623
0
LINE
8
annotation
62
1
39
211
10
437.092725
20
171.817623
11
436.975282
21
172.395262
0
LINE
8
annotation
62
1
39
211
10
436.975282
20
172.395262
11
436.799116
21
172.961752
0
LINE
8
annotation
62
1
39
211
10
436.799116
20
172.961752
11
436.564228
21
173.512584
0
LINE
8
annotation
62
1
39
211
10
436.564228
20
173.512584
11
436.564228
21
173.512584
0
LINE
8
annotation
62
1
39
211
10
436.564228
20
173.512584
11
436.534358
21
173.568175
0
LINE
8
annotation
62
1
39
211
10
436.534358
20
173.568175
11
436.500493
21
173.621323
0
LINE
8
annotation
62
1
39
211
10
436.500493
20
173.621323
11
436.462889
21
173.671767
0
LINE
8
annotation
62
1
39
211
10
436.462889
20
173.671767
11
436.421800
21
173.719247
0
LINE
8
annotation
62
1
39
211
10
436.421800
20
173.719247
11
436.377483
21
173.763501
0
LINE
8
annotation
62
1
39
211
10
436.377483
20
173.763501
11
436.330191
21
173.804267
0
LINE
8
annotation
62
1
39
211
10
436.330191
20
173.804267
11
436.280179
21
173.841285
0
LINE
8
annotation
62
1
39
211
10
436.280179
20
173.841285
11
436.227704
21
173.874292
0
LINE
8
annotation
62
1
39
211
10
436.227704
20
173.874292
11
436.173018
21
173.903029
0
LINE
8
annotation
62
1
39
211
10
436.173018
20
173.903029
11
436.173018
21
173.903029
0
LINE
8
annotation
62
1
39
211
10
436.173018
20
173.903029
11
436.030168
21
173.957158
0
LINE
8
annotation
62
1
39
211
10
436.030168
20
173.957158
11
435.883966
21
173.984379
0
LINE
8
annotation
62
1
39
211
10
435.883966
20
173.984379
11
435.737661
21
173.985772
0
LINE
8
annotation
62
1
39
211
10
435.737661
20
173.985772
11
435.594499
21
173.962417
0
LINE
8
annotation
62
1
39
211
10
435.594499
20
173.962417
11
435.457730
21
173.915393
0
LINE
8
annotation
62
1
39
211
10
435.457730
20
173.915393
11
435.330602
21
173.845780
0
LINE
8
annotation
62
1
39
211
10
435.330602
20
173.845780
11
435.216362
21
173.754658
0
LINE
8
annotation
62
1
39
211
10
435.216362
20
173.754658
11
435.118259
21
173.643105
0
LINE
8
annotation
62
1
39
211
10
435.118259
20
173.643105
11
435.039542
21
173.512201
0
LINE
8
annotation
62
1
39
211
10
435.039542
20
173.512201
11
435.039542
21
173.512201
0
LINE
8
annotation
62
1
39
211
10
435.039542
20
173.512201
11
434.805787
21
172.962503
0
LINE
8
annotation
62
1
39
211
10
434.805787
20
172.962503
11
434.630471
21
172.396862
0
LINE
8
annotation
62
1
39
211
10
434.630471
20
172.396862
11
434.513594
21
171.819790
0
LINE
8
annotation
62
1
39
211
10
434.513594
20
171.819790
11
434.455155
21
171.235797
0
LINE
8
annotation
62
1
39
211
10
434.455155
20
171.235797
11
434.455155
21
170.649393
0
LINE
8
annotation
62
1
39
211
10
434.455155
20
170.649393
11
434.513594
21
170.065088
0
LINE
8
annotation
62
1
39
211
10
434.513594
20
170.065088
11
434.630471
21
169.487393
0
LINE
8
annotation
62
1
39
211
10
434.630471
20
169.487393
11
434.805787
21
168.920818
0
LINE
8
annotation
62
1
39
211
10
434.805787
20
168.920818
11
435.039542
21
168.369873
0
LINE
8
annotation
62
1
39
211
10
435.039542
20
168.369873
11
435.039542
21
168.369873
0
LINE
8
annotation
62
1
39
211
10
435.039542
20
168.369873
11
435.069304
21
168.314393
0
LINE
8
annotation
62
1
39
211
10
435.069304
20
168.314393
11
435.102918
21
168.261510
0
LINE
8
annotation
62
1
39
211
10
435.102918
20
168.261510
11
435.140244
21
168.211383
0
LINE
8
annotation
62
1
39
211
10
435.140244
20
168.211383
11
435.181139
21
168.164175
0
LINE
8
annotation
62
1
39
211
10
435.181139
20
168.164175
11
435.225461
21
168.120045
0
LINE
8
annotation
62
1
39
211
10
435.225461
20
168.120045
11
435.273069
21
168.079153
0
LINE
8
annotation
62
1
39
211
10
435.273069
20
168.079153
11
435.323822
21
168.041661
0
LINE
8
annotation
62
1
39
211
10
435.323822
20
168.041661
11
435.377577
21
168.007728
0
LINE
8
annotation
62
1
39
211
10
435.377577
20
168.007728
11
435.434193
21
167.977516
0
LINE
8
annotation
62
1
39
211
10
442.772576
20
170.946072
11
439.438304
21
170.946072
0
LINE
8
annotation
62
1
39
211
10
447.767466
20
167.897032
11
445.059206
21
167.897032
0
LINE
8
annotation
62
1
39
211
10
445.059206
20
167.897032
11
447.561727
21
171.925769
0
LINE
8
annotation
62
1
39
211
10
447.561727
20
171.925769
11
447.561727
21
171.925769
0
LINE
8
annotation
62
1
39
211
10
447.561727
20
171.925769
11
447.564719
21
171.929471
0
LINE
8
annotation
62
1
39
211
10
447.564719
20
171.929471
11
447.567588
21
171.933204
0
LINE
8
annotation
62
1
39
211
10
447.567588
20
171.933204
11
447.570353
21
171.937000
0
LINE
8
annotation
62
1
39
211
10
447.570353
20
171.937000
11
447.573033
21
171.940891
0
LINE
8
annotation
62
1
39
211
10
447.573033
20
171.940891
11
447.575647
21
171.944908
0
LINE
8
annotation
62
1
39
211
10
447.575647
20
171.944908
11
447.578214
21
171.949082
0
LINE
8
annotation
62
1
39
211
10
447.578214
20
171.949082
11
447.580752
21
171.953445
0
LINE
8
annotation
62
1
39
211
10
447.580752
20
171.953445
11
447.583281
21
171.958028
0
LINE
8
annotation
62
1
39
211
10
447.583281
20
171.958028
11
447.585819
21
171.962863
0
LINE
8
annotation
62
1
39
211
10
447.585819
20
171.962863
11
447.585819
21
171.962863
0
LINE
8
annotation
62
1
39
211
10
447.585819
20
171.962863
11
447.689148
21
172.184718
0
LINE
8
annotation
62
1
39
211
10
447.689148
20
172.184718
11
447.749511
21
172.414690
0
LINE
8
annotation
62
1
39
211
10
447.749511
20
172.414690
11
447.768387
21
172.647583
0
LINE
8
annotation
62
1
39
211
10
447.768387
20
172.647583
11
447.747256
21
172.878201
0
LINE
8
annotation
62
1
39
211
10
447.747256
20
172.878201
11
447.687597
21
173.101346
0
LINE
8
annotation
62
1
39
211
10
447.687597
20
173.101346
11
447.590890
21
173.311823
0
LINE
8
annotation
62
1
39
211
10
447.590890
20
173.311823
11
447.458613
21
173.504435
0
LINE
8
annotation
62
1
39
211
10
447.458613
20
173.504435
11
447.292247
21
173.673986
0
LINE
8
annotation
62
1
39
211
10
447.292247
20
173.673986
11
447.093269
21
173.815279
0
LINE
8
annotation
62
1
39
211
10
447.093269
20
173.815279
11
447.093269
21
173.815279
0
LINE
8
annotation
62
1
39
211
10
447.093269
20
173.815279
11
446.870798
21
173.917139
0
LINE
8
annotation
62
1
39
211
10
446.870798
20
173.917139
11
446.640473
21
173.976572
0
LINE
8
annotation
62
1
39
211
10
446.640473
20
173.976572
11
446.407444
21
173.994915
0
LINE
8
annotation
62
1
39
211
10
446.407444
20
173.994915
11
446.176861
21
173.973505
0
LINE
8
annotation
62
1
39
211
10
446.176861
20
173.973505
11
445.953873
21
173.913681
0
LINE
8
annotation
62
1
39
211
10
445.953873
20
173.913681
11
445.743629
21
173.816780
0
LINE
8
annotation
62
1
39
211
10
445.743629
20
173.816780
11
445.551278
21
173.684140
0
LINE
8
annotation
62
1
39
211
10
445.551278
20
173.684140
11
445.381970
21
173.517099
0
LINE
8
annotation
62
1
39
211
10
445.381970
20
173.517099
11
445.240853
21
173.316993
0
LINE
8
annotation
62
1
39
211
10
445.240853
20
173.316993
11
445.063031
21
172.975879
0
LINE
8
frame
62
5
39
2
10
0.000000
20
0.000000
11
480.000000
21
0.000000
0
LINE
8
frame
62
5
39
2
10
480.000000
20
0.000000
11
480.000000
21
420.000000
0
LINE
8
frame
62
5
39
2
10
480.000000
20
420.000000
11
0.000000
21
420.000000
0
LINE
8
frame
62
5
39
2
10
0.000000
20
420.000000
11
0.000000
21
0.000000
0
ENDSEC
0
EOF
