0
SECTION
2
HEADER
9
$ACADVER
1
AC1009
0
ENDSEC
0
SECTION
2
TABLES
0
TABLE
2
VPORT
70
1
0
VPORT
2
ACTIVE
70
0
10
0.0
20
0.0
11
0.0
21
0.0
12
0.0
22
0.0
13
0.0
23
0.0
14
0.0
24
0.0
15
0.0
25
0.0
16
0.0
26
0.0
36
0.0
17
0.0
27
0.0
37
0.0
40
0.0
41
0.0
42
0.0
43
0.0
44
0.0
50
0.0
51
0.0
71
0
72
1000
73
1
74
3
75
0
76
0
77
0
78
0
0
ENDTAB
0
ENDSEC
0
SECTION
2
ENTITIES
0
LINE
8
boundary
62
5
39
2
10
55.898636
20
18.946989
11
58.166122
21
17.048329
0
LINE
8
boundary
62
5
39
2
10
58.166122
20
17.048329
11
69.220489
21
12.975686
0
LINE
8
boundary
62
5
39
2
10
69.220489
20
12.975686
11
76.908993
21
9.882487
0
LINE
8
boundary
62
5
39
2
10
76.908993
20
9.882487
11
90.877472
21
7.338685
0
LINE
8
boundary
62
5
39
2
10
90.877472
20
7.338685
11
94.997929
21
6.687500
0
LINE
8
boundary
62
5
39
2
10
94.997929
20
6.687500
11
108.099340
21
8.692981
0
LINE
8
boundary
62
5
39
2
10
108.099340
20
8.692981
11
111.104289
21
9.170844
0
LINE
8
boundary
62
5
39
2
10
111.104289
20
9.170844
11
118.259215
21
16.765372
0
LINE
8
boundary
62
5
39
2
10
118.259215
20
16.765372
11
125.417844
21
25.660037
0
LINE
8
boundary
62
5
39
2
10
125.417844
20
25.660037
11
125.753322
21
26.642317
0
LINE
8
boundary
62
5
39
2
10
125.753322
20
26.642317
11
126.231623
21
27.661459
0
LINE
8
boundary
62
5
39
2
10
126.231623
20
27.661459
11
126.677262
21
28.538154
0
LINE
8
boundary
62
5
39
2
10
126.677262
20
28.538154
11
126.337018
21
33.002205
0
LINE
8
boundary
62
5
39
2
10
126.337018
20
33.002205
11
109.736467
21
127.148609
0
LINE
8
boundary
62
5
39
2
10
109.736467
20
127.148609
11
113.725923
21
127.852058
0
LINE
8
boundary
62
5
39
2
10
113.725923
20
127.852058
11
129.187862
21
40.163050
0
LINE
8
boundary
62
5
39
2
10
129.187862
20
40.163050
11
130.394933
21
35.851845
0
LINE
8
boundary
62
5
39
2
10
130.394933
20
35.851845
11
136.896202
21
48.641647
0
LINE
8
boundary
62
5
39
2
10
136.896202
20
48.641647
11
137.881677
21
52.464480
0
LINE
8
boundary
62
5
39
2
10
137.881677
20
52.464480
11
138.883497
21
53.694994
0
LINE
8
boundary
62
5
39
2
10
138.883497
20
53.694994
11
149.635144
21
67.672619
0
LINE
8
boundary
62
5
39
2
10
149.635144
20
67.672619
11
150.853880
21
70.750495
0
LINE
8
boundary
62
5
39
2
10
150.853880
20
70.750495
11
161.882249
21
66.460276
0
LINE
8
boundary
62
5
39
2
10
161.882249
20
66.460276
11
163.602502
21
65.111056
0
LINE
8
boundary
62
5
39
2
10
163.602502
20
65.111056
11
176.811244
21
67.218023
0
LINE
8
boundary
62
5
39
2
10
176.811244
20
67.218023
11
179.927116
21
67.198574
0
LINE
8
boundary
62
5
39
2
10
179.927116
20
67.198574
11
182.910857
21
69.939384
0
LINE
8
boundary
62
5
39
2
10
182.910857
20
69.939384
11
191.616112
21
78.468107
0
LINE
8
boundary
62
5
39
2
10
191.616112
20
78.468107
11
189.859363
21
82.819848
0
LINE
8
boundary
62
5
39
2
10
189.859363
20
82.819848
11
147.972988
21
155.369177
0
LINE
8
boundary
62
5
39
2
10
147.972988
20
155.369177
11
151.481257
21
157.394677
0
LINE
8
boundary
62
5
39
2
10
151.481257
20
157.394677
11
191.161975
21
88.665658
0
LINE
8
boundary
62
5
39
2
10
191.161975
20
88.665658
11
193.770770
21
85.027292
0
LINE
8
boundary
62
5
39
2
10
193.770770
20
85.027292
11
194.465714
21
87.142834
0
LINE
8
boundary
62
5
39
2
10
194.465714
20
87.142834
11
195.307789
21
89.486956
0
LINE
8
boundary
62
5
39
2
10
195.307789
20
89.486956
11
198.602238
21
88.116470
0
LINE
8
boundary
62
5
39
2
10
198.602238
20
88.116470
11
208.098643
21
84.930433
0
LINE
8
boundary
62
5
39
2
10
208.098643
20
84.930433
11
210.690900
21
82.381998
0
LINE
8
boundary
62
5
39
2
10
210.690900
20
82.381998
11
217.832956
21
78.217665
0
LINE
8
boundary
62
5
39
2
10
217.832956
20
78.217665
11
219.580743
21
76.734559
0
LINE
8
boundary
62
5
39
2
10
219.580743
20
76.734559
11
226.248891
21
72.084443
0
LINE
8
boundary
62
5
39
2
10
226.248891
20
72.084443
11
227.432392
21
71.389825
0
LINE
8
boundary
62
5
39
2
10
227.432392
20
71.389825
11
236.590351
21
61.239658
0
LINE
8
boundary
62
5
39
2
10
236.590351
20
61.239658
11
237.599051
21
60.060339
0
LINE
8
boundary
62
5
39
2
10
237.599051
20
60.060339
11
245.194685
21
51.205860
0
LINE
8
boundary
62
5
39
2
10
245.194685
20
51.205860
11
246.297669
21
49.261297
0
LINE
8
boundary
62
5
39
2
10
246.297669
20
49.261297
11
255.149367
21
39.689585
0
LINE
8
boundary
62
5
39
2
10
255.149367
20
39.689585
11
259.705948
21
34.597161
0
LINE
8
boundary
62
5
39
2
10
259.705948
20
34.597161
11
267.620368
21
26.985529
0
LINE
8
boundary
62
5
39
2
10
267.620368
20
26.985529
11
269.849227
21
28.494217
0
LINE
8
boundary
62
5
39
2
10
269.849227
20
28.494217
11
322.137407
21
63.887457
0
LINE
8
boundary
62
5
39
2
10
322.137407
20
63.887457
11
319.007329
21
67.088414
0
LINE
8
boundary
62
5
39
2
10
319.007329
20
67.088414
11
219.428892
21
150.644643
0
LINE
8
boundary
62
5
39
2
10
219.428892
20
150.644643
11
222.032825
21
153.747889
0
LINE
8
boundary
62
5
39
2
10
222.032825
20
153.747889
11
322.687772
21
69.288360
0
LINE
8
boundary
62
5
39
2
10
322.687772
20
69.288360
11
326.383632
21
66.761675
0
LINE
8
boundary
62
5
39
2
10
326.383632
20
66.761675
11
328.913705
21
68.474251
0
LINE
8
boundary
62
5
39
2
10
328.913705
20
68.474251
11
333.201888
21
71.376871
0
LINE
8
boundary
62
5
39
2
10
333.201888
20
71.376871
11
334.337197
21
72.145348
0
LINE
8
boundary
62
5
39
2
10
334.337197
20
72.145348
11
334.777325
21
72.443266
0
LINE
8
boundary
62
5
39
2
10
334.777325
20
72.443266
11
335.202466
21
72.731039
0
LINE
8
boundary
62
5
39
2
10
335.202466
20
72.731039
11
333.905147
21
82.818201
0
LINE
8
boundary
62
5
39
2
10
333.905147
20
82.818201
11
333.777903
21
84.006459
0
LINE
8
boundary
62
5
39
2
10
333.777903
20
84.006459
11
331.846346
21
93.420490
0
LINE
8
boundary
62
5
39
2
10
331.846346
20
93.420490
11
330.803513
21
107.486738
0
LINE
8
boundary
62
5
39
2
10
330.803513
20
107.486738
11
329.829564
21
110.914259
0
LINE
8
boundary
62
5
39
2
10
329.829564
20
110.914259
11
329.356550
21
112.502079
0
LINE
8
boundary
62
5
39
2
10
329.356550
20
112.502079
11
326.891083
21
117.957381
0
LINE
8
boundary
62
5
39
2
10
326.891083
20
117.957381
11
319.718332
21
134.114123
0
LINE
8
boundary
62
5
39
2
10
319.718332
20
134.114123
11
313.992002
21
148.193340
0
LINE
8
boundary
62
5
39
2
10
313.992002
20
148.193340
11
312.188555
21
151.686466
0
LINE
8
boundary
62
5
39
2
10
312.188555
20
151.686466
11
310.967098
21
153.661671
0
LINE
8
boundary
62
5
39
2
10
310.967098
20
153.661671
11
302.853354
21
167.033998
0
LINE
8
boundary
62
5
39
2
10
302.853354
20
167.033998
11
295.158995
21
179.431177
0
LINE
8
boundary
62
5
39
2
10
295.158995
20
179.431177
11
292.326636
21
183.775850
0
LINE
8
boundary
62
5
39
2
10
292.326636
20
183.775850
11
289.976897
21
187.579186
0
LINE
8
boundary
62
5
39
2
10
289.976897
20
187.579186
11
285.940794
21
189.516552
0
LINE
8
boundary
62
5
39
2
10
285.940794
20
189.516552
11
208.309765
21
217.771936
0
LINE
8
boundary
62
5
39
2
10
208.309765
20
217.771936
11
209.695288
21
221.578630
0
LINE
8
boundary
62
5
39
2
10
209.695288
20
221.578630
11
281.123734
21
195.580802
0
LINE
8
boundary
62
5
39
2
10
281.123734
20
195.580802
11
285.460883
21
194.470554
0
LINE
8
boundary
62
5
39
2
10
285.460883
20
194.470554
11
279.816903
21
202.337622
0
LINE
8
boundary
62
5
39
2
10
279.816903
20
202.337622
11
273.349774
21
210.144119
0
LINE
8
boundary
62
5
39
2
10
273.349774
20
210.144119
11
265.097490
21
220.968519
0
LINE
8
boundary
62
5
39
2
10
265.097490
20
220.968519
11
255.770027
21
230.337595
0
LINE
8
boundary
62
5
39
2
10
255.770027
20
230.337595
11
243.438998
21
239.707017
0
LINE
8
boundary
62
5
39
2
10
243.438998
20
239.707017
11
222.090117
21
254.337113
0
LINE
8
boundary
62
5
39
2
10
222.090117
20
254.337113
11
218.175667
21
256.341092
0
LINE
8
boundary
62
5
39
2
10
218.175667
20
256.341092
11
208.302385
21
261.362783
0
LINE
8
boundary
62
5
39
2
10
208.302385
20
261.362783
11
203.847072
21
261.802883
0
LINE
8
boundary
62
5
39
2
10
203.847072
20
261.802883
11
184.047314
21
261.802882
0
LINE
8
boundary
62
5
39
2
10
184.047314
20
261.802882
11
184.047315
21
265.853883
0
LINE
8
boundary
62
5
39
2
10
184.047315
20
265.853883
11
194.043499
21
265.853883
0
LINE
8
boundary
62
5
39
2
10
194.043499
20
265.853883
11
198.498814
21
266.293983
0
LINE
8
boundary
62
5
39
2
10
198.498814
20
266.293983
11
197.258387
21
266.916670
0
LINE
8
boundary
62
5
39
2
10
197.258387
20
266.916670
11
195.299566
21
267.448581
0
LINE
8
boundary
62
5
39
2
10
195.299566
20
267.448581
11
191.261885
21
267.347026
0
LINE
8
boundary
62
5
39
2
10
191.261885
20
267.347026
11
176.123656
21
266.869457
0
LINE
8
boundary
62
5
39
2
10
176.123656
20
266.869457
11
164.539352
21
263.799048
0
LINE
8
boundary
62
5
39
2
10
164.539352
20
263.799048
11
161.831494
21
263.189840
0
LINE
8
boundary
62
5
39
2
10
161.831494
20
263.189840
11
150.731868
21
259.277452
0
LINE
8
boundary
62
5
39
2
10
150.731868
20
259.277452
11
149.634236
21
258.796938
0
LINE
8
boundary
62
5
39
2
10
149.634236
20
258.796938
11
139.565068
21
253.812921
0
LINE
8
boundary
62
5
39
2
10
139.565068
20
253.812921
11
139.015255
21
253.497009
0
LINE
8
boundary
62
5
39
2
10
139.015255
20
253.497009
11
129.478358
21
247.975723
0
LINE
8
boundary
62
5
39
2
10
129.478358
20
247.975723
11
120.233954
21
241.855664
0
LINE
8
boundary
62
5
39
2
10
120.233954
20
241.855664
11
111.153344
21
235.129567
0
LINE
8
boundary
62
5
39
2
10
111.153344
20
235.129567
11
103.046082
21
228.253457
0
LINE
8
boundary
62
5
39
2
10
103.046082
20
228.253457
11
102.425413
21
227.242987
0
LINE
8
boundary
62
5
39
2
10
102.425413
20
227.242987
11
101.048984
21
227.103892
0
LINE
8
boundary
62
5
39
2
10
101.048984
20
227.103892
11
92.508906
21
223.914340
0
LINE
8
boundary
62
5
39
2
10
92.508906
20
223.914340
11
88.252323
21
223.197264
0
LINE
8
boundary
62
5
39
2
10
88.252323
20
223.197264
11
80.770161
21
220.483855
0
LINE
8
boundary
62
5
39
2
10
80.770161
20
220.483855
11
75.436597
21
218.656411
0
LINE
8
boundary
62
5
39
2
10
75.436597
20
218.656411
11
69.871502
21
216.405793
0
LINE
8
boundary
62
5
39
2
10
69.871502
20
216.405793
11
62.989753
21
213.839844
0
LINE
8
boundary
62
5
39
2
10
62.989753
20
213.839844
11
58.895295
21
211.898057
0
LINE
8
boundary
62
5
39
2
10
58.895295
20
211.898057
11
47.832188
21
206.065138
0
LINE
8
boundary
62
5
39
2
10
47.832188
20
206.065138
11
46.427849
21
205.267924
0
LINE
8
boundary
62
5
39
2
10
46.427849
20
205.267924
11
42.356915
21
202.481048
0
LINE
8
boundary
62
5
39
2
10
42.356915
20
202.481048
11
33.542680
21
195.964624
0
LINE
8
boundary
62
5
39
2
10
33.542680
20
195.964624
11
28.476165
21
190.368397
0
LINE
8
boundary
62
5
39
2
10
28.476165
20
190.368397
11
20.707439
21
181.681972
0
LINE
8
boundary
62
5
39
2
10
20.707439
20
181.681972
11
15.632122
21
171.161639
0
LINE
8
boundary
62
5
39
2
10
15.632122
20
171.161639
11
10.233036
21
156.295147
0
LINE
8
boundary
62
5
39
2
10
10.233036
20
156.295147
11
8.485711
21
138.465323
0
LINE
8
boundary
62
5
39
2
10
8.485711
20
138.465323
11
7.792796
21
130.368574
0
LINE
8
boundary
62
5
39
2
10
7.792796
20
130.368574
11
10.401591
21
134.006940
0
LINE
8
boundary
62
5
39
2
10
10.401591
20
134.006940
11
30.494490
21
168.808862
0
LINE
8
boundary
62
5
39
2
10
30.494490
20
168.808862
11
34.002759
21
166.783361
0
LINE
8
boundary
62
5
39
2
10
34.002759
20
166.783361
11
8.648419
21
122.868356
0
LINE
8
boundary
62
5
39
2
10
8.648419
20
122.868356
11
6.801900
21
118.789891
0
LINE
8
boundary
62
5
39
2
10
6.801900
20
118.789891
11
6.687500
21
117.453126
0
LINE
8
boundary
62
5
39
2
10
6.687500
20
117.453126
11
9.434447
21
95.748699
0
LINE
8
boundary
62
5
39
2
10
9.434447
20
95.748699
11
12.458273
21
80.037182
0
LINE
8
boundary
62
5
39
2
10
12.458273
20
80.037182
11
23.237245
21
56.529071
0
LINE
8
boundary
62
5
39
2
10
23.237245
20
56.529071
11
25.078461
21
53.123981
0
LINE
8
boundary
62
5
39
2
10
25.078461
20
53.123981
11
29.369116
21
47.531238
0
LINE
8
boundary
62
5
39
2
10
29.369116
20
47.531238
11
41.594463
21
31.572569
0
LINE
8
boundary
62
5
39
2
10
41.594463
20
31.572569
11
43.879955
21
29.551749
0
LINE
8
boundary
62
5
39
2
10
43.879955
20
29.551749
11
45.087026
21
33.862955
0
LINE
8
boundary
62
5
39
2
10
45.087026
20
33.862955
11
61.018640
21
124.215628
0
LINE
8
boundary
62
5
39
2
10
61.018640
20
124.215628
11
65.008096
21
123.512180
0
LINE
8
boundary
62
5
39
2
10
65.008096
20
123.512180
11
48.552095
21
30.185561
0
LINE
8
boundary
62
5
39
2
10
48.552095
20
30.185561
11
48.211852
21
25.721510
0
LINE
8
boundary
62
5
39
2
10
48.211852
20
25.721510
11
52.019711
21
22.354623
0
LINE
8
boundary
62
5
39
2
10
52.019711
20
22.354623
11
55.898636
21
18.946989
0
LINE
8
annotation
62
1
39
211
10
178.543782
20
261.489127
11
178.543782
21
266.167638
0
LINE
8
annotation
62
1
39
211
10
178.543782
20
266.167638
11
177.503689
21
265.127252
0
LINE
8
annotation
62
1
39
211
10
34.818482
20
179.008664
11
40.674051
21
175.627950
0
LINE
8
annotation
62
1
39
211
10
40.674051
20
175.627950
11
40.123492
21
177.681506
0
LINE
8
annotation
62
1
39
211
10
33.551004
20
176.812903
11
32.800276
21
175.512604
0
LINE
8
annotation
62
1
39
211
10
32.800276
20
175.512604
11
32.800276
21
175.512604
0
LINE
8
annotation
62
1
39
211
10
32.800276
20
175.512604
11
32.686235
21
175.266630
0
LINE
8
annotation
62
1
39
211
10
32.686235
20
175.266630
11
32.619648
21
175.011666
0
LINE
8
annotation
62
1
39
211
10
32.619648
20
175.011666
11
32.598917
21
174.753515
0
LINE
8
annotation
62
1
39
211
10
32.598917
20
174.753515
11
32.622445
21
174.497979
0
LINE
8
annotation
62
1
39
211
10
32.622445
20
174.497979
11
32.688632
21
174.250863
0
LINE
8
annotation
62
1
39
211
10
32.688632
20
174.250863
11
32.795880
21
174.017967
0
LINE
8
annotation
62
1
39
211
10
32.795880
20
174.017967
11
32.942592
21
173.805096
0
LINE
8
annotation
62
1
39
211
10
32.942592
20
173.805096
11
33.127168
21
173.618051
0
LINE
8
annotation
62
1
39
211
10
33.127168
20
173.618051
11
33.348011
21
173.462637
0
LINE
8
annotation
62
1
39
211
10
33.348011
20
173.462637
11
33.999079
21
173.086743
0
LINE
8
annotation
62
1
39
211
10
33.999079
20
173.086743
11
33.999079
21
173.086743
0
LINE
8
annotation
62
1
39
211
10
33.999079
20
173.086743
11
34.243996
21
172.973251
0
LINE
8
annotation
62
1
39
211
10
34.243996
20
172.973251
11
34.498218
21
172.906955
0
LINE
8
annotation
62
1
39
211
10
34.498218
20
172.906955
11
34.755911
21
172.886343
0
LINE
8
annotation
62
1
39
211
10
34.755911
20
172.886343
11
35.011240
21
172.909904
0
LINE
8
annotation
62
1
39
211
10
35.011240
20
172.909904
11
35.258374
21
172.976125
0
LINE
8
annotation
62
1
39
211
10
35.258374
20
172.976125
11
35.491477
21
173.083495
0
LINE
8
annotation
62
1
39
211
10
35.491477
20
173.083495
11
35.704716
21
173.230501
0
LINE
8
annotation
62
1
39
211
10
35.704716
20
173.230501
11
35.892258
21
173.415631
0
LINE
8
annotation
62
1
39
211
10
35.892258
20
173.415631
11
36.048270
21
173.637374
0
LINE
8
annotation
62
1
39
211
10
36.048270
20
173.637374
11
36.424164
21
174.288442
0
LINE
8
annotation
62
1
39
211
10
36.424164
20
174.288442
11
36.048270
21
173.637374
0
LINE
8
annotation
62
1
39
211
10
36.048270
20
173.637374
11
36.048270
21
173.637374
0
LINE
8
annotation
62
1
39
211
10
36.048270
20
173.637374
11
35.934245
21
173.391390
0
LINE
8
annotation
62
1
39
211
10
35.934245
20
173.391390
11
35.867724
21
173.136388
0
LINE
8
annotation
62
1
39
211
10
35.867724
20
173.136388
11
35.847129
21
172.878159
0
LINE
8
annotation
62
1
39
211
10
35.847129
20
172.878159
11
35.870882
21
172.622493
0
LINE
8
annotation
62
1
39
211
10
35.870882
20
172.622493
11
35.937406
21
172.375182
0
LINE
8
annotation
62
1
39
211
10
35.937406
20
172.375182
11
36.045125
21
172.142015
0
LINE
8
annotation
62
1
39
211
10
36.045125
20
172.142015
11
36.192461
21
171.928783
0
LINE
8
annotation
62
1
39
211
10
36.192461
20
171.928783
11
36.377838
21
171.741277
0
LINE
8
annotation
62
1
39
211
10
36.377838
20
171.741277
11
36.599677
21
171.585287
0
LINE
8
annotation
62
1
39
211
10
36.599677
20
171.585287
11
36.599677
21
171.585287
0
LINE
8
annotation
62
1
39
211
10
36.599677
20
171.585287
11
36.844594
21
171.471794
0
LINE
8
annotation
62
1
39
211
10
36.844594
20
171.471794
11
37.098816
21
171.405499
0
LINE
8
annotation
62
1
39
211
10
37.098816
20
171.405499
11
37.356509
21
171.384887
0
LINE
8
annotation
62
1
39
211
10
37.356509
20
171.384887
11
37.611838
21
171.408448
0
LINE
8
annotation
62
1
39
211
10
37.611838
20
171.408448
11
37.858972
21
171.474669
0
LINE
8
annotation
62
1
39
211
10
37.858972
20
171.474669
11
38.092075
21
171.582039
0
LINE
8
annotation
62
1
39
211
10
38.092075
20
171.582039
11
38.305314
21
171.729045
0
LINE
8
annotation
62
1
39
211
10
38.305314
20
171.729045
11
38.492857
21
171.914175
0
LINE
8
annotation
62
1
39
211
10
38.492857
20
171.914175
11
38.648868
21
172.135918
0
LINE
8
annotation
62
1
39
211
10
38.648868
20
172.135918
11
39.399596
21
173.436217
0
LINE
8
annotation
62
1
39
211
10
61.939483
20
135.365264
11
67.956187
21
134.304356
0
LINE
8
annotation
62
1
39
211
10
67.956187
20
134.304356
11
66.854072
21
135.877866
0
LINE
8
annotation
62
1
39
211
10
62.290199
20
129.532567
11
62.879267
21
132.873335
0
LINE
8
annotation
62
1
39
211
10
62.879267
20
132.873335
11
67.323125
21
130.714087
0
LINE
8
annotation
62
1
39
211
10
61.129183
20
130.769821
11
63.801345
21
130.298646
0
LINE
8
annotation
62
1
39
211
10
106.492531
20
137.741520
11
113.151238
21
138.915629
0
LINE
8
annotation
62
1
39
211
10
113.151238
20
138.915629
11
111.409485
21
140.134852
0
LINE
8
annotation
62
1
39
211
10
106.932785
20
135.244713
11
107.193510
21
133.766068
0
LINE
8
annotation
62
1
39
211
10
107.193510
20
133.766068
11
107.193510
21
133.766068
0
LINE
8
annotation
62
1
39
211
10
107.193510
20
133.766068
11
107.264167
21
133.504887
0
LINE
8
annotation
62
1
39
211
10
107.264167
20
133.504887
11
107.377031
21
133.267071
0
LINE
8
annotation
62
1
39
211
10
107.377031
20
133.267071
11
107.527170
21
133.056093
0
LINE
8
annotation
62
1
39
211
10
107.527170
20
133.056093
11
107.709650
21
132.875430
0
LINE
8
annotation
62
1
39
211
10
107.709650
20
132.875430
11
107.919541
21
132.728555
0
LINE
8
annotation
62
1
39
211
10
107.919541
20
132.728555
11
108.151909
21
132.618944
0
LINE
8
annotation
62
1
39
211
10
108.151909
20
132.618944
11
108.401822
21
132.550072
0
LINE
8
annotation
62
1
39
211
10
108.401822
20
132.550072
11
108.664347
21
132.525413
0
LINE
8
annotation
62
1
39
211
10
108.664347
20
132.525413
11
108.934551
21
132.548442
0
LINE
8
annotation
62
1
39
211
10
108.934551
20
132.548442
11
109.671160
21
132.678326
0
LINE
8
annotation
62
1
39
211
10
109.671160
20
132.678326
11
109.671160
21
132.678326
0
LINE
8
annotation
62
1
39
211
10
109.671160
20
132.678326
11
109.932819
21
132.749064
0
LINE
8
annotation
62
1
39
211
10
109.932819
20
132.749064
11
110.170739
21
132.861930
0
LINE
8
annotation
62
1
39
211
10
110.170739
20
132.861930
11
110.381532
21
133.011991
0
LINE
8
annotation
62
1
39
211
10
110.381532
20
133.011991
11
110.561812
21
133.194317
0
LINE
8
annotation
62
1
39
211
10
110.561812
20
133.194317
11
110.708193
21
133.403977
0
LINE
8
annotation
62
1
39
211
10
110.708193
20
133.403977
11
110.817288
21
133.636038
0
LINE
8
annotation
62
1
39
211
10
110.817288
20
133.636038
11
110.885711
21
133.885572
0
LINE
8
annotation
62
1
39
211
10
110.885711
20
133.885572
11
110.910074
21
134.147645
0
LINE
8
annotation
62
1
39
211
10
110.910074
20
134.147645
11
110.886993
21
134.417328
0
LINE
8
annotation
62
1
39
211
10
110.886993
20
134.417328
11
110.626267
21
135.895974
0
LINE
8
annotation
62
1
39
211
10
110.626267
20
135.895974
11
113.591493
21
136.418823
0
LINE
8
annotation
62
1
39
211
10
113.591493
20
136.418823
11
114.112943
21
133.461532
0
LINE
8
annotation
62
1
39
211
10
141.301696
20
164.213765
11
147.157265
21
167.594480
0
LINE
8
annotation
62
1
39
211
10
147.157265
20
167.594480
11
145.103553
21
168.144460
0
LINE
8
annotation
62
1
39
211
10
149.552609
20
163.445622
11
149.552609
21
163.445622
0
LINE
8
annotation
62
1
39
211
10
149.552609
20
163.445622
11
149.197878
21
163.737489
0
LINE
8
annotation
62
1
39
211
10
149.197878
20
163.737489
11
148.812344
21
163.970661
0
LINE
8
annotation
62
1
39
211
10
148.812344
20
163.970661
11
148.402749
21
164.144353
0
LINE
8
annotation
62
1
39
211
10
148.402749
20
164.144353
11
147.975832
21
164.257777
0
LINE
8
annotation
62
1
39
211
10
147.975832
20
164.257777
11
147.538334
21
164.310146
0
LINE
8
annotation
62
1
39
211
10
147.538334
20
164.310146
11
147.096997
21
164.300674
0
LINE
8
annotation
62
1
39
211
10
147.096997
20
164.300674
11
146.658560
21
164.228573
0
LINE
8
annotation
62
1
39
211
10
146.658560
20
164.228573
11
146.229764
21
164.093058
0
LINE
8
annotation
62
1
39
211
10
146.229764
20
164.093058
11
145.817351
21
163.893341
0
LINE
8
annotation
62
1
39
211
10
145.817351
20
163.893341
11
143.871126
21
162.769687
0
LINE
8
annotation
62
1
39
211
10
143.871126
20
162.769687
11
143.871126
21
162.769687
0
LINE
8
annotation
62
1
39
211
10
143.871126
20
162.769687
11
143.649334
21
162.613644
0
LINE
8
annotation
62
1
39
211
10
143.649334
20
162.613644
11
143.464079
21
162.426006
0
LINE
8
annotation
62
1
39
211
10
143.464079
20
162.426006
11
143.316905
21
162.212606
0
LINE
8
annotation
62
1
39
211
10
143.316905
20
162.212606
11
143.209357
21
161.979276
0
LINE
8
annotation
62
1
39
211
10
143.209357
20
161.979276
11
143.142981
21
161.731848
0
LINE
8
annotation
62
1
39
211
10
143.142981
20
161.731848
11
143.119321
21
161.476156
0
LINE
8
annotation
62
1
39
211
10
143.119321
20
161.476156
11
143.139921
21
161.218030
0
LINE
8
annotation
62
1
39
211
10
143.139921
20
161.218030
11
143.206328
21
160.963305
0
LINE
8
annotation
62
1
39
211
10
143.206328
20
160.963305
11
143.320086
21
160.717812
0
LINE
8
annotation
62
1
39
211
10
143.320086
20
160.717812
11
143.320086
21
160.717812
0
LINE
8
annotation
62
1
39
211
10
143.320086
20
160.717812
11
143.476089
21
160.496065
0
LINE
8
annotation
62
1
39
211
10
143.476089
20
160.496065
11
143.663633
21
160.310935
0
LINE
8
annotation
62
1
39
211
10
143.663633
20
160.310935
11
143.876919
21
160.163956
0
LINE
8
annotation
62
1
39
211
10
143.876919
20
160.163956
11
144.110151
21
160.056661
0
LINE
8
annotation
62
1
39
211
10
144.110151
20
160.056661
11
144.357531
21
159.990581
0
LINE
8
annotation
62
1
39
211
10
144.357531
20
159.990581
11
144.613261
21
159.967252
0
LINE
8
annotation
62
1
39
211
10
144.613261
20
159.967252
11
144.871544
21
159.988204
0
LINE
8
annotation
62
1
39
211
10
144.871544
20
159.988204
11
145.126584
21
160.054972
0
LINE
8
annotation
62
1
39
211
10
145.126584
20
160.054972
11
145.372582
21
160.169089
0
LINE
8
annotation
62
1
39
211
10
145.372582
20
160.169089
11
146.020344
21
160.543075
0
LINE
8
annotation
62
1
39
211
10
146.020344
20
160.543075
11
146.020344
21
160.543075
0
LINE
8
annotation
62
1
39
211
10
146.020344
20
160.543075
11
146.242058
21
160.698992
0
LINE
8
annotation
62
1
39
211
10
146.242058
20
160.698992
11
146.427096
21
160.886303
0
LINE
8
annotation
62
1
39
211
10
146.427096
20
160.886303
11
146.573944
21
161.099253
0
LINE
8
annotation
62
1
39
211
10
146.573944
20
161.099253
11
146.681083
21
161.332085
0
LINE
8
annotation
62
1
39
211
10
146.681083
20
161.332085
11
146.746999
21
161.579045
0
LINE
8
annotation
62
1
39
211
10
146.746999
20
161.579045
11
146.770172
21
161.834376
0
LINE
8
annotation
62
1
39
211
10
146.770172
20
161.834376
11
146.749088
21
162.092323
0
LINE
8
annotation
62
1
39
211
10
146.749088
20
162.092323
11
146.682229
21
162.347130
0
LINE
8
annotation
62
1
39
211
10
146.682229
20
162.347130
11
146.568079
21
162.593042
0
LINE
8
annotation
62
1
39
211
10
146.568079
20
162.593042
11
145.817351
21
163.893341
0
LINE
8
annotation
62
1
39
211
10
141.743385
20
161.758380
11
143.433742
21
158.830596
0
LINE
8
annotation
62
1
39
211
10
210.135455
20
156.676047
11
214.479263
21
161.852796
0
LINE
8
annotation
62
1
39
211
10
214.479263
20
161.852796
11
212.362449
21
161.667298
0
LINE
8
annotation
62
1
39
211
10
213.227593
20
154.081434
11
218.722259
21
158.292499
0
LINE
8
annotation
62
1
39
211
10
218.722259
20
158.292499
11
216.420220
21
160.224140
0
LINE
8
annotation
62
1
39
211
10
216.787895
20
155.987213
11
215.637037
21
156.952897
0
LINE
8
annotation
62
1
39
211
10
197.514067
20
220.259059
11
199.826612
21
226.612724
0
LINE
8
annotation
62
1
39
211
10
199.826612
20
226.612724
11
197.899858
21
225.713933
0
LINE
8
annotation
62
1
39
211
10
200.409223
20
220.800643
11
200.409223
21
220.800643
0
LINE
8
annotation
62
1
39
211
10
200.409223
20
220.800643
11
200.339668
21
220.538666
0
LINE
8
annotation
62
1
39
211
10
200.339668
20
220.538666
11
200.318485
21
220.276177
0
LINE
8
annotation
62
1
39
211
10
200.318485
20
220.276177
11
200.343088
21
220.018578
0
LINE
8
annotation
62
1
39
211
10
200.343088
20
220.018578
11
200.410889
21
219.771272
0
LINE
8
annotation
62
1
39
211
10
200.410889
20
219.771272
11
200.519302
21
219.539661
0
LINE
8
annotation
62
1
39
211
10
200.519302
20
219.539661
11
200.665739
21
219.329146
0
LINE
8
annotation
62
1
39
211
10
200.665739
20
219.329146
11
200.847614
21
219.145130
0
LINE
8
annotation
62
1
39
211
10
200.847614
20
219.145130
11
201.062339
21
218.993014
0
LINE
8
annotation
62
1
39
211
10
201.062339
20
218.993014
11
201.307327
21
218.878200
0
LINE
8
annotation
62
1
39
211
10
201.307327
20
218.878200
11
201.307327
21
218.878200
0
LINE
8
annotation
62
1
39
211
10
201.307327
20
218.878200
11
201.568799
21
218.808677
0
LINE
8
annotation
62
1
39
211
10
201.568799
20
218.808677
11
201.831066
21
218.787183
0
LINE
8
annotation
62
1
39
211
10
201.831066
20
218.787183
11
202.088674
21
218.811241
0
LINE
8
annotation
62
1
39
211
10
202.088674
20
218.811241
11
202.336167
21
218.878376
0
LINE
8
annotation
62
1
39
211
10
202.336167
20
218.878376
11
202.568093
21
218.986114
0
LINE
8
annotation
62
1
39
211
10
202.568093
20
218.986114
11
202.778997
21
219.131980
0
LINE
8
annotation
62
1
39
211
10
202.778997
20
219.131980
11
202.963425
21
219.313497
0
LINE
8
annotation
62
1
39
211
10
202.963425
20
219.313497
11
203.115923
21
219.528191
0
LINE
8
annotation
62
1
39
211
10
203.115923
20
219.528191
11
203.231037
21
219.773587
0
LINE
8
annotation
62
1
39
211
10
203.231037
20
219.773587
11
203.486859
21
220.476451
0
LINE
8
annotation
62
1
39
211
10
203.486859
20
220.476451
11
203.486859
21
220.476451
0
LINE
8
annotation
62
1
39
211
10
203.486859
20
220.476451
11
203.556471
21
220.738546
0
LINE
8
annotation
62
1
39
211
10
203.556471
20
220.738546
11
203.577807
21
221.001353
0
LINE
8
annotation
62
1
39
211
10
203.577807
20
221.001353
11
203.553420
21
221.259413
0
LINE
8
annotation
62
1
39
211
10
203.553420
20
221.259413
11
203.485867
21
221.507269
0
LINE
8
annotation
62
1
39
211
10
203.485867
20
221.507269
11
203.377704
21
221.739464
0
LINE
8
annotation
62
1
39
211
10
203.377704
20
221.739464
11
203.231486
21
221.950539
0
LINE
8
annotation
62
1
39
211
10
203.231486
20
221.950539
11
203.049768
21
222.135039
0
LINE
8
annotation
62
1
39
211
10
203.049768
20
222.135039
11
202.835108
21
222.287505
0
LINE
8
annotation
62
1
39
211
10
202.835108
20
222.287505
11
202.590060
21
222.402480
0
LINE
8
annotation
62
1
39
211
10
202.590060
20
222.402480
11
202.590060
21
222.402480
0
LINE
8
annotation
62
1
39
211
10
202.590060
20
222.402480
11
202.328433
21
222.471905
0
LINE
8
annotation
62
1
39
211
10
202.328433
20
222.471905
11
202.065978
21
222.493057
0
LINE
8
annotation
62
1
39
211
10
202.065978
20
222.493057
11
201.808165
21
222.468486
0
LINE
8
annotation
62
1
39
211
10
201.808165
20
222.468486
11
201.560463
21
222.400737
0
LINE
8
annotation
62
1
39
211
10
201.560463
20
222.400737
11
201.328341
21
222.292359
0
LINE
8
annotation
62
1
39
211
10
201.328341
20
222.292359
11
201.117269
21
222.145899
0
LINE
8
annotation
62
1
39
211
10
201.117269
20
222.145899
11
200.932716
21
221.963905
0
LINE
8
annotation
62
1
39
211
10
200.932716
20
221.963905
11
200.780151
21
221.748926
0
LINE
8
annotation
62
1
39
211
10
200.780151
20
221.748926
11
200.665044
21
221.503507
0
LINE
8
annotation
62
1
39
211
10
200.665044
20
221.503507
11
200.409223
21
220.800643
0
LINE
8
annotation
62
1
39
211
10
204.515220
20
223.301851
11
204.515220
21
223.301851
0
LINE
8
annotation
62
1
39
211
10
204.515220
20
223.301851
11
204.584406
21
223.562775
0
LINE
8
annotation
62
1
39
211
10
204.584406
20
223.562775
11
204.605419
21
223.824694
0
LINE
8
annotation
62
1
39
211
10
204.605419
20
223.824694
11
204.580799
21
224.082113
0
LINE
8
annotation
62
1
39
211
10
204.580799
20
224.082113
11
204.513088
21
224.329534
0
LINE
8
annotation
62
1
39
211
10
204.513088
20
224.329534
11
204.404827
21
224.561462
0
LINE
8
annotation
62
1
39
211
10
204.404827
20
224.561462
11
204.258558
21
224.772398
0
LINE
8
annotation
62
1
39
211
10
204.258558
20
224.772398
11
204.076823
21
224.956847
0
LINE
8
annotation
62
1
39
211
10
204.076823
20
224.956847
11
203.862161
21
225.109311
0
LINE
8
annotation
62
1
39
211
10
203.862161
20
225.109311
11
203.617116
21
225.224294
0
LINE
8
annotation
62
1
39
211
10
203.617116
20
225.224294
11
203.617116
21
225.224294
0
LINE
8
annotation
62
1
39
211
10
203.617116
20
225.224294
11
203.355491
21
225.293724
0
LINE
8
annotation
62
1
39
211
10
203.355491
20
225.293724
11
203.093049
21
225.314911
0
LINE
8
annotation
62
1
39
211
10
203.093049
20
225.314911
11
202.835270
21
225.290433
0
LINE
8
annotation
62
1
39
211
10
202.835270
20
225.290433
11
202.587634
21
225.222866
0
LINE
8
annotation
62
1
39
211
10
202.587634
20
225.222866
11
202.355621
21
225.114788
0
LINE
8
annotation
62
1
39
211
10
202.355621
20
225.114788
11
202.144712
21
224.968776
0
LINE
8
annotation
62
1
39
211
10
202.144712
20
224.968776
11
201.960387
21
224.787407
0
LINE
8
annotation
62
1
39
211
10
201.960387
20
224.787407
11
201.808124
21
224.573259
0
LINE
8
annotation
62
1
39
211
10
201.808124
20
224.573259
11
201.693406
21
224.328907
0
LINE
8
annotation
62
1
39
211
10
201.693406
20
224.328907
11
201.693406
21
224.328907
0
LINE
8
annotation
62
1
39
211
10
201.693406
20
224.328907
11
201.623801
21
224.066793
0
LINE
8
annotation
62
1
39
211
10
201.623801
20
224.066793
11
201.602485
21
223.803938
0
LINE
8
annotation
62
1
39
211
10
201.602485
20
223.803938
11
201.626895
21
223.545809
0
LINE
8
annotation
62
1
39
211
10
201.626895
20
223.545809
11
201.694468
21
223.297875
0
LINE
8
annotation
62
1
39
211
10
201.694468
20
223.297875
11
201.802640
21
223.065602
0
LINE
8
annotation
62
1
39
211
10
201.802640
20
223.065602
11
201.948848
21
222.854459
0
LINE
8
annotation
62
1
39
211
10
201.948848
20
222.854459
11
202.130530
21
222.669912
0
LINE
8
annotation
62
1
39
211
10
202.130530
20
222.669912
11
202.345121
21
222.517430
0
LINE
8
annotation
62
1
39
211
10
202.345121
20
222.517430
11
202.590060
21
222.402480
0
LINE
8
annotation
62
1
39
211
10
202.590060
20
222.402480
11
202.590060
21
222.402480
0
LINE
8
annotation
62
1
39
211
10
202.590060
20
222.402480
11
202.851582
21
222.333094
0
LINE
8
annotation
62
1
39
211
10
202.851582
20
222.333094
11
203.113982
21
222.311965
0
LINE
8
annotation
62
1
39
211
10
203.113982
20
222.311965
11
203.371783
21
222.336553
0
LINE
8
annotation
62
1
39
211
10
203.371783
20
222.336553
11
203.619505
21
222.404317
0
LINE
8
annotation
62
1
39
211
10
203.619505
20
222.404317
11
203.851672
21
222.512717
0
LINE
8
annotation
62
1
39
211
10
203.851672
20
222.512717
11
204.062804
21
222.659211
0
LINE
8
annotation
62
1
39
211
10
204.062804
20
222.659211
11
204.247425
21
222.841258
0
LINE
8
annotation
62
1
39
211
10
204.247425
20
222.841258
11
204.400057
21
223.056319
0
LINE
8
annotation
62
1
39
211
10
204.400057
20
223.056319
11
204.515220
21
223.301851
0
LINE
8
annotation
62
1
39
211
10
132.572173
20
175.807709
11
112.864030
21
175.807709
0
LINE
8
annotation
62
1
39
211
10
112.864030
20
175.807709
11
132.572173
21
211.301954
0
LINE
8
annotation
62
1
39
211
10
132.572173
20
211.301954
11
112.864030
21
211.301954
0
LINE
8
annotation
62
1
39
211
10
165.293500
20
193.554832
11
145.885854
21
193.554832
0
LINE
8
annotation
62
1
39
211
10
198.308646
20
183.698534
11
178.600503
21
183.698534
0
LINE
8
annotation
62
1
39
211
10
178.600503
20
183.698534
11
186.471295
21
211.301954
0
LINE
8
annotation
62
1
39
211
10
192.401100
20
175.807709
11
192.401100
21
191.571552
0
LINE
8
boundary
62
5
39
2
10
338.480057
20
201.845322
11
338.480057
21
153.403673
0
LINE
8
boundary
62
5
39
2
10
338.480057
20
153.403673
11
342.935371
21
152.963573
0
LINE
8
boundary
62
5
39
2
10
342.935371
20
152.963573
11
390.516862
21
152.963573
0
LINE
8
boundary
62
5
39
2
10
390.516862
20
152.963573
11
390.516862
21
148.912573
0
LINE
8
boundary
62
5
39
2
10
390.516862
20
148.912573
11
342.935371
21
148.912573
0
LINE
8
boundary
62
5
39
2
10
342.935371
20
148.912573
11
338.480057
21
148.472473
0
LINE
8
boundary
62
5
39
2
10
338.480057
20
148.472473
11
338.480057
21
93.433911
0
LINE
8
boundary
62
5
39
2
10
338.480057
20
93.433911
11
342.935371
21
92.993811
0
LINE
8
boundary
62
5
39
2
10
342.935371
20
92.993811
11
390.925751
21
92.993811
0
LINE
8
boundary
62
5
39
2
10
390.925751
20
92.993811
11
390.925751
21
88.942811
0
LINE
8
boundary
62
5
39
2
10
390.925751
20
88.942811
11
342.935371
21
88.942811
0
LINE
8
boundary
62
5
39
2
10
342.935371
20
88.942811
11
338.480057
21
88.502711
0
LINE
8
boundary
62
5
39
2
10
338.480057
20
88.502711
11
338.480057
21
39.845168
0
LINE
8
boundary
62
5
39
2
10
338.480057
20
39.845168
11
342.935371
21
39.405069
0
LINE
8
boundary
62
5
39
2
10
342.935371
20
39.405069
11
367.312513
21
39.405069
0
LINE
8
boundary
62
5
39
2
10
367.312513
20
39.405069
11
367.312513
21
35.354069
0
LINE
8
boundary
62
5
39
2
10
367.312513
20
35.354069
11
342.935371
21
35.354069
0
LINE
8
boundary
62
5
39
2
10
342.935371
20
35.354069
11
338.480057
21
34.913968
0
LINE
8
boundary
62
5
39
2
10
338.480057
20
34.913968
11
338.480057
21
6.687500
0
LINE
8
boundary
62
5
39
2
10
338.480057
20
6.687500
11
340.977656
21
7.581921
0
LINE
8
boundary
62
5
39
2
10
340.977656
20
7.581921
11
343.460502
21
8.787091
0
LINE
8
boundary
62
5
39
2
10
343.460502
20
8.787091
11
349.593416
21
10.993778
0
LINE
8
boundary
62
5
39
2
10
349.593416
20
10.993778
11
350.151274
21
11.278125
0
LINE
8
boundary
62
5
39
2
10
350.151274
20
11.278125
11
351.736007
21
12.188948
0
LINE
8
boundary
62
5
39
2
10
351.736007
20
12.188948
11
356.802402
21
14.892576
0
LINE
8
boundary
62
5
39
2
10
356.802402
20
14.892576
11
358.518286
21
15.736095
0
LINE
8
boundary
62
5
39
2
10
358.518286
20
15.736095
11
363.917088
21
18.707706
0
LINE
8
boundary
62
5
39
2
10
363.917088
20
18.707706
11
368.241149
21
20.899452
0
LINE
8
boundary
62
5
39
2
10
368.241149
20
20.899452
11
370.874295
21
22.436033
0
LINE
8
boundary
62
5
39
2
10
370.874295
20
22.436033
11
376.627472
21
25.720401
0
LINE
8
boundary
62
5
39
2
10
376.627472
20
25.720401
11
379.009398
21
26.945215
0
LINE
8
boundary
62
5
39
2
10
379.009398
20
26.945215
11
380.258559
21
27.521029
0
LINE
8
boundary
62
5
39
2
10
380.258559
20
27.521029
11
388.380754
21
32.626615
0
LINE
8
boundary
62
5
39
2
10
388.380754
20
32.626615
11
396.701802
21
37.700632
0
LINE
8
boundary
62
5
39
2
10
396.701802
20
37.700632
11
398.060891
21
38.761960
0
LINE
8
boundary
62
5
39
2
10
398.060891
20
38.761960
11
399.515044
21
40.031447
0
LINE
8
boundary
62
5
39
2
10
399.515044
20
40.031447
11
408.272282
21
46.446705
0
LINE
8
boundary
62
5
39
2
10
408.272282
20
46.446705
11
416.483324
21
53.861593
0
LINE
8
boundary
62
5
39
2
10
416.483324
20
53.861593
11
417.706550
21
55.153175
0
LINE
8
boundary
62
5
39
2
10
417.706550
20
55.153175
11
418.840791
21
56.530969
0
LINE
8
boundary
62
5
39
2
10
418.840791
20
56.530969
11
427.930272
21
66.342628
0
LINE
8
boundary
62
5
39
2
10
427.930272
20
66.342628
11
436.981303
21
77.490480
0
LINE
8
boundary
62
5
39
2
10
436.981303
20
77.490480
11
437.527880
21
78.206917
0
LINE
8
boundary
62
5
39
2
10
437.527880
20
78.206917
11
442.746025
21
89.873875
0
LINE
8
boundary
62
5
39
2
10
442.746025
20
89.873875
11
445.712106
21
99.361062
0
LINE
8
boundary
62
5
39
2
10
445.712106
20
99.361062
11
445.914274
21
101.071701
0
LINE
8
boundary
62
5
39
2
10
445.914274
20
101.071701
11
445.908523
21
104.752985
0
LINE
8
boundary
62
5
39
2
10
445.908523
20
104.752985
11
446.159235
21
112.726061
0
LINE
8
boundary
62
5
39
2
10
446.159235
20
112.726061
11
446.154672
21
116.570024
0
LINE
8
boundary
62
5
39
2
10
446.154672
20
116.570024
11
444.726319
21
124.276419
0
LINE
8
boundary
62
5
39
2
10
444.726319
20
124.276419
11
442.748434
21
132.976173
0
LINE
8
boundary
62
5
39
2
10
442.748434
20
132.976173
11
443.099759
21
145.960247
0
LINE
8
boundary
62
5
39
2
10
443.099759
20
145.960247
11
442.558329
21
154.111891
0
LINE
8
boundary
62
5
39
2
10
442.558329
20
154.111891
11
442.697300
21
156.048145
0
LINE
8
boundary
62
5
39
2
10
442.697300
20
156.048145
11
442.914090
21
160.332873
0
LINE
8
boundary
62
5
39
2
10
442.914090
20
160.332873
11
444.566742
21
180.068942
0
LINE
8
boundary
62
5
39
2
10
444.566742
20
180.068942
11
441.662583
21
190.120996
0
LINE
8
boundary
62
5
39
2
10
441.662583
20
190.120996
11
439.525090
21
201.007296
0
LINE
8
boundary
62
5
39
2
10
439.525090
20
201.007296
11
434.666496
21
205.821055
0
LINE
8
boundary
62
5
39
2
10
434.666496
20
205.821055
11
430.208165
21
211.977530
0
LINE
8
boundary
62
5
39
2
10
430.208165
20
211.977530
11
426.956842
21
216.223011
0
LINE
8
boundary
62
5
39
2
10
426.956842
20
216.223011
11
422.554768
21
219.800833
0
LINE
8
boundary
62
5
39
2
10
422.554768
20
219.800833
11
418.236149
21
221.191113
0
LINE
8
boundary
62
5
39
2
10
418.236149
20
221.191113
11
416.590684
21
221.567560
0
LINE
8
boundary
62
5
39
2
10
416.590684
20
221.567560
11
411.286701
21
222.887403
0
LINE
8
boundary
62
5
39
2
10
411.286701
20
222.887403
11
407.749325
21
223.622101
0
LINE
8
boundary
62
5
39
2
10
407.749325
20
223.622101
11
405.586668
21
224.756223
0
LINE
8
boundary
62
5
39
2
10
405.586668
20
224.756223
11
402.856915
21
226.264640
0
LINE
8
boundary
62
5
39
2
10
402.856915
20
226.264640
11
399.276035
21
227.238996
0
LINE
8
boundary
62
5
39
2
10
399.276035
20
227.238996
11
393.441779
21
228.891772
0
LINE
8
boundary
62
5
39
2
10
393.441779
20
228.891772
11
390.739151
21
229.045971
0
LINE
8
boundary
62
5
39
2
10
390.739151
20
229.045971
11
386.389634
21
229.440980
0
LINE
8
boundary
62
5
39
2
10
386.389634
20
229.440980
11
380.319552
21
229.025902
0
LINE
8
boundary
62
5
39
2
10
380.319552
20
229.025902
11
378.435451
21
228.743809
0
LINE
8
boundary
62
5
39
2
10
378.435451
20
228.743809
11
372.232108
21
227.562285
0
LINE
8
boundary
62
5
39
2
10
372.232108
20
227.562285
11
366.193532
21
225.551388
0
LINE
8
boundary
62
5
39
2
10
366.193532
20
225.551388
11
361.726804
21
224.126101
0
LINE
8
boundary
62
5
39
2
10
361.726804
20
224.126101
11
359.068935
21
222.750026
0
LINE
8
boundary
62
5
39
2
10
359.068935
20
222.750026
11
350.735732
21
217.165805
0
LINE
8
boundary
62
5
39
2
10
350.735732
20
217.165805
11
343.856648
21
212.612428
0
LINE
8
boundary
62
5
39
2
10
343.856648
20
212.612428
11
341.921463
21
210.803204
0
LINE
8
boundary
62
5
39
2
10
341.921463
20
210.803204
11
339.796361
21
206.776522
0
LINE
8
boundary
62
5
39
2
10
339.796361
20
206.776522
11
344.251676
21
206.336422
0
LINE
8
boundary
62
5
39
2
10
344.251676
20
206.336422
11
388.182558
21
206.336422
0
LINE
8
boundary
62
5
39
2
10
388.182558
20
206.336422
11
388.182558
21
202.285422
0
LINE
8
boundary
62
5
39
2
10
388.182558
20
202.285422
11
342.935372
21
202.285422
0
LINE
8
boundary
62
5
39
2
10
342.935372
20
202.285422
11
338.480057
21
201.845322
0
LINE
8
annotation
62
1
39
211
10
376.288630
20
33.858769
11
377.854068
21
40.900369
0
LINE
8
annotation
62
1
39
211
10
377.854068
20
40.900369
11
374.722751
21
40.900369
0
LINE
8
annotation
62
1
39
211
10
377.854068
20
37.764635
11
376.288630
21
37.764635
0
LINE
8
annotation
62
1
39
211
10
398.338196
20
89.008754
11
398.338196
21
89.008754
0
LINE
8
annotation
62
1
39
211
10
398.338196
20
89.008754
11
398.363442
21
88.727599
0
LINE
8
annotation
62
1
39
211
10
398.363442
20
88.727599
11
398.436208
21
88.463174
0
LINE
8
annotation
62
1
39
211
10
398.436208
20
88.463174
11
398.552040
21
88.219844
0
LINE
8
annotation
62
1
39
211
10
398.552040
20
88.219844
11
398.706481
21
88.001974
0
LINE
8
annotation
62
1
39
211
10
398.706481
20
88.001974
11
398.895075
21
87.813927
0
LINE
8
annotation
62
1
39
211
10
398.895075
20
87.813927
11
399.113367
21
87.660071
0
LINE
8
annotation
62
1
39
211
10
399.113367
20
87.660071
11
399.356900
21
87.544769
0
LINE
8
annotation
62
1
39
211
10
399.356900
20
87.544769
11
399.621219
21
87.472387
0
LINE
8
annotation
62
1
39
211
10
399.621219
20
87.472387
11
399.901868
21
87.447290
0
LINE
8
annotation
62
1
39
211
10
399.901868
20
87.447290
11
399.901868
21
87.447290
0
LINE
8
annotation
62
1
39
211
10
399.901868
20
87.447290
11
400.182516
21
87.472387
0
LINE
8
annotation
62
1
39
211
10
400.182516
20
87.472387
11
400.446835
21
87.544769
0
LINE
8
annotation
62
1
39
211
10
400.446835
20
87.544769
11
400.690368
21
87.660071
0
LINE
8
annotation
62
1
39
211
10
400.690368
20
87.660071
11
400.908660
21
87.813927
0
LINE
8
annotation
62
1
39
211
10
400.908660
20
87.813927
11
401.097254
21
88.001974
0
LINE
8
annotation
62
1
39
211
10
401.097254
20
88.001974
11
401.251695
21
88.219844
0
LINE
8
annotation
62
1
39
211
10
401.251695
20
88.219844
11
401.367527
21
88.463174
0
LINE
8
annotation
62
1
39
211
10
401.367527
20
88.463174
11
401.440293
21
88.727599
0
LINE
8
annotation
62
1
39
211
10
401.440293
20
88.727599
11
401.465539
21
89.008754
0
LINE
8
annotation
62
1
39
211
10
401.465539
20
89.008754
11
401.465539
21
89.787719
0
LINE
8
annotation
62
1
39
211
10
401.465539
20
89.787719
11
401.465539
21
89.787719
0
LINE
8
annotation
62
1
39
211
10
401.465539
20
89.787719
11
401.440308
21
90.069010
0
LINE
8
annotation
62
1
39
211
10
401.440308
20
90.069010
11
401.367577
21
90.333800
0
LINE
8
annotation
62
1
39
211
10
401.367577
20
90.333800
11
401.251793
21
90.577659
0
LINE
8
annotation
62
1
39
211
10
401.251793
20
90.577659
11
401.097399
21
90.796156
0
LINE
8
annotation
62
1
39
211
10
401.097399
20
90.796156
11
400.908841
21
90.984862
0
LINE
8
annotation
62
1
39
211
10
400.908841
20
90.984862
11
400.690564
21
91.139345
0
LINE
8
annotation
62
1
39
211
10
400.690564
20
91.139345
11
400.447013
21
91.255176
0
LINE
8
annotation
62
1
39
211
10
400.447013
20
91.255176
11
400.182632
21
91.327923
0
LINE
8
annotation
62
1
39
211
10
400.182632
20
91.327923
11
399.901868
21
91.353157
0
LINE
8
annotation
62
1
39
211
10
399.901868
20
91.353157
11
399.901868
21
91.353157
0
LINE
8
annotation
62
1
39
211
10
399.901868
20
91.353157
11
399.621103
21
91.327909
0
LINE
8
annotation
62
1
39
211
10
399.621103
20
91.327909
11
399.356722
21
91.255125
0
LINE
8
annotation
62
1
39
211
10
399.356722
20
91.255125
11
399.113171
21
91.139247
0
LINE
8
annotation
62
1
39
211
10
399.113171
20
91.139247
11
398.894894
21
90.984717
0
LINE
8
annotation
62
1
39
211
10
398.894894
20
90.984717
11
398.706336
21
90.795975
0
LINE
8
annotation
62
1
39
211
10
398.706336
20
90.795975
11
398.551942
21
90.577462
0
LINE
8
annotation
62
1
39
211
10
398.551942
20
90.577462
11
398.436158
21
90.333622
0
LINE
8
annotation
62
1
39
211
10
398.436158
20
90.333622
11
398.363427
21
90.068893
0
LINE
8
annotation
62
1
39
211
10
398.363427
20
90.068893
11
398.338196
21
89.787719
0
LINE
8
annotation
62
1
39
211
10
398.338196
20
89.787719
11
398.338196
21
89.008754
0
LINE
8
annotation
62
1
39
211
10
401.465539
20
92.919036
11
401.465539
21
92.919036
0
LINE
8
annotation
62
1
39
211
10
401.465539
20
92.919036
11
401.440308
21
93.199028
0
LINE
8
annotation
62
1
39
211
10
401.440308
20
93.199028
11
401.367577
21
93.462834
0
LINE
8
annotation
62
1
39
211
10
401.367577
20
93.462834
11
401.251793
21
93.705983
0
LINE
8
annotation
62
1
39
211
10
401.251793
20
93.705983
11
401.097399
21
93.923999
0
LINE
8
annotation
62
1
39
211
10
401.097399
20
93.923999
11
400.908841
21
94.112408
0
LINE
8
annotation
62
1
39
211
10
400.908841
20
94.112408
11
400.690564
21
94.266737
0
LINE
8
annotation
62
1
39
211
10
400.690564
20
94.266737
11
400.447013
21
94.382512
0
LINE
8
annotation
62
1
39
211
10
400.447013
20
94.382512
11
400.182632
21
94.455257
0
LINE
8
annotation
62
1
39
211
10
400.182632
20
94.455257
11
399.901868
21
94.480500
0
LINE
8
annotation
62
1
39
211
10
399.901868
20
94.480500
11
399.901868
21
94.480500
0
LINE
8
annotation
62
1
39
211
10
399.901868
20
94.480500
11
399.621103
21
94.455257
0
LINE
8
annotation
62
1
39
211
10
399.621103
20
94.455257
11
399.356722
21
94.382512
0
LINE
8
annotation
62
1
39
211
10
399.356722
20
94.382512
11
399.113171
21
94.266737
0
LINE
8
annotation
62
1
39
211
10
399.113171
20
94.266737
11
398.894894
21
94.112408
0
LINE
8
annotation
62
1
39
211
10
398.894894
20
94.112408
11
398.706336
21
93.923999
0
LINE
8
annotation
62
1
39
211
10
398.706336
20
93.923999
11
398.551942
21
93.705983
0
LINE
8
annotation
62
1
39
211
10
398.551942
20
93.705983
11
398.436158
21
93.462834
0
LINE
8
annotation
62
1
39
211
10
398.436158
20
93.462834
11
398.363427
21
93.199028
0
LINE
8
annotation
62
1
39
211
10
398.363427
20
93.199028
11
398.338196
21
92.919036
0
LINE
8
annotation
62
1
39
211
10
398.338196
20
92.919036
11
398.338196
21
92.919036
0
LINE
8
annotation
62
1
39
211
10
398.338196
20
92.919036
11
398.363442
21
92.637730
0
LINE
8
annotation
62
1
39
211
10
398.363442
20
92.637730
11
398.436208
21
92.372900
0
LINE
8
annotation
62
1
39
211
10
398.436208
20
92.372900
11
398.552040
21
92.128982
0
LINE
8
annotation
62
1
39
211
10
398.552040
20
92.128982
11
398.706481
21
91.910415
0
LINE
8
annotation
62
1
39
211
10
398.706481
20
91.910415
11
398.895075
21
91.721636
0
LINE
8
annotation
62
1
39
211
10
398.895075
20
91.721636
11
399.113367
21
91.567083
0
LINE
8
annotation
62
1
39
211
10
399.113367
20
91.567083
11
399.356900
21
91.451193
0
LINE
8
annotation
62
1
39
211
10
399.356900
20
91.451193
11
399.621219
21
91.378406
0
LINE
8
annotation
62
1
39
211
10
399.621219
20
91.378406
11
399.901868
21
91.353157
0
LINE
8
annotation
62
1
39
211
10
399.901868
20
91.353157
11
399.901868
21
91.353157
0
LINE
8
annotation
62
1
39
211
10
399.901868
20
91.353157
11
400.182516
21
91.378406
0
LINE
8
annotation
62
1
39
211
10
400.182516
20
91.378406
11
400.446835
21
91.451193
0
LINE
8
annotation
62
1
39
211
10
400.446835
20
91.451193
11
400.690368
21
91.567083
0
LINE
8
annotation
62
1
39
211
10
400.690368
20
91.567083
11
400.908660
21
91.721636
0
LINE
8
annotation
62
1
39
211
10
400.908660
20
91.721636
11
401.097254
21
91.910415
0
LINE
8
annotation
62
1
39
211
10
401.097254
20
91.910415
11
401.251695
21
92.128982
0
LINE
8
annotation
62
1
39
211
10
401.251695
20
92.128982
11
401.367527
21
92.372900
0
LINE
8
annotation
62
1
39
211
10
401.367527
20
92.372900
11
401.440293
21
92.637730
0
LINE
8
annotation
62
1
39
211
10
401.440293
20
92.637730
11
401.465539
21
92.919036
0
LINE
8
annotation
62
1
39
211
10
398.710039
20
147.417273
11
398.710039
21
147.417273
0
LINE
8
annotation
62
1
39
211
10
398.710039
20
147.417273
11
399.157203
21
147.583908
0
LINE
8
annotation
62
1
39
211
10
399.157203
20
147.583908
11
399.567644
21
147.809146
0
LINE
8
annotation
62
1
39
211
10
399.567644
20
147.809146
11
399.937120
21
148.087247
0
LINE
8
annotation
62
1
39
211
10
399.937120
20
148.087247
11
400.261391
21
148.412473
0
LINE
8
annotation
62
1
39
211
10
400.261391
20
148.412473
11
400.536215
21
148.779085
0
LINE
8
annotation
62
1
39
211
10
400.536215
20
148.779085
11
400.757350
21
149.181344
0
LINE
8
annotation
62
1
39
211
10
400.757350
20
149.181344
11
400.920555
21
149.613512
0
LINE
8
annotation
62
1
39
211
10
400.920555
20
149.613512
11
401.021588
21
150.069848
0
LINE
8
annotation
62
1
39
211
10
401.021588
20
150.069848
11
401.056208
21
150.544616
0
LINE
8
annotation
62
1
39
211
10
401.056208
20
150.544616
11
401.056208
21
152.892993
0
LINE
8
annotation
62
1
39
211
10
401.056208
20
152.892993
11
401.056208
21
152.892993
0
LINE
8
annotation
62
1
39
211
10
401.056208
20
152.892993
11
401.031035
21
153.174299
0
LINE
8
annotation
62
1
39
211
10
401.031035
20
153.174299
11
400.958450
21
153.439130
0
LINE
8
annotation
62
1
39
211
10
400.958450
20
153.439130
11
400.842855
21
153.683047
0
LINE
8
annotation
62
1
39
211
10
400.842855
20
153.683047
11
400.688650
21
153.901615
0
LINE
8
annotation
62
1
39
211
10
400.688650
20
153.901615
11
400.500238
21
154.090394
0
LINE
8
annotation
62
1
39
211
10
400.500238
20
154.090394
11
400.282019
21
154.244947
0
LINE
8
annotation
62
1
39
211
10
400.282019
20
154.244947
11
400.038395
21
154.360836
0
LINE
8
annotation
62
1
39
211
10
400.038395
20
154.360836
11
399.773767
21
154.433624
0
LINE
8
annotation
62
1
39
211
10
399.773767
20
154.433624
11
399.492537
21
154.458873
0
LINE
8
annotation
62
1
39
211
10
399.492537
20
154.458873
11
399.492537
21
154.458873
0
LINE
8
annotation
62
1
39
211
10
399.492537
20
154.458873
11
399.211888
21
154.433624
0
LINE
8
annotation
62
1
39
211
10
399.211888
20
154.433624
11
398.947570
21
154.360836
0
LINE
8
annotation
62
1
39
211
10
398.947570
20
154.360836
11
398.704036
21
154.244947
0
LINE
8
annotation
62
1
39
211
10
398.704036
20
154.244947
11
398.485745
21
154.090394
0
LINE
8
annotation
62
1
39
211
10
398.485745
20
154.090394
11
398.297151
21
153.901615
0
LINE
8
annotation
62
1
39
211
10
398.297151
20
153.901615
11
398.142710
21
153.683047
0
LINE
8
annotation
62
1
39
211
10
398.142710
20
153.683047
11
398.026878
21
153.439130
0
LINE
8
annotation
62
1
39
211
10
398.026878
20
153.439130
11
397.954111
21
153.174299
0
LINE
8
annotation
62
1
39
211
10
397.954111
20
153.174299
11
397.928865
21
152.892993
0
LINE
8
annotation
62
1
39
211
10
397.928865
20
152.892993
11
397.928865
21
152.110054
0
LINE
8
annotation
62
1
39
211
10
397.928865
20
152.110054
11
397.928865
21
152.110054
0
LINE
8
annotation
62
1
39
211
10
397.928865
20
152.110054
11
397.954111
21
151.828763
0
LINE
8
annotation
62
1
39
211
10
397.954111
20
151.828763
11
398.026878
21
151.563973
0
LINE
8
annotation
62
1
39
211
10
398.026878
20
151.563973
11
398.142710
21
151.320114
0
LINE
8
annotation
62
1
39
211
10
398.142710
20
151.320114
11
398.297151
21
151.101616
0
LINE
8
annotation
62
1
39
211
10
398.297151
20
151.101616
11
398.485745
21
150.912911
0
LINE
8
annotation
62
1
39
211
10
398.485745
20
150.912911
11
398.704036
21
150.758427
0
LINE
8
annotation
62
1
39
211
10
398.704036
20
150.758427
11
398.947570
21
150.642597
0
LINE
8
annotation
62
1
39
211
10
398.947570
20
150.642597
11
399.211888
21
150.569849
0
LINE
8
annotation
62
1
39
211
10
399.211888
20
150.569849
11
399.492537
21
150.544616
0
LINE
8
annotation
62
1
39
211
10
399.492537
20
150.544616
11
401.056208
21
150.544616
0
LINE
8
annotation
62
1
39
211
10
397.733462
20
146.537073
11
401.254262
21
146.537073
0
LINE
8
annotation
62
1
39
211
10
395.144111
20
200.923825
11
395.144111
21
207.698020
0
LINE
8
annotation
62
1
39
211
10
395.144111
20
207.698020
11
393.638121
21
206.191605
0
LINE
8
annotation
62
1
39
211
10
398.772338
20
201.013179
11
398.772338
21
201.013179
0
LINE
8
annotation
62
1
39
211
10
398.772338
20
201.013179
11
398.929779
21
200.954323
0
LINE
8
annotation
62
1
39
211
10
398.929779
20
200.954323
11
399.091247
21
200.925083
0
LINE
8
annotation
62
1
39
211
10
399.091247
20
200.925083
11
399.253094
21
200.924265
0
LINE
8
annotation
62
1
39
211
10
399.253094
20
200.924265
11
399.411667
21
200.950678
0
LINE
8
annotation
62
1
39
211
10
399.411667
20
200.950678
11
399.563318
21
201.003129
0
LINE
8
annotation
62
1
39
211
10
399.563318
20
201.003129
11
399.704395
21
201.080426
0
LINE
8
annotation
62
1
39
211
10
399.704395
20
201.080426
11
399.831249
21
201.181377
0
LINE
8
annotation
62
1
39
211
10
399.831249
20
201.181377
11
399.940228
21
201.304789
0
LINE
8
annotation
62
1
39
211
10
399.940228
20
201.304789
11
400.027684
21
201.449470
0
LINE
8
annotation
62
1
39
211
10
400.027684
20
201.449470
11
400.027684
21
201.449470
0
LINE
8
annotation
62
1
39
211
10
400.027684
20
201.449470
11
400.288618
21
202.060251
0
LINE
8
annotation
62
1
39
211
10
400.288618
20
202.060251
11
400.484319
21
202.688711
0
LINE
8
annotation
62
1
39
211
10
400.484319
20
202.688711
11
400.614786
21
203.329838
0
LINE
8
annotation
62
1
39
211
10
400.614786
20
203.329838
11
400.680020
21
203.978622
0
LINE
8
annotation
62
1
39
211
10
400.680020
20
203.978622
11
400.680020
21
204.630053
0
LINE
8
annotation
62
1
39
211
10
400.680020
20
204.630053
11
400.614786
21
205.279121
0
LINE
8
annotation
62
1
39
211
10
400.614786
20
205.279121
11
400.484319
21
205.920814
0
LINE
8
annotation
62
1
39
211
10
400.484319
20
205.920814
11
400.288618
21
206.550123
0
LINE
8
annotation
62
1
39
211
10
400.288618
20
206.550123
11
400.027684
21
207.162037
0
LINE
8
annotation
62
1
39
211
10
400.027684
20
207.162037
11
400.027684
21
207.162037
0
LINE
8
annotation
62
1
39
211
10
400.027684
20
207.162037
11
399.994501
21
207.223792
0
LINE
8
annotation
62
1
39
211
10
399.994501
20
207.223792
11
399.956880
21
207.282834
0
LINE
8
annotation
62
1
39
211
10
399.956880
20
207.282834
11
399.915106
21
207.338873
0
LINE
8
annotation
62
1
39
211
10
399.915106
20
207.338873
11
399.869462
21
207.391618
0
LINE
8
annotation
62
1
39
211
10
399.869462
20
207.391618
11
399.820230
21
207.440779
0
LINE
8
annotation
62
1
39
211
10
399.820230
20
207.440779
11
399.767693
21
207.486066
0
LINE
8
annotation
62
1
39
211
10
399.767693
20
207.486066
11
399.712136
21
207.527188
0
LINE
8
annotation
62
1
39
211
10
399.712136
20
207.527188
11
399.653841
21
207.563856
0
LINE
8
annotation
62
1
39
211
10
399.653841
20
207.563856
11
399.593092
21
207.595779
0
LINE
8
annotation
62
1
39
211
10
399.593092
20
207.595779
11
399.593092
21
207.595779
0
LINE
8
annotation
62
1
39
211
10
399.593092
20
207.595779
11
399.434401
21
207.655911
0
LINE
8
annotation
62
1
39
211
10
399.434401
20
207.655911
11
399.271987
21
207.686150
0
LINE
8
annotation
62
1
39
211
10
399.271987
20
207.686150
11
399.109457
21
207.687698
0
LINE
8
annotation
62
1
39
211
10
399.109457
20
207.687698
11
398.950420
21
207.661753
0
LINE
8
annotation
62
1
39
211
10
398.950420
20
207.661753
11
398.798484
21
207.609515
0
LINE
8
annotation
62
1
39
211
10
398.798484
20
207.609515
11
398.657259
21
207.532182
0
LINE
8
annotation
62
1
39
211
10
398.657259
20
207.532182
11
398.530351
21
207.430955
0
LINE
8
annotation
62
1
39
211
10
398.530351
20
207.430955
11
398.421369
21
207.307032
0
LINE
8
annotation
62
1
39
211
10
398.421369
20
207.307032
11
398.333923
21
207.161612
0
LINE
8
annotation
62
1
39
211
10
398.333923
20
207.161612
11
398.333923
21
207.161612
0
LINE
8
annotation
62
1
39
211
10
398.333923
20
207.161612
11
398.074247
21
206.550957
0
LINE
8
annotation
62
1
39
211
10
398.074247
20
206.550957
11
397.879490
21
205.922592
0
LINE
8
annotation
62
1
39
211
10
397.879490
20
205.922592
11
397.749652
21
205.281528
0
LINE
8
annotation
62
1
39
211
10
397.749652
20
205.281528
11
397.684733
21
204.632775
0
LINE
8
annotation
62
1
39
211
10
397.684733
20
204.632775
11
397.684733
21
203.981344
0
LINE
8
annotation
62
1
39
211
10
397.684733
20
203.981344
11
397.749652
21
203.332245
0
LINE
8
annotation
62
1
39
211
10
397.749652
20
203.332245
11
397.879490
21
202.690489
0
LINE
8
annotation
62
1
39
211
10
397.879490
20
202.690489
11
398.074247
21
202.061085
0
LINE
8
annotation
62
1
39
211
10
398.074247
20
202.061085
11
398.333923
21
201.449045
0
LINE
8
annotation
62
1
39
211
10
398.333923
20
201.449045
11
398.333923
21
201.449045
0
LINE
8
annotation
62
1
39
211
10
398.333923
20
201.449045
11
398.366985
21
201.387413
0
LINE
8
annotation
62
1
39
211
10
398.366985
20
201.387413
11
398.404328
21
201.328665
0
LINE
8
annotation
62
1
39
211
10
398.404328
20
201.328665
11
398.445792
21
201.272980
0
LINE
8
annotation
62
1
39
211
10
398.445792
20
201.272980
11
398.491222
21
201.220537
0
LINE
8
annotation
62
1
39
211
10
398.491222
20
201.220537
11
398.540459
21
201.171513
0
LINE
8
annotation
62
1
39
211
10
398.540459
20
201.171513
11
398.593347
21
201.126087
0
LINE
8
annotation
62
1
39
211
10
398.593347
20
201.126087
11
398.649727
21
201.084437
0
LINE
8
annotation
62
1
39
211
10
398.649727
20
201.084437
11
398.709443
21
201.046741
0
LINE
8
annotation
62
1
39
211
10
398.709443
20
201.046741
11
398.772338
21
201.013179
0
LINE
8
annotation
62
1
39
211
10
374.579250
20
189.277073
11
366.554975
21
177.670694
0
LINE
8
annotation
62
1
39
211
10
366.554975
20
177.670694
11
358.529191
21
189.277073
0
LINE
8
annotation
62
1
39
211
10
366.554975
20
178.604696
11
366.554975
21
165.214810
0
LINE
8
annotation
62
1
39
211
10
396.761059
20
177.245941
11
383.605051
21
177.245941
0
LINE
8
annotation
62
1
39
211
10
419.141287
20
170.564578
11
405.781578
21
170.564578
0
LINE
8
annotation
62
1
39
211
10
405.781578
20
170.564578
11
411.117012
21
189.276318
0
LINE
8
annotation
62
1
39
211
10
415.136694
20
165.215564
11
415.136694
21
175.901521
0
LINE
8
frame
62
5
39
2
10
0.000000
20
0.000000
11
480.000000
21
0.000000
0
LINE
8
frame
62
5
39
2
10
480.000000
20
0.000000
11
480.000000
21
420.000000
0
LINE
8
frame
62
5
39
2
10
480.000000
20
420.000000
11
0.000000
21
420.000000
0
LINE
8
frame
62
5
39
2
10
0.000000
20
420.000000
11
0.000000
21
0.000000
0
ENDSEC
0
EOF
