0
SECTION
2
HEADER
9
$ACADVER
1
AC1009
0
ENDSEC
0
SECTION
2
TABLES
0
TABLE
2
VPORT
70
1
0
VPORT
2
ACTIVE
70
0
10
0.0
20
0.0
11
0.0
21
0.0
12
0.0
22
0.0
13
0.0
23
0.0
14
0.0
24
0.0
15
0.0
25
0.0
16
0.0
26
0.0
36
0.0
17
0.0
27
0.0
37
0.0
40
0.0
41
0.0
42
0.0
43
0.0
44
0.0
50
0.0
51
0.0
71
0
72
1000
73
1
74
3
75
0
76
0
77
0
78
0
0
ENDTAB
0
ENDSEC
0
SECTION
2
ENTITIES
0
LINE
8
boundary
62
5
39
2
10
122.506601
20
8.027250
11
126.276219
21
9.375654
0
LINE
8
boundary
62
5
39
2
10
126.276219
20
9.375654
11
127.961352
21
11.127349
0
LINE
8
boundary
62
5
39
2
10
127.961352
20
11.127349
11
136.166266
21
17.526670
0
LINE
8
boundary
62
5
39
2
10
136.166266
20
17.526670
11
137.222765
21
19.089324
0
LINE
8
boundary
62
5
39
2
10
137.222765
20
19.089324
11
144.272612
21
26.478957
0
LINE
8
boundary
62
5
39
2
10
144.272612
20
26.478957
11
145.156909
21
28.174786
0
LINE
8
boundary
62
5
39
2
10
145.156909
20
28.174786
11
152.620179
21
38.785569
0
LINE
8
boundary
62
5
39
2
10
152.620179
20
38.785569
11
161.421414
21
46.142053
0
LINE
8
boundary
62
5
39
2
10
161.421414
20
46.142053
11
164.432403
21
47.647485
0
LINE
8
boundary
62
5
39
2
10
164.432403
20
47.647485
11
170.934454
21
52.711225
0
LINE
8
boundary
62
5
39
2
10
170.934454
20
52.711225
11
173.424745
21
54.665231
0
LINE
8
boundary
62
5
39
2
10
173.424745
20
54.665231
11
177.991324
21
55.178000
0
LINE
8
boundary
62
5
39
2
10
177.991324
20
55.178000
11
185.431025
21
55.914125
0
LINE
8
boundary
62
5
39
2
10
185.431025
20
55.914125
11
190.654656
21
56.111466
0
LINE
8
boundary
62
5
39
2
10
190.654656
20
56.111466
11
195.323593
21
55.207860
0
LINE
8
boundary
62
5
39
2
10
195.323593
20
55.207860
11
198.880754
21
53.946925
0
LINE
8
boundary
62
5
39
2
10
198.880754
20
53.946925
11
204.983231
21
50.153573
0
LINE
8
boundary
62
5
39
2
10
204.983231
20
50.153573
11
207.844522
21
49.064110
0
LINE
8
boundary
62
5
39
2
10
207.844522
20
49.064110
11
208.925288
21
49.125632
0
LINE
8
boundary
62
5
39
2
10
208.925288
20
49.125632
11
218.600139
21
48.810328
0
LINE
8
boundary
62
5
39
2
10
218.600139
20
48.810328
11
228.886659
21
49.107512
0
LINE
8
boundary
62
5
39
2
10
228.886659
20
49.107512
11
239.635378
21
53.564360
0
LINE
8
boundary
62
5
39
2
10
239.635378
20
53.564360
11
246.642091
21
55.500539
0
LINE
8
boundary
62
5
39
2
10
246.642091
20
55.500539
11
247.451359
21
56.026375
0
LINE
8
boundary
62
5
39
2
10
247.451359
20
56.026375
11
248.635501
21
56.778633
0
LINE
8
boundary
62
5
39
2
10
248.635501
20
56.778633
11
255.901646
21
62.783998
0
LINE
8
boundary
62
5
39
2
10
255.901646
20
62.783998
11
258.374109
21
64.981873
0
LINE
8
boundary
62
5
39
2
10
258.374109
20
64.981873
11
262.178805
21
71.152172
0
LINE
8
boundary
62
5
39
2
10
262.178805
20
71.152172
11
264.776010
21
75.157492
0
LINE
8
boundary
62
5
39
2
10
264.776010
20
75.157492
11
266.133383
21
79.369373
0
LINE
8
boundary
62
5
39
2
10
266.133383
20
79.369373
11
267.790233
21
84.749081
0
LINE
8
boundary
62
5
39
2
10
267.790233
20
84.749081
11
264.094374
21
82.222397
0
LINE
8
boundary
62
5
39
2
10
264.094374
20
82.222397
11
245.913825
21
66.967104
0
LINE
8
boundary
62
5
39
2
10
245.913825
20
66.967104
11
243.309893
21
70.070350
0
LINE
8
boundary
62
5
39
2
10
243.309893
20
70.070350
11
265.275160
21
88.501399
0
LINE
8
boundary
62
5
39
2
10
265.275160
20
88.501399
11
268.405238
21
91.702355
0
LINE
8
boundary
62
5
39
2
10
268.405238
20
91.702355
11
268.647219
21
94.220430
0
LINE
8
boundary
62
5
39
2
10
268.647219
20
94.220430
11
268.298000
21
99.394115
0
LINE
8
boundary
62
5
39
2
10
268.298000
20
99.394115
11
267.401073
21
104.062096
0
LINE
8
boundary
62
5
39
2
10
267.401073
20
104.062096
11
265.106878
21
110.688000
0
LINE
8
boundary
62
5
39
2
10
265.106878
20
110.688000
11
264.543116
21
118.206411
0
LINE
8
boundary
62
5
39
2
10
264.543116
20
118.206411
11
264.397474
21
119.261135
0
LINE
8
boundary
62
5
39
2
10
264.397474
20
119.261135
11
264.446106
21
119.776328
0
LINE
8
boundary
62
5
39
2
10
264.446106
20
119.776328
11
263.749180
21
129.085099
0
LINE
8
boundary
62
5
39
2
10
263.749180
20
129.085099
11
261.140385
21
125.446734
0
LINE
8
boundary
62
5
39
2
10
261.140385
20
125.446734
11
241.403037
21
91.260644
0
LINE
8
boundary
62
5
39
2
10
241.403037
20
91.260644
11
237.894768
21
93.286144
0
LINE
8
boundary
62
5
39
2
10
237.894768
20
93.286144
11
261.795536
21
134.683488
0
LINE
8
boundary
62
5
39
2
10
261.795536
20
134.683488
11
263.642055
21
138.761953
0
LINE
8
boundary
62
5
39
2
10
263.642055
20
138.761953
11
263.700615
21
140.623281
0
LINE
8
boundary
62
5
39
2
10
263.700615
20
140.623281
11
263.997862
21
142.185955
0
LINE
8
boundary
62
5
39
2
10
263.997862
20
142.185955
11
263.610014
21
148.531474
0
LINE
8
boundary
62
5
39
2
10
263.610014
20
148.531474
11
263.457142
21
152.260051
0
LINE
8
boundary
62
5
39
2
10
263.457142
20
152.260051
11
263.279090
21
157.058379
0
LINE
8
boundary
62
5
39
2
10
263.279090
20
157.058379
11
264.013663
21
161.869970
0
LINE
8
boundary
62
5
39
2
10
264.013663
20
161.869970
11
263.693568
21
166.048815
0
LINE
8
boundary
62
5
39
2
10
263.693568
20
166.048815
11
264.088728
21
170.407024
0
LINE
8
boundary
62
5
39
2
10
264.088728
20
170.407024
11
264.345651
21
174.156913
0
LINE
8
boundary
62
5
39
2
10
264.345651
20
174.156913
11
264.995652
21
176.205881
0
LINE
8
boundary
62
5
39
2
10
264.995652
20
176.205881
11
265.414673
21
180.185807
0
LINE
8
boundary
62
5
39
2
10
265.414673
20
180.185807
11
264.063522
21
185.054758
0
LINE
8
boundary
62
5
39
2
10
264.063522
20
185.054758
11
263.873579
21
186.564097
0
LINE
8
boundary
62
5
39
2
10
263.873579
20
186.564097
11
265.185106
21
190.841293
0
LINE
8
boundary
62
5
39
2
10
265.185106
20
190.841293
11
266.371960
21
192.800746
0
LINE
8
boundary
62
5
39
2
10
266.371960
20
192.800746
11
266.987453
21
194.165249
0
LINE
8
boundary
62
5
39
2
10
266.987453
20
194.165249
11
268.358069
21
197.841388
0
LINE
8
boundary
62
5
39
2
10
268.358069
20
197.841388
11
270.251358
21
201.226593
0
LINE
8
boundary
62
5
39
2
10
270.251358
20
201.226593
11
270.731749
21
201.643916
0
LINE
8
boundary
62
5
39
2
10
270.731749
20
201.643916
11
275.335465
21
206.239480
0
LINE
8
boundary
62
5
39
2
10
275.335465
20
206.239480
11
277.706792
21
207.393683
0
LINE
8
boundary
62
5
39
2
10
277.706792
20
207.393683
11
279.416776
21
210.642672
0
LINE
8
boundary
62
5
39
2
10
279.416776
20
210.642672
11
283.814687
21
213.963085
0
LINE
8
boundary
62
5
39
2
10
283.814687
20
213.963085
11
284.638784
21
214.464700
0
LINE
8
boundary
62
5
39
2
10
284.638784
20
214.464700
11
285.291270
21
214.713989
0
LINE
8
boundary
62
5
39
2
10
285.291270
20
214.713989
11
288.907061
21
218.763299
0
LINE
8
boundary
62
5
39
2
10
288.907061
20
218.763299
11
292.062068
21
220.677309
0
LINE
8
boundary
62
5
39
2
10
292.062068
20
220.677309
11
293.848938
21
224.700504
0
LINE
8
boundary
62
5
39
2
10
293.848938
20
224.700504
11
298.307228
21
229.705261
0
LINE
8
boundary
62
5
39
2
10
298.307228
20
229.705261
11
295.952167
21
241.309670
0
LINE
8
boundary
62
5
39
2
10
295.952167
20
241.309670
11
295.277486
21
244.251073
0
LINE
8
boundary
62
5
39
2
10
295.277486
20
244.251073
11
295.209088
21
246.952793
0
LINE
8
boundary
62
5
39
2
10
295.209088
20
246.952793
11
295.338122
21
247.566803
0
LINE
8
boundary
62
5
39
2
10
295.338122
20
247.566803
11
295.146847
21
248.229621
0
LINE
8
boundary
62
5
39
2
10
295.146847
20
248.229621
11
290.912123
21
251.571729
0
LINE
8
boundary
62
5
39
2
10
290.912123
20
251.571729
11
282.855962
21
253.822991
0
LINE
8
boundary
62
5
39
2
10
282.855962
20
253.822991
11
282.070005
21
253.989667
0
LINE
8
boundary
62
5
39
2
10
282.070005
20
253.989667
11
281.531023
21
254.008862
0
LINE
8
boundary
62
5
39
2
10
281.531023
20
254.008862
11
273.684414
21
255.413788
0
LINE
8
boundary
62
5
39
2
10
273.684414
20
255.413788
11
268.541287
21
255.370392
0
LINE
8
boundary
62
5
39
2
10
268.541287
20
255.370392
11
262.127193
21
255.797814
0
LINE
8
boundary
62
5
39
2
10
262.127193
20
255.797814
11
254.157282
21
255.931811
0
LINE
8
boundary
62
5
39
2
10
254.157282
20
255.931811
11
249.941873
21
255.557339
0
LINE
8
boundary
62
5
39
2
10
249.941873
20
255.557339
11
249.220454
21
255.521840
0
LINE
8
boundary
62
5
39
2
10
249.220454
20
255.521840
11
248.013383
21
251.210634
0
LINE
8
boundary
62
5
39
2
10
248.013383
20
251.210634
11
230.687526
21
152.950818
0
LINE
8
boundary
62
5
39
2
10
230.687526
20
152.950818
11
226.698070
21
153.654266
0
LINE
8
boundary
62
5
39
2
10
226.698070
20
153.654266
11
243.829112
21
250.809238
0
LINE
8
boundary
62
5
39
2
10
243.829112
20
250.809238
11
244.169356
21
255.273288
0
LINE
8
boundary
62
5
39
2
10
244.169356
20
255.273288
11
239.262847
21
255.031851
0
LINE
8
boundary
62
5
39
2
10
239.262847
20
255.031851
11
233.862452
21
254.645298
0
LINE
8
boundary
62
5
39
2
10
233.862452
20
254.645298
11
221.922477
21
252.431124
0
LINE
8
boundary
62
5
39
2
10
221.922477
20
252.431124
11
212.531444
21
249.761261
0
LINE
8
boundary
62
5
39
2
10
212.531444
20
249.761261
11
202.526029
21
249.428137
0
LINE
8
boundary
62
5
39
2
10
202.526029
20
249.428137
11
194.768105
21
247.585538
0
LINE
8
boundary
62
5
39
2
10
194.768105
20
247.585538
11
181.889907
21
248.041520
0
LINE
8
boundary
62
5
39
2
10
181.889907
20
248.041520
11
163.650396
21
247.264136
0
LINE
8
boundary
62
5
39
2
10
163.650396
20
247.264136
11
164.203121
21
242.821388
0
LINE
8
boundary
62
5
39
2
10
164.203121
20
242.821388
11
185.282203
21
149.538053
0
LINE
8
boundary
62
5
39
2
10
185.282203
20
149.538053
11
181.330829
21
148.645168
0
LINE
8
boundary
62
5
39
2
10
181.330829
20
148.645168
11
160.054028
21
242.803487
0
LINE
8
boundary
62
5
39
2
10
160.054028
20
242.803487
11
158.642750
21
247.052228
0
LINE
8
boundary
62
5
39
2
10
158.642750
20
247.052228
11
155.164340
21
246.904050
0
LINE
8
boundary
62
5
39
2
10
155.164340
20
246.904050
11
135.139623
21
243.465693
0
LINE
8
boundary
62
5
39
2
10
135.139623
20
243.465693
11
133.390363
21
243.163203
0
LINE
8
boundary
62
5
39
2
10
133.390363
20
243.163203
11
114.137815
21
237.317372
0
LINE
8
boundary
62
5
39
2
10
114.137815
20
237.317372
11
108.981533
21
235.514131
0
LINE
8
boundary
62
5
39
2
10
108.981533
20
235.514131
11
98.121159
21
232.180720
0
LINE
8
boundary
62
5
39
2
10
98.121159
20
232.180720
11
89.622586
21
229.439019
0
LINE
8
boundary
62
5
39
2
10
89.622586
20
229.439019
11
91.642245
21
225.443461
0
LINE
8
boundary
62
5
39
2
10
91.642245
20
225.443461
11
145.005205
21
141.541309
0
LINE
8
boundary
62
5
39
2
10
145.005205
20
141.541309
11
141.586992
21
139.367277
0
LINE
8
boundary
62
5
39
2
10
141.586992
20
139.367277
11
87.520790
21
224.375131
0
LINE
8
boundary
62
5
39
2
10
87.520790
20
224.375131
11
84.758422
21
227.898316
0
LINE
8
boundary
62
5
39
2
10
84.758422
20
227.898316
11
73.524163
21
224.233466
0
LINE
8
boundary
62
5
39
2
10
73.524163
20
224.233466
11
67.784957
21
221.958871
0
LINE
8
boundary
62
5
39
2
10
67.784957
20
221.958871
11
62.560956
21
219.961579
0
LINE
8
boundary
62
5
39
2
10
62.560956
20
219.961579
11
58.312454
21
218.111488
0
LINE
8
boundary
62
5
39
2
10
58.312454
20
218.111488
11
53.401803
21
216.132046
0
LINE
8
boundary
62
5
39
2
10
53.401803
20
216.132046
11
47.968594
21
213.121481
0
LINE
8
boundary
62
5
39
2
10
47.968594
20
213.121481
11
42.161290
21
209.600923
0
LINE
8
boundary
62
5
39
2
10
42.161290
20
209.600923
11
34.102110
21
203.780706
0
LINE
8
boundary
62
5
39
2
10
34.102110
20
203.780706
11
31.328610
21
201.407460
0
LINE
8
boundary
62
5
39
2
10
31.328610
20
201.407460
11
30.449703
21
200.089333
0
LINE
8
boundary
62
5
39
2
10
30.449703
20
200.089333
11
33.482058
21
196.795652
0
LINE
8
boundary
62
5
39
2
10
33.482058
20
196.795652
11
110.733585
21
127.908770
0
LINE
8
boundary
62
5
39
2
10
110.733585
20
127.908770
11
108.037465
21
124.885272
0
LINE
8
boundary
62
5
39
2
10
108.037465
20
124.885272
11
31.305113
21
193.309196
0
LINE
8
boundary
62
5
39
2
10
31.305113
20
193.309196
11
27.686945
21
195.945931
0
LINE
8
boundary
62
5
39
2
10
27.686945
20
195.945931
11
27.247184
21
195.286407
0
LINE
8
boundary
62
5
39
2
10
27.247184
20
195.286407
11
24.625177
21
191.916742
0
LINE
8
boundary
62
5
39
2
10
24.625177
20
191.916742
11
23.791695
21
190.791424
0
LINE
8
boundary
62
5
39
2
10
23.791695
20
190.791424
11
19.448802
21
183.024150
0
LINE
8
boundary
62
5
39
2
10
19.448802
20
183.024150
11
17.328674
21
179.597271
0
LINE
8
boundary
62
5
39
2
10
17.328674
20
179.597271
11
14.983538
21
174.105213
0
LINE
8
boundary
62
5
39
2
10
14.983538
20
174.105213
11
12.186595
21
168.621989
0
LINE
8
boundary
62
5
39
2
10
12.186595
20
168.621989
11
11.199862
21
166.207389
0
LINE
8
boundary
62
5
39
2
10
11.199862
20
166.207389
11
9.221339
21
159.116855
0
LINE
8
boundary
62
5
39
2
10
9.221339
20
159.116855
11
9.164048
21
158.446478
0
LINE
8
boundary
62
5
39
2
10
9.164048
20
158.446478
11
9.685173
21
154.414807
0
LINE
8
boundary
62
5
39
2
10
9.685173
20
154.414807
11
9.216846
21
150.219168
0
LINE
8
boundary
62
5
39
2
10
9.216846
20
150.219168
11
8.570693
21
148.069869
0
LINE
8
boundary
62
5
39
2
10
8.570693
20
148.069869
11
8.782862
21
138.743605
0
LINE
8
boundary
62
5
39
2
10
8.782862
20
138.743605
11
6.687500
21
128.106718
0
LINE
8
boundary
62
5
39
2
10
6.687500
20
128.106718
11
6.861894
21
125.503647
0
LINE
8
boundary
62
5
39
2
10
6.861894
20
125.503647
11
7.577206
21
120.744736
0
LINE
8
boundary
62
5
39
2
10
7.577206
20
120.744736
11
9.280960
21
116.161267
0
LINE
8
boundary
62
5
39
2
10
9.280960
20
116.161267
11
11.349132
21
113.920201
0
LINE
8
boundary
62
5
39
2
10
11.349132
20
113.920201
11
15.349992
21
111.001000
0
LINE
8
boundary
62
5
39
2
10
15.349992
20
111.001000
11
19.386094
21
109.063634
0
LINE
8
boundary
62
5
39
2
10
19.386094
20
109.063634
11
94.137621
21
81.856304
0
LINE
8
boundary
62
5
39
2
10
94.137621
20
81.856304
11
92.752097
21
78.049609
0
LINE
8
boundary
62
5
39
2
10
92.752097
20
78.049609
11
29.871156
21
100.936399
0
LINE
8
boundary
62
5
39
2
10
29.871156
20
100.936399
11
25.534008
21
102.046648
0
LINE
8
boundary
62
5
39
2
10
25.534008
20
102.046648
11
28.328322
21
99.114495
0
LINE
8
boundary
62
5
39
2
10
28.328322
20
99.114495
11
33.499080
21
95.632920
0
LINE
8
boundary
62
5
39
2
10
33.499080
20
95.632920
11
35.292803
21
91.779531
0
LINE
8
boundary
62
5
39
2
10
35.292803
20
91.779531
11
41.332056
21
82.937420
0
LINE
8
boundary
62
5
39
2
10
41.332056
20
82.937420
11
44.601007
21
70.303701
0
LINE
8
boundary
62
5
39
2
10
44.601007
20
70.303701
11
45.193938
21
68.788216
0
LINE
8
boundary
62
5
39
2
10
45.193938
20
68.788216
11
51.368683
21
60.804795
0
LINE
8
boundary
62
5
39
2
10
51.368683
20
60.804795
11
52.369400
21
59.901007
0
LINE
8
boundary
62
5
39
2
10
52.369400
20
59.901007
11
59.352957
21
53.879863
0
LINE
8
boundary
62
5
39
2
10
59.352957
20
53.879863
11
60.206193
21
52.831460
0
LINE
8
boundary
62
5
39
2
10
60.206193
20
52.831460
11
66.813526
21
45.364819
0
LINE
8
boundary
62
5
39
2
10
66.813526
20
45.364819
11
67.391230
21
44.830043
0
LINE
8
boundary
62
5
39
2
10
67.391230
20
44.830043
11
70.347712
21
42.836847
0
LINE
8
boundary
62
5
39
2
10
70.347712
20
42.836847
11
75.118895
21
41.680000
0
LINE
8
boundary
62
5
39
2
10
75.118895
20
41.680000
11
76.246966
21
40.584558
0
LINE
8
boundary
62
5
39
2
10
76.246966
20
40.584558
11
80.702280
21
40.144458
0
LINE
8
boundary
62
5
39
2
10
80.702280
20
40.144458
11
115.303284
21
40.144458
0
LINE
8
boundary
62
5
39
2
10
115.303284
20
40.144458
11
115.303284
21
36.093458
0
LINE
8
boundary
62
5
39
2
10
115.303284
20
36.093458
11
86.080929
21
36.093458
0
LINE
8
boundary
62
5
39
2
10
86.080929
20
36.093458
11
81.625614
21
35.653358
0
LINE
8
boundary
62
5
39
2
10
81.625614
20
35.653358
11
84.142162
21
33.390415
0
LINE
8
boundary
62
5
39
2
10
84.142162
20
33.390415
11
88.309107
21
30.968281
0
LINE
8
boundary
62
5
39
2
10
88.309107
20
30.968281
11
92.005274
21
27.877421
0
LINE
8
boundary
62
5
39
2
10
92.005274
20
27.877421
11
93.486927
21
26.478329
0
LINE
8
boundary
62
5
39
2
10
93.486927
20
26.478329
11
97.688640
21
22.629572
0
LINE
8
boundary
62
5
39
2
10
97.688640
20
22.629572
11
101.057062
21
18.324113
0
LINE
8
boundary
62
5
39
2
10
101.057062
20
18.324113
11
101.697736
21
16.371435
0
LINE
8
boundary
62
5
39
2
10
101.697736
20
16.371435
11
103.126866
21
14.015161
0
LINE
8
boundary
62
5
39
2
10
103.126866
20
14.015161
11
104.556520
21
11.858825
0
LINE
8
boundary
62
5
39
2
10
104.556520
20
11.858825
11
106.598011
21
10.821727
0
LINE
8
boundary
62
5
39
2
10
106.598011
20
10.821727
11
110.422563
21
7.917183
0
LINE
8
boundary
62
5
39
2
10
110.422563
20
7.917183
11
111.570180
21
7.863326
0
LINE
8
boundary
62
5
39
2
10
111.570180
20
7.863326
11
116.039419
21
7.132544
0
LINE
8
boundary
62
5
39
2
10
116.039419
20
7.132544
11
120.376568
21
8.242792
0
LINE
8
boundary
62
5
39
2
10
120.376568
20
8.242792
11
122.188160
21
8.902158
0
LINE
8
boundary
62
5
39
2
10
122.188160
20
8.902158
11
122.506601
21
8.027250
0
LINE
8
annotation
62
1
39
211
10
238.799544
20
59.045827
11
239.997386
21
60.050935
0
LINE
8
annotation
62
1
39
211
10
239.997386
20
60.050935
11
239.997386
21
60.050935
0
LINE
8
annotation
62
1
39
211
10
239.997386
20
60.050935
11
240.196604
21
60.251032
0
LINE
8
annotation
62
1
39
211
10
240.196604
20
60.251032
11
240.352584
21
60.476830
0
LINE
8
annotation
62
1
39
211
10
240.352584
20
60.476830
11
240.464823
21
60.722081
0
LINE
8
annotation
62
1
39
211
10
240.464823
20
60.722081
11
240.532819
21
60.980536
0
LINE
8
annotation
62
1
39
211
10
240.532819
20
60.980536
11
240.556067
21
61.245947
0
LINE
8
annotation
62
1
39
211
10
240.556067
20
61.245947
11
240.534066
21
61.512067
0
LINE
8
annotation
62
1
39
211
10
240.534066
20
61.512067
11
240.466313
21
61.772647
0
LINE
8
annotation
62
1
39
211
10
240.466313
20
61.772647
11
240.352304
21
62.021439
0
LINE
8
annotation
62
1
39
211
10
240.352304
20
62.021439
11
240.191538
21
62.252194
0
LINE
8
annotation
62
1
39
211
10
240.191538
20
62.252194
11
239.688275
21
62.851961
0
LINE
8
annotation
62
1
39
211
10
239.688275
20
62.851961
11
239.688275
21
62.851961
0
LINE
8
annotation
62
1
39
211
10
239.688275
20
62.851961
11
239.489016
21
63.050266
0
LINE
8
annotation
62
1
39
211
10
239.489016
20
63.050266
11
239.263841
21
63.205697
0
LINE
8
annotation
62
1
39
211
10
239.263841
20
63.205697
11
239.018997
21
63.317656
0
LINE
8
annotation
62
1
39
211
10
239.018997
20
63.317656
11
238.760731
21
63.385545
0
LINE
8
annotation
62
1
39
211
10
238.760731
20
63.385545
11
238.495291
21
63.408766
0
LINE
8
annotation
62
1
39
211
10
238.495291
20
63.408766
11
238.228925
21
63.386720
0
LINE
8
annotation
62
1
39
211
10
238.228925
20
63.386720
11
237.967880
21
63.318810
0
LINE
8
annotation
62
1
39
211
10
237.967880
20
63.318810
11
237.718404
21
63.204437
0
LINE
8
annotation
62
1
39
211
10
237.718404
20
63.204437
11
237.486743
21
63.043003
0
LINE
8
annotation
62
1
39
211
10
237.486743
20
63.043003
11
236.886977
21
62.539739
0
LINE
8
annotation
62
1
39
211
10
236.886977
20
62.539739
11
237.486743
21
63.043003
0
LINE
8
annotation
62
1
39
211
10
237.486743
20
63.043003
11
237.486743
21
63.043003
0
LINE
8
annotation
62
1
39
211
10
237.486743
20
63.043003
11
237.685948
21
63.243116
0
LINE
8
annotation
62
1
39
211
10
237.685948
20
63.243116
11
237.841878
21
63.468974
0
LINE
8
annotation
62
1
39
211
10
237.841878
20
63.468974
11
237.954012
21
63.714349
0
LINE
8
annotation
62
1
39
211
10
237.954012
20
63.714349
11
238.021833
21
63.973012
0
LINE
8
annotation
62
1
39
211
10
238.021833
20
63.973012
11
238.044821
21
64.238734
0
LINE
8
annotation
62
1
39
211
10
238.044821
20
64.238734
11
238.022456
21
64.505287
0
LINE
8
annotation
62
1
39
211
10
238.022456
20
64.505287
11
237.954220
21
64.766442
0
LINE
8
annotation
62
1
39
211
10
237.954220
20
64.766442
11
237.839593
21
65.015971
0
LINE
8
annotation
62
1
39
211
10
237.839593
20
65.015971
11
237.678057
21
65.247645
0
LINE
8
annotation
62
1
39
211
10
237.678057
20
65.247645
11
237.678057
21
65.247645
0
LINE
8
annotation
62
1
39
211
10
237.678057
20
65.247645
11
237.478799
21
65.445950
0
LINE
8
annotation
62
1
39
211
10
237.478799
20
65.445950
11
237.253623
21
65.601381
0
LINE
8
annotation
62
1
39
211
10
237.253623
20
65.601381
11
237.008779
21
65.713340
0
LINE
8
annotation
62
1
39
211
10
237.008779
20
65.713340
11
236.750514
21
65.781229
0
LINE
8
annotation
62
1
39
211
10
236.750514
20
65.781229
11
236.485074
21
65.804450
0
LINE
8
annotation
62
1
39
211
10
236.485074
20
65.804450
11
236.218708
21
65.782404
0
LINE
8
annotation
62
1
39
211
10
236.218708
20
65.782404
11
235.957663
21
65.714494
0
LINE
8
annotation
62
1
39
211
10
235.957663
20
65.714494
11
235.708186
21
65.600121
0
LINE
8
annotation
62
1
39
211
10
235.708186
20
65.600121
11
235.476526
21
65.438687
0
LINE
8
annotation
62
1
39
211
10
235.476526
20
65.438687
11
234.278684
21
64.433578
0
LINE
8
annotation
62
1
39
211
10
237.830814
20
85.213649
11
235.875894
21
81.827627
0
LINE
8
annotation
62
1
39
211
10
235.875894
20
81.827627
11
231.914130
21
85.917975
0
LINE
8
annotation
62
1
39
211
10
238.600533
20
83.415965
11
235.892175
21
84.979636
0
LINE
8
annotation
62
1
39
211
10
230.329587
20
142.309756
11
230.601116
21
143.849672
0
LINE
8
annotation
62
1
39
211
10
230.601116
20
143.849672
11
230.601116
21
143.849672
0
LINE
8
annotation
62
1
39
211
10
230.601116
20
143.849672
11
230.625000
21
144.130439
0
LINE
8
annotation
62
1
39
211
10
230.625000
20
144.130439
11
230.599256
21
144.403375
0
LINE
8
annotation
62
1
39
211
10
230.599256
20
144.403375
11
230.527474
21
144.663322
0
LINE
8
annotation
62
1
39
211
10
230.527474
20
144.663322
11
230.413244
21
144.905123
0
LINE
8
annotation
62
1
39
211
10
230.413244
20
144.905123
11
230.260154
21
145.123620
0
LINE
8
annotation
62
1
39
211
10
230.260154
20
145.123620
11
230.071794
21
145.313656
0
LINE
8
annotation
62
1
39
211
10
230.071794
20
145.313656
11
229.851754
21
145.470074
0
LINE
8
annotation
62
1
39
211
10
229.851754
20
145.470074
11
229.603622
21
145.587716
0
LINE
8
annotation
62
1
39
211
10
229.603622
20
145.587716
11
229.330989
21
145.661423
0
LINE
8
annotation
62
1
39
211
10
229.330989
20
145.661423
11
228.563858
21
145.796689
0
LINE
8
annotation
62
1
39
211
10
228.563858
20
145.796689
11
228.563858
21
145.796689
0
LINE
8
annotation
62
1
39
211
10
228.563858
20
145.796689
11
228.282594
21
145.820663
0
LINE
8
annotation
62
1
39
211
10
228.282594
20
145.820663
11
228.009557
21
145.794955
0
LINE
8
annotation
62
1
39
211
10
228.009557
20
145.794955
11
227.749817
21
145.723183
0
LINE
8
annotation
62
1
39
211
10
227.749817
20
145.723183
11
227.508446
21
145.608968
0
LINE
8
annotation
62
1
39
211
10
227.508446
20
145.608968
11
227.290514
21
145.455929
0
LINE
8
annotation
62
1
39
211
10
227.290514
20
145.455929
11
227.101092
21
145.267685
0
LINE
8
annotation
62
1
39
211
10
227.101092
20
145.267685
11
226.945250
21
145.047855
0
LINE
8
annotation
62
1
39
211
10
226.945250
20
145.047855
11
226.828058
21
144.800060
0
LINE
8
annotation
62
1
39
211
10
226.828058
20
144.800060
11
226.754588
21
144.527919
0
LINE
8
annotation
62
1
39
211
10
226.754588
20
144.527919
11
226.483059
21
142.988003
0
LINE
8
annotation
62
1
39
211
10
226.483059
20
142.988003
11
223.394965
21
143.532517
0
LINE
8
annotation
62
1
39
211
10
223.394965
20
143.532517
11
223.938022
21
146.612349
0
LINE
8
annotation
62
1
39
211
10
181.678073
20
140.324335
11
181.678073
21
140.324335
0
LINE
8
annotation
62
1
39
211
10
181.678073
20
140.324335
11
181.940631
21
139.924418
0
LINE
8
annotation
62
1
39
211
10
181.940631
20
139.924418
11
182.251966
21
139.573351
0
LINE
8
annotation
62
1
39
211
10
182.251966
20
139.573351
11
182.605618
21
139.274000
0
LINE
8
annotation
62
1
39
211
10
182.605618
20
139.274000
11
182.995127
21
139.029230
0
LINE
8
annotation
62
1
39
211
10
182.995127
20
139.029230
11
183.414030
21
138.841909
0
LINE
8
annotation
62
1
39
211
10
183.414030
20
138.841909
11
183.855870
21
138.714903
0
LINE
8
annotation
62
1
39
211
10
183.855870
20
138.714903
11
184.314184
21
138.651076
0
LINE
8
annotation
62
1
39
211
10
184.314184
20
138.651076
11
184.782512
21
138.653297
0
LINE
8
annotation
62
1
39
211
10
184.782512
20
138.653297
11
185.254395
21
138.724431
0
LINE
8
annotation
62
1
39
211
10
185.254395
20
138.724431
11
187.537266
21
139.240287
0
LINE
8
annotation
62
1
39
211
10
187.537266
20
139.240287
11
187.537266
21
139.240287
0
LINE
8
annotation
62
1
39
211
10
187.537266
20
139.240287
11
187.806074
21
139.326912
0
LINE
8
annotation
62
1
39
211
10
187.806074
20
139.326912
11
188.048314
21
139.456252
0
LINE
8
annotation
62
1
39
211
10
188.048314
20
139.456252
11
188.260645
21
139.622984
0
LINE
8
annotation
62
1
39
211
10
188.260645
20
139.622984
11
188.439729
21
139.821786
0
LINE
8
annotation
62
1
39
211
10
188.439729
20
139.821786
11
188.582225
21
140.047335
0
LINE
8
annotation
62
1
39
211
10
188.582225
20
140.047335
11
188.684795
21
140.294308
0
LINE
8
annotation
62
1
39
211
10
188.684795
20
140.294308
11
188.744100
21
140.557382
0
LINE
8
annotation
62
1
39
211
10
188.744100
20
140.557382
11
188.756799
21
140.831235
0
LINE
8
annotation
62
1
39
211
10
188.756799
20
140.831235
11
188.719554
21
141.110543
0
LINE
8
annotation
62
1
39
211
10
188.719554
20
141.110543
11
188.719554
21
141.110543
0
LINE
8
annotation
62
1
39
211
10
188.719554
20
141.110543
11
188.632955
21
141.379296
0
LINE
8
annotation
62
1
39
211
10
188.632955
20
141.379296
11
188.503670
21
141.621381
0
LINE
8
annotation
62
1
39
211
10
188.503670
20
141.621381
11
188.336990
21
141.833483
0
LINE
8
annotation
62
1
39
211
10
188.336990
20
141.833483
11
188.138208
21
142.012286
0
LINE
8
annotation
62
1
39
211
10
188.138208
20
142.012286
11
187.912615
21
142.154472
0
LINE
8
annotation
62
1
39
211
10
187.912615
20
142.154472
11
187.665503
21
142.256725
0
LINE
8
annotation
62
1
39
211
10
187.665503
20
142.256725
11
187.402162
21
142.315728
0
LINE
8
annotation
62
1
39
211
10
187.402162
20
142.315728
11
187.127886
21
142.328165
0
LINE
8
annotation
62
1
39
211
10
187.127886
20
142.328165
11
186.847965
21
142.290720
0
LINE
8
annotation
62
1
39
211
10
186.847965
20
142.290720
11
186.088156
21
142.119027
0
LINE
8
annotation
62
1
39
211
10
186.088156
20
142.119027
11
186.088156
21
142.119027
0
LINE
8
annotation
62
1
39
211
10
186.088156
20
142.119027
11
185.819465
21
142.032504
0
LINE
8
annotation
62
1
39
211
10
185.819465
20
142.032504
11
185.577541
21
141.903422
0
LINE
8
annotation
62
1
39
211
10
185.577541
20
141.903422
11
185.365674
21
141.737036
0
LINE
8
annotation
62
1
39
211
10
185.365674
20
141.737036
11
185.187150
21
141.538603
0
LINE
8
annotation
62
1
39
211
10
185.187150
20
141.538603
11
185.045257
21
141.313376
0
LINE
8
annotation
62
1
39
211
10
185.045257
20
141.313376
11
184.943282
21
141.066612
0
LINE
8
annotation
62
1
39
211
10
184.943282
20
141.066612
11
184.884513
21
140.803566
0
LINE
8
annotation
62
1
39
211
10
184.884513
20
140.803566
11
184.872238
21
140.529492
0
LINE
8
annotation
62
1
39
211
10
184.872238
20
140.529492
11
184.909744
21
140.249647
0
LINE
8
annotation
62
1
39
211
10
184.909744
20
140.249647
11
185.254395
21
138.724431
0
LINE
8
annotation
62
1
39
211
10
189.965925
20
139.588304
11
189.189901
21
143.022517
0
LINE
8
annotation
62
1
39
211
10
151.085053
20
134.768292
11
144.303269
21
132.310216
0
LINE
8
annotation
62
1
39
211
10
144.303269
20
132.310216
11
145.983740
21
129.668026
0
LINE
8
annotation
62
1
39
211
10
146.949185
20
133.993056
11
147.789302
21
132.672148
0
LINE
8
annotation
62
1
39
211
10
118.557476
20
120.843683
11
118.557476
21
120.843683
0
LINE
8
annotation
62
1
39
211
10
118.557476
20
120.843683
11
118.725754
21
121.070327
0
LINE
8
annotation
62
1
39
211
10
118.725754
20
121.070327
11
118.847430
21
121.316112
0
LINE
8
annotation
62
1
39
211
10
118.847430
20
121.316112
11
118.922925
21
121.574815
0
LINE
8
annotation
62
1
39
211
10
118.922925
20
121.574815
11
118.952660
21
121.840212
0
LINE
8
annotation
62
1
39
211
10
118.952660
20
121.840212
11
118.937054
21
122.106079
0
LINE
8
annotation
62
1
39
211
10
118.937054
20
122.106079
11
118.876528
21
122.366194
0
LINE
8
annotation
62
1
39
211
10
118.876528
20
122.366194
11
118.771503
21
122.614333
0
LINE
8
annotation
62
1
39
211
10
118.771503
20
122.614333
11
118.622400
21
122.844271
0
LINE
8
annotation
62
1
39
211
10
118.622400
20
122.844271
11
118.429639
21
123.049787
0
LINE
8
annotation
62
1
39
211
10
118.429639
20
123.049787
11
118.429639
21
123.049787
0
LINE
8
annotation
62
1
39
211
10
118.429639
20
123.049787
11
118.203471
21
123.217839
0
LINE
8
annotation
62
1
39
211
10
118.203471
20
123.217839
11
117.958021
21
123.339732
0
LINE
8
annotation
62
1
39
211
10
117.958021
20
123.339732
11
117.699520
21
123.415758
0
LINE
8
annotation
62
1
39
211
10
117.699520
20
123.415758
11
117.434198
21
123.446209
0
LINE
8
annotation
62
1
39
211
10
117.434198
20
123.446209
11
117.168286
21
123.431377
0
LINE
8
annotation
62
1
39
211
10
117.168286
20
123.431377
11
116.908015
21
123.371554
0
LINE
8
annotation
62
1
39
211
10
116.908015
20
123.371554
11
116.659616
21
123.267034
0
LINE
8
annotation
62
1
39
211
10
116.659616
20
123.267034
11
116.429320
21
123.118108
0
LINE
8
annotation
62
1
39
211
10
116.429320
20
123.118108
11
116.223357
21
122.925068
0
LINE
8
annotation
62
1
39
211
10
116.223357
20
122.925068
11
115.704921
21
122.343681
0
LINE
8
annotation
62
1
39
211
10
115.704921
20
122.343681
11
115.704921
21
122.343681
0
LINE
8
annotation
62
1
39
211
10
115.704921
20
122.343681
11
115.536541
21
122.116945
0
LINE
8
annotation
62
1
39
211
10
115.536541
20
122.116945
11
115.414595
21
121.870911
0
LINE
8
annotation
62
1
39
211
10
115.414595
20
121.870911
11
115.338712
21
121.611845
0
LINE
8
annotation
62
1
39
211
10
115.338712
20
121.611845
11
115.308526
21
121.346012
0
LINE
8
annotation
62
1
39
211
10
115.308526
20
121.346012
11
115.323665
21
121.079676
0
LINE
8
annotation
62
1
39
211
10
115.323665
20
121.079676
11
115.383763
21
120.819103
0
LINE
8
annotation
62
1
39
211
10
115.383763
20
120.819103
11
115.488449
21
120.570558
0
LINE
8
annotation
62
1
39
211
10
115.488449
20
120.570558
11
115.637355
21
120.340305
0
LINE
8
annotation
62
1
39
211
10
115.637355
20
120.340305
11
115.830112
21
120.134610
0
LINE
8
annotation
62
1
39
211
10
115.830112
20
120.134610
11
115.830112
21
120.134610
0
LINE
8
annotation
62
1
39
211
10
115.830112
20
120.134610
11
116.056467
21
119.966593
0
LINE
8
annotation
62
1
39
211
10
116.056467
20
119.966593
11
116.302231
21
119.844959
0
LINE
8
annotation
62
1
39
211
10
116.302231
20
119.844959
11
116.561129
21
119.769351
0
LINE
8
annotation
62
1
39
211
10
116.561129
20
119.769351
11
116.826889
21
119.739413
0
LINE
8
annotation
62
1
39
211
10
116.826889
20
119.739413
11
117.093237
21
119.754789
0
LINE
8
annotation
62
1
39
211
10
117.093237
20
119.754789
11
117.353899
21
119.815121
0
LINE
8
annotation
62
1
39
211
10
117.353899
20
119.815121
11
117.602603
21
119.920054
0
LINE
8
annotation
62
1
39
211
10
117.602603
20
119.920054
11
117.833074
21
120.069231
0
LINE
8
annotation
62
1
39
211
10
117.833074
20
120.069231
11
118.039040
21
120.262296
0
LINE
8
annotation
62
1
39
211
10
118.039040
20
120.262296
11
118.557476
21
120.843683
0
LINE
8
annotation
62
1
39
211
10
113.620891
20
120.006596
11
113.620891
21
120.006596
0
LINE
8
annotation
62
1
39
211
10
113.620891
20
120.006596
11
113.453376
21
119.780829
0
LINE
8
annotation
62
1
39
211
10
113.453376
20
119.780829
11
113.332084
21
119.535529
0
LINE
8
annotation
62
1
39
211
10
113.332084
20
119.535529
11
113.256674
21
119.276994
0
LINE
8
annotation
62
1
39
211
10
113.256674
20
119.276994
11
113.226808
21
119.011520
0
LINE
8
annotation
62
1
39
211
10
113.226808
20
119.011520
11
113.242145
21
118.745405
0
LINE
8
annotation
62
1
39
211
10
113.242145
20
118.745405
11
113.302345
21
118.484948
0
LINE
8
annotation
62
1
39
211
10
113.302345
20
118.484948
11
113.407069
21
118.236444
0
LINE
8
annotation
62
1
39
211
10
113.407069
20
118.236444
11
113.555976
21
118.006193
0
LINE
8
annotation
62
1
39
211
10
113.555976
20
118.006193
11
113.748727
21
117.800492
0
LINE
8
annotation
62
1
39
211
10
113.748727
20
117.800492
11
113.748727
21
117.800492
0
LINE
8
annotation
62
1
39
211
10
113.748727
20
117.800492
11
113.975079
21
117.632470
0
LINE
8
annotation
62
1
39
211
10
113.975079
20
117.632470
11
114.220817
21
117.510808
0
LINE
8
annotation
62
1
39
211
10
114.220817
20
117.510808
11
114.479646
21
117.435122
0
LINE
8
annotation
62
1
39
211
10
114.479646
20
117.435122
11
114.745272
21
117.405034
0
LINE
8
annotation
62
1
39
211
10
114.745272
20
117.405034
11
115.011398
21
117.420161
0
LINE
8
annotation
62
1
39
211
10
115.011398
20
117.420161
11
115.271731
21
117.480124
0
LINE
8
annotation
62
1
39
211
10
115.271731
20
117.480124
11
115.519973
21
117.584540
0
LINE
8
annotation
62
1
39
211
10
115.519973
20
117.584540
11
115.749832
21
117.733029
0
LINE
8
annotation
62
1
39
211
10
115.749832
20
117.733029
11
115.955010
21
117.925211
0
LINE
8
annotation
62
1
39
211
10
115.955010
20
117.925211
11
115.955010
21
117.925211
0
LINE
8
annotation
62
1
39
211
10
115.955010
20
117.925211
11
116.123389
21
118.151968
0
LINE
8
annotation
62
1
39
211
10
116.123389
20
118.151968
11
116.245335
21
118.398056
0
LINE
8
annotation
62
1
39
211
10
116.245335
20
118.398056
11
116.321221
21
118.657197
0
LINE
8
annotation
62
1
39
211
10
116.321221
20
118.657197
11
116.351419
21
118.923114
0
LINE
8
annotation
62
1
39
211
10
116.351419
20
118.923114
11
116.336301
21
119.189528
0
LINE
8
annotation
62
1
39
211
10
116.336301
20
119.189528
11
116.276239
21
119.450163
0
LINE
8
annotation
62
1
39
211
10
116.276239
20
119.450163
11
116.171605
21
119.698740
0
LINE
8
annotation
62
1
39
211
10
116.171605
20
119.698740
11
116.022773
21
119.928982
0
LINE
8
annotation
62
1
39
211
10
116.022773
20
119.928982
11
115.830112
21
120.134610
0
LINE
8
annotation
62
1
39
211
10
115.830112
20
120.134610
11
115.830112
21
120.134610
0
LINE
8
annotation
62
1
39
211
10
115.830112
20
120.134610
11
115.603844
21
120.302550
0
LINE
8
annotation
62
1
39
211
10
115.603844
20
120.302550
11
115.358124
21
120.424140
0
LINE
8
annotation
62
1
39
211
10
115.358124
20
120.424140
11
115.099231
21
120.499727
0
LINE
8
annotation
62
1
39
211
10
115.099231
20
120.499727
11
114.833445
21
120.529658
0
LINE
8
annotation
62
1
39
211
10
114.833445
20
120.529658
11
114.567046
21
120.514279
0
LINE
8
annotation
62
1
39
211
10
114.567046
20
120.514279
11
114.306311
21
120.453936
0
LINE
8
annotation
62
1
39
211
10
114.306311
20
120.453936
11
114.057521
21
120.348977
0
LINE
8
annotation
62
1
39
211
10
114.057521
20
120.348977
11
113.826955
21
120.199748
0
LINE
8
annotation
62
1
39
211
10
113.826955
20
120.199748
11
113.620891
21
120.006596
0
LINE
8
annotation
62
1
39
211
10
103.821216
20
79.923028
11
103.821216
21
79.923028
0
LINE
8
annotation
62
1
39
211
10
103.821216
20
79.923028
11
103.344027
21
79.919381
0
LINE
8
annotation
62
1
39
211
10
103.344027
20
79.919381
11
102.881303
21
79.848106
0
LINE
8
annotation
62
1
39
211
10
102.881303
20
79.848106
11
102.438992
21
79.713144
0
LINE
8
annotation
62
1
39
211
10
102.438992
20
79.713144
11
102.023043
21
79.518439
0
LINE
8
annotation
62
1
39
211
10
102.023043
20
79.518439
11
101.639405
21
79.267932
0
LINE
8
annotation
62
1
39
211
10
101.639405
20
79.267932
11
101.294025
21
78.965564
0
LINE
8
annotation
62
1
39
211
10
101.294025
20
78.965564
11
100.992853
21
78.615279
0
LINE
8
annotation
62
1
39
211
10
100.992853
20
78.615279
11
100.741836
21
78.221018
0
LINE
8
annotation
62
1
39
211
10
100.741836
20
78.221018
11
100.546924
21
77.786724
0
LINE
8
annotation
62
1
39
211
10
100.546924
20
77.786724
11
99.743731
21
75.579971
0
LINE
8
annotation
62
1
39
211
10
99.743731
20
75.579971
11
99.743731
21
75.579971
0
LINE
8
annotation
62
1
39
211
10
99.743731
20
75.579971
11
99.671174
21
75.307020
0
LINE
8
annotation
62
1
39
211
10
99.671174
20
75.307020
11
99.648804
21
75.033335
0
LINE
8
annotation
62
1
39
211
10
99.648804
20
75.033335
11
99.674004
21
74.764592
0
LINE
8
annotation
62
1
39
211
10
99.674004
20
74.764592
11
99.744154
21
74.506464
0
LINE
8
annotation
62
1
39
211
10
99.744154
20
74.506464
11
99.856638
21
74.264629
0
LINE
8
annotation
62
1
39
211
10
99.856638
20
74.264629
11
100.008836
21
74.044762
0
LINE
8
annotation
62
1
39
211
10
100.008836
20
74.044762
11
100.198131
21
73.852537
0
LINE
8
annotation
62
1
39
211
10
100.198131
20
73.852537
11
100.421905
21
73.693631
0
LINE
8
annotation
62
1
39
211
10
100.421905
20
73.693631
11
100.677539
21
73.573718
0
LINE
8
annotation
62
1
39
211
10
100.677539
20
73.573718
11
100.677539
21
73.573718
0
LINE
8
annotation
62
1
39
211
10
100.677539
20
73.573718
11
100.949898
21
73.501457
0
LINE
8
annotation
62
1
39
211
10
100.949898
20
73.501457
11
101.223172
21
73.479453
0
LINE
8
annotation
62
1
39
211
10
101.223172
20
73.479453
11
101.491655
21
73.505060
0
LINE
8
annotation
62
1
39
211
10
101.491655
20
73.505060
11
101.749642
21
73.575632
0
LINE
8
annotation
62
1
39
211
10
101.749642
20
73.575632
11
101.991429
21
73.688523
0
LINE
8
annotation
62
1
39
211
10
101.991429
20
73.688523
11
102.211310
21
73.841087
0
LINE
8
annotation
62
1
39
211
10
102.211310
20
73.841087
11
102.403581
21
74.030678
0
LINE
8
annotation
62
1
39
211
10
102.403581
20
74.030678
11
102.562537
21
74.254650
0
LINE
8
annotation
62
1
39
211
10
102.562537
20
74.254650
11
102.682472
21
74.510357
0
LINE
8
annotation
62
1
39
211
10
102.682472
20
74.510357
11
102.950254
21
75.246079
0
LINE
8
annotation
62
1
39
211
10
102.950254
20
75.246079
11
102.950254
21
75.246079
0
LINE
8
annotation
62
1
39
211
10
102.950254
20
75.246079
11
103.022737
21
75.519041
0
LINE
8
annotation
62
1
39
211
10
103.022737
20
75.519041
11
103.044923
21
75.792750
0
LINE
8
annotation
62
1
39
211
10
103.044923
20
75.792750
11
103.019481
21
76.061519
0
LINE
8
annotation
62
1
39
211
10
103.019481
20
76.061519
11
102.949085
21
76.319661
0
LINE
8
annotation
62
1
39
211
10
102.949085
20
76.319661
11
102.836405
21
76.561490
0
LINE
8
annotation
62
1
39
211
10
102.836405
20
76.561490
11
102.684114
21
76.781317
0
LINE
8
annotation
62
1
39
211
10
102.684114
20
76.781317
11
102.494885
21
76.973455
0
LINE
8
annotation
62
1
39
211
10
102.494885
20
76.973455
11
102.271387
21
77.132217
0
LINE
8
annotation
62
1
39
211
10
102.271387
20
77.132217
11
102.016294
21
77.251917
0
LINE
8
annotation
62
1
39
211
10
102.016294
20
77.251917
11
100.546924
21
77.786724
0
LINE
8
annotation
62
1
39
211
10
105.039945
20
80.416136
11
101.731475
21
81.620321
0
LINE
8
annotation
62
1
39
211
10
126.295731
20
41.506055
11
126.295731
21
34.731860
0
LINE
8
annotation
62
1
39
211
10
126.295731
20
34.731860
11
127.801721
21
36.238275
0
LINE
8
annotation
62
1
39
211
10
122.667504
20
41.416701
11
122.667504
21
41.416701
0
LINE
8
annotation
62
1
39
211
10
122.667504
20
41.416701
11
122.510063
21
41.475557
0
LINE
8
annotation
62
1
39
211
10
122.510063
20
41.475557
11
122.348595
21
41.504797
0
LINE
8
annotation
62
1
39
211
10
122.348595
20
41.504797
11
122.186748
21
41.505615
0
LINE
8
annotation
62
1
39
211
10
122.186748
20
41.505615
11
122.028175
21
41.479202
0
LINE
8
annotation
62
1
39
211
10
122.028175
20
41.479202
11
121.876524
21
41.426751
0
LINE
8
annotation
62
1
39
211
10
121.876524
20
41.426751
11
121.735447
21
41.349454
0
LINE
8
annotation
62
1
39
211
10
121.735447
20
41.349454
11
121.608593
21
41.248503
0
LINE
8
annotation
62
1
39
211
10
121.608593
20
41.248503
11
121.499614
21
41.125091
0
LINE
8
annotation
62
1
39
211
10
121.499614
20
41.125091
11
121.412158
21
40.980410
0
LINE
8
annotation
62
1
39
211
10
121.412158
20
40.980410
11
121.412158
21
40.980410
0
LINE
8
annotation
62
1
39
211
10
121.412158
20
40.980410
11
121.151224
21
40.369629
0
LINE
8
annotation
62
1
39
211
10
121.151224
20
40.369629
11
120.955523
21
39.741170
0
LINE
8
annotation
62
1
39
211
10
120.955523
20
39.741170
11
120.825056
21
39.100042
0
LINE
8
annotation
62
1
39
211
10
120.825056
20
39.100042
11
120.759822
21
38.451258
0
LINE
8
annotation
62
1
39
211
10
120.759822
20
38.451258
11
120.759822
21
37.799827
0
LINE
8
annotation
62
1
39
211
10
120.759822
20
37.799827
11
120.825056
21
37.150759
0
LINE
8
annotation
62
1
39
211
10
120.825056
20
37.150759
11
120.955523
21
36.509066
0
LINE
8
annotation
62
1
39
211
10
120.955523
20
36.509066
11
121.151224
21
35.879757
0
LINE
8
annotation
62
1
39
211
10
121.151224
20
35.879757
11
121.412158
21
35.267843
0
LINE
8
annotation
62
1
39
211
10
121.412158
20
35.267843
11
121.412158
21
35.267843
0
LINE
8
annotation
62
1
39
211
10
121.412158
20
35.267843
11
121.445341
21
35.206088
0
LINE
8
annotation
62
1
39
211
10
121.445341
20
35.206088
11
121.482962
21
35.147046
0
LINE
8
annotation
62
1
39
211
10
121.482962
20
35.147046
11
121.524736
21
35.091007
0
LINE
8
annotation
62
1
39
211
10
121.524736
20
35.091007
11
121.570380
21
35.038262
0
LINE
8
annotation
62
1
39
211
10
121.570380
20
35.038262
11
121.619612
21
34.989101
0
LINE
8
annotation
62
1
39
211
10
121.619612
20
34.989101
11
121.672149
21
34.943815
0
LINE
8
annotation
62
1
39
211
10
121.672149
20
34.943815
11
121.727706
21
34.902692
0
LINE
8
annotation
62
1
39
211
10
121.727706
20
34.902692
11
121.786001
21
34.866024
0
LINE
8
annotation
62
1
39
211
10
121.786001
20
34.866024
11
121.846750
21
34.834101
0
LINE
8
annotation
62
1
39
211
10
121.846750
20
34.834101
11
121.846750
21
34.834101
0
LINE
8
annotation
62
1
39
211
10
121.846750
20
34.834101
11
122.005441
21
34.773970
0
LINE
8
annotation
62
1
39
211
10
122.005441
20
34.773970
11
122.167855
21
34.743730
0
LINE
8
annotation
62
1
39
211
10
122.167855
20
34.743730
11
122.330385
21
34.742182
0
LINE
8
annotation
62
1
39
211
10
122.330385
20
34.742182
11
122.489422
21
34.768127
0
LINE
8
annotation
62
1
39
211
10
122.489422
20
34.768127
11
122.641357
21
34.820365
0
LINE
8
annotation
62
1
39
211
10
122.641357
20
34.820365
11
122.782583
21
34.897698
0
LINE
8
annotation
62
1
39
211
10
122.782583
20
34.897698
11
122.909491
21
34.998925
0
LINE
8
annotation
62
1
39
211
10
122.909491
20
34.998925
11
123.018473
21
35.122848
0
LINE
8
annotation
62
1
39
211
10
123.018473
20
35.122848
11
123.105919
21
35.268268
0
LINE
8
annotation
62
1
39
211
10
123.105919
20
35.268268
11
123.105919
21
35.268268
0
LINE
8
annotation
62
1
39
211
10
123.105919
20
35.268268
11
123.365595
21
35.878923
0
LINE
8
annotation
62
1
39
211
10
123.365595
20
35.878923
11
123.560352
21
36.507288
0
LINE
8
annotation
62
1
39
211
10
123.560352
20
36.507288
11
123.690190
21
37.148352
0
LINE
8
annotation
62
1
39
211
10
123.690190
20
37.148352
11
123.755109
21
37.797105
0
LINE
8
annotation
62
1
39
211
10
123.755109
20
37.797105
11
123.755109
21
38.448536
0
LINE
8
annotation
62
1
39
211
10
123.755109
20
38.448536
11
123.690190
21
39.097635
0
LINE
8
annotation
62
1
39
211
10
123.690190
20
39.097635
11
123.560352
21
39.739392
0
LINE
8
annotation
62
1
39
211
10
123.560352
20
39.739392
11
123.365595
21
40.368795
0
LINE
8
annotation
62
1
39
211
10
123.365595
20
40.368795
11
123.105919
21
40.980835
0
LINE
8
annotation
62
1
39
211
10
123.105919
20
40.980835
11
123.105919
21
40.980835
0
LINE
8
annotation
62
1
39
211
10
123.105919
20
40.980835
11
123.072857
21
41.042467
0
LINE
8
annotation
62
1
39
211
10
123.072857
20
41.042467
11
123.035514
21
41.101215
0
LINE
8
annotation
62
1
39
211
10
123.035514
20
41.101215
11
122.994050
21
41.156900
0
LINE
8
annotation
62
1
39
211
10
122.994050
20
41.156900
11
122.948620
21
41.209343
0
LINE
8
annotation
62
1
39
211
10
122.948620
20
41.209343
11
122.899383
21
41.258367
0
LINE
8
annotation
62
1
39
211
10
122.899383
20
41.258367
11
122.846495
21
41.303793
0
LINE
8
annotation
62
1
39
211
10
122.846495
20
41.303793
11
122.790115
21
41.345443
0
LINE
8
annotation
62
1
39
211
10
122.790115
20
41.345443
11
122.730398
21
41.383139
0
LINE
8
annotation
62
1
39
211
10
122.730398
20
41.383139
11
122.667504
21
41.416701
0
LINE
8
annotation
62
1
39
211
10
124.981080
20
8.636146
11
125.542196
21
7.094494
0
LINE
8
annotation
62
1
39
211
10
125.542196
20
7.094494
11
125.760146
21
7.562063
0
LINE
8
annotation
62
1
39
211
10
124.060232
20
8.300985
11
124.621347
21
6.759333
0
LINE
8
annotation
62
1
39
211
10
124.621347
20
6.759333
11
124.839298
21
7.226902
0
LINE
8
annotation
62
1
39
211
10
147.229317
20
83.661518
11
129.740040
21
83.661518
0
LINE
8
annotation
62
1
39
211
10
129.740040
20
83.661518
11
147.229317
21
115.159598
0
LINE
8
annotation
62
1
39
211
10
147.229317
20
115.159598
11
129.740040
21
115.159598
0
LINE
8
annotation
62
1
39
211
10
176.266671
20
99.410558
11
159.044060
21
99.410558
0
LINE
8
annotation
62
1
39
211
10
195.078902
20
83.661518
11
195.078902
21
115.159598
0
LINE
8
annotation
62
1
39
211
10
195.078902
20
115.159598
11
188.076476
21
108.155196
0
LINE
8
annotation
62
1
39
211
10
211.949125
20
84.076989
11
211.949125
21
84.076989
0
LINE
8
annotation
62
1
39
211
10
211.949125
20
84.076989
11
212.681179
21
83.803327
0
LINE
8
annotation
62
1
39
211
10
212.681179
20
83.803327
11
213.431963
21
83.667368
0
LINE
8
annotation
62
1
39
211
10
213.431963
20
83.667368
11
214.184502
21
83.663566
0
LINE
8
annotation
62
1
39
211
10
214.184502
20
83.663566
11
214.921824
21
83.786379
0
LINE
8
annotation
62
1
39
211
10
214.921824
20
83.786379
11
215.626956
21
84.030262
0
LINE
8
annotation
62
1
39
211
10
215.626956
20
84.030262
11
216.282925
21
84.389671
0
LINE
8
annotation
62
1
39
211
10
216.282925
20
84.389671
11
216.872759
21
84.859062
0
LINE
8
annotation
62
1
39
211
10
216.872759
20
84.859062
11
217.379483
21
85.432893
0
LINE
8
annotation
62
1
39
211
10
217.379483
20
85.432893
11
217.786126
21
86.105618
0
LINE
8
annotation
62
1
39
211
10
217.786126
20
86.105618
11
217.786126
21
86.105618
0
LINE
8
annotation
62
1
39
211
10
217.786126
20
86.105618
11
218.999397
21
88.945577
0
LINE
8
annotation
62
1
39
211
10
218.999397
20
88.945577
11
219.909351
21
91.867735
0
LINE
8
annotation
62
1
39
211
10
219.909351
20
91.867735
11
220.515986
21
94.848793
0
LINE
8
annotation
62
1
39
211
10
220.515986
20
94.848793
11
220.819304
21
97.865456
0
LINE
8
annotation
62
1
39
211
10
220.819304
20
97.865456
11
220.819304
21
100.894426
0
LINE
8
annotation
62
1
39
211
10
220.819304
20
100.894426
11
220.515986
21
103.912405
0
LINE
8
annotation
62
1
39
211
10
220.515986
20
103.912405
11
219.909351
21
106.896098
0
LINE
8
annotation
62
1
39
211
10
219.909351
20
106.896098
11
218.999397
21
109.822206
0
LINE
8
annotation
62
1
39
211
10
218.999397
20
109.822206
11
217.786126
21
112.667432
0
LINE
8
annotation
62
1
39
211
10
217.786126
20
112.667432
11
217.786126
21
112.667432
0
LINE
8
annotation
62
1
39
211
10
217.786126
20
112.667432
11
217.631834
21
112.954576
0
LINE
8
annotation
62
1
39
211
10
217.631834
20
112.954576
11
217.456910
21
113.229105
0
LINE
8
annotation
62
1
39
211
10
217.456910
20
113.229105
11
217.262673
21
113.489668
0
LINE
8
annotation
62
1
39
211
10
217.262673
20
113.489668
11
217.050438
21
113.734916
0
LINE
8
annotation
62
1
39
211
10
217.050438
20
113.734916
11
216.821523
21
113.963500
0
LINE
8
annotation
62
1
39
211
10
216.821523
20
113.963500
11
216.577245
21
114.174071
0
LINE
8
annotation
62
1
39
211
10
216.577245
20
114.174071
11
216.318920
21
114.365280
0
LINE
8
annotation
62
1
39
211
10
216.318920
20
114.365280
11
216.047865
21
114.535776
0
LINE
8
annotation
62
1
39
211
10
216.047865
20
114.535776
11
215.765398
21
114.684210
0
LINE
8
annotation
62
1
39
211
10
215.765398
20
114.684210
11
215.765398
21
114.684210
0
LINE
8
annotation
62
1
39
211
10
215.765398
20
114.684210
11
215.027531
21
114.963803
0
LINE
8
annotation
62
1
39
211
10
215.027531
20
114.963803
11
214.272350
21
115.104409
0
LINE
8
annotation
62
1
39
211
10
214.272350
20
115.104409
11
213.516632
21
115.111606
0
LINE
8
annotation
62
1
39
211
10
213.516632
20
115.111606
11
212.777156
21
114.990969
0
LINE
8
annotation
62
1
39
211
10
212.777156
20
114.990969
11
212.070699
21
114.748075
0
LINE
8
annotation
62
1
39
211
10
212.070699
20
114.748075
11
211.414039
21
114.388501
0
LINE
8
annotation
62
1
39
211
10
211.414039
20
114.388501
11
210.823953
21
113.917822
0
LINE
8
annotation
62
1
39
211
10
210.823953
20
113.917822
11
210.317221
21
113.341615
0
LINE
8
annotation
62
1
39
211
10
210.317221
20
113.341615
11
209.910618
21
112.665457
0
LINE
8
annotation
62
1
39
211
10
209.910618
20
112.665457
11
209.910618
21
112.665457
0
LINE
8
annotation
62
1
39
211
10
209.910618
20
112.665457
11
208.703200
21
109.826083
0
LINE
8
annotation
62
1
39
211
10
208.703200
20
109.826083
11
207.797636
21
106.904365
0
LINE
8
annotation
62
1
39
211
10
207.797636
20
106.904365
11
207.193927
21
103.923599
0
LINE
8
annotation
62
1
39
211
10
207.193927
20
103.923599
11
206.892073
21
100.907082
0
LINE
8
annotation
62
1
39
211
10
206.892073
20
100.907082
11
206.892073
21
97.878113
0
LINE
8
annotation
62
1
39
211
10
206.892073
20
97.878113
11
207.193927
21
94.859987
0
LINE
8
annotation
62
1
39
211
10
207.193927
20
94.859987
11
207.797636
21
91.876002
0
LINE
8
annotation
62
1
39
211
10
207.797636
20
91.876002
11
208.703200
21
88.949455
0
LINE
8
annotation
62
1
39
211
10
208.703200
20
88.949455
11
209.910618
21
86.103643
0
LINE
8
annotation
62
1
39
211
10
209.910618
20
86.103643
11
209.910618
21
86.103643
0
LINE
8
annotation
62
1
39
211
10
209.910618
20
86.103643
11
210.064350
21
85.817071
0
LINE
8
annotation
62
1
39
211
10
210.064350
20
85.817071
11
210.237981
21
85.543911
0
LINE
8
annotation
62
1
39
211
10
210.237981
20
85.543911
11
210.430780
21
85.284992
0
LINE
8
annotation
62
1
39
211
10
210.430780
20
85.284992
11
210.642015
21
85.041145
0
LINE
8
annotation
62
1
39
211
10
210.642015
20
85.041145
11
210.870954
21
84.813197
0
LINE
8
annotation
62
1
39
211
10
210.870954
20
84.813197
11
211.116866
21
84.601979
0
LINE
8
annotation
62
1
39
211
10
211.116866
20
84.601979
11
211.379020
21
84.408318
0
LINE
8
annotation
62
1
39
211
10
211.379020
20
84.408318
11
211.656683
21
84.233045
0
LINE
8
annotation
62
1
39
211
10
211.656683
20
84.233045
11
211.949125
21
84.076989
0
LINE
8
boundary
62
5
39
2
10
301.482229
20
201.722768
11
301.482229
21
156.594601
0
LINE
8
boundary
62
5
39
2
10
301.482229
20
156.594601
11
305.937543
21
156.154501
0
LINE
8
boundary
62
5
39
2
10
305.937543
20
156.154501
11
338.198170
21
156.154501
0
LINE
8
boundary
62
5
39
2
10
338.198170
20
156.154501
11
338.198170
21
152.103501
0
LINE
8
boundary
62
5
39
2
10
338.198170
20
152.103501
11
305.937543
21
152.103501
0
LINE
8
boundary
62
5
39
2
10
305.937543
20
152.103501
11
301.482229
21
151.663401
0
LINE
8
boundary
62
5
39
2
10
301.482229
20
151.663401
11
301.482229
21
96.624839
0
LINE
8
boundary
62
5
39
2
10
301.482229
20
96.624839
11
305.937543
21
96.184739
0
LINE
8
boundary
62
5
39
2
10
305.937543
20
96.184739
11
343.821290
21
96.184739
0
LINE
8
boundary
62
5
39
2
10
343.821290
20
96.184739
11
343.821290
21
92.133739
0
LINE
8
boundary
62
5
39
2
10
343.821290
20
92.133739
11
305.937543
21
92.133739
0
LINE
8
boundary
62
5
39
2
10
305.937543
20
92.133739
11
301.482229
21
91.693639
0
LINE
8
boundary
62
5
39
2
10
301.482229
20
91.693639
11
301.482229
21
43.036096
0
LINE
8
boundary
62
5
39
2
10
301.482229
20
43.036096
11
305.937543
21
42.595997
0
LINE
8
boundary
62
5
39
2
10
305.937543
20
42.595997
11
333.778305
21
42.595997
0
LINE
8
boundary
62
5
39
2
10
333.778305
20
42.595997
11
333.778305
21
38.544997
0
LINE
8
boundary
62
5
39
2
10
333.778305
20
38.544997
11
305.937543
21
38.544997
0
LINE
8
boundary
62
5
39
2
10
305.937543
20
38.544997
11
301.482229
21
38.104896
0
LINE
8
boundary
62
5
39
2
10
301.482229
20
38.104896
11
301.482229
21
6.705334
0
LINE
8
boundary
62
5
39
2
10
301.482229
20
6.705334
11
302.223244
21
6.687500
0
LINE
8
boundary
62
5
39
2
10
302.223244
20
6.687500
11
303.318583
21
6.793399
0
LINE
8
boundary
62
5
39
2
10
303.318583
20
6.793399
11
309.590459
21
8.234969
0
LINE
8
boundary
62
5
39
2
10
309.590459
20
8.234969
11
311.316094
21
8.447807
0
LINE
8
boundary
62
5
39
2
10
311.316094
20
8.447807
11
317.144674
21
10.090503
0
LINE
8
boundary
62
5
39
2
10
317.144674
20
10.090503
11
319.430910
21
10.862446
0
LINE
8
boundary
62
5
39
2
10
319.430910
20
10.862446
11
324.843191
21
12.741243
0
LINE
8
boundary
62
5
39
2
10
324.843191
20
12.741243
11
328.420684
21
14.094071
0
LINE
8
boundary
62
5
39
2
10
328.420684
20
14.094071
11
332.811672
21
15.967234
0
LINE
8
boundary
62
5
39
2
10
332.811672
20
15.967234
11
337.995993
21
18.247731
0
LINE
8
boundary
62
5
39
2
10
337.995993
20
18.247731
11
340.575655
21
19.849283
0
LINE
8
boundary
62
5
39
2
10
340.575655
20
19.849283
11
348.266465
21
24.823405
0
LINE
8
boundary
62
5
39
2
10
348.266465
20
24.823405
11
356.369689
21
31.040369
0
LINE
8
boundary
62
5
39
2
10
356.369689
20
31.040369
11
360.020960
21
34.106116
0
LINE
8
boundary
62
5
39
2
10
360.020960
20
34.106116
11
363.652673
21
38.272466
0
LINE
8
boundary
62
5
39
2
10
363.652673
20
38.272466
11
370.307335
21
46.320544
0
LINE
8
boundary
62
5
39
2
10
370.307335
20
46.320544
11
376.458340
21
55.978573
0
LINE
8
boundary
62
5
39
2
10
376.458340
20
55.978573
11
380.616435
21
63.900167
0
LINE
8
boundary
62
5
39
2
10
380.616435
20
63.900167
11
381.873012
21
67.390722
0
LINE
8
boundary
62
5
39
2
10
381.873012
20
67.390722
11
383.113119
21
72.525476
0
LINE
8
boundary
62
5
39
2
10
383.113119
20
72.525476
11
385.667830
21
79.826668
0
LINE
8
boundary
62
5
39
2
10
385.667830
20
79.826668
11
386.424236
21
85.013995
0
LINE
8
boundary
62
5
39
2
10
386.424236
20
85.013995
11
386.512468
21
94.383926
0
LINE
8
boundary
62
5
39
2
10
386.512468
20
94.383926
11
384.997399
21
110.285624
0
LINE
8
boundary
62
5
39
2
10
384.997399
20
110.285624
11
382.877865
21
122.556239
0
LINE
8
boundary
62
5
39
2
10
382.877865
20
122.556239
11
381.612543
21
130.101518
0
LINE
8
boundary
62
5
39
2
10
381.612543
20
130.101518
11
380.408511
21
135.251875
0
LINE
8
boundary
62
5
39
2
10
380.408511
20
135.251875
11
377.799112
21
146.223004
0
LINE
8
boundary
62
5
39
2
10
377.799112
20
146.223004
11
377.571530
21
147.255273
0
LINE
8
boundary
62
5
39
2
10
377.571530
20
147.255273
11
371.926177
21
158.717516
0
LINE
8
boundary
62
5
39
2
10
371.926177
20
158.717516
11
371.817517
21
161.642785
0
LINE
8
boundary
62
5
39
2
10
371.817517
20
161.642785
11
369.561420
21
170.727012
0
LINE
8
boundary
62
5
39
2
10
369.561420
20
170.727012
11
369.539023
21
172.674494
0
LINE
8
boundary
62
5
39
2
10
369.539023
20
172.674494
11
371.789838
21
186.011901
0
LINE
8
boundary
62
5
39
2
10
371.789838
20
186.011901
11
371.812562
21
188.215729
0
LINE
8
boundary
62
5
39
2
10
371.812562
20
188.215729
11
370.266621
21
198.322577
0
LINE
8
boundary
62
5
39
2
10
370.266621
20
198.322577
11
369.585259
21
202.456666
0
LINE
8
boundary
62
5
39
2
10
369.585259
20
202.456666
11
366.020903
21
209.371688
0
LINE
8
boundary
62
5
39
2
10
366.020903
20
209.371688
11
364.801759
21
211.915350
0
LINE
8
boundary
62
5
39
2
10
364.801759
20
211.915350
11
360.445219
21
218.753809
0
LINE
8
boundary
62
5
39
2
10
360.445219
20
218.753809
11
360.133620
21
219.180781
0
LINE
8
boundary
62
5
39
2
10
360.133620
20
219.180781
11
359.358801
21
219.964571
0
LINE
8
boundary
62
5
39
2
10
359.358801
20
219.964571
11
355.019717
21
224.405792
0
LINE
8
boundary
62
5
39
2
10
355.019717
20
224.405792
11
353.147858
21
225.467417
0
LINE
8
boundary
62
5
39
2
10
353.147858
20
225.467417
11
352.393166
21
226.682214
0
LINE
8
boundary
62
5
39
2
10
352.393166
20
226.682214
11
350.784473
21
226.176710
0
LINE
8
boundary
62
5
39
2
10
350.784473
20
226.176710
11
349.201797
21
226.440650
0
LINE
8
boundary
62
5
39
2
10
349.201797
20
226.440650
11
346.158754
21
226.355803
0
LINE
8
boundary
62
5
39
2
10
346.158754
20
226.355803
11
342.021540
21
226.168015
0
LINE
8
boundary
62
5
39
2
10
342.021540
20
226.168015
11
341.311126
21
226.089510
0
LINE
8
boundary
62
5
39
2
10
341.311126
20
226.089510
11
340.633529
21
225.982142
0
LINE
8
boundary
62
5
39
2
10
340.633529
20
225.982142
11
335.370217
21
224.428911
0
LINE
8
boundary
62
5
39
2
10
335.370217
20
224.428911
11
331.991913
21
223.225956
0
LINE
8
boundary
62
5
39
2
10
331.991913
20
223.225956
11
326.756788
21
221.203934
0
LINE
8
boundary
62
5
39
2
10
326.756788
20
221.203934
11
320.496385
21
218.785921
0
LINE
8
boundary
62
5
39
2
10
320.496385
20
218.785921
11
315.599278
21
215.405750
0
LINE
8
boundary
62
5
39
2
10
315.599278
20
215.405750
11
308.568226
21
211.206651
0
LINE
8
boundary
62
5
39
2
10
308.568226
20
211.206651
11
307.626537
21
209.967450
0
LINE
8
boundary
62
5
39
2
10
307.626537
20
209.967450
11
312.081852
21
209.527350
0
LINE
8
boundary
62
5
39
2
10
312.081852
20
209.527350
11
335.946219
21
209.527350
0
LINE
8
boundary
62
5
39
2
10
335.946219
20
209.527350
11
335.946219
21
205.476350
0
LINE
8
boundary
62
5
39
2
10
335.946219
20
205.476350
11
308.334554
21
205.476350
0
LINE
8
boundary
62
5
39
2
10
308.334554
20
205.476350
11
303.879239
21
205.036250
0
LINE
8
boundary
62
5
39
2
10
303.879239
20
205.036250
11
302.830107
21
203.655661
0
LINE
8
boundary
62
5
39
2
10
302.830107
20
203.655661
11
301.482229
21
201.722768
0
LINE
8
annotation
62
1
39
211
10
342.754422
20
37.049696
11
344.319860
21
44.091296
0
LINE
8
annotation
62
1
39
211
10
344.319860
20
44.091296
11
341.188543
21
44.091296
0
LINE
8
annotation
62
1
39
211
10
344.319860
20
40.955563
11
342.754422
21
40.955563
0
LINE
8
annotation
62
1
39
211
10
351.233736
20
92.199681
11
351.233736
21
92.199681
0
LINE
8
annotation
62
1
39
211
10
351.233736
20
92.199681
11
351.258981
21
91.918527
0
LINE
8
annotation
62
1
39
211
10
351.258981
20
91.918527
11
351.331748
21
91.654102
0
LINE
8
annotation
62
1
39
211
10
351.331748
20
91.654102
11
351.447580
21
91.410772
0
LINE
8
annotation
62
1
39
211
10
351.447580
20
91.410772
11
351.602021
21
91.192901
0
LINE
8
annotation
62
1
39
211
10
351.602021
20
91.192901
11
351.790615
21
91.004855
0
LINE
8
annotation
62
1
39
211
10
351.790615
20
91.004855
11
352.008907
21
90.850999
0
LINE
8
annotation
62
1
39
211
10
352.008907
20
90.850999
11
352.252440
21
90.735697
0
LINE
8
annotation
62
1
39
211
10
352.252440
20
90.735697
11
352.516759
21
90.663315
0
LINE
8
annotation
62
1
39
211
10
352.516759
20
90.663315
11
352.797407
21
90.638218
0
LINE
8
annotation
62
1
39
211
10
352.797407
20
90.638218
11
352.797407
21
90.638218
0
LINE
8
annotation
62
1
39
211
10
352.797407
20
90.638218
11
353.078056
21
90.663315
0
LINE
8
annotation
62
1
39
211
10
353.078056
20
90.663315
11
353.342374
21
90.735697
0
LINE
8
annotation
62
1
39
211
10
353.342374
20
90.735697
11
353.585908
21
90.850999
0
LINE
8
annotation
62
1
39
211
10
353.585908
20
90.850999
11
353.804199
21
91.004855
0
LINE
8
annotation
62
1
39
211
10
353.804199
20
91.004855
11
353.992793
21
91.192901
0
LINE
8
annotation
62
1
39
211
10
353.992793
20
91.192901
11
354.147234
21
91.410772
0
LINE
8
annotation
62
1
39
211
10
354.147234
20
91.410772
11
354.263066
21
91.654102
0
LINE
8
annotation
62
1
39
211
10
354.263066
20
91.654102
11
354.335833
21
91.918527
0
LINE
8
annotation
62
1
39
211
10
354.335833
20
91.918527
11
354.361079
21
92.199681
0
LINE
8
annotation
62
1
39
211
10
354.361079
20
92.199681
11
354.361079
21
92.978647
0
LINE
8
annotation
62
1
39
211
10
354.361079
20
92.978647
11
354.361079
21
92.978647
0
LINE
8
annotation
62
1
39
211
10
354.361079
20
92.978647
11
354.335847
21
93.259938
0
LINE
8
annotation
62
1
39
211
10
354.335847
20
93.259938
11
354.263117
21
93.524728
0
LINE
8
annotation
62
1
39
211
10
354.263117
20
93.524728
11
354.147333
21
93.768587
0
LINE
8
annotation
62
1
39
211
10
354.147333
20
93.768587
11
353.992939
21
93.987084
0
LINE
8
annotation
62
1
39
211
10
353.992939
20
93.987084
11
353.804381
21
94.175790
0
LINE
8
annotation
62
1
39
211
10
353.804381
20
94.175790
11
353.586104
21
94.330273
0
LINE
8
annotation
62
1
39
211
10
353.586104
20
94.330273
11
353.342553
21
94.446104
0
LINE
8
annotation
62
1
39
211
10
353.342553
20
94.446104
11
353.078172
21
94.518851
0
LINE
8
annotation
62
1
39
211
10
353.078172
20
94.518851
11
352.797407
21
94.544085
0
LINE
8
annotation
62
1
39
211
10
352.797407
20
94.544085
11
352.797407
21
94.544085
0
LINE
8
annotation
62
1
39
211
10
352.797407
20
94.544085
11
352.516642
21
94.518837
0
LINE
8
annotation
62
1
39
211
10
352.516642
20
94.518837
11
352.252262
21
94.446053
0
LINE
8
annotation
62
1
39
211
10
352.252262
20
94.446053
11
352.008710
21
94.330175
0
LINE
8
annotation
62
1
39
211
10
352.008710
20
94.330175
11
351.790433
21
94.175644
0
LINE
8
annotation
62
1
39
211
10
351.790433
20
94.175644
11
351.601875
21
93.986902
0
LINE
8
annotation
62
1
39
211
10
351.601875
20
93.986902
11
351.447482
21
93.768390
0
LINE
8
annotation
62
1
39
211
10
351.447482
20
93.768390
11
351.331697
21
93.524549
0
LINE
8
annotation
62
1
39
211
10
351.331697
20
93.524549
11
351.258967
21
93.259821
0
LINE
8
annotation
62
1
39
211
10
351.258967
20
93.259821
11
351.233736
21
92.978647
0
LINE
8
annotation
62
1
39
211
10
351.233736
20
92.978647
11
351.233736
21
92.199681
0
LINE
8
annotation
62
1
39
211
10
354.361079
20
96.109964
11
354.361079
21
96.109964
0
LINE
8
annotation
62
1
39
211
10
354.361079
20
96.109964
11
354.335847
21
96.389955
0
LINE
8
annotation
62
1
39
211
10
354.335847
20
96.389955
11
354.263117
21
96.653762
0
LINE
8
annotation
62
1
39
211
10
354.263117
20
96.653762
11
354.147333
21
96.896911
0
LINE
8
annotation
62
1
39
211
10
354.147333
20
96.896911
11
353.992939
21
97.114927
0
LINE
8
annotation
62
1
39
211
10
353.992939
20
97.114927
11
353.804381
21
97.303336
0
LINE
8
annotation
62
1
39
211
10
353.804381
20
97.303336
11
353.586104
21
97.457665
0
LINE
8
annotation
62
1
39
211
10
353.586104
20
97.457665
11
353.342553
21
97.573439
0
LINE
8
annotation
62
1
39
211
10
353.342553
20
97.573439
11
353.078172
21
97.646185
0
LINE
8
annotation
62
1
39
211
10
353.078172
20
97.646185
11
352.797407
21
97.671428
0
LINE
8
annotation
62
1
39
211
10
352.797407
20
97.671428
11
352.797407
21
97.671428
0
LINE
8
annotation
62
1
39
211
10
352.797407
20
97.671428
11
352.516642
21
97.646185
0
LINE
8
annotation
62
1
39
211
10
352.516642
20
97.646185
11
352.252262
21
97.573439
0
LINE
8
annotation
62
1
39
211
10
352.252262
20
97.573439
11
352.008710
21
97.457665
0
LINE
8
annotation
62
1
39
211
10
352.008710
20
97.457665
11
351.790433
21
97.303336
0
LINE
8
annotation
62
1
39
211
10
351.790433
20
97.303336
11
351.601875
21
97.114927
0
LINE
8
annotation
62
1
39
211
10
351.601875
20
97.114927
11
351.447482
21
96.896911
0
LINE
8
annotation
62
1
39
211
10
351.447482
20
96.896911
11
351.331697
21
96.653762
0
LINE
8
annotation
62
1
39
211
10
351.331697
20
96.653762
11
351.258967
21
96.389955
0
LINE
8
annotation
62
1
39
211
10
351.258967
20
96.389955
11
351.233736
21
96.109964
0
LINE
8
annotation
62
1
39
211
10
351.233736
20
96.109964
11
351.233736
21
96.109964
0
LINE
8
annotation
62
1
39
211
10
351.233736
20
96.109964
11
351.258981
21
95.828658
0
LINE
8
annotation
62
1
39
211
10
351.258981
20
95.828658
11
351.331748
21
95.563828
0
LINE
8
annotation
62
1
39
211
10
351.331748
20
95.563828
11
351.447580
21
95.319910
0
LINE
8
annotation
62
1
39
211
10
351.447580
20
95.319910
11
351.602021
21
95.101343
0
LINE
8
annotation
62
1
39
211
10
351.602021
20
95.101343
11
351.790615
21
94.912564
0
LINE
8
annotation
62
1
39
211
10
351.790615
20
94.912564
11
352.008907
21
94.758011
0
LINE
8
annotation
62
1
39
211
10
352.008907
20
94.758011
11
352.252440
21
94.642121
0
LINE
8
annotation
62
1
39
211
10
352.252440
20
94.642121
11
352.516759
21
94.569334
0
LINE
8
annotation
62
1
39
211
10
352.516759
20
94.569334
11
352.797407
21
94.544085
0
LINE
8
annotation
62
1
39
211
10
352.797407
20
94.544085
11
352.797407
21
94.544085
0
LINE
8
annotation
62
1
39
211
10
352.797407
20
94.544085
11
353.078056
21
94.569334
0
LINE
8
annotation
62
1
39
211
10
353.078056
20
94.569334
11
353.342374
21
94.642121
0
LINE
8
annotation
62
1
39
211
10
353.342374
20
94.642121
11
353.585908
21
94.758011
0
LINE
8
annotation
62
1
39
211
10
353.585908
20
94.758011
11
353.804199
21
94.912564
0
LINE
8
annotation
62
1
39
211
10
353.804199
20
94.912564
11
353.992793
21
95.101343
0
LINE
8
annotation
62
1
39
211
10
353.992793
20
95.101343
11
354.147234
21
95.319910
0
LINE
8
annotation
62
1
39
211
10
354.147234
20
95.319910
11
354.263066
21
95.563828
0
LINE
8
annotation
62
1
39
211
10
354.263066
20
95.563828
11
354.335833
21
95.828658
0
LINE
8
annotation
62
1
39
211
10
354.335833
20
95.828658
11
354.361079
21
96.109964
0
LINE
8
annotation
62
1
39
211
10
346.391347
20
150.608201
11
346.391347
21
150.608201
0
LINE
8
annotation
62
1
39
211
10
346.391347
20
150.608201
11
346.838511
21
150.774836
0
LINE
8
annotation
62
1
39
211
10
346.838511
20
150.774836
11
347.248952
21
151.000074
0
LINE
8
annotation
62
1
39
211
10
347.248952
20
151.000074
11
347.618429
21
151.278175
0
LINE
8
annotation
62
1
39
211
10
347.618429
20
151.278175
11
347.942699
21
151.603401
0
LINE
8
annotation
62
1
39
211
10
347.942699
20
151.603401
11
348.217523
21
151.970013
0
LINE
8
annotation
62
1
39
211
10
348.217523
20
151.970013
11
348.438658
21
152.372272
0
LINE
8
annotation
62
1
39
211
10
348.438658
20
152.372272
11
348.601863
21
152.804440
0
LINE
8
annotation
62
1
39
211
10
348.601863
20
152.804440
11
348.702896
21
153.260776
0
LINE
8
annotation
62
1
39
211
10
348.702896
20
153.260776
11
348.737517
21
153.735544
0
LINE
8
annotation
62
1
39
211
10
348.737517
20
153.735544
11
348.737517
21
156.083921
0
LINE
8
annotation
62
1
39
211
10
348.737517
20
156.083921
11
348.737517
21
156.083921
0
LINE
8
annotation
62
1
39
211
10
348.737517
20
156.083921
11
348.712344
21
156.365227
0
LINE
8
annotation
62
1
39
211
10
348.712344
20
156.365227
11
348.639759
21
156.630058
0
LINE
8
annotation
62
1
39
211
10
348.639759
20
156.630058
11
348.524163
21
156.873975
0
LINE
8
annotation
62
1
39
211
10
348.524163
20
156.873975
11
348.369958
21
157.092543
0
LINE
8
annotation
62
1
39
211
10
348.369958
20
157.092543
11
348.181546
21
157.281322
0
LINE
8
annotation
62
1
39
211
10
348.181546
20
157.281322
11
347.963327
21
157.435875
0
LINE
8
annotation
62
1
39
211
10
347.963327
20
157.435875
11
347.719703
21
157.551764
0
LINE
8
annotation
62
1
39
211
10
347.719703
20
157.551764
11
347.455075
21
157.624552
0
LINE
8
annotation
62
1
39
211
10
347.455075
20
157.624552
11
347.173845
21
157.649801
0
LINE
8
annotation
62
1
39
211
10
347.173845
20
157.649801
11
347.173845
21
157.649801
0
LINE
8
annotation
62
1
39
211
10
347.173845
20
157.649801
11
346.893197
21
157.624552
0
LINE
8
annotation
62
1
39
211
10
346.893197
20
157.624552
11
346.628878
21
157.551764
0
LINE
8
annotation
62
1
39
211
10
346.628878
20
157.551764
11
346.385345
21
157.435875
0
LINE
8
annotation
62
1
39
211
10
346.385345
20
157.435875
11
346.167053
21
157.281322
0
LINE
8
annotation
62
1
39
211
10
346.167053
20
157.281322
11
345.978459
21
157.092543
0
LINE
8
annotation
62
1
39
211
10
345.978459
20
157.092543
11
345.824018
21
156.873975
0
LINE
8
annotation
62
1
39
211
10
345.824018
20
156.873975
11
345.708186
21
156.630058
0
LINE
8
annotation
62
1
39
211
10
345.708186
20
156.630058
11
345.635419
21
156.365227
0
LINE
8
annotation
62
1
39
211
10
345.635419
20
156.365227
11
345.610174
21
156.083921
0
LINE
8
annotation
62
1
39
211
10
345.610174
20
156.083921
11
345.610174
21
155.300981
0
LINE
8
annotation
62
1
39
211
10
345.610174
20
155.300981
11
345.610174
21
155.300981
0
LINE
8
annotation
62
1
39
211
10
345.610174
20
155.300981
11
345.635419
21
155.019691
0
LINE
8
annotation
62
1
39
211
10
345.635419
20
155.019691
11
345.708186
21
154.754901
0
LINE
8
annotation
62
1
39
211
10
345.708186
20
154.754901
11
345.824018
21
154.511042
0
LINE
8
annotation
62
1
39
211
10
345.824018
20
154.511042
11
345.978459
21
154.292544
0
LINE
8
annotation
62
1
39
211
10
345.978459
20
154.292544
11
346.167053
21
154.103838
0
LINE
8
annotation
62
1
39
211
10
346.167053
20
154.103838
11
346.385345
21
153.949355
0
LINE
8
annotation
62
1
39
211
10
346.385345
20
153.949355
11
346.628878
21
153.833525
0
LINE
8
annotation
62
1
39
211
10
346.628878
20
153.833525
11
346.893197
21
153.760777
0
LINE
8
annotation
62
1
39
211
10
346.893197
20
153.760777
11
347.173845
21
153.735544
0
LINE
8
annotation
62
1
39
211
10
347.173845
20
153.735544
11
348.737517
21
153.735544
0
LINE
8
annotation
62
1
39
211
10
345.414770
20
149.728001
11
348.935570
21
149.728001
0
LINE
8
annotation
62
1
39
211
10
342.907772
20
204.114753
11
342.907772
21
210.888948
0
LINE
8
annotation
62
1
39
211
10
342.907772
20
210.888948
11
341.401782
21
209.382533
0
LINE
8
annotation
62
1
39
211
10
346.535999
20
204.204107
11
346.535999
21
204.204107
0
LINE
8
annotation
62
1
39
211
10
346.535999
20
204.204107
11
346.693440
21
204.145251
0
LINE
8
annotation
62
1
39
211
10
346.693440
20
204.145251
11
346.854908
21
204.116011
0
LINE
8
annotation
62
1
39
211
10
346.854908
20
204.116011
11
347.016755
21
204.115193
0
LINE
8
annotation
62
1
39
211
10
347.016755
20
204.115193
11
347.175328
21
204.141606
0
LINE
8
annotation
62
1
39
211
10
347.175328
20
204.141606
11
347.326979
21
204.194057
0
LINE
8
annotation
62
1
39
211
10
347.326979
20
204.194057
11
347.468056
21
204.271354
0
LINE
8
annotation
62
1
39
211
10
347.468056
20
204.271354
11
347.594910
21
204.372305
0
LINE
8
annotation
62
1
39
211
10
347.594910
20
204.372305
11
347.703889
21
204.495717
0
LINE
8
annotation
62
1
39
211
10
347.703889
20
204.495717
11
347.791345
21
204.640398
0
LINE
8
annotation
62
1
39
211
10
347.791345
20
204.640398
11
347.791345
21
204.640398
0
LINE
8
annotation
62
1
39
211
10
347.791345
20
204.640398
11
348.052279
21
205.251179
0
LINE
8
annotation
62
1
39
211
10
348.052279
20
205.251179
11
348.247980
21
205.879638
0
LINE
8
annotation
62
1
39
211
10
348.247980
20
205.879638
11
348.378447
21
206.520766
0
LINE
8
annotation
62
1
39
211
10
348.378447
20
206.520766
11
348.443681
21
207.169550
0
LINE
8
annotation
62
1
39
211
10
348.443681
20
207.169550
11
348.443681
21
207.820981
0
LINE
8
annotation
62
1
39
211
10
348.443681
20
207.820981
11
348.378447
21
208.470049
0
LINE
8
annotation
62
1
39
211
10
348.378447
20
208.470049
11
348.247980
21
209.111742
0
LINE
8
annotation
62
1
39
211
10
348.247980
20
209.111742
11
348.052279
21
209.741051
0
LINE
8
annotation
62
1
39
211
10
348.052279
20
209.741051
11
347.791345
21
210.352965
0
LINE
8
annotation
62
1
39
211
10
347.791345
20
210.352965
11
347.791345
21
210.352965
0
LINE
8
annotation
62
1
39
211
10
347.791345
20
210.352965
11
347.758161
21
210.414720
0
LINE
8
annotation
62
1
39
211
10
347.758161
20
210.414720
11
347.720541
21
210.473762
0
LINE
8
annotation
62
1
39
211
10
347.720541
20
210.473762
11
347.678767
21
210.529801
0
LINE
8
annotation
62
1
39
211
10
347.678767
20
210.529801
11
347.633123
21
210.582546
0
LINE
8
annotation
62
1
39
211
10
347.633123
20
210.582546
11
347.583891
21
210.631707
0
LINE
8
annotation
62
1
39
211
10
347.583891
20
210.631707
11
347.531354
21
210.676993
0
LINE
8
annotation
62
1
39
211
10
347.531354
20
210.676993
11
347.475797
21
210.718116
0
LINE
8
annotation
62
1
39
211
10
347.475797
20
210.718116
11
347.417502
21
210.754784
0
LINE
8
annotation
62
1
39
211
10
347.417502
20
210.754784
11
347.356753
21
210.786707
0
LINE
8
annotation
62
1
39
211
10
347.356753
20
210.786707
11
347.356753
21
210.786707
0
LINE
8
annotation
62
1
39
211
10
347.356753
20
210.786707
11
347.198062
21
210.846839
0
LINE
8
annotation
62
1
39
211
10
347.198062
20
210.846839
11
347.035648
21
210.877078
0
LINE
8
annotation
62
1
39
211
10
347.035648
20
210.877078
11
346.873118
21
210.878626
0
LINE
8
annotation
62
1
39
211
10
346.873118
20
210.878626
11
346.714081
21
210.852681
0
LINE
8
annotation
62
1
39
211
10
346.714081
20
210.852681
11
346.562145
21
210.800443
0
LINE
8
annotation
62
1
39
211
10
346.562145
20
210.800443
11
346.420920
21
210.723110
0
LINE
8
annotation
62
1
39
211
10
346.420920
20
210.723110
11
346.294012
21
210.621883
0
LINE
8
annotation
62
1
39
211
10
346.294012
20
210.621883
11
346.185030
21
210.497960
0
LINE
8
annotation
62
1
39
211
10
346.185030
20
210.497960
11
346.097584
21
210.352540
0
LINE
8
annotation
62
1
39
211
10
346.097584
20
210.352540
11
346.097584
21
210.352540
0
LINE
8
annotation
62
1
39
211
10
346.097584
20
210.352540
11
345.837908
21
209.741885
0
LINE
8
annotation
62
1
39
211
10
345.837908
20
209.741885
11
345.643151
21
209.113520
0
LINE
8
annotation
62
1
39
211
10
345.643151
20
209.113520
11
345.513313
21
208.472456
0
LINE
8
annotation
62
1
39
211
10
345.513313
20
208.472456
11
345.448394
21
207.823703
0
LINE
8
annotation
62
1
39
211
10
345.448394
20
207.823703
11
345.448394
21
207.172272
0
LINE
8
annotation
62
1
39
211
10
345.448394
20
207.172272
11
345.513313
21
206.523173
0
LINE
8
annotation
62
1
39
211
10
345.513313
20
206.523173
11
345.643151
21
205.881416
0
LINE
8
annotation
62
1
39
211
10
345.643151
20
205.881416
11
345.837908
21
205.252013
0
LINE
8
annotation
62
1
39
211
10
345.837908
20
205.252013
11
346.097584
21
204.639973
0
LINE
8
annotation
62
1
39
211
10
346.097584
20
204.639973
11
346.097584
21
204.639973
0
LINE
8
annotation
62
1
39
211
10
346.097584
20
204.639973
11
346.130646
21
204.578341
0
LINE
8
annotation
62
1
39
211
10
346.130646
20
204.578341
11
346.167988
21
204.519593
0
LINE
8
annotation
62
1
39
211
10
346.167988
20
204.519593
11
346.209453
21
204.463908
0
LINE
8
annotation
62
1
39
211
10
346.209453
20
204.463908
11
346.254883
21
204.411465
0
LINE
8
annotation
62
1
39
211
10
346.254883
20
204.411465
11
346.304120
21
204.362441
0
LINE
8
annotation
62
1
39
211
10
346.304120
20
204.362441
11
346.357008
21
204.317015
0
LINE
8
annotation
62
1
39
211
10
346.357008
20
204.317015
11
346.413388
21
204.275365
0
LINE
8
annotation
62
1
39
211
10
346.413388
20
204.275365
11
346.473104
21
204.237669
0
LINE
8
annotation
62
1
39
211
10
346.473104
20
204.237669
11
346.535999
21
204.204107
0
LINE
8
annotation
62
1
39
211
10
328.613860
20
134.919239
11
323.330810
21
127.277790
0
LINE
8
annotation
62
1
39
211
10
323.330810
20
127.277790
11
318.046766
21
134.919239
0
LINE
8
annotation
62
1
39
211
10
323.330810
20
127.892722
11
323.330810
21
119.077042
0
LINE
8
annotation
62
1
39
211
10
343.217997
20
126.998140
11
334.556298
21
126.998140
0
LINE
8
annotation
62
1
39
211
10
349.156958
20
119.078035
11
352.674687
21
119.078035
0
LINE
8
annotation
62
1
39
211
10
352.674687
20
119.078035
11
352.674687
21
119.078035
0
LINE
8
annotation
62
1
39
211
10
352.674687
20
119.078035
11
353.307359
21
119.134790
0
LINE
8
annotation
62
1
39
211
10
353.307359
20
119.134790
11
353.902681
21
119.298361
0
LINE
8
annotation
62
1
39
211
10
353.902681
20
119.298361
11
354.450752
21
119.558707
0
LINE
8
annotation
62
1
39
211
10
354.450752
20
119.558707
11
354.941670
21
119.905788
0
LINE
8
annotation
62
1
39
211
10
354.941670
20
119.905788
11
355.365534
21
120.329564
0
LINE
8
annotation
62
1
39
211
10
355.365534
20
120.329564
11
355.712442
21
120.819993
0
LINE
8
annotation
62
1
39
211
10
355.712442
20
120.819993
11
355.972493
21
121.367035
0
LINE
8
annotation
62
1
39
211
10
355.972493
20
121.367035
11
356.135785
21
121.960650
0
LINE
8
annotation
62
1
39
211
10
356.135785
20
121.960650
11
356.192415
21
122.590797
0
LINE
8
annotation
62
1
39
211
10
356.192415
20
122.590797
11
356.192415
21
124.352145
0
LINE
8
annotation
62
1
39
211
10
356.192415
20
124.352145
11
356.192415
21
124.352145
0
LINE
8
annotation
62
1
39
211
10
356.192415
20
124.352145
11
356.135785
21
124.982030
0
LINE
8
annotation
62
1
39
211
10
356.135785
20
124.982030
11
355.972493
21
125.575506
0
LINE
8
annotation
62
1
39
211
10
355.972493
20
125.575506
11
355.712442
21
126.122507
0
LINE
8
annotation
62
1
39
211
10
355.712442
20
126.122507
11
355.365534
21
126.612969
0
LINE
8
annotation
62
1
39
211
10
355.365534
20
126.612969
11
354.941670
21
127.036826
0
LINE
8
annotation
62
1
39
211
10
354.941670
20
127.036826
11
354.450752
21
127.384013
0
LINE
8
annotation
62
1
39
211
10
354.450752
20
127.384013
11
353.902681
21
127.644466
0
LINE
8
annotation
62
1
39
211
10
353.902681
20
127.644466
11
353.307359
21
127.808119
0
LINE
8
annotation
62
1
39
211
10
353.307359
20
127.808119
11
352.674687
21
127.864906
0
LINE
8
annotation
62
1
39
211
10
352.674687
20
127.864906
11
350.913339
21
127.864906
0
LINE
8
annotation
62
1
39
211
10
350.913339
20
127.864906
11
352.674687
21
127.864906
0
LINE
8
annotation
62
1
39
211
10
352.674687
20
127.864906
11
352.674687
21
127.864906
0
LINE
8
annotation
62
1
39
211
10
352.674687
20
127.864906
11
353.307359
21
127.921707
0
LINE
8
annotation
62
1
39
211
10
353.307359
20
127.921707
11
353.902681
21
128.085455
0
LINE
8
annotation
62
1
39
211
10
353.902681
20
128.085455
11
354.450752
21
128.346167
0
LINE
8
annotation
62
1
39
211
10
354.450752
20
128.346167
11
354.941670
21
128.693859
0
LINE
8
annotation
62
1
39
211
10
354.941670
20
128.693859
11
355.365534
21
129.118547
0
LINE
8
annotation
62
1
39
211
10
355.365534
20
129.118547
11
355.712442
21
129.610249
0
LINE
8
annotation
62
1
39
211
10
355.712442
20
129.610249
11
355.972493
21
130.158981
0
LINE
8
annotation
62
1
39
211
10
355.972493
20
130.158981
11
356.135785
21
130.754760
0
LINE
8
annotation
62
1
39
211
10
356.135785
20
130.754760
11
356.192415
21
131.387602
0
LINE
8
annotation
62
1
39
211
10
356.192415
20
131.387602
11
356.192415
21
131.387602
0
LINE
8
annotation
62
1
39
211
10
356.192415
20
131.387602
11
356.135785
21
132.017487
0
LINE
8
annotation
62
1
39
211
10
356.135785
20
132.017487
11
355.972493
21
132.610963
0
LINE
8
annotation
62
1
39
211
10
355.972493
20
132.610963
11
355.712442
21
133.157964
0
LINE
8
annotation
62
1
39
211
10
355.712442
20
133.157964
11
355.365534
21
133.648426
0
LINE
8
annotation
62
1
39
211
10
355.365534
20
133.648426
11
354.941670
21
134.072283
0
LINE
8
annotation
62
1
39
211
10
354.941670
20
134.072283
11
354.450752
21
134.419471
0
LINE
8
annotation
62
1
39
211
10
354.450752
20
134.419471
11
353.902681
21
134.679923
0
LINE
8
annotation
62
1
39
211
10
353.902681
20
134.679923
11
353.307359
21
134.843576
0
LINE
8
annotation
62
1
39
211
10
353.307359
20
134.843576
11
352.674687
21
134.900364
0
LINE
8
annotation
62
1
39
211
10
352.674687
20
134.900364
11
349.156958
21
134.900364
0
LINE
8
boundary
62
5
39
2
10
389.687468
20
199.844984
11
389.687468
21
163.390878
0
LINE
8
boundary
62
5
39
2
10
389.687468
20
163.390878
11
394.142782
21
162.950778
0
LINE
8
boundary
62
5
39
2
10
394.142782
20
162.950778
11
417.157468
21
162.950778
0
LINE
8
boundary
62
5
39
2
10
417.157468
20
162.950778
11
417.157468
21
158.899778
0
LINE
8
boundary
62
5
39
2
10
417.157468
20
158.899778
11
394.142782
21
158.899778
0
LINE
8
boundary
62
5
39
2
10
394.142782
20
158.899778
11
389.687468
21
158.459678
0
LINE
8
boundary
62
5
39
2
10
389.687468
20
158.459678
11
389.687468
21
103.421116
0
LINE
8
boundary
62
5
39
2
10
389.687468
20
103.421116
11
394.142782
21
102.981016
0
LINE
8
boundary
62
5
39
2
10
394.142782
20
102.981016
11
429.304024
21
102.981016
0
LINE
8
boundary
62
5
39
2
10
429.304024
20
102.981016
11
429.304025
21
98.930016
0
LINE
8
boundary
62
5
39
2
10
429.304025
20
98.930016
11
394.142782
21
98.930016
0
LINE
8
boundary
62
5
39
2
10
394.142782
20
98.930016
11
389.687468
21
98.489916
0
LINE
8
boundary
62
5
39
2
10
389.687468
20
98.489916
11
389.687468
21
49.832374
0
LINE
8
boundary
62
5
39
2
10
389.687468
20
49.832374
11
394.142782
21
49.392274
0
LINE
8
boundary
62
5
39
2
10
394.142782
20
49.392274
11
429.239156
21
49.392274
0
LINE
8
boundary
62
5
39
2
10
429.239156
20
49.392274
11
429.239156
21
45.341274
0
LINE
8
boundary
62
5
39
2
10
429.239156
20
45.341274
11
394.142782
21
45.341274
0
LINE
8
boundary
62
5
39
2
10
394.142782
20
45.341274
11
389.687468
21
44.901174
0
LINE
8
boundary
62
5
39
2
10
389.687468
20
44.901174
11
389.687468
21
10.396021
0
LINE
8
boundary
62
5
39
2
10
389.687468
20
10.396021
11
394.142782
21
9.955921
0
LINE
8
boundary
62
5
39
2
10
394.142782
20
9.955921
11
414.247942
21
9.955921
0
LINE
8
boundary
62
5
39
2
10
414.247942
20
9.955921
11
414.247942
21
6.811450
0
LINE
8
boundary
62
5
39
2
10
414.247942
20
6.811450
11
420.793407
21
7.076327
0
LINE
8
boundary
62
5
39
2
10
420.793407
20
7.076327
11
422.247790
21
7.229207
0
LINE
8
boundary
62
5
39
2
10
422.247790
20
7.229207
11
431.669691
21
7.828488
0
LINE
8
boundary
62
5
39
2
10
431.669691
20
7.828488
11
433.150994
21
8.291678
0
LINE
8
boundary
62
5
39
2
10
433.150994
20
8.291678
11
442.454789
21
10.869119
0
LINE
8
boundary
62
5
39
2
10
442.454789
20
10.869119
11
443.877679
21
11.869314
0
LINE
8
boundary
62
5
39
2
10
443.877679
20
11.869314
11
451.618254
21
17.180537
0
LINE
8
boundary
62
5
39
2
10
451.618254
20
17.180537
11
452.538456
21
17.747436
0
LINE
8
boundary
62
5
39
2
10
452.538456
20
17.747436
11
460.280939
21
27.747911
0
LINE
8
boundary
62
5
39
2
10
460.280939
20
27.747911
11
463.554966
21
35.153409
0
LINE
8
boundary
62
5
39
2
10
463.554966
20
35.153409
11
466.924165
21
41.009397
0
LINE
8
boundary
62
5
39
2
10
466.924165
20
41.009397
11
467.703404
21
44.379079
0
LINE
8
boundary
62
5
39
2
10
467.703404
20
44.379079
11
469.002270
21
48.961960
0
LINE
8
boundary
62
5
39
2
10
469.002270
20
48.961960
11
470.801765
21
54.549881
0
LINE
8
boundary
62
5
39
2
10
470.801765
20
54.549881
11
472.102170
21
58.724430
0
LINE
8
boundary
62
5
39
2
10
472.102170
20
58.724430
11
472.470983
21
65.425538
0
LINE
8
boundary
62
5
39
2
10
472.470983
20
65.425538
11
472.762691
21
72.112552
0
LINE
8
boundary
62
5
39
2
10
472.762691
20
72.112552
11
473.238063
21
77.199948
0
LINE
8
boundary
62
5
39
2
10
473.238063
20
77.199948
11
473.304988
21
81.724175
0
LINE
8
boundary
62
5
39
2
10
473.304988
20
81.724175
11
471.912067
21
89.762708
0
LINE
8
boundary
62
5
39
2
10
471.912067
20
89.762708
11
469.555242
21
99.387970
0
LINE
8
boundary
62
5
39
2
10
469.555242
20
99.387970
11
468.633474
21
103.778264
0
LINE
8
boundary
62
5
39
2
10
468.633474
20
103.778264
11
467.810206
21
107.239351
0
LINE
8
boundary
62
5
39
2
10
467.810206
20
107.239351
11
464.855040
21
117.143493
0
LINE
8
boundary
62
5
39
2
10
464.855040
20
117.143493
11
461.503063
21
127.887150
0
LINE
8
boundary
62
5
39
2
10
461.503063
20
127.887150
11
459.221377
21
132.606784
0
LINE
8
boundary
62
5
39
2
10
459.221377
20
132.606784
11
453.525567
21
146.441643
0
LINE
8
boundary
62
5
39
2
10
453.525567
20
146.441643
11
449.952101
21
151.723094
0
LINE
8
boundary
62
5
39
2
10
449.952101
20
151.723094
11
445.506765
21
158.031563
0
LINE
8
boundary
62
5
39
2
10
445.506765
20
158.031563
11
441.812726
21
164.090959
0
LINE
8
boundary
62
5
39
2
10
441.812726
20
164.090959
11
435.273629
21
170.904815
0
LINE
8
boundary
62
5
39
2
10
435.273629
20
170.904815
11
430.612181
21
175.184315
0
LINE
8
boundary
62
5
39
2
10
430.612181
20
175.184315
11
422.895972
21
184.847384
0
LINE
8
boundary
62
5
39
2
10
422.895972
20
184.847384
11
422.933193
21
185.511750
0
LINE
8
boundary
62
5
39
2
10
422.933193
20
185.511750
11
414.027966
21
205.620669
0
LINE
8
boundary
62
5
39
2
10
414.027966
20
205.620669
11
413.611948
21
206.022879
0
LINE
8
boundary
62
5
39
2
10
413.611948
20
206.022879
11
403.255641
21
203.073683
0
LINE
8
boundary
62
5
39
2
10
403.255641
20
203.073683
11
396.494798
21
200.049293
0
LINE
8
boundary
62
5
39
2
10
396.494798
20
200.049293
11
392.801341
21
200.862139
0
LINE
8
boundary
62
5
39
2
10
392.801341
20
200.862139
11
389.687468
21
199.844984
0
LINE
8
annotation
62
1
39
211
10
416.521927
20
8.701327
11
416.521927
21
8.701327
0
LINE
8
annotation
62
1
39
211
10
416.521927
20
8.701327
11
416.423844
21
8.664552
0
LINE
8
annotation
62
1
39
211
10
416.423844
20
8.664552
11
416.333841
21
8.615002
0
LINE
8
annotation
62
1
39
211
10
416.333841
20
8.615002
11
416.252840
21
8.553918
0
LINE
8
annotation
62
1
39
211
10
416.252840
20
8.553918
11
416.181766
21
8.482543
0
LINE
8
annotation
62
1
39
211
10
416.181766
20
8.482543
11
416.121543
21
8.402116
0
LINE
8
annotation
62
1
39
211
10
416.121543
20
8.402116
11
416.073094
21
8.313881
0
LINE
8
annotation
62
1
39
211
10
416.073094
20
8.313881
11
416.037344
21
8.219078
0
LINE
8
annotation
62
1
39
211
10
416.037344
20
8.219078
11
416.015217
21
8.118949
0
LINE
8
annotation
62
1
39
211
10
416.015217
20
8.118949
11
416.007635
21
8.014734
0
LINE
8
annotation
62
1
39
211
10
416.007635
20
8.014734
11
416.007635
21
7.502280
0
LINE
8
annotation
62
1
39
211
10
416.007635
20
7.502280
11
416.007635
21
7.502280
0
LINE
8
annotation
62
1
39
211
10
416.007635
20
7.502280
11
416.013163
21
7.440689
0
LINE
8
annotation
62
1
39
211
10
416.013163
20
7.440689
11
416.029096
21
7.382711
0
LINE
8
annotation
62
1
39
211
10
416.029096
20
7.382711
11
416.054458
21
7.329317
0
LINE
8
annotation
62
1
39
211
10
416.054458
20
7.329317
11
416.088274
21
7.281475
0
LINE
8
annotation
62
1
39
211
10
416.088274
20
7.281475
11
416.129568
21
7.240156
0
LINE
8
annotation
62
1
39
211
10
416.129568
20
7.240156
11
416.177365
21
7.206331
0
LINE
8
annotation
62
1
39
211
10
416.177365
20
7.206331
11
416.230688
21
7.180969
0
LINE
8
annotation
62
1
39
211
10
416.230688
20
7.180969
11
416.288563
21
7.165041
0
LINE
8
annotation
62
1
39
211
10
416.288563
20
7.165041
11
416.350013
21
7.159516
0
LINE
8
annotation
62
1
39
211
10
416.350013
20
7.159516
11
416.350013
21
7.159516
0
LINE
8
annotation
62
1
39
211
10
416.350013
20
7.159516
11
416.411591
21
7.165041
0
LINE
8
annotation
62
1
39
211
10
416.411591
20
7.165041
11
416.469533
21
7.180969
0
LINE
8
annotation
62
1
39
211
10
416.469533
20
7.180969
11
416.522876
21
7.206331
0
LINE
8
annotation
62
1
39
211
10
416.522876
20
7.206331
11
416.570657
21
7.240156
0
LINE
8
annotation
62
1
39
211
10
416.570657
20
7.240156
11
416.611911
21
7.281475
0
LINE
8
annotation
62
1
39
211
10
416.611911
20
7.281475
11
416.645675
21
7.329317
0
LINE
8
annotation
62
1
39
211
10
416.645675
20
7.329317
11
416.670986
21
7.382711
0
LINE
8
annotation
62
1
39
211
10
416.670986
20
7.382711
11
416.686879
21
7.440689
0
LINE
8
annotation
62
1
39
211
10
416.686879
20
7.440689
11
416.692391
21
7.502280
0
LINE
8
annotation
62
1
39
211
10
416.692391
20
7.502280
11
416.692391
21
7.672840
0
LINE
8
annotation
62
1
39
211
10
416.692391
20
7.672840
11
416.692391
21
7.672840
0
LINE
8
annotation
62
1
39
211
10
416.692391
20
7.672840
11
416.686879
21
7.734401
0
LINE
8
annotation
62
1
39
211
10
416.686879
20
7.734401
11
416.670986
21
7.792299
0
LINE
8
annotation
62
1
39
211
10
416.670986
20
7.792299
11
416.645675
21
7.845578
0
LINE
8
annotation
62
1
39
211
10
416.645675
20
7.845578
11
416.611911
21
7.893282
0
LINE
8
annotation
62
1
39
211
10
416.611911
20
7.893282
11
416.570657
21
7.934456
0
LINE
8
annotation
62
1
39
211
10
416.570657
20
7.934456
11
416.522876
21
7.968144
0
LINE
8
annotation
62
1
39
211
10
416.522876
20
7.968144
11
416.469533
21
7.993391
0
LINE
8
annotation
62
1
39
211
10
416.469533
20
7.993391
11
416.411591
21
8.009239
0
LINE
8
annotation
62
1
39
211
10
416.411591
20
8.009239
11
416.350013
21
8.014734
0
LINE
8
annotation
62
1
39
211
10
416.350013
20
8.014734
11
416.007635
21
8.014734
0
LINE
8
annotation
62
1
39
211
10
415.964754
20
6.966789
11
416.735659
21
6.966789
0
LINE
8
annotation
62
1
39
211
10
438.215273
20
43.845974
11
439.780711
21
50.887574
0
LINE
8
annotation
62
1
39
211
10
439.780711
20
50.887574
11
436.649394
21
50.887574
0
LINE
8
annotation
62
1
39
211
10
439.780711
20
47.751840
11
438.215273
21
47.751840
0
LINE
8
annotation
62
1
39
211
10
436.716470
20
98.995959
11
436.716470
21
98.995959
0
LINE
8
annotation
62
1
39
211
10
436.716470
20
98.995959
11
436.741716
21
98.714804
0
LINE
8
annotation
62
1
39
211
10
436.741716
20
98.714804
11
436.814482
21
98.450380
0
LINE
8
annotation
62
1
39
211
10
436.814482
20
98.450380
11
436.930314
21
98.207049
0
LINE
8
annotation
62
1
39
211
10
436.930314
20
98.207049
11
437.084755
21
97.989179
0
LINE
8
annotation
62
1
39
211
10
437.084755
20
97.989179
11
437.273349
21
97.801133
0
LINE
8
annotation
62
1
39
211
10
437.273349
20
97.801133
11
437.491641
21
97.647276
0
LINE
8
annotation
62
1
39
211
10
437.491641
20
97.647276
11
437.735174
21
97.531975
0
LINE
8
annotation
62
1
39
211
10
437.735174
20
97.531975
11
437.999493
21
97.459592
0
LINE
8
annotation
62
1
39
211
10
437.999493
20
97.459592
11
438.280141
21
97.434495
0
LINE
8
annotation
62
1
39
211
10
438.280141
20
97.434495
11
438.280141
21
97.434495
0
LINE
8
annotation
62
1
39
211
10
438.280141
20
97.434495
11
438.560790
21
97.459592
0
LINE
8
annotation
62
1
39
211
10
438.560790
20
97.459592
11
438.825109
21
97.531975
0
LINE
8
annotation
62
1
39
211
10
438.825109
20
97.531975
11
439.068642
21
97.647276
0
LINE
8
annotation
62
1
39
211
10
439.068642
20
97.647276
11
439.286933
21
97.801133
0
LINE
8
annotation
62
1
39
211
10
439.286933
20
97.801133
11
439.475528
21
97.989179
0
LINE
8
annotation
62
1
39
211
10
439.475528
20
97.989179
11
439.629969
21
98.207049
0
LINE
8
annotation
62
1
39
211
10
439.629969
20
98.207049
11
439.745800
21
98.450380
0
LINE
8
annotation
62
1
39
211
10
439.745800
20
98.450380
11
439.818567
21
98.714804
0
LINE
8
annotation
62
1
39
211
10
439.818567
20
98.714804
11
439.843813
21
98.995959
0
LINE
8
annotation
62
1
39
211
10
439.843813
20
98.995959
11
439.843813
21
99.774924
0
LINE
8
annotation
62
1
39
211
10
439.843813
20
99.774924
11
439.843813
21
99.774924
0
LINE
8
annotation
62
1
39
211
10
439.843813
20
99.774924
11
439.818582
21
100.056215
0
LINE
8
annotation
62
1
39
211
10
439.818582
20
100.056215
11
439.745851
21
100.321005
0
LINE
8
annotation
62
1
39
211
10
439.745851
20
100.321005
11
439.630067
21
100.564864
0
LINE
8
annotation
62
1
39
211
10
439.630067
20
100.564864
11
439.475673
21
100.783361
0
LINE
8
annotation
62
1
39
211
10
439.475673
20
100.783361
11
439.287115
21
100.972067
0
LINE
8
annotation
62
1
39
211
10
439.287115
20
100.972067
11
439.068838
21
101.126550
0
LINE
8
annotation
62
1
39
211
10
439.068838
20
101.126550
11
438.825287
21
101.242381
0
LINE
8
annotation
62
1
39
211
10
438.825287
20
101.242381
11
438.560906
21
101.315128
0
LINE
8
annotation
62
1
39
211
10
438.560906
20
101.315128
11
438.280141
21
101.340362
0
LINE
8
annotation
62
1
39
211
10
438.280141
20
101.340362
11
438.280141
21
101.340362
0
LINE
8
annotation
62
1
39
211
10
438.280141
20
101.340362
11
437.999376
21
101.315114
0
LINE
8
annotation
62
1
39
211
10
437.999376
20
101.315114
11
437.734996
21
101.242330
0
LINE
8
annotation
62
1
39
211
10
437.734996
20
101.242330
11
437.491445
21
101.126452
0
LINE
8
annotation
62
1
39
211
10
437.491445
20
101.126452
11
437.273167
21
100.971922
0
LINE
8
annotation
62
1
39
211
10
437.273167
20
100.971922
11
437.084610
21
100.783180
0
LINE
8
annotation
62
1
39
211
10
437.084610
20
100.783180
11
436.930216
21
100.564668
0
LINE
8
annotation
62
1
39
211
10
436.930216
20
100.564668
11
436.814431
21
100.320827
0
LINE
8
annotation
62
1
39
211
10
436.814431
20
100.320827
11
436.741701
21
100.056098
0
LINE
8
annotation
62
1
39
211
10
436.741701
20
100.056098
11
436.716470
21
99.774924
0
LINE
8
annotation
62
1
39
211
10
436.716470
20
99.774924
11
436.716470
21
98.995959
0
LINE
8
annotation
62
1
39
211
10
439.843813
20
102.906241
11
439.843813
21
102.906241
0
LINE
8
annotation
62
1
39
211
10
439.843813
20
102.906241
11
439.818582
21
103.186233
0
LINE
8
annotation
62
1
39
211
10
439.818582
20
103.186233
11
439.745851
21
103.450040
0
LINE
8
annotation
62
1
39
211
10
439.745851
20
103.450040
11
439.630067
21
103.693188
0
LINE
8
annotation
62
1
39
211
10
439.630067
20
103.693188
11
439.475673
21
103.911204
0
LINE
8
annotation
62
1
39
211
10
439.475673
20
103.911204
11
439.287115
21
104.099614
0
LINE
8
annotation
62
1
39
211
10
439.287115
20
104.099614
11
439.068838
21
104.253942
0
LINE
8
annotation
62
1
39
211
10
439.068838
20
104.253942
11
438.825287
21
104.369717
0
LINE
8
annotation
62
1
39
211
10
438.825287
20
104.369717
11
438.560906
21
104.442462
0
LINE
8
annotation
62
1
39
211
10
438.560906
20
104.442462
11
438.280141
21
104.467705
0
LINE
8
annotation
62
1
39
211
10
438.280141
20
104.467705
11
438.280141
21
104.467705
0
LINE
8
annotation
62
1
39
211
10
438.280141
20
104.467705
11
437.999376
21
104.442462
0
LINE
8
annotation
62
1
39
211
10
437.999376
20
104.442462
11
437.734996
21
104.369717
0
LINE
8
annotation
62
1
39
211
10
437.734996
20
104.369717
11
437.491445
21
104.253942
0
LINE
8
annotation
62
1
39
211
10
437.491445
20
104.253942
11
437.273167
21
104.099614
0
LINE
8
annotation
62
1
39
211
10
437.273167
20
104.099614
11
437.084610
21
103.911204
0
LINE
8
annotation
62
1
39
211
10
437.084610
20
103.911204
11
436.930216
21
103.693188
0
LINE
8
annotation
62
1
39
211
10
436.930216
20
103.693188
11
436.814431
21
103.450040
0
LINE
8
annotation
62
1
39
211
10
436.814431
20
103.450040
11
436.741701
21
103.186233
0
LINE
8
annotation
62
1
39
211
10
436.741701
20
103.186233
11
436.716470
21
102.906241
0
LINE
8
annotation
62
1
39
211
10
436.716470
20
102.906241
11
436.716470
21
102.906241
0
LINE
8
annotation
62
1
39
211
10
436.716470
20
102.906241
11
436.741716
21
102.624936
0
LINE
8
annotation
62
1
39
211
10
436.741716
20
102.624936
11
436.814482
21
102.360105
0
LINE
8
annotation
62
1
39
211
10
436.814482
20
102.360105
11
436.930314
21
102.116187
0
LINE
8
annotation
62
1
39
211
10
436.930314
20
102.116187
11
437.084755
21
101.897620
0
LINE
8
annotation
62
1
39
211
10
437.084755
20
101.897620
11
437.273349
21
101.708841
0
LINE
8
annotation
62
1
39
211
10
437.273349
20
101.708841
11
437.491641
21
101.554288
0
LINE
8
annotation
62
1
39
211
10
437.491641
20
101.554288
11
437.735174
21
101.438399
0
LINE
8
annotation
62
1
39
211
10
437.735174
20
101.438399
11
437.999493
21
101.365611
0
LINE
8
annotation
62
1
39
211
10
437.999493
20
101.365611
11
438.280141
21
101.340362
0
LINE
8
annotation
62
1
39
211
10
438.280141
20
101.340362
11
438.280141
21
101.340362
0
LINE
8
annotation
62
1
39
211
10
438.280141
20
101.340362
11
438.560790
21
101.365611
0
LINE
8
annotation
62
1
39
211
10
438.560790
20
101.365611
11
438.825109
21
101.438399
0
LINE
8
annotation
62
1
39
211
10
438.825109
20
101.438399
11
439.068642
21
101.554288
0
LINE
8
annotation
62
1
39
211
10
439.068642
20
101.554288
11
439.286933
21
101.708841
0
LINE
8
annotation
62
1
39
211
10
439.286933
20
101.708841
11
439.475528
21
101.897620
0
LINE
8
annotation
62
1
39
211
10
439.475528
20
101.897620
11
439.629969
21
102.116187
0
LINE
8
annotation
62
1
39
211
10
439.629969
20
102.116187
11
439.745800
21
102.360105
0
LINE
8
annotation
62
1
39
211
10
439.745800
20
102.360105
11
439.818567
21
102.624936
0
LINE
8
annotation
62
1
39
211
10
439.818567
20
102.624936
11
439.843813
21
102.906241
0
LINE
8
annotation
62
1
39
211
10
425.350645
20
157.404478
11
425.350645
21
157.404478
0
LINE
8
annotation
62
1
39
211
10
425.350645
20
157.404478
11
425.797809
21
157.571113
0
LINE
8
annotation
62
1
39
211
10
425.797809
20
157.571113
11
426.208250
21
157.796351
0
LINE
8
annotation
62
1
39
211
10
426.208250
20
157.796351
11
426.577726
21
158.074452
0
LINE
8
annotation
62
1
39
211
10
426.577726
20
158.074452
11
426.901997
21
158.399678
0
LINE
8
annotation
62
1
39
211
10
426.901997
20
158.399678
11
427.176821
21
158.766290
0
LINE
8
annotation
62
1
39
211
10
427.176821
20
158.766290
11
427.397956
21
159.168550
0
LINE
8
annotation
62
1
39
211
10
427.397956
20
159.168550
11
427.561161
21
159.600717
0
LINE
8
annotation
62
1
39
211
10
427.561161
20
159.600717
11
427.662194
21
160.057054
0
LINE
8
annotation
62
1
39
211
10
427.662194
20
160.057054
11
427.696814
21
160.531821
0
LINE
8
annotation
62
1
39
211
10
427.696814
20
160.531821
11
427.696814
21
162.880198
0
LINE
8
annotation
62
1
39
211
10
427.696814
20
162.880198
11
427.696814
21
162.880198
0
LINE
8
annotation
62
1
39
211
10
427.696814
20
162.880198
11
427.671641
21
163.161504
0
LINE
8
annotation
62
1
39
211
10
427.671641
20
163.161504
11
427.599056
21
163.426335
0
LINE
8
annotation
62
1
39
211
10
427.599056
20
163.426335
11
427.483461
21
163.670253
0
LINE
8
annotation
62
1
39
211
10
427.483461
20
163.670253
11
427.329256
21
163.888820
0
LINE
8
annotation
62
1
39
211
10
427.329256
20
163.888820
11
427.140844
21
164.077599
0
LINE
8
annotation
62
1
39
211
10
427.140844
20
164.077599
11
426.922625
21
164.232152
0
LINE
8
annotation
62
1
39
211
10
426.922625
20
164.232152
11
426.679001
21
164.348041
0
LINE
8
annotation
62
1
39
211
10
426.679001
20
164.348041
11
426.414373
21
164.420829
0
LINE
8
annotation
62
1
39
211
10
426.414373
20
164.420829
11
426.133143
21
164.446078
0
LINE
8
annotation
62
1
39
211
10
426.133143
20
164.446078
11
426.133143
21
164.446078
0
LINE
8
annotation
62
1
39
211
10
426.133143
20
164.446078
11
425.852494
21
164.420829
0
LINE
8
annotation
62
1
39
211
10
425.852494
20
164.420829
11
425.588176
21
164.348041
0
LINE
8
annotation
62
1
39
211
10
425.588176
20
164.348041
11
425.344642
21
164.232152
0
LINE
8
annotation
62
1
39
211
10
425.344642
20
164.232152
11
425.126351
21
164.077599
0
LINE
8
annotation
62
1
39
211
10
425.126351
20
164.077599
11
424.937757
21
163.888820
0
LINE
8
annotation
62
1
39
211
10
424.937757
20
163.888820
11
424.783316
21
163.670253
0
LINE
8
annotation
62
1
39
211
10
424.783316
20
163.670253
11
424.667484
21
163.426335
0
LINE
8
annotation
62
1
39
211
10
424.667484
20
163.426335
11
424.594717
21
163.161504
0
LINE
8
annotation
62
1
39
211
10
424.594717
20
163.161504
11
424.569471
21
162.880198
0
LINE
8
annotation
62
1
39
211
10
424.569471
20
162.880198
11
424.569471
21
162.097259
0
LINE
8
annotation
62
1
39
211
10
424.569471
20
162.097259
11
424.569471
21
162.097259
0
LINE
8
annotation
62
1
39
211
10
424.569471
20
162.097259
11
424.594717
21
161.815968
0
LINE
8
annotation
62
1
39
211
10
424.594717
20
161.815968
11
424.667484
21
161.551178
0
LINE
8
annotation
62
1
39
211
10
424.667484
20
161.551178
11
424.783316
21
161.307319
0
LINE
8
annotation
62
1
39
211
10
424.783316
20
161.307319
11
424.937757
21
161.088821
0
LINE
8
annotation
62
1
39
211
10
424.937757
20
161.088821
11
425.126351
21
160.900116
0
LINE
8
annotation
62
1
39
211
10
425.126351
20
160.900116
11
425.344642
21
160.745632
0
LINE
8
annotation
62
1
39
211
10
425.344642
20
160.745632
11
425.588176
21
160.629802
0
LINE
8
annotation
62
1
39
211
10
425.588176
20
160.629802
11
425.852494
21
160.557054
0
LINE
8
annotation
62
1
39
211
10
425.852494
20
160.557054
11
426.133143
21
160.531821
0
LINE
8
annotation
62
1
39
211
10
426.133143
20
160.531821
11
427.696814
21
160.531821
0
LINE
8
annotation
62
1
39
211
10
424.374068
20
156.524278
11
427.894868
21
156.524278
0
LINE
8
annotation
62
1
39
211
10
416.816180
20
82.856857
11
409.635788
21
72.471078
0
LINE
8
annotation
62
1
39
211
10
409.635788
20
72.471078
11
402.454046
21
82.856857
0
LINE
8
annotation
62
1
39
211
10
409.635788
20
73.306855
11
409.635788
21
61.325133
0
LINE
8
annotation
62
1
39
211
10
436.665211
20
72.090995
11
424.892771
21
72.090995
0
LINE
8
annotation
62
1
39
211
10
454.300855
20
61.325633
11
444.738701
21
61.325633
0
LINE
8
annotation
62
1
39
211
10
444.738701
20
61.325633
11
453.574444
21
75.550046
0
LINE
8
annotation
62
1
39
211
10
453.574444
20
75.550046
11
453.574444
21
75.550046
0
LINE
8
annotation
62
1
39
211
10
453.574444
20
75.550046
11
453.585007
21
75.563117
0
LINE
8
annotation
62
1
39
211
10
453.585007
20
75.563117
11
453.595136
21
75.576298
0
LINE
8
annotation
62
1
39
211
10
453.595136
20
75.576298
11
453.604899
21
75.589702
0
LINE
8
annotation
62
1
39
211
10
453.604899
20
75.589702
11
453.614361
21
75.603439
0
LINE
8
annotation
62
1
39
211
10
453.614361
20
75.603439
11
453.623591
21
75.617621
0
LINE
8
annotation
62
1
39
211
10
453.623591
20
75.617621
11
453.632653
21
75.632359
0
LINE
8
annotation
62
1
39
211
10
453.632653
20
75.632359
11
453.641615
21
75.647763
0
LINE
8
annotation
62
1
39
211
10
453.641615
20
75.647763
11
453.650545
21
75.663945
0
LINE
8
annotation
62
1
39
211
10
453.650545
20
75.663945
11
453.659507
21
75.681016
0
LINE
8
annotation
62
1
39
211
10
453.659507
20
75.681016
11
453.659507
21
75.681016
0
LINE
8
annotation
62
1
39
211
10
453.659507
20
75.681016
11
454.024333
21
76.464328
0
LINE
8
annotation
62
1
39
211
10
454.024333
20
76.464328
11
454.237458
21
77.276299
0
LINE
8
annotation
62
1
39
211
10
454.237458
20
77.276299
11
454.304105
21
78.098584
0
LINE
8
annotation
62
1
39
211
10
454.304105
20
78.098584
11
454.229497
21
78.912833
0
LINE
8
annotation
62
1
39
211
10
454.229497
20
78.912833
11
454.018858
21
79.700701
0
LINE
8
annotation
62
1
39
211
10
454.018858
20
79.700701
11
453.677410
21
80.443840
0
LINE
8
annotation
62
1
39
211
10
453.677410
20
80.443840
11
453.210376
21
81.123903
0
LINE
8
annotation
62
1
39
211
10
453.210376
20
81.123903
11
452.622979
21
81.722542
0
LINE
8
annotation
62
1
39
211
10
452.622979
20
81.722542
11
451.920443
21
82.221410
0
LINE
8
annotation
62
1
39
211
10
451.920443
20
82.221410
11
451.920443
21
82.221410
0
LINE
8
annotation
62
1
39
211
10
451.920443
20
82.221410
11
451.134953
21
82.581052
0
LINE
8
annotation
62
1
39
211
10
451.134953
20
82.581052
11
450.321737
21
82.790893
0
LINE
8
annotation
62
1
39
211
10
450.321737
20
82.790893
11
449.498974
21
82.855657
0
LINE
8
annotation
62
1
39
211
10
449.498974
20
82.855657
11
448.684847
21
82.780066
0
LINE
8
annotation
62
1
39
211
10
448.684847
20
82.780066
11
447.897535
21
82.568843
0
LINE
8
annotation
62
1
39
211
10
447.897535
20
82.568843
11
447.155218
21
82.226711
0
LINE
8
annotation
62
1
39
211
10
447.155218
20
82.226711
11
446.476078
21
81.758394
0
LINE
8
annotation
62
1
39
211
10
446.476078
20
81.758394
11
445.878294
21
81.168613
0
LINE
8
annotation
62
1
39
211
10
445.878294
20
81.168613
11
445.380048
21
80.462093
0
LINE
8
annotation
62
1
39
211
10
445.380048
20
80.462093
11
444.752203
21
79.257710
0
LINE
8
boundary
62
5
39
2
10
78.655436
20
277.359959
11
80.321727
21
277.481200
0
LINE
8
boundary
62
5
39
2
10
80.321727
20
277.481200
11
86.672652
21
277.661712
0
LINE
8
boundary
62
5
39
2
10
86.672652
20
277.661712
11
90.669279
21
277.650513
0
LINE
8
boundary
62
5
39
2
10
90.669279
20
277.650513
11
94.574437
21
278.289328
0
LINE
8
boundary
62
5
39
2
10
94.574437
20
278.289328
11
103.187657
21
278.522036
0
LINE
8
boundary
62
5
39
2
10
103.187657
20
278.522036
11
104.002250
21
278.361137
0
LINE
8
boundary
62
5
39
2
10
104.002250
20
278.361137
11
113.916067
21
277.024382
0
LINE
8
boundary
62
5
39
2
10
113.916067
20
277.024382
11
119.388886
21
275.382740
0
LINE
8
boundary
62
5
39
2
10
119.388886
20
275.382740
11
125.543281
21
273.132081
0
LINE
8
boundary
62
5
39
2
10
125.543281
20
273.132081
11
132.394464
21
269.935045
0
LINE
8
boundary
62
5
39
2
10
132.394464
20
269.935045
11
143.778004
21
265.287394
0
LINE
8
boundary
62
5
39
2
10
143.778004
20
265.287394
11
144.350908
21
265.018810
0
LINE
8
boundary
62
5
39
2
10
144.350908
20
265.018810
11
145.763727
21
264.241198
0
LINE
8
boundary
62
5
39
2
10
145.763727
20
264.241198
11
156.866767
21
260.642186
0
LINE
8
boundary
62
5
39
2
10
156.866767
20
260.642186
11
174.590282
21
259.283798
0
LINE
8
boundary
62
5
39
2
10
174.590282
20
259.283798
11
177.792364
21
259.106811
0
LINE
8
boundary
62
5
39
2
10
177.792364
20
259.106811
11
199.664372
21
262.344819
0
LINE
8
boundary
62
5
39
2
10
199.664372
20
262.344819
11
204.405839
21
266.464579
0
LINE
8
boundary
62
5
39
2
10
204.405839
20
266.464579
11
208.019848
21
271.270536
0
LINE
8
boundary
62
5
39
2
10
208.019848
20
271.270536
11
209.476927
21
274.418643
0
LINE
8
boundary
62
5
39
2
10
209.476927
20
274.418643
11
213.952453
21
277.605547
0
LINE
8
boundary
62
5
39
2
10
213.952453
20
277.605547
11
215.163362
21
281.338716
0
LINE
8
boundary
62
5
39
2
10
215.163362
20
281.338716
11
218.518705
21
284.941615
0
LINE
8
boundary
62
5
39
2
10
218.518705
20
284.941615
11
221.859405
21
289.305509
0
LINE
8
boundary
62
5
39
2
10
221.859405
20
289.305509
11
226.834799
21
294.608821
0
LINE
8
boundary
62
5
39
2
10
226.834799
20
294.608821
11
227.936101
21
298.765001
0
LINE
8
boundary
62
5
39
2
10
227.936101
20
298.765001
11
231.309608
21
304.055365
0
LINE
8
boundary
62
5
39
2
10
231.309608
20
304.055365
11
233.222457
21
307.088668
0
LINE
8
boundary
62
5
39
2
10
233.222457
20
307.088668
11
234.783483
21
309.035602
0
LINE
8
boundary
62
5
39
2
10
234.783483
20
309.035602
11
236.872620
21
316.183807
0
LINE
8
boundary
62
5
39
2
10
236.872620
20
316.183807
11
241.016338
21
320.257956
0
LINE
8
boundary
62
5
39
2
10
241.016338
20
320.257956
11
241.742966
21
321.863769
0
LINE
8
boundary
62
5
39
2
10
241.742966
20
321.863769
11
245.419923
21
324.443924
0
LINE
8
boundary
62
5
39
2
10
245.419923
20
324.443924
11
247.133022
21
326.662447
0
LINE
8
boundary
62
5
39
2
10
247.133022
20
326.662447
11
248.451885
21
327.840428
0
LINE
8
boundary
62
5
39
2
10
248.451885
20
327.840428
11
250.278384
21
333.233576
0
LINE
8
boundary
62
5
39
2
10
250.278384
20
333.233576
11
257.623511
21
338.349164
0
LINE
8
boundary
62
5
39
2
10
257.623511
20
338.349164
11
259.413220
21
341.157949
0
LINE
8
boundary
62
5
39
2
10
259.413220
20
341.157949
11
261.461081
21
343.655770
0
LINE
8
boundary
62
5
39
2
10
261.461081
20
343.655770
11
263.125392
21
345.720248
0
LINE
8
boundary
62
5
39
2
10
263.125392
20
345.720248
11
264.224930
21
345.687306
0
LINE
8
boundary
62
5
39
2
10
264.224930
20
345.687306
11
268.406462
21
347.952654
0
LINE
8
boundary
62
5
39
2
10
268.406462
20
347.952654
11
276.834147
21
348.834662
0
LINE
8
boundary
62
5
39
2
10
276.834147
20
348.834662
11
277.866669
21
353.936306
0
LINE
8
boundary
62
5
39
2
10
277.866669
20
353.936306
11
276.323679
21
367.440392
0
LINE
8
boundary
62
5
39
2
10
276.323679
20
367.440392
11
276.529736
21
405.708224
0
LINE
8
boundary
62
5
39
2
10
276.529736
20
405.708224
11
276.541180
21
410.016106
0
LINE
8
boundary
62
5
39
2
10
276.541180
20
410.016106
11
277.152489
21
410.873404
0
LINE
8
boundary
62
5
39
2
10
277.152489
20
410.873404
11
268.220793
21
408.496674
0
LINE
8
boundary
62
5
39
2
10
268.220793
20
408.496674
11
264.610318
21
407.530974
0
LINE
8
boundary
62
5
39
2
10
264.610318
20
407.530974
11
262.749373
21
407.290076
0
LINE
8
boundary
62
5
39
2
10
262.749373
20
407.290076
11
250.963137
21
405.094143
0
LINE
8
boundary
62
5
39
2
10
250.963137
20
405.094143
11
243.442285
21
404.309188
0
LINE
8
boundary
62
5
39
2
10
243.442285
20
404.309188
11
236.581720
21
403.491416
0
LINE
8
boundary
62
5
39
2
10
236.581720
20
403.491416
11
226.884157
21
402.656909
0
LINE
8
boundary
62
5
39
2
10
226.884157
20
402.656909
11
225.677086
21
398.345704
0
LINE
8
boundary
62
5
39
2
10
225.677086
20
398.345704
11
213.967338
21
331.936422
0
LINE
8
boundary
62
5
39
2
10
213.967338
20
331.936422
11
209.977882
21
332.639871
0
LINE
8
boundary
62
5
39
2
10
209.977882
20
332.639871
11
221.389432
21
397.357988
0
LINE
8
boundary
62
5
39
2
10
221.389432
20
397.357988
11
221.729675
21
401.822038
0
LINE
8
boundary
62
5
39
2
10
221.729675
20
401.822038
11
221.189522
21
401.702775
0
LINE
8
boundary
62
5
39
2
10
221.189522
20
401.702775
11
212.040715
21
400.158556
0
LINE
8
boundary
62
5
39
2
10
212.040715
20
400.158556
11
204.841971
21
398.517373
0
LINE
8
boundary
62
5
39
2
10
204.841971
20
398.517373
11
202.646022
21
397.769417
0
LINE
8
boundary
62
5
39
2
10
202.646022
20
397.769417
11
188.813142
21
392.497615
0
LINE
8
boundary
62
5
39
2
10
188.813142
20
392.497615
11
183.586656
21
390.268114
0
LINE
8
boundary
62
5
39
2
10
183.586656
20
390.268114
11
174.075024
21
385.375916
0
LINE
8
boundary
62
5
39
2
10
174.075024
20
385.375916
11
167.506046
21
382.205825
0
LINE
8
boundary
62
5
39
2
10
167.506046
20
382.205825
11
159.791066
21
377.470445
0
LINE
8
boundary
62
5
39
2
10
159.791066
20
377.470445
11
149.194195
21
372.574773
0
LINE
8
boundary
62
5
39
2
10
149.194195
20
372.574773
11
143.805267
21
368.013249
0
LINE
8
boundary
62
5
39
2
10
143.805267
20
368.013249
11
144.357992
21
363.570501
0
LINE
8
boundary
62
5
39
2
10
144.357992
20
363.570501
11
155.577681
21
313.918906
0
LINE
8
boundary
62
5
39
2
10
155.577681
20
313.918906
11
151.626307
21
313.026020
0
LINE
8
boundary
62
5
39
2
10
151.626307
20
313.026020
11
140.601696
21
361.814316
0
LINE
8
boundary
62
5
39
2
10
140.601696
20
361.814316
11
139.190418
21
366.063059
0
LINE
8
boundary
62
5
39
2
10
139.190418
20
366.063059
11
126.342378
21
361.669669
0
LINE
8
boundary
62
5
39
2
10
126.342378
20
361.669669
11
122.760398
21
359.261833
0
LINE
8
boundary
62
5
39
2
10
122.760398
20
359.261833
11
120.750089
21
360.594769
0
LINE
8
boundary
62
5
39
2
10
120.750089
20
360.594769
11
120.239817
21
361.255184
0
LINE
8
boundary
62
5
39
2
10
120.239817
20
361.255184
11
113.549566
21
365.726763
0
LINE
8
boundary
62
5
39
2
10
113.549566
20
365.726763
11
107.253814
21
368.890609
0
LINE
8
boundary
62
5
39
2
10
107.253814
20
368.890609
11
104.136430
21
370.168176
0
LINE
8
boundary
62
5
39
2
10
104.136430
20
370.168176
11
100.156387
21
370.768568
0
LINE
8
boundary
62
5
39
2
10
100.156387
20
370.768568
11
92.243769
21
372.980841
0
LINE
8
boundary
62
5
39
2
10
92.243769
20
372.980841
11
81.627671
21
374.297750
0
LINE
8
boundary
62
5
39
2
10
81.627671
20
374.297750
11
80.102313
21
374.898008
0
LINE
8
boundary
62
5
39
2
10
80.102313
20
374.898008
11
79.043692
21
375.167922
0
LINE
8
boundary
62
5
39
2
10
79.043692
20
375.167922
11
71.977451
21
374.995505
0
LINE
8
boundary
62
5
39
2
10
71.977451
20
374.995505
11
65.342481
21
375.615952
0
LINE
8
boundary
62
5
39
2
10
65.342481
20
375.615952
11
63.969505
21
375.399139
0
LINE
8
boundary
62
5
39
2
10
63.969505
20
375.399139
11
61.278332
21
374.999651
0
LINE
8
boundary
62
5
39
2
10
61.278332
20
374.999651
11
63.297992
21
371.004092
0
LINE
8
boundary
62
5
39
2
10
63.297992
20
371.004092
11
92.710711
21
324.758710
0
LINE
8
boundary
62
5
39
2
10
92.710711
20
324.758710
11
89.292497
21
322.584678
0
LINE
8
boundary
62
5
39
2
10
89.292497
20
322.584678
11
58.584995
21
370.865838
0
LINE
8
boundary
62
5
39
2
10
58.584995
20
370.865838
11
55.822627
21
374.389023
0
LINE
8
boundary
62
5
39
2
10
55.822627
20
374.389023
11
53.866840
21
374.451540
0
LINE
8
boundary
62
5
39
2
10
53.866840
20
374.451540
11
49.701330
21
373.669252
0
LINE
8
boundary
62
5
39
2
10
49.701330
20
373.669252
11
45.721505
21
372.931525
0
LINE
8
boundary
62
5
39
2
10
45.721505
20
372.931525
11
43.163628
21
372.082480
0
LINE
8
boundary
62
5
39
2
10
43.163628
20
372.082480
11
37.999104
21
370.242533
0
LINE
8
boundary
62
5
39
2
10
37.999104
20
370.242533
11
31.007290
21
368.005941
0
LINE
8
boundary
62
5
39
2
10
31.007290
20
368.005941
11
30.427989
21
367.815654
0
LINE
8
boundary
62
5
39
2
10
30.427989
20
367.815654
11
24.351379
21
364.715042
0
LINE
8
boundary
62
5
39
2
10
24.351379
20
364.715042
11
17.707447
21
358.937503
0
LINE
8
boundary
62
5
39
2
10
17.707447
20
358.937503
11
17.086073
21
358.547596
0
LINE
8
boundary
62
5
39
2
10
17.086073
20
358.547596
11
12.555353
21
353.853915
0
LINE
8
boundary
62
5
39
2
10
12.555353
20
353.853915
11
11.310393
21
352.325647
0
LINE
8
boundary
62
5
39
2
10
11.310393
20
352.325647
11
9.064851
21
348.837433
0
LINE
8
boundary
62
5
39
2
10
9.064851
20
348.837433
11
7.972516
21
345.695462
0
LINE
8
boundary
62
5
39
2
10
7.972516
20
345.695462
11
7.475258
21
342.845204
0
LINE
8
boundary
62
5
39
2
10
7.475258
20
342.845204
11
7.306771
21
337.958446
0
LINE
8
boundary
62
5
39
2
10
7.306771
20
337.958446
11
10.339126
21
334.664766
0
LINE
8
boundary
62
5
39
2
10
10.339126
20
334.664766
11
41.607776
21
306.781825
0
LINE
8
boundary
62
5
39
2
10
41.607776
20
306.781825
11
38.911657
21
303.758326
0
LINE
8
boundary
62
5
39
2
10
38.911657
20
303.758326
11
10.736571
21
328.882669
0
LINE
8
boundary
62
5
39
2
10
10.736571
20
328.882669
11
7.118403
21
331.519405
0
LINE
8
boundary
62
5
39
2
10
7.118403
20
331.519405
11
7.026887
21
329.676510
0
LINE
8
boundary
62
5
39
2
10
7.026887
20
329.676510
11
7.080244
21
327.763740
0
LINE
8
boundary
62
5
39
2
10
7.080244
20
327.763740
11
6.968519
21
323.627772
0
LINE
8
boundary
62
5
39
2
10
6.968519
20
323.627772
11
6.687500
21
320.609774
0
LINE
8
boundary
62
5
39
2
10
6.687500
20
320.609774
11
7.276468
21
318.434793
0
LINE
8
boundary
62
5
39
2
10
7.276468
20
318.434793
11
7.906426
21
314.697363
0
LINE
8
boundary
62
5
39
2
10
7.906426
20
314.697363
11
10.468375
21
309.386512
0
LINE
8
boundary
62
5
39
2
10
10.468375
20
309.386512
11
10.806668
21
308.706430
0
LINE
8
boundary
62
5
39
2
10
10.806668
20
308.706430
11
13.549307
21
304.589915
0
LINE
8
boundary
62
5
39
2
10
13.549307
20
304.589915
11
14.347215
21
303.233028
0
LINE
8
boundary
62
5
39
2
10
14.347215
20
303.233028
11
18.076286
21
298.140786
0
LINE
8
boundary
62
5
39
2
10
18.076286
20
298.140786
11
18.652138
21
297.459293
0
LINE
8
boundary
62
5
39
2
10
18.652138
20
297.459293
11
21.910537
21
293.732705
0
LINE
8
boundary
62
5
39
2
10
21.910537
20
293.732705
11
23.280829
21
292.672156
0
LINE
8
boundary
62
5
39
2
10
23.280829
20
292.672156
11
27.087187
21
289.711475
0
LINE
8
boundary
62
5
39
2
10
27.087187
20
289.711475
11
29.238527
21
288.299643
0
LINE
8
boundary
62
5
39
2
10
29.238527
20
288.299643
11
32.907316
21
286.266129
0
LINE
8
boundary
62
5
39
2
10
32.907316
20
286.266129
11
36.673090
21
284.010513
0
LINE
8
boundary
62
5
39
2
10
36.673090
20
284.010513
11
39.455892
21
282.652534
0
LINE
8
boundary
62
5
39
2
10
39.455892
20
282.652534
11
46.141426
21
281.072440
0
LINE
8
boundary
62
5
39
2
10
46.141426
20
281.072440
11
46.933903
21
280.830896
0
LINE
8
boundary
62
5
39
2
10
46.933903
20
280.830896
11
49.763977
21
279.985426
0
LINE
8
boundary
62
5
39
2
10
49.763977
20
279.985426
11
54.885962
21
277.906032
0
LINE
8
boundary
62
5
39
2
10
54.885962
20
277.906032
11
58.458246
21
277.211656
0
LINE
8
boundary
62
5
39
2
10
58.458246
20
277.211656
11
63.244659
21
276.293570
0
LINE
8
boundary
62
5
39
2
10
63.244659
20
276.293570
11
70.414507
21
276.514355
0
LINE
8
boundary
62
5
39
2
10
70.414507
20
276.514355
11
72.007476
21
276.502529
0
LINE
8
boundary
62
5
39
2
10
72.007476
20
276.502529
11
78.655436
21
277.359959
0
LINE
8
annotation
62
1
39
211
10
213.609399
20
321.295362
11
213.880928
21
322.835277
0
LINE
8
annotation
62
1
39
211
10
213.880928
20
322.835277
11
213.880928
21
322.835277
0
LINE
8
annotation
62
1
39
211
10
213.880928
20
322.835277
11
213.904812
21
323.116044
0
LINE
8
annotation
62
1
39
211
10
213.904812
20
323.116044
11
213.879068
21
323.388980
0
LINE
8
annotation
62
1
39
211
10
213.879068
20
323.388980
11
213.807286
21
323.648927
0
LINE
8
annotation
62
1
39
211
10
213.807286
20
323.648927
11
213.693056
21
323.890728
0
LINE
8
annotation
62
1
39
211
10
213.693056
20
323.890728
11
213.539966
21
324.109225
0
LINE
8
annotation
62
1
39
211
10
213.539966
20
324.109225
11
213.351606
21
324.299262
0
LINE
8
annotation
62
1
39
211
10
213.351606
20
324.299262
11
213.131566
21
324.455679
0
LINE
8
annotation
62
1
39
211
10
213.131566
20
324.455679
11
212.883435
21
324.573321
0
LINE
8
annotation
62
1
39
211
10
212.883435
20
324.573321
11
212.610801
21
324.647029
0
LINE
8
annotation
62
1
39
211
10
212.610801
20
324.647029
11
211.843670
21
324.782295
0
LINE
8
annotation
62
1
39
211
10
211.843670
20
324.782295
11
211.843670
21
324.782295
0
LINE
8
annotation
62
1
39
211
10
211.843670
20
324.782295
11
211.562406
21
324.806269
0
LINE
8
annotation
62
1
39
211
10
211.562406
20
324.806269
11
211.289369
21
324.780560
0
LINE
8
annotation
62
1
39
211
10
211.289369
20
324.780560
11
211.029629
21
324.708789
0
LINE
8
annotation
62
1
39
211
10
211.029629
20
324.708789
11
210.788258
21
324.594573
0
LINE
8
annotation
62
1
39
211
10
210.788258
20
324.594573
11
210.570327
21
324.441534
0
LINE
8
annotation
62
1
39
211
10
210.570327
20
324.441534
11
210.380904
21
324.253290
0
LINE
8
annotation
62
1
39
211
10
210.380904
20
324.253290
11
210.225062
21
324.033460
0
LINE
8
annotation
62
1
39
211
10
210.225062
20
324.033460
11
210.107870
21
323.785665
0
LINE
8
annotation
62
1
39
211
10
210.107870
20
323.785665
11
210.034400
21
323.513524
0
LINE
8
annotation
62
1
39
211
10
210.034400
20
323.513524
11
209.762871
21
321.973608
0
LINE
8
annotation
62
1
39
211
10
209.762871
20
321.973608
11
206.674777
21
322.518123
0
LINE
8
annotation
62
1
39
211
10
206.674777
20
322.518123
11
207.217834
21
325.597954
0
LINE
8
annotation
62
1
39
211
10
151.973551
20
304.705187
11
151.973551
21
304.705187
0
LINE
8
annotation
62
1
39
211
10
151.973551
20
304.705187
11
152.236110
21
304.305270
0
LINE
8
annotation
62
1
39
211
10
152.236110
20
304.305270
11
152.547445
21
303.954203
0
LINE
8
annotation
62
1
39
211
10
152.547445
20
303.954203
11
152.901097
21
303.654852
0
LINE
8
annotation
62
1
39
211
10
152.901097
20
303.654852
11
153.290605
21
303.410083
0
LINE
8
annotation
62
1
39
211
10
153.290605
20
303.410083
11
153.709509
21
303.222762
0
LINE
8
annotation
62
1
39
211
10
153.709509
20
303.222762
11
154.151348
21
303.095755
0
LINE
8
annotation
62
1
39
211
10
154.151348
20
303.095755
11
154.609662
21
303.031929
0
LINE
8
annotation
62
1
39
211
10
154.609662
20
303.031929
11
155.077991
21
303.034149
0
LINE
8
annotation
62
1
39
211
10
155.077991
20
303.034149
11
155.549874
21
303.105283
0
LINE
8
annotation
62
1
39
211
10
155.549874
20
303.105283
11
157.832744
21
303.621140
0
LINE
8
annotation
62
1
39
211
10
157.832744
20
303.621140
11
157.832744
21
303.621140
0
LINE
8
annotation
62
1
39
211
10
157.832744
20
303.621140
11
158.101553
21
303.707764
0
LINE
8
annotation
62
1
39
211
10
158.101553
20
303.707764
11
158.343792
21
303.837104
0
LINE
8
annotation
62
1
39
211
10
158.343792
20
303.837104
11
158.556124
21
304.003836
0
LINE
8
annotation
62
1
39
211
10
158.556124
20
304.003836
11
158.735207
21
304.202638
0
LINE
8
annotation
62
1
39
211
10
158.735207
20
304.202638
11
158.877704
21
304.428187
0
LINE
8
annotation
62
1
39
211
10
158.877704
20
304.428187
11
158.980274
21
304.675160
0
LINE
8
annotation
62
1
39
211
10
158.980274
20
304.675160
11
159.039579
21
304.938235
0
LINE
8
annotation
62
1
39
211
10
159.039579
20
304.938235
11
159.052278
21
305.212087
0
LINE
8
annotation
62
1
39
211
10
159.052278
20
305.212087
11
159.015033
21
305.491396
0
LINE
8
annotation
62
1
39
211
10
159.015033
20
305.491396
11
159.015033
21
305.491396
0
LINE
8
annotation
62
1
39
211
10
159.015033
20
305.491396
11
158.928434
21
305.760148
0
LINE
8
annotation
62
1
39
211
10
158.928434
20
305.760148
11
158.799149
21
306.002233
0
LINE
8
annotation
62
1
39
211
10
158.799149
20
306.002233
11
158.632469
21
306.214335
0
LINE
8
annotation
62
1
39
211
10
158.632469
20
306.214335
11
158.433687
21
306.393138
0
LINE
8
annotation
62
1
39
211
10
158.433687
20
306.393138
11
158.208094
21
306.535324
0
LINE
8
annotation
62
1
39
211
10
158.208094
20
306.535324
11
157.960982
21
306.637577
0
LINE
8
annotation
62
1
39
211
10
157.960982
20
306.637577
11
157.697641
21
306.696580
0
LINE
8
annotation
62
1
39
211
10
157.697641
20
306.696580
11
157.423365
21
306.709018
0
LINE
8
annotation
62
1
39
211
10
157.423365
20
306.709018
11
157.143443
21
306.671572
0
LINE
8
annotation
62
1
39
211
10
157.143443
20
306.671572
11
156.383635
21
306.499879
0
LINE
8
annotation
62
1
39
211
10
156.383635
20
306.499879
11
156.383635
21
306.499879
0
LINE
8
annotation
62
1
39
211
10
156.383635
20
306.499879
11
156.114943
21
306.413356
0
LINE
8
annotation
62
1
39
211
10
156.114943
20
306.413356
11
155.873020
21
306.284274
0
LINE
8
annotation
62
1
39
211
10
155.873020
20
306.284274
11
155.661153
21
306.117888
0
LINE
8
annotation
62
1
39
211
10
155.661153
20
306.117888
11
155.482629
21
305.919455
0
LINE
8
annotation
62
1
39
211
10
155.482629
20
305.919455
11
155.340735
21
305.694229
0
LINE
8
annotation
62
1
39
211
10
155.340735
20
305.694229
11
155.238761
21
305.447465
0
LINE
8
annotation
62
1
39
211
10
155.238761
20
305.447465
11
155.179992
21
305.184418
0
LINE
8
annotation
62
1
39
211
10
155.179992
20
305.184418
11
155.167717
21
304.910345
0
LINE
8
annotation
62
1
39
211
10
155.167717
20
304.910345
11
155.205223
21
304.630499
0
LINE
8
annotation
62
1
39
211
10
155.205223
20
304.630499
11
155.549874
21
303.105283
0
LINE
8
annotation
62
1
39
211
10
160.261403
20
303.969157
11
159.485380
21
307.403370
0
LINE
8
annotation
62
1
39
211
10
98.790559
20
317.985694
11
92.008775
21
315.527618
0
LINE
8
annotation
62
1
39
211
10
92.008775
20
315.527618
11
93.689245
21
312.885428
0
LINE
8
annotation
62
1
39
211
10
94.654691
20
317.210458
11
95.494808
21
315.889549
0
LINE
8
annotation
62
1
39
211
10
49.431666
20
299.716737
11
49.431666
21
299.716737
0
LINE
8
annotation
62
1
39
211
10
49.431666
20
299.716737
11
49.599945
21
299.943381
0
LINE
8
annotation
62
1
39
211
10
49.599945
20
299.943381
11
49.721621
21
300.189166
0
LINE
8
annotation
62
1
39
211
10
49.721621
20
300.189166
11
49.797116
21
300.447869
0
LINE
8
annotation
62
1
39
211
10
49.797116
20
300.447869
11
49.826850
21
300.713266
0
LINE
8
annotation
62
1
39
211
10
49.826850
20
300.713266
11
49.811244
21
300.979133
0
LINE
8
annotation
62
1
39
211
10
49.811244
20
300.979133
11
49.750719
21
301.239248
0
LINE
8
annotation
62
1
39
211
10
49.750719
20
301.239248
11
49.645694
21
301.487386
0
LINE
8
annotation
62
1
39
211
10
49.645694
20
301.487386
11
49.496591
21
301.717325
0
LINE
8
annotation
62
1
39
211
10
49.496591
20
301.717325
11
49.303830
21
301.922841
0
LINE
8
annotation
62
1
39
211
10
49.303830
20
301.922841
11
49.303830
21
301.922841
0
LINE
8
annotation
62
1
39
211
10
49.303830
20
301.922841
11
49.077662
21
302.090893
0
LINE
8
annotation
62
1
39
211
10
49.077662
20
302.090893
11
48.832212
21
302.212786
0
LINE
8
annotation
62
1
39
211
10
48.832212
20
302.212786
11
48.573711
21
302.288812
0
LINE
8
annotation
62
1
39
211
10
48.573711
20
302.288812
11
48.308389
21
302.319263
0
LINE
8
annotation
62
1
39
211
10
48.308389
20
302.319263
11
48.042477
21
302.304431
0
LINE
8
annotation
62
1
39
211
10
48.042477
20
302.304431
11
47.782206
21
302.244608
0
LINE
8
annotation
62
1
39
211
10
47.782206
20
302.244608
11
47.533807
21
302.140088
0
LINE
8
annotation
62
1
39
211
10
47.533807
20
302.140088
11
47.303511
21
301.991162
0
LINE
8
annotation
62
1
39
211
10
47.303511
20
301.991162
11
47.097548
21
301.798122
0
LINE
8
annotation
62
1
39
211
10
47.097548
20
301.798122
11
46.579112
21
301.216734
0
LINE
8
annotation
62
1
39
211
10
46.579112
20
301.216734
11
46.579112
21
301.216734
0
LINE
8
annotation
62
1
39
211
10
46.579112
20
301.216734
11
46.410732
21
300.989998
0
LINE
8
annotation
62
1
39
211
10
46.410732
20
300.989998
11
46.288785
21
300.743965
0
LINE
8
annotation
62
1
39
211
10
46.288785
20
300.743965
11
46.212903
21
300.484899
0
LINE
8
annotation
62
1
39
211
10
46.212903
20
300.484899
11
46.182716
21
300.219065
0
LINE
8
annotation
62
1
39
211
10
46.182716
20
300.219065
11
46.197856
21
299.952730
0
LINE
8
annotation
62
1
39
211
10
46.197856
20
299.952730
11
46.257954
21
299.692157
0
LINE
8
annotation
62
1
39
211
10
46.257954
20
299.692157
11
46.362640
21
299.443612
0
LINE
8
annotation
62
1
39
211
10
46.362640
20
299.443612
11
46.511546
21
299.213359
0
LINE
8
annotation
62
1
39
211
10
46.511546
20
299.213359
11
46.704303
21
299.007664
0
LINE
8
annotation
62
1
39
211
10
46.704303
20
299.007664
11
46.704303
21
299.007664
0
LINE
8
annotation
62
1
39
211
10
46.704303
20
299.007664
11
46.930658
21
298.839647
0
LINE
8
annotation
62
1
39
211
10
46.930658
20
298.839647
11
47.176422
21
298.718013
0
LINE
8
annotation
62
1
39
211
10
47.176422
20
298.718013
11
47.435320
21
298.642405
0
LINE
8
annotation
62
1
39
211
10
47.435320
20
298.642405
11
47.701080
21
298.612467
0
LINE
8
annotation
62
1
39
211
10
47.701080
20
298.612467
11
47.967428
21
298.627843
0
LINE
8
annotation
62
1
39
211
10
47.967428
20
298.627843
11
48.228090
21
298.688175
0
LINE
8
annotation
62
1
39
211
10
48.228090
20
298.688175
11
48.476794
21
298.793108
0
LINE
8
annotation
62
1
39
211
10
48.476794
20
298.793108
11
48.707265
21
298.942285
0
LINE
8
annotation
62
1
39
211
10
48.707265
20
298.942285
11
48.913231
21
299.135350
0
LINE
8
annotation
62
1
39
211
10
48.913231
20
299.135350
11
49.431666
21
299.716737
0
LINE
8
annotation
62
1
39
211
10
44.495082
20
298.879649
11
44.495082
21
298.879649
0
LINE
8
annotation
62
1
39
211
10
44.495082
20
298.879649
11
44.327567
21
298.653883
0
LINE
8
annotation
62
1
39
211
10
44.327567
20
298.653883
11
44.206274
21
298.408583
0
LINE
8
annotation
62
1
39
211
10
44.206274
20
298.408583
11
44.130865
21
298.150048
0
LINE
8
annotation
62
1
39
211
10
44.130865
20
298.150048
11
44.100999
21
297.884574
0
LINE
8
annotation
62
1
39
211
10
44.100999
20
297.884574
11
44.116336
21
297.618459
0
LINE
8
annotation
62
1
39
211
10
44.116336
20
297.618459
11
44.176536
21
297.358001
0
LINE
8
annotation
62
1
39
211
10
44.176536
20
297.358001
11
44.281260
21
297.109498
0
LINE
8
annotation
62
1
39
211
10
44.281260
20
297.109498
11
44.430167
21
296.879247
0
LINE
8
annotation
62
1
39
211
10
44.430167
20
296.879247
11
44.622918
21
296.673545
0
LINE
8
annotation
62
1
39
211
10
44.622918
20
296.673545
11
44.622918
21
296.673545
0
LINE
8
annotation
62
1
39
211
10
44.622918
20
296.673545
11
44.849269
21
296.505524
0
LINE
8
annotation
62
1
39
211
10
44.849269
20
296.505524
11
45.095008
21
296.383861
0
LINE
8
annotation
62
1
39
211
10
45.095008
20
296.383861
11
45.353837
21
296.308176
0
LINE
8
annotation
62
1
39
211
10
45.353837
20
296.308176
11
45.619463
21
296.278088
0
LINE
8
annotation
62
1
39
211
10
45.619463
20
296.278088
11
45.885589
21
296.293215
0
LINE
8
annotation
62
1
39
211
10
45.885589
20
296.293215
11
46.145921
21
296.353178
0
LINE
8
annotation
62
1
39
211
10
46.145921
20
296.353178
11
46.394164
21
296.457594
0
LINE
8
annotation
62
1
39
211
10
46.394164
20
296.457594
11
46.624022
21
296.606083
0
LINE
8
annotation
62
1
39
211
10
46.624022
20
296.606083
11
46.829201
21
296.798264
0
LINE
8
annotation
62
1
39
211
10
46.829201
20
296.798264
11
46.829201
21
296.798264
0
LINE
8
annotation
62
1
39
211
10
46.829201
20
296.798264
11
46.997580
21
297.025022
0
LINE
8
annotation
62
1
39
211
10
46.997580
20
297.025022
11
47.119526
21
297.271110
0
LINE
8
annotation
62
1
39
211
10
47.119526
20
297.271110
11
47.195412
21
297.530251
0
LINE
8
annotation
62
1
39
211
10
47.195412
20
297.530251
11
47.225610
21
297.796168
0
LINE
8
annotation
62
1
39
211
10
47.225610
20
297.796168
11
47.210492
21
298.062582
0
LINE
8
annotation
62
1
39
211
10
47.210492
20
298.062582
11
47.150430
21
298.323217
0
LINE
8
annotation
62
1
39
211
10
47.150430
20
298.323217
11
47.045796
21
298.571794
0
LINE
8
annotation
62
1
39
211
10
47.045796
20
298.571794
11
46.896963
21
298.802036
0
LINE
8
annotation
62
1
39
211
10
46.896963
20
298.802036
11
46.704303
21
299.007664
0
LINE
8
annotation
62
1
39
211
10
46.704303
20
299.007664
11
46.704303
21
299.007664
0
LINE
8
annotation
62
1
39
211
10
46.704303
20
299.007664
11
46.478034
21
299.175604
0
LINE
8
annotation
62
1
39
211
10
46.478034
20
299.175604
11
46.232314
21
299.297194
0
LINE
8
annotation
62
1
39
211
10
46.232314
20
299.297194
11
45.973422
21
299.372781
0
LINE
8
annotation
62
1
39
211
10
45.973422
20
299.372781
11
45.707636
21
299.402711
0
LINE
8
annotation
62
1
39
211
10
45.707636
20
299.402711
11
45.441237
21
299.387333
0
LINE
8
annotation
62
1
39
211
10
45.441237
20
299.387333
11
45.180502
21
299.326990
0
LINE
8
annotation
62
1
39
211
10
45.180502
20
299.326990
11
44.931712
21
299.222031
0
LINE
8
annotation
62
1
39
211
10
44.931712
20
299.222031
11
44.701146
21
299.072802
0
LINE
8
annotation
62
1
39
211
10
44.701146
20
299.072802
11
44.495082
21
298.879649
0
LINE
8
annotation
62
1
39
211
10
71.943592
20
295.563494
11
61.101327
21
295.563494
0
LINE
8
annotation
62
1
39
211
10
61.101327
20
295.563494
11
71.943592
21
315.090346
0
LINE
8
annotation
62
1
39
211
10
71.943592
20
315.090346
11
61.101327
21
315.090346
0
LINE
8
annotation
62
1
39
211
10
89.944948
20
305.326920
11
79.267999
21
305.326920
0
LINE
8
annotation
62
1
39
211
10
101.607362
20
295.563494
11
101.607362
21
315.090346
0
LINE
8
annotation
62
1
39
211
10
101.607362
20
315.090346
11
97.266293
21
310.748052
0
LINE
8
annotation
62
1
39
211
10
113.271001
20
295.563494
11
113.271001
21
315.090346
0
LINE
8
annotation
62
1
39
211
10
113.271001
20
315.090346
11
108.929932
21
310.748052
0
LINE
8
frame
62
5
39
2
10
0.000000
20
0.000000
11
480.000000
21
0.000000
0
LINE
8
frame
62
5
39
2
10
480.000000
20
0.000000
11
480.000000
21
420.000000
0
LINE
8
frame
62
5
39
2
10
480.000000
20
420.000000
11
0.000000
21
420.000000
0
LINE
8
frame
62
5
39
2
10
0.000000
20
420.000000
11
0.000000
21
0.000000
0
ENDSEC
0
EOF
