0
SECTION
2
HEADER
9
$ACADVER
1
AC1009
0
ENDSEC
0
SECTION
2
TABLES
0
TABLE
2
VPORT
70
1
0
VPORT
2
ACTIVE
70
0
10
0.0
20
0.0
11
0.0
21
0.0
12
0.0
22
0.0
13
0.0
23
0.0
14
0.0
24
0.0
15
0.0
25
0.0
16
0.0
26
0.0
36
0.0
17
0.0
27
0.0
37
0.0
40
0.0
41
0.0
42
0.0
43
0.0
44
0.0
50
0.0
51
0.0
71
0
72
1000
73
1
74
3
75
0
76
0
77
0
78
0
0
ENDTAB
0
ENDSEC
0
SECTION
2
ENTITIES
0
LINE
8
boundary
62
5
39
2
10
6.687500
20
189.370699
11
6.687500
21
150.683940
0
LINE
8
boundary
62
5
39
2
10
6.687500
20
150.683940
11
11.142814
21
150.243839
0
LINE
8
boundary
62
5
39
2
10
11.142814
20
150.243839
11
131.699662
21
150.243840
0
LINE
8
boundary
62
5
39
2
10
131.699662
20
150.243840
11
131.699662
21
146.192839
0
LINE
8
boundary
62
5
39
2
10
131.699662
20
146.192839
11
11.142814
21
146.192840
0
LINE
8
boundary
62
5
39
2
10
11.142814
20
146.192840
11
6.687500
21
145.752739
0
LINE
8
boundary
62
5
39
2
10
6.687500
20
145.752739
11
6.687500
21
90.714178
0
LINE
8
boundary
62
5
39
2
10
6.687500
20
90.714178
11
11.142814
21
90.274078
0
LINE
8
boundary
62
5
39
2
10
11.142814
20
90.274078
11
102.325500
21
90.274078
0
LINE
8
boundary
62
5
39
2
10
102.325500
20
90.274078
11
102.325500
21
86.223078
0
LINE
8
boundary
62
5
39
2
10
102.325500
20
86.223078
11
11.142814
21
86.223078
0
LINE
8
boundary
62
5
39
2
10
11.142814
20
86.223078
11
6.687500
21
85.782978
0
LINE
8
boundary
62
5
39
2
10
6.687500
20
85.782978
11
6.687500
21
37.125436
0
LINE
8
boundary
62
5
39
2
10
6.687500
20
37.125436
11
11.142814
21
36.685335
0
LINE
8
boundary
62
5
39
2
10
11.142814
20
36.685335
11
46.567654
21
36.685336
0
LINE
8
boundary
62
5
39
2
10
46.567654
20
36.685336
11
46.567654
21
32.634335
0
LINE
8
boundary
62
5
39
2
10
46.567654
20
32.634335
11
11.142814
21
32.634335
0
LINE
8
boundary
62
5
39
2
10
11.142814
20
32.634335
11
6.687500
21
32.194235
0
LINE
8
boundary
62
5
39
2
10
6.687500
20
32.194235
11
6.687500
21
6.687500
0
LINE
8
boundary
62
5
39
2
10
6.687500
20
6.687500
11
7.721379
21
7.130330
0
LINE
8
boundary
62
5
39
2
10
7.721379
20
7.130330
11
8.210905
21
7.344372
0
LINE
8
boundary
62
5
39
2
10
8.210905
20
7.344372
11
15.500089
21
10.970550
0
LINE
8
boundary
62
5
39
2
10
15.500089
20
10.970550
11
21.078839
21
13.541429
0
LINE
8
boundary
62
5
39
2
10
21.078839
20
13.541429
11
22.667260
21
14.330522
0
LINE
8
boundary
62
5
39
2
10
22.667260
20
14.330522
11
24.643396
21
15.211815
0
LINE
8
boundary
62
5
39
2
10
24.643396
20
15.211815
11
31.533636
21
17.716273
0
LINE
8
boundary
62
5
39
2
10
31.533636
20
17.716273
11
37.201867
21
19.934578
0
LINE
8
boundary
62
5
39
2
10
37.201867
20
19.934578
11
40.625294
21
21.560320
0
LINE
8
boundary
62
5
39
2
10
40.625294
20
21.560320
11
44.677484
21
23.392943
0
LINE
8
boundary
62
5
39
2
10
44.677484
20
23.392943
11
50.881409
21
26.106973
0
LINE
8
boundary
62
5
39
2
10
50.881409
20
26.106973
11
58.030578
21
28.242097
0
LINE
8
boundary
62
5
39
2
10
58.030578
20
28.242097
11
62.709934
21
30.003375
0
LINE
8
boundary
62
5
39
2
10
62.709934
20
30.003375
11
66.998782
21
31.242126
0
LINE
8
boundary
62
5
39
2
10
66.998782
20
31.242126
11
75.041844
21
32.507612
0
LINE
8
boundary
62
5
39
2
10
75.041844
20
32.507612
11
85.137468
21
34.548074
0
LINE
8
boundary
62
5
39
2
10
85.137468
20
34.548074
11
89.222485
21
35.384053
0
LINE
8
boundary
62
5
39
2
10
89.222485
20
35.384053
11
92.132743
21
36.166013
0
LINE
8
boundary
62
5
39
2
10
92.132743
20
36.166013
11
104.597142
21
39.229400
0
LINE
8
boundary
62
5
39
2
10
104.597142
20
39.229400
11
117.384582
21
42.676626
0
LINE
8
boundary
62
5
39
2
10
117.384582
20
42.676626
11
122.075535
21
43.879510
0
LINE
8
boundary
62
5
39
2
10
122.075535
20
43.879510
11
131.377576
21
46.439725
0
LINE
8
boundary
62
5
39
2
10
131.377576
20
46.439725
11
138.465200
21
49.080365
0
LINE
8
boundary
62
5
39
2
10
138.465200
20
49.080365
11
141.400599
21
50.328164
0
LINE
8
boundary
62
5
39
2
10
141.400599
20
50.328164
11
151.914922
21
55.456208
0
LINE
8
boundary
62
5
39
2
10
151.914922
20
55.456208
11
160.245845
21
59.299669
0
LINE
8
boundary
62
5
39
2
10
160.245845
20
59.299669
11
163.779458
21
61.818168
0
LINE
8
boundary
62
5
39
2
10
163.779458
20
61.818168
11
170.753351
21
66.786468
0
LINE
8
boundary
62
5
39
2
10
170.753351
20
66.786468
11
172.073831
21
68.290866
0
LINE
8
boundary
62
5
39
2
10
172.073831
20
68.290866
11
172.977791
21
69.107963
0
LINE
8
boundary
62
5
39
2
10
172.977791
20
69.107963
11
178.695906
21
75.402252
0
LINE
8
boundary
62
5
39
2
10
178.695906
20
75.402252
11
181.839358
21
78.876328
0
LINE
8
boundary
62
5
39
2
10
181.839358
20
78.876328
11
184.816496
21
81.383177
0
LINE
8
boundary
62
5
39
2
10
184.816496
20
81.383177
11
189.785088
21
86.115775
0
LINE
8
boundary
62
5
39
2
10
189.785088
20
86.115775
11
190.637790
21
86.747605
0
LINE
8
boundary
62
5
39
2
10
190.637790
20
86.747605
11
193.242705
21
87.385708
0
LINE
8
boundary
62
5
39
2
10
193.242705
20
87.385708
11
198.228470
21
89.300717
0
LINE
8
boundary
62
5
39
2
10
198.228470
20
89.300717
11
200.031043
21
88.784318
0
LINE
8
boundary
62
5
39
2
10
200.031043
20
88.784318
11
204.548372
21
90.001317
0
LINE
8
boundary
62
5
39
2
10
204.548372
20
90.001317
11
208.990167
21
89.050460
0
LINE
8
boundary
62
5
39
2
10
208.990167
20
89.050460
11
211.748306
21
90.097193
0
LINE
8
boundary
62
5
39
2
10
211.748306
20
90.097193
11
218.088722
21
90.132950
0
LINE
8
boundary
62
5
39
2
10
218.088722
20
90.132950
11
222.952888
21
92.542169
0
LINE
8
boundary
62
5
39
2
10
222.952888
20
92.542169
11
228.772776
21
94.634373
0
LINE
8
boundary
62
5
39
2
10
228.772776
20
94.634373
11
231.632082
21
95.973951
0
LINE
8
boundary
62
5
39
2
10
231.632082
20
95.973951
11
236.028325
21
99.692641
0
LINE
8
boundary
62
5
39
2
10
236.028325
20
99.692641
11
238.524904
21
101.756401
0
LINE
8
boundary
62
5
39
2
10
238.524904
20
101.756401
11
240.023267
21
103.651803
0
LINE
8
boundary
62
5
39
2
10
240.023267
20
103.651803
11
243.595257
21
108.522210
0
LINE
8
boundary
62
5
39
2
10
243.595257
20
108.522210
11
248.585921
21
115.495482
0
LINE
8
boundary
62
5
39
2
10
248.585921
20
115.495482
11
250.482009
21
119.111571
0
LINE
8
boundary
62
5
39
2
10
250.482009
20
119.111571
11
252.333725
21
125.645922
0
LINE
8
boundary
62
5
39
2
10
252.333725
20
125.645922
11
254.278830
21
130.924007
0
LINE
8
boundary
62
5
39
2
10
254.278830
20
130.924007
11
255.158989
21
135.287936
0
LINE
8
boundary
62
5
39
2
10
255.158989
20
135.287936
11
256.787939
21
142.411654
0
LINE
8
boundary
62
5
39
2
10
256.787939
20
142.411654
11
257.007400
21
145.387599
0
LINE
8
boundary
62
5
39
2
10
257.007400
20
145.387599
11
257.149932
21
147.496502
0
LINE
8
boundary
62
5
39
2
10
257.149932
20
147.496502
11
256.089657
21
156.072465
0
LINE
8
boundary
62
5
39
2
10
256.089657
20
156.072465
11
255.002336
21
164.179952
0
LINE
8
boundary
62
5
39
2
10
255.002336
20
164.179952
11
254.386558
21
166.548709
0
LINE
8
boundary
62
5
39
2
10
254.386558
20
166.548709
11
253.005507
21
170.212261
0
LINE
8
boundary
62
5
39
2
10
253.005507
20
170.212261
11
249.306196
21
175.073233
0
LINE
8
boundary
62
5
39
2
10
249.306196
20
175.073233
11
248.003299
21
176.586525
0
LINE
8
boundary
62
5
39
2
10
248.003299
20
176.586525
11
242.553125
21
182.306059
0
LINE
8
boundary
62
5
39
2
10
242.553125
20
182.306059
11
237.281108
21
186.295453
0
LINE
8
boundary
62
5
39
2
10
237.281108
20
186.295453
11
231.562860
21
190.902581
0
LINE
8
boundary
62
5
39
2
10
231.562860
20
190.902581
11
224.014251
21
194.771833
0
LINE
8
boundary
62
5
39
2
10
224.014251
20
194.771833
11
218.097566
21
197.536973
0
LINE
8
boundary
62
5
39
2
10
218.097566
20
197.536973
11
211.609546
21
199.343507
0
LINE
8
boundary
62
5
39
2
10
211.609546
20
199.343507
11
205.227712
21
200.385488
0
LINE
8
boundary
62
5
39
2
10
205.227712
20
200.385488
11
200.063199
21
200.855992
0
LINE
8
boundary
62
5
39
2
10
200.063199
20
200.855992
11
192.634444
21
201.579689
0
LINE
8
boundary
62
5
39
2
10
192.634444
20
201.579689
11
189.145789
21
202.194448
0
LINE
8
boundary
62
5
39
2
10
189.145789
20
202.194448
11
178.052556
21
203.993484
0
LINE
8
boundary
62
5
39
2
10
178.052556
20
203.993484
11
176.287881
21
204.371595
0
LINE
8
boundary
62
5
39
2
10
176.287881
20
204.371595
11
169.998501
21
206.031697
0
LINE
8
boundary
62
5
39
2
10
169.998501
20
206.031697
11
160.274398
21
208.507372
0
LINE
8
boundary
62
5
39
2
10
160.274398
20
208.507372
11
158.721283
21
209.155876
0
LINE
8
boundary
62
5
39
2
10
158.721283
20
209.155876
11
152.210093
21
210.520337
0
LINE
8
boundary
62
5
39
2
10
152.210093
20
210.520337
11
141.761773
21
212.377010
0
LINE
8
boundary
62
5
39
2
10
141.761773
20
212.377010
11
133.901942
21
214.150023
0
LINE
8
boundary
62
5
39
2
10
133.901942
20
214.150023
11
127.511886
21
214.923454
0
LINE
8
boundary
62
5
39
2
10
127.511886
20
214.923454
11
123.880195
21
215.282479
0
LINE
8
boundary
62
5
39
2
10
123.880195
20
215.282479
11
116.033871
21
216.122374
0
LINE
8
boundary
62
5
39
2
10
116.033871
20
216.122374
11
113.648747
21
216.191812
0
LINE
8
boundary
62
5
39
2
10
113.648747
20
216.191812
11
112.337859
21
216.321811
0
LINE
8
boundary
62
5
39
2
10
112.337859
20
216.321811
11
102.488571
21
216.602040
0
LINE
8
boundary
62
5
39
2
10
102.488571
20
216.602040
11
94.409628
21
216.481024
0
LINE
8
boundary
62
5
39
2
10
94.409628
20
216.481024
11
91.657031
21
216.339591
0
LINE
8
boundary
62
5
39
2
10
91.657031
20
216.339591
11
86.760617
21
215.879376
0
LINE
8
boundary
62
5
39
2
10
86.760617
20
215.879376
11
81.161913
21
215.162944
0
LINE
8
boundary
62
5
39
2
10
81.161913
20
215.162944
11
78.152722
21
214.850380
0
LINE
8
boundary
62
5
39
2
10
78.152722
20
214.850380
11
69.832569
21
213.987741
0
LINE
8
boundary
62
5
39
2
10
69.832569
20
213.987741
11
59.383420
21
211.115910
0
LINE
8
boundary
62
5
39
2
10
59.383420
20
211.115910
11
56.813631
21
210.185068
0
LINE
8
boundary
62
5
39
2
10
56.813631
20
210.185068
11
52.445315
21
208.658294
0
LINE
8
boundary
62
5
39
2
10
52.445315
20
208.658294
11
44.073577
21
205.932452
0
LINE
8
boundary
62
5
39
2
10
44.073577
20
205.932452
11
39.968993
21
204.250919
0
LINE
8
boundary
62
5
39
2
10
39.968993
20
204.250919
11
44.058385
21
203.616689
0
LINE
8
boundary
62
5
39
2
10
44.058385
20
203.616689
11
116.172272
21
203.616689
0
LINE
8
boundary
62
5
39
2
10
116.172272
20
203.616689
11
116.172272
21
199.565689
0
LINE
8
boundary
62
5
39
2
10
116.172272
20
199.565689
11
34.782117
21
199.565689
0
LINE
8
boundary
62
5
39
2
10
34.782117
20
199.565689
11
30.326803
21
199.125589
0
LINE
8
boundary
62
5
39
2
10
30.326803
20
199.125589
11
27.159386
21
197.436740
0
LINE
8
boundary
62
5
39
2
10
27.159386
20
197.436740
11
23.700384
21
196.313314
0
LINE
8
boundary
62
5
39
2
10
23.700384
20
196.313314
11
7.192895
21
189.595360
0
LINE
8
boundary
62
5
39
2
10
7.192895
20
189.595360
11
6.687500
21
189.370699
0
LINE
8
annotation
62
1
39
211
10
55.543771
20
31.139035
11
57.109209
21
38.180635
0
LINE
8
annotation
62
1
39
211
10
57.109209
20
38.180635
11
53.977892
21
38.180635
0
LINE
8
annotation
62
1
39
211
10
57.109209
20
35.044902
11
55.543771
21
35.044902
0
LINE
8
annotation
62
1
39
211
10
109.737946
20
86.289020
11
109.737946
21
86.289020
0
LINE
8
annotation
62
1
39
211
10
109.737946
20
86.289020
11
109.763192
21
86.007866
0
LINE
8
annotation
62
1
39
211
10
109.763192
20
86.007866
11
109.835958
21
85.743441
0
LINE
8
annotation
62
1
39
211
10
109.835958
20
85.743441
11
109.951790
21
85.500111
0
LINE
8
annotation
62
1
39
211
10
109.951790
20
85.500111
11
110.106231
21
85.282240
0
LINE
8
annotation
62
1
39
211
10
110.106231
20
85.282240
11
110.294825
21
85.094194
0
LINE
8
annotation
62
1
39
211
10
110.294825
20
85.094194
11
110.513117
21
84.940338
0
LINE
8
annotation
62
1
39
211
10
110.513117
20
84.940338
11
110.756650
21
84.825036
0
LINE
8
annotation
62
1
39
211
10
110.756650
20
84.825036
11
111.020969
21
84.752654
0
LINE
8
annotation
62
1
39
211
10
111.020969
20
84.752654
11
111.301617
21
84.727557
0
LINE
8
annotation
62
1
39
211
10
111.301617
20
84.727557
11
111.301617
21
84.727557
0
LINE
8
annotation
62
1
39
211
10
111.301617
20
84.727557
11
111.582266
21
84.752654
0
LINE
8
annotation
62
1
39
211
10
111.582266
20
84.752654
11
111.846585
21
84.825036
0
LINE
8
annotation
62
1
39
211
10
111.846585
20
84.825036
11
112.090118
21
84.940338
0
LINE
8
annotation
62
1
39
211
10
112.090118
20
84.940338
11
112.308409
21
85.094194
0
LINE
8
annotation
62
1
39
211
10
112.308409
20
85.094194
11
112.497004
21
85.282240
0
LINE
8
annotation
62
1
39
211
10
112.497004
20
85.282240
11
112.651445
21
85.500111
0
LINE
8
annotation
62
1
39
211
10
112.651445
20
85.500111
11
112.767276
21
85.743441
0
LINE
8
annotation
62
1
39
211
10
112.767276
20
85.743441
11
112.840043
21
86.007866
0
LINE
8
annotation
62
1
39
211
10
112.840043
20
86.007866
11
112.865289
21
86.289020
0
LINE
8
annotation
62
1
39
211
10
112.865289
20
86.289020
11
112.865289
21
87.067986
0
LINE
8
annotation
62
1
39
211
10
112.865289
20
87.067986
11
112.865289
21
87.067986
0
LINE
8
annotation
62
1
39
211
10
112.865289
20
87.067986
11
112.840058
21
87.349276
0
LINE
8
annotation
62
1
39
211
10
112.840058
20
87.349276
11
112.767327
21
87.614066
0
LINE
8
annotation
62
1
39
211
10
112.767327
20
87.614066
11
112.651543
21
87.857925
0
LINE
8
annotation
62
1
39
211
10
112.651543
20
87.857925
11
112.497149
21
88.076423
0
LINE
8
annotation
62
1
39
211
10
112.497149
20
88.076423
11
112.308591
21
88.265129
0
LINE
8
annotation
62
1
39
211
10
112.308591
20
88.265129
11
112.090314
21
88.419612
0
LINE
8
annotation
62
1
39
211
10
112.090314
20
88.419612
11
111.846763
21
88.535443
0
LINE
8
annotation
62
1
39
211
10
111.846763
20
88.535443
11
111.582382
21
88.608190
0
LINE
8
annotation
62
1
39
211
10
111.582382
20
88.608190
11
111.301617
21
88.633424
0
LINE
8
annotation
62
1
39
211
10
111.301617
20
88.633424
11
111.301617
21
88.633424
0
LINE
8
annotation
62
1
39
211
10
111.301617
20
88.633424
11
111.020852
21
88.608175
0
LINE
8
annotation
62
1
39
211
10
111.020852
20
88.608175
11
110.756472
21
88.535392
0
LINE
8
annotation
62
1
39
211
10
110.756472
20
88.535392
11
110.512921
21
88.419514
0
LINE
8
annotation
62
1
39
211
10
110.512921
20
88.419514
11
110.294643
21
88.264983
0
LINE
8
annotation
62
1
39
211
10
110.294643
20
88.264983
11
110.106086
21
88.076241
0
LINE
8
annotation
62
1
39
211
10
110.106086
20
88.076241
11
109.951692
21
87.857729
0
LINE
8
annotation
62
1
39
211
10
109.951692
20
87.857729
11
109.835907
21
87.613888
0
LINE
8
annotation
62
1
39
211
10
109.835907
20
87.613888
11
109.763177
21
87.349160
0
LINE
8
annotation
62
1
39
211
10
109.763177
20
87.349160
11
109.737946
21
87.067986
0
LINE
8
annotation
62
1
39
211
10
109.737946
20
87.067986
11
109.737946
21
86.289020
0
LINE
8
annotation
62
1
39
211
10
112.865289
20
90.199303
11
112.865289
21
90.199303
0
LINE
8
annotation
62
1
39
211
10
112.865289
20
90.199303
11
112.840058
21
90.479294
0
LINE
8
annotation
62
1
39
211
10
112.840058
20
90.479294
11
112.767327
21
90.743101
0
LINE
8
annotation
62
1
39
211
10
112.767327
20
90.743101
11
112.651543
21
90.986250
0
LINE
8
annotation
62
1
39
211
10
112.651543
20
90.986250
11
112.497149
21
91.204266
0
LINE
8
annotation
62
1
39
211
10
112.497149
20
91.204266
11
112.308591
21
91.392675
0
LINE
8
annotation
62
1
39
211
10
112.308591
20
91.392675
11
112.090314
21
91.547004
0
LINE
8
annotation
62
1
39
211
10
112.090314
20
91.547004
11
111.846763
21
91.662778
0
LINE
8
annotation
62
1
39
211
10
111.846763
20
91.662778
11
111.582382
21
91.735524
0
LINE
8
annotation
62
1
39
211
10
111.582382
20
91.735524
11
111.301617
21
91.760767
0
LINE
8
annotation
62
1
39
211
10
111.301617
20
91.760767
11
111.301617
21
91.760767
0
LINE
8
annotation
62
1
39
211
10
111.301617
20
91.760767
11
111.020852
21
91.735524
0
LINE
8
annotation
62
1
39
211
10
111.020852
20
91.735524
11
110.756472
21
91.662778
0
LINE
8
annotation
62
1
39
211
10
110.756472
20
91.662778
11
110.512921
21
91.547004
0
LINE
8
annotation
62
1
39
211
10
110.512921
20
91.547004
11
110.294643
21
91.392675
0
LINE
8
annotation
62
1
39
211
10
110.294643
20
91.392675
11
110.106086
21
91.204266
0
LINE
8
annotation
62
1
39
211
10
110.106086
20
91.204266
11
109.951692
21
90.986250
0
LINE
8
annotation
62
1
39
211
10
109.951692
20
90.986250
11
109.835907
21
90.743101
0
LINE
8
annotation
62
1
39
211
10
109.835907
20
90.743101
11
109.763177
21
90.479294
0
LINE
8
annotation
62
1
39
211
10
109.763177
20
90.479294
11
109.737946
21
90.199303
0
LINE
8
annotation
62
1
39
211
10
109.737946
20
90.199303
11
109.737946
21
90.199303
0
LINE
8
annotation
62
1
39
211
10
109.737946
20
90.199303
11
109.763192
21
89.917997
0
LINE
8
annotation
62
1
39
211
10
109.763192
20
89.917997
11
109.835958
21
89.653167
0
LINE
8
annotation
62
1
39
211
10
109.835958
20
89.653167
11
109.951790
21
89.409249
0
LINE
8
annotation
62
1
39
211
10
109.951790
20
89.409249
11
110.106231
21
89.190682
0
LINE
8
annotation
62
1
39
211
10
110.106231
20
89.190682
11
110.294825
21
89.001903
0
LINE
8
annotation
62
1
39
211
10
110.294825
20
89.001903
11
110.513117
21
88.847350
0
LINE
8
annotation
62
1
39
211
10
110.513117
20
88.847350
11
110.756650
21
88.731460
0
LINE
8
annotation
62
1
39
211
10
110.756650
20
88.731460
11
111.020969
21
88.658672
0
LINE
8
annotation
62
1
39
211
10
111.020969
20
88.658672
11
111.301617
21
88.633424
0
LINE
8
annotation
62
1
39
211
10
111.301617
20
88.633424
11
111.301617
21
88.633424
0
LINE
8
annotation
62
1
39
211
10
111.301617
20
88.633424
11
111.582266
21
88.658672
0
LINE
8
annotation
62
1
39
211
10
111.582266
20
88.658672
11
111.846585
21
88.731460
0
LINE
8
annotation
62
1
39
211
10
111.846585
20
88.731460
11
112.090118
21
88.847350
0
LINE
8
annotation
62
1
39
211
10
112.090118
20
88.847350
11
112.308409
21
89.001903
0
LINE
8
annotation
62
1
39
211
10
112.308409
20
89.001903
11
112.497004
21
89.190682
0
LINE
8
annotation
62
1
39
211
10
112.497004
20
89.190682
11
112.651445
21
89.409249
0
LINE
8
annotation
62
1
39
211
10
112.651445
20
89.409249
11
112.767276
21
89.653167
0
LINE
8
annotation
62
1
39
211
10
112.767276
20
89.653167
11
112.840043
21
89.917997
0
LINE
8
annotation
62
1
39
211
10
112.840043
20
89.917997
11
112.865289
21
90.199303
0
LINE
8
annotation
62
1
39
211
10
139.892839
20
144.697539
11
139.892839
21
144.697539
0
LINE
8
annotation
62
1
39
211
10
139.892839
20
144.697539
11
140.340003
21
144.864175
0
LINE
8
annotation
62
1
39
211
10
140.340003
20
144.864175
11
140.750444
21
145.089412
0
LINE
8
annotation
62
1
39
211
10
140.750444
20
145.089412
11
141.119920
21
145.367514
0
LINE
8
annotation
62
1
39
211
10
141.119920
20
145.367514
11
141.444191
21
145.692740
0
LINE
8
annotation
62
1
39
211
10
141.444191
20
145.692740
11
141.719015
21
146.059352
0
LINE
8
annotation
62
1
39
211
10
141.719015
20
146.059352
11
141.940150
21
146.461611
0
LINE
8
annotation
62
1
39
211
10
141.940150
20
146.461611
11
142.103355
21
146.893779
0
LINE
8
annotation
62
1
39
211
10
142.103355
20
146.893779
11
142.204388
21
147.350115
0
LINE
8
annotation
62
1
39
211
10
142.204388
20
147.350115
11
142.239008
21
147.824882
0
LINE
8
annotation
62
1
39
211
10
142.239008
20
147.824882
11
142.239008
21
150.173260
0
LINE
8
annotation
62
1
39
211
10
142.239008
20
150.173260
11
142.239008
21
150.173260
0
LINE
8
annotation
62
1
39
211
10
142.239008
20
150.173260
11
142.213835
21
150.454566
0
LINE
8
annotation
62
1
39
211
10
142.213835
20
150.454566
11
142.141250
21
150.719396
0
LINE
8
annotation
62
1
39
211
10
142.141250
20
150.719396
11
142.025655
21
150.963314
0
LINE
8
annotation
62
1
39
211
10
142.025655
20
150.963314
11
141.871450
21
151.181882
0
LINE
8
annotation
62
1
39
211
10
141.871450
20
151.181882
11
141.683038
21
151.370660
0
LINE
8
annotation
62
1
39
211
10
141.683038
20
151.370660
11
141.464819
21
151.525213
0
LINE
8
annotation
62
1
39
211
10
141.464819
20
151.525213
11
141.221195
21
151.641103
0
LINE
8
annotation
62
1
39
211
10
141.221195
20
151.641103
11
140.956567
21
151.713891
0
LINE
8
annotation
62
1
39
211
10
140.956567
20
151.713891
11
140.675337
21
151.739139
0
LINE
8
annotation
62
1
39
211
10
140.675337
20
151.739139
11
140.675337
21
151.739139
0
LINE
8
annotation
62
1
39
211
10
140.675337
20
151.739139
11
140.394688
21
151.713891
0
LINE
8
annotation
62
1
39
211
10
140.394688
20
151.713891
11
140.130370
21
151.641103
0
LINE
8
annotation
62
1
39
211
10
140.130370
20
151.641103
11
139.886836
21
151.525213
0
LINE
8
annotation
62
1
39
211
10
139.886836
20
151.525213
11
139.668545
21
151.370660
0
LINE
8
annotation
62
1
39
211
10
139.668545
20
151.370660
11
139.479951
21
151.181882
0
LINE
8
annotation
62
1
39
211
10
139.479951
20
151.181882
11
139.325510
21
150.963314
0
LINE
8
annotation
62
1
39
211
10
139.325510
20
150.963314
11
139.209678
21
150.719396
0
LINE
8
annotation
62
1
39
211
10
139.209678
20
150.719396
11
139.136911
21
150.454566
0
LINE
8
annotation
62
1
39
211
10
139.136911
20
150.454566
11
139.111665
21
150.173260
0
LINE
8
annotation
62
1
39
211
10
139.111665
20
150.173260
11
139.111665
21
149.390320
0
LINE
8
annotation
62
1
39
211
10
139.111665
20
149.390320
11
139.111665
21
149.390320
0
LINE
8
annotation
62
1
39
211
10
139.111665
20
149.390320
11
139.136911
21
149.109030
0
LINE
8
annotation
62
1
39
211
10
139.136911
20
149.109030
11
139.209678
21
148.844240
0
LINE
8
annotation
62
1
39
211
10
139.209678
20
148.844240
11
139.325510
21
148.600381
0
LINE
8
annotation
62
1
39
211
10
139.325510
20
148.600381
11
139.479951
21
148.381883
0
LINE
8
annotation
62
1
39
211
10
139.479951
20
148.381883
11
139.668545
21
148.193177
0
LINE
8
annotation
62
1
39
211
10
139.668545
20
148.193177
11
139.886836
21
148.038694
0
LINE
8
annotation
62
1
39
211
10
139.886836
20
148.038694
11
140.130370
21
147.922863
0
LINE
8
annotation
62
1
39
211
10
140.130370
20
147.922863
11
140.394688
21
147.850116
0
LINE
8
annotation
62
1
39
211
10
140.394688
20
147.850116
11
140.675337
21
147.824882
0
LINE
8
annotation
62
1
39
211
10
140.675337
20
147.824882
11
142.239008
21
147.824882
0
LINE
8
annotation
62
1
39
211
10
138.916262
20
143.817339
11
142.437062
21
143.817339
0
LINE
8
annotation
62
1
39
211
10
123.133825
20
198.204092
11
123.133825
21
204.978287
0
LINE
8
annotation
62
1
39
211
10
123.133825
20
204.978287
11
121.627835
21
203.471871
0
LINE
8
annotation
62
1
39
211
10
126.762052
20
198.293446
11
126.762052
21
198.293446
0
LINE
8
annotation
62
1
39
211
10
126.762052
20
198.293446
11
126.919493
21
198.234590
0
LINE
8
annotation
62
1
39
211
10
126.919493
20
198.234590
11
127.080961
21
198.205350
0
LINE
8
annotation
62
1
39
211
10
127.080961
20
198.205350
11
127.242808
21
198.204532
0
LINE
8
annotation
62
1
39
211
10
127.242808
20
198.204532
11
127.401381
21
198.230945
0
LINE
8
annotation
62
1
39
211
10
127.401381
20
198.230945
11
127.553032
21
198.283396
0
LINE
8
annotation
62
1
39
211
10
127.553032
20
198.283396
11
127.694109
21
198.360693
0
LINE
8
annotation
62
1
39
211
10
127.694109
20
198.360693
11
127.820963
21
198.461644
0
LINE
8
annotation
62
1
39
211
10
127.820963
20
198.461644
11
127.929942
21
198.585056
0
LINE
8
annotation
62
1
39
211
10
127.929942
20
198.585056
11
128.017398
21
198.729737
0
LINE
8
annotation
62
1
39
211
10
128.017398
20
198.729737
11
128.017398
21
198.729737
0
LINE
8
annotation
62
1
39
211
10
128.017398
20
198.729737
11
128.278332
21
199.340518
0
LINE
8
annotation
62
1
39
211
10
128.278332
20
199.340518
11
128.474033
21
199.968977
0
LINE
8
annotation
62
1
39
211
10
128.474033
20
199.968977
11
128.604500
21
200.610104
0
LINE
8
annotation
62
1
39
211
10
128.604500
20
200.610104
11
128.669734
21
201.258889
0
LINE
8
annotation
62
1
39
211
10
128.669734
20
201.258889
11
128.669734
21
201.910320
0
LINE
8
annotation
62
1
39
211
10
128.669734
20
201.910320
11
128.604500
21
202.559387
0
LINE
8
annotation
62
1
39
211
10
128.604500
20
202.559387
11
128.474033
21
203.201081
0
LINE
8
annotation
62
1
39
211
10
128.474033
20
203.201081
11
128.278332
21
203.830390
0
LINE
8
annotation
62
1
39
211
10
128.278332
20
203.830390
11
128.017398
21
204.442304
0
LINE
8
annotation
62
1
39
211
10
128.017398
20
204.442304
11
128.017398
21
204.442304
0
LINE
8
annotation
62
1
39
211
10
128.017398
20
204.442304
11
127.984215
21
204.504059
0
LINE
8
annotation
62
1
39
211
10
127.984215
20
204.504059
11
127.946594
21
204.563101
0
LINE
8
annotation
62
1
39
211
10
127.946594
20
204.563101
11
127.904820
21
204.619140
0
LINE
8
annotation
62
1
39
211
10
127.904820
20
204.619140
11
127.859176
21
204.671885
0
LINE
8
annotation
62
1
39
211
10
127.859176
20
204.671885
11
127.809944
21
204.721045
0
LINE
8
annotation
62
1
39
211
10
127.809944
20
204.721045
11
127.757407
21
204.766332
0
LINE
8
annotation
62
1
39
211
10
127.757407
20
204.766332
11
127.701850
21
204.807455
0
LINE
8
annotation
62
1
39
211
10
127.701850
20
204.807455
11
127.643555
21
204.844123
0
LINE
8
annotation
62
1
39
211
10
127.643555
20
204.844123
11
127.582806
21
204.876046
0
LINE
8
annotation
62
1
39
211
10
127.582806
20
204.876046
11
127.582806
21
204.876046
0
LINE
8
annotation
62
1
39
211
10
127.582806
20
204.876046
11
127.424115
21
204.936177
0
LINE
8
annotation
62
1
39
211
10
127.424115
20
204.936177
11
127.261701
21
204.966417
0
LINE
8
annotation
62
1
39
211
10
127.261701
20
204.966417
11
127.099171
21
204.967965
0
LINE
8
annotation
62
1
39
211
10
127.099171
20
204.967965
11
126.940134
21
204.942020
0
LINE
8
annotation
62
1
39
211
10
126.940134
20
204.942020
11
126.788198
21
204.889782
0
LINE
8
annotation
62
1
39
211
10
126.788198
20
204.889782
11
126.646973
21
204.812449
0
LINE
8
annotation
62
1
39
211
10
126.646973
20
204.812449
11
126.520065
21
204.711222
0
LINE
8
annotation
62
1
39
211
10
126.520065
20
204.711222
11
126.411083
21
204.587299
0
LINE
8
annotation
62
1
39
211
10
126.411083
20
204.587299
11
126.323637
21
204.441879
0
LINE
8
annotation
62
1
39
211
10
126.323637
20
204.441879
11
126.323637
21
204.441879
0
LINE
8
annotation
62
1
39
211
10
126.323637
20
204.441879
11
126.063961
21
203.831224
0
LINE
8
annotation
62
1
39
211
10
126.063961
20
203.831224
11
125.869204
21
203.202859
0
LINE
8
annotation
62
1
39
211
10
125.869204
20
203.202859
11
125.739366
21
202.561795
0
LINE
8
annotation
62
1
39
211
10
125.739366
20
202.561795
11
125.674447
21
201.913042
0
LINE
8
annotation
62
1
39
211
10
125.674447
20
201.913042
11
125.674447
21
201.261611
0
LINE
8
annotation
62
1
39
211
10
125.674447
20
201.261611
11
125.739366
21
200.612512
0
LINE
8
annotation
62
1
39
211
10
125.739366
20
200.612512
11
125.869204
21
199.970755
0
LINE
8
annotation
62
1
39
211
10
125.869204
20
199.970755
11
126.063961
21
199.341352
0
LINE
8
annotation
62
1
39
211
10
126.063961
20
199.341352
11
126.323637
21
198.729312
0
LINE
8
annotation
62
1
39
211
10
126.323637
20
198.729312
11
126.323637
21
198.729312
0
LINE
8
annotation
62
1
39
211
10
126.323637
20
198.729312
11
126.356699
21
198.667680
0
LINE
8
annotation
62
1
39
211
10
126.356699
20
198.667680
11
126.394042
21
198.608932
0
LINE
8
annotation
62
1
39
211
10
126.394042
20
198.608932
11
126.435506
21
198.553247
0
LINE
8
annotation
62
1
39
211
10
126.435506
20
198.553247
11
126.480936
21
198.500804
0
LINE
8
annotation
62
1
39
211
10
126.480936
20
198.500804
11
126.530173
21
198.451780
0
LINE
8
annotation
62
1
39
211
10
126.530173
20
198.451780
11
126.583061
21
198.406354
0
LINE
8
annotation
62
1
39
211
10
126.583061
20
198.406354
11
126.639441
21
198.364704
0
LINE
8
annotation
62
1
39
211
10
126.639441
20
198.364704
11
126.699157
21
198.327008
0
LINE
8
annotation
62
1
39
211
10
126.699157
20
198.327008
11
126.762052
21
198.293446
0
LINE
8
annotation
62
1
39
211
10
105.647727
20
132.999676
11
96.625653
21
119.950073
0
LINE
8
annotation
62
1
39
211
10
96.625653
20
119.950073
11
87.601884
21
132.999676
0
LINE
8
annotation
62
1
39
211
10
96.625653
20
121.000217
11
96.625653
21
105.945332
0
LINE
8
annotation
62
1
39
211
10
130.587787
20
119.472504
11
115.795863
21
119.472504
0
LINE
8
annotation
62
1
39
211
10
143.729426
20
105.946180
11
143.729426
21
105.946180
0
LINE
8
annotation
62
1
39
211
10
143.729426
20
105.946180
11
145.447355
21
106.586365
0
LINE
8
annotation
62
1
39
211
10
145.447355
20
106.586365
11
147.024200
21
107.451690
0
LINE
8
annotation
62
1
39
211
10
147.024200
20
107.451690
11
148.443668
21
108.520109
0
LINE
8
annotation
62
1
39
211
10
148.443668
20
108.520109
11
149.689462
21
109.769574
0
LINE
8
annotation
62
1
39
211
10
149.689462
20
109.769574
11
150.745289
21
111.178036
0
LINE
8
annotation
62
1
39
211
10
150.745289
20
111.178036
11
151.594852
21
112.723448
0
LINE
8
annotation
62
1
39
211
10
151.594852
20
112.723448
11
152.221858
21
114.383763
0
LINE
8
annotation
62
1
39
211
10
152.221858
20
114.383763
11
152.610011
21
116.136932
0
LINE
8
annotation
62
1
39
211
10
152.610011
20
116.136932
11
152.743017
21
117.960908
0
LINE
8
annotation
62
1
39
211
10
152.743017
20
117.960908
11
152.743017
21
126.982981
0
LINE
8
annotation
62
1
39
211
10
152.743017
20
126.982981
11
152.743017
21
126.982981
0
LINE
8
annotation
62
1
39
211
10
152.743017
20
126.982981
11
152.646306
21
128.063711
0
LINE
8
annotation
62
1
39
211
10
152.646306
20
128.063711
11
152.367447
21
129.081146
0
LINE
8
annotation
62
1
39
211
10
152.367447
20
129.081146
11
151.923348
21
130.018237
0
LINE
8
annotation
62
1
39
211
10
151.923348
20
130.018237
11
151.330920
21
130.857936
0
LINE
8
annotation
62
1
39
211
10
151.330920
20
130.857936
11
150.607070
21
131.583193
0
LINE
8
annotation
62
1
39
211
10
150.607070
20
131.583193
11
149.768710
21
132.176960
0
LINE
8
annotation
62
1
39
211
10
149.768710
20
132.176960
11
148.832747
21
132.622187
0
LINE
8
annotation
62
1
39
211
10
148.832747
20
132.622187
11
147.816092
21
132.901826
0
LINE
8
annotation
62
1
39
211
10
147.816092
20
132.901826
11
146.735653
21
132.998828
0
LINE
8
annotation
62
1
39
211
10
146.735653
20
132.998828
11
146.735653
21
132.998828
0
LINE
8
annotation
62
1
39
211
10
146.735653
20
132.998828
11
145.657448
21
132.901826
0
LINE
8
annotation
62
1
39
211
10
145.657448
20
132.901826
11
144.641980
21
132.622187
0
LINE
8
annotation
62
1
39
211
10
144.641980
20
132.622187
11
143.706366
21
132.176960
0
LINE
8
annotation
62
1
39
211
10
143.706366
20
132.176960
11
142.867726
21
131.583193
0
LINE
8
annotation
62
1
39
211
10
142.867726
20
131.583193
11
142.143179
21
130.857936
0
LINE
8
annotation
62
1
39
211
10
142.143179
20
130.857936
11
141.549843
21
130.018237
0
LINE
8
annotation
62
1
39
211
10
141.549843
20
130.018237
11
141.104837
21
129.081146
0
LINE
8
annotation
62
1
39
211
10
141.104837
20
129.081146
11
140.825279
21
128.063711
0
LINE
8
annotation
62
1
39
211
10
140.825279
20
128.063711
11
140.728289
21
126.982981
0
LINE
8
annotation
62
1
39
211
10
140.728289
20
126.982981
11
140.728289
21
123.975058
0
LINE
8
annotation
62
1
39
211
10
140.728289
20
123.975058
11
140.728289
21
123.975058
0
LINE
8
annotation
62
1
39
211
10
140.728289
20
123.975058
11
140.825279
21
122.894386
0
LINE
8
annotation
62
1
39
211
10
140.825279
20
122.894386
11
141.104837
21
121.877107
0
LINE
8
annotation
62
1
39
211
10
141.104837
20
121.877107
11
141.549843
21
120.940242
0
LINE
8
annotation
62
1
39
211
10
141.549843
20
120.940242
11
142.143179
21
120.100811
0
LINE
8
annotation
62
1
39
211
10
142.143179
20
120.100811
11
142.867726
21
119.375835
0
LINE
8
annotation
62
1
39
211
10
142.867726
20
119.375835
11
143.706366
21
118.782336
0
LINE
8
annotation
62
1
39
211
10
143.706366
20
118.782336
11
144.641980
21
118.337334
0
LINE
8
annotation
62
1
39
211
10
144.641980
20
118.337334
11
145.657448
21
118.057851
0
LINE
8
annotation
62
1
39
211
10
145.657448
20
118.057851
11
146.735653
21
117.960908
0
LINE
8
annotation
62
1
39
211
10
146.735653
20
117.960908
11
152.743017
21
117.960908
0
LINE
8
annotation
62
1
39
211
10
139.977581
20
102.564599
11
153.503904
21
102.564599
0
LINE
8
frame
62
5
39
2
10
0.000000
20
0.000000
11
480.000000
21
0.000000
0
LINE
8
frame
62
5
39
2
10
480.000000
20
0.000000
11
480.000000
21
420.000000
0
LINE
8
frame
62
5
39
2
10
480.000000
20
420.000000
11
0.000000
21
420.000000
0
LINE
8
frame
62
5
39
2
10
0.000000
20
420.000000
11
0.000000
21
0.000000
0
ENDSEC
0
EOF
