0
SECTION
2
HEADER
9
$ACADVER
1
AC1009
0
ENDSEC
0
SECTION
2
TABLES
0
TABLE
2
VPORT
70
1
0
VPORT
2
ACTIVE
70
0
10
0.0
20
0.0
11
0.0
21
0.0
12
0.0
22
0.0
13
0.0
23
0.0
14
0.0
24
0.0
15
0.0
25
0.0
16
0.0
26
0.0
36
0.0
17
0.0
27
0.0
37
0.0
40
0.0
41
0.0
42
0.0
43
0.0
44
0.0
50
0.0
51
0.0
71
0
72
1000
73
1
74
3
75
0
76
0
77
0
78
0
0
ENDTAB
0
ENDSEC
0
SECTION
2
ENTITIES
0
LINE
8
boundary
62
5
39
2
10
233.676088
20
28.358443
11
238.823783
21
42.543676
0
LINE
8
boundary
62
5
39
2
10
238.823783
20
42.543676
11
242.951567
21
55.855548
0
LINE
8
boundary
62
5
39
2
10
242.951567
20
55.855548
11
243.205789
21
59.756354
0
LINE
8
boundary
62
5
39
2
10
243.205789
20
59.756354
11
243.042573
21
62.034309
0
LINE
8
boundary
62
5
39
2
10
243.042573
20
62.034309
11
242.220078
21
75.224975
0
LINE
8
boundary
62
5
39
2
10
242.220078
20
75.224975
11
241.933277
21
82.700884
0
LINE
8
boundary
62
5
39
2
10
241.933277
20
82.700884
11
241.039315
21
89.353210
0
LINE
8
boundary
62
5
39
2
10
241.039315
20
89.353210
11
239.689661
21
101.411154
0
LINE
8
boundary
62
5
39
2
10
239.689661
20
101.411154
11
239.392456
21
103.690463
0
LINE
8
boundary
62
5
39
2
10
239.392456
20
103.690463
11
238.161620
21
110.151701
0
LINE
8
boundary
62
5
39
2
10
238.161620
20
110.151701
11
235.128015
21
120.431116
0
LINE
8
boundary
62
5
39
2
10
235.128015
20
120.431116
11
231.566814
21
132.165546
0
LINE
8
boundary
62
5
39
2
10
231.566814
20
132.165546
11
228.922354
21
141.189144
0
LINE
8
boundary
62
5
39
2
10
228.922354
20
141.189144
11
227.356906
21
145.664504
0
LINE
8
boundary
62
5
39
2
10
227.356906
20
145.664504
11
223.889778
21
153.539091
0
LINE
8
boundary
62
5
39
2
10
223.889778
20
153.539091
11
220.734266
21
158.510104
0
LINE
8
boundary
62
5
39
2
10
220.734266
20
158.510104
11
219.555689
21
160.616046
0
LINE
8
boundary
62
5
39
2
10
219.555689
20
160.616046
11
212.862010
21
170.568991
0
LINE
8
boundary
62
5
39
2
10
212.862010
20
170.568991
11
207.254067
21
179.638900
0
LINE
8
boundary
62
5
39
2
10
207.254067
20
179.638900
11
203.628280
21
184.057427
0
LINE
8
boundary
62
5
39
2
10
203.628280
20
184.057427
11
196.061301
21
195.901679
0
LINE
8
boundary
62
5
39
2
10
196.061301
20
195.901679
11
192.552440
21
200.361540
0
LINE
8
boundary
62
5
39
2
10
192.552440
20
200.361540
11
191.309061
21
202.222833
0
LINE
8
boundary
62
5
39
2
10
191.309061
20
202.222833
11
180.117793
21
213.620758
0
LINE
8
boundary
62
5
39
2
10
180.117793
20
213.620758
11
173.566849
21
221.000630
0
LINE
8
boundary
62
5
39
2
10
173.566849
20
221.000630
11
166.912608
21
226.209657
0
LINE
8
boundary
62
5
39
2
10
166.912608
20
226.209657
11
157.132779
21
236.891795
0
LINE
8
boundary
62
5
39
2
10
157.132779
20
236.891795
11
155.004498
21
238.205279
0
LINE
8
boundary
62
5
39
2
10
155.004498
20
238.205279
11
139.484914
21
248.743521
0
LINE
8
boundary
62
5
39
2
10
139.484914
20
248.743521
11
138.606000
21
249.333372
0
LINE
8
boundary
62
5
39
2
10
138.606000
20
249.333372
11
126.916995
21
256.158190
0
LINE
8
boundary
62
5
39
2
10
126.916995
20
256.158190
11
124.818112
21
257.893374
0
LINE
8
boundary
62
5
39
2
10
124.818112
20
257.893374
11
117.254781
21
264.591718
0
LINE
8
boundary
62
5
39
2
10
117.254781
20
264.591718
11
112.918592
21
269.117379
0
LINE
8
boundary
62
5
39
2
10
112.918592
20
269.117379
11
109.037131
21
273.640942
0
LINE
8
boundary
62
5
39
2
10
109.037131
20
273.640942
11
103.360875
21
281.769207
0
LINE
8
boundary
62
5
39
2
10
103.360875
20
281.769207
11
102.106850
21
283.649573
0
LINE
8
boundary
62
5
39
2
10
102.106850
20
283.649573
11
99.415457
21
288.854904
0
LINE
8
boundary
62
5
39
2
10
99.415457
20
288.854904
11
96.135761
21
293.631886
0
LINE
8
boundary
62
5
39
2
10
96.135761
20
293.631886
11
94.294988
21
296.010930
0
LINE
8
boundary
62
5
39
2
10
94.294988
20
296.010930
11
89.147505
21
302.385274
0
LINE
8
boundary
62
5
39
2
10
89.147505
20
302.385274
11
84.168431
21
310.678612
0
LINE
8
boundary
62
5
39
2
10
84.168431
20
310.678612
11
82.625432
21
312.882085
0
LINE
8
boundary
62
5
39
2
10
82.625432
20
312.882085
11
80.355413
21
316.828639
0
LINE
8
boundary
62
5
39
2
10
80.355413
20
316.828639
11
76.484100
21
322.882619
0
LINE
8
boundary
62
5
39
2
10
76.484100
20
322.882619
11
72.616428
21
327.953620
0
LINE
8
boundary
62
5
39
2
10
72.616428
20
327.953620
11
68.214467
21
333.174525
0
LINE
8
boundary
62
5
39
2
10
68.214467
20
333.174525
11
63.170028
21
339.540391
0
LINE
8
boundary
62
5
39
2
10
63.170028
20
339.540391
11
58.356445
21
344.347892
0
LINE
8
boundary
62
5
39
2
10
58.356445
20
344.347892
11
51.641458
21
349.474568
0
LINE
8
boundary
62
5
39
2
10
51.641458
20
349.474568
11
46.139616
21
353.658765
0
LINE
8
boundary
62
5
39
2
10
46.139616
20
353.658765
11
42.106402
21
357.003726
0
LINE
8
boundary
62
5
39
2
10
42.106402
20
357.003726
11
35.827823
21
361.201453
0
LINE
8
boundary
62
5
39
2
10
35.827823
20
361.201453
11
26.618244
21
368.137522
0
LINE
8
boundary
62
5
39
2
10
26.618244
20
368.137522
11
25.667108
21
368.822509
0
LINE
8
boundary
62
5
39
2
10
25.667108
20
368.822509
11
24.004791
21
370.032706
0
LINE
8
boundary
62
5
39
2
10
24.004791
20
370.032706
11
16.956505
21
374.946595
0
LINE
8
boundary
62
5
39
2
10
16.956505
20
374.946595
11
12.485421
21
377.632622
0
LINE
8
boundary
62
5
39
2
10
12.485421
20
377.632622
11
6.687500
21
381.721086
0
LINE
8
boundary
62
5
39
2
10
6.687500
20
381.721086
11
6.687500
21
358.338705
0
LINE
8
boundary
62
5
39
2
10
6.687500
20
358.338705
11
11.142815
21
357.898605
0
LINE
8
boundary
62
5
39
2
10
11.142815
20
357.898605
11
25.379291
21
357.898605
0
LINE
8
boundary
62
5
39
2
10
25.379291
20
357.898605
11
25.379290
21
353.847605
0
LINE
8
boundary
62
5
39
2
10
25.379290
20
353.847605
11
11.142814
21
353.847605
0
LINE
8
boundary
62
5
39
2
10
11.142814
20
353.847605
11
6.687500
21
353.407505
0
LINE
8
boundary
62
5
39
2
10
6.687500
20
353.407505
11
6.687500
21
298.368943
0
LINE
8
boundary
62
5
39
2
10
6.687500
20
298.368943
11
11.142814
21
297.928843
0
LINE
8
boundary
62
5
39
2
10
11.142814
20
297.928843
11
50.562850
21
297.928843
0
LINE
8
boundary
62
5
39
2
10
50.562850
20
297.928843
11
50.562851
21
293.877843
0
LINE
8
boundary
62
5
39
2
10
50.562851
20
293.877843
11
11.142815
21
293.877843
0
LINE
8
boundary
62
5
39
2
10
11.142815
20
293.877843
11
6.687500
21
293.437743
0
LINE
8
boundary
62
5
39
2
10
6.687500
20
293.437743
11
6.687500
21
244.780201
0
LINE
8
boundary
62
5
39
2
10
6.687500
20
244.780201
11
11.142814
21
244.340101
0
LINE
8
boundary
62
5
39
2
10
11.142814
20
244.340101
11
77.856033
21
244.340101
0
LINE
8
boundary
62
5
39
2
10
77.856033
20
244.340101
11
77.856033
21
240.289101
0
LINE
8
boundary
62
5
39
2
10
77.856033
20
240.289101
11
11.142814
21
240.289101
0
LINE
8
boundary
62
5
39
2
10
11.142814
20
240.289101
11
6.687500
21
239.849001
0
LINE
8
boundary
62
5
39
2
10
6.687500
20
239.849001
11
6.687500
21
205.343848
0
LINE
8
boundary
62
5
39
2
10
6.687500
20
205.343848
11
11.142814
21
204.903748
0
LINE
8
boundary
62
5
39
2
10
11.142814
20
204.903748
11
98.577757
21
204.903748
0
LINE
8
boundary
62
5
39
2
10
98.577757
20
204.903748
11
98.577757
21
200.852748
0
LINE
8
boundary
62
5
39
2
10
98.577757
20
200.852748
11
11.142814
21
200.852748
0
LINE
8
boundary
62
5
39
2
10
11.142814
20
200.852748
11
6.687500
21
200.412648
0
LINE
8
boundary
62
5
39
2
10
6.687500
20
200.412648
11
6.687500
21
197.248126
0
LINE
8
boundary
62
5
39
2
10
6.687500
20
197.248126
11
7.681966
21
196.278245
0
LINE
8
boundary
62
5
39
2
10
7.681966
20
196.278245
11
8.402888
21
195.275578
0
LINE
8
boundary
62
5
39
2
10
8.402888
20
195.275578
11
15.838475
21
184.866275
0
LINE
8
boundary
62
5
39
2
10
15.838475
20
184.866275
11
21.140231
21
175.796242
0
LINE
8
boundary
62
5
39
2
10
21.140231
20
175.796242
11
22.980600
21
172.572465
0
LINE
8
boundary
62
5
39
2
10
22.980600
20
172.572465
11
25.253636
21
165.907495
0
LINE
8
boundary
62
5
39
2
10
25.253636
20
165.907495
11
29.708950
21
165.467396
0
LINE
8
boundary
62
5
39
2
10
29.708950
20
165.467396
11
121.594271
21
165.467396
0
LINE
8
boundary
62
5
39
2
10
121.594271
20
165.467396
11
121.594272
21
161.416396
0
LINE
8
boundary
62
5
39
2
10
121.594272
20
161.416396
11
31.390697
21
161.416396
0
LINE
8
boundary
62
5
39
2
10
31.390697
20
161.416396
11
26.935383
21
160.976296
0
LINE
8
boundary
62
5
39
2
10
26.935383
20
160.976296
11
27.572152
21
159.109168
0
LINE
8
boundary
62
5
39
2
10
27.572152
20
159.109168
11
27.732320
21
158.625828
0
LINE
8
boundary
62
5
39
2
10
27.732320
20
158.625828
11
30.579221
21
144.939768
0
LINE
8
boundary
62
5
39
2
10
30.579221
20
144.939768
11
30.856710
21
143.603896
0
LINE
8
boundary
62
5
39
2
10
30.856710
20
143.603896
11
35.702494
21
130.705178
0
LINE
8
boundary
62
5
39
2
10
35.702494
20
130.705178
11
36.445598
21
128.973313
0
LINE
8
boundary
62
5
39
2
10
36.445598
20
128.973313
11
37.474151
21
126.471143
0
LINE
8
boundary
62
5
39
2
10
37.474151
20
126.471143
11
41.929465
21
126.031043
0
LINE
8
boundary
62
5
39
2
10
41.929465
20
126.031043
11
135.981501
21
126.031044
0
LINE
8
boundary
62
5
39
2
10
135.981501
20
126.031044
11
135.981501
21
121.980043
0
LINE
8
boundary
62
5
39
2
10
135.981501
20
121.980043
11
43.956506
21
121.980044
0
LINE
8
boundary
62
5
39
2
10
43.956506
20
121.980044
11
39.501192
21
121.539943
0
LINE
8
boundary
62
5
39
2
10
39.501192
20
121.539943
11
42.344147
21
114.623861
0
LINE
8
boundary
62
5
39
2
10
42.344147
20
114.623861
11
44.311561
21
109.242903
0
LINE
8
boundary
62
5
39
2
10
44.311561
20
109.242903
11
49.344760
21
98.132499
0
LINE
8
boundary
62
5
39
2
10
49.344760
20
98.132499
11
54.792767
21
88.546712
0
LINE
8
boundary
62
5
39
2
10
54.792767
20
88.546712
11
55.742196
21
87.034791
0
LINE
8
boundary
62
5
39
2
10
55.742196
20
87.034791
11
60.197510
21
86.594691
0
LINE
8
boundary
62
5
39
2
10
60.197510
20
86.594691
11
148.964040
21
86.594691
0
LINE
8
boundary
62
5
39
2
10
148.964040
20
86.594691
11
148.964040
21
82.543691
0
LINE
8
boundary
62
5
39
2
10
148.964040
20
82.543691
11
63.294117
21
82.543691
0
LINE
8
boundary
62
5
39
2
10
63.294117
20
82.543691
11
58.838803
21
82.103591
0
LINE
8
boundary
62
5
39
2
10
58.838803
20
82.103591
11
59.796694
21
80.578195
0
LINE
8
boundary
62
5
39
2
10
59.796694
20
80.578195
11
71.669024
21
69.339239
0
LINE
8
boundary
62
5
39
2
10
71.669024
20
69.339239
11
74.784624
21
66.869509
0
LINE
8
boundary
62
5
39
2
10
74.784624
20
66.869509
11
83.205734
21
61.158489
0
LINE
8
boundary
62
5
39
2
10
83.205734
20
61.158489
11
93.918766
21
54.353856
0
LINE
8
boundary
62
5
39
2
10
93.918766
20
54.353856
11
97.577710
21
52.819417
0
LINE
8
boundary
62
5
39
2
10
97.577710
20
52.819417
11
111.567345
21
47.598439
0
LINE
8
boundary
62
5
39
2
10
111.567345
20
47.598439
11
116.022659
21
47.158338
0
LINE
8
boundary
62
5
39
2
10
116.022659
20
47.158338
11
178.181901
21
47.158339
0
LINE
8
boundary
62
5
39
2
10
178.181901
20
47.158339
11
178.181901
21
43.107338
0
LINE
8
boundary
62
5
39
2
10
178.181901
20
43.107338
11
130.710510
21
43.107338
0
LINE
8
boundary
62
5
39
2
10
130.710510
20
43.107338
11
126.255197
21
42.667238
0
LINE
8
boundary
62
5
39
2
10
126.255197
20
42.667238
11
130.295898
21
41.393233
0
LINE
8
boundary
62
5
39
2
10
130.295898
20
41.393233
11
143.376025
21
37.979962
0
LINE
8
boundary
62
5
39
2
10
143.376025
20
37.979962
11
156.175533
21
29.002419
0
LINE
8
boundary
62
5
39
2
10
156.175533
20
29.002419
11
161.750328
21
25.012546
0
LINE
8
boundary
62
5
39
2
10
161.750328
20
25.012546
11
165.740424
21
21.251263
0
LINE
8
boundary
62
5
39
2
10
165.740424
20
21.251263
11
177.893360
21
14.676215
0
LINE
8
boundary
62
5
39
2
10
177.893360
20
14.676215
11
189.169142
21
8.162086
0
LINE
8
boundary
62
5
39
2
10
189.169142
20
8.162086
11
193.624456
21
7.721986
0
LINE
8
boundary
62
5
39
2
10
193.624456
20
7.721986
11
202.056137
21
7.721986
0
LINE
8
boundary
62
5
39
2
10
202.056137
20
7.721986
11
202.056137
21
6.743139
0
LINE
8
boundary
62
5
39
2
10
202.056137
20
6.743139
11
205.056207
21
6.759291
0
LINE
8
boundary
62
5
39
2
10
205.056207
20
6.759291
11
209.189925
21
6.776638
0
LINE
8
boundary
62
5
39
2
10
209.189925
20
6.776638
11
213.583533
21
6.839468
0
LINE
8
boundary
62
5
39
2
10
213.583533
20
6.839468
11
227.656583
21
19.943218
0
LINE
8
boundary
62
5
39
2
10
227.656583
20
19.943218
11
231.511109
21
23.436055
0
LINE
8
boundary
62
5
39
2
10
231.511109
20
23.436055
11
233.676088
21
28.358443
0
LINE
8
annotation
62
1
39
211
10
204.403851
20
4.898317
11
204.403851
21
6.494654
0
LINE
8
annotation
62
1
39
211
10
204.403851
20
6.494654
11
204.048965
21
6.139668
0
LINE
8
annotation
62
1
39
211
10
188.721689
20
41.611981
11
185.594346
21
41.611981
0
LINE
8
annotation
62
1
39
211
10
185.594346
20
41.611981
11
188.484114
21
46.264136
0
LINE
8
annotation
62
1
39
211
10
188.484114
20
46.264136
11
188.484114
21
46.264136
0
LINE
8
annotation
62
1
39
211
10
188.484114
20
46.264136
11
188.487568
21
46.268410
0
LINE
8
annotation
62
1
39
211
10
188.487568
20
46.268410
11
188.490881
21
46.272721
0
LINE
8
annotation
62
1
39
211
10
188.490881
20
46.272721
11
188.494074
21
46.277105
0
LINE
8
annotation
62
1
39
211
10
188.494074
20
46.277105
11
188.497169
21
46.281598
0
LINE
8
annotation
62
1
39
211
10
188.497169
20
46.281598
11
188.500187
21
46.286236
0
LINE
8
annotation
62
1
39
211
10
188.500187
20
46.286236
11
188.503151
21
46.291056
0
LINE
8
annotation
62
1
39
211
10
188.503151
20
46.291056
11
188.506082
21
46.296094
0
LINE
8
annotation
62
1
39
211
10
188.506082
20
46.296094
11
188.509003
21
46.301387
0
LINE
8
annotation
62
1
39
211
10
188.509003
20
46.301387
11
188.511934
21
46.306970
0
LINE
8
annotation
62
1
39
211
10
188.511934
20
46.306970
11
188.511934
21
46.306970
0
LINE
8
annotation
62
1
39
211
10
188.511934
20
46.306970
11
188.631252
21
46.563155
0
LINE
8
annotation
62
1
39
211
10
188.631252
20
46.563155
11
188.700955
21
46.828714
0
LINE
8
annotation
62
1
39
211
10
188.700955
20
46.828714
11
188.722752
21
47.097646
0
LINE
8
annotation
62
1
39
211
10
188.722752
20
47.097646
11
188.698352
21
47.363949
0
LINE
8
annotation
62
1
39
211
10
188.698352
20
47.363949
11
188.629461
21
47.621625
0
LINE
8
annotation
62
1
39
211
10
188.629461
20
47.621625
11
188.517789
21
47.864672
0
LINE
8
annotation
62
1
39
211
10
188.517789
20
47.864672
11
188.365044
21
48.087089
0
LINE
8
annotation
62
1
39
211
10
188.365044
20
48.087089
11
188.172933
21
48.282876
0
LINE
8
annotation
62
1
39
211
10
188.172933
20
48.282876
11
187.943165
21
48.446034
0
LINE
8
annotation
62
1
39
211
10
187.943165
20
48.446034
11
187.943165
21
48.446034
0
LINE
8
annotation
62
1
39
211
10
187.943165
20
48.446034
11
187.686268
21
48.563656
0
LINE
8
annotation
62
1
39
211
10
187.686268
20
48.563656
11
187.420302
21
48.632285
0
LINE
8
annotation
62
1
39
211
10
187.420302
20
48.632285
11
187.151214
21
48.653467
0
LINE
8
annotation
62
1
39
211
10
187.151214
20
48.653467
11
186.884950
21
48.628744
0
LINE
8
annotation
62
1
39
211
10
186.884950
20
48.628744
11
186.627456
21
48.559663
0
LINE
8
annotation
62
1
39
211
10
186.627456
20
48.559663
11
186.384679
21
48.447767
0
LINE
8
annotation
62
1
39
211
10
186.384679
20
48.447767
11
186.162563
21
48.294602
0
LINE
8
annotation
62
1
39
211
10
186.162563
20
48.294602
11
185.967055
21
48.101712
0
LINE
8
annotation
62
1
39
211
10
185.967055
20
48.101712
11
185.804102
21
47.870641
0
LINE
8
annotation
62
1
39
211
10
185.804102
20
47.870641
11
185.598762
21
47.476743
0
LINE
8
annotation
62
1
39
211
10
156.376486
20
81.048612
11
157.940157
21
81.048612
0
LINE
8
annotation
62
1
39
211
10
157.940157
20
81.048612
11
157.940157
21
81.048612
0
LINE
8
annotation
62
1
39
211
10
157.940157
20
81.048612
11
158.221387
21
81.073840
0
LINE
8
annotation
62
1
39
211
10
158.221387
20
81.073840
11
158.486015
21
81.146549
0
LINE
8
annotation
62
1
39
211
10
158.486015
20
81.146549
11
158.729639
21
81.262276
0
LINE
8
annotation
62
1
39
211
10
158.729639
20
81.262276
11
158.947858
21
81.416558
0
LINE
8
annotation
62
1
39
211
10
158.947858
20
81.416558
11
159.136270
21
81.604931
0
LINE
8
annotation
62
1
39
211
10
159.136270
20
81.604931
11
159.290475
21
81.822932
0
LINE
8
annotation
62
1
39
211
10
159.290475
20
81.822932
11
159.406071
21
82.066099
0
LINE
8
annotation
62
1
39
211
10
159.406071
20
82.066099
11
159.478656
21
82.329967
0
LINE
8
annotation
62
1
39
211
10
159.478656
20
82.329967
11
159.503829
21
82.610075
0
LINE
8
annotation
62
1
39
211
10
159.503829
20
82.610075
11
159.503829
21
83.393015
0
LINE
8
annotation
62
1
39
211
10
159.503829
20
83.393015
11
159.503829
21
83.393015
0
LINE
8
annotation
62
1
39
211
10
159.503829
20
83.393015
11
159.478656
21
83.673006
0
LINE
8
annotation
62
1
39
211
10
159.478656
20
83.673006
11
159.406071
21
83.936813
0
LINE
8
annotation
62
1
39
211
10
159.406071
20
83.936813
11
159.290475
21
84.179962
0
LINE
8
annotation
62
1
39
211
10
159.290475
20
84.179962
11
159.136270
21
84.397978
0
LINE
8
annotation
62
1
39
211
10
159.136270
20
84.397978
11
158.947858
21
84.586387
0
LINE
8
annotation
62
1
39
211
10
158.947858
20
84.586387
11
158.729639
21
84.740716
0
LINE
8
annotation
62
1
39
211
10
158.729639
20
84.740716
11
158.486015
21
84.856490
0
LINE
8
annotation
62
1
39
211
10
158.486015
20
84.856490
11
158.221387
21
84.929236
0
LINE
8
annotation
62
1
39
211
10
158.221387
20
84.929236
11
157.940157
21
84.954478
0
LINE
8
annotation
62
1
39
211
10
157.940157
20
84.954478
11
157.157217
21
84.954478
0
LINE
8
annotation
62
1
39
211
10
157.157217
20
84.954478
11
157.940157
21
84.954478
0
LINE
8
annotation
62
1
39
211
10
157.940157
20
84.954478
11
157.940157
21
84.954478
0
LINE
8
annotation
62
1
39
211
10
157.940157
20
84.954478
11
158.221387
21
84.979727
0
LINE
8
annotation
62
1
39
211
10
158.221387
20
84.979727
11
158.486015
21
85.052515
0
LINE
8
annotation
62
1
39
211
10
158.486015
20
85.052515
11
158.729639
21
85.168404
0
LINE
8
annotation
62
1
39
211
10
158.729639
20
85.168404
11
158.947858
21
85.322957
0
LINE
8
annotation
62
1
39
211
10
158.947858
20
85.322957
11
159.136270
21
85.511736
0
LINE
8
annotation
62
1
39
211
10
159.136270
20
85.511736
11
159.290475
21
85.730304
0
LINE
8
annotation
62
1
39
211
10
159.290475
20
85.730304
11
159.406071
21
85.974221
0
LINE
8
annotation
62
1
39
211
10
159.406071
20
85.974221
11
159.478656
21
86.239052
0
LINE
8
annotation
62
1
39
211
10
159.478656
20
86.239052
11
159.503829
21
86.520358
0
LINE
8
annotation
62
1
39
211
10
159.503829
20
86.520358
11
159.503829
21
86.520358
0
LINE
8
annotation
62
1
39
211
10
159.503829
20
86.520358
11
159.478656
21
86.800349
0
LINE
8
annotation
62
1
39
211
10
159.478656
20
86.800349
11
159.406071
21
87.064156
0
LINE
8
annotation
62
1
39
211
10
159.406071
20
87.064156
11
159.290475
21
87.307305
0
LINE
8
annotation
62
1
39
211
10
159.290475
20
87.307305
11
159.136270
21
87.525321
0
LINE
8
annotation
62
1
39
211
10
159.136270
20
87.525321
11
158.947858
21
87.713730
0
LINE
8
annotation
62
1
39
211
10
158.947858
20
87.713730
11
158.729639
21
87.868059
0
LINE
8
annotation
62
1
39
211
10
158.729639
20
87.868059
11
158.486015
21
87.983833
0
LINE
8
annotation
62
1
39
211
10
158.486015
20
87.983833
11
158.221387
21
88.056579
0
LINE
8
annotation
62
1
39
211
10
158.221387
20
88.056579
11
157.940157
21
88.081821
0
LINE
8
annotation
62
1
39
211
10
157.940157
20
88.081821
11
156.376486
21
88.081821
0
LINE
8
annotation
62
1
39
211
10
146.912539
20
122.050181
11
143.002697
21
122.050181
0
LINE
8
annotation
62
1
39
211
10
143.002697
20
122.050181
11
144.564161
21
127.526343
0
LINE
8
annotation
62
1
39
211
10
145.740558
20
120.484743
11
145.740558
21
123.612086
0
LINE
8
annotation
62
1
39
211
10
129.006717
20
159.921096
11
130.570388
21
159.921096
0
LINE
8
annotation
62
1
39
211
10
130.570388
20
159.921096
11
130.570388
21
159.921096
0
LINE
8
annotation
62
1
39
211
10
130.570388
20
159.921096
11
130.851037
21
159.946329
0
LINE
8
annotation
62
1
39
211
10
130.851037
20
159.946329
11
131.115356
21
160.019077
0
LINE
8
annotation
62
1
39
211
10
131.115356
20
160.019077
11
131.358889
21
160.134907
0
LINE
8
annotation
62
1
39
211
10
131.358889
20
160.134907
11
131.577180
21
160.289391
0
LINE
8
annotation
62
1
39
211
10
131.577180
20
160.289391
11
131.765775
21
160.478096
0
LINE
8
annotation
62
1
39
211
10
131.765775
20
160.478096
11
131.920216
21
160.696594
0
LINE
8
annotation
62
1
39
211
10
131.920216
20
160.696594
11
132.036047
21
160.940453
0
LINE
8
annotation
62
1
39
211
10
132.036047
20
160.940453
11
132.108814
21
161.205243
0
LINE
8
annotation
62
1
39
211
10
132.108814
20
161.205243
11
132.134060
21
161.486534
0
LINE
8
annotation
62
1
39
211
10
132.134060
20
161.486534
11
132.134060
21
162.265499
0
LINE
8
annotation
62
1
39
211
10
132.134060
20
162.265499
11
132.134060
21
162.265499
0
LINE
8
annotation
62
1
39
211
10
132.134060
20
162.265499
11
132.108829
21
162.546653
0
LINE
8
annotation
62
1
39
211
10
132.108829
20
162.546653
11
132.036098
21
162.811078
0
LINE
8
annotation
62
1
39
211
10
132.036098
20
162.811078
11
131.920314
21
163.054408
0
LINE
8
annotation
62
1
39
211
10
131.920314
20
163.054408
11
131.765920
21
163.272279
0
LINE
8
annotation
62
1
39
211
10
131.765920
20
163.272279
11
131.577362
21
163.460325
0
LINE
8
annotation
62
1
39
211
10
131.577362
20
163.460325
11
131.359085
21
163.614182
0
LINE
8
annotation
62
1
39
211
10
131.359085
20
163.614182
11
131.115534
21
163.729483
0
LINE
8
annotation
62
1
39
211
10
131.115534
20
163.729483
11
130.851153
21
163.801865
0
LINE
8
annotation
62
1
39
211
10
130.851153
20
163.801865
11
130.570388
21
163.826963
0
LINE
8
annotation
62
1
39
211
10
130.570388
20
163.826963
11
129.006717
21
163.826963
0
LINE
8
annotation
62
1
39
211
10
129.006717
20
163.826963
11
129.006717
21
166.962696
0
LINE
8
annotation
62
1
39
211
10
129.006717
20
166.962696
11
132.134060
21
166.962696
0
LINE
8
annotation
62
1
39
211
10
108.339022
20
206.399048
11
108.339022
21
206.399048
0
LINE
8
annotation
62
1
39
211
10
108.339022
20
206.399048
11
107.891069
21
206.231093
0
LINE
8
annotation
62
1
39
211
10
107.891069
20
206.231093
11
107.480014
21
206.004794
0
LINE
8
annotation
62
1
39
211
10
107.480014
20
206.004794
11
107.110076
21
205.725819
0
LINE
8
annotation
62
1
39
211
10
107.110076
20
205.725819
11
106.785474
21
205.399840
0
LINE
8
annotation
62
1
39
211
10
106.785474
20
205.399840
11
106.510429
21
205.032526
0
LINE
8
annotation
62
1
39
211
10
106.510429
20
205.032526
11
106.289159
21
204.629547
0
LINE
8
annotation
62
1
39
211
10
106.289159
20
204.629547
11
106.125886
21
204.196572
0
LINE
8
annotation
62
1
39
211
10
106.125886
20
204.196572
11
106.024827
21
203.739271
0
LINE
8
annotation
62
1
39
211
10
106.024827
20
203.739271
11
105.990203
21
203.263315
0
LINE
8
annotation
62
1
39
211
10
105.990203
20
203.263315
11
105.990203
21
200.922886
0
LINE
8
annotation
62
1
39
211
10
105.990203
20
200.922886
11
105.990203
21
200.922886
0
LINE
8
annotation
62
1
39
211
10
105.990203
20
200.922886
11
106.015449
21
200.641596
0
LINE
8
annotation
62
1
39
211
10
106.015449
20
200.641596
11
106.088215
21
200.376806
0
LINE
8
annotation
62
1
39
211
10
106.088215
20
200.376806
11
106.204047
21
200.132946
0
LINE
8
annotation
62
1
39
211
10
106.204047
20
200.132946
11
106.358488
21
199.914449
0
LINE
8
annotation
62
1
39
211
10
106.358488
20
199.914449
11
106.547082
21
199.725743
0
LINE
8
annotation
62
1
39
211
10
106.547082
20
199.725743
11
106.765374
21
199.571260
0
LINE
8
annotation
62
1
39
211
10
106.765374
20
199.571260
11
107.008907
21
199.455429
0
LINE
8
annotation
62
1
39
211
10
107.008907
20
199.455429
11
107.273226
21
199.382682
0
LINE
8
annotation
62
1
39
211
10
107.273226
20
199.382682
11
107.553874
21
199.357448
0
LINE
8
annotation
62
1
39
211
10
107.553874
20
199.357448
11
107.553874
21
199.357448
0
LINE
8
annotation
62
1
39
211
10
107.553874
20
199.357448
11
107.835104
21
199.382682
0
LINE
8
annotation
62
1
39
211
10
107.835104
20
199.382682
11
108.099732
21
199.455429
0
LINE
8
annotation
62
1
39
211
10
108.099732
20
199.455429
11
108.343356
21
199.571260
0
LINE
8
annotation
62
1
39
211
10
108.343356
20
199.571260
11
108.561575
21
199.725743
0
LINE
8
annotation
62
1
39
211
10
108.561575
20
199.725743
11
108.749988
21
199.914449
0
LINE
8
annotation
62
1
39
211
10
108.749988
20
199.914449
11
108.904192
21
200.132946
0
LINE
8
annotation
62
1
39
211
10
108.904192
20
200.132946
11
109.019788
21
200.376806
0
LINE
8
annotation
62
1
39
211
10
109.019788
20
200.376806
11
109.092373
21
200.641596
0
LINE
8
annotation
62
1
39
211
10
109.092373
20
200.641596
11
109.117546
21
200.922886
0
LINE
8
annotation
62
1
39
211
10
109.117546
20
200.922886
11
109.117546
21
201.701852
0
LINE
8
annotation
62
1
39
211
10
109.117546
20
201.701852
11
109.117546
21
201.701852
0
LINE
8
annotation
62
1
39
211
10
109.117546
20
201.701852
11
109.092373
21
201.983006
0
LINE
8
annotation
62
1
39
211
10
109.092373
20
201.983006
11
109.019788
21
202.247431
0
LINE
8
annotation
62
1
39
211
10
109.019788
20
202.247431
11
108.904192
21
202.490761
0
LINE
8
annotation
62
1
39
211
10
108.904192
20
202.490761
11
108.749988
21
202.708632
0
LINE
8
annotation
62
1
39
211
10
108.749988
20
202.708632
11
108.561575
21
202.896678
0
LINE
8
annotation
62
1
39
211
10
108.561575
20
202.896678
11
108.343356
21
203.050534
0
LINE
8
annotation
62
1
39
211
10
108.343356
20
203.050534
11
108.099732
21
203.165836
0
LINE
8
annotation
62
1
39
211
10
108.099732
20
203.165836
11
107.835104
21
203.238218
0
LINE
8
annotation
62
1
39
211
10
107.835104
20
203.238218
11
107.553874
21
203.263315
0
LINE
8
annotation
62
1
39
211
10
107.553874
20
203.263315
11
105.990203
21
203.263315
0
LINE
8
annotation
62
1
39
211
10
105.794357
20
198.477248
11
109.315157
21
198.477248
0
LINE
8
annotation
62
1
39
211
10
86.832150
20
238.793801
11
88.397588
21
245.835401
0
LINE
8
annotation
62
1
39
211
10
88.397588
20
245.835401
11
85.266270
21
245.835401
0
LINE
8
annotation
62
1
39
211
10
88.397588
20
242.699668
11
86.832150
21
242.699668
0
LINE
8
annotation
62
1
39
211
10
57.975296
20
293.943786
11
57.975296
21
293.943786
0
LINE
8
annotation
62
1
39
211
10
57.975296
20
293.943786
11
58.000541
21
293.662632
0
LINE
8
annotation
62
1
39
211
10
58.000541
20
293.662632
11
58.073308
21
293.398207
0
LINE
8
annotation
62
1
39
211
10
58.073308
20
293.398207
11
58.189140
21
293.154877
0
LINE
8
annotation
62
1
39
211
10
58.189140
20
293.154877
11
58.343581
21
292.937006
0
LINE
8
annotation
62
1
39
211
10
58.343581
20
292.937006
11
58.532175
21
292.748960
0
LINE
8
annotation
62
1
39
211
10
58.532175
20
292.748960
11
58.750467
21
292.595103
0
LINE
8
annotation
62
1
39
211
10
58.750467
20
292.595103
11
58.994000
21
292.479802
0
LINE
8
annotation
62
1
39
211
10
58.994000
20
292.479802
11
59.258319
21
292.407420
0
LINE
8
annotation
62
1
39
211
10
59.258319
20
292.407420
11
59.538967
21
292.382322
0
LINE
8
annotation
62
1
39
211
10
59.538967
20
292.382322
11
59.538967
21
292.382322
0
LINE
8
annotation
62
1
39
211
10
59.538967
20
292.382322
11
59.819616
21
292.407420
0
LINE
8
annotation
62
1
39
211
10
59.819616
20
292.407420
11
60.083934
21
292.479802
0
LINE
8
annotation
62
1
39
211
10
60.083934
20
292.479802
11
60.327468
21
292.595103
0
LINE
8
annotation
62
1
39
211
10
60.327468
20
292.595103
11
60.545759
21
292.748960
0
LINE
8
annotation
62
1
39
211
10
60.545759
20
292.748960
11
60.734353
21
292.937006
0
LINE
8
annotation
62
1
39
211
10
60.734353
20
292.937006
11
60.888794
21
293.154877
0
LINE
8
annotation
62
1
39
211
10
60.888794
20
293.154877
11
61.004626
21
293.398207
0
LINE
8
annotation
62
1
39
211
10
61.004626
20
293.398207
11
61.077393
21
293.662632
0
LINE
8
annotation
62
1
39
211
10
61.077393
20
293.662632
11
61.102639
21
293.943786
0
LINE
8
annotation
62
1
39
211
10
61.102639
20
293.943786
11
61.102639
21
294.722751
0
LINE
8
annotation
62
1
39
211
10
61.102639
20
294.722751
11
61.102639
21
294.722751
0
LINE
8
annotation
62
1
39
211
10
61.102639
20
294.722751
11
61.077407
21
295.004042
0
LINE
8
annotation
62
1
39
211
10
61.077407
20
295.004042
11
61.004677
21
295.268832
0
LINE
8
annotation
62
1
39
211
10
61.004677
20
295.268832
11
60.888893
21
295.512691
0
LINE
8
annotation
62
1
39
211
10
60.888893
20
295.512691
11
60.734499
21
295.731189
0
LINE
8
annotation
62
1
39
211
10
60.734499
20
295.731189
11
60.545941
21
295.919894
0
LINE
8
annotation
62
1
39
211
10
60.545941
20
295.919894
11
60.327664
21
296.074378
0
LINE
8
annotation
62
1
39
211
10
60.327664
20
296.074378
11
60.084113
21
296.190208
0
LINE
8
annotation
62
1
39
211
10
60.084113
20
296.190208
11
59.819732
21
296.262955
0
LINE
8
annotation
62
1
39
211
10
59.819732
20
296.262955
11
59.538967
21
296.288189
0
LINE
8
annotation
62
1
39
211
10
59.538967
20
296.288189
11
59.538967
21
296.288189
0
LINE
8
annotation
62
1
39
211
10
59.538967
20
296.288189
11
59.258202
21
296.262941
0
LINE
8
annotation
62
1
39
211
10
59.258202
20
296.262941
11
58.993822
21
296.190157
0
LINE
8
annotation
62
1
39
211
10
58.993822
20
296.190157
11
58.750270
21
296.074280
0
LINE
8
annotation
62
1
39
211
10
58.750270
20
296.074280
11
58.531993
21
295.919749
0
LINE
8
annotation
62
1
39
211
10
58.531993
20
295.919749
11
58.343435
21
295.731007
0
LINE
8
annotation
62
1
39
211
10
58.343435
20
295.731007
11
58.189042
21
295.512495
0
LINE
8
annotation
62
1
39
211
10
58.189042
20
295.512495
11
58.073257
21
295.268654
0
LINE
8
annotation
62
1
39
211
10
58.073257
20
295.268654
11
58.000527
21
295.003926
0
LINE
8
annotation
62
1
39
211
10
58.000527
20
295.003926
11
57.975296
21
294.722751
0
LINE
8
annotation
62
1
39
211
10
57.975296
20
294.722751
11
57.975296
21
293.943786
0
LINE
8
annotation
62
1
39
211
10
61.102639
20
297.854069
11
61.102639
21
297.854069
0
LINE
8
annotation
62
1
39
211
10
61.102639
20
297.854069
11
61.077407
21
298.134060
0
LINE
8
annotation
62
1
39
211
10
61.077407
20
298.134060
11
61.004677
21
298.397867
0
LINE
8
annotation
62
1
39
211
10
61.004677
20
298.397867
11
60.888893
21
298.641015
0
LINE
8
annotation
62
1
39
211
10
60.888893
20
298.641015
11
60.734499
21
298.859031
0
LINE
8
annotation
62
1
39
211
10
60.734499
20
298.859031
11
60.545941
21
299.047441
0
LINE
8
annotation
62
1
39
211
10
60.545941
20
299.047441
11
60.327664
21
299.201770
0
LINE
8
annotation
62
1
39
211
10
60.327664
20
299.201770
11
60.084113
21
299.317544
0
LINE
8
annotation
62
1
39
211
10
60.084113
20
299.317544
11
59.819732
21
299.390289
0
LINE
8
annotation
62
1
39
211
10
59.819732
20
299.390289
11
59.538967
21
299.415532
0
LINE
8
annotation
62
1
39
211
10
59.538967
20
299.415532
11
59.538967
21
299.415532
0
LINE
8
annotation
62
1
39
211
10
59.538967
20
299.415532
11
59.258202
21
299.390289
0
LINE
8
annotation
62
1
39
211
10
59.258202
20
299.390289
11
58.993822
21
299.317544
0
LINE
8
annotation
62
1
39
211
10
58.993822
20
299.317544
11
58.750270
21
299.201770
0
LINE
8
annotation
62
1
39
211
10
58.750270
20
299.201770
11
58.531993
21
299.047441
0
LINE
8
annotation
62
1
39
211
10
58.531993
20
299.047441
11
58.343435
21
298.859031
0
LINE
8
annotation
62
1
39
211
10
58.343435
20
298.859031
11
58.189042
21
298.641015
0
LINE
8
annotation
62
1
39
211
10
58.189042
20
298.641015
11
58.073257
21
298.397867
0
LINE
8
annotation
62
1
39
211
10
58.073257
20
298.397867
11
58.000527
21
298.134060
0
LINE
8
annotation
62
1
39
211
10
58.000527
20
298.134060
11
57.975296
21
297.854069
0
LINE
8
annotation
62
1
39
211
10
57.975296
20
297.854069
11
57.975296
21
297.854069
0
LINE
8
annotation
62
1
39
211
10
57.975296
20
297.854069
11
58.000541
21
297.572763
0
LINE
8
annotation
62
1
39
211
10
58.000541
20
297.572763
11
58.073308
21
297.307932
0
LINE
8
annotation
62
1
39
211
10
58.073308
20
297.307932
11
58.189140
21
297.064014
0
LINE
8
annotation
62
1
39
211
10
58.189140
20
297.064014
11
58.343581
21
296.845447
0
LINE
8
annotation
62
1
39
211
10
58.343581
20
296.845447
11
58.532175
21
296.656668
0
LINE
8
annotation
62
1
39
211
10
58.532175
20
296.656668
11
58.750467
21
296.502115
0
LINE
8
annotation
62
1
39
211
10
58.750467
20
296.502115
11
58.994000
21
296.386226
0
LINE
8
annotation
62
1
39
211
10
58.994000
20
296.386226
11
59.258319
21
296.313438
0
LINE
8
annotation
62
1
39
211
10
59.258319
20
296.313438
11
59.538967
21
296.288189
0
LINE
8
annotation
62
1
39
211
10
59.538967
20
296.288189
11
59.538967
21
296.288189
0
LINE
8
annotation
62
1
39
211
10
59.538967
20
296.288189
11
59.819616
21
296.313438
0
LINE
8
annotation
62
1
39
211
10
59.819616
20
296.313438
11
60.083934
21
296.386226
0
LINE
8
annotation
62
1
39
211
10
60.083934
20
296.386226
11
60.327468
21
296.502115
0
LINE
8
annotation
62
1
39
211
10
60.327468
20
296.502115
11
60.545759
21
296.656668
0
LINE
8
annotation
62
1
39
211
10
60.545759
20
296.656668
11
60.734353
21
296.845447
0
LINE
8
annotation
62
1
39
211
10
60.734353
20
296.845447
11
60.888794
21
297.064014
0
LINE
8
annotation
62
1
39
211
10
60.888794
20
297.064014
11
61.004626
21
297.307932
0
LINE
8
annotation
62
1
39
211
10
61.004626
20
297.307932
11
61.077393
21
297.572763
0
LINE
8
annotation
62
1
39
211
10
61.077393
20
297.572763
11
61.102639
21
297.854069
0
LINE
8
annotation
62
1
39
211
10
33.572467
20
352.352305
11
33.572467
21
352.352305
0
LINE
8
annotation
62
1
39
211
10
33.572467
20
352.352305
11
34.019631
21
352.518940
0
LINE
8
annotation
62
1
39
211
10
34.019631
20
352.518940
11
34.430072
21
352.744178
0
LINE
8
annotation
62
1
39
211
10
34.430072
20
352.744178
11
34.799549
21
353.022279
0
LINE
8
annotation
62
1
39
211
10
34.799549
20
353.022279
11
35.123820
21
353.347506
0
LINE
8
annotation
62
1
39
211
10
35.123820
20
353.347506
11
35.398643
21
353.714118
0
LINE
8
annotation
62
1
39
211
10
35.398643
20
353.714118
11
35.619778
21
354.116377
0
LINE
8
annotation
62
1
39
211
10
35.619778
20
354.116377
11
35.782983
21
354.548544
0
LINE
8
annotation
62
1
39
211
10
35.782983
20
354.548544
11
35.884017
21
355.004881
0
LINE
8
annotation
62
1
39
211
10
35.884017
20
355.004881
11
35.918637
21
355.479648
0
LINE
8
annotation
62
1
39
211
10
35.918637
20
355.479648
11
35.918637
21
357.828026
0
LINE
8
annotation
62
1
39
211
10
35.918637
20
357.828026
11
35.918637
21
357.828026
0
LINE
8
annotation
62
1
39
211
10
35.918637
20
357.828026
11
35.893464
21
358.109331
0
LINE
8
annotation
62
1
39
211
10
35.893464
20
358.109331
11
35.820879
21
358.374162
0
LINE
8
annotation
62
1
39
211
10
35.820879
20
358.374162
11
35.705283
21
358.618080
0
LINE
8
annotation
62
1
39
211
10
35.705283
20
358.618080
11
35.551079
21
358.836647
0
LINE
8
annotation
62
1
39
211
10
35.551079
20
358.836647
11
35.362666
21
359.025426
0
LINE
8
annotation
62
1
39
211
10
35.362666
20
359.025426
11
35.144447
21
359.179979
0
LINE
8
annotation
62
1
39
211
10
35.144447
20
359.179979
11
34.900823
21
359.295868
0
LINE
8
annotation
62
1
39
211
10
34.900823
20
359.295868
11
34.636195
21
359.368656
0
LINE
8
annotation
62
1
39
211
10
34.636195
20
359.368656
11
34.354965
21
359.393905
0
LINE
8
annotation
62
1
39
211
10
34.354965
20
359.393905
11
34.354965
21
359.393905
0
LINE
8
annotation
62
1
39
211
10
34.354965
20
359.393905
11
34.074317
21
359.368656
0
LINE
8
annotation
62
1
39
211
10
34.074317
20
359.368656
11
33.809998
21
359.295868
0
LINE
8
annotation
62
1
39
211
10
33.809998
20
359.295868
11
33.566465
21
359.179979
0
LINE
8
annotation
62
1
39
211
10
33.566465
20
359.179979
11
33.348173
21
359.025426
0
LINE
8
annotation
62
1
39
211
10
33.348173
20
359.025426
11
33.159579
21
358.836647
0
LINE
8
annotation
62
1
39
211
10
33.159579
20
358.836647
11
33.005138
21
358.618080
0
LINE
8
annotation
62
1
39
211
10
33.005138
20
358.618080
11
32.889306
21
358.374162
0
LINE
8
annotation
62
1
39
211
10
32.889306
20
358.374162
11
32.816540
21
358.109331
0
LINE
8
annotation
62
1
39
211
10
32.816540
20
358.109331
11
32.791294
21
357.828026
0
LINE
8
annotation
62
1
39
211
10
32.791294
20
357.828026
11
32.791294
21
357.045086
0
LINE
8
annotation
62
1
39
211
10
32.791294
20
357.045086
11
32.791294
21
357.045086
0
LINE
8
annotation
62
1
39
211
10
32.791294
20
357.045086
11
32.816540
21
356.763795
0
LINE
8
annotation
62
1
39
211
10
32.816540
20
356.763795
11
32.889306
21
356.499005
0
LINE
8
annotation
62
1
39
211
10
32.889306
20
356.499005
11
33.005138
21
356.255146
0
LINE
8
annotation
62
1
39
211
10
33.005138
20
356.255146
11
33.159579
21
356.036649
0
LINE
8
annotation
62
1
39
211
10
33.159579
20
356.036649
11
33.348173
21
355.847943
0
LINE
8
annotation
62
1
39
211
10
33.348173
20
355.847943
11
33.566465
21
355.693460
0
LINE
8
annotation
62
1
39
211
10
33.566465
20
355.693460
11
33.809998
21
355.577629
0
LINE
8
annotation
62
1
39
211
10
33.809998
20
355.577629
11
34.074317
21
355.504882
0
LINE
8
annotation
62
1
39
211
10
34.074317
20
355.504882
11
34.354965
21
355.479648
0
LINE
8
annotation
62
1
39
211
10
34.354965
20
355.479648
11
35.918637
21
355.479648
0
LINE
8
annotation
62
1
39
211
10
32.595890
20
351.472105
11
36.116690
21
351.472105
0
LINE
8
annotation
62
1
39
211
10
171.516709
20
124.769681
11
167.013598
21
118.256343
0
LINE
8
annotation
62
1
39
211
10
167.013598
20
118.256343
11
162.509640
21
124.769681
0
LINE
8
annotation
62
1
39
211
10
167.013598
20
118.780493
11
167.013598
21
111.266275
0
LINE
8
annotation
62
1
39
211
10
183.964831
20
118.017978
11
176.581863
21
118.017978
0
LINE
8
annotation
62
1
39
211
10
192.029236
20
111.266699
11
192.029236
21
124.769258
0
LINE
8
annotation
62
1
39
211
10
192.029236
20
124.769258
11
189.027444
21
121.766619
0
LINE
8
annotation
62
1
39
211
10
204.589554
20
114.268490
11
197.092272
21
114.268490
0
LINE
8
annotation
62
1
39
211
10
197.092272
20
114.268490
11
200.086443
21
124.769258
0
LINE
8
annotation
62
1
39
211
10
202.342232
20
111.266699
11
202.342232
21
117.263508
0
LINE
8
boundary
62
5
39
2
10
435.915681
20
71.502912
11
442.631514
21
79.678949
0
LINE
8
boundary
62
5
39
2
10
442.631514
20
79.678949
11
445.198269
21
94.741472
0
LINE
8
boundary
62
5
39
2
10
445.198269
20
94.741472
11
445.809923
21
97.822011
0
LINE
8
boundary
62
5
39
2
10
445.809923
20
97.822011
11
445.835272
21
98.768452
0
LINE
8
boundary
62
5
39
2
10
445.835272
20
98.768452
11
441.983828
21
107.525978
0
LINE
8
boundary
62
5
39
2
10
441.983828
20
107.525978
11
438.828817
21
114.184215
0
LINE
8
boundary
62
5
39
2
10
438.828817
20
114.184215
11
438.202206
21
115.511145
0
LINE
8
boundary
62
5
39
2
10
438.202206
20
115.511145
11
433.678441
21
129.351035
0
LINE
8
boundary
62
5
39
2
10
433.678441
20
129.351035
11
432.097381
21
133.552103
0
LINE
8
boundary
62
5
39
2
10
432.097381
20
133.552103
11
427.134118
21
143.766455
0
LINE
8
boundary
62
5
39
2
10
427.134118
20
143.766455
11
424.419849
21
148.762274
0
LINE
8
boundary
62
5
39
2
10
424.419849
20
148.762274
11
419.643297
21
156.458692
0
LINE
8
boundary
62
5
39
2
10
419.643297
20
156.458692
11
412.322569
21
168.674437
0
LINE
8
boundary
62
5
39
2
10
412.322569
20
168.674437
11
402.346107
21
180.331332
0
LINE
8
boundary
62
5
39
2
10
402.346107
20
180.331332
11
396.209825
21
187.349027
0
LINE
8
boundary
62
5
39
2
10
396.209825
20
187.349027
11
386.835963
21
199.218068
0
LINE
8
boundary
62
5
39
2
10
386.835963
20
199.218068
11
379.195882
21
208.862559
0
LINE
8
boundary
62
5
39
2
10
379.195882
20
208.862559
11
366.301484
21
223.409719
0
LINE
8
boundary
62
5
39
2
10
366.301484
20
223.409719
11
361.794300
21
228.739177
0
LINE
8
boundary
62
5
39
2
10
361.794300
20
228.739177
11
359.430376
21
230.990854
0
LINE
8
boundary
62
5
39
2
10
359.430376
20
230.990854
11
352.594402
21
236.154854
0
LINE
8
boundary
62
5
39
2
10
352.594402
20
236.154854
11
351.367515
21
237.124861
0
LINE
8
boundary
62
5
39
2
10
351.367515
20
237.124861
11
345.796573
21
240.966342
0
LINE
8
boundary
62
5
39
2
10
345.796573
20
240.966342
11
345.137368
21
241.500298
0
LINE
8
boundary
62
5
39
2
10
345.137368
20
241.500298
11
340.920441
21
246.530384
0
LINE
8
boundary
62
5
39
2
10
340.920441
20
246.530384
11
337.259899
21
250.802790
0
LINE
8
boundary
62
5
39
2
10
337.259899
20
250.802790
11
333.311540
21
256.126690
0
LINE
8
boundary
62
5
39
2
10
333.311540
20
256.126690
11
328.232590
21
262.303218
0
LINE
8
boundary
62
5
39
2
10
328.232590
20
262.303218
11
318.839997
21
273.318968
0
LINE
8
boundary
62
5
39
2
10
318.839997
20
273.318968
11
317.861331
21
274.431480
0
LINE
8
boundary
62
5
39
2
10
317.861331
20
274.431480
11
316.486603
21
276.112927
0
LINE
8
boundary
62
5
39
2
10
316.486603
20
276.112927
11
305.257916
21
289.490071
0
LINE
8
boundary
62
5
39
2
10
305.257916
20
289.490071
11
300.226820
21
294.742744
0
LINE
8
boundary
62
5
39
2
10
300.226820
20
294.742744
11
290.461856
21
304.625305
0
LINE
8
boundary
62
5
39
2
10
290.461856
20
304.625305
11
279.828261
21
313.517661
0
LINE
8
boundary
62
5
39
2
10
279.828261
20
313.517661
11
272.717185
21
319.970546
0
LINE
8
boundary
62
5
39
2
10
272.717185
20
319.970546
11
258.539883
21
332.668100
0
LINE
8
boundary
62
5
39
2
10
258.539883
20
332.668100
11
256.411122
21
334.582847
0
LINE
8
boundary
62
5
39
2
10
256.411122
20
334.582847
11
252.169702
21
338.328800
0
LINE
8
boundary
62
5
39
2
10
252.169702
20
338.328800
11
246.380789
21
343.606639
0
LINE
8
boundary
62
5
39
2
10
246.380789
20
343.606639
11
246.380789
21
321.995994
0
LINE
8
boundary
62
5
39
2
10
246.380789
20
321.995994
11
250.836103
21
321.555894
0
LINE
8
boundary
62
5
39
2
10
250.836103
20
321.555894
11
259.638122
21
321.555894
0
LINE
8
boundary
62
5
39
2
10
259.638122
20
321.555894
11
259.638122
21
317.504895
0
LINE
8
boundary
62
5
39
2
10
259.638122
20
317.504895
11
250.836103
21
317.504894
0
LINE
8
boundary
62
5
39
2
10
250.836103
20
317.504894
11
246.380789
21
317.064795
0
LINE
8
boundary
62
5
39
2
10
246.380789
20
317.064795
11
246.380789
21
262.026232
0
LINE
8
boundary
62
5
39
2
10
246.380789
20
262.026232
11
250.836103
21
261.586133
0
LINE
8
boundary
62
5
39
2
10
250.836103
20
261.586133
11
288.387441
21
261.586132
0
LINE
8
boundary
62
5
39
2
10
288.387441
20
261.586132
11
288.387441
21
257.535133
0
LINE
8
boundary
62
5
39
2
10
288.387441
20
257.535133
11
250.836103
21
257.535133
0
LINE
8
boundary
62
5
39
2
10
250.836103
20
257.535133
11
246.380789
21
257.095032
0
LINE
8
boundary
62
5
39
2
10
246.380789
20
257.095032
11
246.380789
21
208.437490
0
LINE
8
boundary
62
5
39
2
10
246.380789
20
208.437490
11
250.836103
21
207.997391
0
LINE
8
boundary
62
5
39
2
10
250.836103
20
207.997391
11
313.777630
21
207.997390
0
LINE
8
boundary
62
5
39
2
10
313.777630
20
207.997390
11
313.777630
21
203.946391
0
LINE
8
boundary
62
5
39
2
10
313.777630
20
203.946391
11
250.836103
21
203.946390
0
LINE
8
boundary
62
5
39
2
10
250.836103
20
203.946390
11
246.380789
21
203.506291
0
LINE
8
boundary
62
5
39
2
10
246.380789
20
203.506291
11
246.380789
21
169.001138
0
LINE
8
boundary
62
5
39
2
10
246.380789
20
169.001138
11
250.836103
21
168.561038
0
LINE
8
boundary
62
5
39
2
10
250.836103
20
168.561038
11
329.827040
21
168.561038
0
LINE
8
boundary
62
5
39
2
10
329.827040
20
168.561038
11
329.827041
21
164.510038
0
LINE
8
boundary
62
5
39
2
10
329.827041
20
164.510038
11
250.836103
21
164.510038
0
LINE
8
boundary
62
5
39
2
10
250.836103
20
164.510038
11
246.380789
21
164.069938
0
LINE
8
boundary
62
5
39
2
10
246.380789
20
164.069938
11
246.380789
21
157.442531
0
LINE
8
boundary
62
5
39
2
10
246.380789
20
157.442531
11
251.104988
21
149.181366
0
LINE
8
boundary
62
5
39
2
10
251.104988
20
149.181366
11
251.601864
21
148.106779
0
LINE
8
boundary
62
5
39
2
10
251.601864
20
148.106779
11
257.926752
21
135.256281
0
LINE
8
boundary
62
5
39
2
10
257.926752
20
135.256281
11
258.345594
21
133.706473
0
LINE
8
boundary
62
5
39
2
10
258.345594
20
133.706473
11
259.334875
21
129.564785
0
LINE
8
boundary
62
5
39
2
10
259.334875
20
129.564785
11
263.790188
21
129.124686
0
LINE
8
boundary
62
5
39
2
10
263.790188
20
129.124686
11
347.038079
21
129.124685
0
LINE
8
boundary
62
5
39
2
10
347.038079
20
129.124685
11
347.038080
21
125.073685
0
LINE
8
boundary
62
5
39
2
10
347.038080
20
125.073685
11
264.968051
21
125.073685
0
LINE
8
boundary
62
5
39
2
10
264.968051
20
125.073685
11
260.512737
21
124.633585
0
LINE
8
boundary
62
5
39
2
10
260.512737
20
124.633585
11
261.564686
21
120.229531
0
LINE
8
boundary
62
5
39
2
10
261.564686
20
120.229531
11
261.972693
21
118.459764
0
LINE
8
boundary
62
5
39
2
10
261.972693
20
118.459764
11
264.959864
21
104.167031
0
LINE
8
boundary
62
5
39
2
10
264.959864
20
104.167031
11
266.494762
21
100.068702
0
LINE
8
boundary
62
5
39
2
10
266.494762
20
100.068702
11
270.533086
21
90.128433
0
LINE
8
boundary
62
5
39
2
10
270.533086
20
90.128433
11
274.988401
21
89.688333
0
LINE
8
boundary
62
5
39
2
10
274.988401
20
89.688333
11
357.619613
21
89.688333
0
LINE
8
boundary
62
5
39
2
10
357.619613
20
89.688333
11
357.619613
21
85.637333
0
LINE
8
boundary
62
5
39
2
10
357.619613
20
85.637333
11
277.182442
21
85.637333
0
LINE
8
boundary
62
5
39
2
10
277.182442
20
85.637333
11
272.727128
21
85.197233
0
LINE
8
boundary
62
5
39
2
10
272.727128
20
85.197233
11
278.333415
21
72.882518
0
LINE
8
boundary
62
5
39
2
10
278.333415
20
72.882518
11
279.609119
21
70.632309
0
LINE
8
boundary
62
5
39
2
10
279.609119
20
70.632309
11
280.979280
21
68.174039
0
LINE
8
boundary
62
5
39
2
10
280.979280
20
68.174039
11
287.243489
21
57.900682
0
LINE
8
boundary
62
5
39
2
10
287.243489
20
57.900682
11
288.721357
21
52.481263
0
LINE
8
boundary
62
5
39
2
10
288.721357
20
52.481263
11
289.917137
21
50.692081
0
LINE
8
boundary
62
5
39
2
10
289.917137
20
50.692081
11
294.372451
21
50.251980
0
LINE
8
boundary
62
5
39
2
10
294.372451
20
50.251980
11
364.771012
21
50.251980
0
LINE
8
boundary
62
5
39
2
10
364.771012
20
50.251980
11
364.771012
21
46.200980
0
LINE
8
boundary
62
5
39
2
10
364.771012
20
46.200980
11
297.668161
21
46.200980
0
LINE
8
boundary
62
5
39
2
10
297.668161
20
46.200980
11
293.212847
21
45.760880
0
LINE
8
boundary
62
5
39
2
10
293.212847
20
45.760880
11
298.104788
21
38.441323
0
LINE
8
boundary
62
5
39
2
10
298.104788
20
38.441323
11
300.153649
21
35.842945
0
LINE
8
boundary
62
5
39
2
10
300.153649
20
35.842945
11
304.589991
21
31.341867
0
LINE
8
boundary
62
5
39
2
10
304.589991
20
31.341867
11
316.444485
21
20.711104
0
LINE
8
boundary
62
5
39
2
10
316.444485
20
20.711104
11
322.428747
21
17.807013
0
LINE
8
boundary
62
5
39
2
10
322.428747
20
17.807013
11
336.681684
21
11.255728
0
LINE
8
boundary
62
5
39
2
10
336.681684
20
11.255728
11
341.136998
21
10.815628
0
LINE
8
boundary
62
5
39
2
10
341.136998
20
10.815628
11
360.760943
21
10.815628
0
LINE
8
boundary
62
5
39
2
10
360.760943
20
10.815628
11
360.760944
21
7.053786
0
LINE
8
boundary
62
5
39
2
10
360.760944
20
7.053786
11
367.487268
21
7.729797
0
LINE
8
boundary
62
5
39
2
10
367.487268
20
7.729797
11
375.527125
21
8.384416
0
LINE
8
boundary
62
5
39
2
10
375.527125
20
8.384416
11
383.465636
21
11.658708
0
LINE
8
boundary
62
5
39
2
10
383.465636
20
11.658708
11
392.813834
21
14.963749
0
LINE
8
boundary
62
5
39
2
10
392.813834
20
14.963749
11
401.610410
21
20.212620
0
LINE
8
boundary
62
5
39
2
10
401.610410
20
20.212620
11
407.925503
21
23.844535
0
LINE
8
boundary
62
5
39
2
10
407.925503
20
23.844535
11
415.181855
21
26.585777
0
LINE
8
boundary
62
5
39
2
10
415.181855
20
26.585777
11
425.357038
21
33.839780
0
LINE
8
boundary
62
5
39
2
10
425.357038
20
33.839780
11
426.589574
21
34.266131
0
LINE
8
boundary
62
5
39
2
10
426.589574
20
34.266131
11
427.842831
21
34.268110
0
LINE
8
boundary
62
5
39
2
10
427.842831
20
34.268110
11
431.901218
21
40.609773
0
LINE
8
boundary
62
5
39
2
10
431.901218
20
40.609773
11
440.658848
21
51.464266
0
LINE
8
boundary
62
5
39
2
10
440.658848
20
51.464266
11
439.491654
21
57.752041
0
LINE
8
boundary
62
5
39
2
10
439.491654
20
57.752041
11
436.899074
21
69.159161
0
LINE
8
boundary
62
5
39
2
10
436.899074
20
69.159161
11
435.915681
21
71.502912
0
LINE
8
annotation
62
1
39
211
10
364.030765
20
7.738835
11
363.096972
21
7.738835
0
LINE
8
annotation
62
1
39
211
10
363.096972
20
7.738835
11
363.959827
21
9.127922
0
LINE
8
annotation
62
1
39
211
10
363.959827
20
9.127922
11
363.959827
21
9.127922
0
LINE
8
annotation
62
1
39
211
10
363.959827
20
9.127922
11
363.960859
21
9.129198
0
LINE
8
annotation
62
1
39
211
10
363.960859
20
9.129198
11
363.961848
21
9.130485
0
LINE
8
annotation
62
1
39
211
10
363.961848
20
9.130485
11
363.962801
21
9.131794
0
LINE
8
annotation
62
1
39
211
10
363.962801
20
9.131794
11
363.963725
21
9.133136
0
LINE
8
annotation
62
1
39
211
10
363.963725
20
9.133136
11
363.964627
21
9.134521
0
LINE
8
annotation
62
1
39
211
10
363.964627
20
9.134521
11
363.965512
21
9.135960
0
LINE
8
annotation
62
1
39
211
10
363.965512
20
9.135960
11
363.966387
21
9.137464
0
LINE
8
annotation
62
1
39
211
10
363.966387
20
9.137464
11
363.967259
21
9.139045
0
LINE
8
annotation
62
1
39
211
10
363.967259
20
9.139045
11
363.968134
21
9.140712
0
LINE
8
annotation
62
1
39
211
10
363.968134
20
9.140712
11
363.968134
21
9.140712
0
LINE
8
annotation
62
1
39
211
10
363.968134
20
9.140712
11
364.003761
21
9.217206
0
LINE
8
annotation
62
1
39
211
10
364.003761
20
9.217206
11
364.024574
21
9.296499
0
LINE
8
annotation
62
1
39
211
10
364.024574
20
9.296499
11
364.031082
21
9.376799
0
LINE
8
annotation
62
1
39
211
10
364.031082
20
9.376799
11
364.023797
21
9.456315
0
LINE
8
annotation
62
1
39
211
10
364.023797
20
9.456315
11
364.003227
21
9.533254
0
LINE
8
annotation
62
1
39
211
10
364.003227
20
9.533254
11
363.969882
21
9.605826
0
LINE
8
annotation
62
1
39
211
10
363.969882
20
9.605826
11
363.924274
21
9.672237
0
LINE
8
annotation
62
1
39
211
10
363.924274
20
9.672237
11
363.866912
21
9.730697
0
LINE
8
annotation
62
1
39
211
10
363.866912
20
9.730697
11
363.798306
21
9.779415
0
LINE
8
annotation
62
1
39
211
10
363.798306
20
9.779415
11
363.798306
21
9.779415
0
LINE
8
annotation
62
1
39
211
10
363.798306
20
9.779415
11
363.721599
21
9.814535
0
LINE
8
annotation
62
1
39
211
10
363.721599
20
9.814535
11
363.642184
21
9.835027
0
LINE
8
annotation
62
1
39
211
10
363.642184
20
9.835027
11
363.561837
21
9.841352
0
LINE
8
annotation
62
1
39
211
10
363.561837
20
9.841352
11
363.482333
21
9.833970
0
LINE
8
annotation
62
1
39
211
10
363.482333
20
9.833970
11
363.405448
21
9.813343
0
LINE
8
annotation
62
1
39
211
10
363.405448
20
9.813343
11
363.332957
21
9.779932
0
LINE
8
annotation
62
1
39
211
10
363.332957
20
9.779932
11
363.266636
21
9.734199
0
LINE
8
annotation
62
1
39
211
10
363.266636
20
9.734199
11
363.208259
21
9.676604
0
LINE
8
annotation
62
1
39
211
10
363.208259
20
9.676604
11
363.159603
21
9.607608
0
LINE
8
annotation
62
1
39
211
10
363.159603
20
9.607608
11
363.098290
21
9.489994
0
LINE
8
annotation
62
1
39
211
10
372.183457
20
44.705901
11
373.747129
21
44.705901
0
LINE
8
annotation
62
1
39
211
10
373.747129
20
44.705901
11
373.747129
21
44.705901
0
LINE
8
annotation
62
1
39
211
10
373.747129
20
44.705901
11
374.028359
21
44.731129
0
LINE
8
annotation
62
1
39
211
10
374.028359
20
44.731129
11
374.292986
21
44.803838
0
LINE
8
annotation
62
1
39
211
10
374.292986
20
44.803838
11
374.536610
21
44.919565
0
LINE
8
annotation
62
1
39
211
10
374.536610
20
44.919565
11
374.754829
21
45.073847
0
LINE
8
annotation
62
1
39
211
10
374.754829
20
45.073847
11
374.943242
21
45.262220
0
LINE
8
annotation
62
1
39
211
10
374.943242
20
45.262220
11
375.097446
21
45.480222
0
LINE
8
annotation
62
1
39
211
10
375.097446
20
45.480222
11
375.213042
21
45.723388
0
LINE
8
annotation
62
1
39
211
10
375.213042
20
45.723388
11
375.285627
21
45.987257
0
LINE
8
annotation
62
1
39
211
10
375.285627
20
45.987257
11
375.310800
21
46.267365
0
LINE
8
annotation
62
1
39
211
10
375.310800
20
46.267365
11
375.310800
21
47.050304
0
LINE
8
annotation
62
1
39
211
10
375.310800
20
47.050304
11
375.310800
21
47.050304
0
LINE
8
annotation
62
1
39
211
10
375.310800
20
47.050304
11
375.285627
21
47.330296
0
LINE
8
annotation
62
1
39
211
10
375.285627
20
47.330296
11
375.213042
21
47.594103
0
LINE
8
annotation
62
1
39
211
10
375.213042
20
47.594103
11
375.097446
21
47.837251
0
LINE
8
annotation
62
1
39
211
10
375.097446
20
47.837251
11
374.943242
21
48.055267
0
LINE
8
annotation
62
1
39
211
10
374.943242
20
48.055267
11
374.754829
21
48.243677
0
LINE
8
annotation
62
1
39
211
10
374.754829
20
48.243677
11
374.536610
21
48.398005
0
LINE
8
annotation
62
1
39
211
10
374.536610
20
48.398005
11
374.292986
21
48.513780
0
LINE
8
annotation
62
1
39
211
10
374.292986
20
48.513780
11
374.028359
21
48.586525
0
LINE
8
annotation
62
1
39
211
10
374.028359
20
48.586525
11
373.747129
21
48.611768
0
LINE
8
annotation
62
1
39
211
10
373.747129
20
48.611768
11
372.964189
21
48.611768
0
LINE
8
annotation
62
1
39
211
10
372.964189
20
48.611768
11
373.747129
21
48.611768
0
LINE
8
annotation
62
1
39
211
10
373.747129
20
48.611768
11
373.747129
21
48.611768
0
LINE
8
annotation
62
1
39
211
10
373.747129
20
48.611768
11
374.028359
21
48.637017
0
LINE
8
annotation
62
1
39
211
10
374.028359
20
48.637017
11
374.292986
21
48.709805
0
LINE
8
annotation
62
1
39
211
10
374.292986
20
48.709805
11
374.536610
21
48.825694
0
LINE
8
annotation
62
1
39
211
10
374.536610
20
48.825694
11
374.754829
21
48.980247
0
LINE
8
annotation
62
1
39
211
10
374.754829
20
48.980247
11
374.943242
21
49.169026
0
LINE
8
annotation
62
1
39
211
10
374.943242
20
49.169026
11
375.097446
21
49.387593
0
LINE
8
annotation
62
1
39
211
10
375.097446
20
49.387593
11
375.213042
21
49.631511
0
LINE
8
annotation
62
1
39
211
10
375.213042
20
49.631511
11
375.285627
21
49.896342
0
LINE
8
annotation
62
1
39
211
10
375.285627
20
49.896342
11
375.310800
21
50.177647
0
LINE
8
annotation
62
1
39
211
10
375.310800
20
50.177647
11
375.310800
21
50.177647
0
LINE
8
annotation
62
1
39
211
10
375.310800
20
50.177647
11
375.285627
21
50.457639
0
LINE
8
annotation
62
1
39
211
10
375.285627
20
50.457639
11
375.213042
21
50.721446
0
LINE
8
annotation
62
1
39
211
10
375.213042
20
50.721446
11
375.097446
21
50.964594
0
LINE
8
annotation
62
1
39
211
10
375.097446
20
50.964594
11
374.943242
21
51.182610
0
LINE
8
annotation
62
1
39
211
10
374.943242
20
51.182610
11
374.754829
21
51.371020
0
LINE
8
annotation
62
1
39
211
10
374.754829
20
51.371020
11
374.536610
21
51.525348
0
LINE
8
annotation
62
1
39
211
10
374.536610
20
51.525348
11
374.292986
21
51.641123
0
LINE
8
annotation
62
1
39
211
10
374.292986
20
51.641123
11
374.028359
21
51.713868
0
LINE
8
annotation
62
1
39
211
10
374.028359
20
51.713868
11
373.747129
21
51.739111
0
LINE
8
annotation
62
1
39
211
10
373.747129
20
51.739111
11
372.183457
21
51.739111
0
LINE
8
annotation
62
1
39
211
10
368.550651
20
85.707471
11
364.640810
21
85.707471
0
LINE
8
annotation
62
1
39
211
10
364.640810
20
85.707471
11
366.202273
21
91.183633
0
LINE
8
annotation
62
1
39
211
10
367.378670
20
84.142033
11
367.378670
21
87.269376
0
LINE
8
annotation
62
1
39
211
10
354.450525
20
123.578385
11
356.014196
21
123.578385
0
LINE
8
annotation
62
1
39
211
10
356.014196
20
123.578385
11
356.014196
21
123.578385
0
LINE
8
annotation
62
1
39
211
10
356.014196
20
123.578385
11
356.294845
21
123.603619
0
LINE
8
annotation
62
1
39
211
10
356.294845
20
123.603619
11
356.559164
21
123.676366
0
LINE
8
annotation
62
1
39
211
10
356.559164
20
123.676366
11
356.802697
21
123.792197
0
LINE
8
annotation
62
1
39
211
10
356.802697
20
123.792197
11
357.020988
21
123.946680
0
LINE
8
annotation
62
1
39
211
10
357.020988
20
123.946680
11
357.209583
21
124.135386
0
LINE
8
annotation
62
1
39
211
10
357.209583
20
124.135386
11
357.364024
21
124.353883
0
LINE
8
annotation
62
1
39
211
10
357.364024
20
124.353883
11
357.479855
21
124.597743
0
LINE
8
annotation
62
1
39
211
10
357.479855
20
124.597743
11
357.552622
21
124.862533
0
LINE
8
annotation
62
1
39
211
10
357.552622
20
124.862533
11
357.577868
21
125.143823
0
LINE
8
annotation
62
1
39
211
10
357.577868
20
125.143823
11
357.577868
21
125.922789
0
LINE
8
annotation
62
1
39
211
10
357.577868
20
125.922789
11
357.577868
21
125.922789
0
LINE
8
annotation
62
1
39
211
10
357.577868
20
125.922789
11
357.552637
21
126.203943
0
LINE
8
annotation
62
1
39
211
10
357.552637
20
126.203943
11
357.479906
21
126.468368
0
LINE
8
annotation
62
1
39
211
10
357.479906
20
126.468368
11
357.364122
21
126.711698
0
LINE
8
annotation
62
1
39
211
10
357.364122
20
126.711698
11
357.209728
21
126.929569
0
LINE
8
annotation
62
1
39
211
10
357.209728
20
126.929569
11
357.021170
21
127.117615
0
LINE
8
annotation
62
1
39
211
10
357.021170
20
127.117615
11
356.802893
21
127.271471
0
LINE
8
annotation
62
1
39
211
10
356.802893
20
127.271471
11
356.559342
21
127.386773
0
LINE
8
annotation
62
1
39
211
10
356.559342
20
127.386773
11
356.294961
21
127.459155
0
LINE
8
annotation
62
1
39
211
10
356.294961
20
127.459155
11
356.014196
21
127.484252
0
LINE
8
annotation
62
1
39
211
10
356.014196
20
127.484252
11
354.450525
21
127.484252
0
LINE
8
annotation
62
1
39
211
10
354.450525
20
127.484252
11
354.450525
21
130.619985
0
LINE
8
annotation
62
1
39
211
10
354.450525
20
130.619985
11
357.577868
21
130.619985
0
LINE
8
annotation
62
1
39
211
10
339.588305
20
170.056338
11
339.588305
21
170.056338
0
LINE
8
annotation
62
1
39
211
10
339.588305
20
170.056338
11
339.140352
21
169.888383
0
LINE
8
annotation
62
1
39
211
10
339.140352
20
169.888383
11
338.729297
21
169.662083
0
LINE
8
annotation
62
1
39
211
10
338.729297
20
169.662083
11
338.359359
21
169.383109
0
LINE
8
annotation
62
1
39
211
10
338.359359
20
169.383109
11
338.034757
21
169.057130
0
LINE
8
annotation
62
1
39
211
10
338.034757
20
169.057130
11
337.759712
21
168.689816
0
LINE
8
annotation
62
1
39
211
10
337.759712
20
168.689816
11
337.538442
21
168.286836
0
LINE
8
annotation
62
1
39
211
10
337.538442
20
168.286836
11
337.375168
21
167.853861
0
LINE
8
annotation
62
1
39
211
10
337.375168
20
167.853861
11
337.274110
21
167.396561
0
LINE
8
annotation
62
1
39
211
10
337.274110
20
167.396561
11
337.239486
21
166.920605
0
LINE
8
annotation
62
1
39
211
10
337.239486
20
166.920605
11
337.239486
21
164.580176
0
LINE
8
annotation
62
1
39
211
10
337.239486
20
164.580176
11
337.239486
21
164.580176
0
LINE
8
annotation
62
1
39
211
10
337.239486
20
164.580176
11
337.264731
21
164.298885
0
LINE
8
annotation
62
1
39
211
10
337.264731
20
164.298885
11
337.337498
21
164.034095
0
LINE
8
annotation
62
1
39
211
10
337.337498
20
164.034095
11
337.453330
21
163.790236
0
LINE
8
annotation
62
1
39
211
10
337.453330
20
163.790236
11
337.607771
21
163.571738
0
LINE
8
annotation
62
1
39
211
10
337.607771
20
163.571738
11
337.796365
21
163.383033
0
LINE
8
annotation
62
1
39
211
10
337.796365
20
163.383033
11
338.014657
21
163.228549
0
LINE
8
annotation
62
1
39
211
10
338.014657
20
163.228549
11
338.258190
21
163.112719
0
LINE
8
annotation
62
1
39
211
10
338.258190
20
163.112719
11
338.522509
21
163.039972
0
LINE
8
annotation
62
1
39
211
10
338.522509
20
163.039972
11
338.803157
21
163.014738
0
LINE
8
annotation
62
1
39
211
10
338.803157
20
163.014738
11
338.803157
21
163.014738
0
LINE
8
annotation
62
1
39
211
10
338.803157
20
163.014738
11
339.084387
21
163.039972
0
LINE
8
annotation
62
1
39
211
10
339.084387
20
163.039972
11
339.349015
21
163.112719
0
LINE
8
annotation
62
1
39
211
10
339.349015
20
163.112719
11
339.592639
21
163.228549
0
LINE
8
annotation
62
1
39
211
10
339.592639
20
163.228549
11
339.810858
21
163.383033
0
LINE
8
annotation
62
1
39
211
10
339.810858
20
163.383033
11
339.999270
21
163.571738
0
LINE
8
annotation
62
1
39
211
10
339.999270
20
163.571738
11
340.153475
21
163.790236
0
LINE
8
annotation
62
1
39
211
10
340.153475
20
163.790236
11
340.269071
21
164.034095
0
LINE
8
annotation
62
1
39
211
10
340.269071
20
164.034095
11
340.341656
21
164.298885
0
LINE
8
annotation
62
1
39
211
10
340.341656
20
164.298885
11
340.366829
21
164.580176
0
LINE
8
annotation
62
1
39
211
10
340.366829
20
164.580176
11
340.366829
21
165.359141
0
LINE
8
annotation
62
1
39
211
10
340.366829
20
165.359141
11
340.366829
21
165.359141
0
LINE
8
annotation
62
1
39
211
10
340.366829
20
165.359141
11
340.341656
21
165.640296
0
LINE
8
annotation
62
1
39
211
10
340.341656
20
165.640296
11
340.269071
21
165.904720
0
LINE
8
annotation
62
1
39
211
10
340.269071
20
165.904720
11
340.153475
21
166.148051
0
LINE
8
annotation
62
1
39
211
10
340.153475
20
166.148051
11
339.999270
21
166.365921
0
LINE
8
annotation
62
1
39
211
10
339.999270
20
166.365921
11
339.810858
21
166.553967
0
LINE
8
annotation
62
1
39
211
10
339.810858
20
166.553967
11
339.592639
21
166.707824
0
LINE
8
annotation
62
1
39
211
10
339.592639
20
166.707824
11
339.349015
21
166.823125
0
LINE
8
annotation
62
1
39
211
10
339.349015
20
166.823125
11
339.084387
21
166.895507
0
LINE
8
annotation
62
1
39
211
10
339.084387
20
166.895507
11
338.803157
21
166.920605
0
LINE
8
annotation
62
1
39
211
10
338.803157
20
166.920605
11
337.239486
21
166.920605
0
LINE
8
annotation
62
1
39
211
10
337.043640
20
162.134538
11
340.564440
21
162.134538
0
LINE
8
annotation
62
1
39
211
10
322.753747
20
202.451090
11
324.319185
21
209.492690
0
LINE
8
annotation
62
1
39
211
10
324.319185
20
209.492690
11
321.187867
21
209.492690
0
LINE
8
annotation
62
1
39
211
10
324.319185
20
206.356957
11
322.753747
21
206.356957
0
LINE
8
annotation
62
1
39
211
10
295.799887
20
257.601075
11
295.799887
21
257.601075
0
LINE
8
annotation
62
1
39
211
10
295.799887
20
257.601075
11
295.825132
21
257.319921
0
LINE
8
annotation
62
1
39
211
10
295.825132
20
257.319921
11
295.897899
21
257.055496
0
LINE
8
annotation
62
1
39
211
10
295.897899
20
257.055496
11
296.013731
21
256.812166
0
LINE
8
annotation
62
1
39
211
10
296.013731
20
256.812166
11
296.168172
21
256.594295
0
LINE
8
annotation
62
1
39
211
10
296.168172
20
256.594295
11
296.356766
21
256.406249
0
LINE
8
annotation
62
1
39
211
10
296.356766
20
256.406249
11
296.575058
21
256.252393
0
LINE
8
annotation
62
1
39
211
10
296.575058
20
256.252393
11
296.818591
21
256.137091
0
LINE
8
annotation
62
1
39
211
10
296.818591
20
256.137091
11
297.082910
21
256.064709
0
LINE
8
annotation
62
1
39
211
10
297.082910
20
256.064709
11
297.363558
21
256.039612
0
LINE
8
annotation
62
1
39
211
10
297.363558
20
256.039612
11
297.363558
21
256.039612
0
LINE
8
annotation
62
1
39
211
10
297.363558
20
256.039612
11
297.644207
21
256.064709
0
LINE
8
annotation
62
1
39
211
10
297.644207
20
256.064709
11
297.908525
21
256.137091
0
LINE
8
annotation
62
1
39
211
10
297.908525
20
256.137091
11
298.152059
21
256.252393
0
LINE
8
annotation
62
1
39
211
10
298.152059
20
256.252393
11
298.370350
21
256.406249
0
LINE
8
annotation
62
1
39
211
10
298.370350
20
256.406249
11
298.558944
21
256.594295
0
LINE
8
annotation
62
1
39
211
10
298.558944
20
256.594295
11
298.713385
21
256.812166
0
LINE
8
annotation
62
1
39
211
10
298.713385
20
256.812166
11
298.829217
21
257.055496
0
LINE
8
annotation
62
1
39
211
10
298.829217
20
257.055496
11
298.901984
21
257.319921
0
LINE
8
annotation
62
1
39
211
10
298.901984
20
257.319921
11
298.927230
21
257.601075
0
LINE
8
annotation
62
1
39
211
10
298.927230
20
257.601075
11
298.927230
21
258.380041
0
LINE
8
annotation
62
1
39
211
10
298.927230
20
258.380041
11
298.927230
21
258.380041
0
LINE
8
annotation
62
1
39
211
10
298.927230
20
258.380041
11
298.901998
21
258.661331
0
LINE
8
annotation
62
1
39
211
10
298.901998
20
258.661331
11
298.829268
21
258.926122
0
LINE
8
annotation
62
1
39
211
10
298.829268
20
258.926122
11
298.713483
21
259.169981
0
LINE
8
annotation
62
1
39
211
10
298.713483
20
259.169981
11
298.559090
21
259.388478
0
LINE
8
annotation
62
1
39
211
10
298.559090
20
259.388478
11
298.370532
21
259.577184
0
LINE
8
annotation
62
1
39
211
10
298.370532
20
259.577184
11
298.152255
21
259.731667
0
LINE
8
annotation
62
1
39
211
10
298.152255
20
259.731667
11
297.908703
21
259.847498
0
LINE
8
annotation
62
1
39
211
10
297.908703
20
259.847498
11
297.644323
21
259.920245
0
LINE
8
annotation
62
1
39
211
10
297.644323
20
259.920245
11
297.363558
21
259.945479
0
LINE
8
annotation
62
1
39
211
10
297.363558
20
259.945479
11
297.363558
21
259.945479
0
LINE
8
annotation
62
1
39
211
10
297.363558
20
259.945479
11
297.082793
21
259.920230
0
LINE
8
annotation
62
1
39
211
10
297.082793
20
259.920230
11
296.818413
21
259.847447
0
LINE
8
annotation
62
1
39
211
10
296.818413
20
259.847447
11
296.574861
21
259.731569
0
LINE
8
annotation
62
1
39
211
10
296.574861
20
259.731569
11
296.356584
21
259.577038
0
LINE
8
annotation
62
1
39
211
10
296.356584
20
259.577038
11
296.168026
21
259.388296
0
LINE
8
annotation
62
1
39
211
10
296.168026
20
259.388296
11
296.013633
21
259.169784
0
LINE
8
annotation
62
1
39
211
10
296.013633
20
259.169784
11
295.897848
21
258.925943
0
LINE
8
annotation
62
1
39
211
10
295.897848
20
258.925943
11
295.825118
21
258.661215
0
LINE
8
annotation
62
1
39
211
10
295.825118
20
258.661215
11
295.799887
21
258.380041
0
LINE
8
annotation
62
1
39
211
10
295.799887
20
258.380041
11
295.799887
21
257.601075
0
LINE
8
annotation
62
1
39
211
10
298.927230
20
261.511358
11
298.927230
21
261.511358
0
LINE
8
annotation
62
1
39
211
10
298.927230
20
261.511358
11
298.901998
21
261.791349
0
LINE
8
annotation
62
1
39
211
10
298.901998
20
261.791349
11
298.829268
21
262.055156
0
LINE
8
annotation
62
1
39
211
10
298.829268
20
262.055156
11
298.713483
21
262.298305
0
LINE
8
annotation
62
1
39
211
10
298.713483
20
262.298305
11
298.559090
21
262.516321
0
LINE
8
annotation
62
1
39
211
10
298.559090
20
262.516321
11
298.370532
21
262.704730
0
LINE
8
annotation
62
1
39
211
10
298.370532
20
262.704730
11
298.152255
21
262.859059
0
LINE
8
annotation
62
1
39
211
10
298.152255
20
262.859059
11
297.908703
21
262.974833
0
LINE
8
annotation
62
1
39
211
10
297.908703
20
262.974833
11
297.644323
21
263.047579
0
LINE
8
annotation
62
1
39
211
10
297.644323
20
263.047579
11
297.363558
21
263.072822
0
LINE
8
annotation
62
1
39
211
10
297.363558
20
263.072822
11
297.363558
21
263.072822
0
LINE
8
annotation
62
1
39
211
10
297.363558
20
263.072822
11
297.082793
21
263.047579
0
LINE
8
annotation
62
1
39
211
10
297.082793
20
263.047579
11
296.818413
21
262.974833
0
LINE
8
annotation
62
1
39
211
10
296.818413
20
262.974833
11
296.574861
21
262.859059
0
LINE
8
annotation
62
1
39
211
10
296.574861
20
262.859059
11
296.356584
21
262.704730
0
LINE
8
annotation
62
1
39
211
10
296.356584
20
262.704730
11
296.168026
21
262.516321
0
LINE
8
annotation
62
1
39
211
10
296.168026
20
262.516321
11
296.013633
21
262.298305
0
LINE
8
annotation
62
1
39
211
10
296.013633
20
262.298305
11
295.897848
21
262.055156
0
LINE
8
annotation
62
1
39
211
10
295.897848
20
262.055156
11
295.825118
21
261.791349
0
LINE
8
annotation
62
1
39
211
10
295.825118
20
261.791349
11
295.799887
21
261.511358
0
LINE
8
annotation
62
1
39
211
10
295.799887
20
261.511358
11
295.799887
21
261.511358
0
LINE
8
annotation
62
1
39
211
10
295.799887
20
261.511358
11
295.825132
21
261.230052
0
LINE
8
annotation
62
1
39
211
10
295.825132
20
261.230052
11
295.897899
21
260.965222
0
LINE
8
annotation
62
1
39
211
10
295.897899
20
260.965222
11
296.013731
21
260.721304
0
LINE
8
annotation
62
1
39
211
10
296.013731
20
260.721304
11
296.168172
21
260.502737
0
LINE
8
annotation
62
1
39
211
10
296.168172
20
260.502737
11
296.356766
21
260.313958
0
LINE
8
annotation
62
1
39
211
10
296.356766
20
260.313958
11
296.575058
21
260.159405
0
LINE
8
annotation
62
1
39
211
10
296.575058
20
260.159405
11
296.818591
21
260.043515
0
LINE
8
annotation
62
1
39
211
10
296.818591
20
260.043515
11
297.082910
21
259.970727
0
LINE
8
annotation
62
1
39
211
10
297.082910
20
259.970727
11
297.363558
21
259.945479
0
LINE
8
annotation
62
1
39
211
10
297.363558
20
259.945479
11
297.363558
21
259.945479
0
LINE
8
annotation
62
1
39
211
10
297.363558
20
259.945479
11
297.644207
21
259.970727
0
LINE
8
annotation
62
1
39
211
10
297.644207
20
259.970727
11
297.908525
21
260.043515
0
LINE
8
annotation
62
1
39
211
10
297.908525
20
260.043515
11
298.152059
21
260.159405
0
LINE
8
annotation
62
1
39
211
10
298.152059
20
260.159405
11
298.370350
21
260.313958
0
LINE
8
annotation
62
1
39
211
10
298.370350
20
260.313958
11
298.558944
21
260.502737
0
LINE
8
annotation
62
1
39
211
10
298.558944
20
260.502737
11
298.713385
21
260.721304
0
LINE
8
annotation
62
1
39
211
10
298.713385
20
260.721304
11
298.829217
21
260.965222
0
LINE
8
annotation
62
1
39
211
10
298.829217
20
260.965222
11
298.901984
21
261.230052
0
LINE
8
annotation
62
1
39
211
10
298.901984
20
261.230052
11
298.927230
21
261.511358
0
LINE
8
annotation
62
1
39
211
10
266.340871
20
316.664045
11
266.340871
21
316.664045
0
LINE
8
annotation
62
1
39
211
10
266.340871
20
316.664045
11
266.704915
21
316.799706
0
LINE
8
annotation
62
1
39
211
10
266.704915
20
316.799706
11
267.039063
21
316.983076
0
LINE
8
annotation
62
1
39
211
10
267.039063
20
316.983076
11
267.339861
21
317.209484
0
LINE
8
annotation
62
1
39
211
10
267.339861
20
317.209484
11
267.603856
21
317.474257
0
LINE
8
annotation
62
1
39
211
10
267.603856
20
317.474257
11
267.827595
21
317.772722
0
LINE
8
annotation
62
1
39
211
10
267.827595
20
317.772722
11
268.007625
21
318.100209
0
LINE
8
annotation
62
1
39
211
10
268.007625
20
318.100209
11
268.140493
21
318.452045
0
LINE
8
annotation
62
1
39
211
10
268.140493
20
318.452045
11
268.222746
21
318.823557
0
LINE
8
annotation
62
1
39
211
10
268.222746
20
318.823557
11
268.250931
21
319.210074
0
LINE
8
annotation
62
1
39
211
10
268.250931
20
319.210074
11
268.250931
21
321.121932
0
LINE
8
annotation
62
1
39
211
10
268.250931
20
321.121932
11
268.250931
21
321.121932
0
LINE
8
annotation
62
1
39
211
10
268.250931
20
321.121932
11
268.230438
21
321.350948
0
LINE
8
annotation
62
1
39
211
10
268.230438
20
321.350948
11
268.171345
21
321.566552
0
LINE
8
annotation
62
1
39
211
10
268.171345
20
321.566552
11
268.077236
21
321.765130
0
LINE
8
annotation
62
1
39
211
10
268.077236
20
321.765130
11
267.951695
21
321.943070
0
LINE
8
annotation
62
1
39
211
10
267.951695
20
321.943070
11
267.798305
21
322.096758
0
LINE
8
annotation
62
1
39
211
10
267.798305
20
322.096758
11
267.620649
21
322.222583
0
LINE
8
annotation
62
1
39
211
10
267.620649
20
322.222583
11
267.422310
21
322.316930
0
LINE
8
annotation
62
1
39
211
10
267.422310
20
322.316930
11
267.206872
21
322.376188
0
LINE
8
annotation
62
1
39
211
10
267.206872
20
322.376188
11
266.977917
21
322.396744
0
LINE
8
annotation
62
1
39
211
10
266.977917
20
322.396744
11
266.977917
21
322.396744
0
LINE
8
annotation
62
1
39
211
10
266.977917
20
322.396744
11
266.749436
21
322.376188
0
LINE
8
annotation
62
1
39
211
10
266.749436
20
322.376188
11
266.534249
21
322.316930
0
LINE
8
annotation
62
1
39
211
10
266.534249
20
322.316930
11
266.335984
21
322.222583
0
LINE
8
annotation
62
1
39
211
10
266.335984
20
322.222583
11
266.158269
21
322.096758
0
LINE
8
annotation
62
1
39
211
10
266.158269
20
322.096758
11
266.004731
21
321.943070
0
LINE
8
annotation
62
1
39
211
10
266.004731
20
321.943070
11
265.878997
21
321.765130
0
LINE
8
annotation
62
1
39
211
10
265.878997
20
321.765130
11
265.784697
21
321.566552
0
LINE
8
annotation
62
1
39
211
10
265.784697
20
321.566552
11
265.725456
21
321.350948
0
LINE
8
annotation
62
1
39
211
10
265.725456
20
321.350948
11
265.704903
21
321.121932
0
LINE
8
annotation
62
1
39
211
10
265.704903
20
321.121932
11
265.704903
21
320.484526
0
LINE
8
annotation
62
1
39
211
10
265.704903
20
320.484526
11
265.704903
21
320.484526
0
LINE
8
annotation
62
1
39
211
10
265.704903
20
320.484526
11
265.725456
21
320.255522
0
LINE
8
annotation
62
1
39
211
10
265.725456
20
320.255522
11
265.784697
21
320.039952
0
LINE
8
annotation
62
1
39
211
10
265.784697
20
320.039952
11
265.878997
21
319.841421
0
LINE
8
annotation
62
1
39
211
10
265.878997
20
319.841421
11
266.004731
21
319.663538
0
LINE
8
annotation
62
1
39
211
10
266.004731
20
319.663538
11
266.158269
21
319.509910
0
LINE
8
annotation
62
1
39
211
10
266.158269
20
319.509910
11
266.335984
21
319.384142
0
LINE
8
annotation
62
1
39
211
10
266.335984
20
319.384142
11
266.534249
21
319.289842
0
LINE
8
annotation
62
1
39
211
10
266.534249
20
319.289842
11
266.749436
21
319.230617
0
LINE
8
annotation
62
1
39
211
10
266.749436
20
319.230617
11
266.977917
21
319.210074
0
LINE
8
annotation
62
1
39
211
10
266.977917
20
319.210074
11
268.250931
21
319.210074
0
LINE
8
annotation
62
1
39
211
10
265.545821
20
315.947458
11
268.412170
21
315.947458
0
LINE
8
annotation
62
1
39
211
10
388.619197
20
102.239281
11
384.573734
21
96.387890
0
LINE
8
annotation
62
1
39
211
10
384.573734
20
96.387890
11
380.527511
21
102.239281
0
LINE
8
annotation
62
1
39
211
10
384.573734
20
96.858770
11
384.573734
21
90.108219
0
LINE
8
annotation
62
1
39
211
10
399.802223
20
96.173750
11
393.169581
21
96.173750
0
LINE
8
annotation
62
1
39
211
10
407.047047
20
90.108599
11
407.047047
21
102.238901
0
LINE
8
annotation
62
1
39
211
10
407.047047
20
102.238901
11
404.350325
21
99.541419
0
LINE
8
annotation
62
1
39
211
10
415.641753
20
102.238901
11
415.641753
21
102.238901
0
LINE
8
annotation
62
1
39
211
10
415.641753
20
102.238901
11
414.870082
21
101.949571
0
LINE
8
annotation
62
1
39
211
10
414.870082
20
101.949571
11
414.161972
21
101.559733
0
LINE
8
annotation
62
1
39
211
10
414.161972
20
101.559733
11
413.524693
21
101.079154
0
LINE
8
annotation
62
1
39
211
10
413.524693
20
101.079154
11
412.965514
21
100.517602
0
LINE
8
annotation
62
1
39
211
10
412.965514
20
100.517602
11
412.491704
21
99.884844
0
LINE
8
annotation
62
1
39
211
10
412.491704
20
99.884844
11
412.110531
21
99.190646
0
LINE
8
annotation
62
1
39
211
10
412.110531
20
99.190646
11
411.829265
21
98.444777
0
LINE
8
annotation
62
1
39
211
10
411.829265
20
98.444777
11
411.655175
21
97.657002
0
LINE
8
annotation
62
1
39
211
10
411.655175
20
97.657002
11
411.595530
21
96.837090
0
LINE
8
annotation
62
1
39
211
10
411.595530
20
96.837090
11
411.595530
21
92.805320
0
LINE
8
annotation
62
1
39
211
10
411.595530
20
92.805320
11
411.595530
21
92.805320
0
LINE
8
annotation
62
1
39
211
10
411.595530
20
92.805320
11
411.639020
21
92.320751
0
LINE
8
annotation
62
1
39
211
10
411.639020
20
92.320751
11
411.764372
21
91.864607
0
LINE
8
annotation
62
1
39
211
10
411.764372
20
91.864607
11
411.963911
21
91.444521
0
LINE
8
annotation
62
1
39
211
10
411.963911
20
91.444521
11
412.229961
21
91.068123
0
LINE
8
annotation
62
1
39
211
10
412.229961
20
91.068123
11
412.554845
21
90.743047
0
LINE
8
annotation
62
1
39
211
10
412.554845
20
90.743047
11
412.930888
21
90.476924
0
LINE
8
annotation
62
1
39
211
10
412.930888
20
90.476924
11
413.350413
21
90.277387
0
LINE
8
annotation
62
1
39
211
10
413.350413
20
90.277387
11
413.805745
21
90.152068
0
LINE
8
annotation
62
1
39
211
10
413.805745
20
90.152068
11
414.289208
21
90.108599
0
LINE
8
annotation
62
1
39
211
10
414.289208
20
90.108599
11
414.289208
21
90.108599
0
LINE
8
annotation
62
1
39
211
10
414.289208
20
90.108599
11
414.773673
21
90.152068
0
LINE
8
annotation
62
1
39
211
10
414.773673
20
90.152068
11
415.229537
21
90.277387
0
LINE
8
annotation
62
1
39
211
10
415.229537
20
90.277387
11
415.649219
21
90.476924
0
LINE
8
annotation
62
1
39
211
10
415.649219
20
90.476924
11
416.025137
21
90.743047
0
LINE
8
annotation
62
1
39
211
10
416.025137
20
90.743047
11
416.349708
21
91.068123
0
LINE
8
annotation
62
1
39
211
10
416.349708
20
91.068123
11
416.615351
21
91.444521
0
LINE
8
annotation
62
1
39
211
10
416.615351
20
91.444521
11
416.814483
21
91.864607
0
LINE
8
annotation
62
1
39
211
10
416.814483
20
91.864607
11
416.939522
21
92.320751
0
LINE
8
annotation
62
1
39
211
10
416.939522
20
92.320751
11
416.982887
21
92.805320
0
LINE
8
annotation
62
1
39
211
10
416.982887
20
92.805320
11
416.982887
21
94.147215
0
LINE
8
annotation
62
1
39
211
10
416.982887
20
94.147215
11
416.982887
21
94.147215
0
LINE
8
annotation
62
1
39
211
10
416.982887
20
94.147215
11
416.939522
21
94.631549
0
LINE
8
annotation
62
1
39
211
10
416.939522
20
94.631549
11
416.814483
21
95.087064
0
LINE
8
annotation
62
1
39
211
10
416.814483
20
95.087064
11
416.615351
21
95.506240
0
LINE
8
annotation
62
1
39
211
10
416.615351
20
95.506240
11
416.349708
21
95.881557
0
LINE
8
annotation
62
1
39
211
10
416.349708
20
95.881557
11
416.025137
21
96.205497
0
LINE
8
annotation
62
1
39
211
10
416.025137
20
96.205497
11
415.649219
21
96.470540
0
LINE
8
annotation
62
1
39
211
10
415.649219
20
96.470540
11
415.229537
21
96.669166
0
LINE
8
annotation
62
1
39
211
10
415.229537
20
96.669166
11
414.773673
21
96.793856
0
LINE
8
annotation
62
1
39
211
10
414.773673
20
96.793856
11
414.289208
21
96.837090
0
LINE
8
annotation
62
1
39
211
10
414.289208
20
96.837090
11
411.595530
21
96.837090
0
LINE
8
annotation
62
1
39
211
10
411.258154
20
88.592311
11
417.323305
21
88.592311
0
LINE
8
frame
62
5
39
2
10
0.000000
20
0.000000
11
480.000000
21
0.000000
0
LINE
8
frame
62
5
39
2
10
480.000000
20
0.000000
11
480.000000
21
420.000000
0
LINE
8
frame
62
5
39
2
10
480.000000
20
420.000000
11
0.000000
21
420.000000
0
LINE
8
frame
62
5
39
2
10
0.000000
20
420.000000
11
0.000000
21
0.000000
0
ENDSEC
0
EOF
