0
SECTION
2
HEADER
9
$ACADVER
1
AC1009
0
ENDSEC
0
SECTION
2
TABLES
0
TABLE
2
VPORT
70
1
0
VPORT
2
ACTIVE
70
0
10
0.0
20
0.0
11
0.0
21
0.0
12
0.0
22
0.0
13
0.0
23
0.0
14
0.0
24
0.0
15
0.0
25
0.0
16
0.0
26
0.0
36
0.0
17
0.0
27
0.0
37
0.0
40
0.0
41
0.0
42
0.0
43
0.0
44
0.0
50
0.0
51
0.0
71
0
72
1000
73
1
74
3
75
0
76
0
77
0
78
0
0
ENDTAB
0
ENDSEC
0
SECTION
2
ENTITIES
0
LINE
8
boundary
62
5
39
2
10
6.687500
20
196.993778
11
6.687500
21
148.552128
0
LINE
8
boundary
62
5
39
2
10
6.687500
20
148.552128
11
11.142814
21
148.112028
0
LINE
8
boundary
62
5
39
2
10
11.142814
20
148.112028
11
101.907107
21
148.112028
0
LINE
8
boundary
62
5
39
2
10
101.907107
20
148.112028
11
101.907107
21
144.061028
0
LINE
8
boundary
62
5
39
2
10
101.907107
20
144.061028
11
11.142814
21
144.061029
0
LINE
8
boundary
62
5
39
2
10
11.142814
20
144.061029
11
6.687500
21
143.620928
0
LINE
8
boundary
62
5
39
2
10
6.687500
20
143.620928
11
6.687500
21
88.582366
0
LINE
8
boundary
62
5
39
2
10
6.687500
20
88.582366
11
11.142814
21
88.142266
0
LINE
8
boundary
62
5
39
2
10
11.142814
20
88.142266
11
79.478831
21
88.142266
0
LINE
8
boundary
62
5
39
2
10
79.478831
20
88.142266
11
79.478831
21
84.091267
0
LINE
8
boundary
62
5
39
2
10
79.478831
20
84.091267
11
11.142814
21
84.091266
0
LINE
8
boundary
62
5
39
2
10
11.142814
20
84.091266
11
6.687500
21
83.651167
0
LINE
8
boundary
62
5
39
2
10
6.687500
20
83.651167
11
6.687500
21
34.993624
0
LINE
8
boundary
62
5
39
2
10
6.687500
20
34.993624
11
11.142814
21
34.553524
0
LINE
8
boundary
62
5
39
2
10
11.142814
20
34.553524
11
29.134898
21
34.553524
0
LINE
8
boundary
62
5
39
2
10
29.134898
20
34.553524
11
29.134898
21
30.502524
0
LINE
8
boundary
62
5
39
2
10
29.134898
20
30.502524
11
11.142814
21
30.502524
0
LINE
8
boundary
62
5
39
2
10
11.142814
20
30.502524
11
6.687500
21
30.062424
0
LINE
8
boundary
62
5
39
2
10
6.687500
20
30.062424
11
6.687500
21
6.687500
0
LINE
8
boundary
62
5
39
2
10
6.687500
20
6.687500
11
8.714845
21
8.016435
0
LINE
8
boundary
62
5
39
2
10
8.714845
20
8.016435
11
14.614836
21
12.027663
0
LINE
8
boundary
62
5
39
2
10
14.614836
20
12.027663
11
18.782697
21
14.824981
0
LINE
8
boundary
62
5
39
2
10
18.782697
20
14.824981
11
23.041140
21
17.161429
0
LINE
8
boundary
62
5
39
2
10
23.041140
20
17.161429
11
29.387171
21
20.445734
0
LINE
8
boundary
62
5
39
2
10
29.387171
20
20.445734
11
33.058610
21
22.387235
0
LINE
8
boundary
62
5
39
2
10
33.058610
20
22.387235
11
35.225281
21
23.639570
0
LINE
8
boundary
62
5
39
2
10
35.225281
20
23.639570
11
44.799388
21
28.754340
0
LINE
8
boundary
62
5
39
2
10
44.799388
20
28.754340
11
52.927017
21
33.284431
0
LINE
8
boundary
62
5
39
2
10
52.927017
20
33.284431
11
59.756979
21
36.281664
0
LINE
8
boundary
62
5
39
2
10
59.756979
20
36.281664
11
74.376577
21
41.340571
0
LINE
8
boundary
62
5
39
2
10
74.376577
20
41.340571
11
79.339184
21
43.170031
0
LINE
8
boundary
62
5
39
2
10
79.339184
20
43.170031
11
97.046334
21
49.881530
0
LINE
8
boundary
62
5
39
2
10
97.046334
20
49.881530
11
98.529233
21
50.561136
0
LINE
8
boundary
62
5
39
2
10
98.529233
20
50.561136
11
119.067572
21
60.666858
0
LINE
8
boundary
62
5
39
2
10
119.067572
20
60.666858
11
120.207554
21
61.332832
0
LINE
8
boundary
62
5
39
2
10
120.207554
20
61.332832
11
129.749371
21
67.337659
0
LINE
8
boundary
62
5
39
2
10
129.749371
20
67.337659
11
135.613153
21
71.096718
0
LINE
8
boundary
62
5
39
2
10
135.613153
20
71.096718
11
136.319136
21
71.614655
0
LINE
8
boundary
62
5
39
2
10
136.319136
20
71.614655
11
148.673337
21
82.383639
0
LINE
8
boundary
62
5
39
2
10
148.673337
20
82.383639
11
150.271740
21
83.780552
0
LINE
8
boundary
62
5
39
2
10
150.271740
20
83.780552
11
159.334770
21
93.446524
0
LINE
8
boundary
62
5
39
2
10
159.334770
20
93.446524
11
161.196848
21
95.302913
0
LINE
8
boundary
62
5
39
2
10
161.196848
20
95.302913
11
168.982249
21
103.906230
0
LINE
8
boundary
62
5
39
2
10
168.982249
20
103.906230
11
171.297944
21
106.550465
0
LINE
8
boundary
62
5
39
2
10
171.297944
20
106.550465
11
176.656027
21
113.686575
0
LINE
8
boundary
62
5
39
2
10
176.656027
20
113.686575
11
179.399010
21
117.021426
0
LINE
8
boundary
62
5
39
2
10
179.399010
20
117.021426
11
183.108553
21
122.554470
0
LINE
8
boundary
62
5
39
2
10
183.108553
20
122.554470
11
186.352736
21
127.045197
0
LINE
8
boundary
62
5
39
2
10
186.352736
20
127.045197
11
189.107626
21
131.271198
0
LINE
8
boundary
62
5
39
2
10
189.107626
20
131.271198
11
192.673573
21
137.590358
0
LINE
8
boundary
62
5
39
2
10
192.673573
20
137.590358
11
194.813050
21
141.238809
0
LINE
8
boundary
62
5
39
2
10
194.813050
20
141.238809
11
199.573500
21
151.291191
0
LINE
8
boundary
62
5
39
2
10
199.573500
20
151.291191
11
200.680788
21
152.882371
0
LINE
8
boundary
62
5
39
2
10
200.680788
20
152.882371
11
202.504526
21
157.650211
0
LINE
8
boundary
62
5
39
2
10
202.504526
20
157.650211
11
204.470300
21
164.082898
0
LINE
8
boundary
62
5
39
2
10
204.470300
20
164.082898
11
204.956072
21
166.433910
0
LINE
8
boundary
62
5
39
2
10
204.956072
20
166.433910
11
206.598792
21
176.305976
0
LINE
8
boundary
62
5
39
2
10
206.598792
20
176.305976
11
207.731812
21
183.709326
0
LINE
8
boundary
62
5
39
2
10
207.731812
20
183.709326
11
207.824521
21
187.449021
0
LINE
8
boundary
62
5
39
2
10
207.824521
20
187.449021
11
208.510574
21
193.583064
0
LINE
8
boundary
62
5
39
2
10
208.510574
20
193.583064
11
208.564080
21
197.537230
0
LINE
8
boundary
62
5
39
2
10
208.564080
20
197.537230
11
208.264521
21
200.102277
0
LINE
8
boundary
62
5
39
2
10
208.264521
20
200.102277
11
207.418492
21
207.314750
0
LINE
8
boundary
62
5
39
2
10
207.418492
20
207.314750
11
205.834950
21
211.810918
0
LINE
8
boundary
62
5
39
2
10
205.834950
20
211.810918
11
204.688599
21
215.759894
0
LINE
8
boundary
62
5
39
2
10
204.688599
20
215.759894
11
199.871579
21
222.188650
0
LINE
8
boundary
62
5
39
2
10
199.871579
20
222.188650
11
199.619066
21
222.683495
0
LINE
8
boundary
62
5
39
2
10
199.619066
20
222.683495
11
195.578080
21
225.574663
0
LINE
8
boundary
62
5
39
2
10
195.578080
20
225.574663
11
192.750606
21
227.690557
0
LINE
8
boundary
62
5
39
2
10
192.750606
20
227.690557
11
186.011631
21
233.347510
0
LINE
8
boundary
62
5
39
2
10
186.011631
20
233.347510
11
185.219821
21
233.622479
0
LINE
8
boundary
62
5
39
2
10
185.219821
20
233.622479
11
179.898343
21
237.616389
0
LINE
8
boundary
62
5
39
2
10
179.898343
20
237.616389
11
178.879573
21
237.992041
0
LINE
8
boundary
62
5
39
2
10
178.879573
20
237.992041
11
170.773993
21
243.176218
0
LINE
8
boundary
62
5
39
2
10
170.773993
20
243.176218
11
169.539820
21
243.654977
0
LINE
8
boundary
62
5
39
2
10
169.539820
20
243.654977
11
159.007776
21
246.203814
0
LINE
8
boundary
62
5
39
2
10
159.007776
20
246.203814
11
156.927123
21
246.144037
0
LINE
8
boundary
62
5
39
2
10
156.927123
20
246.144037
11
149.338838
21
245.963399
0
LINE
8
boundary
62
5
39
2
10
149.338838
20
245.963399
11
146.940352
21
245.470322
0
LINE
8
boundary
62
5
39
2
10
146.940352
20
245.470322
11
140.435634
21
244.179603
0
LINE
8
boundary
62
5
39
2
10
140.435634
20
244.179603
11
135.679051
21
242.768973
0
LINE
8
boundary
62
5
39
2
10
135.679051
20
242.768973
11
131.764487
21
242.270844
0
LINE
8
boundary
62
5
39
2
10
131.764487
20
242.270844
11
122.980326
21
239.562988
0
LINE
8
boundary
62
5
39
2
10
122.980326
20
239.562988
11
122.264573
21
239.462133
0
LINE
8
boundary
62
5
39
2
10
122.264573
20
239.462133
11
121.117565
21
239.193418
0
LINE
8
boundary
62
5
39
2
10
121.117565
20
239.193418
11
112.643243
21
237.910982
0
LINE
8
boundary
62
5
39
2
10
112.643243
20
237.910982
11
110.403425
21
237.147646
0
LINE
8
boundary
62
5
39
2
10
110.403425
20
237.147646
11
104.871631
21
236.393220
0
LINE
8
boundary
62
5
39
2
10
104.871631
20
236.393220
11
104.013536
21
236.085075
0
LINE
8
boundary
62
5
39
2
10
104.013536
20
236.085075
11
96.191318
21
234.348807
0
LINE
8
boundary
62
5
39
2
10
96.191318
20
234.348807
11
95.145410
21
234.142317
0
LINE
8
boundary
62
5
39
2
10
95.145410
20
234.142317
11
90.216458
21
233.201488
0
LINE
8
boundary
62
5
39
2
10
90.216458
20
233.201488
11
94.671772
21
232.761388
0
LINE
8
boundary
62
5
39
2
10
94.671772
20
232.761388
11
133.976788
21
232.761388
0
LINE
8
boundary
62
5
39
2
10
133.976788
20
232.761388
11
133.976787
21
228.710388
0
LINE
8
boundary
62
5
39
2
10
133.976787
20
228.710388
11
72.115991
21
228.710388
0
LINE
8
boundary
62
5
39
2
10
72.115991
20
228.710388
11
67.660677
21
228.270288
0
LINE
8
boundary
62
5
39
2
10
67.660677
20
228.270288
11
60.154807
21
226.088924
0
LINE
8
boundary
62
5
39
2
10
60.154807
20
226.088924
11
59.188392
21
225.840843
0
LINE
8
boundary
62
5
39
2
10
59.188392
20
225.840843
11
56.322993
21
225.178397
0
LINE
8
boundary
62
5
39
2
10
56.322993
20
225.178397
11
50.940460
21
223.407024
0
LINE
8
boundary
62
5
39
2
10
50.940460
20
223.407024
11
46.816468
21
221.913797
0
LINE
8
boundary
62
5
39
2
10
46.816468
20
221.913797
11
41.621299
21
219.995834
0
LINE
8
boundary
62
5
39
2
10
41.621299
20
219.995834
11
33.296555
21
218.030453
0
LINE
8
boundary
62
5
39
2
10
33.296555
20
218.030453
11
30.060995
21
216.408549
0
LINE
8
boundary
62
5
39
2
10
30.060995
20
216.408549
11
18.229128
21
210.846302
0
LINE
8
boundary
62
5
39
2
10
18.229128
20
210.846302
11
8.547710
21
201.924978
0
LINE
8
boundary
62
5
39
2
10
8.547710
20
201.924978
11
13.003023
21
201.484878
0
LINE
8
boundary
62
5
39
2
10
13.003023
20
201.484878
11
107.450091
21
201.484878
0
LINE
8
boundary
62
5
39
2
10
107.450091
20
201.484878
11
107.450091
21
197.433878
0
LINE
8
boundary
62
5
39
2
10
107.450091
20
197.433878
11
11.142814
21
197.433878
0
LINE
8
boundary
62
5
39
2
10
11.142814
20
197.433878
11
6.687500
21
196.993778
0
LINE
8
annotation
62
1
39
211
10
38.111015
20
29.007224
11
39.676453
21
36.048824
0
LINE
8
annotation
62
1
39
211
10
39.676453
20
36.048824
11
36.545135
21
36.048824
0
LINE
8
annotation
62
1
39
211
10
39.676453
20
32.913091
11
38.111015
21
32.913091
0
LINE
8
annotation
62
1
39
211
10
86.891276
20
84.157209
11
86.891276
21
84.157209
0
LINE
8
annotation
62
1
39
211
10
86.891276
20
84.157209
11
86.916522
21
83.876055
0
LINE
8
annotation
62
1
39
211
10
86.916522
20
83.876055
11
86.989288
21
83.611630
0
LINE
8
annotation
62
1
39
211
10
86.989288
20
83.611630
11
87.105120
21
83.368300
0
LINE
8
annotation
62
1
39
211
10
87.105120
20
83.368300
11
87.259561
21
83.150429
0
LINE
8
annotation
62
1
39
211
10
87.259561
20
83.150429
11
87.448155
21
82.962383
0
LINE
8
annotation
62
1
39
211
10
87.448155
20
82.962383
11
87.666447
21
82.808527
0
LINE
8
annotation
62
1
39
211
10
87.666447
20
82.808527
11
87.909980
21
82.693225
0
LINE
8
annotation
62
1
39
211
10
87.909980
20
82.693225
11
88.174299
21
82.620843
0
LINE
8
annotation
62
1
39
211
10
88.174299
20
82.620843
11
88.454947
21
82.595746
0
LINE
8
annotation
62
1
39
211
10
88.454947
20
82.595746
11
88.454947
21
82.595746
0
LINE
8
annotation
62
1
39
211
10
88.454947
20
82.595746
11
88.735596
21
82.620843
0
LINE
8
annotation
62
1
39
211
10
88.735596
20
82.620843
11
88.999915
21
82.693225
0
LINE
8
annotation
62
1
39
211
10
88.999915
20
82.693225
11
89.243448
21
82.808527
0
LINE
8
annotation
62
1
39
211
10
89.243448
20
82.808527
11
89.461740
21
82.962383
0
LINE
8
annotation
62
1
39
211
10
89.461740
20
82.962383
11
89.650334
21
83.150429
0
LINE
8
annotation
62
1
39
211
10
89.650334
20
83.150429
11
89.804775
21
83.368300
0
LINE
8
annotation
62
1
39
211
10
89.804775
20
83.368300
11
89.920606
21
83.611630
0
LINE
8
annotation
62
1
39
211
10
89.920606
20
83.611630
11
89.993373
21
83.876055
0
LINE
8
annotation
62
1
39
211
10
89.993373
20
83.876055
11
90.018619
21
84.157209
0
LINE
8
annotation
62
1
39
211
10
90.018619
20
84.157209
11
90.018619
21
84.936175
0
LINE
8
annotation
62
1
39
211
10
90.018619
20
84.936175
11
90.018619
21
84.936175
0
LINE
8
annotation
62
1
39
211
10
90.018619
20
84.936175
11
89.993388
21
85.217465
0
LINE
8
annotation
62
1
39
211
10
89.993388
20
85.217465
11
89.920657
21
85.482255
0
LINE
8
annotation
62
1
39
211
10
89.920657
20
85.482255
11
89.804873
21
85.726114
0
LINE
8
annotation
62
1
39
211
10
89.804873
20
85.726114
11
89.650479
21
85.944612
0
LINE
8
annotation
62
1
39
211
10
89.650479
20
85.944612
11
89.461921
21
86.133318
0
LINE
8
annotation
62
1
39
211
10
89.461921
20
86.133318
11
89.243644
21
86.287801
0
LINE
8
annotation
62
1
39
211
10
89.243644
20
86.287801
11
89.000093
21
86.403631
0
LINE
8
annotation
62
1
39
211
10
89.000093
20
86.403631
11
88.735712
21
86.476379
0
LINE
8
annotation
62
1
39
211
10
88.735712
20
86.476379
11
88.454947
21
86.501612
0
LINE
8
annotation
62
1
39
211
10
88.454947
20
86.501612
11
88.454947
21
86.501612
0
LINE
8
annotation
62
1
39
211
10
88.454947
20
86.501612
11
88.174183
21
86.476364
0
LINE
8
annotation
62
1
39
211
10
88.174183
20
86.476364
11
87.909802
21
86.403581
0
LINE
8
annotation
62
1
39
211
10
87.909802
20
86.403581
11
87.666251
21
86.287703
0
LINE
8
annotation
62
1
39
211
10
87.666251
20
86.287703
11
87.447974
21
86.133172
0
LINE
8
annotation
62
1
39
211
10
87.447974
20
86.133172
11
87.259416
21
85.944430
0
LINE
8
annotation
62
1
39
211
10
87.259416
20
85.944430
11
87.105022
21
85.725918
0
LINE
8
annotation
62
1
39
211
10
87.105022
20
85.725918
11
86.989238
21
85.482077
0
LINE
8
annotation
62
1
39
211
10
86.989238
20
85.482077
11
86.916507
21
85.217349
0
LINE
8
annotation
62
1
39
211
10
86.916507
20
85.217349
11
86.891276
21
84.936175
0
LINE
8
annotation
62
1
39
211
10
86.891276
20
84.936175
11
86.891276
21
84.157209
0
LINE
8
annotation
62
1
39
211
10
90.018619
20
88.067492
11
90.018619
21
88.067492
0
LINE
8
annotation
62
1
39
211
10
90.018619
20
88.067492
11
89.993388
21
88.347483
0
LINE
8
annotation
62
1
39
211
10
89.993388
20
88.347483
11
89.920657
21
88.611290
0
LINE
8
annotation
62
1
39
211
10
89.920657
20
88.611290
11
89.804873
21
88.854439
0
LINE
8
annotation
62
1
39
211
10
89.804873
20
88.854439
11
89.650479
21
89.072455
0
LINE
8
annotation
62
1
39
211
10
89.650479
20
89.072455
11
89.461921
21
89.260864
0
LINE
8
annotation
62
1
39
211
10
89.461921
20
89.260864
11
89.243644
21
89.415193
0
LINE
8
annotation
62
1
39
211
10
89.243644
20
89.415193
11
89.000093
21
89.530967
0
LINE
8
annotation
62
1
39
211
10
89.000093
20
89.530967
11
88.735712
21
89.603713
0
LINE
8
annotation
62
1
39
211
10
88.735712
20
89.603713
11
88.454947
21
89.628955
0
LINE
8
annotation
62
1
39
211
10
88.454947
20
89.628955
11
88.454947
21
89.628955
0
LINE
8
annotation
62
1
39
211
10
88.454947
20
89.628955
11
88.174183
21
89.603713
0
LINE
8
annotation
62
1
39
211
10
88.174183
20
89.603713
11
87.909802
21
89.530967
0
LINE
8
annotation
62
1
39
211
10
87.909802
20
89.530967
11
87.666251
21
89.415193
0
LINE
8
annotation
62
1
39
211
10
87.666251
20
89.415193
11
87.447974
21
89.260864
0
LINE
8
annotation
62
1
39
211
10
87.447974
20
89.260864
11
87.259416
21
89.072455
0
LINE
8
annotation
62
1
39
211
10
87.259416
20
89.072455
11
87.105022
21
88.854439
0
LINE
8
annotation
62
1
39
211
10
87.105022
20
88.854439
11
86.989238
21
88.611290
0
LINE
8
annotation
62
1
39
211
10
86.989238
20
88.611290
11
86.916507
21
88.347483
0
LINE
8
annotation
62
1
39
211
10
86.916507
20
88.347483
11
86.891276
21
88.067492
0
LINE
8
annotation
62
1
39
211
10
86.891276
20
88.067492
11
86.891276
21
88.067492
0
LINE
8
annotation
62
1
39
211
10
86.891276
20
88.067492
11
86.916522
21
87.786186
0
LINE
8
annotation
62
1
39
211
10
86.916522
20
87.786186
11
86.989288
21
87.521355
0
LINE
8
annotation
62
1
39
211
10
86.989288
20
87.521355
11
87.105120
21
87.277438
0
LINE
8
annotation
62
1
39
211
10
87.105120
20
87.277438
11
87.259561
21
87.058870
0
LINE
8
annotation
62
1
39
211
10
87.259561
20
87.058870
11
87.448155
21
86.870091
0
LINE
8
annotation
62
1
39
211
10
87.448155
20
86.870091
11
87.666447
21
86.715538
0
LINE
8
annotation
62
1
39
211
10
87.666447
20
86.715538
11
87.909980
21
86.599649
0
LINE
8
annotation
62
1
39
211
10
87.909980
20
86.599649
11
88.174299
21
86.526861
0
LINE
8
annotation
62
1
39
211
10
88.174299
20
86.526861
11
88.454947
21
86.501612
0
LINE
8
annotation
62
1
39
211
10
88.454947
20
86.501612
11
88.454947
21
86.501612
0
LINE
8
annotation
62
1
39
211
10
88.454947
20
86.501612
11
88.735596
21
86.526861
0
LINE
8
annotation
62
1
39
211
10
88.735596
20
86.526861
11
88.999915
21
86.599649
0
LINE
8
annotation
62
1
39
211
10
88.999915
20
86.599649
11
89.243448
21
86.715538
0
LINE
8
annotation
62
1
39
211
10
89.243448
20
86.715538
11
89.461740
21
86.870091
0
LINE
8
annotation
62
1
39
211
10
89.461740
20
86.870091
11
89.650334
21
87.058870
0
LINE
8
annotation
62
1
39
211
10
89.650334
20
87.058870
11
89.804775
21
87.277438
0
LINE
8
annotation
62
1
39
211
10
89.804775
20
87.277438
11
89.920606
21
87.521355
0
LINE
8
annotation
62
1
39
211
10
89.920606
20
87.521355
11
89.993373
21
87.786186
0
LINE
8
annotation
62
1
39
211
10
89.993373
20
87.786186
11
90.018619
21
88.067492
0
LINE
8
annotation
62
1
39
211
10
110.100284
20
142.565728
11
110.100284
21
142.565728
0
LINE
8
annotation
62
1
39
211
10
110.100284
20
142.565728
11
110.547448
21
142.732364
0
LINE
8
annotation
62
1
39
211
10
110.547448
20
142.732364
11
110.957889
21
142.957601
0
LINE
8
annotation
62
1
39
211
10
110.957889
20
142.957601
11
111.327366
21
143.235703
0
LINE
8
annotation
62
1
39
211
10
111.327366
20
143.235703
11
111.651636
21
143.560929
0
LINE
8
annotation
62
1
39
211
10
111.651636
20
143.560929
11
111.926460
21
143.927541
0
LINE
8
annotation
62
1
39
211
10
111.926460
20
143.927541
11
112.147595
21
144.329800
0
LINE
8
annotation
62
1
39
211
10
112.147595
20
144.329800
11
112.310800
21
144.761967
0
LINE
8
annotation
62
1
39
211
10
112.310800
20
144.761967
11
112.411833
21
145.218304
0
LINE
8
annotation
62
1
39
211
10
112.411833
20
145.218304
11
112.446454
21
145.693071
0
LINE
8
annotation
62
1
39
211
10
112.446454
20
145.693071
11
112.446454
21
148.041449
0
LINE
8
annotation
62
1
39
211
10
112.446454
20
148.041449
11
112.446454
21
148.041449
0
LINE
8
annotation
62
1
39
211
10
112.446454
20
148.041449
11
112.421281
21
148.322755
0
LINE
8
annotation
62
1
39
211
10
112.421281
20
148.322755
11
112.348696
21
148.587585
0
LINE
8
annotation
62
1
39
211
10
112.348696
20
148.587585
11
112.233100
21
148.831503
0
LINE
8
annotation
62
1
39
211
10
112.233100
20
148.831503
11
112.078895
21
149.050070
0
LINE
8
annotation
62
1
39
211
10
112.078895
20
149.050070
11
111.890483
21
149.238849
0
LINE
8
annotation
62
1
39
211
10
111.890483
20
149.238849
11
111.672264
21
149.393402
0
LINE
8
annotation
62
1
39
211
10
111.672264
20
149.393402
11
111.428640
21
149.509292
0
LINE
8
annotation
62
1
39
211
10
111.428640
20
149.509292
11
111.164012
21
149.582080
0
LINE
8
annotation
62
1
39
211
10
111.164012
20
149.582080
11
110.882782
21
149.607328
0
LINE
8
annotation
62
1
39
211
10
110.882782
20
149.607328
11
110.882782
21
149.607328
0
LINE
8
annotation
62
1
39
211
10
110.882782
20
149.607328
11
110.602134
21
149.582080
0
LINE
8
annotation
62
1
39
211
10
110.602134
20
149.582080
11
110.337815
21
149.509292
0
LINE
8
annotation
62
1
39
211
10
110.337815
20
149.509292
11
110.094282
21
149.393402
0
LINE
8
annotation
62
1
39
211
10
110.094282
20
149.393402
11
109.875990
21
149.238849
0
LINE
8
annotation
62
1
39
211
10
109.875990
20
149.238849
11
109.687396
21
149.050070
0
LINE
8
annotation
62
1
39
211
10
109.687396
20
149.050070
11
109.532955
21
148.831503
0
LINE
8
annotation
62
1
39
211
10
109.532955
20
148.831503
11
109.417123
21
148.587585
0
LINE
8
annotation
62
1
39
211
10
109.417123
20
148.587585
11
109.344356
21
148.322755
0
LINE
8
annotation
62
1
39
211
10
109.344356
20
148.322755
11
109.319111
21
148.041449
0
LINE
8
annotation
62
1
39
211
10
109.319111
20
148.041449
11
109.319111
21
147.258509
0
LINE
8
annotation
62
1
39
211
10
109.319111
20
147.258509
11
109.319111
21
147.258509
0
LINE
8
annotation
62
1
39
211
10
109.319111
20
147.258509
11
109.344356
21
146.977219
0
LINE
8
annotation
62
1
39
211
10
109.344356
20
146.977219
11
109.417123
21
146.712428
0
LINE
8
annotation
62
1
39
211
10
109.417123
20
146.712428
11
109.532955
21
146.468569
0
LINE
8
annotation
62
1
39
211
10
109.532955
20
146.468569
11
109.687396
21
146.250072
0
LINE
8
annotation
62
1
39
211
10
109.687396
20
146.250072
11
109.875990
21
146.061366
0
LINE
8
annotation
62
1
39
211
10
109.875990
20
146.061366
11
110.094282
21
145.906883
0
LINE
8
annotation
62
1
39
211
10
110.094282
20
145.906883
11
110.337815
21
145.791052
0
LINE
8
annotation
62
1
39
211
10
110.337815
20
145.791052
11
110.602134
21
145.718305
0
LINE
8
annotation
62
1
39
211
10
110.602134
20
145.718305
11
110.882782
21
145.693071
0
LINE
8
annotation
62
1
39
211
10
110.882782
20
145.693071
11
112.446454
21
145.693071
0
LINE
8
annotation
62
1
39
211
10
109.123707
20
141.685528
11
112.644507
21
141.685528
0
LINE
8
annotation
62
1
39
211
10
114.411644
20
196.072280
11
114.411644
21
202.846475
0
LINE
8
annotation
62
1
39
211
10
114.411644
20
202.846475
11
112.905653
21
201.340060
0
LINE
8
annotation
62
1
39
211
10
118.039870
20
196.161635
11
118.039870
21
196.161635
0
LINE
8
annotation
62
1
39
211
10
118.039870
20
196.161635
11
118.197311
21
196.102779
0
LINE
8
annotation
62
1
39
211
10
118.197311
20
196.102779
11
118.358780
21
196.073539
0
LINE
8
annotation
62
1
39
211
10
118.358780
20
196.073539
11
118.520626
21
196.072721
0
LINE
8
annotation
62
1
39
211
10
118.520626
20
196.072721
11
118.679200
21
196.099134
0
LINE
8
annotation
62
1
39
211
10
118.679200
20
196.099134
11
118.830850
21
196.151585
0
LINE
8
annotation
62
1
39
211
10
118.830850
20
196.151585
11
118.971927
21
196.228882
0
LINE
8
annotation
62
1
39
211
10
118.971927
20
196.228882
11
119.098781
21
196.329833
0
LINE
8
annotation
62
1
39
211
10
119.098781
20
196.329833
11
119.207761
21
196.453245
0
LINE
8
annotation
62
1
39
211
10
119.207761
20
196.453245
11
119.295216
21
196.597926
0
LINE
8
annotation
62
1
39
211
10
119.295216
20
196.597926
11
119.295216
21
196.597926
0
LINE
8
annotation
62
1
39
211
10
119.295216
20
196.597926
11
119.556151
21
197.208707
0
LINE
8
annotation
62
1
39
211
10
119.556151
20
197.208707
11
119.751852
21
197.837166
0
LINE
8
annotation
62
1
39
211
10
119.751852
20
197.837166
11
119.882319
21
198.478293
0
LINE
8
annotation
62
1
39
211
10
119.882319
20
198.478293
11
119.947552
21
199.127078
0
LINE
8
annotation
62
1
39
211
10
119.947552
20
199.127078
11
119.947552
21
199.778509
0
LINE
8
annotation
62
1
39
211
10
119.947552
20
199.778509
11
119.882319
21
200.427576
0
LINE
8
annotation
62
1
39
211
10
119.882319
20
200.427576
11
119.751852
21
201.069270
0
LINE
8
annotation
62
1
39
211
10
119.751852
20
201.069270
11
119.556151
21
201.698579
0
LINE
8
annotation
62
1
39
211
10
119.556151
20
201.698579
11
119.295216
21
202.310493
0
LINE
8
annotation
62
1
39
211
10
119.295216
20
202.310493
11
119.295216
21
202.310493
0
LINE
8
annotation
62
1
39
211
10
119.295216
20
202.310493
11
119.262033
21
202.372248
0
LINE
8
annotation
62
1
39
211
10
119.262033
20
202.372248
11
119.224413
21
202.431290
0
LINE
8
annotation
62
1
39
211
10
119.224413
20
202.431290
11
119.182639
21
202.487329
0
LINE
8
annotation
62
1
39
211
10
119.182639
20
202.487329
11
119.136994
21
202.540073
0
LINE
8
annotation
62
1
39
211
10
119.136994
20
202.540073
11
119.087762
21
202.589234
0
LINE
8
annotation
62
1
39
211
10
119.087762
20
202.589234
11
119.035226
21
202.634521
0
LINE
8
annotation
62
1
39
211
10
119.035226
20
202.634521
11
118.979669
21
202.675644
0
LINE
8
annotation
62
1
39
211
10
118.979669
20
202.675644
11
118.921374
21
202.712312
0
LINE
8
annotation
62
1
39
211
10
118.921374
20
202.712312
11
118.860624
21
202.744235
0
LINE
8
annotation
62
1
39
211
10
118.860624
20
202.744235
11
118.860624
21
202.744235
0
LINE
8
annotation
62
1
39
211
10
118.860624
20
202.744235
11
118.701934
21
202.804366
0
LINE
8
annotation
62
1
39
211
10
118.701934
20
202.804366
11
118.539519
21
202.834606
0
LINE
8
annotation
62
1
39
211
10
118.539519
20
202.834606
11
118.376989
21
202.836154
0
LINE
8
annotation
62
1
39
211
10
118.376989
20
202.836154
11
118.217952
21
202.810209
0
LINE
8
annotation
62
1
39
211
10
118.217952
20
202.810209
11
118.066017
21
202.757970
0
LINE
8
annotation
62
1
39
211
10
118.066017
20
202.757970
11
117.924791
21
202.680638
0
LINE
8
annotation
62
1
39
211
10
117.924791
20
202.680638
11
117.797883
21
202.579410
0
LINE
8
annotation
62
1
39
211
10
117.797883
20
202.579410
11
117.688902
21
202.455487
0
LINE
8
annotation
62
1
39
211
10
117.688902
20
202.455487
11
117.601455
21
202.310068
0
LINE
8
annotation
62
1
39
211
10
117.601455
20
202.310068
11
117.601455
21
202.310068
0
LINE
8
annotation
62
1
39
211
10
117.601455
20
202.310068
11
117.341779
21
201.699413
0
LINE
8
annotation
62
1
39
211
10
117.341779
20
201.699413
11
117.147023
21
201.071048
0
LINE
8
annotation
62
1
39
211
10
117.147023
20
201.071048
11
117.017185
21
200.429984
0
LINE
8
annotation
62
1
39
211
10
117.017185
20
200.429984
11
116.952266
21
199.781231
0
LINE
8
annotation
62
1
39
211
10
116.952266
20
199.781231
11
116.952266
21
199.129800
0
LINE
8
annotation
62
1
39
211
10
116.952266
20
199.129800
11
117.017185
21
198.480701
0
LINE
8
annotation
62
1
39
211
10
117.017185
20
198.480701
11
117.147023
21
197.838944
0
LINE
8
annotation
62
1
39
211
10
117.147023
20
197.838944
11
117.341779
21
197.209541
0
LINE
8
annotation
62
1
39
211
10
117.341779
20
197.209541
11
117.601455
21
196.597501
0
LINE
8
annotation
62
1
39
211
10
117.601455
20
196.597501
11
117.601455
21
196.597501
0
LINE
8
annotation
62
1
39
211
10
117.601455
20
196.597501
11
117.634518
21
196.535869
0
LINE
8
annotation
62
1
39
211
10
117.634518
20
196.535869
11
117.671860
21
196.477121
0
LINE
8
annotation
62
1
39
211
10
117.671860
20
196.477121
11
117.713325
21
196.421436
0
LINE
8
annotation
62
1
39
211
10
117.713325
20
196.421436
11
117.758754
21
196.368993
0
LINE
8
annotation
62
1
39
211
10
117.758754
20
196.368993
11
117.807991
21
196.319969
0
LINE
8
annotation
62
1
39
211
10
117.807991
20
196.319969
11
117.860879
21
196.274542
0
LINE
8
annotation
62
1
39
211
10
117.860879
20
196.274542
11
117.917260
21
196.232893
0
LINE
8
annotation
62
1
39
211
10
117.917260
20
196.232893
11
117.976976
21
196.195197
0
LINE
8
annotation
62
1
39
211
10
117.976976
20
196.195197
11
118.039870
21
196.161635
0
LINE
8
annotation
62
1
39
211
10
141.632825
20
227.215088
11
141.632825
21
234.256688
0
LINE
8
annotation
62
1
39
211
10
141.632825
20
234.256688
11
140.067387
21
232.690809
0
LINE
8
annotation
62
1
39
211
10
145.838863
20
227.215088
11
145.838863
21
234.256688
0
LINE
8
annotation
62
1
39
211
10
145.838863
20
234.256688
11
144.273425
21
232.690809
0
LINE
8
annotation
62
1
39
211
10
138.648412
20
195.543522
11
130.019740
21
183.062937
0
LINE
8
annotation
62
1
39
211
10
130.019740
20
183.062937
11
121.389444
21
195.543522
0
LINE
8
annotation
62
1
39
211
10
130.019740
20
184.067290
11
130.019740
21
169.668862
0
LINE
8
annotation
62
1
39
211
10
162.500981
20
182.606192
11
148.354047
21
182.606192
0
LINE
8
annotation
62
1
39
211
10
180.831232
20
195.542711
11
180.831232
21
195.542711
0
LINE
8
annotation
62
1
39
211
10
180.831232
20
195.542711
11
179.185314
21
194.925591
0
LINE
8
annotation
62
1
39
211
10
179.185314
20
194.925591
11
177.674969
21
194.094096
0
LINE
8
annotation
62
1
39
211
10
177.674969
20
194.094096
11
176.315700
21
193.069057
0
LINE
8
annotation
62
1
39
211
10
176.315700
20
193.069057
11
175.123013
21
191.871308
0
LINE
8
annotation
62
1
39
211
10
175.123013
20
191.871308
11
174.112410
21
190.521681
0
LINE
8
annotation
62
1
39
211
10
174.112410
20
190.521681
11
173.299397
21
189.041009
0
LINE
8
annotation
62
1
39
211
10
173.299397
20
189.041009
11
172.699477
21
187.450125
0
LINE
8
annotation
62
1
39
211
10
172.699477
20
187.450125
11
172.328156
21
185.769860
0
LINE
8
annotation
62
1
39
211
10
172.328156
20
185.769860
11
172.200937
21
184.021048
0
LINE
8
annotation
62
1
39
211
10
172.200937
20
184.021048
11
172.200937
21
175.421581
0
LINE
8
annotation
62
1
39
211
10
172.200937
20
175.421581
11
172.200937
21
175.421581
0
LINE
8
annotation
62
1
39
211
10
172.200937
20
175.421581
11
172.293697
21
174.388031
0
LINE
8
annotation
62
1
39
211
10
172.293697
20
174.388031
11
172.561065
21
173.415110
0
LINE
8
annotation
62
1
39
211
10
172.561065
20
173.415110
11
172.986667
21
172.519095
0
LINE
8
annotation
62
1
39
211
10
172.986667
20
172.519095
11
173.554131
21
171.716267
0
LINE
8
annotation
62
1
39
211
10
173.554131
20
171.716267
11
174.247085
21
171.022904
0
LINE
8
annotation
62
1
39
211
10
174.247085
20
171.022904
11
175.049157
21
170.455283
0
LINE
8
annotation
62
1
39
211
10
175.049157
20
170.455283
11
175.943974
21
170.029686
0
LINE
8
annotation
62
1
39
211
10
175.943974
20
170.029686
11
176.915164
21
169.762390
0
LINE
8
annotation
62
1
39
211
10
176.915164
20
169.762390
11
177.946354
21
169.669673
0
LINE
8
annotation
62
1
39
211
10
177.946354
20
169.669673
11
177.946354
21
169.669673
0
LINE
8
annotation
62
1
39
211
10
177.946354
20
169.669673
11
178.979681
21
169.762390
0
LINE
8
annotation
62
1
39
211
10
178.979681
20
169.762390
11
179.952006
21
170.029686
0
LINE
8
annotation
62
1
39
211
10
179.952006
20
170.029686
11
180.847157
21
170.455283
0
LINE
8
annotation
62
1
39
211
10
180.847157
20
170.455283
11
181.648961
21
171.022904
0
LINE
8
annotation
62
1
39
211
10
181.648961
20
171.022904
11
182.341248
21
171.716267
0
LINE
8
annotation
62
1
39
211
10
182.341248
20
171.716267
11
182.907844
21
172.519095
0
LINE
8
annotation
62
1
39
211
10
182.907844
20
172.519095
11
183.332578
21
173.415110
0
LINE
8
annotation
62
1
39
211
10
183.332578
20
173.415110
11
183.599278
21
174.388031
0
LINE
8
annotation
62
1
39
211
10
183.599278
20
174.388031
11
183.691772
21
175.421581
0
LINE
8
annotation
62
1
39
211
10
183.691772
20
175.421581
11
183.691772
21
178.283743
0
LINE
8
annotation
62
1
39
211
10
183.691772
20
178.283743
11
183.691772
21
178.283743
0
LINE
8
annotation
62
1
39
211
10
183.691772
20
178.283743
11
183.599278
21
179.316792
0
LINE
8
annotation
62
1
39
211
10
183.599278
20
179.316792
11
183.332578
21
180.288371
0
LINE
8
annotation
62
1
39
211
10
183.332578
20
180.288371
11
182.907844
21
181.182443
0
LINE
8
annotation
62
1
39
211
10
182.907844
20
181.182443
11
182.341248
21
181.982967
0
LINE
8
annotation
62
1
39
211
10
182.341248
20
181.982967
11
181.648961
21
182.673907
0
LINE
8
annotation
62
1
39
211
10
181.648961
20
182.673907
11
180.847157
21
183.239224
0
LINE
8
annotation
62
1
39
211
10
180.847157
20
183.239224
11
179.952006
21
183.662878
0
LINE
8
annotation
62
1
39
211
10
179.952006
20
183.662878
11
178.979681
21
183.928832
0
LINE
8
annotation
62
1
39
211
10
178.979681
20
183.928832
11
177.946354
21
184.021048
0
LINE
8
annotation
62
1
39
211
10
177.946354
20
184.021048
11
172.200937
21
184.021048
0
LINE
8
annotation
62
1
39
211
10
171.481340
20
166.435543
11
184.417859
21
166.435543
0
LINE
8
frame
62
5
39
2
10
0.000000
20
0.000000
11
480.000000
21
0.000000
0
LINE
8
frame
62
5
39
2
10
480.000000
20
0.000000
11
480.000000
21
420.000000
0
LINE
8
frame
62
5
39
2
10
480.000000
20
420.000000
11
0.000000
21
420.000000
0
LINE
8
frame
62
5
39
2
10
0.000000
20
420.000000
11
0.000000
21
0.000000
0
ENDSEC
0
EOF
