0
SECTION
2
HEADER
9
$ACADVER
1
AC1009
0
ENDSEC
0
SECTION
2
TABLES
0
TABLE
2
VPORT
70
1
0
VPORT
2
ACTIVE
70
0
10
0.0
20
0.0
11
0.0
21
0.0
12
0.0
22
0.0
13
0.0
23
0.0
14
0.0
24
0.0
15
0.0
25
0.0
16
0.0
26
0.0
36
0.0
17
0.0
27
0.0
37
0.0
40
0.0
41
0.0
42
0.0
43
0.0
44
0.0
50
0.0
51
0.0
71
0
72
1000
73
1
74
3
75
0
76
0
77
0
78
0
0
ENDTAB
0
ENDSEC
0
SECTION
2
ENTITIES
0
LINE
8
boundary
62
5
39
2
10
207.406000
20
73.045871
11
207.381627
21
79.024605
0
LINE
8
boundary
62
5
39
2
10
207.381627
20
79.024605
11
205.162820
21
88.630234
0
LINE
8
boundary
62
5
39
2
10
205.162820
20
88.630234
11
202.786760
21
97.090123
0
LINE
8
boundary
62
5
39
2
10
202.786760
20
97.090123
11
201.609615
21
101.909467
0
LINE
8
boundary
62
5
39
2
10
201.609615
20
101.909467
11
200.596914
21
105.927350
0
LINE
8
boundary
62
5
39
2
10
200.596914
20
105.927350
11
196.600176
21
113.151845
0
LINE
8
boundary
62
5
39
2
10
196.600176
20
113.151845
11
192.727805
21
118.258869
0
LINE
8
boundary
62
5
39
2
10
192.727805
20
118.258869
11
189.686394
21
122.244790
0
LINE
8
boundary
62
5
39
2
10
189.686394
20
122.244790
11
185.708270
21
128.204327
0
LINE
8
boundary
62
5
39
2
10
185.708270
20
128.204327
11
182.945777
21
130.750648
0
LINE
8
boundary
62
5
39
2
10
182.945777
20
130.750648
11
181.610796
21
131.896254
0
LINE
8
boundary
62
5
39
2
10
181.610796
20
131.896254
11
173.296243
21
140.889975
0
LINE
8
boundary
62
5
39
2
10
173.296243
20
140.889975
11
167.896732
21
147.775084
0
LINE
8
boundary
62
5
39
2
10
167.896732
20
147.775084
11
160.185841
21
159.814309
0
LINE
8
boundary
62
5
39
2
10
160.185841
20
159.814309
11
157.986915
21
163.067155
0
LINE
8
boundary
62
5
39
2
10
157.986915
20
163.067155
11
156.843219
21
165.158053
0
LINE
8
boundary
62
5
39
2
10
156.843219
20
165.158053
11
150.023258
21
176.393364
0
LINE
8
boundary
62
5
39
2
10
150.023258
20
176.393364
11
149.676311
21
176.860520
0
LINE
8
boundary
62
5
39
2
10
149.676311
20
176.860520
11
141.103816
21
187.846884
0
LINE
8
boundary
62
5
39
2
10
141.103816
20
187.846884
11
139.017390
21
190.416484
0
LINE
8
boundary
62
5
39
2
10
139.017390
20
190.416484
11
134.900605
21
195.318933
0
LINE
8
boundary
62
5
39
2
10
134.900605
20
195.318933
11
127.925691
21
203.344493
0
LINE
8
boundary
62
5
39
2
10
127.925691
20
203.344493
11
125.078098
21
207.166393
0
LINE
8
boundary
62
5
39
2
10
125.078098
20
207.166393
11
118.753142
21
217.231169
0
LINE
8
boundary
62
5
39
2
10
118.753142
20
217.231169
11
118.413349
21
217.620438
0
LINE
8
boundary
62
5
39
2
10
118.413349
20
217.620438
11
110.757660
21
227.487906
0
LINE
8
boundary
62
5
39
2
10
110.757660
20
227.487906
11
106.934291
21
233.503589
0
LINE
8
boundary
62
5
39
2
10
106.934291
20
233.503589
11
103.425684
21
238.610517
0
LINE
8
boundary
62
5
39
2
10
103.425684
20
238.610517
11
96.672932
21
250.391506
0
LINE
8
boundary
62
5
39
2
10
96.672932
20
250.391506
11
96.336123
21
250.830164
0
LINE
8
boundary
62
5
39
2
10
96.336123
20
250.830164
11
87.935267
21
260.282583
0
LINE
8
boundary
62
5
39
2
10
87.935267
20
260.282583
11
83.436366
21
266.721711
0
LINE
8
boundary
62
5
39
2
10
83.436366
20
266.721711
11
79.356816
21
271.690728
0
LINE
8
boundary
62
5
39
2
10
79.356816
20
271.690728
11
71.439107
21
282.732073
0
LINE
8
boundary
62
5
39
2
10
71.439107
20
282.732073
11
70.966552
21
283.308931
0
LINE
8
boundary
62
5
39
2
10
70.966552
20
283.308931
11
60.376028
21
294.056485
0
LINE
8
boundary
62
5
39
2
10
60.376028
20
294.056485
11
52.699738
21
302.206433
0
LINE
8
boundary
62
5
39
2
10
52.699738
20
302.206433
11
48.700202
21
306.357619
0
LINE
8
boundary
62
5
39
2
10
48.700202
20
306.357619
11
41.808108
21
312.371367
0
LINE
8
boundary
62
5
39
2
10
41.808108
20
312.371367
11
35.490686
21
316.865329
0
LINE
8
boundary
62
5
39
2
10
35.490686
20
316.865329
11
30.687497
21
320.403434
0
LINE
8
boundary
62
5
39
2
10
30.687497
20
320.403434
11
23.505651
21
326.209140
0
LINE
8
boundary
62
5
39
2
10
23.505651
20
326.209140
11
12.570583
21
334.817095
0
LINE
8
boundary
62
5
39
2
10
12.570583
20
334.817095
11
11.007881
21
336.289313
0
LINE
8
boundary
62
5
39
2
10
11.007881
20
336.289313
11
6.687500
21
339.335113
0
LINE
8
boundary
62
5
39
2
10
6.687500
20
339.335113
11
6.687500
21
313.934126
0
LINE
8
boundary
62
5
39
2
10
6.687500
20
313.934126
11
11.142814
21
313.494026
0
LINE
8
boundary
62
5
39
2
10
11.142814
20
313.494026
11
24.752323
21
313.494026
0
LINE
8
boundary
62
5
39
2
10
24.752323
20
313.494026
11
24.752324
21
309.443026
0
LINE
8
boundary
62
5
39
2
10
24.752324
20
309.443026
11
11.142814
21
309.443026
0
LINE
8
boundary
62
5
39
2
10
11.142814
20
309.443026
11
6.687500
21
309.002926
0
LINE
8
boundary
62
5
39
2
10
6.687500
20
309.002926
11
6.687500
21
253.964364
0
LINE
8
boundary
62
5
39
2
10
6.687500
20
253.964364
11
11.142814
21
253.524264
0
LINE
8
boundary
62
5
39
2
10
11.142814
20
253.524264
11
51.039702
21
253.524264
0
LINE
8
boundary
62
5
39
2
10
51.039702
20
253.524264
11
51.039702
21
249.473264
0
LINE
8
boundary
62
5
39
2
10
51.039702
20
249.473264
11
11.142815
21
249.473264
0
LINE
8
boundary
62
5
39
2
10
11.142815
20
249.473264
11
6.687500
21
249.033164
0
LINE
8
boundary
62
5
39
2
10
6.687500
20
249.033164
11
6.687500
21
200.375622
0
LINE
8
boundary
62
5
39
2
10
6.687500
20
200.375622
11
11.142814
21
199.935522
0
LINE
8
boundary
62
5
39
2
10
11.142814
20
199.935522
11
69.944774
21
199.935522
0
LINE
8
boundary
62
5
39
2
10
69.944774
20
199.935522
11
69.944774
21
195.884522
0
LINE
8
boundary
62
5
39
2
10
69.944774
20
195.884522
11
11.142814
21
195.884522
0
LINE
8
boundary
62
5
39
2
10
11.142814
20
195.884522
11
6.687500
21
195.444422
0
LINE
8
boundary
62
5
39
2
10
6.687500
20
195.444422
11
6.687500
21
160.939270
0
LINE
8
boundary
62
5
39
2
10
6.687500
20
160.939270
11
11.142814
21
160.499170
0
LINE
8
boundary
62
5
39
2
10
11.142814
20
160.499170
11
84.210838
21
160.499170
0
LINE
8
boundary
62
5
39
2
10
84.210838
20
160.499170
11
84.210838
21
156.448169
0
LINE
8
boundary
62
5
39
2
10
84.210838
20
156.448169
11
11.142814
21
156.448169
0
LINE
8
boundary
62
5
39
2
10
11.142814
20
156.448169
11
6.687500
21
156.008069
0
LINE
8
boundary
62
5
39
2
10
6.687500
20
156.008069
11
6.687500
21
152.990056
0
LINE
8
boundary
62
5
39
2
10
6.687500
20
152.990056
11
7.123956
21
152.579340
0
LINE
8
boundary
62
5
39
2
10
7.123956
20
152.579340
11
9.641054
21
149.098893
0
LINE
8
boundary
62
5
39
2
10
9.641054
20
149.098893
11
15.517798
21
141.061093
0
LINE
8
boundary
62
5
39
2
10
15.517798
20
141.061093
11
18.933576
21
135.550067
0
LINE
8
boundary
62
5
39
2
10
18.933576
20
135.550067
11
23.444751
21
128.074847
0
LINE
8
boundary
62
5
39
2
10
23.444751
20
128.074847
11
26.066109
21
121.502917
0
LINE
8
boundary
62
5
39
2
10
26.066109
20
121.502917
11
30.521423
21
121.062817
0
LINE
8
boundary
62
5
39
2
10
30.521423
20
121.062817
11
109.782514
21
121.062817
0
LINE
8
boundary
62
5
39
2
10
109.782514
20
121.062817
11
109.782514
21
117.011817
0
LINE
8
boundary
62
5
39
2
10
109.782514
20
117.011817
11
32.488340
21
117.011817
0
LINE
8
boundary
62
5
39
2
10
32.488340
20
117.011817
11
28.033026
21
116.571717
0
LINE
8
boundary
62
5
39
2
10
28.033026
20
116.571717
11
29.750322
21
112.628416
0
LINE
8
boundary
62
5
39
2
10
29.750322
20
112.628416
11
32.595559
21
102.635879
0
LINE
8
boundary
62
5
39
2
10
32.595559
20
102.635879
11
34.571970
21
96.402439
0
LINE
8
boundary
62
5
39
2
10
34.571970
20
96.402439
11
38.511585
21
82.979520
0
LINE
8
boundary
62
5
39
2
10
38.511585
20
82.979520
11
38.752212
21
82.066564
0
LINE
8
boundary
62
5
39
2
10
38.752212
20
82.066564
11
43.207526
21
81.626465
0
LINE
8
boundary
62
5
39
2
10
43.207526
20
81.626465
11
122.952871
21
81.626464
0
LINE
8
boundary
62
5
39
2
10
122.952871
20
81.626464
11
122.952871
21
77.575464
0
LINE
8
boundary
62
5
39
2
10
122.952871
20
77.575464
11
44.506031
21
77.575464
0
LINE
8
boundary
62
5
39
2
10
44.506031
20
77.575464
11
40.050717
21
77.135364
0
LINE
8
boundary
62
5
39
2
10
40.050717
20
77.135364
11
40.283016
21
76.252685
0
LINE
8
boundary
62
5
39
2
10
40.283016
20
76.252685
11
44.817105
21
60.958324
0
LINE
8
boundary
62
5
39
2
10
44.817105
20
60.958324
11
46.081192
21
57.954907
0
LINE
8
boundary
62
5
39
2
10
46.081192
20
57.954907
11
47.700828
21
53.777243
0
LINE
8
boundary
62
5
39
2
10
47.700828
20
53.777243
11
51.121274
21
46.645961
0
LINE
8
boundary
62
5
39
2
10
51.121274
20
46.645961
11
52.857937
21
42.630212
0
LINE
8
boundary
62
5
39
2
10
52.857937
20
42.630212
11
57.313251
21
42.190112
0
LINE
8
boundary
62
5
39
2
10
57.313251
20
42.190112
11
126.297450
21
42.190112
0
LINE
8
boundary
62
5
39
2
10
126.297450
20
42.190112
11
126.297450
21
38.139112
0
LINE
8
boundary
62
5
39
2
10
126.297450
20
38.139112
11
60.720633
21
38.139112
0
LINE
8
boundary
62
5
39
2
10
60.720633
20
38.139112
11
56.265319
21
37.699012
0
LINE
8
boundary
62
5
39
2
10
56.265319
20
37.699012
11
62.404239
21
30.269863
0
LINE
8
boundary
62
5
39
2
10
62.404239
20
30.269863
11
71.700392
21
21.443584
0
LINE
8
boundary
62
5
39
2
10
71.700392
20
21.443584
11
86.426116
21
14.226772
0
LINE
8
boundary
62
5
39
2
10
86.426116
20
14.226772
11
98.716081
21
10.132194
0
LINE
8
boundary
62
5
39
2
10
98.716081
20
10.132194
11
118.771895
21
6.687500
0
LINE
8
boundary
62
5
39
2
10
118.771895
20
6.687500
11
138.095764
21
6.998312
0
LINE
8
boundary
62
5
39
2
10
138.095764
20
6.998312
11
160.357202
21
10.411872
0
LINE
8
boundary
62
5
39
2
10
160.357202
20
10.411872
11
183.446822
21
22.881644
0
LINE
8
boundary
62
5
39
2
10
183.446822
20
22.881644
11
189.470443
21
26.229045
0
LINE
8
boundary
62
5
39
2
10
189.470443
20
26.229045
11
192.569463
21
30.378323
0
LINE
8
boundary
62
5
39
2
10
192.569463
20
30.378323
11
205.517770
21
51.251676
0
LINE
8
boundary
62
5
39
2
10
205.517770
20
51.251676
11
205.978427
21
54.790554
0
LINE
8
boundary
62
5
39
2
10
205.978427
20
54.790554
11
206.355482
21
60.864464
0
LINE
8
boundary
62
5
39
2
10
206.355482
20
60.864464
11
207.406000
21
73.045871
0
LINE
8
annotation
62
1
39
211
10
133.709895
20
36.644033
11
135.273567
21
36.644033
0
LINE
8
annotation
62
1
39
211
10
135.273567
20
36.644033
11
135.273567
21
36.644033
0
LINE
8
annotation
62
1
39
211
10
135.273567
20
36.644033
11
135.554797
21
36.669261
0
LINE
8
annotation
62
1
39
211
10
135.554797
20
36.669261
11
135.819425
21
36.741970
0
LINE
8
annotation
62
1
39
211
10
135.819425
20
36.741970
11
136.063049
21
36.857697
0
LINE
8
annotation
62
1
39
211
10
136.063049
20
36.857697
11
136.281268
21
37.011978
0
LINE
8
annotation
62
1
39
211
10
136.281268
20
37.011978
11
136.469680
21
37.200352
0
LINE
8
annotation
62
1
39
211
10
136.469680
20
37.200352
11
136.623885
21
37.418353
0
LINE
8
annotation
62
1
39
211
10
136.623885
20
37.418353
11
136.739480
21
37.661520
0
LINE
8
annotation
62
1
39
211
10
136.739480
20
37.661520
11
136.812065
21
37.925388
0
LINE
8
annotation
62
1
39
211
10
136.812065
20
37.925388
11
136.837238
21
38.205496
0
LINE
8
annotation
62
1
39
211
10
136.837238
20
38.205496
11
136.837238
21
38.988436
0
LINE
8
annotation
62
1
39
211
10
136.837238
20
38.988436
11
136.837238
21
38.988436
0
LINE
8
annotation
62
1
39
211
10
136.837238
20
38.988436
11
136.812065
21
39.268427
0
LINE
8
annotation
62
1
39
211
10
136.812065
20
39.268427
11
136.739480
21
39.532234
0
LINE
8
annotation
62
1
39
211
10
136.739480
20
39.532234
11
136.623885
21
39.775383
0
LINE
8
annotation
62
1
39
211
10
136.623885
20
39.775383
11
136.469680
21
39.993399
0
LINE
8
annotation
62
1
39
211
10
136.469680
20
39.993399
11
136.281268
21
40.181808
0
LINE
8
annotation
62
1
39
211
10
136.281268
20
40.181808
11
136.063049
21
40.336137
0
LINE
8
annotation
62
1
39
211
10
136.063049
20
40.336137
11
135.819425
21
40.451911
0
LINE
8
annotation
62
1
39
211
10
135.819425
20
40.451911
11
135.554797
21
40.524657
0
LINE
8
annotation
62
1
39
211
10
135.554797
20
40.524657
11
135.273567
21
40.549899
0
LINE
8
annotation
62
1
39
211
10
135.273567
20
40.549899
11
134.490627
21
40.549899
0
LINE
8
annotation
62
1
39
211
10
134.490627
20
40.549899
11
135.273567
21
40.549899
0
LINE
8
annotation
62
1
39
211
10
135.273567
20
40.549899
11
135.273567
21
40.549899
0
LINE
8
annotation
62
1
39
211
10
135.273567
20
40.549899
11
135.554797
21
40.575148
0
LINE
8
annotation
62
1
39
211
10
135.554797
20
40.575148
11
135.819425
21
40.647936
0
LINE
8
annotation
62
1
39
211
10
135.819425
20
40.647936
11
136.063049
21
40.763825
0
LINE
8
annotation
62
1
39
211
10
136.063049
20
40.763825
11
136.281268
21
40.918378
0
LINE
8
annotation
62
1
39
211
10
136.281268
20
40.918378
11
136.469680
21
41.107157
0
LINE
8
annotation
62
1
39
211
10
136.469680
20
41.107157
11
136.623885
21
41.325725
0
LINE
8
annotation
62
1
39
211
10
136.623885
20
41.325725
11
136.739480
21
41.569642
0
LINE
8
annotation
62
1
39
211
10
136.739480
20
41.569642
11
136.812065
21
41.834473
0
LINE
8
annotation
62
1
39
211
10
136.812065
20
41.834473
11
136.837238
21
42.115779
0
LINE
8
annotation
62
1
39
211
10
136.837238
20
42.115779
11
136.837238
21
42.115779
0
LINE
8
annotation
62
1
39
211
10
136.837238
20
42.115779
11
136.812065
21
42.395770
0
LINE
8
annotation
62
1
39
211
10
136.812065
20
42.395770
11
136.739480
21
42.659577
0
LINE
8
annotation
62
1
39
211
10
136.739480
20
42.659577
11
136.623885
21
42.902726
0
LINE
8
annotation
62
1
39
211
10
136.623885
20
42.902726
11
136.469680
21
43.120742
0
LINE
8
annotation
62
1
39
211
10
136.469680
20
43.120742
11
136.281268
21
43.309151
0
LINE
8
annotation
62
1
39
211
10
136.281268
20
43.309151
11
136.063049
21
43.463480
0
LINE
8
annotation
62
1
39
211
10
136.063049
20
43.463480
11
135.819425
21
43.579254
0
LINE
8
annotation
62
1
39
211
10
135.819425
20
43.579254
11
135.554797
21
43.652000
0
LINE
8
annotation
62
1
39
211
10
135.554797
20
43.652000
11
135.273567
21
43.677242
0
LINE
8
annotation
62
1
39
211
10
135.273567
20
43.677242
11
133.709895
21
43.677242
0
LINE
8
annotation
62
1
39
211
10
133.883908
20
77.645602
11
129.974067
21
77.645602
0
LINE
8
annotation
62
1
39
211
10
129.974067
20
77.645602
11
131.535531
21
83.121764
0
LINE
8
annotation
62
1
39
211
10
132.711928
20
76.080164
11
132.711928
21
79.207507
0
LINE
8
annotation
62
1
39
211
10
117.194959
20
115.516517
11
118.758631
21
115.516517
0
LINE
8
annotation
62
1
39
211
10
118.758631
20
115.516517
11
118.758631
21
115.516517
0
LINE
8
annotation
62
1
39
211
10
118.758631
20
115.516517
11
119.039279
21
115.541750
0
LINE
8
annotation
62
1
39
211
10
119.039279
20
115.541750
11
119.303598
21
115.614498
0
LINE
8
annotation
62
1
39
211
10
119.303598
20
115.614498
11
119.547131
21
115.730328
0
LINE
8
annotation
62
1
39
211
10
119.547131
20
115.730328
11
119.765423
21
115.884812
0
LINE
8
annotation
62
1
39
211
10
119.765423
20
115.884812
11
119.954017
21
116.073517
0
LINE
8
annotation
62
1
39
211
10
119.954017
20
116.073517
11
120.108458
21
116.292015
0
LINE
8
annotation
62
1
39
211
10
120.108458
20
116.292015
11
120.224290
21
116.535874
0
LINE
8
annotation
62
1
39
211
10
120.224290
20
116.535874
11
120.297057
21
116.800664
0
LINE
8
annotation
62
1
39
211
10
120.297057
20
116.800664
11
120.322302
21
117.081955
0
LINE
8
annotation
62
1
39
211
10
120.322302
20
117.081955
11
120.322302
21
117.860920
0
LINE
8
annotation
62
1
39
211
10
120.322302
20
117.860920
11
120.322302
21
117.860920
0
LINE
8
annotation
62
1
39
211
10
120.322302
20
117.860920
11
120.297071
21
118.142074
0
LINE
8
annotation
62
1
39
211
10
120.297071
20
118.142074
11
120.224341
21
118.406499
0
LINE
8
annotation
62
1
39
211
10
120.224341
20
118.406499
11
120.108556
21
118.649829
0
LINE
8
annotation
62
1
39
211
10
120.108556
20
118.649829
11
119.954163
21
118.867700
0
LINE
8
annotation
62
1
39
211
10
119.954163
20
118.867700
11
119.765605
21
119.055746
0
LINE
8
annotation
62
1
39
211
10
119.765605
20
119.055746
11
119.547328
21
119.209603
0
LINE
8
annotation
62
1
39
211
10
119.547328
20
119.209603
11
119.303776
21
119.324904
0
LINE
8
annotation
62
1
39
211
10
119.303776
20
119.324904
11
119.039396
21
119.397286
0
LINE
8
annotation
62
1
39
211
10
119.039396
20
119.397286
11
118.758631
21
119.422384
0
LINE
8
annotation
62
1
39
211
10
118.758631
20
119.422384
11
117.194959
21
119.422384
0
LINE
8
annotation
62
1
39
211
10
117.194959
20
119.422384
11
117.194959
21
122.558117
0
LINE
8
annotation
62
1
39
211
10
117.194959
20
122.558117
11
120.322302
21
122.558117
0
LINE
8
annotation
62
1
39
211
10
93.972103
20
161.994469
11
93.972103
21
161.994469
0
LINE
8
annotation
62
1
39
211
10
93.972103
20
161.994469
11
93.524150
21
161.826514
0
LINE
8
annotation
62
1
39
211
10
93.524150
20
161.826514
11
93.113095
21
161.600215
0
LINE
8
annotation
62
1
39
211
10
93.113095
20
161.600215
11
92.743157
21
161.321240
0
LINE
8
annotation
62
1
39
211
10
92.743157
20
161.321240
11
92.418555
21
160.995261
0
LINE
8
annotation
62
1
39
211
10
92.418555
20
160.995261
11
92.143510
21
160.627947
0
LINE
8
annotation
62
1
39
211
10
92.143510
20
160.627947
11
91.922240
21
160.224968
0
LINE
8
annotation
62
1
39
211
10
91.922240
20
160.224968
11
91.758966
21
159.791993
0
LINE
8
annotation
62
1
39
211
10
91.758966
20
159.791993
11
91.657907
21
159.334692
0
LINE
8
annotation
62
1
39
211
10
91.657907
20
159.334692
11
91.623284
21
158.858736
0
LINE
8
annotation
62
1
39
211
10
91.623284
20
158.858736
11
91.623284
21
156.518307
0
LINE
8
annotation
62
1
39
211
10
91.623284
20
156.518307
11
91.623284
21
156.518307
0
LINE
8
annotation
62
1
39
211
10
91.623284
20
156.518307
11
91.648529
21
156.237017
0
LINE
8
annotation
62
1
39
211
10
91.648529
20
156.237017
11
91.721296
21
155.972227
0
LINE
8
annotation
62
1
39
211
10
91.721296
20
155.972227
11
91.837128
21
155.728367
0
LINE
8
annotation
62
1
39
211
10
91.837128
20
155.728367
11
91.991569
21
155.509870
0
LINE
8
annotation
62
1
39
211
10
91.991569
20
155.509870
11
92.180163
21
155.321164
0
LINE
8
annotation
62
1
39
211
10
92.180163
20
155.321164
11
92.398455
21
155.166681
0
LINE
8
annotation
62
1
39
211
10
92.398455
20
155.166681
11
92.641988
21
155.050850
0
LINE
8
annotation
62
1
39
211
10
92.641988
20
155.050850
11
92.906306
21
154.978103
0
LINE
8
annotation
62
1
39
211
10
92.906306
20
154.978103
11
93.186955
21
154.952869
0
LINE
8
annotation
62
1
39
211
10
93.186955
20
154.952869
11
93.186955
21
154.952869
0
LINE
8
annotation
62
1
39
211
10
93.186955
20
154.952869
11
93.468185
21
154.978103
0
LINE
8
annotation
62
1
39
211
10
93.468185
20
154.978103
11
93.732813
21
155.050850
0
LINE
8
annotation
62
1
39
211
10
93.732813
20
155.050850
11
93.976437
21
155.166681
0
LINE
8
annotation
62
1
39
211
10
93.976437
20
155.166681
11
94.194656
21
155.321164
0
LINE
8
annotation
62
1
39
211
10
94.194656
20
155.321164
11
94.383068
21
155.509870
0
LINE
8
annotation
62
1
39
211
10
94.383068
20
155.509870
11
94.537273
21
155.728367
0
LINE
8
annotation
62
1
39
211
10
94.537273
20
155.728367
11
94.652868
21
155.972227
0
LINE
8
annotation
62
1
39
211
10
94.652868
20
155.972227
11
94.725453
21
156.237017
0
LINE
8
annotation
62
1
39
211
10
94.725453
20
156.237017
11
94.750626
21
156.518307
0
LINE
8
annotation
62
1
39
211
10
94.750626
20
156.518307
11
94.750626
21
157.297273
0
LINE
8
annotation
62
1
39
211
10
94.750626
20
157.297273
11
94.750626
21
157.297273
0
LINE
8
annotation
62
1
39
211
10
94.750626
20
157.297273
11
94.725453
21
157.578427
0
LINE
8
annotation
62
1
39
211
10
94.725453
20
157.578427
11
94.652868
21
157.842852
0
LINE
8
annotation
62
1
39
211
10
94.652868
20
157.842852
11
94.537273
21
158.086182
0
LINE
8
annotation
62
1
39
211
10
94.537273
20
158.086182
11
94.383068
21
158.304053
0
LINE
8
annotation
62
1
39
211
10
94.383068
20
158.304053
11
94.194656
21
158.492099
0
LINE
8
annotation
62
1
39
211
10
94.194656
20
158.492099
11
93.976437
21
158.645955
0
LINE
8
annotation
62
1
39
211
10
93.976437
20
158.645955
11
93.732813
21
158.761257
0
LINE
8
annotation
62
1
39
211
10
93.732813
20
158.761257
11
93.468185
21
158.833639
0
LINE
8
annotation
62
1
39
211
10
93.468185
20
158.833639
11
93.186955
21
158.858736
0
LINE
8
annotation
62
1
39
211
10
93.186955
20
158.858736
11
91.623284
21
158.858736
0
LINE
8
annotation
62
1
39
211
10
91.427438
20
154.072669
11
94.948238
21
154.072669
0
LINE
8
annotation
62
1
39
211
10
78.920891
20
194.389222
11
80.486328
21
201.430822
0
LINE
8
annotation
62
1
39
211
10
80.486328
20
201.430822
11
77.355011
21
201.430822
0
LINE
8
annotation
62
1
39
211
10
80.486328
20
198.295089
11
78.920891
21
198.295089
0
LINE
8
annotation
62
1
39
211
10
58.452148
20
249.539207
11
58.452148
21
249.539207
0
LINE
8
annotation
62
1
39
211
10
58.452148
20
249.539207
11
58.477394
21
249.258053
0
LINE
8
annotation
62
1
39
211
10
58.477394
20
249.258053
11
58.550160
21
248.993628
0
LINE
8
annotation
62
1
39
211
10
58.550160
20
248.993628
11
58.665992
21
248.750298
0
LINE
8
annotation
62
1
39
211
10
58.665992
20
248.750298
11
58.820433
21
248.532427
0
LINE
8
annotation
62
1
39
211
10
58.820433
20
248.532427
11
59.009027
21
248.344381
0
LINE
8
annotation
62
1
39
211
10
59.009027
20
248.344381
11
59.227319
21
248.190524
0
LINE
8
annotation
62
1
39
211
10
59.227319
20
248.190524
11
59.470852
21
248.075223
0
LINE
8
annotation
62
1
39
211
10
59.470852
20
248.075223
11
59.735171
21
248.002841
0
LINE
8
annotation
62
1
39
211
10
59.735171
20
248.002841
11
60.015819
21
247.977743
0
LINE
8
annotation
62
1
39
211
10
60.015819
20
247.977743
11
60.015819
21
247.977743
0
LINE
8
annotation
62
1
39
211
10
60.015819
20
247.977743
11
60.296468
21
248.002841
0
LINE
8
annotation
62
1
39
211
10
60.296468
20
248.002841
11
60.560787
21
248.075223
0
LINE
8
annotation
62
1
39
211
10
60.560787
20
248.075223
11
60.804320
21
248.190524
0
LINE
8
annotation
62
1
39
211
10
60.804320
20
248.190524
11
61.022611
21
248.344381
0
LINE
8
annotation
62
1
39
211
10
61.022611
20
248.344381
11
61.211206
21
248.532427
0
LINE
8
annotation
62
1
39
211
10
61.211206
20
248.532427
11
61.365647
21
248.750298
0
LINE
8
annotation
62
1
39
211
10
61.365647
20
248.750298
11
61.481478
21
248.993628
0
LINE
8
annotation
62
1
39
211
10
61.481478
20
248.993628
11
61.554245
21
249.258053
0
LINE
8
annotation
62
1
39
211
10
61.554245
20
249.258053
11
61.579491
21
249.539207
0
LINE
8
annotation
62
1
39
211
10
61.579491
20
249.539207
11
61.579491
21
250.318172
0
LINE
8
annotation
62
1
39
211
10
61.579491
20
250.318172
11
61.579491
21
250.318172
0
LINE
8
annotation
62
1
39
211
10
61.579491
20
250.318172
11
61.554260
21
250.599463
0
LINE
8
annotation
62
1
39
211
10
61.554260
20
250.599463
11
61.481529
21
250.864253
0
LINE
8
annotation
62
1
39
211
10
61.481529
20
250.864253
11
61.365745
21
251.108112
0
LINE
8
annotation
62
1
39
211
10
61.365745
20
251.108112
11
61.211351
21
251.326610
0
LINE
8
annotation
62
1
39
211
10
61.211351
20
251.326610
11
61.022793
21
251.515315
0
LINE
8
annotation
62
1
39
211
10
61.022793
20
251.515315
11
60.804516
21
251.669799
0
LINE
8
annotation
62
1
39
211
10
60.804516
20
251.669799
11
60.560965
21
251.785629
0
LINE
8
annotation
62
1
39
211
10
60.560965
20
251.785629
11
60.296584
21
251.858376
0
LINE
8
annotation
62
1
39
211
10
60.296584
20
251.858376
11
60.015819
21
251.883610
0
LINE
8
annotation
62
1
39
211
10
60.015819
20
251.883610
11
60.015819
21
251.883610
0
LINE
8
annotation
62
1
39
211
10
60.015819
20
251.883610
11
59.735055
21
251.858362
0
LINE
8
annotation
62
1
39
211
10
59.735055
20
251.858362
11
59.470674
21
251.785578
0
LINE
8
annotation
62
1
39
211
10
59.470674
20
251.785578
11
59.227123
21
251.669700
0
LINE
8
annotation
62
1
39
211
10
59.227123
20
251.669700
11
59.008846
21
251.515170
0
LINE
8
annotation
62
1
39
211
10
59.008846
20
251.515170
11
58.820288
21
251.326428
0
LINE
8
annotation
62
1
39
211
10
58.820288
20
251.326428
11
58.665894
21
251.107916
0
LINE
8
annotation
62
1
39
211
10
58.665894
20
251.107916
11
58.550109
21
250.864075
0
LINE
8
annotation
62
1
39
211
10
58.550109
20
250.864075
11
58.477379
21
250.599347
0
LINE
8
annotation
62
1
39
211
10
58.477379
20
250.599347
11
58.452148
21
250.318172
0
LINE
8
annotation
62
1
39
211
10
58.452148
20
250.318172
11
58.452148
21
249.539207
0
LINE
8
annotation
62
1
39
211
10
61.579491
20
253.449490
11
61.579491
21
253.449490
0
LINE
8
annotation
62
1
39
211
10
61.579491
20
253.449490
11
61.554260
21
253.729481
0
LINE
8
annotation
62
1
39
211
10
61.554260
20
253.729481
11
61.481529
21
253.993288
0
LINE
8
annotation
62
1
39
211
10
61.481529
20
253.993288
11
61.365745
21
254.236436
0
LINE
8
annotation
62
1
39
211
10
61.365745
20
254.236436
11
61.211351
21
254.454452
0
LINE
8
annotation
62
1
39
211
10
61.211351
20
254.454452
11
61.022793
21
254.642862
0
LINE
8
annotation
62
1
39
211
10
61.022793
20
254.642862
11
60.804516
21
254.797191
0
LINE
8
annotation
62
1
39
211
10
60.804516
20
254.797191
11
60.560965
21
254.912965
0
LINE
8
annotation
62
1
39
211
10
60.560965
20
254.912965
11
60.296584
21
254.985710
0
LINE
8
annotation
62
1
39
211
10
60.296584
20
254.985710
11
60.015819
21
255.010953
0
LINE
8
annotation
62
1
39
211
10
60.015819
20
255.010953
11
60.015819
21
255.010953
0
LINE
8
annotation
62
1
39
211
10
60.015819
20
255.010953
11
59.735055
21
254.985710
0
LINE
8
annotation
62
1
39
211
10
59.735055
20
254.985710
11
59.470674
21
254.912965
0
LINE
8
annotation
62
1
39
211
10
59.470674
20
254.912965
11
59.227123
21
254.797191
0
LINE
8
annotation
62
1
39
211
10
59.227123
20
254.797191
11
59.008846
21
254.642862
0
LINE
8
annotation
62
1
39
211
10
59.008846
20
254.642862
11
58.820288
21
254.454452
0
LINE
8
annotation
62
1
39
211
10
58.820288
20
254.454452
11
58.665894
21
254.236436
0
LINE
8
annotation
62
1
39
211
10
58.665894
20
254.236436
11
58.550109
21
253.993288
0
LINE
8
annotation
62
1
39
211
10
58.550109
20
253.993288
11
58.477379
21
253.729481
0
LINE
8
annotation
62
1
39
211
10
58.477379
20
253.729481
11
58.452148
21
253.449490
0
LINE
8
annotation
62
1
39
211
10
58.452148
20
253.449490
11
58.452148
21
253.449490
0
LINE
8
annotation
62
1
39
211
10
58.452148
20
253.449490
11
58.477394
21
253.168184
0
LINE
8
annotation
62
1
39
211
10
58.477394
20
253.168184
11
58.550160
21
252.903353
0
LINE
8
annotation
62
1
39
211
10
58.550160
20
252.903353
11
58.665992
21
252.659435
0
LINE
8
annotation
62
1
39
211
10
58.665992
20
252.659435
11
58.820433
21
252.440868
0
LINE
8
annotation
62
1
39
211
10
58.820433
20
252.440868
11
59.009027
21
252.252089
0
LINE
8
annotation
62
1
39
211
10
59.009027
20
252.252089
11
59.227319
21
252.097536
0
LINE
8
annotation
62
1
39
211
10
59.227319
20
252.097536
11
59.470852
21
251.981647
0
LINE
8
annotation
62
1
39
211
10
59.470852
20
251.981647
11
59.735171
21
251.908859
0
LINE
8
annotation
62
1
39
211
10
59.735171
20
251.908859
11
60.015819
21
251.883610
0
LINE
8
annotation
62
1
39
211
10
60.015819
20
251.883610
11
60.015819
21
251.883610
0
LINE
8
annotation
62
1
39
211
10
60.015819
20
251.883610
11
60.296468
21
251.908859
0
LINE
8
annotation
62
1
39
211
10
60.296468
20
251.908859
11
60.560787
21
251.981647
0
LINE
8
annotation
62
1
39
211
10
60.560787
20
251.981647
11
60.804320
21
252.097536
0
LINE
8
annotation
62
1
39
211
10
60.804320
20
252.097536
11
61.022611
21
252.252089
0
LINE
8
annotation
62
1
39
211
10
61.022611
20
252.252089
11
61.211206
21
252.440868
0
LINE
8
annotation
62
1
39
211
10
61.211206
20
252.440868
11
61.365647
21
252.659435
0
LINE
8
annotation
62
1
39
211
10
61.365647
20
252.659435
11
61.481478
21
252.903353
0
LINE
8
annotation
62
1
39
211
10
61.481478
20
252.903353
11
61.554245
21
253.168184
0
LINE
8
annotation
62
1
39
211
10
61.554245
20
253.168184
11
61.579491
21
253.449490
0
LINE
8
annotation
62
1
39
211
10
32.945501
20
307.947726
11
32.945501
21
307.947726
0
LINE
8
annotation
62
1
39
211
10
32.945501
20
307.947726
11
33.392664
21
308.114361
0
LINE
8
annotation
62
1
39
211
10
33.392664
20
308.114361
11
33.803105
21
308.339599
0
LINE
8
annotation
62
1
39
211
10
33.803105
20
308.339599
11
34.172582
21
308.617700
0
LINE
8
annotation
62
1
39
211
10
34.172582
20
308.617700
11
34.496853
21
308.942927
0
LINE
8
annotation
62
1
39
211
10
34.496853
20
308.942927
11
34.771677
21
309.309539
0
LINE
8
annotation
62
1
39
211
10
34.771677
20
309.309539
11
34.992812
21
309.711798
0
LINE
8
annotation
62
1
39
211
10
34.992812
20
309.711798
11
35.156017
21
310.143965
0
LINE
8
annotation
62
1
39
211
10
35.156017
20
310.143965
11
35.257050
21
310.600302
0
LINE
8
annotation
62
1
39
211
10
35.257050
20
310.600302
11
35.291670
21
311.075069
0
LINE
8
annotation
62
1
39
211
10
35.291670
20
311.075069
11
35.291670
21
313.423447
0
LINE
8
annotation
62
1
39
211
10
35.291670
20
313.423447
11
35.291670
21
313.423447
0
LINE
8
annotation
62
1
39
211
10
35.291670
20
313.423447
11
35.266497
21
313.704752
0
LINE
8
annotation
62
1
39
211
10
35.266497
20
313.704752
11
35.193912
21
313.969583
0
LINE
8
annotation
62
1
39
211
10
35.193912
20
313.969583
11
35.078317
21
314.213501
0
LINE
8
annotation
62
1
39
211
10
35.078317
20
314.213501
11
34.924112
21
314.432068
0
LINE
8
annotation
62
1
39
211
10
34.924112
20
314.432068
11
34.735699
21
314.620847
0
LINE
8
annotation
62
1
39
211
10
34.735699
20
314.620847
11
34.517480
21
314.775400
0
LINE
8
annotation
62
1
39
211
10
34.517480
20
314.775400
11
34.273856
21
314.891289
0
LINE
8
annotation
62
1
39
211
10
34.273856
20
314.891289
11
34.009229
21
314.964077
0
LINE
8
annotation
62
1
39
211
10
34.009229
20
314.964077
11
33.727999
21
314.989326
0
LINE
8
annotation
62
1
39
211
10
33.727999
20
314.989326
11
33.727999
21
314.989326
0
LINE
8
annotation
62
1
39
211
10
33.727999
20
314.989326
11
33.447350
21
314.964077
0
LINE
8
annotation
62
1
39
211
10
33.447350
20
314.964077
11
33.183031
21
314.891289
0
LINE
8
annotation
62
1
39
211
10
33.183031
20
314.891289
11
32.939498
21
314.775400
0
LINE
8
annotation
62
1
39
211
10
32.939498
20
314.775400
11
32.721207
21
314.620847
0
LINE
8
annotation
62
1
39
211
10
32.721207
20
314.620847
11
32.532612
21
314.432068
0
LINE
8
annotation
62
1
39
211
10
32.532612
20
314.432068
11
32.378171
21
314.213501
0
LINE
8
annotation
62
1
39
211
10
32.378171
20
314.213501
11
32.262340
21
313.969583
0
LINE
8
annotation
62
1
39
211
10
32.262340
20
313.969583
11
32.189573
21
313.704752
0
LINE
8
annotation
62
1
39
211
10
32.189573
20
313.704752
11
32.164327
21
313.423447
0
LINE
8
annotation
62
1
39
211
10
32.164327
20
313.423447
11
32.164327
21
312.640507
0
LINE
8
annotation
62
1
39
211
10
32.164327
20
312.640507
11
32.164327
21
312.640507
0
LINE
8
annotation
62
1
39
211
10
32.164327
20
312.640507
11
32.189573
21
312.359216
0
LINE
8
annotation
62
1
39
211
10
32.189573
20
312.359216
11
32.262340
21
312.094426
0
LINE
8
annotation
62
1
39
211
10
32.262340
20
312.094426
11
32.378171
21
311.850567
0
LINE
8
annotation
62
1
39
211
10
32.378171
20
311.850567
11
32.532612
21
311.632070
0
LINE
8
annotation
62
1
39
211
10
32.532612
20
311.632070
11
32.721207
21
311.443364
0
LINE
8
annotation
62
1
39
211
10
32.721207
20
311.443364
11
32.939498
21
311.288881
0
LINE
8
annotation
62
1
39
211
10
32.939498
20
311.288881
11
33.183031
21
311.173050
0
LINE
8
annotation
62
1
39
211
10
33.183031
20
311.173050
11
33.447350
21
311.100303
0
LINE
8
annotation
62
1
39
211
10
33.447350
20
311.100303
11
33.727999
21
311.075069
0
LINE
8
annotation
62
1
39
211
10
33.727999
20
311.075069
11
35.291670
21
311.075069
0
LINE
8
annotation
62
1
39
211
10
31.968923
20
307.067526
11
35.489723
21
307.067526
0
LINE
8
annotation
62
1
39
211
10
143.820813
20
80.235302
11
139.826639
21
74.458096
0
LINE
8
annotation
62
1
39
211
10
139.826639
20
74.458096
11
135.831715
21
80.235302
0
LINE
8
annotation
62
1
39
211
10
139.826639
20
74.923007
11
139.826639
21
68.258040
0
LINE
8
annotation
62
1
39
211
10
154.862058
20
74.246671
11
148.313507
21
74.246671
0
LINE
8
annotation
62
1
39
211
10
162.015031
20
68.258415
11
162.015031
21
80.234927
0
LINE
8
annotation
62
1
39
211
10
162.015031
20
80.234927
11
159.352499
21
77.571644
0
LINE
8
annotation
62
1
39
211
10
166.505847
20
70.913812
11
166.505847
21
70.913812
0
LINE
8
annotation
62
1
39
211
10
166.505847
20
70.913812
11
166.548786
21
70.435618
0
LINE
8
annotation
62
1
39
211
10
166.548786
20
70.435618
11
166.672549
21
69.985879
0
LINE
8
annotation
62
1
39
211
10
166.672549
20
69.985879
11
166.869558
21
69.572017
0
LINE
8
annotation
62
1
39
211
10
166.869558
20
69.572017
11
167.132235
21
69.201458
0
LINE
8
annotation
62
1
39
211
10
167.132235
20
69.201458
11
167.453000
21
68.881625
0
LINE
8
annotation
62
1
39
211
10
167.453000
20
68.881625
11
167.824276
21
68.619943
0
LINE
8
annotation
62
1
39
211
10
167.824276
20
68.619943
11
168.238482
21
68.423835
0
LINE
8
annotation
62
1
39
211
10
168.238482
20
68.423835
11
168.688042
21
68.300726
0
LINE
8
annotation
62
1
39
211
10
168.688042
20
68.300726
11
169.165375
21
68.258040
0
LINE
8
annotation
62
1
39
211
10
169.165375
20
68.258040
11
169.165375
21
68.258040
0
LINE
8
annotation
62
1
39
211
10
169.165375
20
68.258040
11
169.642708
21
68.300726
0
LINE
8
annotation
62
1
39
211
10
169.642708
20
68.300726
11
170.092268
21
68.423835
0
LINE
8
annotation
62
1
39
211
10
170.092268
20
68.423835
11
170.506474
21
68.619943
0
LINE
8
annotation
62
1
39
211
10
170.506474
20
68.619943
11
170.877750
21
68.881625
0
LINE
8
annotation
62
1
39
211
10
170.877750
20
68.881625
11
171.198515
21
69.201458
0
LINE
8
annotation
62
1
39
211
10
171.198515
20
69.201458
11
171.461191
21
69.572017
0
LINE
8
annotation
62
1
39
211
10
171.461191
20
69.572017
11
171.658201
21
69.985879
0
LINE
8
annotation
62
1
39
211
10
171.658201
20
69.985879
11
171.781964
21
70.435618
0
LINE
8
annotation
62
1
39
211
10
171.781964
20
70.435618
11
171.824903
21
70.913812
0
LINE
8
annotation
62
1
39
211
10
171.824903
20
70.913812
11
171.824903
21
72.238694
0
LINE
8
annotation
62
1
39
211
10
171.824903
20
72.238694
11
171.824903
21
72.238694
0
LINE
8
annotation
62
1
39
211
10
171.824903
20
72.238694
11
171.781989
21
72.717119
0
LINE
8
annotation
62
1
39
211
10
171.781989
20
72.717119
11
171.658287
21
73.167480
0
LINE
8
annotation
62
1
39
211
10
171.658287
20
73.167480
11
171.461358
21
73.582241
0
LINE
8
annotation
62
1
39
211
10
171.461358
20
73.582241
11
171.198762
21
73.953867
0
LINE
8
annotation
62
1
39
211
10
171.198762
20
73.953867
11
170.878059
21
74.274821
0
LINE
8
annotation
62
1
39
211
10
170.878059
20
74.274821
11
170.506808
21
74.537570
0
LINE
8
annotation
62
1
39
211
10
170.506808
20
74.537570
11
170.092571
21
74.734577
0
LINE
8
annotation
62
1
39
211
10
170.092571
20
74.734577
11
169.642906
21
74.858308
0
LINE
8
annotation
62
1
39
211
10
169.642906
20
74.858308
11
169.165375
21
74.901226
0
LINE
8
annotation
62
1
39
211
10
169.165375
20
74.901226
11
169.165375
21
74.901226
0
LINE
8
annotation
62
1
39
211
10
169.165375
20
74.901226
11
168.687844
21
74.858283
0
LINE
8
annotation
62
1
39
211
10
168.687844
20
74.858283
11
168.238179
21
74.734491
0
LINE
8
annotation
62
1
39
211
10
168.238179
20
74.734491
11
167.823942
21
74.537403
0
LINE
8
annotation
62
1
39
211
10
167.823942
20
74.537403
11
167.452691
21
74.274574
0
LINE
8
annotation
62
1
39
211
10
167.452691
20
74.274574
11
167.131988
21
73.953558
0
LINE
8
annotation
62
1
39
211
10
167.131988
20
73.953558
11
166.869391
21
73.581907
0
LINE
8
annotation
62
1
39
211
10
166.869391
20
73.581907
11
166.672463
21
73.167177
0
LINE
8
annotation
62
1
39
211
10
166.672463
20
73.167177
11
166.548761
21
72.716921
0
LINE
8
annotation
62
1
39
211
10
166.548761
20
72.716921
11
166.505847
21
72.238694
0
LINE
8
annotation
62
1
39
211
10
166.505847
20
72.238694
11
166.505847
21
70.913812
0
LINE
8
annotation
62
1
39
211
10
171.824903
20
77.564509
11
171.824903
21
77.564509
0
LINE
8
annotation
62
1
39
211
10
171.824903
20
77.564509
11
171.781989
21
78.040724
0
LINE
8
annotation
62
1
39
211
10
171.781989
20
78.040724
11
171.658287
21
78.489413
0
LINE
8
annotation
62
1
39
211
10
171.658287
20
78.489413
11
171.461358
21
78.902965
0
LINE
8
annotation
62
1
39
211
10
171.461358
20
78.902965
11
171.198762
21
79.273772
0
LINE
8
annotation
62
1
39
211
10
171.198762
20
79.273772
11
170.878059
21
79.594223
0
LINE
8
annotation
62
1
39
211
10
170.878059
20
79.594223
11
170.506808
21
79.856709
0
LINE
8
annotation
62
1
39
211
10
170.506808
20
79.856709
11
170.092571
21
80.053620
0
LINE
8
annotation
62
1
39
211
10
170.092571
20
80.053620
11
169.642906
21
80.177347
0
LINE
8
annotation
62
1
39
211
10
169.642906
20
80.177347
11
169.165375
21
80.220281
0
LINE
8
annotation
62
1
39
211
10
169.165375
20
80.220281
11
169.165375
21
80.220281
0
LINE
8
annotation
62
1
39
211
10
169.165375
20
80.220281
11
168.687844
21
80.177347
0
LINE
8
annotation
62
1
39
211
10
168.687844
20
80.177347
11
168.238179
21
80.053620
0
LINE
8
annotation
62
1
39
211
10
168.238179
20
80.053620
11
167.823942
21
79.856709
0
LINE
8
annotation
62
1
39
211
10
167.823942
20
79.856709
11
167.452691
21
79.594223
0
LINE
8
annotation
62
1
39
211
10
167.452691
20
79.594223
11
167.131988
21
79.273772
0
LINE
8
annotation
62
1
39
211
10
167.131988
20
79.273772
11
166.869391
21
78.902965
0
LINE
8
annotation
62
1
39
211
10
166.869391
20
78.902965
11
166.672463
21
78.489413
0
LINE
8
annotation
62
1
39
211
10
166.672463
20
78.489413
11
166.548761
21
78.040724
0
LINE
8
annotation
62
1
39
211
10
166.548761
20
78.040724
11
166.505847
21
77.564509
0
LINE
8
annotation
62
1
39
211
10
166.505847
20
77.564509
11
166.505847
21
77.564509
0
LINE
8
annotation
62
1
39
211
10
166.505847
20
77.564509
11
166.548786
21
77.086057
0
LINE
8
annotation
62
1
39
211
10
166.548786
20
77.086057
11
166.672549
21
76.635627
0
LINE
8
annotation
62
1
39
211
10
166.672549
20
76.635627
11
166.869558
21
76.220767
0
LINE
8
annotation
62
1
39
211
10
166.869558
20
76.220767
11
167.132235
21
75.849023
0
LINE
8
annotation
62
1
39
211
10
167.132235
20
75.849023
11
167.453000
21
75.527943
0
LINE
8
annotation
62
1
39
211
10
167.453000
20
75.527943
11
167.824276
21
75.265076
0
LINE
8
annotation
62
1
39
211
10
167.824276
20
75.265076
11
168.238482
21
75.067969
0
LINE
8
annotation
62
1
39
211
10
168.238482
20
75.067969
11
168.688042
21
74.944169
0
LINE
8
annotation
62
1
39
211
10
168.688042
20
74.944169
11
169.165375
21
74.901226
0
LINE
8
annotation
62
1
39
211
10
169.165375
20
74.901226
11
169.165375
21
74.901226
0
LINE
8
annotation
62
1
39
211
10
169.165375
20
74.901226
11
169.642708
21
74.944169
0
LINE
8
annotation
62
1
39
211
10
169.642708
20
74.944169
11
170.092268
21
75.067969
0
LINE
8
annotation
62
1
39
211
10
170.092268
20
75.067969
11
170.506474
21
75.265076
0
LINE
8
annotation
62
1
39
211
10
170.506474
20
75.265076
11
170.877750
21
75.527943
0
LINE
8
annotation
62
1
39
211
10
170.877750
20
75.527943
11
171.198515
21
75.849023
0
LINE
8
annotation
62
1
39
211
10
171.198515
20
75.849023
11
171.461191
21
76.220767
0
LINE
8
annotation
62
1
39
211
10
171.461191
20
76.220767
11
171.658201
21
76.635627
0
LINE
8
annotation
62
1
39
211
10
171.658201
20
76.635627
11
171.781964
21
77.086057
0
LINE
8
annotation
62
1
39
211
10
171.781964
20
77.086057
11
171.824903
21
77.564509
0
LINE
8
boundary
62
5
39
2
10
210.581000
20
193.854863
11
210.581001
21
145.413214
0
LINE
8
boundary
62
5
39
2
10
210.581001
20
145.413214
11
215.036314
21
144.973113
0
LINE
8
boundary
62
5
39
2
10
215.036314
20
144.973113
11
304.853255
21
144.973114
0
LINE
8
boundary
62
5
39
2
10
304.853255
20
144.973114
11
304.853255
21
140.922113
0
LINE
8
boundary
62
5
39
2
10
304.853255
20
140.922113
11
215.036315
21
140.922113
0
LINE
8
boundary
62
5
39
2
10
215.036315
20
140.922113
11
210.581000
21
140.482014
0
LINE
8
boundary
62
5
39
2
10
210.581000
20
140.482014
11
210.581001
21
85.443452
0
LINE
8
boundary
62
5
39
2
10
210.581001
20
85.443452
11
215.036314
21
85.003352
0
LINE
8
boundary
62
5
39
2
10
215.036314
20
85.003352
11
283.227201
21
85.003351
0
LINE
8
boundary
62
5
39
2
10
283.227201
20
85.003351
11
283.227201
21
80.952352
0
LINE
8
boundary
62
5
39
2
10
283.227201
20
80.952352
11
215.036315
21
80.952352
0
LINE
8
boundary
62
5
39
2
10
215.036315
20
80.952352
11
210.581001
21
80.512252
0
LINE
8
boundary
62
5
39
2
10
210.581001
20
80.512252
11
210.581001
21
31.854709
0
LINE
8
boundary
62
5
39
2
10
210.581001
20
31.854709
11
215.036315
21
31.414609
0
LINE
8
boundary
62
5
39
2
10
215.036315
20
31.414609
11
230.944898
21
31.414609
0
LINE
8
boundary
62
5
39
2
10
230.944898
20
31.414609
11
230.944898
21
27.363609
0
LINE
8
boundary
62
5
39
2
10
230.944898
20
27.363609
11
215.036315
21
27.363609
0
LINE
8
boundary
62
5
39
2
10
215.036315
20
27.363609
11
210.581001
21
26.923510
0
LINE
8
boundary
62
5
39
2
10
210.581001
20
26.923510
11
210.581001
21
6.687500
0
LINE
8
boundary
62
5
39
2
10
210.581001
20
6.687500
11
212.929103
21
8.341180
0
LINE
8
boundary
62
5
39
2
10
212.929103
20
8.341180
11
216.976423
21
11.254582
0
LINE
8
boundary
62
5
39
2
10
216.976423
20
11.254582
11
225.833546
21
16.213000
0
LINE
8
boundary
62
5
39
2
10
225.833546
20
16.213000
11
231.823383
21
19.692519
0
LINE
8
boundary
62
5
39
2
10
231.823383
20
19.692519
11
241.386660
21
24.546104
0
LINE
8
boundary
62
5
39
2
10
241.386660
20
24.546104
11
248.220981
21
28.002859
0
LINE
8
boundary
62
5
39
2
10
248.220981
20
28.002859
11
261.530837
21
33.371826
0
LINE
8
boundary
62
5
39
2
10
261.530837
20
33.371826
11
267.689290
21
36.126640
0
LINE
8
boundary
62
5
39
2
10
267.689290
20
36.126640
11
284.337484
21
43.239126
0
LINE
8
boundary
62
5
39
2
10
284.337484
20
43.239126
11
287.484652
21
44.545897
0
LINE
8
boundary
62
5
39
2
10
287.484652
20
44.545897
11
303.933884
21
50.309023
0
LINE
8
boundary
62
5
39
2
10
303.933884
20
50.309023
11
309.030230
21
52.062978
0
LINE
8
boundary
62
5
39
2
10
309.030230
20
52.062978
11
309.818959
21
52.328519
0
LINE
8
boundary
62
5
39
2
10
309.818959
20
52.328519
11
325.806934
21
60.438202
0
LINE
8
boundary
62
5
39
2
10
325.806934
20
60.438202
11
327.866896
21
61.425911
0
LINE
8
boundary
62
5
39
2
10
327.866896
20
61.425911
11
340.074074
21
69.220668
0
LINE
8
boundary
62
5
39
2
10
340.074074
20
69.220668
11
342.462604
21
70.708470
0
LINE
8
boundary
62
5
39
2
10
342.462604
20
70.708470
11
352.033112
21
79.811021
0
LINE
8
boundary
62
5
39
2
10
352.033112
20
79.811021
11
354.245179
21
81.666421
0
LINE
8
boundary
62
5
39
2
10
354.245179
20
81.666421
11
362.141786
21
90.085775
0
LINE
8
boundary
62
5
39
2
10
362.141786
20
90.085775
11
364.006384
21
91.990160
0
LINE
8
boundary
62
5
39
2
10
364.006384
20
91.990160
11
370.194950
21
98.711273
0
LINE
8
boundary
62
5
39
2
10
370.194950
20
98.711273
11
371.538237
21
100.217197
0
LINE
8
boundary
62
5
39
2
10
371.538237
20
100.217197
11
376.763544
21
107.985578
0
LINE
8
boundary
62
5
39
2
10
376.763544
20
107.985578
11
377.567394
21
109.118308
0
LINE
8
boundary
62
5
39
2
10
377.567394
20
109.118308
11
384.282768
21
118.865474
0
LINE
8
boundary
62
5
39
2
10
384.282768
20
118.865474
11
386.702853
21
122.622076
0
LINE
8
boundary
62
5
39
2
10
386.702853
20
122.622076
11
390.913965
21
129.194418
0
LINE
8
boundary
62
5
39
2
10
390.913965
20
129.194418
11
391.304678
21
129.941951
0
LINE
8
boundary
62
5
39
2
10
391.304678
20
129.941951
11
397.006266
21
139.813127
0
LINE
8
boundary
62
5
39
2
10
397.006266
20
139.813127
11
398.226929
21
141.970165
0
LINE
8
boundary
62
5
39
2
10
398.226929
20
141.970165
11
402.722061
21
150.850538
0
LINE
8
boundary
62
5
39
2
10
402.722061
20
150.850538
11
404.485749
21
154.099250
0
LINE
8
boundary
62
5
39
2
10
404.485749
20
154.099250
11
407.452558
21
161.249071
0
LINE
8
boundary
62
5
39
2
10
407.452558
20
161.249071
11
409.547398
21
165.512153
0
LINE
8
boundary
62
5
39
2
10
409.547398
20
165.512153
11
411.554746
21
171.202216
0
LINE
8
boundary
62
5
39
2
10
411.554746
20
171.202216
11
413.851487
21
177.472240
0
LINE
8
boundary
62
5
39
2
10
413.851487
20
177.472240
11
414.907156
21
180.101907
0
LINE
8
boundary
62
5
39
2
10
414.907156
20
180.101907
11
417.086687
21
186.669847
0
LINE
8
boundary
62
5
39
2
10
417.086687
20
186.669847
11
417.482555
21
187.765212
0
LINE
8
boundary
62
5
39
2
10
417.482555
20
187.765212
11
418.963927
21
191.855837
0
LINE
8
boundary
62
5
39
2
10
418.963927
20
191.855837
11
420.339291
21
195.430924
0
LINE
8
boundary
62
5
39
2
10
420.339291
20
195.430924
11
420.599962
21
196.517251
0
LINE
8
boundary
62
5
39
2
10
420.599962
20
196.517251
11
422.902732
21
204.144916
0
LINE
8
boundary
62
5
39
2
10
422.902732
20
204.144916
11
424.469542
21
208.771945
0
LINE
8
boundary
62
5
39
2
10
424.469542
20
208.771945
11
427.027784
21
217.270998
0
LINE
8
boundary
62
5
39
2
10
427.027784
20
217.270998
11
428.617154
21
224.392116
0
LINE
8
boundary
62
5
39
2
10
428.617154
20
224.392116
11
431.416476
21
236.309004
0
LINE
8
boundary
62
5
39
2
10
431.416476
20
236.309004
11
432.141415
21
238.925890
0
LINE
8
boundary
62
5
39
2
10
432.141415
20
238.925890
11
432.822440
21
240.631130
0
LINE
8
boundary
62
5
39
2
10
432.822440
20
240.631130
11
436.168804
21
250.008060
0
LINE
8
boundary
62
5
39
2
10
436.168804
20
250.008060
11
442.764223
21
257.893615
0
LINE
8
boundary
62
5
39
2
10
442.764223
20
257.893615
11
445.030930
21
260.462012
0
LINE
8
boundary
62
5
39
2
10
445.030930
20
260.462012
11
442.371727
21
262.358463
0
LINE
8
boundary
62
5
39
2
10
442.371727
20
262.358463
11
418.743465
21
275.307737
0
LINE
8
boundary
62
5
39
2
10
418.743465
20
275.307737
11
408.785224
21
281.275467
0
LINE
8
boundary
62
5
39
2
10
408.785224
20
281.275467
11
403.938396
21
283.238495
0
LINE
8
boundary
62
5
39
2
10
403.938396
20
283.238495
11
402.761778
21
283.325189
0
LINE
8
boundary
62
5
39
2
10
402.761778
20
283.325189
11
402.225484
21
283.672447
0
LINE
8
boundary
62
5
39
2
10
402.225484
20
283.672447
11
401.248168
21
284.249726
0
LINE
8
boundary
62
5
39
2
10
401.248168
20
284.249726
11
400.666927
21
284.607145
0
LINE
8
boundary
62
5
39
2
10
400.666927
20
284.607145
11
399.924753
21
283.514390
0
LINE
8
boundary
62
5
39
2
10
399.924753
20
283.514390
11
394.260509
21
275.408937
0
LINE
8
boundary
62
5
39
2
10
394.260509
20
275.408937
11
389.253283
21
270.159763
0
LINE
8
boundary
62
5
39
2
10
389.253283
20
270.159763
11
386.560651
21
267.252027
0
LINE
8
boundary
62
5
39
2
10
386.560651
20
267.252027
11
384.397756
21
265.490399
0
LINE
8
boundary
62
5
39
2
10
384.397756
20
265.490399
11
376.901403
21
258.720618
0
LINE
8
boundary
62
5
39
2
10
376.901403
20
258.720618
11
374.835500
21
257.063216
0
LINE
8
boundary
62
5
39
2
10
374.835500
20
257.063216
11
370.433742
21
253.448904
0
LINE
8
boundary
62
5
39
2
10
370.433742
20
253.448904
11
365.611051
21
249.379454
0
LINE
8
boundary
62
5
39
2
10
365.611051
20
249.379454
11
364.592384
21
248.429709
0
LINE
8
boundary
62
5
39
2
10
364.592384
20
248.429709
11
369.047697
21
247.989608
0
LINE
8
boundary
62
5
39
2
10
369.047697
20
247.989608
11
397.543889
21
247.989608
0
LINE
8
boundary
62
5
39
2
10
397.543889
20
247.989608
11
397.543889
21
243.938609
0
LINE
8
boundary
62
5
39
2
10
397.543889
20
243.938609
11
361.673034
21
243.938609
0
LINE
8
boundary
62
5
39
2
10
361.673034
20
243.938609
11
357.217720
21
243.498508
0
LINE
8
boundary
62
5
39
2
10
357.217720
20
243.498508
11
355.999510
21
242.729065
0
LINE
8
boundary
62
5
39
2
10
355.999510
20
242.729065
11
348.573446
21
238.182154
0
LINE
8
boundary
62
5
39
2
10
348.573446
20
238.182154
11
345.161970
21
237.205518
0
LINE
8
boundary
62
5
39
2
10
345.161970
20
237.205518
11
335.068746
21
232.851180
0
LINE
8
boundary
62
5
39
2
10
335.068746
20
232.851180
11
334.453733
21
232.730892
0
LINE
8
boundary
62
5
39
2
10
334.453733
20
232.730892
11
324.868081
21
230.579105
0
LINE
8
boundary
62
5
39
2
10
324.868081
20
230.579105
11
323.349567
21
230.547854
0
LINE
8
boundary
62
5
39
2
10
323.349567
20
230.547854
11
321.279184
21
230.062573
0
LINE
8
boundary
62
5
39
2
10
321.279184
20
230.062573
11
325.734497
21
229.622473
0
LINE
8
boundary
62
5
39
2
10
325.734497
20
229.622473
11
368.659808
21
229.622473
0
LINE
8
boundary
62
5
39
2
10
368.659808
20
229.622473
11
368.659809
21
225.571473
0
LINE
8
boundary
62
5
39
2
10
368.659809
20
225.571473
11
302.452850
21
225.571473
0
LINE
8
boundary
62
5
39
2
10
302.452850
20
225.571473
11
297.997536
21
225.131373
0
LINE
8
boundary
62
5
39
2
10
297.997536
20
225.131373
11
290.855747
21
223.891624
0
LINE
8
boundary
62
5
39
2
10
290.855747
20
223.891624
11
289.285558
21
223.656516
0
LINE
8
boundary
62
5
39
2
10
289.285558
20
223.656516
11
280.859619
21
223.053855
0
LINE
8
boundary
62
5
39
2
10
280.859619
20
223.053855
11
280.011607
21
222.915380
0
LINE
8
boundary
62
5
39
2
10
280.011607
20
222.915380
11
274.367036
21
221.656166
0
LINE
8
boundary
62
5
39
2
10
274.367036
20
221.656166
11
270.176350
21
220.669742
0
LINE
8
boundary
62
5
39
2
10
270.176350
20
220.669742
11
269.496585
21
220.492921
0
LINE
8
boundary
62
5
39
2
10
269.496585
20
220.492921
11
261.386042
21
217.458581
0
LINE
8
boundary
62
5
39
2
10
261.386042
20
217.458581
11
258.273048
21
216.572531
0
LINE
8
boundary
62
5
39
2
10
258.273048
20
216.572531
11
249.720782
21
214.389434
0
LINE
8
boundary
62
5
39
2
10
249.720782
20
214.389434
11
243.456562
21
211.872900
0
LINE
8
boundary
62
5
39
2
10
243.456562
20
211.872900
11
227.443619
21
205.640676
0
LINE
8
boundary
62
5
39
2
10
227.443619
20
205.640676
11
225.403802
21
204.989916
0
LINE
8
boundary
62
5
39
2
10
225.403802
20
204.989916
11
224.144698
21
204.634341
0
LINE
8
boundary
62
5
39
2
10
224.144698
20
204.634341
11
216.872436
21
198.786063
0
LINE
8
boundary
62
5
39
2
10
216.872436
20
198.786063
11
221.327750
21
198.345963
0
LINE
8
boundary
62
5
39
2
10
221.327750
20
198.345963
11
315.671967
21
198.345963
0
LINE
8
boundary
62
5
39
2
10
315.671967
20
198.345963
11
315.671966
21
194.294963
0
LINE
8
boundary
62
5
39
2
10
315.671966
20
194.294963
11
215.036315
21
194.294963
0
LINE
8
boundary
62
5
39
2
10
215.036315
20
194.294963
11
210.581000
21
193.854863
0
LINE
8
annotation
62
1
39
211
10
239.666267
20
25.970218
11
241.186393
21
32.808000
0
LINE
8
annotation
62
1
39
211
10
241.186393
20
32.808000
11
238.145712
21
32.808000
0
LINE
8
annotation
62
1
39
211
10
241.186393
20
29.763030
11
239.666267
21
29.763030
0
LINE
8
annotation
62
1
39
211
10
290.639646
20
81.018294
11
290.639646
21
81.018294
0
LINE
8
annotation
62
1
39
211
10
290.639646
20
81.018294
11
290.664892
21
80.737140
0
LINE
8
annotation
62
1
39
211
10
290.664892
20
80.737140
11
290.737658
21
80.472715
0
LINE
8
annotation
62
1
39
211
10
290.737658
20
80.472715
11
290.853490
21
80.229385
0
LINE
8
annotation
62
1
39
211
10
290.853490
20
80.229385
11
291.007931
21
80.011514
0
LINE
8
annotation
62
1
39
211
10
291.007931
20
80.011514
11
291.196525
21
79.823468
0
LINE
8
annotation
62
1
39
211
10
291.196525
20
79.823468
11
291.414817
21
79.669612
0
LINE
8
annotation
62
1
39
211
10
291.414817
20
79.669612
11
291.658350
21
79.554310
0
LINE
8
annotation
62
1
39
211
10
291.658350
20
79.554310
11
291.922669
21
79.481928
0
LINE
8
annotation
62
1
39
211
10
291.922669
20
79.481928
11
292.203317
21
79.456831
0
LINE
8
annotation
62
1
39
211
10
292.203317
20
79.456831
11
292.203317
21
79.456831
0
LINE
8
annotation
62
1
39
211
10
292.203317
20
79.456831
11
292.483966
21
79.481928
0
LINE
8
annotation
62
1
39
211
10
292.483966
20
79.481928
11
292.748285
21
79.554310
0
LINE
8
annotation
62
1
39
211
10
292.748285
20
79.554310
11
292.991818
21
79.669612
0
LINE
8
annotation
62
1
39
211
10
292.991818
20
79.669612
11
293.210110
21
79.823468
0
LINE
8
annotation
62
1
39
211
10
293.210110
20
79.823468
11
293.398704
21
80.011514
0
LINE
8
annotation
62
1
39
211
10
293.398704
20
80.011514
11
293.553145
21
80.229385
0
LINE
8
annotation
62
1
39
211
10
293.553145
20
80.229385
11
293.668977
21
80.472715
0
LINE
8
annotation
62
1
39
211
10
293.668977
20
80.472715
11
293.741743
21
80.737140
0
LINE
8
annotation
62
1
39
211
10
293.741743
20
80.737140
11
293.766989
21
81.018294
0
LINE
8
annotation
62
1
39
211
10
293.766989
20
81.018294
11
293.766989
21
81.797260
0
LINE
8
annotation
62
1
39
211
10
293.766989
20
81.797260
11
293.766989
21
81.797260
0
LINE
8
annotation
62
1
39
211
10
293.766989
20
81.797260
11
293.741758
21
82.078550
0
LINE
8
annotation
62
1
39
211
10
293.741758
20
82.078550
11
293.669027
21
82.343340
0
LINE
8
annotation
62
1
39
211
10
293.669027
20
82.343340
11
293.553243
21
82.587199
0
LINE
8
annotation
62
1
39
211
10
293.553243
20
82.587199
11
293.398849
21
82.805697
0
LINE
8
annotation
62
1
39
211
10
293.398849
20
82.805697
11
293.210291
21
82.994403
0
LINE
8
annotation
62
1
39
211
10
293.210291
20
82.994403
11
292.992014
21
83.148886
0
LINE
8
annotation
62
1
39
211
10
292.992014
20
83.148886
11
292.748463
21
83.264717
0
LINE
8
annotation
62
1
39
211
10
292.748463
20
83.264717
11
292.484082
21
83.337464
0
LINE
8
annotation
62
1
39
211
10
292.484082
20
83.337464
11
292.203317
21
83.362698
0
LINE
8
annotation
62
1
39
211
10
292.203317
20
83.362698
11
292.203317
21
83.362698
0
LINE
8
annotation
62
1
39
211
10
292.203317
20
83.362698
11
291.922553
21
83.337449
0
LINE
8
annotation
62
1
39
211
10
291.922553
20
83.337449
11
291.658172
21
83.264666
0
LINE
8
annotation
62
1
39
211
10
291.658172
20
83.264666
11
291.414621
21
83.148788
0
LINE
8
annotation
62
1
39
211
10
291.414621
20
83.148788
11
291.196344
21
82.994257
0
LINE
8
annotation
62
1
39
211
10
291.196344
20
82.994257
11
291.007786
21
82.805515
0
LINE
8
annotation
62
1
39
211
10
291.007786
20
82.805515
11
290.853392
21
82.587003
0
LINE
8
annotation
62
1
39
211
10
290.853392
20
82.587003
11
290.737608
21
82.343162
0
LINE
8
annotation
62
1
39
211
10
290.737608
20
82.343162
11
290.664877
21
82.078434
0
LINE
8
annotation
62
1
39
211
10
290.664877
20
82.078434
11
290.639646
21
81.797260
0
LINE
8
annotation
62
1
39
211
10
290.639646
20
81.797260
11
290.639646
21
81.018294
0
LINE
8
annotation
62
1
39
211
10
293.766989
20
84.928577
11
293.766989
21
84.928577
0
LINE
8
annotation
62
1
39
211
10
293.766989
20
84.928577
11
293.741758
21
85.208568
0
LINE
8
annotation
62
1
39
211
10
293.741758
20
85.208568
11
293.669027
21
85.472375
0
LINE
8
annotation
62
1
39
211
10
293.669027
20
85.472375
11
293.553243
21
85.715524
0
LINE
8
annotation
62
1
39
211
10
293.553243
20
85.715524
11
293.398849
21
85.933540
0
LINE
8
annotation
62
1
39
211
10
293.398849
20
85.933540
11
293.210291
21
86.121949
0
LINE
8
annotation
62
1
39
211
10
293.210291
20
86.121949
11
292.992014
21
86.276278
0
LINE
8
annotation
62
1
39
211
10
292.992014
20
86.276278
11
292.748463
21
86.392052
0
LINE
8
annotation
62
1
39
211
10
292.748463
20
86.392052
11
292.484082
21
86.464798
0
LINE
8
annotation
62
1
39
211
10
292.484082
20
86.464798
11
292.203317
21
86.490040
0
LINE
8
annotation
62
1
39
211
10
292.203317
20
86.490040
11
292.203317
21
86.490040
0
LINE
8
annotation
62
1
39
211
10
292.203317
20
86.490040
11
291.922553
21
86.464798
0
LINE
8
annotation
62
1
39
211
10
291.922553
20
86.464798
11
291.658172
21
86.392052
0
LINE
8
annotation
62
1
39
211
10
291.658172
20
86.392052
11
291.414621
21
86.276278
0
LINE
8
annotation
62
1
39
211
10
291.414621
20
86.276278
11
291.196344
21
86.121949
0
LINE
8
annotation
62
1
39
211
10
291.196344
20
86.121949
11
291.007786
21
85.933540
0
LINE
8
annotation
62
1
39
211
10
291.007786
20
85.933540
11
290.853392
21
85.715524
0
LINE
8
annotation
62
1
39
211
10
290.853392
20
85.715524
11
290.737608
21
85.472375
0
LINE
8
annotation
62
1
39
211
10
290.737608
20
85.472375
11
290.664877
21
85.208568
0
LINE
8
annotation
62
1
39
211
10
290.664877
20
85.208568
11
290.639646
21
84.928577
0
LINE
8
annotation
62
1
39
211
10
290.639646
20
84.928577
11
290.639646
21
84.928577
0
LINE
8
annotation
62
1
39
211
10
290.639646
20
84.928577
11
290.664892
21
84.647271
0
LINE
8
annotation
62
1
39
211
10
290.664892
20
84.647271
11
290.737658
21
84.382441
0
LINE
8
annotation
62
1
39
211
10
290.737658
20
84.382441
11
290.853490
21
84.138523
0
LINE
8
annotation
62
1
39
211
10
290.853490
20
84.138523
11
291.007931
21
83.919955
0
LINE
8
annotation
62
1
39
211
10
291.007931
20
83.919955
11
291.196525
21
83.731177
0
LINE
8
annotation
62
1
39
211
10
291.196525
20
83.731177
11
291.414817
21
83.576624
0
LINE
8
annotation
62
1
39
211
10
291.414817
20
83.576624
11
291.658350
21
83.460734
0
LINE
8
annotation
62
1
39
211
10
291.658350
20
83.460734
11
291.922669
21
83.387946
0
LINE
8
annotation
62
1
39
211
10
291.922669
20
83.387946
11
292.203317
21
83.362698
0
LINE
8
annotation
62
1
39
211
10
292.203317
20
83.362698
11
292.203317
21
83.362698
0
LINE
8
annotation
62
1
39
211
10
292.203317
20
83.362698
11
292.483966
21
83.387946
0
LINE
8
annotation
62
1
39
211
10
292.483966
20
83.387946
11
292.748285
21
83.460734
0
LINE
8
annotation
62
1
39
211
10
292.748285
20
83.460734
11
292.991818
21
83.576624
0
LINE
8
annotation
62
1
39
211
10
292.991818
20
83.576624
11
293.210110
21
83.731177
0
LINE
8
annotation
62
1
39
211
10
293.210110
20
83.731177
11
293.398704
21
83.919955
0
LINE
8
annotation
62
1
39
211
10
293.398704
20
83.919955
11
293.553145
21
84.138523
0
LINE
8
annotation
62
1
39
211
10
293.553145
20
84.138523
11
293.668977
21
84.382441
0
LINE
8
annotation
62
1
39
211
10
293.668977
20
84.382441
11
293.741743
21
84.647271
0
LINE
8
annotation
62
1
39
211
10
293.741743
20
84.647271
11
293.766989
21
84.928577
0
LINE
8
annotation
62
1
39
211
10
313.046432
20
139.426813
11
313.046432
21
139.426813
0
LINE
8
annotation
62
1
39
211
10
313.046432
20
139.426813
11
313.493596
21
139.593449
0
LINE
8
annotation
62
1
39
211
10
313.493596
20
139.593449
11
313.904037
21
139.818686
0
LINE
8
annotation
62
1
39
211
10
313.904037
20
139.818686
11
314.273514
21
140.096788
0
LINE
8
annotation
62
1
39
211
10
314.273514
20
140.096788
11
314.597784
21
140.422014
0
LINE
8
annotation
62
1
39
211
10
314.597784
20
140.422014
11
314.872608
21
140.788626
0
LINE
8
annotation
62
1
39
211
10
314.872608
20
140.788626
11
315.093743
21
141.190885
0
LINE
8
annotation
62
1
39
211
10
315.093743
20
141.190885
11
315.256948
21
141.623053
0
LINE
8
annotation
62
1
39
211
10
315.256948
20
141.623053
11
315.357981
21
142.079389
0
LINE
8
annotation
62
1
39
211
10
315.357981
20
142.079389
11
315.392602
21
142.554156
0
LINE
8
annotation
62
1
39
211
10
315.392602
20
142.554156
11
315.392602
21
144.902534
0
LINE
8
annotation
62
1
39
211
10
315.392602
20
144.902534
11
315.392602
21
144.902534
0
LINE
8
annotation
62
1
39
211
10
315.392602
20
144.902534
11
315.367429
21
145.183840
0
LINE
8
annotation
62
1
39
211
10
315.367429
20
145.183840
11
315.294844
21
145.448670
0
LINE
8
annotation
62
1
39
211
10
315.294844
20
145.448670
11
315.179248
21
145.692588
0
LINE
8
annotation
62
1
39
211
10
315.179248
20
145.692588
11
315.025043
21
145.911155
0
LINE
8
annotation
62
1
39
211
10
315.025043
20
145.911155
11
314.836631
21
146.099934
0
LINE
8
annotation
62
1
39
211
10
314.836631
20
146.099934
11
314.618412
21
146.254487
0
LINE
8
annotation
62
1
39
211
10
314.618412
20
146.254487
11
314.374788
21
146.370377
0
LINE
8
annotation
62
1
39
211
10
314.374788
20
146.370377
11
314.110160
21
146.443165
0
LINE
8
annotation
62
1
39
211
10
314.110160
20
146.443165
11
313.828930
21
146.468413
0
LINE
8
annotation
62
1
39
211
10
313.828930
20
146.468413
11
313.828930
21
146.468413
0
LINE
8
annotation
62
1
39
211
10
313.828930
20
146.468413
11
313.548282
21
146.443165
0
LINE
8
annotation
62
1
39
211
10
313.548282
20
146.443165
11
313.283963
21
146.370377
0
LINE
8
annotation
62
1
39
211
10
313.283963
20
146.370377
11
313.040430
21
146.254487
0
LINE
8
annotation
62
1
39
211
10
313.040430
20
146.254487
11
312.822138
21
146.099934
0
LINE
8
annotation
62
1
39
211
10
312.822138
20
146.099934
11
312.633544
21
145.911155
0
LINE
8
annotation
62
1
39
211
10
312.633544
20
145.911155
11
312.479103
21
145.692588
0
LINE
8
annotation
62
1
39
211
10
312.479103
20
145.692588
11
312.363271
21
145.448670
0
LINE
8
annotation
62
1
39
211
10
312.363271
20
145.448670
11
312.290504
21
145.183840
0
LINE
8
annotation
62
1
39
211
10
312.290504
20
145.183840
11
312.265259
21
144.902534
0
LINE
8
annotation
62
1
39
211
10
312.265259
20
144.902534
11
312.265259
21
144.119594
0
LINE
8
annotation
62
1
39
211
10
312.265259
20
144.119594
11
312.265259
21
144.119594
0
LINE
8
annotation
62
1
39
211
10
312.265259
20
144.119594
11
312.290504
21
143.838304
0
LINE
8
annotation
62
1
39
211
10
312.290504
20
143.838304
11
312.363271
21
143.573514
0
LINE
8
annotation
62
1
39
211
10
312.363271
20
143.573514
11
312.479103
21
143.329655
0
LINE
8
annotation
62
1
39
211
10
312.479103
20
143.329655
11
312.633544
21
143.111157
0
LINE
8
annotation
62
1
39
211
10
312.633544
20
143.111157
11
312.822138
21
142.922451
0
LINE
8
annotation
62
1
39
211
10
312.822138
20
142.922451
11
313.040430
21
142.767968
0
LINE
8
annotation
62
1
39
211
10
313.040430
20
142.767968
11
313.283963
21
142.652137
0
LINE
8
annotation
62
1
39
211
10
313.283963
20
142.652137
11
313.548282
21
142.579390
0
LINE
8
annotation
62
1
39
211
10
313.548282
20
142.579390
11
313.828930
21
142.554156
0
LINE
8
annotation
62
1
39
211
10
313.828930
20
142.554156
11
315.392602
21
142.554156
0
LINE
8
annotation
62
1
39
211
10
312.069855
20
138.546613
11
315.590655
21
138.546613
0
LINE
8
annotation
62
1
39
211
10
322.633520
20
192.933366
11
322.633520
21
199.707560
0
LINE
8
annotation
62
1
39
211
10
322.633520
20
199.707560
11
321.127529
21
198.201145
0
LINE
8
annotation
62
1
39
211
10
326.261746
20
193.022720
11
326.261746
21
193.022720
0
LINE
8
annotation
62
1
39
211
10
326.261746
20
193.022720
11
326.419187
21
192.963864
0
LINE
8
annotation
62
1
39
211
10
326.419187
20
192.963864
11
326.580656
21
192.934624
0
LINE
8
annotation
62
1
39
211
10
326.580656
20
192.934624
11
326.742502
21
192.933806
0
LINE
8
annotation
62
1
39
211
10
326.742502
20
192.933806
11
326.901076
21
192.960219
0
LINE
8
annotation
62
1
39
211
10
326.901076
20
192.960219
11
327.052726
21
193.012670
0
LINE
8
annotation
62
1
39
211
10
327.052726
20
193.012670
11
327.193803
21
193.089967
0
LINE
8
annotation
62
1
39
211
10
327.193803
20
193.089967
11
327.320657
21
193.190918
0
LINE
8
annotation
62
1
39
211
10
327.320657
20
193.190918
11
327.429637
21
193.314330
0
LINE
8
annotation
62
1
39
211
10
327.429637
20
193.314330
11
327.517092
21
193.459011
0
LINE
8
annotation
62
1
39
211
10
327.517092
20
193.459011
11
327.517092
21
193.459011
0
LINE
8
annotation
62
1
39
211
10
327.517092
20
193.459011
11
327.778027
21
194.069792
0
LINE
8
annotation
62
1
39
211
10
327.778027
20
194.069792
11
327.973727
21
194.698251
0
LINE
8
annotation
62
1
39
211
10
327.973727
20
194.698251
11
328.104195
21
195.339378
0
LINE
8
annotation
62
1
39
211
10
328.104195
20
195.339378
11
328.169428
21
195.988163
0
LINE
8
annotation
62
1
39
211
10
328.169428
20
195.988163
11
328.169428
21
196.639594
0
LINE
8
annotation
62
1
39
211
10
328.169428
20
196.639594
11
328.104195
21
197.288661
0
LINE
8
annotation
62
1
39
211
10
328.104195
20
197.288661
11
327.973727
21
197.930355
0
LINE
8
annotation
62
1
39
211
10
327.973727
20
197.930355
11
327.778027
21
198.559664
0
LINE
8
annotation
62
1
39
211
10
327.778027
20
198.559664
11
327.517092
21
199.171578
0
LINE
8
annotation
62
1
39
211
10
327.517092
20
199.171578
11
327.517092
21
199.171578
0
LINE
8
annotation
62
1
39
211
10
327.517092
20
199.171578
11
327.483909
21
199.233333
0
LINE
8
annotation
62
1
39
211
10
327.483909
20
199.233333
11
327.446289
21
199.292375
0
LINE
8
annotation
62
1
39
211
10
327.446289
20
199.292375
11
327.404515
21
199.348414
0
LINE
8
annotation
62
1
39
211
10
327.404515
20
199.348414
11
327.358870
21
199.401158
0
LINE
8
annotation
62
1
39
211
10
327.358870
20
199.401158
11
327.309638
21
199.450319
0
LINE
8
annotation
62
1
39
211
10
327.309638
20
199.450319
11
327.257102
21
199.495606
0
LINE
8
annotation
62
1
39
211
10
327.257102
20
199.495606
11
327.201545
21
199.536729
0
LINE
8
annotation
62
1
39
211
10
327.201545
20
199.536729
11
327.143250
21
199.573397
0
LINE
8
annotation
62
1
39
211
10
327.143250
20
199.573397
11
327.082500
21
199.605320
0
LINE
8
annotation
62
1
39
211
10
327.082500
20
199.605320
11
327.082500
21
199.605320
0
LINE
8
annotation
62
1
39
211
10
327.082500
20
199.605320
11
326.923810
21
199.665451
0
LINE
8
annotation
62
1
39
211
10
326.923810
20
199.665451
11
326.761395
21
199.695691
0
LINE
8
annotation
62
1
39
211
10
326.761395
20
199.695691
11
326.598865
21
199.697239
0
LINE
8
annotation
62
1
39
211
10
326.598865
20
199.697239
11
326.439828
21
199.671294
0
LINE
8
annotation
62
1
39
211
10
326.439828
20
199.671294
11
326.287893
21
199.619056
0
LINE
8
annotation
62
1
39
211
10
326.287893
20
199.619056
11
326.146667
21
199.541723
0
LINE
8
annotation
62
1
39
211
10
326.146667
20
199.541723
11
326.019759
21
199.440496
0
LINE
8
annotation
62
1
39
211
10
326.019759
20
199.440496
11
325.910778
21
199.316573
0
LINE
8
annotation
62
1
39
211
10
325.910778
20
199.316573
11
325.823331
21
199.171153
0
LINE
8
annotation
62
1
39
211
10
325.823331
20
199.171153
11
325.823331
21
199.171153
0
LINE
8
annotation
62
1
39
211
10
325.823331
20
199.171153
11
325.563655
21
198.560498
0
LINE
8
annotation
62
1
39
211
10
325.563655
20
198.560498
11
325.368898
21
197.932133
0
LINE
8
annotation
62
1
39
211
10
325.368898
20
197.932133
11
325.239061
21
197.291069
0
LINE
8
annotation
62
1
39
211
10
325.239061
20
197.291069
11
325.174142
21
196.642316
0
LINE
8
annotation
62
1
39
211
10
325.174142
20
196.642316
11
325.174142
21
195.990885
0
LINE
8
annotation
62
1
39
211
10
325.174142
20
195.990885
11
325.239061
21
195.341786
0
LINE
8
annotation
62
1
39
211
10
325.239061
20
195.341786
11
325.368898
21
194.700029
0
LINE
8
annotation
62
1
39
211
10
325.368898
20
194.700029
11
325.563655
21
194.070626
0
LINE
8
annotation
62
1
39
211
10
325.563655
20
194.070626
11
325.823331
21
193.458586
0
LINE
8
annotation
62
1
39
211
10
325.823331
20
193.458586
11
325.823331
21
193.458586
0
LINE
8
annotation
62
1
39
211
10
325.823331
20
193.458586
11
325.856394
21
193.396954
0
LINE
8
annotation
62
1
39
211
10
325.856394
20
193.396954
11
325.893736
21
193.338206
0
LINE
8
annotation
62
1
39
211
10
325.893736
20
193.338206
11
325.935201
21
193.282521
0
LINE
8
annotation
62
1
39
211
10
325.935201
20
193.282521
11
325.980630
21
193.230078
0
LINE
8
annotation
62
1
39
211
10
325.980630
20
193.230078
11
326.029867
21
193.181054
0
LINE
8
annotation
62
1
39
211
10
326.029867
20
193.181054
11
326.082755
21
193.135628
0
LINE
8
annotation
62
1
39
211
10
326.082755
20
193.135628
11
326.139136
21
193.093978
0
LINE
8
annotation
62
1
39
211
10
326.139136
20
193.093978
11
326.198852
21
193.056282
0
LINE
8
annotation
62
1
39
211
10
326.198852
20
193.056282
11
326.261746
21
193.022720
0
LINE
8
annotation
62
1
39
211
10
376.315846
20
224.076173
11
376.315846
21
231.117773
0
LINE
8
annotation
62
1
39
211
10
376.315846
20
231.117773
11
374.750408
21
229.551894
0
LINE
8
annotation
62
1
39
211
10
380.521884
20
224.076173
11
380.521884
21
231.117773
0
LINE
8
annotation
62
1
39
211
10
380.521884
20
231.117773
11
378.956446
21
229.551894
0
LINE
8
annotation
62
1
39
211
10
404.502388
20
242.583884
11
404.502388
21
249.344333
0
LINE
8
annotation
62
1
39
211
10
404.502388
20
249.344333
11
402.999454
21
247.840975
0
LINE
8
annotation
62
1
39
211
10
410.040331
20
242.583829
11
407.037855
21
242.583829
0
LINE
8
annotation
62
1
39
211
10
407.037855
20
242.583829
11
409.812242
21
247.050236
0
LINE
8
annotation
62
1
39
211
10
409.812242
20
247.050236
11
409.812242
21
247.050236
0
LINE
8
annotation
62
1
39
211
10
409.812242
20
247.050236
11
409.815558
21
247.054340
0
LINE
8
annotation
62
1
39
211
10
409.815558
20
247.054340
11
409.818739
21
247.058479
0
LINE
8
annotation
62
1
39
211
10
409.818739
20
247.058479
11
409.821804
21
247.062688
0
LINE
8
annotation
62
1
39
211
10
409.821804
20
247.062688
11
409.824775
21
247.067002
0
LINE
8
annotation
62
1
39
211
10
409.824775
20
247.067002
11
409.827673
21
247.071455
0
LINE
8
annotation
62
1
39
211
10
409.827673
20
247.071455
11
409.830519
21
247.076082
0
LINE
8
annotation
62
1
39
211
10
409.830519
20
247.076082
11
409.833333
21
247.080919
0
LINE
8
annotation
62
1
39
211
10
409.833333
20
247.080919
11
409.836137
21
247.086000
0
LINE
8
annotation
62
1
39
211
10
409.836137
20
247.086000
11
409.838951
21
247.091360
0
LINE
8
annotation
62
1
39
211
10
409.838951
20
247.091360
11
409.838951
21
247.091360
0
LINE
8
annotation
62
1
39
211
10
409.838951
20
247.091360
11
409.953505
21
247.337317
0
LINE
8
annotation
62
1
39
211
10
409.953505
20
247.337317
11
410.020425
21
247.592273
0
LINE
8
annotation
62
1
39
211
10
410.020425
20
247.592273
11
410.041352
21
247.850467
0
LINE
8
annotation
62
1
39
211
10
410.041352
20
247.850467
11
410.017926
21
248.106138
0
LINE
8
annotation
62
1
39
211
10
410.017926
20
248.106138
11
409.951786
21
248.353525
0
LINE
8
annotation
62
1
39
211
10
409.951786
20
248.353525
11
409.844572
21
248.586867
0
LINE
8
annotation
62
1
39
211
10
409.844572
20
248.586867
11
409.697926
21
248.800404
0
LINE
8
annotation
62
1
39
211
10
409.697926
20
248.800404
11
409.513485
21
248.988375
0
LINE
8
annotation
62
1
39
211
10
409.513485
20
248.988375
11
409.292892
21
249.145017
0
LINE
8
annotation
62
1
39
211
10
409.292892
20
249.145017
11
409.292892
21
249.145017
0
LINE
8
annotation
62
1
39
211
10
409.292892
20
249.145017
11
409.046251
21
249.257943
0
LINE
8
annotation
62
1
39
211
10
409.046251
20
249.257943
11
408.790905
21
249.323832
0
LINE
8
annotation
62
1
39
211
10
408.790905
20
249.323832
11
408.532561
21
249.344168
0
LINE
8
annotation
62
1
39
211
10
408.532561
20
249.344168
11
408.276928
21
249.320433
0
LINE
8
annotation
62
1
39
211
10
408.276928
20
249.320433
11
408.029715
21
249.254110
0
LINE
8
annotation
62
1
39
211
10
408.029715
20
249.254110
11
407.796631
21
249.146682
0
LINE
8
annotation
62
1
39
211
10
407.796631
20
249.146682
11
407.583384
21
248.999632
0
LINE
8
annotation
62
1
39
211
10
407.583384
20
248.999632
11
407.395682
21
248.814443
0
LINE
8
annotation
62
1
39
211
10
407.395682
20
248.814443
11
407.239235
21
248.592599
0
LINE
8
annotation
62
1
39
211
10
407.239235
20
248.592599
11
407.042094
21
248.214427
0
LINE
8
annotation
62
1
39
211
10
343.109764
20
177.368701
11
336.435679
21
167.715248
0
LINE
8
annotation
62
1
39
211
10
336.435679
20
167.715248
11
329.760339
21
177.368701
0
LINE
8
annotation
62
1
39
211
10
336.435679
20
168.492092
11
336.435679
21
157.355231
0
LINE
8
annotation
62
1
39
211
10
361.559192
20
167.361966
11
350.616855
21
167.361966
0
LINE
8
annotation
62
1
39
211
10
373.511489
20
157.355858
11
377.960461
21
177.368074
0
LINE
8
annotation
62
1
39
211
10
377.960461
20
177.368074
11
369.061262
21
177.368074
0
LINE
8
annotation
62
1
39
211
10
377.960461
20
168.456325
11
373.511489
21
168.456325
0
LINE
8
frame
62
5
39
2
10
0.000000
20
0.000000
11
480.000000
21
0.000000
0
LINE
8
frame
62
5
39
2
10
480.000000
20
0.000000
11
480.000000
21
420.000000
0
LINE
8
frame
62
5
39
2
10
480.000000
20
420.000000
11
0.000000
21
420.000000
0
LINE
8
frame
62
5
39
2
10
0.000000
20
420.000000
11
0.000000
21
0.000000
0
ENDSEC
0
EOF
