0
SECTION
2
HEADER
9
$ACADVER
1
AC1009
0
ENDSEC
0
SECTION
2
TABLES
0
TABLE
2
VPORT
70
1
0
VPORT
2
ACTIVE
70
0
10
0.0
20
0.0
11
0.0
21
0.0
12
0.0
22
0.0
13
0.0
23
0.0
14
0.0
24
0.0
15
0.0
25
0.0
16
0.0
26
0.0
36
0.0
17
0.0
27
0.0
37
0.0
40
0.0
41
0.0
42
0.0
43
0.0
44
0.0
50
0.0
51
0.0
71
0
72
1000
73
1
74
3
75
0
76
0
77
0
78
0
0
ENDTAB
0
ENDSEC
0
SECTION
2
ENTITIES
0
LINE
8
boundary
62
5
39
2
10
60.281368
20
10.080047
11
76.226235
21
6.932241
0
LINE
8
boundary
62
5
39
2
10
76.226235
20
6.932241
11
77.782305
21
6.687500
0
LINE
8
boundary
62
5
39
2
10
77.782305
20
6.687500
11
92.164121
21
7.796230
0
LINE
8
boundary
62
5
39
2
10
92.164121
20
7.796230
11
94.259987
21
7.979606
0
LINE
8
boundary
62
5
39
2
10
94.259987
20
7.979606
11
103.790287
21
17.183242
0
LINE
8
boundary
62
5
39
2
10
103.790287
20
17.183242
11
109.303289
21
20.414620
0
LINE
8
boundary
62
5
39
2
10
109.303289
20
20.414620
11
114.224907
21
27.633843
0
LINE
8
boundary
62
5
39
2
10
114.224907
20
27.633843
11
120.365185
21
34.022103
0
LINE
8
boundary
62
5
39
2
10
120.365185
20
34.022103
11
120.024941
21
38.486153
0
LINE
8
boundary
62
5
39
2
10
120.024941
20
38.486153
11
105.391292
21
121.477705
0
LINE
8
boundary
62
5
39
2
10
105.391292
20
121.477705
11
109.380748
21
122.181154
0
LINE
8
boundary
62
5
39
2
10
109.380748
20
122.181154
11
123.536143
21
41.901920
0
LINE
8
boundary
62
5
39
2
10
123.536143
20
41.901920
11
124.743214
21
37.590715
0
LINE
8
boundary
62
5
39
2
10
124.743214
20
37.590715
11
125.642994
21
38.273669
0
LINE
8
boundary
62
5
39
2
10
125.642994
20
38.273669
11
139.653116
21
41.646599
0
LINE
8
boundary
62
5
39
2
10
139.653116
20
41.646599
11
144.417222
21
42.025789
0
LINE
8
boundary
62
5
39
2
10
144.417222
20
42.025789
11
156.702627
21
45.086717
0
LINE
8
boundary
62
5
39
2
10
156.702627
20
45.086717
11
161.995878
21
46.955193
0
LINE
8
boundary
62
5
39
2
10
161.995878
20
46.955193
11
174.534287
21
52.756377
0
LINE
8
boundary
62
5
39
2
10
174.534287
20
52.756377
11
185.590457
21
60.095469
0
LINE
8
boundary
62
5
39
2
10
185.590457
20
60.095469
11
183.794534
21
64.210808
0
LINE
8
boundary
62
5
39
2
10
183.794534
20
64.210808
11
142.377596
21
135.947049
0
LINE
8
boundary
62
5
39
2
10
142.377596
20
135.947049
11
145.885864
21
137.972550
0
LINE
8
boundary
62
5
39
2
10
145.885864
20
137.972550
11
187.040023
21
66.691455
0
LINE
8
boundary
62
5
39
2
10
187.040023
20
66.691455
11
189.648818
21
63.053090
0
LINE
8
boundary
62
5
39
2
10
189.648818
20
63.053090
11
190.578392
21
63.730538
0
LINE
8
boundary
62
5
39
2
10
190.578392
20
63.730538
11
198.411265
21
71.643370
0
LINE
8
boundary
62
5
39
2
10
198.411265
20
71.643370
11
203.577379
21
77.865335
0
LINE
8
boundary
62
5
39
2
10
203.577379
20
77.865335
11
210.532413
21
85.518595
0
LINE
8
boundary
62
5
39
2
10
210.532413
20
85.518595
11
221.616991
21
88.580623
0
LINE
8
boundary
62
5
39
2
10
221.616991
20
88.580623
11
224.067532
21
89.402857
0
LINE
8
boundary
62
5
39
2
10
224.067532
20
89.402857
11
226.368877
21
89.014630
0
LINE
8
boundary
62
5
39
2
10
226.368877
20
89.014630
11
233.773147
21
88.252554
0
LINE
8
boundary
62
5
39
2
10
233.773147
20
88.252554
11
241.470238
21
83.949714
0
LINE
8
boundary
62
5
39
2
10
241.470238
20
83.949714
11
248.302615
21
77.112789
0
LINE
8
boundary
62
5
39
2
10
248.302615
20
77.112789
11
251.000177
21
75.102520
0
LINE
8
boundary
62
5
39
2
10
251.000177
20
75.102520
11
253.229998
21
73.529728
0
LINE
8
boundary
62
5
39
2
10
253.229998
20
73.529728
11
261.136984
21
66.006522
0
LINE
8
boundary
62
5
39
2
10
261.136984
20
66.006522
11
262.033573
21
65.037531
0
LINE
8
boundary
62
5
39
2
10
262.033573
20
65.037531
11
268.263481
21
59.432159
0
LINE
8
boundary
62
5
39
2
10
268.263481
20
59.432159
11
271.427460
21
58.029751
0
LINE
8
boundary
62
5
39
2
10
271.427460
20
58.029751
11
273.355721
21
58.306755
0
LINE
8
boundary
62
5
39
2
10
273.355721
20
58.306755
11
283.071688
21
58.001259
0
LINE
8
boundary
62
5
39
2
10
283.071688
20
58.001259
11
291.070488
21
61.114081
0
LINE
8
boundary
62
5
39
2
10
291.070488
20
61.114081
11
287.940410
21
64.315038
0
LINE
8
boundary
62
5
39
2
10
287.940410
20
64.315038
11
199.197527
21
138.779158
0
LINE
8
boundary
62
5
39
2
10
199.197527
20
138.779158
11
201.801460
21
141.882404
0
LINE
8
boundary
62
5
39
2
10
201.801460
20
141.882404
11
289.477878
21
68.313154
0
LINE
8
boundary
62
5
39
2
10
289.477878
20
68.313154
11
293.173737
21
65.786469
0
LINE
8
boundary
62
5
39
2
10
293.173737
20
65.786469
11
295.607101
21
76.802930
0
LINE
8
boundary
62
5
39
2
10
295.607101
20
76.802930
11
296.833481
21
82.629877
0
LINE
8
boundary
62
5
39
2
10
296.833481
20
82.629877
11
296.614653
21
84.741472
0
LINE
8
boundary
62
5
39
2
10
296.614653
20
84.741472
11
296.141489
21
90.708097
0
LINE
8
boundary
62
5
39
2
10
296.141489
20
90.708097
11
294.726190
21
105.624494
0
LINE
8
boundary
62
5
39
2
10
294.726190
20
105.624494
11
293.459562
21
112.768358
0
LINE
8
boundary
62
5
39
2
10
293.459562
20
112.768358
11
290.538590
21
120.770298
0
LINE
8
boundary
62
5
39
2
10
290.538590
20
120.770298
11
289.688742
21
124.033423
0
LINE
8
boundary
62
5
39
2
10
289.688742
20
124.033423
11
286.385289
21
134.897957
0
LINE
8
boundary
62
5
39
2
10
286.385289
20
134.897957
11
283.387436
21
143.469278
0
LINE
8
boundary
62
5
39
2
10
283.387436
20
143.469278
11
280.854125
21
152.682306
0
LINE
8
boundary
62
5
39
2
10
280.854125
20
152.682306
11
274.995881
21
164.334950
0
LINE
8
boundary
62
5
39
2
10
274.995881
20
164.334950
11
270.959778
21
166.272316
0
LINE
8
boundary
62
5
39
2
10
270.959778
20
166.272316
11
195.629053
21
193.690458
0
LINE
8
boundary
62
5
39
2
10
195.629053
20
193.690458
11
197.014576
21
197.497153
0
LINE
8
boundary
62
5
39
2
10
197.014576
20
197.497153
11
267.415944
21
171.873150
0
LINE
8
boundary
62
5
39
2
10
267.415944
20
171.873150
11
271.753093
21
170.762902
0
LINE
8
boundary
62
5
39
2
10
271.753093
20
170.762902
11
263.659694
21
186.778882
0
LINE
8
boundary
62
5
39
2
10
263.659694
20
186.778882
11
262.434977
21
188.390701
0
LINE
8
boundary
62
5
39
2
10
262.434977
20
188.390701
11
246.780768
21
208.992139
0
LINE
8
boundary
62
5
39
2
10
246.780768
20
208.992139
11
245.093218
21
210.744321
0
LINE
8
boundary
62
5
39
2
10
245.093218
20
210.744321
11
235.793262
21
219.081451
0
LINE
8
boundary
62
5
39
2
10
235.793262
20
219.081451
11
226.852026
21
228.501036
0
LINE
8
boundary
62
5
39
2
10
226.852026
20
228.501036
11
219.376848
21
232.776778
0
LINE
8
boundary
62
5
39
2
10
219.376848
20
232.776778
11
214.921534
21
233.216878
0
LINE
8
boundary
62
5
39
2
10
214.921534
20
233.216878
11
177.628324
21
233.216878
0
LINE
8
boundary
62
5
39
2
10
177.628324
20
233.216878
11
177.628324
21
237.267878
0
LINE
8
boundary
62
5
39
2
10
177.628324
20
237.267878
11
206.053748
21
237.267877
0
LINE
8
boundary
62
5
39
2
10
206.053748
20
237.267877
11
210.509062
21
237.707978
0
LINE
8
boundary
62
5
39
2
10
210.509062
20
237.707978
11
209.929359
21
238.030339
0
LINE
8
boundary
62
5
39
2
10
209.929359
20
238.030339
11
200.917119
21
241.515039
0
LINE
8
boundary
62
5
39
2
10
200.917119
20
241.515039
11
196.010811
21
242.323584
0
LINE
8
boundary
62
5
39
2
10
196.010811
20
242.323584
11
191.194032
21
242.574565
0
LINE
8
boundary
62
5
39
2
10
191.194032
20
242.574565
11
185.791264
21
243.581752
0
LINE
8
boundary
62
5
39
2
10
185.791264
20
243.581752
11
181.484979
21
244.147268
0
LINE
8
boundary
62
5
39
2
10
181.484979
20
244.147268
11
175.396576
21
244.008308
0
LINE
8
boundary
62
5
39
2
10
175.396576
20
244.008308
11
166.391304
21
242.781194
0
LINE
8
boundary
62
5
39
2
10
166.391304
20
242.781194
11
158.931031
21
240.871105
0
LINE
8
boundary
62
5
39
2
10
158.931031
20
240.871105
11
155.178642
21
240.004412
0
LINE
8
boundary
62
5
39
2
10
155.178642
20
240.004412
11
154.443758
21
239.770957
0
LINE
8
boundary
62
5
39
2
10
154.443758
20
239.770957
11
145.114587
21
236.702539
0
LINE
8
boundary
62
5
39
2
10
145.114587
20
236.702539
11
143.664656
21
236.114999
0
LINE
8
boundary
62
5
39
2
10
143.664656
20
236.114999
11
136.199476
21
232.995020
0
LINE
8
boundary
62
5
39
2
10
136.199476
20
232.995020
11
134.030345
21
231.957144
0
LINE
8
boundary
62
5
39
2
10
134.030345
20
231.957144
11
127.538202
21
229.036525
0
LINE
8
boundary
62
5
39
2
10
127.538202
20
229.036525
11
124.792489
21
227.416620
0
LINE
8
boundary
62
5
39
2
10
124.792489
20
227.416620
11
118.909424
21
224.441214
0
LINE
8
boundary
62
5
39
2
10
118.909424
20
224.441214
11
115.444534
21
222.176751
0
LINE
8
boundary
62
5
39
2
10
115.444534
20
222.176751
11
110.378156
21
219.218665
0
LINE
8
boundary
62
5
39
2
10
110.378156
20
219.218665
11
105.955404
21
216.030690
0
LINE
8
boundary
62
5
39
2
10
105.955404
20
216.030690
11
101.040010
21
213.023761
0
LINE
8
boundary
62
5
39
2
10
101.040010
20
213.023761
11
95.531503
21
210.291267
0
LINE
8
boundary
62
5
39
2
10
95.531503
20
210.291267
11
90.791082
21
208.160121
0
LINE
8
boundary
62
5
39
2
10
90.791082
20
208.160121
11
84.409044
21
205.049255
0
LINE
8
boundary
62
5
39
2
10
84.409044
20
205.049255
11
81.213811
21
203.538848
0
LINE
8
boundary
62
5
39
2
10
81.213811
20
203.538848
11
73.942920
21
199.483467
0
LINE
8
boundary
62
5
39
2
10
73.942920
20
199.483467
11
72.119602
21
198.541653
0
LINE
8
boundary
62
5
39
2
10
72.119602
20
198.541653
11
63.662535
21
193.477366
0
LINE
8
boundary
62
5
39
2
10
63.662535
20
193.477366
11
62.362789
21
192.663764
0
LINE
8
boundary
62
5
39
2
10
62.362789
20
192.663764
11
54.286600
21
187.972891
0
LINE
8
boundary
62
5
39
2
10
54.286600
20
187.972891
11
51.962151
21
186.434050
0
LINE
8
boundary
62
5
39
2
10
51.962151
20
186.434050
11
44.404305
21
181.290182
0
LINE
8
boundary
62
5
39
2
10
44.404305
20
181.290182
11
36.719657
21
175.076478
0
LINE
8
boundary
62
5
39
2
10
36.719657
20
175.076478
11
33.124894
21
172.199370
0
LINE
8
boundary
62
5
39
2
10
33.124894
20
172.199370
11
29.386382
21
168.537798
0
LINE
8
boundary
62
5
39
2
10
29.386382
20
168.537798
11
18.766907
21
156.756874
0
LINE
8
boundary
62
5
39
2
10
18.766907
20
156.756874
11
15.710140
21
152.246481
0
LINE
8
boundary
62
5
39
2
10
15.710140
20
152.246481
11
13.861037
21
148.611974
0
LINE
8
boundary
62
5
39
2
10
13.861037
20
148.611974
11
8.472162
21
131.177114
0
LINE
8
boundary
62
5
39
2
10
8.472162
20
131.177114
11
6.961860
21
127.063193
0
LINE
8
boundary
62
5
39
2
10
6.961860
20
127.063193
11
6.687500
21
124.621208
0
LINE
8
boundary
62
5
39
2
10
6.687500
20
124.621208
11
7.087039
21
101.087788
0
LINE
8
boundary
62
5
39
2
10
7.087039
20
101.087788
11
9.695834
21
104.726153
0
LINE
8
boundary
62
5
39
2
10
9.695834
20
104.726153
11
33.582917
21
146.099795
0
LINE
8
boundary
62
5
39
2
10
33.582917
20
146.099795
11
37.091186
21
144.074295
0
LINE
8
boundary
62
5
39
2
10
37.091186
20
144.074295
11
9.297562
21
95.934327
0
LINE
8
boundary
62
5
39
2
10
9.297562
20
95.934327
11
7.451043
21
91.855862
0
LINE
8
boundary
62
5
39
2
10
7.451043
20
91.855862
11
8.095165
21
82.409961
0
LINE
8
boundary
62
5
39
2
10
8.095165
20
82.409961
11
15.585908
21
56.894186
0
LINE
8
boundary
62
5
39
2
10
15.585908
20
56.894186
11
16.494066
21
53.695934
0
LINE
8
boundary
62
5
39
2
10
16.494066
20
53.695934
11
17.319848
21
51.978930
0
LINE
8
boundary
62
5
39
2
10
17.319848
20
51.978930
11
28.589364
21
31.778738
0
LINE
8
boundary
62
5
39
2
10
28.589364
20
31.778738
11
40.409700
21
20.865131
0
LINE
8
boundary
62
5
39
2
10
40.409700
20
20.865131
11
44.131805
21
17.110358
0
LINE
8
boundary
62
5
39
2
10
44.131805
20
17.110358
11
46.260264
21
16.192762
0
LINE
8
boundary
62
5
39
2
10
46.260264
20
16.192762
11
47.467335
21
20.503968
0
LINE
8
boundary
62
5
39
2
10
47.467335
20
20.503968
11
63.212331
21
109.798278
0
LINE
8
boundary
62
5
39
2
10
63.212331
20
109.798278
11
67.201788
21
109.094830
0
LINE
8
boundary
62
5
39
2
10
67.201788
20
109.094830
11
51.254037
21
18.650640
0
LINE
8
boundary
62
5
39
2
10
51.254037
20
18.650640
11
50.913794
21
14.186590
0
LINE
8
boundary
62
5
39
2
10
50.913794
20
14.186590
11
58.623507
21
10.862873
0
LINE
8
boundary
62
5
39
2
10
58.623507
20
10.862873
11
60.281368
21
10.080047
0
LINE
8
annotation
62
1
39
211
10
169.433380
20
231.721578
11
169.433380
21
238.763178
0
LINE
8
annotation
62
1
39
211
10
169.433380
20
238.763178
11
167.867942
21
237.197298
0
LINE
8
annotation
62
1
39
211
10
37.906909
20
156.299597
11
43.762478
21
152.918883
0
LINE
8
annotation
62
1
39
211
10
43.762478
20
152.918883
11
43.211919
21
154.972439
0
LINE
8
annotation
62
1
39
211
10
36.639431
20
154.103836
11
35.888703
21
152.803537
0
LINE
8
annotation
62
1
39
211
10
35.888703
20
152.803537
11
35.888703
21
152.803537
0
LINE
8
annotation
62
1
39
211
10
35.888703
20
152.803537
11
35.774662
21
152.557563
0
LINE
8
annotation
62
1
39
211
10
35.774662
20
152.557563
11
35.708075
21
152.302599
0
LINE
8
annotation
62
1
39
211
10
35.708075
20
152.302599
11
35.687344
21
152.044448
0
LINE
8
annotation
62
1
39
211
10
35.687344
20
152.044448
11
35.710872
21
151.788913
0
LINE
8
annotation
62
1
39
211
10
35.710872
20
151.788913
11
35.777059
21
151.541796
0
LINE
8
annotation
62
1
39
211
10
35.777059
20
151.541796
11
35.884307
21
151.308900
0
LINE
8
annotation
62
1
39
211
10
35.884307
20
151.308900
11
36.031019
21
151.096029
0
LINE
8
annotation
62
1
39
211
10
36.031019
20
151.096029
11
36.215595
21
150.908985
0
LINE
8
annotation
62
1
39
211
10
36.215595
20
150.908985
11
36.436438
21
150.753570
0
LINE
8
annotation
62
1
39
211
10
36.436438
20
150.753570
11
37.087505
21
150.377676
0
LINE
8
annotation
62
1
39
211
10
37.087505
20
150.377676
11
37.087505
21
150.377676
0
LINE
8
annotation
62
1
39
211
10
37.087505
20
150.377676
11
37.332423
21
150.264184
0
LINE
8
annotation
62
1
39
211
10
37.332423
20
150.264184
11
37.586645
21
150.197888
0
LINE
8
annotation
62
1
39
211
10
37.586645
20
150.197888
11
37.844337
21
150.177276
0
LINE
8
annotation
62
1
39
211
10
37.844337
20
150.177276
11
38.099667
21
150.200837
0
LINE
8
annotation
62
1
39
211
10
38.099667
20
150.200837
11
38.346800
21
150.267058
0
LINE
8
annotation
62
1
39
211
10
38.346800
20
150.267058
11
38.579904
21
150.374428
0
LINE
8
annotation
62
1
39
211
10
38.579904
20
150.374428
11
38.793143
21
150.521434
0
LINE
8
annotation
62
1
39
211
10
38.793143
20
150.521434
11
38.980685
21
150.706564
0
LINE
8
annotation
62
1
39
211
10
38.980685
20
150.706564
11
39.136697
21
150.928307
0
LINE
8
annotation
62
1
39
211
10
39.136697
20
150.928307
11
39.512591
21
151.579375
0
LINE
8
annotation
62
1
39
211
10
39.512591
20
151.579375
11
39.136697
21
150.928307
0
LINE
8
annotation
62
1
39
211
10
39.136697
20
150.928307
11
39.136697
21
150.928307
0
LINE
8
annotation
62
1
39
211
10
39.136697
20
150.928307
11
39.022672
21
150.682323
0
LINE
8
annotation
62
1
39
211
10
39.022672
20
150.682323
11
38.956151
21
150.427321
0
LINE
8
annotation
62
1
39
211
10
38.956151
20
150.427321
11
38.935556
21
150.169092
0
LINE
8
annotation
62
1
39
211
10
38.935556
20
150.169092
11
38.959309
21
149.913427
0
LINE
8
annotation
62
1
39
211
10
38.959309
20
149.913427
11
39.025833
21
149.666115
0
LINE
8
annotation
62
1
39
211
10
39.025833
20
149.666115
11
39.133552
21
149.432948
0
LINE
8
annotation
62
1
39
211
10
39.133552
20
149.432948
11
39.280888
21
149.219716
0
LINE
8
annotation
62
1
39
211
10
39.280888
20
149.219716
11
39.466265
21
149.032210
0
LINE
8
annotation
62
1
39
211
10
39.466265
20
149.032210
11
39.688104
21
148.876220
0
LINE
8
annotation
62
1
39
211
10
39.688104
20
148.876220
11
39.688104
21
148.876220
0
LINE
8
annotation
62
1
39
211
10
39.688104
20
148.876220
11
39.933021
21
148.762728
0
LINE
8
annotation
62
1
39
211
10
39.933021
20
148.762728
11
40.187243
21
148.696432
0
LINE
8
annotation
62
1
39
211
10
40.187243
20
148.696432
11
40.444936
21
148.675820
0
LINE
8
annotation
62
1
39
211
10
40.444936
20
148.675820
11
40.700265
21
148.699381
0
LINE
8
annotation
62
1
39
211
10
40.700265
20
148.699381
11
40.947399
21
148.765602
0
LINE
8
annotation
62
1
39
211
10
40.947399
20
148.765602
11
41.180502
21
148.872972
0
LINE
8
annotation
62
1
39
211
10
41.180502
20
148.872972
11
41.393741
21
149.019978
0
LINE
8
annotation
62
1
39
211
10
41.393741
20
149.019978
11
41.581283
21
149.205108
0
LINE
8
annotation
62
1
39
211
10
41.581283
20
149.205108
11
41.737295
21
149.426851
0
LINE
8
annotation
62
1
39
211
10
41.737295
20
149.426851
11
42.488023
21
150.727150
0
LINE
8
annotation
62
1
39
211
10
64.133175
20
120.947914
11
70.149878
21
119.887007
0
LINE
8
annotation
62
1
39
211
10
70.149878
20
119.887007
11
69.047764
21
121.460517
0
LINE
8
annotation
62
1
39
211
10
64.483890
20
115.115217
11
65.072958
21
118.455985
0
LINE
8
annotation
62
1
39
211
10
65.072958
20
118.455985
11
69.516817
21
116.296737
0
LINE
8
annotation
62
1
39
211
10
63.322874
20
116.352471
11
65.995036
21
115.881296
0
LINE
8
annotation
62
1
39
211
10
102.147355
20
132.070615
11
108.806063
21
133.244725
0
LINE
8
annotation
62
1
39
211
10
108.806063
20
133.244725
11
107.064310
21
134.463948
0
LINE
8
annotation
62
1
39
211
10
102.587610
20
129.573809
11
102.848335
21
128.095163
0
LINE
8
annotation
62
1
39
211
10
102.848335
20
128.095163
11
102.848335
21
128.095163
0
LINE
8
annotation
62
1
39
211
10
102.848335
20
128.095163
11
102.918991
21
127.833983
0
LINE
8
annotation
62
1
39
211
10
102.918991
20
127.833983
11
103.031855
21
127.596166
0
LINE
8
annotation
62
1
39
211
10
103.031855
20
127.596166
11
103.181994
21
127.385189
0
LINE
8
annotation
62
1
39
211
10
103.181994
20
127.385189
11
103.364475
21
127.204526
0
LINE
8
annotation
62
1
39
211
10
103.364475
20
127.204526
11
103.574366
21
127.057651
0
LINE
8
annotation
62
1
39
211
10
103.574366
20
127.057651
11
103.806734
21
126.948040
0
LINE
8
annotation
62
1
39
211
10
103.806734
20
126.948040
11
104.056646
21
126.879167
0
LINE
8
annotation
62
1
39
211
10
104.056646
20
126.879167
11
104.319171
21
126.854508
0
LINE
8
annotation
62
1
39
211
10
104.319171
20
126.854508
11
104.589376
21
126.877537
0
LINE
8
annotation
62
1
39
211
10
104.589376
20
126.877537
11
105.325984
21
127.007421
0
LINE
8
annotation
62
1
39
211
10
105.325984
20
127.007421
11
105.325984
21
127.007421
0
LINE
8
annotation
62
1
39
211
10
105.325984
20
127.007421
11
105.587644
21
127.078160
0
LINE
8
annotation
62
1
39
211
10
105.587644
20
127.078160
11
105.825563
21
127.191026
0
LINE
8
annotation
62
1
39
211
10
105.825563
20
127.191026
11
106.036356
21
127.341087
0
LINE
8
annotation
62
1
39
211
10
106.036356
20
127.341087
11
106.216637
21
127.523413
0
LINE
8
annotation
62
1
39
211
10
106.216637
20
127.523413
11
106.363018
21
127.733072
0
LINE
8
annotation
62
1
39
211
10
106.363018
20
127.733072
11
106.472113
21
127.965134
0
LINE
8
annotation
62
1
39
211
10
106.472113
20
127.965134
11
106.540535
21
128.214668
0
LINE
8
annotation
62
1
39
211
10
106.540535
20
128.214668
11
106.564899
21
128.476741
0
LINE
8
annotation
62
1
39
211
10
106.564899
20
128.476741
11
106.541817
21
128.746424
0
LINE
8
annotation
62
1
39
211
10
106.541817
20
128.746424
11
106.281092
21
130.225069
0
LINE
8
annotation
62
1
39
211
10
106.281092
20
130.225069
11
109.246317
21
130.747919
0
LINE
8
annotation
62
1
39
211
10
109.246317
20
130.747919
11
109.767767
21
127.790628
0
LINE
8
annotation
62
1
39
211
10
135.706304
20
144.791637
11
141.561873
21
148.172352
0
LINE
8
annotation
62
1
39
211
10
141.561873
20
148.172352
11
139.508162
21
148.722332
0
LINE
8
annotation
62
1
39
211
10
143.957217
20
144.023494
11
143.957217
21
144.023494
0
LINE
8
annotation
62
1
39
211
10
143.957217
20
144.023494
11
143.602486
21
144.315361
0
LINE
8
annotation
62
1
39
211
10
143.602486
20
144.315361
11
143.216952
21
144.548533
0
LINE
8
annotation
62
1
39
211
10
143.216952
20
144.548533
11
142.807357
21
144.722225
0
LINE
8
annotation
62
1
39
211
10
142.807357
20
144.722225
11
142.380440
21
144.835649
0
LINE
8
annotation
62
1
39
211
10
142.380440
20
144.835649
11
141.942942
21
144.888018
0
LINE
8
annotation
62
1
39
211
10
141.942942
20
144.888018
11
141.501605
21
144.878546
0
LINE
8
annotation
62
1
39
211
10
141.501605
20
144.878546
11
141.063168
21
144.806445
0
LINE
8
annotation
62
1
39
211
10
141.063168
20
144.806445
11
140.634373
21
144.670930
0
LINE
8
annotation
62
1
39
211
10
140.634373
20
144.670930
11
140.221959
21
144.471213
0
LINE
8
annotation
62
1
39
211
10
140.221959
20
144.471213
11
138.275734
21
143.347559
0
LINE
8
annotation
62
1
39
211
10
138.275734
20
143.347559
11
138.275734
21
143.347559
0
LINE
8
annotation
62
1
39
211
10
138.275734
20
143.347559
11
138.053942
21
143.191516
0
LINE
8
annotation
62
1
39
211
10
138.053942
20
143.191516
11
137.868687
21
143.003878
0
LINE
8
annotation
62
1
39
211
10
137.868687
20
143.003878
11
137.721513
21
142.790478
0
LINE
8
annotation
62
1
39
211
10
137.721513
20
142.790478
11
137.613965
21
142.557148
0
LINE
8
annotation
62
1
39
211
10
137.613965
20
142.557148
11
137.547589
21
142.309720
0
LINE
8
annotation
62
1
39
211
10
137.547589
20
142.309720
11
137.523929
21
142.054028
0
LINE
8
annotation
62
1
39
211
10
137.523929
20
142.054028
11
137.544530
21
141.795902
0
LINE
8
annotation
62
1
39
211
10
137.544530
20
141.795902
11
137.610936
21
141.541177
0
LINE
8
annotation
62
1
39
211
10
137.610936
20
141.541177
11
137.724694
21
141.295684
0
LINE
8
annotation
62
1
39
211
10
137.724694
20
141.295684
11
137.724694
21
141.295684
0
LINE
8
annotation
62
1
39
211
10
137.724694
20
141.295684
11
137.880698
21
141.073937
0
LINE
8
annotation
62
1
39
211
10
137.880698
20
141.073937
11
138.068241
21
140.888807
0
LINE
8
annotation
62
1
39
211
10
138.068241
20
140.888807
11
138.281528
21
140.741828
0
LINE
8
annotation
62
1
39
211
10
138.281528
20
140.741828
11
138.514759
21
140.634533
0
LINE
8
annotation
62
1
39
211
10
138.514759
20
140.634533
11
138.762139
21
140.568453
0
LINE
8
annotation
62
1
39
211
10
138.762139
20
140.568453
11
139.017869
21
140.545124
0
LINE
8
annotation
62
1
39
211
10
139.017869
20
140.545124
11
139.276152
21
140.566076
0
LINE
8
annotation
62
1
39
211
10
139.276152
20
140.566076
11
139.531192
21
140.632844
0
LINE
8
annotation
62
1
39
211
10
139.531192
20
140.632844
11
139.777190
21
140.746961
0
LINE
8
annotation
62
1
39
211
10
139.777190
20
140.746961
11
140.424952
21
141.120947
0
LINE
8
annotation
62
1
39
211
10
140.424952
20
141.120947
11
140.424952
21
141.120947
0
LINE
8
annotation
62
1
39
211
10
140.424952
20
141.120947
11
140.646666
21
141.276864
0
LINE
8
annotation
62
1
39
211
10
140.646666
20
141.276864
11
140.831704
21
141.464175
0
LINE
8
annotation
62
1
39
211
10
140.831704
20
141.464175
11
140.978552
21
141.677125
0
LINE
8
annotation
62
1
39
211
10
140.978552
20
141.677125
11
141.085692
21
141.909957
0
LINE
8
annotation
62
1
39
211
10
141.085692
20
141.909957
11
141.151607
21
142.156917
0
LINE
8
annotation
62
1
39
211
10
141.151607
20
142.156917
11
141.174780
21
142.412248
0
LINE
8
annotation
62
1
39
211
10
141.174780
20
142.412248
11
141.153696
21
142.670195
0
LINE
8
annotation
62
1
39
211
10
141.153696
20
142.670195
11
141.086838
21
142.925002
0
LINE
8
annotation
62
1
39
211
10
141.086838
20
142.925002
11
140.972687
21
143.170914
0
LINE
8
annotation
62
1
39
211
10
140.972687
20
143.170914
11
140.221959
21
144.471213
0
LINE
8
annotation
62
1
39
211
10
136.147993
20
142.336252
11
137.838350
21
139.408468
0
LINE
8
annotation
62
1
39
211
10
189.904090
20
144.810562
11
194.247898
21
149.987311
0
LINE
8
annotation
62
1
39
211
10
194.247898
20
149.987311
11
192.131084
21
149.801813
0
LINE
8
annotation
62
1
39
211
10
192.996228
20
142.215949
11
198.490894
21
146.427014
0
LINE
8
annotation
62
1
39
211
10
198.490894
20
146.427014
11
196.188854
21
148.358655
0
LINE
8
annotation
62
1
39
211
10
196.556529
20
144.121728
11
195.405672
21
145.087412
0
LINE
8
annotation
62
1
39
211
10
184.833355
20
196.177582
11
187.145900
21
202.531246
0
LINE
8
annotation
62
1
39
211
10
187.145900
20
202.531246
11
185.219145
21
201.632455
0
LINE
8
annotation
62
1
39
211
10
187.728510
20
196.719166
11
187.728510
21
196.719166
0
LINE
8
annotation
62
1
39
211
10
187.728510
20
196.719166
11
187.658955
21
196.457188
0
LINE
8
annotation
62
1
39
211
10
187.658955
20
196.457188
11
187.637773
21
196.194699
0
LINE
8
annotation
62
1
39
211
10
187.637773
20
196.194699
11
187.662376
21
195.937100
0
LINE
8
annotation
62
1
39
211
10
187.662376
20
195.937100
11
187.730177
21
195.689795
0
LINE
8
annotation
62
1
39
211
10
187.730177
20
195.689795
11
187.838590
21
195.458183
0
LINE
8
annotation
62
1
39
211
10
187.838590
20
195.458183
11
187.985027
21
195.247669
0
LINE
8
annotation
62
1
39
211
10
187.985027
20
195.247669
11
188.166902
21
195.063652
0
LINE
8
annotation
62
1
39
211
10
188.166902
20
195.063652
11
188.381626
21
194.911536
0
LINE
8
annotation
62
1
39
211
10
188.381626
20
194.911536
11
188.626614
21
194.796722
0
LINE
8
annotation
62
1
39
211
10
188.626614
20
194.796722
11
188.626614
21
194.796722
0
LINE
8
annotation
62
1
39
211
10
188.626614
20
194.796722
11
188.888087
21
194.727200
0
LINE
8
annotation
62
1
39
211
10
188.888087
20
194.727200
11
189.150354
21
194.705705
0
LINE
8
annotation
62
1
39
211
10
189.150354
20
194.705705
11
189.407961
21
194.729763
0
LINE
8
annotation
62
1
39
211
10
189.407961
20
194.729763
11
189.655455
21
194.796899
0
LINE
8
annotation
62
1
39
211
10
189.655455
20
194.796899
11
189.887381
21
194.904637
0
LINE
8
annotation
62
1
39
211
10
189.887381
20
194.904637
11
190.098285
21
195.050502
0
LINE
8
annotation
62
1
39
211
10
190.098285
20
195.050502
11
190.282713
21
195.232019
0
LINE
8
annotation
62
1
39
211
10
190.282713
20
195.232019
11
190.435211
21
195.446713
0
LINE
8
annotation
62
1
39
211
10
190.435211
20
195.446713
11
190.550325
21
195.692109
0
LINE
8
annotation
62
1
39
211
10
190.550325
20
195.692109
11
190.806146
21
196.394973
0
LINE
8
annotation
62
1
39
211
10
190.806146
20
196.394973
11
190.806146
21
196.394973
0
LINE
8
annotation
62
1
39
211
10
190.806146
20
196.394973
11
190.875759
21
196.657069
0
LINE
8
annotation
62
1
39
211
10
190.875759
20
196.657069
11
190.897094
21
196.919875
0
LINE
8
annotation
62
1
39
211
10
190.897094
20
196.919875
11
190.872708
21
197.177935
0
LINE
8
annotation
62
1
39
211
10
190.872708
20
197.177935
11
190.805155
21
197.425791
0
LINE
8
annotation
62
1
39
211
10
190.805155
20
197.425791
11
190.696991
21
197.657986
0
LINE
8
annotation
62
1
39
211
10
190.696991
20
197.657986
11
190.550773
21
197.869062
0
LINE
8
annotation
62
1
39
211
10
190.550773
20
197.869062
11
190.369056
21
198.053561
0
LINE
8
annotation
62
1
39
211
10
190.369056
20
198.053561
11
190.154396
21
198.206027
0
LINE
8
annotation
62
1
39
211
10
190.154396
20
198.206027
11
189.909347
21
198.321002
0
LINE
8
annotation
62
1
39
211
10
189.909347
20
198.321002
11
189.909347
21
198.321002
0
LINE
8
annotation
62
1
39
211
10
189.909347
20
198.321002
11
189.647720
21
198.390427
0
LINE
8
annotation
62
1
39
211
10
189.647720
20
198.390427
11
189.385265
21
198.411580
0
LINE
8
annotation
62
1
39
211
10
189.385265
20
198.411580
11
189.127452
21
198.387008
0
LINE
8
annotation
62
1
39
211
10
189.127452
20
198.387008
11
188.879751
21
198.319259
0
LINE
8
annotation
62
1
39
211
10
188.879751
20
198.319259
11
188.647629
21
198.210881
0
LINE
8
annotation
62
1
39
211
10
188.647629
20
198.210881
11
188.436557
21
198.064421
0
LINE
8
annotation
62
1
39
211
10
188.436557
20
198.064421
11
188.252004
21
197.882428
0
LINE
8
annotation
62
1
39
211
10
188.252004
20
197.882428
11
188.099439
21
197.667448
0
LINE
8
annotation
62
1
39
211
10
188.099439
20
197.667448
11
187.984332
21
197.422029
0
LINE
8
annotation
62
1
39
211
10
187.984332
20
197.422029
11
187.728510
21
196.719166
0
LINE
8
annotation
62
1
39
211
10
191.834508
20
199.220373
11
191.834508
21
199.220373
0
LINE
8
annotation
62
1
39
211
10
191.834508
20
199.220373
11
191.903694
21
199.481297
0
LINE
8
annotation
62
1
39
211
10
191.903694
20
199.481297
11
191.924706
21
199.743216
0
LINE
8
annotation
62
1
39
211
10
191.924706
20
199.743216
11
191.900086
21
200.000635
0
LINE
8
annotation
62
1
39
211
10
191.900086
20
200.000635
11
191.832375
21
200.248057
0
LINE
8
annotation
62
1
39
211
10
191.832375
20
200.248057
11
191.724115
21
200.479984
0
LINE
8
annotation
62
1
39
211
10
191.724115
20
200.479984
11
191.577846
21
200.690920
0
LINE
8
annotation
62
1
39
211
10
191.577846
20
200.690920
11
191.396110
21
200.875369
0
LINE
8
annotation
62
1
39
211
10
191.396110
20
200.875369
11
191.181449
21
201.027833
0
LINE
8
annotation
62
1
39
211
10
191.181449
20
201.027833
11
190.936404
21
201.142816
0
LINE
8
annotation
62
1
39
211
10
190.936404
20
201.142816
11
190.936404
21
201.142816
0
LINE
8
annotation
62
1
39
211
10
190.936404
20
201.142816
11
190.674778
21
201.212246
0
LINE
8
annotation
62
1
39
211
10
190.674778
20
201.212246
11
190.412336
21
201.233433
0
LINE
8
annotation
62
1
39
211
10
190.412336
20
201.233433
11
190.154557
21
201.208955
0
LINE
8
annotation
62
1
39
211
10
190.154557
20
201.208955
11
189.906922
21
201.141388
0
LINE
8
annotation
62
1
39
211
10
189.906922
20
201.141388
11
189.674909
21
201.033310
0
LINE
8
annotation
62
1
39
211
10
189.674909
20
201.033310
11
189.464000
21
200.887298
0
LINE
8
annotation
62
1
39
211
10
189.464000
20
200.887298
11
189.279674
21
200.705929
0
LINE
8
annotation
62
1
39
211
10
189.279674
20
200.705929
11
189.127412
21
200.491781
0
LINE
8
annotation
62
1
39
211
10
189.127412
20
200.491781
11
189.012693
21
200.247430
0
LINE
8
annotation
62
1
39
211
10
189.012693
20
200.247430
11
189.012693
21
200.247430
0
LINE
8
annotation
62
1
39
211
10
189.012693
20
200.247430
11
188.943089
21
199.985315
0
LINE
8
annotation
62
1
39
211
10
188.943089
20
199.985315
11
188.921773
21
199.722460
0
LINE
8
annotation
62
1
39
211
10
188.921773
20
199.722460
11
188.946183
21
199.464332
0
LINE
8
annotation
62
1
39
211
10
188.946183
20
199.464332
11
189.013755
21
199.216397
0
LINE
8
annotation
62
1
39
211
10
189.013755
20
199.216397
11
189.121927
21
198.984125
0
LINE
8
annotation
62
1
39
211
10
189.121927
20
198.984125
11
189.268136
21
198.772981
0
LINE
8
annotation
62
1
39
211
10
189.268136
20
198.772981
11
189.449817
21
198.588435
0
LINE
8
annotation
62
1
39
211
10
189.449817
20
198.588435
11
189.664409
21
198.435952
0
LINE
8
annotation
62
1
39
211
10
189.664409
20
198.435952
11
189.909347
21
198.321002
0
LINE
8
annotation
62
1
39
211
10
189.909347
20
198.321002
11
189.909347
21
198.321002
0
LINE
8
annotation
62
1
39
211
10
189.909347
20
198.321002
11
190.170870
21
198.251616
0
LINE
8
annotation
62
1
39
211
10
190.170870
20
198.251616
11
190.433270
21
198.230487
0
LINE
8
annotation
62
1
39
211
10
190.433270
20
198.230487
11
190.691070
21
198.255075
0
LINE
8
annotation
62
1
39
211
10
190.691070
20
198.255075
11
190.938793
21
198.322840
0
LINE
8
annotation
62
1
39
211
10
190.938793
20
198.322840
11
191.170959
21
198.431239
0
LINE
8
annotation
62
1
39
211
10
191.170959
20
198.431239
11
191.382092
21
198.577733
0
LINE
8
annotation
62
1
39
211
10
191.382092
20
198.577733
11
191.566713
21
198.759781
0
LINE
8
annotation
62
1
39
211
10
191.566713
20
198.759781
11
191.719344
21
198.974841
0
LINE
8
annotation
62
1
39
211
10
191.719344
20
198.974841
11
191.834508
21
199.220373
0
LINE
8
annotation
62
1
39
211
10
128.643970
20
164.155746
11
111.243078
21
164.155746
0
LINE
8
annotation
62
1
39
211
10
111.243078
20
164.155746
11
128.643970
21
195.494645
0
LINE
8
annotation
62
1
39
211
10
128.643970
20
195.494645
11
111.243078
21
195.494645
0
LINE
8
annotation
62
1
39
211
10
157.534579
20
179.825195
11
140.399005
21
179.825195
0
LINE
8
annotation
62
1
39
211
10
169.283718
20
164.155746
11
176.242896
21
164.155746
0
LINE
8
annotation
62
1
39
211
10
176.242896
20
164.155746
11
176.242896
21
164.155746
0
LINE
8
annotation
62
1
39
211
10
176.242896
20
164.155746
11
177.491932
21
164.268049
0
LINE
8
annotation
62
1
39
211
10
177.491932
20
164.268049
11
178.668293
21
164.591814
0
LINE
8
annotation
62
1
39
211
10
178.668293
20
164.591814
11
179.752146
21
165.107322
0
LINE
8
annotation
62
1
39
211
10
179.752146
20
165.107322
11
180.723661
21
165.794855
0
LINE
8
annotation
62
1
39
211
10
180.723661
20
165.794855
11
181.563007
21
166.634697
0
LINE
8
annotation
62
1
39
211
10
181.563007
20
166.634697
11
182.250352
21
167.607129
0
LINE
8
annotation
62
1
39
211
10
182.250352
20
167.607129
11
182.765865
21
168.692432
0
LINE
8
annotation
62
1
39
211
10
182.765865
20
168.692432
11
183.089716
21
169.870890
0
LINE
8
annotation
62
1
39
211
10
183.089716
20
169.870890
11
183.202073
21
171.122784
0
LINE
8
annotation
62
1
39
211
10
183.202073
20
171.122784
11
183.202073
21
174.589599
0
LINE
8
annotation
62
1
39
211
10
183.202073
20
174.589599
11
183.202073
21
174.589599
0
LINE
8
annotation
62
1
39
211
10
183.202073
20
174.589599
11
183.089781
21
175.840886
0
LINE
8
annotation
62
1
39
211
10
183.089781
20
175.840886
11
182.766092
21
177.017719
0
LINE
8
annotation
62
1
39
211
10
182.766092
20
177.017719
11
182.250788
21
178.100669
0
LINE
8
annotation
62
1
39
211
10
182.250788
20
178.100669
11
181.563654
21
179.070310
0
LINE
8
annotation
62
1
39
211
10
181.563654
20
179.070310
11
180.724470
21
179.907216
0
LINE
8
annotation
62
1
39
211
10
180.724470
20
179.907216
11
179.753020
21
180.591959
0
LINE
8
annotation
62
1
39
211
10
179.753020
20
180.591959
11
178.669086
21
181.105114
0
LINE
8
annotation
62
1
39
211
10
178.669086
20
181.105114
11
177.492450
21
181.427253
0
LINE
8
annotation
62
1
39
211
10
177.492450
20
181.427253
11
176.242896
21
181.538949
0
LINE
8
annotation
62
1
39
211
10
176.242896
20
181.538949
11
169.283718
21
181.538949
0
LINE
8
annotation
62
1
39
211
10
169.283718
20
181.538949
11
169.283718
21
195.494645
0
LINE
8
annotation
62
1
39
211
10
169.283718
20
195.494645
11
183.202073
21
195.494645
0
LINE
8
frame
62
5
39
2
10
0.000000
20
0.000000
11
480.000000
21
0.000000
0
LINE
8
frame
62
5
39
2
10
480.000000
20
0.000000
11
480.000000
21
420.000000
0
LINE
8
frame
62
5
39
2
10
480.000000
20
420.000000
11
0.000000
21
420.000000
0
LINE
8
frame
62
5
39
2
10
0.000000
20
420.000000
11
0.000000
21
0.000000
0
ENDSEC
0
EOF
