0
SECTION
2
HEADER
9
$ACADVER
1
AC1009
0
ENDSEC
0
SECTION
2
TABLES
0
TABLE
2
VPORT
70
1
0
VPORT
2
ACTIVE
70
0
10
0.0
20
0.0
11
0.0
21
0.0
12
0.0
22
0.0
13
0.0
23
0.0
14
0.0
24
0.0
15
0.0
25
0.0
16
0.0
26
0.0
36
0.0
17
0.0
27
0.0
37
0.0
40
0.0
41
0.0
42
0.0
43
0.0
44
0.0
50
0.0
51
0.0
71
0
72
1000
73
1
74
3
75
0
76
0
77
0
78
0
0
ENDTAB
0
ENDSEC
0
SECTION
2
ENTITIES
0
LINE
8
boundary
62
5
39
2
10
6.687500
20
190.251379
11
6.687500
21
146.117590
0
LINE
8
boundary
62
5
39
2
10
6.687500
20
146.117590
11
11.142814
21
145.677489
0
LINE
8
boundary
62
5
39
2
10
11.142814
20
145.677489
11
116.747496
21
145.677490
0
LINE
8
boundary
62
5
39
2
10
116.747496
20
145.677490
11
116.747496
21
141.626489
0
LINE
8
boundary
62
5
39
2
10
116.747496
20
141.626489
11
11.142814
21
141.626489
0
LINE
8
boundary
62
5
39
2
10
11.142814
20
141.626489
11
6.687500
21
141.186389
0
LINE
8
boundary
62
5
39
2
10
6.687500
20
141.186389
11
6.687500
21
86.147827
0
LINE
8
boundary
62
5
39
2
10
6.687500
20
86.147827
11
11.142814
21
85.707728
0
LINE
8
boundary
62
5
39
2
10
11.142814
20
85.707728
11
98.752770
21
85.707727
0
LINE
8
boundary
62
5
39
2
10
98.752770
20
85.707727
11
98.752769
21
81.656728
0
LINE
8
boundary
62
5
39
2
10
98.752769
20
81.656728
11
11.142814
21
81.656728
0
LINE
8
boundary
62
5
39
2
10
11.142814
20
81.656728
11
6.687500
21
81.216628
0
LINE
8
boundary
62
5
39
2
10
6.687500
20
81.216628
11
6.687500
21
32.559085
0
LINE
8
boundary
62
5
39
2
10
6.687500
20
32.559085
11
11.142814
21
32.118985
0
LINE
8
boundary
62
5
39
2
10
11.142814
20
32.118985
11
31.051142
21
32.118986
0
LINE
8
boundary
62
5
39
2
10
31.051142
20
32.118986
11
31.051142
21
28.067985
0
LINE
8
boundary
62
5
39
2
10
31.051142
20
28.067985
11
11.142814
21
28.067985
0
LINE
8
boundary
62
5
39
2
10
11.142814
20
28.067985
11
6.687500
21
27.627885
0
LINE
8
boundary
62
5
39
2
10
6.687500
20
27.627885
11
6.687500
21
6.687500
0
LINE
8
boundary
62
5
39
2
10
6.687500
20
6.687500
11
9.051678
21
8.184951
0
LINE
8
boundary
62
5
39
2
10
9.051678
20
8.184951
11
14.209211
21
11.516884
0
LINE
8
boundary
62
5
39
2
10
14.209211
20
11.516884
11
19.072442
21
13.941453
0
LINE
8
boundary
62
5
39
2
10
19.072442
20
13.941453
11
29.983271
21
19.517247
0
LINE
8
boundary
62
5
39
2
10
29.983271
20
19.517247
11
30.500571
21
19.748983
0
LINE
8
boundary
62
5
39
2
10
30.500571
20
19.748983
11
41.653879
21
24.710160
0
LINE
8
boundary
62
5
39
2
10
41.653879
20
24.710160
11
47.377093
21
27.533537
0
LINE
8
boundary
62
5
39
2
10
47.377093
20
27.533537
11
55.064038
21
30.460685
0
LINE
8
boundary
62
5
39
2
10
55.064038
20
30.460685
11
68.805026
21
34.583718
0
LINE
8
boundary
62
5
39
2
10
68.805026
20
34.583718
11
69.299842
21
34.745108
0
LINE
8
boundary
62
5
39
2
10
69.299842
20
34.745108
11
70.560882
21
35.000937
0
LINE
8
boundary
62
5
39
2
10
70.560882
20
35.000937
11
87.323551
21
38.710772
0
LINE
8
boundary
62
5
39
2
10
87.323551
20
38.710772
11
93.717667
21
39.764068
0
LINE
8
boundary
62
5
39
2
10
93.717667
20
39.764068
11
104.304074
21
42.571488
0
LINE
8
boundary
62
5
39
2
10
104.304074
20
42.571488
11
118.770405
21
46.406512
0
LINE
8
boundary
62
5
39
2
10
118.770405
20
46.406512
11
123.300519
21
48.146031
0
LINE
8
boundary
62
5
39
2
10
123.300519
20
48.146031
11
136.952381
21
52.955992
0
LINE
8
boundary
62
5
39
2
10
136.952381
20
52.955992
11
138.517974
21
53.596866
0
LINE
8
boundary
62
5
39
2
10
138.517974
20
53.596866
11
138.997115
21
53.769962
0
LINE
8
boundary
62
5
39
2
10
138.997115
20
53.769962
11
152.703376
21
61.195779
0
LINE
8
boundary
62
5
39
2
10
152.703376
20
61.195779
11
155.619136
21
62.484380
0
LINE
8
boundary
62
5
39
2
10
155.619136
20
62.484380
11
165.128316
21
68.343068
0
LINE
8
boundary
62
5
39
2
10
165.128316
20
68.343068
11
169.140833
21
70.308885
0
LINE
8
boundary
62
5
39
2
10
169.140833
20
70.308885
11
176.789807
21
74.874011
0
LINE
8
boundary
62
5
39
2
10
176.789807
20
74.874011
11
181.959852
21
77.701496
0
LINE
8
boundary
62
5
39
2
10
181.959852
20
77.701496
11
186.709616
21
81.603536
0
LINE
8
boundary
62
5
39
2
10
186.709616
20
81.603536
11
191.214833
21
85.476295
0
LINE
8
boundary
62
5
39
2
10
191.214833
20
85.476295
11
195.179655
21
90.000716
0
LINE
8
boundary
62
5
39
2
10
195.179655
20
90.000716
11
198.777951
21
94.239582
0
LINE
8
boundary
62
5
39
2
10
198.777951
20
94.239582
11
202.692643
21
99.562460
0
LINE
8
boundary
62
5
39
2
10
202.692643
20
99.562460
11
205.326239
21
103.637326
0
LINE
8
boundary
62
5
39
2
10
205.326239
20
103.637326
11
210.311623
21
111.209550
0
LINE
8
boundary
62
5
39
2
10
210.311623
20
111.209550
11
212.325502
21
115.107587
0
LINE
8
boundary
62
5
39
2
10
212.325502
20
115.107587
11
218.354944
21
123.388092
0
LINE
8
boundary
62
5
39
2
10
218.354944
20
123.388092
11
220.645698
21
127.679923
0
LINE
8
boundary
62
5
39
2
10
220.645698
20
127.679923
11
224.270517
21
135.658539
0
LINE
8
boundary
62
5
39
2
10
224.270517
20
135.658539
11
226.231824
21
140.674869
0
LINE
8
boundary
62
5
39
2
10
226.231824
20
140.674869
11
227.740585
21
148.828722
0
LINE
8
boundary
62
5
39
2
10
227.740585
20
148.828722
11
228.641482
21
154.340408
0
LINE
8
boundary
62
5
39
2
10
228.641482
20
154.340408
11
229.358238
21
160.079864
0
LINE
8
boundary
62
5
39
2
10
229.358238
20
160.079864
11
229.972283
21
166.702193
0
LINE
8
boundary
62
5
39
2
10
229.972283
20
166.702193
11
230.412468
21
170.910157
0
LINE
8
boundary
62
5
39
2
10
230.412468
20
170.910157
11
230.877412
21
180.439766
0
LINE
8
boundary
62
5
39
2
10
230.877412
20
180.439766
11
231.067558
21
181.799283
0
LINE
8
boundary
62
5
39
2
10
231.067558
20
181.799283
11
231.480413
21
186.032883
0
LINE
8
boundary
62
5
39
2
10
231.480413
20
186.032883
11
231.702506
21
192.498394
0
LINE
8
boundary
62
5
39
2
10
231.702506
20
192.498394
11
231.111586
21
195.675464
0
LINE
8
boundary
62
5
39
2
10
231.111586
20
195.675464
11
231.057984
21
202.598574
0
LINE
8
boundary
62
5
39
2
10
231.057984
20
202.598574
11
229.809903
21
210.701553
0
LINE
8
boundary
62
5
39
2
10
229.809903
20
210.701553
11
229.583343
21
211.868404
0
LINE
8
boundary
62
5
39
2
10
229.583343
20
211.868404
11
229.148908
21
213.371454
0
LINE
8
boundary
62
5
39
2
10
229.148908
20
213.371454
11
228.714489
21
226.101687
0
LINE
8
boundary
62
5
39
2
10
228.714489
20
226.101687
11
228.235285
21
228.875590
0
LINE
8
boundary
62
5
39
2
10
228.235285
20
228.875590
11
230.327350
21
237.816747
0
LINE
8
boundary
62
5
39
2
10
230.327350
20
237.816747
11
230.998582
21
240.803182
0
LINE
8
boundary
62
5
39
2
10
230.998582
20
240.803182
11
231.978807
21
242.569698
0
LINE
8
boundary
62
5
39
2
10
231.978807
20
242.569698
11
235.437195
21
249.193892
0
LINE
8
boundary
62
5
39
2
10
235.437195
20
249.193892
11
237.060294
21
251.345398
0
LINE
8
boundary
62
5
39
2
10
237.060294
20
251.345398
11
241.217174
21
257.410287
0
LINE
8
boundary
62
5
39
2
10
241.217174
20
257.410287
11
240.768923
21
257.770218
0
LINE
8
boundary
62
5
39
2
10
240.768923
20
257.770218
11
236.898854
21
259.206343
0
LINE
8
boundary
62
5
39
2
10
236.898854
20
259.206343
11
225.630035
21
263.102226
0
LINE
8
boundary
62
5
39
2
10
225.630035
20
263.102226
11
192.636612
21
278.250254
0
LINE
8
boundary
62
5
39
2
10
192.636612
20
278.250254
11
185.425059
21
279.671917
0
LINE
8
boundary
62
5
39
2
10
185.425059
20
279.671917
11
183.905397
21
277.242418
0
LINE
8
boundary
62
5
39
2
10
183.905397
20
277.242418
11
180.290232
21
269.187841
0
LINE
8
boundary
62
5
39
2
10
180.290232
20
269.187841
11
179.623379
21
267.879774
0
LINE
8
boundary
62
5
39
2
10
179.623379
20
267.879774
11
174.571054
21
259.318575
0
LINE
8
boundary
62
5
39
2
10
174.571054
20
259.318575
11
173.661041
21
257.832848
0
LINE
8
boundary
62
5
39
2
10
173.661041
20
257.832848
11
168.086068
21
249.529551
0
LINE
8
boundary
62
5
39
2
10
168.086068
20
249.529551
11
167.710415
21
249.134084
0
LINE
8
boundary
62
5
39
2
10
167.710415
20
249.134084
11
172.165729
21
248.693985
0
LINE
8
boundary
62
5
39
2
10
172.165729
20
248.693985
11
199.182263
21
248.693985
0
LINE
8
boundary
62
5
39
2
10
199.182263
20
248.693985
11
199.182263
21
244.642985
0
LINE
8
boundary
62
5
39
2
10
199.182263
20
244.642985
11
167.599717
21
244.642984
0
LINE
8
boundary
62
5
39
2
10
167.599717
20
244.642984
11
163.144403
21
244.202885
0
LINE
8
boundary
62
5
39
2
10
163.144403
20
244.202885
11
159.733586
21
240.392229
0
LINE
8
boundary
62
5
39
2
10
159.733586
20
240.392229
11
158.884224
21
239.857389
0
LINE
8
boundary
62
5
39
2
10
158.884224
20
239.857389
11
154.198639
21
236.400349
0
LINE
8
boundary
62
5
39
2
10
154.198639
20
236.400349
11
150.077137
21
233.369337
0
LINE
8
boundary
62
5
39
2
10
150.077137
20
233.369337
11
145.370411
21
230.766949
0
LINE
8
boundary
62
5
39
2
10
145.370411
20
230.766949
11
149.825725
21
230.326849
0
LINE
8
boundary
62
5
39
2
10
149.825725
20
230.326849
11
183.790949
21
230.326849
0
LINE
8
boundary
62
5
39
2
10
183.790949
20
230.326849
11
183.790949
21
226.275849
0
LINE
8
boundary
62
5
39
2
10
183.790949
20
226.275849
11
140.314119
21
226.275849
0
LINE
8
boundary
62
5
39
2
10
140.314119
20
226.275849
11
135.858805
21
225.835749
0
LINE
8
boundary
62
5
39
2
10
135.858805
20
225.835749
11
128.129055
21
222.586379
0
LINE
8
boundary
62
5
39
2
10
128.129055
20
222.586379
11
120.662508
21
220.504985
0
LINE
8
boundary
62
5
39
2
10
120.662508
20
220.504985
11
116.508571
21
219.437355
0
LINE
8
boundary
62
5
39
2
10
116.508571
20
219.437355
11
105.103339
21
217.475422
0
LINE
8
boundary
62
5
39
2
10
105.103339
20
217.475422
11
103.442261
21
217.255250
0
LINE
8
boundary
62
5
39
2
10
103.442261
20
217.255250
11
93.974700
21
216.320302
0
LINE
8
boundary
62
5
39
2
10
93.974700
20
216.320302
11
92.623536
21
216.333697
0
LINE
8
boundary
62
5
39
2
10
92.623536
20
216.333697
11
83.536265
21
216.104777
0
LINE
8
boundary
62
5
39
2
10
83.536265
20
216.104777
11
81.175786
21
215.741425
0
LINE
8
boundary
62
5
39
2
10
81.175786
20
215.741425
11
71.299294
21
214.581970
0
LINE
8
boundary
62
5
39
2
10
71.299294
20
214.581970
11
68.199134
21
213.983167
0
LINE
8
boundary
62
5
39
2
10
68.199134
20
213.983167
11
59.704390
21
212.512850
0
LINE
8
boundary
62
5
39
2
10
59.704390
20
212.512850
11
53.591381
21
210.743692
0
LINE
8
boundary
62
5
39
2
10
53.591381
20
210.743692
11
44.097140
21
208.477067
0
LINE
8
boundary
62
5
39
2
10
44.097140
20
208.477067
11
28.094682
21
202.448773
0
LINE
8
boundary
62
5
39
2
10
28.094682
20
202.448773
11
27.124319
21
202.057639
0
LINE
8
boundary
62
5
39
2
10
27.124319
20
202.057639
11
25.605575
21
201.221095
0
LINE
8
boundary
62
5
39
2
10
25.605575
20
201.221095
11
22.365516
21
199.490439
0
LINE
8
boundary
62
5
39
2
10
22.365516
20
199.490439
11
26.820829
21
199.050339
0
LINE
8
boundary
62
5
39
2
10
26.820829
20
199.050339
11
123.139036
21
199.050339
0
LINE
8
boundary
62
5
39
2
10
123.139036
20
199.050339
11
123.139036
21
194.999339
0
LINE
8
boundary
62
5
39
2
10
123.139036
20
194.999339
11
17.588849
21
194.999339
0
LINE
8
boundary
62
5
39
2
10
17.588849
20
194.999339
11
13.133535
21
194.559239
0
LINE
8
boundary
62
5
39
2
10
13.133535
20
194.559239
11
10.507825
21
193.156734
0
LINE
8
boundary
62
5
39
2
10
10.507825
20
193.156734
11
6.687500
21
190.251379
0
LINE
8
annotation
62
1
39
211
10
40.027259
20
26.572685
11
41.592697
21
33.614285
0
LINE
8
annotation
62
1
39
211
10
41.592697
20
33.614285
11
38.461380
21
33.614285
0
LINE
8
annotation
62
1
39
211
10
41.592697
20
30.478552
11
40.027259
21
30.478552
0
LINE
8
annotation
62
1
39
211
10
106.165215
20
81.722670
11
106.165215
21
81.722670
0
LINE
8
annotation
62
1
39
211
10
106.165215
20
81.722670
11
106.190461
21
81.441516
0
LINE
8
annotation
62
1
39
211
10
106.190461
20
81.441516
11
106.263227
21
81.177091
0
LINE
8
annotation
62
1
39
211
10
106.263227
20
81.177091
11
106.379059
21
80.933761
0
LINE
8
annotation
62
1
39
211
10
106.379059
20
80.933761
11
106.533500
21
80.715890
0
LINE
8
annotation
62
1
39
211
10
106.533500
20
80.715890
11
106.722094
21
80.527844
0
LINE
8
annotation
62
1
39
211
10
106.722094
20
80.527844
11
106.940386
21
80.373988
0
LINE
8
annotation
62
1
39
211
10
106.940386
20
80.373988
11
107.183919
21
80.258686
0
LINE
8
annotation
62
1
39
211
10
107.183919
20
80.258686
11
107.448238
21
80.186304
0
LINE
8
annotation
62
1
39
211
10
107.448238
20
80.186304
11
107.728886
21
80.161207
0
LINE
8
annotation
62
1
39
211
10
107.728886
20
80.161207
11
107.728886
21
80.161207
0
LINE
8
annotation
62
1
39
211
10
107.728886
20
80.161207
11
108.009535
21
80.186304
0
LINE
8
annotation
62
1
39
211
10
108.009535
20
80.186304
11
108.273854
21
80.258686
0
LINE
8
annotation
62
1
39
211
10
108.273854
20
80.258686
11
108.517387
21
80.373988
0
LINE
8
annotation
62
1
39
211
10
108.517387
20
80.373988
11
108.735679
21
80.527844
0
LINE
8
annotation
62
1
39
211
10
108.735679
20
80.527844
11
108.924273
21
80.715890
0
LINE
8
annotation
62
1
39
211
10
108.924273
20
80.715890
11
109.078714
21
80.933761
0
LINE
8
annotation
62
1
39
211
10
109.078714
20
80.933761
11
109.194545
21
81.177091
0
LINE
8
annotation
62
1
39
211
10
109.194545
20
81.177091
11
109.267312
21
81.441516
0
LINE
8
annotation
62
1
39
211
10
109.267312
20
81.441516
11
109.292558
21
81.722670
0
LINE
8
annotation
62
1
39
211
10
109.292558
20
81.722670
11
109.292558
21
82.501636
0
LINE
8
annotation
62
1
39
211
10
109.292558
20
82.501636
11
109.292558
21
82.501636
0
LINE
8
annotation
62
1
39
211
10
109.292558
20
82.501636
11
109.267327
21
82.782926
0
LINE
8
annotation
62
1
39
211
10
109.267327
20
82.782926
11
109.194596
21
83.047716
0
LINE
8
annotation
62
1
39
211
10
109.194596
20
83.047716
11
109.078812
21
83.291575
0
LINE
8
annotation
62
1
39
211
10
109.078812
20
83.291575
11
108.924418
21
83.510073
0
LINE
8
annotation
62
1
39
211
10
108.924418
20
83.510073
11
108.735860
21
83.698779
0
LINE
8
annotation
62
1
39
211
10
108.735860
20
83.698779
11
108.517583
21
83.853262
0
LINE
8
annotation
62
1
39
211
10
108.517583
20
83.853262
11
108.274032
21
83.969093
0
LINE
8
annotation
62
1
39
211
10
108.274032
20
83.969093
11
108.009651
21
84.041840
0
LINE
8
annotation
62
1
39
211
10
108.009651
20
84.041840
11
107.728886
21
84.067073
0
LINE
8
annotation
62
1
39
211
10
107.728886
20
84.067073
11
107.728886
21
84.067073
0
LINE
8
annotation
62
1
39
211
10
107.728886
20
84.067073
11
107.448122
21
84.041825
0
LINE
8
annotation
62
1
39
211
10
107.448122
20
84.041825
11
107.183741
21
83.969042
0
LINE
8
annotation
62
1
39
211
10
107.183741
20
83.969042
11
106.940190
21
83.853164
0
LINE
8
annotation
62
1
39
211
10
106.940190
20
83.853164
11
106.721913
21
83.698633
0
LINE
8
annotation
62
1
39
211
10
106.721913
20
83.698633
11
106.533355
21
83.509891
0
LINE
8
annotation
62
1
39
211
10
106.533355
20
83.509891
11
106.378961
21
83.291379
0
LINE
8
annotation
62
1
39
211
10
106.378961
20
83.291379
11
106.263177
21
83.047538
0
LINE
8
annotation
62
1
39
211
10
106.263177
20
83.047538
11
106.190446
21
82.782810
0
LINE
8
annotation
62
1
39
211
10
106.190446
20
82.782810
11
106.165215
21
82.501636
0
LINE
8
annotation
62
1
39
211
10
106.165215
20
82.501636
11
106.165215
21
81.722670
0
LINE
8
annotation
62
1
39
211
10
109.292558
20
85.632953
11
109.292558
21
85.632953
0
LINE
8
annotation
62
1
39
211
10
109.292558
20
85.632953
11
109.267327
21
85.912944
0
LINE
8
annotation
62
1
39
211
10
109.267327
20
85.912944
11
109.194596
21
86.176751
0
LINE
8
annotation
62
1
39
211
10
109.194596
20
86.176751
11
109.078812
21
86.419900
0
LINE
8
annotation
62
1
39
211
10
109.078812
20
86.419900
11
108.924418
21
86.637916
0
LINE
8
annotation
62
1
39
211
10
108.924418
20
86.637916
11
108.735860
21
86.826325
0
LINE
8
annotation
62
1
39
211
10
108.735860
20
86.826325
11
108.517583
21
86.980654
0
LINE
8
annotation
62
1
39
211
10
108.517583
20
86.980654
11
108.274032
21
87.096428
0
LINE
8
annotation
62
1
39
211
10
108.274032
20
87.096428
11
108.009651
21
87.169174
0
LINE
8
annotation
62
1
39
211
10
108.009651
20
87.169174
11
107.728886
21
87.194416
0
LINE
8
annotation
62
1
39
211
10
107.728886
20
87.194416
11
107.728886
21
87.194416
0
LINE
8
annotation
62
1
39
211
10
107.728886
20
87.194416
11
107.448122
21
87.169174
0
LINE
8
annotation
62
1
39
211
10
107.448122
20
87.169174
11
107.183741
21
87.096428
0
LINE
8
annotation
62
1
39
211
10
107.183741
20
87.096428
11
106.940190
21
86.980654
0
LINE
8
annotation
62
1
39
211
10
106.940190
20
86.980654
11
106.721913
21
86.826325
0
LINE
8
annotation
62
1
39
211
10
106.721913
20
86.826325
11
106.533355
21
86.637916
0
LINE
8
annotation
62
1
39
211
10
106.533355
20
86.637916
11
106.378961
21
86.419900
0
LINE
8
annotation
62
1
39
211
10
106.378961
20
86.419900
11
106.263177
21
86.176751
0
LINE
8
annotation
62
1
39
211
10
106.263177
20
86.176751
11
106.190446
21
85.912944
0
LINE
8
annotation
62
1
39
211
10
106.190446
20
85.912944
11
106.165215
21
85.632953
0
LINE
8
annotation
62
1
39
211
10
106.165215
20
85.632953
11
106.165215
21
85.632953
0
LINE
8
annotation
62
1
39
211
10
106.165215
20
85.632953
11
106.190461
21
85.351647
0
LINE
8
annotation
62
1
39
211
10
106.190461
20
85.351647
11
106.263227
21
85.086817
0
LINE
8
annotation
62
1
39
211
10
106.263227
20
85.086817
11
106.379059
21
84.842899
0
LINE
8
annotation
62
1
39
211
10
106.379059
20
84.842899
11
106.533500
21
84.624331
0
LINE
8
annotation
62
1
39
211
10
106.533500
20
84.624331
11
106.722094
21
84.435552
0
LINE
8
annotation
62
1
39
211
10
106.722094
20
84.435552
11
106.940386
21
84.280999
0
LINE
8
annotation
62
1
39
211
10
106.940386
20
84.280999
11
107.183919
21
84.165110
0
LINE
8
annotation
62
1
39
211
10
107.183919
20
84.165110
11
107.448238
21
84.092322
0
LINE
8
annotation
62
1
39
211
10
107.448238
20
84.092322
11
107.728886
21
84.067073
0
LINE
8
annotation
62
1
39
211
10
107.728886
20
84.067073
11
107.728886
21
84.067073
0
LINE
8
annotation
62
1
39
211
10
107.728886
20
84.067073
11
108.009535
21
84.092322
0
LINE
8
annotation
62
1
39
211
10
108.009535
20
84.092322
11
108.273854
21
84.165110
0
LINE
8
annotation
62
1
39
211
10
108.273854
20
84.165110
11
108.517387
21
84.280999
0
LINE
8
annotation
62
1
39
211
10
108.517387
20
84.280999
11
108.735679
21
84.435552
0
LINE
8
annotation
62
1
39
211
10
108.735679
20
84.435552
11
108.924273
21
84.624331
0
LINE
8
annotation
62
1
39
211
10
108.924273
20
84.624331
11
109.078714
21
84.842899
0
LINE
8
annotation
62
1
39
211
10
109.078714
20
84.842899
11
109.194545
21
85.086817
0
LINE
8
annotation
62
1
39
211
10
109.194545
20
85.086817
11
109.267312
21
85.351647
0
LINE
8
annotation
62
1
39
211
10
109.267312
20
85.351647
11
109.292558
21
85.632953
0
LINE
8
annotation
62
1
39
211
10
124.940673
20
140.131189
11
124.940673
21
140.131189
0
LINE
8
annotation
62
1
39
211
10
124.940673
20
140.131189
11
125.387837
21
140.297825
0
LINE
8
annotation
62
1
39
211
10
125.387837
20
140.297825
11
125.798278
21
140.523062
0
LINE
8
annotation
62
1
39
211
10
125.798278
20
140.523062
11
126.167754
21
140.801164
0
LINE
8
annotation
62
1
39
211
10
126.167754
20
140.801164
11
126.492025
21
141.126390
0
LINE
8
annotation
62
1
39
211
10
126.492025
20
141.126390
11
126.766849
21
141.493002
0
LINE
8
annotation
62
1
39
211
10
126.766849
20
141.493002
11
126.987984
21
141.895261
0
LINE
8
annotation
62
1
39
211
10
126.987984
20
141.895261
11
127.151189
21
142.327429
0
LINE
8
annotation
62
1
39
211
10
127.151189
20
142.327429
11
127.252222
21
142.783765
0
LINE
8
annotation
62
1
39
211
10
127.252222
20
142.783765
11
127.286842
21
143.258532
0
LINE
8
annotation
62
1
39
211
10
127.286842
20
143.258532
11
127.286842
21
145.606910
0
LINE
8
annotation
62
1
39
211
10
127.286842
20
145.606910
11
127.286842
21
145.606910
0
LINE
8
annotation
62
1
39
211
10
127.286842
20
145.606910
11
127.261669
21
145.888216
0
LINE
8
annotation
62
1
39
211
10
127.261669
20
145.888216
11
127.189084
21
146.153046
0
LINE
8
annotation
62
1
39
211
10
127.189084
20
146.153046
11
127.073489
21
146.396964
0
LINE
8
annotation
62
1
39
211
10
127.073489
20
146.396964
11
126.919284
21
146.615531
0
LINE
8
annotation
62
1
39
211
10
126.919284
20
146.615531
11
126.730872
21
146.804310
0
LINE
8
annotation
62
1
39
211
10
126.730872
20
146.804310
11
126.512653
21
146.958863
0
LINE
8
annotation
62
1
39
211
10
126.512653
20
146.958863
11
126.269029
21
147.074753
0
LINE
8
annotation
62
1
39
211
10
126.269029
20
147.074753
11
126.004401
21
147.147541
0
LINE
8
annotation
62
1
39
211
10
126.004401
20
147.147541
11
125.723171
21
147.172789
0
LINE
8
annotation
62
1
39
211
10
125.723171
20
147.172789
11
125.723171
21
147.172789
0
LINE
8
annotation
62
1
39
211
10
125.723171
20
147.172789
11
125.442522
21
147.147541
0
LINE
8
annotation
62
1
39
211
10
125.442522
20
147.147541
11
125.178204
21
147.074753
0
LINE
8
annotation
62
1
39
211
10
125.178204
20
147.074753
11
124.934670
21
146.958863
0
LINE
8
annotation
62
1
39
211
10
124.934670
20
146.958863
11
124.716379
21
146.804310
0
LINE
8
annotation
62
1
39
211
10
124.716379
20
146.804310
11
124.527785
21
146.615531
0
LINE
8
annotation
62
1
39
211
10
124.527785
20
146.615531
11
124.373344
21
146.396964
0
LINE
8
annotation
62
1
39
211
10
124.373344
20
146.396964
11
124.257512
21
146.153046
0
LINE
8
annotation
62
1
39
211
10
124.257512
20
146.153046
11
124.184745
21
145.888216
0
LINE
8
annotation
62
1
39
211
10
124.184745
20
145.888216
11
124.159499
21
145.606910
0
LINE
8
annotation
62
1
39
211
10
124.159499
20
145.606910
11
124.159499
21
144.823970
0
LINE
8
annotation
62
1
39
211
10
124.159499
20
144.823970
11
124.159499
21
144.823970
0
LINE
8
annotation
62
1
39
211
10
124.159499
20
144.823970
11
124.184745
21
144.542680
0
LINE
8
annotation
62
1
39
211
10
124.184745
20
144.542680
11
124.257512
21
144.277890
0
LINE
8
annotation
62
1
39
211
10
124.257512
20
144.277890
11
124.373344
21
144.034030
0
LINE
8
annotation
62
1
39
211
10
124.373344
20
144.034030
11
124.527785
21
143.815533
0
LINE
8
annotation
62
1
39
211
10
124.527785
20
143.815533
11
124.716379
21
143.626827
0
LINE
8
annotation
62
1
39
211
10
124.716379
20
143.626827
11
124.934670
21
143.472344
0
LINE
8
annotation
62
1
39
211
10
124.934670
20
143.472344
11
125.178204
21
143.356513
0
LINE
8
annotation
62
1
39
211
10
125.178204
20
143.356513
11
125.442522
21
143.283766
0
LINE
8
annotation
62
1
39
211
10
125.442522
20
143.283766
11
125.723171
21
143.258532
0
LINE
8
annotation
62
1
39
211
10
125.723171
20
143.258532
11
127.286842
21
143.258532
0
LINE
8
annotation
62
1
39
211
10
123.964096
20
139.250989
11
127.484896
21
139.250989
0
LINE
8
annotation
62
1
39
211
10
130.100589
20
193.637742
11
130.100589
21
200.411936
0
LINE
8
annotation
62
1
39
211
10
130.100589
20
200.411936
11
128.594599
21
198.905521
0
LINE
8
annotation
62
1
39
211
10
133.728815
20
193.727096
11
133.728815
21
193.727096
0
LINE
8
annotation
62
1
39
211
10
133.728815
20
193.727096
11
133.886256
21
193.668240
0
LINE
8
annotation
62
1
39
211
10
133.886256
20
193.668240
11
134.047725
21
193.639000
0
LINE
8
annotation
62
1
39
211
10
134.047725
20
193.639000
11
134.209571
21
193.638182
0
LINE
8
annotation
62
1
39
211
10
134.209571
20
193.638182
11
134.368145
21
193.664595
0
LINE
8
annotation
62
1
39
211
10
134.368145
20
193.664595
11
134.519795
21
193.717046
0
LINE
8
annotation
62
1
39
211
10
134.519795
20
193.717046
11
134.660873
21
193.794343
0
LINE
8
annotation
62
1
39
211
10
134.660873
20
193.794343
11
134.787726
21
193.895294
0
LINE
8
annotation
62
1
39
211
10
134.787726
20
193.895294
11
134.896706
21
194.018706
0
LINE
8
annotation
62
1
39
211
10
134.896706
20
194.018706
11
134.984161
21
194.163387
0
LINE
8
annotation
62
1
39
211
10
134.984161
20
194.163387
11
134.984161
21
194.163387
0
LINE
8
annotation
62
1
39
211
10
134.984161
20
194.163387
11
135.245096
21
194.774168
0
LINE
8
annotation
62
1
39
211
10
135.245096
20
194.774168
11
135.440797
21
195.402627
0
LINE
8
annotation
62
1
39
211
10
135.440797
20
195.402627
11
135.571264
21
196.043754
0
LINE
8
annotation
62
1
39
211
10
135.571264
20
196.043754
11
135.636497
21
196.692539
0
LINE
8
annotation
62
1
39
211
10
135.636497
20
196.692539
11
135.636497
21
197.343970
0
LINE
8
annotation
62
1
39
211
10
135.636497
20
197.343970
11
135.571264
21
197.993037
0
LINE
8
annotation
62
1
39
211
10
135.571264
20
197.993037
11
135.440797
21
198.634731
0
LINE
8
annotation
62
1
39
211
10
135.440797
20
198.634731
11
135.245096
21
199.264040
0
LINE
8
annotation
62
1
39
211
10
135.245096
20
199.264040
11
134.984161
21
199.875954
0
LINE
8
annotation
62
1
39
211
10
134.984161
20
199.875954
11
134.984161
21
199.875954
0
LINE
8
annotation
62
1
39
211
10
134.984161
20
199.875954
11
134.950978
21
199.937709
0
LINE
8
annotation
62
1
39
211
10
134.950978
20
199.937709
11
134.913358
21
199.996751
0
LINE
8
annotation
62
1
39
211
10
134.913358
20
199.996751
11
134.871584
21
200.052790
0
LINE
8
annotation
62
1
39
211
10
134.871584
20
200.052790
11
134.825939
21
200.105534
0
LINE
8
annotation
62
1
39
211
10
134.825939
20
200.105534
11
134.776707
21
200.154695
0
LINE
8
annotation
62
1
39
211
10
134.776707
20
200.154695
11
134.724171
21
200.199982
0
LINE
8
annotation
62
1
39
211
10
134.724171
20
200.199982
11
134.668614
21
200.241105
0
LINE
8
annotation
62
1
39
211
10
134.668614
20
200.241105
11
134.610319
21
200.277773
0
LINE
8
annotation
62
1
39
211
10
134.610319
20
200.277773
11
134.549569
21
200.309696
0
LINE
8
annotation
62
1
39
211
10
134.549569
20
200.309696
11
134.549569
21
200.309696
0
LINE
8
annotation
62
1
39
211
10
134.549569
20
200.309696
11
134.390879
21
200.369827
0
LINE
8
annotation
62
1
39
211
10
134.390879
20
200.369827
11
134.228464
21
200.400067
0
LINE
8
annotation
62
1
39
211
10
134.228464
20
200.400067
11
134.065934
21
200.401615
0
LINE
8
annotation
62
1
39
211
10
134.065934
20
200.401615
11
133.906898
21
200.375670
0
LINE
8
annotation
62
1
39
211
10
133.906898
20
200.375670
11
133.754962
21
200.323431
0
LINE
8
annotation
62
1
39
211
10
133.754962
20
200.323431
11
133.613736
21
200.246099
0
LINE
8
annotation
62
1
39
211
10
133.613736
20
200.246099
11
133.486828
21
200.144872
0
LINE
8
annotation
62
1
39
211
10
133.486828
20
200.144872
11
133.377847
21
200.020948
0
LINE
8
annotation
62
1
39
211
10
133.377847
20
200.020948
11
133.290400
21
199.875529
0
LINE
8
annotation
62
1
39
211
10
133.290400
20
199.875529
11
133.290400
21
199.875529
0
LINE
8
annotation
62
1
39
211
10
133.290400
20
199.875529
11
133.030724
21
199.264874
0
LINE
8
annotation
62
1
39
211
10
133.030724
20
199.264874
11
132.835968
21
198.636509
0
LINE
8
annotation
62
1
39
211
10
132.835968
20
198.636509
11
132.706130
21
197.995445
0
LINE
8
annotation
62
1
39
211
10
132.706130
20
197.995445
11
132.641211
21
197.346692
0
LINE
8
annotation
62
1
39
211
10
132.641211
20
197.346692
11
132.641211
21
196.695261
0
LINE
8
annotation
62
1
39
211
10
132.641211
20
196.695261
11
132.706130
21
196.046162
0
LINE
8
annotation
62
1
39
211
10
132.706130
20
196.046162
11
132.835968
21
195.404405
0
LINE
8
annotation
62
1
39
211
10
132.835968
20
195.404405
11
133.030724
21
194.775002
0
LINE
8
annotation
62
1
39
211
10
133.030724
20
194.775002
11
133.290400
21
194.162962
0
LINE
8
annotation
62
1
39
211
10
133.290400
20
194.162962
11
133.290400
21
194.162962
0
LINE
8
annotation
62
1
39
211
10
133.290400
20
194.162962
11
133.323463
21
194.101330
0
LINE
8
annotation
62
1
39
211
10
133.323463
20
194.101330
11
133.360805
21
194.042582
0
LINE
8
annotation
62
1
39
211
10
133.360805
20
194.042582
11
133.402270
21
193.986897
0
LINE
8
annotation
62
1
39
211
10
133.402270
20
193.986897
11
133.447699
21
193.934454
0
LINE
8
annotation
62
1
39
211
10
133.447699
20
193.934454
11
133.496937
21
193.885430
0
LINE
8
annotation
62
1
39
211
10
133.496937
20
193.885430
11
133.549824
21
193.840004
0
LINE
8
annotation
62
1
39
211
10
133.549824
20
193.840004
11
133.606205
21
193.798354
0
LINE
8
annotation
62
1
39
211
10
133.606205
20
193.798354
11
133.665921
21
193.760658
0
LINE
8
annotation
62
1
39
211
10
133.665921
20
193.760658
11
133.728815
21
193.727096
0
LINE
8
annotation
62
1
39
211
10
191.446987
20
224.780549
11
191.446987
21
231.822149
0
LINE
8
annotation
62
1
39
211
10
191.446987
20
231.822149
11
189.881549
21
230.256270
0
LINE
8
annotation
62
1
39
211
10
195.653024
20
224.780549
11
195.653024
21
231.822149
0
LINE
8
annotation
62
1
39
211
10
195.653024
20
231.822149
11
194.087587
21
230.256270
0
LINE
8
annotation
62
1
39
211
10
206.140761
20
243.288260
11
206.140761
21
250.048709
0
LINE
8
annotation
62
1
39
211
10
206.140761
20
250.048709
11
204.637827
21
248.545351
0
LINE
8
annotation
62
1
39
211
10
211.678705
20
243.288205
11
208.676228
21
243.288205
0
LINE
8
annotation
62
1
39
211
10
208.676228
20
243.288205
11
211.450615
21
247.754612
0
LINE
8
annotation
62
1
39
211
10
211.450615
20
247.754612
11
211.450615
21
247.754612
0
LINE
8
annotation
62
1
39
211
10
211.450615
20
247.754612
11
211.453931
21
247.758716
0
LINE
8
annotation
62
1
39
211
10
211.453931
20
247.758716
11
211.457112
21
247.762855
0
LINE
8
annotation
62
1
39
211
10
211.457112
20
247.762855
11
211.460177
21
247.767064
0
LINE
8
annotation
62
1
39
211
10
211.460177
20
247.767064
11
211.463149
21
247.771378
0
LINE
8
annotation
62
1
39
211
10
211.463149
20
247.771378
11
211.466047
21
247.775831
0
LINE
8
annotation
62
1
39
211
10
211.466047
20
247.775831
11
211.468892
21
247.780458
0
LINE
8
annotation
62
1
39
211
10
211.468892
20
247.780458
11
211.471706
21
247.785295
0
LINE
8
annotation
62
1
39
211
10
211.471706
20
247.785295
11
211.474510
21
247.790376
0
LINE
8
annotation
62
1
39
211
10
211.474510
20
247.790376
11
211.477324
21
247.795736
0
LINE
8
annotation
62
1
39
211
10
211.477324
20
247.795736
11
211.477324
21
247.795736
0
LINE
8
annotation
62
1
39
211
10
211.477324
20
247.795736
11
211.591878
21
248.041693
0
LINE
8
annotation
62
1
39
211
10
211.591878
20
248.041693
11
211.658798
21
248.296649
0
LINE
8
annotation
62
1
39
211
10
211.658798
20
248.296649
11
211.679725
21
248.554843
0
LINE
8
annotation
62
1
39
211
10
211.679725
20
248.554843
11
211.656299
21
248.810514
0
LINE
8
annotation
62
1
39
211
10
211.656299
20
248.810514
11
211.590159
21
249.057901
0
LINE
8
annotation
62
1
39
211
10
211.590159
20
249.057901
11
211.482946
21
249.291243
0
LINE
8
annotation
62
1
39
211
10
211.482946
20
249.291243
11
211.336299
21
249.504780
0
LINE
8
annotation
62
1
39
211
10
211.336299
20
249.504780
11
211.151859
21
249.692751
0
LINE
8
annotation
62
1
39
211
10
211.151859
20
249.692751
11
210.931265
21
249.849393
0
LINE
8
annotation
62
1
39
211
10
210.931265
20
249.849393
11
210.931265
21
249.849393
0
LINE
8
annotation
62
1
39
211
10
210.931265
20
249.849393
11
210.684625
21
249.962319
0
LINE
8
annotation
62
1
39
211
10
210.684625
20
249.962319
11
210.429278
21
250.028208
0
LINE
8
annotation
62
1
39
211
10
210.429278
20
250.028208
11
210.170934
21
250.048544
0
LINE
8
annotation
62
1
39
211
10
210.170934
20
250.048544
11
209.915301
21
250.024809
0
LINE
8
annotation
62
1
39
211
10
209.915301
20
250.024809
11
209.668089
21
249.958486
0
LINE
8
annotation
62
1
39
211
10
209.668089
20
249.958486
11
209.435004
21
249.851058
0
LINE
8
annotation
62
1
39
211
10
209.435004
20
249.851058
11
209.221757
21
249.704008
0
LINE
8
annotation
62
1
39
211
10
209.221757
20
249.704008
11
209.034055
21
249.518819
0
LINE
8
annotation
62
1
39
211
10
209.034055
20
249.518819
11
208.877608
21
249.296975
0
LINE
8
annotation
62
1
39
211
10
208.877608
20
249.296975
11
208.680467
21
248.918803
0
LINE
8
annotation
62
1
39
211
10
86.750127
20
128.184341
11
76.906913
21
113.947032
0
LINE
8
annotation
62
1
39
211
10
76.906913
20
113.947032
11
67.061847
21
128.184341
0
LINE
8
annotation
62
1
39
211
10
76.906913
20
115.092754
11
76.906913
21
98.667653
0
LINE
8
annotation
62
1
39
211
10
113.960101
20
113.425997
11
97.821893
21
113.425997
0
LINE
8
annotation
62
1
39
211
10
125.025389
20
105.212521
11
125.025389
21
105.212521
0
LINE
8
annotation
62
1
39
211
10
125.025389
20
105.212521
11
125.131206
21
104.034063
0
LINE
8
annotation
62
1
39
211
10
125.131206
20
104.034063
11
125.436208
21
102.925728
0
LINE
8
annotation
62
1
39
211
10
125.436208
20
102.925728
11
125.921716
21
101.905810
0
LINE
8
annotation
62
1
39
211
10
125.921716
20
101.905810
11
126.569054
21
100.992607
0
LINE
8
annotation
62
1
39
211
10
126.569054
20
100.992607
11
127.359546
21
100.204412
0
LINE
8
annotation
62
1
39
211
10
127.359546
20
100.204412
11
128.274515
21
99.559524
0
LINE
8
annotation
62
1
39
211
10
128.274515
20
99.559524
11
129.295283
21
99.076237
0
LINE
8
annotation
62
1
39
211
10
129.295283
20
99.076237
11
130.403174
21
98.772848
0
LINE
8
annotation
62
1
39
211
10
130.403174
20
98.772848
11
131.579511
21
98.667653
0
LINE
8
annotation
62
1
39
211
10
131.579511
20
98.667653
11
131.579511
21
98.667653
0
LINE
8
annotation
62
1
39
211
10
131.579511
20
98.667653
11
132.755849
21
98.772848
0
LINE
8
annotation
62
1
39
211
10
132.755849
20
98.772848
11
133.863740
21
99.076237
0
LINE
8
annotation
62
1
39
211
10
133.863740
20
99.076237
11
134.884508
21
99.559524
0
LINE
8
annotation
62
1
39
211
10
134.884508
20
99.559524
11
135.799476
21
100.204412
0
LINE
8
annotation
62
1
39
211
10
135.799476
20
100.204412
11
136.589968
21
100.992607
0
LINE
8
annotation
62
1
39
211
10
136.589968
20
100.992607
11
137.237307
21
101.905810
0
LINE
8
annotation
62
1
39
211
10
137.237307
20
101.905810
11
137.722815
21
102.925728
0
LINE
8
annotation
62
1
39
211
10
137.722815
20
102.925728
11
138.027816
21
104.034063
0
LINE
8
annotation
62
1
39
211
10
138.027816
20
104.034063
11
138.133634
21
105.212521
0
LINE
8
annotation
62
1
39
211
10
138.133634
20
105.212521
11
138.133634
21
108.477551
0
LINE
8
annotation
62
1
39
211
10
138.133634
20
108.477551
11
138.133634
21
108.477551
0
LINE
8
annotation
62
1
39
211
10
138.133634
20
108.477551
11
138.027877
21
109.656580
0
LINE
8
annotation
62
1
39
211
10
138.027877
20
109.656580
11
137.723028
21
110.766446
0
LINE
8
annotation
62
1
39
211
10
137.723028
20
110.766446
11
137.237718
21
111.788580
0
LINE
8
annotation
62
1
39
211
10
137.237718
20
111.788580
11
136.590578
21
112.704412
0
LINE
8
annotation
62
1
39
211
10
136.590578
20
112.704412
11
135.800238
21
113.495371
0
LINE
8
annotation
62
1
39
211
10
135.800238
20
113.495371
11
134.885330
21
114.142887
0
LINE
8
annotation
62
1
39
211
10
134.885330
20
114.142887
11
133.864486
21
114.628390
0
LINE
8
annotation
62
1
39
211
10
133.864486
20
114.628390
11
132.756336
21
114.933310
0
LINE
8
annotation
62
1
39
211
10
132.756336
20
114.933310
11
131.579511
21
115.039077
0
LINE
8
annotation
62
1
39
211
10
131.579511
20
115.039077
11
131.579511
21
115.039077
0
LINE
8
annotation
62
1
39
211
10
131.579511
20
115.039077
11
130.402687
21
114.933250
0
LINE
8
annotation
62
1
39
211
10
130.402687
20
114.933250
11
129.294537
21
114.628177
0
LINE
8
annotation
62
1
39
211
10
129.294537
20
114.628177
11
128.273692
21
114.142476
0
LINE
8
annotation
62
1
39
211
10
128.273692
20
114.142476
11
127.358785
21
113.494762
0
LINE
8
annotation
62
1
39
211
10
127.358785
20
113.494762
11
126.568445
21
112.703650
0
LINE
8
annotation
62
1
39
211
10
126.568445
20
112.703650
11
125.921305
21
111.787757
0
LINE
8
annotation
62
1
39
211
10
125.921305
20
111.787757
11
125.435994
21
110.765699
0
LINE
8
annotation
62
1
39
211
10
125.435994
20
110.765699
11
125.131145
21
109.656092
0
LINE
8
annotation
62
1
39
211
10
125.131145
20
109.656092
11
125.025389
21
108.477551
0
LINE
8
annotation
62
1
39
211
10
125.025389
20
108.477551
11
125.025389
21
105.212521
0
LINE
8
annotation
62
1
39
211
10
138.133634
20
121.602454
11
138.133634
21
121.602454
0
LINE
8
annotation
62
1
39
211
10
138.133634
20
121.602454
11
138.027877
21
122.776037
0
LINE
8
annotation
62
1
39
211
10
138.027877
20
122.776037
11
137.723028
21
123.881782
0
LINE
8
annotation
62
1
39
211
10
137.723028
20
123.881782
11
137.237718
21
124.900938
0
LINE
8
annotation
62
1
39
211
10
137.237718
20
124.900938
11
136.590578
21
125.814752
0
LINE
8
annotation
62
1
39
211
10
136.590578
20
125.814752
11
135.800238
21
126.604469
0
LINE
8
annotation
62
1
39
211
10
135.800238
20
126.604469
11
134.885330
21
127.251338
0
LINE
8
annotation
62
1
39
211
10
134.885330
20
127.251338
11
133.864486
21
127.736605
0
LINE
8
annotation
62
1
39
211
10
133.864486
20
127.736605
11
132.756336
21
128.041517
0
LINE
8
annotation
62
1
39
211
10
132.756336
20
128.041517
11
131.579511
21
128.147322
0
LINE
8
annotation
62
1
39
211
10
131.579511
20
128.147322
11
131.579511
21
128.147322
0
LINE
8
annotation
62
1
39
211
10
131.579511
20
128.147322
11
130.402687
21
128.041517
0
LINE
8
annotation
62
1
39
211
10
130.402687
20
128.041517
11
129.294537
21
127.736605
0
LINE
8
annotation
62
1
39
211
10
129.294537
20
127.736605
11
128.273692
21
127.251338
0
LINE
8
annotation
62
1
39
211
10
128.273692
20
127.251338
11
127.358785
21
126.604469
0
LINE
8
annotation
62
1
39
211
10
127.358785
20
126.604469
11
126.568445
21
125.814752
0
LINE
8
annotation
62
1
39
211
10
126.568445
20
125.814752
11
125.921305
21
124.900938
0
LINE
8
annotation
62
1
39
211
10
125.921305
20
124.900938
11
125.435994
21
123.881782
0
LINE
8
annotation
62
1
39
211
10
125.435994
20
123.881782
11
125.131145
21
122.776037
0
LINE
8
annotation
62
1
39
211
10
125.131145
20
122.776037
11
125.025389
21
121.602454
0
LINE
8
annotation
62
1
39
211
10
125.025389
20
121.602454
11
125.025389
21
121.602454
0
LINE
8
annotation
62
1
39
211
10
125.025389
20
121.602454
11
125.131206
21
120.423362
0
LINE
8
annotation
62
1
39
211
10
125.131206
20
120.423362
11
125.436208
21
119.313326
0
LINE
8
annotation
62
1
39
211
10
125.436208
20
119.313326
11
125.921716
21
118.290945
0
LINE
8
annotation
62
1
39
211
10
125.921716
20
118.290945
11
126.569054
21
117.374822
0
LINE
8
annotation
62
1
39
211
10
126.569054
20
117.374822
11
127.359546
21
116.583555
0
LINE
8
annotation
62
1
39
211
10
127.359546
20
116.583555
11
128.274515
21
115.935747
0
LINE
8
annotation
62
1
39
211
10
128.274515
20
115.935747
11
129.295283
21
115.449998
0
LINE
8
annotation
62
1
39
211
10
129.295283
20
115.449998
11
130.403174
21
115.144907
0
LINE
8
annotation
62
1
39
211
10
130.403174
20
115.144907
11
131.579511
21
115.039077
0
LINE
8
annotation
62
1
39
211
10
131.579511
20
115.039077
11
131.579511
21
115.039077
0
LINE
8
annotation
62
1
39
211
10
131.579511
20
115.039077
11
132.755849
21
115.144907
0
LINE
8
annotation
62
1
39
211
10
132.755849
20
115.144907
11
133.863740
21
115.449998
0
LINE
8
annotation
62
1
39
211
10
133.863740
20
115.449998
11
134.884508
21
115.935747
0
LINE
8
annotation
62
1
39
211
10
134.884508
20
115.935747
11
135.799476
21
116.583555
0
LINE
8
annotation
62
1
39
211
10
135.799476
20
116.583555
11
136.589968
21
117.374822
0
LINE
8
annotation
62
1
39
211
10
136.589968
20
117.374822
11
137.237307
21
118.290945
0
LINE
8
annotation
62
1
39
211
10
137.237307
20
118.290945
11
137.722815
21
119.313326
0
LINE
8
annotation
62
1
39
211
10
137.722815
20
119.313326
11
138.027816
21
120.423362
0
LINE
8
annotation
62
1
39
211
10
138.027816
20
120.423362
11
138.133634
21
121.602454
0
LINE
8
boundary
62
5
39
2
10
244.392174
20
204.457223
11
248.847488
21
203.612895
0
LINE
8
boundary
62
5
39
2
10
248.847488
20
203.612895
11
348.522995
21
203.612894
0
LINE
8
boundary
62
5
39
2
10
348.522995
20
203.612894
11
348.522995
21
199.561894
0
LINE
8
boundary
62
5
39
2
10
348.522995
20
199.561894
11
248.847488
21
199.561895
0
LINE
8
boundary
62
5
39
2
10
248.847488
20
199.561895
11
244.392174
21
199.121794
0
LINE
8
boundary
62
5
39
2
10
244.392174
20
199.121794
11
244.392174
21
150.680145
0
LINE
8
boundary
62
5
39
2
10
244.392174
20
150.680145
11
248.847488
21
150.240045
0
LINE
8
boundary
62
5
39
2
10
248.847488
20
150.240045
11
325.964985
21
150.240045
0
LINE
8
boundary
62
5
39
2
10
325.964985
20
150.240045
11
325.964984
21
146.189045
0
LINE
8
boundary
62
5
39
2
10
325.964984
20
146.189045
11
248.847488
21
146.189045
0
LINE
8
boundary
62
5
39
2
10
248.847488
20
146.189045
11
244.392174
21
145.748945
0
LINE
8
boundary
62
5
39
2
10
244.392174
20
145.748945
11
244.392174
21
90.710383
0
LINE
8
boundary
62
5
39
2
10
244.392174
20
90.710383
11
248.847488
21
90.270283
0
LINE
8
boundary
62
5
39
2
10
248.847488
20
90.270283
11
312.442349
21
90.270283
0
LINE
8
boundary
62
5
39
2
10
312.442349
20
90.270283
11
312.442349
21
86.219283
0
LINE
8
boundary
62
5
39
2
10
312.442349
20
86.219283
11
248.847488
21
86.219283
0
LINE
8
boundary
62
5
39
2
10
248.847488
20
86.219283
11
244.392174
21
85.779183
0
LINE
8
boundary
62
5
39
2
10
244.392174
20
85.779183
11
244.392174
21
37.121641
0
LINE
8
boundary
62
5
39
2
10
244.392174
20
37.121641
11
248.847488
21
36.681541
0
LINE
8
boundary
62
5
39
2
10
248.847488
20
36.681541
11
270.777218
21
36.681541
0
LINE
8
boundary
62
5
39
2
10
270.777218
20
36.681541
11
270.777218
21
32.630541
0
LINE
8
boundary
62
5
39
2
10
270.777218
20
32.630541
11
248.847488
21
32.630541
0
LINE
8
boundary
62
5
39
2
10
248.847488
20
32.630541
11
244.392174
21
32.190441
0
LINE
8
boundary
62
5
39
2
10
244.392174
20
32.190441
11
244.392174
21
6.687500
0
LINE
8
boundary
62
5
39
2
10
244.392174
20
6.687500
11
247.028200
21
8.206773
0
LINE
8
boundary
62
5
39
2
10
247.028200
20
8.206773
11
249.064399
21
9.290694
0
LINE
8
boundary
62
5
39
2
10
249.064399
20
9.290694
11
250.183310
21
9.874626
0
LINE
8
boundary
62
5
39
2
10
250.183310
20
9.874626
11
255.966096
21
13.056489
0
LINE
8
boundary
62
5
39
2
10
255.966096
20
13.056489
11
261.887608
21
16.033603
0
LINE
8
boundary
62
5
39
2
10
261.887608
20
16.033603
11
263.206229
21
16.926686
0
LINE
8
boundary
62
5
39
2
10
263.206229
20
16.926686
11
265.191324
21
18.189009
0
LINE
8
boundary
62
5
39
2
10
265.191324
20
18.189009
11
270.922917
21
21.433007
0
LINE
8
boundary
62
5
39
2
10
270.922917
20
21.433007
11
275.057229
21
23.666625
0
LINE
8
boundary
62
5
39
2
10
275.057229
20
23.666625
11
279.340750
21
26.113005
0
LINE
8
boundary
62
5
39
2
10
279.340750
20
26.113005
11
285.476641
21
29.589222
0
LINE
8
boundary
62
5
39
2
10
285.476641
20
29.589222
11
288.797965
21
31.188684
0
LINE
8
boundary
62
5
39
2
10
288.797965
20
31.188684
11
292.105856
21
32.468583
0
LINE
8
boundary
62
5
39
2
10
292.105856
20
32.468583
11
300.691701
21
36.226590
0
LINE
8
boundary
62
5
39
2
10
300.691701
20
36.226590
11
307.406763
21
39.269515
0
LINE
8
boundary
62
5
39
2
10
307.406763
20
39.269515
11
313.739951
21
41.759251
0
LINE
8
boundary
62
5
39
2
10
313.739951
20
41.759251
11
326.574013
21
47.841448
0
LINE
8
boundary
62
5
39
2
10
326.574013
20
47.841448
11
328.737714
21
48.960168
0
LINE
8
boundary
62
5
39
2
10
328.737714
20
48.960168
11
329.564919
21
49.501887
0
LINE
8
boundary
62
5
39
2
10
329.564919
20
49.501887
11
347.013645
21
59.331576
0
LINE
8
boundary
62
5
39
2
10
347.013645
20
59.331576
11
351.891460
21
62.636005
0
LINE
8
boundary
62
5
39
2
10
351.891460
20
62.636005
11
363.615487
21
71.948109
0
LINE
8
boundary
62
5
39
2
10
363.615487
20
71.948109
11
370.607120
21
77.796241
0
LINE
8
boundary
62
5
39
2
10
370.607120
20
77.796241
11
375.817394
21
83.582552
0
LINE
8
boundary
62
5
39
2
10
375.817394
20
83.582552
11
385.335927
21
93.965497
0
LINE
8
boundary
62
5
39
2
10
385.335927
20
93.965497
11
385.881309
21
94.811202
0
LINE
8
boundary
62
5
39
2
10
385.881309
20
94.811202
11
387.952196
21
98.488461
0
LINE
8
boundary
62
5
39
2
10
387.952196
20
98.488461
11
393.585673
21
109.106915
0
LINE
8
boundary
62
5
39
2
10
393.585673
20
109.106915
11
394.818175
21
111.977817
0
LINE
8
boundary
62
5
39
2
10
394.818175
20
111.977817
11
399.488338
21
123.609694
0
LINE
8
boundary
62
5
39
2
10
399.488338
20
123.609694
11
400.927140
21
129.993164
0
LINE
8
boundary
62
5
39
2
10
400.927140
20
129.993164
11
404.413260
21
138.902921
0
LINE
8
boundary
62
5
39
2
10
404.413260
20
138.902921
11
406.167841
21
145.736490
0
LINE
8
boundary
62
5
39
2
10
406.167841
20
145.736490
11
408.645286
21
152.223470
0
LINE
8
boundary
62
5
39
2
10
408.645286
20
152.223470
11
413.072137
21
158.011750
0
LINE
8
boundary
62
5
39
2
10
413.072137
20
158.011750
11
414.413456
21
160.172535
0
LINE
8
boundary
62
5
39
2
10
414.413456
20
160.172535
11
418.937029
21
164.009207
0
LINE
8
boundary
62
5
39
2
10
418.937029
20
164.009207
11
420.304490
21
165.429365
0
LINE
8
boundary
62
5
39
2
10
420.304490
20
165.429365
11
420.833078
21
165.672065
0
LINE
8
boundary
62
5
39
2
10
420.833078
20
165.672065
11
426.181476
21
172.140080
0
LINE
8
boundary
62
5
39
2
10
426.181476
20
172.140080
11
429.415570
21
173.524460
0
LINE
8
boundary
62
5
39
2
10
429.415570
20
173.524460
11
433.784738
21
178.794124
0
LINE
8
boundary
62
5
39
2
10
433.784738
20
178.794124
11
437.632935
21
181.861682
0
LINE
8
boundary
62
5
39
2
10
437.632935
20
181.861682
11
443.070449
21
186.713247
0
LINE
8
boundary
62
5
39
2
10
443.070449
20
186.713247
11
447.299355
21
192.729449
0
LINE
8
boundary
62
5
39
2
10
447.299355
20
192.729449
11
450.598358
21
198.447096
0
LINE
8
boundary
62
5
39
2
10
450.598358
20
198.447096
11
455.543592
21
206.432904
0
LINE
8
boundary
62
5
39
2
10
455.543592
20
206.432904
11
457.304259
21
211.397028
0
LINE
8
boundary
62
5
39
2
10
457.304259
20
211.397028
11
460.299254
21
219.219618
0
LINE
8
boundary
62
5
39
2
10
460.299254
20
219.219618
11
461.229203
21
223.358055
0
LINE
8
boundary
62
5
39
2
10
461.229203
20
223.358055
11
461.355259
21
230.360381
0
LINE
8
boundary
62
5
39
2
10
461.355259
20
230.360381
11
461.218281
21
232.700308
0
LINE
8
boundary
62
5
39
2
10
461.218281
20
232.700308
11
459.029856
21
239.702736
0
LINE
8
boundary
62
5
39
2
10
459.029856
20
239.702736
11
458.381564
21
240.742636
0
LINE
8
boundary
62
5
39
2
10
458.381564
20
240.742636
11
451.625262
21
251.943021
0
LINE
8
boundary
62
5
39
2
10
451.625262
20
251.943021
11
442.017427
21
257.518717
0
LINE
8
boundary
62
5
39
2
10
442.017427
20
257.518717
11
438.987928
21
258.961175
0
LINE
8
boundary
62
5
39
2
10
438.987928
20
258.961175
11
431.389657
21
260.386284
0
LINE
8
boundary
62
5
39
2
10
431.389657
20
260.386284
11
423.181938
21
262.505364
0
LINE
8
boundary
62
5
39
2
10
423.181938
20
262.505364
11
420.182876
21
262.441605
0
LINE
8
boundary
62
5
39
2
10
420.182876
20
262.441605
11
410.167850
21
261.444211
0
LINE
8
boundary
62
5
39
2
10
410.167850
20
261.444211
11
408.081743
21
261.215961
0
LINE
8
boundary
62
5
39
2
10
408.081743
20
261.215961
11
407.154908
21
261.063780
0
LINE
8
boundary
62
5
39
2
10
407.154908
20
261.063780
11
395.420176
21
258.506886
0
LINE
8
boundary
62
5
39
2
10
395.420176
20
258.506886
11
390.631191
21
257.132930
0
LINE
8
boundary
62
5
39
2
10
390.631191
20
257.132930
11
383.367010
21
255.126514
0
LINE
8
boundary
62
5
39
2
10
383.367010
20
255.126514
11
378.783810
21
253.696640
0
LINE
8
boundary
62
5
39
2
10
378.783810
20
253.696640
11
383.239124
21
253.256540
0
LINE
8
boundary
62
5
39
2
10
383.239124
20
253.256540
11
411.528437
21
253.256540
0
LINE
8
boundary
62
5
39
2
10
411.528437
20
253.256540
11
411.528437
21
249.205540
0
LINE
8
boundary
62
5
39
2
10
411.528437
20
249.205540
11
367.822883
21
249.205540
0
LINE
8
boundary
62
5
39
2
10
367.822883
20
249.205540
11
363.367569
21
248.765440
0
LINE
8
boundary
62
5
39
2
10
363.367569
20
248.765440
11
362.288367
21
248.396070
0
LINE
8
boundary
62
5
39
2
10
362.288367
20
248.396070
11
358.873624
21
246.692958
0
LINE
8
boundary
62
5
39
2
10
358.873624
20
246.692958
11
352.133906
21
244.367793
0
LINE
8
boundary
62
5
39
2
10
352.133906
20
244.367793
11
348.608480
21
242.978322
0
LINE
8
boundary
62
5
39
2
10
348.608480
20
242.978322
11
347.905951
21
242.780460
0
LINE
8
boundary
62
5
39
2
10
347.905951
20
242.780460
11
344.022516
21
239.689540
0
LINE
8
boundary
62
5
39
2
10
344.022516
20
239.689540
11
341.886973
21
239.280122
0
LINE
8
boundary
62
5
39
2
10
341.886973
20
239.280122
11
337.583508
21
236.988354
0
LINE
8
boundary
62
5
39
2
10
337.583508
20
236.988354
11
334.014429
21
236.246980
0
LINE
8
boundary
62
5
39
2
10
334.014429
20
236.246980
11
331.526495
21
235.329504
0
LINE
8
boundary
62
5
39
2
10
331.526495
20
235.329504
11
335.981809
21
234.889404
0
LINE
8
boundary
62
5
39
2
10
335.981809
20
234.889404
11
389.626530
21
234.889404
0
LINE
8
boundary
62
5
39
2
10
389.626530
20
234.889404
11
389.626530
21
230.838404
0
LINE
8
boundary
62
5
39
2
10
389.626530
20
230.838404
11
314.515140
21
230.838405
0
LINE
8
boundary
62
5
39
2
10
314.515140
20
230.838405
11
310.059826
21
230.398304
0
LINE
8
boundary
62
5
39
2
10
310.059826
20
230.398304
11
308.801393
21
230.160375
0
LINE
8
boundary
62
5
39
2
10
308.801393
20
230.160375
11
304.708062
21
229.571446
0
LINE
8
boundary
62
5
39
2
10
304.708062
20
229.571446
11
300.993964
21
228.718647
0
LINE
8
boundary
62
5
39
2
10
300.993964
20
228.718647
11
294.187038
21
228.112403
0
LINE
8
boundary
62
5
39
2
10
294.187038
20
228.112403
11
293.657315
21
227.981791
0
LINE
8
boundary
62
5
39
2
10
293.657315
20
227.981791
11
286.434769
21
226.275245
0
LINE
8
boundary
62
5
39
2
10
286.434769
20
226.275245
11
280.123386
21
225.377334
0
LINE
8
boundary
62
5
39
2
10
280.123386
20
225.377334
11
278.738385
21
224.966603
0
LINE
8
boundary
62
5
39
2
10
278.738385
20
224.966603
11
270.829287
21
222.583230
0
LINE
8
boundary
62
5
39
2
10
270.829287
20
222.583230
11
269.323347
21
222.230005
0
LINE
8
boundary
62
5
39
2
10
269.323347
20
222.230005
11
258.911645
21
217.280081
0
LINE
8
boundary
62
5
39
2
10
258.911645
20
217.280081
11
257.384637
21
216.498544
0
LINE
8
boundary
62
5
39
2
10
257.384637
20
216.498544
11
256.192794
21
215.364742
0
LINE
8
boundary
62
5
39
2
10
256.192794
20
215.364742
11
244.501407
21
204.689570
0
LINE
8
boundary
62
5
39
2
10
244.501407
20
204.689570
11
244.392174
21
204.457223
0
LINE
8
annotation
62
1
39
211
10
279.753334
20
31.135241
11
281.318772
21
38.176841
0
LINE
8
annotation
62
1
39
211
10
281.318772
20
38.176841
11
278.187455
21
38.176841
0
LINE
8
annotation
62
1
39
211
10
281.318772
20
35.041107
11
279.753334
21
35.041107
0
LINE
8
annotation
62
1
39
211
10
319.854794
20
86.285226
11
319.854794
21
86.285226
0
LINE
8
annotation
62
1
39
211
10
319.854794
20
86.285226
11
319.880040
21
86.004071
0
LINE
8
annotation
62
1
39
211
10
319.880040
20
86.004071
11
319.952807
21
85.739646
0
LINE
8
annotation
62
1
39
211
10
319.952807
20
85.739646
11
320.068639
21
85.496316
0
LINE
8
annotation
62
1
39
211
10
320.068639
20
85.496316
11
320.223080
21
85.278446
0
LINE
8
annotation
62
1
39
211
10
320.223080
20
85.278446
11
320.411674
21
85.090400
0
LINE
8
annotation
62
1
39
211
10
320.411674
20
85.090400
11
320.629965
21
84.936543
0
LINE
8
annotation
62
1
39
211
10
320.629965
20
84.936543
11
320.873498
21
84.821241
0
LINE
8
annotation
62
1
39
211
10
320.873498
20
84.821241
11
321.137817
21
84.748859
0
LINE
8
annotation
62
1
39
211
10
321.137817
20
84.748859
11
321.418466
21
84.723762
0
LINE
8
annotation
62
1
39
211
10
321.418466
20
84.723762
11
321.418466
21
84.723762
0
LINE
8
annotation
62
1
39
211
10
321.418466
20
84.723762
11
321.699114
21
84.748859
0
LINE
8
annotation
62
1
39
211
10
321.699114
20
84.748859
11
321.963433
21
84.821241
0
LINE
8
annotation
62
1
39
211
10
321.963433
20
84.821241
11
322.206966
21
84.936543
0
LINE
8
annotation
62
1
39
211
10
322.206966
20
84.936543
11
322.425258
21
85.090400
0
LINE
8
annotation
62
1
39
211
10
322.425258
20
85.090400
11
322.613852
21
85.278446
0
LINE
8
annotation
62
1
39
211
10
322.613852
20
85.278446
11
322.768293
21
85.496316
0
LINE
8
annotation
62
1
39
211
10
322.768293
20
85.496316
11
322.884125
21
85.739646
0
LINE
8
annotation
62
1
39
211
10
322.884125
20
85.739646
11
322.956892
21
86.004071
0
LINE
8
annotation
62
1
39
211
10
322.956892
20
86.004071
11
322.982137
21
86.285226
0
LINE
8
annotation
62
1
39
211
10
322.982137
20
86.285226
11
322.982137
21
87.064191
0
LINE
8
annotation
62
1
39
211
10
322.982137
20
87.064191
11
322.982137
21
87.064191
0
LINE
8
annotation
62
1
39
211
10
322.982137
20
87.064191
11
322.956906
21
87.345482
0
LINE
8
annotation
62
1
39
211
10
322.956906
20
87.345482
11
322.884176
21
87.610272
0
LINE
8
annotation
62
1
39
211
10
322.884176
20
87.610272
11
322.768391
21
87.854131
0
LINE
8
annotation
62
1
39
211
10
322.768391
20
87.854131
11
322.613998
21
88.072628
0
LINE
8
annotation
62
1
39
211
10
322.613998
20
88.072628
11
322.425440
21
88.261334
0
LINE
8
annotation
62
1
39
211
10
322.425440
20
88.261334
11
322.207163
21
88.415817
0
LINE
8
annotation
62
1
39
211
10
322.207163
20
88.415817
11
321.963611
21
88.531648
0
LINE
8
annotation
62
1
39
211
10
321.963611
20
88.531648
11
321.699231
21
88.604395
0
LINE
8
annotation
62
1
39
211
10
321.699231
20
88.604395
11
321.418466
21
88.629629
0
LINE
8
annotation
62
1
39
211
10
321.418466
20
88.629629
11
321.418466
21
88.629629
0
LINE
8
annotation
62
1
39
211
10
321.418466
20
88.629629
11
321.137701
21
88.604381
0
LINE
8
annotation
62
1
39
211
10
321.137701
20
88.604381
11
320.873320
21
88.531597
0
LINE
8
annotation
62
1
39
211
10
320.873320
20
88.531597
11
320.629769
21
88.415719
0
LINE
8
annotation
62
1
39
211
10
320.629769
20
88.415719
11
320.411492
21
88.261189
0
LINE
8
annotation
62
1
39
211
10
320.411492
20
88.261189
11
320.222934
21
88.072447
0
LINE
8
annotation
62
1
39
211
10
320.222934
20
88.072447
11
320.068540
21
87.853935
0
LINE
8
annotation
62
1
39
211
10
320.068540
20
87.853935
11
319.952756
21
87.610094
0
LINE
8
annotation
62
1
39
211
10
319.952756
20
87.610094
11
319.880026
21
87.345365
0
LINE
8
annotation
62
1
39
211
10
319.880026
20
87.345365
11
319.854794
21
87.064191
0
LINE
8
annotation
62
1
39
211
10
319.854794
20
87.064191
11
319.854794
21
86.285226
0
LINE
8
annotation
62
1
39
211
10
322.982137
20
90.195508
11
322.982137
21
90.195508
0
LINE
8
annotation
62
1
39
211
10
322.982137
20
90.195508
11
322.956906
21
90.475500
0
LINE
8
annotation
62
1
39
211
10
322.956906
20
90.475500
11
322.884176
21
90.739307
0
LINE
8
annotation
62
1
39
211
10
322.884176
20
90.739307
11
322.768391
21
90.982455
0
LINE
8
annotation
62
1
39
211
10
322.768391
20
90.982455
11
322.613998
21
91.200471
0
LINE
8
annotation
62
1
39
211
10
322.613998
20
91.200471
11
322.425440
21
91.388881
0
LINE
8
annotation
62
1
39
211
10
322.425440
20
91.388881
11
322.207163
21
91.543209
0
LINE
8
annotation
62
1
39
211
10
322.207163
20
91.543209
11
321.963611
21
91.658984
0
LINE
8
annotation
62
1
39
211
10
321.963611
20
91.658984
11
321.699231
21
91.731729
0
LINE
8
annotation
62
1
39
211
10
321.699231
20
91.731729
11
321.418466
21
91.756972
0
LINE
8
annotation
62
1
39
211
10
321.418466
20
91.756972
11
321.418466
21
91.756972
0
LINE
8
annotation
62
1
39
211
10
321.418466
20
91.756972
11
321.137701
21
91.731729
0
LINE
8
annotation
62
1
39
211
10
321.137701
20
91.731729
11
320.873320
21
91.658984
0
LINE
8
annotation
62
1
39
211
10
320.873320
20
91.658984
11
320.629769
21
91.543209
0
LINE
8
annotation
62
1
39
211
10
320.629769
20
91.543209
11
320.411492
21
91.388881
0
LINE
8
annotation
62
1
39
211
10
320.411492
20
91.388881
11
320.222934
21
91.200471
0
LINE
8
annotation
62
1
39
211
10
320.222934
20
91.200471
11
320.068540
21
90.982455
0
LINE
8
annotation
62
1
39
211
10
320.068540
20
90.982455
11
319.952756
21
90.739307
0
LINE
8
annotation
62
1
39
211
10
319.952756
20
90.739307
11
319.880026
21
90.475500
0
LINE
8
annotation
62
1
39
211
10
319.880026
20
90.475500
11
319.854794
21
90.195508
0
LINE
8
annotation
62
1
39
211
10
319.854794
20
90.195508
11
319.854794
21
90.195508
0
LINE
8
annotation
62
1
39
211
10
319.854794
20
90.195508
11
319.880040
21
89.914203
0
LINE
8
annotation
62
1
39
211
10
319.880040
20
89.914203
11
319.952807
21
89.649372
0
LINE
8
annotation
62
1
39
211
10
319.952807
20
89.649372
11
320.068639
21
89.405454
0
LINE
8
annotation
62
1
39
211
10
320.068639
20
89.405454
11
320.223080
21
89.186887
0
LINE
8
annotation
62
1
39
211
10
320.223080
20
89.186887
11
320.411674
21
88.998108
0
LINE
8
annotation
62
1
39
211
10
320.411674
20
88.998108
11
320.629965
21
88.843555
0
LINE
8
annotation
62
1
39
211
10
320.629965
20
88.843555
11
320.873498
21
88.727666
0
LINE
8
annotation
62
1
39
211
10
320.873498
20
88.727666
11
321.137817
21
88.654878
0
LINE
8
annotation
62
1
39
211
10
321.137817
20
88.654878
11
321.418466
21
88.629629
0
LINE
8
annotation
62
1
39
211
10
321.418466
20
88.629629
11
321.418466
21
88.629629
0
LINE
8
annotation
62
1
39
211
10
321.418466
20
88.629629
11
321.699114
21
88.654878
0
LINE
8
annotation
62
1
39
211
10
321.699114
20
88.654878
11
321.963433
21
88.727666
0
LINE
8
annotation
62
1
39
211
10
321.963433
20
88.727666
11
322.206966
21
88.843555
0
LINE
8
annotation
62
1
39
211
10
322.206966
20
88.843555
11
322.425258
21
88.998108
0
LINE
8
annotation
62
1
39
211
10
322.425258
20
88.998108
11
322.613852
21
89.186887
0
LINE
8
annotation
62
1
39
211
10
322.613852
20
89.186887
11
322.768293
21
89.405454
0
LINE
8
annotation
62
1
39
211
10
322.768293
20
89.405454
11
322.884125
21
89.649372
0
LINE
8
annotation
62
1
39
211
10
322.884125
20
89.649372
11
322.956892
21
89.914203
0
LINE
8
annotation
62
1
39
211
10
322.956892
20
89.914203
11
322.982137
21
90.195508
0
LINE
8
annotation
62
1
39
211
10
334.158162
20
144.693745
11
334.158162
21
144.693745
0
LINE
8
annotation
62
1
39
211
10
334.158162
20
144.693745
11
334.605325
21
144.860380
0
LINE
8
annotation
62
1
39
211
10
334.605325
20
144.860380
11
335.015766
21
145.085618
0
LINE
8
annotation
62
1
39
211
10
335.015766
20
145.085618
11
335.385243
21
145.363719
0
LINE
8
annotation
62
1
39
211
10
335.385243
20
145.363719
11
335.709514
21
145.688945
0
LINE
8
annotation
62
1
39
211
10
335.709514
20
145.688945
11
335.984338
21
146.055557
0
LINE
8
annotation
62
1
39
211
10
335.984338
20
146.055557
11
336.205473
21
146.457817
0
LINE
8
annotation
62
1
39
211
10
336.205473
20
146.457817
11
336.368678
21
146.889984
0
LINE
8
annotation
62
1
39
211
10
336.368678
20
146.889984
11
336.469711
21
147.346321
0
LINE
8
annotation
62
1
39
211
10
336.469711
20
147.346321
11
336.504331
21
147.821088
0
LINE
8
annotation
62
1
39
211
10
336.504331
20
147.821088
11
336.504331
21
150.169465
0
LINE
8
annotation
62
1
39
211
10
336.504331
20
150.169465
11
336.504331
21
150.169465
0
LINE
8
annotation
62
1
39
211
10
336.504331
20
150.169465
11
336.479158
21
150.450771
0
LINE
8
annotation
62
1
39
211
10
336.479158
20
150.450771
11
336.406573
21
150.715602
0
LINE
8
annotation
62
1
39
211
10
336.406573
20
150.715602
11
336.290978
21
150.959520
0
LINE
8
annotation
62
1
39
211
10
336.290978
20
150.959520
11
336.136773
21
151.178087
0
LINE
8
annotation
62
1
39
211
10
336.136773
20
151.178087
11
335.948361
21
151.366866
0
LINE
8
annotation
62
1
39
211
10
335.948361
20
151.366866
11
335.730142
21
151.521419
0
LINE
8
annotation
62
1
39
211
10
335.730142
20
151.521419
11
335.486518
21
151.637308
0
LINE
8
annotation
62
1
39
211
10
335.486518
20
151.637308
11
335.221890
21
151.710096
0
LINE
8
annotation
62
1
39
211
10
335.221890
20
151.710096
11
334.940660
21
151.735345
0
LINE
8
annotation
62
1
39
211
10
334.940660
20
151.735345
11
334.940660
21
151.735345
0
LINE
8
annotation
62
1
39
211
10
334.940660
20
151.735345
11
334.660011
21
151.710096
0
LINE
8
annotation
62
1
39
211
10
334.660011
20
151.710096
11
334.395692
21
151.637308
0
LINE
8
annotation
62
1
39
211
10
334.395692
20
151.637308
11
334.152159
21
151.521419
0
LINE
8
annotation
62
1
39
211
10
334.152159
20
151.521419
11
333.933868
21
151.366866
0
LINE
8
annotation
62
1
39
211
10
333.933868
20
151.366866
11
333.745273
21
151.178087
0
LINE
8
annotation
62
1
39
211
10
333.745273
20
151.178087
11
333.590832
21
150.959520
0
LINE
8
annotation
62
1
39
211
10
333.590832
20
150.959520
11
333.475001
21
150.715602
0
LINE
8
annotation
62
1
39
211
10
333.475001
20
150.715602
11
333.402234
21
150.450771
0
LINE
8
annotation
62
1
39
211
10
333.402234
20
150.450771
11
333.376988
21
150.169465
0
LINE
8
annotation
62
1
39
211
10
333.376988
20
150.169465
11
333.376988
21
149.386526
0
LINE
8
annotation
62
1
39
211
10
333.376988
20
149.386526
11
333.376988
21
149.386526
0
LINE
8
annotation
62
1
39
211
10
333.376988
20
149.386526
11
333.402234
21
149.105235
0
LINE
8
annotation
62
1
39
211
10
333.402234
20
149.105235
11
333.475001
21
148.840445
0
LINE
8
annotation
62
1
39
211
10
333.475001
20
148.840445
11
333.590832
21
148.596586
0
LINE
8
annotation
62
1
39
211
10
333.590832
20
148.596586
11
333.745273
21
148.378088
0
LINE
8
annotation
62
1
39
211
10
333.745273
20
148.378088
11
333.933868
21
148.189383
0
LINE
8
annotation
62
1
39
211
10
333.933868
20
148.189383
11
334.152159
21
148.034899
0
LINE
8
annotation
62
1
39
211
10
334.152159
20
148.034899
11
334.395692
21
147.919069
0
LINE
8
annotation
62
1
39
211
10
334.395692
20
147.919069
11
334.660011
21
147.846321
0
LINE
8
annotation
62
1
39
211
10
334.660011
20
147.846321
11
334.940660
21
147.821088
0
LINE
8
annotation
62
1
39
211
10
334.940660
20
147.821088
11
336.504331
21
147.821088
0
LINE
8
annotation
62
1
39
211
10
333.181585
20
143.813545
11
336.702385
21
143.813545
0
LINE
8
annotation
62
1
39
211
10
355.484548
20
198.200297
11
355.484548
21
204.974492
0
LINE
8
annotation
62
1
39
211
10
355.484548
20
204.974492
11
353.978558
21
203.468077
0
LINE
8
annotation
62
1
39
211
10
359.112774
20
198.289651
11
359.112774
21
198.289651
0
LINE
8
annotation
62
1
39
211
10
359.112774
20
198.289651
11
359.270215
21
198.230795
0
LINE
8
annotation
62
1
39
211
10
359.270215
20
198.230795
11
359.431684
21
198.201555
0
LINE
8
annotation
62
1
39
211
10
359.431684
20
198.201555
11
359.593530
21
198.200738
0
LINE
8
annotation
62
1
39
211
10
359.593530
20
198.200738
11
359.752104
21
198.227150
0
LINE
8
annotation
62
1
39
211
10
359.752104
20
198.227150
11
359.903754
21
198.279602
0
LINE
8
annotation
62
1
39
211
10
359.903754
20
198.279602
11
360.044832
21
198.356899
0
LINE
8
annotation
62
1
39
211
10
360.044832
20
198.356899
11
360.171685
21
198.457849
0
LINE
8
annotation
62
1
39
211
10
360.171685
20
198.457849
11
360.280665
21
198.581261
0
LINE
8
annotation
62
1
39
211
10
360.280665
20
198.581261
11
360.368120
21
198.725942
0
LINE
8
annotation
62
1
39
211
10
360.368120
20
198.725942
11
360.368120
21
198.725942
0
LINE
8
annotation
62
1
39
211
10
360.368120
20
198.725942
11
360.629055
21
199.336723
0
LINE
8
annotation
62
1
39
211
10
360.629055
20
199.336723
11
360.824756
21
199.965183
0
LINE
8
annotation
62
1
39
211
10
360.824756
20
199.965183
11
360.955223
21
200.606310
0
LINE
8
annotation
62
1
39
211
10
360.955223
20
200.606310
11
361.020457
21
201.255094
0
LINE
8
annotation
62
1
39
211
10
361.020457
20
201.255094
11
361.020457
21
201.906525
0
LINE
8
annotation
62
1
39
211
10
361.020457
20
201.906525
11
360.955223
21
202.555593
0
LINE
8
annotation
62
1
39
211
10
360.955223
20
202.555593
11
360.824756
21
203.197286
0
LINE
8
annotation
62
1
39
211
10
360.824756
20
203.197286
11
360.629055
21
203.826595
0
LINE
8
annotation
62
1
39
211
10
360.629055
20
203.826595
11
360.368120
21
204.438509
0
LINE
8
annotation
62
1
39
211
10
360.368120
20
204.438509
11
360.368120
21
204.438509
0
LINE
8
annotation
62
1
39
211
10
360.368120
20
204.438509
11
360.334937
21
204.500265
0
LINE
8
annotation
62
1
39
211
10
360.334937
20
204.500265
11
360.297317
21
204.559307
0
LINE
8
annotation
62
1
39
211
10
360.297317
20
204.559307
11
360.255543
21
204.615345
0
LINE
8
annotation
62
1
39
211
10
360.255543
20
204.615345
11
360.209898
21
204.668090
0
LINE
8
annotation
62
1
39
211
10
360.209898
20
204.668090
11
360.160666
21
204.717251
0
LINE
8
annotation
62
1
39
211
10
360.160666
20
204.717251
11
360.108130
21
204.762538
0
LINE
8
annotation
62
1
39
211
10
360.108130
20
204.762538
11
360.052573
21
204.803660
0
LINE
8
annotation
62
1
39
211
10
360.052573
20
204.803660
11
359.994278
21
204.840328
0
LINE
8
annotation
62
1
39
211
10
359.994278
20
204.840328
11
359.933529
21
204.872252
0
LINE
8
annotation
62
1
39
211
10
359.933529
20
204.872252
11
359.933529
21
204.872252
0
LINE
8
annotation
62
1
39
211
10
359.933529
20
204.872252
11
359.774838
21
204.932383
0
LINE
8
annotation
62
1
39
211
10
359.774838
20
204.932383
11
359.612423
21
204.962622
0
LINE
8
annotation
62
1
39
211
10
359.612423
20
204.962622
11
359.449893
21
204.964170
0
LINE
8
annotation
62
1
39
211
10
359.449893
20
204.964170
11
359.290857
21
204.938225
0
LINE
8
annotation
62
1
39
211
10
359.290857
20
204.938225
11
359.138921
21
204.885987
0
LINE
8
annotation
62
1
39
211
10
359.138921
20
204.885987
11
358.997695
21
204.808654
0
LINE
8
annotation
62
1
39
211
10
358.997695
20
204.808654
11
358.870787
21
204.707427
0
LINE
8
annotation
62
1
39
211
10
358.870787
20
204.707427
11
358.761806
21
204.583504
0
LINE
8
annotation
62
1
39
211
10
358.761806
20
204.583504
11
358.674359
21
204.438085
0
LINE
8
annotation
62
1
39
211
10
358.674359
20
204.438085
11
358.674359
21
204.438085
0
LINE
8
annotation
62
1
39
211
10
358.674359
20
204.438085
11
358.414683
21
203.827429
0
LINE
8
annotation
62
1
39
211
10
358.414683
20
203.827429
11
358.219927
21
203.199064
0
LINE
8
annotation
62
1
39
211
10
358.219927
20
203.199064
11
358.090089
21
202.558000
0
LINE
8
annotation
62
1
39
211
10
358.090089
20
202.558000
11
358.025170
21
201.909247
0
LINE
8
annotation
62
1
39
211
10
358.025170
20
201.909247
11
358.025170
21
201.257816
0
LINE
8
annotation
62
1
39
211
10
358.025170
20
201.257816
11
358.090089
21
200.608717
0
LINE
8
annotation
62
1
39
211
10
358.090089
20
200.608717
11
358.219927
21
199.966961
0
LINE
8
annotation
62
1
39
211
10
358.219927
20
199.966961
11
358.414683
21
199.337557
0
LINE
8
annotation
62
1
39
211
10
358.414683
20
199.337557
11
358.674359
21
198.725517
0
LINE
8
annotation
62
1
39
211
10
358.674359
20
198.725517
11
358.674359
21
198.725517
0
LINE
8
annotation
62
1
39
211
10
358.674359
20
198.725517
11
358.707422
21
198.663885
0
LINE
8
annotation
62
1
39
211
10
358.707422
20
198.663885
11
358.744764
21
198.605137
0
LINE
8
annotation
62
1
39
211
10
358.744764
20
198.605137
11
358.786229
21
198.549453
0
LINE
8
annotation
62
1
39
211
10
358.786229
20
198.549453
11
358.831658
21
198.497009
0
LINE
8
annotation
62
1
39
211
10
358.831658
20
198.497009
11
358.880896
21
198.447985
0
LINE
8
annotation
62
1
39
211
10
358.880896
20
198.447985
11
358.933783
21
198.402559
0
LINE
8
annotation
62
1
39
211
10
358.933783
20
198.402559
11
358.990164
21
198.360909
0
LINE
8
annotation
62
1
39
211
10
358.990164
20
198.360909
11
359.049880
21
198.323214
0
LINE
8
annotation
62
1
39
211
10
359.049880
20
198.323214
11
359.112774
21
198.289651
0
LINE
8
annotation
62
1
39
211
10
397.282568
20
229.343104
11
397.282568
21
236.384704
0
LINE
8
annotation
62
1
39
211
10
397.282568
20
236.384704
11
395.717130
21
234.818825
0
LINE
8
annotation
62
1
39
211
10
401.488606
20
229.343104
11
401.488606
21
236.384704
0
LINE
8
annotation
62
1
39
211
10
401.488606
20
236.384704
11
399.923168
21
234.818825
0
LINE
8
annotation
62
1
39
211
10
418.486936
20
247.850816
11
418.486936
21
254.611264
0
LINE
8
annotation
62
1
39
211
10
418.486936
20
254.611264
11
416.984001
21
253.107906
0
LINE
8
annotation
62
1
39
211
10
424.024879
20
247.850761
11
421.022402
21
247.850761
0
LINE
8
annotation
62
1
39
211
10
421.022402
20
247.850761
11
423.796789
21
252.317168
0
LINE
8
annotation
62
1
39
211
10
423.796789
20
252.317168
11
423.796789
21
252.317168
0
LINE
8
annotation
62
1
39
211
10
423.796789
20
252.317168
11
423.800106
21
252.321272
0
LINE
8
annotation
62
1
39
211
10
423.800106
20
252.321272
11
423.803286
21
252.325411
0
LINE
8
annotation
62
1
39
211
10
423.803286
20
252.325411
11
423.806352
21
252.329620
0
LINE
8
annotation
62
1
39
211
10
423.806352
20
252.329620
11
423.809323
21
252.333933
0
LINE
8
annotation
62
1
39
211
10
423.809323
20
252.333933
11
423.812221
21
252.338386
0
LINE
8
annotation
62
1
39
211
10
423.812221
20
252.338386
11
423.815066
21
252.343013
0
LINE
8
annotation
62
1
39
211
10
423.815066
20
252.343013
11
423.817881
21
252.347850
0
LINE
8
annotation
62
1
39
211
10
423.817881
20
252.347850
11
423.820684
21
252.352931
0
LINE
8
annotation
62
1
39
211
10
423.820684
20
252.352931
11
423.823499
21
252.358292
0
LINE
8
annotation
62
1
39
211
10
423.823499
20
252.358292
11
423.823499
21
252.358292
0
LINE
8
annotation
62
1
39
211
10
423.823499
20
252.358292
11
423.938052
21
252.604248
0
LINE
8
annotation
62
1
39
211
10
423.938052
20
252.604248
11
424.004973
21
252.859204
0
LINE
8
annotation
62
1
39
211
10
424.004973
20
252.859204
11
424.025900
21
253.117398
0
LINE
8
annotation
62
1
39
211
10
424.025900
20
253.117398
11
424.002473
21
253.373069
0
LINE
8
annotation
62
1
39
211
10
424.002473
20
253.373069
11
423.936333
21
253.620456
0
LINE
8
annotation
62
1
39
211
10
423.936333
20
253.620456
11
423.829120
21
253.853799
0
LINE
8
annotation
62
1
39
211
10
423.829120
20
253.853799
11
423.682473
21
254.067336
0
LINE
8
annotation
62
1
39
211
10
423.682473
20
254.067336
11
423.498033
21
254.255306
0
LINE
8
annotation
62
1
39
211
10
423.498033
20
254.255306
11
423.277439
21
254.411949
0
LINE
8
annotation
62
1
39
211
10
423.277439
20
254.411949
11
423.277439
21
254.411949
0
LINE
8
annotation
62
1
39
211
10
423.277439
20
254.411949
11
423.030799
21
254.524875
0
LINE
8
annotation
62
1
39
211
10
423.030799
20
254.524875
11
422.775452
21
254.590764
0
LINE
8
annotation
62
1
39
211
10
422.775452
20
254.590764
11
422.517108
21
254.611099
0
LINE
8
annotation
62
1
39
211
10
422.517108
20
254.611099
11
422.261476
21
254.587364
0
LINE
8
annotation
62
1
39
211
10
422.261476
20
254.587364
11
422.014263
21
254.521041
0
LINE
8
annotation
62
1
39
211
10
422.014263
20
254.521041
11
421.781179
21
254.413613
0
LINE
8
annotation
62
1
39
211
10
421.781179
20
254.413613
11
421.567931
21
254.266563
0
LINE
8
annotation
62
1
39
211
10
421.567931
20
254.266563
11
421.380230
21
254.081375
0
LINE
8
annotation
62
1
39
211
10
421.380230
20
254.081375
11
421.223783
21
253.859530
0
LINE
8
annotation
62
1
39
211
10
421.223783
20
253.859530
11
421.026642
21
253.481359
0
LINE
8
annotation
62
1
39
211
10
294.060565
20
128.425075
11
284.845580
21
115.096444
0
LINE
8
annotation
62
1
39
211
10
284.845580
20
115.096444
11
275.628863
21
128.425075
0
LINE
8
annotation
62
1
39
211
10
284.845580
20
116.169042
11
284.845580
21
100.792250
0
LINE
8
annotation
62
1
39
211
10
319.533899
20
114.608663
11
304.425690
21
114.608663
0
LINE
8
annotation
62
1
39
211
10
329.892959
20
100.793117
11
336.028773
21
100.793117
0
LINE
8
annotation
62
1
39
211
10
336.028773
20
100.793117
11
336.028773
21
100.793117
0
LINE
8
annotation
62
1
39
211
10
336.028773
20
100.793117
11
337.130033
21
100.892133
0
LINE
8
annotation
62
1
39
211
10
337.130033
20
100.892133
11
338.167214
21
101.177592
0
LINE
8
annotation
62
1
39
211
10
338.167214
20
101.177592
11
339.122833
21
101.632109
0
LINE
8
annotation
62
1
39
211
10
339.122833
20
101.632109
11
339.979405
21
102.238298
0
LINE
8
annotation
62
1
39
211
10
339.979405
20
102.238298
11
340.719445
21
102.978775
0
LINE
8
annotation
62
1
39
211
10
340.719445
20
102.978775
11
341.325468
21
103.836155
0
LINE
8
annotation
62
1
39
211
10
341.325468
20
103.836155
11
341.779989
21
104.793053
0
LINE
8
annotation
62
1
39
211
10
341.779989
20
104.793053
11
342.065524
21
105.832084
0
LINE
8
annotation
62
1
39
211
10
342.065524
20
105.832084
11
342.164588
21
106.935862
0
LINE
8
annotation
62
1
39
211
10
342.164588
20
106.935862
11
342.164588
21
109.992507
0
LINE
8
annotation
62
1
39
211
10
342.164588
20
109.992507
11
342.164588
21
109.992507
0
LINE
8
annotation
62
1
39
211
10
342.164588
20
109.992507
11
342.065581
21
111.095750
0
LINE
8
annotation
62
1
39
211
10
342.065581
20
111.095750
11
341.780189
21
112.133348
0
LINE
8
annotation
62
1
39
211
10
341.780189
20
112.133348
11
341.325853
21
113.088171
0
LINE
8
annotation
62
1
39
211
10
341.325853
20
113.088171
11
340.720015
21
113.943090
0
LINE
8
annotation
62
1
39
211
10
340.720015
20
113.943090
11
339.980118
21
114.680979
0
LINE
8
annotation
62
1
39
211
10
339.980118
20
114.680979
11
339.123603
21
115.284708
0
LINE
8
annotation
62
1
39
211
10
339.123603
20
115.284708
11
338.167913
21
115.737150
0
LINE
8
annotation
62
1
39
211
10
338.167913
20
115.737150
11
337.130489
21
116.021176
0
LINE
8
annotation
62
1
39
211
10
337.130489
20
116.021176
11
336.028773
21
116.119657
0
LINE
8
annotation
62
1
39
211
10
336.028773
20
116.119657
11
329.892959
21
116.119657
0
LINE
8
annotation
62
1
39
211
10
329.892959
20
116.119657
11
329.892959
21
128.424209
0
LINE
8
annotation
62
1
39
211
10
329.892959
20
128.424209
11
342.164588
21
128.424209
0
LINE
8
frame
62
5
39
2
10
0.000000
20
0.000000
11
480.000000
21
0.000000
0
LINE
8
frame
62
5
39
2
10
480.000000
20
0.000000
11
480.000000
21
420.000000
0
LINE
8
frame
62
5
39
2
10
480.000000
20
420.000000
11
0.000000
21
420.000000
0
LINE
8
frame
62
5
39
2
10
0.000000
20
420.000000
11
0.000000
21
0.000000
0
ENDSEC
0
EOF
