0
SECTION
2
HEADER
9
$ACADVER
1
AC1009
0
ENDSEC
0
SECTION
2
TABLES
0
TABLE
2
VPORT
70
1
0
VPORT
2
ACTIVE
70
0
10
0.0
20
0.0
11
0.0
21
0.0
12
0.0
22
0.0
13
0.0
23
0.0
14
0.0
24
0.0
15
0.0
25
0.0
16
0.0
26
0.0
36
0.0
17
0.0
27
0.0
37
0.0
40
0.0
41
0.0
42
0.0
43
0.0
44
0.0
50
0.0
51
0.0
71
0
72
1000
73
1
74
3
75
0
76
0
77
0
78
0
0
ENDTAB
0
ENDSEC
0
SECTION
2
ENTITIES
0
LINE
8
boundary
62
5
39
2
10
172.081170
20
6.810731
11
177.598362
21
7.898457
0
LINE
8
boundary
62
5
39
2
10
177.598362
20
7.898457
11
183.617443
21
9.412977
0
LINE
8
boundary
62
5
39
2
10
183.617443
20
9.412977
11
189.259395
21
9.118379
0
LINE
8
boundary
62
5
39
2
10
189.259395
20
9.118379
11
197.264149
21
9.598591
0
LINE
8
boundary
62
5
39
2
10
197.264149
20
9.598591
11
198.941416
21
9.428503
0
LINE
8
boundary
62
5
39
2
10
198.941416
20
9.428503
11
202.637276
21
11.955187
0
LINE
8
boundary
62
5
39
2
10
202.637276
20
11.955187
11
225.685857
21
31.295243
0
LINE
8
boundary
62
5
39
2
10
225.685857
20
31.295243
11
228.289789
21
28.191997
0
LINE
8
boundary
62
5
39
2
10
228.289789
20
28.191997
11
208.915906
21
11.935379
0
LINE
8
boundary
62
5
39
2
10
208.915906
20
11.935379
11
205.785828
21
8.734422
0
LINE
8
boundary
62
5
39
2
10
205.785828
20
8.734422
11
213.392107
21
7.963081
0
LINE
8
boundary
62
5
39
2
10
213.392107
20
7.963081
11
214.520265
21
7.771659
0
LINE
8
boundary
62
5
39
2
10
214.520265
20
7.771659
11
229.397374
21
7.207121
0
LINE
8
boundary
62
5
39
2
10
229.397374
20
7.207121
11
232.006168
21
10.845486
0
LINE
8
boundary
62
5
39
2
10
232.006168
20
10.845486
11
242.073946
21
28.283390
0
LINE
8
boundary
62
5
39
2
10
242.073946
20
28.283390
11
245.582216
21
26.257890
0
LINE
8
boundary
62
5
39
2
10
245.582216
20
26.257890
11
236.786848
21
11.023867
0
LINE
8
boundary
62
5
39
2
10
236.786848
20
11.023867
11
234.940329
21
6.945402
0
LINE
8
boundary
62
5
39
2
10
234.940329
20
6.945402
11
238.833241
21
6.687500
0
LINE
8
boundary
62
5
39
2
10
238.833241
20
6.687500
11
245.937130
21
8.814280
0
LINE
8
boundary
62
5
39
2
10
245.937130
20
8.814280
11
251.238717
21
10.250766
0
LINE
8
boundary
62
5
39
2
10
251.238717
20
10.250766
11
252.445788
21
14.561972
0
LINE
8
boundary
62
5
39
2
10
252.445788
20
14.561972
11
254.953824
21
28.785748
0
LINE
8
boundary
62
5
39
2
10
254.953824
20
28.785748
11
258.943280
21
28.082299
0
LINE
8
boundary
62
5
39
2
10
258.943280
20
28.082299
11
256.910896
21
16.556074
0
LINE
8
boundary
62
5
39
2
10
256.910896
20
16.556074
11
256.570652
21
12.092024
0
LINE
8
boundary
62
5
39
2
10
256.570652
20
12.092024
11
264.700636
21
16.368812
0
LINE
8
boundary
62
5
39
2
10
264.700636
20
16.368812
11
265.535127
21
16.745646
0
LINE
8
boundary
62
5
39
2
10
265.535127
20
16.745646
11
267.295117
21
17.642039
0
LINE
8
boundary
62
5
39
2
10
267.295117
20
17.642039
11
266.954874
21
22.106090
0
LINE
8
boundary
62
5
39
2
10
266.954874
20
22.106090
11
265.180246
21
32.170505
0
LINE
8
boundary
62
5
39
2
10
265.180246
20
32.170505
11
269.169702
21
32.873954
0
LINE
8
boundary
62
5
39
2
10
269.169702
20
32.873954
11
270.682265
21
24.295784
0
LINE
8
boundary
62
5
39
2
10
270.682265
20
24.295784
11
271.889336
21
19.984579
0
LINE
8
boundary
62
5
39
2
10
271.889336
20
19.984579
11
275.527381
21
21.845846
0
LINE
8
boundary
62
5
39
2
10
275.527381
20
21.845846
11
279.911162
21
24.253606
0
LINE
8
boundary
62
5
39
2
10
279.911162
20
24.253606
11
278.064642
21
28.332071
0
LINE
8
boundary
62
5
39
2
10
278.064642
20
28.332071
11
273.711553
21
35.871842
0
LINE
8
boundary
62
5
39
2
10
273.711553
20
35.871842
11
277.219822
21
37.897343
0
LINE
8
boundary
62
5
39
2
10
277.219822
20
37.897343
11
281.625528
21
30.266437
0
LINE
8
boundary
62
5
39
2
10
281.625528
20
30.266437
11
284.234323
21
26.628072
0
LINE
8
boundary
62
5
39
2
10
284.234323
20
26.628072
11
284.985666
21
27.040741
0
LINE
8
boundary
62
5
39
2
10
284.985666
20
27.040741
11
287.076993
21
28.098990
0
LINE
8
boundary
62
5
39
2
10
287.076993
20
28.098990
11
292.603379
21
30.932954
0
LINE
8
boundary
62
5
39
2
10
292.603379
20
30.932954
11
289.473301
21
34.133910
0
LINE
8
boundary
62
5
39
2
10
289.473301
20
34.133910
11
282.492045
21
39.991880
0
LINE
8
boundary
62
5
39
2
10
282.492045
20
39.991880
11
285.095978
21
43.095126
0
LINE
8
boundary
62
5
39
2
10
285.095978
20
43.095126
11
293.289310
21
36.220104
0
LINE
8
boundary
62
5
39
2
10
293.289310
20
36.220104
11
296.985170
21
33.693419
0
LINE
8
boundary
62
5
39
2
10
296.985170
20
33.693419
11
306.085779
21
40.960506
0
LINE
8
boundary
62
5
39
2
10
306.085779
20
40.960506
11
302.049676
21
42.897871
0
LINE
8
boundary
62
5
39
2
10
302.049676
20
42.897871
11
290.760746
21
47.006706
0
LINE
8
boundary
62
5
39
2
10
290.760746
20
47.006706
11
292.146269
21
50.813401
0
LINE
8
boundary
62
5
39
2
10
292.146269
20
50.813401
11
305.001246
21
46.134572
0
LINE
8
boundary
62
5
39
2
10
305.001246
20
46.134572
11
309.338394
21
45.024323
0
LINE
8
boundary
62
5
39
2
10
309.338394
20
45.024323
11
315.268924
21
55.680603
0
LINE
8
boundary
62
5
39
2
10
315.268924
20
55.680603
11
316.147840
21
56.977435
0
LINE
8
boundary
62
5
39
2
10
316.147840
20
56.977435
11
311.704660
21
57.451087
0
LINE
8
boundary
62
5
39
2
10
311.704660
20
57.451087
11
296.518066
21
57.451088
0
LINE
8
boundary
62
5
39
2
10
296.518066
20
57.451088
11
296.518066
21
61.502087
0
LINE
8
boundary
62
5
39
2
10
296.518066
20
61.502087
11
313.488142
21
61.502088
0
LINE
8
boundary
62
5
39
2
10
313.488142
20
61.502088
11
317.943456
21
61.942187
0
LINE
8
boundary
62
5
39
2
10
317.943456
20
61.942187
11
323.861235
21
78.304434
0
LINE
8
boundary
62
5
39
2
10
323.861235
20
78.304434
11
324.226876
21
79.045755
0
LINE
8
boundary
62
5
39
2
10
324.226876
20
79.045755
11
319.963810
21
78.264531
0
LINE
8
boundary
62
5
39
2
10
319.963810
20
78.264531
11
300.984244
21
71.356534
0
LINE
8
boundary
62
5
39
2
10
300.984244
20
71.356534
11
299.598721
21
75.163228
0
LINE
8
boundary
62
5
39
2
10
299.598721
20
75.163228
11
321.551908
21
83.153536
0
LINE
8
boundary
62
5
39
2
10
321.551908
20
83.153536
11
325.588011
21
85.090902
0
LINE
8
boundary
62
5
39
2
10
325.588011
20
85.090902
11
326.637214
21
89.750679
0
LINE
8
boundary
62
5
39
2
10
326.637214
20
89.750679
11
328.122077
21
100.748902
0
LINE
8
boundary
62
5
39
2
10
328.122077
20
100.748902
11
328.091250
21
105.418868
0
LINE
8
boundary
62
5
39
2
10
328.091250
20
105.418868
11
327.891857
21
110.380348
0
LINE
8
boundary
62
5
39
2
10
327.891857
20
110.380348
11
327.857053
21
111.164341
0
LINE
8
boundary
62
5
39
2
10
327.857053
20
111.164341
11
324.161193
21
108.637657
0
LINE
8
boundary
62
5
39
2
10
324.161193
20
108.637657
11
301.678289
21
89.772260
0
LINE
8
boundary
62
5
39
2
10
301.678289
20
89.772260
11
299.074356
21
92.875506
0
LINE
8
boundary
62
5
39
2
10
299.074356
20
92.875506
11
324.451467
21
114.169431
0
LINE
8
boundary
62
5
39
2
10
324.451467
20
114.169431
11
327.581545
21
117.370387
0
LINE
8
boundary
62
5
39
2
10
327.581545
20
117.370387
11
327.127579
21
127.596347
0
LINE
8
boundary
62
5
39
2
10
327.127579
20
127.596347
11
326.065356
21
133.547099
0
LINE
8
boundary
62
5
39
2
10
326.065356
20
133.547099
11
324.341538
21
141.591806
0
LINE
8
boundary
62
5
39
2
10
324.341538
20
141.591806
11
323.085846
21
150.491290
0
LINE
8
boundary
62
5
39
2
10
323.085846
20
150.491290
11
321.815574
21
155.438059
0
LINE
8
boundary
62
5
39
2
10
321.815574
20
155.438059
11
321.526533
21
156.917107
0
LINE
8
boundary
62
5
39
2
10
321.526533
20
156.917107
11
318.917739
21
153.278742
0
LINE
8
boundary
62
5
39
2
10
318.917739
20
153.278742
11
296.609558
21
114.639840
0
LINE
8
boundary
62
5
39
2
10
296.609558
20
114.639840
11
293.101289
21
116.665340
0
LINE
8
boundary
62
5
39
2
10
293.101289
20
116.665340
11
318.240066
21
160.206979
0
LINE
8
boundary
62
5
39
2
10
318.240066
20
160.206979
11
320.086585
21
164.285443
0
LINE
8
boundary
62
5
39
2
10
320.086585
20
164.285443
11
319.821380
21
165.642522
0
LINE
8
boundary
62
5
39
2
10
319.821380
20
165.642522
11
318.084479
21
180.010677
0
LINE
8
boundary
62
5
39
2
10
318.084479
20
180.010677
11
317.852799
21
182.986909
0
LINE
8
boundary
62
5
39
2
10
317.852799
20
182.986909
11
317.764472
21
191.177142
0
LINE
8
boundary
62
5
39
2
10
317.764472
20
191.177142
11
317.765108
21
194.074771
0
LINE
8
boundary
62
5
39
2
10
317.765108
20
194.074771
11
317.190604
21
200.125416
0
LINE
8
boundary
62
5
39
2
10
317.190604
20
200.125416
11
316.901510
21
204.091156
0
LINE
8
boundary
62
5
39
2
10
316.901510
20
204.091156
11
316.167448
21
206.074774
0
LINE
8
boundary
62
5
39
2
10
316.167448
20
206.074774
11
314.172490
21
210.618116
0
LINE
8
boundary
62
5
39
2
10
314.172490
20
210.618116
11
312.982188
21
213.092983
0
LINE
8
boundary
62
5
39
2
10
312.982188
20
213.092983
11
312.681325
21
213.913367
0
LINE
8
boundary
62
5
39
2
10
312.681325
20
213.913367
11
309.644766
21
216.666215
0
LINE
8
boundary
62
5
39
2
10
309.644766
20
216.666215
11
302.273751
21
222.953456
0
LINE
8
boundary
62
5
39
2
10
302.273751
20
222.953456
11
295.124985
21
229.556200
0
LINE
8
boundary
62
5
39
2
10
295.124985
20
229.556200
11
293.741887
21
225.435005
0
LINE
8
boundary
62
5
39
2
10
293.741887
20
225.435005
11
280.809738
21
152.093143
0
LINE
8
boundary
62
5
39
2
10
280.809738
20
152.093143
11
276.820282
21
152.796593
0
LINE
8
boundary
62
5
39
2
10
276.820282
20
152.796593
11
290.402104
21
229.822934
0
LINE
8
boundary
62
5
39
2
10
290.402104
20
229.822934
11
290.742347
21
234.286984
0
LINE
8
boundary
62
5
39
2
10
290.742347
20
234.286984
11
283.412802
21
242.198772
0
LINE
8
boundary
62
5
39
2
10
283.412802
20
242.198772
11
281.741505
21
243.368360
0
LINE
8
boundary
62
5
39
2
10
281.741505
20
243.368360
11
271.580851
21
249.809933
0
LINE
8
boundary
62
5
39
2
10
271.580851
20
249.809933
11
262.127527
21
256.192735
0
LINE
8
boundary
62
5
39
2
10
262.127527
20
256.192735
11
260.080939
21
256.988063
0
LINE
8
boundary
62
5
39
2
10
260.080939
20
256.988063
11
246.735796
21
259.919932
0
LINE
8
boundary
62
5
39
2
10
246.735796
20
259.919932
11
239.981231
21
261.370984
0
LINE
8
boundary
62
5
39
2
10
239.981231
20
261.370984
11
238.829249
21
261.263812
0
LINE
8
boundary
62
5
39
2
10
238.829249
20
261.263812
11
221.241468
21
259.083418
0
LINE
8
boundary
62
5
39
2
10
221.241468
20
259.083418
11
219.967501
21
258.541880
0
LINE
8
boundary
62
5
39
2
10
219.967501
20
258.541880
11
220.520225
21
254.099133
0
LINE
8
boundary
62
5
39
2
10
220.520225
20
254.099133
11
240.543308
21
165.489018
0
LINE
8
boundary
62
5
39
2
10
240.543308
20
165.489018
11
236.591933
21
164.596132
0
LINE
8
boundary
62
5
39
2
10
236.591933
20
164.596132
11
216.766298
21
252.332465
0
LINE
8
boundary
62
5
39
2
10
216.766298
20
252.332465
11
215.355020
21
256.581208
0
LINE
8
boundary
62
5
39
2
10
215.355020
20
256.581208
11
206.315903
21
252.738860
0
LINE
8
boundary
62
5
39
2
10
206.315903
20
252.738860
11
205.130123
21
252.361263
0
LINE
8
boundary
62
5
39
2
10
205.130123
20
252.361263
11
204.160560
21
251.839993
0
LINE
8
boundary
62
5
39
2
10
204.160560
20
251.839993
11
185.823724
21
243.765626
0
LINE
8
boundary
62
5
39
2
10
185.823724
20
243.765626
11
176.440174
21
238.997402
0
LINE
8
boundary
62
5
39
2
10
176.440174
20
238.997402
11
168.302485
21
234.612961
0
LINE
8
boundary
62
5
39
2
10
168.302485
20
234.612961
11
155.685186
21
232.176393
0
LINE
8
boundary
62
5
39
2
10
155.685186
20
232.176393
11
157.545926
21
228.146929
0
LINE
8
boundary
62
5
39
2
10
157.545926
20
228.146929
11
204.850605
21
153.770164
0
LINE
8
boundary
62
5
39
2
10
204.850605
20
153.770164
11
201.432391
21
151.596131
0
LINE
8
boundary
62
5
39
2
10
201.432391
20
151.596131
11
153.142829
21
227.521421
0
LINE
8
boundary
62
5
39
2
10
153.142829
20
227.521421
11
150.380461
21
231.044606
0
LINE
8
boundary
62
5
39
2
10
150.380461
20
231.044606
11
149.188254
21
230.790243
0
LINE
8
boundary
62
5
39
2
10
149.188254
20
230.790243
11
137.709861
21
226.055920
0
LINE
8
boundary
62
5
39
2
10
137.709861
20
226.055920
11
131.755140
21
223.788638
0
LINE
8
boundary
62
5
39
2
10
131.755140
20
223.788638
11
123.481394
21
223.144136
0
LINE
8
boundary
62
5
39
2
10
123.481394
20
223.144136
11
112.349754
21
221.618617
0
LINE
8
boundary
62
5
39
2
10
112.349754
20
221.618617
11
109.343430
21
221.502299
0
LINE
8
boundary
62
5
39
2
10
109.343430
20
221.502299
11
102.215479
21
221.041033
0
LINE
8
boundary
62
5
39
2
10
102.215479
20
221.041033
11
95.481944
21
220.522020
0
LINE
8
boundary
62
5
39
2
10
95.481944
20
220.522020
11
92.956676
21
219.994199
0
LINE
8
boundary
62
5
39
2
10
92.956676
20
219.994199
11
88.659006
21
217.728542
0
LINE
8
boundary
62
5
39
2
10
88.659006
20
217.728542
11
91.691361
21
214.434861
0
LINE
8
boundary
62
5
39
2
10
91.691361
20
214.434861
11
169.543334
21
145.012548
0
LINE
8
boundary
62
5
39
2
10
169.543334
20
145.012548
11
166.847215
21
141.989050
0
LINE
8
boundary
62
5
39
2
10
166.847215
20
141.989050
11
87.620755
21
212.637022
0
LINE
8
boundary
62
5
39
2
10
87.620755
20
212.637022
11
84.002588
21
215.273759
0
LINE
8
boundary
62
5
39
2
10
84.002588
20
215.273759
11
80.064645
21
213.197744
0
LINE
8
boundary
62
5
39
2
10
80.064645
20
213.197744
11
76.002562
21
210.978541
0
LINE
8
boundary
62
5
39
2
10
76.002562
20
210.978541
11
64.908610
21
202.567132
0
LINE
8
boundary
62
5
39
2
10
64.908610
20
202.567132
11
59.583844
21
198.810443
0
LINE
8
boundary
62
5
39
2
10
59.583844
20
198.810443
11
47.981587
21
187.736310
0
LINE
8
boundary
62
5
39
2
10
47.981587
20
187.736310
11
43.800541
21
183.698956
0
LINE
8
boundary
62
5
39
2
10
43.800541
20
183.698956
11
30.283805
21
169.554699
0
LINE
8
boundary
62
5
39
2
10
30.283805
20
169.554699
11
28.748673
21
167.805885
0
LINE
8
boundary
62
5
39
2
10
28.748673
20
167.805885
11
18.234706
21
154.175626
0
LINE
8
boundary
62
5
39
2
10
18.234706
20
154.175626
11
17.166879
21
152.888925
0
LINE
8
boundary
62
5
39
2
10
17.166879
20
152.888925
11
16.525825
21
151.599383
0
LINE
8
boundary
62
5
39
2
10
16.525825
20
151.599383
11
20.561928
21
149.662017
0
LINE
8
boundary
62
5
39
2
10
20.561928
20
149.662017
11
133.586017
21
108.524613
0
LINE
8
boundary
62
5
39
2
10
133.586017
20
108.524613
11
132.200493
21
104.717919
0
LINE
8
boundary
62
5
39
2
10
132.200493
20
104.717919
11
18.653953
21
146.045479
0
LINE
8
boundary
62
5
39
2
10
18.653953
20
146.045479
11
14.316804
21
147.155727
0
LINE
8
boundary
62
5
39
2
10
14.316804
20
147.155727
11
13.586992
21
145.687640
0
LINE
8
boundary
62
5
39
2
10
13.586992
20
145.687640
11
9.942186
21
137.696937
0
LINE
8
boundary
62
5
39
2
10
9.942186
20
137.696937
11
9.586557
21
136.066713
0
LINE
8
boundary
62
5
39
2
10
9.586557
20
136.066713
11
6.879742
21
123.813553
0
LINE
8
boundary
62
5
39
2
10
6.879742
20
123.813553
11
6.771406
21
114.294494
0
LINE
8
boundary
62
5
39
2
10
6.771406
20
114.294494
11
6.687500
21
109.073267
0
LINE
8
boundary
62
5
39
2
10
6.687500
20
109.073267
11
8.358946
21
102.205232
0
LINE
8
boundary
62
5
39
2
10
8.358946
20
102.205232
11
11.373027
21
94.439614
0
LINE
8
boundary
62
5
39
2
10
11.373027
20
94.439614
11
19.457335
21
83.989157
0
LINE
8
boundary
62
5
39
2
10
19.457335
20
83.989157
11
21.694870
21
81.237630
0
LINE
8
boundary
62
5
39
2
10
21.694870
20
81.237630
11
23.851295
21
79.738425
0
LINE
8
boundary
62
5
39
2
10
23.851295
20
79.738425
11
35.581043
21
72.947777
0
LINE
8
boundary
62
5
39
2
10
35.581043
20
72.947777
11
44.027390
21
69.611788
0
LINE
8
boundary
62
5
39
2
10
44.027390
20
69.611788
11
48.866556
21
67.621485
0
LINE
8
boundary
62
5
39
2
10
48.866556
20
67.621485
11
60.221305
21
65.216520
0
LINE
8
boundary
62
5
39
2
10
60.221305
20
65.216520
11
70.991930
21
64.446154
0
LINE
8
boundary
62
5
39
2
10
70.991930
20
64.446154
11
73.514619
21
64.728065
0
LINE
8
boundary
62
5
39
2
10
73.514619
20
64.728065
11
80.424686
21
63.620514
0
LINE
8
boundary
62
5
39
2
10
80.424686
20
63.620514
11
86.328741
21
63.530638
0
LINE
8
boundary
62
5
39
2
10
86.328741
20
63.530638
11
88.436929
21
63.244785
0
LINE
8
boundary
62
5
39
2
10
88.436929
20
63.244785
11
92.644164
21
61.942188
0
LINE
8
boundary
62
5
39
2
10
92.644164
20
61.942188
11
97.099478
21
61.502087
0
LINE
8
boundary
62
5
39
2
10
97.099478
20
61.502087
11
173.253661
21
61.502088
0
LINE
8
boundary
62
5
39
2
10
173.253661
20
61.502088
11
173.253661
21
57.451087
0
LINE
8
boundary
62
5
39
2
10
173.253661
20
57.451087
11
105.409683
21
57.451087
0
LINE
8
boundary
62
5
39
2
10
105.409683
20
57.451087
11
100.954369
21
57.010988
0
LINE
8
boundary
62
5
39
2
10
100.954369
20
57.010988
11
102.349508
21
55.906177
0
LINE
8
boundary
62
5
39
2
10
102.349508
20
55.906177
11
104.249398
21
54.078362
0
LINE
8
boundary
62
5
39
2
10
104.249398
20
54.078362
11
107.765281
21
49.152752
0
LINE
8
boundary
62
5
39
2
10
107.765281
20
49.152752
11
110.401612
21
46.114981
0
LINE
8
boundary
62
5
39
2
10
110.401612
20
46.114981
11
113.821325
21
43.080008
0
LINE
8
boundary
62
5
39
2
10
113.821325
20
43.080008
11
118.439030
21
38.400517
0
LINE
8
boundary
62
5
39
2
10
118.439030
20
38.400517
11
123.933429
21
33.658727
0
LINE
8
boundary
62
5
39
2
10
123.933429
20
33.658727
11
130.222950
21
26.580952
0
LINE
8
boundary
62
5
39
2
10
130.222950
20
26.580952
11
131.626842
21
25.082998
0
LINE
8
boundary
62
5
39
2
10
131.626842
20
25.082998
11
139.445450
21
17.340550
0
LINE
8
boundary
62
5
39
2
10
139.445450
20
17.340550
11
143.782598
21
18.450798
0
LINE
8
boundary
62
5
39
2
10
143.782598
20
18.450798
11
194.754718
21
37.003133
0
LINE
8
boundary
62
5
39
2
10
194.754718
20
37.003133
11
196.140242
21
33.196438
0
LINE
8
boundary
62
5
39
2
10
196.140242
20
33.196438
11
148.440399
21
15.835115
0
LINE
8
boundary
62
5
39
2
10
148.440399
20
15.835115
11
144.404297
21
13.897749
0
LINE
8
boundary
62
5
39
2
10
144.404297
20
13.897749
11
150.816547
21
10.165424
0
LINE
8
boundary
62
5
39
2
10
150.816547
20
10.165424
11
153.375880
21
8.849173
0
LINE
8
boundary
62
5
39
2
10
153.375880
20
8.849173
11
164.452070
21
7.212481
0
LINE
8
boundary
62
5
39
2
10
164.452070
20
7.212481
11
172.081170
21
6.810731
0
LINE
8
annotation
62
1
39
211
10
288.323123
20
55.955787
11
288.323123
21
62.997387
0
LINE
8
annotation
62
1
39
211
10
288.323123
20
62.997387
11
286.757685
21
61.431508
0
LINE
8
annotation
62
1
39
211
10
294.528606
20
67.415548
11
291.589865
21
66.345934
0
LINE
8
annotation
62
1
39
211
10
291.589865
20
66.345934
11
292.714228
21
71.705888
0
LINE
8
annotation
62
1
39
211
10
292.714228
20
71.705888
11
292.714228
21
71.705888
0
LINE
8
annotation
62
1
39
211
10
292.714228
20
71.705888
11
292.716012
21
71.711086
0
LINE
8
annotation
62
1
39
211
10
292.716012
20
71.711086
11
292.717651
21
71.716270
0
LINE
8
annotation
62
1
39
211
10
292.717651
20
71.716270
11
292.719152
21
71.721482
0
LINE
8
annotation
62
1
39
211
10
292.719152
20
71.721482
11
292.720523
21
71.726762
0
LINE
8
annotation
62
1
39
211
10
292.720523
20
71.726762
11
292.721773
21
71.732153
0
LINE
8
annotation
62
1
39
211
10
292.721773
20
71.732153
11
292.722910
21
71.737696
0
LINE
8
annotation
62
1
39
211
10
292.722910
20
71.737696
11
292.723941
21
71.743433
0
LINE
8
annotation
62
1
39
211
10
292.723941
20
71.743433
11
292.724875
21
71.749405
0
LINE
8
annotation
62
1
39
211
10
292.724875
20
71.749405
11
292.725720
21
71.755654
0
LINE
8
annotation
62
1
39
211
10
292.725720
20
71.755654
11
292.725720
21
71.755654
0
LINE
8
annotation
62
1
39
211
10
292.725720
20
71.755654
11
292.750222
21
72.037198
0
LINE
8
annotation
62
1
39
211
10
292.750222
20
72.037198
11
292.724895
21
72.310582
0
LINE
8
annotation
62
1
39
211
10
292.724895
20
72.310582
11
292.653398
21
72.570750
0
LINE
8
annotation
62
1
39
211
10
292.653398
20
72.570750
11
292.539387
21
72.812648
0
LINE
8
annotation
62
1
39
211
10
292.539387
20
72.812648
11
292.386521
21
73.031222
0
LINE
8
annotation
62
1
39
211
10
292.386521
20
73.031222
11
292.198457
21
73.221417
0
LINE
8
annotation
62
1
39
211
10
292.198457
20
73.221417
11
291.978852
21
73.378179
0
LINE
8
annotation
62
1
39
211
10
291.978852
20
73.378179
11
291.731364
21
73.496454
0
LINE
8
annotation
62
1
39
211
10
291.731364
20
73.496454
11
291.459650
21
73.571186
0
LINE
8
annotation
62
1
39
211
10
291.459650
20
73.571186
11
291.459650
21
73.571186
0
LINE
8
annotation
62
1
39
211
10
291.459650
20
73.571186
11
291.178016
21
73.593851
0
LINE
8
annotation
62
1
39
211
10
291.178016
20
73.593851
11
290.904617
21
73.567375
0
LINE
8
annotation
62
1
39
211
10
290.904617
20
73.567375
11
290.644513
21
73.495246
0
LINE
8
annotation
62
1
39
211
10
290.644513
20
73.495246
11
290.402762
21
73.380947
0
LINE
8
annotation
62
1
39
211
10
290.402762
20
73.380947
11
290.184424
21
73.227963
0
LINE
8
annotation
62
1
39
211
10
290.184424
20
73.227963
11
289.994558
21
73.039781
0
LINE
8
annotation
62
1
39
211
10
289.994558
20
73.039781
11
289.838223
21
72.819885
0
LINE
8
annotation
62
1
39
211
10
289.838223
20
72.819885
11
289.720478
21
72.571760
0
LINE
8
annotation
62
1
39
211
10
289.720478
20
72.571760
11
289.646383
21
72.298891
0
LINE
8
annotation
62
1
39
211
10
289.646383
20
72.298891
11
289.588148
21
71.858517
0
LINE
8
annotation
62
1
39
211
10
294.564008
20
81.850982
11
295.761850
21
82.856091
0
LINE
8
annotation
62
1
39
211
10
295.761850
20
82.856091
11
295.761850
21
82.856091
0
LINE
8
annotation
62
1
39
211
10
295.761850
20
82.856091
11
295.961068
21
83.056188
0
LINE
8
annotation
62
1
39
211
10
295.961068
20
83.056188
11
296.117048
21
83.281986
0
LINE
8
annotation
62
1
39
211
10
296.117048
20
83.281986
11
296.229287
21
83.527236
0
LINE
8
annotation
62
1
39
211
10
296.229287
20
83.527236
11
296.297282
21
83.785691
0
LINE
8
annotation
62
1
39
211
10
296.297282
20
83.785691
11
296.320531
21
84.051103
0
LINE
8
annotation
62
1
39
211
10
296.320531
20
84.051103
11
296.298530
21
84.317223
0
LINE
8
annotation
62
1
39
211
10
296.298530
20
84.317223
11
296.230776
21
84.577802
0
LINE
8
annotation
62
1
39
211
10
296.230776
20
84.577802
11
296.116768
21
84.826594
0
LINE
8
annotation
62
1
39
211
10
296.116768
20
84.826594
11
295.956002
21
85.057350
0
LINE
8
annotation
62
1
39
211
10
295.956002
20
85.057350
11
295.452738
21
85.657117
0
LINE
8
annotation
62
1
39
211
10
295.452738
20
85.657117
11
295.452738
21
85.657117
0
LINE
8
annotation
62
1
39
211
10
295.452738
20
85.657117
11
295.253480
21
85.855422
0
LINE
8
annotation
62
1
39
211
10
295.253480
20
85.855422
11
295.028305
21
86.010853
0
LINE
8
annotation
62
1
39
211
10
295.028305
20
86.010853
11
294.783460
21
86.122812
0
LINE
8
annotation
62
1
39
211
10
294.783460
20
86.122812
11
294.525195
21
86.190701
0
LINE
8
annotation
62
1
39
211
10
294.525195
20
86.190701
11
294.259755
21
86.213922
0
LINE
8
annotation
62
1
39
211
10
294.259755
20
86.213922
11
293.993389
21
86.191876
0
LINE
8
annotation
62
1
39
211
10
293.993389
20
86.191876
11
293.732344
21
86.123966
0
LINE
8
annotation
62
1
39
211
10
293.732344
20
86.123966
11
293.482867
21
86.009593
0
LINE
8
annotation
62
1
39
211
10
293.482867
20
86.009593
11
293.251207
21
85.848159
0
LINE
8
annotation
62
1
39
211
10
293.251207
20
85.848159
11
292.651440
21
85.344895
0
LINE
8
annotation
62
1
39
211
10
292.651440
20
85.344895
11
293.251207
21
85.848159
0
LINE
8
annotation
62
1
39
211
10
293.251207
20
85.848159
11
293.251207
21
85.848159
0
LINE
8
annotation
62
1
39
211
10
293.251207
20
85.848159
11
293.450412
21
86.048271
0
LINE
8
annotation
62
1
39
211
10
293.450412
20
86.048271
11
293.606342
21
86.274130
0
LINE
8
annotation
62
1
39
211
10
293.606342
20
86.274130
11
293.718476
21
86.519504
0
LINE
8
annotation
62
1
39
211
10
293.718476
20
86.519504
11
293.786297
21
86.778167
0
LINE
8
annotation
62
1
39
211
10
293.786297
20
86.778167
11
293.809284
21
87.043890
0
LINE
8
annotation
62
1
39
211
10
293.809284
20
87.043890
11
293.786920
21
87.310443
0
LINE
8
annotation
62
1
39
211
10
293.786920
20
87.310443
11
293.718684
21
87.571598
0
LINE
8
annotation
62
1
39
211
10
293.718684
20
87.571598
11
293.604057
21
87.821127
0
LINE
8
annotation
62
1
39
211
10
293.604057
20
87.821127
11
293.442521
21
88.052800
0
LINE
8
annotation
62
1
39
211
10
293.442521
20
88.052800
11
293.442521
21
88.052800
0
LINE
8
annotation
62
1
39
211
10
293.442521
20
88.052800
11
293.243262
21
88.251105
0
LINE
8
annotation
62
1
39
211
10
293.243262
20
88.251105
11
293.018087
21
88.406536
0
LINE
8
annotation
62
1
39
211
10
293.018087
20
88.406536
11
292.773243
21
88.518496
0
LINE
8
annotation
62
1
39
211
10
292.773243
20
88.518496
11
292.514977
21
88.586385
0
LINE
8
annotation
62
1
39
211
10
292.514977
20
88.586385
11
292.249538
21
88.609605
0
LINE
8
annotation
62
1
39
211
10
292.249538
20
88.609605
11
291.983172
21
88.587560
0
LINE
8
annotation
62
1
39
211
10
291.983172
20
88.587560
11
291.722127
21
88.519650
0
LINE
8
annotation
62
1
39
211
10
291.722127
20
88.519650
11
291.472650
21
88.405276
0
LINE
8
annotation
62
1
39
211
10
291.472650
20
88.405276
11
291.240990
21
88.243842
0
LINE
8
annotation
62
1
39
211
10
291.240990
20
88.243842
11
290.043148
21
87.238734
0
LINE
8
annotation
62
1
39
211
10
293.037336
20
108.592845
11
291.082415
21
105.206823
0
LINE
8
annotation
62
1
39
211
10
291.082415
20
105.206823
11
287.120651
21
109.297171
0
LINE
8
annotation
62
1
39
211
10
293.807054
20
106.795161
11
291.098696
21
108.358832
0
LINE
8
annotation
62
1
39
211
10
280.451799
20
141.452083
11
280.723328
21
142.991998
0
LINE
8
annotation
62
1
39
211
10
280.723328
20
142.991998
11
280.723328
21
142.991998
0
LINE
8
annotation
62
1
39
211
10
280.723328
20
142.991998
11
280.747212
21
143.272765
0
LINE
8
annotation
62
1
39
211
10
280.747212
20
143.272765
11
280.721468
21
143.545701
0
LINE
8
annotation
62
1
39
211
10
280.721468
20
143.545701
11
280.649686
21
143.805648
0
LINE
8
annotation
62
1
39
211
10
280.649686
20
143.805648
11
280.535456
21
144.047449
0
LINE
8
annotation
62
1
39
211
10
280.535456
20
144.047449
11
280.382366
21
144.265946
0
LINE
8
annotation
62
1
39
211
10
280.382366
20
144.265946
11
280.194006
21
144.455983
0
LINE
8
annotation
62
1
39
211
10
280.194006
20
144.455983
11
279.973966
21
144.612400
0
LINE
8
annotation
62
1
39
211
10
279.973966
20
144.612400
11
279.725834
21
144.730042
0
LINE
8
annotation
62
1
39
211
10
279.725834
20
144.730042
11
279.453201
21
144.803750
0
LINE
8
annotation
62
1
39
211
10
279.453201
20
144.803750
11
278.686070
21
144.939016
0
LINE
8
annotation
62
1
39
211
10
278.686070
20
144.939016
11
278.686070
21
144.939016
0
LINE
8
annotation
62
1
39
211
10
278.686070
20
144.939016
11
278.404806
21
144.962990
0
LINE
8
annotation
62
1
39
211
10
278.404806
20
144.962990
11
278.131769
21
144.937281
0
LINE
8
annotation
62
1
39
211
10
278.131769
20
144.937281
11
277.872029
21
144.865509
0
LINE
8
annotation
62
1
39
211
10
277.872029
20
144.865509
11
277.630658
21
144.751294
0
LINE
8
annotation
62
1
39
211
10
277.630658
20
144.751294
11
277.412727
21
144.598255
0
LINE
8
annotation
62
1
39
211
10
277.412727
20
144.598255
11
277.223304
21
144.410011
0
LINE
8
annotation
62
1
39
211
10
277.223304
20
144.410011
11
277.067462
21
144.190181
0
LINE
8
annotation
62
1
39
211
10
277.067462
20
144.190181
11
276.950270
21
143.942386
0
LINE
8
annotation
62
1
39
211
10
276.950270
20
143.942386
11
276.876800
21
143.670245
0
LINE
8
annotation
62
1
39
211
10
276.876800
20
143.670245
11
276.605271
21
142.130329
0
LINE
8
annotation
62
1
39
211
10
276.605271
20
142.130329
11
273.517177
21
142.674844
0
LINE
8
annotation
62
1
39
211
10
273.517177
20
142.674844
11
274.060234
21
145.754675
0
LINE
8
annotation
62
1
39
211
10
236.939177
20
156.275299
11
236.939177
21
156.275299
0
LINE
8
annotation
62
1
39
211
10
236.939177
20
156.275299
11
237.201736
21
155.875382
0
LINE
8
annotation
62
1
39
211
10
237.201736
20
155.875382
11
237.513071
21
155.524315
0
LINE
8
annotation
62
1
39
211
10
237.513071
20
155.524315
11
237.866723
21
155.224964
0
LINE
8
annotation
62
1
39
211
10
237.866723
20
155.224964
11
238.256231
21
154.980194
0
LINE
8
annotation
62
1
39
211
10
238.256231
20
154.980194
11
238.675135
21
154.792873
0
LINE
8
annotation
62
1
39
211
10
238.675135
20
154.792873
11
239.116974
21
154.665867
0
LINE
8
annotation
62
1
39
211
10
239.116974
20
154.665867
11
239.575288
21
154.602041
0
LINE
8
annotation
62
1
39
211
10
239.575288
20
154.602041
11
240.043617
21
154.604261
0
LINE
8
annotation
62
1
39
211
10
240.043617
20
154.604261
11
240.515500
21
154.675395
0
LINE
8
annotation
62
1
39
211
10
240.515500
20
154.675395
11
242.798370
21
155.191251
0
LINE
8
annotation
62
1
39
211
10
242.798370
20
155.191251
11
242.798370
21
155.191251
0
LINE
8
annotation
62
1
39
211
10
242.798370
20
155.191251
11
243.067179
21
155.277876
0
LINE
8
annotation
62
1
39
211
10
243.067179
20
155.277876
11
243.309418
21
155.407216
0
LINE
8
annotation
62
1
39
211
10
243.309418
20
155.407216
11
243.521750
21
155.573948
0
LINE
8
annotation
62
1
39
211
10
243.521750
20
155.573948
11
243.700833
21
155.772750
0
LINE
8
annotation
62
1
39
211
10
243.700833
20
155.772750
11
243.843330
21
155.998299
0
LINE
8
annotation
62
1
39
211
10
243.843330
20
155.998299
11
243.945900
21
156.245272
0
LINE
8
annotation
62
1
39
211
10
243.945900
20
156.245272
11
244.005205
21
156.508347
0
LINE
8
annotation
62
1
39
211
10
244.005205
20
156.508347
11
244.017904
21
156.782199
0
LINE
8
annotation
62
1
39
211
10
244.017904
20
156.782199
11
243.980659
21
157.061508
0
LINE
8
annotation
62
1
39
211
10
243.980659
20
157.061508
11
243.980659
21
157.061508
0
LINE
8
annotation
62
1
39
211
10
243.980659
20
157.061508
11
243.894060
21
157.330260
0
LINE
8
annotation
62
1
39
211
10
243.894060
20
157.330260
11
243.764775
21
157.572345
0
LINE
8
annotation
62
1
39
211
10
243.764775
20
157.572345
11
243.598095
21
157.784447
0
LINE
8
annotation
62
1
39
211
10
243.598095
20
157.784447
11
243.399313
21
157.963250
0
LINE
8
annotation
62
1
39
211
10
243.399313
20
157.963250
11
243.173720
21
158.105436
0
LINE
8
annotation
62
1
39
211
10
243.173720
20
158.105436
11
242.926608
21
158.207689
0
LINE
8
annotation
62
1
39
211
10
242.926608
20
158.207689
11
242.663267
21
158.266692
0
LINE
8
annotation
62
1
39
211
10
242.663267
20
158.266692
11
242.388991
21
158.279130
0
LINE
8
annotation
62
1
39
211
10
242.388991
20
158.279130
11
242.109069
21
158.241684
0
LINE
8
annotation
62
1
39
211
10
242.109069
20
158.241684
11
241.349261
21
158.069991
0
LINE
8
annotation
62
1
39
211
10
241.349261
20
158.069991
11
241.349261
21
158.069991
0
LINE
8
annotation
62
1
39
211
10
241.349261
20
158.069991
11
241.080569
21
157.983468
0
LINE
8
annotation
62
1
39
211
10
241.080569
20
157.983468
11
240.838646
21
157.854386
0
LINE
8
annotation
62
1
39
211
10
240.838646
20
157.854386
11
240.626779
21
157.688000
0
LINE
8
annotation
62
1
39
211
10
240.626779
20
157.688000
11
240.448255
21
157.489567
0
LINE
8
annotation
62
1
39
211
10
240.448255
20
157.489567
11
240.306361
21
157.264341
0
LINE
8
annotation
62
1
39
211
10
240.306361
20
157.264341
11
240.204387
21
157.017577
0
LINE
8
annotation
62
1
39
211
10
240.204387
20
157.017577
11
240.145618
21
156.754530
0
LINE
8
annotation
62
1
39
211
10
240.145618
20
156.754530
11
240.133343
21
156.480457
0
LINE
8
annotation
62
1
39
211
10
240.133343
20
156.480457
11
240.170849
21
156.200611
0
LINE
8
annotation
62
1
39
211
10
240.170849
20
156.200611
11
240.515500
21
154.675395
0
LINE
8
annotation
62
1
39
211
10
245.227029
20
155.539268
11
244.451006
21
158.973482
0
LINE
8
annotation
62
1
39
211
10
210.930453
20
146.997147
11
204.148669
21
144.539071
0
LINE
8
annotation
62
1
39
211
10
204.148669
20
144.539071
11
205.829139
21
141.896881
0
LINE
8
annotation
62
1
39
211
10
206.794585
20
146.221911
11
207.634702
21
144.901002
0
LINE
8
annotation
62
1
39
211
10
177.367225
20
137.947460
11
177.367225
21
137.947460
0
LINE
8
annotation
62
1
39
211
10
177.367225
20
137.947460
11
177.535503
21
138.174104
0
LINE
8
annotation
62
1
39
211
10
177.535503
20
138.174104
11
177.657180
21
138.419890
0
LINE
8
annotation
62
1
39
211
10
177.657180
20
138.419890
11
177.732675
21
138.678592
0
LINE
8
annotation
62
1
39
211
10
177.732675
20
138.678592
11
177.762409
21
138.943989
0
LINE
8
annotation
62
1
39
211
10
177.762409
20
138.943989
11
177.746803
21
139.209857
0
LINE
8
annotation
62
1
39
211
10
177.746803
20
139.209857
11
177.686277
21
139.469971
0
LINE
8
annotation
62
1
39
211
10
177.686277
20
139.469971
11
177.581253
21
139.718110
0
LINE
8
annotation
62
1
39
211
10
177.581253
20
139.718110
11
177.432150
21
139.948049
0
LINE
8
annotation
62
1
39
211
10
177.432150
20
139.948049
11
177.239388
21
140.153564
0
LINE
8
annotation
62
1
39
211
10
177.239388
20
140.153564
11
177.239388
21
140.153564
0
LINE
8
annotation
62
1
39
211
10
177.239388
20
140.153564
11
177.013221
21
140.321617
0
LINE
8
annotation
62
1
39
211
10
177.013221
20
140.321617
11
176.767771
21
140.443510
0
LINE
8
annotation
62
1
39
211
10
176.767771
20
140.443510
11
176.509269
21
140.519535
0
LINE
8
annotation
62
1
39
211
10
176.509269
20
140.519535
11
176.243947
21
140.549986
0
LINE
8
annotation
62
1
39
211
10
176.243947
20
140.549986
11
175.978035
21
140.535154
0
LINE
8
annotation
62
1
39
211
10
175.978035
20
140.535154
11
175.717765
21
140.475332
0
LINE
8
annotation
62
1
39
211
10
175.717765
20
140.475332
11
175.469366
21
140.370811
0
LINE
8
annotation
62
1
39
211
10
175.469366
20
140.370811
11
175.239069
21
140.221885
0
LINE
8
annotation
62
1
39
211
10
175.239069
20
140.221885
11
175.033106
21
140.028845
0
LINE
8
annotation
62
1
39
211
10
175.033106
20
140.028845
11
174.514670
21
139.447458
0
LINE
8
annotation
62
1
39
211
10
174.514670
20
139.447458
11
174.514670
21
139.447458
0
LINE
8
annotation
62
1
39
211
10
174.514670
20
139.447458
11
174.346290
21
139.220722
0
LINE
8
annotation
62
1
39
211
10
174.346290
20
139.220722
11
174.224344
21
138.974688
0
LINE
8
annotation
62
1
39
211
10
174.224344
20
138.974688
11
174.148462
21
138.715622
0
LINE
8
annotation
62
1
39
211
10
174.148462
20
138.715622
11
174.118275
21
138.449789
0
LINE
8
annotation
62
1
39
211
10
174.118275
20
138.449789
11
174.133415
21
138.183453
0
LINE
8
annotation
62
1
39
211
10
174.133415
20
138.183453
11
174.193512
21
137.922880
0
LINE
8
annotation
62
1
39
211
10
174.193512
20
137.922880
11
174.298198
21
137.674335
0
LINE
8
annotation
62
1
39
211
10
174.298198
20
137.674335
11
174.447104
21
137.444082
0
LINE
8
annotation
62
1
39
211
10
174.447104
20
137.444082
11
174.639862
21
137.238388
0
LINE
8
annotation
62
1
39
211
10
174.639862
20
137.238388
11
174.639862
21
137.238388
0
LINE
8
annotation
62
1
39
211
10
174.639862
20
137.238388
11
174.866217
21
137.070370
0
LINE
8
annotation
62
1
39
211
10
174.866217
20
137.070370
11
175.111980
21
136.948736
0
LINE
8
annotation
62
1
39
211
10
175.111980
20
136.948736
11
175.370878
21
136.873128
0
LINE
8
annotation
62
1
39
211
10
175.370878
20
136.873128
11
175.636638
21
136.843191
0
LINE
8
annotation
62
1
39
211
10
175.636638
20
136.843191
11
175.902986
21
136.858566
0
LINE
8
annotation
62
1
39
211
10
175.902986
20
136.858566
11
176.163649
21
136.918899
0
LINE
8
annotation
62
1
39
211
10
176.163649
20
136.918899
11
176.412352
21
137.023832
0
LINE
8
annotation
62
1
39
211
10
176.412352
20
137.023832
11
176.642824
21
137.173009
0
LINE
8
annotation
62
1
39
211
10
176.642824
20
137.173009
11
176.848789
21
137.366073
0
LINE
8
annotation
62
1
39
211
10
176.848789
20
137.366073
11
177.367225
21
137.947460
0
LINE
8
annotation
62
1
39
211
10
172.430640
20
137.110373
11
172.430640
21
137.110373
0
LINE
8
annotation
62
1
39
211
10
172.430640
20
137.110373
11
172.263125
21
136.884606
0
LINE
8
annotation
62
1
39
211
10
172.263125
20
136.884606
11
172.141833
21
136.639307
0
LINE
8
annotation
62
1
39
211
10
172.141833
20
136.639307
11
172.066423
21
136.380771
0
LINE
8
annotation
62
1
39
211
10
172.066423
20
136.380771
11
172.036557
21
136.115297
0
LINE
8
annotation
62
1
39
211
10
172.036557
20
136.115297
11
172.051894
21
135.849182
0
LINE
8
annotation
62
1
39
211
10
172.051894
20
135.849182
11
172.112094
21
135.588725
0
LINE
8
annotation
62
1
39
211
10
172.112094
20
135.588725
11
172.216818
21
135.340222
0
LINE
8
annotation
62
1
39
211
10
172.216818
20
135.340222
11
172.365725
21
135.109970
0
LINE
8
annotation
62
1
39
211
10
172.365725
20
135.109970
11
172.558477
21
134.904269
0
LINE
8
annotation
62
1
39
211
10
172.558477
20
134.904269
11
172.558477
21
134.904269
0
LINE
8
annotation
62
1
39
211
10
172.558477
20
134.904269
11
172.784828
21
134.736248
0
LINE
8
annotation
62
1
39
211
10
172.784828
20
134.736248
11
173.030566
21
134.614585
0
LINE
8
annotation
62
1
39
211
10
173.030566
20
134.614585
11
173.289395
21
134.538900
0
LINE
8
annotation
62
1
39
211
10
173.289395
20
134.538900
11
173.555021
21
134.508811
0
LINE
8
annotation
62
1
39
211
10
173.555021
20
134.508811
11
173.821148
21
134.523939
0
LINE
8
annotation
62
1
39
211
10
173.821148
20
134.523939
11
174.081480
21
134.583901
0
LINE
8
annotation
62
1
39
211
10
174.081480
20
134.583901
11
174.329723
21
134.688317
0
LINE
8
annotation
62
1
39
211
10
174.329723
20
134.688317
11
174.559581
21
134.836806
0
LINE
8
annotation
62
1
39
211
10
174.559581
20
134.836806
11
174.764759
21
135.028988
0
LINE
8
annotation
62
1
39
211
10
174.764759
20
135.028988
11
174.764759
21
135.028988
0
LINE
8
annotation
62
1
39
211
10
174.764759
20
135.028988
11
174.933138
21
135.255745
0
LINE
8
annotation
62
1
39
211
10
174.933138
20
135.255745
11
175.055084
21
135.501833
0
LINE
8
annotation
62
1
39
211
10
175.055084
20
135.501833
11
175.130971
21
135.760974
0
LINE
8
annotation
62
1
39
211
10
175.130971
20
135.760974
11
175.161168
21
136.026891
0
LINE
8
annotation
62
1
39
211
10
175.161168
20
136.026891
11
175.146050
21
136.293306
0
LINE
8
annotation
62
1
39
211
10
175.146050
20
136.293306
11
175.085988
21
136.553940
0
LINE
8
annotation
62
1
39
211
10
175.085988
20
136.553940
11
174.981355
21
136.802517
0
LINE
8
annotation
62
1
39
211
10
174.981355
20
136.802517
11
174.832522
21
137.032759
0
LINE
8
annotation
62
1
39
211
10
174.832522
20
137.032759
11
174.639862
21
137.238388
0
LINE
8
annotation
62
1
39
211
10
174.639862
20
137.238388
11
174.639862
21
137.238388
0
LINE
8
annotation
62
1
39
211
10
174.639862
20
137.238388
11
174.413593
21
137.406327
0
LINE
8
annotation
62
1
39
211
10
174.413593
20
137.406327
11
174.167873
21
137.527917
0
LINE
8
annotation
62
1
39
211
10
174.167873
20
137.527917
11
173.908980
21
137.603504
0
LINE
8
annotation
62
1
39
211
10
173.908980
20
137.603504
11
173.643195
21
137.633435
0
LINE
8
annotation
62
1
39
211
10
173.643195
20
137.633435
11
173.376795
21
137.618056
0
LINE
8
annotation
62
1
39
211
10
173.376795
20
137.618056
11
173.116061
21
137.557714
0
LINE
8
annotation
62
1
39
211
10
173.116061
20
137.557714
11
172.867270
21
137.452755
0
LINE
8
annotation
62
1
39
211
10
172.867270
20
137.452755
11
172.636704
21
137.303526
0
LINE
8
annotation
62
1
39
211
10
172.636704
20
137.303526
11
172.430640
21
137.110373
0
LINE
8
annotation
62
1
39
211
10
143.269612
20
106.591337
11
143.269612
21
106.591337
0
LINE
8
annotation
62
1
39
211
10
143.269612
20
106.591337
11
142.792423
21
106.587691
0
LINE
8
annotation
62
1
39
211
10
142.792423
20
106.587691
11
142.329699
21
106.516415
0
LINE
8
annotation
62
1
39
211
10
142.329699
20
106.516415
11
141.887388
21
106.381454
0
LINE
8
annotation
62
1
39
211
10
141.887388
20
106.381454
11
141.471439
21
106.186749
0
LINE
8
annotation
62
1
39
211
10
141.471439
20
106.186749
11
141.087801
21
105.936241
0
LINE
8
annotation
62
1
39
211
10
141.087801
20
105.936241
11
140.742421
21
105.633874
0
LINE
8
annotation
62
1
39
211
10
140.742421
20
105.633874
11
140.441249
21
105.283589
0
LINE
8
annotation
62
1
39
211
10
140.441249
20
105.283589
11
140.190232
21
104.889328
0
LINE
8
annotation
62
1
39
211
10
140.190232
20
104.889328
11
139.995320
21
104.455034
0
LINE
8
annotation
62
1
39
211
10
139.995320
20
104.455034
11
139.192127
21
102.248280
0
LINE
8
annotation
62
1
39
211
10
139.192127
20
102.248280
11
139.192127
21
102.248280
0
LINE
8
annotation
62
1
39
211
10
139.192127
20
102.248280
11
139.119570
21
101.975330
0
LINE
8
annotation
62
1
39
211
10
139.119570
20
101.975330
11
139.097200
21
101.701645
0
LINE
8
annotation
62
1
39
211
10
139.097200
20
101.701645
11
139.122400
21
101.432901
0
LINE
8
annotation
62
1
39
211
10
139.122400
20
101.432901
11
139.192550
21
101.174774
0
LINE
8
annotation
62
1
39
211
10
139.192550
20
101.174774
11
139.305034
21
100.932939
0
LINE
8
annotation
62
1
39
211
10
139.305034
20
100.932939
11
139.457232
21
100.713071
0
LINE
8
annotation
62
1
39
211
10
139.457232
20
100.713071
11
139.646528
21
100.520847
0
LINE
8
annotation
62
1
39
211
10
139.646528
20
100.520847
11
139.870301
21
100.361940
0
LINE
8
annotation
62
1
39
211
10
139.870301
20
100.361940
11
140.125936
21
100.242028
0
LINE
8
annotation
62
1
39
211
10
140.125936
20
100.242028
11
140.125936
21
100.242028
0
LINE
8
annotation
62
1
39
211
10
140.125936
20
100.242028
11
140.398295
21
100.169767
0
LINE
8
annotation
62
1
39
211
10
140.398295
20
100.169767
11
140.671568
21
100.147763
0
LINE
8
annotation
62
1
39
211
10
140.671568
20
100.147763
11
140.940051
21
100.173370
0
LINE
8
annotation
62
1
39
211
10
140.940051
20
100.173370
11
141.198038
21
100.243942
0
LINE
8
annotation
62
1
39
211
10
141.198038
20
100.243942
11
141.439825
21
100.356833
0
LINE
8
annotation
62
1
39
211
10
141.439825
20
100.356833
11
141.659706
21
100.509397
0
LINE
8
annotation
62
1
39
211
10
141.659706
20
100.509397
11
141.851977
21
100.698988
0
LINE
8
annotation
62
1
39
211
10
141.851977
20
100.698988
11
142.010933
21
100.922960
0
LINE
8
annotation
62
1
39
211
10
142.010933
20
100.922960
11
142.130868
21
101.178666
0
LINE
8
annotation
62
1
39
211
10
142.130868
20
101.178666
11
142.398650
21
101.914389
0
LINE
8
annotation
62
1
39
211
10
142.398650
20
101.914389
11
142.398650
21
101.914389
0
LINE
8
annotation
62
1
39
211
10
142.398650
20
101.914389
11
142.471133
21
102.187350
0
LINE
8
annotation
62
1
39
211
10
142.471133
20
102.187350
11
142.493319
21
102.461059
0
LINE
8
annotation
62
1
39
211
10
142.493319
20
102.461059
11
142.467877
21
102.729828
0
LINE
8
annotation
62
1
39
211
10
142.467877
20
102.729828
11
142.397481
21
102.987971
0
LINE
8
annotation
62
1
39
211
10
142.397481
20
102.987971
11
142.284801
21
103.229799
0
LINE
8
annotation
62
1
39
211
10
142.284801
20
103.229799
11
142.132511
21
103.449626
0
LINE
8
annotation
62
1
39
211
10
142.132511
20
103.449626
11
141.943281
21
103.641765
0
LINE
8
annotation
62
1
39
211
10
141.943281
20
103.641765
11
141.719783
21
103.800527
0
LINE
8
annotation
62
1
39
211
10
141.719783
20
103.800527
11
141.464690
21
103.920226
0
LINE
8
annotation
62
1
39
211
10
141.464690
20
103.920226
11
139.995320
21
104.455034
0
LINE
8
annotation
62
1
39
211
10
144.488341
20
107.084446
11
141.179871
21
108.288630
0
LINE
8
annotation
62
1
39
211
10
184.246108
20
62.863685
11
184.246108
21
56.089490
0
LINE
8
annotation
62
1
39
211
10
184.246108
20
56.089490
11
185.752098
21
57.595905
0
LINE
8
annotation
62
1
39
211
10
180.617881
20
62.774331
11
180.617881
21
62.774331
0
LINE
8
annotation
62
1
39
211
10
180.617881
20
62.774331
11
180.460440
21
62.833186
0
LINE
8
annotation
62
1
39
211
10
180.460440
20
62.833186
11
180.298972
21
62.862427
0
LINE
8
annotation
62
1
39
211
10
180.298972
20
62.862427
11
180.137126
21
62.863244
0
LINE
8
annotation
62
1
39
211
10
180.137126
20
62.863244
11
179.978552
21
62.836831
0
LINE
8
annotation
62
1
39
211
10
179.978552
20
62.836831
11
179.826901
21
62.784380
0
LINE
8
annotation
62
1
39
211
10
179.826901
20
62.784380
11
179.685824
21
62.707083
0
LINE
8
annotation
62
1
39
211
10
179.685824
20
62.707083
11
179.558970
21
62.606133
0
LINE
8
annotation
62
1
39
211
10
179.558970
20
62.606133
11
179.449991
21
62.482721
0
LINE
8
annotation
62
1
39
211
10
179.449991
20
62.482721
11
179.362535
21
62.338040
0
LINE
8
annotation
62
1
39
211
10
179.362535
20
62.338040
11
179.362535
21
62.338040
0
LINE
8
annotation
62
1
39
211
10
179.362535
20
62.338040
11
179.101601
21
61.727259
0
LINE
8
annotation
62
1
39
211
10
179.101601
20
61.727259
11
178.905900
21
61.098799
0
LINE
8
annotation
62
1
39
211
10
178.905900
20
61.098799
11
178.775433
21
60.457672
0
LINE
8
annotation
62
1
39
211
10
178.775433
20
60.457672
11
178.710199
21
59.808888
0
LINE
8
annotation
62
1
39
211
10
178.710199
20
59.808888
11
178.710199
21
59.157457
0
LINE
8
annotation
62
1
39
211
10
178.710199
20
59.157457
11
178.775433
21
58.508389
0
LINE
8
annotation
62
1
39
211
10
178.775433
20
58.508389
11
178.905900
21
57.866695
0
LINE
8
annotation
62
1
39
211
10
178.905900
20
57.866695
11
179.101601
21
57.237386
0
LINE
8
annotation
62
1
39
211
10
179.101601
20
57.237386
11
179.362535
21
56.625472
0
LINE
8
annotation
62
1
39
211
10
179.362535
20
56.625472
11
179.362535
21
56.625472
0
LINE
8
annotation
62
1
39
211
10
179.362535
20
56.625472
11
179.395719
21
56.563717
0
LINE
8
annotation
62
1
39
211
10
179.395719
20
56.563717
11
179.433339
21
56.504675
0
LINE
8
annotation
62
1
39
211
10
179.433339
20
56.504675
11
179.475113
21
56.448637
0
LINE
8
annotation
62
1
39
211
10
179.475113
20
56.448637
11
179.520758
21
56.395892
0
LINE
8
annotation
62
1
39
211
10
179.520758
20
56.395892
11
179.569990
21
56.346731
0
LINE
8
annotation
62
1
39
211
10
179.569990
20
56.346731
11
179.622526
21
56.301444
0
LINE
8
annotation
62
1
39
211
10
179.622526
20
56.301444
11
179.678083
21
56.260322
0
LINE
8
annotation
62
1
39
211
10
179.678083
20
56.260322
11
179.736378
21
56.223654
0
LINE
8
annotation
62
1
39
211
10
179.736378
20
56.223654
11
179.797127
21
56.191730
0
LINE
8
annotation
62
1
39
211
10
179.797127
20
56.191730
11
179.797127
21
56.191730
0
LINE
8
annotation
62
1
39
211
10
179.797127
20
56.191730
11
179.955818
21
56.131599
0
LINE
8
annotation
62
1
39
211
10
179.955818
20
56.131599
11
180.118232
21
56.101359
0
LINE
8
annotation
62
1
39
211
10
180.118232
20
56.101359
11
180.280762
21
56.099812
0
LINE
8
annotation
62
1
39
211
10
180.280762
20
56.099812
11
180.439799
21
56.125757
0
LINE
8
annotation
62
1
39
211
10
180.439799
20
56.125757
11
180.591735
21
56.177995
0
LINE
8
annotation
62
1
39
211
10
180.591735
20
56.177995
11
180.732961
21
56.255327
0
LINE
8
annotation
62
1
39
211
10
180.732961
20
56.255327
11
180.859868
21
56.356555
0
LINE
8
annotation
62
1
39
211
10
180.859868
20
56.356555
11
180.968850
21
56.480478
0
LINE
8
annotation
62
1
39
211
10
180.968850
20
56.480478
11
181.056296
21
56.625897
0
LINE
8
annotation
62
1
39
211
10
181.056296
20
56.625897
11
181.056296
21
56.625897
0
LINE
8
annotation
62
1
39
211
10
181.056296
20
56.625897
11
181.315972
21
57.236553
0
LINE
8
annotation
62
1
39
211
10
181.315972
20
57.236553
11
181.510729
21
57.864918
0
LINE
8
annotation
62
1
39
211
10
181.510729
20
57.864918
11
181.640567
21
58.505982
0
LINE
8
annotation
62
1
39
211
10
181.640567
20
58.505982
11
181.705486
21
59.154735
0
LINE
8
annotation
62
1
39
211
10
181.705486
20
59.154735
11
181.705486
21
59.806166
0
LINE
8
annotation
62
1
39
211
10
181.705486
20
59.806166
11
181.640567
21
60.455265
0
LINE
8
annotation
62
1
39
211
10
181.640567
20
60.455265
11
181.510729
21
61.097021
0
LINE
8
annotation
62
1
39
211
10
181.510729
20
61.097021
11
181.315972
21
61.726425
0
LINE
8
annotation
62
1
39
211
10
181.315972
20
61.726425
11
181.056296
21
62.338465
0
LINE
8
annotation
62
1
39
211
10
181.056296
20
62.338465
11
181.056296
21
62.338465
0
LINE
8
annotation
62
1
39
211
10
181.056296
20
62.338465
11
181.023234
21
62.400097
0
LINE
8
annotation
62
1
39
211
10
181.023234
20
62.400097
11
180.985892
21
62.458844
0
LINE
8
annotation
62
1
39
211
10
180.985892
20
62.458844
11
180.944427
21
62.514529
0
LINE
8
annotation
62
1
39
211
10
180.944427
20
62.514529
11
180.898997
21
62.566973
0
LINE
8
annotation
62
1
39
211
10
180.898997
20
62.566973
11
180.849760
21
62.615997
0
LINE
8
annotation
62
1
39
211
10
180.849760
20
62.615997
11
180.796872
21
62.661423
0
LINE
8
annotation
62
1
39
211
10
180.796872
20
62.661423
11
180.740492
21
62.703073
0
LINE
8
annotation
62
1
39
211
10
180.740492
20
62.703073
11
180.680776
21
62.740768
0
LINE
8
annotation
62
1
39
211
10
180.680776
20
62.740768
11
180.617881
21
62.774331
0
LINE
8
annotation
62
1
39
211
10
203.920215
20
41.930366
11
206.328584
21
35.313426
0
LINE
8
annotation
62
1
39
211
10
206.328584
20
35.313426
11
207.264052
21
37.320283
0
LINE
8
annotation
62
1
39
211
10
199.967832
20
40.491816
11
202.376201
21
33.874876
0
LINE
8
annotation
62
1
39
211
10
202.376201
20
33.874876
11
203.311669
21
35.881733
0
LINE
8
annotation
62
1
39
211
10
233.238100
20
39.400795
11
237.583632
21
34.221991
0
LINE
8
annotation
62
1
39
211
10
237.583632
20
34.221991
11
237.768607
21
36.339697
0
LINE
8
annotation
62
1
39
211
10
228.995754
20
35.841115
11
231.295785
21
37.771070
0
LINE
8
annotation
62
1
39
211
10
231.295785
20
37.771070
11
232.041432
21
32.566262
0
LINE
8
annotation
62
1
39
211
10
232.041432
20
32.566262
11
232.041432
21
32.566262
0
LINE
8
annotation
62
1
39
211
10
232.041432
20
32.566262
11
232.041529
21
32.560987
0
LINE
8
annotation
62
1
39
211
10
232.041529
20
32.560987
11
232.041753
21
32.555772
0
LINE
8
annotation
62
1
39
211
10
232.041753
20
32.555772
11
232.042110
21
32.550577
0
LINE
8
annotation
62
1
39
211
10
232.042110
20
32.550577
11
232.042607
21
32.545363
0
LINE
8
annotation
62
1
39
211
10
232.042607
20
32.545363
11
232.043249
21
32.540089
0
LINE
8
annotation
62
1
39
211
10
232.043249
20
32.540089
11
232.044044
21
32.534715
0
LINE
8
annotation
62
1
39
211
10
232.044044
20
32.534715
11
232.044997
21
32.529201
0
LINE
8
annotation
62
1
39
211
10
232.044997
20
32.529201
11
232.046116
21
32.523506
0
LINE
8
annotation
62
1
39
211
10
232.046116
20
32.523506
11
232.047405
21
32.517591
0
LINE
8
annotation
62
1
39
211
10
232.047405
20
32.517591
11
232.047405
21
32.517591
0
LINE
8
annotation
62
1
39
211
10
232.047405
20
32.517591
11
232.117750
21
32.255544
0
LINE
8
annotation
62
1
39
211
10
232.117750
20
32.255544
11
232.230368
21
32.017221
0
LINE
8
annotation
62
1
39
211
10
232.230368
20
32.017221
11
232.380301
21
31.805981
0
LINE
8
annotation
62
1
39
211
10
232.380301
20
31.805981
11
232.562589
21
31.625184
0
LINE
8
annotation
62
1
39
211
10
232.562589
20
31.625184
11
232.772273
21
31.478188
0
LINE
8
annotation
62
1
39
211
10
232.772273
20
31.478188
11
233.004393
21
31.368353
0
LINE
8
annotation
62
1
39
211
10
233.004393
20
31.368353
11
233.253989
21
31.299037
0
LINE
8
annotation
62
1
39
211
10
233.253989
20
31.299037
11
233.516104
21
31.273599
0
LINE
8
annotation
62
1
39
211
10
233.516104
20
31.273599
11
233.785776
21
31.295399
0
LINE
8
annotation
62
1
39
211
10
233.785776
20
31.295399
11
233.785776
21
31.295399
0
LINE
8
annotation
62
1
39
211
10
233.785776
20
31.295399
11
234.047301
21
31.367430
0
LINE
8
annotation
62
1
39
211
10
234.047301
20
31.367430
11
234.285261
21
31.481089
0
LINE
8
annotation
62
1
39
211
10
234.285261
20
31.481089
11
234.496235
21
31.631572
0
LINE
8
annotation
62
1
39
211
10
234.496235
20
31.631572
11
234.676804
21
31.814072
0
LINE
8
annotation
62
1
39
211
10
234.676804
20
31.814072
11
234.823549
21
32.023783
0
LINE
8
annotation
62
1
39
211
10
234.823549
20
32.023783
11
234.933048
21
32.255902
0
LINE
8
annotation
62
1
39
211
10
234.933048
20
32.255902
11
235.001883
21
32.505621
0
LINE
8
annotation
62
1
39
211
10
235.001883
20
32.505621
11
235.026634
21
32.768136
0
LINE
8
annotation
62
1
39
211
10
235.026634
20
32.768136
11
235.003881
21
33.038641
0
LINE
8
annotation
62
1
39
211
10
235.003881
20
33.038641
11
234.911816
21
33.455057
0
LINE
8
annotation
62
1
39
211
10
246.397939
20
38.483192
11
252.253507
21
35.102478
0
LINE
8
annotation
62
1
39
211
10
252.253507
20
35.102478
11
251.702948
21
37.156034
0
LINE
8
annotation
62
1
39
211
10
245.130460
20
36.287431
11
244.379732
21
34.987132
0
LINE
8
annotation
62
1
39
211
10
244.379732
20
34.987132
11
244.379732
21
34.987132
0
LINE
8
annotation
62
1
39
211
10
244.379732
20
34.987132
11
244.265691
21
34.741158
0
LINE
8
annotation
62
1
39
211
10
244.265691
20
34.741158
11
244.199104
21
34.486194
0
LINE
8
annotation
62
1
39
211
10
244.199104
20
34.486194
11
244.178374
21
34.228043
0
LINE
8
annotation
62
1
39
211
10
244.178374
20
34.228043
11
244.201901
21
33.972508
0
LINE
8
annotation
62
1
39
211
10
244.201901
20
33.972508
11
244.268088
21
33.725391
0
LINE
8
annotation
62
1
39
211
10
244.268088
20
33.725391
11
244.375337
21
33.492495
0
LINE
8
annotation
62
1
39
211
10
244.375337
20
33.492495
11
244.522048
21
33.279624
0
LINE
8
annotation
62
1
39
211
10
244.522048
20
33.279624
11
244.706624
21
33.092580
0
LINE
8
annotation
62
1
39
211
10
244.706624
20
33.092580
11
244.927467
21
32.937165
0
LINE
8
annotation
62
1
39
211
10
244.927467
20
32.937165
11
245.578535
21
32.561271
0
LINE
8
annotation
62
1
39
211
10
245.578535
20
32.561271
11
245.578535
21
32.561271
0
LINE
8
annotation
62
1
39
211
10
245.578535
20
32.561271
11
245.823452
21
32.447779
0
LINE
8
annotation
62
1
39
211
10
245.823452
20
32.447779
11
246.077674
21
32.381483
0
LINE
8
annotation
62
1
39
211
10
246.077674
20
32.381483
11
246.335367
21
32.360871
0
LINE
8
annotation
62
1
39
211
10
246.335367
20
32.360871
11
246.590697
21
32.384432
0
LINE
8
annotation
62
1
39
211
10
246.590697
20
32.384432
11
246.837830
21
32.450654
0
LINE
8
annotation
62
1
39
211
10
246.837830
20
32.450654
11
247.070933
21
32.558023
0
LINE
8
annotation
62
1
39
211
10
247.070933
20
32.558023
11
247.284172
21
32.705029
0
LINE
8
annotation
62
1
39
211
10
247.284172
20
32.705029
11
247.471715
21
32.890160
0
LINE
8
annotation
62
1
39
211
10
247.471715
20
32.890160
11
247.627726
21
33.111902
0
LINE
8
annotation
62
1
39
211
10
247.627726
20
33.111902
11
248.003620
21
33.762970
0
LINE
8
annotation
62
1
39
211
10
248.003620
20
33.762970
11
247.627726
21
33.111902
0
LINE
8
annotation
62
1
39
211
10
247.627726
20
33.111902
11
247.627726
21
33.111902
0
LINE
8
annotation
62
1
39
211
10
247.627726
20
33.111902
11
247.513702
21
32.865918
0
LINE
8
annotation
62
1
39
211
10
247.513702
20
32.865918
11
247.447180
21
32.610916
0
LINE
8
annotation
62
1
39
211
10
247.447180
20
32.610916
11
247.426585
21
32.352687
0
LINE
8
annotation
62
1
39
211
10
247.426585
20
32.352687
11
247.450338
21
32.097022
0
LINE
8
annotation
62
1
39
211
10
247.450338
20
32.097022
11
247.516863
21
31.849710
0
LINE
8
annotation
62
1
39
211
10
247.516863
20
31.849710
11
247.624582
21
31.616543
0
LINE
8
annotation
62
1
39
211
10
247.624582
20
31.616543
11
247.771918
21
31.403311
0
LINE
8
annotation
62
1
39
211
10
247.771918
20
31.403311
11
247.957294
21
31.215805
0
LINE
8
annotation
62
1
39
211
10
247.957294
20
31.215805
11
248.179133
21
31.059815
0
LINE
8
annotation
62
1
39
211
10
248.179133
20
31.059815
11
248.179133
21
31.059815
0
LINE
8
annotation
62
1
39
211
10
248.179133
20
31.059815
11
248.424051
21
30.946323
0
LINE
8
annotation
62
1
39
211
10
248.424051
20
30.946323
11
248.678272
21
30.880027
0
LINE
8
annotation
62
1
39
211
10
248.678272
20
30.880027
11
248.935965
21
30.859415
0
LINE
8
annotation
62
1
39
211
10
248.935965
20
30.859415
11
249.191295
21
30.882976
0
LINE
8
annotation
62
1
39
211
10
249.191295
20
30.882976
11
249.438428
21
30.949197
0
LINE
8
annotation
62
1
39
211
10
249.438428
20
30.949197
11
249.671531
21
31.056567
0
LINE
8
annotation
62
1
39
211
10
249.671531
20
31.056567
11
249.884771
21
31.203573
0
LINE
8
annotation
62
1
39
211
10
249.884771
20
31.203573
11
250.072313
21
31.388704
0
LINE
8
annotation
62
1
39
211
10
250.072313
20
31.388704
11
250.228324
21
31.610446
0
LINE
8
annotation
62
1
39
211
10
250.228324
20
31.610446
11
250.979052
21
32.910745
0
LINE
8
annotation
62
1
39
211
10
255.874667
20
39.935383
11
261.891370
21
38.874476
0
LINE
8
annotation
62
1
39
211
10
261.891370
20
38.874476
11
260.789256
21
40.447986
0
LINE
8
annotation
62
1
39
211
10
256.225383
20
34.102686
11
256.814450
21
37.443455
0
LINE
8
annotation
62
1
39
211
10
256.814450
20
37.443455
11
261.258309
21
35.284207
0
LINE
8
annotation
62
1
39
211
10
255.064366
20
35.339940
11
257.736528
21
34.868766
0
LINE
8
annotation
62
1
39
211
10
261.936309
20
42.763415
11
268.595017
21
43.937525
0
LINE
8
annotation
62
1
39
211
10
268.595017
20
43.937525
11
266.853264
21
45.156747
0
LINE
8
annotation
62
1
39
211
10
262.376564
20
40.266609
11
262.637289
21
38.787963
0
LINE
8
annotation
62
1
39
211
10
262.637289
20
38.787963
11
262.637289
21
38.787963
0
LINE
8
annotation
62
1
39
211
10
262.637289
20
38.787963
11
262.707946
21
38.526782
0
LINE
8
annotation
62
1
39
211
10
262.707946
20
38.526782
11
262.820809
21
38.288966
0
LINE
8
annotation
62
1
39
211
10
262.820809
20
38.288966
11
262.970948
21
38.077989
0
LINE
8
annotation
62
1
39
211
10
262.970948
20
38.077989
11
263.153429
21
37.897325
0
LINE
8
annotation
62
1
39
211
10
263.153429
20
37.897325
11
263.363320
21
37.750451
0
LINE
8
annotation
62
1
39
211
10
263.363320
20
37.750451
11
263.595688
21
37.640840
0
LINE
8
annotation
62
1
39
211
10
263.595688
20
37.640840
11
263.845600
21
37.571967
0
LINE
8
annotation
62
1
39
211
10
263.845600
20
37.571967
11
264.108125
21
37.547308
0
LINE
8
annotation
62
1
39
211
10
264.108125
20
37.547308
11
264.378330
21
37.570337
0
LINE
8
annotation
62
1
39
211
10
264.378330
20
37.570337
11
265.114938
21
37.700221
0
LINE
8
annotation
62
1
39
211
10
265.114938
20
37.700221
11
265.114938
21
37.700221
0
LINE
8
annotation
62
1
39
211
10
265.114938
20
37.700221
11
265.376598
21
37.770960
0
LINE
8
annotation
62
1
39
211
10
265.376598
20
37.770960
11
265.614517
21
37.883825
0
LINE
8
annotation
62
1
39
211
10
265.614517
20
37.883825
11
265.825310
21
38.033887
0
LINE
8
annotation
62
1
39
211
10
265.825310
20
38.033887
11
266.005591
21
38.216212
0
LINE
8
annotation
62
1
39
211
10
266.005591
20
38.216212
11
266.151972
21
38.425872
0
LINE
8
annotation
62
1
39
211
10
266.151972
20
38.425872
11
266.261067
21
38.657934
0
LINE
8
annotation
62
1
39
211
10
266.261067
20
38.657934
11
266.329489
21
38.907467
0
LINE
8
annotation
62
1
39
211
10
266.329489
20
38.907467
11
266.353853
21
39.169541
0
LINE
8
annotation
62
1
39
211
10
266.353853
20
39.169541
11
266.330771
21
39.439224
0
LINE
8
annotation
62
1
39
211
10
266.330771
20
39.439224
11
266.070046
21
40.917869
0
LINE
8
annotation
62
1
39
211
10
266.070046
20
40.917869
11
269.035271
21
41.440718
0
LINE
8
annotation
62
1
39
211
10
269.035271
20
41.440718
11
269.556721
21
38.483427
0
LINE
8
annotation
62
1
39
211
10
267.040261
20
44.716430
11
272.895830
21
48.097145
0
LINE
8
annotation
62
1
39
211
10
272.895830
20
48.097145
11
270.842119
21
48.647125
0
LINE
8
annotation
62
1
39
211
10
275.291174
20
43.948287
11
275.291174
21
43.948287
0
LINE
8
annotation
62
1
39
211
10
275.291174
20
43.948287
11
274.936444
21
44.240154
0
LINE
8
annotation
62
1
39
211
10
274.936444
20
44.240154
11
274.550910
21
44.473327
0
LINE
8
annotation
62
1
39
211
10
274.550910
20
44.473327
11
274.141314
21
44.647018
0
LINE
8
annotation
62
1
39
211
10
274.141314
20
44.647018
11
273.714397
21
44.760442
0
LINE
8
annotation
62
1
39
211
10
273.714397
20
44.760442
11
273.276900
21
44.812811
0
LINE
8
annotation
62
1
39
211
10
273.276900
20
44.812811
11
272.835562
21
44.803339
0
LINE
8
annotation
62
1
39
211
10
272.835562
20
44.803339
11
272.397125
21
44.731238
0
LINE
8
annotation
62
1
39
211
10
272.397125
20
44.731238
11
271.968330
21
44.595723
0
LINE
8
annotation
62
1
39
211
10
271.968330
20
44.595723
11
271.555917
21
44.396006
0
LINE
8
annotation
62
1
39
211
10
271.555917
20
44.396006
11
269.609691
21
43.272352
0
LINE
8
annotation
62
1
39
211
10
269.609691
20
43.272352
11
269.609691
21
43.272352
0
LINE
8
annotation
62
1
39
211
10
269.609691
20
43.272352
11
269.387900
21
43.116309
0
LINE
8
annotation
62
1
39
211
10
269.387900
20
43.116309
11
269.202644
21
42.928671
0
LINE
8
annotation
62
1
39
211
10
269.202644
20
42.928671
11
269.055471
21
42.715271
0
LINE
8
annotation
62
1
39
211
10
269.055471
20
42.715271
11
268.947923
21
42.481941
0
LINE
8
annotation
62
1
39
211
10
268.947923
20
42.481941
11
268.881547
21
42.234513
0
LINE
8
annotation
62
1
39
211
10
268.881547
20
42.234513
11
268.857886
21
41.978821
0
LINE
8
annotation
62
1
39
211
10
268.857886
20
41.978821
11
268.878487
21
41.720695
0
LINE
8
annotation
62
1
39
211
10
268.878487
20
41.720695
11
268.944894
21
41.465970
0
LINE
8
annotation
62
1
39
211
10
268.944894
20
41.465970
11
269.058651
21
41.220477
0
LINE
8
annotation
62
1
39
211
10
269.058651
20
41.220477
11
269.058651
21
41.220477
0
LINE
8
annotation
62
1
39
211
10
269.058651
20
41.220477
11
269.214655
21
40.998730
0
LINE
8
annotation
62
1
39
211
10
269.214655
20
40.998730
11
269.402199
21
40.813600
0
LINE
8
annotation
62
1
39
211
10
269.402199
20
40.813600
11
269.615485
21
40.666621
0
LINE
8
annotation
62
1
39
211
10
269.615485
20
40.666621
11
269.848717
21
40.559326
0
LINE
8
annotation
62
1
39
211
10
269.848717
20
40.559326
11
270.096096
21
40.493247
0
LINE
8
annotation
62
1
39
211
10
270.096096
20
40.493247
11
270.351826
21
40.469917
0
LINE
8
annotation
62
1
39
211
10
270.351826
20
40.469917
11
270.610110
21
40.490869
0
LINE
8
annotation
62
1
39
211
10
270.610110
20
40.490869
11
270.865149
21
40.557637
0
LINE
8
annotation
62
1
39
211
10
270.865149
20
40.557637
11
271.111147
21
40.671754
0
LINE
8
annotation
62
1
39
211
10
271.111147
20
40.671754
11
271.758910
21
41.045740
0
LINE
8
annotation
62
1
39
211
10
271.758910
20
41.045740
11
271.758910
21
41.045740
0
LINE
8
annotation
62
1
39
211
10
271.758910
20
41.045740
11
271.980623
21
41.201657
0
LINE
8
annotation
62
1
39
211
10
271.980623
20
41.201657
11
272.165662
21
41.388968
0
LINE
8
annotation
62
1
39
211
10
272.165662
20
41.388968
11
272.312509
21
41.601918
0
LINE
8
annotation
62
1
39
211
10
272.312509
20
41.601918
11
272.419649
21
41.834750
0
LINE
8
annotation
62
1
39
211
10
272.419649
20
41.834750
11
272.485564
21
42.081710
0
LINE
8
annotation
62
1
39
211
10
272.485564
20
42.081710
11
272.508738
21
42.337041
0
LINE
8
annotation
62
1
39
211
10
272.508738
20
42.337041
11
272.487654
21
42.594988
0
LINE
8
annotation
62
1
39
211
10
272.487654
20
42.594988
11
272.420795
21
42.849795
0
LINE
8
annotation
62
1
39
211
10
272.420795
20
42.849795
11
272.306645
21
43.095707
0
LINE
8
annotation
62
1
39
211
10
272.306645
20
43.095707
11
271.555917
21
44.396006
0
LINE
8
annotation
62
1
39
211
10
267.481951
20
42.261045
11
269.172308
21
39.333261
0
LINE
8
annotation
62
1
39
211
10
273.198608
20
46.023284
11
277.542416
21
51.200033
0
LINE
8
annotation
62
1
39
211
10
277.542416
20
51.200033
11
275.425602
21
51.014535
0
LINE
8
annotation
62
1
39
211
10
276.290746
20
43.428671
11
281.785412
21
47.639736
0
LINE
8
annotation
62
1
39
211
10
281.785412
20
47.639736
11
279.483372
21
49.571377
0
LINE
8
annotation
62
1
39
211
10
279.851047
20
45.334450
11
278.700190
21
46.300134
0
LINE
8
annotation
62
1
39
211
10
279.965048
20
49.493829
11
282.277593
21
55.847494
0
LINE
8
annotation
62
1
39
211
10
282.277593
20
55.847494
11
280.350839
21
54.948703
0
LINE
8
annotation
62
1
39
211
10
282.860204
20
50.035413
11
282.860204
21
50.035413
0
LINE
8
annotation
62
1
39
211
10
282.860204
20
50.035413
11
282.790649
21
49.773436
0
LINE
8
annotation
62
1
39
211
10
282.790649
20
49.773436
11
282.769466
21
49.510947
0
LINE
8
annotation
62
1
39
211
10
282.769466
20
49.510947
11
282.794069
21
49.253348
0
LINE
8
annotation
62
1
39
211
10
282.794069
20
49.253348
11
282.861871
21
49.006042
0
LINE
8
annotation
62
1
39
211
10
282.861871
20
49.006042
11
282.970283
21
48.774431
0
LINE
8
annotation
62
1
39
211
10
282.970283
20
48.774431
11
283.116721
21
48.563916
0
LINE
8
annotation
62
1
39
211
10
283.116721
20
48.563916
11
283.298595
21
48.379900
0
LINE
8
annotation
62
1
39
211
10
283.298595
20
48.379900
11
283.513320
21
48.227784
0
LINE
8
annotation
62
1
39
211
10
283.513320
20
48.227784
11
283.758308
21
48.112970
0
LINE
8
annotation
62
1
39
211
10
283.758308
20
48.112970
11
283.758308
21
48.112970
0
LINE
8
annotation
62
1
39
211
10
283.758308
20
48.112970
11
284.019781
21
48.043447
0
LINE
8
annotation
62
1
39
211
10
284.019781
20
48.043447
11
284.282048
21
48.021953
0
LINE
8
annotation
62
1
39
211
10
284.282048
20
48.021953
11
284.539655
21
48.046011
0
LINE
8
annotation
62
1
39
211
10
284.539655
20
48.046011
11
284.787149
21
48.113146
0
LINE
8
annotation
62
1
39
211
10
284.787149
20
48.113146
11
285.019075
21
48.220884
0
LINE
8
annotation
62
1
39
211
10
285.019075
20
48.220884
11
285.229979
21
48.366750
0
LINE
8
annotation
62
1
39
211
10
285.229979
20
48.366750
11
285.414407
21
48.548267
0
LINE
8
annotation
62
1
39
211
10
285.414407
20
48.548267
11
285.566904
21
48.762961
0
LINE
8
annotation
62
1
39
211
10
285.566904
20
48.762961
11
285.682018
21
49.008357
0
LINE
8
annotation
62
1
39
211
10
285.682018
20
49.008357
11
285.937840
21
49.711221
0
LINE
8
annotation
62
1
39
211
10
285.937840
20
49.711221
11
285.937840
21
49.711221
0
LINE
8
annotation
62
1
39
211
10
285.937840
20
49.711221
11
286.007453
21
49.973317
0
LINE
8
annotation
62
1
39
211
10
286.007453
20
49.973317
11
286.028788
21
50.236123
0
LINE
8
annotation
62
1
39
211
10
286.028788
20
50.236123
11
286.004401
21
50.494183
0
LINE
8
annotation
62
1
39
211
10
286.004401
20
50.494183
11
285.936848
21
50.742039
0
LINE
8
annotation
62
1
39
211
10
285.936848
20
50.742039
11
285.828685
21
50.974234
0
LINE
8
annotation
62
1
39
211
10
285.828685
20
50.974234
11
285.682467
21
51.185309
0
LINE
8
annotation
62
1
39
211
10
285.682467
20
51.185309
11
285.500750
21
51.369809
0
LINE
8
annotation
62
1
39
211
10
285.500750
20
51.369809
11
285.286089
21
51.522275
0
LINE
8
annotation
62
1
39
211
10
285.286089
20
51.522275
11
285.041041
21
51.637250
0
LINE
8
annotation
62
1
39
211
10
285.041041
20
51.637250
11
285.041041
21
51.637250
0
LINE
8
annotation
62
1
39
211
10
285.041041
20
51.637250
11
284.779414
21
51.706675
0
LINE
8
annotation
62
1
39
211
10
284.779414
20
51.706675
11
284.516959
21
51.727828
0
LINE
8
annotation
62
1
39
211
10
284.516959
20
51.727828
11
284.259146
21
51.703256
0
LINE
8
annotation
62
1
39
211
10
284.259146
20
51.703256
11
284.011444
21
51.635507
0
LINE
8
annotation
62
1
39
211
10
284.011444
20
51.635507
11
283.779322
21
51.527129
0
LINE
8
annotation
62
1
39
211
10
283.779322
20
51.527129
11
283.568250
21
51.380669
0
LINE
8
annotation
62
1
39
211
10
283.568250
20
51.380669
11
283.383697
21
51.198675
0
LINE
8
annotation
62
1
39
211
10
283.383697
20
51.198675
11
283.231133
21
50.983696
0
LINE
8
annotation
62
1
39
211
10
283.231133
20
50.983696
11
283.116025
21
50.738277
0
LINE
8
annotation
62
1
39
211
10
283.116025
20
50.738277
11
282.860204
21
50.035413
0
LINE
8
annotation
62
1
39
211
10
286.966201
20
52.536621
11
286.966201
21
52.536621
0
LINE
8
annotation
62
1
39
211
10
286.966201
20
52.536621
11
287.035388
21
52.797545
0
LINE
8
annotation
62
1
39
211
10
287.035388
20
52.797545
11
287.056400
21
53.059464
0
LINE
8
annotation
62
1
39
211
10
287.056400
20
53.059464
11
287.031780
21
53.316883
0
LINE
8
annotation
62
1
39
211
10
287.031780
20
53.316883
11
286.964069
21
53.564305
0
LINE
8
annotation
62
1
39
211
10
286.964069
20
53.564305
11
286.855808
21
53.796232
0
LINE
8
annotation
62
1
39
211
10
286.855808
20
53.796232
11
286.709539
21
54.007168
0
LINE
8
annotation
62
1
39
211
10
286.709539
20
54.007168
11
286.527804
21
54.191617
0
LINE
8
annotation
62
1
39
211
10
286.527804
20
54.191617
11
286.313143
21
54.344081
0
LINE
8
annotation
62
1
39
211
10
286.313143
20
54.344081
11
286.068097
21
54.459064
0
LINE
8
annotation
62
1
39
211
10
286.068097
20
54.459064
11
286.068097
21
54.459064
0
LINE
8
annotation
62
1
39
211
10
286.068097
20
54.459064
11
285.806472
21
54.528494
0
LINE
8
annotation
62
1
39
211
10
285.806472
20
54.528494
11
285.544030
21
54.549681
0
LINE
8
annotation
62
1
39
211
10
285.544030
20
54.549681
11
285.286251
21
54.525203
0
LINE
8
annotation
62
1
39
211
10
285.286251
20
54.525203
11
285.038615
21
54.457636
0
LINE
8
annotation
62
1
39
211
10
285.038615
20
54.457636
11
284.806603
21
54.349558
0
LINE
8
annotation
62
1
39
211
10
284.806603
20
54.349558
11
284.595694
21
54.203546
0
LINE
8
annotation
62
1
39
211
10
284.595694
20
54.203546
11
284.411368
21
54.022177
0
LINE
8
annotation
62
1
39
211
10
284.411368
20
54.022177
11
284.259106
21
53.808029
0
LINE
8
annotation
62
1
39
211
10
284.259106
20
53.808029
11
284.144387
21
53.563677
0
LINE
8
annotation
62
1
39
211
10
284.144387
20
53.563677
11
284.144387
21
53.563677
0
LINE
8
annotation
62
1
39
211
10
284.144387
20
53.563677
11
284.074782
21
53.301563
0
LINE
8
annotation
62
1
39
211
10
284.074782
20
53.301563
11
284.053466
21
53.038708
0
LINE
8
annotation
62
1
39
211
10
284.053466
20
53.038708
11
284.077876
21
52.780579
0
LINE
8
annotation
62
1
39
211
10
284.077876
20
52.780579
11
284.145449
21
52.532645
0
LINE
8
annotation
62
1
39
211
10
284.145449
20
52.532645
11
284.253621
21
52.300372
0
LINE
8
annotation
62
1
39
211
10
284.253621
20
52.300372
11
284.399829
21
52.089229
0
LINE
8
annotation
62
1
39
211
10
284.399829
20
52.089229
11
284.581511
21
51.904682
0
LINE
8
annotation
62
1
39
211
10
284.581511
20
51.904682
11
284.796102
21
51.752200
0
LINE
8
annotation
62
1
39
211
10
284.796102
20
51.752200
11
285.041041
21
51.637250
0
LINE
8
annotation
62
1
39
211
10
285.041041
20
51.637250
11
285.041041
21
51.637250
0
LINE
8
annotation
62
1
39
211
10
285.041041
20
51.637250
11
285.302563
21
51.567864
0
LINE
8
annotation
62
1
39
211
10
285.302563
20
51.567864
11
285.564964
21
51.546735
0
LINE
8
annotation
62
1
39
211
10
285.564964
20
51.546735
11
285.822764
21
51.571323
0
LINE
8
annotation
62
1
39
211
10
285.822764
20
51.571323
11
286.070486
21
51.639087
0
LINE
8
annotation
62
1
39
211
10
286.070486
20
51.639087
11
286.302653
21
51.747487
0
LINE
8
annotation
62
1
39
211
10
286.302653
20
51.747487
11
286.513786
21
51.893981
0
LINE
8
annotation
62
1
39
211
10
286.513786
20
51.893981
11
286.698407
21
52.076028
0
LINE
8
annotation
62
1
39
211
10
286.698407
20
52.076028
11
286.851038
21
52.291089
0
LINE
8
annotation
62
1
39
211
10
286.851038
20
52.291089
11
286.966201
21
52.536621
0
LINE
8
annotation
62
1
39
211
10
212.116287
20
81.509617
11
192.838928
21
81.509617
0
LINE
8
annotation
62
1
39
211
10
192.838928
20
81.509617
11
212.116287
21
116.228022
0
LINE
8
annotation
62
1
39
211
10
212.116287
20
116.228022
11
192.838928
21
116.228022
0
LINE
8
annotation
62
1
39
211
10
244.122385
20
98.868819
11
225.138955
21
98.868819
0
LINE
8
annotation
62
1
39
211
10
260.987897
20
81.509617
11
260.987897
21
81.509617
0
LINE
8
annotation
62
1
39
211
10
260.987897
20
81.509617
11
263.192625
21
82.331207
0
LINE
8
annotation
62
1
39
211
10
263.192625
20
82.331207
11
265.216293
21
83.441735
0
LINE
8
annotation
62
1
39
211
10
265.216293
20
83.441735
11
267.037987
21
84.812906
0
LINE
8
annotation
62
1
39
211
10
267.037987
20
84.812906
11
268.636795
21
86.416424
0
LINE
8
annotation
62
1
39
211
10
268.636795
20
86.416424
11
269.991805
21
88.223994
0
LINE
8
annotation
62
1
39
211
10
269.991805
20
88.223994
11
271.082105
21
90.207321
0
LINE
8
annotation
62
1
39
211
10
271.082105
20
90.207321
11
271.886782
21
92.338110
0
LINE
8
annotation
62
1
39
211
10
271.886782
20
92.338110
11
272.384924
21
94.588065
0
LINE
8
annotation
62
1
39
211
10
272.384924
20
94.588065
11
272.555618
21
96.928891
0
LINE
8
annotation
62
1
39
211
10
272.555618
20
96.928891
11
272.555618
21
108.507499
0
LINE
8
annotation
62
1
39
211
10
272.555618
20
108.507499
11
272.555618
21
108.507499
0
LINE
8
annotation
62
1
39
211
10
272.555618
20
108.507499
11
272.431503
21
109.894469
0
LINE
8
annotation
62
1
39
211
10
272.431503
20
109.894469
11
272.073625
21
111.200209
0
LINE
8
annotation
62
1
39
211
10
272.073625
20
111.200209
11
271.503685
21
112.402839
0
LINE
8
annotation
62
1
39
211
10
271.503685
20
112.402839
11
270.743383
21
113.480478
0
LINE
8
annotation
62
1
39
211
10
270.743383
20
113.480478
11
269.814421
21
114.411247
0
LINE
8
annotation
62
1
39
211
10
269.814421
20
114.411247
11
268.738499
21
115.173266
0
LINE
8
annotation
62
1
39
211
10
268.738499
20
115.173266
11
267.537317
21
115.744655
0
LINE
8
annotation
62
1
39
211
10
267.537317
20
115.744655
11
266.232578
21
116.103534
0
LINE
8
annotation
62
1
39
211
10
266.232578
20
116.103534
11
264.845981
21
116.228022
0
LINE
8
annotation
62
1
39
211
10
264.845981
20
116.228022
11
264.845981
21
116.228022
0
LINE
8
annotation
62
1
39
211
10
264.845981
20
116.228022
11
263.462252
21
116.103534
0
LINE
8
annotation
62
1
39
211
10
263.462252
20
116.103534
11
262.159036
21
115.744655
0
LINE
8
annotation
62
1
39
211
10
262.159036
20
115.744655
11
260.958302
21
115.173266
0
LINE
8
annotation
62
1
39
211
10
260.958302
20
115.173266
11
259.882022
21
114.411247
0
LINE
8
annotation
62
1
39
211
10
259.882022
20
114.411247
11
258.952163
21
113.480478
0
LINE
8
annotation
62
1
39
211
10
258.952163
20
113.480478
11
258.190697
21
112.402839
0
LINE
8
annotation
62
1
39
211
10
258.190697
20
112.402839
11
257.619592
21
111.200209
0
LINE
8
annotation
62
1
39
211
10
257.619592
20
111.200209
11
257.260818
21
109.894469
0
LINE
8
annotation
62
1
39
211
10
257.260818
20
109.894469
11
257.136344
21
108.507499
0
LINE
8
annotation
62
1
39
211
10
257.136344
20
108.507499
11
257.136344
21
104.647237
0
LINE
8
annotation
62
1
39
211
10
257.136344
20
104.647237
11
257.136344
21
104.647237
0
LINE
8
annotation
62
1
39
211
10
257.136344
20
104.647237
11
257.260818
21
103.260342
0
LINE
8
annotation
62
1
39
211
10
257.260818
20
103.260342
11
257.619592
21
101.954802
0
LINE
8
annotation
62
1
39
211
10
257.619592
20
101.954802
11
258.190697
21
100.752462
0
LINE
8
annotation
62
1
39
211
10
258.190697
20
100.752462
11
258.952163
21
99.675166
0
LINE
8
annotation
62
1
39
211
10
258.952163
20
99.675166
11
259.882022
21
98.744758
0
LINE
8
annotation
62
1
39
211
10
259.882022
20
98.744758
11
260.958302
21
97.983082
0
LINE
8
annotation
62
1
39
211
10
260.958302
20
97.983082
11
262.159036
21
97.411983
0
LINE
8
annotation
62
1
39
211
10
262.159036
20
97.411983
11
263.462252
21
97.053305
0
LINE
8
annotation
62
1
39
211
10
263.462252
20
97.053305
11
264.845981
21
96.928891
0
LINE
8
annotation
62
1
39
211
10
264.845981
20
96.928891
11
272.555618
21
96.928891
0
LINE
8
annotation
62
1
39
211
10
256.172912
20
77.169816
11
273.532114
21
77.169816
0
LINE
8
boundary
62
5
39
2
10
368.200741
20
6.769856
11
370.751903
21
8.339307
0
LINE
8
boundary
62
5
39
2
10
370.751903
20
8.339307
11
375.482053
21
11.541089
0
LINE
8
boundary
62
5
39
2
10
375.482053
20
11.541089
11
384.760251
21
17.821389
0
LINE
8
boundary
62
5
39
2
10
384.760251
20
17.821389
11
405.344028
21
31.754300
0
LINE
8
boundary
62
5
39
2
10
405.344028
20
31.754300
11
427.238733
21
46.574563
0
LINE
8
boundary
62
5
39
2
10
427.238733
20
46.574563
11
426.898490
21
51.038613
0
LINE
8
boundary
62
5
39
2
10
426.898490
20
51.038613
11
417.967517
21
101.688676
0
LINE
8
boundary
62
5
39
2
10
417.967517
20
101.688676
11
421.956973
21
102.392125
0
LINE
8
boundary
62
5
39
2
10
421.956973
20
102.392125
11
430.505022
21
53.913732
0
LINE
8
boundary
62
5
39
2
10
430.505022
20
53.913732
11
431.712093
21
49.602526
0
LINE
8
boundary
62
5
39
2
10
431.712093
20
49.602526
11
458.496960
21
67.732880
0
LINE
8
boundary
62
5
39
2
10
458.496960
20
67.732880
11
468.806861
21
74.711528
0
LINE
8
boundary
62
5
39
2
10
468.806861
20
74.711528
11
468.488652
21
76.199842
0
LINE
8
boundary
62
5
39
2
10
468.488652
20
76.199842
11
464.447840
21
85.572395
0
LINE
8
boundary
62
5
39
2
10
464.447840
20
85.572395
11
462.771965
21
89.426017
0
LINE
8
boundary
62
5
39
2
10
462.771965
20
89.426017
11
461.355090
21
93.660377
0
LINE
8
boundary
62
5
39
2
10
461.355090
20
93.660377
11
457.375722
21
98.712430
0
LINE
8
boundary
62
5
39
2
10
457.375722
20
98.712430
11
454.081247
21
102.618232
0
LINE
8
boundary
62
5
39
2
10
454.081247
20
102.618232
11
451.106433
21
106.019008
0
LINE
8
boundary
62
5
39
2
10
451.106433
20
106.019008
11
447.447898
21
108.770596
0
LINE
8
boundary
62
5
39
2
10
447.447898
20
108.770596
11
443.647158
21
110.140777
0
LINE
8
boundary
62
5
39
2
10
443.647158
20
110.140777
11
434.130340
21
117.468345
0
LINE
8
boundary
62
5
39
2
10
434.130340
20
117.468345
11
433.688079
21
117.851874
0
LINE
8
boundary
62
5
39
2
10
433.688079
20
117.851874
11
431.499902
21
119.775855
0
LINE
8
boundary
62
5
39
2
10
431.499902
20
119.775855
11
420.443758
21
129.097136
0
LINE
8
boundary
62
5
39
2
10
420.443758
20
129.097136
11
416.080296
21
130.338515
0
LINE
8
boundary
62
5
39
2
10
416.080296
20
130.338515
11
416.380918
21
135.589683
0
LINE
8
boundary
62
5
39
2
10
416.380918
20
135.589683
11
414.938180
21
141.626109
0
LINE
8
boundary
62
5
39
2
10
414.938180
20
141.626109
11
415.573588
21
148.012751
0
LINE
8
boundary
62
5
39
2
10
415.573588
20
148.012751
11
410.108407
21
155.371169
0
LINE
8
boundary
62
5
39
2
10
410.108407
20
155.371169
11
398.097030
21
165.033947
0
LINE
8
boundary
62
5
39
2
10
398.097030
20
165.033947
11
397.280926
21
165.193035
0
LINE
8
boundary
62
5
39
2
10
397.280926
20
165.193035
11
380.923733
21
163.235673
0
LINE
8
boundary
62
5
39
2
10
380.923733
20
163.235673
11
378.870375
21
162.313987
0
LINE
8
boundary
62
5
39
2
10
378.870375
20
162.313987
11
371.925362
21
157.936263
0
LINE
8
boundary
62
5
39
2
10
371.925362
20
157.936263
11
361.311745
21
150.698197
0
LINE
8
boundary
62
5
39
2
10
361.311745
20
150.698197
11
356.791204
21
146.152417
0
LINE
8
boundary
62
5
39
2
10
356.791204
20
146.152417
11
346.137585
21
130.568583
0
LINE
8
boundary
62
5
39
2
10
346.137585
20
130.568583
11
340.033798
21
116.116752
0
LINE
8
boundary
62
5
39
2
10
340.033798
20
116.116752
11
334.154472
21
106.032939
0
LINE
8
boundary
62
5
39
2
10
334.154472
20
106.032939
11
331.548937
21
81.936976
0
LINE
8
boundary
62
5
39
2
10
331.548937
20
81.936976
11
331.297077
21
79.686088
0
LINE
8
boundary
62
5
39
2
10
331.297077
20
79.686088
11
335.332822
21
63.744454
0
LINE
8
boundary
62
5
39
2
10
335.332822
20
63.744454
11
338.134391
21
52.979579
0
LINE
8
boundary
62
5
39
2
10
338.134391
20
52.979579
11
338.724431
21
51.778890
0
LINE
8
boundary
62
5
39
2
10
338.724431
20
51.778890
11
344.623204
21
39.399838
0
LINE
8
boundary
62
5
39
2
10
344.623204
20
39.399838
11
345.830275
21
43.711044
0
LINE
8
boundary
62
5
39
2
10
345.830275
20
43.711044
11
355.064888
21
96.083139
0
LINE
8
boundary
62
5
39
2
10
355.064888
20
96.083139
11
359.054345
21
95.379690
0
LINE
8
boundary
62
5
39
2
10
359.054345
20
95.379690
11
348.618293
21
36.193900
0
LINE
8
boundary
62
5
39
2
10
348.618293
20
36.193900
11
348.278050
21
31.729850
0
LINE
8
boundary
62
5
39
2
10
348.278050
20
31.729850
11
350.141227
21
27.819821
0
LINE
8
boundary
62
5
39
2
10
350.141227
20
27.819821
11
354.704933
21
22.142115
0
LINE
8
boundary
62
5
39
2
10
354.704933
20
22.142115
11
361.159044
21
14.870489
0
LINE
8
boundary
62
5
39
2
10
361.159044
20
14.870489
11
367.979322
21
6.936775
0
LINE
8
boundary
62
5
39
2
10
367.979322
20
6.936775
11
368.200741
21
6.769856
0
LINE
8
annotation
62
1
39
211
10
355.985732
20
107.232774
11
362.002435
21
106.171867
0
LINE
8
annotation
62
1
39
211
10
362.002435
20
106.171867
11
360.900321
21
107.745377
0
LINE
8
annotation
62
1
39
211
10
356.336447
20
101.400078
11
356.925515
21
104.740846
0
LINE
8
annotation
62
1
39
211
10
356.925515
20
104.740846
11
361.369374
21
102.581598
0
LINE
8
annotation
62
1
39
211
10
355.175431
20
102.637331
11
357.847593
21
102.166157
0
LINE
8
annotation
62
1
39
211
10
414.723580
20
112.281587
11
421.382288
21
113.455696
0
LINE
8
annotation
62
1
39
211
10
421.382288
20
113.455696
11
419.640535
21
114.674919
0
LINE
8
annotation
62
1
39
211
10
415.163835
20
109.784780
11
415.424560
21
108.306135
0
LINE
8
annotation
62
1
39
211
10
415.424560
20
108.306135
11
415.424560
21
108.306135
0
LINE
8
annotation
62
1
39
211
10
415.424560
20
108.306135
11
415.495216
21
108.044954
0
LINE
8
annotation
62
1
39
211
10
415.495216
20
108.044954
11
415.608080
21
107.807138
0
LINE
8
annotation
62
1
39
211
10
415.608080
20
107.807138
11
415.758219
21
107.596160
0
LINE
8
annotation
62
1
39
211
10
415.758219
20
107.596160
11
415.940700
21
107.415497
0
LINE
8
annotation
62
1
39
211
10
415.940700
20
107.415497
11
416.150591
21
107.268622
0
LINE
8
annotation
62
1
39
211
10
416.150591
20
107.268622
11
416.382959
21
107.159011
0
LINE
8
annotation
62
1
39
211
10
416.382959
20
107.159011
11
416.632871
21
107.090139
0
LINE
8
annotation
62
1
39
211
10
416.632871
20
107.090139
11
416.895396
21
107.065480
0
LINE
8
annotation
62
1
39
211
10
416.895396
20
107.065480
11
417.165601
21
107.088509
0
LINE
8
annotation
62
1
39
211
10
417.165601
20
107.088509
11
417.902209
21
107.218393
0
LINE
8
annotation
62
1
39
211
10
417.902209
20
107.218393
11
417.902209
21
107.218393
0
LINE
8
annotation
62
1
39
211
10
417.902209
20
107.218393
11
418.163869
21
107.289131
0
LINE
8
annotation
62
1
39
211
10
418.163869
20
107.289131
11
418.401788
21
107.401997
0
LINE
8
annotation
62
1
39
211
10
418.401788
20
107.401997
11
418.612581
21
107.552058
0
LINE
8
annotation
62
1
39
211
10
418.612581
20
107.552058
11
418.792862
21
107.734384
0
LINE
8
annotation
62
1
39
211
10
418.792862
20
107.734384
11
418.939243
21
107.944044
0
LINE
8
annotation
62
1
39
211
10
418.939243
20
107.944044
11
419.048338
21
108.176106
0
LINE
8
annotation
62
1
39
211
10
419.048338
20
108.176106
11
419.116760
21
108.425639
0
LINE
8
annotation
62
1
39
211
10
419.116760
20
108.425639
11
419.141124
21
108.687712
0
LINE
8
annotation
62
1
39
211
10
419.141124
20
108.687712
11
419.118042
21
108.957395
0
LINE
8
annotation
62
1
39
211
10
419.118042
20
108.957395
11
418.857317
21
110.436041
0
LINE
8
annotation
62
1
39
211
10
418.857317
20
110.436041
11
421.822542
21
110.958890
0
LINE
8
annotation
62
1
39
211
10
421.822542
20
110.958890
11
422.343992
21
108.001599
0
LINE
8
annotation
62
1
39
211
10
372.348204
20
57.941428
11
366.010848
21
57.941428
0
LINE
8
annotation
62
1
39
211
10
366.010848
20
57.941428
11
372.348204
21
69.354967
0
LINE
8
annotation
62
1
39
211
10
372.348204
20
69.354967
11
366.010848
21
69.354967
0
LINE
8
annotation
62
1
39
211
10
382.870084
20
63.648198
11
376.629355
21
63.648198
0
LINE
8
annotation
62
1
39
211
10
392.218975
20
57.941335
11
387.149949
21
57.941335
0
LINE
8
annotation
62
1
39
211
10
387.149949
20
57.941335
11
391.833895
21
65.481887
0
LINE
8
annotation
62
1
39
211
10
391.833895
20
65.481887
11
391.833895
21
65.481887
0
LINE
8
annotation
62
1
39
211
10
391.833895
20
65.481887
11
391.839494
21
65.488816
0
LINE
8
annotation
62
1
39
211
10
391.839494
20
65.488816
11
391.844864
21
65.495803
0
LINE
8
annotation
62
1
39
211
10
391.844864
20
65.495803
11
391.850039
21
65.502909
0
LINE
8
annotation
62
1
39
211
10
391.850039
20
65.502909
11
391.855056
21
65.510191
0
LINE
8
annotation
62
1
39
211
10
391.855056
20
65.510191
11
391.859948
21
65.517709
0
LINE
8
annotation
62
1
39
211
10
391.859948
20
65.517709
11
391.864752
21
65.525522
0
LINE
8
annotation
62
1
39
211
10
391.864752
20
65.525522
11
391.869503
21
65.533688
0
LINE
8
annotation
62
1
39
211
10
391.869503
20
65.533688
11
391.874237
21
65.542266
0
LINE
8
annotation
62
1
39
211
10
391.874237
20
65.542266
11
391.878988
21
65.551316
0
LINE
8
annotation
62
1
39
211
10
391.878988
20
65.551316
11
391.878988
21
65.551316
0
LINE
8
annotation
62
1
39
211
10
391.878988
20
65.551316
11
392.072387
21
65.966560
0
LINE
8
annotation
62
1
39
211
10
392.072387
20
65.966560
11
392.185367
21
66.396997
0
LINE
8
annotation
62
1
39
211
10
392.185367
20
66.396997
11
392.220698
21
66.832901
0
LINE
8
annotation
62
1
39
211
10
392.220698
20
66.832901
11
392.181147
21
67.264545
0
LINE
8
annotation
62
1
39
211
10
392.181147
20
67.264545
11
392.069485
21
67.682205
0
LINE
8
annotation
62
1
39
211
10
392.069485
20
67.682205
11
391.888478
21
68.076153
0
LINE
8
annotation
62
1
39
211
10
391.888478
20
68.076153
11
391.640897
21
68.436663
0
LINE
8
annotation
62
1
39
211
10
391.640897
20
68.436663
11
391.329511
21
68.754010
0
LINE
8
annotation
62
1
39
211
10
391.329511
20
68.754010
11
390.957087
21
69.018467
0
LINE
8
annotation
62
1
39
211
10
390.957087
20
69.018467
11
390.957087
21
69.018467
0
LINE
8
annotation
62
1
39
211
10
390.957087
20
69.018467
11
390.540688
21
69.209117
0
LINE
8
annotation
62
1
39
211
10
390.540688
20
69.209117
11
390.109591
21
69.320357
0
LINE
8
annotation
62
1
39
211
10
390.109591
20
69.320357
11
389.673434
21
69.354689
0
LINE
8
annotation
62
1
39
211
10
389.673434
20
69.354689
11
389.241854
21
69.314617
0
LINE
8
annotation
62
1
39
211
10
389.241854
20
69.314617
11
388.824489
21
69.202645
0
LINE
8
annotation
62
1
39
211
10
388.824489
20
69.202645
11
388.430977
21
69.021277
0
LINE
8
annotation
62
1
39
211
10
388.430977
20
69.021277
11
388.070956
21
68.773015
0
LINE
8
annotation
62
1
39
211
10
388.070956
20
68.773015
11
387.754063
21
68.460365
0
LINE
8
annotation
62
1
39
211
10
387.754063
20
68.460365
11
387.489936
21
68.085829
0
LINE
8
annotation
62
1
39
211
10
387.489936
20
68.085829
11
387.157106
21
67.447369
0
LINE
8
annotation
62
1
39
211
10
402.741716
20
63.648198
11
396.500987
21
63.648198
0
LINE
8
annotation
62
1
39
211
10
409.558453
20
57.941428
11
409.558453
21
69.354967
0
LINE
8
annotation
62
1
39
211
10
409.558453
20
69.354967
11
407.021077
21
66.816876
0
LINE
8
frame
62
5
39
2
10
0.000000
20
0.000000
11
480.000000
21
0.000000
0
LINE
8
frame
62
5
39
2
10
480.000000
20
0.000000
11
480.000000
21
420.000000
0
LINE
8
frame
62
5
39
2
10
480.000000
20
420.000000
11
0.000000
21
420.000000
0
LINE
8
frame
62
5
39
2
10
0.000000
20
420.000000
11
0.000000
21
0.000000
0
ENDSEC
0
EOF
