0
SECTION
2
HEADER
9
$ACADVER
1
AC1009
0
ENDSEC
0
SECTION
2
TABLES
0
TABLE
2
VPORT
70
1
0
VPORT
2
ACTIVE
70
0
10
0.0
20
0.0
11
0.0
21
0.0
12
0.0
22
0.0
13
0.0
23
0.0
14
0.0
24
0.0
15
0.0
25
0.0
16
0.0
26
0.0
36
0.0
17
0.0
27
0.0
37
0.0
40
0.0
41
0.0
42
0.0
43
0.0
44
0.0
50
0.0
51
0.0
71
0
72
1000
73
1
74
3
75
0
76
0
77
0
78
0
0
ENDTAB
0
ENDSEC
0
SECTION
2
ENTITIES
0
LINE
8
boundary
62
5
39
2
10
61.572215
20
6.687500
11
73.833949
21
9.744095
0
LINE
8
boundary
62
5
39
2
10
73.833949
20
9.744095
11
77.278024
21
9.958997
0
LINE
8
boundary
62
5
39
2
10
77.278024
20
9.958997
11
86.046919
21
15.093655
0
LINE
8
boundary
62
5
39
2
10
86.046919
20
15.093655
11
92.826024
21
18.552879
0
LINE
8
boundary
62
5
39
2
10
92.826024
20
18.552879
11
98.625685
21
22.047384
0
LINE
8
boundary
62
5
39
2
10
98.625685
20
22.047384
11
109.011580
21
25.249667
0
LINE
8
boundary
62
5
39
2
10
109.011580
20
25.249667
11
111.272528
21
25.542464
0
LINE
8
boundary
62
5
39
2
10
111.272528
20
25.542464
11
110.932285
21
30.006514
0
LINE
8
boundary
62
5
39
2
10
110.932285
20
30.006514
11
97.177399
21
108.014351
0
LINE
8
boundary
62
5
39
2
10
97.177399
20
108.014351
11
101.166855
21
108.717799
0
LINE
8
boundary
62
5
39
2
10
101.166855
20
108.717799
11
114.972663
21
30.421171
0
LINE
8
boundary
62
5
39
2
10
114.972663
20
30.421171
11
116.179734
21
26.109966
0
LINE
8
boundary
62
5
39
2
10
116.179734
20
26.109966
11
127.268058
21
27.176644
0
LINE
8
boundary
62
5
39
2
10
127.268058
20
27.176644
11
131.422716
21
28.419635
0
LINE
8
boundary
62
5
39
2
10
131.422716
20
28.419635
11
144.188112
21
32.444071
0
LINE
8
boundary
62
5
39
2
10
144.188112
20
32.444071
11
147.655641
21
34.333685
0
LINE
8
boundary
62
5
39
2
10
147.655641
20
34.333685
11
161.506217
21
41.907779
0
LINE
8
boundary
62
5
39
2
10
161.506217
20
41.907779
11
163.614174
21
43.159934
0
LINE
8
boundary
62
5
39
2
10
163.614174
20
43.159934
11
170.075679
21
46.810483
0
LINE
8
boundary
62
5
39
2
10
170.075679
20
46.810483
11
168.229159
21
50.888948
0
LINE
8
boundary
62
5
39
2
10
168.229159
20
50.888948
11
128.754655
21
119.260795
0
LINE
8
boundary
62
5
39
2
10
128.754655
20
119.260795
11
132.262924
21
121.286294
0
LINE
8
boundary
62
5
39
2
10
132.262924
20
121.286294
11
171.760447
21
52.874578
0
LINE
8
boundary
62
5
39
2
10
171.760447
20
52.874578
11
174.369242
21
49.236213
0
LINE
8
boundary
62
5
39
2
10
174.369242
20
49.236213
11
178.628279
21
51.642436
0
LINE
8
boundary
62
5
39
2
10
178.628279
20
51.642436
11
180.109651
21
53.044692
0
LINE
8
boundary
62
5
39
2
10
180.109651
20
53.044692
11
192.445418
21
63.782479
0
LINE
8
boundary
62
5
39
2
10
192.445418
20
63.782479
11
193.653975
21
65.495340
0
LINE
8
boundary
62
5
39
2
10
193.653975
20
65.495340
11
203.421302
21
80.061689
0
LINE
8
boundary
62
5
39
2
10
203.421302
20
80.061689
11
204.386555
21
80.999058
0
LINE
8
boundary
62
5
39
2
10
204.386555
20
80.999058
11
213.035285
21
90.791823
0
LINE
8
boundary
62
5
39
2
10
213.035285
20
90.791823
11
209.905208
21
93.992780
0
LINE
8
boundary
62
5
39
2
10
209.905208
20
93.992780
11
152.151114
21
142.454218
0
LINE
8
boundary
62
5
39
2
10
152.151114
20
142.454218
11
154.755046
21
145.557464
0
LINE
8
boundary
62
5
39
2
10
154.755046
20
145.557464
11
212.611656
21
97.010004
0
LINE
8
boundary
62
5
39
2
10
212.611656
20
97.010004
11
216.307516
21
94.483320
0
LINE
8
boundary
62
5
39
2
10
216.307516
20
94.483320
11
220.046856
21
98.233520
0
LINE
8
boundary
62
5
39
2
10
220.046856
20
98.233520
11
229.287411
21
107.564218
0
LINE
8
boundary
62
5
39
2
10
229.287411
20
107.564218
11
234.400624
21
116.836613
0
LINE
8
boundary
62
5
39
2
10
234.400624
20
116.836613
11
237.528855
21
123.194373
0
LINE
8
boundary
62
5
39
2
10
237.528855
20
123.194373
11
238.392081
21
132.077793
0
LINE
8
boundary
62
5
39
2
10
238.392081
20
132.077793
11
239.752771
21
141.766936
0
LINE
8
boundary
62
5
39
2
10
239.752771
20
141.766936
11
239.491980
21
143.839669
0
LINE
8
boundary
62
5
39
2
10
239.491980
20
143.839669
11
235.455878
21
145.777035
0
LINE
8
boundary
62
5
39
2
10
235.455878
20
145.777035
11
166.582117
21
170.845034
0
LINE
8
boundary
62
5
39
2
10
166.582117
20
170.845034
11
167.967640
21
174.651729
0
LINE
8
boundary
62
5
39
2
10
167.967640
20
174.651729
11
234.366441
21
150.484542
0
LINE
8
boundary
62
5
39
2
10
234.366441
20
150.484542
11
238.703590
21
149.374294
0
LINE
8
boundary
62
5
39
2
10
238.703590
20
149.374294
11
237.125659
21
158.447254
0
LINE
8
boundary
62
5
39
2
10
237.125659
20
158.447254
11
236.860038
21
160.502776
0
LINE
8
boundary
62
5
39
2
10
236.860038
20
160.502776
11
235.151395
21
164.412566
0
LINE
8
boundary
62
5
39
2
10
235.151395
20
164.412566
11
228.378562
21
180.224323
0
LINE
8
boundary
62
5
39
2
10
228.378562
20
180.224323
11
225.429771
21
183.764811
0
LINE
8
boundary
62
5
39
2
10
225.429771
20
183.764811
11
212.717629
21
196.364808
0
LINE
8
boundary
62
5
39
2
10
212.717629
20
196.364808
11
210.525569
21
198.185642
0
LINE
8
boundary
62
5
39
2
10
210.525569
20
198.185642
11
207.496408
21
201.185325
0
LINE
8
boundary
62
5
39
2
10
207.496408
20
201.185325
11
203.041094
21
201.625426
0
LINE
8
boundary
62
5
39
2
10
203.041094
20
201.625426
11
150.346997
21
201.625426
0
LINE
8
boundary
62
5
39
2
10
150.346997
20
201.625426
11
150.346996
21
205.676426
0
LINE
8
boundary
62
5
39
2
10
150.346996
20
205.676426
11
197.953954
21
205.676426
0
LINE
8
boundary
62
5
39
2
10
197.953954
20
205.676426
11
202.409268
21
206.116526
0
LINE
8
boundary
62
5
39
2
10
202.409268
20
206.116526
11
195.843565
21
211.379468
0
LINE
8
boundary
62
5
39
2
10
195.843565
20
211.379468
11
192.799386
21
213.968004
0
LINE
8
boundary
62
5
39
2
10
192.799386
20
213.968004
11
180.124515
21
219.527294
0
LINE
8
boundary
62
5
39
2
10
180.124515
20
219.527294
11
174.850371
21
221.950460
0
LINE
8
boundary
62
5
39
2
10
174.850371
20
221.950460
11
161.935007
21
224.453482
0
LINE
8
boundary
62
5
39
2
10
161.935007
20
224.453482
11
159.497898
21
224.939788
0
LINE
8
boundary
62
5
39
2
10
159.497898
20
224.939788
11
156.335036
21
224.868197
0
LINE
8
boundary
62
5
39
2
10
156.335036
20
224.868197
11
147.382175
21
224.689281
0
LINE
8
boundary
62
5
39
2
10
147.382175
20
224.689281
11
143.045027
21
223.579033
0
LINE
8
boundary
62
5
39
2
10
143.045027
20
223.579033
11
118.198828
21
214.535756
0
LINE
8
boundary
62
5
39
2
10
118.198828
20
214.535756
11
117.190473
21
217.306187
0
LINE
8
boundary
62
5
39
2
10
117.190473
20
217.306187
11
113.360228
21
216.056914
0
LINE
8
boundary
62
5
39
2
10
113.360228
20
216.056914
11
110.588551
21
214.870141
0
LINE
8
boundary
62
5
39
2
10
110.588551
20
214.870141
11
105.151457
21
212.690224
0
LINE
8
boundary
62
5
39
2
10
105.151457
20
212.690224
11
101.328399
21
210.766784
0
LINE
8
boundary
62
5
39
2
10
101.328399
20
210.766784
11
97.717627
21
208.742156
0
LINE
8
boundary
62
5
39
2
10
97.717627
20
208.742156
11
94.592198
21
205.991191
0
LINE
8
boundary
62
5
39
2
10
94.592198
20
205.991191
11
91.556109
21
203.705022
0
LINE
8
boundary
62
5
39
2
10
91.556109
20
203.705022
11
88.069458
21
200.988851
0
LINE
8
boundary
62
5
39
2
10
88.069458
20
200.988851
11
84.624882
21
198.577474
0
LINE
8
boundary
62
5
39
2
10
84.624882
20
198.577474
11
81.054300
21
196.977944
0
LINE
8
boundary
62
5
39
2
10
81.054300
20
196.977944
11
76.711126
21
195.338959
0
LINE
8
boundary
62
5
39
2
10
76.711126
20
195.338959
11
74.046520
21
194.276341
0
LINE
8
boundary
62
5
39
2
10
74.046520
20
194.276341
11
69.313159
21
192.916942
0
LINE
8
boundary
62
5
39
2
10
69.313159
20
192.916942
11
67.148849
21
191.744435
0
LINE
8
boundary
62
5
39
2
10
67.148849
20
191.744435
11
62.293549
21
188.813755
0
LINE
8
boundary
62
5
39
2
10
62.293549
20
188.813755
11
59.867115
21
187.005677
0
LINE
8
boundary
62
5
39
2
10
59.867115
20
187.005677
11
55.656579
21
183.955452
0
LINE
8
boundary
62
5
39
2
10
55.656579
20
183.955452
11
52.104319
21
180.906915
0
LINE
8
boundary
62
5
39
2
10
52.104319
20
180.906915
11
51.277291
21
180.232908
0
LINE
8
boundary
62
5
39
2
10
51.277291
20
180.232908
11
54.064323
21
177.254838
0
LINE
8
boundary
62
5
39
2
10
54.064323
20
177.254838
11
34.007995
21
160.425581
0
LINE
8
boundary
62
5
39
2
10
34.007995
20
160.425581
11
30.877917
21
157.224624
0
LINE
8
boundary
62
5
39
2
10
30.877917
20
157.224624
11
30.216325
21
156.229064
0
LINE
8
boundary
62
5
39
2
10
30.216325
20
156.229064
11
26.066263
21
149.951007
0
LINE
8
boundary
62
5
39
2
10
26.066263
20
149.951007
11
24.854553
21
146.986461
0
LINE
8
boundary
62
5
39
2
10
24.854553
20
146.986461
11
18.841302
21
134.847565
0
LINE
8
boundary
62
5
39
2
10
18.841302
20
134.847565
11
14.233661
21
121.663682
0
LINE
8
boundary
62
5
39
2
10
14.233661
20
121.663682
11
8.489120
21
107.582941
0
LINE
8
boundary
62
5
39
2
10
8.489120
20
107.582941
11
8.349812
21
106.733722
0
LINE
8
boundary
62
5
39
2
10
8.349812
20
106.733722
11
8.280685
21
105.994127
0
LINE
8
boundary
62
5
39
2
10
8.280685
20
105.994127
11
6.687500
21
87.328853
0
LINE
8
boundary
62
5
39
2
10
6.687500
20
87.328853
11
7.456260
21
78.826273
0
LINE
8
boundary
62
5
39
2
10
7.456260
20
78.826273
11
10.065055
21
82.464638
0
LINE
8
boundary
62
5
39
2
10
10.065055
20
82.464638
11
39.899716
21
134.139786
0
LINE
8
boundary
62
5
39
2
10
39.899716
20
134.139786
11
43.407984
21
132.114286
0
LINE
8
boundary
62
5
39
2
10
43.407984
20
132.114286
11
10.073751
21
74.377699
0
LINE
8
boundary
62
5
39
2
10
10.073751
20
74.377699
11
8.227231
21
70.299234
0
LINE
8
boundary
62
5
39
2
10
8.227231
20
70.299234
11
8.728327
21
64.757053
0
LINE
8
boundary
62
5
39
2
10
8.728327
20
64.757053
11
10.387432
21
57.382721
0
LINE
8
boundary
62
5
39
2
10
10.387432
20
57.382721
11
16.641705
21
40.202114
0
LINE
8
boundary
62
5
39
2
10
16.641705
20
40.202114
11
25.207917
21
28.501238
0
LINE
8
boundary
62
5
39
2
10
25.207917
20
28.501238
11
29.396088
21
22.841434
0
LINE
8
boundary
62
5
39
2
10
29.396088
20
22.841434
11
45.446532
21
11.236443
0
LINE
8
boundary
62
5
39
2
10
45.446532
20
11.236443
11
45.872667
21
10.858347
0
LINE
8
boundary
62
5
39
2
10
45.872667
20
10.858347
11
47.079738
21
15.169552
0
LINE
8
boundary
62
5
39
2
10
47.079738
20
15.169552
11
62.191687
21
100.873668
0
LINE
8
boundary
62
5
39
2
10
62.191687
20
100.873668
11
66.181143
21
100.170219
0
LINE
8
boundary
62
5
39
2
10
66.181143
20
100.170219
11
50.992471
21
14.030981
0
LINE
8
boundary
62
5
39
2
10
50.992471
20
14.030981
11
50.652228
21
9.566930
0
LINE
8
boundary
62
5
39
2
10
50.652228
20
9.566930
11
60.474812
21
7.062220
0
LINE
8
boundary
62
5
39
2
10
60.474812
20
7.062220
11
61.572215
21
6.687500
0
LINE
8
annotation
62
1
39
211
10
142.152053
20
200.130126
11
142.152053
21
207.171726
0
LINE
8
annotation
62
1
39
211
10
142.152053
20
207.171726
11
140.586615
21
205.605846
0
LINE
8
annotation
62
1
39
211
10
116.216560
20
215.216802
11
115.625992
21
215.001852
0
LINE
8
annotation
62
1
39
211
10
115.625992
20
215.001852
11
115.851943
21
216.078988
0
LINE
8
annotation
62
1
39
211
10
115.851943
20
216.078988
11
115.851943
21
216.078988
0
LINE
8
annotation
62
1
39
211
10
115.851943
20
216.078988
11
115.852302
21
216.080032
0
LINE
8
annotation
62
1
39
211
10
115.852302
20
216.080032
11
115.852631
21
216.081074
0
LINE
8
annotation
62
1
39
211
10
115.852631
20
216.081074
11
115.852933
21
216.082121
0
LINE
8
annotation
62
1
39
211
10
115.852933
20
216.082121
11
115.853208
21
216.083183
0
LINE
8
annotation
62
1
39
211
10
115.853208
20
216.083183
11
115.853460
21
216.084266
0
LINE
8
annotation
62
1
39
211
10
115.853460
20
216.084266
11
115.853688
21
216.085380
0
LINE
8
annotation
62
1
39
211
10
115.853688
20
216.085380
11
115.853895
21
216.086533
0
LINE
8
annotation
62
1
39
211
10
115.853895
20
216.086533
11
115.854083
21
216.087733
0
LINE
8
annotation
62
1
39
211
10
115.854083
20
216.087733
11
115.854253
21
216.088989
0
LINE
8
annotation
62
1
39
211
10
115.854253
20
216.088989
11
115.854253
21
216.088989
0
LINE
8
annotation
62
1
39
211
10
115.854253
20
216.088989
11
115.859177
21
216.145568
0
LINE
8
annotation
62
1
39
211
10
115.859177
20
216.145568
11
115.854087
21
216.200507
0
LINE
8
annotation
62
1
39
211
10
115.854087
20
216.200507
11
115.839719
21
216.252790
0
LINE
8
annotation
62
1
39
211
10
115.839719
20
216.252790
11
115.816807
21
216.301402
0
LINE
8
annotation
62
1
39
211
10
115.816807
20
216.301402
11
115.786087
21
216.345327
0
LINE
8
annotation
62
1
39
211
10
115.786087
20
216.345327
11
115.748294
21
216.383548
0
LINE
8
annotation
62
1
39
211
10
115.748294
20
216.383548
11
115.704162
21
216.415051
0
LINE
8
annotation
62
1
39
211
10
115.704162
20
216.415051
11
115.654427
21
216.438819
0
LINE
8
annotation
62
1
39
211
10
115.654427
20
216.438819
11
115.599824
21
216.453838
0
LINE
8
annotation
62
1
39
211
10
115.599824
20
216.453838
11
115.599824
21
216.453838
0
LINE
8
annotation
62
1
39
211
10
115.599824
20
216.453838
11
115.543226
21
216.458392
0
LINE
8
annotation
62
1
39
211
10
115.543226
20
216.458392
11
115.488284
21
216.453072
0
LINE
8
annotation
62
1
39
211
10
115.488284
20
216.453072
11
115.436014
21
216.438577
0
LINE
8
annotation
62
1
39
211
10
115.436014
20
216.438577
11
115.387432
21
216.415607
0
LINE
8
annotation
62
1
39
211
10
115.387432
20
216.415607
11
115.343554
21
216.384864
0
LINE
8
annotation
62
1
39
211
10
115.343554
20
216.384864
11
115.305399
21
216.347047
0
LINE
8
annotation
62
1
39
211
10
115.305399
20
216.347047
11
115.273982
21
216.302856
0
LINE
8
annotation
62
1
39
211
10
115.273982
20
216.302856
11
115.250320
21
216.252993
0
LINE
8
annotation
62
1
39
211
10
115.250320
20
216.252993
11
115.235430
21
216.198158
0
LINE
8
annotation
62
1
39
211
10
115.235430
20
216.198158
11
115.223727
21
216.109660
0
LINE
8
annotation
62
1
39
211
10
57.697709
20
183.297216
11
60.305029
21
180.189934
0
LINE
8
annotation
62
1
39
211
10
60.305029
20
180.189934
11
60.416013
21
181.460558
0
LINE
8
annotation
62
1
39
211
10
55.152301
20
181.161408
11
56.532320
21
182.319381
0
LINE
8
annotation
62
1
39
211
10
56.532320
20
182.319381
11
56.979708
21
179.196497
0
LINE
8
annotation
62
1
39
211
10
56.979708
20
179.196497
11
56.979708
21
179.196497
0
LINE
8
annotation
62
1
39
211
10
56.979708
20
179.196497
11
56.979767
21
179.193331
0
LINE
8
annotation
62
1
39
211
10
56.979767
20
179.193331
11
56.979901
21
179.190202
0
LINE
8
annotation
62
1
39
211
10
56.979901
20
179.190202
11
56.980115
21
179.187085
0
LINE
8
annotation
62
1
39
211
10
56.980115
20
179.187085
11
56.980413
21
179.183957
0
LINE
8
annotation
62
1
39
211
10
56.980413
20
179.183957
11
56.980799
21
179.180793
0
LINE
8
annotation
62
1
39
211
10
56.980799
20
179.180793
11
56.981275
21
179.177568
0
LINE
8
annotation
62
1
39
211
10
56.981275
20
179.177568
11
56.981847
21
179.174260
0
LINE
8
annotation
62
1
39
211
10
56.981847
20
179.174260
11
56.982518
21
179.170843
0
LINE
8
annotation
62
1
39
211
10
56.982518
20
179.170843
11
56.983292
21
179.167294
0
LINE
8
annotation
62
1
39
211
10
56.983292
20
179.167294
11
56.983292
21
179.167294
0
LINE
8
annotation
62
1
39
211
10
56.983292
20
179.167294
11
57.025499
21
179.010065
0
LINE
8
annotation
62
1
39
211
10
57.025499
20
179.010065
11
57.093070
21
178.867072
0
LINE
8
annotation
62
1
39
211
10
57.093070
20
178.867072
11
57.183030
21
178.740328
0
LINE
8
annotation
62
1
39
211
10
57.183030
20
178.740328
11
57.292403
21
178.631850
0
LINE
8
annotation
62
1
39
211
10
57.292403
20
178.631850
11
57.418213
21
178.543652
0
LINE
8
annotation
62
1
39
211
10
57.418213
20
178.543652
11
57.557485
21
178.477751
0
LINE
8
annotation
62
1
39
211
10
57.557485
20
178.477751
11
57.707243
21
178.436161
0
LINE
8
annotation
62
1
39
211
10
57.707243
20
178.436161
11
57.864511
21
178.420899
0
LINE
8
annotation
62
1
39
211
10
57.864511
20
178.420899
11
58.026315
21
178.433978
0
LINE
8
annotation
62
1
39
211
10
58.026315
20
178.433978
11
58.026315
21
178.433978
0
LINE
8
annotation
62
1
39
211
10
58.026315
20
178.433978
11
58.183230
21
178.477197
0
LINE
8
annotation
62
1
39
211
10
58.183230
20
178.477197
11
58.326005
21
178.545393
0
LINE
8
annotation
62
1
39
211
10
58.326005
20
178.545393
11
58.452590
21
178.635682
0
LINE
8
annotation
62
1
39
211
10
58.452590
20
178.635682
11
58.560932
21
178.745182
0
LINE
8
annotation
62
1
39
211
10
58.560932
20
178.745182
11
58.648978
21
178.871009
0
LINE
8
annotation
62
1
39
211
10
58.648978
20
178.871009
11
58.714678
21
179.010280
0
LINE
8
annotation
62
1
39
211
10
58.714678
20
179.010280
11
58.755979
21
179.160112
0
LINE
8
annotation
62
1
39
211
10
58.755979
20
179.160112
11
58.770830
21
179.317621
0
LINE
8
annotation
62
1
39
211
10
58.770830
20
179.317621
11
58.757178
21
179.479924
0
LINE
8
annotation
62
1
39
211
10
58.757178
20
179.479924
11
58.701938
21
179.729773
0
LINE
8
annotation
62
1
39
211
10
44.223707
20
144.339588
11
50.079276
21
140.958874
0
LINE
8
annotation
62
1
39
211
10
50.079276
20
140.958874
11
49.528717
21
143.012430
0
LINE
8
annotation
62
1
39
211
10
42.956229
20
142.143828
11
42.205501
21
140.843528
0
LINE
8
annotation
62
1
39
211
10
42.205501
20
140.843528
11
42.205501
21
140.843528
0
LINE
8
annotation
62
1
39
211
10
42.205501
20
140.843528
11
42.091460
21
140.597554
0
LINE
8
annotation
62
1
39
211
10
42.091460
20
140.597554
11
42.024873
21
140.342590
0
LINE
8
annotation
62
1
39
211
10
42.024873
20
140.342590
11
42.004143
21
140.084439
0
LINE
8
annotation
62
1
39
211
10
42.004143
20
140.084439
11
42.027670
21
139.828904
0
LINE
8
annotation
62
1
39
211
10
42.027670
20
139.828904
11
42.093857
21
139.581787
0
LINE
8
annotation
62
1
39
211
10
42.093857
20
139.581787
11
42.201106
21
139.348891
0
LINE
8
annotation
62
1
39
211
10
42.201106
20
139.348891
11
42.347817
21
139.136020
0
LINE
8
annotation
62
1
39
211
10
42.347817
20
139.136020
11
42.532393
21
138.948976
0
LINE
8
annotation
62
1
39
211
10
42.532393
20
138.948976
11
42.753236
21
138.793561
0
LINE
8
annotation
62
1
39
211
10
42.753236
20
138.793561
11
43.404304
21
138.417667
0
LINE
8
annotation
62
1
39
211
10
43.404304
20
138.417667
11
43.404304
21
138.417667
0
LINE
8
annotation
62
1
39
211
10
43.404304
20
138.417667
11
43.649221
21
138.304175
0
LINE
8
annotation
62
1
39
211
10
43.649221
20
138.304175
11
43.903443
21
138.237879
0
LINE
8
annotation
62
1
39
211
10
43.903443
20
138.237879
11
44.161136
21
138.217267
0
LINE
8
annotation
62
1
39
211
10
44.161136
20
138.217267
11
44.416466
21
138.240828
0
LINE
8
annotation
62
1
39
211
10
44.416466
20
138.240828
11
44.663599
21
138.307050
0
LINE
8
annotation
62
1
39
211
10
44.663599
20
138.307050
11
44.896702
21
138.414419
0
LINE
8
annotation
62
1
39
211
10
44.896702
20
138.414419
11
45.109941
21
138.561425
0
LINE
8
annotation
62
1
39
211
10
45.109941
20
138.561425
11
45.297484
21
138.746556
0
LINE
8
annotation
62
1
39
211
10
45.297484
20
138.746556
11
45.453495
21
138.968298
0
LINE
8
annotation
62
1
39
211
10
45.453495
20
138.968298
11
45.829389
21
139.619366
0
LINE
8
annotation
62
1
39
211
10
45.829389
20
139.619366
11
45.453495
21
138.968298
0
LINE
8
annotation
62
1
39
211
10
45.453495
20
138.968298
11
45.453495
21
138.968298
0
LINE
8
annotation
62
1
39
211
10
45.453495
20
138.968298
11
45.339471
21
138.722314
0
LINE
8
annotation
62
1
39
211
10
45.339471
20
138.722314
11
45.272949
21
138.467313
0
LINE
8
annotation
62
1
39
211
10
45.272949
20
138.467313
11
45.252354
21
138.209084
0
LINE
8
annotation
62
1
39
211
10
45.252354
20
138.209084
11
45.276107
21
137.953418
0
LINE
8
annotation
62
1
39
211
10
45.276107
20
137.953418
11
45.342632
21
137.706106
0
LINE
8
annotation
62
1
39
211
10
45.342632
20
137.706106
11
45.450351
21
137.472939
0
LINE
8
annotation
62
1
39
211
10
45.450351
20
137.472939
11
45.597687
21
137.259707
0
LINE
8
annotation
62
1
39
211
10
45.597687
20
137.259707
11
45.783063
21
137.072201
0
LINE
8
annotation
62
1
39
211
10
45.783063
20
137.072201
11
46.004902
21
136.916211
0
LINE
8
annotation
62
1
39
211
10
46.004902
20
136.916211
11
46.004902
21
136.916211
0
LINE
8
annotation
62
1
39
211
10
46.004902
20
136.916211
11
46.249820
21
136.802719
0
LINE
8
annotation
62
1
39
211
10
46.249820
20
136.802719
11
46.504041
21
136.736423
0
LINE
8
annotation
62
1
39
211
10
46.504041
20
136.736423
11
46.761734
21
136.715811
0
LINE
8
annotation
62
1
39
211
10
46.761734
20
136.715811
11
47.017064
21
136.739372
0
LINE
8
annotation
62
1
39
211
10
47.017064
20
136.739372
11
47.264197
21
136.805594
0
LINE
8
annotation
62
1
39
211
10
47.264197
20
136.805594
11
47.497300
21
136.912963
0
LINE
8
annotation
62
1
39
211
10
47.497300
20
136.912963
11
47.710540
21
137.059969
0
LINE
8
annotation
62
1
39
211
10
47.710540
20
137.059969
11
47.898082
21
137.245100
0
LINE
8
annotation
62
1
39
211
10
47.898082
20
137.245100
11
48.054093
21
137.466842
0
LINE
8
annotation
62
1
39
211
10
48.054093
20
137.466842
11
48.804821
21
138.767141
0
LINE
8
annotation
62
1
39
211
10
63.112530
20
112.023303
11
69.129233
21
110.962396
0
LINE
8
annotation
62
1
39
211
10
69.129233
20
110.962396
11
68.027119
21
112.535906
0
LINE
8
annotation
62
1
39
211
10
63.463245
20
106.190607
11
64.052313
21
109.531375
0
LINE
8
annotation
62
1
39
211
10
64.052313
20
109.531375
11
68.496172
21
107.372127
0
LINE
8
annotation
62
1
39
211
10
62.302229
20
107.427860
11
64.974391
21
106.956686
0
LINE
8
annotation
62
1
39
211
10
93.933462
20
118.607261
11
100.592169
21
119.781371
0
LINE
8
annotation
62
1
39
211
10
100.592169
20
119.781371
11
98.850416
21
121.000593
0
LINE
8
annotation
62
1
39
211
10
94.373716
20
116.110455
11
94.634441
21
114.631809
0
LINE
8
annotation
62
1
39
211
10
94.634441
20
114.631809
11
94.634441
21
114.631809
0
LINE
8
annotation
62
1
39
211
10
94.634441
20
114.631809
11
94.705098
21
114.370628
0
LINE
8
annotation
62
1
39
211
10
94.705098
20
114.370628
11
94.817962
21
114.132812
0
LINE
8
annotation
62
1
39
211
10
94.817962
20
114.132812
11
94.968101
21
113.921835
0
LINE
8
annotation
62
1
39
211
10
94.968101
20
113.921835
11
95.150582
21
113.741171
0
LINE
8
annotation
62
1
39
211
10
95.150582
20
113.741171
11
95.360472
21
113.594296
0
LINE
8
annotation
62
1
39
211
10
95.360472
20
113.594296
11
95.592840
21
113.484685
0
LINE
8
annotation
62
1
39
211
10
95.592840
20
113.484685
11
95.842753
21
113.415813
0
LINE
8
annotation
62
1
39
211
10
95.842753
20
113.415813
11
96.105278
21
113.391154
0
LINE
8
annotation
62
1
39
211
10
96.105278
20
113.391154
11
96.375482
21
113.414183
0
LINE
8
annotation
62
1
39
211
10
96.375482
20
113.414183
11
97.112091
21
113.544067
0
LINE
8
annotation
62
1
39
211
10
97.112091
20
113.544067
11
97.112091
21
113.544067
0
LINE
8
annotation
62
1
39
211
10
97.112091
20
113.544067
11
97.373750
21
113.614806
0
LINE
8
annotation
62
1
39
211
10
97.373750
20
113.614806
11
97.611670
21
113.727671
0
LINE
8
annotation
62
1
39
211
10
97.611670
20
113.727671
11
97.822463
21
113.877732
0
LINE
8
annotation
62
1
39
211
10
97.822463
20
113.877732
11
98.002743
21
114.060058
0
LINE
8
annotation
62
1
39
211
10
98.002743
20
114.060058
11
98.149124
21
114.269718
0
LINE
8
annotation
62
1
39
211
10
98.149124
20
114.269718
11
98.258219
21
114.501780
0
LINE
8
annotation
62
1
39
211
10
98.258219
20
114.501780
11
98.326642
21
114.751313
0
LINE
8
annotation
62
1
39
211
10
98.326642
20
114.751313
11
98.351005
21
115.013387
0
LINE
8
annotation
62
1
39
211
10
98.351005
20
115.013387
11
98.327924
21
115.283069
0
LINE
8
annotation
62
1
39
211
10
98.327924
20
115.283069
11
98.067198
21
116.761715
0
LINE
8
annotation
62
1
39
211
10
98.067198
20
116.761715
11
101.032424
21
117.284564
0
LINE
8
annotation
62
1
39
211
10
101.032424
20
117.284564
11
101.553874
21
114.327273
0
LINE
8
annotation
62
1
39
211
10
122.083364
20
128.105383
11
127.938933
21
131.486097
0
LINE
8
annotation
62
1
39
211
10
127.938933
20
131.486097
11
125.885221
21
132.036077
0
LINE
8
annotation
62
1
39
211
10
130.334277
20
127.337239
11
130.334277
21
127.337239
0
LINE
8
annotation
62
1
39
211
10
130.334277
20
127.337239
11
129.979546
21
127.629106
0
LINE
8
annotation
62
1
39
211
10
129.979546
20
127.629106
11
129.594012
21
127.862279
0
LINE
8
annotation
62
1
39
211
10
129.594012
20
127.862279
11
129.184417
21
128.035970
0
LINE
8
annotation
62
1
39
211
10
129.184417
20
128.035970
11
128.757500
21
128.149394
0
LINE
8
annotation
62
1
39
211
10
128.757500
20
128.149394
11
128.320002
21
128.201763
0
LINE
8
annotation
62
1
39
211
10
128.320002
20
128.201763
11
127.878664
21
128.192291
0
LINE
8
annotation
62
1
39
211
10
127.878664
20
128.192291
11
127.440228
21
128.120191
0
LINE
8
annotation
62
1
39
211
10
127.440228
20
128.120191
11
127.011432
21
127.984675
0
LINE
8
annotation
62
1
39
211
10
127.011432
20
127.984675
11
126.599019
21
127.784958
0
LINE
8
annotation
62
1
39
211
10
126.599019
20
127.784958
11
124.652793
21
126.661304
0
LINE
8
annotation
62
1
39
211
10
124.652793
20
126.661304
11
124.652793
21
126.661304
0
LINE
8
annotation
62
1
39
211
10
124.652793
20
126.661304
11
124.431002
21
126.505261
0
LINE
8
annotation
62
1
39
211
10
124.431002
20
126.505261
11
124.245747
21
126.317623
0
LINE
8
annotation
62
1
39
211
10
124.245747
20
126.317623
11
124.098573
21
126.104223
0
LINE
8
annotation
62
1
39
211
10
124.098573
20
126.104223
11
123.991025
21
125.870893
0
LINE
8
annotation
62
1
39
211
10
123.991025
20
125.870893
11
123.924649
21
125.623465
0
LINE
8
annotation
62
1
39
211
10
123.924649
20
125.623465
11
123.900989
21
125.367773
0
LINE
8
annotation
62
1
39
211
10
123.900989
20
125.367773
11
123.921589
21
125.109647
0
LINE
8
annotation
62
1
39
211
10
123.921589
20
125.109647
11
123.987996
21
124.854922
0
LINE
8
annotation
62
1
39
211
10
123.987996
20
124.854922
11
124.101754
21
124.609429
0
LINE
8
annotation
62
1
39
211
10
124.101754
20
124.609429
11
124.101754
21
124.609429
0
LINE
8
annotation
62
1
39
211
10
124.101754
20
124.609429
11
124.257757
21
124.387682
0
LINE
8
annotation
62
1
39
211
10
124.257757
20
124.387682
11
124.445301
21
124.202552
0
LINE
8
annotation
62
1
39
211
10
124.445301
20
124.202552
11
124.658587
21
124.055573
0
LINE
8
annotation
62
1
39
211
10
124.658587
20
124.055573
11
124.891819
21
123.948278
0
LINE
8
annotation
62
1
39
211
10
124.891819
20
123.948278
11
125.139198
21
123.882199
0
LINE
8
annotation
62
1
39
211
10
125.139198
20
123.882199
11
125.394929
21
123.858869
0
LINE
8
annotation
62
1
39
211
10
125.394929
20
123.858869
11
125.653212
21
123.879822
0
LINE
8
annotation
62
1
39
211
10
125.653212
20
123.879822
11
125.908252
21
123.946590
0
LINE
8
annotation
62
1
39
211
10
125.908252
20
123.946590
11
126.154250
21
124.060706
0
LINE
8
annotation
62
1
39
211
10
126.154250
20
124.060706
11
126.802012
21
124.434692
0
LINE
8
annotation
62
1
39
211
10
126.802012
20
124.434692
11
126.802012
21
124.434692
0
LINE
8
annotation
62
1
39
211
10
126.802012
20
124.434692
11
127.023725
21
124.590609
0
LINE
8
annotation
62
1
39
211
10
127.023725
20
124.590609
11
127.208764
21
124.777920
0
LINE
8
annotation
62
1
39
211
10
127.208764
20
124.777920
11
127.355612
21
124.990870
0
LINE
8
annotation
62
1
39
211
10
127.355612
20
124.990870
11
127.462751
21
125.223702
0
LINE
8
annotation
62
1
39
211
10
127.462751
20
125.223702
11
127.528666
21
125.470662
0
LINE
8
annotation
62
1
39
211
10
127.528666
20
125.470662
11
127.551840
21
125.725994
0
LINE
8
annotation
62
1
39
211
10
127.551840
20
125.725994
11
127.530756
21
125.983940
0
LINE
8
annotation
62
1
39
211
10
127.530756
20
125.983940
11
127.463897
21
126.238747
0
LINE
8
annotation
62
1
39
211
10
127.463897
20
126.238747
11
127.349747
21
126.484659
0
LINE
8
annotation
62
1
39
211
10
127.349747
20
126.484659
11
126.599019
21
127.784958
0
LINE
8
annotation
62
1
39
211
10
122.525053
20
125.649997
11
124.215410
21
122.722213
0
LINE
8
annotation
62
1
39
211
10
142.857676
20
148.485622
11
147.201485
21
153.662371
0
LINE
8
annotation
62
1
39
211
10
147.201485
20
153.662371
11
145.084670
21
153.476873
0
LINE
8
annotation
62
1
39
211
10
145.949815
20
145.891010
11
151.444481
21
150.102075
0
LINE
8
annotation
62
1
39
211
10
151.444481
20
150.102075
11
149.142441
21
152.033716
0
LINE
8
annotation
62
1
39
211
10
149.510116
20
147.796788
11
148.359258
21
148.762473
0
LINE
8
annotation
62
1
39
211
10
155.786419
20
173.332158
11
158.098964
21
179.685822
0
LINE
8
annotation
62
1
39
211
10
158.098964
20
179.685822
11
156.172209
21
178.787031
0
LINE
8
annotation
62
1
39
211
10
158.681575
20
173.873742
11
158.681575
21
173.873742
0
LINE
8
annotation
62
1
39
211
10
158.681575
20
173.873742
11
158.612020
21
173.611764
0
LINE
8
annotation
62
1
39
211
10
158.612020
20
173.611764
11
158.590837
21
173.349275
0
LINE
8
annotation
62
1
39
211
10
158.590837
20
173.349275
11
158.615440
21
173.091677
0
LINE
8
annotation
62
1
39
211
10
158.615440
20
173.091677
11
158.683241
21
172.844371
0
LINE
8
annotation
62
1
39
211
10
158.683241
20
172.844371
11
158.791654
21
172.612760
0
LINE
8
annotation
62
1
39
211
10
158.791654
20
172.612760
11
158.938091
21
172.402245
0
LINE
8
annotation
62
1
39
211
10
158.938091
20
172.402245
11
159.119966
21
172.218228
0
LINE
8
annotation
62
1
39
211
10
159.119966
20
172.218228
11
159.334691
21
172.066112
0
LINE
8
annotation
62
1
39
211
10
159.334691
20
172.066112
11
159.579679
21
171.951299
0
LINE
8
annotation
62
1
39
211
10
159.579679
20
171.951299
11
159.579679
21
171.951299
0
LINE
8
annotation
62
1
39
211
10
159.579679
20
171.951299
11
159.841151
21
171.881776
0
LINE
8
annotation
62
1
39
211
10
159.841151
20
171.881776
11
160.103418
21
171.860281
0
LINE
8
annotation
62
1
39
211
10
160.103418
20
171.860281
11
160.361026
21
171.884339
0
LINE
8
annotation
62
1
39
211
10
160.361026
20
171.884339
11
160.608519
21
171.951475
0
LINE
8
annotation
62
1
39
211
10
160.608519
20
171.951475
11
160.840445
21
172.059213
0
LINE
8
annotation
62
1
39
211
10
160.840445
20
172.059213
11
161.051349
21
172.205078
0
LINE
8
annotation
62
1
39
211
10
161.051349
20
172.205078
11
161.235777
21
172.386596
0
LINE
8
annotation
62
1
39
211
10
161.235777
20
172.386596
11
161.388275
21
172.601290
0
LINE
8
annotation
62
1
39
211
10
161.388275
20
172.601290
11
161.503389
21
172.846685
0
LINE
8
annotation
62
1
39
211
10
161.503389
20
172.846685
11
161.759210
21
173.549549
0
LINE
8
annotation
62
1
39
211
10
161.759210
20
173.549549
11
161.759210
21
173.549549
0
LINE
8
annotation
62
1
39
211
10
161.759210
20
173.549549
11
161.828823
21
173.811645
0
LINE
8
annotation
62
1
39
211
10
161.828823
20
173.811645
11
161.850159
21
174.074452
0
LINE
8
annotation
62
1
39
211
10
161.850159
20
174.074452
11
161.825772
21
174.332512
0
LINE
8
annotation
62
1
39
211
10
161.825772
20
174.332512
11
161.758219
21
174.580368
0
LINE
8
annotation
62
1
39
211
10
161.758219
20
174.580368
11
161.650056
21
174.812562
0
LINE
8
annotation
62
1
39
211
10
161.650056
20
174.812562
11
161.503838
21
175.023638
0
LINE
8
annotation
62
1
39
211
10
161.503838
20
175.023638
11
161.322120
21
175.208137
0
LINE
8
annotation
62
1
39
211
10
161.322120
20
175.208137
11
161.107460
21
175.360603
0
LINE
8
annotation
62
1
39
211
10
161.107460
20
175.360603
11
160.862412
21
175.475578
0
LINE
8
annotation
62
1
39
211
10
160.862412
20
175.475578
11
160.862412
21
175.475578
0
LINE
8
annotation
62
1
39
211
10
160.862412
20
175.475578
11
160.600784
21
175.545003
0
LINE
8
annotation
62
1
39
211
10
160.600784
20
175.545003
11
160.338330
21
175.566156
0
LINE
8
annotation
62
1
39
211
10
160.338330
20
175.566156
11
160.080517
21
175.541584
0
LINE
8
annotation
62
1
39
211
10
160.080517
20
175.541584
11
159.832815
21
175.473835
0
LINE
8
annotation
62
1
39
211
10
159.832815
20
175.473835
11
159.600693
21
175.365457
0
LINE
8
annotation
62
1
39
211
10
159.600693
20
175.365457
11
159.389621
21
175.218998
0
LINE
8
annotation
62
1
39
211
10
159.389621
20
175.218998
11
159.205068
21
175.037004
0
LINE
8
annotation
62
1
39
211
10
159.205068
20
175.037004
11
159.052503
21
174.822024
0
LINE
8
annotation
62
1
39
211
10
159.052503
20
174.822024
11
158.937396
21
174.576606
0
LINE
8
annotation
62
1
39
211
10
158.937396
20
174.576606
11
158.681575
21
173.873742
0
LINE
8
annotation
62
1
39
211
10
162.787572
20
176.374950
11
162.787572
21
176.374950
0
LINE
8
annotation
62
1
39
211
10
162.787572
20
176.374950
11
162.856758
21
176.635873
0
LINE
8
annotation
62
1
39
211
10
162.856758
20
176.635873
11
162.877771
21
176.897793
0
LINE
8
annotation
62
1
39
211
10
162.877771
20
176.897793
11
162.853151
21
177.155212
0
LINE
8
annotation
62
1
39
211
10
162.853151
20
177.155212
11
162.785440
21
177.402633
0
LINE
8
annotation
62
1
39
211
10
162.785440
20
177.402633
11
162.677179
21
177.634560
0
LINE
8
annotation
62
1
39
211
10
162.677179
20
177.634560
11
162.530910
21
177.845497
0
LINE
8
annotation
62
1
39
211
10
162.530910
20
177.845497
11
162.349174
21
178.029945
0
LINE
8
annotation
62
1
39
211
10
162.349174
20
178.029945
11
162.134513
21
178.182410
0
LINE
8
annotation
62
1
39
211
10
162.134513
20
178.182410
11
161.889468
21
178.297393
0
LINE
8
annotation
62
1
39
211
10
161.889468
20
178.297393
11
161.889468
21
178.297393
0
LINE
8
annotation
62
1
39
211
10
161.889468
20
178.297393
11
161.627843
21
178.366823
0
LINE
8
annotation
62
1
39
211
10
161.627843
20
178.366823
11
161.365401
21
178.388010
0
LINE
8
annotation
62
1
39
211
10
161.365401
20
178.388010
11
161.107622
21
178.363531
0
LINE
8
annotation
62
1
39
211
10
161.107622
20
178.363531
11
160.859986
21
178.295965
0
LINE
8
annotation
62
1
39
211
10
160.859986
20
178.295965
11
160.627973
21
178.187887
0
LINE
8
annotation
62
1
39
211
10
160.627973
20
178.187887
11
160.417064
21
178.041874
0
LINE
8
annotation
62
1
39
211
10
160.417064
20
178.041874
11
160.232739
21
177.860506
0
LINE
8
annotation
62
1
39
211
10
160.232739
20
177.860506
11
160.080476
21
177.646357
0
LINE
8
annotation
62
1
39
211
10
160.080476
20
177.646357
11
159.965758
21
177.402006
0
LINE
8
annotation
62
1
39
211
10
159.965758
20
177.402006
11
159.965758
21
177.402006
0
LINE
8
annotation
62
1
39
211
10
159.965758
20
177.402006
11
159.896153
21
177.139892
0
LINE
8
annotation
62
1
39
211
10
159.896153
20
177.139892
11
159.874837
21
176.877036
0
LINE
8
annotation
62
1
39
211
10
159.874837
20
176.877036
11
159.899247
21
176.618908
0
LINE
8
annotation
62
1
39
211
10
159.899247
20
176.618908
11
159.966820
21
176.370973
0
LINE
8
annotation
62
1
39
211
10
159.966820
20
176.370973
11
160.074992
21
176.138701
0
LINE
8
annotation
62
1
39
211
10
160.074992
20
176.138701
11
160.221200
21
175.927558
0
LINE
8
annotation
62
1
39
211
10
160.221200
20
175.927558
11
160.402882
21
175.743011
0
LINE
8
annotation
62
1
39
211
10
160.402882
20
175.743011
11
160.617473
21
175.590529
0
LINE
8
annotation
62
1
39
211
10
160.617473
20
175.590529
11
160.862412
21
175.475578
0
LINE
8
annotation
62
1
39
211
10
160.862412
20
175.475578
11
160.862412
21
175.475578
0
LINE
8
annotation
62
1
39
211
10
160.862412
20
175.475578
11
161.123934
21
175.406192
0
LINE
8
annotation
62
1
39
211
10
161.123934
20
175.406192
11
161.386334
21
175.385064
0
LINE
8
annotation
62
1
39
211
10
161.386334
20
175.385064
11
161.644135
21
175.409652
0
LINE
8
annotation
62
1
39
211
10
161.644135
20
175.409652
11
161.891857
21
175.477416
0
LINE
8
annotation
62
1
39
211
10
161.891857
20
175.477416
11
162.124024
21
175.585815
0
LINE
8
annotation
62
1
39
211
10
162.124024
20
175.585815
11
162.335156
21
175.732309
0
LINE
8
annotation
62
1
39
211
10
162.335156
20
175.732309
11
162.519777
21
175.914357
0
LINE
8
annotation
62
1
39
211
10
162.519777
20
175.914357
11
162.672409
21
176.129417
0
LINE
8
annotation
62
1
39
211
10
162.672409
20
176.129417
11
162.787572
21
176.374950
0
LINE
8
annotation
62
1
39
211
10
90.083315
20
143.288960
11
76.105718
21
143.288960
0
LINE
8
annotation
62
1
39
211
10
76.105718
20
143.288960
11
90.083315
21
168.462527
0
LINE
8
annotation
62
1
39
211
10
90.083315
20
168.462527
11
76.105718
21
168.462527
0
LINE
8
annotation
62
1
39
211
10
113.290246
20
155.875744
11
99.525770
21
155.875744
0
LINE
8
annotation
62
1
39
211
10
131.124942
20
168.462527
11
131.124942
21
168.462527
0
LINE
8
annotation
62
1
39
211
10
131.124942
20
168.462527
11
129.523522
21
167.862091
0
LINE
8
annotation
62
1
39
211
10
129.523522
20
167.862091
11
128.054008
21
167.053074
0
LINE
8
annotation
62
1
39
211
10
128.054008
20
167.053074
11
126.731487
21
166.055748
0
LINE
8
annotation
62
1
39
211
10
126.731487
20
166.055748
11
125.571044
21
164.890379
0
LINE
8
annotation
62
1
39
211
10
125.571044
20
164.890379
11
124.587762
21
163.577239
0
LINE
8
annotation
62
1
39
211
10
124.587762
20
163.577239
11
123.796729
21
162.136597
0
LINE
8
annotation
62
1
39
211
10
123.796729
20
162.136597
11
123.213028
21
160.588721
0
LINE
8
annotation
62
1
39
211
10
123.213028
20
160.588721
11
122.851745
21
158.953882
0
LINE
8
annotation
62
1
39
211
10
122.851745
20
158.953882
11
122.727965
21
157.252349
0
LINE
8
annotation
62
1
39
211
10
122.727965
20
157.252349
11
122.727965
21
148.885366
0
LINE
8
annotation
62
1
39
211
10
122.727965
20
148.885366
11
122.727965
21
148.885366
0
LINE
8
annotation
62
1
39
211
10
122.727965
20
148.885366
11
122.818218
21
147.879759
0
LINE
8
annotation
62
1
39
211
10
122.818218
20
147.879759
11
123.078358
21
146.933140
0
LINE
8
annotation
62
1
39
211
10
123.078358
20
146.933140
11
123.492454
21
146.061349
0
LINE
8
annotation
62
1
39
211
10
123.492454
20
146.061349
11
124.044577
21
145.280225
0
LINE
8
annotation
62
1
39
211
10
124.044577
20
145.280225
11
124.718797
21
144.605606
0
LINE
8
annotation
62
1
39
211
10
124.718797
20
144.605606
11
125.499185
21
144.053332
0
LINE
8
annotation
62
1
39
211
10
125.499185
20
144.053332
11
126.369810
21
143.639240
0
LINE
8
annotation
62
1
39
211
10
126.369810
20
143.639240
11
127.314744
21
143.379170
0
LINE
8
annotation
62
1
39
211
10
127.314744
20
143.379170
11
128.318057
21
143.288960
0
LINE
8
annotation
62
1
39
211
10
128.318057
20
143.288960
11
128.318057
21
143.288960
0
LINE
8
annotation
62
1
39
211
10
128.318057
20
143.288960
11
129.323448
21
143.379170
0
LINE
8
annotation
62
1
39
211
10
129.323448
20
143.379170
11
130.269486
21
143.639240
0
LINE
8
annotation
62
1
39
211
10
130.269486
20
143.639240
11
131.140437
21
144.053332
0
LINE
8
annotation
62
1
39
211
10
131.140437
20
144.053332
11
131.920565
21
144.605606
0
LINE
8
annotation
62
1
39
211
10
131.920565
20
144.605606
11
132.594135
21
145.280225
0
LINE
8
annotation
62
1
39
211
10
132.594135
20
145.280225
11
133.145414
21
146.061349
0
LINE
8
annotation
62
1
39
211
10
133.145414
20
146.061349
11
133.558665
21
146.933140
0
LINE
8
annotation
62
1
39
211
10
133.558665
20
146.933140
11
133.818155
21
147.879759
0
LINE
8
annotation
62
1
39
211
10
133.818155
20
147.879759
11
133.908148
21
148.885366
0
LINE
8
annotation
62
1
39
211
10
133.908148
20
148.885366
11
133.908148
21
151.670151
0
LINE
8
annotation
62
1
39
211
10
133.908148
20
151.670151
11
133.908148
21
151.670151
0
LINE
8
annotation
62
1
39
211
10
133.908148
20
151.670151
11
133.818155
21
152.675271
0
LINE
8
annotation
62
1
39
211
10
133.818155
20
152.675271
11
133.558665
21
153.620584
0
LINE
8
annotation
62
1
39
211
10
133.558665
20
153.620584
11
133.145414
21
154.490485
0
LINE
8
annotation
62
1
39
211
10
133.145414
20
154.490485
11
132.594135
21
155.269367
0
LINE
8
annotation
62
1
39
211
10
132.594135
20
155.269367
11
131.920565
21
155.941628
0
LINE
8
annotation
62
1
39
211
10
131.920565
20
155.941628
11
131.140437
21
156.491661
0
LINE
8
annotation
62
1
39
211
10
131.140437
20
156.491661
11
130.269486
21
156.903862
0
LINE
8
annotation
62
1
39
211
10
130.269486
20
156.903862
11
129.323448
21
157.162626
0
LINE
8
annotation
62
1
39
211
10
129.323448
20
157.162626
11
128.318057
21
157.252349
0
LINE
8
annotation
62
1
39
211
10
128.318057
20
157.252349
11
122.727965
21
157.252349
0
LINE
8
annotation
62
1
39
211
10
122.027822
20
140.142265
11
134.614606
21
140.142265
0
LINE
8
boundary
62
5
39
2
10
287.219917
20
38.263414
11
290.797782
21
29.855963
0
LINE
8
boundary
62
5
39
2
10
290.797782
20
29.855963
11
297.929341
21
17.332104
0
LINE
8
boundary
62
5
39
2
10
297.929341
20
17.332104
11
304.207242
21
13.008935
0
LINE
8
boundary
62
5
39
2
10
304.207242
20
13.008935
11
308.947895
21
9.286661
0
LINE
8
boundary
62
5
39
2
10
308.947895
20
9.286661
11
310.154966
21
13.597866
0
LINE
8
boundary
62
5
39
2
10
310.154966
20
13.597866
11
321.437366
21
77.583539
0
LINE
8
boundary
62
5
39
2
10
321.437366
20
77.583539
11
325.426823
21
76.880090
0
LINE
8
boundary
62
5
39
2
10
325.426823
20
76.880090
11
313.866145
21
11.316229
0
LINE
8
boundary
62
5
39
2
10
313.866145
20
11.316229
11
313.525902
21
6.852178
0
LINE
8
boundary
62
5
39
2
10
313.525902
20
6.852178
11
319.861813
21
7.675209
0
LINE
8
boundary
62
5
39
2
10
319.861813
20
7.675209
11
328.111707
21
7.623390
0
LINE
8
boundary
62
5
39
2
10
328.111707
20
7.623390
11
333.537633
21
10.213906
0
LINE
8
boundary
62
5
39
2
10
333.537633
20
10.213906
11
343.083950
21
10.754599
0
LINE
8
boundary
62
5
39
2
10
343.083950
20
10.754599
11
348.416998
21
11.353928
0
LINE
8
boundary
62
5
39
2
10
348.416998
20
11.353928
11
360.437263
21
11.237786
0
LINE
8
boundary
62
5
39
2
10
360.437263
20
11.237786
11
361.686996
21
11.522793
0
LINE
8
boundary
62
5
39
2
10
361.686996
20
11.522793
11
361.346753
21
15.986843
0
LINE
8
boundary
62
5
39
2
10
361.346753
20
15.986843
11
350.183978
21
79.294091
0
LINE
8
boundary
62
5
39
2
10
350.183978
20
79.294091
11
354.173434
21
79.997539
0
LINE
8
boundary
62
5
39
2
10
354.173434
20
79.997539
11
365.296487
21
16.915568
0
LINE
8
boundary
62
5
39
2
10
365.296487
20
16.915568
11
366.503558
21
12.604363
0
LINE
8
boundary
62
5
39
2
10
366.503558
20
12.604363
11
377.102741
21
14.696230
0
LINE
8
boundary
62
5
39
2
10
377.102741
20
14.696230
11
388.107919
21
19.495292
0
LINE
8
boundary
62
5
39
2
10
388.107919
20
19.495292
11
392.516498
21
21.467439
0
LINE
8
boundary
62
5
39
2
10
392.516498
20
21.467439
11
404.284309
21
27.966284
0
LINE
8
boundary
62
5
39
2
10
404.284309
20
27.966284
11
406.252427
21
29.081476
0
LINE
8
boundary
62
5
39
2
10
406.252427
20
29.081476
11
408.025395
21
30.051803
0
LINE
8
boundary
62
5
39
2
10
408.025395
20
30.051803
11
409.651735
21
30.949807
0
LINE
8
boundary
62
5
39
2
10
409.651735
20
30.949807
11
407.805215
21
35.028272
0
LINE
8
boundary
62
5
39
2
10
407.805215
20
35.028272
11
376.377340
21
89.462948
0
LINE
8
boundary
62
5
39
2
10
376.377340
20
89.462948
11
379.885610
21
91.488448
0
LINE
8
boundary
62
5
39
2
10
379.885610
20
91.488448
11
411.360576
21
36.972208
0
LINE
8
boundary
62
5
39
2
10
411.360576
20
36.972208
11
413.969370
21
33.333842
0
LINE
8
boundary
62
5
39
2
10
413.969370
20
33.333842
11
419.612786
21
36.449924
0
LINE
8
boundary
62
5
39
2
10
419.612786
20
36.449924
11
421.905712
21
38.052342
0
LINE
8
boundary
62
5
39
2
10
421.905712
20
38.052342
11
433.409568
21
45.809645
0
LINE
8
boundary
62
5
39
2
10
433.409568
20
45.809645
11
444.300679
21
57.780517
0
LINE
8
boundary
62
5
39
2
10
444.300679
20
57.780517
11
444.751999
21
58.287579
0
LINE
8
boundary
62
5
39
2
10
444.751999
20
58.287579
11
446.791624
21
61.648783
0
LINE
8
boundary
62
5
39
2
10
446.791624
20
61.648783
11
448.295811
21
64.201389
0
LINE
8
boundary
62
5
39
2
10
448.295811
20
64.201389
11
445.165733
21
67.402346
0
LINE
8
boundary
62
5
39
2
10
445.165733
20
67.402346
11
397.533345
21
107.370665
0
LINE
8
boundary
62
5
39
2
10
397.533345
20
107.370665
11
400.137278
21
110.473911
0
LINE
8
boundary
62
5
39
2
10
400.137278
20
110.473911
11
447.138189
21
71.035464
0
LINE
8
boundary
62
5
39
2
10
447.138189
20
71.035464
11
450.834049
21
68.508779
0
LINE
8
boundary
62
5
39
2
10
450.834049
20
68.508779
11
452.998318
21
72.181544
0
LINE
8
boundary
62
5
39
2
10
452.998318
20
72.181544
11
453.914512
21
74.103368
0
LINE
8
boundary
62
5
39
2
10
453.914512
20
74.103368
11
460.561618
21
84.443348
0
LINE
8
boundary
62
5
39
2
10
460.561618
20
84.443348
11
461.704460
21
87.091304
0
LINE
8
boundary
62
5
39
2
10
461.704460
20
87.091304
11
467.123041
21
97.062152
0
LINE
8
boundary
62
5
39
2
10
467.123041
20
97.062152
11
468.612729
21
101.439706
0
LINE
8
boundary
62
5
39
2
10
468.612729
20
101.439706
11
468.284573
21
109.916973
0
LINE
8
boundary
62
5
39
2
10
468.284573
20
109.916973
11
464.248471
21
111.854338
0
LINE
8
boundary
62
5
39
2
10
464.248471
20
111.854338
11
408.823791
21
132.027272
0
LINE
8
boundary
62
5
39
2
10
408.823791
20
132.027272
11
410.209315
21
135.833967
0
LINE
8
boundary
62
5
39
2
10
410.209315
20
135.833967
11
463.561017
21
116.415535
0
LINE
8
boundary
62
5
39
2
10
463.561017
20
116.415535
11
467.898166
21
115.305287
0
LINE
8
boundary
62
5
39
2
10
467.898166
20
115.305287
11
467.450660
21
121.008532
0
LINE
8
boundary
62
5
39
2
10
467.450660
20
121.008532
11
466.493703
21
123.911763
0
LINE
8
boundary
62
5
39
2
10
466.493703
20
123.911763
11
464.850568
21
127.572535
0
LINE
8
boundary
62
5
39
2
10
464.850568
20
127.572535
11
459.738407
21
141.037423
0
LINE
8
boundary
62
5
39
2
10
459.738407
20
141.037423
11
454.624949
21
151.149854
0
LINE
8
boundary
62
5
39
2
10
454.624949
20
151.149854
11
451.774026
21
157.488282
0
LINE
8
boundary
62
5
39
2
10
451.774026
20
157.488282
11
447.318712
21
157.928382
0
LINE
8
boundary
62
5
39
2
10
447.318712
20
157.928382
11
401.102940
21
157.928382
0
LINE
8
boundary
62
5
39
2
10
401.102940
20
157.928382
11
401.102940
21
161.979382
0
LINE
8
boundary
62
5
39
2
10
401.102940
20
161.979382
11
445.100737
21
161.979382
0
LINE
8
boundary
62
5
39
2
10
445.100737
20
161.979382
11
449.556052
21
162.419482
0
LINE
8
boundary
62
5
39
2
10
449.556052
20
162.419482
11
449.294828
21
163.000258
0
LINE
8
boundary
62
5
39
2
10
449.294828
20
163.000258
11
445.350892
21
168.411619
0
LINE
8
boundary
62
5
39
2
10
445.350892
20
168.411619
11
434.829914
21
182.841955
0
LINE
8
boundary
62
5
39
2
10
434.829914
20
182.841955
11
426.184844
21
189.420069
0
LINE
8
boundary
62
5
39
2
10
426.184844
20
189.420069
11
421.847695
21
188.309821
0
LINE
8
boundary
62
5
39
2
10
421.847695
20
188.309821
11
387.933351
21
175.966009
0
LINE
8
boundary
62
5
39
2
10
387.933351
20
175.966009
11
386.547828
21
179.772704
0
LINE
8
boundary
62
5
39
2
10
386.547828
20
179.772704
11
417.593948
21
191.072568
0
LINE
8
boundary
62
5
39
2
10
417.593948
20
191.072568
11
421.630051
21
193.009934
0
LINE
8
boundary
62
5
39
2
10
421.630051
20
193.009934
11
417.779139
21
196.277465
0
LINE
8
boundary
62
5
39
2
10
417.779139
20
196.277465
11
409.299913
21
201.205914
0
LINE
8
boundary
62
5
39
2
10
409.299913
20
201.205914
11
403.116954
21
205.908908
0
LINE
8
boundary
62
5
39
2
10
403.116954
20
205.908908
11
399.056697
21
207.952628
0
LINE
8
boundary
62
5
39
2
10
399.056697
20
207.952628
11
395.360838
21
205.425943
0
LINE
8
boundary
62
5
39
2
10
395.360838
20
205.425943
11
373.888510
21
187.408521
0
LINE
8
boundary
62
5
39
2
10
373.888510
20
187.408521
11
371.284577
21
190.511767
0
LINE
8
boundary
62
5
39
2
10
371.284577
20
190.511767
11
391.131477
21
207.165293
0
LINE
8
boundary
62
5
39
2
10
391.131477
20
207.165293
11
394.261554
21
210.366250
0
LINE
8
boundary
62
5
39
2
10
394.261554
20
210.366250
11
391.639042
21
211.686284
0
LINE
8
boundary
62
5
39
2
10
391.639042
20
211.686284
11
389.081554
21
213.497291
0
LINE
8
boundary
62
5
39
2
10
389.081554
20
213.497291
11
382.063586
21
216.819597
0
LINE
8
boundary
62
5
39
2
10
382.063586
20
216.819597
11
375.422978
21
219.809613
0
LINE
8
boundary
62
5
39
2
10
375.422978
20
219.809613
11
372.814184
21
216.171248
0
LINE
8
boundary
62
5
39
2
10
372.814184
20
216.171248
11
360.603417
21
195.021579
0
LINE
8
boundary
62
5
39
2
10
360.603417
20
195.021579
11
357.095148
21
197.047079
0
LINE
8
boundary
62
5
39
2
10
357.095148
20
197.047079
11
368.660228
21
217.078385
0
LINE
8
boundary
62
5
39
2
10
368.660228
20
217.078385
11
370.506747
21
221.156851
0
LINE
8
boundary
62
5
39
2
10
370.506747
20
221.156851
11
367.234207
21
221.697977
0
LINE
8
boundary
62
5
39
2
10
367.234207
20
221.697977
11
358.872163
21
224.268556
0
LINE
8
boundary
62
5
39
2
10
358.872163
20
224.268556
11
354.105686
21
224.271763
0
LINE
8
boundary
62
5
39
2
10
354.105686
20
224.271763
11
351.853067
21
224.216337
0
LINE
8
boundary
62
5
39
2
10
351.853067
20
224.216337
11
350.645996
21
219.905131
0
LINE
8
boundary
62
5
39
2
10
350.645996
20
219.905131
11
346.822516
21
198.221098
0
LINE
8
boundary
62
5
39
2
10
346.822516
20
198.221098
11
342.833060
21
198.924546
0
LINE
8
boundary
62
5
39
2
10
342.833060
20
198.924546
11
346.465489
21
219.525077
0
LINE
8
boundary
62
5
39
2
10
346.465489
20
219.525077
11
346.805732
21
223.989127
0
LINE
8
boundary
62
5
39
2
10
346.805732
20
223.989127
11
340.962141
21
222.198056
0
LINE
8
boundary
62
5
39
2
10
340.962141
20
222.198056
11
337.950863
21
221.878800
0
LINE
8
boundary
62
5
39
2
10
337.950863
20
221.878800
11
331.157609
21
218.277398
0
LINE
8
boundary
62
5
39
2
10
331.157609
20
218.277398
11
329.599549
21
217.878305
0
LINE
8
boundary
62
5
39
2
10
329.599549
20
217.878305
11
327.643411
21
217.052940
0
LINE
8
boundary
62
5
39
2
10
327.643411
20
217.052940
11
328.196135
21
212.610193
0
LINE
8
boundary
62
5
39
2
10
328.196135
20
212.610193
11
332.179146
21
194.983786
0
LINE
8
boundary
62
5
39
2
10
332.179146
20
194.983786
11
328.227772
21
194.090900
0
LINE
8
boundary
62
5
39
2
10
328.227772
20
194.090900
11
324.439216
21
210.856767
0
LINE
8
boundary
62
5
39
2
10
324.439216
20
210.856767
11
323.027939
21
215.105509
0
LINE
8
boundary
62
5
39
2
10
323.027939
20
215.105509
11
321.212994
21
214.339720
0
LINE
8
boundary
62
5
39
2
10
321.212994
20
214.339720
11
320.146587
21
213.989123
0
LINE
8
boundary
62
5
39
2
10
320.146587
20
213.989123
11
312.185680
21
210.447869
0
LINE
8
boundary
62
5
39
2
10
312.185680
20
210.447869
11
310.547208
21
209.930982
0
LINE
8
boundary
62
5
39
2
10
310.547208
20
209.930982
11
309.554952
21
209.300754
0
LINE
8
boundary
62
5
39
2
10
309.554952
20
209.300754
11
311.574612
21
205.305195
0
LINE
8
boundary
62
5
39
2
10
311.574612
20
205.305195
11
320.110712
21
191.883955
0
LINE
8
boundary
62
5
39
2
10
320.110712
20
191.883955
11
316.692498
21
189.709922
0
LINE
8
boundary
62
5
39
2
10
316.692498
20
189.709922
11
308.154763
21
203.133734
0
LINE
8
boundary
62
5
39
2
10
308.154763
20
203.133734
11
305.392395
21
206.656920
0
LINE
8
boundary
62
5
39
2
10
305.392395
20
206.656920
11
304.753501
21
206.251129
0
LINE
8
boundary
62
5
39
2
10
304.753501
20
206.251129
11
298.596925
21
204.997736
0
LINE
8
boundary
62
5
39
2
10
298.596925
20
204.997736
11
295.874213
21
204.073822
0
LINE
8
boundary
62
5
39
2
10
295.874213
20
204.073822
11
293.368472
21
203.072555
0
LINE
8
boundary
62
5
39
2
10
293.368472
20
203.072555
11
296.400827
21
199.778874
0
LINE
8
boundary
62
5
39
2
10
296.400827
20
199.778874
11
309.099564
21
188.455131
0
LINE
8
boundary
62
5
39
2
10
309.099564
20
188.455131
11
306.403445
21
185.431633
0
LINE
8
boundary
62
5
39
2
10
306.403445
20
185.431633
11
291.232599
21
198.959810
0
LINE
8
boundary
62
5
39
2
10
291.232599
20
198.959810
11
287.614431
21
201.596546
0
LINE
8
boundary
62
5
39
2
10
287.614431
20
201.596546
11
286.829138
21
201.531427
0
LINE
8
boundary
62
5
39
2
10
286.829138
20
201.531427
11
280.719187
21
198.760584
0
LINE
8
boundary
62
5
39
2
10
280.719187
20
198.760584
11
274.300570
21
200.313848
0
LINE
8
boundary
62
5
39
2
10
274.300570
20
200.313848
11
269.885328
21
199.537914
0
LINE
8
boundary
62
5
39
2
10
269.885328
20
199.537914
11
261.953299
21
198.604791
0
LINE
8
boundary
62
5
39
2
10
261.953299
20
198.604791
11
259.516463
21
197.395642
0
LINE
8
boundary
62
5
39
2
10
259.516463
20
197.395642
11
254.260703
21
193.062964
0
LINE
8
boundary
62
5
39
2
10
254.260703
20
193.062964
11
258.296805
21
191.125598
0
LINE
8
boundary
62
5
39
2
10
258.296805
20
191.125598
11
289.179969
21
179.885046
0
LINE
8
boundary
62
5
39
2
10
289.179969
20
179.885046
11
287.794445
21
176.078351
0
LINE
8
boundary
62
5
39
2
10
287.794445
20
176.078351
11
254.278488
21
188.277162
0
LINE
8
boundary
62
5
39
2
10
254.278488
20
188.277162
11
249.941339
21
189.387410
0
LINE
8
boundary
62
5
39
2
10
249.941339
20
189.387410
11
244.350560
21
181.000209
0
LINE
8
boundary
62
5
39
2
10
244.350560
20
181.000209
11
242.994604
21
169.975593
0
LINE
8
boundary
62
5
39
2
10
242.994604
20
169.975593
11
242.927771
21
164.853991
0
LINE
8
boundary
62
5
39
2
10
242.927771
20
164.853991
11
243.502275
21
162.419482
0
LINE
8
boundary
62
5
39
2
10
243.502275
20
162.419482
11
247.957589
21
161.979382
0
LINE
8
boundary
62
5
39
2
10
247.957589
20
161.979382
11
284.397351
21
161.979382
0
LINE
8
boundary
62
5
39
2
10
284.397351
20
161.979382
11
284.397351
21
157.928382
0
LINE
8
boundary
62
5
39
2
10
284.397351
20
157.928382
11
248.779376
21
157.928382
0
LINE
8
boundary
62
5
39
2
10
248.779376
20
157.928382
11
244.324061
21
157.488282
0
LINE
8
boundary
62
5
39
2
10
244.324061
20
157.488282
11
245.835720
21
146.854021
0
LINE
8
boundary
62
5
39
2
10
245.835720
20
146.854021
11
250.255527
21
137.464976
0
LINE
8
boundary
62
5
39
2
10
250.255527
20
137.464976
11
252.201599
21
131.343020
0
LINE
8
boundary
62
5
39
2
10
252.201599
20
131.343020
11
256.538748
21
132.453269
0
LINE
8
boundary
62
5
39
2
10
256.538748
20
132.453269
11
288.723664
21
144.167621
0
LINE
8
boundary
62
5
39
2
10
288.723664
20
144.167621
11
290.109187
21
140.360926
0
LINE
8
boundary
62
5
39
2
10
290.109187
20
140.360926
11
257.732862
21
128.576907
0
LINE
8
boundary
62
5
39
2
10
257.732862
20
128.576907
11
253.696759
21
126.639541
0
LINE
8
boundary
62
5
39
2
10
253.696759
20
126.639541
11
257.180969
21
119.826600
0
LINE
8
boundary
62
5
39
2
10
257.180969
20
119.826600
11
260.939384
21
110.215293
0
LINE
8
boundary
62
5
39
2
10
260.939384
20
110.215293
11
262.954471
21
106.549133
0
LINE
8
boundary
62
5
39
2
10
262.954471
20
106.549133
11
264.723746
21
101.671123
0
LINE
8
boundary
62
5
39
2
10
264.723746
20
101.671123
11
268.419606
21
104.197807
0
LINE
8
boundary
62
5
39
2
10
268.419606
20
104.197807
11
295.311643
21
126.762906
0
LINE
8
boundary
62
5
39
2
10
295.311643
20
126.762906
11
297.915576
21
123.659660
0
LINE
8
boundary
62
5
39
2
10
297.915576
20
123.659660
11
269.627321
21
99.922996
0
LINE
8
boundary
62
5
39
2
10
269.627321
20
99.922996
11
266.497243
21
96.722039
0
LINE
8
boundary
62
5
39
2
10
266.497243
20
96.722039
11
266.907493
21
95.576424
0
LINE
8
boundary
62
5
39
2
10
266.907493
20
95.576424
11
267.979264
21
90.657241
0
LINE
8
boundary
62
5
39
2
10
267.979264
20
90.657241
11
270.508948
21
85.752750
0
LINE
8
boundary
62
5
39
2
10
270.508948
20
85.752750
11
272.607183
21
81.680517
0
LINE
8
boundary
62
5
39
2
10
272.607183
20
81.680517
11
275.652706
21
75.347835
0
LINE
8
boundary
62
5
39
2
10
275.652706
20
75.347835
11
279.310266
21
65.002577
0
LINE
8
boundary
62
5
39
2
10
279.310266
20
65.002577
11
279.729406
21
64.264454
0
LINE
8
boundary
62
5
39
2
10
279.729406
20
64.264454
11
282.414530
21
67.696453
0
LINE
8
boundary
62
5
39
2
10
282.414530
20
67.696453
11
304.173799
21
105.384613
0
LINE
8
boundary
62
5
39
2
10
304.173799
20
105.384613
11
307.682068
21
103.359114
0
LINE
8
boundary
62
5
39
2
10
307.682068
20
103.359114
11
283.914418
21
62.192335
0
LINE
8
boundary
62
5
39
2
10
283.914418
20
62.192335
11
282.067898
21
58.113870
0
LINE
8
boundary
62
5
39
2
10
282.067898
20
58.113870
11
284.941261
21
50.599587
0
LINE
8
boundary
62
5
39
2
10
284.941261
20
50.599587
11
287.219917
21
38.263414
0
LINE
8
annotation
62
1
39
211
10
392.907997
20
156.433082
11
392.907997
21
163.474682
0
LINE
8
annotation
62
1
39
211
10
392.907997
20
163.474682
11
391.342559
21
161.908802
0
LINE
8
annotation
62
1
39
211
10
381.477713
20
172.025023
11
378.538972
21
170.955409
0
LINE
8
annotation
62
1
39
211
10
378.538972
20
170.955409
11
379.663335
21
176.315363
0
LINE
8
annotation
62
1
39
211
10
379.663335
20
176.315363
11
379.663335
21
176.315363
0
LINE
8
annotation
62
1
39
211
10
379.663335
20
176.315363
11
379.665119
21
176.320562
0
LINE
8
annotation
62
1
39
211
10
379.665119
20
176.320562
11
379.666757
21
176.325746
0
LINE
8
annotation
62
1
39
211
10
379.666757
20
176.325746
11
379.668258
21
176.330957
0
LINE
8
annotation
62
1
39
211
10
379.668258
20
176.330957
11
379.669630
21
176.336238
0
LINE
8
annotation
62
1
39
211
10
379.669630
20
176.336238
11
379.670880
21
176.341628
0
LINE
8
annotation
62
1
39
211
10
379.670880
20
176.341628
11
379.672017
21
176.347171
0
LINE
8
annotation
62
1
39
211
10
379.672017
20
176.347171
11
379.673048
21
176.352908
0
LINE
8
annotation
62
1
39
211
10
379.673048
20
176.352908
11
379.673982
21
176.358880
0
LINE
8
annotation
62
1
39
211
10
379.673982
20
176.358880
11
379.674827
21
176.365129
0
LINE
8
annotation
62
1
39
211
10
379.674827
20
176.365129
11
379.674827
21
176.365129
0
LINE
8
annotation
62
1
39
211
10
379.674827
20
176.365129
11
379.699328
21
176.646674
0
LINE
8
annotation
62
1
39
211
10
379.699328
20
176.646674
11
379.674002
21
176.920057
0
LINE
8
annotation
62
1
39
211
10
379.674002
20
176.920057
11
379.602505
21
177.180225
0
LINE
8
annotation
62
1
39
211
10
379.602505
20
177.180225
11
379.488494
21
177.422124
0
LINE
8
annotation
62
1
39
211
10
379.488494
20
177.422124
11
379.335628
21
177.640698
0
LINE
8
annotation
62
1
39
211
10
379.335628
20
177.640698
11
379.147564
21
177.830893
0
LINE
8
annotation
62
1
39
211
10
379.147564
20
177.830893
11
378.927959
21
177.987655
0
LINE
8
annotation
62
1
39
211
10
378.927959
20
177.987655
11
378.680470
21
178.105929
0
LINE
8
annotation
62
1
39
211
10
378.680470
20
178.105929
11
378.408757
21
178.180661
0
LINE
8
annotation
62
1
39
211
10
378.408757
20
178.180661
11
378.408757
21
178.180661
0
LINE
8
annotation
62
1
39
211
10
378.408757
20
178.180661
11
378.127122
21
178.203326
0
LINE
8
annotation
62
1
39
211
10
378.127122
20
178.203326
11
377.853724
21
178.176851
0
LINE
8
annotation
62
1
39
211
10
377.853724
20
178.176851
11
377.593619
21
178.104721
0
LINE
8
annotation
62
1
39
211
10
377.593619
20
178.104721
11
377.351869
21
177.990422
0
LINE
8
annotation
62
1
39
211
10
377.351869
20
177.990422
11
377.133531
21
177.837439
0
LINE
8
annotation
62
1
39
211
10
377.133531
20
177.837439
11
376.943665
21
177.649257
0
LINE
8
annotation
62
1
39
211
10
376.943665
20
177.649257
11
376.787330
21
177.429360
0
LINE
8
annotation
62
1
39
211
10
376.787330
20
177.429360
11
376.669585
21
177.181235
0
LINE
8
annotation
62
1
39
211
10
376.669585
20
177.181235
11
376.595490
21
176.908367
0
LINE
8
annotation
62
1
39
211
10
376.595490
20
176.908367
11
376.537255
21
176.467993
0
LINE
8
annotation
62
1
39
211
10
366.774229
20
179.487243
11
367.972070
21
180.492351
0
LINE
8
annotation
62
1
39
211
10
367.972070
20
180.492351
11
367.972070
21
180.492351
0
LINE
8
annotation
62
1
39
211
10
367.972070
20
180.492351
11
368.171289
21
180.692449
0
LINE
8
annotation
62
1
39
211
10
368.171289
20
180.692449
11
368.327269
21
180.918246
0
LINE
8
annotation
62
1
39
211
10
368.327269
20
180.918246
11
368.439508
21
181.163497
0
LINE
8
annotation
62
1
39
211
10
368.439508
20
181.163497
11
368.507503
21
181.421952
0
LINE
8
annotation
62
1
39
211
10
368.507503
20
181.421952
11
368.530751
21
181.687363
0
LINE
8
annotation
62
1
39
211
10
368.530751
20
181.687363
11
368.508750
21
181.953483
0
LINE
8
annotation
62
1
39
211
10
368.508750
20
181.953483
11
368.440997
21
182.214063
0
LINE
8
annotation
62
1
39
211
10
368.440997
20
182.214063
11
368.326989
21
182.462855
0
LINE
8
annotation
62
1
39
211
10
368.326989
20
182.462855
11
368.166223
21
182.693611
0
LINE
8
annotation
62
1
39
211
10
368.166223
20
182.693611
11
367.662959
21
183.293377
0
LINE
8
annotation
62
1
39
211
10
367.662959
20
183.293377
11
367.662959
21
183.293377
0
LINE
8
annotation
62
1
39
211
10
367.662959
20
183.293377
11
367.463700
21
183.491682
0
LINE
8
annotation
62
1
39
211
10
367.463700
20
183.491682
11
367.238525
21
183.647113
0
LINE
8
annotation
62
1
39
211
10
367.238525
20
183.647113
11
366.993681
21
183.759072
0
LINE
8
annotation
62
1
39
211
10
366.993681
20
183.759072
11
366.735415
21
183.826961
0
LINE
8
annotation
62
1
39
211
10
366.735415
20
183.826961
11
366.469976
21
183.850182
0
LINE
8
annotation
62
1
39
211
10
366.469976
20
183.850182
11
366.203610
21
183.828137
0
LINE
8
annotation
62
1
39
211
10
366.203610
20
183.828137
11
365.942565
21
183.760226
0
LINE
8
annotation
62
1
39
211
10
365.942565
20
183.760226
11
365.693088
21
183.645853
0
LINE
8
annotation
62
1
39
211
10
365.693088
20
183.645853
11
365.461428
21
183.484419
0
LINE
8
annotation
62
1
39
211
10
365.461428
20
183.484419
11
364.861661
21
182.981155
0
LINE
8
annotation
62
1
39
211
10
364.861661
20
182.981155
11
365.461428
21
183.484419
0
LINE
8
annotation
62
1
39
211
10
365.461428
20
183.484419
11
365.461428
21
183.484419
0
LINE
8
annotation
62
1
39
211
10
365.461428
20
183.484419
11
365.660633
21
183.684532
0
LINE
8
annotation
62
1
39
211
10
365.660633
20
183.684532
11
365.816562
21
183.910390
0
LINE
8
annotation
62
1
39
211
10
365.816562
20
183.910390
11
365.928697
21
184.155765
0
LINE
8
annotation
62
1
39
211
10
365.928697
20
184.155765
11
365.996518
21
184.414428
0
LINE
8
annotation
62
1
39
211
10
365.996518
20
184.414428
11
366.019505
21
184.680150
0
LINE
8
annotation
62
1
39
211
10
366.019505
20
184.680150
11
365.997140
21
184.946703
0
LINE
8
annotation
62
1
39
211
10
365.997140
20
184.946703
11
365.928904
21
185.207858
0
LINE
8
annotation
62
1
39
211
10
365.928904
20
185.207858
11
365.814278
21
185.457387
0
LINE
8
annotation
62
1
39
211
10
365.814278
20
185.457387
11
365.652742
21
185.689061
0
LINE
8
annotation
62
1
39
211
10
365.652742
20
185.689061
11
365.652742
21
185.689061
0
LINE
8
annotation
62
1
39
211
10
365.652742
20
185.689061
11
365.453483
21
185.887366
0
LINE
8
annotation
62
1
39
211
10
365.453483
20
185.887366
11
365.228308
21
186.042797
0
LINE
8
annotation
62
1
39
211
10
365.228308
20
186.042797
11
364.983464
21
186.154756
0
LINE
8
annotation
62
1
39
211
10
364.983464
20
186.154756
11
364.725198
21
186.222645
0
LINE
8
annotation
62
1
39
211
10
364.725198
20
186.222645
11
364.459758
21
186.245866
0
LINE
8
annotation
62
1
39
211
10
364.459758
20
186.245866
11
364.193392
21
186.223820
0
LINE
8
annotation
62
1
39
211
10
364.193392
20
186.223820
11
363.932347
21
186.155910
0
LINE
8
annotation
62
1
39
211
10
363.932347
20
186.155910
11
363.682871
21
186.041537
0
LINE
8
annotation
62
1
39
211
10
363.682871
20
186.041537
11
363.451210
21
185.880103
0
LINE
8
annotation
62
1
39
211
10
363.451210
20
185.880103
11
362.253369
21
184.874994
0
LINE
8
annotation
62
1
39
211
10
357.031195
20
188.974584
11
355.076274
21
185.588562
0
LINE
8
annotation
62
1
39
211
10
355.076274
20
185.588562
11
351.114510
21
189.678910
0
LINE
8
annotation
62
1
39
211
10
357.800913
20
187.176900
11
355.092555
21
188.740571
0
LINE
8
annotation
62
1
39
211
10
346.464577
20
187.580036
11
346.736106
21
189.119952
0
LINE
8
annotation
62
1
39
211
10
346.736106
20
189.119952
11
346.736106
21
189.119952
0
LINE
8
annotation
62
1
39
211
10
346.736106
20
189.119952
11
346.759990
21
189.400719
0
LINE
8
annotation
62
1
39
211
10
346.759990
20
189.400719
11
346.734246
21
189.673654
0
LINE
8
annotation
62
1
39
211
10
346.734246
20
189.673654
11
346.662464
21
189.933602
0
LINE
8
annotation
62
1
39
211
10
346.662464
20
189.933602
11
346.548234
21
190.175403
0
LINE
8
annotation
62
1
39
211
10
346.548234
20
190.175403
11
346.395144
21
190.393900
0
LINE
8
annotation
62
1
39
211
10
346.395144
20
190.393900
11
346.206784
21
190.583936
0
LINE
8
annotation
62
1
39
211
10
346.206784
20
190.583936
11
345.986744
21
190.740354
0
LINE
8
annotation
62
1
39
211
10
345.986744
20
190.740354
11
345.738613
21
190.857996
0
LINE
8
annotation
62
1
39
211
10
345.738613
20
190.857996
11
345.465979
21
190.931703
0
LINE
8
annotation
62
1
39
211
10
345.465979
20
190.931703
11
344.698848
21
191.066969
0
LINE
8
annotation
62
1
39
211
10
344.698848
20
191.066969
11
344.698848
21
191.066969
0
LINE
8
annotation
62
1
39
211
10
344.698848
20
191.066969
11
344.417584
21
191.090943
0
LINE
8
annotation
62
1
39
211
10
344.417584
20
191.090943
11
344.144547
21
191.065235
0
LINE
8
annotation
62
1
39
211
10
344.144547
20
191.065235
11
343.884807
21
190.993463
0
LINE
8
annotation
62
1
39
211
10
343.884807
20
190.993463
11
343.643436
21
190.879248
0
LINE
8
annotation
62
1
39
211
10
343.643436
20
190.879248
11
343.425505
21
190.726209
0
LINE
8
annotation
62
1
39
211
10
343.425505
20
190.726209
11
343.236082
21
190.537964
0
LINE
8
annotation
62
1
39
211
10
343.236082
20
190.537964
11
343.080240
21
190.318135
0
LINE
8
annotation
62
1
39
211
10
343.080240
20
190.318135
11
342.963048
21
190.070340
0
LINE
8
annotation
62
1
39
211
10
342.963048
20
190.070340
11
342.889578
21
189.798199
0
LINE
8
annotation
62
1
39
211
10
342.889578
20
189.798199
11
342.618049
21
188.258283
0
LINE
8
annotation
62
1
39
211
10
342.618049
20
188.258283
11
339.529955
21
188.802797
0
LINE
8
annotation
62
1
39
211
10
339.529955
20
188.802797
11
340.073012
21
191.882629
0
LINE
8
annotation
62
1
39
211
10
328.575016
20
185.770067
11
328.575016
21
185.770067
0
LINE
8
annotation
62
1
39
211
10
328.575016
20
185.770067
11
328.837574
21
185.370150
0
LINE
8
annotation
62
1
39
211
10
328.837574
20
185.370150
11
329.148909
21
185.019083
0
LINE
8
annotation
62
1
39
211
10
329.148909
20
185.019083
11
329.502561
21
184.719732
0
LINE
8
annotation
62
1
39
211
10
329.502561
20
184.719732
11
329.892070
21
184.474963
0
LINE
8
annotation
62
1
39
211
10
329.892070
20
184.474963
11
330.310973
21
184.287642
0
LINE
8
annotation
62
1
39
211
10
330.310973
20
184.287642
11
330.752813
21
184.160635
0
LINE
8
annotation
62
1
39
211
10
330.752813
20
184.160635
11
331.211127
21
184.096809
0
LINE
8
annotation
62
1
39
211
10
331.211127
20
184.096809
11
331.679455
21
184.099029
0
LINE
8
annotation
62
1
39
211
10
331.679455
20
184.099029
11
332.151338
21
184.170163
0
LINE
8
annotation
62
1
39
211
10
332.151338
20
184.170163
11
334.434209
21
184.686020
0
LINE
8
annotation
62
1
39
211
10
334.434209
20
184.686020
11
334.434209
21
184.686020
0
LINE
8
annotation
62
1
39
211
10
334.434209
20
184.686020
11
334.703017
21
184.772644
0
LINE
8
annotation
62
1
39
211
10
334.703017
20
184.772644
11
334.945257
21
184.901984
0
LINE
8
annotation
62
1
39
211
10
334.945257
20
184.901984
11
335.157588
21
185.068716
0
LINE
8
annotation
62
1
39
211
10
335.157588
20
185.068716
11
335.336672
21
185.267518
0
LINE
8
annotation
62
1
39
211
10
335.336672
20
185.267518
11
335.479168
21
185.493067
0
LINE
8
annotation
62
1
39
211
10
335.479168
20
185.493067
11
335.581738
21
185.740040
0
LINE
8
annotation
62
1
39
211
10
335.581738
20
185.740040
11
335.641043
21
186.003115
0
LINE
8
annotation
62
1
39
211
10
335.641043
20
186.003115
11
335.653742
21
186.276967
0
LINE
8
annotation
62
1
39
211
10
335.653742
20
186.276967
11
335.616497
21
186.556276
0
LINE
8
annotation
62
1
39
211
10
335.616497
20
186.556276
11
335.616497
21
186.556276
0
LINE
8
annotation
62
1
39
211
10
335.616497
20
186.556276
11
335.529898
21
186.825028
0
LINE
8
annotation
62
1
39
211
10
335.529898
20
186.825028
11
335.400613
21
187.067113
0
LINE
8
annotation
62
1
39
211
10
335.400613
20
187.067113
11
335.233933
21
187.279215
0
LINE
8
annotation
62
1
39
211
10
335.233933
20
187.279215
11
335.035151
21
187.458018
0
LINE
8
annotation
62
1
39
211
10
335.035151
20
187.458018
11
334.809558
21
187.600204
0
LINE
8
annotation
62
1
39
211
10
334.809558
20
187.600204
11
334.562446
21
187.702457
0
LINE
8
annotation
62
1
39
211
10
334.562446
20
187.702457
11
334.299106
21
187.761460
0
LINE
8
annotation
62
1
39
211
10
334.299106
20
187.761460
11
334.024829
21
187.773898
0
LINE
8
annotation
62
1
39
211
10
334.024829
20
187.773898
11
333.744908
21
187.736452
0
LINE
8
annotation
62
1
39
211
10
333.744908
20
187.736452
11
332.985099
21
187.564759
0
LINE
8
annotation
62
1
39
211
10
332.985099
20
187.564759
11
332.985099
21
187.564759
0
LINE
8
annotation
62
1
39
211
10
332.985099
20
187.564759
11
332.716408
21
187.478236
0
LINE
8
annotation
62
1
39
211
10
332.716408
20
187.478236
11
332.474484
21
187.349154
0
LINE
8
annotation
62
1
39
211
10
332.474484
20
187.349154
11
332.262617
21
187.182768
0
LINE
8
annotation
62
1
39
211
10
332.262617
20
187.182768
11
332.084093
21
186.984335
0
LINE
8
annotation
62
1
39
211
10
332.084093
20
186.984335
11
331.942200
21
186.759109
0
LINE
8
annotation
62
1
39
211
10
331.942200
20
186.759109
11
331.840225
21
186.512345
0
LINE
8
annotation
62
1
39
211
10
331.840225
20
186.512345
11
331.781456
21
186.249298
0
LINE
8
annotation
62
1
39
211
10
331.781456
20
186.249298
11
331.769181
21
185.975225
0
LINE
8
annotation
62
1
39
211
10
331.769181
20
185.975225
11
331.806687
21
185.695379
0
LINE
8
annotation
62
1
39
211
10
331.806687
20
185.695379
11
332.151338
21
184.170163
0
LINE
8
annotation
62
1
39
211
10
336.862868
20
185.034037
11
336.086844
21
188.468250
0
LINE
8
annotation
62
1
39
211
10
326.190560
20
185.110938
11
319.408776
21
182.652862
0
LINE
8
annotation
62
1
39
211
10
319.408776
20
182.652862
11
321.089246
21
180.010672
0
LINE
8
annotation
62
1
39
211
10
322.054692
20
184.335702
11
322.894809
21
183.014793
0
LINE
8
annotation
62
1
39
211
10
316.923455
20
181.390044
11
316.923455
21
181.390044
0
LINE
8
annotation
62
1
39
211
10
316.923455
20
181.390044
11
317.091733
21
181.616688
0
LINE
8
annotation
62
1
39
211
10
317.091733
20
181.616688
11
317.213409
21
181.862473
0
LINE
8
annotation
62
1
39
211
10
317.213409
20
181.862473
11
317.288904
21
182.121176
0
LINE
8
annotation
62
1
39
211
10
317.288904
20
182.121176
11
317.318639
21
182.386573
0
LINE
8
annotation
62
1
39
211
10
317.318639
20
182.386573
11
317.303033
21
182.652440
0
LINE
8
annotation
62
1
39
211
10
317.303033
20
182.652440
11
317.242507
21
182.912555
0
LINE
8
annotation
62
1
39
211
10
317.242507
20
182.912555
11
317.137483
21
183.160693
0
LINE
8
annotation
62
1
39
211
10
317.137483
20
183.160693
11
316.988379
21
183.390632
0
LINE
8
annotation
62
1
39
211
10
316.988379
20
183.390632
11
316.795618
21
183.596148
0
LINE
8
annotation
62
1
39
211
10
316.795618
20
183.596148
11
316.795618
21
183.596148
0
LINE
8
annotation
62
1
39
211
10
316.795618
20
183.596148
11
316.569451
21
183.764200
0
LINE
8
annotation
62
1
39
211
10
316.569451
20
183.764200
11
316.324001
21
183.886093
0
LINE
8
annotation
62
1
39
211
10
316.324001
20
183.886093
11
316.065499
21
183.962119
0
LINE
8
annotation
62
1
39
211
10
316.065499
20
183.962119
11
315.800177
21
183.992569
0
LINE
8
annotation
62
1
39
211
10
315.800177
20
183.992569
11
315.534265
21
183.977738
0
LINE
8
annotation
62
1
39
211
10
315.534265
20
183.977738
11
315.273994
21
183.917915
0
LINE
8
annotation
62
1
39
211
10
315.273994
20
183.917915
11
315.025595
21
183.813395
0
LINE
8
annotation
62
1
39
211
10
315.025595
20
183.813395
11
314.795299
21
183.664469
0
LINE
8
annotation
62
1
39
211
10
314.795299
20
183.664469
11
314.589336
21
183.471429
0
LINE
8
annotation
62
1
39
211
10
314.589336
20
183.471429
11
314.070900
21
182.890041
0
LINE
8
annotation
62
1
39
211
10
314.070900
20
182.890041
11
314.070900
21
182.890041
0
LINE
8
annotation
62
1
39
211
10
314.070900
20
182.890041
11
313.902520
21
182.663305
0
LINE
8
annotation
62
1
39
211
10
313.902520
20
182.663305
11
313.780574
21
182.417272
0
LINE
8
annotation
62
1
39
211
10
313.780574
20
182.417272
11
313.704691
21
182.158206
0
LINE
8
annotation
62
1
39
211
10
313.704691
20
182.158206
11
313.674505
21
181.892372
0
LINE
8
annotation
62
1
39
211
10
313.674505
20
181.892372
11
313.689644
21
181.626037
0
LINE
8
annotation
62
1
39
211
10
313.689644
20
181.626037
11
313.749742
21
181.365464
0
LINE
8
annotation
62
1
39
211
10
313.749742
20
181.365464
11
313.854428
21
181.116918
0
LINE
8
annotation
62
1
39
211
10
313.854428
20
181.116918
11
314.003334
21
180.886666
0
LINE
8
annotation
62
1
39
211
10
314.003334
20
180.886666
11
314.196091
21
180.680971
0
LINE
8
annotation
62
1
39
211
10
314.196091
20
180.680971
11
314.196091
21
180.680971
0
LINE
8
annotation
62
1
39
211
10
314.196091
20
180.680971
11
314.422446
21
180.512954
0
LINE
8
annotation
62
1
39
211
10
314.422446
20
180.512954
11
314.668210
21
180.391320
0
LINE
8
annotation
62
1
39
211
10
314.668210
20
180.391320
11
314.927108
21
180.315712
0
LINE
8
annotation
62
1
39
211
10
314.927108
20
180.315712
11
315.192868
21
180.285774
0
LINE
8
annotation
62
1
39
211
10
315.192868
20
180.285774
11
315.459216
21
180.301150
0
LINE
8
annotation
62
1
39
211
10
315.459216
20
180.301150
11
315.719879
21
180.361482
0
LINE
8
annotation
62
1
39
211
10
315.719879
20
180.361482
11
315.968582
21
180.466415
0
LINE
8
annotation
62
1
39
211
10
315.968582
20
180.466415
11
316.199053
21
180.615592
0
LINE
8
annotation
62
1
39
211
10
316.199053
20
180.615592
11
316.405019
21
180.808656
0
LINE
8
annotation
62
1
39
211
10
316.405019
20
180.808656
11
316.923455
21
181.390044
0
LINE
8
annotation
62
1
39
211
10
311.986870
20
180.552956
11
311.986870
21
180.552956
0
LINE
8
annotation
62
1
39
211
10
311.986870
20
180.552956
11
311.819355
21
180.327190
0
LINE
8
annotation
62
1
39
211
10
311.819355
20
180.327190
11
311.698063
21
180.081890
0
LINE
8
annotation
62
1
39
211
10
311.698063
20
180.081890
11
311.622653
21
179.823354
0
LINE
8
annotation
62
1
39
211
10
311.622653
20
179.823354
11
311.592787
21
179.557881
0
LINE
8
annotation
62
1
39
211
10
311.592787
20
179.557881
11
311.608124
21
179.291766
0
LINE
8
annotation
62
1
39
211
10
311.608124
20
179.291766
11
311.668324
21
179.031308
0
LINE
8
annotation
62
1
39
211
10
311.668324
20
179.031308
11
311.773048
21
178.782805
0
LINE
8
annotation
62
1
39
211
10
311.773048
20
178.782805
11
311.921955
21
178.552554
0
LINE
8
annotation
62
1
39
211
10
311.921955
20
178.552554
11
312.114706
21
178.346852
0
LINE
8
annotation
62
1
39
211
10
312.114706
20
178.346852
11
312.114706
21
178.346852
0
LINE
8
annotation
62
1
39
211
10
312.114706
20
178.346852
11
312.341058
21
178.178831
0
LINE
8
annotation
62
1
39
211
10
312.341058
20
178.178831
11
312.586796
21
178.057168
0
LINE
8
annotation
62
1
39
211
10
312.586796
20
178.057168
11
312.845625
21
177.981483
0
LINE
8
annotation
62
1
39
211
10
312.845625
20
177.981483
11
313.111251
21
177.951395
0
LINE
8
annotation
62
1
39
211
10
313.111251
20
177.951395
11
313.377377
21
177.966522
0
LINE
8
annotation
62
1
39
211
10
313.377377
20
177.966522
11
313.637710
21
178.026484
0
LINE
8
annotation
62
1
39
211
10
313.637710
20
178.026484
11
313.885953
21
178.130901
0
LINE
8
annotation
62
1
39
211
10
313.885953
20
178.130901
11
314.115811
21
178.279390
0
LINE
8
annotation
62
1
39
211
10
314.115811
20
178.279390
11
314.320989
21
178.471571
0
LINE
8
annotation
62
1
39
211
10
314.320989
20
178.471571
11
314.320989
21
178.471571
0
LINE
8
annotation
62
1
39
211
10
314.320989
20
178.471571
11
314.489368
21
178.698328
0
LINE
8
annotation
62
1
39
211
10
314.489368
20
178.698328
11
314.611314
21
178.944416
0
LINE
8
annotation
62
1
39
211
10
314.611314
20
178.944416
11
314.687200
21
179.203558
0
LINE
8
annotation
62
1
39
211
10
314.687200
20
179.203558
11
314.717398
21
179.469475
0
LINE
8
annotation
62
1
39
211
10
314.717398
20
179.469475
11
314.702280
21
179.735889
0
LINE
8
annotation
62
1
39
211
10
314.702280
20
179.735889
11
314.642218
21
179.996524
0
LINE
8
annotation
62
1
39
211
10
314.642218
20
179.996524
11
314.537585
21
180.245101
0
LINE
8
annotation
62
1
39
211
10
314.537585
20
180.245101
11
314.388752
21
180.475342
0
LINE
8
annotation
62
1
39
211
10
314.388752
20
180.475342
11
314.196091
21
180.680971
0
LINE
8
annotation
62
1
39
211
10
314.196091
20
180.680971
11
314.196091
21
180.680971
0
LINE
8
annotation
62
1
39
211
10
314.196091
20
180.680971
11
313.969823
21
180.848911
0
LINE
8
annotation
62
1
39
211
10
313.969823
20
180.848911
11
313.724103
21
180.970500
0
LINE
8
annotation
62
1
39
211
10
313.724103
20
180.970500
11
313.465210
21
181.046088
0
LINE
8
annotation
62
1
39
211
10
313.465210
20
181.046088
11
313.199425
21
181.076018
0
LINE
8
annotation
62
1
39
211
10
313.199425
20
181.076018
11
312.933025
21
181.060639
0
LINE
8
annotation
62
1
39
211
10
312.933025
20
181.060639
11
312.672290
21
181.000297
0
LINE
8
annotation
62
1
39
211
10
312.672290
20
181.000297
11
312.423500
21
180.895338
0
LINE
8
annotation
62
1
39
211
10
312.423500
20
180.895338
11
312.192934
21
180.746109
0
LINE
8
annotation
62
1
39
211
10
312.192934
20
180.746109
11
311.986870
21
180.552956
0
LINE
8
annotation
62
1
39
211
10
298.863565
20
177.951770
11
298.863565
21
177.951770
0
LINE
8
annotation
62
1
39
211
10
298.863565
20
177.951770
11
298.386376
21
177.948124
0
LINE
8
annotation
62
1
39
211
10
298.386376
20
177.948124
11
297.923651
21
177.876848
0
LINE
8
annotation
62
1
39
211
10
297.923651
20
177.876848
11
297.481341
21
177.741887
0
LINE
8
annotation
62
1
39
211
10
297.481341
20
177.741887
11
297.065392
21
177.547182
0
LINE
8
annotation
62
1
39
211
10
297.065392
20
177.547182
11
296.681753
21
177.296674
0
LINE
8
annotation
62
1
39
211
10
296.681753
20
177.296674
11
296.336374
21
176.994307
0
LINE
8
annotation
62
1
39
211
10
296.336374
20
176.994307
11
296.035201
21
176.644022
0
LINE
8
annotation
62
1
39
211
10
296.035201
20
176.644022
11
295.784185
21
176.249761
0
LINE
8
annotation
62
1
39
211
10
295.784185
20
176.249761
11
295.589272
21
175.815467
0
LINE
8
annotation
62
1
39
211
10
295.589272
20
175.815467
11
294.786080
21
173.608714
0
LINE
8
annotation
62
1
39
211
10
294.786080
20
173.608714
11
294.786080
21
173.608714
0
LINE
8
annotation
62
1
39
211
10
294.786080
20
173.608714
11
294.713523
21
173.335763
0
LINE
8
annotation
62
1
39
211
10
294.713523
20
173.335763
11
294.691153
21
173.062078
0
LINE
8
annotation
62
1
39
211
10
294.691153
20
173.062078
11
294.716352
21
172.793334
0
LINE
8
annotation
62
1
39
211
10
294.716352
20
172.793334
11
294.786503
21
172.535207
0
LINE
8
annotation
62
1
39
211
10
294.786503
20
172.535207
11
294.898986
21
172.293372
0
LINE
8
annotation
62
1
39
211
10
294.898986
20
172.293372
11
295.051185
21
172.073504
0
LINE
8
annotation
62
1
39
211
10
295.051185
20
172.073504
11
295.240480
21
171.881280
0
LINE
8
annotation
62
1
39
211
10
295.240480
20
171.881280
11
295.464254
21
171.722373
0
LINE
8
annotation
62
1
39
211
10
295.464254
20
171.722373
11
295.719888
21
171.602461
0
LINE
8
annotation
62
1
39
211
10
295.719888
20
171.602461
11
295.719888
21
171.602461
0
LINE
8
annotation
62
1
39
211
10
295.719888
20
171.602461
11
295.992247
21
171.530200
0
LINE
8
annotation
62
1
39
211
10
295.992247
20
171.530200
11
296.265520
21
171.508196
0
LINE
8
annotation
62
1
39
211
10
296.265520
20
171.508196
11
296.534003
21
171.533803
0
LINE
8
annotation
62
1
39
211
10
296.534003
20
171.533803
11
296.791990
21
171.604375
0
LINE
8
annotation
62
1
39
211
10
296.791990
20
171.604375
11
297.033777
21
171.717266
0
LINE
8
annotation
62
1
39
211
10
297.033777
20
171.717266
11
297.253659
21
171.869830
0
LINE
8
annotation
62
1
39
211
10
297.253659
20
171.869830
11
297.445930
21
172.059421
0
LINE
8
annotation
62
1
39
211
10
297.445930
20
172.059421
11
297.604885
21
172.283393
0
LINE
8
annotation
62
1
39
211
10
297.604885
20
172.283393
11
297.724821
21
172.539099
0
LINE
8
annotation
62
1
39
211
10
297.724821
20
172.539099
11
297.992602
21
173.274822
0
LINE
8
annotation
62
1
39
211
10
297.992602
20
173.274822
11
297.992602
21
173.274822
0
LINE
8
annotation
62
1
39
211
10
297.992602
20
173.274822
11
298.065086
21
173.547783
0
LINE
8
annotation
62
1
39
211
10
298.065086
20
173.547783
11
298.087271
21
173.821492
0
LINE
8
annotation
62
1
39
211
10
298.087271
20
173.821492
11
298.061830
21
174.090262
0
LINE
8
annotation
62
1
39
211
10
298.061830
20
174.090262
11
297.991433
21
174.348404
0
LINE
8
annotation
62
1
39
211
10
297.991433
20
174.348404
11
297.878754
21
174.590232
0
LINE
8
annotation
62
1
39
211
10
297.878754
20
174.590232
11
297.726463
21
174.810059
0
LINE
8
annotation
62
1
39
211
10
297.726463
20
174.810059
11
297.537233
21
175.002198
0
LINE
8
annotation
62
1
39
211
10
297.537233
20
175.002198
11
297.313736
21
175.160960
0
LINE
8
annotation
62
1
39
211
10
297.313736
20
175.160960
11
297.058643
21
175.280659
0
LINE
8
annotation
62
1
39
211
10
297.058643
20
175.280659
11
295.589272
21
175.815467
0
LINE
8
annotation
62
1
39
211
10
300.082293
20
178.444879
11
296.773824
21
179.649063
0
LINE
8
annotation
62
1
39
211
10
295.389798
20
163.340979
11
295.389798
21
156.566784
0
LINE
8
annotation
62
1
39
211
10
295.389798
20
156.566784
11
296.895788
21
158.073200
0
LINE
8
annotation
62
1
39
211
10
291.761572
20
163.251625
11
291.761572
21
163.251625
0
LINE
8
annotation
62
1
39
211
10
291.761572
20
163.251625
11
291.604131
21
163.310481
0
LINE
8
annotation
62
1
39
211
10
291.604131
20
163.310481
11
291.442662
21
163.339721
0
LINE
8
annotation
62
1
39
211
10
291.442662
20
163.339721
11
291.280816
21
163.340539
0
LINE
8
annotation
62
1
39
211
10
291.280816
20
163.340539
11
291.122242
21
163.314126
0
LINE
8
annotation
62
1
39
211
10
291.122242
20
163.314126
11
290.970592
21
163.261675
0
LINE
8
annotation
62
1
39
211
10
290.970592
20
163.261675
11
290.829514
21
163.184378
0
LINE
8
annotation
62
1
39
211
10
290.829514
20
163.184378
11
290.702661
21
163.083427
0
LINE
8
annotation
62
1
39
211
10
290.702661
20
163.083427
11
290.593681
21
162.960015
0
LINE
8
annotation
62
1
39
211
10
290.593681
20
162.960015
11
290.506226
21
162.815334
0
LINE
8
annotation
62
1
39
211
10
290.506226
20
162.815334
11
290.506226
21
162.815334
0
LINE
8
annotation
62
1
39
211
10
290.506226
20
162.815334
11
290.245291
21
162.204553
0
LINE
8
annotation
62
1
39
211
10
290.245291
20
162.204553
11
290.049590
21
161.576094
0
LINE
8
annotation
62
1
39
211
10
290.049590
20
161.576094
11
289.919123
21
160.934967
0
LINE
8
annotation
62
1
39
211
10
289.919123
20
160.934967
11
289.853889
21
160.286182
0
LINE
8
annotation
62
1
39
211
10
289.853889
20
160.286182
11
289.853889
21
159.634751
0
LINE
8
annotation
62
1
39
211
10
289.853889
20
159.634751
11
289.919123
21
158.985684
0
LINE
8
annotation
62
1
39
211
10
289.919123
20
158.985684
11
290.049590
21
158.343990
0
LINE
8
annotation
62
1
39
211
10
290.049590
20
158.343990
11
290.245291
21
157.714681
0
LINE
8
annotation
62
1
39
211
10
290.245291
20
157.714681
11
290.506226
21
157.102767
0
LINE
8
annotation
62
1
39
211
10
290.506226
20
157.102767
11
290.506226
21
157.102767
0
LINE
8
annotation
62
1
39
211
10
290.506226
20
157.102767
11
290.539409
21
157.041012
0
LINE
8
annotation
62
1
39
211
10
290.539409
20
157.041012
11
290.577029
21
156.981970
0
LINE
8
annotation
62
1
39
211
10
290.577029
20
156.981970
11
290.618803
21
156.925931
0
LINE
8
annotation
62
1
39
211
10
290.618803
20
156.925931
11
290.664448
21
156.873186
0
LINE
8
annotation
62
1
39
211
10
290.664448
20
156.873186
11
290.713680
21
156.824026
0
LINE
8
annotation
62
1
39
211
10
290.713680
20
156.824026
11
290.766216
21
156.778739
0
LINE
8
annotation
62
1
39
211
10
290.766216
20
156.778739
11
290.821773
21
156.737616
0
LINE
8
annotation
62
1
39
211
10
290.821773
20
156.737616
11
290.880068
21
156.700948
0
LINE
8
annotation
62
1
39
211
10
290.880068
20
156.700948
11
290.940817
21
156.669025
0
LINE
8
annotation
62
1
39
211
10
290.940817
20
156.669025
11
290.940817
21
156.669025
0
LINE
8
annotation
62
1
39
211
10
290.940817
20
156.669025
11
291.099508
21
156.608894
0
LINE
8
annotation
62
1
39
211
10
291.099508
20
156.608894
11
291.261923
21
156.578654
0
LINE
8
annotation
62
1
39
211
10
291.261923
20
156.578654
11
291.424453
21
156.577106
0
LINE
8
annotation
62
1
39
211
10
291.424453
20
156.577106
11
291.583489
21
156.603051
0
LINE
8
annotation
62
1
39
211
10
291.583489
20
156.603051
11
291.735425
21
156.655289
0
LINE
8
annotation
62
1
39
211
10
291.735425
20
156.655289
11
291.876651
21
156.732622
0
LINE
8
annotation
62
1
39
211
10
291.876651
20
156.732622
11
292.003559
21
156.833849
0
LINE
8
annotation
62
1
39
211
10
292.003559
20
156.833849
11
292.112540
21
156.957772
0
LINE
8
annotation
62
1
39
211
10
292.112540
20
156.957772
11
292.199987
21
157.103192
0
LINE
8
annotation
62
1
39
211
10
292.199987
20
157.103192
11
292.199987
21
157.103192
0
LINE
8
annotation
62
1
39
211
10
292.199987
20
157.103192
11
292.459663
21
157.713847
0
LINE
8
annotation
62
1
39
211
10
292.459663
20
157.713847
11
292.654419
21
158.342212
0
LINE
8
annotation
62
1
39
211
10
292.654419
20
158.342212
11
292.784257
21
158.983276
0
LINE
8
annotation
62
1
39
211
10
292.784257
20
158.983276
11
292.849176
21
159.632029
0
LINE
8
annotation
62
1
39
211
10
292.849176
20
159.632029
11
292.849176
21
160.283460
0
LINE
8
annotation
62
1
39
211
10
292.849176
20
160.283460
11
292.784257
21
160.932559
0
LINE
8
annotation
62
1
39
211
10
292.784257
20
160.932559
11
292.654419
21
161.574316
0
LINE
8
annotation
62
1
39
211
10
292.654419
20
161.574316
11
292.459663
21
162.203719
0
LINE
8
annotation
62
1
39
211
10
292.459663
20
162.203719
11
292.199987
21
162.815759
0
LINE
8
annotation
62
1
39
211
10
292.199987
20
162.815759
11
292.199987
21
162.815759
0
LINE
8
annotation
62
1
39
211
10
292.199987
20
162.815759
11
292.166924
21
162.877391
0
LINE
8
annotation
62
1
39
211
10
292.166924
20
162.877391
11
292.129582
21
162.936139
0
LINE
8
annotation
62
1
39
211
10
292.129582
20
162.936139
11
292.088117
21
162.991824
0
LINE
8
annotation
62
1
39
211
10
292.088117
20
162.991824
11
292.042688
21
163.044267
0
LINE
8
annotation
62
1
39
211
10
292.042688
20
163.044267
11
291.993450
21
163.093291
0
LINE
8
annotation
62
1
39
211
10
291.993450
20
163.093291
11
291.940563
21
163.138717
0
LINE
8
annotation
62
1
39
211
10
291.940563
20
163.138717
11
291.884182
21
163.180367
0
LINE
8
annotation
62
1
39
211
10
291.884182
20
163.180367
11
291.824466
21
163.218063
0
LINE
8
annotation
62
1
39
211
10
291.824466
20
163.218063
11
291.761572
21
163.251625
0
LINE
8
annotation
62
1
39
211
10
297.889161
20
149.094853
11
300.297530
21
142.477914
0
LINE
8
annotation
62
1
39
211
10
300.297530
20
142.477914
11
301.232998
21
144.484770
0
LINE
8
annotation
62
1
39
211
10
293.936778
20
147.656304
11
296.345147
21
141.039364
0
LINE
8
annotation
62
1
39
211
10
296.345147
20
141.039364
11
297.280615
21
143.046221
0
LINE
8
annotation
62
1
39
211
10
302.863886
20
134.868457
11
307.209419
21
129.689653
0
LINE
8
annotation
62
1
39
211
10
307.209419
20
129.689653
11
307.394393
21
131.807360
0
LINE
8
annotation
62
1
39
211
10
298.621540
20
131.308778
11
300.921571
21
133.238733
0
LINE
8
annotation
62
1
39
211
10
300.921571
20
133.238733
11
301.667218
21
128.033925
0
LINE
8
annotation
62
1
39
211
10
301.667218
20
128.033925
11
301.667218
21
128.033925
0
LINE
8
annotation
62
1
39
211
10
301.667218
20
128.033925
11
301.667315
21
128.028649
0
LINE
8
annotation
62
1
39
211
10
301.667315
20
128.028649
11
301.667539
21
128.023434
0
LINE
8
annotation
62
1
39
211
10
301.667539
20
128.023434
11
301.667897
21
128.018240
0
LINE
8
annotation
62
1
39
211
10
301.667897
20
128.018240
11
301.668393
21
128.013025
0
LINE
8
annotation
62
1
39
211
10
301.668393
20
128.013025
11
301.669036
21
128.007751
0
LINE
8
annotation
62
1
39
211
10
301.669036
20
128.007751
11
301.669830
21
128.002377
0
LINE
8
annotation
62
1
39
211
10
301.669830
20
128.002377
11
301.670783
21
127.996863
0
LINE
8
annotation
62
1
39
211
10
301.670783
20
127.996863
11
301.671902
21
127.991169
0
LINE
8
annotation
62
1
39
211
10
301.671902
20
127.991169
11
301.673191
21
127.985254
0
LINE
8
annotation
62
1
39
211
10
301.673191
20
127.985254
11
301.673191
21
127.985254
0
LINE
8
annotation
62
1
39
211
10
301.673191
20
127.985254
11
301.743536
21
127.723206
0
LINE
8
annotation
62
1
39
211
10
301.743536
20
127.723206
11
301.856154
21
127.484883
0
LINE
8
annotation
62
1
39
211
10
301.856154
20
127.484883
11
302.006087
21
127.273644
0
LINE
8
annotation
62
1
39
211
10
302.006087
20
127.273644
11
302.188375
21
127.092846
0
LINE
8
annotation
62
1
39
211
10
302.188375
20
127.092846
11
302.398059
21
126.945851
0
LINE
8
annotation
62
1
39
211
10
302.398059
20
126.945851
11
302.630179
21
126.836015
0
LINE
8
annotation
62
1
39
211
10
302.630179
20
126.836015
11
302.879775
21
126.766699
0
LINE
8
annotation
62
1
39
211
10
302.879775
20
126.766699
11
303.141890
21
126.741262
0
LINE
8
annotation
62
1
39
211
10
303.141890
20
126.741262
11
303.411562
21
126.763061
0
LINE
8
annotation
62
1
39
211
10
303.411562
20
126.763061
11
303.411562
21
126.763061
0
LINE
8
annotation
62
1
39
211
10
303.411562
20
126.763061
11
303.673087
21
126.835092
0
LINE
8
annotation
62
1
39
211
10
303.673087
20
126.835092
11
303.911047
21
126.948752
0
LINE
8
annotation
62
1
39
211
10
303.911047
20
126.948752
11
304.122021
21
127.099234
0
LINE
8
annotation
62
1
39
211
10
304.122021
20
127.099234
11
304.302590
21
127.281734
0
LINE
8
annotation
62
1
39
211
10
304.302590
20
127.281734
11
304.449335
21
127.491446
0
LINE
8
annotation
62
1
39
211
10
304.449335
20
127.491446
11
304.558834
21
127.723564
0
LINE
8
annotation
62
1
39
211
10
304.558834
20
127.723564
11
304.627669
21
127.973283
0
LINE
8
annotation
62
1
39
211
10
304.627669
20
127.973283
11
304.652420
21
128.235798
0
LINE
8
annotation
62
1
39
211
10
304.652420
20
128.235798
11
304.629667
21
128.506303
0
LINE
8
annotation
62
1
39
211
10
304.629667
20
128.506303
11
304.537602
21
128.922719
0
LINE
8
annotation
62
1
39
211
10
308.497791
20
115.584416
11
314.353360
21
112.203701
0
LINE
8
annotation
62
1
39
211
10
314.353360
20
112.203701
11
313.802801
21
114.257257
0
LINE
8
annotation
62
1
39
211
10
307.230313
20
113.388655
11
306.479585
21
112.088356
0
LINE
8
annotation
62
1
39
211
10
306.479585
20
112.088356
11
306.479585
21
112.088356
0
LINE
8
annotation
62
1
39
211
10
306.479585
20
112.088356
11
306.365543
21
111.842382
0
LINE
8
annotation
62
1
39
211
10
306.365543
20
111.842382
11
306.298957
21
111.587418
0
LINE
8
annotation
62
1
39
211
10
306.298957
20
111.587418
11
306.278226
21
111.329267
0
LINE
8
annotation
62
1
39
211
10
306.278226
20
111.329267
11
306.301754
21
111.073731
0
LINE
8
annotation
62
1
39
211
10
306.301754
20
111.073731
11
306.367941
21
110.826614
0
LINE
8
annotation
62
1
39
211
10
306.367941
20
110.826614
11
306.475189
21
110.593719
0
LINE
8
annotation
62
1
39
211
10
306.475189
20
110.593719
11
306.621901
21
110.380848
0
LINE
8
annotation
62
1
39
211
10
306.621901
20
110.380848
11
306.806477
21
110.193803
0
LINE
8
annotation
62
1
39
211
10
306.806477
20
110.193803
11
307.027320
21
110.038389
0
LINE
8
annotation
62
1
39
211
10
307.027320
20
110.038389
11
307.678387
21
109.662495
0
LINE
8
annotation
62
1
39
211
10
307.678387
20
109.662495
11
307.678387
21
109.662495
0
LINE
8
annotation
62
1
39
211
10
307.678387
20
109.662495
11
307.923305
21
109.549002
0
LINE
8
annotation
62
1
39
211
10
307.923305
20
109.549002
11
308.177527
21
109.482706
0
LINE
8
annotation
62
1
39
211
10
308.177527
20
109.482706
11
308.435219
21
109.462095
0
LINE
8
annotation
62
1
39
211
10
308.435219
20
109.462095
11
308.690549
21
109.485656
0
LINE
8
annotation
62
1
39
211
10
308.690549
20
109.485656
11
308.937682
21
109.551877
0
LINE
8
annotation
62
1
39
211
10
308.937682
20
109.551877
11
309.170785
21
109.659247
0
LINE
8
annotation
62
1
39
211
10
309.170785
20
109.659247
11
309.384025
21
109.806253
0
LINE
8
annotation
62
1
39
211
10
309.384025
20
109.806253
11
309.571567
21
109.991383
0
LINE
8
annotation
62
1
39
211
10
309.571567
20
109.991383
11
309.727578
21
110.213126
0
LINE
8
annotation
62
1
39
211
10
309.727578
20
110.213126
11
310.103472
21
110.864193
0
LINE
8
annotation
62
1
39
211
10
310.103472
20
110.864193
11
309.727578
21
110.213126
0
LINE
8
annotation
62
1
39
211
10
309.727578
20
110.213126
11
309.727578
21
110.213126
0
LINE
8
annotation
62
1
39
211
10
309.727578
20
110.213126
11
309.613554
21
109.967142
0
LINE
8
annotation
62
1
39
211
10
309.613554
20
109.967142
11
309.547033
21
109.712140
0
LINE
8
annotation
62
1
39
211
10
309.547033
20
109.712140
11
309.526437
21
109.453911
0
LINE
8
annotation
62
1
39
211
10
309.526437
20
109.453911
11
309.550190
21
109.198245
0
LINE
8
annotation
62
1
39
211
10
309.550190
20
109.198245
11
309.616715
21
108.950934
0
LINE
8
annotation
62
1
39
211
10
309.616715
20
108.950934
11
309.724434
21
108.717766
0
LINE
8
annotation
62
1
39
211
10
309.724434
20
108.717766
11
309.871770
21
108.504535
0
LINE
8
annotation
62
1
39
211
10
309.871770
20
108.504535
11
310.057146
21
108.317028
0
LINE
8
annotation
62
1
39
211
10
310.057146
20
108.317028
11
310.278985
21
108.161039
0
LINE
8
annotation
62
1
39
211
10
310.278985
20
108.161039
11
310.278985
21
108.161039
0
LINE
8
annotation
62
1
39
211
10
310.278985
20
108.161039
11
310.523903
21
108.047546
0
LINE
8
annotation
62
1
39
211
10
310.523903
20
108.047546
11
310.778125
21
107.981250
0
LINE
8
annotation
62
1
39
211
10
310.778125
20
107.981250
11
311.035817
21
107.960639
0
LINE
8
annotation
62
1
39
211
10
311.035817
20
107.960639
11
311.291147
21
107.984200
0
LINE
8
annotation
62
1
39
211
10
311.291147
20
107.984200
11
311.538280
21
108.050421
0
LINE
8
annotation
62
1
39
211
10
311.538280
20
108.050421
11
311.771384
21
108.157791
0
LINE
8
annotation
62
1
39
211
10
311.771384
20
108.157791
11
311.984623
21
108.304797
0
LINE
8
annotation
62
1
39
211
10
311.984623
20
108.304797
11
312.172165
21
108.489927
0
LINE
8
annotation
62
1
39
211
10
312.172165
20
108.489927
11
312.328176
21
108.711670
0
LINE
8
annotation
62
1
39
211
10
312.328176
20
108.711670
11
313.078904
21
110.011969
0
LINE
8
annotation
62
1
39
211
10
322.358209
20
88.733174
11
328.374913
21
87.672267
0
LINE
8
annotation
62
1
39
211
10
328.374913
20
87.672267
11
327.272799
21
89.245777
0
LINE
8
annotation
62
1
39
211
10
322.708925
20
82.900478
11
323.297993
21
86.241246
0
LINE
8
annotation
62
1
39
211
10
323.297993
20
86.241246
11
327.741851
21
84.081998
0
LINE
8
annotation
62
1
39
211
10
321.547909
20
84.137731
11
324.220071
21
83.666557
0
LINE
8
annotation
62
1
39
211
10
346.940041
20
89.887001
11
353.598748
21
91.061111
0
LINE
8
annotation
62
1
39
211
10
353.598748
20
91.061111
11
351.856995
21
92.280333
0
LINE
8
annotation
62
1
39
211
10
347.380295
20
87.390195
11
347.641020
21
85.911549
0
LINE
8
annotation
62
1
39
211
10
347.641020
20
85.911549
11
347.641020
21
85.911549
0
LINE
8
annotation
62
1
39
211
10
347.641020
20
85.911549
11
347.711677
21
85.650368
0
LINE
8
annotation
62
1
39
211
10
347.711677
20
85.650368
11
347.824541
21
85.412552
0
LINE
8
annotation
62
1
39
211
10
347.824541
20
85.412552
11
347.974680
21
85.201575
0
LINE
8
annotation
62
1
39
211
10
347.974680
20
85.201575
11
348.157161
21
85.020911
0
LINE
8
annotation
62
1
39
211
10
348.157161
20
85.020911
11
348.367051
21
84.874037
0
LINE
8
annotation
62
1
39
211
10
348.367051
20
84.874037
11
348.599419
21
84.764426
0
LINE
8
annotation
62
1
39
211
10
348.599419
20
84.764426
11
348.849332
21
84.695553
0
LINE
8
annotation
62
1
39
211
10
348.849332
20
84.695553
11
349.111857
21
84.670894
0
LINE
8
annotation
62
1
39
211
10
349.111857
20
84.670894
11
349.382061
21
84.693923
0
LINE
8
annotation
62
1
39
211
10
349.382061
20
84.693923
11
350.118670
21
84.823807
0
LINE
8
annotation
62
1
39
211
10
350.118670
20
84.823807
11
350.118670
21
84.823807
0
LINE
8
annotation
62
1
39
211
10
350.118670
20
84.823807
11
350.380329
21
84.894546
0
LINE
8
annotation
62
1
39
211
10
350.380329
20
84.894546
11
350.618249
21
85.007411
0
LINE
8
annotation
62
1
39
211
10
350.618249
20
85.007411
11
350.829042
21
85.157473
0
LINE
8
annotation
62
1
39
211
10
350.829042
20
85.157473
11
351.009322
21
85.339798
0
LINE
8
annotation
62
1
39
211
10
351.009322
20
85.339798
11
351.155703
21
85.549458
0
LINE
8
annotation
62
1
39
211
10
351.155703
20
85.549458
11
351.264798
21
85.781520
0
LINE
8
annotation
62
1
39
211
10
351.264798
20
85.781520
11
351.333221
21
86.031053
0
LINE
8
annotation
62
1
39
211
10
351.333221
20
86.031053
11
351.357584
21
86.293127
0
LINE
8
annotation
62
1
39
211
10
351.357584
20
86.293127
11
351.334503
21
86.562810
0
LINE
8
annotation
62
1
39
211
10
351.334503
20
86.562810
11
351.073777
21
88.041455
0
LINE
8
annotation
62
1
39
211
10
351.073777
20
88.041455
11
354.039003
21
88.564304
0
LINE
8
annotation
62
1
39
211
10
354.039003
20
88.564304
11
354.560453
21
85.607013
0
LINE
8
annotation
62
1
39
211
10
369.706049
20
98.307536
11
375.561617
21
101.688250
0
LINE
8
annotation
62
1
39
211
10
375.561617
20
101.688250
11
373.507906
21
102.238230
0
LINE
8
annotation
62
1
39
211
10
377.956961
20
97.539393
11
377.956961
21
97.539393
0
LINE
8
annotation
62
1
39
211
10
377.956961
20
97.539393
11
377.602231
21
97.831259
0
LINE
8
annotation
62
1
39
211
10
377.602231
20
97.831259
11
377.216697
21
98.064432
0
LINE
8
annotation
62
1
39
211
10
377.216697
20
98.064432
11
376.807101
21
98.238124
0
LINE
8
annotation
62
1
39
211
10
376.807101
20
98.238124
11
376.380184
21
98.351547
0
LINE
8
annotation
62
1
39
211
10
376.380184
20
98.351547
11
375.942687
21
98.403917
0
LINE
8
annotation
62
1
39
211
10
375.942687
20
98.403917
11
375.501349
21
98.394444
0
LINE
8
annotation
62
1
39
211
10
375.501349
20
98.394444
11
375.062913
21
98.322344
0
LINE
8
annotation
62
1
39
211
10
375.062913
20
98.322344
11
374.634117
21
98.186829
0
LINE
8
annotation
62
1
39
211
10
374.634117
20
98.186829
11
374.221704
21
97.987111
0
LINE
8
annotation
62
1
39
211
10
374.221704
20
97.987111
11
372.275478
21
96.863457
0
LINE
8
annotation
62
1
39
211
10
372.275478
20
96.863457
11
372.275478
21
96.863457
0
LINE
8
annotation
62
1
39
211
10
372.275478
20
96.863457
11
372.053687
21
96.707414
0
LINE
8
annotation
62
1
39
211
10
372.053687
20
96.707414
11
371.868432
21
96.519777
0
LINE
8
annotation
62
1
39
211
10
371.868432
20
96.519777
11
371.721258
21
96.306377
0
LINE
8
annotation
62
1
39
211
10
371.721258
20
96.306377
11
371.613710
21
96.073046
0
LINE
8
annotation
62
1
39
211
10
371.613710
20
96.073046
11
371.547334
21
95.825619
0
LINE
8
annotation
62
1
39
211
10
371.547334
20
95.825619
11
371.523673
21
95.569926
0
LINE
8
annotation
62
1
39
211
10
371.523673
20
95.569926
11
371.544274
21
95.311801
0
LINE
8
annotation
62
1
39
211
10
371.544274
20
95.311801
11
371.610681
21
95.057075
0
LINE
8
annotation
62
1
39
211
10
371.610681
20
95.057075
11
371.724438
21
94.811582
0
LINE
8
annotation
62
1
39
211
10
371.724438
20
94.811582
11
371.724438
21
94.811582
0
LINE
8
annotation
62
1
39
211
10
371.724438
20
94.811582
11
371.880442
21
94.589835
0
LINE
8
annotation
62
1
39
211
10
371.880442
20
94.589835
11
372.067986
21
94.404706
0
LINE
8
annotation
62
1
39
211
10
372.067986
20
94.404706
11
372.281272
21
94.257727
0
LINE
8
annotation
62
1
39
211
10
372.281272
20
94.257727
11
372.514504
21
94.150431
0
LINE
8
annotation
62
1
39
211
10
372.514504
20
94.150431
11
372.761883
21
94.084352
0
LINE
8
annotation
62
1
39
211
10
372.761883
20
94.084352
11
373.017614
21
94.061022
0
LINE
8
annotation
62
1
39
211
10
373.017614
20
94.061022
11
373.275897
21
94.081975
0
LINE
8
annotation
62
1
39
211
10
373.275897
20
94.081975
11
373.530936
21
94.148743
0
LINE
8
annotation
62
1
39
211
10
373.530936
20
94.148743
11
373.776934
21
94.262859
0
LINE
8
annotation
62
1
39
211
10
373.776934
20
94.262859
11
374.424697
21
94.636845
0
LINE
8
annotation
62
1
39
211
10
374.424697
20
94.636845
11
374.424697
21
94.636845
0
LINE
8
annotation
62
1
39
211
10
374.424697
20
94.636845
11
374.646410
21
94.792762
0
LINE
8
annotation
62
1
39
211
10
374.646410
20
94.792762
11
374.831449
21
94.980073
0
LINE
8
annotation
62
1
39
211
10
374.831449
20
94.980073
11
374.978297
21
95.193023
0
LINE
8
annotation
62
1
39
211
10
374.978297
20
95.193023
11
375.085436
21
95.425856
0
LINE
8
annotation
62
1
39
211
10
375.085436
20
95.425856
11
375.151351
21
95.672816
0
LINE
8
annotation
62
1
39
211
10
375.151351
20
95.672816
11
375.174525
21
95.928147
0
LINE
8
annotation
62
1
39
211
10
375.174525
20
95.928147
11
375.153441
21
96.186094
0
LINE
8
annotation
62
1
39
211
10
375.153441
20
96.186094
11
375.086582
21
96.440901
0
LINE
8
annotation
62
1
39
211
10
375.086582
20
96.440901
11
374.972432
21
96.686812
0
LINE
8
annotation
62
1
39
211
10
374.972432
20
96.686812
11
374.221704
21
97.987111
0
LINE
8
annotation
62
1
39
211
10
370.147738
20
95.852151
11
371.838095
21
92.924366
0
LINE
8
annotation
62
1
39
211
10
388.239908
20
113.402069
11
392.583716
21
118.578818
0
LINE
8
annotation
62
1
39
211
10
392.583716
20
118.578818
11
390.466902
21
118.393320
0
LINE
8
annotation
62
1
39
211
10
391.332047
20
110.807457
11
396.826713
21
115.018522
0
LINE
8
annotation
62
1
39
211
10
396.826713
20
115.018522
11
394.524673
21
116.950163
0
LINE
8
annotation
62
1
39
211
10
394.892348
20
112.713235
11
393.741490
21
113.678920
0
LINE
8
annotation
62
1
39
211
10
398.028094
20
134.514396
11
400.340638
21
140.868060
0
LINE
8
annotation
62
1
39
211
10
400.340638
20
140.868060
11
398.413884
21
139.969269
0
LINE
8
annotation
62
1
39
211
10
400.923249
20
135.055980
11
400.923249
21
135.055980
0
LINE
8
annotation
62
1
39
211
10
400.923249
20
135.055980
11
400.853694
21
134.794002
0
LINE
8
annotation
62
1
39
211
10
400.853694
20
134.794002
11
400.832512
21
134.531513
0
LINE
8
annotation
62
1
39
211
10
400.832512
20
134.531513
11
400.857115
21
134.273914
0
LINE
8
annotation
62
1
39
211
10
400.857115
20
134.273914
11
400.924916
21
134.026609
0
LINE
8
annotation
62
1
39
211
10
400.924916
20
134.026609
11
401.033329
21
133.794997
0
LINE
8
annotation
62
1
39
211
10
401.033329
20
133.794997
11
401.179766
21
133.584483
0
LINE
8
annotation
62
1
39
211
10
401.179766
20
133.584483
11
401.361640
21
133.400466
0
LINE
8
annotation
62
1
39
211
10
401.361640
20
133.400466
11
401.576365
21
133.248350
0
LINE
8
annotation
62
1
39
211
10
401.576365
20
133.248350
11
401.821353
21
133.133536
0
LINE
8
annotation
62
1
39
211
10
401.821353
20
133.133536
11
401.821353
21
133.133536
0
LINE
8
annotation
62
1
39
211
10
401.821353
20
133.133536
11
402.082826
21
133.064014
0
LINE
8
annotation
62
1
39
211
10
402.082826
20
133.064014
11
402.345093
21
133.042519
0
LINE
8
annotation
62
1
39
211
10
402.345093
20
133.042519
11
402.602700
21
133.066577
0
LINE
8
annotation
62
1
39
211
10
402.602700
20
133.066577
11
402.850194
21
133.133712
0
LINE
8
annotation
62
1
39
211
10
402.850194
20
133.133712
11
403.082120
21
133.241451
0
LINE
8
annotation
62
1
39
211
10
403.082120
20
133.241451
11
403.293024
21
133.387316
0
LINE
8
annotation
62
1
39
211
10
403.293024
20
133.387316
11
403.477452
21
133.568833
0
LINE
8
annotation
62
1
39
211
10
403.477452
20
133.568833
11
403.629950
21
133.783527
0
LINE
8
annotation
62
1
39
211
10
403.629950
20
133.783527
11
403.745064
21
134.028923
0
LINE
8
annotation
62
1
39
211
10
403.745064
20
134.028923
11
404.000885
21
134.731787
0
LINE
8
annotation
62
1
39
211
10
404.000885
20
134.731787
11
404.000885
21
134.731787
0
LINE
8
annotation
62
1
39
211
10
404.000885
20
134.731787
11
404.070498
21
134.993883
0
LINE
8
annotation
62
1
39
211
10
404.070498
20
134.993883
11
404.091833
21
135.256689
0
LINE
8
annotation
62
1
39
211
10
404.091833
20
135.256689
11
404.067447
21
135.514749
0
LINE
8
annotation
62
1
39
211
10
404.067447
20
135.514749
11
403.999894
21
135.762605
0
LINE
8
annotation
62
1
39
211
10
403.999894
20
135.762605
11
403.891730
21
135.994800
0
LINE
8
annotation
62
1
39
211
10
403.891730
20
135.994800
11
403.745512
21
136.205876
0
LINE
8
annotation
62
1
39
211
10
403.745512
20
136.205876
11
403.563795
21
136.390375
0
LINE
8
annotation
62
1
39
211
10
403.563795
20
136.390375
11
403.349134
21
136.542841
0
LINE
8
annotation
62
1
39
211
10
403.349134
20
136.542841
11
403.104086
21
136.657816
0
LINE
8
annotation
62
1
39
211
10
403.104086
20
136.657816
11
403.104086
21
136.657816
0
LINE
8
annotation
62
1
39
211
10
403.104086
20
136.657816
11
402.842459
21
136.727241
0
LINE
8
annotation
62
1
39
211
10
402.842459
20
136.727241
11
402.580004
21
136.748394
0
LINE
8
annotation
62
1
39
211
10
402.580004
20
136.748394
11
402.322191
21
136.723822
0
LINE
8
annotation
62
1
39
211
10
402.322191
20
136.723822
11
402.074489
21
136.656073
0
LINE
8
annotation
62
1
39
211
10
402.074489
20
136.656073
11
401.842368
21
136.547695
0
LINE
8
annotation
62
1
39
211
10
401.842368
20
136.547695
11
401.631296
21
136.401235
0
LINE
8
annotation
62
1
39
211
10
401.631296
20
136.401235
11
401.446743
21
136.219242
0
LINE
8
annotation
62
1
39
211
10
401.446743
20
136.219242
11
401.294178
21
136.004262
0
LINE
8
annotation
62
1
39
211
10
401.294178
20
136.004262
11
401.179071
21
135.758843
0
LINE
8
annotation
62
1
39
211
10
401.179071
20
135.758843
11
400.923249
21
135.055980
0
LINE
8
annotation
62
1
39
211
10
405.029247
20
137.557187
11
405.029247
21
137.557187
0
LINE
8
annotation
62
1
39
211
10
405.029247
20
137.557187
11
405.098433
21
137.818111
0
LINE
8
annotation
62
1
39
211
10
405.098433
20
137.818111
11
405.119445
21
138.080030
0
LINE
8
annotation
62
1
39
211
10
405.119445
20
138.080030
11
405.094825
21
138.337449
0
LINE
8
annotation
62
1
39
211
10
405.094825
20
138.337449
11
405.027114
21
138.584871
0
LINE
8
annotation
62
1
39
211
10
405.027114
20
138.584871
11
404.918854
21
138.816798
0
LINE
8
annotation
62
1
39
211
10
404.918854
20
138.816798
11
404.772585
21
139.027734
0
LINE
8
annotation
62
1
39
211
10
404.772585
20
139.027734
11
404.590849
21
139.212183
0
LINE
8
annotation
62
1
39
211
10
404.590849
20
139.212183
11
404.376188
21
139.364647
0
LINE
8
annotation
62
1
39
211
10
404.376188
20
139.364647
11
404.131143
21
139.479630
0
LINE
8
annotation
62
1
39
211
10
404.131143
20
139.479630
11
404.131143
21
139.479630
0
LINE
8
annotation
62
1
39
211
10
404.131143
20
139.479630
11
403.869517
21
139.549060
0
LINE
8
annotation
62
1
39
211
10
403.869517
20
139.549060
11
403.607075
21
139.570247
0
LINE
8
annotation
62
1
39
211
10
403.607075
20
139.570247
11
403.349296
21
139.545769
0
LINE
8
annotation
62
1
39
211
10
403.349296
20
139.545769
11
403.101660
21
139.478202
0
LINE
8
annotation
62
1
39
211
10
403.101660
20
139.478202
11
402.869648
21
139.370124
0
LINE
8
annotation
62
1
39
211
10
402.869648
20
139.370124
11
402.658739
21
139.224112
0
LINE
8
annotation
62
1
39
211
10
402.658739
20
139.224112
11
402.474413
21
139.042743
0
LINE
8
annotation
62
1
39
211
10
402.474413
20
139.042743
11
402.322151
21
138.828595
0
LINE
8
annotation
62
1
39
211
10
402.322151
20
138.828595
11
402.207432
21
138.584244
0
LINE
8
annotation
62
1
39
211
10
402.207432
20
138.584244
11
402.207432
21
138.584244
0
LINE
8
annotation
62
1
39
211
10
402.207432
20
138.584244
11
402.137828
21
138.322129
0
LINE
8
annotation
62
1
39
211
10
402.137828
20
138.322129
11
402.116512
21
138.059274
0
LINE
8
annotation
62
1
39
211
10
402.116512
20
138.059274
11
402.140922
21
137.801146
0
LINE
8
annotation
62
1
39
211
10
402.140922
20
137.801146
11
402.208494
21
137.553211
0
LINE
8
annotation
62
1
39
211
10
402.208494
20
137.553211
11
402.316666
21
137.320939
0
LINE
8
annotation
62
1
39
211
10
402.316666
20
137.320939
11
402.462875
21
137.109795
0
LINE
8
annotation
62
1
39
211
10
402.462875
20
137.109795
11
402.644556
21
136.925249
0
LINE
8
annotation
62
1
39
211
10
402.644556
20
136.925249
11
402.859148
21
136.772766
0
LINE
8
annotation
62
1
39
211
10
402.859148
20
136.772766
11
403.104086
21
136.657816
0
LINE
8
annotation
62
1
39
211
10
403.104086
20
136.657816
11
403.104086
21
136.657816
0
LINE
8
annotation
62
1
39
211
10
403.104086
20
136.657816
11
403.365609
21
136.588430
0
LINE
8
annotation
62
1
39
211
10
403.365609
20
136.588430
11
403.628009
21
136.567301
0
LINE
8
annotation
62
1
39
211
10
403.628009
20
136.567301
11
403.885809
21
136.591889
0
LINE
8
annotation
62
1
39
211
10
403.885809
20
136.591889
11
404.133532
21
136.659654
0
LINE
8
annotation
62
1
39
211
10
404.133532
20
136.659654
11
404.365698
21
136.768053
0
LINE
8
annotation
62
1
39
211
10
404.365698
20
136.768053
11
404.576831
21
136.914547
0
LINE
8
annotation
62
1
39
211
10
404.576831
20
136.914547
11
404.761452
21
137.096595
0
LINE
8
annotation
62
1
39
211
10
404.761452
20
137.096595
11
404.914083
21
137.311655
0
LINE
8
annotation
62
1
39
211
10
404.914083
20
137.311655
11
405.029247
21
137.557187
0
LINE
8
annotation
62
1
39
211
10
330.729231
20
124.451506
11
317.194253
21
124.451506
0
LINE
8
annotation
62
1
39
211
10
317.194253
20
124.451506
11
330.729231
21
148.827919
0
LINE
8
annotation
62
1
39
211
10
330.729231
20
148.827919
11
317.194253
21
148.827919
0
LINE
8
annotation
62
1
39
211
10
353.201284
20
136.639712
11
339.872678
21
136.639712
0
LINE
8
annotation
62
1
39
211
10
367.760099
20
124.451506
11
373.179287
21
148.827919
0
LINE
8
annotation
62
1
39
211
10
373.179287
20
148.827919
11
362.339381
21
148.827919
0
LINE
8
annotation
62
1
39
211
10
373.179287
20
137.972726
11
367.760099
21
137.972726
0
LINE
8
frame
62
5
39
2
10
0.000000
20
0.000000
11
480.000000
21
0.000000
0
LINE
8
frame
62
5
39
2
10
480.000000
20
0.000000
11
480.000000
21
420.000000
0
LINE
8
frame
62
5
39
2
10
480.000000
20
420.000000
11
0.000000
21
420.000000
0
LINE
8
frame
62
5
39
2
10
0.000000
20
420.000000
11
0.000000
21
0.000000
0
ENDSEC
0
EOF
