0
SECTION
2
HEADER
9
$ACADVER
1
AC1009
0
ENDSEC
0
SECTION
2
TABLES
0
TABLE
2
VPORT
70
1
0
VPORT
2
ACTIVE
70
0
10
0.0
20
0.0
11
0.0
21
0.0
12
0.0
22
0.0
13
0.0
23
0.0
14
0.0
24
0.0
15
0.0
25
0.0
16
0.0
26
0.0
36
0.0
17
0.0
27
0.0
37
0.0
40
0.0
41
0.0
42
0.0
43
0.0
44
0.0
50
0.0
51
0.0
71
0
72
1000
73
1
74
3
75
0
76
0
77
0
78
0
0
ENDTAB
0
ENDSEC
0
SECTION
2
ENTITIES
0
LINE
8
boundary
62
5
39
2
10
206.761029
20
13.631599
11
295.196877
21
92.957438
0
LINE
8
boundary
62
5
39
2
10
295.196877
20
92.957438
11
302.189438
21
99.229677
0
LINE
8
boundary
62
5
39
2
10
302.189438
20
99.229677
11
305.556982
21
102.250323
0
LINE
8
boundary
62
5
39
2
10
305.556982
20
102.250323
11
308.992225
21
105.331693
0
LINE
8
boundary
62
5
39
2
10
308.992225
20
105.331693
11
310.581352
21
106.757120
0
LINE
8
boundary
62
5
39
2
10
310.581352
20
106.757120
11
309.161049
21
108.222567
0
LINE
8
boundary
62
5
39
2
10
309.161049
20
108.222567
11
303.031106
21
114.478052
0
LINE
8
boundary
62
5
39
2
10
303.031106
20
114.478052
11
300.285196
21
116.665878
0
LINE
8
boundary
62
5
39
2
10
300.285196
20
116.665878
11
298.019760
21
118.174837
0
LINE
8
boundary
62
5
39
2
10
298.019760
20
118.174837
11
282.609557
21
128.481769
0
LINE
8
boundary
62
5
39
2
10
282.609557
20
128.481769
11
276.455311
21
131.934142
0
LINE
8
boundary
62
5
39
2
10
276.455311
20
131.934142
11
266.672915
21
137.224198
0
LINE
8
boundary
62
5
39
2
10
266.672915
20
137.224198
11
264.811316
21
138.139774
0
LINE
8
boundary
62
5
39
2
10
264.811316
20
138.139774
11
258.693942
21
140.974957
0
LINE
8
boundary
62
5
39
2
10
258.693942
20
140.974957
11
253.177682
21
142.758611
0
LINE
8
boundary
62
5
39
2
10
253.177682
20
142.758611
11
251.899399
21
143.001995
0
LINE
8
boundary
62
5
39
2
10
251.899399
20
143.001995
11
241.145620
21
146.010286
0
LINE
8
boundary
62
5
39
2
10
241.145620
20
146.010286
11
237.911831
21
146.321858
0
LINE
8
boundary
62
5
39
2
10
237.911831
20
146.321858
11
229.886139
21
147.501924
0
LINE
8
boundary
62
5
39
2
10
229.886139
20
147.501924
11
225.007593
21
147.838816
0
LINE
8
boundary
62
5
39
2
10
225.007593
20
147.838816
11
218.926083
21
148.401085
0
LINE
8
boundary
62
5
39
2
10
218.926083
20
148.401085
11
212.792782
21
148.394560
0
LINE
8
boundary
62
5
39
2
10
212.792782
20
148.394560
11
207.387308
21
149.277687
0
LINE
8
boundary
62
5
39
2
10
207.387308
20
149.277687
11
199.059430
21
151.625619
0
LINE
8
boundary
62
5
39
2
10
199.059430
20
151.625619
11
195.894234
21
152.541180
0
LINE
8
boundary
62
5
39
2
10
195.894234
20
152.541180
11
186.554440
21
157.608088
0
LINE
8
boundary
62
5
39
2
10
186.554440
20
157.608088
11
185.708598
21
158.183399
0
LINE
8
boundary
62
5
39
2
10
185.708598
20
158.183399
11
181.432663
21
161.457124
0
LINE
8
boundary
62
5
39
2
10
181.432663
20
161.457124
11
175.557632
21
165.461187
0
LINE
8
boundary
62
5
39
2
10
175.557632
20
165.461187
11
174.933958
21
166.435590
0
LINE
8
boundary
62
5
39
2
10
174.933958
20
166.435590
11
174.060833
21
168.022945
0
LINE
8
boundary
62
5
39
2
10
174.060833
20
168.022945
11
165.224497
21
181.403294
0
LINE
8
boundary
62
5
39
2
10
165.224497
20
181.403294
11
156.387566
21
193.926556
0
LINE
8
boundary
62
5
39
2
10
156.387566
20
193.926556
11
153.681794
21
198.855828
0
LINE
8
boundary
62
5
39
2
10
153.681794
20
198.855828
11
145.829000
21
209.574888
0
LINE
8
boundary
62
5
39
2
10
145.829000
20
209.574888
11
140.591675
21
217.262780
0
LINE
8
boundary
62
5
39
2
10
140.591675
20
217.262780
11
131.086198
21
229.922036
0
LINE
8
boundary
62
5
39
2
10
131.086198
20
229.922036
11
125.893199
21
236.385599
0
LINE
8
boundary
62
5
39
2
10
125.893199
20
236.385599
11
122.789144
21
240.257216
0
LINE
8
boundary
62
5
39
2
10
122.789144
20
240.257216
11
111.701757
21
253.981059
0
LINE
8
boundary
62
5
39
2
10
111.701757
20
253.981059
11
111.310802
21
254.426637
0
LINE
8
boundary
62
5
39
2
10
111.310802
20
254.426637
11
100.953875
21
265.460061
0
LINE
8
boundary
62
5
39
2
10
100.953875
20
265.460061
11
98.009806
21
268.434812
0
LINE
8
boundary
62
5
39
2
10
98.009806
20
268.434812
11
90.049621
21
277.170565
0
LINE
8
boundary
62
5
39
2
10
90.049621
20
277.170565
11
84.887295
21
282.771108
0
LINE
8
boundary
62
5
39
2
10
84.887295
20
282.771108
11
79.332428
21
290.247661
0
LINE
8
boundary
62
5
39
2
10
79.332428
20
290.247661
11
72.232116
21
298.921935
0
LINE
8
boundary
62
5
39
2
10
72.232116
20
298.921935
11
68.027552
21
303.421633
0
LINE
8
boundary
62
5
39
2
10
68.027552
20
303.421633
11
57.332173
21
314.706071
0
LINE
8
boundary
62
5
39
2
10
57.332173
20
314.706071
11
54.315369
21
317.674158
0
LINE
8
boundary
62
5
39
2
10
54.315369
20
317.674158
11
38.425230
21
330.480886
0
LINE
8
boundary
62
5
39
2
10
38.425230
20
330.480886
11
25.302808
21
340.937439
0
LINE
8
boundary
62
5
39
2
10
25.302808
20
340.937439
11
20.216421
21
345.203197
0
LINE
8
boundary
62
5
39
2
10
20.216421
20
345.203197
11
11.759641
21
352.991033
0
LINE
8
boundary
62
5
39
2
10
11.759641
20
352.991033
11
6.687500
21
357.126296
0
LINE
8
boundary
62
5
39
2
10
6.687500
20
357.126296
11
6.687500
21
334.312294
0
LINE
8
boundary
62
5
39
2
10
6.687500
20
334.312294
11
11.142814
21
333.872195
0
LINE
8
boundary
62
5
39
2
10
11.142814
20
333.872195
11
21.756771
21
333.872195
0
LINE
8
boundary
62
5
39
2
10
21.756771
20
333.872195
11
21.756771
21
329.821195
0
LINE
8
boundary
62
5
39
2
10
21.756771
20
329.821195
11
11.142814
21
329.821195
0
LINE
8
boundary
62
5
39
2
10
11.142814
20
329.821195
11
6.687500
21
329.381095
0
LINE
8
boundary
62
5
39
2
10
6.687500
20
329.381095
11
6.687500
21
274.342533
0
LINE
8
boundary
62
5
39
2
10
6.687500
20
274.342533
11
11.142814
21
273.902432
0
LINE
8
boundary
62
5
39
2
10
11.142814
20
273.902432
11
50.614963
21
273.902433
0
LINE
8
boundary
62
5
39
2
10
50.614963
20
273.902433
11
50.614963
21
269.851433
0
LINE
8
boundary
62
5
39
2
10
50.614963
20
269.851433
11
11.142814
21
269.851433
0
LINE
8
boundary
62
5
39
2
10
11.142814
20
269.851433
11
6.687500
21
269.411333
0
LINE
8
boundary
62
5
39
2
10
6.687500
20
269.411333
11
6.687500
21
220.753791
0
LINE
8
boundary
62
5
39
2
10
6.687500
20
220.753791
11
11.142814
21
220.313690
0
LINE
8
boundary
62
5
39
2
10
11.142814
20
220.313690
11
73.248910
21
220.313691
0
LINE
8
boundary
62
5
39
2
10
73.248910
20
220.313691
11
73.248911
21
216.262691
0
LINE
8
boundary
62
5
39
2
10
73.248911
20
216.262691
11
11.142814
21
216.262690
0
LINE
8
boundary
62
5
39
2
10
11.142814
20
216.262690
11
6.687500
21
215.822590
0
LINE
8
boundary
62
5
39
2
10
6.687500
20
215.822590
11
6.687500
21
181.317438
0
LINE
8
boundary
62
5
39
2
10
6.687500
20
181.317438
11
11.142814
21
180.877338
0
LINE
8
boundary
62
5
39
2
10
11.142814
20
180.877338
11
86.649123
21
180.877338
0
LINE
8
boundary
62
5
39
2
10
86.649123
20
180.877338
11
86.649123
21
176.826338
0
LINE
8
boundary
62
5
39
2
10
86.649123
20
176.826338
11
11.142814
21
176.826338
0
LINE
8
boundary
62
5
39
2
10
11.142814
20
176.826338
11
6.687500
21
176.386238
0
LINE
8
boundary
62
5
39
2
10
6.687500
20
176.386238
11
6.687500
21
170.507572
0
LINE
8
boundary
62
5
39
2
10
6.687500
20
170.507572
11
8.232479
21
167.993283
0
LINE
8
boundary
62
5
39
2
10
8.232479
20
167.993283
11
12.178167
21
161.449897
0
LINE
8
boundary
62
5
39
2
10
12.178167
20
161.449897
11
15.931143
21
153.936842
0
LINE
8
boundary
62
5
39
2
10
15.931143
20
153.936842
11
19.040689
21
147.850015
0
LINE
8
boundary
62
5
39
2
10
19.040689
20
147.850015
11
20.770446
21
141.881086
0
LINE
8
boundary
62
5
39
2
10
20.770446
20
141.881086
11
25.225760
21
141.440985
0
LINE
8
boundary
62
5
39
2
10
25.225760
20
141.440985
11
141.514077
21
141.440986
0
LINE
8
boundary
62
5
39
2
10
141.514077
20
141.440986
11
141.514077
21
137.389985
0
LINE
8
boundary
62
5
39
2
10
141.514077
20
137.389985
11
26.654790
21
137.389985
0
LINE
8
boundary
62
5
39
2
10
26.654790
20
137.389985
11
22.199475
21
136.949886
0
LINE
8
boundary
62
5
39
2
10
22.199475
20
136.949886
11
22.994458
21
134.206614
0
LINE
8
boundary
62
5
39
2
10
22.994458
20
134.206614
11
23.561972
21
131.898945
0
LINE
8
boundary
62
5
39
2
10
23.561972
20
131.898945
11
24.685558
21
126.134999
0
LINE
8
boundary
62
5
39
2
10
24.685558
20
126.134999
11
26.230032
21
118.282842
0
LINE
8
boundary
62
5
39
2
10
26.230032
20
118.282842
11
26.913664
21
115.215546
0
LINE
8
boundary
62
5
39
2
10
26.913664
20
115.215546
11
28.759811
21
109.334271
0
LINE
8
boundary
62
5
39
2
10
28.759811
20
109.334271
11
31.378228
21
102.444733
0
LINE
8
boundary
62
5
39
2
10
31.378228
20
102.444733
11
35.833542
21
102.004633
0
LINE
8
boundary
62
5
39
2
10
35.833542
20
102.004633
11
167.526588
21
102.004633
0
LINE
8
boundary
62
5
39
2
10
167.526588
20
102.004633
11
167.526588
21
97.953633
0
LINE
8
boundary
62
5
39
2
10
167.526588
20
97.953633
11
37.540346
21
97.953633
0
LINE
8
boundary
62
5
39
2
10
37.540346
20
97.953633
11
33.085031
21
97.513533
0
LINE
8
boundary
62
5
39
2
10
33.085031
20
97.513533
11
36.192811
21
87.894392
0
LINE
8
boundary
62
5
39
2
10
36.192811
20
87.894392
11
38.214465
21
81.267588
0
LINE
8
boundary
62
5
39
2
10
38.214465
20
81.267588
11
41.907550
21
73.684962
0
LINE
8
boundary
62
5
39
2
10
41.907550
20
73.684962
11
44.904181
21
63.008380
0
LINE
8
boundary
62
5
39
2
10
44.904181
20
63.008380
11
49.359495
21
62.568280
0
LINE
8
boundary
62
5
39
2
10
49.359495
20
62.568280
11
152.631051
21
62.568280
0
LINE
8
boundary
62
5
39
2
10
152.631051
20
62.568280
11
152.631051
21
58.517281
0
LINE
8
boundary
62
5
39
2
10
152.631051
20
58.517281
11
51.853274
21
58.517280
0
LINE
8
boundary
62
5
39
2
10
51.853274
20
58.517280
11
47.397960
21
58.077181
0
LINE
8
boundary
62
5
39
2
10
47.397960
20
58.077181
11
58.188480
21
41.321002
0
LINE
8
boundary
62
5
39
2
10
58.188480
20
41.321002
11
65.477775
21
34.858470
0
LINE
8
boundary
62
5
39
2
10
65.477775
20
34.858470
11
76.369416
21
26.468334
0
LINE
8
boundary
62
5
39
2
10
76.369416
20
26.468334
11
81.794999
21
23.572028
0
LINE
8
boundary
62
5
39
2
10
81.794999
20
23.572028
11
86.250312
21
23.131928
0
LINE
8
boundary
62
5
39
2
10
86.250312
20
23.131928
11
150.629343
21
23.131928
0
LINE
8
boundary
62
5
39
2
10
150.629343
20
23.131928
11
150.629343
21
19.080928
0
LINE
8
boundary
62
5
39
2
10
150.629343
20
19.080928
11
95.487813
21
19.080928
0
LINE
8
boundary
62
5
39
2
10
95.487813
20
19.080928
11
91.032498
21
18.640828
0
LINE
8
boundary
62
5
39
2
10
91.032498
20
18.640828
11
101.067686
21
13.283804
0
LINE
8
boundary
62
5
39
2
10
101.067686
20
13.283804
11
102.256995
21
12.676296
0
LINE
8
boundary
62
5
39
2
10
102.256995
20
12.676296
11
103.090960
21
12.507331
0
LINE
8
boundary
62
5
39
2
10
103.090960
20
12.507331
11
135.120390
21
7.758956
0
LINE
8
boundary
62
5
39
2
10
135.120390
20
7.758956
11
164.920522
21
9.819445
0
LINE
8
boundary
62
5
39
2
10
164.920522
20
9.819445
11
169.429978
21
10.358251
0
LINE
8
boundary
62
5
39
2
10
169.429978
20
10.358251
11
170.929681
21
10.053043
0
LINE
8
boundary
62
5
39
2
10
170.929681
20
10.053043
11
172.391803
21
9.828256
0
LINE
8
boundary
62
5
39
2
10
172.391803
20
9.828256
11
175.305331
21
9.392752
0
LINE
8
boundary
62
5
39
2
10
175.305331
20
9.392752
11
196.007532
21
7.291295
0
LINE
8
boundary
62
5
39
2
10
196.007532
20
7.291295
11
197.968869
21
6.916894
0
LINE
8
boundary
62
5
39
2
10
197.968869
20
6.916894
11
199.019451
21
6.687500
0
LINE
8
boundary
62
5
39
2
10
199.019451
20
6.687500
11
199.789107
21
7.377872
0
LINE
8
boundary
62
5
39
2
10
199.789107
20
7.377872
11
201.911544
21
9.281671
0
LINE
8
boundary
62
5
39
2
10
201.911544
20
9.281671
11
206.761029
21
13.631599
0
LINE
8
annotation
62
1
39
211
10
161.169131
20
17.585571
11
158.041788
21
17.585571
0
LINE
8
annotation
62
1
39
211
10
158.041788
20
17.585571
11
160.931556
21
22.237725
0
LINE
8
annotation
62
1
39
211
10
160.931556
20
22.237725
11
160.931556
21
22.237725
0
LINE
8
annotation
62
1
39
211
10
160.931556
20
22.237725
11
160.935010
21
22.242000
0
LINE
8
annotation
62
1
39
211
10
160.935010
20
22.242000
11
160.938323
21
22.246311
0
LINE
8
annotation
62
1
39
211
10
160.938323
20
22.246311
11
160.941516
21
22.250695
0
LINE
8
annotation
62
1
39
211
10
160.941516
20
22.250695
11
160.944611
21
22.255188
0
LINE
8
annotation
62
1
39
211
10
160.944611
20
22.255188
11
160.947629
21
22.259826
0
LINE
8
annotation
62
1
39
211
10
160.947629
20
22.259826
11
160.950593
21
22.264646
0
LINE
8
annotation
62
1
39
211
10
160.950593
20
22.264646
11
160.953524
21
22.269684
0
LINE
8
annotation
62
1
39
211
10
160.953524
20
22.269684
11
160.956445
21
22.274976
0
LINE
8
annotation
62
1
39
211
10
160.956445
20
22.274976
11
160.959376
21
22.280559
0
LINE
8
annotation
62
1
39
211
10
160.959376
20
22.280559
11
160.959376
21
22.280559
0
LINE
8
annotation
62
1
39
211
10
160.959376
20
22.280559
11
161.078694
21
22.536745
0
LINE
8
annotation
62
1
39
211
10
161.078694
20
22.536745
11
161.148397
21
22.802304
0
LINE
8
annotation
62
1
39
211
10
161.148397
20
22.802304
11
161.170194
21
23.071235
0
LINE
8
annotation
62
1
39
211
10
161.170194
20
23.071235
11
161.145794
21
23.337539
0
LINE
8
annotation
62
1
39
211
10
161.145794
20
23.337539
11
161.076903
21
23.595215
0
LINE
8
annotation
62
1
39
211
10
161.076903
20
23.595215
11
160.965231
21
23.838261
0
LINE
8
annotation
62
1
39
211
10
160.965231
20
23.838261
11
160.812486
21
24.060679
0
LINE
8
annotation
62
1
39
211
10
160.812486
20
24.060679
11
160.620375
21
24.256466
0
LINE
8
annotation
62
1
39
211
10
160.620375
20
24.256466
11
160.390607
21
24.419623
0
LINE
8
annotation
62
1
39
211
10
160.390607
20
24.419623
11
160.390607
21
24.419623
0
LINE
8
annotation
62
1
39
211
10
160.390607
20
24.419623
11
160.133710
21
24.537246
0
LINE
8
annotation
62
1
39
211
10
160.133710
20
24.537246
11
159.867744
21
24.605875
0
LINE
8
annotation
62
1
39
211
10
159.867744
20
24.605875
11
159.598656
21
24.627056
0
LINE
8
annotation
62
1
39
211
10
159.598656
20
24.627056
11
159.332392
21
24.602334
0
LINE
8
annotation
62
1
39
211
10
159.332392
20
24.602334
11
159.074898
21
24.533252
0
LINE
8
annotation
62
1
39
211
10
159.074898
20
24.533252
11
158.832121
21
24.421357
0
LINE
8
annotation
62
1
39
211
10
158.832121
20
24.421357
11
158.610005
21
24.268192
0
LINE
8
annotation
62
1
39
211
10
158.610005
20
24.268192
11
158.414497
21
24.075301
0
LINE
8
annotation
62
1
39
211
10
158.414497
20
24.075301
11
158.251544
21
23.844231
0
LINE
8
annotation
62
1
39
211
10
158.251544
20
23.844231
11
158.046204
21
23.450332
0
LINE
8
annotation
62
1
39
211
10
160.043496
20
57.022201
11
161.607167
21
57.022201
0
LINE
8
annotation
62
1
39
211
10
161.607167
20
57.022201
11
161.607167
21
57.022201
0
LINE
8
annotation
62
1
39
211
10
161.607167
20
57.022201
11
161.888397
21
57.047429
0
LINE
8
annotation
62
1
39
211
10
161.888397
20
57.047429
11
162.153025
21
57.120139
0
LINE
8
annotation
62
1
39
211
10
162.153025
20
57.120139
11
162.396649
21
57.235866
0
LINE
8
annotation
62
1
39
211
10
162.396649
20
57.235866
11
162.614868
21
57.390147
0
LINE
8
annotation
62
1
39
211
10
162.614868
20
57.390147
11
162.803281
21
57.578520
0
LINE
8
annotation
62
1
39
211
10
162.803281
20
57.578520
11
162.957485
21
57.796522
0
LINE
8
annotation
62
1
39
211
10
162.957485
20
57.796522
11
163.073081
21
58.039688
0
LINE
8
annotation
62
1
39
211
10
163.073081
20
58.039688
11
163.145666
21
58.303557
0
LINE
8
annotation
62
1
39
211
10
163.145666
20
58.303557
11
163.170839
21
58.583665
0
LINE
8
annotation
62
1
39
211
10
163.170839
20
58.583665
11
163.170839
21
59.366604
0
LINE
8
annotation
62
1
39
211
10
163.170839
20
59.366604
11
163.170839
21
59.366604
0
LINE
8
annotation
62
1
39
211
10
163.170839
20
59.366604
11
163.145666
21
59.646596
0
LINE
8
annotation
62
1
39
211
10
163.145666
20
59.646596
11
163.073081
21
59.910403
0
LINE
8
annotation
62
1
39
211
10
163.073081
20
59.910403
11
162.957485
21
60.153551
0
LINE
8
annotation
62
1
39
211
10
162.957485
20
60.153551
11
162.803281
21
60.371567
0
LINE
8
annotation
62
1
39
211
10
162.803281
20
60.371567
11
162.614868
21
60.559977
0
LINE
8
annotation
62
1
39
211
10
162.614868
20
60.559977
11
162.396649
21
60.714306
0
LINE
8
annotation
62
1
39
211
10
162.396649
20
60.714306
11
162.153025
21
60.830080
0
LINE
8
annotation
62
1
39
211
10
162.153025
20
60.830080
11
161.888397
21
60.902825
0
LINE
8
annotation
62
1
39
211
10
161.888397
20
60.902825
11
161.607167
21
60.928068
0
LINE
8
annotation
62
1
39
211
10
161.607167
20
60.928068
11
160.824228
21
60.928068
0
LINE
8
annotation
62
1
39
211
10
160.824228
20
60.928068
11
161.607167
21
60.928068
0
LINE
8
annotation
62
1
39
211
10
161.607167
20
60.928068
11
161.607167
21
60.928068
0
LINE
8
annotation
62
1
39
211
10
161.607167
20
60.928068
11
161.888397
21
60.953317
0
LINE
8
annotation
62
1
39
211
10
161.888397
20
60.953317
11
162.153025
21
61.026105
0
LINE
8
annotation
62
1
39
211
10
162.153025
20
61.026105
11
162.396649
21
61.141994
0
LINE
8
annotation
62
1
39
211
10
162.396649
20
61.141994
11
162.614868
21
61.296547
0
LINE
8
annotation
62
1
39
211
10
162.614868
20
61.296547
11
162.803281
21
61.485326
0
LINE
8
annotation
62
1
39
211
10
162.803281
20
61.485326
11
162.957485
21
61.703893
0
LINE
8
annotation
62
1
39
211
10
162.957485
20
61.703893
11
163.073081
21
61.947811
0
LINE
8
annotation
62
1
39
211
10
163.073081
20
61.947811
11
163.145666
21
62.212642
0
LINE
8
annotation
62
1
39
211
10
163.145666
20
62.212642
11
163.170839
21
62.493947
0
LINE
8
annotation
62
1
39
211
10
163.170839
20
62.493947
11
163.170839
21
62.493947
0
LINE
8
annotation
62
1
39
211
10
163.170839
20
62.493947
11
163.145666
21
62.773939
0
LINE
8
annotation
62
1
39
211
10
163.145666
20
62.773939
11
163.073081
21
63.037746
0
LINE
8
annotation
62
1
39
211
10
163.073081
20
63.037746
11
162.957485
21
63.280894
0
LINE
8
annotation
62
1
39
211
10
162.957485
20
63.280894
11
162.803281
21
63.498910
0
LINE
8
annotation
62
1
39
211
10
162.803281
20
63.498910
11
162.614868
21
63.687320
0
LINE
8
annotation
62
1
39
211
10
162.614868
20
63.687320
11
162.396649
21
63.841649
0
LINE
8
annotation
62
1
39
211
10
162.396649
20
63.841649
11
162.153025
21
63.957423
0
LINE
8
annotation
62
1
39
211
10
162.153025
20
63.957423
11
161.888397
21
64.030168
0
LINE
8
annotation
62
1
39
211
10
161.888397
20
64.030168
11
161.607167
21
64.055411
0
LINE
8
annotation
62
1
39
211
10
161.607167
20
64.055411
11
160.043496
21
64.055411
0
LINE
8
annotation
62
1
39
211
10
178.457626
20
98.023771
11
174.547785
21
98.023771
0
LINE
8
annotation
62
1
39
211
10
174.547785
20
98.023771
11
176.109248
21
103.499933
0
LINE
8
annotation
62
1
39
211
10
177.285645
20
96.458333
11
177.285645
21
99.585676
0
LINE
8
annotation
62
1
39
211
10
148.926522
20
135.894685
11
150.490193
21
135.894685
0
LINE
8
annotation
62
1
39
211
10
150.490193
20
135.894685
11
150.490193
21
135.894685
0
LINE
8
annotation
62
1
39
211
10
150.490193
20
135.894685
11
150.770842
21
135.919919
0
LINE
8
annotation
62
1
39
211
10
150.770842
20
135.919919
11
151.035161
21
135.992666
0
LINE
8
annotation
62
1
39
211
10
151.035161
20
135.992666
11
151.278694
21
136.108497
0
LINE
8
annotation
62
1
39
211
10
151.278694
20
136.108497
11
151.496985
21
136.262980
0
LINE
8
annotation
62
1
39
211
10
151.496985
20
136.262980
11
151.685580
21
136.451686
0
LINE
8
annotation
62
1
39
211
10
151.685580
20
136.451686
11
151.840021
21
136.670184
0
LINE
8
annotation
62
1
39
211
10
151.840021
20
136.670184
11
151.955852
21
136.914043
0
LINE
8
annotation
62
1
39
211
10
151.955852
20
136.914043
11
152.028619
21
137.178833
0
LINE
8
annotation
62
1
39
211
10
152.028619
20
137.178833
11
152.053865
21
137.460123
0
LINE
8
annotation
62
1
39
211
10
152.053865
20
137.460123
11
152.053865
21
138.239089
0
LINE
8
annotation
62
1
39
211
10
152.053865
20
138.239089
11
152.053865
21
138.239089
0
LINE
8
annotation
62
1
39
211
10
152.053865
20
138.239089
11
152.028634
21
138.520243
0
LINE
8
annotation
62
1
39
211
10
152.028634
20
138.520243
11
151.955903
21
138.784668
0
LINE
8
annotation
62
1
39
211
10
151.955903
20
138.784668
11
151.840119
21
139.027998
0
LINE
8
annotation
62
1
39
211
10
151.840119
20
139.027998
11
151.685725
21
139.245869
0
LINE
8
annotation
62
1
39
211
10
151.685725
20
139.245869
11
151.497167
21
139.433915
0
LINE
8
annotation
62
1
39
211
10
151.497167
20
139.433915
11
151.278890
21
139.587771
0
LINE
8
annotation
62
1
39
211
10
151.278890
20
139.587771
11
151.035339
21
139.703073
0
LINE
8
annotation
62
1
39
211
10
151.035339
20
139.703073
11
150.770958
21
139.775455
0
LINE
8
annotation
62
1
39
211
10
150.770958
20
139.775455
11
150.490193
21
139.800552
0
LINE
8
annotation
62
1
39
211
10
150.490193
20
139.800552
11
148.926522
21
139.800552
0
LINE
8
annotation
62
1
39
211
10
148.926522
20
139.800552
11
148.926522
21
142.936285
0
LINE
8
annotation
62
1
39
211
10
148.926522
20
142.936285
11
152.053865
21
142.936285
0
LINE
8
annotation
62
1
39
211
10
96.410387
20
182.372638
11
96.410387
21
182.372638
0
LINE
8
annotation
62
1
39
211
10
96.410387
20
182.372638
11
95.962435
21
182.204683
0
LINE
8
annotation
62
1
39
211
10
95.962435
20
182.204683
11
95.551380
21
181.978383
0
LINE
8
annotation
62
1
39
211
10
95.551380
20
181.978383
11
95.181441
21
181.699409
0
LINE
8
annotation
62
1
39
211
10
95.181441
20
181.699409
11
94.856840
21
181.373430
0
LINE
8
annotation
62
1
39
211
10
94.856840
20
181.373430
11
94.581794
21
181.006116
0
LINE
8
annotation
62
1
39
211
10
94.581794
20
181.006116
11
94.360525
21
180.603136
0
LINE
8
annotation
62
1
39
211
10
94.360525
20
180.603136
11
94.197251
21
180.170162
0
LINE
8
annotation
62
1
39
211
10
94.197251
20
180.170162
11
94.096192
21
179.712861
0
LINE
8
annotation
62
1
39
211
10
94.096192
20
179.712861
11
94.061568
21
179.236905
0
LINE
8
annotation
62
1
39
211
10
94.061568
20
179.236905
11
94.061568
21
176.896476
0
LINE
8
annotation
62
1
39
211
10
94.061568
20
176.896476
11
94.061568
21
176.896476
0
LINE
8
annotation
62
1
39
211
10
94.061568
20
176.896476
11
94.086814
21
176.615185
0
LINE
8
annotation
62
1
39
211
10
94.086814
20
176.615185
11
94.159581
21
176.350395
0
LINE
8
annotation
62
1
39
211
10
94.159581
20
176.350395
11
94.275412
21
176.106536
0
LINE
8
annotation
62
1
39
211
10
94.275412
20
176.106536
11
94.429853
21
175.888039
0
LINE
8
annotation
62
1
39
211
10
94.429853
20
175.888039
11
94.618448
21
175.699333
0
LINE
8
annotation
62
1
39
211
10
94.618448
20
175.699333
11
94.836739
21
175.544850
0
LINE
8
annotation
62
1
39
211
10
94.836739
20
175.544850
11
95.080272
21
175.429019
0
LINE
8
annotation
62
1
39
211
10
95.080272
20
175.429019
11
95.344591
21
175.356272
0
LINE
8
annotation
62
1
39
211
10
95.344591
20
175.356272
11
95.625240
21
175.331038
0
LINE
8
annotation
62
1
39
211
10
95.625240
20
175.331038
11
95.625240
21
175.331038
0
LINE
8
annotation
62
1
39
211
10
95.625240
20
175.331038
11
95.906470
21
175.356272
0
LINE
8
annotation
62
1
39
211
10
95.906470
20
175.356272
11
96.171098
21
175.429019
0
LINE
8
annotation
62
1
39
211
10
96.171098
20
175.429019
11
96.414722
21
175.544850
0
LINE
8
annotation
62
1
39
211
10
96.414722
20
175.544850
11
96.632941
21
175.699333
0
LINE
8
annotation
62
1
39
211
10
96.632941
20
175.699333
11
96.821353
21
175.888039
0
LINE
8
annotation
62
1
39
211
10
96.821353
20
175.888039
11
96.975558
21
176.106536
0
LINE
8
annotation
62
1
39
211
10
96.975558
20
176.106536
11
97.091153
21
176.350395
0
LINE
8
annotation
62
1
39
211
10
97.091153
20
176.350395
11
97.163738
21
176.615185
0
LINE
8
annotation
62
1
39
211
10
97.163738
20
176.615185
11
97.188911
21
176.896476
0
LINE
8
annotation
62
1
39
211
10
97.188911
20
176.896476
11
97.188911
21
177.675441
0
LINE
8
annotation
62
1
39
211
10
97.188911
20
177.675441
11
97.188911
21
177.675441
0
LINE
8
annotation
62
1
39
211
10
97.188911
20
177.675441
11
97.163738
21
177.956596
0
LINE
8
annotation
62
1
39
211
10
97.163738
20
177.956596
11
97.091153
21
178.221020
0
LINE
8
annotation
62
1
39
211
10
97.091153
20
178.221020
11
96.975558
21
178.464351
0
LINE
8
annotation
62
1
39
211
10
96.975558
20
178.464351
11
96.821353
21
178.682221
0
LINE
8
annotation
62
1
39
211
10
96.821353
20
178.682221
11
96.632941
21
178.870267
0
LINE
8
annotation
62
1
39
211
10
96.632941
20
178.870267
11
96.414722
21
179.024124
0
LINE
8
annotation
62
1
39
211
10
96.414722
20
179.024124
11
96.171098
21
179.139425
0
LINE
8
annotation
62
1
39
211
10
96.171098
20
179.139425
11
95.906470
21
179.211807
0
LINE
8
annotation
62
1
39
211
10
95.906470
20
179.211807
11
95.625240
21
179.236905
0
LINE
8
annotation
62
1
39
211
10
95.625240
20
179.236905
11
94.061568
21
179.236905
0
LINE
8
annotation
62
1
39
211
10
93.865723
20
174.450838
11
97.386523
21
174.450838
0
LINE
8
annotation
62
1
39
211
10
82.225027
20
214.767391
11
83.790465
21
221.808991
0
LINE
8
annotation
62
1
39
211
10
83.790465
20
221.808991
11
80.659148
21
221.808991
0
LINE
8
annotation
62
1
39
211
10
83.790465
20
218.673257
11
82.225027
21
218.673257
0
LINE
8
annotation
62
1
39
211
10
58.027409
20
269.917376
11
58.027409
21
269.917376
0
LINE
8
annotation
62
1
39
211
10
58.027409
20
269.917376
11
58.052655
21
269.636221
0
LINE
8
annotation
62
1
39
211
10
58.052655
20
269.636221
11
58.125421
21
269.371796
0
LINE
8
annotation
62
1
39
211
10
58.125421
20
269.371796
11
58.241253
21
269.128466
0
LINE
8
annotation
62
1
39
211
10
58.241253
20
269.128466
11
58.395694
21
268.910596
0
LINE
8
annotation
62
1
39
211
10
58.395694
20
268.910596
11
58.584288
21
268.722550
0
LINE
8
annotation
62
1
39
211
10
58.584288
20
268.722550
11
58.802580
21
268.568693
0
LINE
8
annotation
62
1
39
211
10
58.802580
20
268.568693
11
59.046113
21
268.453391
0
LINE
8
annotation
62
1
39
211
10
59.046113
20
268.453391
11
59.310432
21
268.381009
0
LINE
8
annotation
62
1
39
211
10
59.310432
20
268.381009
11
59.591080
21
268.355912
0
LINE
8
annotation
62
1
39
211
10
59.591080
20
268.355912
11
59.591080
21
268.355912
0
LINE
8
annotation
62
1
39
211
10
59.591080
20
268.355912
11
59.871729
21
268.381009
0
LINE
8
annotation
62
1
39
211
10
59.871729
20
268.381009
11
60.136048
21
268.453391
0
LINE
8
annotation
62
1
39
211
10
60.136048
20
268.453391
11
60.379581
21
268.568693
0
LINE
8
annotation
62
1
39
211
10
60.379581
20
268.568693
11
60.597872
21
268.722550
0
LINE
8
annotation
62
1
39
211
10
60.597872
20
268.722550
11
60.786467
21
268.910596
0
LINE
8
annotation
62
1
39
211
10
60.786467
20
268.910596
11
60.940908
21
269.128466
0
LINE
8
annotation
62
1
39
211
10
60.940908
20
269.128466
11
61.056739
21
269.371796
0
LINE
8
annotation
62
1
39
211
10
61.056739
20
269.371796
11
61.129506
21
269.636221
0
LINE
8
annotation
62
1
39
211
10
61.129506
20
269.636221
11
61.154752
21
269.917376
0
LINE
8
annotation
62
1
39
211
10
61.154752
20
269.917376
11
61.154752
21
270.696341
0
LINE
8
annotation
62
1
39
211
10
61.154752
20
270.696341
11
61.154752
21
270.696341
0
LINE
8
annotation
62
1
39
211
10
61.154752
20
270.696341
11
61.129521
21
270.977632
0
LINE
8
annotation
62
1
39
211
10
61.129521
20
270.977632
11
61.056790
21
271.242422
0
LINE
8
annotation
62
1
39
211
10
61.056790
20
271.242422
11
60.941006
21
271.486281
0
LINE
8
annotation
62
1
39
211
10
60.941006
20
271.486281
11
60.786612
21
271.704778
0
LINE
8
annotation
62
1
39
211
10
60.786612
20
271.704778
11
60.598054
21
271.893484
0
LINE
8
annotation
62
1
39
211
10
60.598054
20
271.893484
11
60.379777
21
272.047967
0
LINE
8
annotation
62
1
39
211
10
60.379777
20
272.047967
11
60.136226
21
272.163798
0
LINE
8
annotation
62
1
39
211
10
60.136226
20
272.163798
11
59.871845
21
272.236545
0
LINE
8
annotation
62
1
39
211
10
59.871845
20
272.236545
11
59.591080
21
272.261779
0
LINE
8
annotation
62
1
39
211
10
59.591080
20
272.261779
11
59.591080
21
272.261779
0
LINE
8
annotation
62
1
39
211
10
59.591080
20
272.261779
11
59.310315
21
272.236531
0
LINE
8
annotation
62
1
39
211
10
59.310315
20
272.236531
11
59.045935
21
272.163747
0
LINE
8
annotation
62
1
39
211
10
59.045935
20
272.163747
11
58.802384
21
272.047869
0
LINE
8
annotation
62
1
39
211
10
58.802384
20
272.047869
11
58.584106
21
271.893339
0
LINE
8
annotation
62
1
39
211
10
58.584106
20
271.893339
11
58.395549
21
271.704597
0
LINE
8
annotation
62
1
39
211
10
58.395549
20
271.704597
11
58.241155
21
271.486084
0
LINE
8
annotation
62
1
39
211
10
58.241155
20
271.486084
11
58.125370
21
271.242244
0
LINE
8
annotation
62
1
39
211
10
58.125370
20
271.242244
11
58.052640
21
270.977515
0
LINE
8
annotation
62
1
39
211
10
58.052640
20
270.977515
11
58.027409
21
270.696341
0
LINE
8
annotation
62
1
39
211
10
58.027409
20
270.696341
11
58.027409
21
269.917376
0
LINE
8
annotation
62
1
39
211
10
61.154752
20
273.827658
11
61.154752
21
273.827658
0
LINE
8
annotation
62
1
39
211
10
61.154752
20
273.827658
11
61.129521
21
274.107650
0
LINE
8
annotation
62
1
39
211
10
61.129521
20
274.107650
11
61.056790
21
274.371456
0
LINE
8
annotation
62
1
39
211
10
61.056790
20
274.371456
11
60.941006
21
274.614605
0
LINE
8
annotation
62
1
39
211
10
60.941006
20
274.614605
11
60.786612
21
274.832621
0
LINE
8
annotation
62
1
39
211
10
60.786612
20
274.832621
11
60.598054
21
275.021030
0
LINE
8
annotation
62
1
39
211
10
60.598054
20
275.021030
11
60.379777
21
275.175359
0
LINE
8
annotation
62
1
39
211
10
60.379777
20
275.175359
11
60.136226
21
275.291134
0
LINE
8
annotation
62
1
39
211
10
60.136226
20
275.291134
11
59.871845
21
275.363879
0
LINE
8
annotation
62
1
39
211
10
59.871845
20
275.363879
11
59.591080
21
275.389122
0
LINE
8
annotation
62
1
39
211
10
59.591080
20
275.389122
11
59.591080
21
275.389122
0
LINE
8
annotation
62
1
39
211
10
59.591080
20
275.389122
11
59.310315
21
275.363879
0
LINE
8
annotation
62
1
39
211
10
59.310315
20
275.363879
11
59.045935
21
275.291134
0
LINE
8
annotation
62
1
39
211
10
59.045935
20
275.291134
11
58.802384
21
275.175359
0
LINE
8
annotation
62
1
39
211
10
58.802384
20
275.175359
11
58.584106
21
275.021030
0
LINE
8
annotation
62
1
39
211
10
58.584106
20
275.021030
11
58.395549
21
274.832621
0
LINE
8
annotation
62
1
39
211
10
58.395549
20
274.832621
11
58.241155
21
274.614605
0
LINE
8
annotation
62
1
39
211
10
58.241155
20
274.614605
11
58.125370
21
274.371456
0
LINE
8
annotation
62
1
39
211
10
58.125370
20
274.371456
11
58.052640
21
274.107650
0
LINE
8
annotation
62
1
39
211
10
58.052640
20
274.107650
11
58.027409
21
273.827658
0
LINE
8
annotation
62
1
39
211
10
58.027409
20
273.827658
11
58.027409
21
273.827658
0
LINE
8
annotation
62
1
39
211
10
58.027409
20
273.827658
11
58.052655
21
273.546352
0
LINE
8
annotation
62
1
39
211
10
58.052655
20
273.546352
11
58.125421
21
273.281522
0
LINE
8
annotation
62
1
39
211
10
58.125421
20
273.281522
11
58.241253
21
273.037604
0
LINE
8
annotation
62
1
39
211
10
58.241253
20
273.037604
11
58.395694
21
272.819037
0
LINE
8
annotation
62
1
39
211
10
58.395694
20
272.819037
11
58.584288
21
272.630258
0
LINE
8
annotation
62
1
39
211
10
58.584288
20
272.630258
11
58.802580
21
272.475705
0
LINE
8
annotation
62
1
39
211
10
58.802580
20
272.475705
11
59.046113
21
272.359815
0
LINE
8
annotation
62
1
39
211
10
59.046113
20
272.359815
11
59.310432
21
272.287028
0
LINE
8
annotation
62
1
39
211
10
59.310432
20
272.287028
11
59.591080
21
272.261779
0
LINE
8
annotation
62
1
39
211
10
59.591080
20
272.261779
11
59.591080
21
272.261779
0
LINE
8
annotation
62
1
39
211
10
59.591080
20
272.261779
11
59.871729
21
272.287028
0
LINE
8
annotation
62
1
39
211
10
59.871729
20
272.287028
11
60.136048
21
272.359815
0
LINE
8
annotation
62
1
39
211
10
60.136048
20
272.359815
11
60.379581
21
272.475705
0
LINE
8
annotation
62
1
39
211
10
60.379581
20
272.475705
11
60.597872
21
272.630258
0
LINE
8
annotation
62
1
39
211
10
60.597872
20
272.630258
11
60.786467
21
272.819037
0
LINE
8
annotation
62
1
39
211
10
60.786467
20
272.819037
11
60.940908
21
273.037604
0
LINE
8
annotation
62
1
39
211
10
60.940908
20
273.037604
11
61.056739
21
273.281522
0
LINE
8
annotation
62
1
39
211
10
61.056739
20
273.281522
11
61.129506
21
273.546352
0
LINE
8
annotation
62
1
39
211
10
61.129506
20
273.546352
11
61.154752
21
273.827658
0
LINE
8
annotation
62
1
39
211
10
28.865300
20
328.802166
11
28.865300
21
328.802166
0
LINE
8
annotation
62
1
39
211
10
28.865300
20
328.802166
11
29.251974
21
328.946260
0
LINE
8
annotation
62
1
39
211
10
29.251974
20
328.946260
11
29.606893
21
329.141029
0
LINE
8
annotation
62
1
39
211
10
29.606893
20
329.141029
11
29.926390
21
329.381511
0
LINE
8
annotation
62
1
39
211
10
29.926390
20
329.381511
11
30.206795
21
329.662742
0
LINE
8
annotation
62
1
39
211
10
30.206795
20
329.662742
11
30.444443
21
329.979761
0
LINE
8
annotation
62
1
39
211
10
30.444443
20
329.979761
11
30.635664
21
330.327605
0
LINE
8
annotation
62
1
39
211
10
30.635664
20
330.327605
11
30.776791
21
330.701312
0
LINE
8
annotation
62
1
39
211
10
30.776791
20
330.701312
11
30.864158
21
331.095918
0
LINE
8
annotation
62
1
39
211
10
30.864158
20
331.095918
11
30.894095
21
331.506462
0
LINE
8
annotation
62
1
39
211
10
30.894095
20
331.506462
11
30.894095
21
333.537166
0
LINE
8
annotation
62
1
39
211
10
30.894095
20
333.537166
11
30.894095
21
333.537166
0
LINE
8
annotation
62
1
39
211
10
30.894095
20
333.537166
11
30.872327
21
333.780419
0
LINE
8
annotation
62
1
39
211
10
30.872327
20
333.780419
11
30.809561
21
334.009425
0
LINE
8
annotation
62
1
39
211
10
30.809561
20
334.009425
11
30.709602
21
334.220347
0
LINE
8
annotation
62
1
39
211
10
30.709602
20
334.220347
11
30.576257
21
334.409348
0
LINE
8
annotation
62
1
39
211
10
30.576257
20
334.409348
11
30.413332
21
334.572590
0
LINE
8
annotation
62
1
39
211
10
30.413332
20
334.572590
11
30.224632
21
334.706236
0
LINE
8
annotation
62
1
39
211
10
30.224632
20
334.706236
11
30.013964
21
334.806448
0
LINE
8
annotation
62
1
39
211
10
30.013964
20
334.806448
11
29.785134
21
334.869390
0
LINE
8
annotation
62
1
39
211
10
29.785134
20
334.869390
11
29.541947
21
334.891223
0
LINE
8
annotation
62
1
39
211
10
29.541947
20
334.891223
11
29.541947
21
334.891223
0
LINE
8
annotation
62
1
39
211
10
29.541947
20
334.891223
11
29.299263
21
334.869390
0
LINE
8
annotation
62
1
39
211
10
29.299263
20
334.869390
11
29.070699
21
334.806448
0
LINE
8
annotation
62
1
39
211
10
29.070699
20
334.806448
11
28.860110
21
334.706236
0
LINE
8
annotation
62
1
39
211
10
28.860110
20
334.706236
11
28.671347
21
334.572590
0
LINE
8
annotation
62
1
39
211
10
28.671347
20
334.572590
11
28.508265
21
334.409348
0
LINE
8
annotation
62
1
39
211
10
28.508265
20
334.409348
11
28.374716
21
334.220347
0
LINE
8
annotation
62
1
39
211
10
28.374716
20
334.220347
11
28.274553
21
334.009425
0
LINE
8
annotation
62
1
39
211
10
28.274553
20
334.009425
11
28.211629
21
333.780419
0
LINE
8
annotation
62
1
39
211
10
28.211629
20
333.780419
11
28.189799
21
333.537166
0
LINE
8
annotation
62
1
39
211
10
28.189799
20
333.537166
11
28.189799
21
332.860137
0
LINE
8
annotation
62
1
39
211
10
28.189799
20
332.860137
11
28.189799
21
332.860137
0
LINE
8
annotation
62
1
39
211
10
28.189799
20
332.860137
11
28.211629
21
332.616898
0
LINE
8
annotation
62
1
39
211
10
28.211629
20
332.616898
11
28.274553
21
332.387927
0
LINE
8
annotation
62
1
39
211
10
28.274553
20
332.387927
11
28.374716
21
332.177056
0
LINE
8
annotation
62
1
39
211
10
28.374716
20
332.177056
11
28.508265
21
331.988115
0
LINE
8
annotation
62
1
39
211
10
28.508265
20
331.988115
11
28.671347
21
331.824936
0
LINE
8
annotation
62
1
39
211
10
28.671347
20
331.824936
11
28.860110
21
331.691351
0
LINE
8
annotation
62
1
39
211
10
28.860110
20
331.691351
11
29.070699
21
331.591189
0
LINE
8
annotation
62
1
39
211
10
29.070699
20
331.591189
11
29.299263
21
331.528282
0
LINE
8
annotation
62
1
39
211
10
29.299263
20
331.528282
11
29.541947
21
331.506462
0
LINE
8
annotation
62
1
39
211
10
29.541947
20
331.506462
11
30.894095
21
331.506462
0
LINE
8
annotation
62
1
39
211
10
28.020828
20
328.041034
11
31.065357
21
328.041034
0
LINE
8
annotation
62
1
39
211
10
208.324044
20
106.073516
11
204.116248
21
99.987325
0
LINE
8
annotation
62
1
39
211
10
204.116248
20
99.987325
11
199.907660
21
106.073516
0
LINE
8
annotation
62
1
39
211
10
204.116248
20
100.477100
11
204.116248
21
93.455667
0
LINE
8
annotation
62
1
39
211
10
219.955815
20
99.764592
11
213.057023
21
99.764592
0
LINE
8
annotation
62
1
39
211
10
227.491354
20
93.456063
11
227.491354
21
106.073121
0
LINE
8
annotation
62
1
39
211
10
227.491354
20
106.073121
11
224.686420
21
103.267396
0
LINE
8
annotation
62
1
39
211
10
235.027684
20
93.456063
11
237.832618
21
106.073121
0
LINE
8
annotation
62
1
39
211
10
237.832618
20
106.073121
11
232.221959
21
106.073121
0
LINE
8
annotation
62
1
39
211
10
237.832618
20
100.454550
11
235.027684
21
100.454550
0
LINE
8
boundary
62
5
39
2
10
453.985091
20
23.635127
11
460.038008
21
38.255657
0
LINE
8
boundary
62
5
39
2
10
460.038008
20
38.255657
11
463.652326
21
53.585380
0
LINE
8
boundary
62
5
39
2
10
463.652326
20
53.585380
11
463.277100
21
56.402068
0
LINE
8
boundary
62
5
39
2
10
463.277100
20
56.402068
11
463.290584
21
57.976864
0
LINE
8
boundary
62
5
39
2
10
463.290584
20
57.976864
11
461.144784
21
73.280065
0
LINE
8
boundary
62
5
39
2
10
461.144784
20
73.280065
11
461.737800
21
85.983804
0
LINE
8
boundary
62
5
39
2
10
461.737800
20
85.983804
11
461.361686
21
91.578823
0
LINE
8
boundary
62
5
39
2
10
461.361686
20
91.578823
11
461.480126
21
99.932840
0
LINE
8
boundary
62
5
39
2
10
461.480126
20
99.932840
11
458.893742
21
108.268018
0
LINE
8
boundary
62
5
39
2
10
458.893742
20
108.268018
11
456.754142
21
114.767327
0
LINE
8
boundary
62
5
39
2
10
456.754142
20
114.767327
11
452.410585
21
121.447678
0
LINE
8
boundary
62
5
39
2
10
452.410585
20
121.447678
11
446.742112
21
133.162201
0
LINE
8
boundary
62
5
39
2
10
446.742112
20
133.162201
11
445.616373
21
134.684179
0
LINE
8
boundary
62
5
39
2
10
445.616373
20
134.684179
11
444.960985
21
136.107945
0
LINE
8
boundary
62
5
39
2
10
444.960985
20
136.107945
11
435.930701
21
143.695903
0
LINE
8
boundary
62
5
39
2
10
435.930701
20
143.695903
11
431.028340
21
147.541861
0
LINE
8
boundary
62
5
39
2
10
431.028340
20
147.541861
11
426.527565
21
151.725698
0
LINE
8
boundary
62
5
39
2
10
426.527565
20
151.725698
11
419.632804
21
158.005293
0
LINE
8
boundary
62
5
39
2
10
419.632804
20
158.005293
11
418.763592
21
159.097839
0
LINE
8
boundary
62
5
39
2
10
418.763592
20
159.097839
11
417.721267
21
161.790539
0
LINE
8
boundary
62
5
39
2
10
417.721267
20
161.790539
11
415.165011
21
165.591567
0
LINE
8
boundary
62
5
39
2
10
415.165011
20
165.591567
11
413.765814
21
167.457998
0
LINE
8
boundary
62
5
39
2
10
413.765814
20
167.457998
11
411.503792
21
172.281363
0
LINE
8
boundary
62
5
39
2
10
411.503792
20
172.281363
11
409.730212
21
178.268026
0
LINE
8
boundary
62
5
39
2
10
409.730212
20
178.268026
11
409.480023
21
179.547712
0
LINE
8
boundary
62
5
39
2
10
409.480023
20
179.547712
11
409.256483
21
181.976645
0
LINE
8
boundary
62
5
39
2
10
409.256483
20
181.976645
11
407.976639
21
187.086829
0
LINE
8
boundary
62
5
39
2
10
407.976639
20
187.086829
11
407.065703
21
190.488950
0
LINE
8
boundary
62
5
39
2
10
407.065703
20
190.488950
11
405.980154
21
195.438639
0
LINE
8
boundary
62
5
39
2
10
405.980154
20
195.438639
11
403.574288
21
204.593120
0
LINE
8
boundary
62
5
39
2
10
403.574288
20
204.593120
11
400.811501
21
216.068709
0
LINE
8
boundary
62
5
39
2
10
400.811501
20
216.068709
11
398.949262
21
225.375027
0
LINE
8
boundary
62
5
39
2
10
398.949262
20
225.375027
11
398.337302
21
228.112762
0
LINE
8
boundary
62
5
39
2
10
398.337302
20
228.112762
11
397.754900
21
230.405633
0
LINE
8
boundary
62
5
39
2
10
397.754900
20
230.405633
11
386.726528
21
248.834439
0
LINE
8
boundary
62
5
39
2
10
386.726528
20
248.834439
11
378.507422
21
259.942047
0
LINE
8
boundary
62
5
39
2
10
378.507422
20
259.942047
11
372.041738
21
268.571874
0
LINE
8
boundary
62
5
39
2
10
372.041738
20
268.571874
11
369.271070
21
271.593749
0
LINE
8
boundary
62
5
39
2
10
369.271070
20
271.593749
11
362.920137
21
277.601401
0
LINE
8
boundary
62
5
39
2
10
362.920137
20
277.601401
11
359.343792
21
281.070440
0
LINE
8
boundary
62
5
39
2
10
359.343792
20
281.070440
11
356.918486
21
283.581294
0
LINE
8
boundary
62
5
39
2
10
356.918486
20
283.581294
11
347.989277
21
289.310540
0
LINE
8
boundary
62
5
39
2
10
347.989277
20
289.310540
11
341.214935
21
294.161270
0
LINE
8
boundary
62
5
39
2
10
341.214935
20
294.161270
11
336.058437
21
296.904803
0
LINE
8
boundary
62
5
39
2
10
336.058437
20
296.904803
11
327.964852
21
300.808747
0
LINE
8
boundary
62
5
39
2
10
327.964852
20
300.808747
11
325.155069
21
302.162331
0
LINE
8
boundary
62
5
39
2
10
325.155069
20
302.162331
11
316.472369
21
305.547556
0
LINE
8
boundary
62
5
39
2
10
316.472369
20
305.547556
11
315.155453
21
306.226377
0
LINE
8
boundary
62
5
39
2
10
315.155453
20
306.226377
11
313.756352
21
306.940485
0
LINE
8
boundary
62
5
39
2
10
313.756352
20
306.940485
11
313.756352
21
281.197808
0
LINE
8
boundary
62
5
39
2
10
313.756352
20
281.197808
11
318.211666
21
280.757708
0
LINE
8
boundary
62
5
39
2
10
318.211666
20
280.757708
11
338.114921
21
280.757708
0
LINE
8
boundary
62
5
39
2
10
338.114921
20
280.757708
11
338.114922
21
276.706708
0
LINE
8
boundary
62
5
39
2
10
338.114922
20
276.706708
11
318.211667
21
276.706708
0
LINE
8
boundary
62
5
39
2
10
318.211667
20
276.706708
11
313.756352
21
276.266608
0
LINE
8
boundary
62
5
39
2
10
313.756352
20
276.266608
11
313.756352
21
221.228046
0
LINE
8
boundary
62
5
39
2
10
313.756352
20
221.228046
11
318.211666
21
220.787946
0
LINE
8
boundary
62
5
39
2
10
318.211666
20
220.787946
11
356.897548
21
220.787946
0
LINE
8
boundary
62
5
39
2
10
356.897548
20
220.787946
11
356.897548
21
216.736946
0
LINE
8
boundary
62
5
39
2
10
356.897548
20
216.736946
11
318.211667
21
216.736946
0
LINE
8
boundary
62
5
39
2
10
318.211667
20
216.736946
11
313.756352
21
216.296846
0
LINE
8
boundary
62
5
39
2
10
313.756352
20
216.296846
11
313.756352
21
167.639304
0
LINE
8
boundary
62
5
39
2
10
313.756352
20
167.639304
11
318.211666
21
167.199204
0
LINE
8
boundary
62
5
39
2
10
318.211666
20
167.199204
11
365.107283
21
167.199204
0
LINE
8
boundary
62
5
39
2
10
365.107283
20
167.199204
11
365.107283
21
163.148204
0
LINE
8
boundary
62
5
39
2
10
365.107283
20
163.148204
11
318.211666
21
163.148204
0
LINE
8
boundary
62
5
39
2
10
318.211666
20
163.148204
11
313.756352
21
162.708104
0
LINE
8
boundary
62
5
39
2
10
313.756352
20
162.708104
11
313.756352
21
128.202951
0
LINE
8
boundary
62
5
39
2
10
313.756352
20
128.202951
11
318.211666
21
127.762851
0
LINE
8
boundary
62
5
39
2
10
318.211666
20
127.762851
11
382.360669
21
127.762851
0
LINE
8
boundary
62
5
39
2
10
382.360669
20
127.762851
11
382.360670
21
123.711851
0
LINE
8
boundary
62
5
39
2
10
382.360670
20
123.711851
11
318.345049
21
123.711851
0
LINE
8
boundary
62
5
39
2
10
318.345049
20
123.711851
11
313.889734
21
123.271751
0
LINE
8
boundary
62
5
39
2
10
313.889734
20
123.271751
11
320.043726
21
118.973552
0
LINE
8
boundary
62
5
39
2
10
320.043726
20
118.973552
11
321.382432
21
117.648304
0
LINE
8
boundary
62
5
39
2
10
321.382432
20
117.648304
11
332.531925
21
108.489940
0
LINE
8
boundary
62
5
39
2
10
332.531925
20
108.489940
11
342.728024
21
98.279198
0
LINE
8
boundary
62
5
39
2
10
342.728024
20
98.279198
11
348.428028
21
88.766599
0
LINE
8
boundary
62
5
39
2
10
348.428028
20
88.766599
11
352.883342
21
88.326499
0
LINE
8
boundary
62
5
39
2
10
352.883342
20
88.326499
11
405.029108
21
88.326499
0
LINE
8
boundary
62
5
39
2
10
405.029108
20
88.326499
11
405.029108
21
84.275498
0
LINE
8
boundary
62
5
39
2
10
405.029108
20
84.275498
11
355.110533
21
84.275499
0
LINE
8
boundary
62
5
39
2
10
355.110533
20
84.275499
11
350.655218
21
83.835399
0
LINE
8
boundary
62
5
39
2
10
350.655218
20
83.835399
11
352.492930
21
77.086416
0
LINE
8
boundary
62
5
39
2
10
352.492930
20
77.086416
11
353.729897
21
72.569291
0
LINE
8
boundary
62
5
39
2
10
353.729897
20
72.569291
11
357.889388
21
57.464981
0
LINE
8
boundary
62
5
39
2
10
357.889388
20
57.464981
11
358.222806
21
56.615868
0
LINE
8
boundary
62
5
39
2
10
358.222806
20
56.615868
11
361.252112
21
49.330246
0
LINE
8
boundary
62
5
39
2
10
361.252112
20
49.330246
11
365.707426
21
48.890146
0
LINE
8
boundary
62
5
39
2
10
365.707426
20
48.890146
11
411.815211
21
48.890146
0
LINE
8
boundary
62
5
39
2
10
411.815211
20
48.890146
11
411.815212
21
44.839146
0
LINE
8
boundary
62
5
39
2
10
411.815212
20
44.839146
11
367.757781
21
44.839146
0
LINE
8
boundary
62
5
39
2
10
367.757781
20
44.839146
11
363.302467
21
44.399046
0
LINE
8
boundary
62
5
39
2
10
363.302467
20
44.399046
11
364.166743
21
42.320421
0
LINE
8
boundary
62
5
39
2
10
364.166743
20
42.320421
11
367.516683
21
36.184097
0
LINE
8
boundary
62
5
39
2
10
367.516683
20
36.184097
11
373.154014
21
26.343313
0
LINE
8
boundary
62
5
39
2
10
373.154014
20
26.343313
11
378.455117
21
20.906040
0
LINE
8
boundary
62
5
39
2
10
378.455117
20
20.906040
11
391.542445
21
11.561130
0
LINE
8
boundary
62
5
39
2
10
391.542445
20
11.561130
11
396.922445
21
9.893894
0
LINE
8
boundary
62
5
39
2
10
396.922445
20
9.893894
11
401.377759
21
9.453793
0
LINE
8
boundary
62
5
39
2
10
401.377759
20
9.453793
11
414.744580
21
9.453794
0
LINE
8
boundary
62
5
39
2
10
414.744580
20
9.453794
11
414.744580
21
7.561144
0
LINE
8
boundary
62
5
39
2
10
414.744580
20
7.561144
11
423.586643
21
6.729386
0
LINE
8
boundary
62
5
39
2
10
423.586643
20
6.729386
11
424.302114
21
6.687500
0
LINE
8
boundary
62
5
39
2
10
424.302114
20
6.687500
11
425.009012
21
6.888906
0
LINE
8
boundary
62
5
39
2
10
425.009012
20
6.888906
11
450.719950
21
17.053871
0
LINE
8
boundary
62
5
39
2
10
450.719950
20
17.053871
11
452.291381
21
19.874825
0
LINE
8
boundary
62
5
39
2
10
452.291381
20
19.874825
11
453.985091
21
23.635127
0
LINE
8
annotation
62
1
39
211
10
415.067790
20
7.356198
11
415.099812
21
7.356198
0
LINE
8
annotation
62
1
39
211
10
415.099812
20
7.356198
11
415.099812
21
7.356198
0
LINE
8
annotation
62
1
39
211
10
415.099812
20
7.356198
11
415.105571
21
7.356715
0
LINE
8
annotation
62
1
39
211
10
415.105571
20
7.356715
11
415.110990
21
7.358204
0
LINE
8
annotation
62
1
39
211
10
415.110990
20
7.358204
11
415.115979
21
7.360574
0
LINE
8
annotation
62
1
39
211
10
415.115979
20
7.360574
11
415.120447
21
7.363733
0
LINE
8
annotation
62
1
39
211
10
415.120447
20
7.363733
11
415.124306
21
7.367591
0
LINE
8
annotation
62
1
39
211
10
415.124306
20
7.367591
11
415.127464
21
7.372055
0
LINE
8
annotation
62
1
39
211
10
415.127464
20
7.372055
11
415.129831
21
7.377035
0
LINE
8
annotation
62
1
39
211
10
415.129831
20
7.377035
11
415.131317
21
7.382438
0
LINE
8
annotation
62
1
39
211
10
415.131317
20
7.382438
11
415.131833
21
7.388174
0
LINE
8
annotation
62
1
39
211
10
415.131833
20
7.388174
11
415.131833
21
7.404208
0
LINE
8
annotation
62
1
39
211
10
415.131833
20
7.404208
11
415.131833
21
7.404208
0
LINE
8
annotation
62
1
39
211
10
415.131833
20
7.404208
11
415.131317
21
7.409941
0
LINE
8
annotation
62
1
39
211
10
415.131317
20
7.409941
11
415.129831
21
7.415344
0
LINE
8
annotation
62
1
39
211
10
415.129831
20
7.415344
11
415.127464
21
7.420323
0
LINE
8
annotation
62
1
39
211
10
415.127464
20
7.420323
11
415.124306
21
7.424787
0
LINE
8
annotation
62
1
39
211
10
415.124306
20
7.424787
11
415.120447
21
7.428646
0
LINE
8
annotation
62
1
39
211
10
415.120447
20
7.428646
11
415.115979
21
7.431806
0
LINE
8
annotation
62
1
39
211
10
415.115979
20
7.431806
11
415.110990
21
7.434177
0
LINE
8
annotation
62
1
39
211
10
415.110990
20
7.434177
11
415.105571
21
7.435667
0
LINE
8
annotation
62
1
39
211
10
415.105571
20
7.435667
11
415.099812
21
7.436184
0
LINE
8
annotation
62
1
39
211
10
415.099812
20
7.436184
11
415.083778
21
7.436184
0
LINE
8
annotation
62
1
39
211
10
415.083778
20
7.436184
11
415.099812
21
7.436184
0
LINE
8
annotation
62
1
39
211
10
415.099812
20
7.436184
11
415.099812
21
7.436184
0
LINE
8
annotation
62
1
39
211
10
415.099812
20
7.436184
11
415.105571
21
7.436701
0
LINE
8
annotation
62
1
39
211
10
415.105571
20
7.436701
11
415.110990
21
7.438191
0
LINE
8
annotation
62
1
39
211
10
415.110990
20
7.438191
11
415.115979
21
7.440564
0
LINE
8
annotation
62
1
39
211
10
415.115979
20
7.440564
11
415.120447
21
7.443729
0
LINE
8
annotation
62
1
39
211
10
415.120447
20
7.443729
11
415.124306
21
7.447595
0
LINE
8
annotation
62
1
39
211
10
415.124306
20
7.447595
11
415.127464
21
7.452071
0
LINE
8
annotation
62
1
39
211
10
415.127464
20
7.452071
11
415.129831
21
7.457066
0
LINE
8
annotation
62
1
39
211
10
415.129831
20
7.457066
11
415.131317
21
7.462489
0
LINE
8
annotation
62
1
39
211
10
415.131317
20
7.462489
11
415.131833
21
7.468250
0
LINE
8
annotation
62
1
39
211
10
415.131833
20
7.468250
11
415.131833
21
7.468250
0
LINE
8
annotation
62
1
39
211
10
415.131833
20
7.468250
11
415.131317
21
7.473984
0
LINE
8
annotation
62
1
39
211
10
415.131317
20
7.473984
11
415.129831
21
7.479386
0
LINE
8
annotation
62
1
39
211
10
415.129831
20
7.479386
11
415.127464
21
7.484365
0
LINE
8
annotation
62
1
39
211
10
415.127464
20
7.484365
11
415.124306
21
7.488830
0
LINE
8
annotation
62
1
39
211
10
415.124306
20
7.488830
11
415.120447
21
7.492688
0
LINE
8
annotation
62
1
39
211
10
415.120447
20
7.492688
11
415.115979
21
7.495849
0
LINE
8
annotation
62
1
39
211
10
415.115979
20
7.495849
11
415.110990
21
7.498219
0
LINE
8
annotation
62
1
39
211
10
415.110990
20
7.498219
11
415.105571
21
7.499709
0
LINE
8
annotation
62
1
39
211
10
415.105571
20
7.499709
11
415.099812
21
7.500226
0
LINE
8
annotation
62
1
39
211
10
415.099812
20
7.500226
11
415.067790
21
7.500226
0
LINE
8
annotation
62
1
39
211
10
422.746249
20
44.909284
11
418.836408
21
44.909284
0
LINE
8
annotation
62
1
39
211
10
418.836408
20
44.909284
11
420.397871
21
50.385446
0
LINE
8
annotation
62
1
39
211
10
421.574268
20
43.343846
11
421.574268
21
46.471189
0
LINE
8
annotation
62
1
39
211
10
412.441553
20
82.780199
11
414.005225
21
82.780199
0
LINE
8
annotation
62
1
39
211
10
414.005225
20
82.780199
11
414.005225
21
82.780199
0
LINE
8
annotation
62
1
39
211
10
414.005225
20
82.780199
11
414.285873
21
82.805432
0
LINE
8
annotation
62
1
39
211
10
414.285873
20
82.805432
11
414.550192
21
82.878180
0
LINE
8
annotation
62
1
39
211
10
414.550192
20
82.878180
11
414.793725
21
82.994010
0
LINE
8
annotation
62
1
39
211
10
414.793725
20
82.994010
11
415.012017
21
83.148493
0
LINE
8
annotation
62
1
39
211
10
415.012017
20
83.148493
11
415.200611
21
83.337199
0
LINE
8
annotation
62
1
39
211
10
415.200611
20
83.337199
11
415.355052
21
83.555697
0
LINE
8
annotation
62
1
39
211
10
415.355052
20
83.555697
11
415.470884
21
83.799556
0
LINE
8
annotation
62
1
39
211
10
415.470884
20
83.799556
11
415.543650
21
84.064346
0
LINE
8
annotation
62
1
39
211
10
415.543650
20
84.064346
11
415.568896
21
84.345636
0
LINE
8
annotation
62
1
39
211
10
415.568896
20
84.345636
11
415.568896
21
85.124602
0
LINE
8
annotation
62
1
39
211
10
415.568896
20
85.124602
11
415.568896
21
85.124602
0
LINE
8
annotation
62
1
39
211
10
415.568896
20
85.124602
11
415.543665
21
85.405756
0
LINE
8
annotation
62
1
39
211
10
415.543665
20
85.405756
11
415.470934
21
85.670181
0
LINE
8
annotation
62
1
39
211
10
415.470934
20
85.670181
11
415.355150
21
85.913511
0
LINE
8
annotation
62
1
39
211
10
415.355150
20
85.913511
11
415.200756
21
86.131382
0
LINE
8
annotation
62
1
39
211
10
415.200756
20
86.131382
11
415.012198
21
86.319428
0
LINE
8
annotation
62
1
39
211
10
415.012198
20
86.319428
11
414.793921
21
86.473284
0
LINE
8
annotation
62
1
39
211
10
414.793921
20
86.473284
11
414.550370
21
86.588586
0
LINE
8
annotation
62
1
39
211
10
414.550370
20
86.588586
11
414.285989
21
86.660968
0
LINE
8
annotation
62
1
39
211
10
414.285989
20
86.660968
11
414.005225
21
86.686065
0
LINE
8
annotation
62
1
39
211
10
414.005225
20
86.686065
11
412.441553
21
86.686065
0
LINE
8
annotation
62
1
39
211
10
412.441553
20
86.686065
11
412.441553
21
89.821799
0
LINE
8
annotation
62
1
39
211
10
412.441553
20
89.821799
11
415.568896
21
89.821799
0
LINE
8
annotation
62
1
39
211
10
392.121934
20
129.258151
11
392.121934
21
129.258151
0
LINE
8
annotation
62
1
39
211
10
392.121934
20
129.258151
11
391.673982
21
129.090196
0
LINE
8
annotation
62
1
39
211
10
391.673982
20
129.090196
11
391.262926
21
128.863896
0
LINE
8
annotation
62
1
39
211
10
391.262926
20
128.863896
11
390.892988
21
128.584922
0
LINE
8
annotation
62
1
39
211
10
390.892988
20
128.584922
11
390.568387
21
128.258943
0
LINE
8
annotation
62
1
39
211
10
390.568387
20
128.258943
11
390.293341
21
127.891629
0
LINE
8
annotation
62
1
39
211
10
390.293341
20
127.891629
11
390.072072
21
127.488650
0
LINE
8
annotation
62
1
39
211
10
390.072072
20
127.488650
11
389.908798
21
127.055675
0
LINE
8
annotation
62
1
39
211
10
389.908798
20
127.055675
11
389.807739
21
126.598374
0
LINE
8
annotation
62
1
39
211
10
389.807739
20
126.598374
11
389.773115
21
126.122418
0
LINE
8
annotation
62
1
39
211
10
389.773115
20
126.122418
11
389.773115
21
123.781989
0
LINE
8
annotation
62
1
39
211
10
389.773115
20
123.781989
11
389.773115
21
123.781989
0
LINE
8
annotation
62
1
39
211
10
389.773115
20
123.781989
11
389.798361
21
123.500698
0
LINE
8
annotation
62
1
39
211
10
389.798361
20
123.500698
11
389.871127
21
123.235908
0
LINE
8
annotation
62
1
39
211
10
389.871127
20
123.235908
11
389.986959
21
122.992049
0
LINE
8
annotation
62
1
39
211
10
389.986959
20
122.992049
11
390.141400
21
122.773552
0
LINE
8
annotation
62
1
39
211
10
390.141400
20
122.773552
11
390.329994
21
122.584846
0
LINE
8
annotation
62
1
39
211
10
390.329994
20
122.584846
11
390.548286
21
122.430363
0
LINE
8
annotation
62
1
39
211
10
390.548286
20
122.430363
11
390.791819
21
122.314532
0
LINE
8
annotation
62
1
39
211
10
390.791819
20
122.314532
11
391.056138
21
122.241785
0
LINE
8
annotation
62
1
39
211
10
391.056138
20
122.241785
11
391.336786
21
122.216551
0
LINE
8
annotation
62
1
39
211
10
391.336786
20
122.216551
11
391.336786
21
122.216551
0
LINE
8
annotation
62
1
39
211
10
391.336786
20
122.216551
11
391.618017
21
122.241785
0
LINE
8
annotation
62
1
39
211
10
391.618017
20
122.241785
11
391.882644
21
122.314532
0
LINE
8
annotation
62
1
39
211
10
391.882644
20
122.314532
11
392.126268
21
122.430363
0
LINE
8
annotation
62
1
39
211
10
392.126268
20
122.430363
11
392.344487
21
122.584846
0
LINE
8
annotation
62
1
39
211
10
392.344487
20
122.584846
11
392.532900
21
122.773552
0
LINE
8
annotation
62
1
39
211
10
392.532900
20
122.773552
11
392.687104
21
122.992049
0
LINE
8
annotation
62
1
39
211
10
392.687104
20
122.992049
11
392.802700
21
123.235908
0
LINE
8
annotation
62
1
39
211
10
392.802700
20
123.235908
11
392.875285
21
123.500698
0
LINE
8
annotation
62
1
39
211
10
392.875285
20
123.500698
11
392.900458
21
123.781989
0
LINE
8
annotation
62
1
39
211
10
392.900458
20
123.781989
11
392.900458
21
124.560954
0
LINE
8
annotation
62
1
39
211
10
392.900458
20
124.560954
11
392.900458
21
124.560954
0
LINE
8
annotation
62
1
39
211
10
392.900458
20
124.560954
11
392.875285
21
124.842109
0
LINE
8
annotation
62
1
39
211
10
392.875285
20
124.842109
11
392.802700
21
125.106534
0
LINE
8
annotation
62
1
39
211
10
392.802700
20
125.106534
11
392.687104
21
125.349864
0
LINE
8
annotation
62
1
39
211
10
392.687104
20
125.349864
11
392.532900
21
125.567734
0
LINE
8
annotation
62
1
39
211
10
392.532900
20
125.567734
11
392.344487
21
125.755780
0
LINE
8
annotation
62
1
39
211
10
392.344487
20
125.755780
11
392.126268
21
125.909637
0
LINE
8
annotation
62
1
39
211
10
392.126268
20
125.909637
11
391.882644
21
126.024939
0
LINE
8
annotation
62
1
39
211
10
391.882644
20
126.024939
11
391.618017
21
126.097321
0
LINE
8
annotation
62
1
39
211
10
391.618017
20
126.097321
11
391.336786
21
126.122418
0
LINE
8
annotation
62
1
39
211
10
391.336786
20
126.122418
11
389.773115
21
126.122418
0
LINE
8
annotation
62
1
39
211
10
389.577270
20
121.336351
11
393.098070
21
121.336351
0
LINE
8
annotation
62
1
39
211
10
374.083400
20
161.652904
11
375.648838
21
168.694504
0
LINE
8
annotation
62
1
39
211
10
375.648838
20
168.694504
11
372.517520
21
168.694504
0
LINE
8
annotation
62
1
39
211
10
375.648838
20
165.558771
11
374.083400
21
165.558771
0
LINE
8
annotation
62
1
39
211
10
364.309994
20
216.802889
11
364.309994
21
216.802889
0
LINE
8
annotation
62
1
39
211
10
364.309994
20
216.802889
11
364.335239
21
216.521734
0
LINE
8
annotation
62
1
39
211
10
364.335239
20
216.521734
11
364.408006
21
216.257310
0
LINE
8
annotation
62
1
39
211
10
364.408006
20
216.257310
11
364.523838
21
216.013979
0
LINE
8
annotation
62
1
39
211
10
364.523838
20
216.013979
11
364.678279
21
215.796109
0
LINE
8
annotation
62
1
39
211
10
364.678279
20
215.796109
11
364.866873
21
215.608063
0
LINE
8
annotation
62
1
39
211
10
364.866873
20
215.608063
11
365.085165
21
215.454206
0
LINE
8
annotation
62
1
39
211
10
365.085165
20
215.454206
11
365.328698
21
215.338905
0
LINE
8
annotation
62
1
39
211
10
365.328698
20
215.338905
11
365.593017
21
215.266522
0
LINE
8
annotation
62
1
39
211
10
365.593017
20
215.266522
11
365.873665
21
215.241425
0
LINE
8
annotation
62
1
39
211
10
365.873665
20
215.241425
11
365.873665
21
215.241425
0
LINE
8
annotation
62
1
39
211
10
365.873665
20
215.241425
11
366.154314
21
215.266522
0
LINE
8
annotation
62
1
39
211
10
366.154314
20
215.266522
11
366.418632
21
215.338905
0
LINE
8
annotation
62
1
39
211
10
366.418632
20
215.338905
11
366.662166
21
215.454206
0
LINE
8
annotation
62
1
39
211
10
366.662166
20
215.454206
11
366.880457
21
215.608063
0
LINE
8
annotation
62
1
39
211
10
366.880457
20
215.608063
11
367.069051
21
215.796109
0
LINE
8
annotation
62
1
39
211
10
367.069051
20
215.796109
11
367.223492
21
216.013979
0
LINE
8
annotation
62
1
39
211
10
367.223492
20
216.013979
11
367.339324
21
216.257310
0
LINE
8
annotation
62
1
39
211
10
367.339324
20
216.257310
11
367.412091
21
216.521734
0
LINE
8
annotation
62
1
39
211
10
367.412091
20
216.521734
11
367.437337
21
216.802889
0
LINE
8
annotation
62
1
39
211
10
367.437337
20
216.802889
11
367.437337
21
217.581854
0
LINE
8
annotation
62
1
39
211
10
367.437337
20
217.581854
11
367.437337
21
217.581854
0
LINE
8
annotation
62
1
39
211
10
367.437337
20
217.581854
11
367.412105
21
217.863145
0
LINE
8
annotation
62
1
39
211
10
367.412105
20
217.863145
11
367.339375
21
218.127935
0
LINE
8
annotation
62
1
39
211
10
367.339375
20
218.127935
11
367.223591
21
218.371794
0
LINE
8
annotation
62
1
39
211
10
367.223591
20
218.371794
11
367.069197
21
218.590291
0
LINE
8
annotation
62
1
39
211
10
367.069197
20
218.590291
11
366.880639
21
218.778997
0
LINE
8
annotation
62
1
39
211
10
366.880639
20
218.778997
11
366.662362
21
218.933480
0
LINE
8
annotation
62
1
39
211
10
366.662362
20
218.933480
11
366.418811
21
219.049311
0
LINE
8
annotation
62
1
39
211
10
366.418811
20
219.049311
11
366.154430
21
219.122058
0
LINE
8
annotation
62
1
39
211
10
366.154430
20
219.122058
11
365.873665
21
219.147292
0
LINE
8
annotation
62
1
39
211
10
365.873665
20
219.147292
11
365.873665
21
219.147292
0
LINE
8
annotation
62
1
39
211
10
365.873665
20
219.147292
11
365.592900
21
219.122044
0
LINE
8
annotation
62
1
39
211
10
365.592900
20
219.122044
11
365.328520
21
219.049260
0
LINE
8
annotation
62
1
39
211
10
365.328520
20
219.049260
11
365.084968
21
218.933382
0
LINE
8
annotation
62
1
39
211
10
365.084968
20
218.933382
11
364.866691
21
218.778852
0
LINE
8
annotation
62
1
39
211
10
364.866691
20
218.778852
11
364.678133
21
218.590110
0
LINE
8
annotation
62
1
39
211
10
364.678133
20
218.590110
11
364.523740
21
218.371598
0
LINE
8
annotation
62
1
39
211
10
364.523740
20
218.371598
11
364.407955
21
218.127757
0
LINE
8
annotation
62
1
39
211
10
364.407955
20
218.127757
11
364.335225
21
217.863028
0
LINE
8
annotation
62
1
39
211
10
364.335225
20
217.863028
11
364.309994
21
217.581854
0
LINE
8
annotation
62
1
39
211
10
364.309994
20
217.581854
11
364.309994
21
216.802889
0
LINE
8
annotation
62
1
39
211
10
367.437337
20
220.713171
11
367.437337
21
220.713171
0
LINE
8
annotation
62
1
39
211
10
367.437337
20
220.713171
11
367.412105
21
220.993163
0
LINE
8
annotation
62
1
39
211
10
367.412105
20
220.993163
11
367.339375
21
221.256970
0
LINE
8
annotation
62
1
39
211
10
367.339375
20
221.256970
11
367.223591
21
221.500118
0
LINE
8
annotation
62
1
39
211
10
367.223591
20
221.500118
11
367.069197
21
221.718134
0
LINE
8
annotation
62
1
39
211
10
367.069197
20
221.718134
11
366.880639
21
221.906544
0
LINE
8
annotation
62
1
39
211
10
366.880639
20
221.906544
11
366.662362
21
222.060872
0
LINE
8
annotation
62
1
39
211
10
366.662362
20
222.060872
11
366.418811
21
222.176647
0
LINE
8
annotation
62
1
39
211
10
366.418811
20
222.176647
11
366.154430
21
222.249392
0
LINE
8
annotation
62
1
39
211
10
366.154430
20
222.249392
11
365.873665
21
222.274635
0
LINE
8
annotation
62
1
39
211
10
365.873665
20
222.274635
11
365.873665
21
222.274635
0
LINE
8
annotation
62
1
39
211
10
365.873665
20
222.274635
11
365.592900
21
222.249392
0
LINE
8
annotation
62
1
39
211
10
365.592900
20
222.249392
11
365.328520
21
222.176647
0
LINE
8
annotation
62
1
39
211
10
365.328520
20
222.176647
11
365.084968
21
222.060872
0
LINE
8
annotation
62
1
39
211
10
365.084968
20
222.060872
11
364.866691
21
221.906544
0
LINE
8
annotation
62
1
39
211
10
364.866691
20
221.906544
11
364.678133
21
221.718134
0
LINE
8
annotation
62
1
39
211
10
364.678133
20
221.718134
11
364.523740
21
221.500118
0
LINE
8
annotation
62
1
39
211
10
364.523740
20
221.500118
11
364.407955
21
221.256970
0
LINE
8
annotation
62
1
39
211
10
364.407955
20
221.256970
11
364.335225
21
220.993163
0
LINE
8
annotation
62
1
39
211
10
364.335225
20
220.993163
11
364.309994
21
220.713171
0
LINE
8
annotation
62
1
39
211
10
364.309994
20
220.713171
11
364.309994
21
220.713171
0
LINE
8
annotation
62
1
39
211
10
364.309994
20
220.713171
11
364.335239
21
220.431866
0
LINE
8
annotation
62
1
39
211
10
364.335239
20
220.431866
11
364.408006
21
220.167035
0
LINE
8
annotation
62
1
39
211
10
364.408006
20
220.167035
11
364.523838
21
219.923117
0
LINE
8
annotation
62
1
39
211
10
364.523838
20
219.923117
11
364.678279
21
219.704550
0
LINE
8
annotation
62
1
39
211
10
364.678279
20
219.704550
11
364.866873
21
219.515771
0
LINE
8
annotation
62
1
39
211
10
364.866873
20
219.515771
11
365.085165
21
219.361218
0
LINE
8
annotation
62
1
39
211
10
365.085165
20
219.361218
11
365.328698
21
219.245329
0
LINE
8
annotation
62
1
39
211
10
365.328698
20
219.245329
11
365.593017
21
219.172541
0
LINE
8
annotation
62
1
39
211
10
365.593017
20
219.172541
11
365.873665
21
219.147292
0
LINE
8
annotation
62
1
39
211
10
365.873665
20
219.147292
11
365.873665
21
219.147292
0
LINE
8
annotation
62
1
39
211
10
365.873665
20
219.147292
11
366.154314
21
219.172541
0
LINE
8
annotation
62
1
39
211
10
366.154314
20
219.172541
11
366.418632
21
219.245329
0
LINE
8
annotation
62
1
39
211
10
366.418632
20
219.245329
11
366.662166
21
219.361218
0
LINE
8
annotation
62
1
39
211
10
366.662166
20
219.361218
11
366.880457
21
219.515771
0
LINE
8
annotation
62
1
39
211
10
366.880457
20
219.515771
11
367.069051
21
219.704550
0
LINE
8
annotation
62
1
39
211
10
367.069051
20
219.704550
11
367.223492
21
219.923117
0
LINE
8
annotation
62
1
39
211
10
367.223492
20
219.923117
11
367.339324
21
220.167035
0
LINE
8
annotation
62
1
39
211
10
367.339324
20
220.167035
11
367.412091
21
220.431866
0
LINE
8
annotation
62
1
39
211
10
367.412091
20
220.431866
11
367.437337
21
220.713171
0
LINE
8
annotation
62
1
39
211
10
346.308098
20
275.211408
11
346.308098
21
275.211408
0
LINE
8
annotation
62
1
39
211
10
346.308098
20
275.211408
11
346.755262
21
275.378043
0
LINE
8
annotation
62
1
39
211
10
346.755262
20
275.378043
11
347.165703
21
275.603281
0
LINE
8
annotation
62
1
39
211
10
347.165703
20
275.603281
11
347.535180
21
275.881382
0
LINE
8
annotation
62
1
39
211
10
347.535180
20
275.881382
11
347.859451
21
276.206608
0
LINE
8
annotation
62
1
39
211
10
347.859451
20
276.206608
11
348.134274
21
276.573220
0
LINE
8
annotation
62
1
39
211
10
348.134274
20
276.573220
11
348.355409
21
276.975480
0
LINE
8
annotation
62
1
39
211
10
348.355409
20
276.975480
11
348.518614
21
277.407647
0
LINE
8
annotation
62
1
39
211
10
348.518614
20
277.407647
11
348.619648
21
277.863984
0
LINE
8
annotation
62
1
39
211
10
348.619648
20
277.863984
11
348.654268
21
278.338751
0
LINE
8
annotation
62
1
39
211
10
348.654268
20
278.338751
11
348.654268
21
280.687128
0
LINE
8
annotation
62
1
39
211
10
348.654268
20
280.687128
11
348.654268
21
280.687128
0
LINE
8
annotation
62
1
39
211
10
348.654268
20
280.687128
11
348.629095
21
280.968434
0
LINE
8
annotation
62
1
39
211
10
348.629095
20
280.968434
11
348.556510
21
281.233265
0
LINE
8
annotation
62
1
39
211
10
348.556510
20
281.233265
11
348.440914
21
281.477183
0
LINE
8
annotation
62
1
39
211
10
348.440914
20
281.477183
11
348.286710
21
281.695750
0
LINE
8
annotation
62
1
39
211
10
348.286710
20
281.695750
11
348.098297
21
281.884529
0
LINE
8
annotation
62
1
39
211
10
348.098297
20
281.884529
11
347.880078
21
282.039082
0
LINE
8
annotation
62
1
39
211
10
347.880078
20
282.039082
11
347.636454
21
282.154971
0
LINE
8
annotation
62
1
39
211
10
347.636454
20
282.154971
11
347.371827
21
282.227759
0
LINE
8
annotation
62
1
39
211
10
347.371827
20
282.227759
11
347.090597
21
282.253008
0
LINE
8
annotation
62
1
39
211
10
347.090597
20
282.253008
11
347.090597
21
282.253008
0
LINE
8
annotation
62
1
39
211
10
347.090597
20
282.253008
11
346.809948
21
282.227759
0
LINE
8
annotation
62
1
39
211
10
346.809948
20
282.227759
11
346.545629
21
282.154971
0
LINE
8
annotation
62
1
39
211
10
346.545629
20
282.154971
11
346.302096
21
282.039082
0
LINE
8
annotation
62
1
39
211
10
346.302096
20
282.039082
11
346.083804
21
281.884529
0
LINE
8
annotation
62
1
39
211
10
346.083804
20
281.884529
11
345.895210
21
281.695750
0
LINE
8
annotation
62
1
39
211
10
345.895210
20
281.695750
11
345.740769
21
281.477183
0
LINE
8
annotation
62
1
39
211
10
345.740769
20
281.477183
11
345.624938
21
281.233265
0
LINE
8
annotation
62
1
39
211
10
345.624938
20
281.233265
11
345.552171
21
280.968434
0
LINE
8
annotation
62
1
39
211
10
345.552171
20
280.968434
11
345.526925
21
280.687128
0
LINE
8
annotation
62
1
39
211
10
345.526925
20
280.687128
11
345.526925
21
279.904189
0
LINE
8
annotation
62
1
39
211
10
345.526925
20
279.904189
11
345.526925
21
279.904189
0
LINE
8
annotation
62
1
39
211
10
345.526925
20
279.904189
11
345.552171
21
279.622898
0
LINE
8
annotation
62
1
39
211
10
345.552171
20
279.622898
11
345.624938
21
279.358108
0
LINE
8
annotation
62
1
39
211
10
345.624938
20
279.358108
11
345.740769
21
279.114249
0
LINE
8
annotation
62
1
39
211
10
345.740769
20
279.114249
11
345.895210
21
278.895751
0
LINE
8
annotation
62
1
39
211
10
345.895210
20
278.895751
11
346.083804
21
278.707046
0
LINE
8
annotation
62
1
39
211
10
346.083804
20
278.707046
11
346.302096
21
278.552562
0
LINE
8
annotation
62
1
39
211
10
346.302096
20
278.552562
11
346.545629
21
278.436732
0
LINE
8
annotation
62
1
39
211
10
346.545629
20
278.436732
11
346.809948
21
278.363984
0
LINE
8
annotation
62
1
39
211
10
346.809948
20
278.363984
11
347.090597
21
278.338751
0
LINE
8
annotation
62
1
39
211
10
347.090597
20
278.338751
11
348.654268
21
278.338751
0
LINE
8
annotation
62
1
39
211
10
345.331521
20
274.331208
11
348.852321
21
274.331208
0
LINE
8
annotation
62
1
39
211
10
421.897188
20
73.072907
11
418.291984
21
67.858310
0
LINE
8
annotation
62
1
39
211
10
418.291984
20
67.858310
11
414.686102
21
73.072907
0
LINE
8
annotation
62
1
39
211
10
418.291984
20
68.277945
11
418.291984
21
62.262041
0
LINE
8
annotation
62
1
39
211
10
431.863190
20
67.667474
11
425.952364
21
67.667474
0
LINE
8
annotation
62
1
39
211
10
438.319576
20
62.262380
11
438.319576
21
73.072568
0
LINE
8
annotation
62
1
39
211
10
438.319576
20
73.072568
11
435.916333
21
70.668647
0
LINE
8
annotation
62
1
39
211
10
442.373058
20
62.262719
11
444.773590
21
62.262719
0
LINE
8
annotation
62
1
39
211
10
444.773590
20
62.262719
11
444.773590
21
62.262719
0
LINE
8
annotation
62
1
39
211
10
444.773590
20
62.262719
11
445.205331
21
62.301449
0
LINE
8
annotation
62
1
39
211
10
445.205331
20
62.301449
11
445.611585
21
62.413071
0
LINE
8
annotation
62
1
39
211
10
445.611585
20
62.413071
11
445.985594
21
62.590734
0
LINE
8
annotation
62
1
39
211
10
445.985594
20
62.590734
11
446.320601
21
62.827585
0
LINE
8
annotation
62
1
39
211
10
446.320601
20
62.827585
11
446.609850
21
63.116774
0
LINE
8
annotation
62
1
39
211
10
446.609850
20
63.116774
11
446.846583
21
63.451447
0
LINE
8
annotation
62
1
39
211
10
446.846583
20
63.451447
11
447.024044
21
63.824754
0
LINE
8
annotation
62
1
39
211
10
447.024044
20
63.824754
11
447.135476
21
64.229842
0
LINE
8
annotation
62
1
39
211
10
447.135476
20
64.229842
11
447.174121
21
64.659861
0
LINE
8
annotation
62
1
39
211
10
447.174121
20
64.659861
11
447.174121
21
65.861821
0
LINE
8
annotation
62
1
39
211
10
447.174121
20
65.861821
11
447.174121
21
65.861821
0
LINE
8
annotation
62
1
39
211
10
447.174121
20
65.861821
11
447.135476
21
66.291661
0
LINE
8
annotation
62
1
39
211
10
447.135476
20
66.291661
11
447.024044
21
66.696654
0
LINE
8
annotation
62
1
39
211
10
447.024044
20
66.696654
11
446.846583
21
67.069933
0
LINE
8
annotation
62
1
39
211
10
446.846583
20
67.069933
11
446.609850
21
67.404629
0
LINE
8
annotation
62
1
39
211
10
446.609850
20
67.404629
11
446.320601
21
67.693873
0
LINE
8
annotation
62
1
39
211
10
446.320601
20
67.693873
11
445.985594
21
67.930797
0
LINE
8
annotation
62
1
39
211
10
445.985594
20
67.930797
11
445.611585
21
68.108533
0
LINE
8
annotation
62
1
39
211
10
445.611585
20
68.108533
11
445.205331
21
68.220211
0
LINE
8
annotation
62
1
39
211
10
445.205331
20
68.220211
11
444.773590
21
68.258963
0
LINE
8
annotation
62
1
39
211
10
444.773590
20
68.258963
11
443.571629
21
68.258963
0
LINE
8
annotation
62
1
39
211
10
443.571629
20
68.258963
11
444.773590
21
68.258963
0
LINE
8
annotation
62
1
39
211
10
444.773590
20
68.258963
11
444.773590
21
68.258963
0
LINE
8
annotation
62
1
39
211
10
444.773590
20
68.258963
11
445.205331
21
68.297725
0
LINE
8
annotation
62
1
39
211
10
445.205331
20
68.297725
11
445.611585
21
68.409468
0
LINE
8
annotation
62
1
39
211
10
445.611585
20
68.409468
11
445.985594
21
68.587380
0
LINE
8
annotation
62
1
39
211
10
445.985594
20
68.587380
11
446.320601
21
68.824648
0
LINE
8
annotation
62
1
39
211
10
446.320601
20
68.824648
11
446.609850
21
69.114460
0
LINE
8
annotation
62
1
39
211
10
446.609850
20
69.114460
11
446.846583
21
69.450002
0
LINE
8
annotation
62
1
39
211
10
446.846583
20
69.450002
11
447.024044
21
69.824462
0
LINE
8
annotation
62
1
39
211
10
447.024044
20
69.824462
11
447.135476
21
70.231027
0
LINE
8
annotation
62
1
39
211
10
447.135476
20
70.231027
11
447.174121
21
70.662884
0
LINE
8
annotation
62
1
39
211
10
447.174121
20
70.662884
11
447.174121
21
70.662884
0
LINE
8
annotation
62
1
39
211
10
447.174121
20
70.662884
11
447.135476
21
71.092724
0
LINE
8
annotation
62
1
39
211
10
447.135476
20
71.092724
11
447.024044
21
71.497718
0
LINE
8
annotation
62
1
39
211
10
447.024044
20
71.497718
11
446.846583
21
71.870997
0
LINE
8
annotation
62
1
39
211
10
446.846583
20
71.870997
11
446.609850
21
72.205692
0
LINE
8
annotation
62
1
39
211
10
446.609850
20
72.205692
11
446.320601
21
72.494937
0
LINE
8
annotation
62
1
39
211
10
446.320601
20
72.494937
11
445.985594
21
72.731861
0
LINE
8
annotation
62
1
39
211
10
445.985594
20
72.731861
11
445.611585
21
72.909596
0
LINE
8
annotation
62
1
39
211
10
445.611585
20
72.909596
11
445.205331
21
73.021274
0
LINE
8
annotation
62
1
39
211
10
445.205331
20
73.021274
11
444.773590
21
73.060026
0
LINE
8
annotation
62
1
39
211
10
444.773590
20
73.060026
11
442.373058
21
73.060026
0
LINE
8
boundary
62
5
39
2
10
372.505826
20
310.115485
11
377.704053
21
311.500102
0
LINE
8
boundary
62
5
39
2
10
377.704053
20
311.500102
11
379.255108
21
314.377560
0
LINE
8
boundary
62
5
39
2
10
379.255108
20
314.377560
11
391.546054
21
323.525328
0
LINE
8
boundary
62
5
39
2
10
391.546054
20
323.525328
11
392.145761
21
324.533976
0
LINE
8
boundary
62
5
39
2
10
392.145761
20
324.533976
11
396.013901
21
327.521106
0
LINE
8
boundary
62
5
39
2
10
396.013901
20
327.521106
11
398.999488
21
331.624272
0
LINE
8
boundary
62
5
39
2
10
398.999488
20
331.624272
11
402.628643
21
334.306570
0
LINE
8
boundary
62
5
39
2
10
402.628643
20
334.306570
11
406.044596
21
339.048985
0
LINE
8
boundary
62
5
39
2
10
406.044596
20
339.048985
11
415.671488
21
343.637388
0
LINE
8
boundary
62
5
39
2
10
415.671488
20
343.637388
11
417.067549
21
344.855367
0
LINE
8
boundary
62
5
39
2
10
417.067549
20
344.855367
11
426.884360
21
351.162635
0
LINE
8
boundary
62
5
39
2
10
426.884360
20
351.162635
11
433.341221
21
353.735455
0
LINE
8
boundary
62
5
39
2
10
433.341221
20
353.735455
11
437.917866
21
355.836477
0
LINE
8
boundary
62
5
39
2
10
437.917866
20
355.836477
11
437.649146
21
358.407098
0
LINE
8
boundary
62
5
39
2
10
437.649146
20
358.407098
11
434.628462
21
384.843802
0
LINE
8
boundary
62
5
39
2
10
434.628462
20
384.843802
11
434.697593
21
397.682375
0
LINE
8
boundary
62
5
39
2
10
434.697593
20
397.682375
11
434.708874
21
401.928831
0
LINE
8
boundary
62
5
39
2
10
434.708874
20
401.928831
11
433.626806
21
405.181455
0
LINE
8
boundary
62
5
39
2
10
433.626806
20
405.181455
11
432.802301
21
404.868525
0
LINE
8
boundary
62
5
39
2
10
432.802301
20
404.868525
11
422.360933
21
398.317909
0
LINE
8
boundary
62
5
39
2
10
422.360933
20
398.317909
11
421.607021
21
398.177575
0
LINE
8
boundary
62
5
39
2
10
421.607021
20
398.177575
11
411.464153
21
393.378108
0
LINE
8
boundary
62
5
39
2
10
411.464153
20
393.378108
11
400.616772
21
393.756943
0
LINE
8
boundary
62
5
39
2
10
400.616772
20
393.756943
11
396.979880
21
393.632100
0
LINE
8
boundary
62
5
39
2
10
396.979880
20
393.632100
11
387.929114
21
392.793364
0
LINE
8
boundary
62
5
39
2
10
387.929114
20
392.793364
11
383.419607
21
391.811599
0
LINE
8
boundary
62
5
39
2
10
383.419607
20
391.811599
11
382.212536
21
387.500393
0
LINE
8
boundary
62
5
39
2
10
382.212536
20
387.500393
11
375.834210
21
351.327110
0
LINE
8
boundary
62
5
39
2
10
375.834210
20
351.327110
11
371.844754
21
352.030559
0
LINE
8
boundary
62
5
39
2
10
371.844754
20
352.030559
11
377.891778
21
386.324936
0
LINE
8
boundary
62
5
39
2
10
377.891778
20
386.324936
11
378.232022
21
390.788987
0
LINE
8
boundary
62
5
39
2
10
378.232022
20
390.788987
11
365.685175
21
387.102175
0
LINE
8
boundary
62
5
39
2
10
365.685175
20
387.102175
11
362.261968
21
385.866672
0
LINE
8
boundary
62
5
39
2
10
362.261968
20
385.866672
11
352.561591
21
382.150065
0
LINE
8
boundary
62
5
39
2
10
352.561591
20
382.150065
11
346.232033
21
378.890147
0
LINE
8
boundary
62
5
39
2
10
346.232033
20
378.890147
11
338.621386
21
374.591562
0
LINE
8
boundary
62
5
39
2
10
338.621386
20
374.591562
11
333.941445
21
370.670818
0
LINE
8
boundary
62
5
39
2
10
333.941445
20
370.670818
11
325.858171
21
362.200312
0
LINE
8
boundary
62
5
39
2
10
325.858171
20
362.200312
11
325.342542
21
361.507488
0
LINE
8
boundary
62
5
39
2
10
325.342542
20
361.507488
11
324.863023
21
360.651909
0
LINE
8
boundary
62
5
39
2
10
324.863023
20
360.651909
11
317.570152
21
348.203630
0
LINE
8
boundary
62
5
39
2
10
317.570152
20
348.203630
11
315.132662
21
341.633704
0
LINE
8
boundary
62
5
39
2
10
315.132662
20
341.633704
11
313.756352
21
334.725643
0
LINE
8
boundary
62
5
39
2
10
313.756352
20
334.725643
11
315.301786
21
329.351852
0
LINE
8
boundary
62
5
39
2
10
315.301786
20
329.351852
11
322.276775
21
321.585113
0
LINE
8
boundary
62
5
39
2
10
322.276775
20
321.585113
11
323.315417
21
321.122891
0
LINE
8
boundary
62
5
39
2
10
323.315417
20
321.122891
11
341.008706
21
316.730640
0
LINE
8
boundary
62
5
39
2
10
341.008706
20
316.730640
11
341.714249
21
316.552697
0
LINE
8
boundary
62
5
39
2
10
341.714249
20
316.552697
11
359.641247
21
312.102671
0
LINE
8
boundary
62
5
39
2
10
359.641247
20
312.102671
11
360.196677
21
312.040009
0
LINE
8
boundary
62
5
39
2
10
360.196677
20
312.040009
11
361.018809
21
311.854212
0
LINE
8
boundary
62
5
39
2
10
361.018809
20
311.854212
11
372.505826
21
310.115485
0
LINE
8
annotation
62
1
39
211
10
375.476272
20
340.686049
11
375.747800
21
342.225965
0
LINE
8
annotation
62
1
39
211
10
375.747800
20
342.225965
11
375.747800
21
342.225965
0
LINE
8
annotation
62
1
39
211
10
375.747800
20
342.225965
11
375.771684
21
342.506732
0
LINE
8
annotation
62
1
39
211
10
375.771684
20
342.506732
11
375.745941
21
342.779667
0
LINE
8
annotation
62
1
39
211
10
375.745941
20
342.779667
11
375.674159
21
343.039614
0
LINE
8
annotation
62
1
39
211
10
375.674159
20
343.039614
11
375.559928
21
343.281415
0
LINE
8
annotation
62
1
39
211
10
375.559928
20
343.281415
11
375.406839
21
343.499913
0
LINE
8
annotation
62
1
39
211
10
375.406839
20
343.499913
11
375.218479
21
343.689949
0
LINE
8
annotation
62
1
39
211
10
375.218479
20
343.689949
11
374.998439
21
343.846367
0
LINE
8
annotation
62
1
39
211
10
374.998439
20
343.846367
11
374.750307
21
343.964008
0
LINE
8
annotation
62
1
39
211
10
374.750307
20
343.964008
11
374.477674
21
344.037716
0
LINE
8
annotation
62
1
39
211
10
374.477674
20
344.037716
11
373.710543
21
344.172982
0
LINE
8
annotation
62
1
39
211
10
373.710543
20
344.172982
11
373.710543
21
344.172982
0
LINE
8
annotation
62
1
39
211
10
373.710543
20
344.172982
11
373.429278
21
344.196956
0
LINE
8
annotation
62
1
39
211
10
373.429278
20
344.196956
11
373.156241
21
344.171248
0
LINE
8
annotation
62
1
39
211
10
373.156241
20
344.171248
11
372.896502
21
344.099476
0
LINE
8
annotation
62
1
39
211
10
372.896502
20
344.099476
11
372.655131
21
343.985261
0
LINE
8
annotation
62
1
39
211
10
372.655131
20
343.985261
11
372.437199
21
343.832221
0
LINE
8
annotation
62
1
39
211
10
372.437199
20
343.832221
11
372.247777
21
343.643977
0
LINE
8
annotation
62
1
39
211
10
372.247777
20
343.643977
11
372.091934
21
343.424148
0
LINE
8
annotation
62
1
39
211
10
372.091934
20
343.424148
11
371.974743
21
343.176353
0
LINE
8
annotation
62
1
39
211
10
371.974743
20
343.176353
11
371.901272
21
342.904212
0
LINE
8
annotation
62
1
39
211
10
371.901272
20
342.904212
11
371.629744
21
341.364296
0
LINE
8
annotation
62
1
39
211
10
371.629744
20
341.364296
11
368.541649
21
341.908810
0
LINE
8
annotation
62
1
39
211
10
368.541649
20
341.908810
11
369.084707
21
344.988642
0
LINE
8
annotation
62
1
39
211
10
342.620025
20
333.776032
11
337.655809
21
333.776032
0
LINE
8
annotation
62
1
39
211
10
337.655809
20
333.776032
11
342.620025
21
342.716555
0
LINE
8
annotation
62
1
39
211
10
342.620025
20
342.716555
11
337.655809
21
342.716555
0
LINE
8
annotation
62
1
39
211
10
350.862087
20
338.246294
11
345.973562
21
338.246294
0
LINE
8
annotation
62
1
39
211
10
356.201815
20
333.776032
11
356.201815
21
342.716555
0
LINE
8
annotation
62
1
39
211
10
356.201815
20
342.716555
11
354.214223
21
340.728402
0
LINE
8
annotation
62
1
39
211
10
363.525606
20
333.775959
11
359.554906
21
333.775959
0
LINE
8
annotation
62
1
39
211
10
359.554906
20
333.775959
11
363.223963
21
339.682670
0
LINE
8
annotation
62
1
39
211
10
363.223963
20
339.682670
11
363.223963
21
339.682670
0
LINE
8
annotation
62
1
39
211
10
363.223963
20
339.682670
11
363.228349
21
339.688098
0
LINE
8
annotation
62
1
39
211
10
363.228349
20
339.688098
11
363.232556
21
339.693571
0
LINE
8
annotation
62
1
39
211
10
363.232556
20
339.693571
11
363.236609
21
339.699137
0
LINE
8
annotation
62
1
39
211
10
363.236609
20
339.699137
11
363.240539
21
339.704842
0
LINE
8
annotation
62
1
39
211
10
363.240539
20
339.704842
11
363.244371
21
339.710731
0
LINE
8
annotation
62
1
39
211
10
363.244371
20
339.710731
11
363.248134
21
339.716851
0
LINE
8
annotation
62
1
39
211
10
363.248134
20
339.716851
11
363.251856
21
339.723247
0
LINE
8
annotation
62
1
39
211
10
363.251856
20
339.723247
11
363.255564
21
339.729967
0
LINE
8
annotation
62
1
39
211
10
363.255564
20
339.729967
11
363.259286
21
339.737056
0
LINE
8
annotation
62
1
39
211
10
363.259286
20
339.737056
11
363.259286
21
339.737056
0
LINE
8
annotation
62
1
39
211
10
363.259286
20
339.737056
11
363.410780
21
340.062327
0
LINE
8
annotation
62
1
39
211
10
363.410780
20
340.062327
11
363.499281
21
340.399500
0
LINE
8
annotation
62
1
39
211
10
363.499281
20
340.399500
11
363.526956
21
340.740955
0
LINE
8
annotation
62
1
39
211
10
363.526956
20
340.740955
11
363.495975
21
341.079073
0
LINE
8
annotation
62
1
39
211
10
363.495975
20
341.079073
11
363.408507
21
341.406237
0
LINE
8
annotation
62
1
39
211
10
363.408507
20
341.406237
11
363.266720
21
341.714826
0
LINE
8
annotation
62
1
39
211
10
363.266720
20
341.714826
11
363.072783
21
341.997223
0
LINE
8
annotation
62
1
39
211
10
363.072783
20
341.997223
11
362.828866
21
342.245809
0
LINE
8
annotation
62
1
39
211
10
362.828866
20
342.245809
11
362.537136
21
342.452965
0
LINE
8
annotation
62
1
39
211
10
362.537136
20
342.452965
11
362.537136
21
342.452965
0
LINE
8
annotation
62
1
39
211
10
362.537136
20
342.452965
11
362.210960
21
342.602307
0
LINE
8
annotation
62
1
39
211
10
362.210960
20
342.602307
11
361.873271
21
342.689444
0
LINE
8
annotation
62
1
39
211
10
361.873271
20
342.689444
11
361.531618
21
342.716337
0
LINE
8
annotation
62
1
39
211
10
361.531618
20
342.716337
11
361.193550
21
342.684948
0
LINE
8
annotation
62
1
39
211
10
361.193550
20
342.684948
11
360.866617
21
342.597237
0
LINE
8
annotation
62
1
39
211
10
360.866617
20
342.597237
11
360.558369
21
342.455166
0
LINE
8
annotation
62
1
39
211
10
360.558369
20
342.455166
11
360.276355
21
342.260697
0
LINE
8
annotation
62
1
39
211
10
360.276355
20
342.260697
11
360.028124
21
342.015789
0
LINE
8
annotation
62
1
39
211
10
360.028124
20
342.015789
11
359.821227
21
341.722406
0
LINE
8
annotation
62
1
39
211
10
359.821227
20
341.722406
11
359.560513
21
341.222284
0
LINE
8
annotation
62
1
39
211
10
371.768343
20
338.246294
11
366.879818
21
338.246294
0
LINE
8
annotation
62
1
39
211
10
379.091573
20
333.775959
11
375.120873
21
333.775959
0
LINE
8
annotation
62
1
39
211
10
375.120873
20
333.775959
11
378.789930
21
339.682670
0
LINE
8
annotation
62
1
39
211
10
378.789930
20
339.682670
11
378.789930
21
339.682670
0
LINE
8
annotation
62
1
39
211
10
378.789930
20
339.682670
11
378.794316
21
339.688098
0
LINE
8
annotation
62
1
39
211
10
378.794316
20
339.688098
11
378.798523
21
339.693571
0
LINE
8
annotation
62
1
39
211
10
378.798523
20
339.693571
11
378.802577
21
339.699137
0
LINE
8
annotation
62
1
39
211
10
378.802577
20
339.699137
11
378.806506
21
339.704842
0
LINE
8
annotation
62
1
39
211
10
378.806506
20
339.704842
11
378.810338
21
339.710731
0
LINE
8
annotation
62
1
39
211
10
378.810338
20
339.710731
11
378.814101
21
339.716851
0
LINE
8
annotation
62
1
39
211
10
378.814101
20
339.716851
11
378.817823
21
339.723247
0
LINE
8
annotation
62
1
39
211
10
378.817823
20
339.723247
11
378.821531
21
339.729967
0
LINE
8
annotation
62
1
39
211
10
378.821531
20
339.729967
11
378.825253
21
339.737056
0
LINE
8
annotation
62
1
39
211
10
378.825253
20
339.737056
11
378.825253
21
339.737056
0
LINE
8
annotation
62
1
39
211
10
378.825253
20
339.737056
11
378.976747
21
340.062327
0
LINE
8
annotation
62
1
39
211
10
378.976747
20
340.062327
11
379.065248
21
340.399500
0
LINE
8
annotation
62
1
39
211
10
379.065248
20
340.399500
11
379.092923
21
340.740955
0
LINE
8
annotation
62
1
39
211
10
379.092923
20
340.740955
11
379.061942
21
341.079073
0
LINE
8
annotation
62
1
39
211
10
379.061942
20
341.079073
11
378.974474
21
341.406237
0
LINE
8
annotation
62
1
39
211
10
378.974474
20
341.406237
11
378.832687
21
341.714826
0
LINE
8
annotation
62
1
39
211
10
378.832687
20
341.714826
11
378.638750
21
341.997223
0
LINE
8
annotation
62
1
39
211
10
378.638750
20
341.997223
11
378.394833
21
342.245809
0
LINE
8
annotation
62
1
39
211
10
378.394833
20
342.245809
11
378.103103
21
342.452965
0
LINE
8
annotation
62
1
39
211
10
378.103103
20
342.452965
11
378.103103
21
342.452965
0
LINE
8
annotation
62
1
39
211
10
378.103103
20
342.452965
11
377.776927
21
342.602307
0
LINE
8
annotation
62
1
39
211
10
377.776927
20
342.602307
11
377.439238
21
342.689444
0
LINE
8
annotation
62
1
39
211
10
377.439238
20
342.689444
11
377.097585
21
342.716337
0
LINE
8
annotation
62
1
39
211
10
377.097585
20
342.716337
11
376.759517
21
342.684948
0
LINE
8
annotation
62
1
39
211
10
376.759517
20
342.684948
11
376.432584
21
342.597237
0
LINE
8
annotation
62
1
39
211
10
376.432584
20
342.597237
11
376.124336
21
342.455166
0
LINE
8
annotation
62
1
39
211
10
376.124336
20
342.455166
11
375.842322
21
342.260697
0
LINE
8
annotation
62
1
39
211
10
375.842322
20
342.260697
11
375.594091
21
342.015789
0
LINE
8
annotation
62
1
39
211
10
375.594091
20
342.015789
11
375.387194
21
341.722406
0
LINE
8
annotation
62
1
39
211
10
375.387194
20
341.722406
11
375.126480
21
341.222284
0
LINE
8
frame
62
5
39
2
10
0.000000
20
0.000000
11
480.000000
21
0.000000
0
LINE
8
frame
62
5
39
2
10
480.000000
20
0.000000
11
480.000000
21
420.000000
0
LINE
8
frame
62
5
39
2
10
480.000000
20
420.000000
11
0.000000
21
420.000000
0
LINE
8
frame
62
5
39
2
10
0.000000
20
420.000000
11
0.000000
21
0.000000
0
ENDSEC
0
EOF
