<svg id="OneCircle" xmlns="http://www.w3.org/2000/svg" viewBox="0 0 1324.075 925.468"><defs><style>.cls-1{fill:none;stroke:#000;stroke-miterlimit:10;}</style></defs><title>BigCircle</title><path id="ThreeCircles" class="cls-1" d="M528.107,118.953h82.049a113.113,113.113,0,0,0-195.813,0h81.764m-164.435,0H413.72a113.421,113.421,0,0,0-196.168,0h82.12M159.481,219.831l-40.062,69.308a113.456,113.456,0,0,1,98.172-170.2L175.48,192.118M77.256,362.242,119.4,289.18A113.275,113.275,0,0,0,21.325,459.371l39.931-69.417M159.481,698.64l-40.062-69.308a113.456,113.456,0,0,0,98.172,170.2L175.48,726.353M77.256,556.23,119.4,629.292A113.276,113.276,0,0,1,21.325,459.1l39.931,69.417M666.577,216.825l41.778,72.365A113.47,113.47,0,0,0,610.2,118.943h0l40.381,70.169m98.211,170.124L708.355,289.19a113.267,113.267,0,0,1,98.173,170.054l-41.74-72.3m-98.211,314.7,41.778-72.365A113.47,113.47,0,0,1,610.2,799.528h0l40.381-70.169m98.211-170.123-40.433,70.046a113.267,113.267,0,0,0,98.173-170.055l-41.74,72.3M333.906,799.413l80.054.04a113.457,113.457,0,0,1-196.48.079l84.426-.119m196.444,0-84.345.034a113.274,113.274,0,0,0,196.427-.161l-80.082.127m.15-12.917h-32m-164.593,0h-32m352.647-91.856-16,27.712M752.69,524.644l-16,27.712m-82.178-328.57-16-27.713M752.718,393.921l-16-27.713" transform="translate(-5.488 -4.883)"/><path id="SixCircles" class="cls-1" d="M1200.892,402.275h-83.559a113.469,113.469,0,0,0,196.517.115h0l-80.959-.114m22.646-100.661-39.992-69.349a113.457,113.457,0,0,1,98.309,170.118l-42.317-73.057M1173.318,159.2l42.2,73.028A113.274,113.274,0,0,0,1117.167,62.2l40.151,69.289M1036.455,402.266l80.878.008a113.267,113.267,0,0,1-196.358-.008h83.48m-223.431-242.4,41.781,72.364A113.471,113.471,0,0,1,724.446,62.1h0l40.578,70.056m75.852-69.943,80.054-.04a113.457,113.457,0,0,0-196.48-.079l84.426.119m196.444,0-84.345-.034a113.275,113.275,0,0,1,196.427.161l-80.082-.127M863.25,302.266l-40.445-70.038A113.266,113.266,0,0,0,920.99,402.275l-41.74-72.3M793.081,152.944l-16-27.713m114.157,197.7-16-27.713m325.639,93.117h32m-228.444-.018h32" transform="translate(-5.488 -4.883)"/><path id="SixCircles-2" data-name="SixCircles" class="cls-1" d="M781.024,775.369l41.781-72.363a113.471,113.471,0,0,0-98.359,170.132h0l40.578-70.056m75.852,69.942,80.054.041a113.457,113.457,0,0,1-196.48.079l84.426-.12m196.444,0-84.345.034A113.275,113.275,0,0,0,1117.4,872.9l-80.082.127M863.25,632.967l-40.445,70.039A113.266,113.266,0,0,1,920.99,532.959l-41.74,72.3m321.642-72.3-83.559,0a113.469,113.469,0,0,1,196.517-.115h0l-80.959.113m22.646,100.662-39.992,69.348a113.456,113.456,0,0,0,98.309-170.117l-42.317,73.056m-98.219,170.127,42.2-73.028a113.274,113.274,0,0,1-98.353,170.03l40.151-69.29M1036.455,532.967l80.878-.007a113.268,113.268,0,0,0-196.358.007h83.48m196.4,13.894h32m-228.292.012h32M793.1,782.326l-16,27.713M891.341,612.21l-16,27.712" transform="translate(-5.488 -4.883)"/></svg>