<svg id="OneCircle" xmlns="http://www.w3.org/2000/svg" viewBox="0 0 1339.441 1088.108"><defs><style>.cls-1{fill:none;stroke:#000;stroke-miterlimit:10;}</style></defs><title>MiddleCircle</title><path id="ThreeCircles" class="cls-1" d="M455.546,377.257H373.5a113.113,113.113,0,0,0,195.812,0H487.546M626.152,134.711l41.778,72.365A113.47,113.47,0,0,0,569.771,36.829h0L610.152,107m-98.5,30.719-40.062,69.308a113.456,113.456,0,0,1,98.172-170.2L527.654,110M429.429,280.127l42.143-73.062A113.276,113.276,0,0,0,373.5,377.257l39.931-69.417m238.552,69.417H569.933A113.358,113.358,0,0,0,766.1,377.13l-82.121.127m24.382-100.136L667.93,207.076A113.267,113.267,0,0,1,766.1,377.13l-41.74-72.3M614.074,141.707l-16-27.713m114.2,197.82-16-27.713m-255.651,2.476-16,27.713M538.841,116.479l-16,27.713" transform="translate(-9.177 -5.148)"/><path id="ThreeCircles-2" data-name="ThreeCircles" class="cls-1" d="M346.658,62.113h82.049a113.113,113.113,0,0,0-195.812,0h81.764M176.053,304.66l-41.778-72.366a113.47,113.47,0,0,0,98.159,170.247h0l-40.381-70.169m98.5-30.719,40.062-69.308a113.458,113.458,0,0,1-98.172,170.2l42.11-73.175m98.225-170.123-42.143,73.062A113.275,113.275,0,0,0,428.706,62.113L388.775,131.53M150.223,62.113h82.049A113.359,113.359,0,0,0,36.1,62.24l82.12-.127M93.842,162.249l40.433,70.045A113.267,113.267,0,0,1,36.1,62.24l41.74,72.3M188.131,297.663l16,27.713M89.93,127.556l16,27.713m255.651-2.476,16-27.712M263.364,322.891l16-27.713" transform="translate(-9.177 -5.148)"/><path id="ThreeCircles-3" data-name="ThreeCircles" class="cls-1" d="M1021.3,62.113h82.048a113.113,113.113,0,0,0-195.812,0H989.3M850.7,304.66,808.92,232.294a113.47,113.47,0,0,0,98.16,170.247h0L866.7,332.372m98.5-30.719,40.061-69.308a113.456,113.456,0,0,1-98.171,170.2l42.11-73.175m98.224-170.123-42.143,73.062a113.275,113.275,0,0,0,98.074-170.192l-39.931,69.417M824.869,62.113h82.048a113.358,113.358,0,0,0-196.168.127l82.12-.127M768.488,162.249l40.432,70.045A113.267,113.267,0,0,1,710.748,62.24l41.74,72.3M862.776,297.663l16,27.713m-114.2-197.82,16,27.713m255.65-2.476,16-27.712M938.01,322.891l16-27.713" transform="translate(-9.177 -5.148)"/><path class="cls-1" d="M179.444,541.5l41.741,72.3a113.365,113.365,0,0,0-98.122-170.179l40.381,70.17M107.063,613.928H25.014a113.36,113.36,0,0,0,196.1,0H139.063M80.946,516.8l42.117-73.176A113.364,113.364,0,0,0,24.942,613.8l40-69.29m102.457,3.96-16-27.713m-75.26,30.207,16-27.713" transform="translate(-9.177 -5.148)"/><path class="cls-1" d="M426.889,541.5l41.741,72.3a113.365,113.365,0,0,0-98.122-170.179l40.381,70.17M354.508,613.928H272.459a113.36,113.36,0,0,0,196.1,0H386.508M328.391,516.8l42.117-73.176A113.364,113.364,0,0,0,272.387,613.8l40-69.29m102.457,3.96-16-27.713m-75.26,30.207,16-27.713" transform="translate(-9.177 -5.148)"/><path class="cls-1" d="M674.334,541.5l41.74,72.3a113.364,113.364,0,0,0-98.121-170.179l40.381,70.17M601.953,613.928H519.9a113.36,113.36,0,0,0,196.1,0H633.953M575.836,516.8l42.117-73.176A113.365,113.365,0,0,0,519.831,613.8l40-69.29m102.457,3.96-16-27.713m-75.26,30.207,16-27.713" transform="translate(-9.177 -5.148)"/><path class="cls-1" d="M921.779,541.5l41.74,72.3A113.364,113.364,0,0,0,865.4,443.622l40.381,70.17M849.4,613.928H767.349a113.36,113.36,0,0,0,196.1,0H881.4M823.28,516.8,865.4,443.622A113.365,113.365,0,0,0,767.276,613.8l40-69.29m102.458,3.96-16-27.713m-75.26,30.207,16-27.713" transform="translate(-9.177 -5.148)"/><path class="cls-1" d="M1169.224,541.5l41.74,72.3a113.365,113.365,0,0,0-98.122-170.179l40.382,70.17m-56.381,100.136h-82.049a113.36,113.36,0,0,0,196.1,0h-82.048m-58.118-97.13,42.117-73.176A113.365,113.365,0,0,0,1014.721,613.8l40-69.29m102.458,3.96-16-27.713m-75.26,30.207,16-27.713" transform="translate(-9.177 -5.148)"/><path class="cls-1" d="M301.334,751.268l41.74,72.3a113.363,113.363,0,0,0-98.121-170.178l40.381,70.169M228.953,823.691H146.9a113.36,113.36,0,0,0,196.1,0H260.953m-58.117-97.129,42.117-73.176a113.364,113.364,0,0,0-98.122,170.178l40.005-69.29m102.457,3.96-16-27.712m-75.26,30.207,16-27.713" transform="translate(-9.177 -5.148)"/><path class="cls-1" d="M548.779,751.268l41.74,72.3A113.363,113.363,0,0,0,492.4,653.386l40.381,70.169M476.4,823.691H394.349a113.36,113.36,0,0,0,196.1,0H508.4M450.28,726.562,492.4,653.386a113.364,113.364,0,0,0-98.122,170.178l40-69.29m102.458,3.96-16-27.712m-75.26,30.207,16-27.713" transform="translate(-9.177 -5.148)"/><path class="cls-1" d="M796.224,751.268l41.74,72.3a113.364,113.364,0,0,0-98.122-170.178l40.382,70.169M723.843,823.691H641.794a113.36,113.36,0,0,0,196.1,0H755.843m-58.118-97.129,42.117-73.176a113.364,113.364,0,0,0-98.121,170.178l40-69.29m102.458,3.96-16-27.712m-75.26,30.207,16-27.713" transform="translate(-9.177 -5.148)"/><path class="cls-1" d="M1043.669,751.268l41.74,72.3a113.364,113.364,0,0,0-98.122-170.178l40.382,70.169M971.287,823.691H889.239a113.36,113.36,0,0,0,196.1,0h-82.049M945.17,726.562l42.117-73.176a113.364,113.364,0,0,0-98.121,170.178l40-69.29m102.458,3.96-16-27.712m-75.26,30.207,16-27.713" transform="translate(-9.177 -5.148)"/><path class="cls-1" d="M1291.114,751.268l41.74,72.3a113.364,113.364,0,0,0-98.122-170.178l40.382,70.169m-56.382,100.136h-82.048a113.36,113.36,0,0,0,196.1,0h-82.049m-58.117-97.129,42.117-73.176a113.363,113.363,0,0,0-98.121,170.178l40-69.29m102.457,3.96-16-27.712m-75.259,30.207,16-27.713" transform="translate(-9.177 -5.148)"/><path class="cls-1" d="M179.444,963.867l41.741,72.3a113.365,113.365,0,0,0-98.122-170.179l40.381,70.17M107.063,1036.29H25.014a113.36,113.36,0,0,0,196.1,0H139.063M80.946,939.16l42.117-73.176a113.364,113.364,0,0,0-98.121,170.179l40-69.29m102.457,3.96-16-27.713m-75.26,30.207,16-27.713" transform="translate(-9.177 -5.148)"/><path class="cls-1" d="M426.889,963.867l41.741,72.3a113.365,113.365,0,0,0-98.122-170.179l40.381,70.17M354.508,1036.29H272.459a113.36,113.36,0,0,0,196.1,0H386.508m-58.117-97.13,42.117-73.176a113.364,113.364,0,0,0-98.121,170.179l40-69.29m102.457,3.96-16-27.713m-75.26,30.207,16-27.713" transform="translate(-9.177 -5.148)"/><path class="cls-1" d="M674.334,963.867l41.74,72.3a113.364,113.364,0,0,0-98.121-170.179l40.381,70.17M601.953,1036.29H519.9a113.36,113.36,0,0,0,196.1,0H633.953m-58.117-97.13,42.117-73.176a113.365,113.365,0,0,0-98.122,170.179l40-69.29m102.457,3.96-16-27.713m-75.26,30.207,16-27.713" transform="translate(-9.177 -5.148)"/><path class="cls-1" d="M921.779,963.867l41.74,72.3A113.364,113.364,0,0,0,865.4,865.984l40.381,70.17M849.4,1036.29H767.349a113.36,113.36,0,0,0,196.1,0H881.4M823.28,939.16,865.4,865.984a113.365,113.365,0,0,0-98.122,170.179l40-69.29m102.458,3.96-16-27.713m-75.26,30.207,16-27.713" transform="translate(-9.177 -5.148)"/><path class="cls-1" d="M1169.224,963.867l41.74,72.3a113.365,113.365,0,0,0-98.122-170.179l40.382,70.17m-56.381,100.136h-82.049a113.36,113.36,0,0,0,196.1,0h-82.048m-58.118-97.13,42.117-73.176a113.365,113.365,0,0,0-98.121,170.179l40-69.29m102.458,3.96-16-27.713m-75.26,30.207,16-27.713" transform="translate(-9.177 -5.148)"/></svg>