<svg id="OneCircle" xmlns="http://www.w3.org/2000/svg" viewBox="0 0 1561.921 1080.746"><defs><style>.cls-1{fill:none;stroke:#000;stroke-miterlimit:10;}</style></defs><title>MiddleCircle60x44</title><path id="ThreeCircles" class="cls-1" d="M440.2,375.257H358.151a113.114,113.114,0,0,0,195.813,0H472.2M610.8,132.711l41.779,72.365a113.47,113.47,0,0,0-98.16-170.247h0L594.806,105m-98.5,30.719-40.061,69.308a113.456,113.456,0,0,1,98.171-170.2L512.307,108M414.083,278.127l42.143-73.062a113.275,113.275,0,0,0-98.074,170.192l39.931-69.417m238.552,69.417H554.587a113.357,113.357,0,0,0,196.168-.127l-82.12.127m24.381-100.136-40.432-70.045A113.267,113.267,0,0,1,750.756,375.13l-41.74-72.3M598.728,139.707l-16-27.713m114.2,197.82-16-27.713m-255.651,2.476-16,27.713M523.494,114.479l-16,27.713" transform="translate(6.169 -3.148)"/><path id="ThreeCircles-2" data-name="ThreeCircles" class="cls-1" d="M331.312,60.113H413.36a113.113,113.113,0,0,0-195.812,0h81.764M160.706,302.66l-41.778-72.366a113.47,113.47,0,0,0,98.159,170.247h0l-40.381-70.169m98.5-30.719,40.062-69.308a113.456,113.456,0,0,1-98.172,170.2l42.111-73.175m98.224-170.123-42.143,73.062A113.276,113.276,0,0,0,413.36,60.113L373.429,129.53M134.877,60.113h82.048a113.358,113.358,0,0,0-196.168.127l82.12-.127M78.5,160.249l40.432,70.045A113.267,113.267,0,0,1,20.756,60.24l41.74,72.3M172.784,295.663l16,27.713m-114.2-197.82,16,27.713m255.65-2.476,16-27.712M248.018,320.891l16-27.713" transform="translate(6.169 -3.148)"/><path id="ThreeCircles-3" data-name="ThreeCircles" class="cls-1" d="M1005.958,60.113h82.048a113.113,113.113,0,0,0-195.812,0h81.764M835.352,302.66l-41.778-72.366a113.47,113.47,0,0,0,98.159,170.247h0l-40.381-70.169m98.5-30.719,40.062-69.308a113.456,113.456,0,0,1-98.172,170.2l42.11-73.175m98.225-170.123-42.143,73.062a113.276,113.276,0,0,0,98.074-170.192l-39.931,69.417M809.523,60.113h82.048A113.359,113.359,0,0,0,695.4,60.24l82.121-.127M753.141,160.249l40.433,70.045A113.267,113.267,0,0,1,695.4,60.24l41.74,72.3M847.43,295.663l16,27.713m-114.2-197.82,16,27.713m255.651-2.476,16-27.712M922.663,320.891l16-27.713" transform="translate(6.169 -3.148)"/><path class="cls-1" d="M164.1,539.5l41.74,72.3a113.365,113.365,0,0,0-98.121-170.179l40.381,70.17M91.717,611.928H9.668a113.36,113.36,0,0,0,196.1,0H123.717M65.6,514.8l42.118-73.176A113.365,113.365,0,0,0,9.6,611.8l40-69.29m102.458,3.96-16-27.713M60.8,548.965l16-27.713" transform="translate(6.169 -3.148)"/><path class="cls-1" d="M406.728,539.5l41.74,72.3a113.365,113.365,0,0,0-98.122-170.179l40.382,70.17M334.346,611.928H252.3a113.36,113.36,0,0,0,196.1,0H366.346M308.229,514.8l42.117-73.176A113.365,113.365,0,0,0,252.225,611.8l40-69.29m102.458,3.96-16-27.713m-75.26,30.207,16-27.713" transform="translate(6.169 -3.148)"/><path class="cls-1" d="M649.358,539.5l41.74,72.3a113.365,113.365,0,0,0-98.122-170.179l40.382,70.17M576.976,611.928H494.928a113.36,113.36,0,0,0,196.1,0H608.976M550.859,514.8l42.117-73.176A113.365,113.365,0,0,0,494.855,611.8l40-69.29m102.458,3.96-16-27.713m-75.26,30.207,16-27.713" transform="translate(6.169 -3.148)"/><path class="cls-1" d="M891.988,539.5l41.74,72.3a113.365,113.365,0,0,0-98.122-170.179l40.382,70.17M819.606,611.928H737.558a113.36,113.36,0,0,0,196.1,0H851.606M793.489,514.8l42.117-73.176A113.364,113.364,0,0,0,737.485,611.8l40-69.29m102.457,3.96-16-27.713m-75.259,30.207,16-27.713" transform="translate(6.169 -3.148)"/><path class="cls-1" d="M1134.618,539.5l41.74,72.3a113.365,113.365,0,0,0-98.122-170.179l40.382,70.17m-56.382,100.136H980.187a113.36,113.36,0,0,0,196.1,0h-82.049m-58.117-97.13,42.117-73.176A113.364,113.364,0,0,0,980.115,611.8l40-69.29m102.457,3.96-16-27.713m-75.259,30.207,16-27.713" transform="translate(6.169 -3.148)"/><path id="ThreeCircles-4" data-name="ThreeCircles" class="cls-1" d="M1114.2,375.256h-82.049a113.113,113.113,0,0,0,195.813,0H1146.2M1284.805,132.71l41.779,72.365a113.47,113.47,0,0,0-98.16-170.247h0L1268.806,105m-98.5,30.719-40.061,69.309a113.457,113.457,0,0,1,98.171-170.2L1186.307,108m-98.224,170.123,42.143-73.062a113.274,113.274,0,0,0-98.074,170.191l39.931-69.416m238.552,69.416h-82.048a113.357,113.357,0,0,0,196.168-.127l-82.12.127m24.381-100.135-40.432-70.046a113.267,113.267,0,0,1,98.172,170.054l-41.74-72.3M1272.728,139.706l-16-27.712m114.2,197.819-16-27.712m-255.651,2.475-16,27.713m114.217-197.811-16,27.713" transform="translate(6.169 -3.148)"/><path class="cls-1" d="M1377.248,539.5l41.74,72.3a113.365,113.365,0,0,0-98.122-170.179l40.382,70.17m-56.382,100.136h-82.049a113.36,113.36,0,0,0,196.1,0h-82.049m-58.117-97.13,42.117-73.176A113.364,113.364,0,0,0,1222.745,611.8l40-69.29m102.457,3.96-16-27.713m-75.26,30.207,16-27.713" transform="translate(6.169 -3.148)"/><path class="cls-1" d="M285.1,747.5l41.74,72.3a113.365,113.365,0,0,0-98.121-170.179l40.381,70.17M212.717,819.928H130.668a113.36,113.36,0,0,0,196.1,0H244.717M186.6,722.8l42.118-73.176A113.365,113.365,0,0,0,130.6,819.8l40-69.29m102.458,3.96-16-27.713M181.8,756.965l16-27.713" transform="translate(6.169 -3.148)"/><path class="cls-1" d="M527.728,747.5l41.74,72.3a113.365,113.365,0,0,0-98.122-170.179l40.382,70.17M455.346,819.928H373.3a113.36,113.36,0,0,0,196.1,0H487.346M429.229,722.8l42.117-73.176A113.365,113.365,0,0,0,373.225,819.8l40-69.29m102.458,3.96-16-27.713m-75.26,30.207,16-27.713" transform="translate(6.169 -3.148)"/><path class="cls-1" d="M770.358,747.5l41.74,72.3a113.365,113.365,0,0,0-98.122-170.179l40.382,70.17M697.976,819.928H615.928a113.36,113.36,0,0,0,196.1,0H729.976M671.859,722.8l42.117-73.176A113.365,113.365,0,0,0,615.855,819.8l40-69.29m102.458,3.96-16-27.713m-75.26,30.207,16-27.713" transform="translate(6.169 -3.148)"/><path class="cls-1" d="M1012.988,747.5l41.74,72.3a113.365,113.365,0,0,0-98.122-170.179l40.382,70.17M940.606,819.928H858.558a113.36,113.36,0,0,0,196.1,0H972.606M914.489,722.8l42.117-73.176A113.364,113.364,0,0,0,858.485,819.8l40-69.29m102.457,3.96-16-27.713m-75.259,30.207,16-27.713" transform="translate(6.169 -3.148)"/><path class="cls-1" d="M1255.618,747.5l41.74,72.3a113.365,113.365,0,0,0-98.122-170.179l40.382,70.17m-56.382,100.136h-82.049a113.36,113.36,0,0,0,196.1,0h-82.049m-58.117-97.13,42.117-73.176A113.364,113.364,0,0,0,1101.115,819.8l40-69.29m102.457,3.96-16-27.713m-75.259,30.207,16-27.713" transform="translate(6.169 -3.148)"/><path class="cls-1" d="M1498.248,747.5l41.74,72.3a113.365,113.365,0,0,0-98.122-170.179l40.382,70.17m-56.382,100.136h-82.049a113.36,113.36,0,0,0,196.1,0h-82.049m-58.117-97.13,42.117-73.176A113.364,113.364,0,0,0,1343.745,819.8l40-69.29m102.457,3.96-16-27.713m-75.26,30.207,16-27.713" transform="translate(6.169 -3.148)"/><path class="cls-1" d="M164.1,954.5l41.74,72.3a113.364,113.364,0,0,0-98.121-170.179l40.381,70.17M91.717,1026.928H9.668a113.36,113.36,0,0,0,196.1,0H123.717M65.6,929.8l42.118-73.176A113.365,113.365,0,0,0,9.6,1026.8l40-69.29m102.458,3.96-16-27.713M60.8,963.965l16-27.713" transform="translate(6.169 -3.148)"/><path class="cls-1" d="M406.728,954.5l41.74,72.3a113.365,113.365,0,0,0-98.121-170.179l40.381,70.17m-56.381,100.136H252.3a113.36,113.36,0,0,0,196.1,0H366.347M308.229,929.8l42.118-73.176A113.365,113.365,0,0,0,252.225,1026.8l40-69.29m102.458,3.96-16-27.713m-75.26,30.207,16-27.713" transform="translate(6.169 -3.148)"/><path class="cls-1" d="M649.358,954.5l41.74,72.3a113.365,113.365,0,0,0-98.121-170.179l40.381,70.17m-56.381,100.136H494.928a113.36,113.36,0,0,0,196.1,0H608.977M550.859,929.8l42.118-73.176A113.365,113.365,0,0,0,494.855,1026.8l40-69.29m102.458,3.96-16-27.713m-75.26,30.207,16-27.713" transform="translate(6.169 -3.148)"/><path class="cls-1" d="M891.988,954.5l41.74,72.3a113.365,113.365,0,0,0-98.122-170.179l40.382,70.17m-56.382,100.136H737.558a113.36,113.36,0,0,0,196.1,0H851.606M793.489,929.8l42.117-73.176A113.365,113.365,0,0,0,737.485,1026.8l40-69.29m102.458,3.96-16-27.713m-75.26,30.207,16-27.713" transform="translate(6.169 -3.148)"/><path class="cls-1" d="M1134.618,954.5l41.74,72.3a113.365,113.365,0,0,0-98.122-170.179l40.382,70.17m-56.382,100.136H980.188a113.36,113.36,0,0,0,196.1,0h-82.049m-58.117-97.13,42.117-73.176A113.365,113.365,0,0,0,980.115,1026.8l40-69.29m102.458,3.96-16-27.713m-75.26,30.207,16-27.713" transform="translate(6.169 -3.148)"/><path class="cls-1" d="M1377.248,954.5l41.74,72.3a113.365,113.365,0,0,0-98.122-170.179l40.382,70.17m-56.382,100.136h-82.048a113.36,113.36,0,0,0,196.1,0h-82.049m-58.117-97.13,42.117-73.176a113.364,113.364,0,0,0-98.121,170.179l40-69.29m102.457,3.96-16-27.713m-75.259,30.207,16-27.713" transform="translate(6.169 -3.148)"/></svg>