<svg id="OneCircle" xmlns="http://www.w3.org/2000/svg" viewBox="0 0 1598.553 1057.772"><defs><style>.cls-1{fill:none;stroke:#000;stroke-miterlimit:10;}</style></defs><title>SmallCircle60x44</title><path class="cls-1" d="M172.755,102.923l41.741,72.3A113.365,113.365,0,0,0,116.374,5.041L156.755,75.21M100.374,175.346H18.325a113.359,113.359,0,0,0,196.1,0H132.374M74.257,78.217,116.374,5.041A113.364,113.364,0,0,0,18.253,175.22l40-69.29m102.457,3.959-16-27.712m-75.26,30.207,16-27.713" transform="translate(-2.487 -4.541)"/><path class="cls-1" d="M422.512,102.923l41.74,72.3A113.365,113.365,0,0,0,366.13,5.041L406.512,75.21M350.13,175.346H268.081a113.359,113.359,0,0,0,196.1,0H382.13M324.013,78.217,366.13,5.041A113.364,113.364,0,0,0,268.009,175.22l40-69.29m102.457,3.959-16-27.712m-75.26,30.207,16-27.713" transform="translate(-2.487 -4.541)"/><path class="cls-1" d="M672.268,102.923l41.74,72.3A113.365,113.365,0,0,0,615.886,5.041L656.268,75.21M599.886,175.346H517.838a113.359,113.359,0,0,0,196.1,0H631.886M573.769,78.217,615.886,5.041A113.364,113.364,0,0,0,517.765,175.22l40-69.29m102.458,3.959-16-27.712m-75.26,30.207,16-27.713" transform="translate(-2.487 -4.541)"/><path class="cls-1" d="M922.024,102.923l41.74,72.3A113.365,113.365,0,0,0,865.642,5.041L906.024,75.21M849.643,175.346H767.594a113.359,113.359,0,0,0,196.1,0H881.643M823.525,78.217,865.642,5.041A113.365,113.365,0,0,0,767.521,175.22l40-69.29m102.458,3.959-16-27.712m-75.26,30.207,16-27.713" transform="translate(-2.487 -4.541)"/><path class="cls-1" d="M1171.78,102.923l41.74,72.3A113.364,113.364,0,0,0,1115.4,5.041L1155.78,75.21M1099.4,175.346H1017.35a113.359,113.359,0,0,0,196.1,0H1131.4m-58.118-97.129L1115.4,5.041a113.365,113.365,0,0,0-98.122,170.179l40-69.29m102.458,3.959-16-27.712m-75.26,30.207,16-27.713" transform="translate(-2.487 -4.541)"/><path class="cls-1" d="M1421.536,102.923l41.741,72.3A113.365,113.365,0,0,0,1365.155,5.041l40.381,70.169m-56.381,100.136h-82.049a113.359,113.359,0,0,0,196.1,0h-82.049m-58.117-97.129,42.117-73.176a113.364,113.364,0,0,0-98.121,170.179l40-69.29m102.457,3.959-16-27.712m-75.26,30.207,16-27.713" transform="translate(-2.487 -4.541)"/><path class="cls-1" d="M294.755,309.923l41.741,72.3a113.365,113.365,0,0,0-98.122-170.179l40.381,70.169M222.374,382.346H140.325a113.359,113.359,0,0,0,196.1,0H254.374m-58.117-97.129,42.117-73.176A113.364,113.364,0,0,0,140.253,382.22l40-69.29m102.457,3.959-16-27.712m-75.26,30.207,16-27.713" transform="translate(-2.487 -4.541)"/><path class="cls-1" d="M544.512,309.923l41.74,72.3A113.365,113.365,0,0,0,488.13,212.041l40.382,70.169M472.13,382.346H390.081a113.359,113.359,0,0,0,196.1,0H504.13m-58.117-97.129,42.117-73.176A113.364,113.364,0,0,0,390.009,382.22l40-69.29m102.457,3.959-16-27.712m-75.26,30.207,16-27.713" transform="translate(-2.487 -4.541)"/><path class="cls-1" d="M794.268,309.923l41.74,72.3a113.365,113.365,0,0,0-98.122-170.179l40.382,70.169M721.886,382.346H639.838a113.359,113.359,0,0,0,196.1,0H753.886m-58.117-97.129,42.117-73.176A113.364,113.364,0,0,0,639.765,382.22l40-69.29m102.458,3.959-16-27.712m-75.26,30.207,16-27.713" transform="translate(-2.487 -4.541)"/><path class="cls-1" d="M1044.024,309.923l41.74,72.3a113.365,113.365,0,0,0-98.122-170.179l40.382,70.169M971.643,382.346H889.594a113.359,113.359,0,0,0,196.1,0h-82.048m-58.118-97.129,42.117-73.176A113.365,113.365,0,0,0,889.521,382.22l40-69.29m102.458,3.959-16-27.712m-75.26,30.207,16-27.713" transform="translate(-2.487 -4.541)"/><path class="cls-1" d="M1293.78,309.923l41.74,72.3A113.364,113.364,0,0,0,1237.4,212.041l40.381,70.169M1221.4,382.346H1139.35a113.359,113.359,0,0,0,196.1,0H1253.4m-58.118-97.129,42.118-73.176a113.365,113.365,0,0,0-98.122,170.179l40-69.29m102.458,3.959-16-27.712m-75.26,30.207,16-27.713" transform="translate(-2.487 -4.541)"/><path class="cls-1" d="M1543.536,309.923l41.741,72.3a113.365,113.365,0,0,0-98.122-170.179l40.381,70.169m-56.381,100.136h-82.049a113.359,113.359,0,0,0,196.1,0h-82.049m-58.117-97.129,42.117-73.176a113.364,113.364,0,0,0-98.121,170.179l40-69.29m102.457,3.959-16-27.712m-75.26,30.207,16-27.713" transform="translate(-2.487 -4.541)"/><path class="cls-1" d="M172.755,518.923l41.74,72.3a113.365,113.365,0,0,0-98.122-170.179l40.382,70.169M100.373,591.346H18.324a113.359,113.359,0,0,0,196.1,0H132.373M74.256,494.217l42.117-73.176A113.364,113.364,0,0,0,18.252,591.22l40-69.29m102.457,3.959-16-27.712M69.454,528.384l16-27.713" transform="translate(-2.487 -4.541)"/><path class="cls-1" d="M422.511,518.923l41.74,72.3a113.365,113.365,0,0,0-98.122-170.179l40.382,70.169M350.129,591.346H268.081a113.359,113.359,0,0,0,196.1,0H382.129m-58.117-97.129,42.117-73.176A113.364,113.364,0,0,0,268.008,591.22l40-69.29m102.458,3.959-16-27.712m-75.26,30.207,16-27.713" transform="translate(-2.487 -4.541)"/><path class="cls-1" d="M672.267,518.923l41.74,72.3a113.365,113.365,0,0,0-98.121-170.179l40.381,70.169M599.886,591.346H517.837a113.359,113.359,0,0,0,196.1,0H631.886m-58.118-97.129,42.118-73.176A113.365,113.365,0,0,0,517.764,591.22l40-69.29m102.458,3.959-16-27.712m-75.26,30.207,16-27.713" transform="translate(-2.487 -4.541)"/><path class="cls-1" d="M922.023,518.923l41.74,72.3a113.364,113.364,0,0,0-98.121-170.179l40.381,70.169M849.642,591.346H767.593a113.359,113.359,0,0,0,196.1,0H881.642m-58.117-97.129,42.117-73.176A113.365,113.365,0,0,0,767.52,591.22l40-69.29m102.457,3.959-16-27.712m-75.26,30.207,16-27.713" transform="translate(-2.487 -4.541)"/><path class="cls-1" d="M1171.779,518.923l41.741,72.3A113.365,113.365,0,0,0,1115.4,421.041l40.381,70.169M1099.4,591.346h-82.049a113.359,113.359,0,0,0,196.1,0H1131.4m-58.117-97.129,42.117-73.176a113.364,113.364,0,0,0-98.121,170.179l40-69.29m102.457,3.959-16-27.712m-75.26,30.207,16-27.713" transform="translate(-2.487 -4.541)"/><path class="cls-1" d="M1421.536,518.923l41.74,72.3a113.365,113.365,0,0,0-98.122-170.179l40.382,70.169m-56.382,100.136h-82.049a113.359,113.359,0,0,0,196.1,0h-82.049m-58.117-97.129,42.117-73.176a113.364,113.364,0,0,0-98.121,170.179l40-69.29m102.457,3.959-16-27.712m-75.26,30.207,16-27.713" transform="translate(-2.487 -4.541)"/><path class="cls-1" d="M294.755,725.923l41.74,72.3a113.365,113.365,0,0,0-98.122-170.179l40.382,70.169M222.374,798.346H140.325a113.359,113.359,0,0,0,196.1,0H254.374m-58.118-97.129,42.117-73.176A113.365,113.365,0,0,0,140.252,798.22l40-69.29m102.458,3.959-16-27.712m-75.26,30.207,16-27.713" transform="translate(-2.487 -4.541)"/><path class="cls-1" d="M544.511,725.923l41.74,72.3A113.364,113.364,0,0,0,488.13,628.041l40.381,70.169M472.13,798.346H390.081a113.359,113.359,0,0,0,196.1,0H504.13m-58.118-97.129,42.118-73.176A113.365,113.365,0,0,0,390.008,798.22l40-69.29m102.458,3.959-16-27.712m-75.26,30.207,16-27.713" transform="translate(-2.487 -4.541)"/><path class="cls-1" d="M794.267,725.923l41.741,72.3a113.365,113.365,0,0,0-98.122-170.179l40.381,70.169M721.886,798.346H639.837a113.359,113.359,0,0,0,196.1,0H753.886m-58.117-97.129,42.117-73.176A113.364,113.364,0,0,0,639.765,798.22l40-69.29m102.457,3.959-16-27.712m-75.26,30.207,16-27.713" transform="translate(-2.487 -4.541)"/><path class="cls-1" d="M1044.023,725.923l41.741,72.3a113.365,113.365,0,0,0-98.122-170.179l40.381,70.169M971.642,798.346H889.593a113.359,113.359,0,0,0,196.1,0h-82.049m-58.117-97.129,42.117-73.176A113.364,113.364,0,0,0,889.521,798.22l40-69.29m102.457,3.959-16-27.712m-75.26,30.207,16-27.713" transform="translate(-2.487 -4.541)"/><path class="cls-1" d="M1293.78,725.923l41.74,72.3A113.365,113.365,0,0,0,1237.4,628.041l40.382,70.169M1221.4,798.346h-82.049a113.359,113.359,0,0,0,196.1,0H1253.4m-58.117-97.129,42.117-73.176a113.364,113.364,0,0,0-98.121,170.179l40-69.29m102.457,3.959-16-27.712m-75.259,30.207,16-27.713" transform="translate(-2.487 -4.541)"/><path class="cls-1" d="M1543.536,725.923l41.74,72.3a113.365,113.365,0,0,0-98.122-170.179l40.382,70.169m-56.382,100.136h-82.048a113.359,113.359,0,0,0,196.1,0h-82.049m-58.117-97.129,42.117-73.176a113.364,113.364,0,0,0-98.121,170.179l40-69.29m102.458,3.959-16-27.712m-75.26,30.207,16-27.713" transform="translate(-2.487 -4.541)"/><path class="cls-1" d="M172.755,932.923l41.74,72.3a113.365,113.365,0,0,0-98.122-170.179l40.382,70.169m-56.382,100.136H18.324a113.359,113.359,0,0,0,196.1,0H132.373M74.256,908.217l42.117-73.176A113.364,113.364,0,0,0,18.252,1005.22l40-69.29m102.457,3.959-16-27.712M69.454,942.384l16-27.713" transform="translate(-2.487 -4.541)"/><path class="cls-1" d="M422.511,932.923l41.74,72.3a113.365,113.365,0,0,0-98.122-170.179l40.382,70.169m-56.382,100.136H268.081a113.359,113.359,0,0,0,196.1,0H382.129m-58.117-97.129,42.117-73.176a113.364,113.364,0,0,0-98.121,170.179l40-69.29m102.458,3.959-16-27.712m-75.26,30.207,16-27.713" transform="translate(-2.487 -4.541)"/><path class="cls-1" d="M672.267,932.923l41.74,72.3a113.365,113.365,0,0,0-98.121-170.179l40.381,70.169m-56.381,100.136H517.837a113.359,113.359,0,0,0,196.1,0H631.886m-58.118-97.129,42.118-73.176a113.365,113.365,0,0,0-98.122,170.179l40-69.29m102.458,3.959-16-27.712m-75.26,30.207,16-27.713" transform="translate(-2.487 -4.541)"/><path class="cls-1" d="M922.023,932.923l41.74,72.3a113.364,113.364,0,0,0-98.121-170.179l40.381,70.169m-56.381,100.136H767.593a113.359,113.359,0,0,0,196.1,0H881.642m-58.117-97.129,42.117-73.176A113.365,113.365,0,0,0,767.52,1005.22l40-69.29m102.457,3.959-16-27.712m-75.26,30.207,16-27.713" transform="translate(-2.487 -4.541)"/><path class="cls-1" d="M1171.779,932.923l41.741,72.3A113.365,113.365,0,0,0,1115.4,835.041l40.381,70.169M1099.4,1005.346h-82.049a113.359,113.359,0,0,0,196.1,0H1131.4m-58.117-97.129,42.117-73.176a113.364,113.364,0,0,0-98.121,170.179l40-69.29m102.457,3.959-16-27.712m-75.26,30.207,16-27.713" transform="translate(-2.487 -4.541)"/><path class="cls-1" d="M1421.536,932.923l41.74,72.3a113.365,113.365,0,0,0-98.122-170.179l40.382,70.169m-56.382,100.136h-82.049a113.359,113.359,0,0,0,196.1,0h-82.049m-58.117-97.129,42.117-73.176a113.364,113.364,0,0,0-98.121,170.179l40-69.29m102.457,3.959-16-27.712m-75.26,30.207,16-27.713" transform="translate(-2.487 -4.541)"/></svg>