<svg id="OneCircle" xmlns="http://www.w3.org/2000/svg" viewBox="0 0 1339.441 1078.165"><defs><style>.cls-1{fill:none;stroke:#000;stroke-miterlimit:10;}</style></defs><title>SmallCircle</title><path class="cls-1" d="M179.444,103.552l41.741,72.3A113.365,113.365,0,0,0,123.063,5.669l40.381,70.17M107.063,175.975H25.014a113.36,113.36,0,0,0,196.1,0H139.063M80.946,78.845,123.063,5.669A113.364,113.364,0,0,0,24.942,175.848l40-69.29m102.457,3.96-16-27.713m-75.26,30.207,16-27.713" transform="translate(-9.177 -5.169)"/><path class="cls-1" d="M426.889,103.552l41.741,72.3A113.365,113.365,0,0,0,370.508,5.669l40.381,70.17M354.508,175.975H272.459a113.36,113.36,0,0,0,196.1,0H386.508m-58.117-97.13L370.508,5.669a113.364,113.364,0,0,0-98.121,170.179l40-69.29m102.457,3.96-16-27.713m-75.26,30.207,16-27.713" transform="translate(-9.177 -5.169)"/><path class="cls-1" d="M674.334,103.552l41.74,72.3A113.364,113.364,0,0,0,617.953,5.669l40.381,70.17M601.953,175.975H519.9a113.36,113.36,0,0,0,196.1,0H633.953m-58.117-97.13L617.953,5.669a113.365,113.365,0,0,0-98.122,170.179l40-69.29m102.457,3.96-16-27.713m-75.26,30.207,16-27.713" transform="translate(-9.177 -5.169)"/><path class="cls-1" d="M921.779,103.552l41.74,72.3A113.364,113.364,0,0,0,865.4,5.669l40.381,70.17M849.4,175.975H767.349a113.36,113.36,0,0,0,196.1,0H881.4M823.28,78.845,865.4,5.669a113.365,113.365,0,0,0-98.122,170.179l40-69.29m102.458,3.96-16-27.713m-75.26,30.207,16-27.713" transform="translate(-9.177 -5.169)"/><path class="cls-1" d="M1169.224,103.552l41.74,72.3A113.365,113.365,0,0,0,1112.842,5.669l40.382,70.17m-56.381,100.136h-82.049a113.36,113.36,0,0,0,196.1,0h-82.048m-58.118-97.13,42.117-73.176a113.365,113.365,0,0,0-98.121,170.179l40-69.29m102.458,3.96-16-27.713m-75.26,30.207,16-27.713" transform="translate(-9.177 -5.169)"/><path class="cls-1" d="M301.334,313.315l41.74,72.3a113.364,113.364,0,0,0-98.121-170.179l40.381,70.17M228.953,385.739H146.9a113.36,113.36,0,0,0,196.1,0H260.953m-58.117-97.13,42.117-73.176a113.365,113.365,0,0,0-98.122,170.179l40.005-69.29m102.457,3.96-16-27.713m-75.26,30.207,16-27.713" transform="translate(-9.177 -5.169)"/><path class="cls-1" d="M548.779,313.315l41.74,72.3A113.364,113.364,0,0,0,492.4,215.433l40.381,70.17M476.4,385.739H394.349a113.36,113.36,0,0,0,196.1,0H508.4m-58.118-97.13L492.4,215.433a113.365,113.365,0,0,0-98.122,170.179l40-69.29m102.458,3.96-16-27.713m-75.26,30.207,16-27.713" transform="translate(-9.177 -5.169)"/><path class="cls-1" d="M796.224,313.315l41.74,72.3a113.365,113.365,0,0,0-98.122-170.179l40.382,70.17M723.843,385.739H641.794a113.36,113.36,0,0,0,196.1,0H755.843m-58.118-97.13,42.117-73.176a113.365,113.365,0,0,0-98.121,170.179l40-69.29m102.458,3.96-16-27.713m-75.26,30.207,16-27.713" transform="translate(-9.177 -5.169)"/><path class="cls-1" d="M1043.669,313.315l41.74,72.3a113.365,113.365,0,0,0-98.122-170.179l40.382,70.17M971.287,385.739H889.239a113.36,113.36,0,0,0,196.1,0h-82.049m-58.117-97.13,42.117-73.176a113.365,113.365,0,0,0-98.121,170.179l40-69.29m102.458,3.96-16-27.713m-75.26,30.207,16-27.713" transform="translate(-9.177 -5.169)"/><path class="cls-1" d="M1291.114,313.315l41.74,72.3a113.365,113.365,0,0,0-98.122-170.179l40.382,70.17m-56.382,100.136h-82.048a113.36,113.36,0,0,0,196.1,0h-82.049m-58.117-97.13,42.117-73.176a113.364,113.364,0,0,0-98.121,170.179l40-69.29m102.457,3.96-16-27.713m-75.259,30.207,16-27.713" transform="translate(-9.177 -5.169)"/><path class="cls-1" d="M179.444,525.914l41.741,72.3a113.365,113.365,0,0,0-98.122-170.179l40.381,70.17M107.063,598.337H25.014a113.36,113.36,0,0,0,196.1,0H139.063m-58.117-97.13,42.117-73.176A113.364,113.364,0,0,0,24.942,598.21l40-69.29M167.4,532.88l-16-27.713m-75.26,30.208,16-27.713" transform="translate(-9.177 -5.169)"/><path class="cls-1" d="M426.889,525.914l41.741,72.3a113.365,113.365,0,0,0-98.122-170.179l40.381,70.17M354.508,598.337H272.459a113.36,113.36,0,0,0,196.1,0H386.508m-58.117-97.13,42.117-73.176A113.364,113.364,0,0,0,272.387,598.21l40-69.29m102.457,3.96-16-27.713m-75.26,30.208,16-27.713" transform="translate(-9.177 -5.169)"/><path class="cls-1" d="M674.334,525.914l41.74,72.3a113.364,113.364,0,0,0-98.121-170.179l40.381,70.17M601.953,598.337H519.9a113.36,113.36,0,0,0,196.1,0H633.953m-58.117-97.13,42.117-73.176A113.365,113.365,0,0,0,519.831,598.21l40-69.29m102.457,3.96-16-27.713m-75.26,30.208,16-27.713" transform="translate(-9.177 -5.169)"/><path class="cls-1" d="M921.779,525.914l41.74,72.3A113.364,113.364,0,0,0,865.4,428.031l40.381,70.17M849.4,598.337H767.349a113.36,113.36,0,0,0,196.1,0H881.4m-58.118-97.13L865.4,428.031A113.365,113.365,0,0,0,767.276,598.21l40-69.29m102.458,3.96-16-27.713m-75.26,30.208,16-27.713" transform="translate(-9.177 -5.169)"/><path class="cls-1" d="M1169.224,525.914l41.74,72.3a113.365,113.365,0,0,0-98.122-170.179l40.382,70.17m-56.381,100.136h-82.049a113.36,113.36,0,0,0,196.1,0h-82.048m-58.118-97.13,42.117-73.176a113.365,113.365,0,0,0-98.121,170.179l40-69.29m102.458,3.96-16-27.713m-75.26,30.208,16-27.713" transform="translate(-9.177 -5.169)"/><path class="cls-1" d="M301.334,738.512l41.74,72.3A113.363,113.363,0,0,0,244.953,640.63L285.334,710.8M228.953,810.935H146.9a113.359,113.359,0,0,0,196.1,0H260.953m-58.117-97.129,42.117-73.176a113.364,113.364,0,0,0-98.122,170.178l40.005-69.289m102.457,3.959-16-27.712m-75.26,30.207,16-27.713" transform="translate(-9.177 -5.169)"/><path class="cls-1" d="M548.779,738.512l41.74,72.3A113.363,113.363,0,0,0,492.4,640.63L532.779,710.8M476.4,810.935H394.349a113.359,113.359,0,0,0,196.1,0H508.4M450.28,713.806,492.4,640.63a113.364,113.364,0,0,0-98.122,170.178l40-69.289m102.458,3.959-16-27.712m-75.26,30.207,16-27.713" transform="translate(-9.177 -5.169)"/><path class="cls-1" d="M796.224,738.512l41.74,72.3A113.364,113.364,0,0,0,739.842,640.63L780.224,710.8M723.843,810.935H641.794a113.359,113.359,0,0,0,196.1,0H755.843m-58.118-97.129,42.117-73.176a113.364,113.364,0,0,0-98.121,170.178l40-69.289m102.458,3.959-16-27.712m-75.26,30.207,16-27.713" transform="translate(-9.177 -5.169)"/><path class="cls-1" d="M1043.669,738.512l41.74,72.3A113.364,113.364,0,0,0,987.287,640.63l40.382,70.169M971.287,810.935H889.239a113.359,113.359,0,0,0,196.1,0h-82.049M945.17,713.806l42.117-73.176a113.364,113.364,0,0,0-98.121,170.178l40-69.289m102.458,3.959-16-27.712m-75.26,30.207,16-27.713" transform="translate(-9.177 -5.169)"/><path class="cls-1" d="M1291.114,738.512l41.74,72.3a113.364,113.364,0,0,0-98.122-170.178l40.382,70.169m-56.382,100.136h-82.048a113.359,113.359,0,0,0,196.1,0h-82.049m-58.117-97.129,42.117-73.176a113.363,113.363,0,0,0-98.121,170.178l40-69.289m102.457,3.959-16-27.712m-75.259,30.207,16-27.713" transform="translate(-9.177 -5.169)"/><path class="cls-1" d="M179.444,953.945l41.741,72.3a113.365,113.365,0,0,0-98.122-170.179l40.381,70.17m-56.381,100.136H25.014a113.36,113.36,0,0,0,196.1,0H139.063m-58.117-97.13,42.117-73.176a113.364,113.364,0,0,0-98.121,170.179l40-69.29m102.457,3.96-16-27.713m-75.26,30.207,16-27.713" transform="translate(-9.177 -5.169)"/><path class="cls-1" d="M426.889,953.945l41.741,72.3a113.365,113.365,0,0,0-98.122-170.179l40.381,70.17m-56.381,100.136H272.459a113.36,113.36,0,0,0,196.1,0H386.508m-58.117-97.13,42.117-73.176a113.364,113.364,0,0,0-98.121,170.179l40-69.29m102.457,3.96-16-27.713m-75.26,30.207,16-27.713" transform="translate(-9.177 -5.169)"/><path class="cls-1" d="M674.334,953.945l41.74,72.3a113.364,113.364,0,0,0-98.121-170.179l40.381,70.17m-56.381,100.136H519.9a113.36,113.36,0,0,0,196.1,0H633.953m-58.117-97.13,42.117-73.176a113.365,113.365,0,0,0-98.122,170.179l40-69.29m102.457,3.96-16-27.713m-75.26,30.207,16-27.713" transform="translate(-9.177 -5.169)"/><path class="cls-1" d="M921.779,953.945l41.74,72.3A113.364,113.364,0,0,0,865.4,856.063l40.381,70.17M849.4,1026.369H767.349a113.36,113.36,0,0,0,196.1,0H881.4m-58.118-97.13L865.4,856.063a113.365,113.365,0,0,0-98.122,170.179l40-69.29m102.458,3.96-16-27.713m-75.26,30.207,16-27.713" transform="translate(-9.177 -5.169)"/><path class="cls-1" d="M1169.224,953.945l41.74,72.3a113.365,113.365,0,0,0-98.122-170.179l40.382,70.17m-56.381,100.136h-82.049a113.36,113.36,0,0,0,196.1,0h-82.048m-58.118-97.13,42.117-73.176a113.365,113.365,0,0,0-98.121,170.179l40-69.29m102.458,3.96-16-27.713m-75.26,30.207,16-27.713" transform="translate(-9.177 -5.169)"/></svg>