  0
SECTION
  2
HEADER
  9
$ACADVER
  1
AC1024
  9
$ACADMAINTVER
 70
     6
  9
$DWGCODEPAGE
  3
ANSI_932
  9
$INSBASE
 10
0.0
 20
0.0
 30
0.0
  9
$EXTMIN
 10
1.000000000000000E+20
 20
1.000000000000000E+20
 30
1.000000000000000E+20
  9
$EXTMAX
 10
-1.000000000000000E+20
 20
-1.000000000000000E+20
 30
-1.000000000000000E+20
  9
$LIMMIN
 10
0.0
 20
0.0
  9
$LIMMAX
 10
12.0
 20
9.0
  9
$ORTHOMODE
 70
     0
  9
$REGENMODE
 70
     1
  9
$FILLMODE
 70
     1
  9
$QTEXTMODE
 70
     0
  9
$MIRRTEXT
 70
     1
  9
$LTSCALE
 40
1.0
  9
$ATTMODE
 70
     1
  9
$TEXTSIZE
 40
0.2
  9
$TRACEWID
 40
0.05
  9
$TEXTSTYLE
  7
Standard
  9
$CLAYER
  8
0
  9
$CELTYPE
  6
ByLayer
  9
$CECOLOR
 62
   256
  9
$CELTSCALE
 40
1.0
  9
$DISPSILH
 70
     0
  9
$DIMSCALE
 40
1.0
  9
$DIMASZ
 40
0.18
  9
$DIMEXO
 40
0.0625
  9
$DIMDLI
 40
0.38
  9
$DIMRND
 40
0.0
  9
$DIMDLE
 40
0.0
  9
$DIMEXE
 40
0.18
  9
$DIMTP
 40
0.0
  9
$DIMTM
 40
0.0
  9
$DIMTXT
 40
0.18
  9
$DIMCEN
 40
0.09
  9
$DIMTSZ
 40
0.0
  9
$DIMTOL
 70
     0
  9
$DIMLIM
 70
     0
  9
$DIMTIH
 70
     1
  9
$DIMTOH
 70
     1
  9
$DIMSE1
 70
     0
  9
$DIMSE2
 70
     0
  9
$DIMTAD
 70
     0
  9
$DIMZIN
 70
     0
  9
$DIMBLK
  1

  9
$DIMASO
 70
     1
  9
$DIMSHO
 70
     1
  9
$DIMPOST
  1

  9
$DIMAPOST
  1

  9
$DIMALT
 70
     0
  9
$DIMALTD
 70
     2
  9
$DIMALTF
 40
25.4
  9
$DIMLFAC
 40
1.0
  9
$DIMTOFL
 70
     0
  9
$DIMTVP
 40
0.0
  9
$DIMTIX
 70
     0
  9
$DIMSOXD
 70
     0
  9
$DIMSAH
 70
     0
  9
$DIMBLK1
  1

  9
$DIMBLK2
  1

  9
$DIMSTYLE
  2
Standard
  9
$DIMCLRD
 70
     0
  9
$DIMCLRE
 70
     0
  9
$DIMCLRT
 70
     0
  9
$DIMTFAC
 40
1.0
  9
$DIMGAP
 40
0.09
  9
$DIMJUST
 70
     0
  9
$DIMSD1
 70
     0
  9
$DIMSD2
 70
     0
  9
$DIMTOLJ
 70
     1
  9
$DIMTZIN
 70
     0
  9
$DIMALTZ
 70
     0
  9
$DIMALTTZ
 70
     0
  9
$DIMUPT
 70
     0
  9
$DIMDEC
 70
     4
  9
$DIMTDEC
 70
     4
  9
$DIMALTU
 70
     2
  9
$DIMALTTD
 70
     2
  9
$DIMTXSTY
  7
Standard
  9
$DIMAUNIT
 70
     0
  9
$DIMADEC
 70
     0
  9
$DIMALTRND
 40
0.0
  9
$DIMAZIN
 70
     0
  9
$DIMDSEP
 70
    46
  9
$DIMATFIT
 70
     3
  9
$DIMFRAC
 70
     0
  9
$DIMLDRBLK
  1

  9
$DIMLUNIT
 70
     2
  9
$DIMLWD
 70
    -2
  9
$DIMLWE
 70
    -2
  9
$DIMTMOVE
 70
     0
  9
$DIMFXL
 40
1.0
  9
$DIMFXLON
 70
     0
  9
$DIMJOGANG
 40
0.7853981633974483
  9
$DIMTFILL
 70
     0
  9
$DIMTFILLCLR
 70
     0
  9
$DIMARCSYM
 70
     0
  9
$DIMLTYPE
  6

  9
$DIMLTEX1
  6

  9
$DIMLTEX2
  6

  9
$DIMTXTDIRECTION
 70
     0
  9
$LUNITS
 70
     2
  9
$LUPREC
 70
     4
  9
$SKETCHINC
 40
0.1
  9
$FILLETRAD
 40
0.5
  9
$AUNITS
 70
     0
  9
$AUPREC
 70
     0
  9
$MENU
  1
.
  9
$ELEVATION
 40
0.0
  9
$PELEVATION
 40
0.0
  9
$THICKNESS
 40
0.0
  9
$LIMCHECK
 70
     0
  9
$CHAMFERA
 40
0.5
  9
$CHAMFERB
 40
0.5
  9
$CHAMFERC
 40
1.0
  9
$CHAMFERD
 40
0.0
  9
$SKPOLY
 70
     0
  9
$TDCREATE
 40
2458546.300852361
  9
$TDUCREATE
 40
2458545.925852361
  9
$TDUPDATE
 40
2458546.300852361
  9
$TDUUPDATE
 40
2458545.925852361
  9
$TDINDWG
 40
0.0000000116
  9
$TDUSRTIMER
 40
0.0000000116
  9
$USRTIMER
 70
     1
  9
$ANGBASE
 50
0.0
  9
$ANGDIR
 70
     0
  9
$PDMODE
 70
     0
  9
$PDSIZE
 40
0.0
  9
$PLINEWID
 40
0.0
  9
$SPLFRAME
 70
     0
  9
$SPLINETYPE
 70
     6
  9
$SPLINESEGS
 70
     8
  9
$HANDSEED
  5
6F
  9
$SURFTAB1
 70
     6
  9
$SURFTAB2
 70
     6
  9
$SURFTYPE
 70
     6
  9
$SURFU
 70
     6
  9
$SURFV
 70
     6
  9
$UCSBASE
  2

  9
$UCSNAME
  2

  9
$UCSORG
 10
0.0
 20
0.0
 30
0.0
  9
$UCSXDIR
 10
1.0
 20
0.0
 30
0.0
  9
$UCSYDIR
 10
0.0
 20
1.0
 30
0.0
  9
$UCSORTHOREF
  2

  9
$UCSORTHOVIEW
 70
     0
  9
$UCSORGTOP
 10
0.0
 20
0.0
 30
0.0
  9
$UCSORGBOTTOM
 10
0.0
 20
0.0
 30
0.0
  9
$UCSORGLEFT
 10
0.0
 20
0.0
 30
0.0
  9
$UCSORGRIGHT
 10
0.0
 20
0.0
 30
0.0
  9
$UCSORGFRONT
 10
0.0
 20
0.0
 30
0.0
  9
$UCSORGBACK
 10
0.0
 20
0.0
 30
0.0
  9
$PUCSBASE
  2

  9
$PUCSNAME
  2

  9
$PUCSORG
 10
0.0
 20
0.0
 30
0.0
  9
$PUCSXDIR
 10
1.0
 20
0.0
 30
0.0
  9
$PUCSYDIR
 10
0.0
 20
1.0
 30
0.0
  9
$PUCSORTHOREF
  2

  9
$PUCSORTHOVIEW
 70
     0
  9
$PUCSORGTOP
 10
0.0
 20
0.0
 30
0.0
  9
$PUCSORGBOTTOM
 10
0.0
 20
0.0
 30
0.0
  9
$PUCSORGLEFT
 10
0.0
 20
0.0
 30
0.0
  9
$PUCSORGRIGHT
 10
0.0
 20
0.0
 30
0.0
  9
$PUCSORGFRONT
 10
0.0
 20
0.0
 30
0.0
  9
$PUCSORGBACK
 10
0.0
 20
0.0
 30
0.0
  9
$USERI1
 70
     0
  9
$USERI2
 70
     0
  9
$USERI3
 70
     0
  9
$USERI4
 70
     0
  9
$USERI5
 70
     0
  9
$USERR1
 40
0.0
  9
$USERR2
 40
0.0
  9
$USERR3
 40
0.0
  9
$USERR4
 40
0.0
  9
$USERR5
 40
0.0
  9
$WORLDVIEW
 70
     1
  9
$SHADEDGE
 70
     3
  9
$SHADEDIF
 70
    70
  9
$TILEMODE
 70
     1
  9
$MAXACTVP
 70
    64
  9
$PINSBASE
 10
0.0
 20
0.0
 30
0.0
  9
$PLIMCHECK
 70
     0
  9
$PEXTMIN
 10
1.000000000000000E+20
 20
1.000000000000000E+20
 30
1.000000000000000E+20
  9
$PEXTMAX
 10
-1.000000000000000E+20
 20
-1.000000000000000E+20
 30
-1.000000000000000E+20
  9
$PLIMMIN
 10
0.0
 20
0.0
  9
$PLIMMAX
 10
12.0
 20
9.0
  9
$UNITMODE
 70
     0
  9
$VISRETAIN
 70
     1
  9
$PLINEGEN
 70
     0
  9
$PSLTSCALE
 70
     1
  9
$TREEDEPTH
 70
  3020
  9
$CMLSTYLE
  2
Standard
  9
$CMLJUST
 70
     0
  9
$CMLSCALE
 40
1.0
  9
$PROXYGRAPHICS
 70
     1
  9
$MEASUREMENT
 70
     0
  9
$CELWEIGHT
370
    -1
  9
$ENDCAPS
280
     0
  9
$JOINSTYLE
280
     0
  9
$LWDISPLAY
290
     1
  9
$INSUNITS
 70
     1
  9
$HYPERLINKBASE
  1

  9
$STYLESHEET
  1

  9
$XEDIT
290
     1
  9
$CEPSNTYPE
380
     0
  9
$PSTYLEMODE
290
     1
  9
$FINGERPRINTGUID
  2
{6AEFDC0E-F430-4B17-B058-D3831A765A12}
  9
$VERSIONGUID
  2
{FAEB1C32-E019-11D5-929B-00C0DF256EC4}
  9
$EXTNAMES
290
     1
  9
$PSVPSCALE
 40
0.0
  9
$OLESTARTUP
290
     0
  9
$SORTENTS
280
   127
  9
$INDEXCTL
280
     0
  9
$HIDETEXT
280
     1
  9
$XCLIPFRAME
280
     2
  9
$HALOGAP
280
     0
  9
$OBSCOLOR
 70
   257
  9
$OBSLTYPE
280
     0
  9
$INTERSECTIONDISPLAY
280
     0
  9
$INTERSECTIONCOLOR
 70
   257
  9
$DIMASSOC
280
     2
  9
$PROJECTNAME
  1

  9
$CAMERADISPLAY
290
     0
  9
$LENSLENGTH
 40
50.0
  9
$CAMERAHEIGHT
 40
0.0
  9
$STEPSPERSEC
 40
2.0
  9
$STEPSIZE
 40
6.0
  9
$3DDWFPREC
 40
2.0
  9
$PSOLWIDTH
 40
0.25
  9
$PSOLHEIGHT
 40
4.0
  9
$LOFTANG1
 40
1.570796326794897
  9
$LOFTANG2
 40
1.570796326794897
  9
$LOFTMAG1
 40
0.0
  9
$LOFTMAG2
 40
0.0
  9
$LOFTPARAM
 70
     7
  9
$LOFTNORMALS
280
     1
  9
$LATITUDE
 40
37.795
  9
$LONGITUDE
 40
-122.394
  9
$NORTHDIRECTION
 40
0.0
  9
$TIMEZONE
 70
 -8000
  9
$LIGHTGLYPHDISPLAY
280
     1
  9
$TILEMODELIGHTSYNCH
280
     1
  9
$CMATERIAL
347
3C
  9
$SOLIDHIST
280
     1
  9
$SHOWHIST
280
     1
  9
$DWFFRAME
280
     2
  9
$DGNFRAME
280
     2
  9
$REALWORLDSCALE
290
     1
  9
$INTERFERECOLOR
 62
   256
  9
$CSHADOW
280
     0
  9
$SHADOWPLANELOCATION
 40
0.0
  0
ENDSEC
  0
SECTION
  2
CLASSES
  0
CLASS
  1
ACDBDICTIONARYWDFLT
  2
AcDbDictionaryWithDefault
  3
ObjectDBX Classes
 90
        0
 91
        4
280
     0
281
     0
  0
CLASS
  1
VISUALSTYLE
  2
AcDbVisualStyle
  3
ObjectDBX Classes
 90
     4095
 91
        4
280
     0
281
     0
  0
CLASS
  1
MATERIAL
  2
AcDbMaterial
  3
ObjectDBX Classes
 90
     1153
 91
        4
280
     0
281
     0
  0
CLASS
  1
SUN
  2
AcDbSun
  3
SCENEOE
 90
     1024
 91
        4
280
     0
281
     0
  0
ENDSEC
  0
SECTION
  2
TABLES
  0
TABLE
  2
VPORT
  5
8
330
0
100
AcDbSymbolTable
 70
     1
  0
VPORT
  5
29
330
8
100
AcDbSymbolTableRecord
100
AcDbViewportTableRecord
  2
*Active
 70
     0
 10
0.0
 20
0.0
 11
1.0
 21
1.0
 12
0.0
 22
0.0
 13
0.0
 23
0.0
 14
0.5
 24
0.5
 15
0.5
 25
0.5
 16
0.0
 26
0.0
 36
1.0
 17
109.9999999725
 27
-59.999999985
 37
0.0
 40
119.99999997
 41
1.833333333333334
 42
50.0
 43
0.0
 44
0.0
 50
0.0
 51
0.0
 71
     0
 72
   100
 73
     1
 74
     3
 75
     0
 76
     0
 77
     0
 78
     0
281
     0
 65
     1
110
0.0
120
0.0
130
0.0
111
1.0
121
0.0
131
0.0
112
0.0
122
1.0
132
0.0
 79
     0
146
0.0
 60
     3
 61
     5
292
     1
282
     1
141
0.0
142
0.0
 63
   250
361
3F
  0
ENDTAB
  0
TABLE
  2
LTYPE
  5
5
330
0
100
AcDbSymbolTable
 70
     1
  0
LTYPE
  5
14
330
5
100
AcDbSymbolTableRecord
100
AcDbLinetypeTableRecord
  2
ByBlock
 70
     0
  3

 72
    65
 73
     0
 40
0.0
  0
LTYPE
  5
15
330
5
100
AcDbSymbolTableRecord
100
AcDbLinetypeTableRecord
  2
ByLayer
 70
     0
  3

 72
    65
 73
     0
 40
0.0
  0
LTYPE
  5
16
330
5
100
AcDbSymbolTableRecord
100
AcDbLinetypeTableRecord
  2
Continuous
 70
     0
  3
Solid line
 72
    65
 73
     0
 40
0.0
  0
ENDTAB
  0
TABLE
  2
LAYER
  5
2
330
0
100
AcDbSymbolTable
 70
     2
  0
LAYER
  5
10
330
2
100
AcDbSymbolTableRecord
100
AcDbLayerTableRecord
  2
0
 70
     0
 62
     7
  6
Continuous
370
    -3
390
F
347
3E
  0
LAYER
  5
40
330
2
100
AcDbSymbolTableRecord
100
AcDbLayerTableRecord
  2
Resized
 70
     0
 62
     7
  6
Continuous
370
    -3
390
F
347
3E
  0
ENDTAB
  0
TABLE
  2
STYLE
  5
3
330
0
100
AcDbSymbolTable
 70
     1
  0
STYLE
  5
11
330
3
100
AcDbSymbolTableRecord
100
AcDbTextStyleTableRecord
  2
Standard
 70
     0
 40
0.0
 41
1.0
 50
0.0
 71
     0
 42
0.2
  3
txt
  4

  0
ENDTAB
  0
TABLE
  2
VIEW
  5
6
330
0
100
AcDbSymbolTable
 70
     0
  0
ENDTAB
  0
TABLE
  2
UCS
  5
7
330
0
100
AcDbSymbolTable
 70
     0
  0
ENDTAB
  0
TABLE
  2
APPID
  5
9
330
0
100
AcDbSymbolTable
 70
     1
  0
APPID
  5
12
330
9
100
AcDbSymbolTableRecord
100
AcDbRegAppTableRecord
  2
ACAD
 70
     0
  0
ENDTAB
  0
TABLE
  2
DIMSTYLE
  5
A
330
0
100
AcDbSymbolTable
 70
     1
100
AcDbDimStyleTable
  0
DIMSTYLE
105
27
330
A
100
AcDbSymbolTableRecord
100
AcDbDimStyleTableRecord
  2
Standard
 70
     0
178
     0
340
11
  0
ENDTAB
  0
TABLE
  2
BLOCK_RECORD
  5
1
330
0
100
AcDbSymbolTable
 70
     1
  0
BLOCK_RECORD
  5
1F
330
1
100
AcDbSymbolTableRecord
100
AcDbBlockTableRecord
  2
*Model_Space
340
22
 70
     0
280
     1
281
     0
  0
BLOCK_RECORD
  5
1B
330
1
100
AcDbSymbolTableRecord
100
AcDbBlockTableRecord
  2
*Paper_Space
340
1E
 70
     0
280
     1
281
     0
  0
BLOCK_RECORD
  5
23
330
1
100
AcDbSymbolTableRecord
100
AcDbBlockTableRecord
  2
*Paper_Space0
340
26
 70
     0
280
     1
281
     0
  0
ENDTAB
  0
ENDSEC
  0
SECTION
  2
BLOCKS
  0
BLOCK
  5
20
330
1F
100
AcDbEntity
  8
0
100
AcDbBlockBegin
  2
*Model_Space
 70
     0
 10
0.0
 20
0.0
 30
0.0
  3
*Model_Space
  1

  0
ENDBLK
  5
21
330
1F
100
AcDbEntity
  8
0
100
AcDbBlockEnd
  0
BLOCK
  5
1C
330
1B
100
AcDbEntity
 67
     1
  8
0
100
AcDbBlockBegin
  2
*Paper_Space
 70
     0
 10
0.0
 20
0.0
 30
0.0
  3
*Paper_Space
  1

  0
ENDBLK
  5
1D
330
1B
100
AcDbEntity
 67
     1
  8
0
100
AcDbBlockEnd
  0
BLOCK
  5
24
330
23
100
AcDbEntity
  8
0
100
AcDbBlockBegin
  2
*Paper_Space0
 70
     0
 10
0.0
 20
0.0
 30
0.0
  3
*Paper_Space0
  1

  0
ENDBLK
  5
25
330
23
100
AcDbEntity
  8
0
100
AcDbBlockEnd
  0
ENDSEC
  0
SECTION
  2
ENTITIES
  0
POLYLINE
  5
41
330
1F
100
AcDbEntity
  8
Resized
 62
     7
420
 16777215
370
    35
100
AcDb2dPolyline
 66
     1
 10
0.0
 20
0.0
 30
0.0
  0
VERTEX
  5
42
330
41
100
AcDbEntity
  8
Resized
 62
     7
420
 16777215
370
    35
100
AcDbVertex
100
AcDb2dVertex
 10
132.4795184581856
 20
-115.444895736023
 30
0.0
  0
VERTEX
  5
43
330
41
100
AcDbEntity
  8
Resized
 62
     7
420
 16777215
370
    35
100
AcDbVertex
100
AcDb2dVertex
 10
116.3965007598007
 20
-87.4449600993161
 30
0.0
  0
VERTEX
  5
44
330
41
100
AcDbEntity
  8
Resized
 62
     7
420
 16777215
370
    35
100
AcDbVertex
100
AcDb2dVertex
 10
111.1039493798604
 20
-96.55457405379005
 30
0.0
  0
VERTEX
  5
45
330
41
100
AcDbEntity
  8
Resized
 62
     7
420
 16777215
370
    35
100
AcDbVertex
100
AcDb2dVertex
 10
73.38151257299528
 20
-30.88123320950113
 30
0.0
  0
VERTEX
  5
46
330
41
100
AcDbEntity
  8
Resized
 62
     7
420
 16777215
370
    35
100
AcDbVertex
100
AcDb2dVertex
 10
83.9126696881133
 20
-30.89182328850999
 30
0.0
  0
VERTEX
  5
47
330
41
100
AcDbEntity
  8
Resized
 62
     7
420
 16777215
370
    35
100
AcDbVertex
100
AcDb2dVertex
 10
67.81249948290755
 20
-2.862030160323722
 30
0.0
  0
VERTEX
  5
48
330
41
100
AcDbEntity
  8
Resized
 62
     7
420
 16777215
370
    35
100
AcDbVertex
100
AcDb2dVertex
 10
51.49538039040398
 20
-30.94730846017195
 30
0.0
  0
VERTEX
  5
49
330
41
100
AcDbEntity
  8
Resized
 62
     7
420
 16777215
370
    35
100
AcDbVertex
100
AcDb2dVertex
 10
61.57752437587796
 20
-30.95744756665277
 30
0.0
  0
VERTEX
  5
4A
330
41
100
AcDbEntity
  8
Resized
 62
     7
420
 16777215
370
    35
100
AcDbVertex
100
AcDb2dVertex
 10
23.46661361348969
 20
-96.55457405379005
 30
0.0
  0
VERTEX
  5
4B
330
41
100
AcDbEntity
  8
Resized
 62
     7
420
 16777215
370
    35
100
AcDbVertex
100
AcDb2dVertex
 10
18.45136368564554
 20
-87.82321719447224
 30
0.0
  0
VERTEX
  5
4C
330
41
100
AcDbEntity
  8
Resized
 62
     7
420
 16777215
370
    35
100
AcDbVertex
100
AcDb2dVertex
 10
2.479518490686953
 20
-115.3142381092558
 30
0.0
  0
VERTEX
  5
4D
330
41
100
AcDbEntity
  8
Resized
 62
     7
420
 16777215
370
    35
100
AcDbVertex
100
AcDb2dVertex
 10
34.6478398516494
 20
-115.3465681742471
 30
0.0
  0
VERTEX
  5
4E
330
41
100
AcDbEntity
  8
Resized
 62
     7
420
 16777215
370
    35
100
AcDbVertex
100
AcDb2dVertex
 10
29.56286024058547
 20
-106.4938064003641
 30
0.0
  0
VERTEX
  5
4F
330
41
100
AcDbEntity
  8
Resized
 62
     7
420
 16777215
370
    35
100
AcDbVertex
100
AcDb2dVertex
 10
105.3961767082865
 20
-106.5700207575186
 30
0.0
  0
VERTEX
  5
50
330
41
100
AcDbEntity
  8
Resized
 62
     7
420
 16777215
370
    35
100
AcDbVertex
100
AcDb2dVertex
 10
100.2588220809234
 20
-115.412519018703
 30
0.0
  0
VERTEX
  5
51
330
41
100
AcDbEntity
  8
Resized
 62
     7
420
 16777215
370
    35
100
AcDbVertex
100
AcDb2dVertex
 10
132.4795184581856
 20
-115.444895736023
 30
0.0
  0
SEQEND
  5
52
330
41
100
AcDbEntity
  8
Resized
 62
     7
420
 16777215
370
    35
  0
SPLINE
  5
53
330
1F
100
AcDbEntity
  8
Resized
 62
     7
420
 16777215
370
    35
100
AcDbSpline
210
0.0
220
0.0
230
1.0
 70
    11
 71
     3
 72
    23
 73
    19
 74
     0
 42
0.0000000001
 43
0.0000000001
 12
1.0
 22
0.0
 32
0.0
 13
1.0
 23
0.0
 33
0.0
 40
0.0
 40
0.0
 40
0.0
 40
0.0
 40
1.0
 40
1.0
 40
1.0
 40
2.0
 40
2.0
 40
2.0
 40
3.0
 40
3.0
 40
3.0
 40
4.0
 40
4.0
 40
4.0
 40
5.0
 40
5.0
 40
5.0
 40
6.0
 40
6.0
 40
6.0
 40
6.0
 10
43.11612421964929
 20
-78.45154154917697
 30
0.0
 10
42.61932355285906
 20
-78.16472302167132
 30
0.0
 10
42.46320930445317
 20
-77.50501241700847
 30
0.0
 10
42.76744470198678
 20
-76.97807434475958
 30
0.0
 10
42.76744470198678
 20
-76.97807434475958
 30
0.0
 10
54.85916892244251
 20
-56.03458360013436
 30
0.0
 10
54.85916892244251
 20
-56.03458360013436
 30
0.0
 10
55.16340431997998
 20
-55.50764552788484
 30
0.0
 10
55.81277365806444
 20
-55.31298090376261
 30
0.0
 10
56.30957432485435
 20
-55.59981498204557
 30
0.0
 10
56.80639054241676
 20
-55.88664906032981
 30
0.0
 10
56.96250479082649
 20
-56.54634411421664
 30
0.0
 10
56.65826939328903
 20
-57.07329773724155
 30
0.0
 10
56.65826939328903
 20
-57.07329773724155
 30
0.0
 10
44.56654517283329
 20
-78.01678848186708
 30
0.0
 10
44.56654517283329
 20
-78.01678848186708
 30
0.0
 10
44.26230977529904
 20
-78.54372655411308
 30
0.0
 10
43.61294043721555
 20
-78.73837562745865
 30
0.0
 10
43.11612421964929
 20
-78.45154154917697
 30
0.0
  0
SPLINE
  5
54
330
1F
100
AcDbEntity
  8
Resized
 62
     7
420
 16777215
370
    35
100
AcDbSpline
210
0.0
220
0.0
230
1.0
 70
    11
 71
     3
 72
    23
 73
    19
 74
     0
 42
0.0000000001
 43
0.0000000001
 12
1.0
 22
0.0
 32
0.0
 13
1.0
 23
0.0
 33
0.0
 40
0.0
 40
0.0
 40
0.0
 40
0.0
 40
1.0
 40
1.0
 40
1.0
 40
2.0
 40
2.0
 40
2.0
 40
3.0
 40
3.0
 40
3.0
 40
4.0
 40
4.0
 40
4.0
 40
5.0
 40
5.0
 40
5.0
 40
6.0
 40
6.0
 40
6.0
 40
6.0
 10
79.57125047028164
 20
-99.69772816443073
 30
0.0
 10
79.57125047028164
 20
-99.69772816443073
 30
0.0
 10
55.3877864785903
 20
-99.69772816443073
 30
0.0
 10
55.3877864785903
 20
-99.69772816443073
 30
0.0
 10
54.77933123429525
 20
-99.69772816443073
 30
0.0
 10
54.28606059384547
 20
-99.2326821838901
 30
0.0
 10
54.28606059384547
 20
-98.65901402732611
 30
0.0
 10
54.28606059384547
 20
-98.08534587075955
 30
0.0
 10
54.77933123429525
 20
-97.62029989021893
 30
0.0
 10
55.3877864785903
 20
-97.62029989021893
 30
0.0
 10
55.3877864785903
 20
-97.62029989021893
 30
0.0
 10
79.57125047028164
 20
-97.62029989021893
 30
0.0
 10
79.57125047028164
 20
-97.62029989021893
 30
0.0
 10
80.17970571457349
 20
-97.62029989021893
 30
0.0
 10
80.67297635502712
 20
-98.08534587075955
 30
0.0
 10
80.67297635502712
 20
-98.65901402732611
 30
0.0
 10
80.67297635502712
 20
-99.2326821838901
 30
0.0
 10
80.17970571457349
 20
-99.69772816443073
 30
0.0
 10
79.57125047028164
 20
-99.69772816443073
 30
0.0
  0
SPLINE
  5
55
330
1F
100
AcDbEntity
  8
Resized
 62
     7
420
 16777215
370
    35
100
AcDbSpline
210
0.0
220
0.0
230
1.0
 70
    11
 71
     3
 72
    32
 73
    28
 74
     0
 42
0.0000000001
 43
0.0000000001
 12
1.0
 22
0.0
 32
0.0
 13
1.0
 23
0.0
 33
0.0
 40
0.0
 40
0.0
 40
0.0
 40
0.0
 40
1.0
 40
1.0
 40
1.0
 40
2.0
 40
2.0
 40
2.0
 40
3.0
 40
3.0
 40
3.0
 40
4.0
 40
4.0
 40
4.0
 40
5.0
 40
5.0
 40
5.0
 40
6.0
 40
6.0
 40
6.0
 40
7.0
 40
7.0
 40
7.0
 40
8.0
 40
8.0
 40
8.0
 40
9.0
 40
9.0
 40
9.0
 40
9.0
 10
85.42042635540403
 20
-87.87685182369522
 30
0.0
 10
85.05247942527136
 20
-88.32916171802849
 30
0.0
 10
84.6691527768761
 20
-88.55852012521538
 30
0.0
 10
84.04797699714972
 20
-88.55852012521538
 30
0.0
 10
84.04797699714972
 20
-88.55852012521538
 30
0.0
 10
50.97618660500921
 20
-88.55852012521538
 30
0.0
 10
50.97618660500921
 20
-88.55852012521538
 30
0.0
 10
50.35501082528283
 20
-88.55852012521538
 30
0.0
 10
49.97168417688692
 20
-88.32916171802849
 30
0.0
 10
49.60372169597888
 20
-87.87685182369522
 30
0.0
 10
49.31971785907241
 20
-87.52773688428228
 30
0.0
 10
49.31971785907241
 20
-86.95789421881086
 30
0.0
 10
49.5267764523141
 20
-86.54558092243646
 30
0.0
 10
49.5267764523141
 20
-86.54558092243646
 30
0.0
 10
66.26913153672258
 20
-57.94751575723847
 30
0.0
 10
66.26913153672258
 20
-57.94751575723847
 30
0.0
 10
66.69236147841418
 20
-57.21944393771312
 30
0.0
 10
67.10050716660491
 20
-56.80713064134001
 30
0.0
 10
67.5517440573343
 20
-56.80713064134001
 30
0.0
 10
68.1169992436483
 20
-56.80713064134001
 30
0.0
 10
68.30751181036352
 20
-57.01328728952689
 30
0.0
 10
68.77952453891417
 20
-57.85533075230236
 30
0.0
 10
68.77952453891417
 20
-57.85533075230236
 30
0.0
 10
85.35313814414094
 20
-86.54558092243646
 30
0.0
 10
85.35313814414094
 20
-86.54558092243646
 30
0.0
 10
85.56019673738264
 20
-86.95789421881086
 30
0.0
 10
85.70444574308267
 20
-87.52773688428228
 30
0.0
 10
85.42042635540403
 20
-87.87685182369522
 30
0.0
  0
SPLINE
  5
56
330
1F
100
AcDbEntity
  8
Resized
 62
     7
420
 16777215
370
    35
100
AcDbSpline
210
0.0
220
0.0
230
1.0
 70
    11
 71
     3
 72
    23
 73
    19
 74
     0
 42
0.0000000001
 43
0.0000000001
 12
1.0
 22
0.0
 32
0.0
 13
1.0
 23
0.0
 33
0.0
 40
0.0
 40
0.0
 40
0.0
 40
0.0
 40
1.0
 40
1.0
 40
1.0
 40
2.0
 40
2.0
 40
2.0
 40
3.0
 40
3.0
 40
3.0
 40
4.0
 40
4.0
 40
4.0
 40
5.0
 40
5.0
 40
5.0
 40
6.0
 40
6.0
 40
6.0
 40
6.0
 10
92.0956750555139
 20
-78.55988381122104
 30
0.0
 10
91.59887438872366
 20
-78.84671788950624
 30
0.0
 10
90.94950505064017
 20
-78.65206881615971
 30
0.0
 10
90.64526965310655
 20
-78.12511519313095
 30
0.0
 10
90.64526965310655
 20
-78.12511519313095
 30
0.0
 10
78.55354543264633
 20
-57.1816244485083
 30
0.0
 10
78.55354543264633
 20
-57.1816244485083
 30
0.0
 10
78.24932558588874
 20
-56.65468637625878
 30
0.0
 10
78.40543983429848
 20
-55.99497577159593
 30
0.0
 10
78.9022405010855
 20
-55.70815724408963
 30
0.0
 10
79.39904116787574
 20
-55.42132316580603
 30
0.0
 10
80.04842605673525
 20
-55.61597223915288
 30
0.0
 10
80.35264590349284
 20
-56.14291031140112
 30
0.0
 10
80.35264590349284
 20
-56.14291031140112
 30
0.0
 10
92.44437012395242
 20
-77.086416606803
 30
0.0
 10
92.44437012395242
 20
-77.086416606803
 30
0.0
 10
92.74860552148668
 20
-77.61335467905285
 30
0.0
 10
92.59249127307694
 20
-78.27304973293872
 30
0.0
 10
92.0956750555139
 20
-78.55988381122104
 30
0.0
  0
POLYLINE
  5
57
330
1F
100
AcDbEntity
  8
Resized
 62
     7
420
 16777215
370
    35
100
AcDb2dPolyline
 66
     1
 10
0.0
 20
0.0
 30
0.0
  0
VERTEX
  5
58
330
57
100
AcDbEntity
  8
Resized
 62
     7
420
 16777215
370
    35
100
AcDbVertex
100
AcDb2dVertex
 10
71.97674069553487
 20
-2.862030160323722
 30
0.0
  0
VERTEX
  5
59
330
57
100
AcDbEntity
  8
Resized
 62
     7
420
 16777215
370
    35
100
AcDbVertex
100
AcDb2dVertex
 10
88.05975839391978
 20
-30.86196579703193
 30
0.0
  0
VERTEX
  5
5A
330
57
100
AcDbEntity
  8
Resized
 62
     7
420
 16777215
370
    35
100
AcDbVertex
100
AcDb2dVertex
 10
93.3523097738598
 20
-21.75235184255862
 30
0.0
  0
VERTEX
  5
5B
330
57
100
AcDbEntity
  8
Resized
 62
     7
420
 16777215
370
    35
100
AcDbVertex
100
AcDb2dVertex
 10
131.0747465807252
 20
-87.42569268684659
 30
0.0
  0
VERTEX
  5
5C
330
57
100
AcDbEntity
  8
Resized
 62
     7
420
 16777215
370
    35
100
AcDbVertex
100
AcDb2dVertex
 10
120.5435894656066
 20
-87.41510260783996
 30
0.0
  0
VERTEX
  5
5D
330
57
100
AcDbEntity
  8
Resized
 62
     7
420
 16777215
370
    35
100
AcDbVertex
100
AcDb2dVertex
 10
136.643759670813
 20
-115.444895736023
 30
0.0
  0
VERTEX
  5
5E
330
57
100
AcDbEntity
  8
Resized
 62
     7
420
 16777215
370
    35
100
AcDbVertex
100
AcDb2dVertex
 10
152.9608787633165
 20
-87.35961743617479
 30
0.0
  0
VERTEX
  5
5F
330
57
100
AcDbEntity
  8
Resized
 62
     7
420
 16777215
370
    35
100
AcDbVertex
100
AcDb2dVertex
 10
142.8787347778425
 20
-87.34947832969559
 30
0.0
  0
VERTEX
  5
60
330
57
100
AcDbEntity
  8
Resized
 62
     7
420
 16777215
370
    35
100
AcDbVertex
100
AcDb2dVertex
 10
180.9896455402308
 20
-21.75235184255862
 30
0.0
  0
VERTEX
  5
61
330
57
100
AcDbEntity
  8
Resized
 62
     7
420
 16777215
370
    35
100
AcDbVertex
100
AcDb2dVertex
 10
186.0048954680743
 20
-30.48370870187515
 30
0.0
  0
VERTEX
  5
62
330
57
100
AcDbEntity
  8
Resized
 62
     7
420
 16777215
370
    35
100
AcDbVertex
100
AcDb2dVertex
 10
201.9767406630336
 20
-2.992687787092214
 30
0.0
  0
VERTEX
  5
63
330
57
100
AcDbEntity
  8
Resized
 62
     7
420
 16777215
370
    35
100
AcDbVertex
100
AcDb2dVertex
 10
169.8084193020711
 20
-2.960357722101563
 30
0.0
  0
VERTEX
  5
64
330
57
100
AcDbEntity
  8
Resized
 62
     7
420
 16777215
370
    35
100
AcDbVertex
100
AcDb2dVertex
 10
174.8933989131344
 20
-11.81311949598328
 30
0.0
  0
VERTEX
  5
65
330
57
100
AcDbEntity
  8
Resized
 62
     7
420
 16777215
370
    35
100
AcDbVertex
100
AcDb2dVertex
 10
99.0600824454334
 20
-11.73690513883132
 30
0.0
  0
VERTEX
  5
66
330
57
100
AcDbEntity
  8
Resized
 62
     7
420
 16777215
370
    35
100
AcDbVertex
100
AcDb2dVertex
 10
104.1974370727964
 20
-2.894406877645967
 30
0.0
  0
VERTEX
  5
67
330
57
100
AcDbEntity
  8
Resized
 62
     7
420
 16777215
370
    35
100
AcDbVertex
100
AcDb2dVertex
 10
71.97674069553487
 20
-2.862030160323722
 30
0.0
  0
SEQEND
  5
68
330
57
100
AcDbEntity
  8
Resized
 62
     7
420
 16777215
370
    35
  0
SPLINE
  5
69
330
1F
100
AcDbEntity
  8
Resized
 62
     7
420
 16777215
370
    35
100
AcDbSpline
210
0.0
220
0.0
230
1.0
 70
    11
 71
     3
 72
    23
 73
    19
 74
     0
 42
0.0000000001
 43
0.0000000001
 12
1.0
 22
0.0
 32
0.0
 13
1.0
 23
0.0
 33
0.0
 40
0.0
 40
0.0
 40
0.0
 40
0.0
 40
1.0
 40
1.0
 40
1.0
 40
2.0
 40
2.0
 40
2.0
 40
3.0
 40
3.0
 40
3.0
 40
4.0
 40
4.0
 40
4.0
 40
5.0
 40
5.0
 40
5.0
 40
6.0
 40
6.0
 40
6.0
 40
6.0
 10
161.3401349340712
 20
-39.8553843471717
 30
0.0
 10
161.8369356008615
 20
-40.14220287467831
 30
0.0
 10
161.9930498492674
 20
-40.80191347934149
 30
0.0
 10
161.6888144517337
 20
-41.32885155159037
 30
0.0
 10
161.6888144517337
 20
-41.32885155159037
 30
0.0
 10
149.5970902312773
 20
-62.2723422962143
 30
0.0
 10
149.5970902312773
 20
-62.2723422962143
 30
0.0
 10
149.2928548337399
 20
-62.79928036846383
 30
0.0
 10
148.6434854956564
 20
-62.99394499258606
 30
0.0
 10
148.1466848288662
 20
-62.7071109143031
 30
0.0
 10
147.6498686113031
 20
-62.42027683601886
 30
0.0
 10
147.4937543628934
 20
-61.76058178213203
 30
0.0
 10
147.7979897604308
 20
-61.23362815910713
 30
0.0
 10
147.7979897604308
 20
-61.23362815910713
 30
0.0
 10
159.8897139808872
 20
-40.29013741448319
 30
0.0
 10
159.8897139808872
 20
-40.29013741448319
 30
0.0
 10
160.1939493784208
 20
-39.76319934223495
 30
0.0
 10
160.843318716505
 20
-39.56855026888874
 30
0.0
 10
161.3401349340712
 20
-39.8553843471717
 30
0.0
  0
SPLINE
  5
6A
330
1F
100
AcDbEntity
  8
Resized
 62
     7
420
 16777215
370
    35
100
AcDbSpline
210
0.0
220
0.0
230
1.0
 70
    11
 71
     3
 72
    23
 73
    19
 74
     0
 42
0.0000000001
 43
0.0000000001
 12
1.0
 22
0.0
 32
0.0
 13
1.0
 23
0.0
 33
0.0
 40
0.0
 40
0.0
 40
0.0
 40
0.0
 40
1.0
 40
1.0
 40
1.0
 40
2.0
 40
2.0
 40
2.0
 40
3.0
 40
3.0
 40
3.0
 40
4.0
 40
4.0
 40
4.0
 40
5.0
 40
5.0
 40
5.0
 40
6.0
 40
6.0
 40
6.0
 40
6.0
 10
124.8850086834382
 20
-18.60919773191666
 30
0.0
 10
124.8850086834382
 20
-18.60919773191666
 30
0.0
 10
149.0684726751296
 20
-18.60919773191666
 30
0.0
 10
149.0684726751296
 20
-18.60919773191666
 30
0.0
 10
149.6769279194246
 20
-18.60919773191666
 30
0.0
 10
150.170198559875
 20
-19.07424371245793
 30
0.0
 10
150.170198559875
 20
-19.64791186902384
 30
0.0
 10
150.170198559875
 20
-20.22158002559104
 30
0.0
 10
149.6769279194246
 20
-20.68662600613102
 30
0.0
 10
149.0684726751296
 20
-20.68662600613102
 30
0.0
 10
149.0684726751296
 20
-20.68662600613102
 30
0.0
 10
124.8850086834382
 20
-20.68662600613102
 30
0.0
 10
124.8850086834382
 20
-20.68662600613102
 30
0.0
 10
124.2765534391464
 20
-20.68662600613102
 30
0.0
 10
123.7832827986928
 20
-20.22158002559104
 30
0.0
 10
123.7832827986928
 20
-19.64791186902384
 30
0.0
 10
123.7832827986928
 20
-19.07424371245793
 30
0.0
 10
124.2765534391464
 20
-18.60919773191666
 30
0.0
 10
124.8850086834382
 20
-18.60919773191666
 30
0.0
  0
SPLINE
  5
6B
330
1F
100
AcDbEntity
  8
Resized
 62
     7
420
 16777215
370
    35
100
AcDbSpline
210
0.0
220
0.0
230
1.0
 70
    11
 71
     3
 72
    32
 73
    28
 74
     0
 42
0.0000000001
 43
0.0000000001
 12
1.0
 22
0.0
 32
0.0
 13
1.0
 23
0.0
 33
0.0
 40
0.0
 40
0.0
 40
0.0
 40
0.0
 40
1.0
 40
1.0
 40
1.0
 40
2.0
 40
2.0
 40
2.0
 40
3.0
 40
3.0
 40
3.0
 40
4.0
 40
4.0
 40
4.0
 40
5.0
 40
5.0
 40
5.0
 40
6.0
 40
6.0
 40
6.0
 40
7.0
 40
7.0
 40
7.0
 40
8.0
 40
8.0
 40
8.0
 40
9.0
 40
9.0
 40
9.0
 40
9.0
 10
119.0358327983158
 20
-30.43007407265346
 30
0.0
 10
119.4037797284485
 20
-29.97776417832146
 30
0.0
 10
119.7871063768438
 20
-29.74840577113264
 30
0.0
 10
120.4082821565702
 20
-29.74840577113264
 30
0.0
 10
120.4082821565702
 20
-29.74840577113264
 30
0.0
 10
153.4800725487113
 20
-29.74840577113264
 30
0.0
 10
153.4800725487113
 20
-29.74840577113264
 30
0.0
 10
154.1012483284377
 20
-29.74840577113264
 30
0.0
 10
154.4845749768329
 20
-29.97776417832146
 30
0.0
 10
154.8525374577416
 20
-30.43007407265346
 30
0.0
 10
155.1365412946481
 20
-30.77918901206639
 30
0.0
 10
155.1365412946481
 20
-31.34903167753781
 30
0.0
 10
154.9294827014058
 20
-31.76134497391092
 30
0.0
 10
154.9294827014058
 20
-31.76134497391092
 30
0.0
 10
138.1871276169979
 20
-60.3594101391102
 30
0.0
 10
138.1871276169979
 20
-60.3594101391102
 30
0.0
 10
137.7638976753063
 20
-61.08748195863555
 30
0.0
 10
137.355751987115
 20
-61.49979525500866
 30
0.0
 10
136.9045150963862
 20
-61.49979525500866
 30
0.0
 10
136.3392599100722
 20
-61.49979525500866
 30
0.0
 10
136.148747343357
 20
-61.29363860682179
 30
0.0
 10
135.6767346148063
 20
-60.45159514404631
 30
0.0
 10
135.6767346148063
 20
-60.45159514404631
 30
0.0
 10
119.1031210095796
 20
-31.76134497391092
 30
0.0
 10
119.1031210095796
 20
-31.76134497391092
 30
0.0
 10
118.8960624163372
 20
-31.34903167753781
 30
0.0
 10
118.7518134106372
 20
-30.77918901206639
 30
0.0
 10
119.0358327983158
 20
-30.43007407265346
 30
0.0
  0
SPLINE
  5
6C
330
1F
100
AcDbEntity
  8
Resized
 62
     7
420
 16777215
370
    35
100
AcDbSpline
210
0.0
220
0.0
230
1.0
 70
    11
 71
     3
 72
    23
 73
    19
 74
     0
 42
0.0000000001
 43
0.0000000001
 12
1.0
 22
0.0
 32
0.0
 13
1.0
 23
0.0
 33
0.0
 40
0.0
 40
0.0
 40
0.0
 40
0.0
 40
1.0
 40
1.0
 40
1.0
 40
2.0
 40
2.0
 40
2.0
 40
3.0
 40
3.0
 40
3.0
 40
4.0
 40
4.0
 40
4.0
 40
5.0
 40
5.0
 40
5.0
 40
6.0
 40
6.0
 40
6.0
 40
6.0
 10
112.360584098206
 20
-39.74704208512763
 30
0.0
 10
112.8573847649962
 20
-39.46020800684403
 30
0.0
 10
113.5067541030797
 20
-39.65485708019025
 30
0.0
 10
113.810989500614
 20
-40.18181070321643
 30
0.0
 10
113.810989500614
 20
-40.18181070321643
 30
0.0
 10
125.9027137210735
 20
-61.12530144784037
 30
0.0
 10
125.9027137210735
 20
-61.12530144784037
 30
0.0
 10
126.2069335678311
 20
-61.65223952008989
 30
0.0
 10
126.0508193194214
 20
-62.31195012475275
 30
0.0
 10
125.5540186526344
 20
-62.59876865225904
 30
0.0
 10
125.0572179858441
 20
-62.88560273054264
 30
0.0
 10
124.4078330969846
 20
-62.69095365719579
 30
0.0
 10
124.103613250227
 20
-62.16401558494755
 30
0.0
 10
124.103613250227
 20
-62.16401558494755
 30
0.0
 10
112.0118890297674
 20
-41.22050928954695
 30
0.0
 10
112.0118890297674
 20
-41.22050928954695
 30
0.0
 10
111.7076536322332
 20
-40.69357121729742
 30
0.0
 10
111.8637678806432
 20
-40.03387616341059
 30
0.0
 10
112.360584098206
 20
-39.74704208512763
 30
0.0
  0
ENDSEC
  0
SECTION
  2
OBJECTS
  0
DICTIONARY
  5
C
330
0
100
AcDbDictionary
281
     1
  3
ACAD_GROUP
350
D
  3
ACAD_LAYOUT
350
1A
  3
ACAD_MATERIAL
350
3B
  3
ACAD_MLEADERSTYLE
350
6E
  3
ACAD_MLINESTYLE
350
17
  3
ACAD_PLOTSETTINGS
350
19
  3
ACAD_PLOTSTYLENAME
350
E
  3
ACAD_TABLESTYLE
350
6D
  3
ACAD_VISUALSTYLE
350
2A
  0
SUN
  5
3F
330
29
100
AcDbSun
 90
        1
290
     0
 63
     7
421
 16777215
 40
1.0
291
     1
 91
  2455826
 92
 54000000
292
     0
 70
     2
 71
   256
280
     1
  0
DICTIONARY
  5
D
102
{ACAD_REACTORS
330
C
102
}
330
C
100
AcDbDictionary
281
     1
  0
DICTIONARY
  5
1A
102
{ACAD_REACTORS
330
C
102
}
330
C
100
AcDbDictionary
281
     1
  3
Layout1
350
1E
  3
Layout2
350
26
  3
Model
350
22
  0
DICTIONARY
  5
3B
102
{ACAD_REACTORS
330
C
102
}
330
C
100
AcDbDictionary
281
     1
  3
ByBlock
350
3D
  3
ByLayer
350
3C
  3
Global
350
3E
  0
DICTIONARY
  5
6E
102
{ACAD_REACTORS
330
C
102
}
330
C
100
AcDbDictionary
281
     1
  0
DICTIONARY
  5
17
102
{ACAD_REACTORS
330
C
102
}
330
C
100
AcDbDictionary
281
     1
  3
Standard
350
18
  0
DICTIONARY
  5
19
102
{ACAD_REACTORS
330
C
102
}
330
C
100
AcDbDictionary
281
     1
  0
ACDBDICTIONARYWDFLT
  5
E
102
{ACAD_REACTORS
330
C
102
}
330
C
100
AcDbDictionary
281
     1
  3
Normal
350
F
100
AcDbDictionaryWithDefault
340
F
  0
DICTIONARY
  5
6D
102
{ACAD_REACTORS
330
C
102
}
330
C
100
AcDbDictionary
281
     1
  0
DICTIONARY
  5
2A
102
{ACAD_REACTORS
330
C
102
}
330
C
100
AcDbDictionary
281
     1
  3
2dWireframe
350
2F
  3
3D Hidden
350
31
  3
3dWireframe
350
30
  3
Basic
350
32
  3
Brighten
350
36
  3
ColorChange
350
3A
  3
Conceptual
350
34
  3
Dim
350
35
  3
Facepattern
350
39
  3
Flat
350
2B
  3
FlatWithEdges
350
2C
  3
Gouraud
350
2D
  3
GouraudWithEdges
350
2E
  3
Linepattern
350
38
  3
Realistic
350
33
  3
Thicken
350
37
  0
LAYOUT
  5
1E
102
{ACAD_REACTORS
330
1A
102
}
330
1A
100
AcDbPlotSettings
  1

  2
none_device
  4

  6

 40
0.0
 41
0.0
 42
0.0
 43
0.0
 44
0.0
 45
0.0
 46
0.0
 47
0.0
 48
0.0
 49
0.0
140
0.0
141
0.0
142
1.0
143
1.0
 70
   688
 72
     0
 73
     0
 74
     5
  7

 75
    16
 76
     0
 77
     2
 78
   300
147
1.0
148
0.0
149
0.0
100
AcDbLayout
  1
Layout1
 70
     1
 71
     1
 10
0.0
 20
0.0
 11
12.0
 21
9.0
 12
0.0
 22
0.0
 32
0.0
 14
1.000000000000000E+20
 24
1.000000000000000E+20
 34
1.000000000000000E+20
 15
-1.000000000000000E+20
 25
-1.000000000000000E+20
 35
-1.000000000000000E+20
146
0.0
 13
0.0
 23
0.0
 33
0.0
 16
1.0
 26
0.0
 36
0.0
 17
0.0
 27
1.0
 37
0.0
 76
     0
330
1B
  0
LAYOUT
  5
26
102
{ACAD_REACTORS
330
1A
102
}
330
1A
100
AcDbPlotSettings
  1

  2
none_device
  4

  6

 40
0.0
 41
0.0
 42
0.0
 43
0.0
 44
0.0
 45
0.0
 46
0.0
 47
0.0
 48
0.0
 49
0.0
140
0.0
141
0.0
142
1.0
143
1.0
 70
   688
 72
     0
 73
     0
 74
     5
  7

 75
    16
 76
     0
 77
     2
 78
   300
147
1.0
148
0.0
149
0.0
100
AcDbLayout
  1
Layout2
 70
     1
 71
     2
 10
0.0
 20
0.0
 11
0.0
 21
0.0
 12
0.0
 22
0.0
 32
0.0
 14
0.0
 24
0.0
 34
0.0
 15
0.0
 25
0.0
 35
0.0
146
0.0
 13
0.0
 23
0.0
 33
0.0
 16
1.0
 26
0.0
 36
0.0
 17
0.0
 27
1.0
 37
0.0
 76
     0
330
23
  0
LAYOUT
  5
22
102
{ACAD_REACTORS
330
1A
102
}
330
1A
100
AcDbPlotSettings
  1

  2
none_device
  4

  6

 40
0.0
 41
0.0
 42
0.0
 43
0.0
 44
0.0
 45
0.0
 46
0.0
 47
0.0
 48
0.0
 49
0.0
140
0.0
141
0.0
142
1.0
143
1.0
 70
  1712
 72
     0
 73
     0
 74
     0
  7

 75
     0
 76
     0
 77
     2
 78
   300
147
1.0
148
0.0
149
0.0
100
AcDbLayout
  1
Model
 70
     1
 71
     0
 10
0.0
 20
0.0
 11
12.0
 21
9.0
 12
0.0
 22
0.0
 32
0.0
 14
1.000000000000000E+20
 24
1.000000000000000E+20
 34
1.000000000000000E+20
 15
-1.000000000000000E+20
 25
-1.000000000000000E+20
 35
-1.000000000000000E+20
146
0.0
 13
0.0
 23
0.0
 33
0.0
 16
1.0
 26
0.0
 36
0.0
 17
0.0
 27
1.0
 37
0.0
 76
     0
330
1F
331
29
  0
MATERIAL
  5
3D
102
{ACAD_REACTORS
330
3B
102
}
330
3B
100
AcDbMaterial
  1
ByBlock
 72
     1
 94
      127
  0
MATERIAL
  5
3C
102
{ACAD_REACTORS
330
3B
102
}
330
3B
100
AcDbMaterial
  1
ByLayer
 72
     1
 94
      127
  0
MATERIAL
  5
3E
102
{ACAD_REACTORS
330
3B
102
}
330
3B
100
AcDbMaterial
  1
Global
 72
     1
 94
      127
  0
MLINESTYLE
  5
18
102
{ACAD_REACTORS
330
17
102
}
330
17
100
AcDbMlineStyle
  2
Standard
 70
     0
  3

 62
   256
 51
90.0
 52
90.0
 71
     2
 49
0.5
 62
   256
  6
BYLAYER
 49
-0.5
 62
   256
  6
BYLAYER
  0
ACDBPLACEHOLDER
  5
F
102
{ACAD_REACTORS
330
E
102
}
330
E
  0
VISUALSTYLE
  5
2F
102
{ACAD_REACTORS
330
2A
102
}
330
2A
100
AcDbVisualStyle
  2
2dWireframe
 70
     4
177
     2
291
     0
 71
     0
176
     1
 72
     2
176
     1
 73
     0
176
     1
 90
        0
176
     1
 40
-0.6
176
     1
 41
-30.0
176
     1
 62
     5
 63
     7
421
 16777215
176
     1
 74
     1
176
     1
 91
        4
176
     1
 64
     7
176
     1
 65
   257
176
     1
 75
     1
176
     1
175
     1
176
     1
 42
1.0
176
     1
 92
        0
176
     1
 66
   257
176
     1
 43
1.0
176
     1
 76
     1
176
     1
 77
     6
176
     1
 78
     2
176
     1
 67
     7
176
     1
 79
     5
176
     1
170
     0
176
     1
171
     0
176
     1
290
     0
176
     1
 93
        1
176
     1
 44
0.0
176
     1
173
     0
176
     1
  0
VISUALSTYLE
  5
31
102
{ACAD_REACTORS
330
2A
102
}
330
2A
100
AcDbVisualStyle
  2
3D Hidden
 70
     6
177
     2
291
     0
 71
     1
176
     1
 72
     2
176
     1
 73
     2
176
     1
 90
        0
176
     1
 40
-0.6
176
     1
 41
-30.0
176
     1
 62
     5
 63
     7
421
 16777215
176
     1
 74
     2
176
     1
 91
        2
176
     1
 64
     7
176
     1
 65
   257
176
     1
 75
     2
176
     1
175
     1
176
     1
 42
40.0
176
     1
 92
        0
176
     1
 66
   257
176
     1
 43
1.0
176
     1
 76
     1
176
     1
 77
     6
176
     1
 78
     2
176
     1
 67
     7
176
     1
 79
     3
176
     1
170
     0
176
     1
171
     0
176
     1
290
     0
176
     1
 93
        1
176
     1
 44
0.0
176
     1
173
     0
176
     1
  0
VISUALSTYLE
  5
30
102
{ACAD_REACTORS
330
2A
102
}
330
2A
100
AcDbVisualStyle
  2
3dWireframe
 70
     5
177
     2
291
     0
 71
     0
176
     1
 72
     2
176
     1
 73
     0
176
     1
 90
        0
176
     1
 40
-0.6
176
     1
 41
-30.0
176
     1
 62
     5
 63
     7
421
 16777215
176
     1
 74
     1
176
     1
 91
        4
176
     1
 64
     7
176
     1
 65
   257
176
     1
 75
     1
176
     1
175
     1
176
     1
 42
1.0
176
     1
 92
        0
176
     1
 66
   257
176
     1
 43
1.0
176
     1
 76
     1
176
     1
 77
     6
176
     1
 78
     2
176
     1
 67
     7
176
     1
 79
     5
176
     1
170
     0
176
     1
171
     0
176
     1
290
     0
176
     1
 93
        1
176
     1
 44
0.0
176
     1
173
     0
176
     1
  0
VISUALSTYLE
  5
32
102
{ACAD_REACTORS
330
2A
102
}
330
2A
100
AcDbVisualStyle
  2
Basic
 70
     7
177
     2
291
     1
 71
     1
176
     1
 72
     0
176
     1
 73
     1
176
     1
 90
        0
176
     1
 40
-0.6
176
     1
 41
-30.0
176
     1
 62
     5
 63
     7
421
 16777215
176
     1
 74
     0
176
     1
 91
        4
176
     1
 64
     7
176
     1
 65
   257
176
     1
 75
     1
176
     1
175
     1
176
     1
 42
1.0
176
     1
 92
        8
176
     1
 66
     7
176
     1
 43
1.0
176
     1
 76
     1
176
     1
 77
     6
176
     1
 78
     2
176
     1
 67
     7
176
     1
 79
     5
176
     1
170
     0
176
     1
171
     0
176
     1
290
     0
176
     1
 93
        1
176
     1
 44
0.0
176
     1
173
     0
176
     1
  0
VISUALSTYLE
  5
36
102
{ACAD_REACTORS
330
2A
102
}
330
2A
100
AcDbVisualStyle
  2
Brighten
 70
    12
177
     2
291
     1
 71
     2
176
     1
 72
     2
176
     1
 73
     0
176
     1
 90
        0
176
     1
 40
-0.6
176
     1
 41
-30.0
176
     1
 62
     5
 63
     7
421
 16777215
176
     1
 74
     1
176
     1
 91
        4
176
     1
 64
     7
176
     1
 65
   257
176
     1
 75
     1
176
     1
175
     1
176
     1
 42
1.0
176
     1
 92
        8
176
     1
 66
     7
176
     1
 43
1.0
176
     1
 76
     1
176
     1
 77
     6
176
     1
 78
     2
176
     1
 67
     7
176
     1
 79
     5
176
     1
170
     0
176
     1
171
     0
176
     1
290
     0
176
     1
 93
        1
176
     1
 44
50.0
176
     1
173
     0
176
     1
  0
VISUALSTYLE
  5
3A
102
{ACAD_REACTORS
330
2A
102
}
330
2A
100
AcDbVisualStyle
  2
ColorChange
 70
    16
177
     2
291
     1
 71
     2
176
     1
 72
     2
176
     1
 73
     3
176
     1
 90
        0
176
     1
 40
-0.6
176
     1
 41
-30.0
176
     1
 62
     5
 63
     8
421
  8421504
176
     1
 74
     1
176
     1
 91
        4
176
     1
 64
     7
176
     1
 65
   257
176
     1
 75
     1
176
     1
175
     1
176
     1
 42
1.0
176
     1
 92
        8
176
     1
 66
     8
424
  8421504
176
     1
 43
1.0
176
     1
 76
     1
176
     1
 77
     6
176
     1
 78
     2
176
     1
 67
     7
176
     1
 79
     5
176
     1
170
     0
176
     1
171
     0
176
     1
290
     0
176
     1
 93
        1
176
     1
 44
0.0
176
     1
173
     0
176
     1
  0
VISUALSTYLE
  5
34
102
{ACAD_REACTORS
330
2A
102
}
330
2A
100
AcDbVisualStyle
  2
Conceptual
 70
     9
177
     2
291
     0
 71
     3
176
     1
 72
     2
176
     1
 73
     0
176
     1
 90
        0
176
     1
 40
-0.6
176
     1
 41
-30.0
176
     1
 62
     5
 63
     7
421
 16777215
176
     1
 74
     2
176
     1
 91
        2
176
     1
 64
     7
176
     1
 65
   257
176
     1
 75
     1
176
     1
175
     1
176
     1
 42
40.0
176
     1
 92
        8
176
     1
 66
     7
176
     1
 43
1.0
176
     1
 76
     1
176
     1
 77
     6
176
     1
 78
     2
176
     1
 67
     7
176
     1
 79
     3
176
     1
170
     0
176
     1
171
     0
176
     1
290
     0
176
     1
 93
        1
176
     1
 44
0.0
176
     1
173
     0
176
     1
  0
VISUALSTYLE
  5
35
102
{ACAD_REACTORS
330
2A
102
}
330
2A
100
AcDbVisualStyle
  2
Dim
 70
    11
177
     2
291
     1
 71
     2
176
     1
 72
     2
176
     1
 73
     0
176
     1
 90
        0
176
     1
 40
-0.6
176
     1
 41
-30.0
176
     1
 62
     5
 63
     7
421
 16777215
176
     1
 74
     1
176
     1
 91
        4
176
     1
 64
     7
176
     1
 65
   257
176
     1
 75
     1
176
     1
175
     1
176
     1
 42
1.0
176
     1
 92
        8
176
     1
 66
     7
176
     1
 43
1.0
176
     1
 76
     1
176
     1
 77
     6
176
     1
 78
     2
176
     1
 67
     7
176
     1
 79
     5
176
     1
170
     0
176
     1
171
     0
176
     1
290
     0
176
     1
 93
        1
176
     1
 44
-50.0
176
     1
173
     0
176
     1
  0
VISUALSTYLE
  5
39
102
{ACAD_REACTORS
330
2A
102
}
330
2A
100
AcDbVisualStyle
  2
Facepattern
 70
    15
177
     2
291
     1
 71
     2
176
     1
 72
     2
176
     1
 73
     0
176
     1
 90
        0
176
     1
 40
-0.6
176
     1
 41
-30.0
176
     1
 62
     5
 63
     7
421
 16777215
176
     1
 74
     1
176
     1
 91
        4
176
     1
 64
     7
176
     1
 65
   257
176
     1
 75
     1
176
     1
175
     1
176
     1
 42
1.0
176
     1
 92
        8
176
     1
 66
     7
176
     1
 43
1.0
176
     1
 76
     1
176
     1
 77
     6
176
     1
 78
     2
176
     1
 67
     7
176
     1
 79
     5
176
     1
170
     0
176
     1
171
     0
176
     1
290
     0
176
     1
 93
        1
176
     1
 44
0.0
176
     1
173
     0
176
     1
  0
VISUALSTYLE
  5
2B
102
{ACAD_REACTORS
330
2A
102
}
330
2A
100
AcDbVisualStyle
  2
Flat
 70
     0
177
     2
291
     1
 71
     2
176
     1
 72
     1
176
     1
 73
     1
176
     1
 90
        2
176
     1
 40
-0.6
176
     1
 41
30.0
176
     1
 62
     5
 63
     7
421
 16777215
176
     1
 74
     0
176
     1
 91
        4
176
     1
 64
     7
176
     1
 65
   257
176
     1
 75
     1
176
     1
175
     1
176
     1
 42
1.0
176
     1
 92
        8
176
     1
 66
     7
176
     1
 43
1.0
176
     1
 76
     1
176
     1
 77
     6
176
     1
 78
     2
176
     1
 67
     7
176
     1
 79
     5
176
     1
170
     0
176
     1
171
     0
176
     1
290
     0
176
     1
 93
       13
176
     1
 44
0.0
176
     1
173
     0
176
     1
  0
VISUALSTYLE
  5
2C
102
{ACAD_REACTORS
330
2A
102
}
330
2A
100
AcDbVisualStyle
  2
FlatWithEdges
 70
     1
177
     2
291
     1
 71
     2
176
     1
 72
     1
176
     1
 73
     1
176
     1
 90
        2
176
     1
 40
-0.6
176
     1
 41
30.0
176
     1
 62
     5
 63
     7
421
 16777215
176
     1
 74
     1
176
     1
 91
        4
176
     1
 64
     7
176
     1
 65
   257
176
     1
 75
     1
176
     1
175
     1
176
     1
 42
1.0
176
     1
 92
        0
176
     1
 66
   257
176
     1
 43
1.0
176
     1
 76
     1
176
     1
 77
     6
176
     1
 78
     2
176
     1
 67
     7
176
     1
 79
     5
176
     1
170
     0
176
     1
171
     0
176
     1
290
     0
176
     1
 93
       13
176
     1
 44
0.0
176
     1
173
     0
176
     1
  0
VISUALSTYLE
  5
2D
102
{ACAD_REACTORS
330
2A
102
}
330
2A
100
AcDbVisualStyle
  2
Gouraud
 70
     2
177
     2
291
     1
 71
     2
176
     1
 72
     2
176
     1
 73
     1
176
     1
 90
        2
176
     1
 40
-0.6
176
     1
 41
30.0
176
     1
 62
     5
 63
     7
421
 16777215
176
     1
 74
     0
176
     1
 91
        4
176
     1
 64
     7
176
     1
 65
   257
176
     1
 75
     1
176
     1
175
     1
176
     1
 42
1.0
176
     1
 92
        0
176
     1
 66
     7
176
     1
 43
1.0
176
     1
 76
     1
176
     1
 77
     6
176
     1
 78
     2
176
     1
 67
     7
176
     1
 79
     5
176
     1
170
     0
176
     1
171
     0
176
     1
290
     0
176
     1
 93
       13
176
     1
 44
0.0
176
     1
173
     0
176
     1
  0
VISUALSTYLE
  5
2E
102
{ACAD_REACTORS
330
2A
102
}
330
2A
100
AcDbVisualStyle
  2
GouraudWithEdges
 70
     3
177
     2
291
     1
 71
     2
176
     1
 72
     2
176
     1
 73
     1
176
     1
 90
        2
176
     1
 40
-0.6
176
     1
 41
30.0
176
     1
 62
     5
 63
     7
421
 16777215
176
     1
 74
     1
176
     1
 91
        4
176
     1
 64
     7
176
     1
 65
   257
176
     1
 75
     1
176
     1
175
     1
176
     1
 42
1.0
176
     1
 92
        0
176
     1
 66
   257
176
     1
 43
1.0
176
     1
 76
     1
176
     1
 77
     6
176
     1
 78
     2
176
     1
 67
     7
176
     1
 79
     5
176
     1
170
     0
176
     1
171
     0
176
     1
290
     0
176
     1
 93
       13
176
     1
 44
0.0
176
     1
173
     0
176
     1
  0
VISUALSTYLE
  5
38
102
{ACAD_REACTORS
330
2A
102
}
330
2A
100
AcDbVisualStyle
  2
Linepattern
 70
    14
177
     2
291
     1
 71
     2
176
     1
 72
     2
176
     1
 73
     0
176
     1
 90
        0
176
     1
 40
-0.6
176
     1
 41
-30.0
176
     1
 62
     5
 63
     7
421
 16777215
176
     1
 74
     1
176
     1
 91
        4
176
     1
 64
     7
176
     1
 65
   257
176
     1
 75
     7
176
     1
175
     7
176
     1
 42
1.0
176
     1
 92
        8
176
     1
 66
     7
176
     1
 43
1.0
176
     1
 76
     1
176
     1
 77
     6
176
     1
 78
     2
176
     1
 67
     7
176
     1
 79
     5
176
     1
170
     0
176
     1
171
     0
176
     1
290
     0
176
     1
 93
        1
176
     1
 44
0.0
176
     1
173
     0
176
     1
  0
VISUALSTYLE
  5
33
102
{ACAD_REACTORS
330
2A
102
}
330
2A
100
AcDbVisualStyle
  2
Realistic
 70
     8
177
     2
291
     0
 71
     2
176
     1
 72
     2
176
     1
 73
     0
176
     1
 90
        0
176
     1
 40
-0.6
176
     1
 41
-30.0
176
     1
 62
     5
 63
     7
421
 16777215
176
     1
 74
     1
176
     1
 91
        0
176
     1
 64
     7
176
     1
 65
   257
176
     1
 75
     1
176
     1
175
     1
176
     1
 42
1.0
176
     1
 92
        8
176
     1
 66
     8
424
  7895160
176
     1
 43
1.0
176
     1
 76
     1
176
     1
 77
     6
176
     1
 78
     2
176
     1
 67
     7
176
     1
 79
     5
176
     1
170
     0
176
     1
171
     0
176
     1
290
     0
176
     1
 93
       13
176
     1
 44
0.0
176
     1
173
     0
176
     1
  0
VISUALSTYLE
  5
37
102
{ACAD_REACTORS
330
2A
102
}
330
2A
100
AcDbVisualStyle
  2
Thicken
 70
    13
177
     2
291
     1
 71
     2
176
     1
 72
     2
176
     1
 73
     0
176
     1
 90
        0
176
     1
 40
-0.6
176
     1
 41
-30.0
176
     1
 62
     5
 63
     7
421
 16777215
176
     1
 74
     1
176
     1
 91
        4
176
     1
 64
     7
176
     1
 65
   257
176
     1
 75
     1
176
     1
175
     1
176
     1
 42
1.0
176
     1
 92
       12
176
     1
 66
     7
176
     1
 43
1.0
176
     1
 76
     1
176
     1
 77
     6
176
     1
 78
     2
176
     1
 67
     7
176
     1
 79
     5
176
     1
170
     0
176
     1
171
     0
176
     1
290
     0
176
     1
 93
        1
176
     1
 44
0.0
176
     1
173
     0
176
     1
  0
ENDSEC
  0
EOF
