  0
SECTION
  2
HEADER
  9
$ACADVER
  1
AC1024
  9
$ACADMAINTVER
 70
     6
  9
$DWGCODEPAGE
  3
ANSI_932
  9
$INSBASE
 10
0.0
 20
0.0
 30
0.0
  9
$EXTMIN
 10
1.000000000000000E+20
 20
1.000000000000000E+20
 30
1.000000000000000E+20
  9
$EXTMAX
 10
-1.000000000000000E+20
 20
-1.000000000000000E+20
 30
-1.000000000000000E+20
  9
$LIMMIN
 10
0.0
 20
0.0
  9
$LIMMAX
 10
12.0
 20
9.0
  9
$ORTHOMODE
 70
     0
  9
$REGENMODE
 70
     1
  9
$FILLMODE
 70
     1
  9
$QTEXTMODE
 70
     0
  9
$MIRRTEXT
 70
     1
  9
$LTSCALE
 40
1.0
  9
$ATTMODE
 70
     1
  9
$TEXTSIZE
 40
0.2
  9
$TRACEWID
 40
0.05
  9
$TEXTSTYLE
  7
Standard
  9
$CLAYER
  8
0
  9
$CELTYPE
  6
ByLayer
  9
$CECOLOR
 62
   256
  9
$CELTSCALE
 40
1.0
  9
$DISPSILH
 70
     0
  9
$DIMSCALE
 40
1.0
  9
$DIMASZ
 40
0.18
  9
$DIMEXO
 40
0.0625
  9
$DIMDLI
 40
0.38
  9
$DIMRND
 40
0.0
  9
$DIMDLE
 40
0.0
  9
$DIMEXE
 40
0.18
  9
$DIMTP
 40
0.0
  9
$DIMTM
 40
0.0
  9
$DIMTXT
 40
0.18
  9
$DIMCEN
 40
0.09
  9
$DIMTSZ
 40
0.0
  9
$DIMTOL
 70
     0
  9
$DIMLIM
 70
     0
  9
$DIMTIH
 70
     1
  9
$DIMTOH
 70
     1
  9
$DIMSE1
 70
     0
  9
$DIMSE2
 70
     0
  9
$DIMTAD
 70
     0
  9
$DIMZIN
 70
     0
  9
$DIMBLK
  1

  9
$DIMASO
 70
     1
  9
$DIMSHO
 70
     1
  9
$DIMPOST
  1

  9
$DIMAPOST
  1

  9
$DIMALT
 70
     0
  9
$DIMALTD
 70
     2
  9
$DIMALTF
 40
25.4
  9
$DIMLFAC
 40
1.0
  9
$DIMTOFL
 70
     0
  9
$DIMTVP
 40
0.0
  9
$DIMTIX
 70
     0
  9
$DIMSOXD
 70
     0
  9
$DIMSAH
 70
     0
  9
$DIMBLK1
  1

  9
$DIMBLK2
  1

  9
$DIMSTYLE
  2
Standard
  9
$DIMCLRD
 70
     0
  9
$DIMCLRE
 70
     0
  9
$DIMCLRT
 70
     0
  9
$DIMTFAC
 40
1.0
  9
$DIMGAP
 40
0.09
  9
$DIMJUST
 70
     0
  9
$DIMSD1
 70
     0
  9
$DIMSD2
 70
     0
  9
$DIMTOLJ
 70
     1
  9
$DIMTZIN
 70
     0
  9
$DIMALTZ
 70
     0
  9
$DIMALTTZ
 70
     0
  9
$DIMUPT
 70
     0
  9
$DIMDEC
 70
     4
  9
$DIMTDEC
 70
     4
  9
$DIMALTU
 70
     2
  9
$DIMALTTD
 70
     2
  9
$DIMTXSTY
  7
Standard
  9
$DIMAUNIT
 70
     0
  9
$DIMADEC
 70
     0
  9
$DIMALTRND
 40
0.0
  9
$DIMAZIN
 70
     0
  9
$DIMDSEP
 70
    46
  9
$DIMATFIT
 70
     3
  9
$DIMFRAC
 70
     0
  9
$DIMLDRBLK
  1

  9
$DIMLUNIT
 70
     2
  9
$DIMLWD
 70
    -2
  9
$DIMLWE
 70
    -2
  9
$DIMTMOVE
 70
     0
  9
$DIMFXL
 40
1.0
  9
$DIMFXLON
 70
     0
  9
$DIMJOGANG
 40
0.7853981633974483
  9
$DIMTFILL
 70
     0
  9
$DIMTFILLCLR
 70
     0
  9
$DIMARCSYM
 70
     0
  9
$DIMLTYPE
  6

  9
$DIMLTEX1
  6

  9
$DIMLTEX2
  6

  9
$DIMTXTDIRECTION
 70
     0
  9
$LUNITS
 70
     2
  9
$LUPREC
 70
     4
  9
$SKETCHINC
 40
0.1
  9
$FILLETRAD
 40
0.5
  9
$AUNITS
 70
     0
  9
$AUPREC
 70
     0
  9
$MENU
  1
.
  9
$ELEVATION
 40
0.0
  9
$PELEVATION
 40
0.0
  9
$THICKNESS
 40
0.0
  9
$LIMCHECK
 70
     0
  9
$CHAMFERA
 40
0.5
  9
$CHAMFERB
 40
0.5
  9
$CHAMFERC
 40
1.0
  9
$CHAMFERD
 40
0.0
  9
$SKPOLY
 70
     0
  9
$TDCREATE
 40
2458546.298330544
  9
$TDUCREATE
 40
2458545.923330544
  9
$TDUPDATE
 40
2458546.29833059
  9
$TDUUPDATE
 40
2458545.92333059
  9
$TDINDWG
 40
0.0000000116
  9
$TDUSRTIMER
 40
0.0000000116
  9
$USRTIMER
 70
     1
  9
$ANGBASE
 50
0.0
  9
$ANGDIR
 70
     0
  9
$PDMODE
 70
     0
  9
$PDSIZE
 40
0.0
  9
$PLINEWID
 40
0.0
  9
$SPLFRAME
 70
     0
  9
$SPLINETYPE
 70
     6
  9
$SPLINESEGS
 70
     8
  9
$HANDSEED
  5
C7
  9
$SURFTAB1
 70
     6
  9
$SURFTAB2
 70
     6
  9
$SURFTYPE
 70
     6
  9
$SURFU
 70
     6
  9
$SURFV
 70
     6
  9
$UCSBASE
  2

  9
$UCSNAME
  2

  9
$UCSORG
 10
0.0
 20
0.0
 30
0.0
  9
$UCSXDIR
 10
1.0
 20
0.0
 30
0.0
  9
$UCSYDIR
 10
0.0
 20
1.0
 30
0.0
  9
$UCSORTHOREF
  2

  9
$UCSORTHOVIEW
 70
     0
  9
$UCSORGTOP
 10
0.0
 20
0.0
 30
0.0
  9
$UCSORGBOTTOM
 10
0.0
 20
0.0
 30
0.0
  9
$UCSORGLEFT
 10
0.0
 20
0.0
 30
0.0
  9
$UCSORGRIGHT
 10
0.0
 20
0.0
 30
0.0
  9
$UCSORGFRONT
 10
0.0
 20
0.0
 30
0.0
  9
$UCSORGBACK
 10
0.0
 20
0.0
 30
0.0
  9
$PUCSBASE
  2

  9
$PUCSNAME
  2

  9
$PUCSORG
 10
0.0
 20
0.0
 30
0.0
  9
$PUCSXDIR
 10
1.0
 20
0.0
 30
0.0
  9
$PUCSYDIR
 10
0.0
 20
1.0
 30
0.0
  9
$PUCSORTHOREF
  2

  9
$PUCSORTHOVIEW
 70
     0
  9
$PUCSORGTOP
 10
0.0
 20
0.0
 30
0.0
  9
$PUCSORGBOTTOM
 10
0.0
 20
0.0
 30
0.0
  9
$PUCSORGLEFT
 10
0.0
 20
0.0
 30
0.0
  9
$PUCSORGRIGHT
 10
0.0
 20
0.0
 30
0.0
  9
$PUCSORGFRONT
 10
0.0
 20
0.0
 30
0.0
  9
$PUCSORGBACK
 10
0.0
 20
0.0
 30
0.0
  9
$USERI1
 70
     0
  9
$USERI2
 70
     0
  9
$USERI3
 70
     0
  9
$USERI4
 70
     0
  9
$USERI5
 70
     0
  9
$USERR1
 40
0.0
  9
$USERR2
 40
0.0
  9
$USERR3
 40
0.0
  9
$USERR4
 40
0.0
  9
$USERR5
 40
0.0
  9
$WORLDVIEW
 70
     1
  9
$SHADEDGE
 70
     3
  9
$SHADEDIF
 70
    70
  9
$TILEMODE
 70
     1
  9
$MAXACTVP
 70
    64
  9
$PINSBASE
 10
0.0
 20
0.0
 30
0.0
  9
$PLIMCHECK
 70
     0
  9
$PEXTMIN
 10
1.000000000000000E+20
 20
1.000000000000000E+20
 30
1.000000000000000E+20
  9
$PEXTMAX
 10
-1.000000000000000E+20
 20
-1.000000000000000E+20
 30
-1.000000000000000E+20
  9
$PLIMMIN
 10
0.0
 20
0.0
  9
$PLIMMAX
 10
12.0
 20
9.0
  9
$UNITMODE
 70
     0
  9
$VISRETAIN
 70
     1
  9
$PLINEGEN
 70
     0
  9
$PSLTSCALE
 70
     1
  9
$TREEDEPTH
 70
  3020
  9
$CMLSTYLE
  2
Standard
  9
$CMLJUST
 70
     0
  9
$CMLSCALE
 40
1.0
  9
$PROXYGRAPHICS
 70
     1
  9
$MEASUREMENT
 70
     0
  9
$CELWEIGHT
370
    -1
  9
$ENDCAPS
280
     0
  9
$JOINSTYLE
280
     0
  9
$LWDISPLAY
290
     1
  9
$INSUNITS
 70
     1
  9
$HYPERLINKBASE
  1

  9
$STYLESHEET
  1

  9
$XEDIT
290
     1
  9
$CEPSNTYPE
380
     0
  9
$PSTYLEMODE
290
     1
  9
$FINGERPRINTGUID
  2
{68DFE390-5464-4CAD-AA8F-1F78989C6FAD}
  9
$VERSIONGUID
  2
{FAEB1C32-E019-11D5-929B-00C0DF256EC4}
  9
$EXTNAMES
290
     1
  9
$PSVPSCALE
 40
0.0
  9
$OLESTARTUP
290
     0
  9
$SORTENTS
280
   127
  9
$INDEXCTL
280
     0
  9
$HIDETEXT
280
     1
  9
$XCLIPFRAME
280
     2
  9
$HALOGAP
280
     0
  9
$OBSCOLOR
 70
   257
  9
$OBSLTYPE
280
     0
  9
$INTERSECTIONDISPLAY
280
     0
  9
$INTERSECTIONCOLOR
 70
   257
  9
$DIMASSOC
280
     2
  9
$PROJECTNAME
  1

  9
$CAMERADISPLAY
290
     0
  9
$LENSLENGTH
 40
50.0
  9
$CAMERAHEIGHT
 40
0.0
  9
$STEPSPERSEC
 40
2.0
  9
$STEPSIZE
 40
6.0
  9
$3DDWFPREC
 40
2.0
  9
$PSOLWIDTH
 40
0.25
  9
$PSOLHEIGHT
 40
4.0
  9
$LOFTANG1
 40
1.570796326794897
  9
$LOFTANG2
 40
1.570796326794897
  9
$LOFTMAG1
 40
0.0
  9
$LOFTMAG2
 40
0.0
  9
$LOFTPARAM
 70
     7
  9
$LOFTNORMALS
280
     1
  9
$LATITUDE
 40
37.795
  9
$LONGITUDE
 40
-122.394
  9
$NORTHDIRECTION
 40
0.0
  9
$TIMEZONE
 70
 -8000
  9
$LIGHTGLYPHDISPLAY
280
     1
  9
$TILEMODELIGHTSYNCH
280
     1
  9
$CMATERIAL
347
3C
  9
$SOLIDHIST
280
     1
  9
$SHOWHIST
280
     1
  9
$DWFFRAME
280
     2
  9
$DGNFRAME
280
     2
  9
$REALWORLDSCALE
290
     1
  9
$INTERFERECOLOR
 62
   256
  9
$CSHADOW
280
     0
  9
$SHADOWPLANELOCATION
 40
0.0
  0
ENDSEC
  0
SECTION
  2
CLASSES
  0
CLASS
  1
ACDBDICTIONARYWDFLT
  2
AcDbDictionaryWithDefault
  3
ObjectDBX Classes
 90
        0
 91
        4
280
     0
281
     0
  0
CLASS
  1
VISUALSTYLE
  2
AcDbVisualStyle
  3
ObjectDBX Classes
 90
     4095
 91
        4
280
     0
281
     0
  0
CLASS
  1
MATERIAL
  2
AcDbMaterial
  3
ObjectDBX Classes
 90
     1153
 91
        4
280
     0
281
     0
  0
CLASS
  1
SUN
  2
AcDbSun
  3
SCENEOE
 90
     1024
 91
        4
280
     0
281
     0
  0
ENDSEC
  0
SECTION
  2
TABLES
  0
TABLE
  2
VPORT
  5
8
330
0
100
AcDbSymbolTable
 70
     1
  0
VPORT
  5
29
330
8
100
AcDbSymbolTableRecord
100
AcDbViewportTableRecord
  2
*Active
 70
     0
 10
0.0
 20
0.0
 11
1.0
 21
1.0
 12
0.0
 22
0.0
 13
0.0
 23
0.0
 14
0.5
 24
0.5
 15
0.5
 25
0.5
 16
0.0
 26
0.0
 36
1.0
 17
239.99999994
 27
-90.06805553303856
 37
0.0
 40
179.9999999550002
 41
2.666666666666657
 42
50.0
 43
0.0
 44
0.0
 50
0.0
 51
0.0
 71
     0
 72
   100
 73
     1
 74
     3
 75
     0
 76
     0
 77
     0
 78
     0
281
     0
 65
     1
110
0.0
120
0.0
130
0.0
111
1.0
121
0.0
131
0.0
112
0.0
122
1.0
132
0.0
 79
     0
146
0.0
 60
     3
 61
     5
292
     1
282
     1
141
0.0
142
0.0
 63
   250
361
3F
  0
ENDTAB
  0
TABLE
  2
LTYPE
  5
5
330
0
100
AcDbSymbolTable
 70
     1
  0
LTYPE
  5
14
330
5
100
AcDbSymbolTableRecord
100
AcDbLinetypeTableRecord
  2
ByBlock
 70
     0
  3

 72
    65
 73
     0
 40
0.0
  0
LTYPE
  5
15
330
5
100
AcDbSymbolTableRecord
100
AcDbLinetypeTableRecord
  2
ByLayer
 70
     0
  3

 72
    65
 73
     0
 40
0.0
  0
LTYPE
  5
16
330
5
100
AcDbSymbolTableRecord
100
AcDbLinetypeTableRecord
  2
Continuous
 70
     0
  3
Solid line
 72
    65
 73
     0
 40
0.0
  0
ENDTAB
  0
TABLE
  2
LAYER
  5
2
330
0
100
AcDbSymbolTable
 70
     2
  0
LAYER
  5
10
330
2
100
AcDbSymbolTableRecord
100
AcDbLayerTableRecord
  2
0
 70
     0
 62
     7
  6
Continuous
370
    -3
390
F
347
3E
  0
LAYER
  5
40
330
2
100
AcDbSymbolTableRecord
100
AcDbLayerTableRecord
  2
Resized
 70
     0
 62
     7
  6
Continuous
370
    -3
390
F
347
3E
  0
ENDTAB
  0
TABLE
  2
STYLE
  5
3
330
0
100
AcDbSymbolTable
 70
     1
  0
STYLE
  5
11
330
3
100
AcDbSymbolTableRecord
100
AcDbTextStyleTableRecord
  2
Standard
 70
     0
 40
0.0
 41
1.0
 50
0.0
 71
     0
 42
0.2
  3
txt
  4

  0
ENDTAB
  0
TABLE
  2
VIEW
  5
6
330
0
100
AcDbSymbolTable
 70
     0
  0
ENDTAB
  0
TABLE
  2
UCS
  5
7
330
0
100
AcDbSymbolTable
 70
     0
  0
ENDTAB
  0
TABLE
  2
APPID
  5
9
330
0
100
AcDbSymbolTable
 70
     1
  0
APPID
  5
12
330
9
100
AcDbSymbolTableRecord
100
AcDbRegAppTableRecord
  2
ACAD
 70
     0
  0
ENDTAB
  0
TABLE
  2
DIMSTYLE
  5
A
330
0
100
AcDbSymbolTable
 70
     1
100
AcDbDimStyleTable
  0
DIMSTYLE
105
27
330
A
100
AcDbSymbolTableRecord
100
AcDbDimStyleTableRecord
  2
Standard
 70
     0
178
     0
340
11
  0
ENDTAB
  0
TABLE
  2
BLOCK_RECORD
  5
1
330
0
100
AcDbSymbolTable
 70
     1
  0
BLOCK_RECORD
  5
1F
330
1
100
AcDbSymbolTableRecord
100
AcDbBlockTableRecord
  2
*Model_Space
340
22
 70
     0
280
     1
281
     0
  0
BLOCK_RECORD
  5
1B
330
1
100
AcDbSymbolTableRecord
100
AcDbBlockTableRecord
  2
*Paper_Space
340
1E
 70
     0
280
     1
281
     0
  0
BLOCK_RECORD
  5
23
330
1
100
AcDbSymbolTableRecord
100
AcDbBlockTableRecord
  2
*Paper_Space0
340
26
 70
     0
280
     1
281
     0
  0
ENDTAB
  0
ENDSEC
  0
SECTION
  2
BLOCKS
  0
BLOCK
  5
20
330
1F
100
AcDbEntity
  8
0
100
AcDbBlockBegin
  2
*Model_Space
 70
     0
 10
0.0
 20
0.0
 30
0.0
  3
*Model_Space
  1

  0
ENDBLK
  5
21
330
1F
100
AcDbEntity
  8
0
100
AcDbBlockEnd
  0
BLOCK
  5
1C
330
1B
100
AcDbEntity
 67
     1
  8
0
100
AcDbBlockBegin
  2
*Paper_Space
 70
     0
 10
0.0
 20
0.0
 30
0.0
  3
*Paper_Space
  1

  0
ENDBLK
  5
1D
330
1B
100
AcDbEntity
 67
     1
  8
0
100
AcDbBlockEnd
  0
BLOCK
  5
24
330
23
100
AcDbEntity
  8
0
100
AcDbBlockBegin
  2
*Paper_Space0
 70
     0
 10
0.0
 20
0.0
 30
0.0
  3
*Paper_Space0
  1

  0
ENDBLK
  5
25
330
23
100
AcDbEntity
  8
0
100
AcDbBlockEnd
  0
ENDSEC
  0
SECTION
  2
ENTITIES
  0
POLYLINE
  5
41
330
1F
100
AcDbEntity
  8
Resized
 62
     7
420
 16777215
370
    35
100
AcDb2dPolyline
 66
     1
 10
0.0
 20
0.0
 30
0.0
  0
VERTEX
  5
42
330
41
100
AcDbEntity
  8
Resized
 62
     7
420
 16777215
370
    35
100
AcDbVertex
100
AcDb2dVertex
 10
152.0045184533047
 20
-177.5368383737894
 30
0.0
  0
VERTEX
  5
43
330
41
100
AcDbEntity
  8
Resized
 62
     7
420
 16777215
370
    35
100
AcDbVertex
100
AcDb2dVertex
 10
133.4471903397827
 20
-145.2292203314339
 30
0.0
  0
VERTEX
  5
44
330
41
100
AcDbEntity
  8
Resized
 62
     7
420
 16777215
370
    35
100
AcDbVertex
100
AcDb2dVertex
 10
127.3404002860077
 20
-155.7403133558255
 30
0.0
  0
VERTEX
  5
45
330
41
100
AcDbEntity
  8
Resized
 62
     7
420
 16777215
370
    35
100
AcDbVertex
100
AcDb2dVertex
 10
83.81451166270061
 20
-79.96338161241599
 30
0.0
  0
VERTEX
  5
46
330
41
100
AcDbEntity
  8
Resized
 62
     7
420
 16777215
370
    35
100
AcDbVertex
100
AcDb2dVertex
 10
95.96584679553038
 20
-79.97560093434899
 30
0.0
  0
VERTEX
  5
47
330
41
100
AcDbEntity
  8
Resized
 62
     7
420
 16777215
370
    35
100
AcDbVertex
100
AcDb2dVertex
 10
77.38872732798234
 20
-47.63353194028823
 30
0.0
  0
VERTEX
  5
48
330
41
100
AcDbEntity
  8
Resized
 62
     7
420
 16777215
370
    35
100
AcDbVertex
100
AcDb2dVertex
 10
58.56128222124967
 20
-80.03962228626703
 30
0.0
  0
VERTEX
  5
49
330
41
100
AcDbEntity
  8
Resized
 62
     7
420
 16777215
370
    35
100
AcDbVertex
100
AcDb2dVertex
 10
70.19452528140883
 20
-80.05132125528351
 30
0.0
  0
VERTEX
  5
4A
330
41
100
AcDbEntity
  8
Resized
 62
     7
420
 16777215
370
    35
100
AcDbVertex
100
AcDb2dVertex
 10
26.22039747865384
 20
-155.7403133558255
 30
0.0
  0
VERTEX
  5
4B
330
41
100
AcDbEntity
  8
Resized
 62
     7
420
 16777215
370
    35
100
AcDbVertex
100
AcDb2dVertex
 10
20.43357063883788
 20
-145.6656708258457
 30
0.0
  0
VERTEX
  5
4C
330
41
100
AcDbEntity
  8
Resized
 62
     7
420
 16777215
370
    35
100
AcDbVertex
100
AcDb2dVertex
 10
2.004518490804768
 20
-177.386079573672
 30
0.0
  0
VERTEX
  5
4D
330
41
100
AcDbEntity
  8
Resized
 62
     7
420
 16777215
370
    35
100
AcDbVertex
100
AcDb2dVertex
 10
39.12181236883782
 20
-177.4233834948152
 30
0.0
  0
VERTEX
  5
4E
330
41
100
AcDbEntity
  8
Resized
 62
     7
420
 16777215
370
    35
100
AcDbVertex
100
AcDb2dVertex
 10
33.25452820222828
 20
-167.2086583711056
 30
0.0
  0
VERTEX
  5
4F
330
41
100
AcDbEntity
  8
Resized
 62
     7
420
 16777215
370
    35
100
AcDbVertex
100
AcDb2dVertex
 10
120.7545087418818
 20
-167.2965980139728
 30
0.0
  0
VERTEX
  5
50
330
41
100
AcDbEntity
  8
Resized
 62
     7
420
 16777215
370
    35
100
AcDbVertex
100
AcDb2dVertex
 10
114.8267918641559
 20
-177.4994806230341
 30
0.0
  0
VERTEX
  5
51
330
41
100
AcDbEntity
  8
Resized
 62
     7
420
 16777215
370
    35
100
AcDbVertex
100
AcDb2dVertex
 10
152.0045184533047
 20
-177.5368383737894
 30
0.0
  0
SEQEND
  5
52
330
41
100
AcDbEntity
  8
Resized
 62
     7
420
 16777215
370
    35
  0
SPLINE
  5
53
330
1F
100
AcDbEntity
  8
Resized
 62
     7
420
 16777215
370
    35
100
AcDbSpline
210
0.0
220
0.0
230
1.0
 70
    11
 71
     3
 72
    23
 73
    19
 74
     0
 42
0.0000000001
 43
0.0000000001
 12
1.0
 22
0.0
 32
0.0
 13
1.0
 23
0.0
 33
0.0
 40
0.0
 40
0.0
 40
0.0
 40
0.0
 40
1.0
 40
1.0
 40
1.0
 40
2.0
 40
2.0
 40
2.0
 40
3.0
 40
3.0
 40
3.0
 40
4.0
 40
4.0
 40
4.0
 40
5.0
 40
5.0
 40
5.0
 40
6.0
 40
6.0
 40
6.0
 40
6.0
 10
48.89290971653062
 20
-134.8521989274263
 30
0.0
 10
48.31967817792781
 20
-134.5212544726117
 30
0.0
 10
48.13954635284266
 20
-133.760049928769
 30
0.0
 10
48.49058719615191
 20
-133.1520444607893
 30
0.0
 10
48.49058719615191
 20
-133.1520444607893
 30
0.0
 10
62.44257668129566
 20
-108.9864782169931
 30
0.0
 10
62.44257668129566
 20
-108.9864782169931
 30
0.0
 10
62.79361752460491
 20
-108.3784727490131
 30
0.0
 10
63.54288983777985
 20
-108.1538597211788
 30
0.0
 10
64.1161213763817
 20
-108.4848221191983
 30
0.0
 10
64.68937085818813
 20
-108.8157845172179
 30
0.0
 10
64.86950268327455
 20
-109.5769711178562
 30
0.0
 10
64.51846183996402
 20
-110.1849945290395
 30
0.0
 10
64.51846183996402
 20
-110.1849945290395
 30
0.0
 10
50.56647235482027
 20
-134.3505607728365
 30
0.0
 10
50.56647235482027
 20
-134.3505607728365
 30
0.0
 10
50.21543151151102
 20
-134.9585662408152
 30
0.0
 10
49.46615919833737
 20
-135.1831613254455
 30
0.0
 10
48.89290971653062
 20
-134.8521989274263
 30
0.0
  0
SPLINE
  5
54
330
1F
100
AcDbEntity
  8
Resized
 62
     7
420
 16777215
370
    35
100
AcDbSpline
210
0.0
220
0.0
230
1.0
 70
    11
 71
     3
 72
    23
 73
    19
 74
     0
 42
0.0000000001
 43
0.0000000001
 12
1.0
 22
0.0
 32
0.0
 13
1.0
 23
0.0
 33
0.0
 40
0.0
 40
0.0
 40
0.0
 40
0.0
 40
1.0
 40
1.0
 40
1.0
 40
2.0
 40
2.0
 40
2.0
 40
3.0
 40
3.0
 40
3.0
 40
4.0
 40
4.0
 40
4.0
 40
5.0
 40
5.0
 40
5.0
 40
6.0
 40
6.0
 40
6.0
 40
6.0
 10
90.95651692880013
 20
-159.3670296373359
 30
0.0
 10
90.95651692880013
 20
-159.3670296373359
 30
0.0
 10
63.05252001530868
 20
-159.3670296373359
 30
0.0
 10
63.05252001530868
 20
-159.3670296373359
 30
0.0
 10
62.35045627189284
 20
-159.3670296373359
 30
0.0
 10
61.78129784060167
 20
-158.8304381213282
 30
0.0
 10
61.78129784060167
 20
-158.1685133252897
 30
0.0
 10
61.78129784060167
 20
-157.5065885292503
 30
0.0
 10
62.35045627189284
 20
-156.9699970132423
 30
0.0
 10
63.05252001530868
 20
-156.9699970132423
 30
0.0
 10
63.05252001530868
 20
-156.9699970132423
 30
0.0
 10
90.95651692880013
 20
-156.9699970132423
 30
0.0
 10
90.95651692880013
 20
-156.9699970132423
 30
0.0
 10
91.65858067221596
 20
-156.9699970132423
 30
0.0
 10
92.22773910350777
 20
-157.5065885292503
 30
0.0
 10
92.22773910350777
 20
-158.1685133252897
 30
0.0
 10
92.22773910350777
 20
-158.8304381213282
 30
0.0
 10
91.65858067221596
 20
-159.3670296373359
 30
0.0
 10
90.95651692880013
 20
-159.3670296373359
 30
0.0
  0
SPLINE
  5
55
330
1F
100
AcDbEntity
  8
Resized
 62
     7
420
 16777215
370
    35
100
AcDbSpline
210
0.0
220
0.0
230
1.0
 70
    11
 71
     3
 72
    32
 73
    28
 74
     0
 42
0.0000000001
 43
0.0000000001
 12
1.0
 22
0.0
 32
0.0
 13
1.0
 23
0.0
 33
0.0
 40
0.0
 40
0.0
 40
0.0
 40
0.0
 40
1.0
 40
1.0
 40
1.0
 40
2.0
 40
2.0
 40
2.0
 40
3.0
 40
3.0
 40
3.0
 40
4.0
 40
4.0
 40
4.0
 40
5.0
 40
5.0
 40
5.0
 40
6.0
 40
6.0
 40
6.0
 40
7.0
 40
7.0
 40
7.0
 40
8.0
 40
8.0
 40
8.0
 40
9.0
 40
9.0
 40
9.0
 40
9.0
 10
97.70556602701639
 20
-145.7275569364861
 30
0.0
 10
97.28101187686508
 20
-146.2494529684076
 30
0.0
 10
96.83871189794604
 20
-146.5140972843947
 30
0.0
 10
96.12197061364795
 20
-146.5140972843947
 30
0.0
 10
96.12197061364795
 20
-146.5140972843947
 30
0.0
 10
57.96221246886797
 20
-146.5140972843947
 30
0.0
 10
57.96221246886797
 20
-146.5140972843947
 30
0.0
 10
57.24547118456924
 20
-146.5140972843947
 30
0.0
 10
56.80317120565084
 20
-146.2494529684076
 30
0.0
 10
56.37859911229495
 20
-145.7275569364861
 30
0.0
 10
56.05090237740618
 20
-145.3247320063948
 30
0.0
 10
56.05090237740618
 20
-144.6672212385435
 30
0.0
 10
56.28981613883931
 20
-144.1914751273434
 30
0.0
 10
56.28981613883931
 20
-144.1914751273434
 30
0.0
 10
75.60791815930747
 20
-111.1937076290368
 30
0.0
 10
75.60791815930747
 20
-111.1937076290368
 30
0.0
 10
76.09626039972366
 20
-110.3536247603538
 30
0.0
 10
76.56719773224827
 20
-109.8778786491537
 30
0.0
 10
77.08785568309274
 20
-109.8778786491537
 30
0.0
 10
77.74007320576051
 20
-109.8778786491537
 30
0.0
 10
77.95989539812325
 20
-110.1157517047534
 30
0.0
 10
78.50452546952933
 20
-111.0873403156482
 30
0.0
 10
78.50452546952933
 20
-111.0873403156482
 30
0.0
 10
97.62792578325246
 20
-144.1914751273434
 30
0.0
 10
97.62792578325246
 20
-144.1914751273434
 30
0.0
 10
97.86683954468431
 20
-144.6672212385435
 30
0.0
 10
98.03328070510975
 20
-145.3247320063948
 30
0.0
 10
97.70556602701639
 20
-145.7275569364861
 30
0.0
  0
SPLINE
  5
56
330
1F
100
AcDbEntity
  8
Resized
 62
     7
420
 16777215
370
    35
100
AcDbSpline
210
0.0
220
0.0
230
1.0
 70
    11
 71
     3
 72
    23
 73
    19
 74
     0
 42
0.0000000001
 43
0.0000000001
 12
1.0
 22
0.0
 32
0.0
 13
1.0
 23
0.0
 33
0.0
 40
0.0
 40
0.0
 40
0.0
 40
0.0
 40
1.0
 40
1.0
 40
1.0
 40
2.0
 40
2.0
 40
2.0
 40
3.0
 40
3.0
 40
3.0
 40
4.0
 40
4.0
 40
4.0
 40
5.0
 40
5.0
 40
5.0
 40
6.0
 40
6.0
 40
6.0
 40
6.0
 10
105.4077760656058
 20
-134.9772092297854
 30
0.0
 10
104.8345445270033
 20
-135.3081716278047
 30
0.0
 10
104.085272213829
 20
-135.0835765431743
 30
0.0
 10
103.7342313705191
 20
-134.4755531319907
 30
0.0
 10
103.7342313705191
 20
-134.4755531319907
 30
0.0
 10
89.78224188537536
 20
-110.3099868881941
 30
0.0
 10
89.78224188537536
 20
-110.3099868881941
 30
0.0
 10
89.43121898526941
 20
-109.7019814202141
 30
0.0
 10
89.61135081035647
 20
-108.9407768763718
 30
0.0
 10
90.18458234895833
 20
-108.6098324215565
 30
0.0
 10
90.75781388756081
 20
-108.2788700235373
 30
0.0
 10
91.50710414393905
 20
-108.5034651081679
 30
0.0
 10
91.85812704404371
 20
-109.1114705761473
 30
0.0
 10
91.85812704404371
 20
-109.1114705761473
 30
0.0
 10
105.8101165291887
 20
-133.2770547631478
 30
0.0
 10
105.8101165291887
 20
-133.2770547631478
 30
0.0
 10
106.161157372498
 20
-133.8850602311275
 30
0.0
 10
105.9810255474116
 20
-134.6462468317662
 30
0.0
 10
105.4077760656058
 20
-134.9772092297854
 30
0.0
  0
POLYLINE
  5
57
330
1F
100
AcDbEntity
  8
Resized
 62
     7
420
 16777215
370
    35
100
AcDb2dPolyline
 66
     1
 10
0.0
 20
0.0
 30
0.0
  0
VERTEX
  5
58
330
57
100
AcDbEntity
  8
Resized
 62
     7
420
 16777215
370
    35
100
AcDbVertex
100
AcDb2dVertex
 10
46.10174070200269
 20
-2.830754173711145
 30
0.0
  0
VERTEX
  5
59
330
57
100
AcDbEntity
  8
Resized
 62
     7
420
 16777215
370
    35
100
AcDbVertex
100
AcDb2dVertex
 10
64.65906881552473
 20
-35.13837221606662
 30
0.0
  0
VERTEX
  5
5A
330
57
100
AcDbEntity
  8
Resized
 62
     7
420
 16777215
370
    35
100
AcDbVertex
100
AcDb2dVertex
 10
70.76585886930002
 20
-24.62727919167496
 30
0.0
  0
VERTEX
  5
5B
330
57
100
AcDbEntity
  8
Resized
 62
     7
420
 16777215
370
    35
100
AcDbVertex
100
AcDb2dVertex
 10
114.2917474926068
 20
-100.4042109350842
 30
0.0
  0
VERTEX
  5
5C
330
57
100
AcDbEntity
  8
Resized
 62
     7
420
 16777215
370
    35
100
AcDbVertex
100
AcDb2dVertex
 10
102.140412359777
 20
-100.3919916131515
 30
0.0
  0
VERTEX
  5
5D
330
57
100
AcDbEntity
  8
Resized
 62
     7
420
 16777215
370
    35
100
AcDbVertex
100
AcDb2dVertex
 10
120.717531827325
 20
-132.7340606072123
 30
0.0
  0
VERTEX
  5
5E
330
57
100
AcDbEntity
  8
Resized
 62
     7
420
 16777215
370
    35
100
AcDbVertex
100
AcDb2dVertex
 10
139.544976934058
 20
-100.3279702612335
 30
0.0
  0
VERTEX
  5
5F
330
57
100
AcDbEntity
  8
Resized
 62
     7
420
 16777215
370
    35
100
AcDbVertex
100
AcDb2dVertex
 10
127.9117338738985
 20
-100.316271292217
 30
0.0
  0
VERTEX
  5
60
330
57
100
AcDbEntity
  8
Resized
 62
     7
420
 16777215
370
    35
100
AcDbVertex
100
AcDb2dVertex
 10
171.8858616766535
 20
-24.62727919167496
 30
0.0
  0
VERTEX
  5
61
330
57
100
AcDbEntity
  8
Resized
 62
     7
420
 16777215
370
    35
100
AcDbVertex
100
AcDb2dVertex
 10
177.6726885164692
 20
-34.70192172165485
 30
0.0
  0
VERTEX
  5
62
330
57
100
AcDbEntity
  8
Resized
 62
     7
420
 16777215
370
    35
100
AcDbVertex
100
AcDb2dVertex
 10
196.1017406645026
 20
-2.981512973828488
 30
0.0
  0
VERTEX
  5
63
330
57
100
AcDbEntity
  8
Resized
 62
     7
420
 16777215
370
    35
100
AcDbVertex
100
AcDb2dVertex
 10
158.9844467864695
 20
-2.944209052685331
 30
0.0
  0
VERTEX
  5
64
330
57
100
AcDbEntity
  8
Resized
 62
     7
420
 16777215
370
    35
100
AcDbVertex
100
AcDb2dVertex
 10
164.8517309530797
 20
-13.15893417639491
 30
0.0
  0
VERTEX
  5
65
330
57
100
AcDbEntity
  8
Resized
 62
     7
420
 16777215
370
    35
100
AcDbVertex
100
AcDb2dVertex
 10
77.35175041342588
 20
-13.0709945335277
 30
0.0
  0
VERTEX
  5
66
330
57
100
AcDbEntity
  8
Resized
 62
     7
420
 16777215
370
    35
100
AcDbVertex
100
AcDb2dVertex
 10
83.27946729115143
 20
-2.868111924466767
 30
0.0
  0
VERTEX
  5
67
330
57
100
AcDbEntity
  8
Resized
 62
     7
420
 16777215
370
    35
100
AcDbVertex
100
AcDb2dVertex
 10
46.10174070200269
 20
-2.830754173711145
 30
0.0
  0
SEQEND
  5
68
330
57
100
AcDbEntity
  8
Resized
 62
     7
420
 16777215
370
    35
  0
SPLINE
  5
69
330
1F
100
AcDbEntity
  8
Resized
 62
     7
420
 16777215
370
    35
100
AcDbSpline
210
0.0
220
0.0
230
1.0
 70
    11
 71
     3
 72
    23
 73
    19
 74
     0
 42
0.0000000001
 43
0.0000000001
 12
1.0
 22
0.0
 32
0.0
 13
1.0
 23
0.0
 33
0.0
 40
0.0
 40
0.0
 40
0.0
 40
0.0
 40
1.0
 40
1.0
 40
1.0
 40
2.0
 40
2.0
 40
2.0
 40
3.0
 40
3.0
 40
3.0
 40
4.0
 40
4.0
 40
4.0
 40
5.0
 40
5.0
 40
5.0
 40
6.0
 40
6.0
 40
6.0
 40
6.0
 10
149.2133494387771
 20
-45.51539362007422
 30
0.0
 10
149.7865809773796
 20
-45.84633807488886
 30
0.0
 10
149.9667128024647
 20
-46.60754261873149
 30
0.0
 10
149.6156719591555
 20
-47.21554808671117
 30
0.0
 10
149.6156719591555
 20
-47.21554808671117
 30
0.0
 10
135.6636824740117
 20
-71.38111433050746
 30
0.0
 10
135.6636824740117
 20
-71.38111433050746
 30
0.0
 10
135.3126416307024
 20
-71.98911979848745
 30
0.0
 10
134.5633693175275
 20
-72.21373282632173
 30
0.0
 10
133.9901377789257
 20
-71.8827704283022
 30
0.0
 10
133.4168882971192
 20
-71.55180803028266
 30
0.0
 10
133.2367564720328
 20
-70.79062142964428
 30
0.0
 10
133.5877973153434
 20
-70.18259801846098
 30
0.0
 10
133.5877973153434
 20
-70.18259801846098
 30
0.0
 10
147.5397868004871
 20
-46.01703177466405
 30
0.0
 10
147.5397868004871
 20
-46.01703177466405
 30
0.0
 10
147.8908276437963
 20
-45.40902630668534
 30
0.0
 10
148.64009995697
 20
-45.184431222055
 30
0.0
 10
149.2133494387771
 20
-45.51539362007422
 30
0.0
  0
SPLINE
  5
6A
330
1F
100
AcDbEntity
  8
Resized
 62
     7
420
 16777215
370
    35
100
AcDbSpline
210
0.0
220
0.0
230
1.0
 70
    11
 71
     3
 72
    23
 73
    19
 74
     0
 42
0.0000000001
 43
0.0000000001
 12
1.0
 22
0.0
 32
0.0
 13
1.0
 23
0.0
 33
0.0
 40
0.0
 40
0.0
 40
0.0
 40
0.0
 40
1.0
 40
1.0
 40
1.0
 40
2.0
 40
2.0
 40
2.0
 40
3.0
 40
3.0
 40
3.0
 40
4.0
 40
4.0
 40
4.0
 40
5.0
 40
5.0
 40
5.0
 40
6.0
 40
6.0
 40
6.0
 40
6.0
 10
107.1497422265072
 20
-21.00056291016464
 30
0.0
 10
107.1497422265072
 20
-21.00056291016464
 30
0.0
 10
135.0537391399987
 20
-21.00056291016464
 30
0.0
 10
135.0537391399987
 20
-21.00056291016464
 30
0.0
 10
135.7558028834148
 20
-21.00056291016464
 30
0.0
 10
136.3249613147057
 20
-21.53715442617236
 30
0.0
 10
136.3249613147057
 20
-22.19907922221079
 30
0.0
 10
136.3249613147057
 20
-22.86100401825018
 30
0.0
 10
135.7558028834148
 20
-23.39759553425855
 30
0.0
 10
135.0537391399987
 20
-23.39759553425855
 30
0.0
 10
135.0537391399987
 20
-23.39759553425855
 30
0.0
 10
107.1497422265072
 20
-23.39759553425855
 30
0.0
 10
107.1497422265072
 20
-23.39759553425855
 30
0.0
 10
106.4476784830914
 20
-23.39759553425855
 30
0.0
 10
105.8785200517996
 20
-22.86100401825018
 30
0.0
 10
105.8785200517996
 20
-22.19907922221079
 30
0.0
 10
105.8785200517996
 20
-21.53715442617236
 30
0.0
 10
106.4476784830914
 20
-21.00056291016464
 30
0.0
 10
107.1497422265072
 20
-21.00056291016464
 30
0.0
  0
SPLINE
  5
6B
330
1F
100
AcDbEntity
  8
Resized
 62
     7
420
 16777215
370
    35
100
AcDbSpline
210
0.0
220
0.0
230
1.0
 70
    11
 71
     3
 72
    32
 73
    28
 74
     0
 42
0.0000000001
 43
0.0000000001
 12
1.0
 22
0.0
 32
0.0
 13
1.0
 23
0.0
 33
0.0
 40
0.0
 40
0.0
 40
0.0
 40
0.0
 40
1.0
 40
1.0
 40
1.0
 40
2.0
 40
2.0
 40
2.0
 40
3.0
 40
3.0
 40
3.0
 40
4.0
 40
4.0
 40
4.0
 40
5.0
 40
5.0
 40
5.0
 40
6.0
 40
6.0
 40
6.0
 40
7.0
 40
7.0
 40
7.0
 40
8.0
 40
8.0
 40
8.0
 40
9.0
 40
9.0
 40
9.0
 40
9.0
 10
100.400693128291
 20
-34.64003561101447
 30
0.0
 10
100.8252472784423
 20
-34.11813957909326
 30
0.0
 10
101.2675472573613
 20
-33.85349526310618
 30
0.0
 10
101.9842885416594
 20
-33.85349526310618
 30
0.0
 10
101.9842885416594
 20
-33.85349526310618
 30
0.0
 10
140.1440466864394
 20
-33.85349526310618
 30
0.0
 10
140.1440466864394
 20
-33.85349526310618
 30
0.0
 10
140.8607879707381
 20
-33.85349526310618
 30
0.0
 10
141.3030879496565
 20
-34.11813957909326
 30
0.0
 10
141.7276600430124
 20
-34.64003561101447
 30
0.0
 10
142.0553567779012
 20
-35.04286054110577
 30
0.0
 10
142.0553567779012
 20
-35.70037130895735
 30
0.0
 10
141.8164430164681
 20
-36.17611742015713
 30
0.0
 10
141.8164430164681
 20
-36.17611742015713
 30
0.0
 10
122.4983409959999
 20
-69.17388491846371
 30
0.0
 10
122.4983409959999
 20
-69.17388491846371
 30
0.0
 10
122.0099987555837
 20
-70.01396778714671
 30
0.0
 10
121.5390614230591
 20
-70.4897138983468
 30
0.0
 10
121.0184034722146
 20
-70.4897138983468
 30
0.0
 10
120.3661859495469
 20
-70.4897138983468
 30
0.0
 10
120.1463637571841
 20
-70.2518408427474
 30
0.0
 10
119.601733685778
 20
-69.28025223185227
 30
0.0
 10
119.601733685778
 20
-69.28025223185227
 30
0.0
 10
100.4783333720549
 20
-36.17611742015713
 30
0.0
 10
100.4783333720549
 20
-36.17611742015713
 30
0.0
 10
100.2394196106231
 20
-35.70037130895735
 30
0.0
 10
100.0729784501976
 20
-35.04286054110577
 30
0.0
 10
100.400693128291
 20
-34.64003561101447
 30
0.0
  0
SPLINE
  5
6C
330
1F
100
AcDbEntity
  8
Resized
 62
     7
420
 16777215
370
    35
100
AcDbSpline
210
0.0
220
0.0
230
1.0
 70
    11
 71
     3
 72
    23
 73
    19
 74
     0
 42
0.0000000001
 43
0.0000000001
 12
1.0
 22
0.0
 32
0.0
 13
1.0
 23
0.0
 33
0.0
 40
0.0
 40
0.0
 40
0.0
 40
0.0
 40
1.0
 40
1.0
 40
1.0
 40
2.0
 40
2.0
 40
2.0
 40
3.0
 40
3.0
 40
3.0
 40
4.0
 40
4.0
 40
4.0
 40
5.0
 40
5.0
 40
5.0
 40
6.0
 40
6.0
 40
6.0
 40
6.0
 10
92.69848308970158
 20
-45.39038331771541
 30
0.0
 10
93.27171462830408
 20
-45.05942091969555
 30
0.0
 10
94.02098694147837
 20
-45.28401600432621
 30
0.0
 10
94.37202778478826
 20
-45.89203941550984
 30
0.0
 10
94.37202778478826
 20
-45.89203941550984
 30
0.0
 10
108.324017269932
 20
-70.05760565930676
 30
0.0
 10
108.324017269932
 20
-70.05760565930676
 30
0.0
 10
108.675040170038
 20
-70.66561112728644
 30
0.0
 10
108.4949083449509
 20
-71.42681567112908
 30
0.0
 10
107.921676806349
 20
-71.75776012594403
 30
0.0
 10
107.3484452677466
 20
-72.08872252396324
 30
0.0
 10
106.5991550113683
 20
-71.86412743933259
 30
0.0
 10
106.2481321112636
 20
-71.25612197135324
 30
0.0
 10
106.2481321112636
 20
-71.25612197135324
 30
0.0
 10
92.29614262611862
 20
-47.09053778435269
 30
0.0
 10
92.29614262611862
 20
-47.09053778435269
 30
0.0
 10
91.94510178280937
 20
-46.48253231637301
 30
0.0
 10
92.1252336078958
 20
-45.72134571573431
 30
0.0
 10
92.69848308970158
 20
-45.39038331771541
 30
0.0
  0
POLYLINE
  5
6D
330
1F
100
AcDbEntity
  8
Resized
 62
     7
420
 16777215
370
    35
100
AcDb2dPolyline
 66
     1
 10
0.0
 20
0.0
 30
0.0
  0
VERTEX
  5
6E
330
6D
100
AcDbEntity
  8
Resized
 62
     7
420
 16777215
370
    35
100
AcDbVertex
100
AcDb2dVertex
 10
274.7711850892797
 20
-133.0868383849019
 30
0.0
  0
VERTEX
  5
6F
330
6D
100
AcDbEntity
  8
Resized
 62
     7
420
 16777215
370
    35
100
AcDbVertex
100
AcDb2dVertex
 10
256.2138569757577
 20
-100.7792203425464
 30
0.0
  0
VERTEX
  5
70
330
6D
100
AcDbEntity
  8
Resized
 62
     7
420
 16777215
370
    35
100
AcDbVertex
100
AcDb2dVertex
 10
250.1070669219827
 20
-111.2903133669381
 30
0.0
  0
VERTEX
  5
71
330
6D
100
AcDbEntity
  8
Resized
 62
     7
420
 16777215
370
    35
100
AcDbVertex
100
AcDb2dVertex
 10
206.5811782986756
 20
-35.51338162352848
 30
0.0
  0
VERTEX
  5
72
330
6D
100
AcDbEntity
  8
Resized
 62
     7
420
 16777215
370
    35
100
AcDbVertex
100
AcDb2dVertex
 10
218.7325134315054
 20
-35.52560094546149
 30
0.0
  0
VERTEX
  5
73
330
6D
100
AcDbEntity
  8
Resized
 62
     7
420
 16777215
370
    35
100
AcDbVertex
100
AcDb2dVertex
 10
200.1553939639574
 20
-3.183531951400728
 30
0.0
  0
VERTEX
  5
74
330
6D
100
AcDbEntity
  8
Resized
 62
     7
420
 16777215
370
    35
100
AcDbVertex
100
AcDb2dVertex
 10
181.3279488572247
 20
-35.58962229737953
 30
0.0
  0
VERTEX
  5
75
330
6D
100
AcDbEntity
  8
Resized
 62
     7
420
 16777215
370
    35
100
AcDbVertex
100
AcDb2dVertex
 10
192.9611919173838
 20
-35.60132126639601
 30
0.0
  0
VERTEX
  5
76
330
6D
100
AcDbEntity
  8
Resized
 62
     7
420
 16777215
370
    35
100
AcDbVertex
100
AcDb2dVertex
 10
148.9870641146289
 20
-111.2903133669381
 30
0.0
  0
VERTEX
  5
77
330
6D
100
AcDbEntity
  8
Resized
 62
     7
420
 16777215
370
    35
100
AcDbVertex
100
AcDb2dVertex
 10
143.2002372748129
 20
-101.2156708369582
 30
0.0
  0
VERTEX
  5
78
330
6D
100
AcDbEntity
  8
Resized
 62
     7
420
 16777215
370
    35
100
AcDbVertex
100
AcDb2dVertex
 10
124.7711851267798
 20
-132.9360795847845
 30
0.0
  0
VERTEX
  5
79
330
6D
100
AcDbEntity
  8
Resized
 62
     7
420
 16777215
370
    35
100
AcDbVertex
100
AcDb2dVertex
 10
161.8884790048128
 20
-132.9733835059277
 30
0.0
  0
VERTEX
  5
7A
330
6D
100
AcDbEntity
  8
Resized
 62
     7
420
 16777215
370
    35
100
AcDbVertex
100
AcDb2dVertex
 10
156.0211948382033
 20
-122.7586583822181
 30
0.0
  0
VERTEX
  5
7B
330
6D
100
AcDbEntity
  8
Resized
 62
     7
420
 16777215
370
    35
100
AcDbVertex
100
AcDb2dVertex
 10
243.5211753778565
 20
-122.8465980250853
 30
0.0
  0
VERTEX
  5
7C
330
6D
100
AcDbEntity
  8
Resized
 62
     7
420
 16777215
370
    35
100
AcDbVertex
100
AcDb2dVertex
 10
237.5934585001309
 20
-133.0494806341466
 30
0.0
  0
VERTEX
  5
7D
330
6D
100
AcDbEntity
  8
Resized
 62
     7
420
 16777215
370
    35
100
AcDbVertex
100
AcDb2dVertex
 10
274.7711850892797
 20
-133.0868383849019
 30
0.0
  0
SEQEND
  5
7E
330
6D
100
AcDbEntity
  8
Resized
 62
     7
420
 16777215
370
    35
  0
SPLINE
  5
7F
330
1F
100
AcDbEntity
  8
Resized
 62
     7
420
 16777215
370
    35
100
AcDbSpline
210
0.0
220
0.0
230
1.0
 70
    11
 71
     3
 72
    23
 73
    19
 74
     0
 42
0.0000000001
 43
0.0000000001
 12
1.0
 22
0.0
 32
0.0
 13
1.0
 23
0.0
 33
0.0
 40
0.0
 40
0.0
 40
0.0
 40
0.0
 40
1.0
 40
1.0
 40
1.0
 40
2.0
 40
2.0
 40
2.0
 40
3.0
 40
3.0
 40
3.0
 40
4.0
 40
4.0
 40
4.0
 40
5.0
 40
5.0
 40
5.0
 40
6.0
 40
6.0
 40
6.0
 40
6.0
 10
171.6595763525053
 20
-90.4021989385388
 30
0.0
 10
171.0863448139028
 20
-90.07125448372416
 30
0.0
 10
170.9062129888177
 20
-89.31004993988152
 30
0.0
 10
171.2572538321272
 20
-88.70204447190184
 30
0.0
 10
171.2572538321272
 20
-88.70204447190184
 30
0.0
 10
185.2092433172707
 20
-64.53647822810557
 30
0.0
 10
185.2092433172707
 20
-64.53647822810557
 30
0.0
 10
185.5602841605799
 20
-63.92847276012557
 30
0.0
 10
186.3095564737548
 20
-63.70385973229128
 30
0.0
 10
186.8827880123567
 20
-64.03482213031081
 30
0.0
 10
187.4560374941631
 20
-64.36578452833035
 30
0.0
 10
187.6361693192495
 20
-65.12697112896873
 30
0.0
 10
187.285128475939
 20
-65.73499454015203
 30
0.0
 10
187.285128475939
 20
-65.73499454015203
 30
0.0
 10
173.3331389907953
 20
-89.90056078394896
 30
0.0
 10
173.3331389907953
 20
-89.90056078394896
 30
0.0
 10
172.982098147486
 20
-90.50856625192768
 30
0.0
 10
172.2328258343124
 20
-90.73316133655801
 30
0.0
 10
171.6595763525053
 20
-90.4021989385388
 30
0.0
  0
SPLINE
  5
80
330
1F
100
AcDbEntity
  8
Resized
 62
     7
420
 16777215
370
    35
100
AcDbSpline
210
0.0
220
0.0
230
1.0
 70
    11
 71
     3
 72
    23
 73
    19
 74
     0
 42
0.0000000001
 43
0.0000000001
 12
1.0
 22
0.0
 32
0.0
 13
1.0
 23
0.0
 33
0.0
 40
0.0
 40
0.0
 40
0.0
 40
0.0
 40
1.0
 40
1.0
 40
1.0
 40
2.0
 40
2.0
 40
2.0
 40
3.0
 40
3.0
 40
3.0
 40
4.0
 40
4.0
 40
4.0
 40
5.0
 40
5.0
 40
5.0
 40
6.0
 40
6.0
 40
6.0
 40
6.0
 10
213.7231835647751
 20
-114.9170296484484
 30
0.0
 10
213.7231835647751
 20
-114.9170296484484
 30
0.0
 10
185.8191866512837
 20
-114.9170296484484
 30
0.0
 10
185.8191866512837
 20
-114.9170296484484
 30
0.0
 10
185.1171229078678
 20
-114.9170296484484
 30
0.0
 10
184.5479644765767
 20
-114.3804381324407
 30
0.0
 10
184.5479644765767
 20
-113.7185133364022
 30
0.0
 10
184.5479644765767
 20
-113.0565885403628
 30
0.0
 10
185.1171229078678
 20
-112.5199970243548
 30
0.0
 10
185.8191866512837
 20
-112.5199970243548
 30
0.0
 10
185.8191866512837
 20
-112.5199970243548
 30
0.0
 10
213.7231835647751
 20
-112.5199970243548
 30
0.0
 10
213.7231835647751
 20
-112.5199970243548
 30
0.0
 10
214.425247308191
 20
-112.5199970243548
 30
0.0
 10
214.9944057394828
 20
-113.0565885403628
 30
0.0
 10
214.9944057394828
 20
-113.7185133364022
 30
0.0
 10
214.9944057394828
 20
-114.3804381324407
 30
0.0
 10
214.425247308191
 20
-114.9170296484484
 30
0.0
 10
213.7231835647751
 20
-114.9170296484484
 30
0.0
  0
SPLINE
  5
81
330
1F
100
AcDbEntity
  8
Resized
 62
     7
420
 16777215
370
    35
100
AcDbSpline
210
0.0
220
0.0
230
1.0
 70
    11
 71
     3
 72
    32
 73
    28
 74
     0
 42
0.0000000001
 43
0.0000000001
 12
1.0
 22
0.0
 32
0.0
 13
1.0
 23
0.0
 33
0.0
 40
0.0
 40
0.0
 40
0.0
 40
0.0
 40
1.0
 40
1.0
 40
1.0
 40
2.0
 40
2.0
 40
2.0
 40
3.0
 40
3.0
 40
3.0
 40
4.0
 40
4.0
 40
4.0
 40
5.0
 40
5.0
 40
5.0
 40
6.0
 40
6.0
 40
6.0
 40
7.0
 40
7.0
 40
7.0
 40
8.0
 40
8.0
 40
8.0
 40
9.0
 40
9.0
 40
9.0
 40
9.0
 10
220.4722326629914
 20
-101.2775569475986
 30
0.0
 10
220.0476785128401
 20
-101.7994529795201
 30
0.0
 10
219.6053785339211
 20
-102.0640972955072
 30
0.0
 10
218.8886372496229
 20
-102.0640972955072
 30
0.0
 10
218.8886372496229
 20
-102.0640972955072
 30
0.0
 10
180.728879104843
 20
-102.0640972955072
 30
0.0
 10
180.728879104843
 20
-102.0640972955072
 30
0.0
 10
180.0121378205442
 20
-102.0640972955072
 30
0.0
 10
179.5698378416259
 20
-101.7994529795201
 30
0.0
 10
179.14526574827
 20
-101.2775569475986
 30
0.0
 10
178.8175690133812
 20
-100.8747320175072
 30
0.0
 10
178.8175690133812
 20
-100.217221249656
 30
0.0
 10
179.0564827748143
 20
-99.7414751384559
 30
0.0
 10
179.0564827748143
 20
-99.7414751384559
 30
0.0
 10
198.3745847952825
 20
-66.7437076401493
 30
0.0
 10
198.3745847952825
 20
-66.7437076401493
 30
0.0
 10
198.8629270356987
 20
-65.90362477146631
 30
0.0
 10
199.3338643682233
 20
-65.42787866026622
 30
0.0
 10
199.8545223190677
 20
-65.42787866026622
 30
0.0
 10
200.5067398417355
 20
-65.42787866026622
 30
0.0
 10
200.7265620340983
 20
-65.66575171586594
 30
0.0
 10
201.2711921055043
 20
-66.63734032676075
 30
0.0
 10
201.2711921055043
 20
-66.63734032676075
 30
0.0
 10
220.3945924192275
 20
-99.7414751384559
 30
0.0
 10
220.3945924192275
 20
-99.7414751384559
 30
0.0
 10
220.6335061806593
 20
-100.217221249656
 30
0.0
 10
220.7999473410848
 20
-100.8747320175072
 30
0.0
 10
220.4722326629914
 20
-101.2775569475986
 30
0.0
  0
SPLINE
  5
82
330
1F
100
AcDbEntity
  8
Resized
 62
     7
420
 16777215
370
    35
100
AcDbSpline
210
0.0
220
0.0
230
1.0
 70
    11
 71
     3
 72
    23
 73
    19
 74
     0
 42
0.0000000001
 43
0.0000000001
 12
1.0
 22
0.0
 32
0.0
 13
1.0
 23
0.0
 33
0.0
 40
0.0
 40
0.0
 40
0.0
 40
0.0
 40
1.0
 40
1.0
 40
1.0
 40
2.0
 40
2.0
 40
2.0
 40
3.0
 40
3.0
 40
3.0
 40
4.0
 40
4.0
 40
4.0
 40
5.0
 40
5.0
 40
5.0
 40
6.0
 40
6.0
 40
6.0
 40
6.0
 10
228.1744427015808
 20
-90.52720924089793
 30
0.0
 10
227.6012111629783
 20
-90.85817163891714
 30
0.0
 10
226.851938849804
 20
-90.6335765542868
 30
0.0
 10
226.5008980064941
 20
-90.02555314310318
 30
0.0
 10
226.5008980064941
 20
-90.02555314310318
 30
0.0
 10
212.5489085213504
 20
-65.85998689930658
 30
0.0
 10
212.5489085213504
 20
-65.85998689930658
 30
0.0
 10
212.1978856212444
 20
-65.25198143132658
 30
0.0
 10
212.3780174463315
 20
-64.49077688748426
 30
0.0
 10
212.9512489849333
 20
-64.15983243266899
 30
0.0
 10
213.5244805235358
 20
-63.82887003464977
 30
0.0
 10
214.2737707799141
 20
-64.05346511928043
 30
0.0
 10
214.6247936800187
 20
-64.66147058725979
 30
0.0
 10
214.6247936800187
 20
-64.66147058725979
 30
0.0
 10
228.5767831651638
 20
-88.82705477426033
 30
0.0
 10
228.5767831651638
 20
-88.82705477426033
 30
0.0
 10
228.927824008473
 20
-89.43506024224001
 30
0.0
 10
228.7476921833866
 20
-90.19624684287871
 30
0.0
 10
228.1744427015808
 20
-90.52720924089793
 30
0.0
  0
POLYLINE
  5
83
330
1F
100
AcDbEntity
  8
Resized
 62
     7
420
 16777215
370
    35
100
AcDb2dPolyline
 66
     1
 10
0.0
 20
0.0
 30
0.0
  0
VERTEX
  5
84
330
83
100
AcDbEntity
  8
Resized
 62
     7
420
 16777215
370
    35
100
AcDbVertex
100
AcDb2dVertex
 10
204.1461851069357
 20
-3.183531951400728
 30
0.0
  0
VERTEX
  5
85
330
83
100
AcDbEntity
  8
Resized
 62
     7
420
 16777215
370
    35
100
AcDbVertex
100
AcDb2dVertex
 10
222.7035132204578
 20
-35.49114999375652
 30
0.0
  0
VERTEX
  5
86
330
83
100
AcDbEntity
  8
Resized
 62
     7
420
 16777215
370
    35
100
AcDbVertex
100
AcDb2dVertex
 10
228.8103032742333
 20
-24.98005696936454
 30
0.0
  0
VERTEX
  5
87
330
83
100
AcDbEntity
  8
Resized
 62
     7
420
 16777215
370
    35
100
AcDbVertex
100
AcDb2dVertex
 10
272.3361918975401
 20
-100.7569887127738
 30
0.0
  0
VERTEX
  5
88
330
83
100
AcDbEntity
  8
Resized
 62
     7
420
 16777215
370
    35
100
AcDbVertex
100
AcDb2dVertex
 10
260.1848567647097
 20
-100.7447693908411
 30
0.0
  0
VERTEX
  5
89
330
83
100
AcDbEntity
  8
Resized
 62
     7
420
 16777215
370
    35
100
AcDbVertex
100
AcDb2dVertex
 10
278.7619762322583
 20
-133.0868383849019
 30
0.0
  0
VERTEX
  5
8A
330
83
100
AcDbEntity
  8
Resized
 62
     7
420
 16777215
370
    35
100
AcDbVertex
100
AcDb2dVertex
 10
297.589421338991
 20
-100.6807480389231
 30
0.0
  0
VERTEX
  5
8B
330
83
100
AcDbEntity
  8
Resized
 62
     7
420
 16777215
370
    35
100
AcDbVertex
100
AcDb2dVertex
 10
285.9561782788312
 20
-100.6690490699066
 30
0.0
  0
VERTEX
  5
8C
330
83
100
AcDbEntity
  8
Resized
 62
     7
420
 16777215
370
    35
100
AcDbVertex
100
AcDb2dVertex
 10
329.9303060815863
 20
-24.98005696936454
 30
0.0
  0
VERTEX
  5
8D
330
83
100
AcDbEntity
  8
Resized
 62
     7
420
 16777215
370
    35
100
AcDbVertex
100
AcDb2dVertex
 10
335.7171329214025
 20
-35.05469949934444
 30
0.0
  0
VERTEX
  5
8E
330
83
100
AcDbEntity
  8
Resized
 62
     7
420
 16777215
370
    35
100
AcDbVertex
100
AcDb2dVertex
 10
354.1461850694379
 20
-3.334290751518071
 30
0.0
  0
VERTEX
  5
8F
330
83
100
AcDbEntity
  8
Resized
 62
     7
420
 16777215
370
    35
100
AcDbVertex
100
AcDb2dVertex
 10
317.0288911914022
 20
-3.296986830374914
 30
0.0
  0
VERTEX
  5
90
330
83
100
AcDbEntity
  8
Resized
 62
     7
420
 16777215
370
    35
100
AcDbVertex
100
AcDb2dVertex
 10
322.8961753580127
 20
-13.51171195408449
 30
0.0
  0
VERTEX
  5
91
330
83
100
AcDbEntity
  8
Resized
 62
     7
420
 16777215
370
    35
100
AcDbVertex
100
AcDb2dVertex
 10
235.3961948183586
 20
-13.42377231121729
 30
0.0
  0
VERTEX
  5
92
330
83
100
AcDbEntity
  8
Resized
 62
     7
420
 16777215
370
    35
100
AcDbVertex
100
AcDb2dVertex
 10
241.3239116960841
 20
-3.220889702156351
 30
0.0
  0
VERTEX
  5
93
330
83
100
AcDbEntity
  8
Resized
 62
     7
420
 16777215
370
    35
100
AcDbVertex
100
AcDb2dVertex
 10
204.1461851069357
 20
-3.183531951400728
 30
0.0
  0
SEQEND
  5
94
330
83
100
AcDbEntity
  8
Resized
 62
     7
420
 16777215
370
    35
  0
SPLINE
  5
95
330
1F
100
AcDbEntity
  8
Resized
 62
     7
420
 16777215
370
    35
100
AcDbSpline
210
0.0
220
0.0
230
1.0
 70
    11
 71
     3
 72
    23
 73
    19
 74
     0
 42
0.0000000001
 43
0.0000000001
 12
1.0
 22
0.0
 32
0.0
 13
1.0
 23
0.0
 33
0.0
 40
0.0
 40
0.0
 40
0.0
 40
0.0
 40
1.0
 40
1.0
 40
1.0
 40
2.0
 40
2.0
 40
2.0
 40
3.0
 40
3.0
 40
3.0
 40
4.0
 40
4.0
 40
4.0
 40
5.0
 40
5.0
 40
5.0
 40
6.0
 40
6.0
 40
6.0
 40
6.0
 10
307.2577938437097
 20
-45.8681713977638
 30
0.0
 10
307.8310253823122
 20
-46.19911585257844
 30
0.0
 10
308.0111572073974
 20
-46.96032039642108
 30
0.0
 10
307.6601163640888
 20
-47.56832586440076
 30
0.0
 10
307.6601163640888
 20
-47.56832586440076
 30
0.0
 10
293.7081268789451
 20
-71.73389210819704
 30
0.0
 10
293.7081268789451
 20
-71.73389210819704
 30
0.0
 10
293.3570860356352
 20
-72.34189757617703
 30
0.0
 10
292.6078137224602
 20
-72.56651060401131
 30
0.0
 10
292.034582183859
 20
-72.23554820599178
 30
0.0
 10
291.4613327020526
 20
-71.90458580797224
 30
0.0
 10
291.2812008769661
 20
-71.14339920733386
 30
0.0
 10
291.6322417202761
 20
-70.53537579615056
 30
0.0
 10
291.6322417202761
 20
-70.53537579615056
 30
0.0
 10
305.5842312054198
 20
-46.36980955235364
 30
0.0
 10
305.5842312054198
 20
-46.36980955235364
 30
0.0
 10
305.9352720487297
 20
-45.76180408437492
 30
0.0
 10
306.6845443619034
 20
-45.53720899974459
 30
0.0
 10
307.2577938437097
 20
-45.8681713977638
 30
0.0
  0
SPLINE
  5
96
330
1F
100
AcDbEntity
  8
Resized
 62
     7
420
 16777215
370
    35
100
AcDbSpline
210
0.0
220
0.0
230
1.0
 70
    11
 71
     3
 72
    23
 73
    19
 74
     0
 42
0.0000000001
 43
0.0000000001
 12
1.0
 22
0.0
 32
0.0
 13
1.0
 23
0.0
 33
0.0
 40
0.0
 40
0.0
 40
0.0
 40
0.0
 40
1.0
 40
1.0
 40
1.0
 40
2.0
 40
2.0
 40
2.0
 40
3.0
 40
3.0
 40
3.0
 40
4.0
 40
4.0
 40
4.0
 40
5.0
 40
5.0
 40
5.0
 40
6.0
 40
6.0
 40
6.0
 40
6.0
 10
265.1941866314399
 20
-21.35334068785422
 30
0.0
 10
265.1941866314399
 20
-21.35334068785422
 30
0.0
 10
293.0981835449314
 20
-21.35334068785422
 30
0.0
 10
293.0981835449314
 20
-21.35334068785422
 30
0.0
 10
293.8002472883479
 20
-21.35334068785422
 30
0.0
 10
294.3694057196384
 20
-21.88993220386194
 30
0.0
 10
294.3694057196384
 20
-22.55185699990038
 30
0.0
 10
294.3694057196384
 20
-23.21378179593977
 30
0.0
 10
293.8002472883479
 20
-23.75037331194813
 30
0.0
 10
293.0981835449314
 20
-23.75037331194813
 30
0.0
 10
293.0981835449314
 20
-23.75037331194813
 30
0.0
 10
265.1941866314399
 20
-23.75037331194813
 30
0.0
 10
265.1941866314399
 20
-23.75037331194813
 30
0.0
 10
264.4921228880241
 20
-23.75037331194813
 30
0.0
 10
263.9229644567329
 20
-23.21378179593977
 30
0.0
 10
263.9229644567329
 20
-22.55185699990038
 30
0.0
 10
263.9229644567329
 20
-21.88993220386194
 30
0.0
 10
264.4921228880241
 20
-21.35334068785422
 30
0.0
 10
265.1941866314399
 20
-21.35334068785422
 30
0.0
  0
SPLINE
  5
97
330
1F
100
AcDbEntity
  8
Resized
 62
     7
420
 16777215
370
    35
100
AcDbSpline
210
0.0
220
0.0
230
1.0
 70
    11
 71
     3
 72
    32
 73
    28
 74
     0
 42
0.0000000001
 43
0.0000000001
 12
1.0
 22
0.0
 32
0.0
 13
1.0
 23
0.0
 33
0.0
 40
0.0
 40
0.0
 40
0.0
 40
0.0
 40
1.0
 40
1.0
 40
1.0
 40
2.0
 40
2.0
 40
2.0
 40
3.0
 40
3.0
 40
3.0
 40
4.0
 40
4.0
 40
4.0
 40
5.0
 40
5.0
 40
5.0
 40
6.0
 40
6.0
 40
6.0
 40
7.0
 40
7.0
 40
7.0
 40
8.0
 40
8.0
 40
8.0
 40
9.0
 40
9.0
 40
9.0
 40
9.0
 10
258.4451375332243
 20
-34.99281338870405
 30
0.0
 10
258.869691683375
 20
-34.47091735678284
 30
0.0
 10
259.311991662294
 20
-34.20627304079576
 30
0.0
 10
260.0287329465928
 20
-34.20627304079576
 30
0.0
 10
260.0287329465928
 20
-34.20627304079576
 30
0.0
 10
298.1884910913727
 20
-34.20627304079576
 30
0.0
 10
298.1884910913727
 20
-34.20627304079576
 30
0.0
 10
298.9052323756715
 20
-34.20627304079576
 30
0.0
 10
299.3475323545892
 20
-34.47091735678284
 30
0.0
 10
299.7721044479451
 20
-34.99281338870405
 30
0.0
 10
300.0998011828339
 20
-35.39563831879536
 30
0.0
 10
300.0998011828339
 20
-36.05314908664694
 30
0.0
 10
299.8608874214014
 20
-36.52889519784671
 30
0.0
 10
299.8608874214014
 20
-36.52889519784671
 30
0.0
 10
280.5427854009332
 20
-69.5266626961533
 30
0.0
 10
280.5427854009332
 20
-69.5266626961533
 30
0.0
 10
280.0544431605164
 20
-70.3667455648363
 30
0.0
 10
279.5835058279918
 20
-70.84249167603639
 30
0.0
 10
279.0628478771473
 20
-70.84249167603639
 30
0.0
 10
278.4106303544802
 20
-70.84249167603639
 30
0.0
 10
278.1908081621168
 20
-70.60461862043698
 30
0.0
 10
277.6461780907107
 20
-69.63303000954186
 30
0.0
 10
277.6461780907107
 20
-69.63303000954186
 30
0.0
 10
258.5227777769882
 20
-36.52889519784671
 30
0.0
 10
258.5227777769882
 20
-36.52889519784671
 30
0.0
 10
258.2838640155558
 20
-36.05314908664694
 30
0.0
 10
258.1174228551303
 20
-35.39563831879536
 30
0.0
 10
258.4451375332243
 20
-34.99281338870405
 30
0.0
  0
SPLINE
  5
98
330
1F
100
AcDbEntity
  8
Resized
 62
     7
420
 16777215
370
    35
100
AcDbSpline
210
0.0
220
0.0
230
1.0
 70
    11
 71
     3
 72
    23
 73
    19
 74
     0
 42
0.0000000001
 43
0.0000000001
 12
1.0
 22
0.0
 32
0.0
 13
1.0
 23
0.0
 33
0.0
 40
0.0
 40
0.0
 40
0.0
 40
0.0
 40
1.0
 40
1.0
 40
1.0
 40
2.0
 40
2.0
 40
2.0
 40
3.0
 40
3.0
 40
3.0
 40
4.0
 40
4.0
 40
4.0
 40
5.0
 40
5.0
 40
5.0
 40
6.0
 40
6.0
 40
6.0
 40
6.0
 10
250.7429274946343
 20
-45.74316109540499
 30
0.0
 10
251.3161590332368
 20
-45.41219869738514
 30
0.0
 10
252.0654313464117
 20
-45.6367937820158
 30
0.0
 10
252.4164721897216
 20
-46.24481719319942
 30
0.0
 10
252.4164721897216
 20
-46.24481719319942
 30
0.0
 10
266.3684616748653
 20
-70.41038343699634
 30
0.0
 10
266.3684616748653
 20
-70.41038343699634
 30
0.0
 10
266.7194845749713
 20
-71.01838890497602
 30
0.0
 10
266.5393527498836
 20
-71.77959344881866
 30
0.0
 10
265.9661212112824
 20
-72.11053790363361
 30
0.0
 10
265.3928896726799
 20
-72.44150030165284
 30
0.0
 10
264.643599416301
 20
-72.21690521702217
 30
0.0
 10
264.2925765161963
 20
-71.60889974904282
 30
0.0
 10
264.2925765161963
 20
-71.60889974904282
 30
0.0
 10
250.3405870310513
 20
-47.44331556204227
 30
0.0
 10
250.3405870310513
 20
-47.44331556204227
 30
0.0
 10
249.9895461877427
 20
-46.83531009406259
 30
0.0
 10
250.1696780128291
 20
-46.07412349342389
 30
0.0
 10
250.7429274946343
 20
-45.74316109540499
 30
0.0
  0
POLYLINE
  5
99
330
1F
100
AcDbEntity
  8
Resized
 62
     7
420
 16777215
370
    35
100
AcDb2dPolyline
 66
     1
 10
0.0
 20
0.0
 30
0.0
  0
VERTEX
  5
9A
330
99
100
AcDbEntity
  8
Resized
 62
     7
420
 16777215
370
    35
100
AcDbVertex
100
AcDb2dVertex
 10
407.9989628337502
 20
-142.9615623958105
 30
0.0
  0
VERTEX
  5
9B
330
99
100
AcDbEntity
  8
Resized
 62
     7
420
 16777215
370
    35
100
AcDbVertex
100
AcDb2dVertex
 10
391.9159451353653
 20
-114.9616267591036
 30
0.0
  0
VERTEX
  5
9C
330
99
100
AcDbEntity
  8
Resized
 62
     7
420
 16777215
370
    35
100
AcDbVertex
100
AcDb2dVertex
 10
386.6233937554247
 20
-124.0712407135776
 30
0.0
  0
VERTEX
  5
9D
330
99
100
AcDbEntity
  8
Resized
 62
     7
420
 16777215
370
    35
100
AcDbVertex
100
AcDb2dVertex
 10
348.9009569485599
 20
-58.39789986928863
 30
0.0
  0
VERTEX
  5
9E
330
99
100
AcDbEntity
  8
Resized
 62
     7
420
 16777215
370
    35
100
AcDbVertex
100
AcDb2dVertex
 10
359.4321140636779
 20
-58.40848994829749
 30
0.0
  0
VERTEX
  5
9F
330
99
100
AcDbEntity
  8
Resized
 62
     7
420
 16777215
370
    35
100
AcDbVertex
100
AcDb2dVertex
 10
343.3319438584721
 20
-30.37869682011122
 30
0.0
  0
VERTEX
  5
A0
330
99
100
AcDbEntity
  8
Resized
 62
     7
420
 16777215
370
    35
100
AcDbVertex
100
AcDb2dVertex
 10
327.0148247659686
 20
-58.46397511995946
 30
0.0
  0
VERTEX
  5
A1
330
99
100
AcDbEntity
  8
Resized
 62
     7
420
 16777215
370
    35
100
AcDbVertex
100
AcDb2dVertex
 10
337.0969687514425
 20
-58.47411422644027
 30
0.0
  0
VERTEX
  5
A2
330
99
100
AcDbEntity
  8
Resized
 62
     7
420
 16777215
370
    35
100
AcDbVertex
100
AcDb2dVertex
 10
298.9860579890543
 20
-124.0712407135776
 30
0.0
  0
VERTEX
  5
A3
330
99
100
AcDbEntity
  8
Resized
 62
     7
420
 16777215
370
    35
100
AcDbVertex
100
AcDb2dVertex
 10
293.9708080612101
 20
-115.3398838542597
 30
0.0
  0
VERTEX
  5
A4
330
99
100
AcDbEntity
  8
Resized
 62
     7
420
 16777215
370
    35
100
AcDbVertex
100
AcDb2dVertex
 10
277.9989628662515
 20
-142.8309047690433
 30
0.0
  0
VERTEX
  5
A5
330
99
100
AcDbEntity
  8
Resized
 62
     7
420
 16777215
370
    35
100
AcDbVertex
100
AcDb2dVertex
 10
310.167284227214
 20
-142.8632348340346
 30
0.0
  0
VERTEX
  5
A6
330
99
100
AcDbEntity
  8
Resized
 62
     7
420
 16777215
370
    35
100
AcDbVertex
100
AcDb2dVertex
 10
305.0823046161501
 20
-134.0104730601516
 30
0.0
  0
VERTEX
  5
A7
330
99
100
AcDbEntity
  8
Resized
 62
     7
420
 16777215
370
    35
100
AcDbVertex
100
AcDb2dVertex
 10
380.9156210838511
 20
-134.0866874173061
 30
0.0
  0
VERTEX
  5
A8
330
99
100
AcDbEntity
  8
Resized
 62
     7
420
 16777215
370
    35
100
AcDbVertex
100
AcDb2dVertex
 10
375.778266456488
 20
-142.9291856784905
 30
0.0
  0
VERTEX
  5
A9
330
99
100
AcDbEntity
  8
Resized
 62
     7
420
 16777215
370
    35
100
AcDbVertex
100
AcDb2dVertex
 10
407.9989628337502
 20
-142.9615623958105
 30
0.0
  0
SEQEND
  5
AA
330
99
100
AcDbEntity
  8
Resized
 62
     7
420
 16777215
370
    35
  0
SPLINE
  5
AB
330
1F
100
AcDbEntity
  8
Resized
 62
     7
420
 16777215
370
    35
100
AcDbSpline
210
0.0
220
0.0
230
1.0
 70
    11
 71
     3
 72
    23
 73
    19
 74
     0
 42
0.0000000001
 43
0.0000000001
 12
1.0
 22
0.0
 32
0.0
 13
1.0
 23
0.0
 33
0.0
 40
0.0
 40
0.0
 40
0.0
 40
0.0
 40
1.0
 40
1.0
 40
1.0
 40
2.0
 40
2.0
 40
2.0
 40
3.0
 40
3.0
 40
3.0
 40
4.0
 40
4.0
 40
4.0
 40
5.0
 40
5.0
 40
5.0
 40
6.0
 40
6.0
 40
6.0
 40
6.0
 10
318.6355685952139
 20
-105.9682082089645
 30
0.0
 10
318.1387679284236
 20
-105.6813896814588
 30
0.0
 10
317.9826536800178
 20
-105.021679076796
 30
0.0
 10
318.2868890775514
 20
-104.4947410045471
 30
0.0
 10
318.2868890775514
 20
-104.4947410045471
 30
0.0
 10
330.3786132980071
 20
-83.55125025992187
 30
0.0
 10
330.3786132980071
 20
-83.55125025992187
 30
0.0
 10
330.6828486955446
 20
-83.02431218767234
 30
0.0
 10
331.3322180336287
 20
-82.82964756355011
 30
0.0
 10
331.8290187004189
 20
-83.11648164183306
 30
0.0
 10
332.3258349179814
 20
-83.4033157201173
 30
0.0
 10
332.4819491663911
 20
-84.06301077400414
 30
0.0
 10
332.1777137688536
 20
-84.58996439702905
 30
0.0
 10
332.1777137688536
 20
-84.58996439702905
 30
0.0
 10
320.0859895483979
 20
-105.5334551416546
 30
0.0
 10
320.0859895483979
 20
-105.5334551416546
 30
0.0
 10
319.7817541508637
 20
-106.0603932139006
 30
0.0
 10
319.1323848127801
 20
-106.2550422872461
 30
0.0
 10
318.6355685952139
 20
-105.9682082089645
 30
0.0
  0
SPLINE
  5
AC
330
1F
100
AcDbEntity
  8
Resized
 62
     7
420
 16777215
370
    35
100
AcDbSpline
210
0.0
220
0.0
230
1.0
 70
    11
 71
     3
 72
    23
 73
    19
 74
     0
 42
0.0000000001
 43
0.0000000001
 12
1.0
 22
0.0
 32
0.0
 13
1.0
 23
0.0
 33
0.0
 40
0.0
 40
0.0
 40
0.0
 40
0.0
 40
1.0
 40
1.0
 40
1.0
 40
2.0
 40
2.0
 40
2.0
 40
3.0
 40
3.0
 40
3.0
 40
4.0
 40
4.0
 40
4.0
 40
5.0
 40
5.0
 40
5.0
 40
6.0
 40
6.0
 40
6.0
 40
6.0
 10
355.0906948458463
 20
-127.2143948242182
 30
0.0
 10
355.0906948458463
 20
-127.2143948242182
 30
0.0
 10
330.9072308541549
 20
-127.2143948242182
 30
0.0
 10
330.9072308541549
 20
-127.2143948242182
 30
0.0
 10
330.2987756098598
 20
-127.2143948242182
 30
0.0
 10
329.8055049694101
 20
-126.7493488436776
 30
0.0
 10
329.8055049694101
 20
-126.1756806871136
 30
0.0
 10
329.8055049694101
 20
-125.6020125305471
 30
0.0
 10
330.2987756098598
 20
-125.1369665500064
 30
0.0
 10
330.9072308541549
 20
-125.1369665500064
 30
0.0
 10
330.9072308541549
 20
-125.1369665500064
 30
0.0
 10
355.0906948458463
 20
-125.1369665500064
 30
0.0
 10
355.0906948458463
 20
-125.1369665500064
 30
0.0
 10
355.6991500901381
 20
-125.1369665500064
 30
0.0
 10
356.1924207305917
 20
-125.6020125305471
 30
0.0
 10
356.1924207305917
 20
-126.1756806871136
 30
0.0
 10
356.1924207305917
 20
-126.7493488436776
 30
0.0
 10
355.6991500901381
 20
-127.2143948242182
 30
0.0
 10
355.0906948458463
 20
-127.2143948242182
 30
0.0
  0
SPLINE
  5
AD
330
1F
100
AcDbEntity
  8
Resized
 62
     7
420
 16777215
370
    35
100
AcDbSpline
210
0.0
220
0.0
230
1.0
 70
    11
 71
     3
 72
    32
 73
    28
 74
     0
 42
0.0000000001
 43
0.0000000001
 12
1.0
 22
0.0
 32
0.0
 13
1.0
 23
0.0
 33
0.0
 40
0.0
 40
0.0
 40
0.0
 40
0.0
 40
1.0
 40
1.0
 40
1.0
 40
2.0
 40
2.0
 40
2.0
 40
3.0
 40
3.0
 40
3.0
 40
4.0
 40
4.0
 40
4.0
 40
5.0
 40
5.0
 40
5.0
 40
6.0
 40
6.0
 40
6.0
 40
7.0
 40
7.0
 40
7.0
 40
8.0
 40
8.0
 40
8.0
 40
9.0
 40
9.0
 40
9.0
 40
9.0
 10
360.9398707309686
 20
-115.3935184834827
 30
0.0
 10
360.571923800836
 20
-115.845828377816
 30
0.0
 10
360.1885971524407
 20
-116.0751867850029
 30
0.0
 10
359.5674213727143
 20
-116.0751867850029
 30
0.0
 10
359.5674213727143
 20
-116.0751867850029
 30
0.0
 10
326.4956309805738
 20
-116.0751867850029
 30
0.0
 10
326.4956309805738
 20
-116.0751867850029
 30
0.0
 10
325.8744552008474
 20
-116.0751867850029
 30
0.0
 10
325.4911285524515
 20
-115.845828377816
 30
0.0
 10
325.1231660715435
 20
-115.3935184834827
 30
0.0
 10
324.839162234637
 20
-115.0444035440698
 30
0.0
 10
324.839162234637
 20
-114.4745608785984
 30
0.0
 10
325.0462208278787
 20
-114.062247582224
 30
0.0
 10
325.0462208278787
 20
-114.062247582224
 30
0.0
 10
341.7885759122872
 20
-85.46418241702597
 30
0.0
 10
341.7885759122872
 20
-85.46418241702597
 30
0.0
 10
342.2118058539788
 20
-84.73611059750063
 30
0.0
 10
342.6199515421695
 20
-84.32379730112751
 30
0.0
 10
343.0711884328989
 20
-84.32379730112751
 30
0.0
 10
343.6364436192129
 20
-84.32379730112751
 30
0.0
 10
343.8269561859281
 20
-84.52995394931439
 30
0.0
 10
344.2989689144788
 20
-85.37199741208987
 30
0.0
 10
344.2989689144788
 20
-85.37199741208987
 30
0.0
 10
360.8725825197055
 20
-114.062247582224
 30
0.0
 10
360.8725825197055
 20
-114.062247582224
 30
0.0
 10
361.0796411129472
 20
-114.4745608785984
 30
0.0
 10
361.2238901186473
 20
-115.0444035440698
 30
0.0
 10
360.9398707309686
 20
-115.3935184834827
 30
0.0
  0
SPLINE
  5
AE
330
1F
100
AcDbEntity
  8
Resized
 62
     7
420
 16777215
370
    35
100
AcDbSpline
210
0.0
220
0.0
230
1.0
 70
    11
 71
     3
 72
    23
 73
    19
 74
     0
 42
0.0000000001
 43
0.0000000001
 12
1.0
 22
0.0
 32
0.0
 13
1.0
 23
0.0
 33
0.0
 40
0.0
 40
0.0
 40
0.0
 40
0.0
 40
1.0
 40
1.0
 40
1.0
 40
2.0
 40
2.0
 40
2.0
 40
3.0
 40
3.0
 40
3.0
 40
4.0
 40
4.0
 40
4.0
 40
5.0
 40
5.0
 40
5.0
 40
6.0
 40
6.0
 40
6.0
 40
6.0
 10
367.6151194310785
 20
-106.0765504710085
 30
0.0
 10
367.1183187642882
 20
-106.3633845492937
 30
0.0
 10
366.4689494262047
 20
-106.1687354759472
 30
0.0
 10
366.1647140286711
 20
-105.6417818529185
 30
0.0
 10
366.1647140286711
 20
-105.6417818529185
 30
0.0
 10
354.0729898082109
 20
-84.6982911082958
 30
0.0
 10
354.0729898082109
 20
-84.6982911082958
 30
0.0
 10
353.7687699614534
 20
-84.17135303604628
 30
0.0
 10
353.9248842098631
 20
-83.51164243138342
 30
0.0
 10
354.4216848766501
 20
-83.22482390387714
 30
0.0
 10
354.9184855434403
 20
-82.93798982559353
 30
0.0
 10
355.5678704322999
 20
-83.13263889894039
 30
0.0
 10
355.8720902790574
 20
-83.65957697118863
 30
0.0
 10
355.8720902790574
 20
-83.65957697118863
 30
0.0
 10
367.963814499517
 20
-104.6030832665905
 30
0.0
 10
367.963814499517
 20
-104.6030832665905
 30
0.0
 10
368.2680498970513
 20
-105.1300213388404
 30
0.0
 10
368.1119356486415
 20
-105.7897163927262
 30
0.0
 10
367.6151194310785
 20
-106.0765504710085
 30
0.0
  0
POLYLINE
  5
AF
330
1F
100
AcDbEntity
  8
Resized
 62
     7
420
 16777215
370
    35
100
AcDb2dPolyline
 66
     1
 10
0.0
 20
0.0
 30
0.0
  0
VERTEX
  5
B0
330
AF
100
AcDbEntity
  8
Resized
 62
     7
420
 16777215
370
    35
100
AcDbVertex
100
AcDb2dVertex
 10
347.4961850710995
 20
-30.37869682011122
 30
0.0
  0
VERTEX
  5
B1
330
AF
100
AcDbEntity
  8
Resized
 62
     7
420
 16777215
370
    35
100
AcDbVertex
100
AcDb2dVertex
 10
363.5792027694844
 20
-58.37863245681943
 30
0.0
  0
VERTEX
  5
B2
330
AF
100
AcDbEntity
  8
Resized
 62
     7
420
 16777215
370
    35
100
AcDbVertex
100
AcDb2dVertex
 10
368.8717541494244
 20
-49.26901850234612
 30
0.0
  0
VERTEX
  5
B3
330
AF
100
AcDbEntity
  8
Resized
 62
     7
420
 16777215
370
    35
100
AcDbVertex
100
AcDb2dVertex
 10
406.5941909562898
 20
-114.9423593466341
 30
0.0
  0
VERTEX
  5
B4
330
AF
100
AcDbEntity
  8
Resized
 62
     7
420
 16777215
370
    35
100
AcDbVertex
100
AcDb2dVertex
 10
396.0630338411711
 20
-114.9317692676275
 30
0.0
  0
VERTEX
  5
B5
330
AF
100
AcDbEntity
  8
Resized
 62
     7
420
 16777215
370
    35
100
AcDbVertex
100
AcDb2dVertex
 10
412.1632040463775
 20
-142.9615623958105
 30
0.0
  0
VERTEX
  5
B6
330
AF
100
AcDbEntity
  8
Resized
 62
     7
420
 16777215
370
    35
100
AcDbVertex
100
AcDb2dVertex
 10
428.4803231388811
 20
-114.8762840959623
 30
0.0
  0
VERTEX
  5
B7
330
AF
100
AcDbEntity
  8
Resized
 62
     7
420
 16777215
370
    35
100
AcDbVertex
100
AcDb2dVertex
 10
418.3981791534072
 20
-114.8661449894831
 30
0.0
  0
VERTEX
  5
B8
330
AF
100
AcDbEntity
  8
Resized
 62
     7
420
 16777215
370
    35
100
AcDbVertex
100
AcDb2dVertex
 10
456.5090899157954
 20
-49.26901850234612
 30
0.0
  0
VERTEX
  5
B9
330
AF
100
AcDbEntity
  8
Resized
 62
     7
420
 16777215
370
    35
100
AcDbVertex
100
AcDb2dVertex
 10
461.5243398436389
 20
-58.00037536166265
 30
0.0
  0
VERTEX
  5
BA
330
AF
100
AcDbEntity
  8
Resized
 62
     7
420
 16777215
370
    35
100
AcDbVertex
100
AcDb2dVertex
 10
477.4961850385981
 20
-30.50935444687972
 30
0.0
  0
VERTEX
  5
BB
330
AF
100
AcDbEntity
  8
Resized
 62
     7
420
 16777215
370
    35
100
AcDbVertex
100
AcDb2dVertex
 10
445.3278636776357
 20
-30.47702438188906
 30
0.0
  0
VERTEX
  5
BC
330
AF
100
AcDbEntity
  8
Resized
 62
     7
420
 16777215
370
    35
100
AcDbVertex
100
AcDb2dVertex
 10
450.412843288699
 20
-39.32978615577078
 30
0.0
  0
VERTEX
  5
BD
330
AF
100
AcDbEntity
  8
Resized
 62
     7
420
 16777215
370
    35
100
AcDbVertex
100
AcDb2dVertex
 10
374.579526820998
 20
-39.25357179861882
 30
0.0
  0
VERTEX
  5
BE
330
AF
100
AcDbEntity
  8
Resized
 62
     7
420
 16777215
370
    35
100
AcDbVertex
100
AcDb2dVertex
 10
379.7168814483611
 20
-30.41107353743347
 30
0.0
  0
VERTEX
  5
BF
330
AF
100
AcDbEntity
  8
Resized
 62
     7
420
 16777215
370
    35
100
AcDbVertex
100
AcDb2dVertex
 10
347.4961850710995
 20
-30.37869682011122
 30
0.0
  0
SEQEND
  5
C0
330
AF
100
AcDbEntity
  8
Resized
 62
     7
420
 16777215
370
    35
  0
SPLINE
  5
C1
330
1F
100
AcDbEntity
  8
Resized
 62
     7
420
 16777215
370
    35
100
AcDbSpline
210
0.0
220
0.0
230
1.0
 70
    11
 71
     3
 72
    23
 73
    19
 74
     0
 42
0.0000000001
 43
0.0000000001
 12
1.0
 22
0.0
 32
0.0
 13
1.0
 23
0.0
 33
0.0
 40
0.0
 40
0.0
 40
0.0
 40
0.0
 40
1.0
 40
1.0
 40
1.0
 40
2.0
 40
2.0
 40
2.0
 40
3.0
 40
3.0
 40
3.0
 40
4.0
 40
4.0
 40
4.0
 40
5.0
 40
5.0
 40
5.0
 40
6.0
 40
6.0
 40
6.0
 40
6.0
 10
436.8595793096358
 20
-67.3720510069592
 30
0.0
 10
437.3563799764261
 20
-67.65886953446581
 30
0.0
 10
437.5124942248319
 20
-68.31858013912898
 30
0.0
 10
437.2082588272983
 20
-68.84551821137788
 30
0.0
 10
437.2082588272983
 20
-68.84551821137788
 30
0.0
 10
425.1165346068419
 20
-89.78900895600181
 30
0.0
 10
425.1165346068419
 20
-89.78900895600181
 30
0.0
 10
424.8122992093045
 20
-90.31594702825133
 30
0.0
 10
424.162929871221
 20
-90.51061165237356
 30
0.0
 10
423.6661292044308
 20
-90.2237775740906
 30
0.0
 10
423.1693129868677
 20
-89.93694349580636
 30
0.0
 10
423.013198738458
 20
-89.27724844191954
 30
0.0
 10
423.3174341359954
 20
-88.75029481889463
 30
0.0
 10
423.3174341359954
 20
-88.75029481889463
 30
0.0
 10
435.4091583564518
 20
-67.80680407427069
 30
0.0
 10
435.4091583564518
 20
-67.80680407427069
 30
0.0
 10
435.7133937539854
 20
-67.27986600202244
 30
0.0
 10
436.3627630920695
 20
-67.08521692867625
 30
0.0
 10
436.8595793096358
 20
-67.3720510069592
 30
0.0
  0
SPLINE
  5
C2
330
1F
100
AcDbEntity
  8
Resized
 62
     7
420
 16777215
370
    35
100
AcDbSpline
210
0.0
220
0.0
230
1.0
 70
    11
 71
     3
 72
    23
 73
    19
 74
     0
 42
0.0000000001
 43
0.0000000001
 12
1.0
 22
0.0
 32
0.0
 13
1.0
 23
0.0
 33
0.0
 40
0.0
 40
0.0
 40
0.0
 40
0.0
 40
1.0
 40
1.0
 40
1.0
 40
2.0
 40
2.0
 40
2.0
 40
3.0
 40
3.0
 40
3.0
 40
4.0
 40
4.0
 40
4.0
 40
5.0
 40
5.0
 40
5.0
 40
6.0
 40
6.0
 40
6.0
 40
6.0
 10
400.4044530590028
 20
-46.12586439170416
 30
0.0
 10
400.4044530590028
 20
-46.12586439170416
 30
0.0
 10
424.5879170506942
 20
-46.12586439170416
 30
0.0
 10
424.5879170506942
 20
-46.12586439170416
 30
0.0
 10
425.1963722949892
 20
-46.12586439170416
 30
0.0
 10
425.6896429354396
 20
-46.59091037224543
 30
0.0
 10
425.6896429354396
 20
-47.16457852881135
 30
0.0
 10
425.6896429354396
 20
-47.73824668537854
 30
0.0
 10
425.1963722949892
 20
-48.20329266591853
 30
0.0
 10
424.5879170506942
 20
-48.20329266591853
 30
0.0
 10
424.5879170506942
 20
-48.20329266591853
 30
0.0
 10
400.4044530590028
 20
-48.20329266591853
 30
0.0
 10
400.4044530590028
 20
-48.20329266591853
 30
0.0
 10
399.795997814711
 20
-48.20329266591853
 30
0.0
 10
399.3027271742574
 20
-47.73824668537854
 30
0.0
 10
399.3027271742574
 20
-47.16457852881135
 30
0.0
 10
399.3027271742574
 20
-46.59091037224543
 30
0.0
 10
399.795997814711
 20
-46.12586439170416
 30
0.0
 10
400.4044530590028
 20
-46.12586439170416
 30
0.0
  0
SPLINE
  5
C3
330
1F
100
AcDbEntity
  8
Resized
 62
     7
420
 16777215
370
    35
100
AcDbSpline
210
0.0
220
0.0
230
1.0
 70
    11
 71
     3
 72
    32
 73
    28
 74
     0
 42
0.0000000001
 43
0.0000000001
 12
1.0
 22
0.0
 32
0.0
 13
1.0
 23
0.0
 33
0.0
 40
0.0
 40
0.0
 40
0.0
 40
0.0
 40
1.0
 40
1.0
 40
1.0
 40
2.0
 40
2.0
 40
2.0
 40
3.0
 40
3.0
 40
3.0
 40
4.0
 40
4.0
 40
4.0
 40
5.0
 40
5.0
 40
5.0
 40
6.0
 40
6.0
 40
6.0
 40
7.0
 40
7.0
 40
7.0
 40
8.0
 40
8.0
 40
8.0
 40
9.0
 40
9.0
 40
9.0
 40
9.0
 10
394.5552771738804
 20
-57.94674073244096
 30
0.0
 10
394.9232241040131
 20
-57.49443083810897
 30
0.0
 10
395.3065507524084
 20
-57.26507243092014
 30
0.0
 10
395.9277265321347
 20
-57.26507243092014
 30
0.0
 10
395.9277265321347
 20
-57.26507243092014
 30
0.0
 10
428.9995169242759
 20
-57.26507243092014
 30
0.0
 10
428.9995169242759
 20
-57.26507243092014
 30
0.0
 10
429.6206927040023
 20
-57.26507243092014
 30
0.0
 10
430.0040193523976
 20
-57.49443083810897
 30
0.0
 10
430.3719818333062
 20
-57.94674073244096
 30
0.0
 10
430.6559856702127
 20
-58.29585567185389
 30
0.0
 10
430.6559856702127
 20
-58.86569833732531
 30
0.0
 10
430.4489270769703
 20
-59.27801163369843
 30
0.0
 10
430.4489270769703
 20
-59.27801163369843
 30
0.0
 10
413.7065719925625
 20
-87.8760767988977
 30
0.0
 10
413.7065719925625
 20
-87.8760767988977
 30
0.0
 10
413.2833420508709
 20
-88.60414861842305
 30
0.0
 10
412.8751963626796
 20
-89.01646191479617
 30
0.0
 10
412.4239594719508
 20
-89.01646191479617
 30
0.0
 10
411.8587042856368
 20
-89.01646191479617
 30
0.0
 10
411.6681917189216
 20
-88.81030526660929
 30
0.0
 10
411.1961789903709
 20
-87.96826180383381
 30
0.0
 10
411.1961789903709
 20
-87.96826180383381
 30
0.0
 10
394.6225653851442
 20
-59.27801163369843
 30
0.0
 10
394.6225653851442
 20
-59.27801163369843
 30
0.0
 10
394.4155067919018
 20
-58.86569833732531
 30
0.0
 10
394.2712577862018
 20
-58.29585567185389
 30
0.0
 10
394.5552771738804
 20
-57.94674073244096
 30
0.0
  0
SPLINE
  5
C4
330
1F
100
AcDbEntity
  8
Resized
 62
     7
420
 16777215
370
    35
100
AcDbSpline
210
0.0
220
0.0
230
1.0
 70
    11
 71
     3
 72
    23
 73
    19
 74
     0
 42
0.0000000001
 43
0.0000000001
 12
1.0
 22
0.0
 32
0.0
 13
1.0
 23
0.0
 33
0.0
 40
0.0
 40
0.0
 40
0.0
 40
0.0
 40
1.0
 40
1.0
 40
1.0
 40
2.0
 40
2.0
 40
2.0
 40
3.0
 40
3.0
 40
3.0
 40
4.0
 40
4.0
 40
4.0
 40
5.0
 40
5.0
 40
5.0
 40
6.0
 40
6.0
 40
6.0
 40
6.0
 10
387.8800284737706
 20
-67.26370874491514
 30
0.0
 10
388.3768291405608
 20
-66.97687466663153
 30
0.0
 10
389.0261984786443
 20
-67.17152373997774
 30
0.0
 10
389.3304338761786
 20
-67.69847736300393
 30
0.0
 10
389.3304338761786
 20
-67.69847736300393
 30
0.0
 10
401.4221580966382
 20
-88.64196810762787
 30
0.0
 10
401.4221580966382
 20
-88.64196810762787
 30
0.0
 10
401.7263779433957
 20
-89.1689061798774
 30
0.0
 10
401.570263694986
 20
-89.82861678454024
 30
0.0
 10
401.0734630281989
 20
-90.11543531204654
 30
0.0
 10
400.5766623614088
 20
-90.40226939033013
 30
0.0
 10
399.9272774725492
 20
-90.2076203169833
 30
0.0
 10
399.6230576257916
 20
-89.68068224473505
 30
0.0
 10
399.6230576257916
 20
-89.68068224473505
 30
0.0
 10
387.531333405332
 20
-68.73717594933446
 30
0.0
 10
387.531333405332
 20
-68.73717594933446
 30
0.0
 10
387.2270980077978
 20
-68.21023787708492
 30
0.0
 10
387.3832122562075
 20
-67.55054282319809
 30
0.0
 10
387.8800284737706
 20
-67.26370874491514
 30
0.0
  0
ENDSEC
  0
SECTION
  2
OBJECTS
  0
DICTIONARY
  5
C
330
0
100
AcDbDictionary
281
     1
  3
ACAD_GROUP
350
D
  3
ACAD_LAYOUT
350
1A
  3
ACAD_MATERIAL
350
3B
  3
ACAD_MLEADERSTYLE
350
C6
  3
ACAD_MLINESTYLE
350
17
  3
ACAD_PLOTSETTINGS
350
19
  3
ACAD_PLOTSTYLENAME
350
E
  3
ACAD_TABLESTYLE
350
C5
  3
ACAD_VISUALSTYLE
350
2A
  0
SUN
  5
3F
330
29
100
AcDbSun
 90
        1
290
     0
 63
     7
421
 16777215
 40
1.0
291
     1
 91
  2455826
 92
 54000000
292
     0
 70
     2
 71
   256
280
     1
  0
DICTIONARY
  5
D
102
{ACAD_REACTORS
330
C
102
}
330
C
100
AcDbDictionary
281
     1
  0
DICTIONARY
  5
1A
102
{ACAD_REACTORS
330
C
102
}
330
C
100
AcDbDictionary
281
     1
  3
Layout1
350
1E
  3
Layout2
350
26
  3
Model
350
22
  0
DICTIONARY
  5
3B
102
{ACAD_REACTORS
330
C
102
}
330
C
100
AcDbDictionary
281
     1
  3
ByBlock
350
3D
  3
ByLayer
350
3C
  3
Global
350
3E
  0
DICTIONARY
  5
C6
102
{ACAD_REACTORS
330
C
102
}
330
C
100
AcDbDictionary
281
     1
  0
DICTIONARY
  5
17
102
{ACAD_REACTORS
330
C
102
}
330
C
100
AcDbDictionary
281
     1
  3
Standard
350
18
  0
DICTIONARY
  5
19
102
{ACAD_REACTORS
330
C
102
}
330
C
100
AcDbDictionary
281
     1
  0
ACDBDICTIONARYWDFLT
  5
E
102
{ACAD_REACTORS
330
C
102
}
330
C
100
AcDbDictionary
281
     1
  3
Normal
350
F
100
AcDbDictionaryWithDefault
340
F
  0
DICTIONARY
  5
C5
102
{ACAD_REACTORS
330
C
102
}
330
C
100
AcDbDictionary
281
     1
  0
DICTIONARY
  5
2A
102
{ACAD_REACTORS
330
C
102
}
330
C
100
AcDbDictionary
281
     1
  3
2dWireframe
350
2F
  3
3D Hidden
350
31
  3
3dWireframe
350
30
  3
Basic
350
32
  3
Brighten
350
36
  3
ColorChange
350
3A
  3
Conceptual
350
34
  3
Dim
350
35
  3
Facepattern
350
39
  3
Flat
350
2B
  3
FlatWithEdges
350
2C
  3
Gouraud
350
2D
  3
GouraudWithEdges
350
2E
  3
Linepattern
350
38
  3
Realistic
350
33
  3
Thicken
350
37
  0
LAYOUT
  5
1E
102
{ACAD_REACTORS
330
1A
102
}
330
1A
100
AcDbPlotSettings
  1

  2
none_device
  4

  6

 40
0.0
 41
0.0
 42
0.0
 43
0.0
 44
0.0
 45
0.0
 46
0.0
 47
0.0
 48
0.0
 49
0.0
140
0.0
141
0.0
142
1.0
143
1.0
 70
   688
 72
     0
 73
     0
 74
     5
  7

 75
    16
 76
     0
 77
     2
 78
   300
147
1.0
148
0.0
149
0.0
100
AcDbLayout
  1
Layout1
 70
     1
 71
     1
 10
0.0
 20
0.0
 11
12.0
 21
9.0
 12
0.0
 22
0.0
 32
0.0
 14
1.000000000000000E+20
 24
1.000000000000000E+20
 34
1.000000000000000E+20
 15
-1.000000000000000E+20
 25
-1.000000000000000E+20
 35
-1.000000000000000E+20
146
0.0
 13
0.0
 23
0.0
 33
0.0
 16
1.0
 26
0.0
 36
0.0
 17
0.0
 27
1.0
 37
0.0
 76
     0
330
1B
  0
LAYOUT
  5
26
102
{ACAD_REACTORS
330
1A
102
}
330
1A
100
AcDbPlotSettings
  1

  2
none_device
  4

  6

 40
0.0
 41
0.0
 42
0.0
 43
0.0
 44
0.0
 45
0.0
 46
0.0
 47
0.0
 48
0.0
 49
0.0
140
0.0
141
0.0
142
1.0
143
1.0
 70
   688
 72
     0
 73
     0
 74
     5
  7

 75
    16
 76
     0
 77
     2
 78
   300
147
1.0
148
0.0
149
0.0
100
AcDbLayout
  1
Layout2
 70
     1
 71
     2
 10
0.0
 20
0.0
 11
0.0
 21
0.0
 12
0.0
 22
0.0
 32
0.0
 14
0.0
 24
0.0
 34
0.0
 15
0.0
 25
0.0
 35
0.0
146
0.0
 13
0.0
 23
0.0
 33
0.0
 16
1.0
 26
0.0
 36
0.0
 17
0.0
 27
1.0
 37
0.0
 76
     0
330
23
  0
LAYOUT
  5
22
102
{ACAD_REACTORS
330
1A
102
}
330
1A
100
AcDbPlotSettings
  1

  2
none_device
  4

  6

 40
0.0
 41
0.0
 42
0.0
 43
0.0
 44
0.0
 45
0.0
 46
0.0
 47
0.0
 48
0.0
 49
0.0
140
0.0
141
0.0
142
1.0
143
1.0
 70
  1712
 72
     0
 73
     0
 74
     0
  7

 75
     0
 76
     0
 77
     2
 78
   300
147
1.0
148
0.0
149
0.0
100
AcDbLayout
  1
Model
 70
     1
 71
     0
 10
0.0
 20
0.0
 11
12.0
 21
9.0
 12
0.0
 22
0.0
 32
0.0
 14
1.000000000000000E+20
 24
1.000000000000000E+20
 34
1.000000000000000E+20
 15
-1.000000000000000E+20
 25
-1.000000000000000E+20
 35
-1.000000000000000E+20
146
0.0
 13
0.0
 23
0.0
 33
0.0
 16
1.0
 26
0.0
 36
0.0
 17
0.0
 27
1.0
 37
0.0
 76
     0
330
1F
331
29
  0
MATERIAL
  5
3D
102
{ACAD_REACTORS
330
3B
102
}
330
3B
100
AcDbMaterial
  1
ByBlock
 72
     1
 94
      127
  0
MATERIAL
  5
3C
102
{ACAD_REACTORS
330
3B
102
}
330
3B
100
AcDbMaterial
  1
ByLayer
 72
     1
 94
      127
  0
MATERIAL
  5
3E
102
{ACAD_REACTORS
330
3B
102
}
330
3B
100
AcDbMaterial
  1
Global
 72
     1
 94
      127
  0
MLINESTYLE
  5
18
102
{ACAD_REACTORS
330
17
102
}
330
17
100
AcDbMlineStyle
  2
Standard
 70
     0
  3

 62
   256
 51
90.0
 52
90.0
 71
     2
 49
0.5
 62
   256
  6
BYLAYER
 49
-0.5
 62
   256
  6
BYLAYER
  0
ACDBPLACEHOLDER
  5
F
102
{ACAD_REACTORS
330
E
102
}
330
E
  0
VISUALSTYLE
  5
2F
102
{ACAD_REACTORS
330
2A
102
}
330
2A
100
AcDbVisualStyle
  2
2dWireframe
 70
     4
177
     2
291
     0
 71
     0
176
     1
 72
     2
176
     1
 73
     0
176
     1
 90
        0
176
     1
 40
-0.6
176
     1
 41
-30.0
176
     1
 62
     5
 63
     7
421
 16777215
176
     1
 74
     1
176
     1
 91
        4
176
     1
 64
     7
176
     1
 65
   257
176
     1
 75
     1
176
     1
175
     1
176
     1
 42
1.0
176
     1
 92
        0
176
     1
 66
   257
176
     1
 43
1.0
176
     1
 76
     1
176
     1
 77
     6
176
     1
 78
     2
176
     1
 67
     7
176
     1
 79
     5
176
     1
170
     0
176
     1
171
     0
176
     1
290
     0
176
     1
 93
        1
176
     1
 44
0.0
176
     1
173
     0
176
     1
  0
VISUALSTYLE
  5
31
102
{ACAD_REACTORS
330
2A
102
}
330
2A
100
AcDbVisualStyle
  2
3D Hidden
 70
     6
177
     2
291
     0
 71
     1
176
     1
 72
     2
176
     1
 73
     2
176
     1
 90
        0
176
     1
 40
-0.6
176
     1
 41
-30.0
176
     1
 62
     5
 63
     7
421
 16777215
176
     1
 74
     2
176
     1
 91
        2
176
     1
 64
     7
176
     1
 65
   257
176
     1
 75
     2
176
     1
175
     1
176
     1
 42
40.0
176
     1
 92
        0
176
     1
 66
   257
176
     1
 43
1.0
176
     1
 76
     1
176
     1
 77
     6
176
     1
 78
     2
176
     1
 67
     7
176
     1
 79
     3
176
     1
170
     0
176
     1
171
     0
176
     1
290
     0
176
     1
 93
        1
176
     1
 44
0.0
176
     1
173
     0
176
     1
  0
VISUALSTYLE
  5
30
102
{ACAD_REACTORS
330
2A
102
}
330
2A
100
AcDbVisualStyle
  2
3dWireframe
 70
     5
177
     2
291
     0
 71
     0
176
     1
 72
     2
176
     1
 73
     0
176
     1
 90
        0
176
     1
 40
-0.6
176
     1
 41
-30.0
176
     1
 62
     5
 63
     7
421
 16777215
176
     1
 74
     1
176
     1
 91
        4
176
     1
 64
     7
176
     1
 65
   257
176
     1
 75
     1
176
     1
175
     1
176
     1
 42
1.0
176
     1
 92
        0
176
     1
 66
   257
176
     1
 43
1.0
176
     1
 76
     1
176
     1
 77
     6
176
     1
 78
     2
176
     1
 67
     7
176
     1
 79
     5
176
     1
170
     0
176
     1
171
     0
176
     1
290
     0
176
     1
 93
        1
176
     1
 44
0.0
176
     1
173
     0
176
     1
  0
VISUALSTYLE
  5
32
102
{ACAD_REACTORS
330
2A
102
}
330
2A
100
AcDbVisualStyle
  2
Basic
 70
     7
177
     2
291
     1
 71
     1
176
     1
 72
     0
176
     1
 73
     1
176
     1
 90
        0
176
     1
 40
-0.6
176
     1
 41
-30.0
176
     1
 62
     5
 63
     7
421
 16777215
176
     1
 74
     0
176
     1
 91
        4
176
     1
 64
     7
176
     1
 65
   257
176
     1
 75
     1
176
     1
175
     1
176
     1
 42
1.0
176
     1
 92
        8
176
     1
 66
     7
176
     1
 43
1.0
176
     1
 76
     1
176
     1
 77
     6
176
     1
 78
     2
176
     1
 67
     7
176
     1
 79
     5
176
     1
170
     0
176
     1
171
     0
176
     1
290
     0
176
     1
 93
        1
176
     1
 44
0.0
176
     1
173
     0
176
     1
  0
VISUALSTYLE
  5
36
102
{ACAD_REACTORS
330
2A
102
}
330
2A
100
AcDbVisualStyle
  2
Brighten
 70
    12
177
     2
291
     1
 71
     2
176
     1
 72
     2
176
     1
 73
     0
176
     1
 90
        0
176
     1
 40
-0.6
176
     1
 41
-30.0
176
     1
 62
     5
 63
     7
421
 16777215
176
     1
 74
     1
176
     1
 91
        4
176
     1
 64
     7
176
     1
 65
   257
176
     1
 75
     1
176
     1
175
     1
176
     1
 42
1.0
176
     1
 92
        8
176
     1
 66
     7
176
     1
 43
1.0
176
     1
 76
     1
176
     1
 77
     6
176
     1
 78
     2
176
     1
 67
     7
176
     1
 79
     5
176
     1
170
     0
176
     1
171
     0
176
     1
290
     0
176
     1
 93
        1
176
     1
 44
50.0
176
     1
173
     0
176
     1
  0
VISUALSTYLE
  5
3A
102
{ACAD_REACTORS
330
2A
102
}
330
2A
100
AcDbVisualStyle
  2
ColorChange
 70
    16
177
     2
291
     1
 71
     2
176
     1
 72
     2
176
     1
 73
     3
176
     1
 90
        0
176
     1
 40
-0.6
176
     1
 41
-30.0
176
     1
 62
     5
 63
     8
421
  8421504
176
     1
 74
     1
176
     1
 91
        4
176
     1
 64
     7
176
     1
 65
   257
176
     1
 75
     1
176
     1
175
     1
176
     1
 42
1.0
176
     1
 92
        8
176
     1
 66
     8
424
  8421504
176
     1
 43
1.0
176
     1
 76
     1
176
     1
 77
     6
176
     1
 78
     2
176
     1
 67
     7
176
     1
 79
     5
176
     1
170
     0
176
     1
171
     0
176
     1
290
     0
176
     1
 93
        1
176
     1
 44
0.0
176
     1
173
     0
176
     1
  0
VISUALSTYLE
  5
34
102
{ACAD_REACTORS
330
2A
102
}
330
2A
100
AcDbVisualStyle
  2
Conceptual
 70
     9
177
     2
291
     0
 71
     3
176
     1
 72
     2
176
     1
 73
     0
176
     1
 90
        0
176
     1
 40
-0.6
176
     1
 41
-30.0
176
     1
 62
     5
 63
     7
421
 16777215
176
     1
 74
     2
176
     1
 91
        2
176
     1
 64
     7
176
     1
 65
   257
176
     1
 75
     1
176
     1
175
     1
176
     1
 42
40.0
176
     1
 92
        8
176
     1
 66
     7
176
     1
 43
1.0
176
     1
 76
     1
176
     1
 77
     6
176
     1
 78
     2
176
     1
 67
     7
176
     1
 79
     3
176
     1
170
     0
176
     1
171
     0
176
     1
290
     0
176
     1
 93
        1
176
     1
 44
0.0
176
     1
173
     0
176
     1
  0
VISUALSTYLE
  5
35
102
{ACAD_REACTORS
330
2A
102
}
330
2A
100
AcDbVisualStyle
  2
Dim
 70
    11
177
     2
291
     1
 71
     2
176
     1
 72
     2
176
     1
 73
     0
176
     1
 90
        0
176
     1
 40
-0.6
176
     1
 41
-30.0
176
     1
 62
     5
 63
     7
421
 16777215
176
     1
 74
     1
176
     1
 91
        4
176
     1
 64
     7
176
     1
 65
   257
176
     1
 75
     1
176
     1
175
     1
176
     1
 42
1.0
176
     1
 92
        8
176
     1
 66
     7
176
     1
 43
1.0
176
     1
 76
     1
176
     1
 77
     6
176
     1
 78
     2
176
     1
 67
     7
176
     1
 79
     5
176
     1
170
     0
176
     1
171
     0
176
     1
290
     0
176
     1
 93
        1
176
     1
 44
-50.0
176
     1
173
     0
176
     1
  0
VISUALSTYLE
  5
39
102
{ACAD_REACTORS
330
2A
102
}
330
2A
100
AcDbVisualStyle
  2
Facepattern
 70
    15
177
     2
291
     1
 71
     2
176
     1
 72
     2
176
     1
 73
     0
176
     1
 90
        0
176
     1
 40
-0.6
176
     1
 41
-30.0
176
     1
 62
     5
 63
     7
421
 16777215
176
     1
 74
     1
176
     1
 91
        4
176
     1
 64
     7
176
     1
 65
   257
176
     1
 75
     1
176
     1
175
     1
176
     1
 42
1.0
176
     1
 92
        8
176
     1
 66
     7
176
     1
 43
1.0
176
     1
 76
     1
176
     1
 77
     6
176
     1
 78
     2
176
     1
 67
     7
176
     1
 79
     5
176
     1
170
     0
176
     1
171
     0
176
     1
290
     0
176
     1
 93
        1
176
     1
 44
0.0
176
     1
173
     0
176
     1
  0
VISUALSTYLE
  5
2B
102
{ACAD_REACTORS
330
2A
102
}
330
2A
100
AcDbVisualStyle
  2
Flat
 70
     0
177
     2
291
     1
 71
     2
176
     1
 72
     1
176
     1
 73
     1
176
     1
 90
        2
176
     1
 40
-0.6
176
     1
 41
30.0
176
     1
 62
     5
 63
     7
421
 16777215
176
     1
 74
     0
176
     1
 91
        4
176
     1
 64
     7
176
     1
 65
   257
176
     1
 75
     1
176
     1
175
     1
176
     1
 42
1.0
176
     1
 92
        8
176
     1
 66
     7
176
     1
 43
1.0
176
     1
 76
     1
176
     1
 77
     6
176
     1
 78
     2
176
     1
 67
     7
176
     1
 79
     5
176
     1
170
     0
176
     1
171
     0
176
     1
290
     0
176
     1
 93
       13
176
     1
 44
0.0
176
     1
173
     0
176
     1
  0
VISUALSTYLE
  5
2C
102
{ACAD_REACTORS
330
2A
102
}
330
2A
100
AcDbVisualStyle
  2
FlatWithEdges
 70
     1
177
     2
291
     1
 71
     2
176
     1
 72
     1
176
     1
 73
     1
176
     1
 90
        2
176
     1
 40
-0.6
176
     1
 41
30.0
176
     1
 62
     5
 63
     7
421
 16777215
176
     1
 74
     1
176
     1
 91
        4
176
     1
 64
     7
176
     1
 65
   257
176
     1
 75
     1
176
     1
175
     1
176
     1
 42
1.0
176
     1
 92
        0
176
     1
 66
   257
176
     1
 43
1.0
176
     1
 76
     1
176
     1
 77
     6
176
     1
 78
     2
176
     1
 67
     7
176
     1
 79
     5
176
     1
170
     0
176
     1
171
     0
176
     1
290
     0
176
     1
 93
       13
176
     1
 44
0.0
176
     1
173
     0
176
     1
  0
VISUALSTYLE
  5
2D
102
{ACAD_REACTORS
330
2A
102
}
330
2A
100
AcDbVisualStyle
  2
Gouraud
 70
     2
177
     2
291
     1
 71
     2
176
     1
 72
     2
176
     1
 73
     1
176
     1
 90
        2
176
     1
 40
-0.6
176
     1
 41
30.0
176
     1
 62
     5
 63
     7
421
 16777215
176
     1
 74
     0
176
     1
 91
        4
176
     1
 64
     7
176
     1
 65
   257
176
     1
 75
     1
176
     1
175
     1
176
     1
 42
1.0
176
     1
 92
        0
176
     1
 66
     7
176
     1
 43
1.0
176
     1
 76
     1
176
     1
 77
     6
176
     1
 78
     2
176
     1
 67
     7
176
     1
 79
     5
176
     1
170
     0
176
     1
171
     0
176
     1
290
     0
176
     1
 93
       13
176
     1
 44
0.0
176
     1
173
     0
176
     1
  0
VISUALSTYLE
  5
2E
102
{ACAD_REACTORS
330
2A
102
}
330
2A
100
AcDbVisualStyle
  2
GouraudWithEdges
 70
     3
177
     2
291
     1
 71
     2
176
     1
 72
     2
176
     1
 73
     1
176
     1
 90
        2
176
     1
 40
-0.6
176
     1
 41
30.0
176
     1
 62
     5
 63
     7
421
 16777215
176
     1
 74
     1
176
     1
 91
        4
176
     1
 64
     7
176
     1
 65
   257
176
     1
 75
     1
176
     1
175
     1
176
     1
 42
1.0
176
     1
 92
        0
176
     1
 66
   257
176
     1
 43
1.0
176
     1
 76
     1
176
     1
 77
     6
176
     1
 78
     2
176
     1
 67
     7
176
     1
 79
     5
176
     1
170
     0
176
     1
171
     0
176
     1
290
     0
176
     1
 93
       13
176
     1
 44
0.0
176
     1
173
     0
176
     1
  0
VISUALSTYLE
  5
38
102
{ACAD_REACTORS
330
2A
102
}
330
2A
100
AcDbVisualStyle
  2
Linepattern
 70
    14
177
     2
291
     1
 71
     2
176
     1
 72
     2
176
     1
 73
     0
176
     1
 90
        0
176
     1
 40
-0.6
176
     1
 41
-30.0
176
     1
 62
     5
 63
     7
421
 16777215
176
     1
 74
     1
176
     1
 91
        4
176
     1
 64
     7
176
     1
 65
   257
176
     1
 75
     7
176
     1
175
     7
176
     1
 42
1.0
176
     1
 92
        8
176
     1
 66
     7
176
     1
 43
1.0
176
     1
 76
     1
176
     1
 77
     6
176
     1
 78
     2
176
     1
 67
     7
176
     1
 79
     5
176
     1
170
     0
176
     1
171
     0
176
     1
290
     0
176
     1
 93
        1
176
     1
 44
0.0
176
     1
173
     0
176
     1
  0
VISUALSTYLE
  5
33
102
{ACAD_REACTORS
330
2A
102
}
330
2A
100
AcDbVisualStyle
  2
Realistic
 70
     8
177
     2
291
     0
 71
     2
176
     1
 72
     2
176
     1
 73
     0
176
     1
 90
        0
176
     1
 40
-0.6
176
     1
 41
-30.0
176
     1
 62
     5
 63
     7
421
 16777215
176
     1
 74
     1
176
     1
 91
        0
176
     1
 64
     7
176
     1
 65
   257
176
     1
 75
     1
176
     1
175
     1
176
     1
 42
1.0
176
     1
 92
        8
176
     1
 66
     8
424
  7895160
176
     1
 43
1.0
176
     1
 76
     1
176
     1
 77
     6
176
     1
 78
     2
176
     1
 67
     7
176
     1
 79
     5
176
     1
170
     0
176
     1
171
     0
176
     1
290
     0
176
     1
 93
       13
176
     1
 44
0.0
176
     1
173
     0
176
     1
  0
VISUALSTYLE
  5
37
102
{ACAD_REACTORS
330
2A
102
}
330
2A
100
AcDbVisualStyle
  2
Thicken
 70
    13
177
     2
291
     1
 71
     2
176
     1
 72
     2
176
     1
 73
     0
176
     1
 90
        0
176
     1
 40
-0.6
176
     1
 41
-30.0
176
     1
 62
     5
 63
     7
421
 16777215
176
     1
 74
     1
176
     1
 91
        4
176
     1
 64
     7
176
     1
 65
   257
176
     1
 75
     1
176
     1
175
     1
176
     1
 42
1.0
176
     1
 92
       12
176
     1
 66
     7
176
     1
 43
1.0
176
     1
 76
     1
176
     1
 77
     6
176
     1
 78
     2
176
     1
 67
     7
176
     1
 79
     5
176
     1
170
     0
176
     1
171
     0
176
     1
290
     0
176
     1
 93
        1
176
     1
 44
0.0
176
     1
173
     0
176
     1
  0
ENDSEC
  0
EOF
