  0
SECTION
  2
HEADER
  9
$ACADVER
  1
AC1024
  9
$ACADMAINTVER
 70
     6
  9
$DWGCODEPAGE
  3
ANSI_932
  9
$INSBASE
 10
0.0
 20
0.0
 30
0.0
  9
$EXTMIN
 10
1.000000000000000E+20
 20
1.000000000000000E+20
 30
1.000000000000000E+20
  9
$EXTMAX
 10
-1.000000000000000E+20
 20
-1.000000000000000E+20
 30
-1.000000000000000E+20
  9
$LIMMIN
 10
0.0
 20
0.0
  9
$LIMMAX
 10
12.0
 20
9.0
  9
$ORTHOMODE
 70
     0
  9
$REGENMODE
 70
     1
  9
$FILLMODE
 70
     1
  9
$QTEXTMODE
 70
     0
  9
$MIRRTEXT
 70
     1
  9
$LTSCALE
 40
1.0
  9
$ATTMODE
 70
     1
  9
$TEXTSIZE
 40
0.2
  9
$TRACEWID
 40
0.05
  9
$TEXTSTYLE
  7
Standard
  9
$CLAYER
  8
0
  9
$CELTYPE
  6
ByLayer
  9
$CECOLOR
 62
   256
  9
$CELTSCALE
 40
1.0
  9
$DISPSILH
 70
     0
  9
$DIMSCALE
 40
1.0
  9
$DIMASZ
 40
0.18
  9
$DIMEXO
 40
0.0625
  9
$DIMDLI
 40
0.38
  9
$DIMRND
 40
0.0
  9
$DIMDLE
 40
0.0
  9
$DIMEXE
 40
0.18
  9
$DIMTP
 40
0.0
  9
$DIMTM
 40
0.0
  9
$DIMTXT
 40
0.18
  9
$DIMCEN
 40
0.09
  9
$DIMTSZ
 40
0.0
  9
$DIMTOL
 70
     0
  9
$DIMLIM
 70
     0
  9
$DIMTIH
 70
     1
  9
$DIMTOH
 70
     1
  9
$DIMSE1
 70
     0
  9
$DIMSE2
 70
     0
  9
$DIMTAD
 70
     0
  9
$DIMZIN
 70
     0
  9
$DIMBLK
  1

  9
$DIMASO
 70
     1
  9
$DIMSHO
 70
     1
  9
$DIMPOST
  1

  9
$DIMAPOST
  1

  9
$DIMALT
 70
     0
  9
$DIMALTD
 70
     2
  9
$DIMALTF
 40
25.4
  9
$DIMLFAC
 40
1.0
  9
$DIMTOFL
 70
     0
  9
$DIMTVP
 40
0.0
  9
$DIMTIX
 70
     0
  9
$DIMSOXD
 70
     0
  9
$DIMSAH
 70
     0
  9
$DIMBLK1
  1

  9
$DIMBLK2
  1

  9
$DIMSTYLE
  2
Standard
  9
$DIMCLRD
 70
     0
  9
$DIMCLRE
 70
     0
  9
$DIMCLRT
 70
     0
  9
$DIMTFAC
 40
1.0
  9
$DIMGAP
 40
0.09
  9
$DIMJUST
 70
     0
  9
$DIMSD1
 70
     0
  9
$DIMSD2
 70
     0
  9
$DIMTOLJ
 70
     1
  9
$DIMTZIN
 70
     0
  9
$DIMALTZ
 70
     0
  9
$DIMALTTZ
 70
     0
  9
$DIMUPT
 70
     0
  9
$DIMDEC
 70
     4
  9
$DIMTDEC
 70
     4
  9
$DIMALTU
 70
     2
  9
$DIMALTTD
 70
     2
  9
$DIMTXSTY
  7
Standard
  9
$DIMAUNIT
 70
     0
  9
$DIMADEC
 70
     0
  9
$DIMALTRND
 40
0.0
  9
$DIMAZIN
 70
     0
  9
$DIMDSEP
 70
    46
  9
$DIMATFIT
 70
     3
  9
$DIMFRAC
 70
     0
  9
$DIMLDRBLK
  1

  9
$DIMLUNIT
 70
     2
  9
$DIMLWD
 70
    -2
  9
$DIMLWE
 70
    -2
  9
$DIMTMOVE
 70
     0
  9
$DIMFXL
 40
1.0
  9
$DIMFXLON
 70
     0
  9
$DIMJOGANG
 40
0.7853981633974483
  9
$DIMTFILL
 70
     0
  9
$DIMTFILLCLR
 70
     0
  9
$DIMARCSYM
 70
     0
  9
$DIMLTYPE
  6

  9
$DIMLTEX1
  6

  9
$DIMLTEX2
  6

  9
$DIMTXTDIRECTION
 70
     0
  9
$LUNITS
 70
     2
  9
$LUPREC
 70
     4
  9
$SKETCHINC
 40
0.1
  9
$FILLETRAD
 40
0.5
  9
$AUNITS
 70
     0
  9
$AUPREC
 70
     0
  9
$MENU
  1
.
  9
$ELEVATION
 40
0.0
  9
$PELEVATION
 40
0.0
  9
$THICKNESS
 40
0.0
  9
$LIMCHECK
 70
     0
  9
$CHAMFERA
 40
0.5
  9
$CHAMFERB
 40
0.5
  9
$CHAMFERC
 40
1.0
  9
$CHAMFERD
 40
0.0
  9
$SKPOLY
 70
     0
  9
$TDCREATE
 40
2458546.297951817
  9
$TDUCREATE
 40
2458545.922951817
  9
$TDUPDATE
 40
2458546.297951864
  9
$TDUUPDATE
 40
2458545.922951864
  9
$TDINDWG
 40
0.0000000116
  9
$TDUSRTIMER
 40
0.0000000116
  9
$USRTIMER
 70
     1
  9
$ANGBASE
 50
0.0
  9
$ANGDIR
 70
     0
  9
$PDMODE
 70
     0
  9
$PDSIZE
 40
0.0
  9
$PLINEWID
 40
0.0
  9
$SPLFRAME
 70
     0
  9
$SPLINETYPE
 70
     6
  9
$SPLINESEGS
 70
     8
  9
$HANDSEED
  5
18D
  9
$SURFTAB1
 70
     6
  9
$SURFTAB2
 70
     6
  9
$SURFTYPE
 70
     6
  9
$SURFU
 70
     6
  9
$SURFV
 70
     6
  9
$UCSBASE
  2

  9
$UCSNAME
  2

  9
$UCSORG
 10
0.0
 20
0.0
 30
0.0
  9
$UCSXDIR
 10
1.0
 20
0.0
 30
0.0
  9
$UCSYDIR
 10
0.0
 20
1.0
 30
0.0
  9
$UCSORTHOREF
  2

  9
$UCSORTHOVIEW
 70
     0
  9
$UCSORGTOP
 10
0.0
 20
0.0
 30
0.0
  9
$UCSORGBOTTOM
 10
0.0
 20
0.0
 30
0.0
  9
$UCSORGLEFT
 10
0.0
 20
0.0
 30
0.0
  9
$UCSORGRIGHT
 10
0.0
 20
0.0
 30
0.0
  9
$UCSORGFRONT
 10
0.0
 20
0.0
 30
0.0
  9
$UCSORGBACK
 10
0.0
 20
0.0
 30
0.0
  9
$PUCSBASE
  2

  9
$PUCSNAME
  2

  9
$PUCSORG
 10
0.0
 20
0.0
 30
0.0
  9
$PUCSXDIR
 10
1.0
 20
0.0
 30
0.0
  9
$PUCSYDIR
 10
0.0
 20
1.0
 30
0.0
  9
$PUCSORTHOREF
  2

  9
$PUCSORTHOVIEW
 70
     0
  9
$PUCSORGTOP
 10
0.0
 20
0.0
 30
0.0
  9
$PUCSORGBOTTOM
 10
0.0
 20
0.0
 30
0.0
  9
$PUCSORGLEFT
 10
0.0
 20
0.0
 30
0.0
  9
$PUCSORGRIGHT
 10
0.0
 20
0.0
 30
0.0
  9
$PUCSORGFRONT
 10
0.0
 20
0.0
 30
0.0
  9
$PUCSORGBACK
 10
0.0
 20
0.0
 30
0.0
  9
$USERI1
 70
     0
  9
$USERI2
 70
     0
  9
$USERI3
 70
     0
  9
$USERI4
 70
     0
  9
$USERI5
 70
     0
  9
$USERR1
 40
0.0
  9
$USERR2
 40
0.0
  9
$USERR3
 40
0.0
  9
$USERR4
 40
0.0
  9
$USERR5
 40
0.0
  9
$WORLDVIEW
 70
     1
  9
$SHADEDGE
 70
     3
  9
$SHADEDIF
 70
    70
  9
$TILEMODE
 70
     1
  9
$MAXACTVP
 70
    64
  9
$PINSBASE
 10
0.0
 20
0.0
 30
0.0
  9
$PLIMCHECK
 70
     0
  9
$PEXTMIN
 10
1.000000000000000E+20
 20
1.000000000000000E+20
 30
1.000000000000000E+20
  9
$PEXTMAX
 10
-1.000000000000000E+20
 20
-1.000000000000000E+20
 30
-1.000000000000000E+20
  9
$PLIMMIN
 10
0.0
 20
0.0
  9
$PLIMMAX
 10
12.0
 20
9.0
  9
$UNITMODE
 70
     0
  9
$VISRETAIN
 70
     1
  9
$PLINEGEN
 70
     0
  9
$PSLTSCALE
 70
     1
  9
$TREEDEPTH
 70
  3020
  9
$CMLSTYLE
  2
Standard
  9
$CMLJUST
 70
     0
  9
$CMLSCALE
 40
1.0
  9
$PROXYGRAPHICS
 70
     1
  9
$MEASUREMENT
 70
     0
  9
$CELWEIGHT
370
    -1
  9
$ENDCAPS
280
     0
  9
$JOINSTYLE
280
     0
  9
$LWDISPLAY
290
     1
  9
$INSUNITS
 70
     1
  9
$HYPERLINKBASE
  1

  9
$STYLESHEET
  1

  9
$XEDIT
290
     1
  9
$CEPSNTYPE
380
     0
  9
$PSTYLEMODE
290
     1
  9
$FINGERPRINTGUID
  2
{FEB3C655-CF90-4015-9468-42DDF3B26670}
  9
$VERSIONGUID
  2
{FAEB1C32-E019-11D5-929B-00C0DF256EC4}
  9
$EXTNAMES
290
     1
  9
$PSVPSCALE
 40
0.0
  9
$OLESTARTUP
290
     0
  9
$SORTENTS
280
   127
  9
$INDEXCTL
280
     0
  9
$HIDETEXT
280
     1
  9
$XCLIPFRAME
280
     2
  9
$HALOGAP
280
     0
  9
$OBSCOLOR
 70
   257
  9
$OBSLTYPE
280
     0
  9
$INTERSECTIONDISPLAY
280
     0
  9
$INTERSECTIONCOLOR
 70
   257
  9
$DIMASSOC
280
     2
  9
$PROJECTNAME
  1

  9
$CAMERADISPLAY
290
     0
  9
$LENSLENGTH
 40
50.0
  9
$CAMERAHEIGHT
 40
0.0
  9
$STEPSPERSEC
 40
2.0
  9
$STEPSIZE
 40
6.0
  9
$3DDWFPREC
 40
2.0
  9
$PSOLWIDTH
 40
0.25
  9
$PSOLHEIGHT
 40
4.0
  9
$LOFTANG1
 40
1.570796326794897
  9
$LOFTANG2
 40
1.570796326794897
  9
$LOFTMAG1
 40
0.0
  9
$LOFTMAG2
 40
0.0
  9
$LOFTPARAM
 70
     7
  9
$LOFTNORMALS
280
     1
  9
$LATITUDE
 40
37.795
  9
$LONGITUDE
 40
-122.394
  9
$NORTHDIRECTION
 40
0.0
  9
$TIMEZONE
 70
 -8000
  9
$LIGHTGLYPHDISPLAY
280
     1
  9
$TILEMODELIGHTSYNCH
280
     1
  9
$CMATERIAL
347
3C
  9
$SOLIDHIST
280
     1
  9
$SHOWHIST
280
     1
  9
$DWFFRAME
280
     2
  9
$DGNFRAME
280
     2
  9
$REALWORLDSCALE
290
     1
  9
$INTERFERECOLOR
 62
   256
  9
$CSHADOW
280
     0
  9
$SHADOWPLANELOCATION
 40
0.0
  0
ENDSEC
  0
SECTION
  2
CLASSES
  0
CLASS
  1
ACDBDICTIONARYWDFLT
  2
AcDbDictionaryWithDefault
  3
ObjectDBX Classes
 90
        0
 91
        4
280
     0
281
     0
  0
CLASS
  1
VISUALSTYLE
  2
AcDbVisualStyle
  3
ObjectDBX Classes
 90
     4095
 91
        4
280
     0
281
     0
  0
CLASS
  1
MATERIAL
  2
AcDbMaterial
  3
ObjectDBX Classes
 90
     1153
 91
        4
280
     0
281
     0
  0
CLASS
  1
SUN
  2
AcDbSun
  3
SCENEOE
 90
     1024
 91
        4
280
     0
281
     0
  0
ENDSEC
  0
SECTION
  2
TABLES
  0
TABLE
  2
VPORT
  5
8
330
0
100
AcDbSymbolTable
 70
     1
  0
VPORT
  5
29
330
8
100
AcDbSymbolTableRecord
100
AcDbViewportTableRecord
  2
*Active
 70
     0
 10
0.0
 20
0.0
 11
1.0
 21
1.0
 12
0.0
 22
0.0
 13
0.0
 23
0.0
 14
0.5
 24
0.5
 15
0.5
 25
0.5
 16
0.0
 26
0.0
 36
1.0
 17
239.99999994
 27
-209.9999999474998
 37
0.0
 40
419.9999998949995
 41
1.142857142857141
 42
50.0
 43
0.0
 44
0.0
 50
0.0
 51
0.0
 71
     0
 72
   100
 73
     1
 74
     3
 75
     0
 76
     0
 77
     0
 78
     0
281
     0
 65
     1
110
0.0
120
0.0
130
0.0
111
1.0
121
0.0
131
0.0
112
0.0
122
1.0
132
0.0
 79
     0
146
0.0
 60
     3
 61
     5
292
     1
282
     1
141
0.0
142
0.0
 63
   250
361
3F
  0
ENDTAB
  0
TABLE
  2
LTYPE
  5
5
330
0
100
AcDbSymbolTable
 70
     1
  0
LTYPE
  5
14
330
5
100
AcDbSymbolTableRecord
100
AcDbLinetypeTableRecord
  2
ByBlock
 70
     0
  3

 72
    65
 73
     0
 40
0.0
  0
LTYPE
  5
15
330
5
100
AcDbSymbolTableRecord
100
AcDbLinetypeTableRecord
  2
ByLayer
 70
     0
  3

 72
    65
 73
     0
 40
0.0
  0
LTYPE
  5
16
330
5
100
AcDbSymbolTableRecord
100
AcDbLinetypeTableRecord
  2
Continuous
 70
     0
  3
Solid line
 72
    65
 73
     0
 40
0.0
  0
ENDTAB
  0
TABLE
  2
LAYER
  5
2
330
0
100
AcDbSymbolTable
 70
     2
  0
LAYER
  5
10
330
2
100
AcDbSymbolTableRecord
100
AcDbLayerTableRecord
  2
0
 70
     0
 62
     7
  6
Continuous
370
    -3
390
F
347
3E
  0
LAYER
  5
40
330
2
100
AcDbSymbolTableRecord
100
AcDbLayerTableRecord
  2
Resized
 70
     0
 62
     7
  6
Continuous
370
    -3
390
F
347
3E
  0
ENDTAB
  0
TABLE
  2
STYLE
  5
3
330
0
100
AcDbSymbolTable
 70
     1
  0
STYLE
  5
11
330
3
100
AcDbSymbolTableRecord
100
AcDbTextStyleTableRecord
  2
Standard
 70
     0
 40
0.0
 41
1.0
 50
0.0
 71
     0
 42
0.2
  3
txt
  4

  0
ENDTAB
  0
TABLE
  2
VIEW
  5
6
330
0
100
AcDbSymbolTable
 70
     0
  0
ENDTAB
  0
TABLE
  2
UCS
  5
7
330
0
100
AcDbSymbolTable
 70
     0
  0
ENDTAB
  0
TABLE
  2
APPID
  5
9
330
0
100
AcDbSymbolTable
 70
     1
  0
APPID
  5
12
330
9
100
AcDbSymbolTableRecord
100
AcDbRegAppTableRecord
  2
ACAD
 70
     0
  0
ENDTAB
  0
TABLE
  2
DIMSTYLE
  5
A
330
0
100
AcDbSymbolTable
 70
     1
100
AcDbDimStyleTable
  0
DIMSTYLE
105
27
330
A
100
AcDbSymbolTableRecord
100
AcDbDimStyleTableRecord
  2
Standard
 70
     0
178
     0
340
11
  0
ENDTAB
  0
TABLE
  2
BLOCK_RECORD
  5
1
330
0
100
AcDbSymbolTable
 70
     1
  0
BLOCK_RECORD
  5
1F
330
1
100
AcDbSymbolTableRecord
100
AcDbBlockTableRecord
  2
*Model_Space
340
22
 70
     0
280
     1
281
     0
  0
BLOCK_RECORD
  5
1B
330
1
100
AcDbSymbolTableRecord
100
AcDbBlockTableRecord
  2
*Paper_Space
340
1E
 70
     0
280
     1
281
     0
  0
BLOCK_RECORD
  5
23
330
1
100
AcDbSymbolTableRecord
100
AcDbBlockTableRecord
  2
*Paper_Space0
340
26
 70
     0
280
     1
281
     0
  0
ENDTAB
  0
ENDSEC
  0
SECTION
  2
BLOCKS
  0
BLOCK
  5
20
330
1F
100
AcDbEntity
  8
0
100
AcDbBlockBegin
  2
*Model_Space
 70
     0
 10
0.0
 20
0.0
 30
0.0
  3
*Model_Space
  1

  0
ENDBLK
  5
21
330
1F
100
AcDbEntity
  8
0
100
AcDbBlockEnd
  0
BLOCK
  5
1C
330
1B
100
AcDbEntity
 67
     1
  8
0
100
AcDbBlockBegin
  2
*Paper_Space
 70
     0
 10
0.0
 20
0.0
 30
0.0
  3
*Paper_Space
  1

  0
ENDBLK
  5
1D
330
1B
100
AcDbEntity
 67
     1
  8
0
100
AcDbBlockEnd
  0
BLOCK
  5
24
330
23
100
AcDbEntity
  8
0
100
AcDbBlockBegin
  2
*Paper_Space0
 70
     0
 10
0.0
 20
0.0
 30
0.0
  3
*Paper_Space0
  1

  0
ENDBLK
  5
25
330
23
100
AcDbEntity
  8
0
100
AcDbBlockEnd
  0
ENDSEC
  0
SECTION
  2
ENTITIES
  0
POLYLINE
  5
41
330
1F
100
AcDbEntity
  8
Resized
 62
     7
420
 16777215
370
    35
100
AcDb2dPolyline
 66
     1
 10
0.0
 20
0.0
 30
0.0
  0
VERTEX
  5
42
330
41
100
AcDbEntity
  8
Resized
 62
     7
420
 16777215
370
    35
100
AcDbVertex
100
AcDb2dVertex
 10
170.470962893133
 20
-148.4373365899066
 30
0.0
  0
VERTEX
  5
43
330
41
100
AcDbEntity
  8
Resized
 62
     7
420
 16777215
370
    35
100
AcDbVertex
100
AcDb2dVertex
 10
149.4393243644752
 20
-111.8220361419035
 30
0.0
  0
VERTEX
  5
44
330
41
100
AcDbEntity
  8
Resized
 62
     7
420
 16777215
370
    35
100
AcDbVertex
100
AcDb2dVertex
 10
142.5182956368627
 20
-123.7346082362145
 30
0.0
  0
VERTEX
  5
45
330
41
100
AcDbEntity
  8
Resized
 62
     7
420
 16777215
370
    35
100
AcDbVertex
100
AcDb2dVertex
 10
93.18895519711464
 20
-37.85408559368395
 30
0.0
  0
VERTEX
  5
46
330
41
100
AcDbEntity
  8
Resized
 62
     7
420
 16777215
370
    35
100
AcDbVertex
100
AcDb2dVertex
 10
106.9604683476552
 20
-37.86793415854111
 30
0.0
  0
VERTEX
  5
47
330
41
100
AcDbEntity
  8
Resized
 62
     7
420
 16777215
370
    35
100
AcDbVertex
100
AcDb2dVertex
 10
85.90639961776773
 20
-1.21358929860554
 30
0.0
  0
VERTEX
  5
48
330
41
100
AcDbEntity
  8
Resized
 62
     7
420
 16777215
370
    35
100
AcDbVertex
100
AcDb2dVertex
 10
64.5686284968034
 20
-37.94049169071491
 30
0.0
  0
VERTEX
  5
49
330
41
100
AcDbEntity
  8
Resized
 62
     7
420
 16777215
370
    35
100
AcDbVertex
100
AcDb2dVertex
 10
77.75297063165097
 20
-37.95375052226736
 30
0.0
  0
VERTEX
  5
4A
330
41
100
AcDbEntity
  8
Resized
 62
     7
420
 16777215
370
    35
100
AcDbVertex
100
AcDb2dVertex
 10
27.91562578852827
 20
-123.7346082362145
 30
0.0
  0
VERTEX
  5
4B
330
41
100
AcDbEntity
  8
Resized
 62
     7
420
 16777215
370
    35
100
AcDbVertex
100
AcDb2dVertex
 10
21.35722203673667
 20
-112.3166800355703
 30
0.0
  0
VERTEX
  5
4C
330
41
100
AcDbEntity
  8
Resized
 62
     7
420
 16777215
370
    35
100
AcDbVertex
100
AcDb2dVertex
 10
0.4709629356328792
 20
-148.2664766164404
 30
0.0
  0
VERTEX
  5
4D
330
41
100
AcDbEntity
  8
Resized
 62
     7
420
 16777215
370
    35
100
AcDbVertex
100
AcDb2dVertex
 10
42.53722933073718
 20
-148.3087543937361
 30
0.0
  0
VERTEX
  5
4E
330
41
100
AcDbEntity
  8
Resized
 62
     7
420
 16777215
370
    35
100
AcDbVertex
100
AcDb2dVertex
 10
35.88764060857914
 20
-136.7320659201986
 30
0.0
  0
VERTEX
  5
4F
330
41
100
AcDbEntity
  8
Resized
 62
     7
420
 16777215
370
    35
100
AcDbVertex
100
AcDb2dVertex
 10
135.0542852201871
 20
-136.8317308487811
 30
0.0
  0
VERTEX
  5
50
330
41
100
AcDbEntity
  8
Resized
 62
     7
420
 16777215
370
    35
100
AcDbVertex
100
AcDb2dVertex
 10
128.3362060920974
 20
-148.3949978057173
 30
0.0
  0
VERTEX
  5
51
330
41
100
AcDbEntity
  8
Resized
 62
     7
420
 16777215
370
    35
100
AcDbVertex
100
AcDb2dVertex
 10
170.470962893133
 20
-148.4373365899066
 30
0.0
  0
SEQEND
  5
52
330
41
100
AcDbEntity
  8
Resized
 62
     7
420
 16777215
370
    35
  0
SPLINE
  5
53
330
1F
100
AcDbEntity
  8
Resized
 62
     7
420
 16777215
370
    35
100
AcDbSpline
210
0.0
220
0.0
230
1.0
 70
    11
 71
     3
 72
    23
 73
    19
 74
     0
 42
0.0000000001
 43
0.0000000001
 12
1.0
 22
0.0
 32
0.0
 13
1.0
 23
0.0
 33
0.0
 40
0.0
 40
0.0
 40
0.0
 40
0.0
 40
1.0
 40
1.0
 40
1.0
 40
2.0
 40
2.0
 40
2.0
 40
3.0
 40
3.0
 40
3.0
 40
4.0
 40
4.0
 40
4.0
 40
5.0
 40
5.0
 40
5.0
 40
6.0
 40
6.0
 40
6.0
 40
6.0
 10
53.61113965812256
 20
-100.0614118840291
 30
0.0
 10
52.96147724770653
 20
-99.68634150190513
 30
0.0
 10
52.75732784594213
 20
-98.82364301888367
 30
0.0
 10
53.15517413502669
 20
-98.1345701551732
 30
0.0
 10
53.15517413502669
 20
-98.1345701551732
 30
0.0
 10
68.9674288848562
 20
-70.74692841220424
 30
0.0
 10
68.9674288848562
 20
-70.74692841220424
 30
0.0
 10
69.36527517394046
 20
-70.05785554849409
 30
0.0
 10
70.21445046220396
 20
-69.80329411694841
 30
0.0
 10
70.8641128726203
 20
-70.17838483470356
 30
0.0
 10
71.51379561866754
 20
-70.5534755524587
 30
0.0
 10
71.71794502043163
 20
-71.41615369984896
 30
0.0
 10
71.3200987313477
 20
-72.10524689919033
 30
0.0
 10
71.3200987313477
 20
-72.10524689919033
 30
0.0
 10
55.50784398151787
 20
-99.49288864215993
 30
0.0
 10
55.50784398151787
 20
-99.49288864215993
 30
0.0
 10
55.10999769243362
 20
-100.1819615058698
 30
0.0
 10
54.26082240416981
 20
-100.4365026017842
 30
0.0
 10
53.61113965812256
 20
-100.0614118840291
 30
0.0
  0
SPLINE
  5
54
330
1F
100
AcDbEntity
  8
Resized
 62
     7
420
 16777215
370
    35
100
AcDbSpline
210
0.0
220
0.0
230
1.0
 70
    11
 71
     3
 72
    23
 73
    19
 74
     0
 42
0.0000000001
 43
0.0000000001
 12
1.0
 22
0.0
 32
0.0
 13
1.0
 23
0.0
 33
0.0
 40
0.0
 40
0.0
 40
0.0
 40
0.0
 40
1.0
 40
1.0
 40
1.0
 40
2.0
 40
2.0
 40
2.0
 40
3.0
 40
3.0
 40
3.0
 40
4.0
 40
4.0
 40
4.0
 40
5.0
 40
5.0
 40
5.0
 40
6.0
 40
6.0
 40
6.0
 40
6.0
 10
101.2832278320286
 20
-127.8448866885929
 30
0.0
 10
101.2832278320286
 20
-127.8448866885929
 30
0.0
 10
69.65869799673736
 20
-127.8448866885929
 30
0.0
 10
69.65869799673736
 20
-127.8448866885929
 30
0.0
 10
68.86302575419977
 20
-127.8448866885929
 30
0.0
 10
68.21797953206978
 20
-127.2367496371168
 30
0.0
 10
68.21797953206978
 20
-126.4865682016068
 30
0.0
 10
68.21797953206978
 20
-125.7363867660962
 30
0.0
 10
68.86302575419977
 20
-125.1282497146207
 30
0.0
 10
69.65869799673736
 20
-125.1282497146207
 30
0.0
 10
69.65869799673736
 20
-125.1282497146207
 30
0.0
 10
101.2832278320286
 20
-125.1282497146207
 30
0.0
 10
101.2832278320286
 20
-125.1282497146207
 30
0.0
 10
102.0789000745659
 20
-125.1282497146207
 30
0.0
 10
102.7239462966958
 20
-125.7363867660962
 30
0.0
 10
102.7239462966958
 20
-126.4865682016068
 30
0.0
 10
102.7239462966958
 20
-127.2367496371168
 30
0.0
 10
102.0789000745659
 20
-127.8448866885929
 30
0.0
 10
101.2832278320286
 20
-127.8448866885929
 30
0.0
  0
SPLINE
  5
55
330
1F
100
AcDbEntity
  8
Resized
 62
     7
420
 16777215
370
    35
100
AcDbSpline
210
0.0
220
0.0
230
1.0
 70
    11
 71
     3
 72
    32
 73
    28
 74
     0
 42
0.0000000001
 43
0.0000000001
 12
1.0
 22
0.0
 32
0.0
 13
1.0
 23
0.0
 33
0.0
 40
0.0
 40
0.0
 40
0.0
 40
0.0
 40
1.0
 40
1.0
 40
1.0
 40
2.0
 40
2.0
 40
2.0
 40
3.0
 40
3.0
 40
3.0
 40
4.0
 40
4.0
 40
4.0
 40
5.0
 40
5.0
 40
5.0
 40
6.0
 40
6.0
 40
6.0
 40
7.0
 40
7.0
 40
7.0
 40
8.0
 40
8.0
 40
8.0
 40
9.0
 40
9.0
 40
9.0
 40
9.0
 10
108.9321501433394
 20
-112.3868176276297
 30
0.0
 10
108.4509887731685
 20
-112.9782997971408
 30
0.0
 10
107.9497154637256
 20
-113.2782300219261
 30
0.0
 10
107.1374086748546
 20
-113.2782300219261
 30
0.0
 10
107.1374086748546
 20
-113.2782300219261
 30
0.0
 10
63.88968277743832
 20
-113.2782300219261
 30
0.0
 10
63.88968277743832
 20
-113.2782300219261
 30
0.0
 10
63.07737598856691
 20
-113.2782300219261
 30
0.0
 10
62.57610267912441
 20
-112.9782997971408
 30
0.0
 10
62.09492097332165
 20
-112.3868176276297
 30
0.0
 10
61.72353134044801
 20
-111.9302827068597
 30
0.0
 10
61.72353134044801
 20
-111.1851038366279
 30
0.0
 10
61.99430027007127
 20
-110.6459249106012
 30
0.0
 10
61.99430027007127
 20
-110.6459249106012
 30
0.0
 10
83.8881492266017
 20
-73.2484550791873
 30
0.0
 10
83.8881492266017
 20
-73.2484550791873
 30
0.0
 10
84.44160376574152
 20
-72.29636116134634
 30
0.0
 10
84.97533274260257
 20
-71.75718223531959
 30
0.0
 10
85.56541175355922
 20
-71.75718223531959
 30
0.0
 10
86.3045916125827
 20
-71.75718223531959
 30
0.0
 10
86.5537234305939
 20
-72.02677169833281
 30
0.0
 10
87.17097084485414
 20
-73.12790545734694
 30
0.0
 10
87.17097084485414
 20
-73.12790545734694
 30
0.0
 10
108.8441578670733
 20
-110.6459249106012
 30
0.0
 10
108.8441578670733
 20
-110.6459249106012
 30
0.0
 10
109.1149267966972
 20
-111.1851038366279
 30
0.0
 10
109.3035601118449
 20
-111.9302827068597
 30
0.0
 10
108.9321501433394
 20
-112.3868176276297
 30
0.0
  0
SPLINE
  5
56
330
1F
100
AcDbEntity
  8
Resized
 62
     7
420
 16777215
370
    35
100
AcDbSpline
210
0.0
220
0.0
230
1.0
 70
    11
 71
     3
 72
    23
 73
    19
 74
     0
 42
0.0000000001
 43
0.0000000001
 12
1.0
 22
0.0
 32
0.0
 13
1.0
 23
0.0
 33
0.0
 40
0.0
 40
0.0
 40
0.0
 40
0.0
 40
1.0
 40
1.0
 40
1.0
 40
2.0
 40
2.0
 40
2.0
 40
3.0
 40
3.0
 40
3.0
 40
4.0
 40
4.0
 40
4.0
 40
5.0
 40
5.0
 40
5.0
 40
6.0
 40
6.0
 40
6.0
 40
6.0
 10
117.6613215204067
 20
-100.203090226702
 30
0.0
 10
117.011659109991
 20
-100.5781809444575
 30
0.0
 10
116.1624838217275
 20
-100.323639848543
 30
0.0
 10
115.7646375326426
 20
-99.6345466492013
 30
0.0
 10
115.7646375326426
 20
-99.6345466492013
 30
0.0
 10
99.95238278281307
 20
-72.24690490623202
 30
0.0
 10
99.95238278281307
 20
-72.24690490623202
 30
0.0
 10
99.55455682935973
 20
-71.5578320425222
 30
0.0
 10
99.75870623112412
 20
-70.69513355950072
 30
0.0
 10
100.4083686415408
 20
-70.32006317737647
 30
0.0
 10
101.0580310519565
 20
-69.94497245962131
 30
0.0
 10
101.9072266758512
 20
-70.19951355553579
 30
0.0
 10
102.3050526293046
 20
-70.88858641924594
 30
0.0
 10
102.3050526293046
 20
-70.88858641924594
 30
0.0
 10
118.1173073791344
 20
-98.27624849784642
 30
0.0
 10
118.1173073791344
 20
-98.27624849784642
 30
0.0
 10
118.5151536682186
 20
-98.96532136155658
 30
0.0
 10
118.3110042664542
 20
-99.8279995089465
 30
0.0
 10
117.6613215204067
 20
-100.203090226702
 30
0.0
  0
POLYLINE
  5
57
330
1F
100
AcDbEntity
  8
Resized
 62
     7
420
 16777215
370
    35
100
AcDb2dPolyline
 66
     1
 10
0.0
 20
0.0
 30
0.0
  0
VERTEX
  5
58
330
57
100
AcDbEntity
  8
Resized
 62
     7
420
 16777215
370
    35
100
AcDbVertex
100
AcDb2dVertex
 10
89.89848715273222
 20
-1.121250914177875
 30
0.0
  0
VERTEX
  5
59
330
57
100
AcDbEntity
  8
Resized
 62
     7
420
 16777215
370
    35
100
AcDbVertex
100
AcDb2dVertex
 10
110.9301222243244
 20
-37.73655334790129
 30
0.0
  0
VERTEX
  5
5A
330
57
100
AcDbEntity
  8
Resized
 62
     7
420
 16777215
370
    35
100
AcDbVertex
100
AcDb2dVertex
 10
117.8511520766727
 20
-25.8239819070456
 30
0.0
  0
VERTEX
  5
5B
330
57
100
AcDbEntity
  8
Resized
 62
     7
420
 16777215
370
    35
100
AcDbVertex
100
AcDb2dVertex
 10
167.180484407936
 20
-111.7045092070486
 30
0.0
  0
VERTEX
  5
5C
330
57
100
AcDbEntity
  8
Resized
 62
     7
420
 16777215
370
    35
100
AcDbVertex
100
AcDb2dVertex
 10
153.4089712587026
 20
-111.6906593419421
 30
0.0
  0
VERTEX
  5
5D
330
57
100
AcDbEntity
  8
Resized
 62
     7
420
 16777215
370
    35
100
AcDbVertex
100
AcDb2dVertex
 10
174.4630365278382
 20
-148.3450061897159
 30
0.0
  0
VERTEX
  5
5E
330
57
100
AcDbEntity
  8
Resized
 62
     7
420
 16777215
370
    35
100
AcDbVertex
100
AcDb2dVertex
 10
195.8008111164052
 20
-111.618105812231
 30
0.0
  0
VERTEX
  5
5F
330
57
100
AcDbEntity
  8
Resized
 62
     7
420
 16777215
370
    35
100
AcDbVertex
100
AcDb2dVertex
 10
182.6164689828096
 20
-111.6048457358677
 30
0.0
  0
VERTEX
  5
60
330
57
100
AcDbEntity
  8
Resized
 62
     7
420
 16777215
370
    35
100
AcDbVertex
100
AcDb2dVertex
 10
232.4538219250068
 20
-25.82399272735748
 30
0.0
  0
VERTEX
  5
61
330
57
100
AcDbEntity
  8
Resized
 62
     7
420
 16777215
370
    35
100
AcDbVertex
100
AcDb2dVertex
 10
239.0122245987645
 20
-37.24192154721913
 30
0.0
  0
VERTEX
  5
62
330
57
100
AcDbEntity
  8
Resized
 62
     7
420
 16777215
370
    35
100
AcDbVertex
100
AcDb2dVertex
 10
259.8984870941001
 20
-1.292126938343427
 30
0.0
  0
VERTEX
  5
63
330
57
100
AcDbEntity
  8
Resized
 62
     7
420
 16777215
370
    35
100
AcDbVertex
100
AcDb2dVertex
 10
217.8322207029878
 20
-1.249845189324071
 30
0.0
  0
VERTEX
  5
64
330
57
100
AcDbEntity
  8
Resized
 62
     7
420
 16777215
370
    35
100
AcDbVertex
100
AcDb2dVertex
 10
224.4818083321222
 20
-12.8265342906883
 30
0.0
  0
VERTEX
  5
65
330
57
100
AcDbEntity
  8
Resized
 62
     7
420
 16777215
370
    35
100
AcDbVertex
100
AcDb2dVertex
 10
125.3151637299254
 20
-12.7268599992003
 30
0.0
  0
VERTEX
  5
66
330
57
100
AcDbEntity
  8
Resized
 62
     7
420
 16777215
370
    35
100
AcDbVertex
100
AcDb2dVertex
 10
132.0332439497704
 20
-1.163593676557289
 30
0.0
  0
VERTEX
  5
67
330
57
100
AcDbEntity
  8
Resized
 62
     7
420
 16777215
370
    35
100
AcDbVertex
100
AcDb2dVertex
 10
89.89848715273222
 20
-1.121250914177875
 30
0.0
  0
SEQEND
  5
68
330
57
100
AcDbEntity
  8
Resized
 62
     7
420
 16777215
370
    35
  0
SPLINE
  5
69
330
1F
100
AcDbEntity
  8
Resized
 62
     7
420
 16777215
370
    35
100
AcDbSpline
210
0.0
220
0.0
230
1.0
 70
    11
 71
     3
 72
    23
 73
    19
 74
     0
 42
0.0000000001
 43
0.0000000001
 12
1.0
 22
0.0
 32
0.0
 13
1.0
 23
0.0
 33
0.0
 40
0.0
 40
0.0
 40
0.0
 40
0.0
 40
1.0
 40
1.0
 40
1.0
 40
2.0
 40
2.0
 40
2.0
 40
3.0
 40
3.0
 40
3.0
 40
4.0
 40
4.0
 40
4.0
 40
5.0
 40
5.0
 40
5.0
 40
6.0
 40
6.0
 40
6.0
 40
6.0
 10
206.7583058202871
 20
-49.49718665347778
 30
0.0
 10
207.4079681952907
 20
-49.87225709694044
 30
0.0
 10
207.6121175156023
 20
-50.73495559923695
 30
0.0
 10
207.2142711614588
 20
-51.42402842538397
 30
0.0
 10
207.2142711614588
 20
-51.42402842538397
 30
0.0
 10
191.4020138258006
 20
-78.81166867542534
 30
0.0
 10
191.4020138258006
 20
-78.81166867542534
 30
0.0
 10
191.0041674716574
 20
-79.50074150157235
 30
0.0
 10
190.154992159359
 20
-79.75530285294256
 30
0.0
 10
189.5053297843571
 20
-79.38021207384868
 30
0.0
 10
188.8556470737243
 20
-79.0051212947532
 30
0.0
 10
188.6514977534107
 20
-78.14244312808823
 30
0.0
 10
189.0493441075559
 20
-77.45334996630967
 30
0.0
 10
189.0493441075559
 20
-77.45334996630967
 30
0.0
 10
204.8616014432137
 20
-50.06570971626797
 30
0.0
 10
204.8616014432137
 20
-50.06570971626797
 30
0.0
 10
205.2594477973576
 20
-49.37663689012128
 30
0.0
 10
206.108623109654
 20
-49.1220958743823
 30
0.0
 10
206.7583058202871
 20
-49.49718665347778
 30
0.0
  0
SPLINE
  5
6A
330
1F
100
AcDbEntity
  8
Resized
 62
     7
420
 16777215
370
    35
100
AcDbSpline
210
0.0
220
0.0
230
1.0
 70
    11
 71
     3
 72
    23
 73
    19
 74
     0
 42
0.0000000001
 43
0.0000000001
 12
1.0
 22
0.0
 32
0.0
 13
1.0
 23
0.0
 33
0.0
 40
0.0
 40
0.0
 40
0.0
 40
0.0
 40
1.0
 40
1.0
 40
1.0
 40
2.0
 40
2.0
 40
2.0
 40
3.0
 40
3.0
 40
3.0
 40
4.0
 40
4.0
 40
4.0
 40
5.0
 40
5.0
 40
5.0
 40
6.0
 40
6.0
 40
6.0
 40
6.0
 10
159.0862202695823
 20
-21.71370734791274
 30
0.0
 10
159.0862202695823
 20
-21.71370734791274
 30
0.0
 10
190.7107501048735
 20
-21.71371033377013
 30
0.0
 10
190.7107501048735
 20
-21.71371033377013
 30
0.0
 10
191.5064223474108
 20
-21.71371040889449
 30
0.0
 10
192.1514685121235
 20
-22.32184752127296
 30
0.0
 10
192.151468441294
 20
-23.07202895678295
 30
0.0
 10
192.1514683704652
 20
-23.82221039229325
 30
0.0
 10
191.5064220909173
 20
-24.43034738286602
 30
0.0
 10
190.71074984838
 20
-24.43034730774232
 30
0.0
 10
190.71074984838
 20
-24.43034730774232
 30
0.0
 10
159.0862200130888
 20
-24.4303443218846
 30
0.0
 10
159.0862200130888
 20
-24.4303443218846
 30
0.0
 10
158.2905477705515
 20
-24.43034424676025
 30
0.0
 10
157.6455016058395
 20
-23.82220713438242
 30
0.0
 10
157.6455016766679
 20
-23.07202569887179
 30
0.0
 10
157.6455017474971
 20
-22.3218442633618
 30
0.0
 10
158.290548027045
 20
-21.71370727278839
 30
0.0
 10
159.0862202695823
 20
-21.71370734791274
 30
0.0
  0
SPLINE
  5
6B
330
1F
100
AcDbEntity
  8
Resized
 62
     7
420
 16777215
370
    35
100
AcDbSpline
210
0.0
220
0.0
230
1.0
 70
    11
 71
     3
 72
    32
 73
    28
 74
     0
 42
0.0000000001
 43
0.0000000001
 12
1.0
 22
0.0
 32
0.0
 13
1.0
 23
0.0
 33
0.0
 40
0.0
 40
0.0
 40
0.0
 40
0.0
 40
1.0
 40
1.0
 40
1.0
 40
2.0
 40
2.0
 40
2.0
 40
3.0
 40
3.0
 40
3.0
 40
4.0
 40
4.0
 40
4.0
 40
5.0
 40
5.0
 40
5.0
 40
6.0
 40
6.0
 40
6.0
 40
7.0
 40
7.0
 40
7.0
 40
8.0
 40
8.0
 40
8.0
 40
9.0
 40
9.0
 40
9.0
 40
9.0
 10
151.4372964987845
 20
-37.17177568669563
 30
0.0
 10
151.9184579248005
 20
-36.58029356261397
 30
0.0
 10
152.4197312625615
 20
-36.28036338515683
 30
0.0
 10
153.2320380514329
 20
-36.28036346185141
 30
0.0
 10
153.2320380514329
 20
-36.28036346185141
 30
0.0
 10
196.4797639488485
 20
-36.28036754512357
 30
0.0
 10
196.4797639488485
 20
-36.28036754512357
 30
0.0
 10
197.2920707377203
 20
-36.28036762181816
 30
0.0
 10
197.7933440188442
 20
-36.58029789393137
 30
0.0
 10
198.2745256688019
 20
-37.17178010887376
 30
0.0
 10
198.6459152585716
 20
-37.62831506470876
 30
0.0
 10
198.6459151882148
 20
-38.37349393494083
 30
0.0
 10
198.3751462076843
 20
-38.91267283540262
 30
0.0
 10
198.3751462076843
 20
-38.91267283540262
 30
0.0
 10
176.4812937202389
 20
-76.31014059968926
 30
0.0
 10
176.4812937202389
 20
-76.31014059968926
 30
0.0
 10
175.9278390912066
 20
-77.26223446527538
 30
0.0
 10
175.3941100634383
 20
-77.8014133409095
 30
0.0
 10
174.804031052482
 20
-77.80141328519656
 30
0.0
 10
174.0648511934588
 20
-77.80141321540665
 30
0.0
 10
173.8157194009003
 20
-77.53182372887132
 30
0.0
 10
173.1984720906046
 20
-76.43068991157904
 30
0.0
 10
173.1984720906046
 20
-76.43068991157904
 30
0.0
 10
151.5252886106828
 20
-38.91266841203188
 30
0.0
 10
151.5252886106828
 20
-38.91266841203188
 30
0.0
 10
151.2545197319659
 20
-38.37348946044049
 30
0.0
 10
151.0658864871748
 20
-37.6283105723987
 30
0.0
 10
151.4372964987845
 20
-37.17177568669563
 30
0.0
  0
SPLINE
  5
6C
330
1F
100
AcDbEntity
  8
Resized
 62
     7
420
 16777215
370
    35
100
AcDbSpline
210
0.0
220
0.0
230
1.0
 70
    11
 71
     3
 72
    23
 73
    19
 74
     0
 42
0.0000000001
 43
0.0000000001
 12
1.0
 22
0.0
 32
0.0
 13
1.0
 23
0.0
 33
0.0
 40
0.0
 40
0.0
 40
0.0
 40
0.0
 40
1.0
 40
1.0
 40
1.0
 40
2.0
 40
2.0
 40
2.0
 40
3.0
 40
3.0
 40
3.0
 40
4.0
 40
4.0
 40
4.0
 40
5.0
 40
5.0
 40
5.0
 40
6.0
 40
6.0
 40
6.0
 40
6.0
 10
142.7081239713799
 20
-49.35550226345109
 30
0.0
 10
143.35778641721
 20
-48.98041160703402
 30
0.0
 10
144.2069616814406
 20
-49.23495278312397
 30
0.0
 10
144.6048079054642
 20
-49.9240460200288
 30
0.0
 10
144.6048079054642
 20
-49.9240460200288
 30
0.0
 10
160.4170600694657
 20
-77.31168925592597
 30
0.0
 10
160.4170600694657
 20
-77.31168925592597
 30
0.0
 10
160.8148859578598
 20
-78.00076215719636
 30
0.0
 10
160.6107364746426
 20
-78.86346062094377
 30
0.0
 10
159.9610740288135
 20
-79.23853094172897
 30
0.0
 10
159.3114115829833
 20
-79.61362159814573
 30
0.0
 10
158.4622159831212
 20
-79.35908042205385
 30
0.0
 10
158.0643900947272
 20
-78.67000752078216
 30
0.0
 10
158.0643900947272
 20
-78.67000752078216
 30
0.0
 10
142.2521379307276
 20
-51.28234394925442
 30
0.0
 10
142.2521379307276
 20
-51.28234394925442
 30
0.0
 10
141.854291706703
 20
-50.59327104798081
 30
0.0
 10
142.0584411899179
 20
-49.73059291986591
 30
0.0
 10
142.7081239713799
 20
-49.35550226345109
 30
0.0
  0
POLYLINE
  5
6D
330
1F
100
AcDbEntity
  8
Resized
 62
     7
420
 16777215
370
    35
100
AcDb2dPolyline
 66
     1
 10
0.0
 20
0.0
 30
0.0
  0
VERTEX
  5
6E
330
6D
100
AcDbEntity
  8
Resized
 62
     7
420
 16777215
370
    35
100
AcDbVertex
100
AcDb2dVertex
 10
347.9181850709938
 20
-148.7901143675962
 30
0.0
  0
VERTEX
  5
6F
330
6D
100
AcDbEntity
  8
Resized
 62
     7
420
 16777215
370
    35
100
AcDbVertex
100
AcDb2dVertex
 10
326.8865465423359
 20
-112.1748139195931
 30
0.0
  0
VERTEX
  5
70
330
6D
100
AcDbEntity
  8
Resized
 62
     7
420
 16777215
370
    35
100
AcDbVertex
100
AcDb2dVertex
 10
319.9655178147228
 20
-124.0873860139041
 30
0.0
  0
VERTEX
  5
71
330
6D
100
AcDbEntity
  8
Resized
 62
     7
420
 16777215
370
    35
100
AcDbVertex
100
AcDb2dVertex
 10
270.6361773749754
 20
-38.20686337137354
 30
0.0
  0
VERTEX
  5
72
330
6D
100
AcDbEntity
  8
Resized
 62
     7
420
 16777215
370
    35
100
AcDbVertex
100
AcDb2dVertex
 10
284.4076905255156
 20
-38.22071193623069
 30
0.0
  0
VERTEX
  5
73
330
6D
100
AcDbEntity
  8
Resized
 62
     7
420
 16777215
370
    35
100
AcDbVertex
100
AcDb2dVertex
 10
263.3536217956278
 20
-1.566367076295123
 30
0.0
  0
VERTEX
  5
74
330
6D
100
AcDbEntity
  8
Resized
 62
     7
420
 16777215
370
    35
100
AcDbVertex
100
AcDb2dVertex
 10
242.0158506746641
 20
-38.2932694684045
 30
0.0
  0
VERTEX
  5
75
330
6D
100
AcDbEntity
  8
Resized
 62
     7
420
 16777215
370
    35
100
AcDbVertex
100
AcDb2dVertex
 10
255.2001928095111
 20
-38.30652829995695
 30
0.0
  0
VERTEX
  5
76
330
6D
100
AcDbEntity
  8
Resized
 62
     7
420
 16777215
370
    35
100
AcDbVertex
100
AcDb2dVertex
 10
205.3628479663887
 20
-124.0873860139041
 30
0.0
  0
VERTEX
  5
77
330
6D
100
AcDbEntity
  8
Resized
 62
     7
420
 16777215
370
    35
100
AcDbVertex
100
AcDb2dVertex
 10
198.8044442145971
 20
-112.6694578132599
 30
0.0
  0
VERTEX
  5
78
330
6D
100
AcDbEntity
  8
Resized
 62
     7
420
 16777215
370
    35
100
AcDbVertex
100
AcDb2dVertex
 10
177.9181851134933
 20
-148.61925439413
 30
0.0
  0
VERTEX
  5
79
330
6D
100
AcDbEntity
  8
Resized
 62
     7
420
 16777215
370
    35
100
AcDbVertex
100
AcDb2dVertex
 10
219.9844515085976
 20
-148.6615321714256
 30
0.0
  0
VERTEX
  5
7A
330
6D
100
AcDbEntity
  8
Resized
 62
     7
420
 16777215
370
    35
100
AcDbVertex
100
AcDb2dVertex
 10
213.3348627864396
 20
-137.0848436978882
 30
0.0
  0
VERTEX
  5
7B
330
6D
100
AcDbEntity
  8
Resized
 62
     7
420
 16777215
370
    35
100
AcDbVertex
100
AcDb2dVertex
 10
312.5015073980466
 20
-137.1845086264707
 30
0.0
  0
VERTEX
  5
7C
330
6D
100
AcDbEntity
  8
Resized
 62
     7
420
 16777215
370
    35
100
AcDbVertex
100
AcDb2dVertex
 10
305.7834282699579
 20
-148.7477755834069
 30
0.0
  0
VERTEX
  5
7D
330
6D
100
AcDbEntity
  8
Resized
 62
     7
420
 16777215
370
    35
100
AcDbVertex
100
AcDb2dVertex
 10
347.9181850709938
 20
-148.7901143675962
 30
0.0
  0
SEQEND
  5
7E
330
6D
100
AcDbEntity
  8
Resized
 62
     7
420
 16777215
370
    35
  0
SPLINE
  5
7F
330
1F
100
AcDbEntity
  8
Resized
 62
     7
420
 16777215
370
    35
100
AcDbSpline
210
0.0
220
0.0
230
1.0
 70
    11
 71
     3
 72
    23
 73
    19
 74
     0
 42
0.0000000001
 43
0.0000000001
 12
1.0
 22
0.0
 32
0.0
 13
1.0
 23
0.0
 33
0.0
 40
0.0
 40
0.0
 40
0.0
 40
0.0
 40
1.0
 40
1.0
 40
1.0
 40
2.0
 40
2.0
 40
2.0
 40
3.0
 40
3.0
 40
3.0
 40
4.0
 40
4.0
 40
4.0
 40
5.0
 40
5.0
 40
5.0
 40
6.0
 40
6.0
 40
6.0
 40
6.0
 10
231.0583618359827
 20
-100.4141896617187
 30
0.0
 10
230.4086994255673
 20
-100.0391192795947
 30
0.0
 10
230.2045500238022
 20
-99.17642079657325
 30
0.0
 10
230.6023963128871
 20
-98.48734793286278
 30
0.0
 10
230.6023963128871
 20
-98.48734793286278
 30
0.0
 10
246.414651062717
 20
-71.09970618989382
 30
0.0
 10
246.414651062717
 20
-71.09970618989382
 30
0.0
 10
246.8124973518005
 20
-70.41063332618367
 30
0.0
 10
247.6616726400644
 20
-70.15607189463799
 30
0.0
 10
248.311335050481
 20
-70.53116261239315
 30
0.0
 10
248.9610177965276
 20
-70.9062533301483
 30
0.0
 10
249.1651671982927
 20
-71.76893147753854
 30
0.0
 10
248.7673209092078
 20
-72.45802467687992
 30
0.0
 10
248.7673209092078
 20
-72.45802467687992
 30
0.0
 10
232.955066159378
 20
-99.84566641984951
 30
0.0
 10
232.955066159378
 20
-99.84566641984951
 30
0.0
 10
232.5572198702944
 20
-100.5347392835593
 30
0.0
 10
231.7080445820305
 20
-100.7892803794738
 30
0.0
 10
231.0583618359827
 20
-100.4141896617187
 30
0.0
  0
SPLINE
  5
80
330
1F
100
AcDbEntity
  8
Resized
 62
     7
420
 16777215
370
    35
100
AcDbSpline
210
0.0
220
0.0
230
1.0
 70
    11
 71
     3
 72
    23
 73
    19
 74
     0
 42
0.0000000001
 43
0.0000000001
 12
1.0
 22
0.0
 32
0.0
 13
1.0
 23
0.0
 33
0.0
 40
0.0
 40
0.0
 40
0.0
 40
0.0
 40
1.0
 40
1.0
 40
1.0
 40
2.0
 40
2.0
 40
2.0
 40
3.0
 40
3.0
 40
3.0
 40
4.0
 40
4.0
 40
4.0
 40
5.0
 40
5.0
 40
5.0
 40
6.0
 40
6.0
 40
6.0
 40
6.0
 10
278.7304500098893
 20
-128.1976644662825
 30
0.0
 10
278.7304500098893
 20
-128.1976644662825
 30
0.0
 10
247.1059201745978
 20
-128.1976644662825
 30
0.0
 10
247.1059201745978
 20
-128.1976644662825
 30
0.0
 10
246.3102479320599
 20
-128.1976644662825
 30
0.0
 10
245.6652017099299
 20
-127.5895274148064
 30
0.0
 10
245.6652017099299
 20
-126.8393459792964
 30
0.0
 10
245.6652017099299
 20
-126.0891645437857
 30
0.0
 10
246.3102479320599
 20
-125.4810274923103
 30
0.0
 10
247.1059201745978
 20
-125.4810274923103
 30
0.0
 10
247.1059201745978
 20
-125.4810274923103
 30
0.0
 10
278.7304500098893
 20
-125.4810274923103
 30
0.0
 10
278.7304500098893
 20
-125.4810274923103
 30
0.0
 10
279.5261222524266
 20
-125.4810274923103
 30
0.0
 10
280.1711684745566
 20
-126.0891645437857
 30
0.0
 10
280.1711684745566
 20
-126.8393459792964
 30
0.0
 10
280.1711684745566
 20
-127.5895274148064
 30
0.0
 10
279.5261222524266
 20
-128.1976644662825
 30
0.0
 10
278.7304500098893
 20
-128.1976644662825
 30
0.0
  0
SPLINE
  5
81
330
1F
100
AcDbEntity
  8
Resized
 62
     7
420
 16777215
370
    35
100
AcDbSpline
210
0.0
220
0.0
230
1.0
 70
    11
 71
     3
 72
    32
 73
    28
 74
     0
 42
0.0000000001
 43
0.0000000001
 12
1.0
 22
0.0
 32
0.0
 13
1.0
 23
0.0
 33
0.0
 40
0.0
 40
0.0
 40
0.0
 40
0.0
 40
1.0
 40
1.0
 40
1.0
 40
2.0
 40
2.0
 40
2.0
 40
3.0
 40
3.0
 40
3.0
 40
4.0
 40
4.0
 40
4.0
 40
5.0
 40
5.0
 40
5.0
 40
6.0
 40
6.0
 40
6.0
 40
7.0
 40
7.0
 40
7.0
 40
8.0
 40
8.0
 40
8.0
 40
9.0
 40
9.0
 40
9.0
 40
9.0
 10
286.3793723212001
 20
-112.7395954053193
 30
0.0
 10
285.8982109510289
 20
-113.3310775748303
 30
0.0
 10
285.3969376415861
 20
-113.6310077996157
 30
0.0
 10
284.584630852715
 20
-113.6310077996157
 30
0.0
 10
284.584630852715
 20
-113.6310077996157
 30
0.0
 10
241.3369049552987
 20
-113.6310077996157
 30
0.0
 10
241.3369049552987
 20
-113.6310077996157
 30
0.0
 10
240.524598166427
 20
-113.6310077996157
 30
0.0
 10
240.0233248569848
 20
-113.3310775748303
 30
0.0
 10
239.5421431511818
 20
-112.7395954053193
 30
0.0
 10
239.1707535183087
 20
-112.2830604845493
 30
0.0
 10
239.1707535183087
 20
-111.5378816143175
 30
0.0
 10
239.4415224479314
 20
-110.9987026882908
 30
0.0
 10
239.4415224479314
 20
-110.9987026882908
 30
0.0
 10
261.3353714044618
 20
-73.60123285687689
 30
0.0
 10
261.3353714044618
 20
-73.60123285687689
 30
0.0
 10
261.8888259436019
 20
-72.64913893903592
 30
0.0
 10
262.422554920463
 20
-72.10996001300917
 30
0.0
 10
263.0126339314193
 20
-72.10996001300917
 30
0.0
 10
263.7518137904435
 20
-72.10996001300917
 30
0.0
 10
264.0009456084543
 20
-72.37954947602239
 30
0.0
 10
264.6181930227145
 20
-73.48068323503652
 30
0.0
 10
264.6181930227145
 20
-73.48068323503652
 30
0.0
 10
286.291380044934
 20
-110.9987026882908
 30
0.0
 10
286.291380044934
 20
-110.9987026882908
 30
0.0
 10
286.562148974558
 20
-111.5378816143175
 30
0.0
 10
286.7507822897056
 20
-112.2830604845493
 30
0.0
 10
286.3793723212001
 20
-112.7395954053193
 30
0.0
  0
SPLINE
  5
82
330
1F
100
AcDbEntity
  8
Resized
 62
     7
420
 16777215
370
    35
100
AcDbSpline
210
0.0
220
0.0
230
1.0
 70
    11
 71
     3
 72
    23
 73
    19
 74
     0
 42
0.0000000001
 43
0.0000000001
 12
1.0
 22
0.0
 32
0.0
 13
1.0
 23
0.0
 33
0.0
 40
0.0
 40
0.0
 40
0.0
 40
0.0
 40
1.0
 40
1.0
 40
1.0
 40
2.0
 40
2.0
 40
2.0
 40
3.0
 40
3.0
 40
3.0
 40
4.0
 40
4.0
 40
4.0
 40
5.0
 40
5.0
 40
5.0
 40
6.0
 40
6.0
 40
6.0
 40
6.0
 10
295.1085436982671
 20
-100.5558680043916
 30
0.0
 10
294.4588812878517
 20
-100.930958722147
 30
0.0
 10
293.6097059995879
 20
-100.6764176262326
 30
0.0
 10
293.211859710503
 20
-99.98732442689088
 30
0.0
 10
293.211859710503
 20
-99.98732442689088
 30
0.0
 10
277.3996049606732
 20
-72.59968268392161
 30
0.0
 10
277.3996049606732
 20
-72.59968268392161
 30
0.0
 10
277.0017790072201
 20
-71.91060982021177
 30
0.0
 10
277.2059284089846
 20
-71.0479113371903
 30
0.0
 10
277.8555908194012
 20
-70.67284095506605
 30
0.0
 10
278.5052532298166
 20
-70.2977502373109
 30
0.0
 10
279.3544488537116
 20
-70.55229133322537
 30
0.0
 10
279.7522748071653
 20
-71.24136419693552
 30
0.0
 10
279.7522748071653
 20
-71.24136419693552
 30
0.0
 10
295.5645295569951
 20
-98.629026275536
 30
0.0
 10
295.5645295569951
 20
-98.629026275536
 30
0.0
 10
295.9623758460788
 20
-99.31809913924616
 30
0.0
 10
295.758226444315
 20
-100.1807772866361
 30
0.0
 10
295.1085436982671
 20
-100.5558680043916
 30
0.0
  0
POLYLINE
  5
83
330
1F
100
AcDbEntity
  8
Resized
 62
     7
420
 16777215
370
    35
100
AcDb2dPolyline
 66
     1
 10
0.0
 20
0.0
 30
0.0
  0
VERTEX
  5
84
330
83
100
AcDbEntity
  8
Resized
 62
     7
420
 16777215
370
    35
100
AcDbVertex
100
AcDb2dVertex
 10
267.345709330593
 20
-1.474028691867458
 30
0.0
  0
VERTEX
  5
85
330
83
100
AcDbEntity
  8
Resized
 62
     7
420
 16777215
370
    35
100
AcDbVertex
100
AcDb2dVertex
 10
288.3773444021845
 20
-38.08933112559087
 30
0.0
  0
VERTEX
  5
86
330
83
100
AcDbEntity
  8
Resized
 62
     7
420
 16777215
370
    35
100
AcDbVertex
100
AcDb2dVertex
 10
295.2983742545331
 20
-26.17675968473519
 30
0.0
  0
VERTEX
  5
87
330
83
100
AcDbEntity
  8
Resized
 62
     7
420
 16777215
370
    35
100
AcDbVertex
100
AcDb2dVertex
 10
344.6277065857964
 20
-112.0572869847382
 30
0.0
  0
VERTEX
  5
88
330
83
100
AcDbEntity
  8
Resized
 62
     7
420
 16777215
370
    35
100
AcDbVertex
100
AcDb2dVertex
 10
330.8561934365627
 20
-112.0434371196316
 30
0.0
  0
VERTEX
  5
89
330
83
100
AcDbEntity
  8
Resized
 62
     7
420
 16777215
370
    35
100
AcDbVertex
100
AcDb2dVertex
 10
351.9102587056989
 20
-148.6977839674055
 30
0.0
  0
VERTEX
  5
8A
330
83
100
AcDbEntity
  8
Resized
 62
     7
420
 16777215
370
    35
100
AcDbVertex
100
AcDb2dVertex
 10
373.2480332942669
 20
-111.9708835899205
 30
0.0
  0
VERTEX
  5
8B
330
83
100
AcDbEntity
  8
Resized
 62
     7
420
 16777215
370
    35
100
AcDbVertex
100
AcDb2dVertex
 10
360.06369116067
 20
-111.9576235135573
 30
0.0
  0
VERTEX
  5
8C
330
83
100
AcDbEntity
  8
Resized
 62
     7
420
 16777215
370
    35
100
AcDbVertex
100
AcDb2dVertex
 10
409.9010441028665
 20
-26.17677050504706
 30
0.0
  0
VERTEX
  5
8D
330
83
100
AcDbEntity
  8
Resized
 62
     7
420
 16777215
370
    35
100
AcDbVertex
100
AcDb2dVertex
 10
416.4594467766269
 20
-37.59469932490872
 30
0.0
  0
VERTEX
  5
8E
330
83
100
AcDbEntity
  8
Resized
 62
     7
420
 16777215
370
    35
100
AcDbVertex
100
AcDb2dVertex
 10
437.3457092719598
 20
-1.64490471603301
 30
0.0
  0
VERTEX
  5
8F
330
83
100
AcDbEntity
  8
Resized
 62
     7
420
 16777215
370
    35
100
AcDbVertex
100
AcDb2dVertex
 10
395.2794428808489
 20
-1.602622967013654
 30
0.0
  0
VERTEX
  5
90
330
83
100
AcDbEntity
  8
Resized
 62
     7
420
 16777215
370
    35
100
AcDbVertex
100
AcDb2dVertex
 10
401.9290305099826
 20
-13.17931206837788
 30
0.0
  0
VERTEX
  5
91
330
83
100
AcDbEntity
  8
Resized
 62
     7
420
 16777215
370
    35
100
AcDbVertex
100
AcDb2dVertex
 10
302.7623859077858
 20
-13.07963777688988
 30
0.0
  0
VERTEX
  5
92
330
83
100
AcDbEntity
  8
Resized
 62
     7
420
 16777215
370
    35
100
AcDbVertex
100
AcDb2dVertex
 10
309.4804661276311
 20
-1.516371454246872
 30
0.0
  0
VERTEX
  5
93
330
83
100
AcDbEntity
  8
Resized
 62
     7
420
 16777215
370
    35
100
AcDbVertex
100
AcDb2dVertex
 10
267.345709330593
 20
-1.474028691867458
 30
0.0
  0
SEQEND
  5
94
330
83
100
AcDbEntity
  8
Resized
 62
     7
420
 16777215
370
    35
  0
SPLINE
  5
95
330
1F
100
AcDbEntity
  8
Resized
 62
     7
420
 16777215
370
    35
100
AcDbSpline
210
0.0
220
0.0
230
1.0
 70
    11
 71
     3
 72
    23
 73
    19
 74
     0
 42
0.0000000001
 43
0.0000000001
 12
1.0
 22
0.0
 32
0.0
 13
1.0
 23
0.0
 33
0.0
 40
0.0
 40
0.0
 40
0.0
 40
0.0
 40
1.0
 40
1.0
 40
1.0
 40
2.0
 40
2.0
 40
2.0
 40
3.0
 40
3.0
 40
3.0
 40
4.0
 40
4.0
 40
4.0
 40
5.0
 40
5.0
 40
5.0
 40
6.0
 40
6.0
 40
6.0
 40
6.0
 10
384.2055279981469
 20
-49.84996443116736
 30
0.0
 10
384.8551903731514
 20
-50.22503487463003
 30
0.0
 10
385.0593396934618
 20
-51.08773337692653
 30
0.0
 10
384.6614933393208
 20
-51.77680620307355
 30
0.0
 10
384.6614933393208
 20
-51.77680620307355
 30
0.0
 10
368.8492360036588
 20
-79.16444645311492
 30
0.0
 10
368.8492360036588
 20
-79.16444645311492
 30
0.0
 10
368.4513896495184
 20
-79.85351927926193
 30
0.0
 10
367.6022143372192
 20
-80.10808063063214
 30
0.0
 10
366.9525519622179
 20
-79.73298985153826
 30
0.0
 10
366.3028692515847
 20
-79.35789907244278
 30
0.0
 10
366.0987199312711
 20
-78.49522090577781
 30
0.0
 10
366.4965662854153
 20
-77.80612774399926
 30
0.0
 10
366.4965662854153
 20
-77.80612774399926
 30
0.0
 10
382.3088236210735
 20
-50.41848749395756
 30
0.0
 10
382.3088236210735
 20
-50.41848749395756
 30
0.0
 10
382.7066699752177
 20
-49.72941466781086
 30
0.0
 10
383.5558452875138
 20
-49.47487365207188
 30
0.0
 10
384.2055279981469
 20
-49.84996443116736
 30
0.0
  0
SPLINE
  5
96
330
1F
100
AcDbEntity
  8
Resized
 62
     7
420
 16777215
370
    35
100
AcDbSpline
210
0.0
220
0.0
230
1.0
 70
    11
 71
     3
 72
    23
 73
    19
 74
     0
 42
0.0000000001
 43
0.0000000001
 12
1.0
 22
0.0
 32
0.0
 13
1.0
 23
0.0
 33
0.0
 40
0.0
 40
0.0
 40
0.0
 40
0.0
 40
1.0
 40
1.0
 40
1.0
 40
2.0
 40
2.0
 40
2.0
 40
3.0
 40
3.0
 40
3.0
 40
4.0
 40
4.0
 40
4.0
 40
5.0
 40
5.0
 40
5.0
 40
6.0
 40
6.0
 40
6.0
 40
6.0
 10
336.5334424474431
 20
-22.06648512560232
 30
0.0
 10
336.5334424474431
 20
-22.06648512560232
 30
0.0
 10
368.1579722827333
 20
-22.06648811145972
 30
0.0
 10
368.1579722827333
 20
-22.06648811145972
 30
0.0
 10
368.9536445252712
 20
-22.06648818658407
 30
0.0
 10
369.5986906899832
 20
-22.67462529896254
 30
0.0
 10
369.5986906191557
 20
-23.42480673447253
 30
0.0
 10
369.598690548325
 20
-24.17498816998284
 30
0.0
 10
368.9536442687777
 20
-24.78312516055561
 30
0.0
 10
368.1579720262391
 20
-24.7831250854319
 30
0.0
 10
368.1579720262391
 20
-24.7831250854319
 30
0.0
 10
336.5334421909488
 20
-24.78312209957418
 30
0.0
 10
336.5334421909488
 20
-24.78312209957418
 30
0.0
 10
335.7377699484122
 20
-24.78312202444983
 30
0.0
 10
335.0927237837002
 20
-24.174984912072
 30
0.0
 10
335.0927238545284
 20
-23.42480347656137
 30
0.0
 10
335.0927239253579
 20
-22.67462204105139
 30
0.0
 10
335.7377702049058
 20
-22.06648505047798
 30
0.0
 10
336.5334424474431
 20
-22.06648512560232
 30
0.0
  0
SPLINE
  5
97
330
1F
100
AcDbEntity
  8
Resized
 62
     7
420
 16777215
370
    35
100
AcDbSpline
210
0.0
220
0.0
230
1.0
 70
    11
 71
     3
 72
    32
 73
    28
 74
     0
 42
0.0000000001
 43
0.0000000001
 12
1.0
 22
0.0
 32
0.0
 13
1.0
 23
0.0
 33
0.0
 40
0.0
 40
0.0
 40
0.0
 40
0.0
 40
1.0
 40
1.0
 40
1.0
 40
2.0
 40
2.0
 40
2.0
 40
3.0
 40
3.0
 40
3.0
 40
4.0
 40
4.0
 40
4.0
 40
5.0
 40
5.0
 40
5.0
 40
6.0
 40
6.0
 40
6.0
 40
7.0
 40
7.0
 40
7.0
 40
8.0
 40
8.0
 40
8.0
 40
9.0
 40
9.0
 40
9.0
 40
9.0
 10
328.8845186766449
 20
-37.52455346438521
 30
0.0
 10
329.3656801026606
 20
-36.93307134030355
 30
0.0
 10
329.8669534404223
 20
-36.63314116284641
 30
0.0
 10
330.6792602292933
 20
-36.633141239541
 30
0.0
 10
330.6792602292933
 20
-36.633141239541
 30
0.0
 10
373.9269861267109
 20
-36.63314532281316
 30
0.0
 10
373.9269861267109
 20
-36.63314532281316
 30
0.0
 10
374.7392929155801
 20
-36.63314539950774
 30
0.0
 10
375.2405661967053
 20
-36.93307567162095
 30
0.0
 10
375.7217478466613
 20
-37.52455788656334
 30
0.0
 10
376.0931374364333
 20
-37.98109284239834
 30
0.0
 10
376.0931373660749
 20
-38.72627171263041
 30
0.0
 10
375.822368385545
 20
-39.2654506130922
 30
0.0
 10
375.822368385545
 20
-39.2654506130922
 30
0.0
 10
353.9285158980983
 20
-76.66291837737884
 30
0.0
 10
353.9285158980983
 20
-76.66291837737884
 30
0.0
 10
353.3750612690683
 20
-77.61501224296497
 30
0.0
 10
352.8413322412994
 20
-78.15419111859909
 30
0.0
 10
352.2512532303424
 20
-78.15419106288614
 30
0.0
 10
351.5120733713189
 20
-78.15419099309624
 30
0.0
 10
351.2629415787604
 20
-77.8846015065609
 30
0.0
 10
350.645694268465
 20
-76.78346768926862
 30
0.0
 10
350.645694268465
 20
-76.78346768926862
 30
0.0
 10
328.9725107885429
 20
-39.26544618972147
 30
0.0
 10
328.9725107885429
 20
-39.26544618972147
 30
0.0
 10
328.7017419098263
 20
-38.72626723813007
 30
0.0
 10
328.5131086650352
 20
-37.98108835008829
 30
0.0
 10
328.8845186766449
 20
-37.52455346438521
 30
0.0
  0
SPLINE
  5
98
330
1F
100
AcDbEntity
  8
Resized
 62
     7
420
 16777215
370
    35
100
AcDbSpline
210
0.0
220
0.0
230
1.0
 70
    11
 71
     3
 72
    23
 73
    19
 74
     0
 42
0.0000000001
 43
0.0000000001
 12
1.0
 22
0.0
 32
0.0
 13
1.0
 23
0.0
 33
0.0
 40
0.0
 40
0.0
 40
0.0
 40
0.0
 40
1.0
 40
1.0
 40
1.0
 40
2.0
 40
2.0
 40
2.0
 40
3.0
 40
3.0
 40
3.0
 40
4.0
 40
4.0
 40
4.0
 40
5.0
 40
5.0
 40
5.0
 40
6.0
 40
6.0
 40
6.0
 40
6.0
 10
320.1553461492406
 20
-49.70828004114068
 30
0.0
 10
320.8050085950701
 20
-49.33318938472361
 30
0.0
 10
321.654183859301
 20
-49.58773056081356
 30
0.0
 10
322.0520300833247
 20
-50.27682379771839
 30
0.0
 10
322.0520300833247
 20
-50.27682379771839
 30
0.0
 10
337.8642822473262
 20
-77.66446703361555
 30
0.0
 10
337.8642822473262
 20
-77.66446703361555
 30
0.0
 10
338.2621081357206
 20
-78.35353993488596
 30
0.0
 10
338.0579586525034
 20
-79.21623839863335
 30
0.0
 10
337.4082962066739
 20
-79.59130871941856
 30
0.0
 10
336.7586337608438
 20
-79.96639937583531
 30
0.0
 10
335.9094381609817
 20
-79.71185819974343
 30
0.0
 10
335.5116122725879
 20
-79.02278529847175
 30
0.0
 10
335.5116122725879
 20
-79.02278529847175
 30
0.0
 10
319.6993601085883
 20
-51.635121726944
 30
0.0
 10
319.6993601085883
 20
-51.635121726944
 30
0.0
 10
319.3015138845634
 20
-50.9460488256704
 30
0.0
 10
319.505663367778
 20
-50.08337069755549
 30
0.0
 10
320.1553461492406
 20
-49.70828004114068
 30
0.0
  0
POLYLINE
  5
99
330
1F
100
AcDbEntity
  8
Resized
 62
     7
420
 16777215
370
    35
100
AcDb2dPolyline
 66
     1
 10
0.0
 20
0.0
 30
0.0
  0
VERTEX
  5
9A
330
99
100
AcDbEntity
  8
Resized
 62
     7
420
 16777215
370
    35
100
AcDbVertex
100
AcDb2dVertex
 10
130.7156295697377
 20
-264.6698956987168
 30
0.0
  0
VERTEX
  5
9B
330
99
100
AcDbEntity
  8
Resized
 62
     7
420
 16777215
370
    35
100
AcDbVertex
100
AcDb2dVertex
 10
114.6326118713528
 20
-236.6699600620099
 30
0.0
  0
VERTEX
  5
9C
330
99
100
AcDbEntity
  8
Resized
 62
     7
420
 16777215
370
    35
100
AcDbVertex
100
AcDb2dVertex
 10
109.3400604914128
 20
-245.7795740164838
 30
0.0
  0
VERTEX
  5
9D
330
99
100
AcDbEntity
  8
Resized
 62
     7
420
 16777215
370
    35
100
AcDbVertex
100
AcDb2dVertex
 10
71.61762368454735
 20
-180.1062331721955
 30
0.0
  0
VERTEX
  5
9E
330
99
100
AcDbEntity
  8
Resized
 62
     7
420
 16777215
370
    35
100
AcDbVertex
100
AcDb2dVertex
 10
82.14878079966537
 20
-180.1168232512038
 30
0.0
  0
VERTEX
  5
9F
330
99
100
AcDbEntity
  8
Resized
 62
     7
420
 16777215
370
    35
100
AcDbVertex
100
AcDb2dVertex
 10
66.04861059445963
 20
-152.0870301230175
 30
0.0
  0
VERTEX
  5
A0
330
99
100
AcDbEntity
  8
Resized
 62
     7
420
 16777215
370
    35
100
AcDbVertex
100
AcDb2dVertex
 10
49.73149150195606
 20
-180.1723084228657
 30
0.0
  0
VERTEX
  5
A1
330
99
100
AcDbEntity
  8
Resized
 62
     7
420
 16777215
370
    35
100
AcDbVertex
100
AcDb2dVertex
 10
59.81363548743004
 20
-180.1824475293465
 30
0.0
  0
VERTEX
  5
A2
330
99
100
AcDbEntity
  8
Resized
 62
     7
420
 16777215
370
    35
100
AcDbVertex
100
AcDb2dVertex
 10
21.70272472504178
 20
-245.7795740164838
 30
0.0
  0
VERTEX
  5
A3
330
99
100
AcDbEntity
  8
Resized
 62
     7
420
 16777215
370
    35
100
AcDbVertex
100
AcDb2dVertex
 10
16.68747479719762
 20
-237.048217157166
 30
0.0
  0
VERTEX
  5
A4
330
99
100
AcDbEntity
  8
Resized
 62
     7
420
 16777215
370
    35
100
AcDbVertex
100
AcDb2dVertex
 10
0.7156296022390358
 20
-264.5392380719496
 30
0.0
  0
VERTEX
  5
A5
330
99
100
AcDbEntity
  8
Resized
 62
     7
420
 16777215
370
    35
100
AcDbVertex
100
AcDb2dVertex
 10
32.88395096320149
 20
-264.5715681369409
 30
0.0
  0
VERTEX
  5
A6
330
99
100
AcDbEntity
  8
Resized
 62
     7
420
 16777215
370
    35
100
AcDbVertex
100
AcDb2dVertex
 10
27.79897135213755
 20
-255.7188063630579
 30
0.0
  0
VERTEX
  5
A7
330
99
100
AcDbEntity
  8
Resized
 62
     7
420
 16777215
370
    35
100
AcDbVertex
100
AcDb2dVertex
 10
103.6322878198392
 20
-255.7950207202124
 30
0.0
  0
VERTEX
  5
A8
330
99
100
AcDbEntity
  8
Resized
 62
     7
420
 16777215
370
    35
100
AcDbVertex
100
AcDb2dVertex
 10
98.49493319247615
 20
-264.6375189813968
 30
0.0
  0
VERTEX
  5
A9
330
99
100
AcDbEntity
  8
Resized
 62
     7
420
 16777215
370
    35
100
AcDbVertex
100
AcDb2dVertex
 10
130.7156295697377
 20
-264.6698956987168
 30
0.0
  0
SEQEND
  5
AA
330
99
100
AcDbEntity
  8
Resized
 62
     7
420
 16777215
370
    35
  0
SPLINE
  5
AB
330
1F
100
AcDbEntity
  8
Resized
 62
     7
420
 16777215
370
    35
100
AcDbSpline
210
0.0
220
0.0
230
1.0
 70
    11
 71
     3
 72
    23
 73
    19
 74
     0
 42
0.0000000001
 43
0.0000000001
 12
1.0
 22
0.0
 32
0.0
 13
1.0
 23
0.0
 33
0.0
 40
0.0
 40
0.0
 40
0.0
 40
0.0
 40
1.0
 40
1.0
 40
1.0
 40
2.0
 40
2.0
 40
2.0
 40
3.0
 40
3.0
 40
3.0
 40
4.0
 40
4.0
 40
4.0
 40
5.0
 40
5.0
 40
5.0
 40
6.0
 40
6.0
 40
6.0
 40
6.0
 10
41.35223533120138
 20
-227.6765415118707
 30
0.0
 10
40.85543466441113
 20
-227.3897229843651
 30
0.0
 10
40.69932041600525
 20
-226.7300123797022
 30
0.0
 10
41.00355581353887
 20
-226.2030743074533
 30
0.0
 10
41.00355581353887
 20
-226.2030743074533
 30
0.0
 10
53.0952800339946
 20
-205.2595835628281
 30
0.0
 10
53.0952800339946
 20
-205.2595835628281
 30
0.0
 10
53.39951543153207
 20
-204.7326454905786
 30
0.0
 10
54.04888476961651
 20
-204.5379808664564
 30
0.0
 10
54.54568543640643
 20
-204.8248149447393
 30
0.0
 10
55.04250165396884
 20
-205.1116490230239
 30
0.0
 10
55.19861590237858
 20
-205.7713440769104
 30
0.0
 10
54.89438050484111
 20
-206.2982976999353
 30
0.0
 10
54.89438050484111
 20
-206.2982976999353
 30
0.0
 10
42.80265628438538
 20
-227.2417884445609
 30
0.0
 10
42.80265628438538
 20
-227.2417884445609
 30
0.0
 10
42.49842088685112
 20
-227.7687265168069
 30
0.0
 10
41.84905154876763
 20
-227.9633755901524
 30
0.0
 10
41.35223533120138
 20
-227.6765415118707
 30
0.0
  0
SPLINE
  5
AC
330
1F
100
AcDbEntity
  8
Resized
 62
     7
420
 16777215
370
    35
100
AcDbSpline
210
0.0
220
0.0
230
1.0
 70
    11
 71
     3
 72
    23
 73
    19
 74
     0
 42
0.0000000001
 43
0.0000000001
 12
1.0
 22
0.0
 32
0.0
 13
1.0
 23
0.0
 33
0.0
 40
0.0
 40
0.0
 40
0.0
 40
0.0
 40
1.0
 40
1.0
 40
1.0
 40
2.0
 40
2.0
 40
2.0
 40
3.0
 40
3.0
 40
3.0
 40
4.0
 40
4.0
 40
4.0
 40
5.0
 40
5.0
 40
5.0
 40
6.0
 40
6.0
 40
6.0
 40
6.0
 10
77.80736158183437
 20
-248.9227281271245
 30
0.0
 10
77.80736158183437
 20
-248.9227281271245
 30
0.0
 10
53.62389759014238
 20
-248.9227281271245
 30
0.0
 10
53.62389759014238
 20
-248.9227281271245
 30
0.0
 10
53.01544234584733
 20
-248.9227281271245
 30
0.0
 10
52.52217170539755
 20
-248.4576821465839
 30
0.0
 10
52.52217170539755
 20
-247.8840139900199
 30
0.0
 10
52.52217170539755
 20
-247.3103458334533
 30
0.0
 10
53.01544234584733
 20
-246.8452998529127
 30
0.0
 10
53.62389759014238
 20
-246.8452998529127
 30
0.0
 10
53.62389759014238
 20
-246.8452998529127
 30
0.0
 10
77.80736158183437
 20
-246.8452998529127
 30
0.0
 10
77.80736158183437
 20
-246.8452998529127
 30
0.0
 10
78.41581682612622
 20
-246.8452998529127
 30
0.0
 10
78.90908746657985
 20
-247.3103458334533
 30
0.0
 10
78.90908746657985
 20
-247.8840139900199
 30
0.0
 10
78.90908746657985
 20
-248.4576821465839
 30
0.0
 10
78.41581682612622
 20
-248.9227281271245
 30
0.0
 10
77.80736158183437
 20
-248.9227281271245
 30
0.0
  0
SPLINE
  5
AD
330
1F
100
AcDbEntity
  8
Resized
 62
     7
420
 16777215
370
    35
100
AcDbSpline
210
0.0
220
0.0
230
1.0
 70
    11
 71
     3
 72
    32
 73
    28
 74
     0
 42
0.0000000001
 43
0.0000000001
 12
1.0
 22
0.0
 32
0.0
 13
1.0
 23
0.0
 33
0.0
 40
0.0
 40
0.0
 40
0.0
 40
0.0
 40
1.0
 40
1.0
 40
1.0
 40
2.0
 40
2.0
 40
2.0
 40
3.0
 40
3.0
 40
3.0
 40
4.0
 40
4.0
 40
4.0
 40
5.0
 40
5.0
 40
5.0
 40
6.0
 40
6.0
 40
6.0
 40
7.0
 40
7.0
 40
7.0
 40
8.0
 40
8.0
 40
8.0
 40
9.0
 40
9.0
 40
9.0
 40
9.0
 10
83.65653746695611
 20
-237.101851786389
 30
0.0
 10
83.28859053682409
 20
-237.5541616807222
 30
0.0
 10
82.90526388842818
 20
-237.7835200879092
 30
0.0
 10
82.28408810870243
 20
-237.7835200879092
 30
0.0
 10
82.28408810870243
 20
-237.7835200879092
 30
0.0
 10
49.2122977165613
 20
-237.7835200879092
 30
0.0
 10
49.2122977165613
 20
-237.7835200879092
 30
0.0
 10
48.59112193683491
 20
-237.7835200879092
 30
0.0
 10
48.20779528843901
 20
-237.5541616807222
 30
0.0
 10
47.83983280753095
 20
-237.101851786389
 30
0.0
 10
47.55582897062449
 20
-236.752736846976
 30
0.0
 10
47.55582897062449
 20
-236.1828941815046
 30
0.0
 10
47.76288756386619
 20
-235.7705808851302
 30
0.0
 10
47.76288756386619
 20
-235.7705808851302
 30
0.0
 10
64.50524264827467
 20
-207.1725157199322
 30
0.0
 10
64.50524264827467
 20
-207.1725157199322
 30
0.0
 10
64.92847258996626
 20
-206.4444439004069
 30
0.0
 10
65.336618278157
 20
-206.0321306040338
 30
0.0
 10
65.78785516888638
 20
-206.0321306040338
 30
0.0
 10
66.35311035520037
 20
-206.0321306040338
 30
0.0
 10
66.54362292191561
 20
-206.2382872522206
 30
0.0
 10
67.01563565046627
 20
-207.0803307149961
 30
0.0
 10
67.01563565046627
 20
-207.0803307149961
 30
0.0
 10
83.58924925569302
 20
-235.7705808851302
 30
0.0
 10
83.58924925569302
 20
-235.7705808851302
 30
0.0
 10
83.79630784893537
 20
-236.1828941815046
 30
0.0
 10
83.94055685463539
 20
-236.752736846976
 30
0.0
 10
83.65653746695611
 20
-237.101851786389
 30
0.0
  0
SPLINE
  5
AE
330
1F
100
AcDbEntity
  8
Resized
 62
     7
420
 16777215
370
    35
100
AcDbSpline
210
0.0
220
0.0
230
1.0
 70
    11
 71
     3
 72
    23
 73
    19
 74
     0
 42
0.0000000001
 43
0.0000000001
 12
1.0
 22
0.0
 32
0.0
 13
1.0
 23
0.0
 33
0.0
 40
0.0
 40
0.0
 40
0.0
 40
0.0
 40
1.0
 40
1.0
 40
1.0
 40
2.0
 40
2.0
 40
2.0
 40
3.0
 40
3.0
 40
3.0
 40
4.0
 40
4.0
 40
4.0
 40
5.0
 40
5.0
 40
5.0
 40
6.0
 40
6.0
 40
6.0
 40
6.0
 10
90.33178616706662
 20
-227.7848837739148
 30
0.0
 10
89.83498550027639
 20
-228.0717178522
 30
0.0
 10
89.18561616219225
 20
-227.8770687788535
 30
0.0
 10
88.88138076465864
 20
-227.3501151558247
 30
0.0
 10
88.88138076465864
 20
-227.3501151558247
 30
0.0
 10
76.78965654419906
 20
-206.406624411202
 30
0.0
 10
76.78965654419906
 20
-206.406624411202
 30
0.0
 10
76.48543669744146
 20
-205.8796863389525
 30
0.0
 10
76.64155094585152
 20
-205.2199757342897
 30
0.0
 10
77.13835161263759
 20
-204.9331572067834
 30
0.0
 10
77.63515227942783
 20
-204.6463231284998
 30
0.0
 10
78.28453716828798
 20
-204.8409722018466
 30
0.0
 10
78.58875701504557
 20
-205.3679102740949
 30
0.0
 10
78.58875701504557
 20
-205.3679102740949
 30
0.0
 10
90.68048123550516
 20
-226.3114165694968
 30
0.0
 10
90.68048123550516
 20
-226.3114165694968
 30
0.0
 10
90.98471663303877
 20
-226.8383546417466
 30
0.0
 10
90.82860238462904
 20
-227.4980496956325
 30
0.0
 10
90.33178616706662
 20
-227.7848837739148
 30
0.0
  0
POLYLINE
  5
AF
330
1F
100
AcDbEntity
  8
Resized
 62
     7
420
 16777215
370
    35
100
AcDb2dPolyline
 66
     1
 10
0.0
 20
0.0
 30
0.0
  0
VERTEX
  5
B0
330
AF
100
AcDbEntity
  8
Resized
 62
     7
420
 16777215
370
    35
100
AcDbVertex
100
AcDb2dVertex
 10
70.21285180708695
 20
-152.0870301230175
 30
0.0
  0
VERTEX
  5
B1
330
AF
100
AcDbEntity
  8
Resized
 62
     7
420
 16777215
370
    35
100
AcDbVertex
100
AcDb2dVertex
 10
86.29586950547187
 20
-180.0869657597257
 30
0.0
  0
VERTEX
  5
B2
330
AF
100
AcDbEntity
  8
Resized
 62
     7
420
 16777215
370
    35
100
AcDbVertex
100
AcDb2dVertex
 10
91.58842088541189
 20
-170.9773518052524
 30
0.0
  0
VERTEX
  5
B3
330
AF
100
AcDbEntity
  8
Resized
 62
     7
420
 16777215
370
    35
100
AcDbVertex
100
AcDb2dVertex
 10
129.3108576922773
 20
-236.6506926495403
 30
0.0
  0
VERTEX
  5
B4
330
AF
100
AcDbEntity
  8
Resized
 62
     7
420
 16777215
370
    35
100
AcDbVertex
100
AcDb2dVertex
 10
118.7797005771593
 20
-236.6401025705337
 30
0.0
  0
VERTEX
  5
B5
330
AF
100
AcDbEntity
  8
Resized
 62
     7
420
 16777215
370
    35
100
AcDbVertex
100
AcDb2dVertex
 10
134.879870782365
 20
-264.6698956987168
 30
0.0
  0
VERTEX
  5
B6
330
AF
100
AcDbEntity
  8
Resized
 62
     7
420
 16777215
370
    35
100
AcDbVertex
100
AcDb2dVertex
 10
151.1969898748686
 20
-236.5846173988685
 30
0.0
  0
VERTEX
  5
B7
330
AF
100
AcDbEntity
  8
Resized
 62
     7
420
 16777215
370
    35
100
AcDbVertex
100
AcDb2dVertex
 10
141.1148458893946
 20
-236.574478292389
 30
0.0
  0
VERTEX
  5
B8
330
AF
100
AcDbEntity
  8
Resized
 62
     7
420
 16777215
370
    35
100
AcDbVertex
100
AcDb2dVertex
 10
179.2257566517829
 20
-170.9773518052524
 30
0.0
  0
VERTEX
  5
B9
330
AF
100
AcDbEntity
  8
Resized
 62
     7
420
 16777215
370
    35
100
AcDbVertex
100
AcDb2dVertex
 10
184.2410065796271
 20
-179.7087086645689
 30
0.0
  0
VERTEX
  5
BA
330
AF
100
AcDbEntity
  8
Resized
 62
     7
420
 16777215
370
    35
100
AcDbVertex
100
AcDb2dVertex
 10
200.2128517745856
 20
-152.217687749786
 30
0.0
  0
VERTEX
  5
BB
330
AF
100
AcDbEntity
  8
Resized
 62
     7
420
 16777215
370
    35
100
AcDbVertex
100
AcDb2dVertex
 10
168.0445304136232
 20
-152.1853576847953
 30
0.0
  0
VERTEX
  5
BC
330
AF
100
AcDbEntity
  8
Resized
 62
     7
420
 16777215
370
    35
100
AcDbVertex
100
AcDb2dVertex
 10
173.1295100246871
 20
-161.038119458677
 30
0.0
  0
VERTEX
  5
BD
330
AF
100
AcDbEntity
  8
Resized
 62
     7
420
 16777215
370
    35
100
AcDbVertex
100
AcDb2dVertex
 10
97.29619355698547
 20
-160.9619051015251
 30
0.0
  0
VERTEX
  5
BE
330
AF
100
AcDbEntity
  8
Resized
 62
     7
420
 16777215
370
    35
100
AcDbVertex
100
AcDb2dVertex
 10
102.4335481843485
 20
-152.1194068403397
 30
0.0
  0
VERTEX
  5
BF
330
AF
100
AcDbEntity
  8
Resized
 62
     7
420
 16777215
370
    35
100
AcDbVertex
100
AcDb2dVertex
 10
70.21285180708695
 20
-152.0870301230175
 30
0.0
  0
SEQEND
  5
C0
330
AF
100
AcDbEntity
  8
Resized
 62
     7
420
 16777215
370
    35
  0
SPLINE
  5
C1
330
1F
100
AcDbEntity
  8
Resized
 62
     7
420
 16777215
370
    35
100
AcDbSpline
210
0.0
220
0.0
230
1.0
 70
    11
 71
     3
 72
    23
 73
    19
 74
     0
 42
0.0000000001
 43
0.0000000001
 12
1.0
 22
0.0
 32
0.0
 13
1.0
 23
0.0
 33
0.0
 40
0.0
 40
0.0
 40
0.0
 40
0.0
 40
1.0
 40
1.0
 40
1.0
 40
2.0
 40
2.0
 40
2.0
 40
3.0
 40
3.0
 40
3.0
 40
4.0
 40
4.0
 40
4.0
 40
5.0
 40
5.0
 40
5.0
 40
6.0
 40
6.0
 40
6.0
 40
6.0
 10
159.5762460456233
 20
-189.0803843098655
 30
0.0
 10
160.0730467124135
 20
-189.3672028373717
 30
0.0
 10
160.2291609608194
 20
-190.0269134420352
 30
0.0
 10
159.9249255632858
 20
-190.5538515142841
 30
0.0
 10
159.9249255632858
 20
-190.5538515142841
 30
0.0
 10
147.8332013428301
 20
-211.4973422589081
 30
0.0
 10
147.8332013428301
 20
-211.4973422589081
 30
0.0
 10
147.5289659452926
 20
-212.0242803311576
 30
0.0
 10
146.8795966072085
 20
-212.2189449552798
 30
0.0
 10
146.3827959404182
 20
-211.9321108769969
 30
0.0
 10
145.8859797228558
 20
-211.6452767987126
 30
0.0
 10
145.7298654744461
 20
-210.9855817448261
 30
0.0
 10
146.0341008719836
 20
-210.4586281218009
 30
0.0
 10
146.0341008719836
 20
-210.4586281218009
 30
0.0
 10
158.1258250924393
 20
-189.515137377177
 30
0.0
 10
158.1258250924393
 20
-189.515137377177
 30
0.0
 10
158.4300604899736
 20
-188.9881993049287
 30
0.0
 10
159.079429828057
 20
-188.7935502315825
 30
0.0
 10
159.5762460456233
 20
-189.0803843098655
 30
0.0
  0
SPLINE
  5
C2
330
1F
100
AcDbEntity
  8
Resized
 62
     7
420
 16777215
370
    35
100
AcDbSpline
210
0.0
220
0.0
230
1.0
 70
    11
 71
     3
 72
    23
 73
    19
 74
     0
 42
0.0000000001
 43
0.0000000001
 12
1.0
 22
0.0
 32
0.0
 13
1.0
 23
0.0
 33
0.0
 40
0.0
 40
0.0
 40
0.0
 40
0.0
 40
1.0
 40
1.0
 40
1.0
 40
2.0
 40
2.0
 40
2.0
 40
3.0
 40
3.0
 40
3.0
 40
4.0
 40
4.0
 40
4.0
 40
5.0
 40
5.0
 40
5.0
 40
6.0
 40
6.0
 40
6.0
 40
6.0
 10
123.1211197949903
 20
-167.8341976946104
 30
0.0
 10
123.1211197949903
 20
-167.8341976946104
 30
0.0
 10
147.3045837866823
 20
-167.8341976946104
 30
0.0
 10
147.3045837866823
 20
-167.8341976946104
 30
0.0
 10
147.9130390309773
 20
-167.8341976946104
 30
0.0
 10
148.4063096714271
 20
-168.2992436751517
 30
0.0
 10
148.4063096714271
 20
-168.8729118317176
 30
0.0
 10
148.4063096714271
 20
-169.4465799882848
 30
0.0
 10
147.9130390309773
 20
-169.9116259688248
 30
0.0
 10
147.3045837866823
 20
-169.9116259688248
 30
0.0
 10
147.3045837866823
 20
-169.9116259688248
 30
0.0
 10
123.1211197949903
 20
-169.9116259688248
 30
0.0
 10
123.1211197949903
 20
-169.9116259688248
 30
0.0
 10
122.5126645506985
 20
-169.9116259688248
 30
0.0
 10
122.0193939102448
 20
-169.4465799882848
 30
0.0
 10
122.0193939102448
 20
-168.8729118317176
 30
0.0
 10
122.0193939102448
 20
-168.2992436751517
 30
0.0
 10
122.5126645506985
 20
-167.8341976946104
 30
0.0
 10
123.1211197949903
 20
-167.8341976946104
 30
0.0
  0
SPLINE
  5
C3
330
1F
100
AcDbEntity
  8
Resized
 62
     7
420
 16777215
370
    35
100
AcDbSpline
210
0.0
220
0.0
230
1.0
 70
    11
 71
     3
 72
    32
 73
    28
 74
     0
 42
0.0000000001
 43
0.0000000001
 12
1.0
 22
0.0
 32
0.0
 13
1.0
 23
0.0
 33
0.0
 40
0.0
 40
0.0
 40
0.0
 40
0.0
 40
1.0
 40
1.0
 40
1.0
 40
2.0
 40
2.0
 40
2.0
 40
3.0
 40
3.0
 40
3.0
 40
4.0
 40
4.0
 40
4.0
 40
5.0
 40
5.0
 40
5.0
 40
6.0
 40
6.0
 40
6.0
 40
7.0
 40
7.0
 40
7.0
 40
8.0
 40
8.0
 40
8.0
 40
9.0
 40
9.0
 40
9.0
 40
9.0
 10
117.2719439098686
 20
-179.6550740353472
 30
0.0
 10
117.6398908400006
 20
-179.2027641410152
 30
0.0
 10
118.0232174883965
 20
-178.9734057338264
 30
0.0
 10
118.6443932681222
 20
-178.9734057338264
 30
0.0
 10
118.6443932681222
 20
-178.9734057338264
 30
0.0
 10
151.7161836602634
 20
-178.9734057338264
 30
0.0
 10
151.7161836602634
 20
-178.9734057338264
 30
0.0
 10
152.3373594399898
 20
-178.9734057338264
 30
0.0
 10
152.7206860883857
 20
-179.2027641410152
 30
0.0
 10
153.0886485692937
 20
-179.6550740353472
 30
0.0
 10
153.3726524062002
 20
-180.0041889747602
 30
0.0
 10
153.3726524062002
 20
-180.5740316402316
 30
0.0
 10
153.1655938129585
 20
-180.9863449366047
 30
0.0
 10
153.1655938129585
 20
-180.9863449366047
 30
0.0
 10
136.42323872855
 20
-209.584410101804
 30
0.0
 10
136.42323872855
 20
-209.584410101804
 30
0.0
 10
136.0000087868584
 20
-210.3124819213293
 30
0.0
 10
135.5918630986677
 20
-210.7247952177024
 30
0.0
 10
135.1406262079383
 20
-210.7247952177024
 30
0.0
 10
134.5753710216243
 20
-210.7247952177024
 30
0.0
 10
134.3848584549091
 20
-210.5186385695155
 30
0.0
 10
133.9128457263584
 20
-209.6765951067401
 30
0.0
 10
133.9128457263584
 20
-209.6765951067401
 30
0.0
 10
117.3392321211316
 20
-180.9863449366047
 30
0.0
 10
117.3392321211316
 20
-180.9863449366047
 30
0.0
 10
117.1321735278893
 20
-180.5740316402316
 30
0.0
 10
116.9879245221893
 20
-180.0041889747602
 30
0.0
 10
117.2719439098686
 20
-179.6550740353472
 30
0.0
  0
SPLINE
  5
C4
330
1F
100
AcDbEntity
  8
Resized
 62
     7
420
 16777215
370
    35
100
AcDbSpline
210
0.0
220
0.0
230
1.0
 70
    11
 71
     3
 72
    23
 73
    19
 74
     0
 42
0.0000000001
 43
0.0000000001
 12
1.0
 22
0.0
 32
0.0
 13
1.0
 23
0.0
 33
0.0
 40
0.0
 40
0.0
 40
0.0
 40
0.0
 40
1.0
 40
1.0
 40
1.0
 40
2.0
 40
2.0
 40
2.0
 40
3.0
 40
3.0
 40
3.0
 40
4.0
 40
4.0
 40
4.0
 40
5.0
 40
5.0
 40
5.0
 40
6.0
 40
6.0
 40
6.0
 40
6.0
 10
110.5966952097581
 20
-188.9720420478214
 30
0.0
 10
111.0934958765483
 20
-188.6852079695378
 30
0.0
 10
111.7428652146324
 20
-188.879857042884
 30
0.0
 10
112.047100612166
 20
-189.4068106659102
 30
0.0
 10
112.047100612166
 20
-189.4068106659102
 30
0.0
 10
124.1388248326256
 20
-210.3503014105341
 30
0.0
 10
124.1388248326256
 20
-210.3503014105341
 30
0.0
 10
124.4430446793832
 20
-210.8772394827836
 30
0.0
 10
124.2869304309735
 20
-211.5369500874465
 30
0.0
 10
123.7901297641871
 20
-211.8237686149528
 30
0.0
 10
123.2933290973968
 20
-212.1106026932364
 30
0.0
 10
122.6439442085367
 20
-211.9159536198895
 30
0.0
 10
122.3397243617791
 20
-211.3890155476413
 30
0.0
 10
122.3397243617791
 20
-211.3890155476413
 30
0.0
 10
110.2480001413195
 20
-190.4455092522407
 30
0.0
 10
110.2480001413195
 20
-190.4455092522407
 30
0.0
 10
109.9437647437859
 20
-189.9185711799912
 30
0.0
 10
110.0998789921956
 20
-189.2588761261044
 30
0.0
 10
110.5966952097581
 20
-188.9720420478214
 30
0.0
  0
POLYLINE
  5
C5
330
1F
100
AcDbEntity
  8
Resized
 62
     7
420
 16777215
370
    35
100
AcDb2dPolyline
 66
     1
 10
0.0
 20
0.0
 30
0.0
  0
VERTEX
  5
C6
330
C5
100
AcDbEntity
  8
Resized
 62
     7
420
 16777215
370
    35
100
AcDbVertex
100
AcDb2dVertex
 10
269.0045184240544
 20
-264.6698956987168
 30
0.0
  0
VERTEX
  5
C7
330
C5
100
AcDbEntity
  8
Resized
 62
     7
420
 16777215
370
    35
100
AcDbVertex
100
AcDb2dVertex
 10
252.9215007256695
 20
-236.6699600620099
 30
0.0
  0
VERTEX
  5
C8
330
C5
100
AcDbEntity
  8
Resized
 62
     7
420
 16777215
370
    35
100
AcDbVertex
100
AcDb2dVertex
 10
247.6289493457295
 20
-245.7795740164838
 30
0.0
  0
VERTEX
  5
C9
330
C5
100
AcDbEntity
  8
Resized
 62
     7
420
 16777215
370
    35
100
AcDbVertex
100
AcDb2dVertex
 10
209.906512538864
 20
-180.1062331721955
 30
0.0
  0
VERTEX
  5
CA
330
C5
100
AcDbEntity
  8
Resized
 62
     7
420
 16777215
370
    35
100
AcDbVertex
100
AcDb2dVertex
 10
220.4376696539821
 20
-180.1168232512038
 30
0.0
  0
VERTEX
  5
CB
330
C5
100
AcDbEntity
  8
Resized
 62
     7
420
 16777215
370
    35
100
AcDbVertex
100
AcDb2dVertex
 10
204.3374994487763
 20
-152.0870301230175
 30
0.0
  0
VERTEX
  5
CC
330
C5
100
AcDbEntity
  8
Resized
 62
     7
420
 16777215
370
    35
100
AcDbVertex
100
AcDb2dVertex
 10
188.0203803562727
 20
-180.1723084228657
 30
0.0
  0
VERTEX
  5
CD
330
C5
100
AcDbEntity
  8
Resized
 62
     7
420
 16777215
370
    35
100
AcDbVertex
100
AcDb2dVertex
 10
198.1025243417467
 20
-180.1824475293465
 30
0.0
  0
VERTEX
  5
CE
330
C5
100
AcDbEntity
  8
Resized
 62
     7
420
 16777215
370
    35
100
AcDbVertex
100
AcDb2dVertex
 10
159.9916135793584
 20
-245.7795740164838
 30
0.0
  0
VERTEX
  5
CF
330
C5
100
AcDbEntity
  8
Resized
 62
     7
420
 16777215
370
    35
100
AcDbVertex
100
AcDb2dVertex
 10
154.9763636515143
 20
-237.048217157166
 30
0.0
  0
VERTEX
  5
D0
330
C5
100
AcDbEntity
  8
Resized
 62
     7
420
 16777215
370
    35
100
AcDbVertex
100
AcDb2dVertex
 10
139.0045184565557
 20
-264.5392380719496
 30
0.0
  0
VERTEX
  5
D1
330
C5
100
AcDbEntity
  8
Resized
 62
     7
420
 16777215
370
    35
100
AcDbVertex
100
AcDb2dVertex
 10
171.1728398175182
 20
-264.5715681369409
 30
0.0
  0
VERTEX
  5
D2
330
C5
100
AcDbEntity
  8
Resized
 62
     7
420
 16777215
370
    35
100
AcDbVertex
100
AcDb2dVertex
 10
166.0878602064542
 20
-255.7188063630579
 30
0.0
  0
VERTEX
  5
D3
330
C5
100
AcDbEntity
  8
Resized
 62
     7
420
 16777215
370
    35
100
AcDbVertex
100
AcDb2dVertex
 10
241.9211766741559
 20
-255.7950207202124
 30
0.0
  0
VERTEX
  5
D4
330
C5
100
AcDbEntity
  8
Resized
 62
     7
420
 16777215
370
    35
100
AcDbVertex
100
AcDb2dVertex
 10
236.7838220467928
 20
-264.6375189813968
 30
0.0
  0
VERTEX
  5
D5
330
C5
100
AcDbEntity
  8
Resized
 62
     7
420
 16777215
370
    35
100
AcDbVertex
100
AcDb2dVertex
 10
269.0045184240544
 20
-264.6698956987168
 30
0.0
  0
SEQEND
  5
D6
330
C5
100
AcDbEntity
  8
Resized
 62
     7
420
 16777215
370
    35
  0
SPLINE
  5
D7
330
1F
100
AcDbEntity
  8
Resized
 62
     7
420
 16777215
370
    35
100
AcDbSpline
210
0.0
220
0.0
230
1.0
 70
    11
 71
     3
 72
    23
 73
    19
 74
     0
 42
0.0000000001
 43
0.0000000001
 12
1.0
 22
0.0
 32
0.0
 13
1.0
 23
0.0
 33
0.0
 40
0.0
 40
0.0
 40
0.0
 40
0.0
 40
1.0
 40
1.0
 40
1.0
 40
2.0
 40
2.0
 40
2.0
 40
3.0
 40
3.0
 40
3.0
 40
4.0
 40
4.0
 40
4.0
 40
5.0
 40
5.0
 40
5.0
 40
6.0
 40
6.0
 40
6.0
 40
6.0
 10
179.641124185518
 20
-227.6765415118707
 30
0.0
 10
179.1443235187278
 20
-227.3897229843651
 30
0.0
 10
178.9882092703219
 20
-226.7300123797022
 30
0.0
 10
179.2924446678555
 20
-226.2030743074533
 30
0.0
 10
179.2924446678555
 20
-226.2030743074533
 30
0.0
 10
191.3841688883113
 20
-205.2595835628281
 30
0.0
 10
191.3841688883113
 20
-205.2595835628281
 30
0.0
 10
191.6884042858487
 20
-204.7326454905786
 30
0.0
 10
192.3377736239329
 20
-204.5379808664564
 30
0.0
 10
192.8345742907231
 20
-204.8248149447393
 30
0.0
 10
193.3313905082855
 20
-205.1116490230239
 30
0.0
 10
193.4875047566952
 20
-205.7713440769104
 30
0.0
 10
193.1832693591578
 20
-206.2982976999353
 30
0.0
 10
193.1832693591578
 20
-206.2982976999353
 30
0.0
 10
181.0915451387021
 20
-227.2417884445609
 30
0.0
 10
181.0915451387021
 20
-227.2417884445609
 30
0.0
 10
180.7873097411678
 20
-227.7687265168069
 30
0.0
 10
180.1379404030843
 20
-227.9633755901524
 30
0.0
 10
179.641124185518
 20
-227.6765415118707
 30
0.0
  0
SPLINE
  5
D8
330
1F
100
AcDbEntity
  8
Resized
 62
     7
420
 16777215
370
    35
100
AcDbSpline
210
0.0
220
0.0
230
1.0
 70
    11
 71
     3
 72
    23
 73
    19
 74
     0
 42
0.0000000001
 43
0.0000000001
 12
1.0
 22
0.0
 32
0.0
 13
1.0
 23
0.0
 33
0.0
 40
0.0
 40
0.0
 40
0.0
 40
0.0
 40
1.0
 40
1.0
 40
1.0
 40
2.0
 40
2.0
 40
2.0
 40
3.0
 40
3.0
 40
3.0
 40
4.0
 40
4.0
 40
4.0
 40
5.0
 40
5.0
 40
5.0
 40
6.0
 40
6.0
 40
6.0
 40
6.0
 10
216.0962504361511
 20
-248.9227281271245
 30
0.0
 10
216.0962504361511
 20
-248.9227281271245
 30
0.0
 10
191.912786444459
 20
-248.9227281271245
 30
0.0
 10
191.912786444459
 20
-248.9227281271245
 30
0.0
 10
191.304331200164
 20
-248.9227281271245
 30
0.0
 10
190.8110605597142
 20
-248.4576821465839
 30
0.0
 10
190.8110605597142
 20
-247.8840139900199
 30
0.0
 10
190.8110605597142
 20
-247.3103458334533
 30
0.0
 10
191.304331200164
 20
-246.8452998529127
 30
0.0
 10
191.912786444459
 20
-246.8452998529127
 30
0.0
 10
191.912786444459
 20
-246.8452998529127
 30
0.0
 10
216.0962504361511
 20
-246.8452998529127
 30
0.0
 10
216.0962504361511
 20
-246.8452998529127
 30
0.0
 10
216.7047056804429
 20
-246.8452998529127
 30
0.0
 10
217.1979763208965
 20
-247.3103458334533
 30
0.0
 10
217.1979763208965
 20
-247.8840139900199
 30
0.0
 10
217.1979763208965
 20
-248.4576821465839
 30
0.0
 10
216.7047056804429
 20
-248.9227281271245
 30
0.0
 10
216.0962504361511
 20
-248.9227281271245
 30
0.0
  0
SPLINE
  5
D9
330
1F
100
AcDbEntity
  8
Resized
 62
     7
420
 16777215
370
    35
100
AcDbSpline
210
0.0
220
0.0
230
1.0
 70
    11
 71
     3
 72
    32
 73
    28
 74
     0
 42
0.0000000001
 43
0.0000000001
 12
1.0
 22
0.0
 32
0.0
 13
1.0
 23
0.0
 33
0.0
 40
0.0
 40
0.0
 40
0.0
 40
0.0
 40
1.0
 40
1.0
 40
1.0
 40
2.0
 40
2.0
 40
2.0
 40
3.0
 40
3.0
 40
3.0
 40
4.0
 40
4.0
 40
4.0
 40
5.0
 40
5.0
 40
5.0
 40
6.0
 40
6.0
 40
6.0
 40
7.0
 40
7.0
 40
7.0
 40
8.0
 40
8.0
 40
8.0
 40
9.0
 40
9.0
 40
9.0
 40
9.0
 10
221.9454263212728
 20
-237.101851786389
 30
0.0
 10
221.5774793911408
 20
-237.5541616807222
 30
0.0
 10
221.1941527427448
 20
-237.7835200879092
 30
0.0
 10
220.5729769630191
 20
-237.7835200879092
 30
0.0
 10
220.5729769630191
 20
-237.7835200879092
 30
0.0
 10
187.501186570878
 20
-237.7835200879092
 30
0.0
 10
187.501186570878
 20
-237.7835200879092
 30
0.0
 10
186.8800107911516
 20
-237.7835200879092
 30
0.0
 10
186.4966841427557
 20
-237.5541616807222
 30
0.0
 10
186.1287216618476
 20
-237.101851786389
 30
0.0
 10
185.8447178249412
 20
-236.752736846976
 30
0.0
 10
185.8447178249412
 20
-236.1828941815046
 30
0.0
 10
186.0517764181829
 20
-235.7705808851302
 30
0.0
 10
186.0517764181829
 20
-235.7705808851302
 30
0.0
 10
202.7941315025913
 20
-207.1725157199322
 30
0.0
 10
202.7941315025913
 20
-207.1725157199322
 30
0.0
 10
203.2173614442829
 20
-206.4444439004069
 30
0.0
 10
203.6255071324737
 20
-206.0321306040338
 30
0.0
 10
204.076744023203
 20
-206.0321306040338
 30
0.0
 10
204.6419992095171
 20
-206.0321306040338
 30
0.0
 10
204.8325117762323
 20
-206.2382872522206
 30
0.0
 10
205.3045245047829
 20
-207.0803307149961
 30
0.0
 10
205.3045245047829
 20
-207.0803307149961
 30
0.0
 10
221.8781381100097
 20
-235.7705808851302
 30
0.0
 10
221.8781381100097
 20
-235.7705808851302
 30
0.0
 10
222.0851967032521
 20
-236.1828941815046
 30
0.0
 10
222.2294457089521
 20
-236.752736846976
 30
0.0
 10
221.9454263212728
 20
-237.101851786389
 30
0.0
  0
SPLINE
  5
DA
330
1F
100
AcDbEntity
  8
Resized
 62
     7
420
 16777215
370
    35
100
AcDbSpline
210
0.0
220
0.0
230
1.0
 70
    11
 71
     3
 72
    23
 73
    19
 74
     0
 42
0.0000000001
 43
0.0000000001
 12
1.0
 22
0.0
 32
0.0
 13
1.0
 23
0.0
 33
0.0
 40
0.0
 40
0.0
 40
0.0
 40
0.0
 40
1.0
 40
1.0
 40
1.0
 40
2.0
 40
2.0
 40
2.0
 40
3.0
 40
3.0
 40
3.0
 40
4.0
 40
4.0
 40
4.0
 40
5.0
 40
5.0
 40
5.0
 40
6.0
 40
6.0
 40
6.0
 40
6.0
 10
228.6206750213833
 20
-227.7848837739148
 30
0.0
 10
228.1238743545931
 20
-228.0717178522
 30
0.0
 10
227.4745050165089
 20
-227.8770687788535
 30
0.0
 10
227.1702696189753
 20
-227.3501151558247
 30
0.0
 10
227.1702696189753
 20
-227.3501151558247
 30
0.0
 10
215.0785453985157
 20
-206.406624411202
 30
0.0
 10
215.0785453985157
 20
-206.406624411202
 30
0.0
 10
214.7743255517581
 20
-205.8796863389525
 30
0.0
 10
214.9304398001679
 20
-205.2199757342897
 30
0.0
 10
215.4272404669543
 20
-204.9331572067834
 30
0.0
 10
215.9240411337445
 20
-204.6463231284998
 30
0.0
 10
216.5734260226047
 20
-204.8409722018466
 30
0.0
 10
216.8776458693623
 20
-205.3679102740949
 30
0.0
 10
216.8776458693623
 20
-205.3679102740949
 30
0.0
 10
228.9693700898218
 20
-226.3114165694968
 30
0.0
 10
228.9693700898218
 20
-226.3114165694968
 30
0.0
 10
229.2736054873554
 20
-226.8383546417466
 30
0.0
 10
229.1174912389457
 20
-227.4980496956325
 30
0.0
 10
228.6206750213833
 20
-227.7848837739148
 30
0.0
  0
POLYLINE
  5
DB
330
1F
100
AcDbEntity
  8
Resized
 62
     7
420
 16777215
370
    35
100
AcDb2dPolyline
 66
     1
 10
0.0
 20
0.0
 30
0.0
  0
VERTEX
  5
DC
330
DB
100
AcDbEntity
  8
Resized
 62
     7
420
 16777215
370
    35
100
AcDbVertex
100
AcDb2dVertex
 10
208.5017406614036
 20
-152.0870301230175
 30
0.0
  0
VERTEX
  5
DD
330
DB
100
AcDbEntity
  8
Resized
 62
     7
420
 16777215
370
    35
100
AcDbVertex
100
AcDb2dVertex
 10
224.5847583597885
 20
-180.0869657597257
 30
0.0
  0
VERTEX
  5
DE
330
DB
100
AcDbEntity
  8
Resized
 62
     7
420
 16777215
370
    35
100
AcDbVertex
100
AcDb2dVertex
 10
229.8773097397286
 20
-170.9773518052524
 30
0.0
  0
VERTEX
  5
DF
330
DB
100
AcDbEntity
  8
Resized
 62
     7
420
 16777215
370
    35
100
AcDbVertex
100
AcDb2dVertex
 10
267.599746546594
 20
-236.6506926495403
 30
0.0
  0
VERTEX
  5
E0
330
DB
100
AcDbEntity
  8
Resized
 62
     7
420
 16777215
370
    35
100
AcDbVertex
100
AcDb2dVertex
 10
257.068589431476
 20
-236.6401025705337
 30
0.0
  0
VERTEX
  5
E1
330
DB
100
AcDbEntity
  8
Resized
 62
     7
420
 16777215
370
    35
100
AcDbVertex
100
AcDb2dVertex
 10
273.1687596366817
 20
-264.6698956987168
 30
0.0
  0
VERTEX
  5
E2
330
DB
100
AcDbEntity
  8
Resized
 62
     7
420
 16777215
370
    35
100
AcDbVertex
100
AcDb2dVertex
 10
289.4858787291853
 20
-236.5846173988685
 30
0.0
  0
VERTEX
  5
E3
330
DB
100
AcDbEntity
  8
Resized
 62
     7
420
 16777215
370
    35
100
AcDbVertex
100
AcDb2dVertex
 10
279.4037347437113
 20
-236.574478292389
 30
0.0
  0
VERTEX
  5
E4
330
DB
100
AcDbEntity
  8
Resized
 62
     7
420
 16777215
370
    35
100
AcDbVertex
100
AcDb2dVertex
 10
317.5146455060996
 20
-170.9773518052524
 30
0.0
  0
VERTEX
  5
E5
330
DB
100
AcDbEntity
  8
Resized
 62
     7
420
 16777215
370
    35
100
AcDbVertex
100
AcDb2dVertex
 10
322.5298954339438
 20
-179.7087086645689
 30
0.0
  0
VERTEX
  5
E6
330
DB
100
AcDbEntity
  8
Resized
 62
     7
420
 16777215
370
    35
100
AcDbVertex
100
AcDb2dVertex
 10
338.5017406289023
 20
-152.217687749786
 30
0.0
  0
VERTEX
  5
E7
330
DB
100
AcDbEntity
  8
Resized
 62
     7
420
 16777215
370
    35
100
AcDbVertex
100
AcDb2dVertex
 10
306.3334192679399
 20
-152.1853576847953
 30
0.0
  0
VERTEX
  5
E8
330
DB
100
AcDbEntity
  8
Resized
 62
     7
420
 16777215
370
    35
100
AcDbVertex
100
AcDb2dVertex
 10
311.4183988790038
 20
-161.038119458677
 30
0.0
  0
VERTEX
  5
E9
330
DB
100
AcDbEntity
  8
Resized
 62
     7
420
 16777215
370
    35
100
AcDbVertex
100
AcDb2dVertex
 10
235.5850824113022
 20
-160.9619051015251
 30
0.0
  0
VERTEX
  5
EA
330
DB
100
AcDbEntity
  8
Resized
 62
     7
420
 16777215
370
    35
100
AcDbVertex
100
AcDb2dVertex
 10
240.7224370386652
 20
-152.1194068403397
 30
0.0
  0
VERTEX
  5
EB
330
DB
100
AcDbEntity
  8
Resized
 62
     7
420
 16777215
370
    35
100
AcDbVertex
100
AcDb2dVertex
 10
208.5017406614036
 20
-152.0870301230175
 30
0.0
  0
SEQEND
  5
EC
330
DB
100
AcDbEntity
  8
Resized
 62
     7
420
 16777215
370
    35
  0
SPLINE
  5
ED
330
1F
100
AcDbEntity
  8
Resized
 62
     7
420
 16777215
370
    35
100
AcDbSpline
210
0.0
220
0.0
230
1.0
 70
    11
 71
     3
 72
    23
 73
    19
 74
     0
 42
0.0000000001
 43
0.0000000001
 12
1.0
 22
0.0
 32
0.0
 13
1.0
 23
0.0
 33
0.0
 40
0.0
 40
0.0
 40
0.0
 40
0.0
 40
1.0
 40
1.0
 40
1.0
 40
2.0
 40
2.0
 40
2.0
 40
3.0
 40
3.0
 40
3.0
 40
4.0
 40
4.0
 40
4.0
 40
5.0
 40
5.0
 40
5.0
 40
6.0
 40
6.0
 40
6.0
 40
6.0
 10
297.86513489994
 20
-189.0803843098655
 30
0.0
 10
298.3619355667302
 20
-189.3672028373717
 30
0.0
 10
298.5180498151361
 20
-190.0269134420352
 30
0.0
 10
298.2138144176025
 20
-190.5538515142841
 30
0.0
 10
298.2138144176025
 20
-190.5538515142841
 30
0.0
 10
286.1220901971467
 20
-211.4973422589081
 30
0.0
 10
286.1220901971467
 20
-211.4973422589081
 30
0.0
 10
285.8178547996093
 20
-212.0242803311576
 30
0.0
 10
285.1684854615252
 20
-212.2189449552798
 30
0.0
 10
284.6716847947349
 20
-211.9321108769969
 30
0.0
 10
284.1748685771725
 20
-211.6452767987126
 30
0.0
 10
284.0187543287628
 20
-210.9855817448261
 30
0.0
 10
284.3229897263002
 20
-210.4586281218009
 30
0.0
 10
284.3229897263002
 20
-210.4586281218009
 30
0.0
 10
296.414713946756
 20
-189.515137377177
 30
0.0
 10
296.414713946756
 20
-189.515137377177
 30
0.0
 10
296.7189493442902
 20
-188.9881993049287
 30
0.0
 10
297.3683186823737
 20
-188.7935502315825
 30
0.0
 10
297.86513489994
 20
-189.0803843098655
 30
0.0
  0
SPLINE
  5
EE
330
1F
100
AcDbEntity
  8
Resized
 62
     7
420
 16777215
370
    35
100
AcDbSpline
210
0.0
220
0.0
230
1.0
 70
    11
 71
     3
 72
    23
 73
    19
 74
     0
 42
0.0000000001
 43
0.0000000001
 12
1.0
 22
0.0
 32
0.0
 13
1.0
 23
0.0
 33
0.0
 40
0.0
 40
0.0
 40
0.0
 40
0.0
 40
1.0
 40
1.0
 40
1.0
 40
2.0
 40
2.0
 40
2.0
 40
3.0
 40
3.0
 40
3.0
 40
4.0
 40
4.0
 40
4.0
 40
5.0
 40
5.0
 40
5.0
 40
6.0
 40
6.0
 40
6.0
 40
6.0
 10
261.410008649307
 20
-167.8341976946104
 30
0.0
 10
261.410008649307
 20
-167.8341976946104
 30
0.0
 10
285.593472640999
 20
-167.8341976946104
 30
0.0
 10
285.593472640999
 20
-167.8341976946104
 30
0.0
 10
286.201927885294
 20
-167.8341976946104
 30
0.0
 10
286.6951985257438
 20
-168.2992436751517
 30
0.0
 10
286.6951985257438
 20
-168.8729118317176
 30
0.0
 10
286.6951985257438
 20
-169.4465799882848
 30
0.0
 10
286.201927885294
 20
-169.9116259688248
 30
0.0
 10
285.593472640999
 20
-169.9116259688248
 30
0.0
 10
285.593472640999
 20
-169.9116259688248
 30
0.0
 10
261.410008649307
 20
-169.9116259688248
 30
0.0
 10
261.410008649307
 20
-169.9116259688248
 30
0.0
 10
260.8015534050151
 20
-169.9116259688248
 30
0.0
 10
260.3082827645615
 20
-169.4465799882848
 30
0.0
 10
260.3082827645615
 20
-168.8729118317176
 30
0.0
 10
260.3082827645615
 20
-168.2992436751517
 30
0.0
 10
260.8015534050151
 20
-167.8341976946104
 30
0.0
 10
261.410008649307
 20
-167.8341976946104
 30
0.0
  0
SPLINE
  5
EF
330
1F
100
AcDbEntity
  8
Resized
 62
     7
420
 16777215
370
    35
100
AcDbSpline
210
0.0
220
0.0
230
1.0
 70
    11
 71
     3
 72
    32
 73
    28
 74
     0
 42
0.0000000001
 43
0.0000000001
 12
1.0
 22
0.0
 32
0.0
 13
1.0
 23
0.0
 33
0.0
 40
0.0
 40
0.0
 40
0.0
 40
0.0
 40
1.0
 40
1.0
 40
1.0
 40
2.0
 40
2.0
 40
2.0
 40
3.0
 40
3.0
 40
3.0
 40
4.0
 40
4.0
 40
4.0
 40
5.0
 40
5.0
 40
5.0
 40
6.0
 40
6.0
 40
6.0
 40
7.0
 40
7.0
 40
7.0
 40
8.0
 40
8.0
 40
8.0
 40
9.0
 40
9.0
 40
9.0
 40
9.0
 10
255.5608327641852
 20
-179.6550740353472
 30
0.0
 10
255.9287796943173
 20
-179.2027641410152
 30
0.0
 10
256.3121063427132
 20
-178.9734057338264
 30
0.0
 10
256.9332821224389
 20
-178.9734057338264
 30
0.0
 10
256.9332821224389
 20
-178.9734057338264
 30
0.0
 10
290.00507251458
 20
-178.9734057338264
 30
0.0
 10
290.00507251458
 20
-178.9734057338264
 30
0.0
 10
290.6262482943064
 20
-178.9734057338264
 30
0.0
 10
291.0095749427023
 20
-179.2027641410152
 30
0.0
 10
291.3775374236104
 20
-179.6550740353472
 30
0.0
 10
291.6615412605169
 20
-180.0041889747602
 30
0.0
 10
291.6615412605169
 20
-180.5740316402316
 30
0.0
 10
291.4544826672752
 20
-180.9863449366047
 30
0.0
 10
291.4544826672752
 20
-180.9863449366047
 30
0.0
 10
274.7121275828667
 20
-209.584410101804
 30
0.0
 10
274.7121275828667
 20
-209.584410101804
 30
0.0
 10
274.2888976411751
 20
-210.3124819213293
 30
0.0
 10
273.8807519529843
 20
-210.7247952177024
 30
0.0
 10
273.4295150622549
 20
-210.7247952177024
 30
0.0
 10
272.8642598759409
 20
-210.7247952177024
 30
0.0
 10
272.6737473092257
 20
-210.5186385695155
 30
0.0
 10
272.2017345806751
 20
-209.6765951067401
 30
0.0
 10
272.2017345806751
 20
-209.6765951067401
 30
0.0
 10
255.6281209754483
 20
-180.9863449366047
 30
0.0
 10
255.6281209754483
 20
-180.9863449366047
 30
0.0
 10
255.421062382206
 20
-180.5740316402316
 30
0.0
 10
255.2768133765059
 20
-180.0041889747602
 30
0.0
 10
255.5608327641852
 20
-179.6550740353472
 30
0.0
  0
SPLINE
  5
F0
330
1F
100
AcDbEntity
  8
Resized
 62
     7
420
 16777215
370
    35
100
AcDbSpline
210
0.0
220
0.0
230
1.0
 70
    11
 71
     3
 72
    23
 73
    19
 74
     0
 42
0.0000000001
 43
0.0000000001
 12
1.0
 22
0.0
 32
0.0
 13
1.0
 23
0.0
 33
0.0
 40
0.0
 40
0.0
 40
0.0
 40
0.0
 40
1.0
 40
1.0
 40
1.0
 40
2.0
 40
2.0
 40
2.0
 40
3.0
 40
3.0
 40
3.0
 40
4.0
 40
4.0
 40
4.0
 40
5.0
 40
5.0
 40
5.0
 40
6.0
 40
6.0
 40
6.0
 40
6.0
 10
248.8855840640747
 20
-188.9720420478214
 30
0.0
 10
249.382384730865
 20
-188.6852079695378
 30
0.0
 10
250.0317540689491
 20
-188.879857042884
 30
0.0
 10
250.3359894664827
 20
-189.4068106659102
 30
0.0
 10
250.3359894664827
 20
-189.4068106659102
 30
0.0
 10
262.4277136869423
 20
-210.3503014105341
 30
0.0
 10
262.4277136869423
 20
-210.3503014105341
 30
0.0
 10
262.7319335336999
 20
-210.8772394827836
 30
0.0
 10
262.5758192852902
 20
-211.5369500874465
 30
0.0
 10
262.0790186185038
 20
-211.8237686149528
 30
0.0
 10
261.5822179517135
 20
-212.1106026932364
 30
0.0
 10
260.9328330628534
 20
-211.9159536198895
 30
0.0
 10
260.6286132160958
 20
-211.3890155476413
 30
0.0
 10
260.6286132160958
 20
-211.3890155476413
 30
0.0
 10
248.5368889956362
 20
-190.4455092522407
 30
0.0
 10
248.5368889956362
 20
-190.4455092522407
 30
0.0
 10
248.2326535981026
 20
-189.9185711799912
 30
0.0
 10
248.3887678465123
 20
-189.2588761261044
 30
0.0
 10
248.8855840640747
 20
-188.9720420478214
 30
0.0
  0
POLYLINE
  5
F1
330
1F
100
AcDbEntity
  8
Resized
 62
     7
420
 16777215
370
    35
100
AcDb2dPolyline
 66
     1
 10
0.0
 20
0.0
 30
0.0
  0
VERTEX
  5
F2
330
F1
100
AcDbEntity
  8
Resized
 62
     7
420
 16777215
370
    35
100
AcDbVertex
100
AcDb2dVertex
 10
407.2934072783711
 20
-264.6698956987168
 30
0.0
  0
VERTEX
  5
F3
330
F1
100
AcDbEntity
  8
Resized
 62
     7
420
 16777215
370
    35
100
AcDbVertex
100
AcDb2dVertex
 10
391.2103895799862
 20
-236.6699600620099
 30
0.0
  0
VERTEX
  5
F4
330
F1
100
AcDbEntity
  8
Resized
 62
     7
420
 16777215
370
    35
100
AcDbVertex
100
AcDb2dVertex
 10
385.9178382000455
 20
-245.7795740164838
 30
0.0
  0
VERTEX
  5
F5
330
F1
100
AcDbEntity
  8
Resized
 62
     7
420
 16777215
370
    35
100
AcDbVertex
100
AcDb2dVertex
 10
348.1954013931807
 20
-180.1062331721955
 30
0.0
  0
VERTEX
  5
F6
330
F1
100
AcDbEntity
  8
Resized
 62
     7
420
 16777215
370
    35
100
AcDbVertex
100
AcDb2dVertex
 10
358.7265585082988
 20
-180.1168232512038
 30
0.0
  0
VERTEX
  5
F7
330
F1
100
AcDbEntity
  8
Resized
 62
     7
420
 16777215
370
    35
100
AcDbVertex
100
AcDb2dVertex
 10
342.626388303093
 20
-152.0870301230175
 30
0.0
  0
VERTEX
  5
F8
330
F1
100
AcDbEntity
  8
Resized
 62
     7
420
 16777215
370
    35
100
AcDbVertex
100
AcDb2dVertex
 10
326.3092692105894
 20
-180.1723084228657
 30
0.0
  0
VERTEX
  5
F9
330
F1
100
AcDbEntity
  8
Resized
 62
     7
420
 16777215
370
    35
100
AcDbVertex
100
AcDb2dVertex
 10
336.3914131960634
 20
-180.1824475293465
 30
0.0
  0
VERTEX
  5
FA
330
F1
100
AcDbEntity
  8
Resized
 62
     7
420
 16777215
370
    35
100
AcDbVertex
100
AcDb2dVertex
 10
298.2805024336751
 20
-245.7795740164838
 30
0.0
  0
VERTEX
  5
FB
330
F1
100
AcDbEntity
  8
Resized
 62
     7
420
 16777215
370
    35
100
AcDbVertex
100
AcDb2dVertex
 10
293.265252505831
 20
-237.048217157166
 30
0.0
  0
VERTEX
  5
FC
330
F1
100
AcDbEntity
  8
Resized
 62
     7
420
 16777215
370
    35
100
AcDbVertex
100
AcDb2dVertex
 10
277.2934073108724
 20
-264.5392380719496
 30
0.0
  0
VERTEX
  5
FD
330
F1
100
AcDbEntity
  8
Resized
 62
     7
420
 16777215
370
    35
100
AcDbVertex
100
AcDb2dVertex
 10
309.4617286718348
 20
-264.5715681369409
 30
0.0
  0
VERTEX
  5
FE
330
F1
100
AcDbEntity
  8
Resized
 62
     7
420
 16777215
370
    35
100
AcDbVertex
100
AcDb2dVertex
 10
304.3767490607709
 20
-255.7188063630579
 30
0.0
  0
VERTEX
  5
FF
330
F1
100
AcDbEntity
  8
Resized
 62
     7
420
 16777215
370
    35
100
AcDbVertex
100
AcDb2dVertex
 10
380.2100655284719
 20
-255.7950207202124
 30
0.0
  0
VERTEX
  5
100
330
F1
100
AcDbEntity
  8
Resized
 62
     7
420
 16777215
370
    35
100
AcDbVertex
100
AcDb2dVertex
 10
375.0727109011088
 20
-264.6375189813968
 30
0.0
  0
VERTEX
  5
101
330
F1
100
AcDbEntity
  8
Resized
 62
     7
420
 16777215
370
    35
100
AcDbVertex
100
AcDb2dVertex
 10
407.2934072783711
 20
-264.6698956987168
 30
0.0
  0
SEQEND
  5
102
330
F1
100
AcDbEntity
  8
Resized
 62
     7
420
 16777215
370
    35
  0
SPLINE
  5
103
330
1F
100
AcDbEntity
  8
Resized
 62
     7
420
 16777215
370
    35
100
AcDbSpline
210
0.0
220
0.0
230
1.0
 70
    11
 71
     3
 72
    23
 73
    19
 74
     0
 42
0.0000000001
 43
0.0000000001
 12
1.0
 22
0.0
 32
0.0
 13
1.0
 23
0.0
 33
0.0
 40
0.0
 40
0.0
 40
0.0
 40
0.0
 40
1.0
 40
1.0
 40
1.0
 40
2.0
 40
2.0
 40
2.0
 40
3.0
 40
3.0
 40
3.0
 40
4.0
 40
4.0
 40
4.0
 40
5.0
 40
5.0
 40
5.0
 40
6.0
 40
6.0
 40
6.0
 40
6.0
 10
317.9300130398347
 20
-227.6765415118707
 30
0.0
 10
317.4332123730445
 20
-227.3897229843651
 30
0.0
 10
317.2770981246386
 20
-226.7300123797022
 30
0.0
 10
317.5813335221722
 20
-226.2030743074533
 30
0.0
 10
317.5813335221722
 20
-226.2030743074533
 30
0.0
 10
329.6730577426279
 20
-205.2595835628281
 30
0.0
 10
329.6730577426279
 20
-205.2595835628281
 30
0.0
 10
329.9772931401654
 20
-204.7326454905786
 30
0.0
 10
330.6266624782496
 20
-204.5379808664564
 30
0.0
 10
331.1234631450398
 20
-204.8248149447393
 30
0.0
 10
331.6202793626022
 20
-205.1116490230239
 30
0.0
 10
331.7763936110119
 20
-205.7713440769104
 30
0.0
 10
331.4721582134745
 20
-206.2982976999353
 30
0.0
 10
331.4721582134745
 20
-206.2982976999353
 30
0.0
 10
319.3804339930187
 20
-227.2417884445609
 30
0.0
 10
319.3804339930187
 20
-227.2417884445609
 30
0.0
 10
319.0761985954845
 20
-227.7687265168069
 30
0.0
 10
318.426829257401
 20
-227.9633755901524
 30
0.0
 10
317.9300130398347
 20
-227.6765415118707
 30
0.0
  0
SPLINE
  5
104
330
1F
100
AcDbEntity
  8
Resized
 62
     7
420
 16777215
370
    35
100
AcDbSpline
210
0.0
220
0.0
230
1.0
 70
    11
 71
     3
 72
    23
 73
    19
 74
     0
 42
0.0000000001
 43
0.0000000001
 12
1.0
 22
0.0
 32
0.0
 13
1.0
 23
0.0
 33
0.0
 40
0.0
 40
0.0
 40
0.0
 40
0.0
 40
1.0
 40
1.0
 40
1.0
 40
2.0
 40
2.0
 40
2.0
 40
3.0
 40
3.0
 40
3.0
 40
4.0
 40
4.0
 40
4.0
 40
5.0
 40
5.0
 40
5.0
 40
6.0
 40
6.0
 40
6.0
 40
6.0
 10
354.3851392904671
 20
-248.9227281271245
 30
0.0
 10
354.3851392904671
 20
-248.9227281271245
 30
0.0
 10
330.2016752987757
 20
-248.9227281271245
 30
0.0
 10
330.2016752987757
 20
-248.9227281271245
 30
0.0
 10
329.5932200544807
 20
-248.9227281271245
 30
0.0
 10
329.0999494140309
 20
-248.4576821465839
 30
0.0
 10
329.0999494140309
 20
-247.8840139900199
 30
0.0
 10
329.0999494140309
 20
-247.3103458334533
 30
0.0
 10
329.5932200544807
 20
-246.8452998529127
 30
0.0
 10
330.2016752987757
 20
-246.8452998529127
 30
0.0
 10
330.2016752987757
 20
-246.8452998529127
 30
0.0
 10
354.3851392904671
 20
-246.8452998529127
 30
0.0
 10
354.3851392904671
 20
-246.8452998529127
 30
0.0
 10
354.9935945347589
 20
-246.8452998529127
 30
0.0
 10
355.4868651752125
 20
-247.3103458334533
 30
0.0
 10
355.4868651752125
 20
-247.8840139900199
 30
0.0
 10
355.4868651752125
 20
-248.4576821465839
 30
0.0
 10
354.9935945347589
 20
-248.9227281271245
 30
0.0
 10
354.3851392904671
 20
-248.9227281271245
 30
0.0
  0
SPLINE
  5
105
330
1F
100
AcDbEntity
  8
Resized
 62
     7
420
 16777215
370
    35
100
AcDbSpline
210
0.0
220
0.0
230
1.0
 70
    11
 71
     3
 72
    32
 73
    28
 74
     0
 42
0.0000000001
 43
0.0000000001
 12
1.0
 22
0.0
 32
0.0
 13
1.0
 23
0.0
 33
0.0
 40
0.0
 40
0.0
 40
0.0
 40
0.0
 40
1.0
 40
1.0
 40
1.0
 40
2.0
 40
2.0
 40
2.0
 40
3.0
 40
3.0
 40
3.0
 40
4.0
 40
4.0
 40
4.0
 40
5.0
 40
5.0
 40
5.0
 40
6.0
 40
6.0
 40
6.0
 40
7.0
 40
7.0
 40
7.0
 40
8.0
 40
8.0
 40
8.0
 40
9.0
 40
9.0
 40
9.0
 40
9.0
 10
360.2343151755895
 20
-237.101851786389
 30
0.0
 10
359.8663682454568
 20
-237.5541616807222
 30
0.0
 10
359.4830415970615
 20
-237.7835200879092
 30
0.0
 10
358.8618658173352
 20
-237.7835200879092
 30
0.0
 10
358.8618658173352
 20
-237.7835200879092
 30
0.0
 10
325.7900754251946
 20
-237.7835200879092
 30
0.0
 10
325.7900754251946
 20
-237.7835200879092
 30
0.0
 10
325.1688996454682
 20
-237.7835200879092
 30
0.0
 10
324.7855729970723
 20
-237.5541616807222
 30
0.0
 10
324.4176105161643
 20
-237.101851786389
 30
0.0
 10
324.1336066792578
 20
-236.752736846976
 30
0.0
 10
324.1336066792578
 20
-236.1828941815046
 30
0.0
 10
324.3406652724995
 20
-235.7705808851302
 30
0.0
 10
324.3406652724995
 20
-235.7705808851302
 30
0.0
 10
341.083020356908
 20
-207.1725157199322
 30
0.0
 10
341.083020356908
 20
-207.1725157199322
 30
0.0
 10
341.5062502985996
 20
-206.4444439004069
 30
0.0
 10
341.9143959867903
 20
-206.0321306040338
 30
0.0
 10
342.3656328775197
 20
-206.0321306040338
 30
0.0
 10
342.9308880638337
 20
-206.0321306040338
 30
0.0
 10
343.121400630549
 20
-206.2382872522206
 30
0.0
 10
343.5934133590996
 20
-207.0803307149961
 30
0.0
 10
343.5934133590996
 20
-207.0803307149961
 30
0.0
 10
360.1670269643264
 20
-235.7705808851302
 30
0.0
 10
360.1670269643264
 20
-235.7705808851302
 30
0.0
 10
360.3740855575681
 20
-236.1828941815046
 30
0.0
 10
360.5183345632681
 20
-236.752736846976
 30
0.0
 10
360.2343151755895
 20
-237.101851786389
 30
0.0
  0
SPLINE
  5
106
330
1F
100
AcDbEntity
  8
Resized
 62
     7
420
 16777215
370
    35
100
AcDbSpline
210
0.0
220
0.0
230
1.0
 70
    11
 71
     3
 72
    23
 73
    19
 74
     0
 42
0.0000000001
 43
0.0000000001
 12
1.0
 22
0.0
 32
0.0
 13
1.0
 23
0.0
 33
0.0
 40
0.0
 40
0.0
 40
0.0
 40
0.0
 40
1.0
 40
1.0
 40
1.0
 40
2.0
 40
2.0
 40
2.0
 40
3.0
 40
3.0
 40
3.0
 40
4.0
 40
4.0
 40
4.0
 40
5.0
 40
5.0
 40
5.0
 40
6.0
 40
6.0
 40
6.0
 40
6.0
 10
366.9095638756993
 20
-227.7848837739148
 30
0.0
 10
366.4127632089091
 20
-228.0717178522
 30
0.0
 10
365.7633938708256
 20
-227.8770687788535
 30
0.0
 10
365.459158473292
 20
-227.3501151558247
 30
0.0
 10
365.459158473292
 20
-227.3501151558247
 30
0.0
 10
353.3674342528317
 20
-206.406624411202
 30
0.0
 10
353.3674342528317
 20
-206.406624411202
 30
0.0
 10
353.0632144060742
 20
-205.8796863389525
 30
0.0
 10
353.2193286544839
 20
-205.2199757342897
 30
0.0
 10
353.716129321271
 20
-204.9331572067834
 30
0.0
 10
354.2129299880611
 20
-204.6463231284998
 30
0.0
 10
354.8623148769207
 20
-204.8409722018466
 30
0.0
 10
355.1665347236783
 20
-205.3679102740949
 30
0.0
 10
355.1665347236783
 20
-205.3679102740949
 30
0.0
 10
367.2582589441379
 20
-226.3114165694968
 30
0.0
 10
367.2582589441379
 20
-226.3114165694968
 30
0.0
 10
367.5624943416721
 20
-226.8383546417466
 30
0.0
 10
367.4063800932624
 20
-227.4980496956325
 30
0.0
 10
366.9095638756993
 20
-227.7848837739148
 30
0.0
  0
POLYLINE
  5
107
330
1F
100
AcDbEntity
  8
Resized
 62
     7
420
 16777215
370
    35
100
AcDb2dPolyline
 66
     1
 10
0.0
 20
0.0
 30
0.0
  0
VERTEX
  5
108
330
107
100
AcDbEntity
  8
Resized
 62
     7
420
 16777215
370
    35
100
AcDbVertex
100
AcDb2dVertex
 10
346.7906295157203
 20
-152.0870301230175
 30
0.0
  0
VERTEX
  5
109
330
107
100
AcDbEntity
  8
Resized
 62
     7
420
 16777215
370
    35
100
AcDbVertex
100
AcDb2dVertex
 10
362.8736472141052
 20
-180.0869657597257
 30
0.0
  0
VERTEX
  5
10A
330
107
100
AcDbEntity
  8
Resized
 62
     7
420
 16777215
370
    35
100
AcDbVertex
100
AcDb2dVertex
 10
368.1661985940452
 20
-170.9773518052524
 30
0.0
  0
VERTEX
  5
10B
330
107
100
AcDbEntity
  8
Resized
 62
     7
420
 16777215
370
    35
100
AcDbVertex
100
AcDb2dVertex
 10
405.8886354009107
 20
-236.6506926495403
 30
0.0
  0
VERTEX
  5
10C
330
107
100
AcDbEntity
  8
Resized
 62
     7
420
 16777215
370
    35
100
AcDbVertex
100
AcDb2dVertex
 10
395.357478285792
 20
-236.6401025705337
 30
0.0
  0
VERTEX
  5
10D
330
107
100
AcDbEntity
  8
Resized
 62
     7
420
 16777215
370
    35
100
AcDbVertex
100
AcDb2dVertex
 10
411.4576484909984
 20
-264.6698956987168
 30
0.0
  0
VERTEX
  5
10E
330
107
100
AcDbEntity
  8
Resized
 62
     7
420
 16777215
370
    35
100
AcDbVertex
100
AcDb2dVertex
 10
427.774767583502
 20
-236.5846173988685
 30
0.0
  0
VERTEX
  5
10F
330
107
100
AcDbEntity
  8
Resized
 62
     7
420
 16777215
370
    35
100
AcDbVertex
100
AcDb2dVertex
 10
417.692623598028
 20
-236.574478292389
 30
0.0
  0
VERTEX
  5
110
330
107
100
AcDbEntity
  8
Resized
 62
     7
420
 16777215
370
    35
100
AcDbVertex
100
AcDb2dVertex
 10
455.8035343604162
 20
-170.9773518052524
 30
0.0
  0
VERTEX
  5
111
330
107
100
AcDbEntity
  8
Resized
 62
     7
420
 16777215
370
    35
100
AcDbVertex
100
AcDb2dVertex
 10
460.8187842882597
 20
-179.7087086645689
 30
0.0
  0
VERTEX
  5
112
330
107
100
AcDbEntity
  8
Resized
 62
     7
420
 16777215
370
    35
100
AcDbVertex
100
AcDb2dVertex
 10
476.790629483219
 20
-152.217687749786
 30
0.0
  0
VERTEX
  5
113
330
107
100
AcDbEntity
  8
Resized
 62
     7
420
 16777215
370
    35
100
AcDbVertex
100
AcDb2dVertex
 10
444.6223081222565
 20
-152.1853576847953
 30
0.0
  0
VERTEX
  5
114
330
107
100
AcDbEntity
  8
Resized
 62
     7
420
 16777215
370
    35
100
AcDbVertex
100
AcDb2dVertex
 10
449.7072877333198
 20
-161.038119458677
 30
0.0
  0
VERTEX
  5
115
330
107
100
AcDbEntity
  8
Resized
 62
     7
420
 16777215
370
    35
100
AcDbVertex
100
AcDb2dVertex
 10
373.8739712656188
 20
-160.9619051015251
 30
0.0
  0
VERTEX
  5
116
330
107
100
AcDbEntity
  8
Resized
 62
     7
420
 16777215
370
    35
100
AcDbVertex
100
AcDb2dVertex
 10
379.0113258929819
 20
-152.1194068403397
 30
0.0
  0
VERTEX
  5
117
330
107
100
AcDbEntity
  8
Resized
 62
     7
420
 16777215
370
    35
100
AcDbVertex
100
AcDb2dVertex
 10
346.7906295157203
 20
-152.0870301230175
 30
0.0
  0
SEQEND
  5
118
330
107
100
AcDbEntity
  8
Resized
 62
     7
420
 16777215
370
    35
  0
SPLINE
  5
119
330
1F
100
AcDbEntity
  8
Resized
 62
     7
420
 16777215
370
    35
100
AcDbSpline
210
0.0
220
0.0
230
1.0
 70
    11
 71
     3
 72
    23
 73
    19
 74
     0
 42
0.0000000001
 43
0.0000000001
 12
1.0
 22
0.0
 32
0.0
 13
1.0
 23
0.0
 33
0.0
 40
0.0
 40
0.0
 40
0.0
 40
0.0
 40
1.0
 40
1.0
 40
1.0
 40
2.0
 40
2.0
 40
2.0
 40
3.0
 40
3.0
 40
3.0
 40
4.0
 40
4.0
 40
4.0
 40
5.0
 40
5.0
 40
5.0
 40
6.0
 40
6.0
 40
6.0
 40
6.0
 10
436.1540237542566
 20
-189.0803843098655
 30
0.0
 10
436.6508244210469
 20
-189.3672028373717
 30
0.0
 10
436.8069386694528
 20
-190.0269134420352
 30
0.0
 10
436.5027032719191
 20
-190.5538515142841
 30
0.0
 10
436.5027032719191
 20
-190.5538515142841
 30
0.0
 10
424.4109790514628
 20
-211.4973422589081
 30
0.0
 10
424.4109790514628
 20
-211.4973422589081
 30
0.0
 10
424.1067436539253
 20
-212.0242803311576
 30
0.0
 10
423.4573743158418
 20
-212.2189449552798
 30
0.0
 10
422.9605736490516
 20
-211.9321108769969
 30
0.0
 10
422.4637574314885
 20
-211.6452767987126
 30
0.0
 10
422.3076431830788
 20
-210.9855817448261
 30
0.0
 10
422.6118785806163
 20
-210.4586281218009
 30
0.0
 10
422.6118785806163
 20
-210.4586281218009
 30
0.0
 10
434.7036028010726
 20
-189.515137377177
 30
0.0
 10
434.7036028010726
 20
-189.515137377177
 30
0.0
 10
435.0078381986062
 20
-188.9881993049287
 30
0.0
 10
435.6572075366904
 20
-188.7935502315825
 30
0.0
 10
436.1540237542566
 20
-189.0803843098655
 30
0.0
  0
SPLINE
  5
11A
330
1F
100
AcDbEntity
  8
Resized
 62
     7
420
 16777215
370
    35
100
AcDbSpline
210
0.0
220
0.0
230
1.0
 70
    11
 71
     3
 72
    23
 73
    19
 74
     0
 42
0.0000000001
 43
0.0000000001
 12
1.0
 22
0.0
 32
0.0
 13
1.0
 23
0.0
 33
0.0
 40
0.0
 40
0.0
 40
0.0
 40
0.0
 40
1.0
 40
1.0
 40
1.0
 40
2.0
 40
2.0
 40
2.0
 40
3.0
 40
3.0
 40
3.0
 40
4.0
 40
4.0
 40
4.0
 40
5.0
 40
5.0
 40
5.0
 40
6.0
 40
6.0
 40
6.0
 40
6.0
 10
399.6988975036236
 20
-167.8341976946104
 30
0.0
 10
399.6988975036236
 20
-167.8341976946104
 30
0.0
 10
423.882361495315
 20
-167.8341976946104
 30
0.0
 10
423.882361495315
 20
-167.8341976946104
 30
0.0
 10
424.4908167396101
 20
-167.8341976946104
 30
0.0
 10
424.9840873800605
 20
-168.2992436751517
 30
0.0
 10
424.9840873800605
 20
-168.8729118317176
 30
0.0
 10
424.9840873800605
 20
-169.4465799882848
 30
0.0
 10
424.4908167396101
 20
-169.9116259688248
 30
0.0
 10
423.882361495315
 20
-169.9116259688248
 30
0.0
 10
423.882361495315
 20
-169.9116259688248
 30
0.0
 10
399.6988975036236
 20
-169.9116259688248
 30
0.0
 10
399.6988975036236
 20
-169.9116259688248
 30
0.0
 10
399.0904422593318
 20
-169.9116259688248
 30
0.0
 10
398.5971716188782
 20
-169.4465799882848
 30
0.0
 10
398.5971716188782
 20
-168.8729118317176
 30
0.0
 10
398.5971716188782
 20
-168.2992436751517
 30
0.0
 10
399.0904422593318
 20
-167.8341976946104
 30
0.0
 10
399.6988975036236
 20
-167.8341976946104
 30
0.0
  0
SPLINE
  5
11B
330
1F
100
AcDbEntity
  8
Resized
 62
     7
420
 16777215
370
    35
100
AcDbSpline
210
0.0
220
0.0
230
1.0
 70
    11
 71
     3
 72
    32
 73
    28
 74
     0
 42
0.0000000001
 43
0.0000000001
 12
1.0
 22
0.0
 32
0.0
 13
1.0
 23
0.0
 33
0.0
 40
0.0
 40
0.0
 40
0.0
 40
0.0
 40
1.0
 40
1.0
 40
1.0
 40
2.0
 40
2.0
 40
2.0
 40
3.0
 40
3.0
 40
3.0
 40
4.0
 40
4.0
 40
4.0
 40
5.0
 40
5.0
 40
5.0
 40
6.0
 40
6.0
 40
6.0
 40
7.0
 40
7.0
 40
7.0
 40
8.0
 40
8.0
 40
8.0
 40
9.0
 40
9.0
 40
9.0
 40
9.0
 10
393.8497216185013
 20
-179.6550740353472
 30
0.0
 10
394.2176685486339
 20
-179.2027641410152
 30
0.0
 10
394.6009951970292
 20
-178.9734057338264
 30
0.0
 10
395.2221709767556
 20
-178.9734057338264
 30
0.0
 10
395.2221709767556
 20
-178.9734057338264
 30
0.0
 10
428.2939613688967
 20
-178.9734057338264
 30
0.0
 10
428.2939613688967
 20
-178.9734057338264
 30
0.0
 10
428.9151371486231
 20
-178.9734057338264
 30
0.0
 10
429.2984637970184
 20
-179.2027641410152
 30
0.0
 10
429.6664262779271
 20
-179.6550740353472
 30
0.0
 10
429.9504301148335
 20
-180.0041889747602
 30
0.0
 10
429.9504301148335
 20
-180.5740316402316
 30
0.0
 10
429.7433715215912
 20
-180.9863449366047
 30
0.0
 10
429.7433715215912
 20
-180.9863449366047
 30
0.0
 10
413.0010164371834
 20
-209.584410101804
 30
0.0
 10
413.0010164371834
 20
-209.584410101804
 30
0.0
 10
412.5777864954918
 20
-210.3124819213293
 30
0.0
 10
412.1696408073004
 20
-210.7247952177024
 30
0.0
 10
411.7184039165716
 20
-210.7247952177024
 30
0.0
 10
411.1531487302577
 20
-210.7247952177024
 30
0.0
 10
410.9626361635424
 20
-210.5186385695155
 30
0.0
 10
410.4906234349917
 20
-209.6765951067401
 30
0.0
 10
410.4906234349917
 20
-209.6765951067401
 30
0.0
 10
393.917009829765
 20
-180.9863449366047
 30
0.0
 10
393.917009829765
 20
-180.9863449366047
 30
0.0
 10
393.7099512365227
 20
-180.5740316402316
 30
0.0
 10
393.5657022308226
 20
-180.0041889747602
 30
0.0
 10
393.8497216185013
 20
-179.6550740353472
 30
0.0
  0
SPLINE
  5
11C
330
1F
100
AcDbEntity
  8
Resized
 62
     7
420
 16777215
370
    35
100
AcDbSpline
210
0.0
220
0.0
230
1.0
 70
    11
 71
     3
 72
    23
 73
    19
 74
     0
 42
0.0000000001
 43
0.0000000001
 12
1.0
 22
0.0
 32
0.0
 13
1.0
 23
0.0
 33
0.0
 40
0.0
 40
0.0
 40
0.0
 40
0.0
 40
1.0
 40
1.0
 40
1.0
 40
2.0
 40
2.0
 40
2.0
 40
3.0
 40
3.0
 40
3.0
 40
4.0
 40
4.0
 40
4.0
 40
5.0
 40
5.0
 40
5.0
 40
6.0
 40
6.0
 40
6.0
 40
6.0
 10
387.1744729183914
 20
-188.9720420478214
 30
0.0
 10
387.6712735851816
 20
-188.6852079695378
 30
0.0
 10
388.3206429232651
 20
-188.879857042884
 30
0.0
 10
388.6248783207994
 20
-189.4068106659102
 30
0.0
 10
388.6248783207994
 20
-189.4068106659102
 30
0.0
 10
400.716602541259
 20
-210.3503014105341
 30
0.0
 10
400.716602541259
 20
-210.3503014105341
 30
0.0
 10
401.0208223880165
 20
-210.8772394827836
 30
0.0
 10
400.8647081396068
 20
-211.5369500874465
 30
0.0
 10
400.3679074728198
 20
-211.8237686149528
 30
0.0
 10
399.8711068060296
 20
-212.1106026932364
 30
0.0
 10
399.22172191717
 20
-211.9159536198895
 30
0.0
 10
398.9175020704125
 20
-211.3890155476413
 30
0.0
 10
398.9175020704125
 20
-211.3890155476413
 30
0.0
 10
386.8257778499529
 20
-190.4455092522407
 30
0.0
 10
386.8257778499529
 20
-190.4455092522407
 30
0.0
 10
386.5215424524186
 20
-189.9185711799912
 30
0.0
 10
386.6776567008283
 20
-189.2588761261044
 30
0.0
 10
387.1744729183914
 20
-188.9720420478214
 30
0.0
  0
POLYLINE
  5
11D
330
1F
100
AcDbEntity
  8
Resized
 62
     7
420
 16777215
370
    35
100
AcDb2dPolyline
 66
     1
 10
0.0
 20
0.0
 30
0.0
  0
VERTEX
  5
11E
330
11D
100
AcDbEntity
  8
Resized
 62
     7
420
 16777215
370
    35
100
AcDbVertex
100
AcDb2dVertex
 10
171.1765184485122
 20
-415.4901143009205
 30
0.0
  0
VERTEX
  5
11F
330
11D
100
AcDbEntity
  8
Resized
 62
     7
420
 16777215
370
    35
100
AcDbVertex
100
AcDb2dVertex
 10
150.1448799198543
 20
-378.8748138529178
 30
0.0
  0
VERTEX
  5
120
330
11D
100
AcDbEntity
  8
Resized
 62
     7
420
 16777215
370
    35
100
AcDbVertex
100
AcDb2dVertex
 10
143.2238511922419
 20
-390.7873859472285
 30
0.0
  0
VERTEX
  5
121
330
11D
100
AcDbEntity
  8
Resized
 62
     7
420
 16777215
370
    35
100
AcDbVertex
100
AcDb2dVertex
 10
93.89451075249382
 20
-304.9068633046992
 30
0.0
  0
VERTEX
  5
122
330
11D
100
AcDbEntity
  8
Resized
 62
     7
420
 16777215
370
    35
100
AcDbVertex
100
AcDb2dVertex
 10
107.6660239030344
 20
-304.920711869556
 30
0.0
  0
VERTEX
  5
123
330
11D
100
AcDbEntity
  8
Resized
 62
     7
420
 16777215
370
    35
100
AcDbVertex
100
AcDb2dVertex
 10
86.6119551731469
 20
-268.2663670096208
 30
0.0
  0
VERTEX
  5
124
330
11D
100
AcDbEntity
  8
Resized
 62
     7
420
 16777215
370
    35
100
AcDbVertex
100
AcDb2dVertex
 10
65.27418405218256
 20
-304.9932694017298
 30
0.0
  0
VERTEX
  5
125
330
11D
100
AcDbEntity
  8
Resized
 62
     7
420
 16777215
370
    35
100
AcDbVertex
100
AcDb2dVertex
 10
78.45852618703015
 20
-305.0065282332823
 30
0.0
  0
VERTEX
  5
126
330
11D
100
AcDbEntity
  8
Resized
 62
     7
420
 16777215
370
    35
100
AcDbVertex
100
AcDb2dVertex
 10
28.62118134390744
 20
-390.7873859472285
 30
0.0
  0
VERTEX
  5
127
330
11D
100
AcDbEntity
  8
Resized
 62
     7
420
 16777215
370
    35
100
AcDbVertex
100
AcDb2dVertex
 10
22.06277759211583
 20
-379.3694577465865
 30
0.0
  0
VERTEX
  5
128
330
11D
100
AcDbEntity
  8
Resized
 62
     7
420
 16777215
370
    35
100
AcDbVertex
100
AcDb2dVertex
 10
1.176518491012046
 20
-415.3192543274557
 30
0.0
  0
VERTEX
  5
129
330
11D
100
AcDbEntity
  8
Resized
 62
     7
420
 16777215
370
    35
100
AcDbVertex
100
AcDb2dVertex
 10
43.24278488611635
 20
-415.3615321047513
 30
0.0
  0
VERTEX
  5
12A
330
11D
100
AcDbEntity
  8
Resized
 62
     7
420
 16777215
370
    35
100
AcDbVertex
100
AcDb2dVertex
 10
36.5931961639583
 20
-403.7848436312145
 30
0.0
  0
VERTEX
  5
12B
330
11D
100
AcDbEntity
  8
Resized
 62
     7
420
 16777215
370
    35
100
AcDbVertex
100
AcDb2dVertex
 10
135.7598407755663
 20
-403.8845085597951
 30
0.0
  0
VERTEX
  5
12C
330
11D
100
AcDbEntity
  8
Resized
 62
     7
420
 16777215
370
    35
100
AcDbVertex
100
AcDb2dVertex
 10
129.0417616474766
 20
-415.4477755167331
 30
0.0
  0
VERTEX
  5
12D
330
11D
100
AcDbEntity
  8
Resized
 62
     7
420
 16777215
370
    35
100
AcDbVertex
100
AcDb2dVertex
 10
171.1765184485122
 20
-415.4901143009205
 30
0.0
  0
SEQEND
  5
12E
330
11D
100
AcDbEntity
  8
Resized
 62
     7
420
 16777215
370
    35
  0
SPLINE
  5
12F
330
1F
100
AcDbEntity
  8
Resized
 62
     7
420
 16777215
370
    35
100
AcDbSpline
210
0.0
220
0.0
230
1.0
 70
    11
 71
     3
 72
    23
 73
    19
 74
     0
 42
0.0000000001
 43
0.0000000001
 12
1.0
 22
0.0
 32
0.0
 13
1.0
 23
0.0
 33
0.0
 40
0.0
 40
0.0
 40
0.0
 40
0.0
 40
1.0
 40
1.0
 40
1.0
 40
2.0
 40
2.0
 40
2.0
 40
3.0
 40
3.0
 40
3.0
 40
4.0
 40
4.0
 40
4.0
 40
5.0
 40
5.0
 40
5.0
 40
6.0
 40
6.0
 40
6.0
 40
6.0
 10
54.31669521350172
 20
-367.1141895950437
 30
0.0
 10
53.6670328030857
 20
-366.7391192129207
 30
0.0
 10
53.46288340132129
 20
-365.8764207299002
 30
0.0
 10
53.86072969040586
 20
-365.1873478661865
 30
0.0
 10
53.86072969040586
 20
-365.1873478661865
 30
0.0
 10
69.67298444023538
 20
-337.7997061232192
 30
0.0
 10
69.67298444023538
 20
-337.7997061232192
 30
0.0
 10
70.07083072931962
 20
-337.1106332595087
 30
0.0
 10
70.92000601758312
 20
-336.8560718279637
 30
0.0
 10
71.56966842799946
 20
-337.2311625457185
 30
0.0
 10
72.21935117404671
 20
-337.6062532634733
 30
0.0
 10
72.42350057581079
 20
-338.4689314108639
 30
0.0
 10
72.02565428672688
 20
-339.1580246102049
 30
0.0
 10
72.02565428672688
 20
-339.1580246102049
 30
0.0
 10
56.21339953689703
 20
-366.5456663531742
 30
0.0
 10
56.21339953689703
 20
-366.5456663531742
 30
0.0
 10
55.81555324781279
 20
-367.234739216884
 30
0.0
 10
54.96637795954897
 20
-367.4892803127985
 30
0.0
 10
54.31669521350172
 20
-367.1141895950437
 30
0.0
  0
SPLINE
  5
130
330
1F
100
AcDbEntity
  8
Resized
 62
     7
420
 16777215
370
    35
100
AcDbSpline
210
0.0
220
0.0
230
1.0
 70
    11
 71
     3
 72
    23
 73
    19
 74
     0
 42
0.0000000001
 43
0.0000000001
 12
1.0
 22
0.0
 32
0.0
 13
1.0
 23
0.0
 33
0.0
 40
0.0
 40
0.0
 40
0.0
 40
0.0
 40
1.0
 40
1.0
 40
1.0
 40
2.0
 40
2.0
 40
2.0
 40
3.0
 40
3.0
 40
3.0
 40
4.0
 40
4.0
 40
4.0
 40
5.0
 40
5.0
 40
5.0
 40
6.0
 40
6.0
 40
6.0
 40
6.0
 10
101.9887833874078
 20
-394.8976643996072
 30
0.0
 10
101.9887833874078
 20
-394.8976643996072
 30
0.0
 10
70.36425355211652
 20
-394.8976643996072
 30
0.0
 10
70.36425355211652
 20
-394.8976643996072
 30
0.0
 10
69.56858130957893
 20
-394.8976643996072
 30
0.0
 10
68.92353508744895
 20
-394.2895273481323
 30
0.0
 10
68.92353508744895
 20
-393.5393459126201
 30
0.0
 10
68.92353508744895
 20
-392.7891644771111
 30
0.0
 10
69.56858130957893
 20
-392.1810274256363
 30
0.0
 10
70.36425355211652
 20
-392.1810274256363
 30
0.0
 10
70.36425355211652
 20
-392.1810274256363
 30
0.0
 10
101.9887833874078
 20
-392.1810274256363
 30
0.0
 10
101.9887833874078
 20
-392.1810274256363
 30
0.0
 10
102.784455629945
 20
-392.1810274256363
 30
0.0
 10
103.429501852075
 20
-392.7891644771111
 30
0.0
 10
103.429501852075
 20
-393.5393459126201
 30
0.0
 10
103.429501852075
 20
-394.2895273481323
 30
0.0
 10
102.784455629945
 20
-394.8976643996072
 30
0.0
 10
101.9887833874078
 20
-394.8976643996072
 30
0.0
  0
SPLINE
  5
131
330
1F
100
AcDbEntity
  8
Resized
 62
     7
420
 16777215
370
    35
100
AcDbSpline
210
0.0
220
0.0
230
1.0
 70
    11
 71
     3
 72
    32
 73
    28
 74
     0
 42
0.0000000001
 43
0.0000000001
 12
1.0
 22
0.0
 32
0.0
 13
1.0
 23
0.0
 33
0.0
 40
0.0
 40
0.0
 40
0.0
 40
0.0
 40
1.0
 40
1.0
 40
1.0
 40
2.0
 40
2.0
 40
2.0
 40
3.0
 40
3.0
 40
3.0
 40
4.0
 40
4.0
 40
4.0
 40
5.0
 40
5.0
 40
5.0
 40
6.0
 40
6.0
 40
6.0
 40
7.0
 40
7.0
 40
7.0
 40
8.0
 40
8.0
 40
8.0
 40
9.0
 40
9.0
 40
9.0
 40
9.0
 10
109.6377056987185
 20
-379.4395953386443
 30
0.0
 10
109.1565443285476
 20
-380.0310775081567
 30
0.0
 10
108.6552710191048
 20
-380.331007732942
 30
0.0
 10
107.8429642302337
 20
-380.331007732942
 30
0.0
 10
107.8429642302337
 20
-380.331007732942
 30
0.0
 10
64.59523833281749
 20
-380.331007732942
 30
0.0
 10
64.59523833281749
 20
-380.331007732942
 30
0.0
 10
63.78293154394608
 20
-380.331007732942
 30
0.0
 10
63.28165823450357
 20
-380.0310775081567
 30
0.0
 10
62.80047652870081
 20
-379.4395953386443
 30
0.0
 10
62.42908689582717
 20
-378.9830604178759
 30
0.0
 10
62.42908689582717
 20
-378.2378815476435
 30
0.0
 10
62.69985582545044
 20
-377.6987026216152
 30
0.0
 10
62.69985582545044
 20
-377.6987026216152
 30
0.0
 10
84.59370478198086
 20
-340.3012327902019
 30
0.0
 10
84.59370478198086
 20
-340.3012327902019
 30
0.0
 10
85.14715932112068
 20
-339.3491388723613
 30
0.0
 10
85.68088829798174
 20
-338.8099599463348
 30
0.0
 10
86.2709673089384
 20
-338.8099599463348
 30
0.0
 10
87.01014716796186
 20
-338.8099599463348
 30
0.0
 10
87.25927898597308
 20
-339.079549409348
 30
0.0
 10
87.8765264002333
 20
-340.1806831683622
 30
0.0
 10
87.8765264002333
 20
-340.1806831683622
 30
0.0
 10
109.5497134224525
 20
-377.6987026216152
 30
0.0
 10
109.5497134224525
 20
-377.6987026216152
 30
0.0
 10
109.8204823520764
 20
-378.2378815476435
 30
0.0
 10
110.009115667224
 20
-378.9830604178759
 30
0.0
 10
109.6377056987185
 20
-379.4395953386443
 30
0.0
  0
SPLINE
  5
132
330
1F
100
AcDbEntity
  8
Resized
 62
     7
420
 16777215
370
    35
100
AcDbSpline
210
0.0
220
0.0
230
1.0
 70
    11
 71
     3
 72
    23
 73
    19
 74
     0
 42
0.0000000001
 43
0.0000000001
 12
1.0
 22
0.0
 32
0.0
 13
1.0
 23
0.0
 33
0.0
 40
0.0
 40
0.0
 40
0.0
 40
0.0
 40
1.0
 40
1.0
 40
1.0
 40
2.0
 40
2.0
 40
2.0
 40
3.0
 40
3.0
 40
3.0
 40
4.0
 40
4.0
 40
4.0
 40
5.0
 40
5.0
 40
5.0
 40
6.0
 40
6.0
 40
6.0
 40
6.0
 10
118.3668770757858
 20
-367.2558679377166
 30
0.0
 10
117.7172146653701
 20
-367.6309586554714
 30
0.0
 10
116.8680393771066
 20
-367.376417559557
 30
0.0
 10
116.4701930880218
 20
-366.6873243602153
 30
0.0
 10
116.4701930880218
 20
-366.6873243602153
 30
0.0
 10
100.6579383381922
 20
-339.2996826172472
 30
0.0
 10
100.6579383381922
 20
-339.2996826172472
 30
0.0
 10
100.2601123847389
 20
-338.6106097535374
 30
0.0
 10
100.4642617865033
 20
-337.7479112705157
 30
0.0
 10
101.11392419692
 20
-337.3728408883914
 30
0.0
 10
101.7635866073357
 20
-336.9977501706359
 30
0.0
 10
102.6127822312304
 20
-337.252291266551
 30
0.0
 10
103.0106081846837
 20
-337.9413641302609
 30
0.0
 10
103.0106081846837
 20
-337.9413641302609
 30
0.0
 10
118.8228629345136
 20
-365.3290262088632
 30
0.0
 10
118.8228629345136
 20
-365.3290262088632
 30
0.0
 10
119.2207092235978
 20
-366.0180990725693
 30
0.0
 10
119.0165598218334
 20
-366.8807772199617
 30
0.0
 10
118.3668770757858
 20
-367.2558679377166
 30
0.0
  0
POLYLINE
  5
133
330
1F
100
AcDbEntity
  8
Resized
 62
     7
420
 16777215
370
    35
100
AcDb2dPolyline
 66
     1
 10
0.0
 20
0.0
 30
0.0
  0
VERTEX
  5
134
330
133
100
AcDbEntity
  8
Resized
 62
     7
420
 16777215
370
    35
100
AcDbVertex
100
AcDb2dVertex
 10
90.60404270811138
 20
-268.1740286251928
 30
0.0
  0
VERTEX
  5
135
330
133
100
AcDbEntity
  8
Resized
 62
     7
420
 16777215
370
    35
100
AcDbVertex
100
AcDb2dVertex
 10
111.6356777797036
 20
-304.7893310589162
 30
0.0
  0
VERTEX
  5
136
330
133
100
AcDbEntity
  8
Resized
 62
     7
420
 16777215
370
    35
100
AcDbVertex
100
AcDb2dVertex
 10
118.5567076320518
 20
-292.8767596180605
 30
0.0
  0
VERTEX
  5
137
330
133
100
AcDbEntity
  8
Resized
 62
     7
420
 16777215
370
    35
100
AcDbVertex
100
AcDb2dVertex
 10
167.8860399633152
 20
-378.7572869180652
 30
0.0
  0
VERTEX
  5
138
330
133
100
AcDbEntity
  8
Resized
 62
     7
420
 16777215
370
    35
100
AcDbVertex
100
AcDb2dVertex
 10
154.1145268140818
 20
-378.743437052956
 30
0.0
  0
VERTEX
  5
139
330
133
100
AcDbEntity
  8
Resized
 62
     7
420
 16777215
370
    35
100
AcDbVertex
100
AcDb2dVertex
 10
175.1685920832174
 20
-415.3977839007298
 30
0.0
  0
VERTEX
  5
13A
330
133
100
AcDbEntity
  8
Resized
 62
     7
420
 16777215
370
    35
100
AcDbVertex
100
AcDb2dVertex
 10
196.5063666717843
 20
-378.6708835232449
 30
0.0
  0
VERTEX
  5
13B
330
133
100
AcDbEntity
  8
Resized
 62
     7
420
 16777215
370
    35
100
AcDbVertex
100
AcDb2dVertex
 10
183.3220245381887
 20
-378.6576234468839
 30
0.0
  0
VERTEX
  5
13C
330
133
100
AcDbEntity
  8
Resized
 62
     7
420
 16777215
370
    35
100
AcDbVertex
100
AcDb2dVertex
 10
233.1593774803859
 20
-292.8767704383724
 30
0.0
  0
VERTEX
  5
13D
330
133
100
AcDbEntity
  8
Resized
 62
     7
420
 16777215
370
    35
100
AcDbVertex
100
AcDb2dVertex
 10
239.7177801541437
 20
-304.2946992582341
 30
0.0
  0
VERTEX
  5
13E
330
133
100
AcDbEntity
  8
Resized
 62
     7
420
 16777215
370
    35
100
AcDbVertex
100
AcDb2dVertex
 10
260.6040426494793
 20
-268.3449046493587
 30
0.0
  0
VERTEX
  5
13F
330
133
100
AcDbEntity
  8
Resized
 62
     7
420
 16777215
370
    35
100
AcDbVertex
100
AcDb2dVertex
 10
218.537776258367
 20
-268.302622900339
 30
0.0
  0
VERTEX
  5
140
330
133
100
AcDbEntity
  8
Resized
 62
     7
420
 16777215
370
    35
100
AcDbVertex
100
AcDb2dVertex
 10
225.1873638875014
 20
-279.8793120017032
 30
0.0
  0
VERTEX
  5
141
330
133
100
AcDbEntity
  8
Resized
 62
     7
420
 16777215
370
    35
100
AcDbVertex
100
AcDb2dVertex
 10
126.0207192853046
 20
-279.7796377102152
 30
0.0
  0
VERTEX
  5
142
330
133
100
AcDbEntity
  8
Resized
 62
     7
420
 16777215
370
    35
100
AcDbVertex
100
AcDb2dVertex
 10
132.7387995051495
 20
-268.2163713875719
 30
0.0
  0
VERTEX
  5
143
330
133
100
AcDbEntity
  8
Resized
 62
     7
420
 16777215
370
    35
100
AcDbVertex
100
AcDb2dVertex
 10
90.60404270811138
 20
-268.1740286251928
 30
0.0
  0
SEQEND
  5
144
330
133
100
AcDbEntity
  8
Resized
 62
     7
420
 16777215
370
    35
  0
SPLINE
  5
145
330
1F
100
AcDbEntity
  8
Resized
 62
     7
420
 16777215
370
    35
100
AcDbSpline
210
0.0
220
0.0
230
1.0
 70
    11
 71
     3
 72
    23
 73
    19
 74
     0
 42
0.0000000001
 43
0.0000000001
 12
1.0
 22
0.0
 32
0.0
 13
1.0
 23
0.0
 33
0.0
 40
0.0
 40
0.0
 40
0.0
 40
0.0
 40
1.0
 40
1.0
 40
1.0
 40
2.0
 40
2.0
 40
2.0
 40
3.0
 40
3.0
 40
3.0
 40
4.0
 40
4.0
 40
4.0
 40
5.0
 40
5.0
 40
5.0
 40
6.0
 40
6.0
 40
6.0
 40
6.0
 10
207.4638613756663
 20
-316.5499643644927
 30
0.0
 10
208.1135237506698
 20
-316.9250348079551
 30
0.0
 10
208.3176730709815
 20
-317.7877333102522
 30
0.0
 10
207.9198267168379
 20
-318.4768061363989
 30
0.0
 10
207.9198267168379
 20
-318.4768061363989
 30
0.0
 10
192.1075693811798
 20
-345.8644463864406
 30
0.0
 10
192.1075693811798
 20
-345.8644463864406
 30
0.0
 10
191.7097230270365
 20
-346.5535192125873
 30
0.0
 10
190.8605477147382
 20
-346.8080805639578
 30
0.0
 10
190.2108853397363
 20
-346.4329897848636
 30
0.0
 10
189.5612026291034
 20
-346.0578990057681
 30
0.0
 10
189.3570533087899
 20
-345.1952208391035
 30
0.0
 10
189.754899662935
 20
-344.5061276773249
 30
0.0
 10
189.754899662935
 20
-344.5061276773249
 30
0.0
 10
205.5671569985928
 20
-317.1184874272826
 30
0.0
 10
205.5671569985928
 20
-317.1184874272826
 30
0.0
 10
205.9650033527367
 20
-316.4294146011365
 30
0.0
 10
206.8141786650331
 20
-316.1748735853972
 30
0.0
 10
207.4638613756663
 20
-316.5499643644927
 30
0.0
  0
SPLINE
  5
146
330
1F
100
AcDbEntity
  8
Resized
 62
     7
420
 16777215
370
    35
100
AcDbSpline
210
0.0
220
0.0
230
1.0
 70
    11
 71
     3
 72
    23
 73
    19
 74
     0
 42
0.0000000001
 43
0.0000000001
 12
1.0
 22
0.0
 32
0.0
 13
1.0
 23
0.0
 33
0.0
 40
0.0
 40
0.0
 40
0.0
 40
0.0
 40
1.0
 40
1.0
 40
1.0
 40
2.0
 40
2.0
 40
2.0
 40
3.0
 40
3.0
 40
3.0
 40
4.0
 40
4.0
 40
4.0
 40
5.0
 40
5.0
 40
5.0
 40
6.0
 40
6.0
 40
6.0
 40
6.0
 10
159.7917758249615
 20
-288.7664850589277
 30
0.0
 10
159.7917758249615
 20
-288.7664850589277
 30
0.0
 10
191.4163056602527
 20
-288.766488044785
 30
0.0
 10
191.4163056602527
 20
-288.766488044785
 30
0.0
 10
192.21197790279
 20
-288.7664881199097
 30
0.0
 10
192.8570240675026
 20
-289.3746252322882
 30
0.0
 10
192.8570239966732
 20
-290.1248066677979
 30
0.0
 10
192.8570239258443
 20
-290.8749881033082
 30
0.0
 10
192.2119776462964
 20
-291.4831250938809
 30
0.0
 10
191.4163054037592
 20
-291.4831250187572
 30
0.0
 10
191.4163054037592
 20
-291.4831250187572
 30
0.0
 10
159.7917755684679
 20
-291.4831220328995
 30
0.0
 10
159.7917755684679
 20
-291.4831220328995
 30
0.0
 10
158.9961033259307
 20
-291.4831219577752
 30
0.0
 10
158.3510571612186
 20
-290.8749848453973
 30
0.0
 10
158.3510572320471
 20
-290.1248034098867
 30
0.0
 10
158.3510573028763
 20
-289.3746219743767
 30
0.0
 10
158.9961035824242
 20
-288.7664849838033
 30
0.0
 10
159.7917758249615
 20
-288.7664850589277
 30
0.0
  0
SPLINE
  5
147
330
1F
100
AcDbEntity
  8
Resized
 62
     7
420
 16777215
370
    35
100
AcDbSpline
210
0.0
220
0.0
230
1.0
 70
    11
 71
     3
 72
    32
 73
    28
 74
     0
 42
0.0000000001
 43
0.0000000001
 12
1.0
 22
0.0
 32
0.0
 13
1.0
 23
0.0
 33
0.0
 40
0.0
 40
0.0
 40
0.0
 40
0.0
 40
1.0
 40
1.0
 40
1.0
 40
2.0
 40
2.0
 40
2.0
 40
3.0
 40
3.0
 40
3.0
 40
4.0
 40
4.0
 40
4.0
 40
5.0
 40
5.0
 40
5.0
 40
6.0
 40
6.0
 40
6.0
 40
7.0
 40
7.0
 40
7.0
 40
8.0
 40
8.0
 40
8.0
 40
9.0
 40
9.0
 40
9.0
 40
9.0
 10
152.1428520541637
 20
-304.2245533977106
 30
0.0
 10
152.6240134801797
 20
-303.6330712736292
 30
0.0
 10
153.1252868179407
 20
-303.3331410961717
 30
0.0
 10
153.9375936068121
 20
-303.3331411728663
 30
0.0
 10
153.9375936068121
 20
-303.3331411728663
 30
0.0
 10
197.1853195042277
 20
-303.3331452561385
 30
0.0
 10
197.1853195042277
 20
-303.3331452561385
 30
0.0
 10
197.9976262930994
 20
-303.3331453328331
 30
0.0
 10
198.4988995742234
 20
-303.6330756049466
 30
0.0
 10
198.980081224181
 20
-304.2245578198887
 30
0.0
 10
199.3514708139508
 20
-304.6810927757237
 30
0.0
 10
199.3514707435939
 20
-305.4262716459558
 30
0.0
 10
199.0807017630634
 20
-305.9654505464175
 30
0.0
 10
199.0807017630634
 20
-305.9654505464175
 30
0.0
 10
177.186849275618
 20
-343.3629183107045
 30
0.0
 10
177.186849275618
 20
-343.3629183107045
 30
0.0
 10
176.6333946465858
 20
-344.3150121762903
 30
0.0
 10
176.0996656188175
 20
-344.8541910519241
 30
0.0
 10
175.5095866078611
 20
-344.8541909962118
 30
0.0
 10
174.770406748838
 20
-344.8541909264219
 30
0.0
 10
174.5212749562795
 20
-344.5846014398866
 30
0.0
 10
173.9040276459838
 20
-343.4834676225939
 30
0.0
 10
173.9040276459838
 20
-343.4834676225939
 30
0.0
 10
152.230844166062
 20
-305.9654461230468
 30
0.0
 10
152.230844166062
 20
-305.9654461230468
 30
0.0
 10
151.960075287345
 20
-305.4262671714551
 30
0.0
 10
151.7714420425539
 20
-304.6810882834136
 30
0.0
 10
152.1428520541637
 20
-304.2245533977106
 30
0.0
  0
SPLINE
  5
148
330
1F
100
AcDbEntity
  8
Resized
 62
     7
420
 16777215
370
    35
100
AcDbSpline
210
0.0
220
0.0
230
1.0
 70
    11
 71
     3
 72
    23
 73
    19
 74
     0
 42
0.0000000001
 43
0.0000000001
 12
1.0
 22
0.0
 32
0.0
 13
1.0
 23
0.0
 33
0.0
 40
0.0
 40
0.0
 40
0.0
 40
0.0
 40
1.0
 40
1.0
 40
1.0
 40
2.0
 40
2.0
 40
2.0
 40
3.0
 40
3.0
 40
3.0
 40
4.0
 40
4.0
 40
4.0
 40
5.0
 40
5.0
 40
5.0
 40
6.0
 40
6.0
 40
6.0
 40
6.0
 10
143.413679526759
 20
-316.408279974466
 30
0.0
 10
144.0633419725891
 20
-316.0331893180493
 30
0.0
 10
144.9125172368197
 20
-316.2877304941389
 30
0.0
 10
145.3103634608434
 20
-316.9768237310437
 30
0.0
 10
145.3103634608434
 20
-316.9768237310437
 30
0.0
 10
161.1226156248449
 20
-344.3644669669405
 30
0.0
 10
161.1226156248449
 20
-344.3644669669405
 30
0.0
 10
161.520441513239
 20
-345.0535398682116
 30
0.0
 10
161.3162920300218
 20
-345.9162383319587
 30
0.0
 10
160.6666295841926
 20
-346.2913086527442
 30
0.0
 10
160.0169671383625
 20
-346.6663993091603
 30
0.0
 10
159.1677715385004
 20
-346.4118581330687
 30
0.0
 10
158.7699456501063
 20
-345.722785231797
 30
0.0
 10
158.7699456501063
 20
-345.722785231797
 30
0.0
 10
142.9576934861067
 20
-318.335121660269
 30
0.0
 10
142.9576934861067
 20
-318.335121660269
 30
0.0
 10
142.5598472620821
 20
-317.6460487589954
 30
0.0
 10
142.7639967452971
 20
-316.7833706308808
 30
0.0
 10
143.413679526759
 20
-316.408279974466
 30
0.0
  0
POLYLINE
  5
149
330
1F
100
AcDbEntity
  8
Resized
 62
     7
420
 16777215
370
    35
100
AcDb2dPolyline
 66
     1
 10
0.0
 20
0.0
 30
0.0
  0
VERTEX
  5
14A
330
149
100
AcDbEntity
  8
Resized
 62
     7
420
 16777215
370
    35
100
AcDbVertex
100
AcDb2dVertex
 10
329.3295184089732
 20
-380.7337845585897
 30
0.0
  0
VERTEX
  5
14B
330
149
100
AcDbEntity
  8
Resized
 62
     7
420
 16777215
370
    35
100
AcDbVertex
100
AcDb2dVertex
 10
313.2465007105882
 20
-352.7338489218828
 30
0.0
  0
VERTEX
  5
14C
330
149
100
AcDbEntity
  8
Resized
 62
     7
420
 16777215
370
    35
100
AcDbVertex
100
AcDb2dVertex
 10
307.9539493306482
 20
-361.8434628763567
 30
0.0
  0
VERTEX
  5
14D
330
149
100
AcDbEntity
  8
Resized
 62
     7
420
 16777215
370
    35
100
AcDbVertex
100
AcDb2dVertex
 10
270.2315125237828
 20
-296.1701220320684
 30
0.0
  0
VERTEX
  5
14E
330
149
100
AcDbEntity
  8
Resized
 62
     7
420
 16777215
370
    35
100
AcDbVertex
100
AcDb2dVertex
 10
280.7626696389008
 20
-296.1807121110767
 30
0.0
  0
VERTEX
  5
14F
330
149
100
AcDbEntity
  8
Resized
 62
     7
420
 16777215
370
    35
100
AcDbVertex
100
AcDb2dVertex
 10
264.6624994336951
 20
-268.1509189828904
 30
0.0
  0
VERTEX
  5
150
330
149
100
AcDbEntity
  8
Resized
 62
     7
420
 16777215
370
    35
100
AcDbVertex
100
AcDb2dVertex
 10
248.3453803411915
 20
-296.2361972827387
 30
0.0
  0
VERTEX
  5
151
330
149
100
AcDbEntity
  8
Resized
 62
     7
420
 16777215
370
    35
100
AcDbVertex
100
AcDb2dVertex
 10
258.4275243266655
 20
-296.2463363892194
 30
0.0
  0
VERTEX
  5
152
330
149
100
AcDbEntity
  8
Resized
 62
     7
420
 16777215
370
    35
100
AcDbVertex
100
AcDb2dVertex
 10
220.3166135642772
 20
-361.8434628763567
 30
0.0
  0
VERTEX
  5
153
330
149
100
AcDbEntity
  8
Resized
 62
     7
420
 16777215
370
    35
100
AcDbVertex
100
AcDb2dVertex
 10
215.3013636364331
 20
-353.1121060170389
 30
0.0
  0
VERTEX
  5
154
330
149
100
AcDbEntity
  8
Resized
 62
     7
420
 16777215
370
    35
100
AcDbVertex
100
AcDb2dVertex
 10
199.3295184414744
 20
-380.6031269318225
 30
0.0
  0
VERTEX
  5
155
330
149
100
AcDbEntity
  8
Resized
 62
     7
420
 16777215
370
    35
100
AcDbVertex
100
AcDb2dVertex
 10
231.4978398024369
 20
-380.6354569968138
 30
0.0
  0
VERTEX
  5
156
330
149
100
AcDbEntity
  8
Resized
 62
     7
420
 16777215
370
    35
100
AcDbVertex
100
AcDb2dVertex
 10
226.412860191373
 20
-371.7826952229308
 30
0.0
  0
VERTEX
  5
157
330
149
100
AcDbEntity
  8
Resized
 62
     7
420
 16777215
370
    35
100
AcDbVertex
100
AcDb2dVertex
 10
302.2461766590746
 20
-371.8589095800853
 30
0.0
  0
VERTEX
  5
158
330
149
100
AcDbEntity
  8
Resized
 62
     7
420
 16777215
370
    35
100
AcDbVertex
100
AcDb2dVertex
 10
297.1088220317116
 20
-380.7014078412697
 30
0.0
  0
VERTEX
  5
159
330
149
100
AcDbEntity
  8
Resized
 62
     7
420
 16777215
370
    35
100
AcDbVertex
100
AcDb2dVertex
 10
329.3295184089732
 20
-380.7337845585897
 30
0.0
  0
SEQEND
  5
15A
330
149
100
AcDbEntity
  8
Resized
 62
     7
420
 16777215
370
    35
  0
SPLINE
  5
15B
330
1F
100
AcDbEntity
  8
Resized
 62
     7
420
 16777215
370
    35
100
AcDbSpline
210
0.0
220
0.0
230
1.0
 70
    11
 71
     3
 72
    23
 73
    19
 74
     0
 42
0.0000000001
 43
0.0000000001
 12
1.0
 22
0.0
 32
0.0
 13
1.0
 23
0.0
 33
0.0
 40
0.0
 40
0.0
 40
0.0
 40
0.0
 40
1.0
 40
1.0
 40
1.0
 40
2.0
 40
2.0
 40
2.0
 40
3.0
 40
3.0
 40
3.0
 40
4.0
 40
4.0
 40
4.0
 40
5.0
 40
5.0
 40
5.0
 40
6.0
 40
6.0
 40
6.0
 40
6.0
 10
239.9661241704368
 20
-343.7404303717436
 30
0.0
 10
239.4693235036466
 20
-343.453611844238
 30
0.0
 10
239.3132092552407
 20
-342.7939012395751
 30
0.0
 10
239.6174446527743
 20
-342.2669631673263
 30
0.0
 10
239.6174446527743
 20
-342.2669631673263
 30
0.0
 10
251.70916887323
 20
-321.3234724227011
 30
0.0
 10
251.70916887323
 20
-321.3234724227011
 30
0.0
 10
252.0134042707675
 20
-320.7965343504515
 30
0.0
 10
252.6627736088516
 20
-320.6018697263293
 30
0.0
 10
253.1595742756419
 20
-320.8887038046122
 30
0.0
 10
253.6563904932043
 20
-321.1755378828965
 30
0.0
 10
253.812504741614
 20
-321.8352329367833
 30
0.0
 10
253.5082693440766
 20
-322.3621865598082
 30
0.0
 10
253.5082693440766
 20
-322.3621865598082
 30
0.0
 10
241.4165451236208
 20
-343.3056773044335
 30
0.0
 10
241.4165451236208
 20
-343.3056773044335
 30
0.0
 10
241.1123097260866
 20
-343.8326153766798
 30
0.0
 10
240.4629403880031
 20
-344.0272644500253
 30
0.0
 10
239.9661241704368
 20
-343.7404303717436
 30
0.0
  0
SPLINE
  5
15C
330
1F
100
AcDbEntity
  8
Resized
 62
     7
420
 16777215
370
    35
100
AcDbSpline
210
0.0
220
0.0
230
1.0
 70
    11
 71
     3
 72
    23
 73
    19
 74
     0
 42
0.0000000001
 43
0.0000000001
 12
1.0
 22
0.0
 32
0.0
 13
1.0
 23
0.0
 33
0.0
 40
0.0
 40
0.0
 40
0.0
 40
0.0
 40
1.0
 40
1.0
 40
1.0
 40
2.0
 40
2.0
 40
2.0
 40
3.0
 40
3.0
 40
3.0
 40
4.0
 40
4.0
 40
4.0
 40
5.0
 40
5.0
 40
5.0
 40
6.0
 40
6.0
 40
6.0
 40
6.0
 10
276.4212504210698
 20
-364.9866169869974
 30
0.0
 10
276.4212504210698
 20
-364.9866169869974
 30
0.0
 10
252.2377864293778
 20
-364.9866169869974
 30
0.0
 10
252.2377864293778
 20
-364.9866169869974
 30
0.0
 10
251.6293311850827
 20
-364.9866169869974
 30
0.0
 10
251.136060544633
 20
-364.5215710064568
 30
0.0
 10
251.136060544633
 20
-363.9479028498928
 30
0.0
 10
251.136060544633
 20
-363.3742346933262
 30
0.0
 10
251.6293311850827
 20
-362.9091887127856
 30
0.0
 10
252.2377864293778
 20
-362.9091887127856
 30
0.0
 10
252.2377864293778
 20
-362.9091887127856
 30
0.0
 10
276.4212504210698
 20
-362.9091887127856
 30
0.0
 10
276.4212504210698
 20
-362.9091887127856
 30
0.0
 10
277.0297056653616
 20
-362.9091887127856
 30
0.0
 10
277.5229763058153
 20
-363.3742346933262
 30
0.0
 10
277.5229763058153
 20
-363.9479028498928
 30
0.0
 10
277.5229763058153
 20
-364.5215710064568
 30
0.0
 10
277.0297056653616
 20
-364.9866169869974
 30
0.0
 10
276.4212504210698
 20
-364.9866169869974
 30
0.0
  0
SPLINE
  5
15D
330
1F
100
AcDbEntity
  8
Resized
 62
     7
420
 16777215
370
    35
100
AcDbSpline
210
0.0
220
0.0
230
1.0
 70
    11
 71
     3
 72
    32
 73
    28
 74
     0
 42
0.0000000001
 43
0.0000000001
 12
1.0
 22
0.0
 32
0.0
 13
1.0
 23
0.0
 33
0.0
 40
0.0
 40
0.0
 40
0.0
 40
0.0
 40
1.0
 40
1.0
 40
1.0
 40
2.0
 40
2.0
 40
2.0
 40
3.0
 40
3.0
 40
3.0
 40
4.0
 40
4.0
 40
4.0
 40
5.0
 40
5.0
 40
5.0
 40
6.0
 40
6.0
 40
6.0
 40
7.0
 40
7.0
 40
7.0
 40
8.0
 40
8.0
 40
8.0
 40
9.0
 40
9.0
 40
9.0
 40
9.0
 10
282.2704263061916
 20
-353.1657406462619
 30
0.0
 10
281.9024793760595
 20
-353.6180505405952
 30
0.0
 10
281.5191527276636
 20
-353.8474089477821
 30
0.0
 10
280.8979769479379
 20
-353.8474089477821
 30
0.0
 10
280.8979769479379
 20
-353.8474089477821
 30
0.0
 10
247.8261865557967
 20
-353.8474089477821
 30
0.0
 10
247.8261865557967
 20
-353.8474089477821
 30
0.0
 10
247.2050107760703
 20
-353.8474089477821
 30
0.0
 10
246.8216841276744
 20
-353.6180505405952
 30
0.0
 10
246.4537216467664
 20
-353.1657406462619
 30
0.0
 10
246.1697178098599
 20
-352.816625706849
 30
0.0
 10
246.1697178098599
 20
-352.2467830413776
 30
0.0
 10
246.3767764031016
 20
-351.8344697450032
 30
0.0
 10
246.3767764031016
 20
-351.8344697450032
 30
0.0
 10
263.1191314875101
 20
-323.2364045798051
 30
0.0
 10
263.1191314875101
 20
-323.2364045798051
 30
0.0
 10
263.5423614292017
 20
-322.5083327602798
 30
0.0
 10
263.9505071173924
 20
-322.0960194639067
 30
0.0
 10
264.4017440081218
 20
-322.0960194639067
 30
0.0
 10
264.9669991944358
 20
-322.0960194639067
 30
0.0
 10
265.1575117611511
 20
-322.3021761120935
 30
0.0
 10
265.6295244897017
 20
-323.1442195748691
 30
0.0
 10
265.6295244897017
 20
-323.1442195748691
 30
0.0
 10
282.2031380949285
 20
-351.8344697450032
 30
0.0
 10
282.2031380949285
 20
-351.8344697450032
 30
0.0
 10
282.4101966881708
 20
-352.2467830413776
 30
0.0
 10
282.5544456938708
 20
-352.816625706849
 30
0.0
 10
282.2704263061916
 20
-353.1657406462619
 30
0.0
  0
SPLINE
  5
15E
330
1F
100
AcDbEntity
  8
Resized
 62
     7
420
 16777215
370
    35
100
AcDbSpline
210
0.0
220
0.0
230
1.0
 70
    11
 71
     3
 72
    23
 73
    19
 74
     0
 42
0.0000000001
 43
0.0000000001
 12
1.0
 22
0.0
 32
0.0
 13
1.0
 23
0.0
 33
0.0
 40
0.0
 40
0.0
 40
0.0
 40
0.0
 40
1.0
 40
1.0
 40
1.0
 40
2.0
 40
2.0
 40
2.0
 40
3.0
 40
3.0
 40
3.0
 40
4.0
 40
4.0
 40
4.0
 40
5.0
 40
5.0
 40
5.0
 40
6.0
 40
6.0
 40
6.0
 40
6.0
 10
288.9456750063021
 20
-343.8487726337877
 30
0.0
 10
288.4488743395118
 20
-344.1356067120726
 30
0.0
 10
287.7995050014277
 20
-343.9409576387264
 30
0.0
 10
287.4952696038941
 20
-343.4140040156976
 30
0.0
 10
287.4952696038941
 20
-343.4140040156976
 30
0.0
 10
275.4035453834345
 20
-322.470513271075
 30
0.0
 10
275.4035453834345
 20
-322.470513271075
 30
0.0
 10
275.0993255366769
 20
-321.9435751988254
 30
0.0
 10
275.2554397850867
 20
-321.2838645941626
 30
0.0
 10
275.752240451873
 20
-320.9970460666563
 30
0.0
 10
276.2490411186632
 20
-320.7102119883727
 30
0.0
 10
276.8984260075234
 20
-320.9048610617195
 30
0.0
 10
277.202645854281
 20
-321.4317991339678
 30
0.0
 10
277.202645854281
 20
-321.4317991339678
 30
0.0
 10
289.2943700747406
 20
-342.3753054293697
 30
0.0
 10
289.2943700747406
 20
-342.3753054293697
 30
0.0
 10
289.5986054722742
 20
-342.9022435016192
 30
0.0
 10
289.4424912238645
 20
-343.5619385555054
 30
0.0
 10
288.9456750063021
 20
-343.8487726337877
 30
0.0
  0
POLYLINE
  5
15F
330
1F
100
AcDbEntity
  8
Resized
 62
     7
420
 16777215
370
    35
100
AcDb2dPolyline
 66
     1
 10
0.0
 20
0.0
 30
0.0
  0
VERTEX
  5
160
330
15F
100
AcDbEntity
  8
Resized
 62
     7
420
 16777215
370
    35
100
AcDbVertex
100
AcDb2dVertex
 10
268.8267406463224
 20
-268.1509189828904
 30
0.0
  0
VERTEX
  5
161
330
15F
100
AcDbEntity
  8
Resized
 62
     7
420
 16777215
370
    35
100
AcDbVertex
100
AcDb2dVertex
 10
284.9097583447073
 20
-296.1508546195986
 30
0.0
  0
VERTEX
  5
162
330
15F
100
AcDbEntity
  8
Resized
 62
     7
420
 16777215
370
    35
100
AcDbVertex
100
AcDb2dVertex
 10
290.2023097246473
 20
-287.0412406651253
 30
0.0
  0
VERTEX
  5
163
330
15F
100
AcDbEntity
  8
Resized
 62
     7
420
 16777215
370
    35
100
AcDbVertex
100
AcDb2dVertex
 10
327.9247465315128
 20
-352.7145815094133
 30
0.0
  0
VERTEX
  5
164
330
15F
100
AcDbEntity
  8
Resized
 62
     7
420
 16777215
370
    35
100
AcDbVertex
100
AcDb2dVertex
 10
317.3935894163947
 20
-352.7039914304066
 30
0.0
  0
VERTEX
  5
165
330
15F
100
AcDbEntity
  8
Resized
 62
     7
420
 16777215
370
    35
100
AcDbVertex
100
AcDb2dVertex
 10
333.4937596216005
 20
-380.7337845585897
 30
0.0
  0
VERTEX
  5
166
330
15F
100
AcDbEntity
  8
Resized
 62
     7
420
 16777215
370
    35
100
AcDbVertex
100
AcDb2dVertex
 10
349.810878714104
 20
-352.6485062587415
 30
0.0
  0
VERTEX
  5
167
330
15F
100
AcDbEntity
  8
Resized
 62
     7
420
 16777215
370
    35
100
AcDbVertex
100
AcDb2dVertex
 10
339.7287347286301
 20
-352.6383671522619
 30
0.0
  0
VERTEX
  5
168
330
15F
100
AcDbEntity
  8
Resized
 62
     7
420
 16777215
370
    35
100
AcDbVertex
100
AcDb2dVertex
 10
377.8396454910183
 20
-287.0412406651253
 30
0.0
  0
VERTEX
  5
169
330
15F
100
AcDbEntity
  8
Resized
 62
     7
420
 16777215
370
    35
100
AcDbVertex
100
AcDb2dVertex
 10
382.8548954188618
 20
-295.7725975244418
 30
0.0
  0
VERTEX
  5
16A
330
15F
100
AcDbEntity
  8
Resized
 62
     7
420
 16777215
370
    35
100
AcDbVertex
100
AcDb2dVertex
 10
398.8267406138211
 20
-268.2815766096589
 30
0.0
  0
VERTEX
  5
16B
330
15F
100
AcDbEntity
  8
Resized
 62
     7
420
 16777215
370
    35
100
AcDbVertex
100
AcDb2dVertex
 10
366.6584192528586
 20
-268.2492465446683
 30
0.0
  0
VERTEX
  5
16C
330
15F
100
AcDbEntity
  8
Resized
 62
     7
420
 16777215
370
    35
100
AcDbVertex
100
AcDb2dVertex
 10
371.7433988639219
 20
-277.10200831855
 30
0.0
  0
VERTEX
  5
16D
330
15F
100
AcDbEntity
  8
Resized
 62
     7
420
 16777215
370
    35
100
AcDbVertex
100
AcDb2dVertex
 10
295.9100823962209
 20
-277.025793961398
 30
0.0
  0
VERTEX
  5
16E
330
15F
100
AcDbEntity
  8
Resized
 62
     7
420
 16777215
370
    35
100
AcDbVertex
100
AcDb2dVertex
 10
301.0474370235839
 20
-268.1832957002126
 30
0.0
  0
VERTEX
  5
16F
330
15F
100
AcDbEntity
  8
Resized
 62
     7
420
 16777215
370
    35
100
AcDbVertex
100
AcDb2dVertex
 10
268.8267406463224
 20
-268.1509189828904
 30
0.0
  0
SEQEND
  5
170
330
15F
100
AcDbEntity
  8
Resized
 62
     7
420
 16777215
370
    35
  0
SPLINE
  5
171
330
1F
100
AcDbEntity
  8
Resized
 62
     7
420
 16777215
370
    35
100
AcDbSpline
210
0.0
220
0.0
230
1.0
 70
    11
 71
     3
 72
    23
 73
    19
 74
     0
 42
0.0000000001
 43
0.0000000001
 12
1.0
 22
0.0
 32
0.0
 13
1.0
 23
0.0
 33
0.0
 40
0.0
 40
0.0
 40
0.0
 40
0.0
 40
1.0
 40
1.0
 40
1.0
 40
2.0
 40
2.0
 40
2.0
 40
3.0
 40
3.0
 40
3.0
 40
4.0
 40
4.0
 40
4.0
 40
5.0
 40
5.0
 40
5.0
 40
6.0
 40
6.0
 40
6.0
 40
6.0
 10
358.1901348848587
 20
-305.1442731697384
 30
0.0
 10
358.686935551649
 20
-305.4310916972447
 30
0.0
 10
358.8430498000549
 20
-306.0908023019082
 30
0.0
 10
358.5388144025212
 20
-306.6177403741571
 30
0.0
 10
358.5388144025212
 20
-306.6177403741571
 30
0.0
 10
346.4470901820655
 20
-327.561231118781
 30
0.0
 10
346.4470901820655
 20
-327.561231118781
 30
0.0
 10
346.142854784528
 20
-328.0881691910305
 30
0.0
 10
345.4934854464439
 20
-328.2828338151527
 30
0.0
 10
344.9966847796537
 20
-327.9959997368698
 30
0.0
 10
344.4998685620913
 20
-327.7091656585856
 30
0.0
 10
344.3437543136815
 20
-327.0494706046987
 30
0.0
 10
344.647989711219
 20
-326.5225169816738
 30
0.0
 10
344.647989711219
 20
-326.5225169816738
 30
0.0
 10
356.7397139316747
 20
-305.5790262370498
 30
0.0
 10
356.7397139316747
 20
-305.5790262370498
 30
0.0
 10
357.0439493292083
 20
-305.0520881648016
 30
0.0
 10
357.6933186672925
 20
-304.8574390914554
 30
0.0
 10
358.1901348848587
 20
-305.1442731697384
 30
0.0
  0
SPLINE
  5
172
330
1F
100
AcDbEntity
  8
Resized
 62
     7
420
 16777215
370
    35
100
AcDbSpline
210
0.0
220
0.0
230
1.0
 70
    11
 71
     3
 72
    23
 73
    19
 74
     0
 42
0.0000000001
 43
0.0000000001
 12
1.0
 22
0.0
 32
0.0
 13
1.0
 23
0.0
 33
0.0
 40
0.0
 40
0.0
 40
0.0
 40
0.0
 40
1.0
 40
1.0
 40
1.0
 40
2.0
 40
2.0
 40
2.0
 40
3.0
 40
3.0
 40
3.0
 40
4.0
 40
4.0
 40
4.0
 40
5.0
 40
5.0
 40
5.0
 40
6.0
 40
6.0
 40
6.0
 40
6.0
 10
321.7350086342257
 20
-283.8980865544834
 30
0.0
 10
321.7350086342257
 20
-283.8980865544834
 30
0.0
 10
345.9184726259177
 20
-283.8980865544834
 30
0.0
 10
345.9184726259177
 20
-283.8980865544834
 30
0.0
 10
346.5269278702128
 20
-283.8980865544834
 30
0.0
 10
347.0201985106626
 20
-284.3631325350246
 30
0.0
 10
347.0201985106626
 20
-284.9368006915905
 30
0.0
 10
347.0201985106626
 20
-285.5104688481577
 30
0.0
 10
346.5269278702128
 20
-285.9755148286977
 30
0.0
 10
345.9184726259177
 20
-285.9755148286977
 30
0.0
 10
345.9184726259177
 20
-285.9755148286977
 30
0.0
 10
321.7350086342257
 20
-285.9755148286977
 30
0.0
 10
321.7350086342257
 20
-285.9755148286977
 30
0.0
 10
321.1265533899339
 20
-285.9755148286977
 30
0.0
 10
320.6332827494803
 20
-285.5104688481577
 30
0.0
 10
320.6332827494803
 20
-284.9368006915905
 30
0.0
 10
320.6332827494803
 20
-284.3631325350246
 30
0.0
 10
321.1265533899339
 20
-283.8980865544834
 30
0.0
 10
321.7350086342257
 20
-283.8980865544834
 30
0.0
  0
SPLINE
  5
173
330
1F
100
AcDbEntity
  8
Resized
 62
     7
420
 16777215
370
    35
100
AcDbSpline
210
0.0
220
0.0
230
1.0
 70
    11
 71
     3
 72
    32
 73
    28
 74
     0
 42
0.0000000001
 43
0.0000000001
 12
1.0
 22
0.0
 32
0.0
 13
1.0
 23
0.0
 33
0.0
 40
0.0
 40
0.0
 40
0.0
 40
0.0
 40
1.0
 40
1.0
 40
1.0
 40
2.0
 40
2.0
 40
2.0
 40
3.0
 40
3.0
 40
3.0
 40
4.0
 40
4.0
 40
4.0
 40
5.0
 40
5.0
 40
5.0
 40
6.0
 40
6.0
 40
6.0
 40
7.0
 40
7.0
 40
7.0
 40
8.0
 40
8.0
 40
8.0
 40
9.0
 40
9.0
 40
9.0
 40
9.0
 10
315.885832749104
 20
-295.7189628952202
 30
0.0
 10
316.253779679236
 20
-295.2666530008881
 30
0.0
 10
316.6371063276319
 20
-295.0372945936993
 30
0.0
 10
317.2582821073577
 20
-295.0372945936993
 30
0.0
 10
317.2582821073577
 20
-295.0372945936993
 30
0.0
 10
350.3300724994988
 20
-295.0372945936993
 30
0.0
 10
350.3300724994988
 20
-295.0372945936993
 30
0.0
 10
350.9512482792252
 20
-295.0372945936993
 30
0.0
 10
351.3345749276211
 20
-295.2666530008881
 30
0.0
 10
351.7025374085292
 20
-295.7189628952202
 30
0.0
 10
351.9865412454356
 20
-296.0680778346331
 30
0.0
 10
351.9865412454356
 20
-296.6379205001045
 30
0.0
 10
351.7794826521939
 20
-297.0502337964776
 30
0.0
 10
351.7794826521939
 20
-297.0502337964776
 30
0.0
 10
335.0371275677854
 20
-325.6482989616769
 30
0.0
 10
335.0371275677854
 20
-325.6482989616769
 30
0.0
 10
334.6138976260938
 20
-326.3763707812022
 30
0.0
 10
334.2057519379031
 20
-326.7886840775753
 30
0.0
 10
333.7545150471737
 20
-326.7886840775753
 30
0.0
 10
333.1892598608597
 20
-326.7886840775753
 30
0.0
 10
332.9987472941445
 20
-326.5825274293884
 30
0.0
 10
332.5267345655938
 20
-325.740483966613
 30
0.0
 10
332.5267345655938
 20
-325.740483966613
 30
0.0
 10
315.9531209603671
 20
-297.0502337964776
 30
0.0
 10
315.9531209603671
 20
-297.0502337964776
 30
0.0
 10
315.7460623671248
 20
-296.6379205001045
 30
0.0
 10
315.6018133614247
 20
-296.0680778346331
 30
0.0
 10
315.885832749104
 20
-295.7189628952202
 30
0.0
  0
SPLINE
  5
174
330
1F
100
AcDbEntity
  8
Resized
 62
     7
420
 16777215
370
    35
100
AcDbSpline
210
0.0
220
0.0
230
1.0
 70
    11
 71
     3
 72
    23
 73
    19
 74
     0
 42
0.0000000001
 43
0.0000000001
 12
1.0
 22
0.0
 32
0.0
 13
1.0
 23
0.0
 33
0.0
 40
0.0
 40
0.0
 40
0.0
 40
0.0
 40
1.0
 40
1.0
 40
1.0
 40
2.0
 40
2.0
 40
2.0
 40
3.0
 40
3.0
 40
3.0
 40
4.0
 40
4.0
 40
4.0
 40
5.0
 40
5.0
 40
5.0
 40
6.0
 40
6.0
 40
6.0
 40
6.0
 10
309.2105840489935
 20
-305.0359309076943
 30
0.0
 10
309.7073847157837
 20
-304.7490968294107
 30
0.0
 10
310.3567540538679
 20
-304.9437459027569
 30
0.0
 10
310.6609894514015
 20
-305.4706995257831
 30
0.0
 10
310.6609894514015
 20
-305.4706995257831
 30
0.0
 10
322.752713671861
 20
-326.4141902704071
 30
0.0
 10
322.752713671861
 20
-326.4141902704071
 30
0.0
 10
323.0569335186186
 20
-326.9411283426566
 30
0.0
 10
322.9008192702089
 20
-327.6008389473194
 30
0.0
 10
322.4040186034225
 20
-327.8876574748257
 30
0.0
 10
321.9072179366323
 20
-328.1744915531093
 30
0.0
 10
321.2578330477721
 20
-327.9798424797625
 30
0.0
 10
320.9536132010145
 20
-327.4529044075142
 30
0.0
 10
320.9536132010145
 20
-327.4529044075142
 30
0.0
 10
308.861888980555
 20
-306.5093981121136
 30
0.0
 10
308.861888980555
 20
-306.5093981121136
 30
0.0
 10
308.5576535830213
 20
-305.9824600398641
 30
0.0
 10
308.7137678314311
 20
-305.3227649859772
 30
0.0
 10
309.2105840489935
 20
-305.0359309076943
 30
0.0
  0
POLYLINE
  5
175
330
1F
100
AcDbEntity
  8
Resized
 62
     7
420
 16777215
370
    35
100
AcDb2dPolyline
 66
     1
 10
0.0
 20
0.0
 30
0.0
  0
VERTEX
  5
176
330
175
100
AcDbEntity
  8
Resized
 62
     7
420
 16777215
370
    35
100
AcDbVertex
100
AcDb2dVertex
 10
467.6184072632898
 20
-380.7337845585897
 30
0.0
  0
VERTEX
  5
177
330
175
100
AcDbEntity
  8
Resized
 62
     7
420
 16777215
370
    35
100
AcDbVertex
100
AcDb2dVertex
 10
451.5353895649049
 20
-352.7338489218828
 30
0.0
  0
VERTEX
  5
178
330
175
100
AcDbEntity
  8
Resized
 62
     7
420
 16777215
370
    35
100
AcDbVertex
100
AcDb2dVertex
 10
446.2428381849642
 20
-361.8434628763567
 30
0.0
  0
VERTEX
  5
179
330
175
100
AcDbEntity
  8
Resized
 62
     7
420
 16777215
370
    35
100
AcDbVertex
100
AcDb2dVertex
 10
408.5204013780988
 20
-296.1701220320684
 30
0.0
  0
VERTEX
  5
17A
330
175
100
AcDbEntity
  8
Resized
 62
     7
420
 16777215
370
    35
100
AcDbVertex
100
AcDb2dVertex
 10
419.0515584932175
 20
-296.1807121110767
 30
0.0
  0
VERTEX
  5
17B
330
175
100
AcDbEntity
  8
Resized
 62
     7
420
 16777215
370
    35
100
AcDbVertex
100
AcDb2dVertex
 10
402.9513882880111
 20
-268.1509189828904
 30
0.0
  0
VERTEX
  5
17C
330
175
100
AcDbEntity
  8
Resized
 62
     7
420
 16777215
370
    35
100
AcDbVertex
100
AcDb2dVertex
 10
386.6342691955075
 20
-296.2361972827387
 30
0.0
  0
VERTEX
  5
17D
330
175
100
AcDbEntity
  8
Resized
 62
     7
420
 16777215
370
    35
100
AcDbVertex
100
AcDb2dVertex
 10
396.7164131809815
 20
-296.2463363892194
 30
0.0
  0
VERTEX
  5
17E
330
175
100
AcDbEntity
  8
Resized
 62
     7
420
 16777215
370
    35
100
AcDbVertex
100
AcDb2dVertex
 10
358.6055024185932
 20
-361.8434628763567
 30
0.0
  0
VERTEX
  5
17F
330
175
100
AcDbEntity
  8
Resized
 62
     7
420
 16777215
370
    35
100
AcDbVertex
100
AcDb2dVertex
 10
353.5902524907497
 20
-353.1121060170389
 30
0.0
  0
VERTEX
  5
180
330
175
100
AcDbEntity
  8
Resized
 62
     7
420
 16777215
370
    35
100
AcDbVertex
100
AcDb2dVertex
 10
337.6184072957911
 20
-380.6031269318225
 30
0.0
  0
VERTEX
  5
181
330
175
100
AcDbEntity
  8
Resized
 62
     7
420
 16777215
370
    35
100
AcDbVertex
100
AcDb2dVertex
 10
369.7867286567529
 20
-380.6354569968138
 30
0.0
  0
VERTEX
  5
182
330
175
100
AcDbEntity
  8
Resized
 62
     7
420
 16777215
370
    35
100
AcDbVertex
100
AcDb2dVertex
 10
364.7017490456897
 20
-371.7826952229308
 30
0.0
  0
VERTEX
  5
183
330
175
100
AcDbEntity
  8
Resized
 62
     7
420
 16777215
370
    35
100
AcDbVertex
100
AcDb2dVertex
 10
440.5350655133906
 20
-371.8589095800853
 30
0.0
  0
VERTEX
  5
184
330
175
100
AcDbEntity
  8
Resized
 62
     7
420
 16777215
370
    35
100
AcDbVertex
100
AcDb2dVertex
 10
435.3977108860276
 20
-380.7014078412697
 30
0.0
  0
VERTEX
  5
185
330
175
100
AcDbEntity
  8
Resized
 62
     7
420
 16777215
370
    35
100
AcDbVertex
100
AcDb2dVertex
 10
467.6184072632898
 20
-380.7337845585897
 30
0.0
  0
SEQEND
  5
186
330
175
100
AcDbEntity
  8
Resized
 62
     7
420
 16777215
370
    35
  0
SPLINE
  5
187
330
1F
100
AcDbEntity
  8
Resized
 62
     7
420
 16777215
370
    35
100
AcDbSpline
210
0.0
220
0.0
230
1.0
 70
    11
 71
     3
 72
    23
 73
    19
 74
     0
 42
0.0000000001
 43
0.0000000001
 12
1.0
 22
0.0
 32
0.0
 13
1.0
 23
0.0
 33
0.0
 40
0.0
 40
0.0
 40
0.0
 40
0.0
 40
1.0
 40
1.0
 40
1.0
 40
2.0
 40
2.0
 40
2.0
 40
3.0
 40
3.0
 40
3.0
 40
4.0
 40
4.0
 40
4.0
 40
5.0
 40
5.0
 40
5.0
 40
6.0
 40
6.0
 40
6.0
 40
6.0
 10
378.2550130247535
 20
-343.7404303717436
 30
0.0
 10
377.7582123579626
 20
-343.453611844238
 30
0.0
 10
377.6020981095567
 20
-342.7939012395751
 30
0.0
 10
377.9063335070903
 20
-342.2669631673263
 30
0.0
 10
377.9063335070903
 20
-342.2669631673263
 30
0.0
 10
389.9980577275467
 20
-321.3234724227011
 30
0.0
 10
389.9980577275467
 20
-321.3234724227011
 30
0.0
 10
390.3022931250841
 20
-320.7965343504515
 30
0.0
 10
390.9516624631677
 20
-320.6018697263293
 30
0.0
 10
391.4484631299579
 20
-320.8887038046122
 30
0.0
 10
391.945279347521
 20
-321.1755378828965
 30
0.0
 10
392.1013935959307
 20
-321.8352329367833
 30
0.0
 10
391.7971581983932
 20
-322.3621865598082
 30
0.0
 10
391.7971581983932
 20
-322.3621865598082
 30
0.0
 10
379.7054339779368
 20
-343.3056773044335
 30
0.0
 10
379.7054339779368
 20
-343.3056773044335
 30
0.0
 10
379.4011985804032
 20
-343.8326153766798
 30
0.0
 10
378.7518292423197
 20
-344.0272644500253
 30
0.0
 10
378.2550130247535
 20
-343.7404303717436
 30
0.0
  0
SPLINE
  5
188
330
1F
100
AcDbEntity
  8
Resized
 62
     7
420
 16777215
370
    35
100
AcDbSpline
210
0.0
220
0.0
230
1.0
 70
    11
 71
     3
 72
    23
 73
    19
 74
     0
 42
0.0000000001
 43
0.0000000001
 12
1.0
 22
0.0
 32
0.0
 13
1.0
 23
0.0
 33
0.0
 40
0.0
 40
0.0
 40
0.0
 40
0.0
 40
1.0
 40
1.0
 40
1.0
 40
2.0
 40
2.0
 40
2.0
 40
3.0
 40
3.0
 40
3.0
 40
4.0
 40
4.0
 40
4.0
 40
5.0
 40
5.0
 40
5.0
 40
6.0
 40
6.0
 40
6.0
 40
6.0
 10
414.7101392753858
 20
-364.9866169869974
 30
0.0
 10
414.7101392753858
 20
-364.9866169869974
 30
0.0
 10
390.5266752836945
 20
-364.9866169869974
 30
0.0
 10
390.5266752836945
 20
-364.9866169869974
 30
0.0
 10
389.9182200393994
 20
-364.9866169869974
 30
0.0
 10
389.424949398949
 20
-364.5215710064568
 30
0.0
 10
389.424949398949
 20
-363.9479028498928
 30
0.0
 10
389.424949398949
 20
-363.3742346933262
 30
0.0
 10
389.9182200393994
 20
-362.9091887127856
 30
0.0
 10
390.5266752836945
 20
-362.9091887127856
 30
0.0
 10
390.5266752836945
 20
-362.9091887127856
 30
0.0
 10
414.7101392753858
 20
-362.9091887127856
 30
0.0
 10
414.7101392753858
 20
-362.9091887127856
 30
0.0
 10
415.3185945196777
 20
-362.9091887127856
 30
0.0
 10
415.8118651601313
 20
-363.3742346933262
 30
0.0
 10
415.8118651601313
 20
-363.9479028498928
 30
0.0
 10
415.8118651601313
 20
-364.5215710064568
 30
0.0
 10
415.3185945196777
 20
-364.9866169869974
 30
0.0
 10
414.7101392753858
 20
-364.9866169869974
 30
0.0
  0
SPLINE
  5
189
330
1F
100
AcDbEntity
  8
Resized
 62
     7
420
 16777215
370
    35
100
AcDbSpline
210
0.0
220
0.0
230
1.0
 70
    11
 71
     3
 72
    32
 73
    28
 74
     0
 42
0.0000000001
 43
0.0000000001
 12
1.0
 22
0.0
 32
0.0
 13
1.0
 23
0.0
 33
0.0
 40
0.0
 40
0.0
 40
0.0
 40
0.0
 40
1.0
 40
1.0
 40
1.0
 40
2.0
 40
2.0
 40
2.0
 40
3.0
 40
3.0
 40
3.0
 40
4.0
 40
4.0
 40
4.0
 40
5.0
 40
5.0
 40
5.0
 40
6.0
 40
6.0
 40
6.0
 40
7.0
 40
7.0
 40
7.0
 40
8.0
 40
8.0
 40
8.0
 40
9.0
 40
9.0
 40
9.0
 40
9.0
 10
420.5593151605082
 20
-353.1657406462619
 30
0.0
 10
420.1913682303755
 20
-353.6180505405952
 30
0.0
 10
419.8080415819803
 20
-353.8474089477821
 30
0.0
 10
419.1868658022539
 20
-353.8474089477821
 30
0.0
 10
419.1868658022539
 20
-353.8474089477821
 30
0.0
 10
386.1150754101128
 20
-353.8474089477821
 30
0.0
 10
386.1150754101128
 20
-353.8474089477821
 30
0.0
 10
385.4938996303864
 20
-353.8474089477821
 30
0.0
 10
385.1105729819911
 20
-353.6180505405952
 30
0.0
 10
384.7426105010824
 20
-353.1657406462619
 30
0.0
 10
384.4586066641759
 20
-352.816625706849
 30
0.0
 10
384.4586066641759
 20
-352.2467830413776
 30
0.0
 10
384.6656652574183
 20
-351.8344697450032
 30
0.0
 10
384.6656652574183
 20
-351.8344697450032
 30
0.0
 10
401.4080203418261
 20
-323.2364045798051
 30
0.0
 10
401.4080203418261
 20
-323.2364045798051
 30
0.0
 10
401.8312502835177
 20
-322.5083327602798
 30
0.0
 10
402.2393959717091
 20
-322.0960194639067
 30
0.0
 10
402.6906328624378
 20
-322.0960194639067
 30
0.0
 10
403.2558880487518
 20
-322.0960194639067
 30
0.0
 10
403.4464006154677
 20
-322.3021761120935
 30
0.0
 10
403.9184133440177
 20
-323.1442195748691
 30
0.0
 10
403.9184133440177
 20
-323.1442195748691
 30
0.0
 10
420.4920269492451
 20
-351.8344697450032
 30
0.0
 10
420.4920269492451
 20
-351.8344697450032
 30
0.0
 10
420.6990855424868
 20
-352.2467830413776
 30
0.0
 10
420.8433345481869
 20
-352.816625706849
 30
0.0
 10
420.5593151605082
 20
-353.1657406462619
 30
0.0
  0
SPLINE
  5
18A
330
1F
100
AcDbEntity
  8
Resized
 62
     7
420
 16777215
370
    35
100
AcDbSpline
210
0.0
220
0.0
230
1.0
 70
    11
 71
     3
 72
    23
 73
    19
 74
     0
 42
0.0000000001
 43
0.0000000001
 12
1.0
 22
0.0
 32
0.0
 13
1.0
 23
0.0
 33
0.0
 40
0.0
 40
0.0
 40
0.0
 40
0.0
 40
1.0
 40
1.0
 40
1.0
 40
2.0
 40
2.0
 40
2.0
 40
3.0
 40
3.0
 40
3.0
 40
4.0
 40
4.0
 40
4.0
 40
5.0
 40
5.0
 40
5.0
 40
6.0
 40
6.0
 40
6.0
 40
6.0
 10
427.2345638606181
 20
-343.8487726337877
 30
0.0
 10
426.7377631938278
 20
-344.1356067120726
 30
0.0
 10
426.0883938557444
 20
-343.9409576387264
 30
0.0
 10
425.7841584582108
 20
-343.4140040156976
 30
0.0
 10
425.7841584582108
 20
-343.4140040156976
 30
0.0
 10
413.6924342377505
 20
-322.470513271075
 30
0.0
 10
413.6924342377505
 20
-322.470513271075
 30
0.0
 10
413.3882143909929
 20
-321.9435751988254
 30
0.0
 10
413.5443286394026
 20
-321.2838645941626
 30
0.0
 10
414.0411293061897
 20
-320.9970460666563
 30
0.0
 10
414.5379299729799
 20
-320.7102119883727
 30
0.0
 10
415.1873148618394
 20
-320.9048610617195
 30
0.0
 10
415.491534708597
 20
-321.4317991339678
 30
0.0
 10
415.491534708597
 20
-321.4317991339678
 30
0.0
 10
427.5832589290566
 20
-342.3753054293697
 30
0.0
 10
427.5832589290566
 20
-342.3753054293697
 30
0.0
 10
427.8874943265909
 20
-342.9022435016192
 30
0.0
 10
427.7313800781811
 20
-343.5619385555054
 30
0.0
 10
427.2345638606181
 20
-343.8487726337877
 30
0.0
  0
ENDSEC
  0
SECTION
  2
OBJECTS
  0
DICTIONARY
  5
C
330
0
100
AcDbDictionary
281
     1
  3
ACAD_GROUP
350
D
  3
ACAD_LAYOUT
350
1A
  3
ACAD_MATERIAL
350
3B
  3
ACAD_MLEADERSTYLE
350
18C
  3
ACAD_MLINESTYLE
350
17
  3
ACAD_PLOTSETTINGS
350
19
  3
ACAD_PLOTSTYLENAME
350
E
  3
ACAD_TABLESTYLE
350
18B
  3
ACAD_VISUALSTYLE
350
2A
  0
SUN
  5
3F
330
29
100
AcDbSun
 90
        1
290
     0
 63
     7
421
 16777215
 40
1.0
291
     1
 91
  2455826
 92
 54000000
292
     0
 70
     2
 71
   256
280
     1
  0
DICTIONARY
  5
D
102
{ACAD_REACTORS
330
C
102
}
330
C
100
AcDbDictionary
281
     1
  0
DICTIONARY
  5
1A
102
{ACAD_REACTORS
330
C
102
}
330
C
100
AcDbDictionary
281
     1
  3
Layout1
350
1E
  3
Layout2
350
26
  3
Model
350
22
  0
DICTIONARY
  5
3B
102
{ACAD_REACTORS
330
C
102
}
330
C
100
AcDbDictionary
281
     1
  3
ByBlock
350
3D
  3
ByLayer
350
3C
  3
Global
350
3E
  0
DICTIONARY
  5
18C
102
{ACAD_REACTORS
330
C
102
}
330
C
100
AcDbDictionary
281
     1
  0
DICTIONARY
  5
17
102
{ACAD_REACTORS
330
C
102
}
330
C
100
AcDbDictionary
281
     1
  3
Standard
350
18
  0
DICTIONARY
  5
19
102
{ACAD_REACTORS
330
C
102
}
330
C
100
AcDbDictionary
281
     1
  0
ACDBDICTIONARYWDFLT
  5
E
102
{ACAD_REACTORS
330
C
102
}
330
C
100
AcDbDictionary
281
     1
  3
Normal
350
F
100
AcDbDictionaryWithDefault
340
F
  0
DICTIONARY
  5
18B
102
{ACAD_REACTORS
330
C
102
}
330
C
100
AcDbDictionary
281
     1
  0
DICTIONARY
  5
2A
102
{ACAD_REACTORS
330
C
102
}
330
C
100
AcDbDictionary
281
     1
  3
2dWireframe
350
2F
  3
3D Hidden
350
31
  3
3dWireframe
350
30
  3
Basic
350
32
  3
Brighten
350
36
  3
ColorChange
350
3A
  3
Conceptual
350
34
  3
Dim
350
35
  3
Facepattern
350
39
  3
Flat
350
2B
  3
FlatWithEdges
350
2C
  3
Gouraud
350
2D
  3
GouraudWithEdges
350
2E
  3
Linepattern
350
38
  3
Realistic
350
33
  3
Thicken
350
37
  0
LAYOUT
  5
1E
102
{ACAD_REACTORS
330
1A
102
}
330
1A
100
AcDbPlotSettings
  1

  2
none_device
  4

  6

 40
0.0
 41
0.0
 42
0.0
 43
0.0
 44
0.0
 45
0.0
 46
0.0
 47
0.0
 48
0.0
 49
0.0
140
0.0
141
0.0
142
1.0
143
1.0
 70
   688
 72
     0
 73
     0
 74
     5
  7

 75
    16
 76
     0
 77
     2
 78
   300
147
1.0
148
0.0
149
0.0
100
AcDbLayout
  1
Layout1
 70
     1
 71
     1
 10
0.0
 20
0.0
 11
12.0
 21
9.0
 12
0.0
 22
0.0
 32
0.0
 14
1.000000000000000E+20
 24
1.000000000000000E+20
 34
1.000000000000000E+20
 15
-1.000000000000000E+20
 25
-1.000000000000000E+20
 35
-1.000000000000000E+20
146
0.0
 13
0.0
 23
0.0
 33
0.0
 16
1.0
 26
0.0
 36
0.0
 17
0.0
 27
1.0
 37
0.0
 76
     0
330
1B
  0
LAYOUT
  5
26
102
{ACAD_REACTORS
330
1A
102
}
330
1A
100
AcDbPlotSettings
  1

  2
none_device
  4

  6

 40
0.0
 41
0.0
 42
0.0
 43
0.0
 44
0.0
 45
0.0
 46
0.0
 47
0.0
 48
0.0
 49
0.0
140
0.0
141
0.0
142
1.0
143
1.0
 70
   688
 72
     0
 73
     0
 74
     5
  7

 75
    16
 76
     0
 77
     2
 78
   300
147
1.0
148
0.0
149
0.0
100
AcDbLayout
  1
Layout2
 70
     1
 71
     2
 10
0.0
 20
0.0
 11
0.0
 21
0.0
 12
0.0
 22
0.0
 32
0.0
 14
0.0
 24
0.0
 34
0.0
 15
0.0
 25
0.0
 35
0.0
146
0.0
 13
0.0
 23
0.0
 33
0.0
 16
1.0
 26
0.0
 36
0.0
 17
0.0
 27
1.0
 37
0.0
 76
     0
330
23
  0
LAYOUT
  5
22
102
{ACAD_REACTORS
330
1A
102
}
330
1A
100
AcDbPlotSettings
  1

  2
none_device
  4

  6

 40
0.0
 41
0.0
 42
0.0
 43
0.0
 44
0.0
 45
0.0
 46
0.0
 47
0.0
 48
0.0
 49
0.0
140
0.0
141
0.0
142
1.0
143
1.0
 70
  1712
 72
     0
 73
     0
 74
     0
  7

 75
     0
 76
     0
 77
     2
 78
   300
147
1.0
148
0.0
149
0.0
100
AcDbLayout
  1
Model
 70
     1
 71
     0
 10
0.0
 20
0.0
 11
12.0
 21
9.0
 12
0.0
 22
0.0
 32
0.0
 14
1.000000000000000E+20
 24
1.000000000000000E+20
 34
1.000000000000000E+20
 15
-1.000000000000000E+20
 25
-1.000000000000000E+20
 35
-1.000000000000000E+20
146
0.0
 13
0.0
 23
0.0
 33
0.0
 16
1.0
 26
0.0
 36
0.0
 17
0.0
 27
1.0
 37
0.0
 76
     0
330
1F
331
29
  0
MATERIAL
  5
3D
102
{ACAD_REACTORS
330
3B
102
}
330
3B
100
AcDbMaterial
  1
ByBlock
 72
     1
 94
      127
  0
MATERIAL
  5
3C
102
{ACAD_REACTORS
330
3B
102
}
330
3B
100
AcDbMaterial
  1
ByLayer
 72
     1
 94
      127
  0
MATERIAL
  5
3E
102
{ACAD_REACTORS
330
3B
102
}
330
3B
100
AcDbMaterial
  1
Global
 72
     1
 94
      127
  0
MLINESTYLE
  5
18
102
{ACAD_REACTORS
330
17
102
}
330
17
100
AcDbMlineStyle
  2
Standard
 70
     0
  3

 62
   256
 51
90.0
 52
90.0
 71
     2
 49
0.5
 62
   256
  6
BYLAYER
 49
-0.5
 62
   256
  6
BYLAYER
  0
ACDBPLACEHOLDER
  5
F
102
{ACAD_REACTORS
330
E
102
}
330
E
  0
VISUALSTYLE
  5
2F
102
{ACAD_REACTORS
330
2A
102
}
330
2A
100
AcDbVisualStyle
  2
2dWireframe
 70
     4
177
     2
291
     0
 71
     0
176
     1
 72
     2
176
     1
 73
     0
176
     1
 90
        0
176
     1
 40
-0.6
176
     1
 41
-30.0
176
     1
 62
     5
 63
     7
421
 16777215
176
     1
 74
     1
176
     1
 91
        4
176
     1
 64
     7
176
     1
 65
   257
176
     1
 75
     1
176
     1
175
     1
176
     1
 42
1.0
176
     1
 92
        0
176
     1
 66
   257
176
     1
 43
1.0
176
     1
 76
     1
176
     1
 77
     6
176
     1
 78
     2
176
     1
 67
     7
176
     1
 79
     5
176
     1
170
     0
176
     1
171
     0
176
     1
290
     0
176
     1
 93
        1
176
     1
 44
0.0
176
     1
173
     0
176
     1
  0
VISUALSTYLE
  5
31
102
{ACAD_REACTORS
330
2A
102
}
330
2A
100
AcDbVisualStyle
  2
3D Hidden
 70
     6
177
     2
291
     0
 71
     1
176
     1
 72
     2
176
     1
 73
     2
176
     1
 90
        0
176
     1
 40
-0.6
176
     1
 41
-30.0
176
     1
 62
     5
 63
     7
421
 16777215
176
     1
 74
     2
176
     1
 91
        2
176
     1
 64
     7
176
     1
 65
   257
176
     1
 75
     2
176
     1
175
     1
176
     1
 42
40.0
176
     1
 92
        0
176
     1
 66
   257
176
     1
 43
1.0
176
     1
 76
     1
176
     1
 77
     6
176
     1
 78
     2
176
     1
 67
     7
176
     1
 79
     3
176
     1
170
     0
176
     1
171
     0
176
     1
290
     0
176
     1
 93
        1
176
     1
 44
0.0
176
     1
173
     0
176
     1
  0
VISUALSTYLE
  5
30
102
{ACAD_REACTORS
330
2A
102
}
330
2A
100
AcDbVisualStyle
  2
3dWireframe
 70
     5
177
     2
291
     0
 71
     0
176
     1
 72
     2
176
     1
 73
     0
176
     1
 90
        0
176
     1
 40
-0.6
176
     1
 41
-30.0
176
     1
 62
     5
 63
     7
421
 16777215
176
     1
 74
     1
176
     1
 91
        4
176
     1
 64
     7
176
     1
 65
   257
176
     1
 75
     1
176
     1
175
     1
176
     1
 42
1.0
176
     1
 92
        0
176
     1
 66
   257
176
     1
 43
1.0
176
     1
 76
     1
176
     1
 77
     6
176
     1
 78
     2
176
     1
 67
     7
176
     1
 79
     5
176
     1
170
     0
176
     1
171
     0
176
     1
290
     0
176
     1
 93
        1
176
     1
 44
0.0
176
     1
173
     0
176
     1
  0
VISUALSTYLE
  5
32
102
{ACAD_REACTORS
330
2A
102
}
330
2A
100
AcDbVisualStyle
  2
Basic
 70
     7
177
     2
291
     1
 71
     1
176
     1
 72
     0
176
     1
 73
     1
176
     1
 90
        0
176
     1
 40
-0.6
176
     1
 41
-30.0
176
     1
 62
     5
 63
     7
421
 16777215
176
     1
 74
     0
176
     1
 91
        4
176
     1
 64
     7
176
     1
 65
   257
176
     1
 75
     1
176
     1
175
     1
176
     1
 42
1.0
176
     1
 92
        8
176
     1
 66
     7
176
     1
 43
1.0
176
     1
 76
     1
176
     1
 77
     6
176
     1
 78
     2
176
     1
 67
     7
176
     1
 79
     5
176
     1
170
     0
176
     1
171
     0
176
     1
290
     0
176
     1
 93
        1
176
     1
 44
0.0
176
     1
173
     0
176
     1
  0
VISUALSTYLE
  5
36
102
{ACAD_REACTORS
330
2A
102
}
330
2A
100
AcDbVisualStyle
  2
Brighten
 70
    12
177
     2
291
     1
 71
     2
176
     1
 72
     2
176
     1
 73
     0
176
     1
 90
        0
176
     1
 40
-0.6
176
     1
 41
-30.0
176
     1
 62
     5
 63
     7
421
 16777215
176
     1
 74
     1
176
     1
 91
        4
176
     1
 64
     7
176
     1
 65
   257
176
     1
 75
     1
176
     1
175
     1
176
     1
 42
1.0
176
     1
 92
        8
176
     1
 66
     7
176
     1
 43
1.0
176
     1
 76
     1
176
     1
 77
     6
176
     1
 78
     2
176
     1
 67
     7
176
     1
 79
     5
176
     1
170
     0
176
     1
171
     0
176
     1
290
     0
176
     1
 93
        1
176
     1
 44
50.0
176
     1
173
     0
176
     1
  0
VISUALSTYLE
  5
3A
102
{ACAD_REACTORS
330
2A
102
}
330
2A
100
AcDbVisualStyle
  2
ColorChange
 70
    16
177
     2
291
     1
 71
     2
176
     1
 72
     2
176
     1
 73
     3
176
     1
 90
        0
176
     1
 40
-0.6
176
     1
 41
-30.0
176
     1
 62
     5
 63
     8
421
  8421504
176
     1
 74
     1
176
     1
 91
        4
176
     1
 64
     7
176
     1
 65
   257
176
     1
 75
     1
176
     1
175
     1
176
     1
 42
1.0
176
     1
 92
        8
176
     1
 66
     8
424
  8421504
176
     1
 43
1.0
176
     1
 76
     1
176
     1
 77
     6
176
     1
 78
     2
176
     1
 67
     7
176
     1
 79
     5
176
     1
170
     0
176
     1
171
     0
176
     1
290
     0
176
     1
 93
        1
176
     1
 44
0.0
176
     1
173
     0
176
     1
  0
VISUALSTYLE
  5
34
102
{ACAD_REACTORS
330
2A
102
}
330
2A
100
AcDbVisualStyle
  2
Conceptual
 70
     9
177
     2
291
     0
 71
     3
176
     1
 72
     2
176
     1
 73
     0
176
     1
 90
        0
176
     1
 40
-0.6
176
     1
 41
-30.0
176
     1
 62
     5
 63
     7
421
 16777215
176
     1
 74
     2
176
     1
 91
        2
176
     1
 64
     7
176
     1
 65
   257
176
     1
 75
     1
176
     1
175
     1
176
     1
 42
40.0
176
     1
 92
        8
176
     1
 66
     7
176
     1
 43
1.0
176
     1
 76
     1
176
     1
 77
     6
176
     1
 78
     2
176
     1
 67
     7
176
     1
 79
     3
176
     1
170
     0
176
     1
171
     0
176
     1
290
     0
176
     1
 93
        1
176
     1
 44
0.0
176
     1
173
     0
176
     1
  0
VISUALSTYLE
  5
35
102
{ACAD_REACTORS
330
2A
102
}
330
2A
100
AcDbVisualStyle
  2
Dim
 70
    11
177
     2
291
     1
 71
     2
176
     1
 72
     2
176
     1
 73
     0
176
     1
 90
        0
176
     1
 40
-0.6
176
     1
 41
-30.0
176
     1
 62
     5
 63
     7
421
 16777215
176
     1
 74
     1
176
     1
 91
        4
176
     1
 64
     7
176
     1
 65
   257
176
     1
 75
     1
176
     1
175
     1
176
     1
 42
1.0
176
     1
 92
        8
176
     1
 66
     7
176
     1
 43
1.0
176
     1
 76
     1
176
     1
 77
     6
176
     1
 78
     2
176
     1
 67
     7
176
     1
 79
     5
176
     1
170
     0
176
     1
171
     0
176
     1
290
     0
176
     1
 93
        1
176
     1
 44
-50.0
176
     1
173
     0
176
     1
  0
VISUALSTYLE
  5
39
102
{ACAD_REACTORS
330
2A
102
}
330
2A
100
AcDbVisualStyle
  2
Facepattern
 70
    15
177
     2
291
     1
 71
     2
176
     1
 72
     2
176
     1
 73
     0
176
     1
 90
        0
176
     1
 40
-0.6
176
     1
 41
-30.0
176
     1
 62
     5
 63
     7
421
 16777215
176
     1
 74
     1
176
     1
 91
        4
176
     1
 64
     7
176
     1
 65
   257
176
     1
 75
     1
176
     1
175
     1
176
     1
 42
1.0
176
     1
 92
        8
176
     1
 66
     7
176
     1
 43
1.0
176
     1
 76
     1
176
     1
 77
     6
176
     1
 78
     2
176
     1
 67
     7
176
     1
 79
     5
176
     1
170
     0
176
     1
171
     0
176
     1
290
     0
176
     1
 93
        1
176
     1
 44
0.0
176
     1
173
     0
176
     1
  0
VISUALSTYLE
  5
2B
102
{ACAD_REACTORS
330
2A
102
}
330
2A
100
AcDbVisualStyle
  2
Flat
 70
     0
177
     2
291
     1
 71
     2
176
     1
 72
     1
176
     1
 73
     1
176
     1
 90
        2
176
     1
 40
-0.6
176
     1
 41
30.0
176
     1
 62
     5
 63
     7
421
 16777215
176
     1
 74
     0
176
     1
 91
        4
176
     1
 64
     7
176
     1
 65
   257
176
     1
 75
     1
176
     1
175
     1
176
     1
 42
1.0
176
     1
 92
        8
176
     1
 66
     7
176
     1
 43
1.0
176
     1
 76
     1
176
     1
 77
     6
176
     1
 78
     2
176
     1
 67
     7
176
     1
 79
     5
176
     1
170
     0
176
     1
171
     0
176
     1
290
     0
176
     1
 93
       13
176
     1
 44
0.0
176
     1
173
     0
176
     1
  0
VISUALSTYLE
  5
2C
102
{ACAD_REACTORS
330
2A
102
}
330
2A
100
AcDbVisualStyle
  2
FlatWithEdges
 70
     1
177
     2
291
     1
 71
     2
176
     1
 72
     1
176
     1
 73
     1
176
     1
 90
        2
176
     1
 40
-0.6
176
     1
 41
30.0
176
     1
 62
     5
 63
     7
421
 16777215
176
     1
 74
     1
176
     1
 91
        4
176
     1
 64
     7
176
     1
 65
   257
176
     1
 75
     1
176
     1
175
     1
176
     1
 42
1.0
176
     1
 92
        0
176
     1
 66
   257
176
     1
 43
1.0
176
     1
 76
     1
176
     1
 77
     6
176
     1
 78
     2
176
     1
 67
     7
176
     1
 79
     5
176
     1
170
     0
176
     1
171
     0
176
     1
290
     0
176
     1
 93
       13
176
     1
 44
0.0
176
     1
173
     0
176
     1
  0
VISUALSTYLE
  5
2D
102
{ACAD_REACTORS
330
2A
102
}
330
2A
100
AcDbVisualStyle
  2
Gouraud
 70
     2
177
     2
291
     1
 71
     2
176
     1
 72
     2
176
     1
 73
     1
176
     1
 90
        2
176
     1
 40
-0.6
176
     1
 41
30.0
176
     1
 62
     5
 63
     7
421
 16777215
176
     1
 74
     0
176
     1
 91
        4
176
     1
 64
     7
176
     1
 65
   257
176
     1
 75
     1
176
     1
175
     1
176
     1
 42
1.0
176
     1
 92
        0
176
     1
 66
     7
176
     1
 43
1.0
176
     1
 76
     1
176
     1
 77
     6
176
     1
 78
     2
176
     1
 67
     7
176
     1
 79
     5
176
     1
170
     0
176
     1
171
     0
176
     1
290
     0
176
     1
 93
       13
176
     1
 44
0.0
176
     1
173
     0
176
     1
  0
VISUALSTYLE
  5
2E
102
{ACAD_REACTORS
330
2A
102
}
330
2A
100
AcDbVisualStyle
  2
GouraudWithEdges
 70
     3
177
     2
291
     1
 71
     2
176
     1
 72
     2
176
     1
 73
     1
176
     1
 90
        2
176
     1
 40
-0.6
176
     1
 41
30.0
176
     1
 62
     5
 63
     7
421
 16777215
176
     1
 74
     1
176
     1
 91
        4
176
     1
 64
     7
176
     1
 65
   257
176
     1
 75
     1
176
     1
175
     1
176
     1
 42
1.0
176
     1
 92
        0
176
     1
 66
   257
176
     1
 43
1.0
176
     1
 76
     1
176
     1
 77
     6
176
     1
 78
     2
176
     1
 67
     7
176
     1
 79
     5
176
     1
170
     0
176
     1
171
     0
176
     1
290
     0
176
     1
 93
       13
176
     1
 44
0.0
176
     1
173
     0
176
     1
  0
VISUALSTYLE
  5
38
102
{ACAD_REACTORS
330
2A
102
}
330
2A
100
AcDbVisualStyle
  2
Linepattern
 70
    14
177
     2
291
     1
 71
     2
176
     1
 72
     2
176
     1
 73
     0
176
     1
 90
        0
176
     1
 40
-0.6
176
     1
 41
-30.0
176
     1
 62
     5
 63
     7
421
 16777215
176
     1
 74
     1
176
     1
 91
        4
176
     1
 64
     7
176
     1
 65
   257
176
     1
 75
     7
176
     1
175
     7
176
     1
 42
1.0
176
     1
 92
        8
176
     1
 66
     7
176
     1
 43
1.0
176
     1
 76
     1
176
     1
 77
     6
176
     1
 78
     2
176
     1
 67
     7
176
     1
 79
     5
176
     1
170
     0
176
     1
171
     0
176
     1
290
     0
176
     1
 93
        1
176
     1
 44
0.0
176
     1
173
     0
176
     1
  0
VISUALSTYLE
  5
33
102
{ACAD_REACTORS
330
2A
102
}
330
2A
100
AcDbVisualStyle
  2
Realistic
 70
     8
177
     2
291
     0
 71
     2
176
     1
 72
     2
176
     1
 73
     0
176
     1
 90
        0
176
     1
 40
-0.6
176
     1
 41
-30.0
176
     1
 62
     5
 63
     7
421
 16777215
176
     1
 74
     1
176
     1
 91
        0
176
     1
 64
     7
176
     1
 65
   257
176
     1
 75
     1
176
     1
175
     1
176
     1
 42
1.0
176
     1
 92
        8
176
     1
 66
     8
424
  7895160
176
     1
 43
1.0
176
     1
 76
     1
176
     1
 77
     6
176
     1
 78
     2
176
     1
 67
     7
176
     1
 79
     5
176
     1
170
     0
176
     1
171
     0
176
     1
290
     0
176
     1
 93
       13
176
     1
 44
0.0
176
     1
173
     0
176
     1
  0
VISUALSTYLE
  5
37
102
{ACAD_REACTORS
330
2A
102
}
330
2A
100
AcDbVisualStyle
  2
Thicken
 70
    13
177
     2
291
     1
 71
     2
176
     1
 72
     2
176
     1
 73
     0
176
     1
 90
        0
176
     1
 40
-0.6
176
     1
 41
-30.0
176
     1
 62
     5
 63
     7
421
 16777215
176
     1
 74
     1
176
     1
 91
        4
176
     1
 64
     7
176
     1
 65
   257
176
     1
 75
     1
176
     1
175
     1
176
     1
 42
1.0
176
     1
 92
       12
176
     1
 66
     7
176
     1
 43
1.0
176
     1
 76
     1
176
     1
 77
     6
176
     1
 78
     2
176
     1
 67
     7
176
     1
 79
     5
176
     1
170
     0
176
     1
171
     0
176
     1
290
     0
176
     1
 93
        1
176
     1
 44
0.0
176
     1
173
     0
176
     1
  0
ENDSEC
  0
EOF
